<?xml version="1.0" encoding="UTF-8" standalone="no"?>
<!-- Created with Inkscape (http://www.inkscape.org/) -->

<svg
   width="256mm"
   height="256mm"
   viewBox="0 0 256 256"
   version="1.1"
   id="svg1"
   inkscape:version="1.4.2 (ebf0e940d0, 2025-05-08)"
   sodipodi:docname="applications-science.svg"
   xml:space="preserve"
   xmlns:inkscape="http://www.inkscape.org/namespaces/inkscape"
   xmlns:sodipodi="http://sodipodi.sourceforge.net/DTD/sodipodi-0.dtd"
   xmlns:xlink="http://www.w3.org/1999/xlink"
   xmlns="http://www.w3.org/2000/svg"
   xmlns:svg="http://www.w3.org/2000/svg"
   xmlns:rdf="http://www.w3.org/1999/02/22-rdf-syntax-ns#"
   xmlns:cc="http://creativecommons.org/ns#"><sodipodi:namedview
     id="namedview1"
     pagecolor="#ffffff"
     bordercolor="#000000"
     borderopacity="0.25"
     inkscape:showpageshadow="2"
     inkscape:pageopacity="0.0"
     inkscape:pagecheckerboard="0"
     inkscape:deskcolor="#d1d1d1"
     inkscape:document-units="mm"
     inkscape:zoom="0.2272466"
     inkscape:cx="506.05818"
     inkscape:cy="539.06198"
     inkscape:current-layer="svg1" /><defs
     id="defs1"><linearGradient
       id="e"><stop
         offset="0"
         stop-color="#73d216"
         id="stop1" /><stop
         offset=".5"
         stop-color="#81e71e"
         stop-opacity=".49803922"
         id="stop2" /><stop
         offset="1"
         stop-color="#73d216"
         id="stop3" /></linearGradient><linearGradient
       id="g"><stop
         offset="0"
         stop-color="#66b913"
         id="stop4" /><stop
         offset="1"
         stop-color="#72d116"
         id="stop5" /></linearGradient><linearGradient
       id="d"><stop
         offset="0"
         stop-color="#fff"
         id="stop6" /><stop
         offset="1"
         stop-color="#f2f2f2"
         stop-opacity="0"
         id="stop7" /></linearGradient><linearGradient
       id="a"><stop
         offset="0"
         stop-color="#cdcdcd"
         id="stop8" /><stop
         offset=".70830673"
         stop-color="#fff"
         stop-opacity=".31623933"
         id="stop9" /><stop
         offset="1"
         stop-color="#d6d6d6"
         id="stop10" /></linearGradient><linearGradient
       id="f"><stop
         offset="0"
         stop-color="#fff"
         stop-opacity="0"
         id="stop11" /><stop
         offset=".61763078"
         stop-color="#fff"
         stop-opacity="0"
         id="stop12" /><stop
         offset=".7459709"
         stop-color="#fff"
         id="stop13" /><stop
         offset="1"
         stop-color="#fff"
         stop-opacity="0"
         id="stop14" /></linearGradient><linearGradient
       id="b"><stop
         offset="0"
         stop-color="#dadad6"
         id="stop15" /><stop
         offset=".5"
         stop-color="#e4e4e1"
         stop-opacity=".49803922"
         id="stop16" /><stop
         offset="1"
         stop-color="#dadad6"
         id="stop17" /></linearGradient><linearGradient
       id="c"><stop
         offset="0"
         stop-color="#cdcdcd"
         id="stop18" /><stop
         offset=".5"
         stop-color="#fff"
         stop-opacity=".31623933"
         id="stop19" /><stop
         offset="1"
         stop-color="#d6d6d6"
         id="stop20" /></linearGradient><linearGradient
       xlink:href="#a"
       id="p"
       x1="25"
       x2="27.84375"
       y1="7.1875"
       y2="6.84375"
       gradientTransform="translate(0,1)"
       gradientUnits="userSpaceOnUse" /><linearGradient
       xlink:href="#b"
       id="n"
       x1="19.959988"
       x2="23.871283"
       y1="8.2504673"
       y2="8.9535227"
       gradientUnits="userSpaceOnUse" /><linearGradient
       xlink:href="#c"
       id="i"
       x1="20.993088"
       x2="31.603107"
       y1="24.096687"
       y2="23.301191"
       gradientTransform="translate(0,1)"
       gradientUnits="userSpaceOnUse" /><linearGradient
       xlink:href="#d"
       id="m"
       x1="25.279068"
       x2="25.146484"
       y1="38.940193"
       y2="35.051105"
       gradientUnits="userSpaceOnUse" /><linearGradient
       xlink:href="#e"
       id="k"
       x1="25.367456"
       x2="33.05724"
       y1="32.885593"
       y2="31.206215"
       gradientUnits="userSpaceOnUse" /><radialGradient
       xlink:href="#f"
       id="o"
       cx="23.881792"
       cy="-.72340405"
       r="15.475195"
       fx="23.881792"
       fy="-.72340405"
       gradientTransform="matrix(0.34979,0.00531,-0.0036,0.14454,15.580212,17.009489)"
       gradientUnits="userSpaceOnUse" /><radialGradient
       xlink:href="#b"
       id="j"
       cx="27.658827"
       cy="39.502598"
       r="17.254612"
       fx="27.658827"
       fy="39.502598"
       gradientTransform="matrix(-0.37671,-0.25718,0.15114,-0.22138,31.38654,52.921005)"
       gradientUnits="userSpaceOnUse" /><radialGradient
       xlink:href="#g"
       id="l"
       cx="21.75"
       cy="27.949663"
       r="8.6250353"
       fx="21.75"
       fy="27.949663"
       gradientTransform="matrix(0.43478,-0.1087,0.06187,0.24746,10.564389,22.572616)"
       gradientUnits="userSpaceOnUse" /><filter
       id="h"
       width="1.1137971"
       height="2.418103"
       x="-0.056898545"
       y="-0.70905148"
       color-interpolation-filters="sRGB"><feGaussianBlur
         stdDeviation=".97980729"
         id="feGaussianBlur20" /></filter><linearGradient
       id="linearGradient6610"><stop
         id="stop6612"
         style="stop-color:#d21616;stop-opacity:1"
         offset="0" /><stop
         id="stop6618"
         style="stop-color:#e71e1e;stop-opacity:0.49803922"
         offset="0.5" /><stop
         id="stop6614"
         style="stop-color:#d21616;stop-opacity:1"
         offset="1" /></linearGradient><linearGradient
       id="linearGradient6588"><stop
         id="stop6590"
         style="stop-color:#b91313;stop-opacity:1"
         offset="0" /><stop
         id="stop6592"
         style="stop-color:#d11616;stop-opacity:1"
         offset="1" /></linearGradient><filter
       x="-0.056898545"
       y="-0.70905148"
       width="1.1137971"
       height="2.418103"
       color-interpolation-filters="sRGB"
       id="filter3395"><feGaussianBlur
         id="feGaussianBlur3397"
         stdDeviation="0.97980729" /></filter><radialGradient
       cx="23.881792"
       cy="-0.72340405"
       r="15.475195"
       fx="23.881792"
       fy="-0.72340405"
       id="radialGradient8683"
       xlink:href="#f"
       gradientUnits="userSpaceOnUse"
       gradientTransform="matrix(0.34978801,0.00531073,-0.00359409,0.14454479,15.580212,17.009489)" /><linearGradient
       x1="19.959988"
       y1="8.2504673"
       x2="23.871283"
       y2="8.9535227"
       id="linearGradient8722"
       xlink:href="#b"
       gradientUnits="userSpaceOnUse" /><radialGradient
       cx="27.658827"
       cy="39.502598"
       r="17.254612"
       fx="27.658827"
       fy="39.502598"
       id="radialGradient8750"
       xlink:href="#b"
       gradientUnits="userSpaceOnUse"
       gradientTransform="matrix(-0.37671088,-0.25717767,0.15113793,-0.22138469,31.38654,52.921005)" /><linearGradient
       x1="25.279068"
       y1="38.940193"
       x2="25.146484"
       y2="35.051105"
       id="linearGradient5641"
       xlink:href="#d"
       gradientUnits="userSpaceOnUse" /><radialGradient
       cx="21.75"
       cy="27.949663"
       r="8.6250353"
       fx="21.75"
       fy="27.949663"
       id="radialGradient6602"
       xlink:href="#linearGradient6588"
       gradientUnits="userSpaceOnUse"
       gradientTransform="matrix(0.43478085,-0.10869525,0.06186575,0.24746294,10.564389,22.572616)" /><linearGradient
       x1="25.367456"
       y1="32.885593"
       x2="33.05724"
       y2="31.206215"
       id="linearGradient6616"
       xlink:href="#linearGradient6610"
       gradientUnits="userSpaceOnUse" /><linearGradient
       inkscape:collect="always"
       xlink:href="#c"
       id="linearGradient1"
       gradientUnits="userSpaceOnUse"
       gradientTransform="translate(0,1)"
       x1="20.993088"
       y1="24.096687"
       x2="31.603107"
       y2="23.301191" /><linearGradient
       inkscape:collect="always"
       xlink:href="#a"
       id="linearGradient2"
       gradientUnits="userSpaceOnUse"
       gradientTransform="translate(0,1)"
       x1="25"
       y1="7.1875"
       x2="27.84375"
       y2="6.84375" /><linearGradient
       id="f-6"><stop
         offset="0"
         stop-color="#1587a0"
         id="stop1-7" /><stop
         offset="1"
         stop-color="#06a9bc"
         id="stop2-5" /></linearGradient><linearGradient
       id="b-3"><stop
         offset="0"
         stop-color="#15516f"
         id="stop3-5" /><stop
         offset="1"
         stop-color="#06a9bc"
         id="stop4-6" /></linearGradient><linearGradient
       id="j-2"><stop
         offset="0"
         stop-color="#fff"
         id="stop5-9" /><stop
         offset="1"
         stop-color="#fff"
         stop-opacity="0"
         id="stop6-1" /></linearGradient><linearGradient
       id="h-2"><stop
         offset="0"
         id="stop7-7" /><stop
         offset="1"
         stop-opacity="0"
         id="stop8-0" /></linearGradient><linearGradient
       id="c-9"><stop
         offset="0"
         stop-color="#31588c"
         id="stop9-3" /><stop
         offset="1"
         stop-color="#006fd2"
         stop-opacity="0"
         id="stop10-6" /></linearGradient><linearGradient
       id="k-0"><stop
         offset="0"
         stop-color="#06a9bc"
         id="stop17-2" /><stop
         offset="1"
         stop-color="#4371d0"
         id="stop18-3" /></linearGradient><linearGradient
       id="e-2"><stop
         offset="0"
         stop-color="#fff"
         id="stop21" /><stop
         offset=".5"
         stop-color="#797a76"
         id="stop22" /><stop
         offset="1"
         stop-color="#fff"
         id="stop23" /></linearGradient><linearGradient
       xlink:href="#j-2"
       id="n-2"
       x1="23.375"
       x2="23.375"
       y1="20.49576"
       y2="37.098476"
       gradientUnits="userSpaceOnUse" /><linearGradient
       xlink:href="#b-3"
       id="q"
       x1="16.175068"
       x2="15.527606"
       y1="34.164246"
       y2="41.552113"
       gradientUnits="userSpaceOnUse" /><linearGradient
       xlink:href="#b-3"
       id="u"
       x1="16.175068"
       x2="15.085135"
       y1="34.164246"
       y2="40.973125"
       gradientTransform="matrix(0.78043,0,0,0.45923,11.027669,9.6489285)"
       gradientUnits="userSpaceOnUse" /><linearGradient
       xlink:href="#c-9"
       id="t"
       x1="18.09375"
       x2="16.96875"
       y1="32.8125"
       y2="37.5625"
       gradientTransform="matrix(1.11624,0,0,1.11624,-2.0222684,-7.8127473)"
       gradientUnits="userSpaceOnUse" /><linearGradient
       xlink:href="#j-2"
       id="r"
       x1="19.375"
       x2="28.5"
       y1="23.3125"
       y2="57.5625"
       gradientTransform="matrix(1.11624,0,0,1.11624,-2.0222684,-7.8127473)"
       gradientUnits="userSpaceOnUse" /><linearGradient
       xlink:href="#e-2"
       id="m-8"
       x1="14.683199"
       x2="31.940977"
       y1="31.5"
       y2="31.5"
       gradientTransform="matrix(1.11624,0,0,1.11624,-2.0222684,-6.6965106)"
       gradientUnits="userSpaceOnUse" /><linearGradient
       xlink:href="#f-6"
       id="p-9"
       x1="18.010229"
       x2="18.056477"
       y1="36.428543"
       y2="40.059414"
       gradientUnits="userSpaceOnUse" /><radialGradient
       xlink:href="#h-2"
       id="l-7"
       cx="16.175068"
       cy="38.542446"
       r="7.8665628"
       fx="16.175068"
       fy="38.542446"
       gradientTransform="matrix(1,0,0,0.61798,0,14.72408)"
       gradientUnits="userSpaceOnUse" /><radialGradient
       xlink:href="#h-2"
       id="w"
       cx="21.9375"
       cy="25.096191"
       r="4.96875"
       fx="21.9375"
       fy="25.096191"
       gradientTransform="matrix(0.99338,-0.00702,0.0086,1.21766,1.5731589,-12.072947)"
       gradientUnits="userSpaceOnUse" /><radialGradient
       xlink:href="#j-2"
       id="v"
       cx="19.830584"
       cy="32.614395"
       r="2.7943299"
       fx="19.830584"
       fy="32.614395"
       gradientTransform="matrix(2.76414,0,0,2.68394,-35.125372,-57.814277)"
       gradientUnits="userSpaceOnUse" /><radialGradient
       xlink:href="#j-2"
       id="s"
       cx="22.915245"
       cy="22.863281"
       r="4.96875"
       fx="22.915245"
       fy="22.863281"
       gradientTransform="matrix(0.91364,0,0,0.67322,2.6451446,1.7711181)"
       gradientUnits="userSpaceOnUse" /><radialGradient
       xlink:href="#k-0"
       id="o-3"
       cx="20.761353"
       cy="35.534462"
       r="9.0003331"
       fx="20.761353"
       fy="35.534462"
       gradientTransform="matrix(1.2329,0,0,1.74856,-4.5107875,-30.884317)"
       gradientUnits="userSpaceOnUse" /><linearGradient
       xlink:href="#b"
       id="j-9"
       x1="19.959988"
       x2="23.871283"
       y1="8.2504673"
       y2="8.9535227"
       gradientUnits="userSpaceOnUse" /><linearGradient
       xlink:href="#d"
       id="i-7"
       x1="25.279068"
       x2="25.146484"
       y1="38.940193"
       y2="35.051105"
       gradientUnits="userSpaceOnUse" /><radialGradient
       xlink:href="#f"
       id="k-4"
       cx="23.881792"
       cy="-.72340405"
       r="15.475195"
       fx="23.881792"
       fy="-.72340405"
       gradientTransform="matrix(0.34979,0.00531,-0.0036,0.14454,15.580212,17.009489)"
       gradientUnits="userSpaceOnUse" /><radialGradient
       xlink:href="#b"
       id="h-5"
       cx="27.658827"
       cy="39.502598"
       r="17.254612"
       fx="27.658827"
       fy="39.502598"
       gradientTransform="matrix(-0.37671,-0.25718,0.15114,-0.22138,31.38654,52.921005)"
       gradientUnits="userSpaceOnUse" /><filter
       id="f-2"
       width="1.1137971"
       height="2.418103"
       x="-0.056898545"
       y="-0.70905148"><feGaussianBlur
         stdDeviation=".97980729"
         id="feGaussianBlur15" /></filter><linearGradient
       inkscape:collect="always"
       xlink:href="#c"
       id="linearGradient3"
       gradientUnits="userSpaceOnUse"
       gradientTransform="translate(0,1)"
       x1="20.993088"
       y1="24.096687"
       x2="31.603107"
       y2="23.301191" /><linearGradient
       inkscape:collect="always"
       xlink:href="#a"
       id="linearGradient4"
       gradientUnits="userSpaceOnUse"
       gradientTransform="translate(0,1)"
       x1="25"
       y1="7.1875"
       x2="27.84375"
       y2="6.84375" /><radialGradient
       id="g1_"
       cx="147.9"
       cy="-89.2"
       r="7.22"
       gradientTransform="matrix(0.732,0,0,-0.732,-102.4,-35.99)"
       gradientUnits="userSpaceOnUse"><stop
         stop-color="#b1d2f4"
         id="stop1-8" /><stop
         offset="1"
         stop-color="#72a0cf"
         id="stop2-6" /></radialGradient><radialGradient
       id="g2_"
       cx="2550.1"
       cy="-28649.8"
       r="231"
       gradientTransform="matrix(0.095,0,0,-0.013,-218.5,-328.1)"
       gradientUnits="userSpaceOnUse"><stop
         stop-color="#2e3436"
         id="stop3-8" /><stop
         offset="1"
         stop-color="#2e3436"
         stop-opacity="0"
         id="stop4-8" /></radialGradient><radialGradient
       id="g3_"
       cx="147.9"
       cy="-89.2"
       r="7.22"
       gradientTransform="matrix(0.732,0,0,-0.732,-85.5,-59.6)"
       gradientUnits="userSpaceOnUse"><stop
         stop-color="#f4b1b1"
         id="stop5-4" /><stop
         offset="1"
         stop-color="#ef2929"
         id="stop6-3" /></radialGradient><radialGradient
       id="g4_"
       cx="147.9"
       cy="-89.2"
       r="7.22"
       gradientTransform="matrix(0.732,0,0,-0.732,-68.77,-33.89)"
       gradientUnits="userSpaceOnUse"><stop
         stop-color="#b1cff4"
         id="stop7-1" /><stop
         offset="1"
         stop-color="#3466a4"
         id="stop8-4" /></radialGradient><radialGradient
       id="g5_"
       cx="12.54"
       cy="13.1"
       r="5.18"
       gradientTransform="matrix(1,0,0,-1,0,49)"
       gradientUnits="userSpaceOnUse"><stop
         stop-color="#d2f4b1"
         id="stop9-9" /><stop
         offset="1"
         stop-color="#8ae234"
         id="stop10-2" /></radialGradient></defs><metadata
     id="metadata1"><rdf:RDF><cc:License
         rdf:about="http://creativecommons.org/publicdomain/zero/1.0/"><cc:permits
           rdf:resource="http://creativecommons.org/ns#Reproduction" /><cc:permits
           rdf:resource="http://creativecommons.org/ns#Distribution" /><cc:permits
           rdf:resource="http://creativecommons.org/ns#DerivativeWorks" /></cc:License><cc:Work
         rdf:about=""><cc:license
           rdf:resource="http://creativecommons.org/publicdomain/zero/1.0/" /></cc:Work></rdf:RDF></metadata><g
     id="g27"
     transform="matrix(2.4086215,0,0,2.4086215,18.413472,-3.2337408)"><path
       fill-rule="evenodd"
       d="m 44.401966,41.570206 a 20.664303,1.657997 0 1 1 -41.3286056,0 20.664303,1.657997 0 1 1 41.3286056,0 z"
       color="#000000"
       enable-background="accumulate"
       filter="url(#f)"
       opacity="0.4"
       overflow="visible"
       style="marker:none;filter:url(#f-2)"
       transform="matrix(0.91962,0,0,2.15211,2.2376422,-47.98043)"
       id="path15" /><path
       fill="url(#g)"
       d="m 19.228391,5.6023853 c -0.954323,0.25 -1.429749,3.3036835 0.47716,3.5 V 17.102385 L 9.7160905,34.020082 C 8.5217761,36.042719 7.1918111,39.203883 11.144566,41.208632 13.697754,42.271912 18.23556,43 24,43 c 5.764441,0 10.302246,-0.728088 12.855434,-1.791368 3.952755,-2.004749 2.62279,-5.165913 1.428476,-7.18855 L 28.294448,17.102385 v -8 c 1.906911,-0.1963165 1.431485,-3.25 0.477162,-3.5"
       opacity="0.5"
       id="path16"
       style="fill:url(#linearGradient3)" /><path
       fill="url(#h)"
       stroke="#ffffff"
       stroke-linecap="round"
       stroke-linejoin="round"
       stroke-opacity="0.5"
       d="M 38.314835,37.999999 C 38.314835,40.209138 33.905865,42 24,42 14.000384,42 9.6851652,40.209138 9.6851652,37.999999 9.6851652,35.79086 16.094135,33.999998 24,33.999998 c 7.905864,0 14.314835,1.790862 14.314835,4.000001 z"
       opacity="0.5"
       id="path17"
       style="fill:url(#h-5)" /><path
       fill="url(#i)"
       d="m 24,33.53125 c -3.988338,0 -7.599987,0.447005 -10.25,1.1875 -1.325007,0.370247 -2.397579,0.82189 -3.1875,1.34375 C 9.7725788,36.58436 9.21875,37.220994 9.21875,38 c 0,0.704938 0.3665816,1.365724 1,1.90625 0.633418,0.540526 1.546775,1.000996 2.75,1.375 2.40645,0.748008 6.00345,1.1875 11.03125,1.1875 4.981189,0 8.582766,-0.439903 11,-1.1875 1.208617,-0.373799 2.140751,-0.835479 2.78125,-1.375 0.640499,-0.539521 1,-1.197996 1,-1.90625 0,-0.779006 -0.553829,-1.41564 -1.34375,-1.9375 C 36.647579,35.54064 35.575007,35.088997 34.25,34.71875 31.599987,33.978255 27.988337,33.53125 24,33.53125 Z m 0,0.9375 c 3.917527,0 7.469062,0.449029 10,1.15625 1.265469,0.353611 2.278681,0.783503 2.9375,1.21875 0.658819,0.435247 0.90625,0.830686 0.90625,1.15625 0,0.396315 -0.191758,0.769914 -0.6875,1.1875 -0.495742,0.417586 -1.305641,0.837441 -2.4375,1.1875 C 32.455032,41.075118 28.924676,41.53125 24,41.53125 19.028184,41.53125 15.469813,41.074708 13.21875,40.375 12.093218,40.025146 11.300673,39.604081 10.8125,39.1875 10.324327,38.770919 10.15625,38.399632 10.15625,38 c 0,-0.325564 0.247431,-0.721003 0.90625,-1.15625 0.658819,-0.435247 1.672031,-0.865139 2.9375,-1.21875 2.530938,-0.707221 6.082473,-1.15625 10,-1.15625 z"
       color="#000000"
       enable-background="accumulate"
       font-family="Sans"
       font-weight="400"
       opacity="0.5"
       overflow="visible"
       style="line-height:normal;-inkscape-font-specification:Sans;text-indent:0;text-align:start;text-transform:none;fill:url(#i-7);marker:none"
       id="path18" /><path
       fill="url(#j)"
       stroke="#888a85"
       stroke-linecap="round"
       stroke-linejoin="round"
       stroke-width="1.44069"
       d="m 32.425897,8.5 a 8.212949,1.5 0 1 1 -16.425898,0 8.212949,1.5 0 1 1 16.425898,0 z"
       transform="matrix(0.62274,0,0,0.77366,8.9215119,-0.5760963)"
       id="path19"
       style="fill:url(#j-9)" /><path
       fill-opacity="0.0377358"
       d="m 12.219689,41.089243 c -1.502602,-0.795495 -0.90598,-3.226175 0.331458,-4.993942 1.237437,-1.767767 8.869166,-17.324116 9.311107,-18.384776 V 8.9703418 l 1.928082,0.1198685 0.04419,8.9640647 c 0,0 -3.687736,13.658883 -5.604427,20.648482 -0.320312,1.168082 -1.281631,2.298098 0.265165,3.623923 -3.270369,-0.464039 -4.087963,-0.552427 -6.275575,-1.237437 z"
       id="path20-5" /><path
       fill-opacity="0.0566038"
       d="m 37.07042,40.333881 c 1.500589,-0.798789 0.839689,-3.314563 -0.397749,-5.08233 C 35.435234,33.483784 27.803505,17.927435 27.361564,16.866775 V 8.7984668 l -0.943707,0.1667435 -0.02857,8.2453147 c 0,0 5.156486,13.815133 7.073177,20.804732 0.320312,1.168082 1.281631,2.298098 -0.265165,3.623923 3.270369,-0.464039 1.849598,-0.228145 3.873121,-1.305299 z"
       id="path21-4" /><path
       fill="none"
       stroke="#d3d7cf"
       stroke-linecap="round"
       stroke-linejoin="round"
       d="m 28.294448,9.102385 c -1.58305,0.2710437 -2.05558,0.4963234 -4.290227,0.4963234 -2.234646,0 -2.95492,-0.2861038 -4.314295,-0.4494481"
       opacity="0.5"
       id="path22-7" /><path
       fill="none"
       stroke="url(#k)"
       stroke-linecap="round"
       stroke-linejoin="round"
       stroke-width="2"
       d="m 28.018528,17.634432 c -0.933176,0.828427 -3.245218,0.919843 -4.074627,0.919843 -0.942523,0 -2.293111,0.06326 -4.074628,-0.831455"
       opacity="0.75"
       id="path23-4"
       style="stroke:url(#k-4)" /><path
       fill="none"
       stroke="#ffffff"
       stroke-linecap="round"
       stroke-linejoin="round"
       stroke-width="2"
       d="m 38.579484,36.308938 c -3.323585,1.896783 -11.683116,2.606091 -14.637126,2.606091 -3.356875,0 -8.042108,-0.355159 -14.3871303,-2.403716"
       opacity="0.1"
       id="path24-4" /><path
       fill="url(#l)"
       d="m 18.9375,6.8124999 c -0.15625,1.234375 -0.05091,1.6350764 1.25,1.890625 1.306028,0.2565529 2.171578,0.3556054 3.749703,0.3868554 0.989617,0.019596 2.801884,-0.148837 3.835498,-0.3803981 C 28.576356,8.5295388 28.811569,8.3692449 29.005524,8.0487705 29.304295,7.5551079 29.174881,7.02383 29.098484,6.80508 28.095641,7.3843154 26.23437,7.7031249 23.812495,7.6562499 21.39062,7.6093749 19.57812,7.2499999 18.9375,6.8124999 Z"
       opacity="0.5"
       id="path25-3"
       style="fill:url(#linearGradient4)" /><path
       fill="none"
       stroke="#2e3436"
       stroke-linecap="round"
       stroke-linejoin="round"
       stroke-width="2"
       d="m 38.579484,38.34187 c -3.323585,1.896783 -11.683116,2.517703 -14.637126,2.517703 -3.356875,0 -8.042108,-0.266771 -14.3871303,-2.315328"
       opacity="0.1"
       id="path26-0" /><path
       fill="none"
       stroke="#888a85"
       stroke-width="1"
       d="m 19.228391,5.6023853 c -0.954323,0.25 -1.49604,3.0385185 0.47716,3.5 V 17.102385 L 9.7160905,34.020082 C 8.5217761,36.042719 7.1918111,39.203883 11.144566,41.208632 13.697754,42.271912 18.23556,43 24,43 c 5.764441,0 10.302246,-0.728088 12.855434,-1.791368 3.952755,-2.004749 2.62279,-5.165913 1.428476,-7.18855 L 28.294448,17.102385 v -8 c 2.127882,-0.5498699 1.431485,-3.25 0.477162,-3.5"
       id="path27-7" /></g><g
     id="g1"
     transform="matrix(2.9078692,0,0,2.9078692,122.52979,19.42886)"><g
       id="layer4"
       style="display:inline"><path
         d="m 44.401966,41.570206 a 20.664303,1.657997 0 1 1 -41.3286056,0 20.664303,1.657997 0 1 1 41.3286056,0 z"
         transform="matrix(0.9196236,0,0,2.1521099,2.2376422,-47.98043)"
         id="path3341"
         style="color:#000000;display:inline;overflow:visible;visibility:visible;opacity:0.4;fill:#000000;fill-opacity:1;fill-rule:evenodd;stroke:none;stroke-width:1;marker:none;filter:url(#filter3395);enable-background:accumulate" /></g><g
       id="layer6"
       style="display:inline"><path
         d="m 19.228391,5.6023853 c -0.954323,0.25 -1.429749,3.3036835 0.47716,3.5 V 17.102385 L 9.7160905,34.020082 C 8.5217761,36.042719 7.1918111,39.203883 11.144566,41.208632 13.697754,42.271912 18.23556,43 24,43 c 5.764441,0 10.302246,-0.728088 12.855434,-1.791368 3.952755,-2.004749 2.62279,-5.165913 1.428476,-7.18855 L 28.294448,17.102385 v -8 c 1.906911,-0.1963165 1.431485,-3.25 0.477162,-3.5"
         id="path7784"
         style="display:inline;opacity:0.5;fill:url(#linearGradient1);fill-opacity:1;stroke:none" /><path
         d="M 38.314835,37.999999 C 38.314835,40.209138 33.905865,42 24,42 14.000384,42 9.6851652,40.209138 9.6851652,37.999999 9.6851652,35.79086 16.094135,33.999998 24,33.999998 c 7.905864,0 14.314835,1.790862 14.314835,4.000001 z"
         id="path3683"
         style="display:inline;opacity:0.5;fill:url(#radialGradient8750);fill-opacity:1;stroke:#ffffff;stroke-width:1;stroke-linecap:round;stroke-linejoin:round;stroke-miterlimit:4;stroke-opacity:0.5" /></g><g
       id="layer5"
       style="display:inline"><path
         d="m 14,27.59375 -3.28125,5.6875 C 9.0699726,36.149376 8.6647993,37.088353 9.125,38.5 c 0.6109427,1.874042 3.125,4 14.375,4 8.681754,0 14.229247,-0.894087 15.40625,-3.9375 0.41168,-1.064493 -0.0053,-2.684818 -0.8125,-4.03125 l -4.125,-6.90625 c -0.12024,0.18256 -0.248653,0.372176 -0.4375,0.53125 -0.443123,0.373262 -1.101331,0.710142 -1.9375,0.96875 -1.672337,0.517217 -4.147567,0.8125 -7.59375,0.8125 -3.47843,0 -5.960123,-0.294998 -7.625,-0.8125 C 15.542561,28.866251 14.906974,28.530208 14.46875,28.15625 14.26949,27.986213 14.123159,27.790316 14,27.59375 Z"
         id="path8952"
         style="display:inline;opacity:0.8;fill:url(#linearGradient6616);fill-opacity:1;stroke:none" /><path
         d="m 24,23.750958 c -2.759289,0 -5.245673,0.312441 -7.079057,0.824745 -0.916693,0.256151 -1.687184,0.566794 -2.233683,0.927837 -0.546499,0.361044 -0.927838,0.801264 -0.927838,1.34021 0,0.487704 0.283428,0.931889 0.721652,1.305845 0.438224,0.373958 1.0576,0.703453 1.890039,0.962202 1.664877,0.517502 4.150457,0.824745 7.628887,0.824745 3.446183,0 5.922185,-0.307528 7.594522,-0.824745 0.836169,-0.258608 1.481281,-0.58894 1.924404,-0.962202 0.443122,-0.373261 0.721652,-0.815847 0.721652,-1.305845 0,-0.538946 -0.381339,-0.979166 -0.927838,-1.34021 C 32.766241,25.142497 31.99575,24.831854 31.079057,24.575703 29.245673,24.063399 26.759289,23.750958 24,23.750958 Z"
         id="path8965"
         style="color:#000000;font-style:normal;font-variant:normal;font-weight:normal;font-stretch:normal;font-size:medium;line-height:normal;font-family:Sans;-inkscape-font-specification:Sans;text-indent:0;text-align:start;text-decoration:none;text-decoration-line:none;letter-spacing:normal;word-spacing:normal;text-transform:none;writing-mode:lr-tb;direction:ltr;baseline-shift:baseline;text-anchor:start;display:inline;overflow:visible;visibility:visible;opacity:0.5;fill:#d21616;fill-opacity:0.665094;fill-rule:nonzero;stroke:none;stroke-width:0.937794;marker:none;enable-background:accumulate" /><path
         d="m 24,24.642551 c 2.440726,0 4.65343,0.279758 6.230274,0.720375 0.788422,0.220309 1.41968,0.488143 1.830142,0.759314 0.410462,0.271171 0.564619,0.51754 0.564619,0.720375 0,0.246915 -0.11947,0.479678 -0.428331,0.739845 -0.308862,0.260168 -0.81345,0.521749 -1.51863,0.739846 -1.410358,0.436193 -3.609866,0.720375 -6.678074,0.720375 -3.097578,0 -5.314539,-0.284437 -6.717013,-0.720375 -0.701237,-0.217969 -1.195015,-0.480304 -1.49916,-0.739846 -0.304145,-0.259541 -0.408862,-0.490862 -0.408862,-0.739845 0,-0.202835 0.154157,-0.449204 0.564619,-0.720375 0.410462,-0.271171 1.04172,-0.539005 1.830142,-0.759314 C 19.34657,24.922309 21.559274,24.642551 24,24.642551 Z"
         id="path8954"
         style="color:#000000;font-style:normal;font-variant:normal;font-weight:normal;font-stretch:normal;font-size:medium;line-height:normal;font-family:Sans;-inkscape-font-specification:Sans;text-indent:0;text-align:start;text-decoration:none;text-decoration-line:none;letter-spacing:normal;word-spacing:normal;text-transform:none;writing-mode:lr-tb;direction:ltr;baseline-shift:baseline;text-anchor:start;display:inline;overflow:visible;visibility:visible;opacity:0.8;fill:url(#radialGradient6602);fill-opacity:1;fill-rule:nonzero;stroke:none;stroke-width:0.937794;marker:none;enable-background:accumulate" /></g><g
       id="layer1"
       style="display:inline"><path
         d="m 24,33.53125 c -3.988338,0 -7.599987,0.447005 -10.25,1.1875 -1.325007,0.370247 -2.397579,0.82189 -3.1875,1.34375 C 9.7725788,36.58436 9.21875,37.220994 9.21875,38 c 0,0.704938 0.3665816,1.365724 1,1.90625 0.633418,0.540526 1.546775,1.000996 2.75,1.375 2.40645,0.748008 6.00345,1.1875 11.03125,1.1875 4.981189,0 8.582766,-0.439903 11,-1.1875 1.208617,-0.373799 2.140751,-0.835479 2.78125,-1.375 0.640499,-0.539521 1,-1.197996 1,-1.90625 0,-0.779006 -0.553829,-1.41564 -1.34375,-1.9375 C 36.647579,35.54064 35.575007,35.088997 34.25,34.71875 31.599987,33.978255 27.988337,33.53125 24,33.53125 Z m 0,0.9375 c 3.917527,0 7.469062,0.449029 10,1.15625 1.265469,0.353611 2.278681,0.783503 2.9375,1.21875 0.658819,0.435247 0.90625,0.830686 0.90625,1.15625 0,0.396315 -0.191758,0.769914 -0.6875,1.1875 -0.495742,0.417586 -1.305641,0.837441 -2.4375,1.1875 C 32.455032,41.075118 28.924676,41.53125 24,41.53125 19.028184,41.53125 15.469813,41.074708 13.21875,40.375 12.093218,40.025146 11.300673,39.604081 10.8125,39.1875 10.324327,38.770919 10.15625,38.399632 10.15625,38 c 0,-0.325564 0.247431,-0.721003 0.90625,-1.15625 0.658819,-0.435247 1.672031,-0.865139 2.9375,-1.21875 2.530938,-0.707221 6.082473,-1.15625 10,-1.15625 z"
         id="path8687"
         style="color:#000000;font-style:normal;font-variant:normal;font-weight:normal;font-stretch:normal;font-size:medium;line-height:normal;font-family:Sans;-inkscape-font-specification:Sans;text-indent:0;text-align:start;text-decoration:none;text-decoration-line:none;letter-spacing:normal;word-spacing:normal;text-transform:none;writing-mode:lr-tb;direction:ltr;baseline-shift:baseline;text-anchor:start;display:inline;overflow:visible;visibility:visible;opacity:0.5;fill:url(#linearGradient5641);fill-opacity:1;fill-rule:nonzero;stroke:none;stroke-width:0.937794;marker:none;enable-background:accumulate" /><path
         d="m 32.425897,8.5 a 8.212949,1.5 0 1 1 -16.425898,0 8.212949,1.5 0 1 1 16.425898,0 z"
         transform="matrix(0.62274481,0,0,0.77365848,8.9215119,-0.5760963)"
         id="path3785-0"
         style="display:inline;fill:url(#linearGradient8722);fill-opacity:1;stroke:#888a85;stroke-width:1.44069;stroke-linecap:round;stroke-linejoin:round;stroke-miterlimit:4;stroke-dasharray:none;stroke-opacity:1" /><path
         d="m 12.219689,41.089243 c -1.502602,-0.795495 -0.90598,-3.226175 0.331458,-4.993942 1.237437,-1.767767 8.869166,-17.324116 9.311107,-18.384776 V 8.9703418 l 1.928082,0.1198685 0.04419,8.9640647 c 0,0 -3.687736,13.658883 -5.604427,20.648482 -0.320312,1.168082 -1.281631,2.298098 0.265165,3.623923 -3.270369,-0.464039 -4.087963,-0.552427 -6.275575,-1.237437 z"
         id="path8638"
         style="fill:#000000;fill-opacity:0.0377358;stroke:none" /><path
         d="m 37.07042,40.333881 c 1.500589,-0.798789 0.839689,-3.314563 -0.397749,-5.08233 C 35.435234,33.483784 27.803505,17.927435 27.361564,16.866775 V 8.7984668 l -0.943707,0.1667435 -0.02857,8.2453147 c 0,0 5.156486,13.815133 7.073177,20.804732 0.320312,1.168082 1.281631,2.298098 -0.265165,3.623923 3.270369,-0.464039 1.849598,-0.228145 3.873121,-1.305299 z"
         id="path8640"
         style="fill:#000000;fill-opacity:0.0566038;stroke:none" /><path
         d="m 28.294448,9.102385 c -1.58305,0.2710437 -2.05558,0.4963234 -4.290227,0.4963234 -2.234646,0 -2.95492,-0.2861038 -4.314295,-0.4494481"
         id="path3835"
         style="opacity:0.5;fill:none;stroke:#d3d7cf;stroke-width:1;stroke-linecap:round;stroke-linejoin:round;stroke-miterlimit:4;stroke-dasharray:none;stroke-opacity:1" /><path
         d="m 28.018528,17.634432 c -0.933176,0.828427 -3.245218,0.919843 -4.074627,0.919843 -0.942523,0 -2.293111,0.06326 -4.074628,-0.831455"
         id="path7795"
         style="opacity:0.75;fill:none;stroke:url(#radialGradient8683);stroke-width:2;stroke-linecap:round;stroke-linejoin:round;stroke-miterlimit:4;stroke-dasharray:none;stroke-opacity:1" /><path
         d="m 38.579484,36.308938 c -3.323585,1.896783 -11.683116,2.606091 -14.637126,2.606091 -3.356875,0 -8.042108,-0.355159 -14.3871303,-2.403716"
         id="path8736"
         style="opacity:0.1;fill:none;stroke:#ffffff;stroke-width:2;stroke-linecap:round;stroke-linejoin:round;stroke-miterlimit:4;stroke-dasharray:none;stroke-opacity:1" /><path
         d="m 18.9375,6.8124999 c -0.15625,1.234375 -0.05091,1.6350764 1.25,1.890625 1.306028,0.2565529 2.171578,0.3556054 3.749703,0.3868554 0.989617,0.019596 2.801884,-0.148837 3.835498,-0.3803981 C 28.576356,8.5295388 28.811569,8.3692449 29.005524,8.0487705 29.304295,7.5551079 29.174881,7.02383 29.098484,6.80508 28.095641,7.3843154 26.23437,7.7031249 23.812495,7.6562499 21.39062,7.6093749 19.57812,7.2499999 18.9375,6.8124999 Z"
         id="path8704"
         style="opacity:0.5;fill:url(#linearGradient2);fill-opacity:1;stroke:none" /><path
         d="m 38.579484,38.34187 c -3.323585,1.896783 -11.683116,2.517703 -14.637126,2.517703 -3.356875,0 -8.042108,-0.266771 -14.3871303,-2.315328"
         id="path9030"
         style="opacity:0.1;fill:none;stroke:#2e3436;stroke-width:2;stroke-linecap:round;stroke-linejoin:round;stroke-miterlimit:4;stroke-dasharray:none;stroke-opacity:1" /><path
         d="m 19.228391,5.6023853 c -0.954323,0.25 -1.49604,3.0385185 0.47716,3.5 V 17.102385 L 9.7160905,34.020082 C 8.5217761,36.042719 7.1918111,39.203883 11.144566,41.208632 13.697754,42.271912 18.23556,43 24,43 c 5.764441,0 10.302246,-0.728088 12.855434,-1.791368 3.952755,-2.004749 2.62279,-5.165913 1.428476,-7.18855 L 28.294448,17.102385 v -8 c 2.127882,-0.5498699 1.431485,-3.25 0.477162,-3.5"
         id="path8685"
         style="display:inline;fill:none;stroke:#888a85;stroke-width:1px;stroke-linecap:butt;stroke-linejoin:miter;stroke-opacity:1" /></g></g><g
     id="g2"
     transform="matrix(2.5843912,0,0,2.5843912,73.117395,1.5887767)"><path
       fill="none"
       stroke="#2e3436"
       stroke-width="2"
       stroke-miterlimit="10"
       d="M 13.8,37.3 24,22.5 V 7.1 M 40.8,32.8 24,22.5 7.1,30.8"
       id="path10" /><ellipse
       opacity="0.5"
       fill="url(#g2_)"
       cx="24.200001"
       cy="45.200001"
       rx="22"
       ry="3"
       id="ellipse10"
       style="fill:url(#g2_)" /><circle
       fill="url(#g1_)"
       stroke="#3465a4"
       cx="7"
       cy="30.719999"
       r="6.3400002"
       id="circle10"
       style="fill:url(#g1_)" /><circle
       fill="none"
       stroke="#ffffff"
       stroke-width="0.7"
       opacity="0.4"
       cx="7"
       cy="30.719999"
       r="5.5"
       id="circle11" /><circle
       fill="url(#g4_)"
       stroke="#204a87"
       cx="40.709999"
       cy="32.82"
       r="6.3400002"
       id="circle12"
       style="fill:url(#g4_)" /><circle
       fill="url(#g3_)"
       stroke="#a40000"
       cx="23.940001"
       cy="7.1100001"
       r="6.3400002"
       id="circle13"
       style="fill:url(#g3_)" /><circle
       fill="url(#g5_)"
       stroke="#4e9a06"
       cx="13.8"
       cy="37.299999"
       r="6.2199998"
       id="circle14"
       style="fill:url(#g5_)" /><g
       fill="none"
       stroke="#ffffff"
       stroke-width="0.7"
       opacity="0.4"
       id="g17"><circle
         cx="40.709999"
         cy="32.82"
         r="5.5"
         id="circle15" /><circle
         cx="23.940001"
         cy="7.1100001"
         r="5.5"
         id="circle16" /><circle
         cx="13.8"
         cy="37.299999"
         r="5.4000001"
         id="circle17" /></g></g><g
     id="g35"
     transform="matrix(3.0722565,0,0,3.0722565,-7.3802044,59.977679)"><path
       fill-rule="evenodd"
       d="m 44.401966,41.570206 a 20.664303,1.657997 0 1 1 -41.3286056,0 20.664303,1.657997 0 1 1 41.3286056,0 z"
       color="#000000"
       enable-background="accumulate"
       filter="url(#h)"
       opacity="0.4"
       overflow="visible"
       style="marker:none"
       transform="matrix(0.91962,0,0,2.15211,2.2376422,-47.98043)"
       id="path20" /><path
       fill="url(#i)"
       d="m 19.228391,5.6023853 c -0.954323,0.25 -1.429749,3.3036835 0.47716,3.5 V 17.102385 L 9.7160905,34.020082 C 8.5217761,36.042719 7.1918111,39.203883 11.144566,41.208632 13.697754,42.271912 18.23556,43 24,43 c 5.764441,0 10.302246,-0.728088 12.855434,-1.791368 3.952755,-2.004749 2.62279,-5.165913 1.428476,-7.18855 L 28.294448,17.102385 v -8 c 1.906911,-0.1963165 1.431485,-3.25 0.477162,-3.5"
       opacity="0.5"
       id="path21"
       style="fill:url(#i)" /><path
       fill="url(#j)"
       stroke="#ffffff"
       stroke-linecap="round"
       stroke-linejoin="round"
       stroke-opacity="0.5"
       d="M 38.314835,37.999999 C 38.314835,40.209138 33.905865,42 24,42 14.000384,42 9.6851652,40.209138 9.6851652,37.999999 9.6851652,35.79086 16.094135,33.999998 24,33.999998 c 7.905864,0 14.314835,1.790862 14.314835,4.000001 z"
       opacity="0.5"
       id="path22"
       style="fill:url(#j)" /><path
       fill="url(#k)"
       d="m 14,27.59375 -3.28125,5.6875 C 9.0699726,36.149376 8.6647993,37.088353 9.125,38.5 c 0.6109427,1.874042 3.125,4 14.375,4 8.681754,0 14.229247,-0.894087 15.40625,-3.9375 0.41168,-1.064493 -0.0053,-2.684818 -0.8125,-4.03125 l -4.125,-6.90625 c -0.12024,0.18256 -0.248653,0.372176 -0.4375,0.53125 -0.443123,0.373262 -1.101331,0.710142 -1.9375,0.96875 -1.672337,0.517217 -4.147567,0.8125 -7.59375,0.8125 -3.47843,0 -5.960123,-0.294998 -7.625,-0.8125 C 15.542561,28.866251 14.906974,28.530208 14.46875,28.15625 14.26949,27.986213 14.123159,27.790316 14,27.59375 Z"
       opacity="0.8"
       id="path23"
       style="fill:url(#k)" /><path
       fill="#73d216"
       fill-opacity="0.665094"
       d="m 24,23.750958 c -2.759289,0 -5.245673,0.312441 -7.079057,0.824745 -0.916693,0.256151 -1.687184,0.566794 -2.233683,0.927837 -0.546499,0.361044 -0.927838,0.801264 -0.927838,1.34021 0,0.487704 0.283428,0.931889 0.721652,1.305845 0.438224,0.373958 1.0576,0.703453 1.890039,0.962202 1.664877,0.517502 4.150457,0.824745 7.628887,0.824745 3.446183,0 5.922185,-0.307528 7.594522,-0.824745 0.836169,-0.258608 1.481281,-0.58894 1.924404,-0.962202 0.443122,-0.373261 0.721652,-0.815847 0.721652,-1.305845 0,-0.538946 -0.381339,-0.979166 -0.927838,-1.34021 C 32.766241,25.142497 31.99575,24.831854 31.079057,24.575703 29.245673,24.063399 26.759289,23.750958 24,23.750958 Z"
       color="#000000"
       enable-background="accumulate"
       font-family="Sans"
       font-weight="400"
       opacity="0.5"
       overflow="visible"
       style="line-height:normal;-inkscape-font-specification:Sans;text-indent:0;text-align:start;text-transform:none;marker:none"
       id="path24" /><path
       fill="url(#l)"
       d="m 24,24.642551 c 2.440726,0 4.65343,0.279758 6.230274,0.720375 0.788422,0.220309 1.41968,0.488143 1.830142,0.759314 0.410462,0.271171 0.564619,0.51754 0.564619,0.720375 0,0.246915 -0.11947,0.479678 -0.428331,0.739845 -0.308862,0.260168 -0.81345,0.521749 -1.51863,0.739846 -1.410358,0.436193 -3.609866,0.720375 -6.678074,0.720375 -3.097578,0 -5.314539,-0.284437 -6.717013,-0.720375 -0.701237,-0.217969 -1.195015,-0.480304 -1.49916,-0.739846 -0.304145,-0.259541 -0.408862,-0.490862 -0.408862,-0.739845 0,-0.202835 0.154157,-0.449204 0.564619,-0.720375 0.410462,-0.271171 1.04172,-0.539005 1.830142,-0.759314 C 19.34657,24.922309 21.559274,24.642551 24,24.642551 Z"
       color="#000000"
       enable-background="accumulate"
       font-family="Sans"
       font-weight="400"
       opacity="0.8"
       overflow="visible"
       style="line-height:normal;-inkscape-font-specification:Sans;text-indent:0;text-align:start;text-transform:none;fill:url(#l);marker:none"
       id="path25" /><path
       fill="url(#m)"
       d="m 24,33.53125 c -3.988338,0 -7.599987,0.447005 -10.25,1.1875 -1.325007,0.370247 -2.397579,0.82189 -3.1875,1.34375 C 9.7725788,36.58436 9.21875,37.220994 9.21875,38 c 0,0.704938 0.3665816,1.365724 1,1.90625 0.633418,0.540526 1.546775,1.000996 2.75,1.375 2.40645,0.748008 6.00345,1.1875 11.03125,1.1875 4.981189,0 8.582766,-0.439903 11,-1.1875 1.208617,-0.373799 2.140751,-0.835479 2.78125,-1.375 0.640499,-0.539521 1,-1.197996 1,-1.90625 0,-0.779006 -0.553829,-1.41564 -1.34375,-1.9375 C 36.647579,35.54064 35.575007,35.088997 34.25,34.71875 31.599987,33.978255 27.988337,33.53125 24,33.53125 Z m 0,0.9375 c 3.917527,0 7.469062,0.449029 10,1.15625 1.265469,0.353611 2.278681,0.783503 2.9375,1.21875 0.658819,0.435247 0.90625,0.830686 0.90625,1.15625 0,0.396315 -0.191758,0.769914 -0.6875,1.1875 -0.495742,0.417586 -1.305641,0.837441 -2.4375,1.1875 C 32.455032,41.075118 28.924676,41.53125 24,41.53125 19.028184,41.53125 15.469813,41.074708 13.21875,40.375 12.093218,40.025146 11.300673,39.604081 10.8125,39.1875 10.324327,38.770919 10.15625,38.399632 10.15625,38 c 0,-0.325564 0.247431,-0.721003 0.90625,-1.15625 0.658819,-0.435247 1.672031,-0.865139 2.9375,-1.21875 2.530938,-0.707221 6.082473,-1.15625 10,-1.15625 z"
       color="#000000"
       enable-background="accumulate"
       font-family="Sans"
       font-weight="400"
       opacity="0.5"
       overflow="visible"
       style="line-height:normal;-inkscape-font-specification:Sans;text-indent:0;text-align:start;text-transform:none;fill:url(#m);marker:none"
       id="path26" /><path
       fill="url(#n)"
       stroke="#888a85"
       stroke-linecap="round"
       stroke-linejoin="round"
       stroke-width="1.44069"
       d="m 32.425897,8.5 a 8.212949,1.5 0 1 1 -16.425898,0 8.212949,1.5 0 1 1 16.425898,0 z"
       transform="matrix(0.62274,0,0,0.77366,8.9215119,-0.5760963)"
       id="path27"
       style="fill:url(#n)" /><path
       fill-opacity="0.0377358"
       d="m 12.219689,41.089243 c -1.502602,-0.795495 -0.90598,-3.226175 0.331458,-4.993942 1.237437,-1.767767 8.869166,-17.324116 9.311107,-18.384776 V 8.9703418 l 1.928082,0.1198685 0.04419,8.9640647 c 0,0 -3.687736,13.658883 -5.604427,20.648482 -0.320312,1.168082 -1.281631,2.298098 0.265165,3.623923 -3.270369,-0.464039 -4.087963,-0.552427 -6.275575,-1.237437 z"
       id="path28" /><path
       fill-opacity="0.0566038"
       d="m 37.07042,40.333881 c 1.500589,-0.798789 0.839689,-3.314563 -0.397749,-5.08233 C 35.435234,33.483784 27.803505,17.927435 27.361564,16.866775 V 8.7984668 l -0.943707,0.1667435 -0.02857,8.2453147 c 0,0 5.156486,13.815133 7.073177,20.804732 0.320312,1.168082 1.281631,2.298098 -0.265165,3.623923 3.270369,-0.464039 1.849598,-0.228145 3.873121,-1.305299 z"
       id="path29" /><path
       fill="none"
       stroke="#d3d7cf"
       stroke-linecap="round"
       stroke-linejoin="round"
       d="m 28.294448,9.102385 c -1.58305,0.2710437 -2.05558,0.4963234 -4.290227,0.4963234 -2.234646,0 -2.95492,-0.2861038 -4.314295,-0.4494481"
       opacity="0.5"
       id="path30" /><path
       fill="none"
       stroke="url(#o)"
       stroke-linecap="round"
       stroke-linejoin="round"
       stroke-width="2"
       d="m 28.018528,17.634432 c -0.933176,0.828427 -3.245218,0.919843 -4.074627,0.919843 -0.942523,0 -2.293111,0.06326 -4.074628,-0.831455"
       opacity="0.75"
       id="path31"
       style="stroke:url(#o)" /><path
       fill="none"
       stroke="#ffffff"
       stroke-linecap="round"
       stroke-linejoin="round"
       stroke-width="2"
       d="m 38.579484,36.308938 c -3.323585,1.896783 -11.683116,2.606091 -14.637126,2.606091 -3.356875,0 -8.042108,-0.355159 -14.3871303,-2.403716"
       opacity="0.1"
       id="path32" /><path
       fill="url(#p)"
       d="m 18.9375,6.8124999 c -0.15625,1.234375 -0.05091,1.6350764 1.25,1.890625 1.306028,0.2565529 2.171578,0.3556054 3.749703,0.3868554 0.989617,0.019596 2.801884,-0.148837 3.835498,-0.3803981 C 28.576356,8.5295388 28.811569,8.3692449 29.005524,8.0487705 29.304295,7.5551079 29.174881,7.02383 29.098484,6.80508 28.095641,7.3843154 26.23437,7.7031249 23.812495,7.6562499 21.39062,7.6093749 19.57812,7.2499999 18.9375,6.8124999 Z"
       opacity="0.5"
       id="path33"
       style="fill:url(#p)" /><path
       fill="none"
       stroke="#2e3436"
       stroke-linecap="round"
       stroke-linejoin="round"
       stroke-width="2"
       d="m 38.579484,38.34187 c -3.323585,1.896783 -11.683116,2.517703 -14.637126,2.517703 -3.356875,0 -8.042108,-0.266771 -14.3871303,-2.315328"
       opacity="0.1"
       id="path34" /><path
       fill="none"
       stroke="#888a85"
       stroke-width="1"
       d="m 19.228391,5.6023853 c -0.954323,0.25 -1.49604,3.0385185 0.47716,3.5 V 17.102385 L 9.7160905,34.020082 C 8.5217761,36.042719 7.1918111,39.203883 11.144566,41.208632 13.697754,42.271912 18.23556,43 24,43 c 5.764441,0 10.302246,-0.728088 12.855434,-1.791368 3.952755,-2.004749 2.62279,-5.165913 1.428476,-7.18855 L 28.294448,17.102385 v -8 c 2.127882,-0.5498699 1.431485,-3.25 0.477162,-3.5"
       id="path35" /></g><g
     id="g38"
     transform="matrix(3.7330917,0,0,3.7330917,85.275832,76.42546)"><path
       fill="url(#l)"
       d="m 24.041631,38.542446 a 7.866563,4.8613592 0 1 1 -15.7331259,0 7.866563,4.8613592 0 1 1 15.7331259,0 z"
       opacity="0.6"
       overflow="visible"
       style="fill:url(#l-7);marker:none"
       transform="matrix(1.9422,0,0,1.26288,-7.4153247,-9.0470785)"
       id="path23-6" /><path
       fill="url(#m)"
       stroke="#555753"
       stroke-linecap="round"
       stroke-linejoin="round"
       stroke-width="1.11624"
       d="m 23.651176,12.837632 c -3.315782,0 -5.402801,1.324798 -8.371776,2.232473 l 3.418475,3.627769 c 0.299096,1.394946 0.348014,2.966016 -0.627883,4.185888 -2.232473,2.790592 -6.197599,6.671667 -6.139302,12.836722 0,4.62122 5.250778,8.371775 11.720486,8.371775 6.469708,0 11.720485,-3.750555 11.720485,-8.371775 -0.28642,-5.907188 -3.906827,-10.04613 -6.139302,-12.836722 -1.837216,-2.29652 -0.09203,-5.810999 0.174412,-7.081127 0.229866,-0.233327 0.383707,-0.47148 0.383707,-0.73253 0,-1.232317 -2.823521,-2.232473 -6.139302,-2.232473 z"
       opacity="0.7"
       overflow="visible"
       style="fill:url(#m-8);marker:none"
       id="path24-1" /><path
       fill="url(#n)"
       d="m 23,19 c -2.559161,0 -4.316872,0.924903 -6.625,1.71875 l 2.53125,2.6875 c 0.06494,0.06951 0.108359,0.156341 0.125,0.25 0.281529,1.313017 0.351846,2.89613 -0.65625,4.15625 C 16.33646,30.360675 12.949787,33.689945 13,39 c 0,1.88354 1.070809,3.617542 2.875,4.90625 C 17.679191,45.194958 20.197133,46 23,46 c 2.802867,0 5.320809,-0.805042 7.125,-2.09375 1.794127,-1.281519 2.863182,-3.003683 2.875,-4.875 -5.17e-4,-0.01066 5.42e-4,-0.0206 0,-0.03125 -0.258905,-5.085782 -3.365352,-8.675441 -5.375,-11.1875 -0.946982,-1.183727 -0.977204,-2.652149 -0.75,-3.90625 0.227204,-1.254101 0.718761,-2.396898 0.8125,-2.84375 0.01664,-0.09366 0.06006,-0.180492 0.125,-0.25 C 27.977961,20.644548 28,20.540448 28,20.5 28,20.412 27.96658,20.276489 27.75,20.09375 27.533421,19.911011 27.152336,19.730153 26.6875,19.5625 25.757829,19.227195 24.435751,19 23,19 Z"
       opacity="0.5"
       overflow="visible"
       style="fill:url(#n-2);marker:none"
       transform="matrix(1.11624,0,0,1.11624,-2.0222684,-7.8127473)"
       id="path25-2" /><path
       fill="url(#o)"
       stroke="#15516f"
       stroke-linecap="round"
       stroke-linejoin="round"
       stroke-width="1.11624"
       d="m 17.337462,27.348709 c -1.713142,2.243874 -3.207508,4.824998 -3.174298,8.336893 9e-5,0.01163 9e-5,0.02325 0,0.03488 0,1.465993 0.826381,2.912443 2.511532,4.116123 1.685151,1.203679 4.172553,2.023179 6.97648,2.023179 2.803926,0 5.291328,-0.8195 6.976479,-2.023179 1.672617,-1.194727 2.499495,-2.626628 2.511533,-4.081241 -6.51e-4,-0.01204 6.83e-4,-0.02286 0,-0.03488 -0.191079,-3.362558 -1.647815,-6.076966 -3.278946,-8.371775 z"
       overflow="visible"
       style="fill:url(#o-3);marker:none"
       id="path26-9" /><path
       fill="url(#p)"
       stroke="url(#q)"
       stroke-linecap="round"
       stroke-linejoin="round"
       stroke-width="1.86455"
       d="m 24.041631,38.542446 a 7.866563,4.8613592 0 1 1 -15.7331259,0 7.866563,4.8613592 0 1 1 15.7331259,0 z"
       overflow="visible"
       style="fill:url(#p-9);stroke:url(#q);marker:none"
       transform="matrix(0.78043,0,0,0.45923,11.027669,9.6489285)"
       id="path27-3" /><path
       fill="none"
       stroke="url(#r)"
       stroke-linecap="round"
       stroke-linejoin="round"
       stroke-width="1.11624"
       d="m 23.651176,13.953868 c -2.38647,0 -4.199829,0.810498 -6.348597,1.604591 l 2.232474,2.372003 c 0.138042,0.146386 0.234395,0.327047 0.279059,0.523236 0.330189,1.539963 0.41027,3.524798 -0.87206,5.127712 -2.320724,2.900905 -5.94881,6.461796 -5.895125,12.139074 0,1.883643 1.064131,3.630416 2.965004,4.988183 1.900873,1.357767 4.622231,2.267356 7.639245,2.267356 3.017013,0 5.738372,-0.909589 7.639245,-2.267356 1.878049,-1.341464 2.939859,-3.060363 2.965003,-4.918418 -0.0012,-0.02401 0.0013,-0.04582 0,-0.06977 -0.291212,-5.435755 -3.640856,-9.321238 -5.895125,-12.139074 -1.202621,-1.503276 -1.209805,-3.334597 -0.941824,-4.813771 0.26798,-1.479174 0.93701,-2.853663 1.011589,-3.20918 0.04015,-0.180332 0.124002,-0.348034 0.244177,-0.488354 -0.168667,-0.13722 -0.619115,-0.356519 -1.081354,-0.523236 -0.950867,-0.342949 -2.397168,-0.593001 -3.941711,-0.593001 z"
       opacity="0.59"
       overflow="visible"
       style="stroke:url(#r);marker:none"
       id="path28-1" /><path
       fill-opacity="0.102662"
       stroke="#ffffff"
       stroke-linecap="round"
       stroke-linejoin="round"
       stroke-width="0.816497"
       d="m 23,19.5 c -1.709578,0 -3.091217,0.46005 -4.53125,1 1.430242,0.538819 2.798497,1 4.53125,1 1.400291,0 2.683204,-0.224258 3.53125,-0.53125 0.424023,-0.153496 0.730221,-0.345591 0.875,-0.46875 -0.147302,-0.124286 -0.448444,-0.314904 -0.875,-0.46875 C 25.678139,19.723558 24.38455,19.5 23,19.5 Z"
       opacity="0.5"
       overflow="visible"
       style="marker:none"
       transform="matrix(1.11624,0,0,1.67436,-2.0222684,-18.696055)"
       id="path29-9" /><g
       opacity="0.7"
       transform="matrix(1.11624,0,0,1.11624,-2.0222684,-7.8127473)"
       id="g33"><path
         fill="#888a85"
         fill-rule="evenodd"
         stroke="#babdb6"
         stroke-linecap="round"
         stroke-width="3"
         d="m 17.5,36.5 11,-26"
         id="path30-4" /><path
         fill="#888a85"
         d="m 19,38 a 1,1 0 1 1 -2,0 1,1 0 1 1 2,0 z"
         opacity="1"
         overflow="visible"
         style="marker:none"
         transform="matrix(2.5,0,0,2.5,-27.5,-58.5)"
         id="path31-7" /><path
         fill="none"
         stroke="#ffffff"
         stroke-linecap="round"
         d="m 17.5,36.5 11,-26"
         id="path32-8" /><path
         fill="#ffffff"
         d="m 19,38 a 1,1 0 1 1 -2,0 1,1 0 1 1 2,0 z"
         opacity="1"
         overflow="visible"
         style="marker:none"
         transform="matrix(1.5,0,0,1.5,-9.5,-20.5)"
         id="path33-4" /></g><path
       fill="none"
       stroke="url(#s)"
       stroke-linecap="round"
       stroke-linejoin="round"
       stroke-width="1.11624"
       d="m 18.593228,16.186342 c 1.596489,0.601449 3.123785,1.116236 5.057948,1.116236 1.563056,0 2.99509,-0.250325 3.941711,-0.593 0.47331,-0.171338 0.815099,-0.385762 0.976707,-0.523236"
       overflow="visible"
       style="stroke:url(#s);marker:none"
       id="path34-5" /><path
       fill="url(#t)"
       fill-rule="evenodd"
       d="m 18.104874,27.244062 -1.255766,2.999886 c -1.216079,0.301071 -2.127826,1.377238 -2.127826,2.685944 0,1.540407 1.250185,2.790592 2.790592,2.790592 1.540406,0 2.790591,-1.250185 2.790591,-2.790592 0,-0.508038 -0.146171,-0.984832 -0.383706,-1.395296 l 1.709238,-4.011475 c -0.351157,0.222702 -0.930663,0.383706 -1.604591,0.383706 -0.943499,0 -1.736284,-0.281392 -1.918532,-0.662765 z"
       id="path35-0"
       style="fill:url(#t)" /><path
       fill="none"
       stroke="url(#u)"
       stroke-linecap="round"
       stroke-linejoin="round"
       stroke-width="1.11624"
       d="m 23.651177,29.581182 c -3.388895,0 -6.139301,-1.000148 -6.139301,-2.232473"
       overflow="visible"
       style="stroke:url(#u);marker:none"
       id="path36" /><path
       fill="url(#v)"
       d="m 20.302465,16.186342 c 1.388103,0.275398 2.339287,0.269713 3.348711,0.301494 0.558118,8.628399 -2.790592,16.442056 0,23.697595 h -3.348711 c -8.371775,-8.929894 5.023066,-16.185432 0,-23.999089 z"
       opacity="0.7"
       overflow="visible"
       style="fill:url(#v);marker:none"
       id="path37" /><path
       fill="none"
       stroke="url(#w)"
       stroke-linecap="round"
       stroke-linejoin="round"
       stroke-width="1.11624"
       d="m 18.593228,17.302578 c 1.596489,0.60145 3.123785,1.116237 5.057948,1.116237 1.563056,0 2.99509,-0.250325 3.941711,-0.593001 0.47331,-0.171337 0.815099,-0.385761 0.976707,-0.523236"
       opacity="0.15"
       overflow="visible"
       style="stroke:url(#w);marker:none"
       id="path38" /></g></svg>
