<?xml version="1.0" encoding="UTF-8" standalone="no"?>
<svg
   width="256"
   height="256"
   version="1.1"
   id="svg13"
   sodipodi:docname="applications-games.svg"
   viewBox="0 0 256 256"
   inkscape:version="1.4.2 (ebf0e940d0, 2025-05-08)"
   xmlns:inkscape="http://www.inkscape.org/namespaces/inkscape"
   xmlns:sodipodi="http://sodipodi.sourceforge.net/DTD/sodipodi-0.dtd"
   xmlns:xlink="http://www.w3.org/1999/xlink"
   xmlns="http://www.w3.org/2000/svg"
   xmlns:svg="http://www.w3.org/2000/svg"
   xmlns:rdf="http://www.w3.org/1999/02/22-rdf-syntax-ns#"
   xmlns:cc="http://creativecommons.org/ns#"
   xmlns:dc="http://purl.org/dc/elements/1.1/">
  <sodipodi:namedview
     id="namedview13"
     pagecolor="#ffffff"
     bordercolor="#000000"
     borderopacity="0.25"
     inkscape:showpageshadow="2"
     inkscape:pageopacity="0.0"
     inkscape:pagecheckerboard="0"
     inkscape:deskcolor="#d1d1d1"
     inkscape:zoom="3.064931"
     inkscape:cx="175.69726"
     inkscape:cy="179.61252"
     inkscape:current-layer="svg13" />
  <defs
     id="defs8">
    <linearGradient
       id="c">
      <stop
         offset="0"
         stop-color="#e5e5e5"
         id="stop1" />
      <stop
         offset="1"
         stop-color="#dfdfdf"
         id="stop2" />
    </linearGradient>
    <linearGradient
       id="d">
      <stop
         offset="0"
         id="stop3" />
      <stop
         offset="1"
         stop-opacity="0"
         id="stop4" />
    </linearGradient>
    <linearGradient
       id="b">
      <stop
         offset="0"
         stop-color="#fff"
         id="stop5" />
      <stop
         offset="1"
         stop-color="#fff"
         stop-opacity="0"
         id="stop6" />
    </linearGradient>
    <linearGradient
       id="a">
      <stop
         offset="0"
         stop-color="#e5e5e5"
         id="stop7" />
      <stop
         offset="1"
         stop-color="#c8c8c8"
         id="stop8" />
    </linearGradient>
    <linearGradient
       xlink:href="#a"
       id="f"
       x1="42.150032"
       x2="50.871357"
       y1="23.405266"
       y2="39.318127"
       gradientTransform="matrix(0.89309,0,0,1.1197,-18.45684,-0.381848)"
       gradientUnits="userSpaceOnUse" />
    <linearGradient
       xlink:href="#a"
       id="g"
       x1="38.897804"
       x2="69.181168"
       y1="32.234478"
       y2="57.055389"
       gradientTransform="matrix(0.88246,0,0,1.12323,-18.45703,-0.304225)"
       gradientUnits="userSpaceOnUse" />
    <linearGradient
       xlink:href="#b"
       id="h"
       x1="48"
       x2="78"
       y1="18.534204"
       y2="18.534204"
       gradientTransform="matrix(1.01572,0,0,1.04774,-38.62402,-6.542519)"
       gradientUnits="userSpaceOnUse" />
    <linearGradient
       xlink:href="#b"
       id="i"
       x1="48"
       x2="78"
       y1="18.534204"
       y2="18.534204"
       gradientTransform="matrix(0.96932,0.30347,-0.31303,0.99988,-26.51354,-28.87764)"
       gradientUnits="userSpaceOnUse" />
    <linearGradient
       xlink:href="#a"
       id="j"
       x1="35.321308"
       x2="51.861248"
       y1="24.984463"
       y2="41.370472"
       gradientTransform="matrix(0.89309,0,0,1.11971,0.123711,-12.57232)"
       gradientUnits="userSpaceOnUse" />
    <linearGradient
       xlink:href="#c"
       id="k"
       x1="34.561821"
       x2="50.808903"
       y1="17.249048"
       y2="44.769524"
       gradientTransform="matrix(0.88246,0,0,1.12323,0.12316,-12.49411)"
       gradientUnits="userSpaceOnUse" />
    <linearGradient
       xlink:href="#b"
       id="l"
       x1="54.287079"
       x2="68.843483"
       y1="9.1136208"
       y2="38.118332"
       gradientTransform="matrix(0.98586,0.24445,-0.25216,1.01694,-24.58715,-15.18839)"
       gradientUnits="userSpaceOnUse" />
    <radialGradient
       xlink:href="#d"
       id="e"
       cx="22.571428"
       cy="30.857143"
       r="15.571428"
       fx="22.571428"
       fy="30.857143"
       gradientTransform="matrix(1.40812,0,0,0.32110428,-7.856805,33.591757)"
       gradientUnits="userSpaceOnUse" />
  </defs>
  <g
     id="g14"
     transform="matrix(5.2115998,0,0,5.2115998,1.1004445,2.599134)">
    <path
       fill="url(#e)"
       d="m 45.852915,43.500057 a 21.926441,5.0000233 0 1 1 -43.85288,0 21.926441,5.0000233 0 1 1 43.85288,0 z"
       color="#000000"
       opacity="0.386364"
       overflow="visible"
       style="fill:url(#e);stroke-width:0.833155;marker:none"
       id="path8" />
    <g
       transform="rotate(-11.397,0.07282033,54.295865)"
       id="g10">
      <g
         stroke-linecap="round"
         transform="rotate(15.124,7.6431562,42.484254)"
         id="g9">
        <rect
           width="30.930361"
           height="39.032627"
           x="-1.9805312"
           y="8.2107315"
           fill="url(#f)"
           stroke="#888a85"
           stroke-width="1"
           rx="3.0304639"
           ry="2.8284323"
           transform="rotate(-15.12)"
           id="rect8"
           style="fill:url(#f)" />
        <rect
           width="28.997335"
           height="37.150211"
           x="-1.0130478"
           y="9.1018763"
           fill="url(#g)"
           stroke="#ffffff"
           stroke-width="1"
           rx="2.2349753"
           ry="1.9445504"
           transform="matrix(0.96537709,-0.26085836,0.26079096,0.9653953,0,0)"
           id="rect9"
           style="fill:url(#g)" />
      </g>
      <path
         fill="url(#h)"
         fill-rule="evenodd"
         d="m 10.130389,22.794181 c 12.850496,4.167358 19.23701,-5.741693 30.471515,0 L 38.721929,3.5888283 c 0,0 -0.610789,-2.1547196 -2.015269,-1.8968536 L 12.249217,1.922697 C 10.654669,1.7815811 10.44653,2.8886233 10.479394,4.0674121 Z"
         opacity="0.516484"
         transform="translate(0.176776,7.24784)"
         id="path9"
         style="fill:url(#h)" />
      <path
         fill-rule="evenodd"
         d="m 17.6875,12.28125 c -3.55272,3.349394 -4.982312,4.273193 -5,6.15625 -0.01719,1.830531 2.293528,3.430896 4.3125,2.28125 0.06419,0.93674 0.09453,2.556064 -0.46875,3.21875 0.08839,1e-6 2.46875,0.03125 2.46875,0.03125 -1e-6,1e-6 -0.612443,-2.029971 -0.6875,-3.375 2.20939,1.391875 4.357176,-0.119219 4.375,-2.25 0.01935,-2.234183 -1.281374,-2.946604 -5,-6.0625 z"
         id="path10" />
    </g>
    <g
       transform="translate(-1,-1.625)"
       id="g13">
      <g
         transform="translate(2.5,2.75)"
         id="g12">
        <path
           fill="url(#i)"
           fill-rule="evenodd"
           d="m 11.249051,13.68551 c 11.018461,7.81637 20.073808,0.268022 29.079725,9.104008 L 45.504535,4.7780871 44.31062,2.2533867 l -24.803723,-7.853007 -2.71711,1.3052014 z"
           opacity="0.516484"
           transform="translate(0.176776,7.24784)"
           id="path11"
           style="fill:url(#i)" />
        <rect
           width="30.930372"
           height="39.032639"
           x="16.600031"
           y="-3.9797387"
           fill="url(#j)"
           stroke="#888a85"
           stroke-linecap="round"
           stroke-width="1"
           rx="3.0304649"
           ry="2.8284333"
           transform="rotate(14.88)"
           id="rect11"
           style="fill:url(#j)" />
        <rect
           width="28.997335"
           height="37.150257"
           x="17.567137"
           y="-3.0879984"
           fill="url(#k)"
           stroke="#ffffff"
           stroke-linecap="round"
           stroke-width="1"
           rx="2.2349749"
           ry="1.9445531"
           transform="matrix(0.96647026,0.25677858,-0.25684605,0.96645233,0,0)"
           id="rect12"
           style="fill:url(#k)" />
        <path
           fill="#cc0000"
           fill-rule="evenodd"
           d="m 28.219209,18.579429 c 3.797455,-2.229958 7.152043,1.662118 6.355098,4.528404 -0.728546,2.620283 -3.038399,3.349736 -9.246485,6.694212 -4.022847,-5.736724 -5.582021,-7.228841 -4.71991,-10.338333 0.891468,-3.219047 5.052686,-4.699234 7.611297,-0.884283 z"
           id="path12" />
      </g>
      <path
         fill="url(#l)"
         fill-rule="evenodd"
         d="m 15.408724,24.666097 c 11.469849,7.137567 17.578563,-1.915485 27.101027,6.361228 L 47.031675,13.797161 C 47.29684,12.824889 47.013482,12.056174 45.599269,11.70262 L 22.576749,5.2715507 c -1.325825,-0.3535534 -2.456664,0.5828245 -2.633441,1.466708 z"
         opacity="0.516484"
         id="path13"
         style="fill:url(#l)" />
    </g>
  </g>
  <metadata
     id="metadata13">
    <rdf:RDF>
      <cc:Work
         rdf:about="">
        <dc:source>https://commons.wikimedia.org/wiki/File:Applications-games.svg</dc:source>
        <cc:license
           rdf:resource="http://creativecommons.org/publicdomain/zero/1.0/" />
      </cc:Work>
      <cc:License
         rdf:about="http://creativecommons.org/publicdomain/zero/1.0/">
        <cc:permits
           rdf:resource="http://creativecommons.org/ns#Reproduction" />
        <cc:permits
           rdf:resource="http://creativecommons.org/ns#Distribution" />
        <cc:permits
           rdf:resource="http://creativecommons.org/ns#DerivativeWorks" />
      </cc:License>
    </rdf:RDF>
  </metadata>
</svg>
