<?xml version="1.0" encoding="UTF-8" standalone="no"?>
<!-- Created with Inkscape (http://www.inkscape.org/) -->

<svg
   width="256mm"
   height="256mm"
   viewBox="0 0 256 256"
   version="1.1"
   id="svg1"
   inkscape:version="1.3.2 (091e20ef0f, 2023-11-25)"
   sodipodi:docname="application-x-apple-systemprofiler+xml.svg"
   xmlns:inkscape="http://www.inkscape.org/namespaces/inkscape"
   xmlns:sodipodi="http://sodipodi.sourceforge.net/DTD/sodipodi-0.dtd"
   xmlns:xlink="http://www.w3.org/1999/xlink"
   xmlns="http://www.w3.org/2000/svg"
   xmlns:svg="http://www.w3.org/2000/svg"
   xmlns:rdf="http://www.w3.org/1999/02/22-rdf-syntax-ns#"
   xmlns:cc="http://creativecommons.org/ns#"
   xmlns:dc="http://purl.org/dc/elements/1.1/">
  <defs
     id="defs1">
    <linearGradient
       inkscape:collect="always"
       xlink:href="#linearGradient12"
       id="linearGradient10"
       gradientUnits="userSpaceOnUse"
       gradientTransform="matrix(0.67971795,0.0122341,-0.0122341,0.67971795,56.408044,21.275207)"
       x1="89.504013"
       y1="95.517509"
       x2="142.15218"
       y2="223.87605" />
    <linearGradient
       id="linearGradient12"
       inkscape:collect="always">
      <stop
         style="stop-color:#949699;stop-opacity:1;"
         offset="0"
         id="stop11" />
      <stop
         style="stop-color:#74787a;stop-opacity:1;"
         offset="1"
         id="stop12" />
    </linearGradient>
    <linearGradient
       inkscape:collect="always"
       xlink:href="#linearGradient8"
       id="linearGradient9"
       x1="89.504013"
       y1="95.517509"
       x2="142.15218"
       y2="223.87605"
       gradientUnits="userSpaceOnUse"
       gradientTransform="translate(2.1841115,-24.865269)" />
    <linearGradient
       id="linearGradient8"
       inkscape:collect="always">
      <stop
         style="stop-color:#d0d1d2;stop-opacity:1;"
         offset="0"
         id="stop8" />
      <stop
         style="stop-color:#878a8c;stop-opacity:1;"
         offset="1"
         id="stop9" />
    </linearGradient>
    <linearGradient
       inkscape:collect="always"
       xlink:href="#linearGradient5"
       id="linearGradient6"
       x1="211.01863"
       y1="221.09949"
       x2="153.22366"
       y2="31.585823"
       gradientUnits="userSpaceOnUse"
       gradientTransform="translate(39.314006)" />
    <linearGradient
       id="linearGradient5"
       inkscape:collect="always">
      <stop
         style="stop-color:#909498;stop-opacity:1;"
         offset="0"
         id="stop5" />
      <stop
         style="stop-color:#c7cbd0;stop-opacity:1;"
         offset="1"
         id="stop6" />
    </linearGradient>
  </defs>
  <sodipodi:namedview
     id="base"
     pagecolor="#ffffff"
     bordercolor="#000000"
     borderopacity="0.3"
     inkscape:pageopacity="0.0"
     inkscape:pageshadow="2"
     inkscape:zoom="0.98994949"
     inkscape:cx="505.07627"
     inkscape:cy="476.792"
     inkscape:document-units="mm"
     inkscape:showpageshadow="2"
     inkscape:pagecheckerboard="0"
     inkscape:deskcolor="#d1d1d1"
     inkscape:current-layer="svg1" />
  <metadata
     id="metadata1">
    <rdf:RDF>
      <cc:Work
         rdf:about="">
        <dc:format>image/svg+xml</dc:format>
        <dc:type
           rdf:resource="http://purl.org/dc/dcmitype/StillImage" />
        <cc:license
           rdf:resource="http://creativecommons.org/publicdomain/zero/1.0/" />
      </cc:Work>
      <cc:License
         rdf:about="http://creativecommons.org/publicdomain/zero/1.0/">
        <cc:permits
           rdf:resource="http://creativecommons.org/ns#Reproduction" />
        <cc:permits
           rdf:resource="http://creativecommons.org/ns#Distribution" />
        <cc:permits
           rdf:resource="http://creativecommons.org/ns#DerivativeWorks" />
      </cc:License>
    </rdf:RDF>
  </metadata>
  <g
     id="g2"
     style="display:inline"
     transform="matrix(1.0464823,0,0,1.0464823,-45.308224,-3.4902565)">
    <circle
       style="fill:#2e2e30;fill-opacity:1;fill-rule:evenodd;stroke:none;stroke-width:0.755999;stroke-linecap:round;stroke-linejoin:round;stroke-miterlimit:2.1;stroke-dasharray:none;stroke-opacity:1"
       id="path12"
       cx="164.98441"
       cy="126.34244"
       r="110.54964" />
    <path
       id="path9"
       style="display:inline;fill:url(#linearGradient10);fill-rule:evenodd;stroke-width:0.756;stroke-linecap:round;stroke-linejoin:round;stroke-miterlimit:2.1;stroke-dasharray:none;stroke-opacity:0.357798"
       d="m 163.08152,58.695642 c -0.43488,-0.0078 -0.63013,0.810013 -1.08831,4.561479 -0.24161,1.978254 -0.53079,3.689587 -0.64285,3.802868 -0.11205,0.113282 -0.84229,0.221214 -1.62213,0.240296 l -1.41748,0.03462 -1.2578,-3.530534 c -0.69191,-1.941882 -1.35139,-3.714613 -1.46555,-3.939294 -0.22381,-0.440465 -0.58696,-0.539092 -0.79478,-0.216008 -0.0711,0.110415 -0.1482,2.031688 -0.17208,4.269507 l -0.0434,4.069002 -1.53376,0.337964 -1.53324,0.337447 -1.42317,-3.179134 c -2.01769,-4.507969 -2.40932,-5.115176 -2.78897,-4.32015 -0.1555,0.325593 -0.12665,1.308771 0.11937,4.0535 0.17864,1.993071 0.29533,3.798214 0.25941,4.011641 -0.0511,0.303357 -0.36789,0.493586 -1.45262,0.869715 l -1.38751,0.481107 -1.95441,-3.165181 c -1.07488,-1.74076 -2.15458,-3.38855 -2.39882,-3.661792 -0.38749,-0.433516 -0.46499,-0.459936 -0.61184,-0.208256 -0.19332,0.331305 0.0247,1.591321 0.98288,5.676139 l 0.64544,2.751253 -1.35444,0.699182 c -0.7449,0.384646 -1.38338,0.698791 -1.41903,0.698149 -0.0357,-6.42e-4 -0.95953,-1.130265 -2.05311,-2.510441 -2.53912,-3.204535 -3.29913,-4.062455 -3.60546,-4.067969 -0.49348,-0.0089 -0.24992,1.13319 1.01182,4.74183 0.93095,2.662549 1.21797,3.689404 1.05627,3.778064 -0.12213,0.06696 -0.71318,0.429688 -1.31362,0.806152 l -1.09192,0.684196 -2.63602,-2.6479 c -3.30282,-3.31786 -4.18173,-3.923383 -3.84007,-2.645834 0.0764,0.285449 0.88813,2.076996 1.80402,3.981153 0.9159,1.904156 1.66462,3.490982 1.66398,3.526399 -6.3e-4,0.03541 -0.53682,0.477623 -1.19114,0.982886 -0.72768,0.561925 -1.27446,0.864965 -1.40818,0.780314 -0.12024,-0.07612 -1.29494,-0.96465 -2.61069,-1.974556 -5.33697,-4.096466 -5.56284,-3.979835 -2.2624,1.164786 1.20867,1.884019 2.17132,3.489322 2.13941,3.567741 -0.0318,0.07842 -0.5264,0.628583 -1.09916,1.222665 l -1.0418,1.080554 -3.41736,-2.127519 c -3.19789,-1.990183 -4.26058,-2.46585 -4.27054,-1.912545 -0.006,0.33527 0.2766,0.714019 2.89646,3.884001 l 2.37195,2.870109 -0.56999,0.727604 c -0.31334,0.400431 -0.72998,0.979875 -0.92552,1.28726 l -0.35554,0.558622 -3.37964,-1.566312 c -3.6171,-1.676172 -4.12555,-1.866767 -4.56148,-1.708423 -0.47876,0.1739 -0.0596,0.678215 2.69286,3.237528 1.43522,1.334561 2.76457,2.575606 2.95383,2.757972 0.33944,0.327064 0.33386,0.350053 -0.39016,1.670699 -0.40367,0.736348 -0.80408,1.338375 -0.88987,1.337903 -0.0858,-4.4e-5 -1.75479,-0.474835 -3.70881,-1.0542 -5.7738,-1.711925 -5.96093,-1.477939 -1.4547,1.819527 1.70828,1.250042 3.21733,2.341979 3.35329,2.426212 0.20107,0.12457 0.13125,0.39857 -0.37414,1.46968 -0.34175,0.72429 -0.6796,1.38339 -0.75086,1.46502 -0.0712,0.0816 -1.67568,-0.12912 -3.56516,-0.4687 -6.6205,-1.18974 -6.68584,-0.93832 -0.64388,2.47272 1.49211,0.84241 2.74057,1.58721 2.7745,1.65519 0.034,0.068 -0.14459,0.7525 -0.39687,1.52084 l -0.45889,1.39681 -4.20181,-0.13177 c -5.994241,-0.1878 -6.021095,0.10131 -0.22014,2.3735 2.96244,1.16037 3.48239,1.41902 3.47679,1.73064 -0.007,0.38268 -0.42067,2.68958 -0.49816,2.77709 -0.0245,0.0276 -1.82014,0.25986 -3.98994,0.51625 -4.220078,0.49868 -4.576556,0.56224 -4.581114,0.81545 -0.0064,0.3531 0.918984,0.74578 3.751194,1.59319 1.62296,0.48559 3.26446,0.98848 3.64835,1.11724 l 0.69815,0.23358 -0.0672,1.5167 c -0.0371,0.83397 -0.0932,1.54127 -0.12505,1.572 -0.0319,0.0307 -1.78041,0.34939 -3.88504,0.70797 -4.052545,0.69046 -4.696457,0.84916 -4.702036,1.1591 -0.0069,0.38241 1.215583,0.70229 4.744926,1.24127 1.97348,0.30136 3.63864,0.60379 3.70055,0.67231 0.0619,0.0685 0.13665,0.78797 0.16588,1.59835 l 0.0532,1.4733 -1.55184,0.44648 c -5.05843,1.45604 -6.171565,1.81504 -6.554124,2.11357 l -0.42478,0.33124 0.713135,0.20051 c 0.392192,0.11008 2.381619,0.28653 4.421439,0.39222 l 3.70881,0.19224 0.19482,1.36115 c 0.10701,0.74884 0.22834,1.45539 0.26976,1.56942 0.0445,0.12234 -1.32156,0.83072 -3.33262,1.72857 -3.45015,1.54036 -4.68171,2.23775 -4.49843,2.54662 0.15499,0.26115 1.69746,0.23313 5.30717,-0.0966 1.81289,-0.16563 3.32569,-0.27074 3.36155,-0.23357 0.0358,0.0371 0.20666,0.599 0.37982,1.2485 0.17316,0.64951 0.36339,1.34241 0.4222,1.53996 0.0915,0.30737 -0.24153,0.55471 -2.30684,1.71307 -4.60115,2.58065 -5.6595,3.39972 -4.42092,3.42201 0.25204,0.005 2.17424,-0.32525 4.27158,-0.73277 2.09732,-0.40749 3.845,-0.7402 3.884,-0.73949 0.0999,0.002 1.25915,2.65925 1.25522,2.87735 -0.002,0.0987 -1.29626,1.16448 -2.87631,2.36884 -3.17072,2.4168 -3.79534,2.98577 -3.61373,3.29179 0.1716,0.28916 0.74923,0.15366 4.68085,-1.09967 1.88089,-0.59959 3.47995,-1.08912 3.55378,-1.08779 0.0739,0.001 0.49291,0.63633 0.9307,1.41077 l 0.79581,1.40766 -2.73936,2.66289 c -2.44413,2.37552 -3.13856,3.25933 -2.56936,3.26957 0.0997,0.002 1.89133,-0.76721 3.98167,-1.70843 l 3.80081,-1.711 0.4718,0.66352 c 0.25966,0.36512 0.71154,0.92906 1.00407,1.25316 l 0.53175,0.58962 -0.90175,1.11311 c -0.49592,0.61222 -1.57047,1.92847 -2.38848,2.92541 -2.08433,2.54024 -2.3371,3.07075 -1.35393,2.84272 0.22884,-0.0531 1.88815,-1.00401 3.68763,-2.11357 l 3.27164,-2.01745 1.11363,1.15446 1.11311,1.15393 -2.13734,3.45974 c -3.21882,5.21023 -3.02405,5.29718 2.3089,1.03766 1.40464,-1.12192 2.60123,-2.03864 2.65927,-2.0376 0.058,0.001 0.67308,0.45978 1.36736,1.01957 l 1.26245,1.01803 -1.03301,2.08928 c -1.38301,2.79728 -2.42985,5.03333 -2.5864,5.52473 -0.28677,0.90017 0.51139,0.2961 3.43596,-2.60088 l 3.04168,-3.01274 1.26452,0.78239 c 0.69549,0.43031 1.30286,0.88945 1.35031,1.02009 0.0475,0.13062 -0.48151,1.8035 -1.17564,3.7176 -0.77097,2.12587 -1.24364,3.69604 -1.21492,4.03438 0.0454,0.53454 0.0606,0.54438 0.45114,0.27957 0.22254,-0.15092 1.48877,-1.62842 2.81326,-3.283 1.32449,-1.65459 2.46407,-3.00932 2.53267,-3.01016 0.39455,-0.005 2.88802,1.26607 2.88561,1.47071 -0.002,0.13493 -0.36635,2.01964 -0.80977,4.18838 -0.77629,3.79679 -0.82184,4.52836 -0.262,4.19613 0.10503,-0.0623 1.12307,-1.61154 2.26239,-3.44269 1.13932,-1.83113 2.12876,-3.3917 2.19832,-3.468 0.17597,-0.193 3.04689,0.81431 3.04581,1.06867 -5e-5,0.11376 -0.21358,2.00287 -0.47336,4.19871 -0.38066,3.21761 -0.42902,4.03755 -0.24908,4.22351 0.35052,0.36222 0.75649,-0.29015 2.46238,-3.95686 0.84452,-1.81528 1.58685,-3.35975 1.64951,-3.43184 0.10588,-0.12182 3.02183,0.36031 3.18172,0.52607 0.0396,0.041 0.1505,1.84614 0.2465,4.01112 0.16928,3.81786 0.2596,4.56763 0.54984,4.57285 0.24396,0.004 0.87251,-1.61977 1.69395,-4.37699 0.4398,-1.47626 0.88099,-2.93145 0.9803,-3.2334 l 0.18035,-0.5488 1.5689,0.10749 c 0.86293,0.059 1.5938,0.12982 1.62419,0.15761 0.0304,0.0279 0.30974,1.77735 0.62063,3.88762 0.72707,4.93509 0.89983,5.40419 1.42989,3.8902 h -5.2e-4 c 0.11803,-0.33711 0.55122,-2.19228 0.96222,-4.12275 0.41098,-1.93046 0.77895,-3.53772 0.81804,-3.57187 0.0391,-0.0342 0.77908,-0.0852 1.64434,-0.11317 1.31972,-0.0428 1.58573,-0.005 1.65055,0.23306 0.0424,0.15613 0.46776,1.7886 0.94567,3.62768 0.86294,3.32075 1.21822,4.33911 1.51412,4.34444 0.28589,0.005 0.40679,-0.78729 0.70435,-4.61625 0.16303,-2.09776 0.34094,-3.85686 0.39533,-3.90933 0.07,-0.0676 2.86311,-0.57436 3.15278,-0.57205 0.0135,1e-4 0.657,1.61 1.42988,3.57807 0.7729,1.96809 1.51953,3.73851 1.65933,3.93361 0.67542,0.94243 0.8428,-0.80026 0.44804,-4.66018 -0.36105,-3.53054 -0.4721,-3.19887 1.2516,-3.73259 0.81268,-0.25163 1.53085,-0.39278 1.59577,-0.31419 0.065,0.0786 0.91238,1.53281 1.88361,3.23236 3.0124,5.27134 3.12417,5.25481 2.19521,-0.33124 -0.36204,-2.17707 -0.67313,-4.06103 -0.69143,-4.18631 -0.0276,-0.18852 2.57809,-1.43565 2.98432,-1.42834 0.0668,0.001 0.42167,0.43254 0.78858,0.9586 2.60888,3.74054 4.15672,5.78685 4.37958,5.79086 0.44711,0.008 0.31345,-0.83927 -0.72503,-4.5992 -0.54912,-1.98813 -0.98468,-3.62133 -0.96738,-3.62976 0.0173,-0.009 0.66134,-0.37785 1.43092,-0.82062 l 1.3994,-0.80512 2.52026,2.77916 c 2.65365,2.92614 3.15852,3.42051 3.50108,3.42667 0.35836,0.006 0.055,-1.00286 -1.22422,-4.07004 -0.66525,-1.5951 -1.31493,-3.15872 -1.44384,-3.47472 l -0.23461,-0.57413 1.27434,-0.91002 c 0.70072,-0.50018 1.37337,-0.86505 1.495,-0.81132 0.12163,0.0538 1.29747,1.02776 2.61276,2.16473 2.84556,2.45975 3.68677,3.10873 4.038,3.11505 0.46155,0.008 0.13401,-0.73599 -1.87741,-4.26847 l -1.93786,-3.40341 1.16375,-1.11776 1.16427,-1.11776 2.75487,1.85311 c 2.9968,2.01514 4.42088,2.84494 4.59404,2.67788 0.20642,-0.19912 -0.50698,-1.31226 -2.69493,-4.20285 -1.19864,-1.58358 -2.17869,-2.92659 -2.17764,-2.98483 0.003,-0.19248 1.85367,-2.31646 2.01538,-2.31355 0.0871,0.002 1.78292,0.84191 3.76773,1.86707 1.98481,1.02519 3.75597,1.8664 3.93671,1.86965 0.73826,0.0133 0.20399,-0.74147 -2.58951,-3.65559 l -2.92954,-3.05563 0.87489,-1.26555 c 0.48116,-0.6961 0.91776,-1.26496 0.97048,-1.26401 0.0527,9.5e-4 1.79554,0.61379 3.87263,1.36167 5.52438,1.98911 5.65129,1.72665 1.01751,-2.09754 -1.6512,-1.36272 -3.00114,-2.5148 -3.00033,-2.56005 0.001,-0.0604 1.13089,-2.35956 1.4304,-2.91094 0.0177,-0.0326 1.68947,0.3415 3.71502,0.83148 6.1931,1.49808 6.24893,1.31386 0.70125,-2.30425 -1.66869,-1.08829 -3.03349,-2.00587 -3.03289,-2.03916 6e-4,-0.0333 0.26441,-0.71384 0.58601,-1.51257 l 0.58446,-1.4521 0.74414,0.11472 c 2.04766,0.31711 5.83623,0.7394 6.78873,0.75654 1.85379,0.0334 1.40593,-0.38577 -2.68355,-2.51096 -2.00958,-1.04431 -3.70844,-1.925 -3.77548,-1.95698 -0.0669,-0.032 0.0637,-0.76303 0.29093,-1.62471 l 0.41238,-1.56683 1.37356,0.0248 c 3.02784,0.0545 6.84703,-0.11891 7.1391,-0.32452 0.26961,-0.18979 0.24972,-0.24696 -0.19637,-0.55087 -0.39494,-0.26905 -3.85438,-1.33761 -7.26467,-2.24431 l -0.45734,-0.12144 0.18914,-1.48673 c 0.10413,-0.81736 0.2429,-1.53627 0.3085,-1.59835 0.0655,-0.062 1.74186,-0.29867 3.72484,-0.52555 1.98299,-0.22688 3.87025,-0.49156 4.19354,-0.58808 1.39842,-0.4175 0.38823,-0.88013 -3.81062,-1.74563 -1.8626,-0.38394 -3.57087,-0.74492 -3.79615,-0.80202 -0.39472,-0.10002 -0.40643,-0.16314 -0.32814,-1.74666 l 0.0811,-1.64331 3.76566,-0.8816 c 3.27026,-0.76546 4.63718,-1.21095 4.64261,-1.51257 0.005,-0.29885 -1.20577,-0.52618 -4.66483,-0.87592 -2.17607,-0.22003 -3.98559,-0.43202 -4.02094,-0.47129 -0.0353,-0.0392 -0.12672,-0.74845 -0.20309,-1.57561 l -0.13849,-1.50379 0.46405,-0.17104 c 0.25528,-0.0941 1.72711,-0.61526 3.27112,-1.15756 3.25247,-1.14235 4.39802,-1.6638 4.30516,-1.96008 -0.1202,-0.38345 -0.89305,-0.45403 -4.73769,-0.43202 l -3.80287,0.0222 -0.33125,-1.51722 c -0.18216,-0.83434 -0.27945,-1.56786 -0.216,-1.63039 0.0634,-0.0626 1.50426,-0.79645 3.20135,-1.63091 3.51203,-1.7269 4.26308,-2.16365 4.27054,-2.4815 0.008,-0.35229 -1.10439,-0.29669 -4.77645,0.23926 -1.84621,0.26945 -3.48229,0.46278 -3.63544,0.42943 -0.20333,-0.0443 -1.26951,-2.41669 -1.26245,-2.80913 3.8e-4,-0.0209 1.37277,-0.94033 3.04994,-2.04277 5.55723,-3.652908 5.50345,-3.934857 -0.45114,-2.373498 -1.938,0.508169 -3.65753,0.921238 -3.82147,0.918288 -0.18912,-0.003 -0.54124,-0.498603 -0.96273,-1.354954 -0.36543,-0.742379 -0.62484,-1.378051 -0.57671,-1.412834 0.56273,-0.406708 5.39086,-4.687124 5.82548,-5.164542 0.58277,-0.640117 0.6158,-0.974595 0.0977,-0.98392 -0.15347,-0.0028 -1.5948,0.503498 -3.2029,1.124479 -1.6081,0.620981 -3.29832,1.272514 -3.75636,1.447974 l -0.83303,0.31936 -0.88263,-1.319816 -0.88212,-1.319816 2.20194,-2.376082 c 2.93416,-3.166015 3.44412,-3.775938 3.45043,-4.126363 0.003,-0.16291 -0.12196,-0.298474 -0.2775,-0.301274 -0.15556,-0.0028 -2.03093,0.853815 -4.16719,1.90376 -2.13628,1.049944 -3.91206,1.908514 -3.94653,1.907894 -0.0902,-0.0016 -1.88409,-2.340759 -1.88205,-2.454114 9.3e-4,-0.05216 0.987,-1.433515 2.19108,-3.070097 1.20407,-1.636581 2.32819,-3.237639 2.49855,-3.557922 0.28524,-0.536245 0.2867,-0.592053 0.0196,-0.700216 -0.44163,-0.17865 -1.20407,0.243735 -3.96823,2.196765 -3.75358,2.652099 -3.2499,2.471391 -4.23334,1.517737 -0.46166,-0.447686 -0.98926,-0.901268 -1.17253,-1.008207 -0.30775,-0.179572 -0.18832,-0.448399 1.56114,-3.515031 1.92431,-3.373125 2.39965,-4.567103 1.82211,-4.577498 -0.16428,-0.003 -1.21399,0.808414 -2.33216,1.802474 -1.11818,0.994059 -2.50151,2.219104 -3.07423,2.722831 l -1.04128,0.916223 -1.22525,-0.931726 c -0.67384,-0.512232 -1.19954,-1.023026 -1.16788,-1.135331 0.0316,-0.112304 0.73071,-1.819334 1.55287,-3.79305 1.51612,-3.639596 1.64875,-4.068897 1.3224,-4.278809 -0.30092,-0.193542 -1.29432,0.733932 -3.74654,3.497978 -1.27919,1.441844 -2.38451,2.596157 -2.45618,2.564701 -0.88952,-0.390416 -2.50983,-1.408537 -2.50734,-1.575614 0.002,-0.119126 0.43688,-1.843639 0.96738,-3.831808 0.53052,-1.988167 0.96835,-3.805523 0.97255,-4.038513 0.01,-0.534803 -0.35748,-0.549421 -0.85007,-0.03411 -0.32642,0.341458 -2.35742,3.278418 -3.99046,5.770191 l -0.49196,0.751375 -1.38544,-0.537951 c -0.76797,-0.298041 -1.4068,-0.656106 -1.43351,-0.803569 -0.0265,-0.146297 0.18518,-1.781177 0.47026,-3.632853 0.55525,-3.606556 0.63914,-4.680828 0.37879,-4.848283 -0.2465,-0.158544 -0.70649,0.561412 -2.60811,4.082438 -0.95261,1.763863 -1.75046,3.230609 -1.77302,3.259749 -0.0225,0.02914 -0.74237,-0.104474 -1.5999,-0.297139 l -1.55908,-0.350366 0.13488,-4.171322 c 0.19394,-5.985202 -0.10717,-5.996444 -2.39521,-0.09043 l -1.38544,3.576526 -1.43661,-0.143143 c -0.79014,-0.07873 -1.50822,-0.212106 -1.59577,-0.296106 -0.0875,-0.084 -0.40091,-1.800346 -0.69659,-3.814238 -0.66783,-4.548476 -0.65139,-4.473448 -0.9772,-4.479313 -0.42529,-0.0077 -0.78073,0.911002 -1.76217,4.555794 l -0.91622,3.40186 -1.59112,-0.02894 -1.5906,-0.02842 -0.71572,-3.605981 c -0.83971,-4.233556 -0.99537,-4.790349 -1.34307,-4.796607 z m 2.16834,20.140373 c 24.68812,0 44.80305,19.067685 46.4907,43.317255 -0.36787,0.17048 -0.74269,0.32497 -1.12758,0.41238 -1.52693,0.34673 -38.12877,-0.28377 -39.62962,-0.68265 -2.09976,-0.55808 -4.73965,-2.3688 -6.04562,-4.14652 -0.55524,-0.7558 -10.41902,-18.508932 -12.01477,-21.624517 -0.38363,-0.74899 -1.32152,-2.465786 -2.08412,-3.815271 -0.7626,-1.349481 -1.93231,-3.419763 -2.59984,-4.600753 -1.52026,-2.689639 -1.75514,-3.407884 -1.63349,-4.988843 5.70721,-2.485019 12.00862,-3.871081 18.64434,-3.871081 z m -26.01185,7.899259 c 0.4129,0.225501 0.78579,0.504907 1.28675,1.033529 0.54146,0.571342 1.17597,1.445537 1.40973,1.942517 0.47035,0.999969 4.58761,8.451978 5.06791,9.172567 1.17753,1.766603 12.43859,22.272823 12.67209,23.075593 0.42587,1.46415 0.33366,5.48939 -0.15658,6.83318 -0.31466,0.86247 -11.40309,19.46286 -12.99817,21.80383 -0.76308,1.11988 -3.6813,5.94643 -4.7346,7.83053 -1.70027,3.04143 -2.50165,3.89879 -4.23126,4.55321 -11.48583,-8.48026 -18.92133,-22.11226 -18.92133,-37.52691 0,-16.15648 8.16611,-30.358038 20.60546,-38.718046 z m 26.03976,35.866026 c 0.97394,0.0175 1.83062,0.51443 2.31562,1.34307 0.72615,1.24066 0.25393,2.97686 -1.01079,3.71709 -0.35951,0.21042 -0.911,0.34111 -1.40198,0.33228 -0.49101,-0.009 -1.03736,-0.1592 -1.38907,-0.38241 -2.31367,-1.46844 -1.24842,-5.05925 1.48622,-5.01003 z m 6.2792,5.95933 9.80199,0.12867 c 5.39121,0.0708 14.09068,0.27035 19.33163,0.44339 l 9.52914,0.31419 0.89038,0.48989 c 0.18202,0.10012 0.34334,0.22411 0.51263,0.339 -2.40386,23.52175 -22.20274,41.79435 -46.37288,41.79435 -7.13171,0 -13.87912,-1.59705 -19.91506,-4.44418 -7.4e-4,-0.15542 -0.0231,-0.22314 -0.0196,-0.41599 0.0255,-1.41827 0.0832,-1.64742 0.71934,-2.86856 0.3804,-0.73012 1.15118,-2.04809 1.71255,-2.9285 0.56133,-0.8804 1.83035,-2.96235 2.81999,-4.62659 11.79847,-19.84133 14.46589,-24.17814 15.46882,-25.15092 1.17964,-1.14418 2.55018,-1.98103 4.3,-2.62517 z" />
    <path
       d="m 160.06163,27.346248 c -0.63979,0 -0.90495,1.207557 -1.4795,6.737056 -0.30298,2.915859 -0.68363,5.44042 -0.84543,5.609993 -0.16181,0.169573 -1.23223,0.348167 -2.37866,0.396875 l -2.08411,0.08837 -1.94355,-5.159374 c -1.06903,-2.837653 -2.08596,-5.427266 -2.25981,-5.754687 -0.34081,-0.641877 -0.87702,-0.777295 -1.17409,-0.296623 -0.10152,0.164271 -0.16476,2.99201 -0.14056,6.283854 l 0.0439,5.985164 -2.24637,0.537435 -2.24638,0.536918 -2.17712,-4.637959 c -3.0868,-6.576562 -3.67895,-7.459033 -4.21628,-6.27972 -0.22006,0.482973 -0.1513,1.928584 0.28318,5.958809 0.31549,2.926529 0.53501,5.578338 0.48783,5.89318 -0.0671,0.447505 -0.52819,0.735339 -2.11357,1.317232 l -2.0283,0.744141 -2.95796,-4.603337 c -1.62694,-2.53172 -3.25814,-4.926239 -3.62458,-5.321638 -0.58139,-0.627324 -0.69657,-0.664462 -0.90589,-0.290422 -0.27555,0.492377 0.0788,2.339702 1.59628,8.321972 l 1.02216,4.029212 -1.97352,1.064017 c -1.08534,0.585427 -2.01615,1.064535 -2.06861,1.064535 -0.0525,0 -1.44122,-1.637112 -3.08611,-3.638021 -3.81915,-4.645769 -4.95988,-5.886979 -5.41053,-5.886979 -0.726,0 -0.33735,1.672951 1.61386,6.946863 1.43966,3.891229 1.88912,5.39367 1.65365,5.528344 -0.17785,0.101717 -1.03788,0.651029 -1.911,1.220598 l -1.5875,1.035595 -3.94705,-3.824572 c -4.94537,-4.792225 -6.25427,-5.659829 -5.71799,-3.78995 0.11982,0.417795 1.36106,3.031156 2.75849,5.807397 1.39742,2.776242 2.54093,5.090217 2.54093,5.142322 0,0.05211 -0.77655,0.717005 -1.72548,1.477429 -1.05534,0.845699 -1.85161,1.3059 -2.05052,1.184941 -0.17886,-0.108763 -1.92994,-1.384505 -3.89175,-2.834969 -7.957658,-5.883492 -8.287198,-5.706449 -3.29696,1.772502 1.82748,2.738875 3.286,5.07472 3.24115,5.190897 -0.0448,0.116176 -0.75776,0.938387 -1.5844,1.827279 l -1.50327,1.616439 -5.082894,-3.038058 c -4.75589,-2.842357 -6.33088,-3.514114 -6.33088,-2.700093 0,0.49325 0.425523,1.043015 4.362524,5.635831 l 3.564124,4.157886 -0.818555,1.085722 c -0.450241,0.597219 -1.047604,1.459942 -1.327051,1.917197 l -0.507979,0.83147 -5.012097,-2.214333 c -5.364114,-2.369437 -6.117162,-2.636004 -6.754109,-2.391585 -0.699524,0.268433 -0.0694,0.998967 4.046264,4.690148 2.146117,1.92478 4.133605,3.71486 4.416784,3.97806 0.507885,0.47204 0.5007,0.50556 -0.529166,2.46703 -0.574223,1.09365 -1.147094,1.99004 -1.273307,1.99161 -0.126213,0.002 -2.593184,-0.65226 -5.482353,-1.45263 -8.536993,-2.36493 -8.80604,-2.01579 -2.091344,2.71457 2.545509,1.79325 4.793371,3.35909 4.995559,3.47937 0.299008,0.17788 0.203871,0.58276 -0.51108,2.17145 -0.483448,1.07426 -0.96294,2.05311 -1.065568,2.17506 -0.102628,0.12195 -2.46759,-0.14594 -5.255492,-0.59532 -9.768405,-1.57453 -9.857919,-1.20324 -0.8816,3.65353 2.216815,1.19944 4.072603,2.262 4.124296,2.36109 0.05169,0.0991 -0.192929,1.110189 -0.543636,2.246889 l -0.637687,2.06655 -6.183085,-0.0822 c -8.820844,-0.1175 -8.852718,0.30822 -0.260966,3.49642 4.387644,1.62816 5.158858,1.99461 5.158858,2.45308 0,0.56301 -0.547737,3.96668 -0.659391,4.09743 -0.0353,0.0413 -2.669532,0.43054 -5.853906,0.86506 -6.193387,0.84511 -6.715869,0.94782 -6.715869,1.32033 0,0.51949 1.371025,1.07299 5.558833,2.24431 2.399803,0.67122 4.827542,1.36695 5.395537,1.54616 l 1.033012,0.32556 -0.05891,2.23191 c -0.03245,1.22753 -0.0966,2.26959 -0.142627,2.31562 -0.04603,0.046 -2.608893,0.56103 -5.694742,1.14411 -5.941893,1.12274 -6.884851,1.37336 -6.884851,1.82935 0,0.56261 1.8065,1.0004 7.011458,1.69964 2.910413,0.39099 5.367793,0.79177 5.460649,0.8909 0.09286,0.0991 0.221339,1.15504 0.28577,2.34611 l 0.117306,2.16576 -2.270663,0.69763 c -7.400986,2.27533 -9.028143,2.83277 -9.582877,3.28197 l -0.615983,0.49868 1.053682,0.27543 c 0.579721,0.15152 3.51101,0.35846 6.513814,0.45992 l 5.459615,0.18449 0.322461,1.99729 c 0.177206,1.09849 0.374283,2.13403 0.438216,2.30064 0.06859,0.17875 -1.922087,1.25711 -4.856034,2.63084 -5.033442,2.35677 -6.826191,3.41496 -6.548437,3.86437 0.234839,0.37998 2.502991,0.29739 7.803141,-0.28319 2.661879,-0.29158 4.883965,-0.48624 4.937683,-0.43253 0.05372,0.0537 0.31983,0.87559 0.591695,1.82624 0.271865,0.95066 0.569736,1.96514 0.661457,2.25413 0.142706,0.44962 -0.34026,0.8219 -3.347081,2.5802 -6.698713,3.91721 -8.233689,5.15008 -6.411495,5.15008 0.370805,0 3.188868,-0.53579 6.262667,-1.19063 3.073798,-0.65484 5.635828,-1.19062 5.693191,-1.19062 0.146909,0 1.921847,3.8773 1.921847,4.19819 0,0.14518 -1.875237,1.7474 -4.167188,3.56051 -4.599274,3.63838 -5.503285,4.49191 -5.228103,4.93716 0.260031,0.42074 1.106249,0.20588 6.855394,-1.74149 2.750425,-0.93163 5.089507,-1.69396 5.198133,-1.69396 0.108625,0 0.74121,0.92261 1.405599,2.05001 l 1.208195,2.04949 -3.958932,3.9889 c -3.531785,3.55842 -4.529712,4.87619 -3.692281,4.87619 0.146663,0 2.761596,-1.1778 5.811015,-2.61741 l 5.544364,-2.61741 0.712101,0.96376 c 0.391554,0.5301 1.070649,1.34753 1.509469,1.81643 l 0.79788,0.85266 -1.296558,1.66088 c -0.713158,0.91353 -2.259299,2.87827 -3.435966,4.36614 -2.998223,3.79119 -3.355564,4.5782 -1.915645,4.2168 0.335158,-0.0841 2.750441,-1.52705 5.367631,-3.20652 l 4.758364,-3.05357 1.66812,1.66812 1.6676,1.6676 -3.0515,5.1449 c -4.59607,7.74803 -4.308007,7.87131 3.42253,1.46555 2.03613,-1.6872 3.77174,-3.06752 3.85713,-3.06752 0.0854,0 1.00271,0.65856 2.03864,1.46348 l 1.8836,1.46348 -1.46399,3.10058 c -1.95998,4.15062 -3.44043,7.46694 -3.65766,8.19381 -0.39792,1.33148 0.75964,0.42202 4.98419,-3.91604 l 4.39353,-4.51134 1.88051,1.11724 c 1.03428,0.61446 1.94007,1.27365 2.01331,1.46451 0.0732,0.19086 -0.66067,2.66487 -1.6309,5.49836 -1.07758,3.14697 -1.7312,5.46869 -1.68001,5.96553 0.0809,0.78495 0.10402,0.79873 0.67128,0.39894 0.32329,-0.22785 2.14623,-2.43404 4.0504,-4.90254 1.90416,-2.46849 3.54438,-4.49073 3.64526,-4.49378 0.58015,-0.0175 4.28054,1.78511 4.28242,2.08617 0.001,0.19847 -0.48479,2.9802 -1.07952,6.18154 -1.0412,5.60457 -1.08899,6.68136 -0.2744,6.17792 0.15282,-0.0944 1.60934,-2.39943 3.23649,-5.12269 1.62716,-2.72325 3.04061,-5.04481 3.1409,-5.15886 0.25369,-0.28851 4.50257,1.11676 4.50773,1.49087 0.002,0.16731 -0.26104,2.95191 -0.58498,6.18825 -0.47468,4.74229 -0.52381,5.94899 -0.25424,6.21771 0.52511,0.52345 1.10475,-0.44652 3.51658,-5.8844 1.19402,-2.69213 2.245,-4.98293 2.33525,-5.09064 0.15249,-0.18196 4.4537,0.4498 4.69326,0.68936 0.0594,0.0594 0.2702,2.71113 0.4687,5.89267 0.35004,5.61055 0.50266,6.7107 0.92966,6.7107 0.35891,0 1.24045,-2.40544 2.37557,-6.48229 0.60775,-2.18281 1.21793,-4.3344 1.35599,-4.78111 l 0.25063,-0.81183 2.31045,0.11627 c 1.27068,0.064 2.34772,0.14906 2.39314,0.18913 0.0454,0.0401 0.50234,2.60556 1.01544,5.70095 1.19995,7.23891 1.46606,7.92458 2.20555,5.68389 h -5.2e-4 c 0.16466,-0.49893 0.75253,-3.23949 1.30587,-6.08955 0.55333,-2.85005 1.05236,-5.22336 1.10897,-5.27462 0.0566,-0.0513 1.14355,-0.14573 2.41536,-0.2098 1.93982,-0.0977 2.33182,-0.0499 2.43344,0.29869 0.0666,0.2285 0.73568,2.61814 1.48725,5.31027 1.35706,4.86107 1.90613,6.35 2.34146,6.35 0.42059,0 0.57736,-1.16863 0.91364,-6.80786 0.18423,-3.08953 0.3994,-5.68176 0.47801,-5.76037 0.10127,-0.10127 4.19535,-0.92072 4.62142,-0.92501 0.0198,-1.9e-4 1.00899,2.35098 2.1978,5.22501 1.18882,2.87404 2.33375,5.45751 2.54454,5.74073 1.0183,1.36817 1.21863,-1.19879 0.53589,-6.86521 -0.62448,-5.1829 -0.77896,-4.69209 1.74201,-5.52266 1.18856,-0.39158 2.24079,-0.61874 2.33836,-0.50488 0.0976,0.11385 1.38275,2.23077 2.85616,4.70462 4.56995,7.67293 4.73405,7.64524 3.21996,-0.5457 -0.59009,-3.1923 -1.09786,-5.95436 -1.1281,-6.13813 -0.0455,-0.27652 3.75404,-2.17971 4.35167,-2.17971 0.0982,0 0.63139,0.62507 1.18494,1.38906 3.93599,5.43225 6.26604,8.40052 6.59391,8.40052 0.65778,0 0.43881,-1.24246 -1.18804,-6.7448 -0.86023,-2.90945 -1.54346,-5.30052 -1.51825,-5.31336 0.0252,-0.0128 0.96245,-0.57281 2.08256,-1.24437 l 2.03656,-1.22112 3.78013,4.02094 c 3.98024,4.23328 4.73602,4.94646 5.23999,4.94646 0.52721,0 0.0541,-1.47601 -1.90841,-5.95311 -1.02061,-2.32834 -2.01742,-4.61072 -2.21537,-5.07204 l -0.36018,-0.83871 1.85001,-1.37149 c 1.01734,-0.75418 1.99682,-1.30881 2.17713,-1.233 0.1803,0.0758 1.93549,1.47719 3.90002,3.11454 4.25015,3.54231 5.50461,4.47466 6.02134,4.47466 0.67903,0 0.17749,-1.0865 -2.87425,-6.22856 l -2.93987,-4.95422 1.68207,-1.67432 1.68259,-1.67483 4.10104,2.65203 c 4.46081,2.88438 6.57723,4.0676 6.82749,3.81734 0.29832,-0.29832 -0.78083,-1.91637 -4.07521,-6.1097 -1.80479,-2.29729 -3.28145,-4.24687 -3.28145,-4.33256 0,-0.28318 2.66477,-3.4556 2.90267,-3.4556 0.12821,0 2.64409,1.19063 5.59035,2.64583 2.94625,1.45521 5.57405,2.64584 5.83996,2.64584 1.08612,0 0.27989,-1.09579 -3.90571,-5.30769 l -4.3894,-4.41678 1.25316,-1.88464 c 0.68923,-1.03651 1.31667,-1.88464 1.39423,-1.88464 0.0776,0 2.65681,0.85521 5.73143,1.90014 8.17747,2.77918 8.35749,2.38973 1.44126,-3.11195 -2.46454,-1.96047 -4.48087,-3.619 -4.48087,-3.68557 0,-0.0888 1.60084,-3.50025 2.02675,-4.31911 0.0252,-0.0485 2.49398,0.45748 5.48597,1.12448 9.14801,2.03932 9.22537,1.76736 0.97049,-3.40703 -2.483,-1.55641 -4.51446,-2.86972 -4.51446,-2.91869 0,-0.049 0.36982,-1.05694 0.82166,-2.24017 l 0.82114,-2.15129 1.09709,0.14935 c 3.01993,0.41218 8.60323,0.93275 10.00456,0.93275 2.72729,0 2.05758,-0.60469 -4.0132,-3.622 -2.98316,-1.48269 -5.50537,-2.73285 -5.60482,-2.77812 -0.0994,-0.0453 0.0738,-1.12397 0.38499,-2.39727 l 0.56534,-2.31511 h 2.02055 c 4.45456,0 10.06723,-0.3565 10.49135,-0.66662 0.39149,-0.28628 0.36025,-0.36945 -0.30386,-0.8046 -0.58798,-0.38525 -5.70393,-1.86562 -10.74353,-3.10886 l -0.67593,-0.1664 0.23926,-2.19108 c 0.13151,-1.20488 0.31652,-2.26649 0.41135,-2.35954 0.0948,-0.093 2.55385,-0.48508 5.46426,-0.87127 2.91042,-0.38618 5.67862,-0.82564 6.15156,-0.97616 2.04563,-0.65104 0.54794,-1.30477 -5.6503,-2.46652 -2.74954,-0.51535 -5.27148,-1.00048 -5.60431,-1.07849 -0.58318,-0.13667 -0.60238,-0.22958 -0.52916,-2.56057 l 0.076,-2.41897 5.51491,-1.39578 c 4.78937,-1.21234 6.78822,-1.90393 6.78822,-2.34766 0,-0.43967 -1.78777,-0.74197 -6.88434,-1.16479 -3.20622,-0.26599 -5.87271,-0.53021 -5.92573,-0.58704 -0.053,-0.0568 -0.20633,-1.09698 -0.34055,-2.31149 l -0.24391,-2.20813 0.67799,-0.26407 c 0.37295,-0.14517 2.52415,-0.95008 4.78059,-1.78852 4.75325,-1.7662 6.42415,-2.56341 6.27972,-2.99671 -0.18692,-0.56075 -1.32506,-0.64418 -6.9789,-0.51005 l -5.59243,0.13281 -0.52761,-2.22209 c -0.28998,-1.22227 -0.45237,-2.29897 -0.36071,-2.39262 0.0917,-0.0937 2.19098,-1.211369 4.66484,-2.483569 5.1195,-2.63275 6.21308,-3.2949 6.21564,-3.76256 0.003,-0.51832 -1.63281,-0.4069 -7.01921,0.47853 -2.70813,0.44516 -5.10896,0.77258 -5.33508,0.7276 -0.30022,-0.0597 -1.93115,-3.52056 -1.93115,-4.09794 0,-0.0308 1.9943,-1.41878 4.43177,-3.08457 8.07645,-5.51952 7.99016,-5.93333 -0.72605,-3.47937 -2.83684,0.79868 -5.35535,1.45211 -5.59656,1.45211 -0.27822,0 -0.809,-0.71903 -1.45159,-1.96733 -0.55708,-1.08217 -0.9556,-2.01049 -0.88573,-2.06292 0.81685,-0.61306 7.80441,-7.03574 8.43101,-7.749398 0.84014,-0.956862 0.88005,-1.449523 0.11782,-1.449523 -0.22578,0 -2.33222,0.78202 -4.68085,1.737881 -2.34862,0.95586 -4.8175,1.95914 -5.48649,2.22932 l -1.21646,0.49144 -1.33274,-1.91771 -1.33273,-1.917196 3.17552,-3.552755 c 4.23154,-4.734003 4.96558,-5.644802 4.96558,-6.160348 0,-0.239673 -0.18715,-0.435632 -0.41599,-0.435632 -0.22884,0 -2.96412,1.309689 -6.07818,2.910417 -3.11407,1.600727 -5.70345,2.910416 -5.75417,2.910416 -0.13272,0 -2.83291,-3.392703 -2.83291,-3.559472 0,-0.07673 1.41336,-2.135049 3.1409,-4.573881 1.72754,-2.438833 3.33909,-4.823345 3.58117,-5.298902 0.40531,-0.796218 0.40592,-0.877901 0.01,-1.029911 -0.65423,-0.251053 -1.76431,0.390176 -5.77794,3.335714 -5.45027,3.999865 -4.71457,3.721087 -6.18619,2.34456 -0.69083,-0.646203 -1.47893,-1.299679 -1.75131,-1.452108 -0.45736,-0.255952 -0.28882,-0.654573 2.20297,-5.211052 2.74082,-5.011871 3.40818,-6.779948 2.5585,-6.779948 -0.24167,0 -1.76349,1.220393 -3.38171,2.71198 -1.61823,1.491586 -3.62038,3.330571 -4.44934,4.086572 l -1.5074,1.374593 -1.82676,-1.337386 c -1.00458,-0.735513 -1.79078,-1.473169 -1.74718,-1.639177 0.0436,-0.166007 1.02586,-2.694741 2.18281,-5.619295 2.13344,-5.392971 2.31748,-6.028213 1.83193,-6.328296 -0.44768,-0.27668 -1.8844,1.114066 -5.41776,5.244125 -1.84315,2.154416 -3.43823,3.880824 -3.54447,3.836458 -1.31855,-0.550645 -3.72874,-2.005235 -3.72949,-2.251025 -5.4e-4,-0.175251 0.59428,-2.722548 1.32188,-5.660637 0.72761,-2.938088 1.32292,-5.622749 1.32292,-5.965526 0,-0.786799 -0.53972,-0.798832 -1.25057,-0.0279 -0.47102,0.510831 -3.38067,4.884303 -5.71645,8.592239 l -0.70383,1.117761 -2.05156,-0.754476 c -1.13735,-0.418006 -2.0864,-0.927429 -2.12958,-1.143599 -0.0428,-0.21446 0.22505,-2.624379 0.59531,-5.355228 0.72115,-5.318944 0.81624,-6.901263 0.42891,-7.140649 -0.36673,-0.22665 -1.02389,0.844221 -3.72742,6.073014 -1.35434,2.619371 -2.48889,4.798107 -2.52129,4.841564 -0.0324,0.04346 -1.09481,-0.134157 -2.3611,-0.394808 l -2.3027,-0.473873 0.0884,-6.138642 c 0.12668,-8.807711 -0.31611,-8.81645 -3.52485,-0.06976 l -1.94303,5.296833 -2.11667,-0.172599 c -1.16416,-0.09488 -2.22392,-0.271519 -2.3549,-0.392741 -0.13099,-0.121221 -0.63733,-2.637339 -1.12551,-5.591389 -1.10258,-6.671873 -1.07661,-6.561874 -1.55598,-6.561874 -0.62568,0 -1.12371,1.360412 -2.47065,6.746875 l -1.25728,5.027083 h -2.34095 -2.34042 l -1.14774,-5.284431 c -1.34704,-6.204161 -1.59065,-7.018693 -2.10219,-7.018693 z m 6.0787,22.910228 c 1.32158,-0.0049 2.60413,0.03313 3.82198,0.117823 15.90285,1.10587 31.0281,7.175127 43.04285,17.271813 10.71765,9.006659 19.14077,21.570879 23.35826,34.841798 2.1533,6.77566 2.5384,9.8147 1.54409,12.18117 -1.07239,2.55228 -3.57358,4.69522 -6.24923,5.35368 -2.23651,0.55038 -56.08448,0.59191 -58.30237,0.045 -3.10294,-0.76521 -7.03321,-3.35817 -9.00101,-5.93814 -0.8366,-1.09687 -15.81343,-26.945499 -18.24281,-31.485419 -0.58403,-1.0914 -2.00891,-3.59172 -3.16621,-5.55625 -1.1573,-1.964527 -2.933,-4.97854 -3.94602,-6.697779 -2.35122,-3.990374 -2.69272,-4.990733 -2.53369,-7.415568 0.20128,-3.069027 2.03316,-5.975052 4.92321,-7.808826 4.3325,-2.749037 15.49985,-4.874689 24.75095,-4.909262 z m -46.39614,17.913119 c 1.57545,-0.128418 3.1835,0.02546 4.64364,0.476456 1.49368,0.461348 2.04047,0.805127 3.26906,2.055689 0.81144,0.825952 1.76745,2.094734 2.12441,2.819466 0.71822,1.458226 6.97122,12.309225 7.69669,13.356295 1.77858,2.56702 18.88326,32.427619 19.24792,33.602079 0.66509,2.14208 0.63587,8.06482 -0.0496,10.05416 -0.43994,1.27679 -16.25598,28.92631 -18.53995,32.41146 -1.09262,1.66724 -5.25643,8.84278 -6.75566,11.64167 -2.53819,4.73852 -3.64279,5.93329 -6.44353,6.96857 -1.66375,0.615 -3.4772,0.78586 -5.65392,0.53278 -0.93838,-0.1091 -2.36112,-0.53374 -3.3073,-0.98702 -4.53473,-2.17242 -13.52714,-12.56688 -17.916214,-20.70985 -3.775399,-7.00443 -6.597857,-16.11432 -7.857402,-25.35969 -0.628007,-4.60972 -0.624333,-14.24473 0.0072,-18.91771 1.922196,-14.22139 7.233125,-26.729689 15.913236,-37.480909 2.65733,-3.29138 7.94114,-8.617458 9.17309,-9.24595 1.32979,-0.678407 2.87286,-1.089079 4.44831,-1.217496 z m 45.2391,53.105805 c 1.43287,0 2.70591,0.70823 3.44113,1.91409 1.10079,1.80545 0.45244,4.37157 -1.38803,5.49372 -0.52316,0.31898 -1.33074,0.52555 -2.0531,0.52555 -0.72237,0 -1.52993,-0.20657 -2.0531,-0.52555 -3.44166,-2.0984 -1.97009,-7.40781 2.0531,-7.40781 z m 23.8125,8.52816 c 7.93088,-0.0386 20.73011,0.0244 28.4427,0.14004 l 14.02292,0.20981 1.32291,0.69711 c 3.75758,1.97971 5.77802,6.15739 5.14542,10.63966 -1.34344,9.51888 -7.12508,21.95975 -14.45751,31.11025 -9.11221,11.37159 -23.8748,21.22156 -36.46081,24.32771 -3.6562,0.90232 -8.10017,1.69071 -12.8323,2.27583 -3.95758,0.48935 -15.86967,0.71977 -19.05,0.36845 -9.60771,-1.06131 -15.0353,-3.61822 -17.25631,-8.12973 -0.77632,-1.57692 -0.86764,-2.00311 -0.86764,-4.0318 0,-2.08656 0.0785,-2.42569 0.98185,-4.2385 0.54012,-1.08386 1.63839,-3.0425 2.44068,-4.35219 0.80227,-1.30969 2.61364,-4.40531 4.02507,-6.87916 16.82707,-29.49342 20.63517,-35.94203 22.08444,-37.39927 1.70464,-1.714 3.69846,-2.98127 6.25492,-3.97495 l 1.78387,-0.69298 z"
       style="fill:url(#linearGradient9);fill-rule:evenodd;stroke-width:1.112;stroke-linecap:round;stroke-linejoin:round;stroke-miterlimit:2.1;stroke-opacity:0.357798"
       id="path1" />
    <path
       id="rect1"
       style="fill:url(#linearGradient6);fill-rule:evenodd;stroke-width:1.11277;stroke-linecap:round;stroke-linejoin:round;stroke-miterlimit:2.1;stroke-opacity:0.357798"
       d="m 102.82124,3.6964152 c -36.338101,0 -58.803128,23.6405238 -58.803128,61.8267168 V 187.1617 c 0,35.80691 21.148205,60.48313 61.491338,60.48313 h 109.20574 c 51.94645,0 73.25134,-22.92508 73.25134,-64.17954 V 66.53134 c 0,-36.071981 -20.00193,-62.8349248 -56.78671,-62.8349248 z M 165.99258,19.572965 A 106.0134,106.0134 0 0 1 272.00575,125.58665 106.0134,106.0134 0 0 1 165.99258,231.59982 106.0134,106.0134 0 0 1 59.978895,125.58665 106.0134,106.0134 0 0 1 165.99258,19.572965 Z" />
  </g>
</svg>
