<?xml version="1.0" encoding="UTF-8" standalone="no"?>
<!-- Created with Inkscape (http://www.inkscape.org/) -->

<svg
   width="256mm"
   height="256mm"
   viewBox="0 0 256 256"
   version="1.1"
   id="svg1"
   inkscape:version="1.3.2 (091e20ef0f, 2023-11-25)"
   sodipodi:docname="application-x-sega-cd-rom.svg"
   xml:space="preserve"
   xmlns:inkscape="http://www.inkscape.org/namespaces/inkscape"
   xmlns:sodipodi="http://sodipodi.sourceforge.net/DTD/sodipodi-0.dtd"
   xmlns="http://www.w3.org/2000/svg"
   xmlns:svg="http://www.w3.org/2000/svg"
   xmlns:rdf="http://www.w3.org/1999/02/22-rdf-syntax-ns#"
   xmlns:cc="http://creativecommons.org/ns#"
   xmlns:dc="http://purl.org/dc/elements/1.1/"
   xmlns:a="http://ns.adobe.com/AdobeSVGViewerExtensions/3.0/"><defs
     id="defs1"><radialGradient
       id="XMLID_4_"
       cx="69.441902"
       cy="101.362"
       r="66.197197"
       fx="69.441902"
       fy="101.362"
       gradientTransform="matrix(0.935,0,0,1.1875,3.7723,-18.8087)"
       gradientUnits="userSpaceOnUse"><stop
         offset="0"
         style="stop-color:rgb(0,0,0)"
         id="stop10" /><stop
         offset="1"
         style="stop-color:rgb(0,0,0)"
         id="stop11" /><a:midPointStop
         offset="0"
         style="stop-color:#000000" /><a:midPointStop
         offset="0.5"
         style="stop-color:#000000" /><a:midPointStop
         offset="1"
         style="stop-color:#000000" /></radialGradient><linearGradient
       id="XMLID_5_"
       gradientUnits="userSpaceOnUse"
       x1="30.1831"
       y1="33.981899"
       x2="73.042503"
       y2="76.841003"
       gradientTransform="matrix(1,-0.0092,0.0092,1,-5.3904,0.7248)"><stop
         offset="0"
         style="stop-color:rgb(97,97,97)"
         id="stop13" /><stop
         offset="0.0339"
         style="stop-color:rgb(110,110,110)"
         id="stop14" /><stop
         offset="0.1601"
         style="stop-color:rgb(155,155,155)"
         id="stop15" /><stop
         offset="0.2818"
         style="stop-color:rgb(190,190,190)"
         id="stop16" /><stop
         offset="0.396"
         style="stop-color:rgb(215,215,215)"
         id="stop17" /><stop
         offset="0.5"
         style="stop-color:rgb(230,230,230)"
         id="stop18" /><stop
         offset="0.5843"
         style="stop-color:rgb(235,235,235)"
         id="stop19" /><stop
         offset="0.6685"
         style="stop-color:rgb(255,255,255)"
         id="stop20" /><stop
         offset="1"
         style="stop-color:rgb(186,186,186)"
         id="stop21" /></linearGradient><linearGradient
       id="XMLID_6_"
       gradientUnits="userSpaceOnUse"
       x1="54.664101"
       y1="33.0186"
       x2="54.664101"
       y2="132.19"><stop
         offset="0"
         style="stop-color:rgb(255,255,255)"
         id="stop23" /><stop
         offset="1"
         style="stop-color:rgb(138,138,138)"
         id="stop24" /></linearGradient><linearGradient
       id="XMLID_7_"
       gradientUnits="userSpaceOnUse"
       x1="59.4487"
       y1="29.814501"
       x2="59.4487"
       y2="64.436699"
       gradientTransform="matrix(1,-0.0092,0.0092,1,-5.3914,0.7243)"><stop
         offset="0%"
         style="stop-color:rgb(255,255,255)"
         id="stop25" /><stop
         offset="100%"
         style="stop-opacity:0;stop-color:rgb(255,255,255)"
         id="stop26" /></linearGradient></defs><sodipodi:namedview
     id="base"
     pagecolor="#ffffff"
     bordercolor="#000000"
     borderopacity="0.3"
     inkscape:pageopacity="0.0"
     inkscape:pageshadow="2"
     inkscape:zoom="0.98994949"
     inkscape:cx="505.07627"
     inkscape:cy="476.792"
     inkscape:document-units="mm"
     inkscape:showpageshadow="2"
     inkscape:pagecheckerboard="0"
     inkscape:deskcolor="#d1d1d1"
     inkscape:current-layer="svg1" /><metadata
     id="metadata1"><rdf:RDF><cc:Work
         rdf:about=""><dc:format>image/svg+xml</dc:format><dc:type
           rdf:resource="http://purl.org/dc/dcmitype/StillImage" /><cc:license
           rdf:resource="http://creativecommons.org/publicdomain/zero/1.0/" /></cc:Work><cc:License
         rdf:about="http://creativecommons.org/publicdomain/zero/1.0/"><cc:permits
           rdf:resource="http://creativecommons.org/ns#Reproduction" /><cc:permits
           rdf:resource="http://creativecommons.org/ns#Distribution" /><cc:permits
           rdf:resource="http://creativecommons.org/ns#DerivativeWorks" /></cc:License></rdf:RDF></metadata><g
     id="g27"
     transform="matrix(3.1487696,0,0,3.1487696,-44.72836,-77.589121)"><radialGradient
       id="radialGradient2"
       cx="69.441902"
       cy="101.362"
       r="66.197197"
       fx="69.441902"
       fy="101.362"
       gradientTransform="matrix(0.935,0,0,1.1875,3.7723,-18.8087)"
       gradientUnits="userSpaceOnUse"><stop
         offset="0"
         style="stop-color:rgb(0,0,0)"
         id="stop1" /><stop
         offset="1"
         style="stop-color:rgb(0,0,0)"
         id="stop2" /><a:midPointStop
         offset="0"
         style="stop-color:#000000" /><a:midPointStop
         offset="0.5"
         style="stop-color:#000000" /><a:midPointStop
         offset="1"
         style="stop-color:#000000" /></radialGradient><path
       d="m 95.004,98.23 c 0,3.497 -17.163,6.333 -38.333,6.333 -21.171,0 -38.333,-2.836 -38.333,-6.333 0,-3.498 17.163,-6.334 38.333,-6.334 21.17,0 38.333,2.836 38.333,6.334 z"
       style="opacity:0.2;fill:url(#XMLID_4_)"
       id="path11" /><g
       id="g26"><g
         id="g25"><path
           d="m 48.522,63.505 c 0.03,3.254 2.81,5.88 6.2,5.847 3.386,-0.031 6.121,-2.704 6.091,-5.957 -0.029,-3.258 -2.813,-5.88 -6.202,-5.85 -3.387,0.033 -6.119,2.704 -6.089,5.96 z m 1.886,-0.016 c -0.02,-2.258 1.871,-4.104 4.223,-4.127 2.343,-0.021 4.27,1.79 4.292,4.048 0.019,2.254 -1.871,4.107 -4.218,4.129 -2.35,0.022 -4.275,-1.797 -4.297,-4.05 z"
           style="fill:#333333"
           id="path12" /><path
           d="M 16.417,63.802 C 16.23,43.549 33.236,26.914 54.328,26.719 75.411,26.525 92.722,42.842 92.91,63.095 93.097,83.352 76.09,99.989 55.003,100.182 33.915,100.379 16.605,84.057 16.417,63.802 Z m -1.888,0.018 c 0.196,21.254 18.359,38.373 40.495,38.17 C 77.149,101.787 94.996,84.334 94.799,63.081 94.601,41.828 76.436,24.702 54.31,24.907 32.177,25.112 14.333,42.568 14.529,63.82 Z"
           style="fill:#333333"
           id="path13" /><linearGradient
           id="linearGradient22"
           gradientUnits="userSpaceOnUse"
           x1="30.1831"
           y1="33.981899"
           x2="73.042503"
           y2="76.841003"
           gradientTransform="matrix(1,-0.0092,0.0092,1,-5.3904,0.7248)"><stop
             offset="0"
             style="stop-color:rgb(97,97,97)"
             id="stop3" /><stop
             offset="0.0339"
             style="stop-color:rgb(110,110,110)"
             id="stop4" /><stop
             offset="0.1601"
             style="stop-color:rgb(155,155,155)"
             id="stop5" /><stop
             offset="0.2818"
             style="stop-color:rgb(190,190,190)"
             id="stop6" /><stop
             offset="0.396"
             style="stop-color:rgb(215,215,215)"
             id="stop7" /><stop
             offset="0.5"
             style="stop-color:rgb(230,230,230)"
             id="stop8" /><stop
             offset="0.5843"
             style="stop-color:rgb(235,235,235)"
             id="stop9" /><stop
             offset="0.6685"
             style="stop-color:rgb(255,255,255)"
             id="stop12" /><stop
             offset="1"
             style="stop-color:rgb(186,186,186)"
             id="stop22" /></linearGradient><path
           d="M 54.325,26.277 C 32.945,26.473 15.764,43.278 15.955,63.806 16.143,84.335 33.63,100.816 55.01,100.619 76.384,100.422 93.564,83.621 93.375,63.093 93.186,42.563 75.697,26.08 54.325,26.277 Z m 0.387,42.108 c -2.836,0.025 -5.161,-2.163 -5.186,-4.888 -0.025,-2.727 2.256,-4.955 5.094,-4.981 2.839,-0.026 5.157,2.159 5.184,4.887 0.027,2.724 -2.254,4.954 -5.092,4.982 z"
           style="fill:url(#XMLID_5_)"
           id="path21" /><g
           style="opacity:0.8"
           id="g23"><path
             d="m 53.521,68.857 c -0.26,-0.059 -0.505,-0.135 -0.745,-0.23 l -0.878,31.688 c 10.49,0.727 20.584,-2.684 28.236,-8.996 L 57.706,68.055 c -1.172,0.799 -2.68,1.138 -4.185,0.802 z"
             style="opacity:0.8;fill:#ffffff"
             id="path22" /><path
             d="m 52.996,58.216 0.848,-31.874 c -9.287,0.183 -18.047,3.663 -24.736,9.49 l 21.809,23.686 c 0.568,-0.594 1.287,-1.038 2.079,-1.302 z"
             style="opacity:0.8;fill:#ffffff"
             id="path23" /></g><linearGradient
           id="linearGradient28"
           gradientUnits="userSpaceOnUse"
           x1="54.664101"
           y1="33.0186"
           x2="54.664101"
           y2="132.19"><stop
             offset="0"
             style="stop-color:rgb(255,255,255)"
             id="stop27" /><stop
             offset="1"
             style="stop-color:rgb(138,138,138)"
             id="stop28" /></linearGradient><path
           d="m 15.947,63.807 c 0.19,20.506 17.71,37.023 39.063,36.828 C 76.356,100.438 93.572,83.598 93.381,63.093 93.193,42.589 75.671,26.069 54.323,26.266 32.971,26.462 15.757,43.304 15.947,63.807 Z M 17.766,63.79 C 17.587,44.256 33.994,28.206 54.338,28.019 74.682,27.831 91.377,43.574 91.559,63.11 91.739,82.647 75.335,98.696 54.991,98.885 34.647,99.072 17.947,83.328 17.766,63.79 Z"
           style="fill:url(#XMLID_6_)"
           id="path24" /><path
           d="m 42.853,63.56 c 0.059,6.253 5.405,11.294 11.918,11.235 C 61.285,74.732 66.538,69.594 66.479,63.341 66.424,57.086 61.076,52.048 54.562,52.11 48.048,52.169 42.795,57.306 42.853,63.56 Z m 3.631,-0.035 c -0.04,-4.333 3.599,-7.894 8.109,-7.936 4.514,-0.043 8.216,3.452 8.256,7.785 0.04,4.332 -3.595,7.893 -8.111,7.936 -4.51,0.042 -8.216,-3.453 -8.254,-7.785 z"
           style="opacity:0.32;fill:#666666"
           id="path25" /></g><linearGradient
         id="linearGradient30"
         gradientUnits="userSpaceOnUse"
         x1="59.4487"
         y1="29.814501"
         x2="59.4487"
         y2="64.436699"
         gradientTransform="matrix(1,-0.0092,0.0092,1,-5.3914,0.7243)"><stop
           offset="0%"
           style="stop-color:rgb(255,255,255)"
           id="stop29" /><stop
           offset="100%"
           style="stop-opacity:0;stop-color:rgb(255,255,255)"
           id="stop30" /></linearGradient><path
         a:adobe-blending-mode="screen"
         d="m 54.315,28.175 c -17.78,0.164 -32.551,12.433 -35.885,28.56 7.823,5.48 18.006,9.159 29.324,10.162 -0.502,-0.971 -0.794,-2.053 -0.804,-3.204 -0.037,-4.078 3.38,-7.426 7.625,-7.465 4.238,-0.038 7.72,3.245 7.758,7.323 0.012,1.15 -0.263,2.237 -0.745,3.216 C 72.884,65.557 82.997,61.694 90.719,56.068 87.089,40.006 72.092,28.011 54.315,28.175 Z"
         style="fill:url(#XMLID_7_)"
         id="path26" /></g></g><g
     id="g1"
     transform="matrix(0.84277641,0,0,0.84277641,2.4074513,82.509773)"><path
       d="m 147.808,90.893999 c 5.508,5.349 13.019,8.656 21.303,8.656 l 130.889,0.015 -28.268,-84.332 C 267.871,6.2739988 258.813,-1.2207031e-6 247.934,-1.2207031e-6 237.101,-1.2207031e-6 227.906,6.4789988 224.189,15.400999 l -9.423,27.471 -0.037,-41.4530002 -45.709,-0.023 c -8.262,0 -15.689,3.224 -21.159,8.557 l 0.016,-8.52 h -46.801 c -8.717,0 -16.645,3.717 -22.19,9.5590002 V 1.3959988 l -44.11,0.038 C 15.734,1.4179988 0.114,16.302999 0.091,35.982999 c 0,9.111 3.982,17.374 9.854,23.496 L 0,59.462999 v 40.087 l 44.442,-0.008 c 12.487,-0.015 24.861,-7.549 29.162,-16.576 l 0.129,-0.371 c 4.969,10.036 15.339,16.955 27.341,16.955 l 46.733,-0.008 v -8.648"
       style="fill:#ffffff"
       id="path1" /><path
       d="m 6.866,92.690999 37.477,-0.038 c 15.333,0 27.759,-12.388 27.759,-27.652 0,-15.294 -12.426,-27.683 -27.759,-27.683 l -9.733,0.053 c -0.767,0 -1.389,-0.629 -1.389,-1.403 0,-0.774 0.622,-1.404 1.389,-1.404 l 37.409,0.008 0.015,-11.736 H 34.602 c -7.237,0 -13.125,5.879 -13.125,13.102 0,7.23 5.887,13.086 13.125,13.086 l 9.779,0.129 c 8.785,0 15.894,7.085 15.894,15.826 0,8.747 -7.108,15.848 -15.894,15.848 h -37.5 l -0.015,11.864"
       style="fill:#0060a8"
       id="path2" /><path
       d="m 6.881,78.071999 h 37.5 c 7.26,0 13.132,-5.856 13.132,-13.094 0,-7.23 -5.872,-13.079 -13.132,-13.079 l -9.779,-0.106 c -8.77,0 -15.886,-7.093 -15.886,-15.856 0,-8.739 7.116,-15.833 15.886,-15.833 l 37.432,-0.008 L 72.019,8.3149988 H 34.61 c -15.317,0 -27.759,12.3740002 -27.759,27.6530002 0,15.279 12.442,27.66 27.759,27.66 l 9.68,0.015 c 0.736,0 1.358,0.6 1.358,1.358 0,0.744 -0.622,1.343 -1.358,1.343 l -37.424,0.03 0.015,11.698"
       style="fill:#0060a8"
       id="path3" /><path
       d="m 101.158,80.901999 c -6.502,0 -11.828,-5.182 -11.828,-11.798 v -37.438 c 0,-6.365 5.326,-11.6 11.828,-11.6 l 40.003,0.007 V 8.3149988 h -40.003 c -13.018,0 -23.563,10.5070002 -23.563,23.4800002 v 37.31 c 0,12.974 10.545,23.496 23.563,23.496 l 39.836,0.016 -0.008,-11.729 -39.828,0.014"
       style="fill:#0060a8"
       id="path4" /><path
       d="m 92.198,31.794999 c 0,-4.961 3.991,-8.982 8.96,-8.982 h 40.003 v 11.774 h -34.465 c -2.761,0 -2.799,2.739 -2.799,2.739 h 28.753 v 11.721 H 92.184 l 0.014,-17.252"
       style="fill:#0060a8"
       id="path5" /><path
       d="m 101.158,78.049999 c -4.954,0 -8.975,-3.998 -8.975,-8.945 v -17.267 h 40.466 v 11.745 h -28.753 c 0.038,2.761 2.799,2.775 2.799,2.775 h 34.298 l -0.008,11.676 -39.827,0.016"
       style="fill:#0060a8"
       id="path6" /><path
       d="m 169.194,80.871999 c -6.479,0 -11.774,-5.28 -11.774,-11.768 v -37.31 c 0,-6.494 5.257,-11.729 11.743,-11.729 h 38.745 V 8.3149988 h -38.835 c -13.012,0 -23.557,10.5070002 -23.557,23.4800002 v 37.31 c 0,12.974 10.636,23.496 23.647,23.496 l 38.745,0.016 v -55.291 h -33.297 v 11.721 h 21.53 v 31.825 h -26.947"
       style="fill:#0060a8"
       id="path7" /><path
       d="m 160.181,69.103999 c 0,4.971 4.021,9.014 8.982,9.014 h 24.201 v -26.295 H 174.64 v 11.76 h 6.949 l 0.022,2.761 h -6.918 c -1.51,0 -2.746,-1.251 -2.746,-2.761 l -0.062,-26.265 c 0,0 -0.008,-2.731 2.777,-2.799 h 33.259 l -0.015,-11.714 -38.745,0.008 c -4.961,0 -8.982,4.021 -8.982,8.982 v 37.309"
       style="fill:#0060a8"
       id="path8" /><path
       d="m 244.315,22.637999 c 0.522,-1.494 1.941,-2.571 3.618,-2.571 1.678,0 3.111,1.077 3.619,2.571 l 18.808,55.563 h -27.54 l 0.03,-13.071 h 9.203 l -4.143,-12.313 -13.496,39.79 h -13.883 l 23.784,-69.969"
       style="fill:#0060a8"
       id="path9" /><path
       d="m 274.152,80.871999 h -31.286 v 11.735 h 47.612 l -24.762,-73.262 c -2.17,-7.146 -9.323,-12.4030002 -17.791,-12.4030002 -8.481,0 -15.612,5.2340002 -17.798,12.3740002 l -24.989,73.292 h 12.465 l 24.262,-71.244 c 0.985,-2.359 3.308,-4.021 6.039,-4.021 2.716,0 5.052,1.662 6.046,4.006 l 20.202,59.523"
       style="fill:#0060a8"
       id="path10" /><g
       id="g2"
       style="display:none"><path
         d="m 281.504,17.638999 c 2.216,0 4.302,-0.865 5.865,-2.42 1.562,-1.57 2.435,-3.641 2.435,-5.8560002 0,-2.2 -0.873,-4.264 -2.435,-5.834 -1.563,-1.547 -3.649,-2.412 -5.865,-2.412 -4.559,0 -8.284,3.695 -8.284,8.247 0,2.2150002 0.865,4.2860002 2.442,5.8560002 1.556,1.554 3.634,2.419 5.842,2.419 m -7.115,-8.2770002 c 0,-1.889 0.728,-3.679 2.085,-5.022 1.351,-1.343 3.141,-2.071 5.03,-2.071 1.912,0 3.702,0.729 5.053,2.071 1.343,1.343 2.087,3.133 2.087,5.022 0,3.9220002 -3.202,7.1080002 -7.14,7.1080002 -1.89,0 -3.68,-0.736 -5.03,-2.079 -1.358,-1.342 -2.085,-3.125 -2.085,-5.0290002 z"
         style="fill:#231f20"
         id="path11-6" /><path
         d="m 279.38,10.059999 v 3.899 h -1.199 V 4.7949988 h 3.406 c 1.283,0.015 2.034,0.015 2.747,0.553 0.69,0.509 0.979,1.275 0.979,2.125 0,2.14 -1.744,2.42 -2.186,2.511 l 2.58,3.9750002 h -1.449 l -2.511,-3.899 h -2.367 m 0,-1.0090002 h 2.435 c 0.388,0 0.752,0 1.116,-0.091 0.85,-0.205 1.153,-0.812 1.153,-1.479 0,-0.243 -0.023,-0.857 -0.547,-1.282 -0.479,-0.402 -1.085,-0.387 -1.79,-0.387 h -2.367 z"
         style="fill:#231f20"
         id="path12-1" /></g></g></svg>
