<?xml version="1.0" encoding="UTF-8" standalone="no"?>
<!-- Created with Inkscape (http://www.inkscape.org/) -->

<svg
   width="256mm"
   height="256mm"
   viewBox="0 0 256 256"
   version="1.1"
   id="svg1"
   inkscape:version="1.4.2 (ebf0e940d0, 2025-05-08)"
   sodipodi:docname="application-x-pem-key.svg"
   xmlns:inkscape="http://www.inkscape.org/namespaces/inkscape"
   xmlns:sodipodi="http://sodipodi.sourceforge.net/DTD/sodipodi-0.dtd"
   xmlns:xlink="http://www.w3.org/1999/xlink"
   xmlns="http://www.w3.org/2000/svg"
   xmlns:svg="http://www.w3.org/2000/svg"
   xmlns:rdf="http://www.w3.org/1999/02/22-rdf-syntax-ns#"
   xmlns:cc="http://creativecommons.org/ns#"
   xmlns:dc="http://purl.org/dc/elements/1.1/">
  <title
     id="title1">Sheet File</title>
  <sodipodi:namedview
     id="namedview1"
     pagecolor="#ffffff"
     bordercolor="#000000"
     borderopacity="0.25"
     inkscape:showpageshadow="2"
     inkscape:pageopacity="0.0"
     inkscape:pagecheckerboard="0"
     inkscape:deskcolor="#d1d1d1"
     inkscape:document-units="mm"
     inkscape:zoom="0.59390792"
     inkscape:cx="476.50484"
     inkscape:cy="278.66272"
     inkscape:current-layer="g26"
     showguides="true" />
  <defs
     id="defs1">
    <linearGradient
       id="linearGradient14"
       inkscape:collect="always">
      <stop
         style="stop-color:#9d9d9d;stop-opacity:0.76277173;"
         offset="0"
         id="stop21" />
      <stop
         style="stop-color:#898989;stop-opacity:0;"
         offset="1"
         id="stop22" />
    </linearGradient>
    <linearGradient
       id="linearGradient9"
       inkscape:collect="always">
      <stop
         style="stop-color:#a4a4a4;stop-opacity:0;"
         offset="0"
         id="stop10" />
      <stop
         style="stop-color:#9e9e9e;stop-opacity:0.62876189;"
         offset="0.36316207"
         id="stop14" />
      <stop
         style="stop-color:#9d9d9d;stop-opacity:0.66334069;"
         offset="0.47206032"
         id="stop26" />
      <stop
         style="stop-color:#9c9c9c;stop-opacity:0.68627453"
         offset="0.58095855"
         id="stop23" />
      <stop
         style="stop-color:#a5a5a5;stop-opacity:0;"
         offset="1"
         id="stop13" />
    </linearGradient>
    <linearGradient
       id="linearGradient4"
       inkscape:collect="always">
      <stop
         style="stop-color:#9e9e9e;stop-opacity:0.77528024;"
         offset="0"
         id="stop4" />
      <stop
         style="stop-color:#969696;stop-opacity:0;"
         offset="1"
         id="stop9" />
    </linearGradient>
    <linearGradient
       id="linearGradient24"
       inkscape:collect="always">
      <stop
         style="stop-color:#ffffff;stop-opacity:1;"
         offset="0"
         id="stop24" />
      <stop
         style="stop-color:#f8f8f8;stop-opacity:0;"
         offset="1"
         id="stop25" />
    </linearGradient>
    <linearGradient
       id="linearGradient18"
       inkscape:collect="always">
      <stop
         style="stop-color:#a3a3a3;stop-opacity:1;"
         offset="0"
         id="stop19" />
      <stop
         style="stop-color:#8a8a8a;stop-opacity:1;"
         offset="1"
         id="stop20" />
    </linearGradient>
    <linearGradient
       id="linearGradient16"
       inkscape:collect="always">
      <stop
         style="stop-color:#ffffff;stop-opacity:1;"
         offset="0"
         id="stop17" />
      <stop
         style="stop-color:#bbbbbb;stop-opacity:1;"
         offset="1"
         id="stop18" />
    </linearGradient>
    <linearGradient
       id="linearGradient15"
       inkscape:collect="always">
      <stop
         style="stop-color:#000000;stop-opacity:0.52193588;"
         offset="0"
         id="stop15" />
      <stop
         style="stop-color:#000000;stop-opacity:0;"
         offset="1"
         id="stop16" />
    </linearGradient>
    <linearGradient
       id="linearGradient12"
       inkscape:collect="always">
      <stop
         style="stop-color:#ffffff;stop-opacity:1;"
         offset="0"
         id="stop11" />
      <stop
         style="stop-color:#ffffff;stop-opacity:0.64274555;"
         offset="1"
         id="stop12" />
    </linearGradient>
    <linearGradient
       id="linearGradient6"
       inkscape:collect="always">
      <stop
         style="stop-color:#ffffff;stop-opacity:1;"
         offset="0"
         id="stop7" />
      <stop
         style="stop-color:#bbbbbb;stop-opacity:1;"
         offset="1"
         id="stop8" />
    </linearGradient>
    <linearGradient
       id="linearGradient5"
       inkscape:collect="always">
      <stop
         style="stop-color:#a3a3a3;stop-opacity:1;"
         offset="0"
         id="stop5" />
      <stop
         style="stop-color:#8a8a8a;stop-opacity:1;"
         offset="1"
         id="stop6" />
    </linearGradient>
    <radialGradient
       inkscape:collect="always"
       xlink:href="#linearGradient5"
       id="radialGradient6"
       cx="75.066299"
       cy="74.607521"
       fx="75.066299"
       fy="74.607521"
       r="97.430664"
       gradientTransform="matrix(1.8981695,0,0,2.1817088,-96.702979,-133.54183)"
       gradientUnits="userSpaceOnUse" />
    <radialGradient
       inkscape:collect="always"
       xlink:href="#linearGradient6"
       id="radialGradient8"
       cx="174.45174"
       cy="189.403"
       fx="174.45174"
       fy="189.403"
       r="92.707426"
       gradientTransform="matrix(3.6956033,0,0,4.275761,-470.25265,-610.78818)"
       gradientUnits="userSpaceOnUse" />
    <radialGradient
       inkscape:collect="always"
       xlink:href="#linearGradient12"
       id="radialGradient11"
       gradientUnits="userSpaceOnUse"
       gradientTransform="matrix(1.8180173,0,0,2.0895839,-87.463524,-122.50101)"
       cx="75.066299"
       cy="74.607521"
       fx="75.066299"
       fy="74.607521"
       r="97.430664" />
    <radialGradient
       inkscape:collect="always"
       xlink:href="#linearGradient15"
       id="radialGradient16"
       cx="189.09937"
       cy="54.03986"
       fx="189.09937"
       fy="54.03986"
       r="26.26236"
       gradientTransform="matrix(2.5421412,0.6811647,-0.53467756,1.9954438,-265.4871,-191.34864)"
       gradientUnits="userSpaceOnUse" />
    <radialGradient
       inkscape:collect="always"
       xlink:href="#linearGradient16"
       id="radialGradient18"
       cx="163.13307"
       cy="81.723709"
       fx="163.13307"
       fy="81.723709"
       r="28.42736"
       gradientTransform="matrix(1.9525628,-0.49137406,0.39129194,1.5548686,-183.5452,34.191671)"
       gradientUnits="userSpaceOnUse" />
    <radialGradient
       inkscape:collect="always"
       xlink:href="#linearGradient18"
       id="radialGradient20"
       cx="163.86221"
       cy="57.354431"
       fx="163.86221"
       fy="57.354431"
       r="26.811067"
       gradientTransform="matrix(1.7424858,-0.07965295,0.07021751,1.5360764,-129.82848,-12.432711)"
       gradientUnits="userSpaceOnUse" />
    <linearGradient
       inkscape:collect="always"
       xlink:href="#linearGradient24"
       id="linearGradient25"
       x1="168.39914"
       y1="59.019711"
       x2="182.49422"
       y2="47.129765"
       gradientUnits="userSpaceOnUse" />
    <radialGradient
       inkscape:collect="always"
       xlink:href="#linearGradient4"
       id="radialGradient9"
       cx="25.964643"
       cy="242.70813"
       fx="25.964643"
       fy="242.70813"
       r="10.821037"
       gradientTransform="matrix(1.3500924,0,0,1.1782891,-7.4889947,-42.382648)"
       gradientUnits="userSpaceOnUse" />
    <linearGradient
       inkscape:collect="always"
       xlink:href="#linearGradient9"
       id="linearGradient13"
       x1="119.62739"
       y1="227.97072"
       x2="119.62739"
       y2="256.21124"
       gradientUnits="userSpaceOnUse" />
    <radialGradient
       inkscape:collect="always"
       xlink:href="#linearGradient14"
       id="radialGradient22"
       cx="215.0412"
       cy="241.92787"
       fx="215.0412"
       fy="241.92787"
       r="10.821037"
       gradientTransform="matrix(1.2864395,0,0,1.3278689,-63.973477,-78.809529)"
       gradientUnits="userSpaceOnUse" />
    <linearGradient
       inkscape:collect="always"
       xlink:href="#linearGradient7614"
       id="linearGradient6789"
       gradientUnits="userSpaceOnUse"
       gradientTransform="matrix(0,0.673693,-0.676136,0,37.10227,14.81577)"
       x1="6.7188582"
       y1="22.936218"
       x2="44.344444"
       y2="42.604996" />
    <linearGradient
       inkscape:collect="always"
       id="linearGradient7614">
      <stop
         style="stop-color:#fcaf3e;stop-opacity:1;"
         offset="0"
         id="stop7616" />
      <stop
         id="stop7628"
         offset="0.4873454"
         style="stop-color:#ffffff;stop-opacity:1" />
      <stop
         style="stop-color:#fcaf3e;stop-opacity:1;"
         offset="1"
         id="stop7618" />
    </linearGradient>
    <linearGradient
       inkscape:collect="always"
       xlink:href="#linearGradient6958"
       id="linearGradient6791"
       gradientUnits="userSpaceOnUse"
       gradientTransform="matrix(0,0.625,-0.676136,0,37.10227,15.875)"
       x1="17"
       y1="45.248375"
       x2="17"
       y2="30.759407" />
    <linearGradient
       inkscape:collect="always"
       id="linearGradient6958">
      <stop
         style="stop-color:#000000;stop-opacity:1"
         offset="0"
         id="stop6960" />
      <stop
         style="stop-color:#888a85;stop-opacity:0;"
         offset="1"
         id="stop6962" />
    </linearGradient>
    <linearGradient
       inkscape:collect="always"
       xlink:href="#linearGradient2251"
       id="linearGradient6834"
       gradientUnits="userSpaceOnUse"
       gradientTransform="matrix(0,0.673693,-0.676136,0,37.10227,14.81577)"
       x1="15.406166"
       y1="37.34367"
       x2="16.864777"
       y2="24.249567" />
    <linearGradient
       inkscape:collect="always"
       id="linearGradient2251">
      <stop
         style="stop-color:#ffffff;stop-opacity:1;"
         offset="0"
         id="stop2253" />
      <stop
         style="stop-color:#ffffff;stop-opacity:0;"
         offset="1"
         id="stop2255" />
    </linearGradient>
    <linearGradient
       inkscape:collect="always"
       xlink:href="#linearGradient4542"
       id="linearGradient6798"
       gradientUnits="userSpaceOnUse"
       gradientTransform="matrix(0.727273,0,0,0.999999,12.27273,-34.84375)"
       x1="33.120464"
       y1="20.5"
       x2="22.328388"
       y2="20.5" />
    <linearGradient
       id="linearGradient4542"
       inkscape:collect="always">
      <stop
         id="stop4544"
         offset="0"
         style="stop-color:#888a85;stop-opacity:1" />
      <stop
         id="stop4546"
         offset="1"
         style="stop-color:#888a85;stop-opacity:0" />
    </linearGradient>
  </defs>
  <metadata
     id="metadata1">
    <rdf:RDF>
      <cc:Work
         rdf:about="">
        <cc:license
           rdf:resource="http://creativecommons.org/publicdomain/zero/1.0/" />
        <dc:title>Sheet File</dc:title>
        <dc:date>202507</dc:date>
        <dc:creator>
          <cc:Agent>
            <dc:title>Paper sheet by Jakub Steiner </dc:title>
          </cc:Agent>
        </dc:creator>
        <dc:publisher>
          <cc:Agent>
            <dc:title>Blackcrack</dc:title>
          </cc:Agent>
        </dc:publisher>
        <dc:description>Groundfile for Mimetype-files
202507 - Blackcrack - Rebuild the Sheet from  Jakub Steiner total fresh because the Code was buggy (oversize) because that i have must make it fresh with Inkscape 1.4.2 with same Design, now it's in the right size, also at the Icon Themeviewer in Plasma.
202507 finaly many Mimetypes for Tango! from Blackcrack</dc:description>
        <dc:contributor>
          <cc:Agent>
            <dc:title>Paper sheet by Jakub Steiner &lt;http://jimmac.musichall.cz&gt;
202507 Blackcrack : Mimetypes creating for tango!</dc:title>
          </cc:Agent>
        </dc:contributor>
      </cc:Work>
      <cc:License
         rdf:about="http://creativecommons.org/publicdomain/zero/1.0/">
        <cc:permits
           rdf:resource="http://creativecommons.org/ns#Reproduction" />
        <cc:permits
           rdf:resource="http://creativecommons.org/ns#Distribution" />
        <cc:permits
           rdf:resource="http://creativecommons.org/ns#DerivativeWorks" />
      </cc:License>
    </rdf:RDF>
  </metadata>
  <g
     id="g26"
     transform="matrix(1.0110135,0,0,1.0271114,5.1068557,-7.0669282)">
    <g
       id="g1"
       inkscape:label="bgnshadow">
      <g
         id="g27"
         inkscape:label="shadow"
         transform="matrix(0.9809334,0,0,0.9809334,5.1601093,4.6032445)">
        <rect
           style="fill:url(#linearGradient13);fill-rule:evenodd;stroke-width:1.476;stroke-linecap:round;stroke-linejoin:round;paint-order:stroke fill markers"
           id="rect2"
           width="184.84464"
           height="28.737843"
           x="27.673475"
           y="226.00008" />
        <rect
           style="fill:url(#radialGradient9);fill-rule:evenodd;stroke-width:1.476;stroke-linecap:round;stroke-linejoin:round;paint-order:stroke fill markers"
           id="rect3"
           width="21.580748"
           height="28.737839"
           x="6.1013594"
           y="226.00008" />
        <rect
           style="fill:url(#radialGradient22);fill-rule:evenodd;stroke-width:1.476;stroke-linecap:round;stroke-linejoin:round;paint-order:stroke fill markers"
           id="rect4"
           width="21.642075"
           height="28.737839"
           x="212.51927"
           y="226.00008" />
      </g>
      <g
         id="rect1"
         style="opacity:1"
         transform="matrix(0.96874842,0,0,0.96874842,2.9832174,4.9451305)">
        <path
           style="baseline-shift:baseline;display:inline;overflow:visible;fill:url(#radialGradient6);fill-rule:evenodd;stroke-width:1.00013;stroke-linecap:square;stroke-dasharray:none;paint-order:stroke fill markers;enable-background:accumulate;stop-color:#000000;stop-opacity:1"
           d="m 32.501748,15.190316 c -6.164423,0 -9.332052,2.390294 -9.332052,8.554717 V 232.87562 c 0,6.16442 2.390294,8.16605 8.554717,8.16605 H 211.78111 c 6.16442,0 9.33206,-2.3903 9.33206,-8.55472 V 77.24196 c 0,-7.769553 -48.54277,-62.051644 -67.51449,-62.051644 z m 1.943339,9.445313 H 153.59868 c 7.88599,0 57.28988,47.93445 57.28988,52.606331 v 152.52432 c 0,1.09493 -0.73319,1.83008 -1.82812,1.83008 H 34.445087 c -1.094929,0 -1.830078,-0.73515 -1.830078,-1.83008 V 26.465707 c 0,-1.094929 0.735149,-1.830078 1.830078,-1.830078 z"
           id="path4"
           sodipodi:nodetypes="ssssssssssssssssss" />
        <path
           style="baseline-shift:baseline;display:inline;overflow:visible;vector-effect:none;fill:url(#radialGradient8);fill-rule:evenodd;stroke-linecap:square;paint-order:stroke fill markers;enable-background:accumulate;stop-color:#000000;stop-opacity:1"
           d="m 35.95035,20.666336 h 126.97059 c 8.45031,0 51.8925,53.10732 51.8925,57.65975 V 228.63696 c 0,3.62968 -2.92208,6.55176 -6.55176,6.55176 H 35.95035 c -3.629676,0 -6.551762,-2.92208 -6.551762,-6.55176 V 27.218098 c 0,-3.629676 2.922086,-6.551762 6.551762,-6.551762 z"
           id="path5"
           sodipodi:nodetypes="sssssssss" />
        <path
           style="baseline-shift:baseline;display:inline;overflow:visible;opacity:1;fill:url(#radialGradient11);fill-rule:evenodd;stroke-width:0.957899;stroke-linecap:square;stroke-dasharray:none;paint-order:stroke fill markers;enable-background:accumulate;stop-color:#000000;stop-opacity:1"
           d="m 38.490307,20.672015 c -5.904124,0 -9.723771,1.698513 -9.700415,7.602591 l 0.798722,201.901844 c 0.0079,2.00188 2.542406,5.007 6.609957,5.007 H 208.01432 c 4.63265,0 7.40868,-4.18878 7.40868,-7.97377 V 79.352581 c 0,-7.441476 -40.78525,-58.680566 -63.90137,-58.680566 z m 113.031323,6.348757 c 18.21976,0 58.41027,42.155832 58.39934,52.331809 l -0.15572,145.031599 c -0.004,3.59404 -0.98481,4.99145 -5.14153,5.00212 -17.95655,-1.29577 -168.755024,-0.0767 -168.755024,-0.0767 L 35.586781,27.020772 Z"
           id="path11"
           sodipodi:nodetypes="sssssssssssssccs" />
      </g>
    </g>
    <g
       id="g6765"
       transform="matrix(4.7994295,0.06442853,-0.0654544,4.7242081,56.077515,-38.745711)">
      <path
         id="path6767"
         d="m 13.4375,16.5 c -3.9188838,-1e-6 -7.09375,3.157775 -7.09375,7.0625 2e-7,2.818198 1.6046259,5.300595 4,6.4375 v 1.5 l 1.5,1.5 -1.5,1.5 v 1 l 2,1 v 1 l -2,1 v 1 l 1.5,1.5 -1.5,1.5 v 1 l 2.5,2 h 2.5 l 1,-1.5 V 30 c 2.372429,-1.145434 4,-3.698516 4,-6.5 0,-3.904724 -2.987366,-7 -6.90625,-7 z m -0.09375,2 c 1.104,0 2,0.896 2,2 0,1.104 -0.896,2 -2,2 -1.104,0 -2,-0.896 -2,-2 0,-1.104 0.896,-2 2,-2 z"
         style="fill:url(#linearGradient6789);fill-opacity:1;fill-rule:evenodd;stroke:#888a85;stroke-width:0.79015;stroke-linecap:round;stroke-linejoin:miter;stroke-miterlimit:4;stroke-dasharray:none;stroke-opacity:1"
         sodipodi:nodetypes="csccccccccccccccccsccsssc" />
      <path
         id="path6769"
         d="M 18.846598,24 H 8.028422 c 0,2.76 2.423271,5 5.409088,5 2.985817,0 5.409088,-2.24 5.409088,-5 z"
         style="opacity:0.3;fill:url(#linearGradient6791);fill-opacity:1;fill-rule:evenodd;stroke:none;stroke-width:1.02742;stroke-linecap:round;stroke-linejoin:miter;stroke-miterlimit:4;stroke-dasharray:none;stroke-opacity:1" />
      <path
         d="m 13.4375,17.277344 c -3.5016836,-1e-6 -6.3164062,2.80141 -6.3164063,6.285156 2e-7,2.523398 1.4335565,4.729586 3.5546873,5.736328 A 0.7767123,0.7767123 0 0 1 11.121094,30 v 1.177734 l 1.271484,1.273438 a 0.7767123,0.7767123 0 0 1 0,1.097656 l -1.271484,1.273438 v 0.197265 l 1.570312,0.785156 A 0.7767123,0.7767123 0 0 1 13.121094,36.5 v 1 a 0.7767123,0.7767123 0 0 1 -0.429688,0.695312 l -1.570312,0.785157 v 0.197265 l 1.271484,1.273438 a 0.7767123,0.7767123 0 0 1 0,1.097656 l -1.271484,1.273438 v 0.304687 l 1.99414,1.595703 h 1.8125 l 0.638672,-0.957031 V 30 a 0.7767123,0.7767123 0 0 1 0.439453,-0.699219 c 2.090763,-1.009442 3.560547,-3.300097 3.560547,-5.800781 0,-3.508607 -2.618965,-6.222656 -6.128906,-6.222656 z m -0.09375,0.445312 c 1.524208,0 2.777344,1.253136 2.777344,2.777344 0,1.524208 -1.253136,2.777344 -2.777344,2.777344 -1.524208,0 -2.777344,-1.253136 -2.777344,-2.777344 0,-1.524208 1.253136,-2.777344 2.777344,-2.777344 z"
         inkscape:href="#path1884"
         id="path6771"
         style="opacity:1;fill:none;fill-opacity:1;fill-rule:evenodd;stroke:#ffffff;stroke-width:0.79015;stroke-linecap:round;stroke-linejoin:miter;stroke-miterlimit:4;stroke-dasharray:none;stroke-opacity:1"
         xlink:href="#path1884"
         inkscape:original="M 13.4375 16.5 C 9.5186162 16.499999 6.34375 19.657775 6.34375 23.5625 C 6.3437502 26.380698 7.9483759 28.863095 10.34375 30 L 10.34375 31.5 L 11.84375 33 L 10.34375 34.5 L 10.34375 35.5 L 12.34375 36.5 L 12.34375 37.5 L 10.34375 38.5 L 10.34375 39.5 L 11.84375 41 L 10.34375 42.5 L 10.34375 43.5 L 12.84375 45.5 L 15.34375 45.5 L 16.34375 44 L 16.34375 30 C 18.716179 28.854566 20.34375 26.301484 20.34375 23.5 C 20.34375 19.595276 17.356384 16.5 13.4375 16.5 z M 13.34375 18.5 C 14.44775 18.5 15.34375 19.396 15.34375 20.5 C 15.34375 21.604 14.44775 22.5 13.34375 22.5 C 12.23975 22.5 11.34375 21.604 11.34375 20.5 C 11.34375 19.396 12.23975 18.5 13.34375 18.5 z "
         inkscape:radius="-0.77663463"
         sodipodi:type="inkscape:offset" />
      <path
         sodipodi:type="inkscape:offset"
         inkscape:radius="-0.10364762"
         inkscape:original="M 13.40625 17.53125 C 13.179953 17.535742 12.940048 17.565361 12.71875 17.59375 C 11.746507 17.718472 10.844502 18.056009 10.0625 18.5625 C 10.273788 19.382459 10.603512 20.028723 11 20.59375 C 10.998818 20.562191 11 20.531846 11 20.5 C 11 19.119998 12.119999 18 13.5 18 C 14.880001 18 16 19.119998 16 20.5 C 16 21.880003 14.880001 23 13.5 23 C 13.338115 23 13.184591 22.966937 13.03125 22.9375 C 14.159156 24.243071 15.219875 25.922289 15.46875 29.3125 C 17.839227 28.416828 19.53125 26.324417 19.53125 23.5625 C 19.444481 20.923505 17.958879 18.870351 15.46875 17.84375 C 14.777284 17.614671 14.085142 17.517773 13.40625 17.53125 z M 15.46875 31.96875 C 15.356466 34.978468 14.778907 38.970391 13.4375 44.46875 L 14.78125 44.46875 L 15.46875 43.125 L 15.46875 31.96875 z "
         style="opacity:0.6;fill:url(#linearGradient6834);fill-opacity:1;fill-rule:evenodd;stroke:none;stroke-width:1;stroke-linecap:round;stroke-linejoin:miter;stroke-miterlimit:4;stroke-dasharray:none;stroke-opacity:1"
         id="path6832"
         d="m 13.408203,17.634766 c -0.218711,0.0043 -0.454836,0.03416 -0.675781,0.0625 -0.930429,0.119358 -1.792702,0.440585 -2.546875,0.916015 0.175326,0.647181 0.436503,1.168908 0.736328,1.642578 0.125365,-1.319954 1.225798,-2.359375 2.578125,-2.359375 1.436081,0 2.603516,1.167434 2.603516,2.603516 0,1.436083 -1.167435,2.603516 -2.603516,2.603516 -0.08449,0 -0.156276,-0.01959 -0.234375,-0.03125 1.058127,1.270377 2.032881,2.937267 2.291016,6.085937 2.266579,-0.908047 3.869494,-2.924499 3.871093,-5.591797 v -0.002 c -0.08616,-2.598909 -1.537794,-4.608957 -3.992187,-5.623047 -0.680148,-0.225329 -1.359706,-0.319894 -2.027344,-0.30664 z m 1.957031,17.03125 c -0.278874,2.586914 -0.83804,5.74943 -1.796875,9.699218 h 1.150391 l 0.646484,-1.265625 z" />
      <rect
         transform="rotate(90)"
         y="-14.84375"
         x="29"
         height="0.98128641"
         width="16.311773"
         id="rect6776"
         style="opacity:0.615385;fill:url(#linearGradient6798);fill-opacity:1;fill-rule:evenodd;stroke:none;stroke-width:1;stroke-linecap:round;stroke-linejoin:miter;stroke-miterlimit:4;stroke-dasharray:none;stroke-opacity:1" />
    </g>
    <text
       xml:space="preserve"
       style="font-style:normal;font-variant:normal;font-weight:bold;font-stretch:normal;font-size:48.4666px;font-family:'Bitstream Vera Sans';-inkscape-font-specification:'Bitstream Vera Sans Bold';text-align:start;writing-mode:lr-tb;direction:ltr;text-anchor:start;fill:#000000;fill-opacity:1;stroke:none;stroke-width:10.1076;stroke-linecap:round;stroke-linejoin:round;paint-order:stroke fill markers"
       x="60.820351"
       y="217.90161"
       id="text1"
       transform="scale(1.0079298,0.99213257)"><tspan
         sodipodi:role="line"
         id="tspan1"
         style="stroke-width:10.1076"
         x="60.820351"
         y="217.90161">PEM</tspan></text>
    <g
       id="g25"
       transform="matrix(0.96874842,0,0,0.96874842,2.9832174,4.9451305)"
       inkscape:label="corner">
      <path
         id="rect15"
         style="fill:url(#radialGradient16);fill-rule:evenodd;stroke-width:5.31283;stroke-linecap:round;stroke-linejoin:round;stroke-dasharray:none;paint-order:stroke fill markers"
         d="m 162.28068,17.131718 6.77738,7.718687 c 14.83606,10.176161 40.05243,35.096719 46.35882,52.799059 -30.22806,-3.860408 -46.56567,3.040013 -62.92576,9.891727 -12.25281,-13.794148 20.14727,-48.441465 9.78956,-70.409473 z"
         sodipodi:nodetypes="ccccc" />
      <path
         id="rect16"
         style="fill:url(#radialGradient18);fill-rule:evenodd;stroke:url(#radialGradient20);stroke-width:8.17562;stroke-linecap:round;stroke-linejoin:round;stroke-dasharray:none;paint-order:stroke fill markers"
         d="m 154.0954,19.477065 c 26.62116,7.028338 58.21786,39.705383 61.08935,54.775615 -10.57275,-7.513474 -40.86995,-7.535453 -62.24463,-8.277256 5.26112,-5.771451 7.7788,-30.735109 1.15528,-46.498359 z"
         sodipodi:nodetypes="cccc" />
      <path
         id="rect20"
         style="fill:url(#linearGradient25);fill-rule:evenodd;stroke-width:5.82083;stroke-linecap:round;stroke-linejoin:round;paint-order:stroke fill markers"
         d="m 154.46507,21.289603 7.14008,0.594311 c 2.93924,11.484548 5.90595,25.163929 1.78202,39.604877 17.39684,-2.01662 38.85102,2.541784 50.19452,9.956123 l 0.37652,4.706517 c -10.27937,-10.991135 -27.67142,-11.007278 -59.70224,-9.724204 6.65045,-19.81034 4.06359,-35.945334 0.2091,-45.137624 z"
         sodipodi:nodetypes="ccccccc" />
    </g>
  </g>
</svg>
