<?xml version="1.0" encoding="UTF-8" standalone="no"?>
<!-- Created with Inkscape (http://www.inkscape.org/) -->

<svg
   width="256mm"
   height="256mm"
   viewBox="0 0 256 256"
   version="1.1"
   id="svg1"
   inkscape:version="1.3.2 (091e20ef0f, 2023-11-25)"
   xml:space="preserve"
   sodipodi:docname="application-x-atari-7800-rom.svg"
   xmlns:inkscape="http://www.inkscape.org/namespaces/inkscape"
   xmlns:sodipodi="http://sodipodi.sourceforge.net/DTD/sodipodi-0.dtd"
   xmlns:xlink="http://www.w3.org/1999/xlink"
   xmlns="http://www.w3.org/2000/svg"
   xmlns:svg="http://www.w3.org/2000/svg"
   xmlns:rdf="http://www.w3.org/1999/02/22-rdf-syntax-ns#"
   xmlns:cc="http://creativecommons.org/ns#"
   xmlns:dc="http://purl.org/dc/elements/1.1/"><defs
     id="defs1"><linearGradient
       inkscape:collect="always"
       xlink:href="#linearGradient19"
       id="linearGradient24"
       x1="-142.31654"
       y1="-88.34346"
       x2="178.50142"
       y2="-88.34346"
       gradientUnits="userSpaceOnUse"
       gradientTransform="matrix(3.2030628,0,0,3.2030628,-111.15708,-195.04537)" /><linearGradient
       id="linearGradient19"
       inkscape:collect="always"><stop
         style="stop-color:#fe00e6;stop-opacity:1;"
         offset="0"
         id="stop23" /><stop
         style="stop-color:#0005fe;stop-opacity:1;"
         offset="0.30344287"
         id="stop25" /><stop
         style="stop-color:#02fdd5;stop-opacity:1;"
         offset="0.60445768"
         id="stop26" /><stop
         style="stop-color:#46ff00;stop-opacity:1;"
         offset="0.83448821"
         id="stop27" /><stop
         style="stop-color:#effd48;stop-opacity:1;"
         offset="1"
         id="stop24" /></linearGradient></defs><sodipodi:namedview
     id="base"
     pagecolor="#ffffff"
     bordercolor="#000000"
     borderopacity="0.3"
     inkscape:pageopacity="0.0"
     inkscape:pageshadow="2"
     inkscape:zoom="0.98994949"
     inkscape:cx="505.07627"
     inkscape:cy="476.792"
     inkscape:document-units="mm"
     inkscape:showpageshadow="2"
     inkscape:pagecheckerboard="0"
     inkscape:deskcolor="#d1d1d1"
     inkscape:current-layer="svg1" /><metadata
     id="metadata1"><rdf:RDF><cc:Work
         rdf:about=""><dc:format>image/svg+xml</dc:format><dc:type
           rdf:resource="http://purl.org/dc/dcmitype/StillImage" /><cc:license
           rdf:resource="http://creativecommons.org/publicdomain/zero/1.0/" /></cc:Work><cc:License
         rdf:about="http://creativecommons.org/publicdomain/zero/1.0/"><cc:permits
           rdf:resource="http://creativecommons.org/ns#Reproduction" /><cc:permits
           rdf:resource="http://creativecommons.org/ns#Distribution" /><cc:permits
           rdf:resource="http://creativecommons.org/ns#DerivativeWorks" /></cc:License></rdf:RDF></metadata><g
     id="g12"
     style="display:inline"
     transform="matrix(1.0438511,0,0,1.0438511,-1.7688685,-18.104248)"><path
       id="rect1"
       style="display:inline;fill:#f8f8f8;fill-opacity:1;stroke:none;stroke-width:0.278189;stroke-linecap:square"
       d="m 12.922725,128.20561 v 26.14673 h 25.977226 v -5.63377 h -5.077726 v -4.74441 h -4.944918 v -5.14491 h -5.813082 v -5.67924 h -4.677234 v -4.9444 z m 41.293087,26.02735 v 5.16661 h 5.464783 v -5.16661 z m 5.229138,20.40754 v 11.0722 h 5.102531 v 4.7718 h 5.244125 v 5.19761 h 5.464782 V 184.6094 h -5.244124 v -5.1971 h -5.102531 v -4.7718 z" /><path
       id="rect7"
       style="fill:#f1f1f1;stroke-width:0.544042;stroke-linecap:square"
       d="m 12.922756,154.23087 h 20.899258 v 5.16638 H 12.922756 Z" /><path
       id="rect8"
       style="fill:#eaeaea;stroke-width:0.544042;stroke-linecap:square"
       d="m 12.922756,159.37581 h 20.899258 v 5.16638 H 12.922756 Z" /><path
       id="rect9"
       style="fill:#eaeaea;stroke-width:0.390882;stroke-linecap:square"
       d="m 43.916805,159.32857 h 10.788394 v 5.16638 H 43.916805 Z" /><path
       id="rect10"
       style="fill:#eaeaea;stroke-width:0.469436;stroke-linecap:square"
       d="m 18.261669,164.57298 h 15.560344 v 5.16638 H 18.261669 Z" /><path
       id="rect11"
       style="fill:#eaeaea;stroke-width:0.386578;stroke-linecap:square"
       d="m 23.269854,169.58116 h 10.552159 v 5.16638 H 23.269854 Z" /><path
       id="rect12"
       style="display:inline;fill:#d7d7d7;fill-opacity:1;stroke:none;stroke-width:0.282584;stroke-linecap:square"
       d="m 13.39801,122.99573 43.116196,-25.896081 14.215026,1.480878 39.300928,69.034623 -3.8281,6.57322 0.0473,5.84946 -19.701983,13.7397 -6.375194,-3.44694 -15.910002,-16.06804 -9.914717,-15.04737 -15.218526,-10.4959 -7.302158,-6.99609 z m 14.785286,51.73001 v 5.16609 h 5.638932 v -5.16609 z m 15.686381,5.1971 v 5.16609 h 5.638415 v -5.16609 z m 15.813316,-26.07205 5.055431,0.0109 -0.09449,20.62155 z m 31.277529,68.16652 v 10.17464 h 10.198498 v -10.17464 z"
       sodipodi:nodetypes="cccccccccccccccccccccccccccccccc" /><path
       id="rect22"
       style="display:inline;fill:#cccccc;fill-opacity:1;stroke:none;stroke-width:0.264583;stroke-linecap:square"
       d="m 80.16875,86.51875 v 5.328874 h 5.646167 V 86.51875 Z m 5.291667,5.55625 v 5.140771 h -9.966834 v -5.441242 h -5.646167 v 5.441242 h -9.832327 l -0.09449,5.308949 h 4.851542 l 0.05906,4.96019 h -5.282893 v 5.12992 h -5.313887 v 5.32888 h 5.187797 v 5.23585 h 5.646167 v -5.19968 h 4.879288 v 5.18883 l 0.01602,5.18211 h -5.510775 v 5.32888 h 5.032251 l 0.06682,5.22758 h 5.25844 v 4.82038 h -5.289083 v 5.32836 h 5.646167 v -4.38681 h 5.141805 v 4.26072 h -0.0041 v 5.32835 h 5.646167 v -5.19658 l 10.186044,0.15034 -0.26727,-4.70406 h 5.200711 v 4.62194 H 90.888509 v 5.16092 H 80.312927 v 5.09478 h 5.211568 v 4.69842 h 5.394503 v 5.3082 h -5.260661 v 5.32836 h 5.422408 v 5.31699 h 5.646167 v -5.31699 h 19.732128 v -4.95827 h 5.49527 v -5.15429 h 5.57486 v -5.32887 h -5.60793 v -4.88239 h -10.55336 v -4.93148 h 5.66787 v -5.32888 h -5.52731 v -5.31595 H 101.2672 v -5.02864 h -5.341272 v -5.26479 h 5.107182 v 5.24722 h 5.64617 v -5.32835 h -5.53455 v -4.94751 h 5.43068 v -5.73039 h -5.31079 v -5.1785 h -4.825029 v -5.03483 H 90.842 v -5.12372 h 5.55625 V 97.102083 H 91.307036 V 92.075 Z m 0.197404,5.328874 h 5.094262 v 4.933036 h -5.094262 z m -5.188831,5.073596 h 4.726843 v 5.08237 H 80.46899 Z m -4.984709,5.15007 h 4.710307 v 5.19865 h -5.109249 v 5.01365 h -4.944917 v -5.02605 h 5.343859 z m 10.355957,0.0382 h 4.953186 v 5.16041 h -4.953186 z m -26.319315,5.14801 h 4.973332 v 5.03741 h -4.973332 z m 31.600647,0.0692 h 4.496883 l -8.079241,5.38203 3.582358,-0.42522 z m 20.33416,15.61943 v 5.32887 h 5.64616 v -5.32887 z m -41.357166,0.0995 h 4.873087 v 4.97644 h -4.873087 z m 5.032767,5.22655 h 4.945435 v 5.01107 h -4.945435 z m 5.325257,5.29167 h 4.69222 v 5.33301 h -4.69222 z m 26.260412,5.3878 h 4.55424 v 4.62194 H 106.717 Z m -62.85146,9.57305 v 5.32836 h 5.646167 v -5.32836 z m 62.97395,0.37776 h 4.22402 v 4.8674 h -4.22402 z m -15.668828,4.92683 h 4.521688 v 4.45554 h -4.521688 z m 25.301818,0.0558 h 5.41052 v 4.7563 h -5.57485 v 5.19451 h -5.17695 v -5.23895 h 5.34128 z m -25.167976,10.29653 h 5.109249 v 4.73718 h -5.109249 z m -47.449817,0.20464 v 5.32887 h 5.646167 v -5.32887 z"
       sodipodi:nodetypes="cccccccccccccccccccccccccccccccccccccccccccccccccccccccccccccccccccccccccccccccccccccccccccccccccccccccccccccccccccccccccccccccccccccccccccccccccccccccccccccccccccccccccccccccccccccccccccccc" /><path
       id="rect26"
       style="display:inline;fill:#b2b2b2;fill-opacity:1;stroke:none;stroke-width:0.236213;stroke-linecap:square"
       d="m 152.82478,50.687862 v 5.500292 h 5.14594 v -5.500292 z m -10.59625,5.34231 v 4.954736 h -10.25777 v 5.233272 h -9.75341 v 5.054989 h -10.78074 v 5.493721 h -10.6872 l 0.3675,5.048143 9.57349,0.167043 v 5.065841 h -4.60179 v 5.145939 h 10.04745 v 4.659664 h 0.016 v 5.22862 h -5.52266 v 5.51439 h 5.76193 v -5.03535 h 5.17746 v 5.03949 h 0.0481 v 5.2002 h 5.60069 v 5.37331 0.0527 5.18832 l 10.2968,0.0334 0.13918,-5.19811 5.35109,0.0236 v 5.3006 l -5.47044,-0.11675 -0.0459,4.9688 -10.33751,0.10858 -0.0501,5.1548 10.4008,0.0501 0.0251,4.92826 h -0.0351 v 4.98471 h -5.43429 v -5.02089 h -5.36867 v 5.14646 h 5.14594 v 5.23844 h 5.72006 v -5.17694 h 4.82917 v 10.56886 l 44.93428,12.12403 -3.2128,-32.93155 h 5.33559 v -5.14645 h -5.03587 v -5.15318 h 5.15008 v -5.43016 h -5.66477 v 5.38624 h -4.89479 v -5.33921 l -4.99105,0.2088 -0.0418,-5.14328 5.05922,-0.0835 -0.10858,-5.26096 h 5.09116 v -5.43016 h -5.26273 v 5.07721 h -5.09116 v 5.2741 h -5.18676 v -10.16011 h 5.23586 v -5.096325 h 5.03018 v -5.43016 h -5.26325 v 5.096847 h -5.02966 v 5.375378 h -5.00228 v -5.417236 l -10.4372,0.346246 -0.008,5.24337 10.21185,0.11616 v 4.88583 l -4.95924,-0.10631 -0.0473,-5.18447 -10.69885,0.22442 -0.0945,-5.116928 5.58077,-0.104627 0.0501,-5.218637 h -5.5826 v -4.904093 h 5.4715 v 4.901509 l 5.39709,0.165365 v -5.093746 h 4.99297 v 5.093746 h 5.26325 V 86.74716 h -5.15731 v -4.92218 h 5.1356 v -5.43016 h -4.52355 v -5.174878 h -5.94041 v 5.164026 h -5.08444 v -5.167643 h 5.52938 v -4.980058 h 4.62555 v -5.145939 h -5.14594 v 4.980058 h -4.92218 v -5.060157 h -4.96093 v -4.980057 z m 0.23409,5.145939 h 5.17488 v 4.879805 h -5.17488 z m 5.38365,4.980058 h 4.97438 v 4.979024 h -4.97438 z m -9.82524,0.10852 h 4.27778 v 4.937683 h 5.44204 v 5.36298 h 5.09323 v 5.211569 h -10.0552 V 76.76689 h -4.75681 v -5.493721 h -0.001 z m 20.21944,10.361642 h 5.58333 l -0.53454,5.027083 h -5.04879 z m -5.22604,5.163509 h 5.13974 v 4.95732 h -5.13974 z m -36.56211,0.192236 h 5.74746 v 5.065841 h -5.74746 z m 5.27255,14.871444 h 5.01055 v 5.60121 h -5.01055 z m 41.25485,15.94735 h 5.44411 v 5.071 h -5.44411 z m -46.80903,4.93355 v 5.51387 h 5.76192 v -5.51387 z m 52.42987,0.25683 5.31163,0.1921 -0.4009,5.05957 -15.70128,0.22551 v -5.24154 h 5.1263 v 5.53451 h 5.66425 z m 5.19466,5.6534 4.94477,-0.0827 v 4.89324 h -5.16919 z m -36.15349,4.86947 h 5.04362 v 4.97954 l 5.1892,-0.0668 -0.0167,5.57918 25.88362,-0.0194 -0.0985,-5.14876 5.09294,-0.23624 v 5.06688 l -36.14643,0.0501 0.0835,-5.28855 h -5.03122 z m 30.6002,0 h 5.27306 v 4.94492 h -5.27306 z m 10.87848,0.17415 h 4.95156 v 4.86947 l -4.60902,0.0472 z m -20.95074,25.75863 v -5.14645 z m 31.00741,14.88643 v 5.38624 h -4.93251 v 11.01586 h 5.14594 v -0.0114 h 4.93251 v -16.3907 z M 64.822917,190.5 v 4.83485 h -5.21932 v 10.75851 H 75.239852 V 195.33485 H 69.968856 V 190.5 Z m 88.163093,0 v 10.81588 h 10.05985 V 190.5 Z m -31.22083,10.52649 v 5.14646 h 4.98936 v 4.68085 h -4.98493 v 5.47718 h 10.10709 l 0.0238,-10.21591 h -4.98936 v -5.08858 z m -31.015783,4.8193 V 222.142 h 4.916598 v 4.47931 h 5.496725 v -20.83232 z"
       sodipodi:nodetypes="cccccccccccccccccccccccccccccccccccccccccccccccccccccccccccccccccccccccccccccccccccccccccccccccccccccccccccccccccccccccccccccccccccccccccccccccccccccccccccccccccccccccccccccccccccccccccccccccccccccccccccccccccccccccccccccccccccccccccccccccccccccccccccccccccccccccccc" /><path
       id="rect18"
       style="display:inline;fill:#c0c0c0;fill-opacity:1;stroke:none;stroke-width:0.282584;stroke-linecap:square"
       d="m 90.643563,81.643079 v 4.913395 h -5.268412 v 5.244641 h -10.27522 v 5.622396 h 10.511898 v -5.250326 h 5.546431 v 4.9382 h 5.235856 v 5.178495 h -5.117517 v -5.112349 h -5.622396 v 5.197099 h -5.45238 v 5.1878 h -5.197099 v 5.4808 h 5.622396 v -5.1878 h 4.946468 v 5.31079 h 5.273063 v 4.99866 h 5.093229 v 4.86637 h 5.12165 v 5.41466 h -5.159373 v 5.48028 h 5.382613 v 5.04879 h 0.0507 v 0.0543 h 5.62239 v -0.0543 h 4.62711 v 5.22242 h 5.4436 v 5.07669 h -5.24206 v -5.07617 h -5.6224 v 5.4808 h 5.30355 v 4.52634 h -5.30355 v 5.48028 h 5.6224 v -5.31078 h 10.02213 v 4.71547 h -5.46737 v 5.07463 h -5.38624 v 5.48028 h 5.6224 v -5.07411 h 5.21105 v 5.29632 h 5.6224 v -5.29167 h 10.19007 v -5.29166 h 10.08724 v -4.81418 h 5.42034 V 143.7442 h -5.62239 v 10.60297 h -4.58939 v -5.01985 h 0.006 v -5.61051 l -5.29595,0.0118 c 0.17482,-3.29824 -0.0556,-6.71551 0.0648,-10.07563 l 4.65289,-0.0167 v 5.2343 h 5.62239 v -5.48028 h -5.17229 v -5.2343 h -5.23793 v -4.4266 h 5.50251 v -5.4808 h -5.62239 v 4.69273 H 127.3037 v -10.17302 h -0.0114 v -0.0672 h -5.62136 v -4.94492 h -0.11834 v -5.32112 h 5.35213 v -5.622395 h -5.43378 V 102.232 h -5.24413 v -5.221901 h -0.0403 v -4.882906 h -9.93686 v -5.003829 h 4.99401 v -5.480285 z m 25.347807,0 v 5.480285 h 6.18929 V 81.643079 Z M 96.582218,102.33174 v 0.0419 z m -47.531982,0.0749 v 5.58054 h 5.622396 v -5.58054 z m 36.773983,0.25166 h 5.038969 v 5.02709 h -5.038969 z m 5.371765,5.33766 h 5.103048 v 4.68809 h -5.103048 z m -62.518665,4.72064 v 4.96109 h 5.622396 v -4.96109 z m 67.791728,0.14211 h 4.776453 v 4.69171 h -4.776453 z m -78.310982,4.67104 v 5.4808 h 5.622396 v -5.4808 z m 83.404215,0.27595 h 4.98884 v 5.1356 h -4.98884 z m 14.88717,0.0473 5.30236,0.0118 -0.0709,5.07654 -5.31418,0.18899 z m -31.282039,5.04598 v 5.4808 h 5.622396 v -5.4808 z m 16.357139,5.66477 h 4.28501 v 4.98471 h -4.28501 z m 9.90741,0 h 5.67304 v 5.05602 h -5.67304 z m 15.74994,0 h 9.96994 v 5.05602 h -9.96994 z m -0.40824,10.41125 h 5.08651 v 4.75475 l 5.61471,0.0413 0.006,5.14867 -5.56769,0.0827 v -5.32141 h -5.13944 z m -31.192931,5.22294 v 5.4808 h 5.622391 v -5.4808 z m -46.419389,9.92807 v 5.1661 h 5.638416 v -5.1661 z m 72.80227,5.15783 h 5.42655 v 5.10253 h -5.42655 z m -78.330098,5.2095 v 5.55056 h 6.060896 v -5.55056 z m 15.434717,0 v 5.55056 h 5.827551 v -5.55056 z m -15.293123,10.51564 v 5.44979 h 5.827551 v -5.44979 z m 15.694027,10.13064 v 10.49549 h 5.827551 V 185.1396 Z"
       sodipodi:nodetypes="ccccccccccccccccccccccccccccccccccccccccccccccccccccccccccccccccccccccccccccccccccccccccccccccccccccccccccccccccccccccccccccccccccccccccccccccccccccccccccccccccccccccccccccccccccccccccccccccccccccccccccccccccccccccccccccccc" /><path
       id="rect39-27-4"
       style="display:inline;fill:#a0a0a4;fill-opacity:1;stroke:none;stroke-width:0.724687;stroke-linecap:square"
       d="M 163.08359,45.875753 V 50.7106 h -5.42086 v 5.157824 h -9.58546 v 5.079794 h -5.63894 v 4.871537 h -4.73459 v 10.958504 h 0.0661 v 0.03721 h 4.96868 v 4.969723 h 10.25416 v 4.859135 h -5.60534 v 5.455997 h 5.47925 v 5.100981 h -5.51233 v 5.455995 h 5.67563 v -5.345407 h 10.12651 v 5.094777 h -5.11132 v 5.13509 h 5.34128 v -4.85087 h 5.03277 v 10.09137 h -5.50251 v 5.24723 h -5.49475 v 5.456 h 5.67562 v -5.24775 h 5.27771 v 5.21984 h 5.16868 v 4.99608 h -5.50302 v 5.456 h 5.42034 v 5.0524 h 5.67562 v -5.15524 h 4.99298 v 5.12217 h 5.67614 v -5.37435 H 199.84 v -4.97231 h 9.86296 v -4.85734 h 5.77226 v -5.65106 h -0.062 v -5.26635 h -0.047 l -0.0723,-15.602658 h -5.45445 v -5.052404 h -10.29395 v -5.60586 h -0.0739 v -5.045687 h -0.11214 v -5.032767 h 5.1e-4 v -5.455998 h -10.07277 v -4.680335 l 4.63951,-0.141593 v -5.024499 h -5.22655 l 0.40153,4.78162 h -4.91702 v -4.786271 h 4.80333 v -5.102531 h -4.80229 V 50.7106 h -5.53713 v -4.834847 z m 20.99096,10.290844 v 4.866887 l -5.1971,0.03307 v -4.665865 z m -35.91047,4.837948 h 4.66638 v 4.976957 h -4.66638 z m 10.11153,0.133842 5.23172,0.02532 -0.5488,0.0036 0.10025,4.969206 h -4.68292 z m -15.46417,4.912362 h 4.91236 v 5.110799 h -4.91236 z m 10.22056,0.166915 h 5.20124 V 71.15328 H 153.032 Z m -5.21002,5.000211 h 5.16248 v 5.330424 h -5.16248 z m 10.82208,0.05839 h 4.97231 v 5.168676 h -4.97231 z m 5.14181,5.191931 h 4.72064 v 5.032767 h -4.72064 z m 25.37401,0.165365 h 5.15532 v 4.749284 h -5.15532 z m -36.0576,-0.04031 h 5.13354 v 5.04827 h -5.13354 z m 5.19865,5.186763 h 5.06326 v 4.864303 h -5.06326 z m -5.2374,4.964038 h 4.9816 v 5.111833 h -4.9816 z m 10.65723,0.212907 h 4.82399 v 4.898926 h -4.82399 z m 9.75547,5.279781 h 5.19607 v 4.968172 h -5.19607 z m -4.64416,5.075143 h 4.40593 v 5.095297 h -4.40593 z m 10.14564,5.098397 h 5.01158 v 5.14283 h -5.01158 z m -5.11649,5.26479 h 5.02554 v 5.1325 h -5.02554 z m -5.26893,5.29943 h 5.26428 v 5.02708 h -5.26428 z m 5.45858,5.28856 h 4.94131 v 4.90461 h -4.94131 z m 10.42779,0 h 5.00435 v 4.89892 h -5.00435 z m -5.25859,5.04568 h 5.15266 v 5.04207 h -5.15266 z m 5.456,5.30924 h 4.72787 v 4.855 h -4.72787 z m -10.95902,0.006 h 5.28288 v 4.88239 h -5.28288 z m -124.18674,35.79471 -0.01395,20.6344 -5.66167,-0.0563 -0.0016,5.23999 5.655986,0.13746 -0.0072,4.91908 5.063257,0.0119 0.133842,-30.88649 z m 113.51814,5.27048 -10.09913,0.005 v 20.8716 h 10.09913 z m -30.88535,15.66277 -10.38655,-0.0622 0.13153,15.97034 4.87643,-0.14608 v 5.03545 l -5.03173,0.004 v 4.87154 h 5.25445 v -4.67723 l 5.18119,0.0668 z m -30.98375,15.40149 -10.430884,0.005 v 5.1387 h 10.430884 z m -25.657862,4.70049 -15.951997,0.004 v 5.54023 h 5.448246 l -0.07493,4.91391 h 10.554911 z"
       sodipodi:nodetypes="cccccccccccccccccccccccccccccccccccccccccccccccccccccccccccccccccccccccccccccccccccccccccccccccccccccccccccccccccccccccccccccccccccccccccccccccccccccccccccccccccccccccccccccccccccccccccccccccccccccccccccccccccccccccccccccccccccccccccccccccc" /><path
       id="path1"
       style="display:inline;fill:#999999;fill-opacity:1;stroke:none;stroke-width:0.724687;stroke-linecap:square"
       d="m 184.18462,56.067379 -5.67562,0.0041 v 5.138704 h 5.31234 v 4.896342 h 5.24412 v 4.937167 h 9.94978 v 21.210591 l 10.62416,0.03307 v 4.944401 h 5.34541 v 26.593616 h 5.21105 v -5.02829 l 10.59057,-0.0667 v -5.41191 h 4.81056 V 102.3028 l -4.81056,0.008 v -4.952152 l -5.34541,0.01602 V 92.14683 l -5.24516,0.02015 v -5.465816 l -4.9444,0.02945 V 81.78984 l -5.1786,0.01344 v -4.957837 l -5.44556,0.01189 v -6.025472 l -5.28391,0.01705 V 66.09778 l -10.06347,0.0041 v -4.941817 l -5.0953,0.0036 z m 10.38697,20.377051 -5.61206,0.0046 v 5.080827 h 5.61206 z m -134.65938,72.36363 -20.889151,0.004 v 5.77347 l 20.889151,-0.0465 z m -15.981715,4.90639 -10.219192,0.004 v 31.46476 l 10.219192,-0.0465 z"
       sodipodi:nodetypes="cccccccccccccccccccccccccccccccccccccccccccccccccccc" /><path
       id="rect51"
       style="display:inline;fill:#666666;fill-opacity:1;stroke:none;stroke-width:0.264583;stroke-linecap:square"
       d="m 235.48175,112.86391 v 30.83275 h -5.44927 v 5.10873 h 10.60968 l 0.3044,-35.94148 z M 7.8176107,133.16707 v 10.57506 H 2.6525513 v 20.72483 h 5.1650594 v 0.001 h 5.3645303 v -31.30093 z m 207.2550493,5.61509 v 5.39199 h 5.36505 v -5.39199 z m -0.0475,10.25009 v 5.59345 h 5.06119 v 4.92735 h 5.36504 v -5.10873 h -5.0617 v -5.41207 z m -30.94592,5.29528 v 4.9444 h 5.1754 v -4.9444 z m 15.77578,4.38301 v 6.14431 h 9.93464 v -6.14431 z m -26.54359,5.86029 v 4.9583 h 5.36504 v -4.9583 z m 41.02474,5.25395 v 4.70772 h 11.01084 v -4.70772 z m -30.08226,15.66726 v 4.70772 h 10.04228 v -4.70772 z m -77.83315,20.67019 v 5.03845 h 10.04228 v -5.03845 z m 62.01602,-31.11594 v 4.99169 h 10.35966 v -4.99169 z m -31.1369,15.63527 v 4.70772 h 10.04228 v -4.70772 z"
       sodipodi:nodetypes="cccccccccccccccccccccccccccccccccccccccccccccccccccccccccccccccccccccc" /><path
       id="rect52"
       style="display:inline;fill:#969696;fill-opacity:1;stroke:none;stroke-width:0.264583;stroke-linecap:square"
       d="m 204.2449,149.31737 v 5.38572 h 5.36246 v -5.38572 z M 90.619792,185.16243 v 5.17036 h -5.682766 v 5.26302 h 5.807823 v -5.00383 h 4.954219 v -5.42955 z M 75.19386,195.3426 v 5.38623 h 5.017486 v 5.01756 h -4.903798 v 10.16188 h -5.532479 v 5.4529 h 5.532479 v 5.17022 h 5.07876 v -0.24391 h 5.310418 l 0.0186,-25.66717 H 80.55632 v -5.27771 z m 31.23036,-0.37437 v 6.37843 h 5.36246 v -6.37843 z"
       sodipodi:nodetypes="cccccccccccccccccccccccccccccccccccc" /><path
       id="rect48"
       style="display:inline;fill:#868686;fill-opacity:1;stroke:none;stroke-width:0.425204;stroke-linecap:square"
       d="m 157.99397,40.065255 v 5.704689 l -4.97024,0.133635 v 4.820973 h -5.3392 v 5.338692 h 5.3392 v -5.280342 l 10.15804,0.09523 V 46.06592 h 10.30945 v -6.000667 z m -26.18444,15.91324 v 5.065324 h -9.57616 v 5.093746 h -5.16455 V 71.5238 h 5.38624 v -5.093746 h 9.60768 v -5.065841 h 10.47223 V 55.978495 Z M 100.75251,71.57651 v 4.952152 h -9.965803 v 4.88549 h -5.309688 v 5.269305 h 5.636799 v -4.902195 h 10.003522 v -4.818518 h 10.50014 V 71.57651 Z M 69.768351,86.582829 v 5.279781 h -9.717236 v 5.276164 h -5.347477 v 5.386236 h 5.386234 v -5.276682 h 9.812321 V 91.969063 H 80.265902 V 86.582829 Z M 38.873079,102.40822 v 5.35264 h -9.975618 v 4.94027 h -5.182629 v 5.1108 h 5.278747 v -4.45606 h 10.025745 v -5.35264 H 49.19493 v -5.59501 z m -31.3846472,15.0642 v 5.31337 H 2.7590047 v 4.93251 h -0.0093 v 2.81585 h -0.094568 v 13.34337 h 5.2591105 v -10.56421 h 5.2916668 l 0.05684,-10.24589 h 5.082377 v -5.595 z M 220.26718,137.97836 v 6.05419 h -5.55766 l 0.0945,5.23637 h 5.55766 l 0.0236,5.11752 h -5.96073 v 15.50086 h 10.95289 v -10.45465 h -5.07825 v -4.9134 h 5.14491 v -16.54089 z m -46.65349,10.66063 v 4.91391 h 5.19762 v -4.91391 z M 59.578276,153.7038 v 5.33921 h -5.007964 v 47.00384 h 5.069975 v -41.30083 h 5.291667 V 153.7038 Z m 129.551784,0.65215 v 4.72478 h -5.05551 v 15.78508 h 5.17746 v -5.24464 h 5.05499 v -15.26522 z m -36.94679,-0.0924 v 4.99586 h -9.86586 v 5.0277 l -10.25386,0.0167 v 5.21396 h -10.94602 v 5.03661 h -9.95599 v 5.22058 h -9.82612 v 5.41026 h -5.660123 v 5.32411 h 5.367113 v 5.0369 h 10.45104 v 5.74487 h -5.08392 v 4.91391 h 10.20565 l -0.016,-25.79171 h 5.27697 v -5.55676 h 10.31152 v 4.90874 h 5.18159 v 10.91717 h 9.97459 v -10.91717 h 0.15193 v -4.91339 h -0.0377 v -5.26325 h -0.016 v -4.85241 h 5.41156 v -5.30872 h 5.06119 v -5.16397 z m 10.95613,0.28677 v 9.55755 h 5.15782 v 0.50436 h -0.002 V 175.072 h 5.08496 v -0.009 h 5.25033 v -5.76554 h -5.25033 v -4.67 h 5.24258 v -4.91391 h -10.28568 v -5.16299 z M 80.16875,195.5271 v 5.16617 h 5.531815 l 0.118117,-5.16617 z m -4.963522,5.06481 v 5.43791 h 4.963522 v 4.96766 h 5.579062 v -5.01262 h -5.459394 v -5.39295 z m 77.750292,0.17363 v 5.01262 h 10.12186 v -5.01262 z m -31.1149,15.53135 v 5.01262 h 10.28 v -5.01262 z M 90.987728,231.9755 v 5.01262 h 10.288642 v -5.01262 z"
       sodipodi:nodetypes="ccccccccccccccccccccccccccccccccccccccccccccccccccccccccccccccccccccccccccccccccccccccccccccccccccccccccccccccccccccccccccccccccccccccccccccccccccccccccccccccccccccccccccccccccccccccccccccccccccccccccccccc" /><path
       id="rect53"
       style="display:inline;fill:#777777;fill-opacity:1;stroke:none;stroke-width:0.264583;stroke-linecap:square"
       d="m 225.32992,118.3878 v 5.11372 h -10.42779 v 5.08341 h -10.02006 v 4.97282 h -0.0527 v -0.0946 h -4.94182 v -0.0754 h -5.38107 v 5.34851 h -10.37559 l 0.0473,5.06496 h -10.63036 l -0.0472,5.14992 h -10.90911 v 5.33383 h -4.78089 v 5.1875 l 5.38055,-0.10631 v -4.69636 l 5.07448,0.10631 v 5.04126 h 10.38918 v -6.36846 h -4.98936 v -4.28353 h 10.74405 v -5.07647 h 10.09705 v 4.71547 h 5.32009 v 10.37508 h 4.35633 v 0.0475 h 5.38055 v -4.6408 h -5.21015 v -5.09581 h 5.31453 v -15.87164 h 5.50871 v -4.90823 h 10.15339 v 4.44056 h 4.91649 v 10.82724 h 5.38055 v -25.62099 z"
       sodipodi:nodetypes="ccccccccccccccccccccccccccccccccccccccccccccccccccc" /><path
       id="rect54"
       style="display:inline;fill:#cccc99;fill-opacity:1;stroke:none;stroke-width:0.264583;stroke-linecap:square"
       d="m 13.17439,123.13667 v 5.4808 h 5.055505 v 4.91391 h 5.103048 v 5.24413 h 5.338692 v 5.29167 h 4.913912 v 5.10253 h 5.551082 v -5.48029 h -4.913395 v -5.10305 h -5.339209 v -5.29166 h -5.102531 v -5.24413 h -5.055505 v -4.91391 z m 201.84659,10.43089 v 5.48028 h 5.5516 v -5.48028 z m -30.94849,15.25901 v 5.48081 h 5.55159 v -5.48081 z m -31.30559,15.77062 v 5.48028 h 5.55109 v -5.48028 z m -93.306447,4.78317 v 5.4808 h 5.007963 v 4.7718 h 5.339209 v 5.29167 h 5.314921 v 5.45703 h 5.5516 v -5.48028 h -5.314922 v -5.45704 h -5.339209 v -5.29166 h -5.007963 v -4.77232 z m 62.430817,10.68772 v 5.48028 h 5.5516 v -5.48028 z m -31.194016,15.28899 v 5.4808 h 5.351147 v -5.4808 z"
       sodipodi:nodetypes="ccccccccccccccccccccccccccccccccccccccccccccccccccccccccccccccc" /><path
       id="rect53-4"
       style="display:inline;fill:#999966;fill-opacity:1;stroke:none;stroke-width:0.378643;stroke-linecap:square"
       d="m 142.78272,50.890286 v 5.275647 h 5.38107 V 50.890286 Z M 111.9076,66.463939 v 5.27513 h 5.85302 v -5.27513 z m -31.368625,15.08125 v 5.27513 h 5.381067 v -5.27513 z M 49.64422,97.32252 v 5.27565 h 5.38055 v -5.27565 z m 186.1938,10.77867 v 5.14336 h -5.19658 v 5.27513 h 5.38055 v -5.14336 h 5.1971 v -5.27513 z m -217.097857,4.63693 v 5.27513 h 5.38055 v -5.27513 z m 201.657977,5.67717 v 5.27513 h 5.38055 v -5.27513 z m -10.3973,5.17591 v 5.27513 h 5.38107 v -5.27513 z m -10.06088,4.88549 v 5.27513 h 5.38106 v -5.27513 z m -9.96891,5.01985 v 5.42913 h 5.38055 v -5.42913 z m 30.70459,0.21446 v 5.46426 h 5.38107 V 133.711 Z m -41.51013,5.14077 v 5.29942 h 5.47512 v -5.29942 z m -10.59027,5.03513 v 5.27565 h 5.38106 v -5.27565 z m -10.42181,5.06141 v 5.68906 h 5.38107 v -5.68906 z m 31.36856,0.0186 v 5.54282 h 5.38055 v -5.54282 z m -42.01553,5.41363 v 5.27513 h 5.38107 v -5.27513 z m -9.95908,4.99866 v 5.30923 h 5.38055 v -5.30923 z m -10.28568,4.99659 v 5.27565 h 5.38107 v -5.27565 z m 30.77487,0.34055 v 5.50922 h 5.38055 v -5.50922 z m -41.5556,4.88136 v 5.27564 h 5.38055 v -5.27564 z m -10.18543,5.09167 v 5.27513 h 5.38107 v -5.27513 z m -9.922906,5.26222 v 5.44101 h 5.380546 v -5.44101 z m 30.796566,0.20776 v 5.67718 h 5.38107 v -5.67718 z m -41.909066,5.11029 v 5.09684 H 75.045253 v 5.27513 h 10.392131 v -5.09633 h 5.721135 v -5.27564 z m 10.97194,10.20713 v 5.48803 h 5.480866 v -5.48803 z"
       transform="translate(-0.37797618,-0.11811756)"
       sodipodi:nodetypes="ccccccccccccccccccccccccccccccccccccccccccccccccccccccccccccccccccccccccccccccccccccccccccccccccccccccccccccccccccccccccccccccccccccc" /><path
       id="rect63"
       style="fill:#090909;fill-opacity:1;stroke:none;stroke-width:0.264583;stroke-linecap:square"
       d="m 173.3243,40.123649 v 5.880261 h 5.27875 v 4.977991 h 5.37848 v 5.311821 h 4.62246 v 5.037935 h 5.27875 v 4.977991 h 5.37848 v 5.31182 h 5.25239 v 5.265829 h 5.30097 v 5.315437 h 4.93717 v 5.083928 h 5.42396 v 5.036385 h 4.94078 v 5.102531 h 5.46633 v 5.158342 h 4.89635 v 5.46685 h 5.15782 v 40.61974 h -9.98492 v -15.65124 h -4.86637 v -4.98936 h -11.24634 v 5.36712 h -5.1785 v 30.84773 h -9.49192 v -15.582 h -4.86637 v -4.98936 h -11.24634 v 5.36712 h -5.1785 v 30.84772 h -10.08052 v -15.829 h -4.86689 v -4.98885 h -11.24634 v 5.36712 h -5.17849 v 30.84773 h -9.43509 v -15.55616 h -4.86688 v -4.98936 h -11.24635 v 5.36763 h -5.17797 v 30.84722 h -9.64541 v -15.9241 h -4.86637 v -4.98936 H 90.720561 v 5.36712 h -5.177979 v 30.84773 H 75.56283 v -5.38779 H 70.4665 v -5.21002 h -5.330424 v -5.02191 h -5.385718 v -5.27255 H 54.60545 v 5.88026 h 4.717544 v 5.27255 h 5.330424 v 5.0214 h 5.09633 v 5.21053 h 5.41414 v 5.25395 h 10.378694 v 4.93303 h 5.513359 v 5.29322 h 10.356989 v -5.12682 h 5.42086 v -20.40083 h 9.64541 v 4.93304 h 5.51335 v 5.29373 h 10.35648 v -5.12733 h 5.42137 v -20.76928 h 9.43509 v 4.93303 h 5.51387 v 5.29374 h 10.35647 v -5.12734 h 5.42138 v -20.49591 h 10.08052 v 4.93304 h 5.51336 v 5.29321 h 10.35699 v -5.12733 h 5.42086 v -20.74241 h 9.49192 v 4.93304 h 5.51388 v 5.29373 h 10.35647 v -5.12734 h 5.42086 v -20.54034 h 10.23659 v -5.23224 h 5.56141 v -41.6941 h -5.15782 v -5.45341 h -4.89634 v -5.466852 h -5.46634 v -5.157825 h -4.94078 v -5.102531 h -5.42396 v -5.036901 h -4.93716 V 76.32299 h -5.30097 v -5.315438 h -5.25188 v -5.265828 h -5.379 v -5.311821 h -5.27875 v -4.977991 h -4.62245 V 50.41346 h -5.37849 v -5.31182 h -5.27874 v -4.977991 z m -31.27612,5.735493 v 4.857068 h -5.04724 v 5.312854 h 5.55315 v -4.738729 h 10.91975 V 45.859142 Z M 111.07746,61.025216 V 65.8828 h -5.04724 v 5.832571 h 5.55367 v -5.258962 h 10.91923 V 61.025216 Z M 80.00752,76.35968 v 4.857585 h -5.047238 v 5.407348 h 5.305103 V 81.56645 L 91.433179,81.5192 V 76.35968 Z M 48.737077,91.995418 v 4.857068 H 43.68984 v 5.312854 h 5.553149 V 97.426095 H 60.162736 V 91.995418 Z M 17.733801,107.76396 v 4.85759 h -5.047237 v 5.31285 h 5.55315 v -4.73924 H 29.15946 v -5.4312 z m 197.440149,26.1457 h 9.66504 v 40.42802 h -9.66504 z m -30.78314,15.64349 h 9.66505 v 40.42802 h -9.66505 z M 12.529985,164.10316 v 5.87975 H 17.6382 v 5.30872 h 5.202266 v 5.01261 h 5.280815 v 5.27513 h 5.263245 v 5.21622 H 43.63713 v 4.7625 h 5.310787 v 6.00428 h 5.813082 v -6.56445 h -5.310787 v -5.32009 h -5.338693 v -4.7625 H 33.934363 v -5.21622 h -5.280815 v -5.27461 h -5.202266 v -5.01314 h -5.108216 v -5.3082 z m 140.489095,0.84698 h 9.66505 v 40.42802 h -9.66505 z m -30.7268,15.66984 h 9.66504 v 40.42751 h -9.66504 z m -30.936616,15.30088 h 9.665046 v 40.42802 h -9.665046 z"
       sodipodi:nodetypes="cccccccccccccccccccccccccccccccccccccccccccccccccccccccccccccccccccccccccccccccccccccccccccccccccccccccccccccccccccccccccccccccccccccccccccccccccccccccccccccccccccccccccccccccccccccccccccccccccccccccccccccccccccccccccccccccccccccccccccccccccccccccccccccccc" /></g><g
     id="g15"
     transform="matrix(0.2467972,0,0,0.2467972,141.0699,156.80127)"><path
       id="path15"
       style="fill:url(#linearGradient24);stroke:#000000;stroke-width:4.05191;stroke-dasharray:none;stroke-opacity:1"
       d="m -78.80991,-630.11191 c -10.344612,0.0862 -25.80241,2.14997 -32.55203,17.96409 -2.36846,5.54924 -78.47948,264.13447 -85.80134,286.09308 13.69955,0 40.32071,0.8973 53.55861,0.42398 5.16635,-26.03767 11.59252,-51.76654 18.02798,-77.50839 27.86499,-1.13668 55.689407,-1.50015 83.546522,-0.2146 7.968365,25.11448 17.974257,51.40573 26.515375,77.37378 15.60232515,-0.91953 37.960195,-0.26714 52.597725,-0.38437 -13.703312,-41.98704 -74.840032,-253.78485 -85.389287,-285.8026 -5.48036,-16.63332 -29.025753,-17.9573 -30.503555,-17.94497 z m 243.93072,-0.12144 c -4.69707,-10e-4 -68.594122,-0.01 -82.552827,-0.1733 -17.739941,-0.20883 -22.714034,9.62001 -22.714034,18.91287 v 140.23332 145.68452 c 14.061606,-0.0747 29.362632,-0.31579 40.730311,0.13715 0.56739,-101.99032 4.37716,-234.2338 5.74807,-247.90643 2.96026,-5.5313 7.32323,-6.63979 26.0963,-6.63979 20.86277,0 23.37058,0.83184 33.66161,11.16018 14.57561,14.62854 18.62906,36.35082 9.65114,51.72312 -3.41704,5.85079 -14.66586,15.69939 -24.99638,21.88444 -20.75518,12.42645 -26.97296,22.64088 -27.20964,44.69436 -0.1935,18.03056 3.37167,26.37572 26.88771,62.83636 10.35402,16.05347 22.79576,35.36918 27.64558,42.92376 4.84983,7.55457 10.24448,14.75638 11.98512,16.00922 1.74064,1.25292 13.28603,1.82836 25.66035,1.281 27.05675,-1.19679 33.69741,-7.19695 21.87772,-19.77845 -7.66951,-8.16381 -42.09882,-63.71628 -42.09882,-67.92685 0,-1.29344 -3.86545,-6.83964 -8.58475,-12.32717 -11.23741,-13.06668 -10.8264,-19.93265 1.71024,-28.85952 33.59373,-23.92086 46.85153,-77.38804 29.87225,-120.4481 -9.06239,-22.98241 -17.78741,-34.44 -33.54089,-44.0438 -10.43678,-6.36251 -14.15297,-9.37519 -19.82906,-9.37694 z m -618.41632,-0.0891 c -10.93289,0.58873 -25.56102,5.57144 -29.15541,16.33301 -31.83043,95.30004 -56.02,189.78533 -84.55499,284.49837 15.25304,0.65687 14.62894,0.18085 27.60396,0.18085 h 23.58796 c 8.59292,-23.07708 15.51187,-46.66843 22.50816,-72.92345 15.02326,-1.9741 22.38382,-2.54659 45.17724,-2.57542 l 41.44155,-0.0469 9.67796,37.77291 9.67126,37.7729 h 25.29148 c 19.2604,0 26.36088,-1.30062 25.28477,-4.76185 -24.04045,-77.3246 -61.75459,-215.54465 -84.23989,-280.82662 -3.86075,-11.20899 -25.73434,-15.77698 -32.29405,-15.42375 z m 863.92372,4.71758 c -24.03165,-0.003 -43.70044,19.6634 -43.70172,43.69505 -0.003,24.03492 19.66683,43.71181 43.70172,43.70845 24.03172,-10e-4 43.70512,-19.67677 43.70176,-43.70845 -10e-4,-24.02844 -19.67325,-43.69381 -43.70176,-43.69505 z m -775.20303,4.41311 c 0.68144,12.83714 1.37044,25.67389 2.05899,38.51064 l 68.67802,0.97921 0.89872,126.19584 0.89871,126.19585 h 23.95683 23.95012 l 0.8987,-126.19585 0.90542,-126.19584 70.39497,-1.95838 v -37.53147 z m 639.04756,-8.24305 c 1.13984,100.72344 -0.21845,202.83994 -0.21845,303.38479 13.20492,0 38.98365,0.0882 46.11469,0.0882 0,-100.5219 -1.25551,-202.71554 -1.25551,-303.473 z m 136.15547,21.58294 c 14.43386,7.7e-4 25.94132,11.50822 25.94205,25.94205 10e-4,14.43585 -11.50616,25.94798 -25.94205,25.94875 -14.43784,0.002 -25.95076,-11.51091 -25.94875,-25.94875 7.8e-4,-14.43584 11.51294,-25.94406 25.94875,-25.94205 z m -861.2115,51.44144 c 0.35329,-0.003 0.54193,0.84273 0.58351,2.46139 0.0445,1.73126 3.26865,14.74165 7.1696,28.90649 8.9063,32.34001 15.46003,57.3498 18.21576,69.53648 l 2.13277,9.44323 h -26.96148 c -14.83037,0 -27.83702,-0.87551 -28.89976,-1.93828 -1.06278,-1.06277 4.13294,-25.3122 11.54247,-53.88943 9.98788,-38.52164 14.68613,-54.50851 16.21713,-54.51988 z m 369.14941,4.2414 c 2.441135,6.12073 26.186774,101.61733 26.211919,106.82936 -17.526758,0.25295 -34.319281,-0.29747 -51.468269,-0.71092 8.684875,-33.1602 16.097842,-74.22317 25.25635,-106.11844 z m 493.14861,18.14602 c -24.02845,10e-4 -43.70051,19.66659 -43.70176,43.69505 10e-4,24.02846 19.67331,43.69378 43.70176,43.69504 24.03171,0.004 43.70716,-19.66337 43.70844,-43.69504 -0.001,-24.03168 -19.67673,-43.69841 -43.70844,-43.69505 z m 0,17.75301 c 14.43585,-0.002 25.95469,11.50619 25.95547,25.94204 -7.8e-4,14.43584 -11.51962,25.94406 -25.95547,25.94204 -14.43384,-7.5e-4 -25.94799,-11.50821 -25.94876,-25.94204 7.7e-4,-14.43384 11.51492,-25.94127 25.94876,-25.94204 z m 19.08095,71.36744 c -8.4188,0.002 -15.87748,3.82306 -21.35456,9.60419 -4.63133,-3.76075 -10.5045,-6.00142 -16.78721,-6.01603 -0.01,-1e-5 -0.01,-1e-5 -0.0192,0 -14.67154,0.002 -26.75859,12.08876 -26.76029,26.76028 0.001,14.67153 12.08875,26.7519 26.76029,26.75357 h 0.007 c 6.55806,-0.009 12.63571,-2.45807 17.35061,-6.50563 5.43288,5.43632 12.68065,8.99259 20.79118,9.00729 h 0.0124 c 16.3518,0.002 29.79489,-13.43994 29.79849,-29.79178 v -0.007 c 0.001,-16.35546 -13.44304,-29.80682 -29.79849,-29.80518 z m 0,17.753 c 6.75893,-6.7e-4 12.04618,5.29326 12.04548,12.05219 -10e-4,6.75301 -5.28092,12.03271 -12.03205,12.03877 h -0.007 c -8.93061,-0.0208 -12.3674,-7.61184 -12.3674,-12.03207 0,-3.95759 2.48974,-12.05595 12.36071,-12.05889 z m -38.16861,3.60157 c 5.7862,0.0224 9.24875,4.15016 9.24875,9.03411 0,5.13456 -4.05339,8.22685 -9.24202,8.96034 -5.07459,-0.004 -9.00674,-3.92502 -9.00731,-9.00058 5.7e-4,-5.07256 3.93035,-8.98538 9.00058,-8.99387 z m -18.62488,38.9399 -0.42925,58.71165 17.35731,0.20791 -0.16785,-37.9607 65.02952,23.74221 0.59019,-20.21441 c -14.72464,-6.91991 -37.38666,-12.04694 -66.2971,-24.0306 z"
       sodipodi:nodetypes="ssccccccsssssccccssssssssssssssscsccsccccccsssscccccccccccccccccccccccscccscsccsssscccccccccccccccssccsscssssccscssccscccccccccccccc" /></g></svg>
