<?xml version="1.0" encoding="UTF-8" standalone="no"?>
<svg
   height="256mm"
   width="256mm"
   version="1.1"
   id="svg19"
   sodipodi:docname="application-vnd.flatpak.repo.svg"
   viewBox="0 0 256 256"
   inkscape:version="1.4.2 (ebf0e940d0, 2025-05-08)"
   xml:space="preserve"
   xmlns:inkscape="http://www.inkscape.org/namespaces/inkscape"
   xmlns:sodipodi="http://sodipodi.sourceforge.net/DTD/sodipodi-0.dtd"
   xmlns:xlink="http://www.w3.org/1999/xlink"
   xmlns="http://www.w3.org/2000/svg"
   xmlns:svg="http://www.w3.org/2000/svg"
   xmlns:rdf="http://www.w3.org/1999/02/22-rdf-syntax-ns#"
   xmlns:cc="http://creativecommons.org/ns#"
   xmlns:dc="http://purl.org/dc/elements/1.1/"><title
     id="title1">Textfiles</title><sodipodi:namedview
     id="namedview19"
     pagecolor="#ffffff"
     bordercolor="#000000"
     borderopacity="0.25"
     inkscape:showpageshadow="2"
     inkscape:pageopacity="0.0"
     inkscape:pagecheckerboard="0"
     inkscape:deskcolor="#d1d1d1"
     inkscape:zoom="0.9158448"
     inkscape:cx="141.94545"
     inkscape:cy="273.51796"
     inkscape:current-layer="svg19"
     inkscape:document-units="mm" /><defs
     id="defs10"><radialGradient
       id="b"
       gradientUnits="userSpaceOnUse"
       cy="42.099998"
       cx="24.309999"
       gradientTransform="matrix(1.076,0,0,0.285,-6.9499999,28.65)"
       r="15.82"><stop
         offset="0"
         id="stop1" /><stop
         stop-opacity="0"
         offset="1"
         id="stop2" /></radialGradient><radialGradient
       id="f"
       gradientUnits="userSpaceOnUse"
       cy="35.740002"
       cx="33.970001"
       gradientTransform="matrix(0.961,0,0,1.041,-5.0999999,-2.1500001)"
       r="86.699997"><stop
         stop-color="#fafafa"
         offset="0"
         id="stop3" /><stop
         stop-color="#bbb"
         offset="1"
         id="stop4" /></radialGradient><radialGradient
       id="g"
       gradientUnits="userSpaceOnUse"
       cy="3.76"
       cx="8.8199997"
       gradientTransform="matrix(0.968,0,0,1.033,-1.7499999,-1.5000001)"
       r="37.75"><stop
         stop-color="#a3a3a3"
         offset="0"
         id="stop5" /><stop
         stop-color="#4c4c4c"
         offset="1"
         id="stop6" /></radialGradient><radialGradient
       id="e"
       gradientUnits="userSpaceOnUse"
       cy="7.27"
       cx="8.1400003"
       gradientTransform="matrix(0.968,0,0,1.033,-1.7499999,-1.5000001)"
       r="38.200001"><stop
         stop-color="#fff"
         offset="0"
         id="stop7" /><stop
         stop-color="#f8f8f8"
         offset="1"
         id="stop8" /></radialGradient><radialGradient
       id="c"
       gradientUnits="userSpaceOnUse"
       cy="18.82"
       cx="10.1"
       r="1.21"><stop
         stop-color="#f0f0f0"
         offset="0"
         id="stop9" /><stop
         stop-color="#9a9a9a"
         offset="1"
         id="stop10" /></radialGradient><radialGradient
       inkscape:collect="always"
       xlink:href="#c"
       id="radialGradient2"
       gradientUnits="userSpaceOnUse"
       cx="10.1"
       cy="18.82"
       r="1.21" /><linearGradient
       id="swatch1"
       inkscape:swatch="solid"><stop
         style="stop-color:#ff0707;stop-opacity:1;"
         offset="0"
         id="stop1-21" /></linearGradient><linearGradient
       inkscape:collect="always"
       xlink:href="#linearGradient5"
       id="linearGradient4"
       gradientUnits="userSpaceOnUse"
       gradientTransform="matrix(0.9999779,0,0,1.0023344,0.00287322,-0.55211813)"
       x1="48.721043"
       y1="122.0199"
       x2="211.33235"
       y2="122.0199" /><linearGradient
       id="linearGradient5"
       inkscape:collect="always"><stop
         style="stop-color:#64c0ff;stop-opacity:1;"
         offset="0"
         id="stop5-0" /><stop
         style="stop-color:#b2dfff;stop-opacity:1;"
         offset="0.1629598"
         id="stop7-6" /><stop
         style="stop-color:#64c0ff;stop-opacity:1;"
         offset="0.52453172"
         id="stop8-1" /><stop
         style="stop-color:#0c9dff;stop-opacity:1;"
         offset="0.875"
         id="stop9-5" /><stop
         style="stop-color:#0085e0;stop-opacity:1;"
         offset="1"
         id="stop6-5" /></linearGradient><radialGradient
       inkscape:collect="always"
       xlink:href="#linearGradient9"
       id="radialGradient42"
       gradientUnits="userSpaceOnUse"
       gradientTransform="matrix(1.23667,0.18734352,-0.09258141,0.64145153,-30.182362,106.92191)"
       cx="116.34091"
       cy="-9.0547552"
       fx="116.34091"
       fy="-9.0547552"
       r="78.079063" /><linearGradient
       id="linearGradient9"
       inkscape:collect="always"><stop
         style="stop-color:#a2d9ff;stop-opacity:1;"
         offset="0"
         id="stop10-4" /><stop
         style="stop-color:#80caff;stop-opacity:1;"
         offset="0.5"
         id="stop12" /><stop
         style="stop-color:#64c0ff;stop-opacity:1;"
         offset="0.75"
         id="stop13" /><stop
         style="stop-color:#43b4ff;stop-opacity:1;"
         offset="0.875"
         id="stop14" /><stop
         style="stop-color:#0b9cff;stop-opacity:1;"
         offset="0.9375"
         id="stop15" /><stop
         style="stop-color:#0073c0;stop-opacity:1;"
         offset="1"
         id="stop11" /></linearGradient><radialGradient
       inkscape:collect="always"
       xlink:href="#linearGradient15"
       id="radialGradient43"
       gradientUnits="userSpaceOnUse"
       gradientTransform="matrix(1.4167376,-0.10965263,0.02810314,0.35903908,-75.933171,165.75051)"
       cx="129.21951"
       cy="-33.028687"
       fx="129.21951"
       fy="-33.028687"
       r="79.024002" /><linearGradient
       id="linearGradient15"
       inkscape:collect="always"><stop
         style="stop-color:#ffffff;stop-opacity:1;"
         offset="0"
         id="stop16" /><stop
         style="stop-color:#ffffff;stop-opacity:0;"
         offset="1"
         id="stop17" /></linearGradient><radialGradient
       inkscape:collect="always"
       xlink:href="#linearGradient9"
       id="radialGradient46"
       gradientUnits="userSpaceOnUse"
       gradientTransform="matrix(1.23667,0.18734352,-0.09258141,0.64145153,-30.182362,106.92191)"
       cx="116.34091"
       cy="-9.0547552"
       fx="116.34091"
       fy="-9.0547552"
       r="78.079063" /><radialGradient
       inkscape:collect="always"
       xlink:href="#linearGradient15"
       id="radialGradient47"
       gradientUnits="userSpaceOnUse"
       gradientTransform="matrix(1.4167376,-0.10965263,0.02810314,0.35903908,-75.933171,165.75051)"
       cx="129.21951"
       cy="-33.028687"
       fx="129.21951"
       fy="-33.028687"
       r="79.024002" /><radialGradient
       inkscape:collect="always"
       xlink:href="#linearGradient9"
       id="radialGradient44"
       gradientUnits="userSpaceOnUse"
       gradientTransform="matrix(1.23667,0.18734352,-0.09258141,0.64145153,-30.182362,106.92191)"
       cx="116.34091"
       cy="-9.0547552"
       fx="116.34091"
       fy="-9.0547552"
       r="78.079063" /><radialGradient
       inkscape:collect="always"
       xlink:href="#linearGradient15"
       id="radialGradient45"
       gradientUnits="userSpaceOnUse"
       gradientTransform="matrix(1.4167376,-0.10965263,0.02810314,0.35903908,-75.933171,165.75051)"
       cx="129.21951"
       cy="-33.028687"
       fx="129.21951"
       fy="-33.028687"
       r="79.024002" /><linearGradient
       inkscape:collect="always"
       xlink:href="#linearGradient5"
       id="linearGradient368"
       gradientUnits="userSpaceOnUse"
       gradientTransform="matrix(0.9999779,0,0,1.0023344,0.00287322,-0.55211813)"
       x1="48.721043"
       y1="122.0199"
       x2="211.33235"
       y2="122.0199" /><linearGradient
       inkscape:collect="always"
       xlink:href="#linearGradient5"
       id="linearGradient369"
       gradientUnits="userSpaceOnUse"
       gradientTransform="matrix(0.9999779,0,0,1.0023344,0.00287322,-0.55211813)"
       x1="48.721043"
       y1="122.0199"
       x2="211.33235"
       y2="122.0199" /><radialGradient
       inkscape:collect="always"
       xlink:href="#c"
       id="radialGradient1"
       gradientUnits="userSpaceOnUse"
       cx="10.1"
       cy="18.82"
       r="1.21" /></defs><g
     id="g31"
     transform="matrix(5.4987246,0,0,5.4987246,20.583851,7.1467567)"><g
       id="g3"><ellipse
         opacity="0.8"
         rx="17"
         ry="4.5"
         cy="40.649998"
         cx="19.199999"
         fill="url(#b)"
         id="ellipse10"
         style="fill:url(#b)" /><rect
         rx="1.2"
         height="41"
         width="34.880001"
         stroke="url(#g)"
         y="1.5"
         x="1.5"
         fill="url(#f)"
         id="rect10"
         style="fill:url(#f);stroke:url(#g)" /><rect
         rx="0.2"
         height="39"
         width="32.779999"
         stroke="url(#e)"
         y="2.4299998"
         x="2.5599999"
         fill="none"
         id="rect11"
         style="stroke:url(#e)" /><g
         fill="none"
         id="g12"
         transform="translate(-5.0999999,-2.1500001)"><path
           stroke="#000000"
           d="M 11.5,5.4 V 43.3"
           stroke-opacity="0.02"
           id="path11" /><path
           stroke="#ffffff"
           d="M 12.5,5 V 43"
           stroke-opacity="0.2"
           id="path12" /></g><g
         id="g2"
         style="display:inline"><g
           id="d"
           transform="translate(-5.0999999,-2.1500001)"><circle
             cy="18.690001"
             cx="10.17"
             r="0.81999999"
             fill="#ffffff"
             id="circle18" /><circle
             cy="18.43"
             cx="9.8199997"
             r="0.81999999"
             fill="url(#c)"
             id="circle19"
             style="fill:url(#radialGradient1)" /></g><g
           id="use19"
           transform="translate(-5.0999999,9.3499999)"><circle
             cy="18.690001"
             cx="10.17"
             r="0.81999999"
             fill="#ffffff"
             id="circle1" /><circle
             cy="18.43"
             cx="9.8199997"
             r="0.81999999"
             fill="url(#c)"
             id="circle2"
             style="fill:url(#radialGradient2)" /></g></g></g><g
       fill-opacity="0.55"
       fill="#9b9b9b"
       id="g18"
       transform="translate(-5.0999999,-2.1500001)"
       style="display:none"><g
         id="a"><rect
           rx="0.2"
           height="1"
           width="20"
           y="9"
           x="16"
           id="rect12" /><rect
           rx="0.2"
           height="1"
           width="20"
           y="11"
           x="16"
           id="rect13" /><rect
           rx="0.2"
           height="1"
           width="20"
           y="13"
           x="16"
           id="rect14" /><rect
           rx="0.2"
           height="1"
           width="20"
           y="15"
           x="16"
           id="rect15" /></g><rect
         rx="0.2"
         height="1"
         width="9"
         y="25"
         x="16"
         id="rect16" /><rect
         rx="0.2"
         height="1"
         width="14"
         y="37"
         x="16"
         id="rect17" /><use
         y="8"
         xlink:href="#a"
         id="use17" /><use
         y="20"
         xlink:href="#a"
         id="use18" /></g></g><metadata
     id="metadata21"><rdf:RDF><cc:Work
         rdf:about=""><dc:source>https://commons.wikimedia.org/wiki/File:Text-x-generic.svg</dc:source><cc:license
           rdf:resource="http://creativecommons.org/publicdomain/zero/1.0/" /><dc:title>Textfiles</dc:title><dc:publisher><cc:Agent><dc:title>Blackcrack</dc:title></cc:Agent></dc:publisher><dc:creator><cc:Agent><dc:title>Rocket000</dc:title></cc:Agent></dc:creator><dc:date>202507</dc:date><dc:description>groundfile for Textfiles
202507 finaly many Mimetypes from Blackcrack</dc:description><dc:contributor><cc:Agent><dc:title>Blackcrack</dc:title></cc:Agent></dc:contributor></cc:Work><cc:License
         rdf:about="http://creativecommons.org/publicdomain/zero/1.0/"><cc:permits
           rdf:resource="http://creativecommons.org/ns#Reproduction" /><cc:permits
           rdf:resource="http://creativecommons.org/ns#Distribution" /><cc:permits
           rdf:resource="http://creativecommons.org/ns#DerivativeWorks" /></cc:License></rdf:RDF></metadata><g
     id="g1"
     transform="matrix(0.89848671,0,0,0.89848671,33.579083,-1.1153806)"><g
       id="g11"
       style="fill:#b9b9b9;fill-opacity:1"><path
         id="path7"
         style="fill:#b9b9b9;fill-opacity:1;fill-rule:evenodd;stroke-width:1.86117;stroke-linecap:round;stroke-linejoin:round;stroke-miterlimit:2.1;stroke-opacity:0.357798"
         d="M 42.002144,114.91787 H 184.1374 v 8.40043 H 42.002144 Z" /><path
         id="path8"
         style="fill:#b9b9b9;fill-opacity:1;fill-rule:evenodd;stroke-width:1.86117;stroke-linecap:round;stroke-linejoin:round;stroke-miterlimit:2.1;stroke-opacity:0.357798"
         d="M 42.002144,133.73483 H 184.1374 v 8.40043 H 42.002144 Z" /><path
         id="path9"
         style="fill:#b9b9b9;fill-opacity:1;fill-rule:evenodd;stroke-width:1.86117;stroke-linecap:round;stroke-linejoin:round;stroke-miterlimit:2.1;stroke-opacity:0.357798"
         d="M 42.002144,155.23993 H 184.1374 v 8.40043 H 42.002144 Z" /><path
         id="path10"
         style="fill:#b9b9b9;fill-opacity:1;fill-rule:evenodd;stroke-width:1.86117;stroke-linecap:round;stroke-linejoin:round;stroke-miterlimit:2.1;stroke-opacity:0.357798"
         d="M 42.002144,175.40095 H 184.1374 v 8.40043 H 42.002144 Z" /><path
         id="path11-9"
         style="fill:#b9b9b9;fill-opacity:1;fill-rule:evenodd;stroke-width:1.86117;stroke-linecap:round;stroke-linejoin:round;stroke-miterlimit:2.1;stroke-opacity:0.357798"
         d="M 42.002144,196.57003 H 184.1374 v 8.40043 H 42.002144 Z" /></g><g
       id="g42"
       inkscape:label="more"
       transform="matrix(0.70037457,0,0,0.70037457,95.914217,79.871474)"
       style="display:inline"><g
         id="g40"
         inkscape:label="single"><path
           id="path37"
           style="fill:url(#linearGradient368);fill-rule:evenodd;stroke:#007ed7;stroke-width:3.05453;stroke-linejoin:round;stroke-dasharray:none;stroke-opacity:1"
           d="m 130.02669,123.21294 c -42.513809,0.0249 -77.500227,11.18456 -79.545843,25.3728 -0.04939,-0.23931 -0.123833,-0.46384 -0.164844,-0.70807 v 1.61659 c -0.02519,0.1246 -0.04775,0.24926 -0.0677,0.37397 0.01994,0.12471 0.04251,0.24937 0.0677,0.37398 v 56.07613 c 2.457668,8.29459 8.248442,27.24009 76.905447,29.31167 41.33074,1.24707 81.13586,-6.96794 82.51024,-29.31167 v -56.04506 c 0.0275,-0.13495 0.052,-0.26997 0.0734,-0.40505 -2.8e-4,-0.37894 -0.0247,-0.75784 -0.0734,-1.13643 v -0.85413 c -0.0127,0.17595 -0.0529,0.31892 -0.0693,0.49052 -2.38113,-14.11411 -37.32587,-25.15241 -79.6357,-25.15525 z"
           sodipodi:nodetypes="cccccccsccccccc" /><ellipse
           style="display:inline;fill:url(#radialGradient42);fill-rule:evenodd;stroke:#007ed7;stroke-width:3.323;stroke-linejoin:round;stroke-dasharray:none;stroke-opacity:1"
           id="ellipse38"
           cx="130.0266"
           cy="149.74542"
           rx="77.134125"
           ry="26.026354"
           inkscape:label="one" /><ellipse
           style="display:inline;fill:url(#radialGradient43);fill-opacity:1;fill-rule:evenodd;stroke:none;stroke-width:0.992733;stroke-linejoin:round"
           id="ellipse39"
           cx="130.80095"
           cy="148.30801"
           rx="76.010887"
           ry="24.893661"
           inkscape:label="twoe"
           transform="matrix(0.99985941,0.01676862,0,1,0,0)" /></g><g
         id="g41"
         inkscape:label="single"
         transform="translate(0,-69.850038)"><path
           id="path39"
           style="fill:url(#linearGradient369);fill-rule:evenodd;stroke:#007ed7;stroke-width:3.05453;stroke-linejoin:round;stroke-dasharray:none;stroke-opacity:1"
           d="m 130.02669,123.21294 c -42.513809,0.0249 -77.500227,11.18456 -79.545843,25.3728 -0.04939,-0.23931 -0.123833,-0.46384 -0.164844,-0.70807 v 1.61659 c -0.02519,0.1246 -0.04775,0.24926 -0.0677,0.37397 0.01994,0.12471 0.04251,0.24937 0.0677,0.37398 v 56.07613 c 2.457668,8.29459 8.248442,27.24009 76.905447,29.31167 41.33074,1.24707 81.13586,-6.96794 82.51024,-29.31167 v -56.04506 c 0.0275,-0.13495 0.052,-0.26997 0.0734,-0.40505 -2.8e-4,-0.37894 -0.0247,-0.75784 -0.0734,-1.13643 v -0.85413 c -0.0127,0.17595 -0.0529,0.31892 -0.0693,0.49052 -2.38113,-14.11411 -37.32587,-25.15241 -79.6357,-25.15525 z"
           sodipodi:nodetypes="cccccccsccccccc" /><ellipse
           style="display:inline;fill:url(#radialGradient46);fill-rule:evenodd;stroke:#007ed7;stroke-width:3.323;stroke-linejoin:round;stroke-dasharray:none;stroke-opacity:1"
           id="ellipse40"
           cx="130.0266"
           cy="149.74542"
           rx="77.134125"
           ry="26.026354"
           inkscape:label="one" /><ellipse
           style="display:inline;fill:url(#radialGradient47);fill-opacity:1;fill-rule:evenodd;stroke:none;stroke-width:0.992733;stroke-linejoin:round"
           id="ellipse41"
           cx="130.80095"
           cy="148.30801"
           rx="76.010887"
           ry="24.893661"
           inkscape:label="twoe"
           transform="matrix(0.99985941,0.01676862,0,1,0,0)" /></g><g
         id="g37"
         inkscape:label="single"
         transform="translate(0,-138.1128)"><path
           id="path36"
           style="fill:url(#linearGradient4);fill-rule:evenodd;stroke:#007ed7;stroke-width:3.05453;stroke-linejoin:round;stroke-dasharray:none;stroke-opacity:1"
           d="m 130.02669,123.21294 c -42.513809,0.0249 -77.500227,11.18456 -79.545843,25.3728 -0.04939,-0.23931 -0.123833,-0.46384 -0.164844,-0.70807 v 1.61659 c -0.02519,0.1246 -0.04775,0.24926 -0.0677,0.37397 0.01994,0.12471 0.04251,0.24937 0.0677,0.37398 v 56.07613 c 2.457668,8.29459 8.248442,27.24009 76.905447,29.31167 41.33074,1.24707 81.13586,-6.96794 82.51024,-29.31167 v -56.04506 c 0.0275,-0.13495 0.052,-0.26997 0.0734,-0.40505 -2.8e-4,-0.37894 -0.0247,-0.75784 -0.0734,-1.13643 v -0.85413 c -0.0127,0.17595 -0.0529,0.31892 -0.0693,0.49052 -2.38113,-14.11411 -37.32587,-25.15241 -79.6357,-25.15525 z"
           sodipodi:nodetypes="cccccccsccccccc" /><ellipse
           style="display:inline;fill:url(#radialGradient44);fill-rule:evenodd;stroke:#007ed7;stroke-width:3.323;stroke-linejoin:round;stroke-dasharray:none;stroke-opacity:1"
           id="ellipse36"
           cx="130.0266"
           cy="149.74542"
           rx="77.134125"
           ry="26.026354"
           inkscape:label="one" /><ellipse
           style="display:inline;fill:url(#radialGradient45);fill-opacity:1;fill-rule:evenodd;stroke:none;stroke-width:0.992733;stroke-linejoin:round"
           id="ellipse37"
           cx="130.80095"
           cy="148.30801"
           rx="76.010887"
           ry="24.893661"
           inkscape:label="twoe"
           transform="matrix(0.99985941,0.01676862,0,1,0,0)" /></g></g><g
       id="g738"
       transform="matrix(0.5659935,0,0,0.5659935,-647.9476,-56.804465)"
       style="fill:#4a90d9;fill-opacity:1;fill-rule:nonzero"><g
         id="g9130"
         transform="matrix(0.65355666,0,0,0.65355666,1083.9554,58.477411)"
         style="mix-blend-mode:normal;fill:#4a90d9;fill-opacity:1;fill-rule:nonzero"><path
           id="rect11-3"
           style="fill:#eeeeee;fill-opacity:1;fill-rule:evenodd;stroke-width:1.112;stroke-linecap:round;stroke-linejoin:round;stroke-miterlimit:2.1;stroke-opacity:0.357798"
           d="M 61.827152,84.340302 113.23777,54.098759 160.95221,85.012334 113.57379,165.99247 64.851306,140.95919 Z"
           sodipodi:nodetypes="cccccc"
           transform="matrix(2.703369,0,0,2.703369,39.498641,30.477771)" /><path
           style="fill:#4a90d9;fill-opacity:1;fill-rule:nonzero;stroke:none;stroke-width:1px;stroke-linecap:butt;stroke-linejoin:miter;stroke-opacity:1"
           d="m 474.6092,255.1181 1e-5,151.18111 -130.92667,75.59055 v -151.1811 z"
           id="path9124"
           sodipodi:nodetypes="ccccc" /><path
           style="fill:#4a90d9;fill-opacity:1;fill-rule:nonzero;stroke:none;stroke-width:1px;stroke-linecap:butt;stroke-linejoin:miter;stroke-opacity:1"
           d="M 343.68252,330.70866 V 179.52756 L 212.75586,255.1181 Z"
           id="path9126" /><path
           style="fill:#4a90d9;fill-opacity:1;fill-rule:nonzero;stroke:none;stroke-width:82.9362;stroke-linecap:round;stroke-linejoin:round;stroke-dasharray:none;stroke-opacity:1"
           d="m 218.61226,233.26169 c -13.54108,7.81795 -21.85641,22.22052 -21.85641,37.85641 v 119.18111 c 0,15.63589 8.31533,30.03846 21.85641,37.85641 l 103.21385,59.59055 c 13.54108,7.81794 30.17174,7.81794 43.71282,0 l 103.21386,-59.59055 c 13.54108,-7.81795 21.85641,-22.22052 21.85641,-37.85641 V 271.1181 c 0,-15.63589 -8.31533,-30.03846 -21.85641,-37.85641 L 365.53893,173.67115 c -13.54108,-7.81794 -30.17174,-7.81794 -43.71282,0 z m 130.92667,-31.87772 103.21386,59.59054 c 3.60767,2.08289 5.85641,5.97781 5.85641,10.14359 v 119.18111 c 0,4.16578 -2.24874,8.0607 -5.85641,10.14359 l -103.21386,59.59055 c -3.60767,2.08289 -8.10515,2.08289 -11.71282,0 L 234.61226,400.4428 c -3.60767,-2.08289 -5.85641,-5.97781 -5.85641,-10.14359 V 271.1181 c 0,-4.16578 2.24874,-8.0607 5.85641,-10.14359 l 103.21385,-59.59054 c 3.60767,-2.08289 8.10515,-2.08289 11.71282,0 z"
           id="path9128" /></g><g
         aria-label="Flatpak"
         id="text9134"
         style="font-weight:bold;font-size:48.2186px;line-height:1.25;font-family:Inter;-inkscape-font-specification:'Inter, Bold';text-align:center;letter-spacing:0px;word-spacing:0px;text-anchor:middle;display:none;fill:#4a90d9;fill-opacity:1;fill-rule:nonzero;stroke-width:1.69387"><path
           d="m 1224.9225,467.70215 h 7.4143 v -14.48613 h 14.2635 v -6.11294 h -14.2635 v -8.35606 h 15.8046 v -6.11295 h -23.2189 z"
           id="path885"
           style="fill:#4a90d9;fill-opacity:1;fill-rule:nonzero" /><path
           d="m 1260.2816,432.63407 h -7.2944 v 35.06808 h 7.2944 z"
           id="path887"
           style="fill:#4a90d9;fill-opacity:1;fill-rule:nonzero" /><path
           d="m 1273.6033,468.19872 c 3.887,0 6.4041,-1.69519 7.6883,-4.14379 h 0.2055 v 3.64722 h 6.9177 v -17.73952 c 0,-6.26704 -5.3082,-8.904 -11.1643,-8.904 -6.3012,0 -10.445,3.01366 -11.4553,7.80813 l 6.7465,0.54794 c 0.4966,-1.74656 2.0548,-3.03079 4.6746,-3.03079 2.4828,0 3.9041,1.24999 3.9041,3.40749 v 0.10274 c 0,1.69519 -1.798,1.91779 -6.3698,2.36299 -5.2054,0.47944 -9.88,2.226 -9.88,8.09922 0,5.20541 3.7157,7.84237 8.7327,7.84237 z m 2.089,-5.03419 c -2.2431,0 -3.8526,-1.04451 -3.8526,-3.04791 0,-2.05477 1.6951,-3.06503 4.2636,-3.42461 1.5924,-0.2226 4.1952,-0.59931 5.0684,-1.1815 v 2.79107 c 0,2.75681 -2.2773,4.86295 -5.4794,4.86295 z"
           id="path889"
           style="fill:#4a90d9;fill-opacity:1;fill-rule:nonzero" /><path
           d="m 1308.0721,441.40109 h -4.9486 v -6.30129 h -7.2944 v 6.30129 h -3.5959 v 5.47939 h 3.5959 v 13.69847 c -0.034,5.15404 3.476,7.70538 8.767,7.48278 1.8835,-0.0685 3.2191,-0.4452 3.9554,-0.68492 l -1.1472,-5.42802 c -0.3596,0.0685 -1.1301,0.23973 -1.8151,0.23973 -1.4554,0 -2.4657,-0.54794 -2.4657,-2.56847 v -12.73957 h 4.9486 z"
           id="path891"
           style="fill:#4a90d9;fill-opacity:1;fill-rule:nonzero" /><path
           d="m 1312.8151,477.56504 h 7.2944 v -14.07517 h 0.2226 c 1.0103,2.19175 3.2192,4.64036 7.4657,4.64036 5.9931,0 10.6677,-4.7431 10.6677,-13.54436 0,-9.04099 -4.8801,-13.52724 -10.6506,-13.52724 -4.4006,0 -6.5068,2.61983 -7.4828,4.76022 h -0.3253 v -4.41776 h -7.1917 z m 7.1403,-23.01342 c 0,-4.69172 1.9863,-7.68826 5.5308,-7.68826 3.6129,0 5.5307,3.13352 5.5307,7.68826 0,4.58899 -1.952,7.77388 -5.5307,7.77388 -3.5103,0 -5.5308,-3.08215 -5.5308,-7.77388 z"
           id="path893"
           style="fill:#4a90d9;fill-opacity:1;fill-rule:nonzero" /><path
           d="m 1350.8111,468.19872 c 3.887,0 6.4041,-1.69519 7.6883,-4.14379 h 0.2055 v 3.64722 h 6.9177 v -17.73952 c 0,-6.26704 -5.3082,-8.904 -11.1642,-8.904 -6.3013,0 -10.4451,3.01366 -11.4554,7.80813 l 6.7465,0.54794 c 0.4966,-1.74656 2.0548,-3.03079 4.6746,-3.03079 2.4829,0 3.9041,1.24999 3.9041,3.40749 v 0.10274 c 0,1.69519 -1.798,1.91779 -6.3698,2.36299 -5.2054,0.47944 -9.88,2.226 -9.88,8.09922 0,5.20541 3.7157,7.84237 8.7327,7.84237 z m 2.0891,-5.03419 c -2.2432,0 -3.8527,-1.04451 -3.8527,-3.04791 0,-2.05477 1.6951,-3.06503 4.2636,-3.42461 1.5925,-0.2226 4.1952,-0.59931 5.0684,-1.1815 v 2.79107 c 0,2.75681 -2.2773,4.86295 -5.4793,4.86295 z"
           id="path895"
           style="fill:#4a90d9;fill-opacity:1;fill-rule:nonzero" /><path
           d="m 1371.2903,467.70215 h 7.2945 v -8.35607 l 1.9691,-2.24312 7.1746,10.59919 h 8.5444 l -10.2567,-14.91421 9.7601,-11.38685 h -8.3731 l -8.4246,9.98276 h -0.3938 v -18.74978 h -7.2945 z"
           id="path897"
           style="fill:#4a90d9;fill-opacity:1;fill-rule:nonzero" /></g></g><path
       style="font-weight:bold;font-size:52.9167px;line-height:1.15;font-family:'Liberation Sans';-inkscape-font-specification:'Liberation Sans Bold';letter-spacing:0.928688px;word-spacing:0px;fill-rule:evenodd;stroke-width:1.112;stroke-linecap:round;stroke-linejoin:round;stroke-miterlimit:2.1;stroke-opacity:0.357798"
       d="m 67.865249,232.85986 -8.449102,-13.82345 h -8.940028 v 13.82345 h -7.622278 v -36.40607 h 18.190115 q 6.511234,0 10.051072,2.81637 3.539838,2.79053 3.539838,8.03569 0,3.82406 -2.170412,6.61459 -2.170411,2.76469 -5.865278,3.64319 l 9.844366,15.29623 z m -0.904338,-25.24395 q 0,-5.24516 -6.71794,-5.24516 h -9.766852 v 10.7487 h 9.973557 q 3.203941,0 4.857588,-1.44694 1.653647,-1.44694 1.653647,-4.0566 z m 15.036362,25.24395 v -36.40607 h 28.628757 v 5.89112 H 89.619552 v 9.14674 H 109.0499 v 5.89111 H 89.619552 v 9.58599 H 111.6854 v 5.89111 z m 66.170217,-24.88221 q 0,3.514 -1.60197,6.27869 -1.60197,2.76469 -4.5992,4.28914 -2.9714,1.49862 -7.07968,1.49862 h -9.04338 v 12.81576 h -7.62228 v -36.40607 h 16.3556 q 6.53708,0 10.05108,3.02308 3.53983,2.99723 3.53983,8.50078 z m -7.67395,0.12919 q 0,-5.73609 -6.76962,-5.73609 h -7.88066 v 11.80807 h 8.08737 q 3.15226,0 4.85758,-1.55029 1.70533,-1.57613 1.70533,-4.52169 z m 49.34954,6.38204 q 0,5.68441 -2.24793,9.9994 -2.24793,4.31498 -6.43372,6.61458 -4.18579,2.27377 -9.76685,2.27377 -8.57829,0 -13.46172,-5.03846 -4.85759,-5.06429 -4.85759,-13.84929 0,-8.75916 4.85759,-13.66842 4.85759,-4.90927 13.5134,-4.90927 8.6558,0 13.51339,4.96094 4.88343,4.96094 4.88343,13.61675 z m -7.77731,0 q 0,-5.89112 -2.79053,-9.22425 -2.79053,-3.35897 -7.82898,-3.35897 -5.11597,0 -7.9065,3.33313 -2.79053,3.3073 -2.79053,9.25009 0,5.99447 2.8422,9.45679 2.86805,3.43649 7.80315,3.43649 5.11597,0 7.88066,-3.35897 2.79053,-3.35897 2.79053,-9.53431 z"
       id="text11"
       aria-label="REPO" /></g></svg>
