<?xml version="1.0" encoding="UTF-8" standalone="no"?>
<svg
   version="1.1"
   width="256"
   height="256"
   viewBox="0 0 256 256"
   xml:space="preserve"
   id="svg9"
   sodipodi:docname="application-x-cmd.svg"
   inkscape:version="1.3.2 (091e20ef0f, 2023-11-25)"
   xmlns:inkscape="http://www.inkscape.org/namespaces/inkscape"
   xmlns:sodipodi="http://sodipodi.sourceforge.net/DTD/sodipodi-0.dtd"
   xmlns:xlink="http://www.w3.org/1999/xlink"
   xmlns="http://www.w3.org/2000/svg"
   xmlns:svg="http://www.w3.org/2000/svg"
   xmlns:rdf="http://www.w3.org/1999/02/22-rdf-syntax-ns#"
   xmlns:cc="http://creativecommons.org/ns#"><sodipodi:namedview
   id="namedview9"
   pagecolor="#ffffff"
   bordercolor="#000000"
   borderopacity="0.25"
   inkscape:showpageshadow="2"
   inkscape:pageopacity="0.0"
   inkscape:pagecheckerboard="0"
   inkscape:deskcolor="#d1d1d1"
   inkscape:zoom="3.7666667"
   inkscape:cx="120.66372"
   inkscape:cy="133.00885"
   inkscape:current-layer="g8"
   showguides="true"><sodipodi:guide
     position="20.442478,146.61947"
     orientation="0,-1"
     id="guide18"
     inkscape:locked="false" /><sodipodi:guide
     position="85.322132,148.80762"
     orientation="1,0"
     id="guide24"
     inkscape:locked="false" /><sodipodi:guide
     position="116.34956,165.0708"
     orientation="1,0"
     id="guide44"
     inkscape:locked="false" /></sodipodi:namedview>
<desc
   id="desc1">Created with Fabric.js 5.2.4</desc>
<defs
   id="defs1"><linearGradient
   id="linearGradient57"
   inkscape:collect="always"><stop
     style="stop-color:#c68e02;stop-opacity:1;"
     offset="0"
     id="stop54" /><stop
     style="stop-color:#bc5600;stop-opacity:1;"
     offset="0.30684856"
     id="stop55" /><stop
     style="stop-color:#834514;stop-opacity:1;"
     offset="0.54880059"
     id="stop56" /><stop
     style="stop-color:#6b3c0f;stop-opacity:1;"
     offset="0.77440029"
     id="stop58" /><stop
     style="stop-color:#6b3c0f;stop-opacity:1;"
     offset="0.88720012"
     id="stop59" /><stop
     style="stop-color:#af6718;stop-opacity:1;"
     offset="1"
     id="stop57" /></linearGradient><linearGradient
   id="linearGradient52"
   inkscape:collect="always"><stop
     style="stop-color:#8cbbe7;stop-opacity:0.47609755;"
     offset="0"
     id="stop52" /><stop
     style="stop-color:#4290d8;stop-opacity:1;"
     offset="1"
     id="stop53" /></linearGradient><linearGradient
   id="linearGradient51"
   inkscape:collect="always"><stop
     style="stop-color:#6b3c0f;stop-opacity:1;"
     offset="0"
     id="stop45" /><stop
     style="stop-color:#995713;stop-opacity:1;"
     offset="0.18897572"
     id="stop46" /><stop
     style="stop-color:#c68e02;stop-opacity:1;"
     offset="0.39748141"
     id="stop47" /><stop
     style="stop-color:#c68e02;stop-opacity:1;"
     offset="0.56098765"
     id="stop48" /><stop
     style="stop-color:#bc5600;stop-opacity:1;"
     offset="0.7673263"
     id="stop49" /><stop
     style="stop-color:#834514;stop-opacity:1;"
     offset="1"
     id="stop50" /></linearGradient><linearGradient
   id="linearGradient41"
   inkscape:collect="always"><stop
     style="stop-color:#6b3c0f;stop-opacity:1;"
     offset="0"
     id="stop38" /><stop
     style="stop-color:#6b3c0f;stop-opacity:1;"
     offset="0.00842279"
     id="stop43" /><stop
     style="stop-color:#c68e02;stop-opacity:1;"
     offset="0.171976"
     id="stop44" /><stop
     style="stop-color:#c68e02;stop-opacity:1;"
     offset="0.36967388"
     id="stop42" /><stop
     style="stop-color:#bc5600;stop-opacity:1;"
     offset="0.53732508"
     id="stop39" /><stop
     style="stop-color:#834514;stop-opacity:1;"
     offset="0.72521472"
     id="stop40" /><stop
     style="stop-color:#6b3c0f;stop-opacity:1;"
     offset="1"
     id="stop41" /></linearGradient><linearGradient
   id="linearGradient34"
   inkscape:collect="always"><stop
     style="stop-color:#6b3c0f;stop-opacity:1;"
     offset="0"
     id="stop31" /><stop
     style="stop-color:#995713;stop-opacity:1;"
     offset="0.17630076"
     id="stop36" /><stop
     style="stop-color:#c68e02;stop-opacity:1;"
     offset="0.3708216"
     id="stop37" /><stop
     style="stop-color:#c68e02;stop-opacity:1;"
     offset="0.52336115"
     id="stop35" /><stop
     style="stop-color:#bc5600;stop-opacity:1;"
     offset="0.71586031"
     id="stop32" /><stop
     style="stop-color:#834514;stop-opacity:1;"
     offset="0.93292814"
     id="stop33" /><stop
     style="stop-color:#6b3c0f;stop-opacity:1;"
     offset="1"
     id="stop34" /></linearGradient><linearGradient
   id="linearGradient19"
   inkscape:collect="always"><stop
     style="stop-color:#c68e02;stop-opacity:1;"
     offset="0"
     id="stop19" /><stop
     style="stop-color:#bc5600;stop-opacity:1;"
     offset="0.30684856"
     id="stop22" /><stop
     style="stop-color:#834514;stop-opacity:1;"
     offset="0.54880059"
     id="stop23" /><stop
     style="stop-color:#6b3c0f;stop-opacity:1;"
     offset="1"
     id="stop20" /></linearGradient><linearGradient
   id="linearGradient16"
   inkscape:collect="always"><stop
     style="stop-color:#ffffff;stop-opacity:0.66536587;"
     offset="0"
     id="stop17" /><stop
     style="stop-color:#dcdcdc;stop-opacity:0.35512194;"
     offset="0.42692307"
     id="stop21" /><stop
     style="stop-color:#b18d11;stop-opacity:0;"
     offset="0.62692308"
     id="stop24" /><stop
     style="stop-color:#4e3e07;stop-opacity:1;"
     offset="1"
     id="stop18" /></linearGradient><linearGradient
   id="linearGradient12"
   inkscape:collect="always"><stop
     style="stop-color:#c9c9c9;stop-opacity:1;"
     offset="0"
     id="stop13" /><stop
     style="stop-color:#858585;stop-opacity:1;"
     offset="0.5"
     id="stop15" /><stop
     style="stop-color:#757575;stop-opacity:1;"
     offset="0.75"
     id="stop16" /><stop
     style="stop-color:#757575;stop-opacity:1;"
     offset="1"
     id="stop14" /></linearGradient><linearGradient
   id="linearGradient9"
   inkscape:collect="always"><stop
     style="stop-color:#d9d9d9;stop-opacity:1;"
     offset="0"
     id="stop9" /><stop
     style="stop-color:#9b9b9b;stop-opacity:1;"
     offset="0.46745226"
     id="stop11" /><stop
     style="stop-color:#565656;stop-opacity:1;"
     offset="0.75"
     id="stop12" /><stop
     style="stop-color:#323232;stop-opacity:1;"
     offset="1"
     id="stop10" /></linearGradient>
<linearGradient
   inkscape:collect="always"
   xlink:href="#linearGradient9"
   id="linearGradient10"
   x1="58.195511"
   y1="64.160815"
   x2="90.822887"
   y2="64.160815"
   gradientUnits="userSpaceOnUse" /><linearGradient
   inkscape:collect="always"
   xlink:href="#linearGradient12"
   id="linearGradient14"
   x1="58.195517"
   y1="34.079205"
   x2="91.000452"
   y2="34.079205"
   gradientUnits="userSpaceOnUse" /><linearGradient
   inkscape:collect="always"
   xlink:href="#linearGradient16"
   id="linearGradient18"
   x1="10.353982"
   y1="70.353981"
   x2="148.40707"
   y2="70.353981"
   gradientUnits="userSpaceOnUse" /><linearGradient
   inkscape:collect="always"
   xlink:href="#linearGradient57"
   id="linearGradient20"
   x1="14.289784"
   y1="84.370761"
   x2="38.272877"
   y2="84.370758"
   gradientUnits="userSpaceOnUse" /><linearGradient
   inkscape:collect="always"
   xlink:href="#linearGradient19"
   id="linearGradient23"
   gradientUnits="userSpaceOnUse"
   x1="14.289784"
   y1="84.370761"
   x2="37.615829"
   y2="84.370761"
   gradientTransform="translate(12.202285,28.534574)" /><linearGradient
   inkscape:collect="always"
   xlink:href="#linearGradient41"
   id="linearGradient24"
   gradientUnits="userSpaceOnUse"
   gradientTransform="translate(49.370426,39.618645)"
   x1="14.289784"
   y1="84.370761"
   x2="37.615829"
   y2="84.370761" /><linearGradient
   inkscape:collect="always"
   xlink:href="#linearGradient34"
   id="linearGradient26"
   gradientUnits="userSpaceOnUse"
   gradientTransform="translate(80.90864,30.795454)"
   x1="14.555271"
   y1="87.556602"
   x2="42.527332"
   y2="84.238014" /><linearGradient
   inkscape:collect="always"
   xlink:href="#linearGradient34"
   id="linearGradient44"
   gradientUnits="userSpaceOnUse"
   gradientTransform="translate(108.9739,15.495666)"
   x1="18.044334"
   y1="83.056664"
   x2="29.761866"
   y2="83.299377" /><linearGradient
   inkscape:collect="always"
   xlink:href="#linearGradient51"
   id="linearGradient45"
   gradientUnits="userSpaceOnUse"
   gradientTransform="translate(109.72481,-14.916183)"
   x1="6.1236405"
   y1="82.305756"
   x2="15.741734"
   y2="81.919212" /><linearGradient
   inkscape:collect="always"
   xlink:href="#linearGradient52"
   id="linearGradient53"
   x1="15.254515"
   y1="100.95414"
   x2="154.41865"
   y2="100.95414"
   gradientUnits="userSpaceOnUse" /></defs>


<g
   transform="matrix(1.0413538,0,0,0.93185834,128.8394,124.06123)"
   id="g9">
<g
   vector-effect="non-scaling-stroke"
   id="g8">
		<g
   transform="scale(1,0.88)"
   id="rect5946">
<linearGradient
   id="SVGID_linearGradient2830_3"
   gradientUnits="userSpaceOnUse"
   gradientTransform="matrix(1.92,0,0,1.92,-3.12,4)"
   x1="120"
   y1="118"
   x2="4"
   y2="16">
<stop
   offset="0%"
   style="stop-color:rgb(223,223,236);stop-opacity: 1"
   id="stop1" />
<stop
   offset="100%"
   style="stop-color:rgb(255,255,255);stop-opacity: 1"
   id="stop2" />
</linearGradient>
<path
   style="opacity:1;fill:url(#SVGID_linearGradient2830_3);fill-rule:nonzero;stroke:none;stroke-width:7.67607;stroke-linecap:butt;stroke-linejoin:miter;stroke-miterlimit:4;stroke-dasharray:none;stroke-dashoffset:0"
   vector-effect="non-scaling-stroke"
   transform="translate(-127.53,-126.67)"
   d="M 8.4108041,11.663854 12.253297,7.8302658 H 242.80286 l 3.8425,3.8335882 V 245.51278 H 8.4108041 Z"
   stroke-linecap="round"
   id="path2" />
</g>
		<g
   transform="matrix(1,0,0,0.88,0,-90.73)"
   id="rect2836">
<linearGradient
   id="SVGID_linearGradient3603_4"
   gradientUnits="userSpaceOnUse"
   gradientTransform="matrix(1.92,0,0,1.92,4.57,4)"
   x1="4"
   y1="113"
   x2="120"
   y2="113">
<stop
   offset="0%"
   style="stop-color:rgb(138,206,255);stop-opacity: 1"
   id="stop3" />
<stop
   offset="100%"
   style="stop-color:rgb(4,73,255);stop-opacity: 1"
   id="stop4" />
</linearGradient>
<path
   style="opacity:1;fill:url(#SVGID_linearGradient3603_4);fill-rule:nonzero;stroke:none;stroke-width:7.67607;stroke-linecap:butt;stroke-linejoin:miter;stroke-miterlimit:4;stroke-dasharray:none;stroke-dashoffset:0"
   vector-effect="non-scaling-stroke"
   transform="translate(-127.53,-23.16)"
   d="m 8.4108041,16.196359 c 0,-4.31992 6.1652809,-8.3660932 7.7941219,-8.3660932 72.403061,0 226.597934,0 226.597934,0 l 3.8425,3.8335882 V 50.403131 H 8.4108041 c 0,0 0,-23.863611 0,-34.206772 z"
   stroke-linecap="round"
   id="path4"
   sodipodi:nodetypes="ssccccs" />
</g>
		<g
   transform="scale(1,0.88)"
   id="path4363">
<linearGradient
   id="SVGID_linearGradient6659_5"
   gradientUnits="userSpaceOnUse"
   gradientTransform="matrix(1.92,0,0,1.92,4.57,4)"
   x1="4"
   y1="68"
   x2="124"
   y2="68">
<stop
   offset="0%"
   style="stop-color:rgb(200,199,212);stop-opacity: 0"
   id="stop5" />
<stop
   offset="100%"
   style="stop-color:rgb(0,5,41);stop-opacity: 0.17254902"
   id="stop6" />
</linearGradient>
<path
   style="opacity:1;fill:url(#SVGID_linearGradient6659_5);fill-rule:evenodd;stroke:none;stroke-width:0.639673;stroke-linecap:butt;stroke-linejoin:miter;stroke-miterlimit:4;stroke-dasharray:none;stroke-dashoffset:0"
   vector-effect="non-scaling-stroke"
   transform="translate(-127.53,-126.67)"
   d="M 8.4108041,234.01201 H 235.11788 V 7.8302658 h 7.68498 l 3.8425,3.8335882 V 245.51278 H 8.4108041 Z"
   stroke-linecap="round"
   id="path6" />
</g><path
   style="color:#000000;vector-effect:non-scaling-stroke;fill:url(#SVGID_linearGradient2064_6);fill-rule:evenodd;-inkscape-stroke:none"
   d="m 19.9375,3.9921875 c -4.480679,0 -8.528545,1.1757211 -11.3554687,3.9960937 C 5.7551077,10.808654 4.5722656,14.855335 4.5722656,19.330078 V 249.35156 H 250.48242 V 19.330078 c 0,-4.474744 -1.18089,-8.521425 -4.00781,-11.3417968 -2.82692,-2.8203718 -6.87675,-3.9960937 -11.35742,-3.9960937 z m 0,7.6757815 h 215.17969 c 3.20429,0 4.91998,0.740693 5.93554,1.753906 1.01557,1.013213 1.75391,2.715777 1.75391,5.908203 V 241.67383 H 12.248047 V 19.330078 c 0,-3.192427 0.740294,-4.894991 1.755859,-5.908203 1.015566,-1.013212 2.729294,-1.753906 5.933594,-1.753906 z"
   id="path8"
   transform="matrix(1,0,0,0.88,-127.53,-111.4696)" />
		<g
   transform="scale(1,0.88)"
   id="path1364">
<linearGradient
   id="SVGID_linearGradient2064_6"
   gradientUnits="userSpaceOnUse"
   gradientTransform="matrix(1.92,0,0,1.92,4.57,4)"
   x1="0"
   y1="8"
   x2="128"
   y2="136">
<stop
   offset="0%"
   style="stop-color:rgb(57,149,229);stop-opacity: 1"
   id="stop7" />
<stop
   offset="100%"
   style="stop-color:rgb(0,51,164);stop-opacity: 1"
   id="stop8" />
</linearGradient>
<g
   id="g5"
   transform="matrix(0.96028842,0,0,1.2194596,-123.72298,-151.28766)"><path
     id="rect1"
     style="fill:#c0c0c0;fill-rule:evenodd;stroke-width:2.24126;stroke-linecap:round;stroke-linejoin:round;stroke-miterlimit:2.1"
     d="M 10.888193,27.408209 H 246.67388 c 4.21452,3.981803 6.67786,1.307555 0,8.260008 H 12.765465 l -0.04693,17.458655 233.486035,1.689547 -0.0939,8.635463 L 12.483885,63.076427 12.390025,221.89386 H 5.25638 L 4.8809142,42.801861 C 5.2161776,36.617699 4.1527056,29.550124 10.888193,27.408209 Z"
     sodipodi:nodetypes="cccccccccccc" /><g
     id="g4"><rect
       style="fill:#111111;fill-opacity:1;fill-rule:evenodd;stroke-width:2.68184;stroke-linecap:round;stroke-linejoin:round;stroke-miterlimit:2.1"
       id="rect2"
       width="12.579267"
       height="12.579267"
       x="198.25711"
       y="42.107147" /><rect
       style="fill:#111111;fill-opacity:1;fill-rule:evenodd;stroke-width:2.68184;stroke-linecap:round;stroke-linejoin:round;stroke-miterlimit:2.1"
       id="rect3"
       width="12.579267"
       height="12.579267"
       x="216.27084"
       y="42.107147" /><rect
       style="fill:#111111;fill-opacity:1;fill-rule:evenodd;stroke-width:2.68184;stroke-linecap:round;stroke-linejoin:round;stroke-miterlimit:2.1"
       id="rect4"
       width="12.579267"
       height="12.579267"
       x="232.93675"
       y="42.107147" /><rect
       style="fill:#b5b5b5;fill-opacity:1;fill-rule:evenodd;stroke-width:2.24126;stroke-linecap:round;stroke-linejoin:round;stroke-miterlimit:2.1"
       id="rect5"
       width="10.512738"
       height="10.512738"
       x="194.8611"
       y="40.173676" /><rect
       style="fill:#b5b5b5;fill-opacity:1;fill-rule:evenodd;stroke-width:2.24126;stroke-linecap:round;stroke-linejoin:round;stroke-miterlimit:2.1"
       id="rect6"
       width="10.512738"
       height="10.512738"
       x="213.25839"
       y="40.173676" /><rect
       style="fill:#b5b5b5;fill-opacity:1;fill-rule:evenodd;stroke-width:2.24126;stroke-linecap:round;stroke-linejoin:round;stroke-miterlimit:2.1"
       id="rect7"
       width="10.512738"
       height="10.512738"
       x="230.52931"
       y="40.173676" /></g><path
     id="rect8"
     style="fill:#757575;fill-rule:evenodd;stroke-width:2.24126;stroke-linecap:round;stroke-linejoin:round;stroke-miterlimit:2.1;fill-opacity:1"
     d="m 11.639103,62.325516 231.655687,0 v 8.353872 L 18.021837,70.397797 V 221.89386 h -6.382734 z"
     sodipodi:nodetypes="ccccccc" /></g>
</g>
</g>
</g>
<metadata
   id="metadata9"><rdf:RDF><cc:License
       rdf:about="http://creativecommons.org/publicdomain/zero/1.0/"><cc:permits
         rdf:resource="http://creativecommons.org/ns#Reproduction" /><cc:permits
         rdf:resource="http://creativecommons.org/ns#Distribution" /><cc:permits
         rdf:resource="http://creativecommons.org/ns#DerivativeWorks" /></cc:License><cc:Work
       rdf:about=""><cc:license
         rdf:resource="http://creativecommons.org/publicdomain/zero/1.0/" /></cc:Work></rdf:RDF></metadata><g
   id="g53"
   transform="translate(45.307684,54.854154)"><path
     id="path51"
     style="fill:url(#linearGradient53);fill-opacity:1;fill-rule:evenodd;stroke-width:2.45198;stroke-linecap:round;stroke-linejoin:round;stroke-miterlimit:2.1"
     d="M 50.066073,54.652533 C 40.597668,54.57189 30.356162,60.265819 38.207575,69.684512 l 5.718092,8.119409 -4.512855,7.540871 -12.986014,0.0361 C 8.9291239,84.759648 14.485747,106.9616 26.044098,106.84828 l 14.192165,1.19133 3.670054,6.67657 -9.788961,6.92715 c -13.27345,9.13859 5.310904,23.0982 18.42982,13.17051 l 6.804282,-5.1057 10.602136,2.10932 0.666501,7.88489 c -0.19055,9.91561 22.199831,10.03692 23.041576,0.5585 l -0.135945,-9.14631 11.698834,-0.77555 c 0,0 3.88545,3.97625 5.92662,5.86399 12.1002,11.19066 33.20482,0.85906 19.82808,-13.87373 l -6.34896,-8.282 2.71331,-7.70227 12.71342,0.70292 c 17.14883,0 21.04974,-23.724239 -1e-5,-23.724239 l -12.12861,-0.505941 -3.0686,-1.587657 5.68407,-13.69031 c 3.95567,-8.758755 -13.1476,-15.505175 -19.85848,-9.977901 l -11.194132,7.529759 0.420459,4.676641 c -0.06128,12.572239 -0.19135,32.876898 -0.19135,34.618788 10e-7,4.37027 -8.123956,7.9125 -18.14602,7.9125 -10.022065,0 -18.14602,-3.54223 -18.146019,-7.9125 0,-1.89785 0.07897,-25.169578 0.263699,-38.821374 l -2.981302,-6.7063 c -3.085606,-2.90693 -6.939634,-4.175279 -10.644662,-4.206833 z"
     sodipodi:nodetypes="scccccccccccccccscccccccccccsssccs"
     inkscape:label="gearlidshadow" /><g
     id="g18"><g
       id="g16"
       style="display:inline"><ellipse
         style="fill:url(#linearGradient14);fill-opacity:1;fill-rule:evenodd;stroke-width:2.24126;stroke-linecap:round;stroke-linejoin:round;stroke-miterlimit:2.1"
         id="path9"
         cx="74.597984"
         cy="34.079205"
         rx="16.402468"
         ry="10.137283" /><path
         id="rect9"
         style="fill:url(#linearGradient10);fill-rule:evenodd;stroke-width:2.24126;stroke-linecap:round;stroke-linejoin:round;stroke-miterlimit:2.1"
         d="m 58.195515,34.803434 c 0,0 0.458171,8.496522 16.707744,8.749339 15.753625,0.245101 15.911285,-10.221239 15.911285,-10.221239 v 51.437324 c 0,0 0.897025,10.221239 -15.911285,10.221239 -16.773002,0 -16.707744,-8.749339 -16.707744,-8.749339 z"
         sodipodi:nodetypes="csccscc" /></g><path
       id="path19"
       style="fill:url(#linearGradient20);fill-opacity:1;fill-rule:evenodd;stroke-width:3.7287;stroke-linecap:round;stroke-linejoin:round;stroke-miterlimit:2.1"
       d="m 12.433332,67.395024 c 2.562283,5.991226 4.619385,14.829522 25.182497,13.609294 l 3.48101,8.65662 -4.215816,5.840707 -15.653039,0.229942 c -1.814875,-0.07293 -8.796607,-3.491403 -8.796607,-6.839045 z"
       sodipodi:nodetypes="ccccccc" /><path
       id="rect18"
       style="fill:#ae5d1a;fill-opacity:1;fill-rule:evenodd;stroke-width:2.24126;stroke-linecap:round;stroke-linejoin:round;stroke-miterlimit:2.1"
       d="m 32.531557,39.573625 c 0.128799,4.911793 7.910542,11.328423 11.539238,16.975047 l -3.716814,9.292034 -8.230088,-0.530973 z"
       sodipodi:nodetypes="ccccc" /><path
       id="path23"
       style="fill:url(#linearGradient23);fill-opacity:1;fill-rule:evenodd;stroke-width:3.7287;stroke-linecap:round;stroke-linejoin:round;stroke-miterlimit:2.1"
       d="m 27.15774,99.380925 c 1.281141,2.995615 -0.550737,4.778215 4.248018,7.916025 1.459751,0.9545 3.477925,1.93566 6.453225,2.05354 6.799908,0.26942 11.600686,-3.90756 16.276863,-7.73032 l 9.971165,1.85646 0.429057,16.19078 -10.40494,-1.86036 -9.608204,8.02834 c 0,0 -4.534489,2.42902 -7.016135,2.499 -2.771041,0.0781 -5.669329,-0.81165 -7.979108,-2.34452 -1.681854,-1.11615 -3.224595,-2.80345 -3.830119,-4.69042 z"
       sodipodi:nodetypes="csscccccaacc" /><path
       id="path24"
       style="fill:url(#linearGradient24);fill-opacity:1;fill-rule:evenodd;stroke-width:3.7287;stroke-linecap:round;stroke-linejoin:round;stroke-miterlimit:2.1"
       d="m 64.325881,110.46499 c 1.281141,2.99562 -0.550737,3.25167 4.248018,6.38948 1.459751,0.9545 4.945381,1.32006 7.4488,1.12434 2.096005,-0.16387 4.335196,-0.63423 6.014477,-1.89918 1.650748,-1.24346 3.426103,-2.95044 3.426103,-5.16743 -0.0011,-2.56708 -0.40383,-6.19628 -0.44919,-8.76301 l 10.739632,-0.0413 0.0309,13.48327 -10.145264,0.0447 -0.10039,3.67224 c 0,0 -0.02347,5.49929 -0.02347,8.15037 0,3.55876 0.677776,7.02633 -2.430629,9.59377 0,0 -4.162108,2.08292 -6.418789,2.16714 -2.999479,0.11195 -6.22879,-0.56599 -8.722539,-2.2365 -1.675505,-1.12239 -3.014092,-2.96092 -3.619616,-4.84789 z"
       sodipodi:nodetypes="csaascccccscaacc" /><path
       id="path26"
       style="fill:url(#linearGradient26);fill-opacity:1;fill-rule:evenodd;stroke-width:3.7287;stroke-linecap:round;stroke-linejoin:round;stroke-miterlimit:2.1"
       d="m 94.934891,101.97366 c 4.008478,-0.85394 7.148379,1.526 11.947129,4.66381 1.45975,0.9545 3.9184,3.97085 6.50016,4.45432 2.06384,0.38648 4.43211,-0.20745 6.1325,-1.4393 2.00876,-1.45525 3.87322,-4.14746 3.87322,-6.35406 l 0.20936,11.82646 c 0,0 0.043,4.3452 0.043,6.98386 0,3.54209 -1.78301,3.93149 -3.54254,4.93221 -2.61532,1.48744 -6.07534,1.51437 -8.99257,0.77806 -3.00526,-0.75853 -5.53306,-2.82491 -7.77389,-5.10188 -2.95458,-3.00223 -6.154952,-5.90175 -7.933773,-7.41327 z"
       sodipodi:nodetypes="csaaccsaascc" /><path
       id="path44"
       style="fill:url(#linearGradient44);fill-opacity:1;fill-rule:evenodd;stroke-width:3.7287;stroke-linecap:round;stroke-linejoin:round;stroke-miterlimit:2.1"
       d="m 112.71206,86.756348 c 1.15564,-1.285186 2.32119,-4.452521 3.26013,-6.269477 2.58611,-0.735047 10.47648,-1.830538 15.31566,-2.491345 3.36093,-0.458946 5.61446,-3.401687 7.23333,-6.111424 1.2097,-2.024867 1.41265,-4.627281 1.45969,-6.923914 -0.12932,8.463237 -0.0253,11.591801 -0.0253,11.591801 0,0 0.0705,5.52045 0.0705,8.15911 0,3.54209 -0.0813,5.527723 -0.45724,8.145551 -1.48896,2.964177 -4.08629,5.963884 -7.63764,6.379384 -5.55317,0.64971 -11.82766,0.647829 -15.97732,-3.923883 -0.75401,0.796126 -1.73047,2.303625 -3.04469,3.911577 z"
       sodipodi:nodetypes="ccsaccscsccc" /><path
       id="path45"
       style="fill:url(#linearGradient45);fill-opacity:1;fill-rule:evenodd;stroke-width:3.7287;stroke-linecap:round;stroke-linejoin:round;stroke-miterlimit:2.1"
       d="m 106.44758,58.109042 c 1.15564,-1.285186 2.57334,-8.622549 6.9636,-9.643045 1.08429,-3.644823 5.95216,-3.96272 5.25338,-6.782393 l 0.68889,19.0683 c -0.95385,0.555847 -1.59651,3.18215 -2.64867,4.148398 -0.75401,0.796126 -1.73047,2.303625 -3.04469,3.911577 z"
       sodipodi:nodetypes="ccccccc" /><path
       id="path18"
       style="fill:#f4d05b;fill-opacity:1;fill-rule:evenodd;stroke-width:2.24126;stroke-linecap:round;stroke-linejoin:round;stroke-miterlimit:2.1"
       d="M 45.816406,32.634766 C 37.21503,32.560599 27.911346,37.79746 35.043799,46.46009 l 7.318376,8.795078 -1.710229,5.8736 -17.106609,-0.76326 C 8.7118844,58.466701 6.8570293,78.620957 23.994141,80.640625 l 12.892578,1.095703 3.333984,6.140625 -8.892578,6.371094 c -12.057991,8.405013 4.82458,21.244043 16.742187,12.113283 l 6.181209,-4.69586 9.631291,1.94 0.605469,7.25195 c -0.173102,9.11966 20.166976,9.23123 20.931641,0.51367 l -0.123496,-8.41211 9.698353,-0.44781 c 0,0 8.134031,4.355 10.229051,5.7915 12.78422,8.76581 25.71733,-1.9975 14.09648,-13.423764 l -5.76758,-7.617187 2.46485,-7.083985 12.30015,-1.043062 c 15.5785,0 16.11856,-22.476875 -0.84478,-20.787328 l -15.84506,2.567757 -3.44465,-2.774303 9.9451,-13.387814 c 3.59344,-8.055668 -11.94367,-14.260536 -18.04003,-9.17695 l -9.184884,9.100296 0.19423,1.860779 c -0.05567,11.563033 -0.173828,30.237794 -0.173828,31.839844 10e-7,4.019467 -7.380039,7.277344 -16.484375,7.277344 -9.104337,0 -16.484376,-3.257876 -16.484375,-7.277344 0,-1.745498 0.07174,-27.560741 0.239552,-40.116673 l -2.708302,-1.756374 c -2.803055,-2.673583 -6.304166,-3.840119 -9.669922,-3.86914 z"
       sodipodi:nodetypes="scccccccccccccccscccccccccccsssccs"
       inkscape:label="gerlid" /></g><path
     id="path1"
     style="fill:url(#linearGradient18);fill-rule:evenodd;stroke-width:2.24126;stroke-linecap:round;stroke-linejoin:round;stroke-miterlimit:2.1"
     d="M 45.816406,32.634766 C 37.21503,32.560599 27.911346,37.79746 35.043799,46.46009 l 7.318376,8.795078 -1.710229,5.8736 -17.106609,-1.028747 C 7.6499375,58.201214 8.4499497,79.682904 23.994141,80.640625 l 12.892578,1.095703 3.333984,6.140625 -8.892578,6.371094 c -12.057991,8.405013 4.82458,21.244043 16.742187,12.113283 l 6.181209,-4.69586 9.631291,1.94 0.605469,7.25195 c -0.173102,9.11966 20.166976,9.23123 20.931641,0.51367 l -0.123496,-8.41211 9.831097,-0.64693 c 0,0 8.541137,5.23914 10.693657,6.58797 12.71784,7.96935 25.11998,-2.59485 13.49913,-14.021114 l -5.76758,-7.617187 2.46485,-7.083985 12.30015,-1.043062 c 15.5785,0 16.11856,-22.476875 -0.84478,-20.787328 l -15.84506,2.567757 -3.44465,-2.774303 9.9451,-13.387814 c 3.59344,-8.055668 -11.94367,-14.260536 -18.04003,-9.17695 l -9.184884,9.100296 0.19423,1.860779 c -0.05567,11.563033 -0.173828,30.237794 -0.173828,31.839844 10e-7,4.019467 -7.380039,7.277344 -16.484375,7.277344 -9.104337,0 -16.484376,-3.257876 -16.484375,-7.277344 0,-1.745498 0.07174,-27.560741 0.239552,-40.116673 l -2.708302,-1.756374 c -2.803055,-2.673583 -6.304166,-3.840119 -9.669922,-3.86914 z"
     sodipodi:nodetypes="scccccccccccccccscccccccccccsssccs"
     inkscape:label="gerlidwhiteshadow" /></g></svg>
