<?xml version="1.0" encoding="UTF-8" standalone="no"?>
<!-- Created with Inkscape (http://www.inkscape.org/) -->

<svg
   width="256mm"
   height="256mm"
   viewBox="0 0 256 256"
   version="1.1"
   id="svg1"
   inkscape:version="1.3.2 (091e20ef0f, 2023-11-25)"
   sodipodi:docname="application-x-chm.svg"
   xml:space="preserve"
   xmlns:inkscape="http://www.inkscape.org/namespaces/inkscape"
   xmlns:sodipodi="http://sodipodi.sourceforge.net/DTD/sodipodi-0.dtd"
   xmlns:xlink="http://www.w3.org/1999/xlink"
   xmlns="http://www.w3.org/2000/svg"
   xmlns:svg="http://www.w3.org/2000/svg"
   xmlns:rdf="http://www.w3.org/1999/02/22-rdf-syntax-ns#"
   xmlns:cc="http://creativecommons.org/ns#"><sodipodi:namedview
     id="namedview1"
     pagecolor="#ffffff"
     bordercolor="#000000"
     borderopacity="0.25"
     inkscape:showpageshadow="2"
     inkscape:pageopacity="0.0"
     inkscape:pagecheckerboard="0"
     inkscape:deskcolor="#d1d1d1"
     inkscape:document-units="mm"
     inkscape:zoom="0.78741022"
     inkscape:cx="549.26897"
     inkscape:cy="527.04421"
     inkscape:current-layer="g15" /><defs
     id="defs1"><linearGradient
       id="linearGradient398"
       gradientUnits="userSpaceOnUse"
       x1="54.349602"
       y1="43.6245"
       x2="240.2121"
       y2="328.12881"
       spreadMethod="pad">
			<stop
   offset="0"
   style="stop-color:#FFFFFF"
   id="stop397" />
			<stop
   offset="1"
   style="stop-color:#808080;stop-opacity:1;"
   id="stop398" />
		</linearGradient><linearGradient
       id="linearGradient386"
       gradientUnits="userSpaceOnUse"
       x1="81.009804"
       y1="52.612801"
       x2="147.9156"
       y2="-19.6299"
       spreadMethod="pad">
			<stop
   offset="0"
   style="stop-color:#fcfcfc;stop-opacity:1;"
   id="stop385" />
			<stop
   offset="1"
   style="stop-color:#000000"
   id="stop386" />
		</linearGradient><linearGradient
       id="linearGradient364"
       gradientUnits="userSpaceOnUse"
       x1="108.9707"
       y1="22.1313"
       x2="113.887"
       y2="17.215099"
       spreadMethod="pad">
			<stop
   offset="0"
   style="stop-color:#FFFFFF"
   id="stop362" />
			<stop
   offset="0.3976658"
   style="stop-color:#898989"
   id="stop363" />
			<stop
   offset="1"
   style="stop-color:#000000"
   id="stop364" />
		</linearGradient><linearGradient
       id="aigrd1"
       gradientUnits="userSpaceOnUse"
       x1="50.8936"
       y1="166.6958"
       x2="123.6106"
       y2="53.465199">
			<stop
   offset="0"
   style="stop-color:#FFFFFF"
   id="stop3-9" />
			<stop
   offset="1"
   style="stop-color:#8C8C8C"
   id="stop4-2" />
		</linearGradient><linearGradient
       id="aigrd2"
       gradientUnits="userSpaceOnUse"
       x1="114.9795"
       y1="16.8501"
       x2="90.170303"
       y2="38.863499">
			<stop
   offset="0"
   style="stop-color:#000000"
   id="stop5-8" />
			<stop
   offset="0.2872"
   style="stop-color:#FFFFFF"
   id="stop6-8" />
			<stop
   offset="0.4468"
   style="stop-color:#FFFFFF"
   id="stop7-8" />
			<stop
   offset="0.4893"
   style="stop-color:#DDDDDD"
   id="stop8-6" />
			<stop
   offset="0.5678"
   style="stop-color:#A3A3A3"
   id="stop9-8" />
			<stop
   offset="0.6465"
   style="stop-color:#717171"
   id="stop10-3" />
			<stop
   offset="0.7234"
   style="stop-color:#484848"
   id="stop11-8" />
			<stop
   offset="0.7983"
   style="stop-color:#292929"
   id="stop12-3" />
			<stop
   offset="0.8706"
   style="stop-color:#121212"
   id="stop13-3" />
			<stop
   offset="0.9392"
   style="stop-color:#050505"
   id="stop14-3" />
			<stop
   offset="1"
   style="stop-color:#000000"
   id="stop15-8" />
		</linearGradient><linearGradient
       inkscape:collect="always"
       xlink:href="#aigrd3"
       id="linearGradient57"
       gradientUnits="userSpaceOnUse"
       x1="-9.5752001"
       y1="-40.622601"
       x2="111.4338"
       y2="127.9071" /><linearGradient
       id="aigrd3"
       gradientUnits="userSpaceOnUse"
       x1="-9.5752001"
       y1="-40.622601"
       x2="111.4338"
       y2="127.9071">
			<stop
   offset="0"
   style="stop-color:#FFFFFF"
   id="stop16-0" />
			<stop
   offset="1"
   style="stop-color:#000000"
   id="stop17-4" />
		</linearGradient><linearGradient
       id="aigrd5"
       gradientUnits="userSpaceOnUse"
       x1="-11.9863"
       y1="-32.7383"
       x2="159.9639"
       y2="185.96539">
			<stop
   offset="0"
   style="stop-color:#FFFFFF"
   id="stop18-9" />
			<stop
   offset="1"
   style="stop-color:#000000"
   id="stop19-0" />
		</linearGradient><linearGradient
       id="aigrd6"
       gradientUnits="userSpaceOnUse"
       x1="54.349602"
       y1="43.6245"
       x2="240.2121"
       y2="328.12881"
       xlink:href="#linearGradient398"
       gradientTransform="translate(3.2690505,2.9058226)">
			<stop
   offset="0"
   style="stop-color:#FFFFFF"
   id="stop20-6" />
			<stop
   offset="1"
   style="stop-color:#000000"
   id="stop21-8" />
		</linearGradient><linearGradient
       id="aigrd7"
       gradientUnits="userSpaceOnUse"
       x1="-21.0117"
       y1="-56.939899"
       x2="129.0739"
       y2="151.3105">
			<stop
   offset="0"
   style="stop-color:#FFFFFF"
   id="stop22-7" />
			<stop
   offset="1"
   style="stop-color:#000000"
   id="stop23-9" />
		</linearGradient><linearGradient
       id="aigrd8"
       gradientUnits="userSpaceOnUse"
       x1="164.51559"
       y1="191.96629"
       x2="101.1341"
       y2="1.1619999">
			<stop
   offset="0"
   style="stop-color:#FFFFFF"
   id="stop24-0" />
			<stop
   offset="1"
   style="stop-color:#000000"
   id="stop25-3" />
		</linearGradient><linearGradient
       id="aigrd9"
       gradientUnits="userSpaceOnUse"
       x1="140.9277"
       y1="109.0835"
       x2="114.0488"
       y2="28.167">
			<stop
   offset="0"
   style="stop-color:#FFFFFF"
   id="stop26-3" />
			<stop
   offset="1"
   style="stop-color:#000000"
   id="stop27-3" />
		</linearGradient><linearGradient
       id="aigrd10"
       gradientUnits="userSpaceOnUse"
       x1="108.9707"
       y1="22.1313"
       x2="113.887"
       y2="17.215099"
       xlink:href="#linearGradient364">
			<stop
   offset="0"
   style="stop-color:#FFFFFF"
   id="stop28-7" />
			<stop
   offset="0.4715"
   style="stop-color:#898989"
   id="stop29-3" />
			<stop
   offset="1"
   style="stop-color:#000000"
   id="stop30-2" />
		</linearGradient><linearGradient
       id="aigrd11"
       gradientUnits="userSpaceOnUse"
       x1="81.009804"
       y1="52.612801"
       x2="147.9156"
       y2="-19.6299"
       xlink:href="#linearGradient386">
			<stop
   offset="0"
   style="stop-color:#FFFFFF"
   id="stop31-6" />
			<stop
   offset="1"
   style="stop-color:#000000"
   id="stop32-5" />
		</linearGradient><linearGradient
       inkscape:collect="always"
       xlink:href="#aigrd3"
       id="linearGradient85"
       gradientUnits="userSpaceOnUse"
       x1="-9.5752001"
       y1="-40.622601"
       x2="111.4338"
       y2="127.9071" /><linearGradient
       inkscape:collect="always"
       xlink:href="#linearGradient3"
       id="linearGradient4"
       x1="84.153725"
       y1="220.98613"
       x2="166.53329"
       y2="220.98613"
       gradientUnits="userSpaceOnUse" /><linearGradient
       id="linearGradient3"
       inkscape:collect="always"><stop
         style="stop-color:#ffee5a;stop-opacity:0.68463302;"
         offset="0"
         id="stop3" /><stop
         style="stop-color:#777700;stop-opacity:0.73762375;"
         offset="1"
         id="stop4" /></linearGradient><linearGradient
       inkscape:collect="always"
       xlink:href="#linearGradient1"
       id="linearGradient2"
       x1="83.157722"
       y1="205.75311"
       x2="166.91144"
       y2="205.75311"
       gradientUnits="userSpaceOnUse" /><linearGradient
       id="linearGradient1"
       inkscape:collect="always"><stop
         style="stop-color:#857800;stop-opacity:0.68463302;"
         offset="0"
         id="stop1" /><stop
         style="stop-color:#393800;stop-opacity:0.62623763;"
         offset="1"
         id="stop2" /></linearGradient><linearGradient
       inkscape:collect="always"
       xlink:href="#linearGradient12"
       id="linearGradient13"
       x1="195.82674"
       y1="51.843925"
       x2="202.46049"
       y2="67.151962"
       gradientUnits="userSpaceOnUse" /><linearGradient
       id="linearGradient12"
       inkscape:collect="always"><stop
         style="stop-color:#383838;stop-opacity:0.55445546;"
         offset="0"
         id="stop12-6" /><stop
         style="stop-color:#383838;stop-opacity:0;"
         offset="1"
         id="stop13-0" /></linearGradient><linearGradient
       inkscape:collect="always"
       xlink:href="#linearGradient14"
       id="linearGradient15"
       x1="207.78288"
       y1="67.284424"
       x2="188.4969"
       y2="22.494244"
       gradientUnits="userSpaceOnUse" /><linearGradient
       id="linearGradient14"
       inkscape:collect="always"><stop
         style="stop-color:#383838;stop-opacity:0.71287131;"
         offset="0"
         id="stop14-09" /><stop
         style="stop-color:#383838;stop-opacity:0.54702967;"
         offset="1"
         id="stop15-3" /></linearGradient></defs><g
     id="g54"
     style="clip-rule:nonzero;display:inline;fill:#000000;fill-rule:nonzero;stroke:#ffffff;stroke-width:0;stroke-miterlimit:4"
     inkscape:label="Gray Letter"
     transform="matrix(1.4066243,0,0,1.2700166,-12.716211,79.993528)"><path
       style="display:none;opacity:0.15;fill:#000000;stroke:none"
       d="m 137.525,40.665 -0.104,-0.275 c -0.049,-0.152 -0.11,-0.316 -0.194,-0.501 -0.212,-0.52 -0.472,-1.007 -0.797,-1.462 C 133.456,33.559 125.261,23.921 122.351,21.05 116.353,15.133 105.404,8.003 101.287,6.404 101.262,6.392 101.236,6.378 101.211,6.366 l -0.635,-0.293 h -0.548 -0.153 c -4.105,0 -63.664,0 -63.664,0 v 137.109 h 101.314 c 0,0 0,-99.767 0,-102.288 0,-0.064 -0.012,-0.143 -0.027,-0.223 0.014,-0.003 0.027,-0.006 0.027,-0.006 z"
       id="path2" /><path
       style="display:inline;fill:#ffffff;stroke:none"
       d="m 132.286,35.495 -0.103,-0.275 c -0.049,-0.152 -0.111,-0.316 -0.195,-0.501 -0.213,-0.52 -0.472,-1.007 -0.797,-1.462 C 128.217,28.39 120.021,18.751 117.112,15.88 111.115,9.963 100.164,2.834 96.049,1.234 96.023,1.222 95.998,1.208 95.971,1.196 L 95.337,0.902 h -0.548 -0.153 c -4.104,0 -63.665,0 -63.665,0 v 137.11 h 101.315 c 0,0 0,-99.768 0,-102.288 0,-0.065 -0.013,-0.144 -0.028,-0.224 0.016,-0.003 0.028,-0.006 0.028,-0.006 z"
       id="path3" /><path
       style="display:inline;opacity:0.2;fill:url(#aigrd1);stroke:none"
       d="m 80.369,69.414 c -19.646,4.394 -41.016,31.927 -41.016,44.458 0,0 0,8.855 0,15.869 8.81,0 75.74,0 84.549,0 0,-9.088 0,-95.466 0,-99.098 -0.498,-0.172 -4.514,-0.291 -5.809,-0.518 -2.99,19.761 -18.076,34.895 -37.725,39.288 z"
       id="path4" /><path
       style="display:inline;fill:url(#aigrd2);stroke:none"
       d="m 94.636,4.003 c 1.913,0.885 4.661,3.907 4.661,27.124 25.887,0 28.861,2.291 29.846,4.921 0,0.062 3.144,-0.554 3.144,-0.554 l -0.194,-0.52 C 130.372,30.371 125.514,28.216 102.421,28.041 102.206,8.113 99.874,3.001 95.972,1.194 L 95.338,0.9 h -0.701 c 0,0 -0.09,3.102 0,3.102 z"
       id="path15" /><path
       style="display:inline;fill:url(#linearGradient85);stroke:none"
       d="m 132.286,35.495 -0.103,-0.275 c -0.049,-0.152 -0.111,-0.316 -0.195,-0.501 -0.213,-0.52 -0.472,-1.007 -0.797,-1.462 C 128.217,28.39 120.021,18.751 117.112,15.88 111.115,9.963 100.164,2.834 96.049,1.234 96.023,1.222 95.998,1.208 95.971,1.196 L 95.337,0.902 h -0.548 -0.153 c -4.104,0 -63.665,0 -63.665,0 v 137.11 h 101.315 c 0,0 0,-99.768 0,-102.288 0,-0.065 -0.013,-0.144 -0.028,-0.224 0.016,-0.003 0.028,-0.006 0.028,-0.006 z m -7.434,-5.749 c -4.344,-1.067 -11.244,-1.618 -22.432,-1.703 -0.113,-10.495 -0.814,-16.877 -2.021,-20.834 4.297,2.598 10.059,6.491 14.49,10.865 2.277,2.248 6.644,7.38 9.963,11.673 z m 4.291,105.164 c -5.715,0 -89.314,0 -95.027,0 0,-5.788 0,-125.117 0,-130.906 5.682,0 59.672,0 60.521,0 1.913,0.885 4.661,3.907 4.661,27.124 22.803,0 27.826,1.777 29.371,4 0.212,0.362 0.387,0.688 0.475,0.921 0,0.626 0,93.048 0,98.861 z"
       id="path17-8" /><path
       style="display:inline;fill:url(#linearGradient57);stroke:none"
       d="m 132.286,35.495 -0.103,-0.275 c -0.049,-0.152 -0.111,-0.316 -0.195,-0.501 -0.213,-0.52 -0.472,-1.007 -0.797,-1.462 C 128.217,28.39 120.021,18.751 117.112,15.88 111.115,9.963 100.164,2.834 96.049,1.234 96.023,1.222 95.998,1.208 95.971,1.196 L 95.337,0.902 h -0.548 -0.153 c -4.104,0 -63.665,0 -63.665,0 v 137.11 h 101.315 c 0,0 0,-99.768 0,-102.288 0,-0.065 -0.013,-0.144 -0.028,-0.224 0.016,-0.003 0.028,-0.006 0.028,-0.006 z m -7.434,-5.749 c -4.344,-1.067 -11.244,-1.618 -22.432,-1.703 -0.113,-10.495 -0.814,-16.877 -2.021,-20.834 4.297,2.598 10.059,6.491 14.49,10.865 2.277,2.248 6.644,7.38 9.963,11.673 z m 4.291,105.164 c -5.715,0 -89.314,0 -95.027,0 0,-5.788 0,-125.117 0,-130.906 5.682,0 59.672,0 60.521,0 1.913,0.885 4.661,3.907 4.661,27.124 22.803,0 27.826,1.777 29.371,4 0.212,0.362 0.387,0.688 0.475,0.921 0,0.626 0,93.048 0,98.861 z"
       id="path18" /><g
       id="g6"
       transform="matrix(0.64965215,0,0,0.7195311,15.951072,-45.66347)"><path
         id="rect1"
         style="fill:#292929;fill-opacity:0.546341;fill-rule:evenodd;stroke-linecap:round;stroke-linejoin:round;stroke-miterlimit:2.1"
         d="M 40.994092,111.5577 H 152.8878 v 20.16103 H 40.994092 Z" /><path
         id="path1"
         style="fill:#292929;fill-opacity:0.546341;fill-rule:evenodd;stroke-linecap:round;stroke-linejoin:round;stroke-miterlimit:2.1"
         d="M 40.994092,145.49543 H 152.8878 v 20.16103 H 40.994092 Z" /><path
         id="path5"
         style="fill:#292929;fill-opacity:0.546341;fill-rule:evenodd;stroke-linecap:round;stroke-linejoin:round;stroke-miterlimit:2.1"
         d="M 40.994092,176.74502 H 152.8878 v 20.16103 H 40.994092 Z" /><path
         id="path6"
         style="fill:#292929;fill-opacity:0.546341;fill-rule:evenodd;stroke-linecap:round;stroke-linejoin:round;stroke-miterlimit:2.1"
         d="M 40.994092,210.34673 H 152.8878 v 20.16103 H 40.994092 Z" /></g><path
       style="display:inline;fill:url(#aigrd5);stroke:none"
       d="m 132.286,35.495 -0.103,-0.275 c -0.049,-0.152 -0.111,-0.316 -0.195,-0.501 -0.213,-0.52 -0.472,-1.007 -0.797,-1.462 C 128.217,28.39 120.021,18.751 117.112,15.88 111.115,9.963 100.164,2.834 96.049,1.234 96.023,1.222 95.998,1.208 95.971,1.196 L 95.337,0.902 h -0.548 -0.153 c -4.104,0 -63.665,0 -63.665,0 v 137.11 h 101.315 c 0,0 0,-99.768 0,-102.288 0,-0.065 -0.013,-0.144 -0.028,-0.224 0.016,-0.003 0.028,-0.006 0.028,-0.006 z m -7.434,-5.749 c -4.344,-1.067 -11.244,-1.618 -22.432,-1.703 -0.113,-10.495 -0.814,-16.877 -2.021,-20.834 4.297,2.598 10.059,6.491 14.49,10.865 2.277,2.248 6.644,7.38 9.963,11.673 z m 4.291,105.164 c -5.715,0 -89.314,0 -95.027,0 0,-5.788 0,-125.117 0,-130.906 5.682,0 59.672,0 60.521,0 1.913,0.885 4.661,3.907 4.661,27.124 22.803,0 27.826,1.777 29.371,4 0.212,0.362 0.387,0.688 0.475,0.921 0,0.626 0,93.048 0,98.861 z"
       id="path19" /><path
       style="display:none;opacity:0.2;fill:url(#aigrd6);stroke:none"
       d="m 132.41205,137.81582 c -5.715,0 -89.314,0 -95.027,0 0,-5.788 0,-125.116997 0,-130.9059974 5.682,0 59.672,0 60.521,0 1.913,0.885 4.661,3.9070004 4.661,27.1240004 22.803,0 27.826,1.777 29.371,4 0.212,0.362 0.387,0.688 0.475,0.921 0,0.626 0,93.047997 0,98.860997 z"
       id="path21" /><path
       style="display:inline;opacity:0.39;fill:url(#aigrd7);stroke:none"
       d="m 34.115,4.003 c 0,5.789 0,125.118 0,130.906 5.713,0 89.313,0 95.027,0 0,-5.813 0,-98.235 0,-98.861 -0.984,-2.63 -10.486,-14.257 -14.254,-17.976 -7.334,-7.239 -18.34,-13.184 -20.253,-14.069 -0.849,0 -54.839,0 -60.521,0 z m 59.574,4 c 2.879,1.481 12.113,6.722 18.39,12.916 3.54,3.494 11.307,13.091 13.063,16.067 0,1.764 0,86.63 0,93.923 -7.018,0 -80.01,0 -87.027,0 0,-7.282 0,-115.624 0,-122.906 6.859,0 53.862,0 55.574,0 z"
       id="path23" /><path
       style="display:inline;opacity:0.12;fill:url(#aigrd8);stroke:none"
       d="m 129.143,134.91 c 0,-31.763 -18.516,-97.116 -29.846,-103.782 0,-19.545 -7.322,-27.085 -12.816,-27.085 1.915,0 3.721,-0.039 8.155,-0.039 20.007,10.022 28.294,23.399 34.032,31.124 0.212,0.362 0.387,0.688 0.475,0.921 0,0.626 0,93.048 0,98.861 z"
       id="path25" /><path
       style="display:inline;opacity:0.12;fill:url(#aigrd9);stroke:none"
       d="m 129.143,83.819 c 0,-8.586 -2.187,-16.566 -5.312,-23.592 -7.189,-16.164 -19.346,-27.275 -21.271,-29.087 1.193,0.01 2.332,0.024 3.418,0.046 3.392,0.063 6.274,0.179 8.729,0.338 4.133,0.268 7.049,0.659 9.126,1.14 2.927,0.677 4.187,1.531 4.835,2.464 0.212,0.362 0.387,0.688 0.475,0.921 0,0.626 0,41.958 0,47.771 z"
       id="path27-7" /><path
       style="display:inline;fill:#ffffff;stroke:none"
       d="m 124.852,29.746 c -4.344,-1.067 -11.244,-1.618 -22.432,-1.703 -0.113,-10.495 -0.814,-16.877 -2.021,-20.834 4.297,2.598 10.059,6.491 14.49,10.865 2.277,2.248 6.644,7.38 9.963,11.673 z"
       id="path28" /><path
       style="display:inline;opacity:0.29;fill:url(#aigrd10);stroke:none"
       d="m 124.852,29.746 c -4.344,-1.067 -11.244,-1.618 -22.432,-1.703 -0.113,-10.495 -0.814,-16.877 -2.021,-20.834 4.297,2.598 10.059,6.491 14.49,10.865 2.277,2.248 6.644,7.38 9.963,11.673 z"
       id="path30" /><path
       style="display:inline;opacity:0.25;fill:url(#aigrd11);stroke:none"
       d="m 124.852,29.746 c -4.344,-1.067 -11.244,-1.618 -22.432,-1.703 -0.113,-10.495 -0.814,-16.877 -2.021,-20.834 4.297,2.598 10.059,6.491 14.49,10.865 2.277,2.248 6.644,7.38 9.963,11.673 z m -20.373,-3.745 c 6.457,0.088 11.459,0.345 15.345,0.8 -2.475,-3.001 -4.942,-5.813 -6.417,-7.266 -3.025,-2.988 -6.644,-5.68 -9.925,-7.88 0.558,3.677 0.882,8.39 0.997,14.346 z"
       id="path32" /></g><g
     id="g20"
     transform="matrix(0.71285482,0,0,0.71285482,92.319023,-14.48569)"
     style="clip-rule:nonzero;display:inline;fill:#00009f;fill-rule:nonzero;stroke:#ffffff;stroke-width:0;stroke-miterlimit:4"><g
       id="path8"
       style="display:inline"
       transform="translate(1.8708867,-13.096207)"
       inkscape:label="point"><path
         style="color:#000000;display:inline;fill:url(#linearGradient4);fill-rule:evenodd;-inkscape-stroke:none"
         d="m 106.05064,182.83903 c -5.56905,10.85253 -18.660438,39.56065 -20.574314,45.55524 -1.646626,5.15752 -2.570651,11.09665 2.293325,18.38361 2.906429,4.35426 20.896829,19.59907 45.307879,8.77171 6.56663,-2.91259 11.17098,-7.68687 14.6835,-15.06578 3.58409,-7.52927 19.21485,-39.56158 18.76258,-50.30183 -0.13068,12.72474 -9.69346,18.97777 -14.50487,21.32593 -7.25015,3.53836 -16.80979,5.22539 -25.56189,3.02602 -12.03179,-3.02355 -18.52776,-9.3555 -20.9162,-14.72831 -4.51809,-10.1635 1.40282,-18.70648 0.50999,-16.96659 z"
         id="path17"
         sodipodi:nodetypes="ssssscssss" /><path
         style="color:#000000;display:inline;fill:#d0d000;fill-opacity:0.375;fill-rule:evenodd;-inkscape-stroke:none"
         d="m 166.24165,191.76587 a 31.270535,23.653353 0 0 1 -31.27054,23.65336 31.270535,23.653353 0 0 1 -31.27053,-23.65336 31.270535,23.653353 0 0 1 31.27053,-23.65335 31.270535,23.653353 0 0 1 31.27054,23.65335 z"
         id="path16-2" /><path
         style="color:#000000;display:inline;fill:#ffff19;fill-opacity:0.783257;fill-rule:evenodd;stroke:#7a7575;stroke-width:3.1;stroke-dasharray:none;stroke-opacity:0.816514"
         d="m 147.21735,233.74339 a 31.270535,23.653353 0 0 1 -31.27054,23.65336 31.270535,23.653353 0 0 1 -31.27053,-23.65336 31.270535,23.653353 0 0 1 31.27053,-23.65335 31.270535,23.653353 0 0 1 31.27054,23.65335 z"
         id="path18-6" /><path
         style="color:#000000;display:inline;fill:url(#linearGradient2);fill-rule:evenodd;-inkscape-stroke:none"
         d="m 147.76019,240.5454 c 5.56905,-10.85253 16.40082,-37.1642 18.3147,-43.15879 1.64662,-5.15752 1.09591,-10.60507 -3.76807,-17.89203 -2.90643,-4.35426 -20.12487,-18.357 -44.53592,-7.52964 -6.56663,2.91259 -10.64905,8.75729 -13.98072,15.66714 -3.14036,6.51306 -22.388817,36.22722 -20.502698,47.05437 2.65078,-12.81164 3.48211,-13.60021 8.550103,-17.70979 9.531335,-7.72886 23.077445,-10.0183 34.656135,-6.95866 11.99419,3.16943 18.06468,10.51967 20.30173,15.95726 3.47348,8.44297 0.0719,16.31003 0.96474,14.57014 z"
         id="path19-1"
         sodipodi:nodetypes="ssssscssss" /></g><g
       id="g15"
       style="display:inline"><path
         style="color:#000000;display:inline;fill:#c9c900;fill-opacity:0.873853;fill-rule:evenodd;-inkscape-stroke:none"
         d="m 160.14044,153.48896 c -9.04377,0 -26.62444,-0.52619 -41.45335,-0.52619 0,-13.63736 -0.77891,4.32854 -0.21124,-8.03696 0.8232,-17.93151 18.4187,-15.06637 30.99614,-45.501554 4.40118,-10.650075 0.91221,-26.227468 -6.86024,-35.392631 -5.57285,-6.571418 -16.44466,-12.684975 -24.23219,-8.997908 -6.69337,3.169027 -6.58245,16.734966 -7.21771,21.011912 -12.620231,-0.06148 -18.63528,1.455691 -32.967511,1.099063 L 40.8506,112.21797 c 0,0 1.052287,-32.708462 2.211168,-43.208096 C 44.786612,53.38254 54.630533,21.658041 91.205651,21.658041 l 66.807289,-1e-6 c 32.38209,0 40.25446,18.535558 40.25446,33.946986 0,15.411429 2.39134,33.926205 -10.11086,45.380764 -13.77543,12.6211 -25.46242,26.01845 -25.81112,45.02736 -0.24338,13.26755 -2.20498,-3.27789 -2.20498,7.47581 z"
         id="path20"
         sodipodi:nodetypes="ccssaacccssssssc" /><path
         style="color:#000000;fill:#ffff38;fill-opacity:0.833716;fill-rule:evenodd;stroke:#252323;stroke-width:2.4;stroke-dasharray:none;stroke-opacity:0.684633"
         d="M 96.753176,21.068058 C 77.695872,20.83079 56.661499,32.23969 48.98818,43.771949 41.314861,55.304208 39.296308,72.1059 39.296308,82.397972 c 0,19.939228 0.173799,27.216068 0.173799,27.216068 l -0.06445,3.31446 52.364807,0.66146 c 9.399206,-14.611512 17.280026,-18.477303 33.756846,-42.514616 4.76316,3.533253 6.43605,32.269256 -2.27451,45.607716 -3.32267,5.08801 -11.51099,12.10759 -17.519,18.61559 -7.618051,8.25202 -12.613919,11.66207 -13.069128,21.57775 -0.571877,12.45702 -0.38086,17.93845 -0.38086,31.54566 v 3.25 l 2.210223,0.0353 c 0,0 37.752085,-0.0717 55.320735,-0.0717 10.72913,-17.69613 15.48201,-33.24817 18.22946,-38.44844 0.42767,-5.37164 1.14623,-10.25702 1.71571,-12.4501 1.94658,-7.49638 6.41693,-18.88999 13.31082,-24.80553 7.17428,-6.15614 16.44017,-14.79527 17.45715,-23.212887 1.01697,-8.417623 0.92516,-17.026843 0.92516,-24.564453 0,-8.259087 -0.126,-19.544579 -5.09807,-28.156453 C 190.2907,29.494175 177.96427,22.079157 161.15444,21.86987 Z M 149.96149,35.56715 c 15.57093,0 25.41461,4.821593 30.72545,10.613095 5.31085,5.791502 7.79232,13.404315 7.79232,20.556641 0,7.873803 0.66365,17.549874 -0.24926,25.10612 -0.9129,7.556246 -1.3453,16.499104 -6.87721,21.567454 -14.1841,12.99552 -28.16145,23.49405 -29.47224,48.49919 -0.61488,11.7296 -1.24451,20.03772 -1.20271,28.21288 -10.43707,-0.0348 -42.78853,1.32344 -57.92661,1.28863 -0.02471,-11.36282 -0.525538,-22.59339 -0.01528,-33.70811 0.36799,-8.01581 4.319127,-12.74791 14.18387,-23.06705 5.68682,-5.94877 12.62564,-13.3783 16.02335,-18.10889 4.05754,-5.64925 6.04801,-16.39982 6.69326,-30.844431 0,-6.78228 -1.76718,-12.875139 -6.01078,-14.982254 l -0.68164,-0.339844 h -0.76367 c -5.78794,0 -15.66912,-0.471726 -21.35473,-0.471726 h -0.67578 l -0.619136,0.269531 c -2.559999,1.112045 -4.196469,1.367482 -5.953125,3.080078 -1.756655,1.712597 -2.433772,3.685635 -4.070312,7.632813 l -0.248047,0.597656 v 0.646485 c 0,7.550517 0.327012,25.843362 0.300595,30.171712 L 41.17234,111.43668 c 0.05354,-2.85372 0.347656,-10.70593 0.347656,-29.038711 0,-9.688144 1.804982,-23.686269 7.194383,-31.825334 5.3894,-8.139065 15.163586,-15.052735 32.679889,-15.052735 33.214702,0 45.843292,0.04725 68.567222,0.04725 z"
         id="path10"
         sodipodi:nodetypes="szsccccsssscsccsssssssssssssccssscccssccsccsccssss" /><path
         style="color:#000000;fill:#fff207;fill-opacity:0.575688;fill-rule:evenodd;-inkscape-stroke:none"
         d="m 150.53943,190.99344 c -9.04377,0 -42.72838,-0.11546 -57.557291,-0.11546 0,-13.63736 -0.1897,-20.92003 0.377976,-33.28553 0.8232,-17.93151 25.382805,-28.90009 32.292405,-46.44428 3.26502,-8.29022 4.0716,-17.483451 3.80433,-26.457879 0,-6.174891 -1.44554,-10.482921 -3.8636,-13.19222 -5.8231,0 -20.53614,0.128422 -26.185516,0.128422 -5.452948,2.368721 -5.053434,1.109204 -8.315476,8.976935 0,8.284929 -0.188988,19.194351 -0.188988,31.670062 H 40.065475 c 0,0 0.377976,-12.0678 0.377976,-32.048038 0,-19.980236 5.569226,-46.018602 42.144346,-46.018602 l 66.807293,-1e-6 c 32.38209,0 40.25446,18.535558 40.25446,33.946986 0,15.411429 2.39134,33.926205 -10.11086,45.380765 -13.77543,12.62109 -27.18295,24.91238 -27.53165,43.92129 -0.24338,13.26755 -1.46761,22.78385 -1.46761,33.53755 z"
         id="path9"
         sodipodi:nodetypes="ccsaccccccssssssc" /><path
         id="rect11"
         style="fill:#fefef0;fill-opacity:0.59744;fill-rule:evenodd;stroke:none;stroke-width:2.4;stroke-opacity:0.519495"
         d="m 62.006533,32.623094 c 5.406344,-4.202283 12.576805,-6.864583 19.443859,-8.635655 8.204717,-2.116067 25.323788,-2.204973 25.323788,-2.204973 32.98435,0.704812 44.28558,0.924169 56.05978,0.935438 3.62952,0.319689 6.77165,0.506194 10.1515,1.825031 9.66317,10.289256 16.69101,23.151512 -1.0722,14.354273 -11.92111,-6.445785 -61.12698,-4.15217 -74.493514,-4.15217 -8.265004,0 -17.328105,-0.736796 -24.789249,0.534539 -7.408947,1.262441 -34.177635,3.84407 -32.118951,52.074629 -0.263183,2.662315 0.332676,19.911334 0.220557,24.515284 -0.82085,-0.0263 0.355756,1.4422 -0.520792,1.56775 0.448817,-28.634774 -1.381738,-46.411134 4.374148,-57.2871 2.242572,-4.237426 0.242312,-10.174212 17.421074,-23.527046 z"
         sodipodi:nodetypes="saccccsscccss" /><path
         id="rect12"
         style="fill:url(#linearGradient13);fill-rule:evenodd;stroke:none;stroke-width:2.4;stroke-opacity:0.684633"
         d="m 172.12157,39.55589 c -19.28506,-17.200204 -15.6237,-19.758728 1.44706,-17.215957 18.67357,6.841052 21.75634,13.597013 26.99422,25.159695 2.17236,6.464301 1.6775,15.853399 1.80882,22.94882 0.1278,6.905579 0.36936,14.411124 -1.38499,21.091365 -1.88289,7.169697 -5.86652,14.595287 -12.21891,18.415887 -2.82477,1.69894 -6.28771,3.98606 -8.09358,1.22842 2.50674,-3.4227 4.98666,-11.68281 6.21599,-17.867915 1.21413,-6.10868 0.90409,-12.359245 1.07579,-18.653513 0.14942,-5.477712 -0.10372,-14.663907 -1.4012,-16.720558 -3.74382,-13.7186 -9.88097,-14.563739 -14.4432,-18.386244 z"
         sodipodi:nodetypes="cccccccaccc" /><path
         id="path12-8"
         style="fill:url(#linearGradient15);fill-rule:evenodd;stroke:none;stroke-width:2.4;stroke-opacity:0.684633"
         d="m 187.89447,63.469434 c -2.59217,-11.693806 9.15564,-18.821769 4.65259,-29.554021 9.56512,10.706963 9.96382,44.371457 8.95123,58.485496 -0.80379,11.203631 -16.30969,22.229441 -21.57251,28.341461 -6.10992,7.09579 -9.09996,20.66115 -9.85598,25.36292 -0.26118,2.02649 -0.57567,3.85648 -0.87149,7.46877 -1.8488,4.10232 -10.64876,25.28883 -18.92644,39.10336 -0.29315,-46.21064 3.71115,-48.37516 8.24188,-56.56567 5.74697,-10.38919 10.57165,-13.26029 16.22238,-18.28503 3.49028,-3.47319 10.90378,-4.28731 12.19614,-23.903422 1.01673,-15.432568 0.79446,-19.541179 0.9622,-30.453864 z"
         sodipodi:nodetypes="ccsscccscsc" /><path
         id="rect20"
         style="fill:#ffffff;fill-opacity:0.473624;fill-rule:evenodd;stroke:none;stroke-width:3.09999;stroke-opacity:1"
         transform="matrix(0.89385316,0,0,0.89385316,4.0438035,18.663448)"
         d="m 87.209805,23.714282 c 7.039253,-4.170167 -0.307601,-2.083517 7.941511,-2.106219 28.298364,-0.07788 49.305964,-0.861836 80.469664,1.66338 4.33349,0.351146 18.61999,6.072551 22.56331,14.478411 4.45682,9.500473 4.19278,31.353447 4.13875,46.953763 1.27336,18.978313 -8.31949,15.853833 -25.26272,38.678253 -13.84522,18.65107 -8.40082,23.79374 -12.54006,23.62484 -4.13924,-0.1689 -23.66289,3.31548 -34.70982,1.77496 -1.43072,-8.45225 5.62504,-20.46283 13.60688,-28.35076 24.4246,-24.13724 25.97724,-38.66977 18.1317,-60.519088 -5.88578,-16.391499 -41.97709,-41.668497 -43.60264,4.494784 -8.66746,0.55577 -21.776667,0.827737 -35.174231,1.537501 3.049287,-13.600541 -1.795163,-38.537403 4.437656,-42.229825 z"
         sodipodi:nodetypes="sssscsscssccs" /><path
         id="rect15"
         style="clip-rule:nonzero;display:inline;fill:#504c06;fill-rule:evenodd;stroke:none;stroke-width:2.4;stroke-miterlimit:4;fill-opacity:0.848624;stroke-opacity:0.684633"
         d="m 88.204697,84.284444 c 0.02063,-9.858245 5.673316,-15.67004 14.456773,-15.535041 8.09999,-0.247538 23.05927,-0.50767 23.17644,1.937704 -8.63401,12.749197 -29.456269,38.217313 -33.523944,43.651873 -1.288009,-0.10926 -2.473931,-0.23161 -3.662787,-0.23161 0,-8.17994 -0.446482,-23.055381 -0.446482,-29.822926 z"
         sodipodi:nodetypes="cccccc" /></g></g><metadata
     id="metadata1"><rdf:RDF><cc:Work
         rdf:about=""><cc:license
           rdf:resource="http://creativecommons.org/publicdomain/zero/1.0/" /></cc:Work><cc:License
         rdf:about="http://creativecommons.org/publicdomain/zero/1.0/"><cc:permits
           rdf:resource="http://creativecommons.org/ns#Reproduction" /><cc:permits
           rdf:resource="http://creativecommons.org/ns#Distribution" /><cc:permits
           rdf:resource="http://creativecommons.org/ns#DerivativeWorks" /></cc:License></rdf:RDF></metadata></svg>
