<?xml version="1.0" encoding="UTF-8" standalone="no"?>
<!-- Created with Inkscape (http://www.inkscape.org/) -->

<svg
   width="256mm"
   height="256mm"
   viewBox="0 0 256 256"
   version="1.1"
   id="svg1"
   inkscape:version="1.3.2 (091e20ef0f, 2023-11-25)"
   xml:space="preserve"
   sodipodi:docname="application-x-dreamcast-rom.svg"
   xmlns:inkscape="http://www.inkscape.org/namespaces/inkscape"
   xmlns:sodipodi="http://sodipodi.sourceforge.net/DTD/sodipodi-0.dtd"
   xmlns="http://www.w3.org/2000/svg"
   xmlns:svg="http://www.w3.org/2000/svg"
   xmlns:rdf="http://www.w3.org/1999/02/22-rdf-syntax-ns#"
   xmlns:cc="http://creativecommons.org/ns#"
   xmlns:dc="http://purl.org/dc/elements/1.1/"><defs
     id="defs1" /><sodipodi:namedview
     id="base"
     pagecolor="#ffffff"
     bordercolor="#000000"
     borderopacity="0.3"
     inkscape:pageopacity="0.0"
     inkscape:pageshadow="2"
     inkscape:zoom="0.98994949"
     inkscape:cx="505.07627"
     inkscape:cy="476.792"
     inkscape:document-units="mm"
     inkscape:showpageshadow="2"
     inkscape:pagecheckerboard="0"
     inkscape:deskcolor="#d1d1d1"
     inkscape:current-layer="g5830" /><metadata
     id="metadata1"><rdf:RDF><cc:Work
         rdf:about=""><dc:format>image/svg+xml</dc:format><dc:type
           rdf:resource="http://purl.org/dc/dcmitype/StillImage" /><cc:license
           rdf:resource="http://creativecommons.org/publicdomain/zero/1.0/" /></cc:Work><cc:License
         rdf:about="http://creativecommons.org/publicdomain/zero/1.0/"><cc:permits
           rdf:resource="http://creativecommons.org/ns#Reproduction" /><cc:permits
           rdf:resource="http://creativecommons.org/ns#Distribution" /><cc:permits
           rdf:resource="http://creativecommons.org/ns#DerivativeWorks" /></cc:License></rdf:RDF></metadata><g
     id="g12"
     style="display:inline"
     transform="matrix(1.0438511,0,0,1.0438511,-1.7688685,-18.104248)"><path
       id="rect1"
       style="display:inline;fill:#f8f8f8;fill-opacity:1;stroke:none;stroke-width:0.278189;stroke-linecap:square"
       d="m 12.922725,128.20561 v 26.14673 h 25.977226 v -5.63377 h -5.077726 v -4.74441 h -4.944918 v -5.14491 h -5.813082 v -5.67924 h -4.677234 v -4.9444 z m 41.293087,26.02735 v 5.16661 h 5.464783 v -5.16661 z m 5.229138,20.40754 v 11.0722 h 5.102531 v 4.7718 h 5.244125 v 5.19761 h 5.464782 V 184.6094 h -5.244124 v -5.1971 h -5.102531 v -4.7718 z" /><path
       id="rect7"
       style="fill:#f1f1f1;stroke-width:0.544042;stroke-linecap:square"
       d="m 12.922756,154.23087 h 20.899258 v 5.16638 H 12.922756 Z" /><path
       id="rect8"
       style="fill:#eaeaea;stroke-width:0.544042;stroke-linecap:square"
       d="m 12.922756,159.37581 h 20.899258 v 5.16638 H 12.922756 Z" /><path
       id="rect9"
       style="fill:#eaeaea;stroke-width:0.390882;stroke-linecap:square"
       d="m 43.916805,159.32857 h 10.788394 v 5.16638 H 43.916805 Z" /><path
       id="rect10"
       style="fill:#eaeaea;stroke-width:0.469436;stroke-linecap:square"
       d="m 18.261669,164.57298 h 15.560344 v 5.16638 H 18.261669 Z" /><path
       id="rect11"
       style="fill:#eaeaea;stroke-width:0.386578;stroke-linecap:square"
       d="m 23.269854,169.58116 h 10.552159 v 5.16638 H 23.269854 Z" /><path
       id="rect12"
       style="display:inline;fill:#d7d7d7;fill-opacity:1;stroke:none;stroke-width:0.282584;stroke-linecap:square"
       d="m 13.39801,122.99573 43.116196,-25.896081 14.215026,1.480878 39.300928,69.034623 -3.8281,6.57322 0.0473,5.84946 -19.701983,13.7397 -6.375194,-3.44694 -15.910002,-16.06804 -9.914717,-15.04737 -15.218526,-10.4959 -7.302158,-6.99609 z m 14.785286,51.73001 v 5.16609 h 5.638932 v -5.16609 z m 15.686381,5.1971 v 5.16609 h 5.638415 v -5.16609 z m 15.813316,-26.07205 5.055431,0.0109 -0.09449,20.62155 z m 31.277529,68.16652 v 10.17464 h 10.198498 v -10.17464 z"
       sodipodi:nodetypes="cccccccccccccccccccccccccccccccc" /><path
       id="rect22"
       style="display:inline;fill:#cccccc;fill-opacity:1;stroke:none;stroke-width:0.264583;stroke-linecap:square"
       d="m 80.16875,86.51875 v 5.328874 h 5.646167 V 86.51875 Z m 5.291667,5.55625 v 5.140771 h -9.966834 v -5.441242 h -5.646167 v 5.441242 h -9.832327 l -0.09449,5.308949 h 4.851542 l 0.05906,4.96019 h -5.282893 v 5.12992 h -5.313887 v 5.32888 h 5.187797 v 5.23585 h 5.646167 v -5.19968 h 4.879288 v 5.18883 l 0.01602,5.18211 h -5.510775 v 5.32888 h 5.032251 l 0.06682,5.22758 h 5.25844 v 4.82038 h -5.289083 v 5.32836 h 5.646167 v -4.38681 h 5.141805 v 4.26072 h -0.0041 v 5.32835 h 5.646167 v -5.19658 l 10.186044,0.15034 -0.26727,-4.70406 h 5.200711 v 4.62194 H 90.888509 v 5.16092 H 80.312927 v 5.09478 h 5.211568 v 4.69842 h 5.394503 v 5.3082 h -5.260661 v 5.32836 h 5.422408 v 5.31699 h 5.646167 v -5.31699 h 19.732128 v -4.95827 h 5.49527 v -5.15429 h 5.57486 v -5.32887 h -5.60793 v -4.88239 h -10.55336 v -4.93148 h 5.66787 v -5.32888 h -5.52731 v -5.31595 H 101.2672 v -5.02864 h -5.341272 v -5.26479 h 5.107182 v 5.24722 h 5.64617 v -5.32835 h -5.53455 v -4.94751 h 5.43068 v -5.73039 h -5.31079 v -5.1785 h -4.825029 v -5.03483 H 90.842 v -5.12372 h 5.55625 V 97.102083 H 91.307036 V 92.075 Z m 0.197404,5.328874 h 5.094262 v 4.933036 h -5.094262 z m -5.188831,5.073596 h 4.726843 v 5.08237 H 80.46899 Z m -4.984709,5.15007 h 4.710307 v 5.19865 h -5.109249 v 5.01365 h -4.944917 v -5.02605 h 5.343859 z m 10.355957,0.0382 h 4.953186 v 5.16041 h -4.953186 z m -26.319315,5.14801 h 4.973332 v 5.03741 h -4.973332 z m 31.600647,0.0692 h 4.496883 l -8.079241,5.38203 3.582358,-0.42522 z m 20.33416,15.61943 v 5.32887 h 5.64616 v -5.32887 z m -41.357166,0.0995 h 4.873087 v 4.97644 h -4.873087 z m 5.032767,5.22655 h 4.945435 v 5.01107 h -4.945435 z m 5.325257,5.29167 h 4.69222 v 5.33301 h -4.69222 z m 26.260412,5.3878 h 4.55424 v 4.62194 H 106.717 Z m -62.85146,9.57305 v 5.32836 h 5.646167 v -5.32836 z m 62.97395,0.37776 h 4.22402 v 4.8674 h -4.22402 z m -15.668828,4.92683 h 4.521688 v 4.45554 h -4.521688 z m 25.301818,0.0558 h 5.41052 v 4.7563 h -5.57485 v 5.19451 h -5.17695 v -5.23895 h 5.34128 z m -25.167976,10.29653 h 5.109249 v 4.73718 h -5.109249 z m -47.449817,0.20464 v 5.32887 h 5.646167 v -5.32887 z"
       sodipodi:nodetypes="cccccccccccccccccccccccccccccccccccccccccccccccccccccccccccccccccccccccccccccccccccccccccccccccccccccccccccccccccccccccccccccccccccccccccccccccccccccccccccccccccccccccccccccccccccccccccccccc" /><path
       id="rect26"
       style="display:inline;fill:#b2b2b2;fill-opacity:1;stroke:none;stroke-width:0.236213;stroke-linecap:square"
       d="m 152.82478,50.687862 v 5.500292 h 5.14594 v -5.500292 z m -10.59625,5.34231 v 4.954736 h -10.25777 v 5.233272 h -9.75341 v 5.054989 h -10.78074 v 5.493721 h -10.6872 l 0.3675,5.048143 9.57349,0.167043 v 5.065841 h -4.60179 v 5.145939 h 10.04745 v 4.659664 h 0.016 v 5.22862 h -5.52266 v 5.51439 h 5.76193 v -5.03535 h 5.17746 v 5.03949 h 0.0481 v 5.2002 h 5.60069 v 5.37331 0.0527 5.18832 l 10.2968,0.0334 0.13918,-5.19811 5.35109,0.0236 v 5.3006 l -5.47044,-0.11675 -0.0459,4.9688 -10.33751,0.10858 -0.0501,5.1548 10.4008,0.0501 0.0251,4.92826 h -0.0351 v 4.98471 h -5.43429 v -5.02089 h -5.36867 v 5.14646 h 5.14594 v 5.23844 h 5.72006 v -5.17694 h 4.82917 v 10.56886 l 44.93428,12.12403 -3.2128,-32.93155 h 5.33559 v -5.14645 h -5.03587 v -5.15318 h 5.15008 v -5.43016 h -5.66477 v 5.38624 h -4.89479 v -5.33921 l -4.99105,0.2088 -0.0418,-5.14328 5.05922,-0.0835 -0.10858,-5.26096 h 5.09116 v -5.43016 h -5.26273 v 5.07721 h -5.09116 v 5.2741 h -5.18676 v -10.16011 h 5.23586 v -5.096325 h 5.03018 v -5.43016 h -5.26325 v 5.096847 h -5.02966 v 5.375378 h -5.00228 v -5.417236 l -10.4372,0.346246 -0.008,5.24337 10.21185,0.11616 v 4.88583 l -4.95924,-0.10631 -0.0473,-5.18447 -10.69885,0.22442 -0.0945,-5.116928 5.58077,-0.104627 0.0501,-5.218637 h -5.5826 v -4.904093 h 5.4715 v 4.901509 l 5.39709,0.165365 v -5.093746 h 4.99297 v 5.093746 h 5.26325 V 86.74716 h -5.15731 v -4.92218 h 5.1356 v -5.43016 h -4.52355 v -5.174878 h -5.94041 v 5.164026 h -5.08444 v -5.167643 h 5.52938 v -4.980058 h 4.62555 v -5.145939 h -5.14594 v 4.980058 h -4.92218 v -5.060157 h -4.96093 v -4.980057 z m 0.23409,5.145939 h 5.17488 v 4.879805 h -5.17488 z m 5.38365,4.980058 h 4.97438 v 4.979024 h -4.97438 z m -9.82524,0.10852 h 4.27778 v 4.937683 h 5.44204 v 5.36298 h 5.09323 v 5.211569 h -10.0552 V 76.76689 h -4.75681 v -5.493721 h -0.001 z m 20.21944,10.361642 h 5.58333 l -0.53454,5.027083 h -5.04879 z m -5.22604,5.163509 h 5.13974 v 4.95732 h -5.13974 z m -36.56211,0.192236 h 5.74746 v 5.065841 h -5.74746 z m 5.27255,14.871444 h 5.01055 v 5.60121 h -5.01055 z m 41.25485,15.94735 h 5.44411 v 5.071 h -5.44411 z m -46.80903,4.93355 v 5.51387 h 5.76192 v -5.51387 z m 52.42987,0.25683 5.31163,0.1921 -0.4009,5.05957 -15.70128,0.22551 v -5.24154 h 5.1263 v 5.53451 h 5.66425 z m 5.19466,5.6534 4.94477,-0.0827 v 4.89324 h -5.16919 z m -36.15349,4.86947 h 5.04362 v 4.97954 l 5.1892,-0.0668 -0.0167,5.57918 25.88362,-0.0194 -0.0985,-5.14876 5.09294,-0.23624 v 5.06688 l -36.14643,0.0501 0.0835,-5.28855 h -5.03122 z m 30.6002,0 h 5.27306 v 4.94492 h -5.27306 z m 10.87848,0.17415 h 4.95156 v 4.86947 l -4.60902,0.0472 z m -20.95074,25.75863 v -5.14645 z m 31.00741,14.88643 v 5.38624 h -4.93251 v 11.01586 h 5.14594 v -0.0114 h 4.93251 v -16.3907 z M 64.822917,190.5 v 4.83485 h -5.21932 v 10.75851 H 75.239852 V 195.33485 H 69.968856 V 190.5 Z m 88.163093,0 v 10.81588 h 10.05985 V 190.5 Z m -31.22083,10.52649 v 5.14646 h 4.98936 v 4.68085 h -4.98493 v 5.47718 h 10.10709 l 0.0238,-10.21591 h -4.98936 v -5.08858 z m -31.015783,4.8193 V 222.142 h 4.916598 v 4.47931 h 5.496725 v -20.83232 z"
       sodipodi:nodetypes="cccccccccccccccccccccccccccccccccccccccccccccccccccccccccccccccccccccccccccccccccccccccccccccccccccccccccccccccccccccccccccccccccccccccccccccccccccccccccccccccccccccccccccccccccccccccccccccccccccccccccccccccccccccccccccccccccccccccccccccccccccccccccccccccccccccccccc" /><path
       id="rect18"
       style="display:inline;fill:#c0c0c0;fill-opacity:1;stroke:none;stroke-width:0.282584;stroke-linecap:square"
       d="m 90.643563,81.643079 v 4.913395 h -5.268412 v 5.244641 h -10.27522 v 5.622396 h 10.511898 v -5.250326 h 5.546431 v 4.9382 h 5.235856 v 5.178495 h -5.117517 v -5.112349 h -5.622396 v 5.197099 h -5.45238 v 5.1878 h -5.197099 v 5.4808 h 5.622396 v -5.1878 h 4.946468 v 5.31079 h 5.273063 v 4.99866 h 5.093229 v 4.86637 h 5.12165 v 5.41466 h -5.159373 v 5.48028 h 5.382613 v 5.04879 h 0.0507 v 0.0543 h 5.62239 v -0.0543 h 4.62711 v 5.22242 h 5.4436 v 5.07669 h -5.24206 v -5.07617 h -5.6224 v 5.4808 h 5.30355 v 4.52634 h -5.30355 v 5.48028 h 5.6224 v -5.31078 h 10.02213 v 4.71547 h -5.46737 v 5.07463 h -5.38624 v 5.48028 h 5.6224 v -5.07411 h 5.21105 v 5.29632 h 5.6224 v -5.29167 h 10.19007 v -5.29166 h 10.08724 v -4.81418 h 5.42034 V 143.7442 h -5.62239 v 10.60297 h -4.58939 v -5.01985 h 0.006 v -5.61051 l -5.29595,0.0118 c 0.17482,-3.29824 -0.0556,-6.71551 0.0648,-10.07563 l 4.65289,-0.0167 v 5.2343 h 5.62239 v -5.48028 h -5.17229 v -5.2343 h -5.23793 v -4.4266 h 5.50251 v -5.4808 h -5.62239 v 4.69273 H 127.3037 v -10.17302 h -0.0114 v -0.0672 h -5.62136 v -4.94492 h -0.11834 v -5.32112 h 5.35213 v -5.622395 h -5.43378 V 102.232 h -5.24413 v -5.221901 h -0.0403 v -4.882906 h -9.93686 v -5.003829 h 4.99401 v -5.480285 z m 25.347807,0 v 5.480285 h 6.18929 V 81.643079 Z M 96.582218,102.33174 v 0.0419 z m -47.531982,0.0749 v 5.58054 h 5.622396 v -5.58054 z m 36.773983,0.25166 h 5.038969 v 5.02709 h -5.038969 z m 5.371765,5.33766 h 5.103048 v 4.68809 h -5.103048 z m -62.518665,4.72064 v 4.96109 h 5.622396 v -4.96109 z m 67.791728,0.14211 h 4.776453 v 4.69171 h -4.776453 z m -78.310982,4.67104 v 5.4808 h 5.622396 v -5.4808 z m 83.404215,0.27595 h 4.98884 v 5.1356 h -4.98884 z m 14.88717,0.0473 5.30236,0.0118 -0.0709,5.07654 -5.31418,0.18899 z m -31.282039,5.04598 v 5.4808 h 5.622396 v -5.4808 z m 16.357139,5.66477 h 4.28501 v 4.98471 h -4.28501 z m 9.90741,0 h 5.67304 v 5.05602 h -5.67304 z m 15.74994,0 h 9.96994 v 5.05602 h -9.96994 z m -0.40824,10.41125 h 5.08651 v 4.75475 l 5.61471,0.0413 0.006,5.14867 -5.56769,0.0827 v -5.32141 h -5.13944 z m -31.192931,5.22294 v 5.4808 h 5.622391 v -5.4808 z m -46.419389,9.92807 v 5.1661 h 5.638416 v -5.1661 z m 72.80227,5.15783 h 5.42655 v 5.10253 h -5.42655 z m -78.330098,5.2095 v 5.55056 h 6.060896 v -5.55056 z m 15.434717,0 v 5.55056 h 5.827551 v -5.55056 z m -15.293123,10.51564 v 5.44979 h 5.827551 v -5.44979 z m 15.694027,10.13064 v 10.49549 h 5.827551 V 185.1396 Z"
       sodipodi:nodetypes="ccccccccccccccccccccccccccccccccccccccccccccccccccccccccccccccccccccccccccccccccccccccccccccccccccccccccccccccccccccccccccccccccccccccccccccccccccccccccccccccccccccccccccccccccccccccccccccccccccccccccccccccccccccccccccccccc" /><path
       id="rect39-27-4"
       style="display:inline;fill:#a0a0a4;fill-opacity:1;stroke:none;stroke-width:0.724687;stroke-linecap:square"
       d="M 163.08359,45.875753 V 50.7106 h -5.42086 v 5.157824 h -9.58546 v 5.079794 h -5.63894 v 4.871537 h -4.73459 v 10.958504 h 0.0661 v 0.03721 h 4.96868 v 4.969723 h 10.25416 v 4.859135 h -5.60534 v 5.455997 h 5.47925 v 5.100981 h -5.51233 v 5.455995 h 5.67563 v -5.345407 h 10.12651 v 5.094777 h -5.11132 v 5.13509 h 5.34128 v -4.85087 h 5.03277 v 10.09137 h -5.50251 v 5.24723 h -5.49475 v 5.456 h 5.67562 v -5.24775 h 5.27771 v 5.21984 h 5.16868 v 4.99608 h -5.50302 v 5.456 h 5.42034 v 5.0524 h 5.67562 v -5.15524 h 4.99298 v 5.12217 h 5.67614 v -5.37435 H 199.84 v -4.97231 h 9.86296 v -4.85734 h 5.77226 v -5.65106 h -0.062 v -5.26635 h -0.047 l -0.0723,-15.602658 h -5.45445 v -5.052404 h -10.29395 v -5.60586 h -0.0739 v -5.045687 h -0.11214 v -5.032767 h 5.1e-4 v -5.455998 h -10.07277 v -4.680335 l 4.63951,-0.141593 v -5.024499 h -5.22655 l 0.40153,4.78162 h -4.91702 v -4.786271 h 4.80333 v -5.102531 h -4.80229 V 50.7106 h -5.53713 v -4.834847 z m 20.99096,10.290844 v 4.866887 l -5.1971,0.03307 v -4.665865 z m -35.91047,4.837948 h 4.66638 v 4.976957 h -4.66638 z m 10.11153,0.133842 5.23172,0.02532 -0.5488,0.0036 0.10025,4.969206 h -4.68292 z m -15.46417,4.912362 h 4.91236 v 5.110799 h -4.91236 z m 10.22056,0.166915 h 5.20124 V 71.15328 H 153.032 Z m -5.21002,5.000211 h 5.16248 v 5.330424 h -5.16248 z m 10.82208,0.05839 h 4.97231 v 5.168676 h -4.97231 z m 5.14181,5.191931 h 4.72064 v 5.032767 h -4.72064 z m 25.37401,0.165365 h 5.15532 v 4.749284 h -5.15532 z m -36.0576,-0.04031 h 5.13354 v 5.04827 h -5.13354 z m 5.19865,5.186763 h 5.06326 v 4.864303 h -5.06326 z m -5.2374,4.964038 h 4.9816 v 5.111833 h -4.9816 z m 10.65723,0.212907 h 4.82399 v 4.898926 h -4.82399 z m 9.75547,5.279781 h 5.19607 v 4.968172 h -5.19607 z m -4.64416,5.075143 h 4.40593 v 5.095297 h -4.40593 z m 10.14564,5.098397 h 5.01158 v 5.14283 h -5.01158 z m -5.11649,5.26479 h 5.02554 v 5.1325 h -5.02554 z m -5.26893,5.29943 h 5.26428 v 5.02708 h -5.26428 z m 5.45858,5.28856 h 4.94131 v 4.90461 h -4.94131 z m 10.42779,0 h 5.00435 v 4.89892 h -5.00435 z m -5.25859,5.04568 h 5.15266 v 5.04207 h -5.15266 z m 5.456,5.30924 h 4.72787 v 4.855 h -4.72787 z m -10.95902,0.006 h 5.28288 v 4.88239 h -5.28288 z m -124.18674,35.79471 -0.01395,20.6344 -5.66167,-0.0563 -0.0016,5.23999 5.655986,0.13746 -0.0072,4.91908 5.063257,0.0119 0.133842,-30.88649 z m 113.51814,5.27048 -10.09913,0.005 v 20.8716 h 10.09913 z m -30.88535,15.66277 -10.38655,-0.0622 0.13153,15.97034 4.87643,-0.14608 v 5.03545 l -5.03173,0.004 v 4.87154 h 5.25445 v -4.67723 l 5.18119,0.0668 z m -30.98375,15.40149 -10.430884,0.005 v 5.1387 h 10.430884 z m -25.657862,4.70049 -15.951997,0.004 v 5.54023 h 5.448246 l -0.07493,4.91391 h 10.554911 z"
       sodipodi:nodetypes="cccccccccccccccccccccccccccccccccccccccccccccccccccccccccccccccccccccccccccccccccccccccccccccccccccccccccccccccccccccccccccccccccccccccccccccccccccccccccccccccccccccccccccccccccccccccccccccccccccccccccccccccccccccccccccccccccccccccccccccccc" /><path
       id="path1"
       style="display:inline;fill:#999999;fill-opacity:1;stroke:none;stroke-width:0.724687;stroke-linecap:square"
       d="m 184.18462,56.067379 -5.67562,0.0041 v 5.138704 h 5.31234 v 4.896342 h 5.24412 v 4.937167 h 9.94978 v 21.210591 l 10.62416,0.03307 v 4.944401 h 5.34541 v 26.593616 h 5.21105 v -5.02829 l 10.59057,-0.0667 v -5.41191 h 4.81056 V 102.3028 l -4.81056,0.008 v -4.952152 l -5.34541,0.01602 V 92.14683 l -5.24516,0.02015 v -5.465816 l -4.9444,0.02945 V 81.78984 l -5.1786,0.01344 v -4.957837 l -5.44556,0.01189 v -6.025472 l -5.28391,0.01705 V 66.09778 l -10.06347,0.0041 v -4.941817 l -5.0953,0.0036 z m 10.38697,20.377051 -5.61206,0.0046 v 5.080827 h 5.61206 z m -134.65938,72.36363 -20.889151,0.004 v 5.77347 l 20.889151,-0.0465 z m -15.981715,4.90639 -10.219192,0.004 v 31.46476 l 10.219192,-0.0465 z"
       sodipodi:nodetypes="cccccccccccccccccccccccccccccccccccccccccccccccccccc" /><path
       id="rect51"
       style="display:inline;fill:#666666;fill-opacity:1;stroke:none;stroke-width:0.264583;stroke-linecap:square"
       d="m 235.48175,112.86391 v 30.83275 h -5.44927 v 5.10873 h 10.60968 l 0.3044,-35.94148 z M 7.8176107,133.16707 v 10.57506 H 2.6525513 v 20.72483 h 5.1650594 v 0.001 h 5.3645303 v -31.30093 z m 207.2550493,5.61509 v 5.39199 h 5.36505 v -5.39199 z m -0.0475,10.25009 v 5.59345 h 5.06119 v 4.92735 h 5.36504 v -5.10873 h -5.0617 v -5.41207 z m -30.94592,5.29528 v 4.9444 h 5.1754 v -4.9444 z m 15.77578,4.38301 v 6.14431 h 9.93464 v -6.14431 z m -26.54359,5.86029 v 4.9583 h 5.36504 v -4.9583 z m 41.02474,5.25395 v 4.70772 h 11.01084 v -4.70772 z m -30.08226,15.66726 v 4.70772 h 10.04228 v -4.70772 z m -77.83315,20.67019 v 5.03845 h 10.04228 v -5.03845 z m 62.01602,-31.11594 v 4.99169 h 10.35966 v -4.99169 z m -31.1369,15.63527 v 4.70772 h 10.04228 v -4.70772 z"
       sodipodi:nodetypes="cccccccccccccccccccccccccccccccccccccccccccccccccccccccccccccccccccccc" /><path
       id="rect52"
       style="display:inline;fill:#969696;fill-opacity:1;stroke:none;stroke-width:0.264583;stroke-linecap:square"
       d="m 204.2449,149.31737 v 5.38572 h 5.36246 v -5.38572 z M 90.619792,185.16243 v 5.17036 h -5.682766 v 5.26302 h 5.807823 v -5.00383 h 4.954219 v -5.42955 z M 75.19386,195.3426 v 5.38623 h 5.017486 v 5.01756 h -4.903798 v 10.16188 h -5.532479 v 5.4529 h 5.532479 v 5.17022 h 5.07876 v -0.24391 h 5.310418 l 0.0186,-25.66717 H 80.55632 v -5.27771 z m 31.23036,-0.37437 v 6.37843 h 5.36246 v -6.37843 z"
       sodipodi:nodetypes="cccccccccccccccccccccccccccccccccccc" /><path
       id="rect48"
       style="display:inline;fill:#868686;fill-opacity:1;stroke:none;stroke-width:0.425204;stroke-linecap:square"
       d="m 157.99397,40.065255 v 5.704689 l -4.97024,0.133635 v 4.820973 h -5.3392 v 5.338692 h 5.3392 v -5.280342 l 10.15804,0.09523 V 46.06592 h 10.30945 v -6.000667 z m -26.18444,15.91324 v 5.065324 h -9.57616 v 5.093746 h -5.16455 V 71.5238 h 5.38624 v -5.093746 h 9.60768 v -5.065841 h 10.47223 V 55.978495 Z M 100.75251,71.57651 v 4.952152 h -9.965803 v 4.88549 h -5.309688 v 5.269305 h 5.636799 v -4.902195 h 10.003522 v -4.818518 h 10.50014 V 71.57651 Z M 69.768351,86.582829 v 5.279781 h -9.717236 v 5.276164 h -5.347477 v 5.386236 h 5.386234 v -5.276682 h 9.812321 V 91.969063 H 80.265902 V 86.582829 Z M 38.873079,102.40822 v 5.35264 h -9.975618 v 4.94027 h -5.182629 v 5.1108 h 5.278747 v -4.45606 h 10.025745 v -5.35264 H 49.19493 v -5.59501 z m -31.3846472,15.0642 v 5.31337 H 2.7590047 v 4.93251 h -0.0093 v 2.81585 h -0.094568 v 13.34337 h 5.2591105 v -10.56421 h 5.2916668 l 0.05684,-10.24589 h 5.082377 v -5.595 z M 220.26718,137.97836 v 6.05419 h -5.55766 l 0.0945,5.23637 h 5.55766 l 0.0236,5.11752 h -5.96073 v 15.50086 h 10.95289 v -10.45465 h -5.07825 v -4.9134 h 5.14491 v -16.54089 z m -46.65349,10.66063 v 4.91391 h 5.19762 v -4.91391 z M 59.578276,153.7038 v 5.33921 h -5.007964 v 47.00384 h 5.069975 v -41.30083 h 5.291667 V 153.7038 Z m 129.551784,0.65215 v 4.72478 h -5.05551 v 15.78508 h 5.17746 v -5.24464 h 5.05499 v -15.26522 z m -36.94679,-0.0924 v 4.99586 h -9.86586 v 5.0277 l -10.25386,0.0167 v 5.21396 h -10.94602 v 5.03661 h -9.95599 v 5.22058 h -9.82612 v 5.41026 h -5.660123 v 5.32411 h 5.367113 v 5.0369 h 10.45104 v 5.74487 h -5.08392 v 4.91391 h 10.20565 l -0.016,-25.79171 h 5.27697 v -5.55676 h 10.31152 v 4.90874 h 5.18159 v 10.91717 h 9.97459 v -10.91717 h 0.15193 v -4.91339 h -0.0377 v -5.26325 h -0.016 v -4.85241 h 5.41156 v -5.30872 h 5.06119 v -5.16397 z m 10.95613,0.28677 v 9.55755 h 5.15782 v 0.50436 h -0.002 V 175.072 h 5.08496 v -0.009 h 5.25033 v -5.76554 h -5.25033 v -4.67 h 5.24258 v -4.91391 h -10.28568 v -5.16299 z M 80.16875,195.5271 v 5.16617 h 5.531815 l 0.118117,-5.16617 z m -4.963522,5.06481 v 5.43791 h 4.963522 v 4.96766 h 5.579062 v -5.01262 h -5.459394 v -5.39295 z m 77.750292,0.17363 v 5.01262 h 10.12186 v -5.01262 z m -31.1149,15.53135 v 5.01262 h 10.28 v -5.01262 z M 90.987728,231.9755 v 5.01262 h 10.288642 v -5.01262 z"
       sodipodi:nodetypes="ccccccccccccccccccccccccccccccccccccccccccccccccccccccccccccccccccccccccccccccccccccccccccccccccccccccccccccccccccccccccccccccccccccccccccccccccccccccccccccccccccccccccccccccccccccccccccccccccccccccccccccc" /><path
       id="rect53"
       style="display:inline;fill:#777777;fill-opacity:1;stroke:none;stroke-width:0.264583;stroke-linecap:square"
       d="m 225.32992,118.3878 v 5.11372 h -10.42779 v 5.08341 h -10.02006 v 4.97282 h -0.0527 v -0.0946 h -4.94182 v -0.0754 h -5.38107 v 5.34851 h -10.37559 l 0.0473,5.06496 h -10.63036 l -0.0472,5.14992 h -10.90911 v 5.33383 h -4.78089 v 5.1875 l 5.38055,-0.10631 v -4.69636 l 5.07448,0.10631 v 5.04126 h 10.38918 v -6.36846 h -4.98936 v -4.28353 h 10.74405 v -5.07647 h 10.09705 v 4.71547 h 5.32009 v 10.37508 h 4.35633 v 0.0475 h 5.38055 v -4.6408 h -5.21015 v -5.09581 h 5.31453 v -15.87164 h 5.50871 v -4.90823 h 10.15339 v 4.44056 h 4.91649 v 10.82724 h 5.38055 v -25.62099 z"
       sodipodi:nodetypes="ccccccccccccccccccccccccccccccccccccccccccccccccccc" /><path
       id="rect54"
       style="display:inline;fill:#cccc99;fill-opacity:1;stroke:none;stroke-width:0.264583;stroke-linecap:square"
       d="m 13.17439,123.13667 v 5.4808 h 5.055505 v 4.91391 h 5.103048 v 5.24413 h 5.338692 v 5.29167 h 4.913912 v 5.10253 h 5.551082 v -5.48029 h -4.913395 v -5.10305 h -5.339209 v -5.29166 h -5.102531 v -5.24413 h -5.055505 v -4.91391 z m 201.84659,10.43089 v 5.48028 h 5.5516 v -5.48028 z m -30.94849,15.25901 v 5.48081 h 5.55159 v -5.48081 z m -31.30559,15.77062 v 5.48028 h 5.55109 v -5.48028 z m -93.306447,4.78317 v 5.4808 h 5.007963 v 4.7718 h 5.339209 v 5.29167 h 5.314921 v 5.45703 h 5.5516 v -5.48028 h -5.314922 v -5.45704 h -5.339209 v -5.29166 h -5.007963 v -4.77232 z m 62.430817,10.68772 v 5.48028 h 5.5516 v -5.48028 z m -31.194016,15.28899 v 5.4808 h 5.351147 v -5.4808 z"
       sodipodi:nodetypes="ccccccccccccccccccccccccccccccccccccccccccccccccccccccccccccccc" /><path
       id="rect53-4"
       style="display:inline;fill:#999966;fill-opacity:1;stroke:none;stroke-width:0.378643;stroke-linecap:square"
       d="m 142.78272,50.890286 v 5.275647 h 5.38107 V 50.890286 Z M 111.9076,66.463939 v 5.27513 h 5.85302 v -5.27513 z m -31.368625,15.08125 v 5.27513 h 5.381067 v -5.27513 z M 49.64422,97.32252 v 5.27565 h 5.38055 v -5.27565 z m 186.1938,10.77867 v 5.14336 h -5.19658 v 5.27513 h 5.38055 v -5.14336 h 5.1971 v -5.27513 z m -217.097857,4.63693 v 5.27513 h 5.38055 v -5.27513 z m 201.657977,5.67717 v 5.27513 h 5.38055 v -5.27513 z m -10.3973,5.17591 v 5.27513 h 5.38107 v -5.27513 z m -10.06088,4.88549 v 5.27513 h 5.38106 v -5.27513 z m -9.96891,5.01985 v 5.42913 h 5.38055 v -5.42913 z m 30.70459,0.21446 v 5.46426 h 5.38107 V 133.711 Z m -41.51013,5.14077 v 5.29942 h 5.47512 v -5.29942 z m -10.59027,5.03513 v 5.27565 h 5.38106 v -5.27565 z m -10.42181,5.06141 v 5.68906 h 5.38107 v -5.68906 z m 31.36856,0.0186 v 5.54282 h 5.38055 v -5.54282 z m -42.01553,5.41363 v 5.27513 h 5.38107 v -5.27513 z m -9.95908,4.99866 v 5.30923 h 5.38055 v -5.30923 z m -10.28568,4.99659 v 5.27565 h 5.38107 v -5.27565 z m 30.77487,0.34055 v 5.50922 h 5.38055 v -5.50922 z m -41.5556,4.88136 v 5.27564 h 5.38055 v -5.27564 z m -10.18543,5.09167 v 5.27513 h 5.38107 v -5.27513 z m -9.922906,5.26222 v 5.44101 h 5.380546 v -5.44101 z m 30.796566,0.20776 v 5.67718 h 5.38107 v -5.67718 z m -41.909066,5.11029 v 5.09684 H 75.045253 v 5.27513 h 10.392131 v -5.09633 h 5.721135 v -5.27564 z m 10.97194,10.20713 v 5.48803 h 5.480866 v -5.48803 z"
       transform="translate(-0.37797618,-0.11811756)"
       sodipodi:nodetypes="ccccccccccccccccccccccccccccccccccccccccccccccccccccccccccccccccccccccccccccccccccccccccccccccccccccccccccccccccccccccccccccccccccccc" /><path
       id="rect63"
       style="fill:#090909;fill-opacity:1;stroke:none;stroke-width:0.264583;stroke-linecap:square"
       d="m 173.3243,40.123649 v 5.880261 h 5.27875 v 4.977991 h 5.37848 v 5.311821 h 4.62246 v 5.037935 h 5.27875 v 4.977991 h 5.37848 v 5.31182 h 5.25239 v 5.265829 h 5.30097 v 5.315437 h 4.93717 v 5.083928 h 5.42396 v 5.036385 h 4.94078 v 5.102531 h 5.46633 v 5.158342 h 4.89635 v 5.46685 h 5.15782 v 40.61974 h -9.98492 v -15.65124 h -4.86637 v -4.98936 h -11.24634 v 5.36712 h -5.1785 v 30.84773 h -9.49192 v -15.582 h -4.86637 v -4.98936 h -11.24634 v 5.36712 h -5.1785 v 30.84772 h -10.08052 v -15.829 h -4.86689 v -4.98885 h -11.24634 v 5.36712 h -5.17849 v 30.84773 h -9.43509 v -15.55616 h -4.86688 v -4.98936 h -11.24635 v 5.36763 h -5.17797 v 30.84722 h -9.64541 v -15.9241 h -4.86637 v -4.98936 H 90.720561 v 5.36712 h -5.177979 v 30.84773 H 75.56283 v -5.38779 H 70.4665 v -5.21002 h -5.330424 v -5.02191 h -5.385718 v -5.27255 H 54.60545 v 5.88026 h 4.717544 v 5.27255 h 5.330424 v 5.0214 h 5.09633 v 5.21053 h 5.41414 v 5.25395 h 10.378694 v 4.93303 h 5.513359 v 5.29322 h 10.356989 v -5.12682 h 5.42086 v -20.40083 h 9.64541 v 4.93304 h 5.51335 v 5.29373 h 10.35648 v -5.12733 h 5.42137 v -20.76928 h 9.43509 v 4.93303 h 5.51387 v 5.29374 h 10.35647 v -5.12734 h 5.42138 v -20.49591 h 10.08052 v 4.93304 h 5.51336 v 5.29321 h 10.35699 v -5.12733 h 5.42086 v -20.74241 h 9.49192 v 4.93304 h 5.51388 v 5.29373 h 10.35647 v -5.12734 h 5.42086 v -20.54034 h 10.23659 v -5.23224 h 5.56141 v -41.6941 h -5.15782 v -5.45341 h -4.89634 v -5.466852 h -5.46634 v -5.157825 h -4.94078 v -5.102531 h -5.42396 v -5.036901 h -4.93716 V 76.32299 h -5.30097 v -5.315438 h -5.25188 v -5.265828 h -5.379 v -5.311821 h -5.27875 v -4.977991 h -4.62245 V 50.41346 h -5.37849 v -5.31182 h -5.27874 v -4.977991 z m -31.27612,5.735493 v 4.857068 h -5.04724 v 5.312854 h 5.55315 v -4.738729 h 10.91975 V 45.859142 Z M 111.07746,61.025216 V 65.8828 h -5.04724 v 5.832571 h 5.55367 v -5.258962 h 10.91923 V 61.025216 Z M 80.00752,76.35968 v 4.857585 h -5.047238 v 5.407348 h 5.305103 V 81.56645 L 91.433179,81.5192 V 76.35968 Z M 48.737077,91.995418 v 4.857068 H 43.68984 v 5.312854 h 5.553149 V 97.426095 H 60.162736 V 91.995418 Z M 17.733801,107.76396 v 4.85759 h -5.047237 v 5.31285 h 5.55315 v -4.73924 H 29.15946 v -5.4312 z m 197.440149,26.1457 h 9.66504 v 40.42802 h -9.66504 z m -30.78314,15.64349 h 9.66505 v 40.42802 h -9.66505 z M 12.529985,164.10316 v 5.87975 H 17.6382 v 5.30872 h 5.202266 v 5.01261 h 5.280815 v 5.27513 h 5.263245 v 5.21622 H 43.63713 v 4.7625 h 5.310787 v 6.00428 h 5.813082 v -6.56445 h -5.310787 v -5.32009 h -5.338693 v -4.7625 H 33.934363 v -5.21622 h -5.280815 v -5.27461 h -5.202266 v -5.01314 h -5.108216 v -5.3082 z m 140.489095,0.84698 h 9.66505 v 40.42802 h -9.66505 z m -30.7268,15.66984 h 9.66504 v 40.42751 h -9.66504 z m -30.936616,15.30088 h 9.665046 v 40.42802 h -9.665046 z"
       sodipodi:nodetypes="cccccccccccccccccccccccccccccccccccccccccccccccccccccccccccccccccccccccccccccccccccccccccccccccccccccccccccccccccccccccccccccccccccccccccccccccccccccccccccccccccccccccccccccccccccccccccccccccccccccccccccccccccccccccccccccccccccccccccccccccccccccccccccccccc" /></g><g
     id="g5830"
     inkscape:label="Dreamcast"
     transform="matrix(0.53771033,0,0,-0.53771033,15.127577,175.69258)"><g
       id="g1"
       transform="translate(13.917432,-181.42366)"><path
         inkscape:connector-curvature="0"
         id="path5836"
         style="fill:#231f20;fill-opacity:1;fill-rule:evenodd;stroke:none"
         d="m 398.08779,38.519732 h -2.04636 v 0.707608 h 4.87885 v -0.707608 h -2.03046 v -5.512057 h -0.80203 v 5.512057" /><path
         inkscape:connector-curvature="0"
         id="path5838"
         style="fill:#231f20;fill-opacity:1;fill-rule:evenodd;stroke:none"
         d="m 404.23152,33.007675 -1.69796,5.051265 v -5.051265 h -0.81947 v 6.219665 h 1.13454 l 1.79185,-5.289358 1.79186,5.289358 h 1.13453 v -6.219665 h -0.81998 v 5.051265 l -1.69744,-5.051265 h -0.81793" /><path
         inkscape:connector-curvature="0"
         id="path5840"
         style="fill:#231f20;fill-opacity:1;fill-rule:evenodd;stroke:none"
         d="m 9.4209667,91.937732 c 0,2.160796 -0.4089144,4.956849 -1.3649807,6.133459 6.253788,0 19.759559,-0.04208 25.548296,-0.04208 13.321403,0 33.417833,-7.394223 33.417833,-32.319065 0,-18.496846 -14.185516,-32.281093 -33.417833,-32.281093 -4.217272,0 -20.324825,0.04772 -26.0374128,0.04772 1.1706065,2.164901 1.8540975,5.099499 1.8540975,7.412696 V 91.937728 Z M 18.998101,39.758944 c 6.149571,-0.795867 11.824034,-1.04063 16.961403,-0.306852 4.97096,0.70966 21.663585,4.305172 21.559419,26.472446 C 57.421,86.930596 44.448185,91.731453 34.452181,92.318475 29.234661,92.625328 24.19956,92.430851 18.998101,91.528766 V 39.758944" /><path
         inkscape:connector-curvature="0"
         id="path5842"
         style="fill:#231f20;fill-opacity:1;fill-rule:evenodd;stroke:none"
         d="m 72.508003,78.221731 9.570926,1.493212 c 0,-1.958622 0,-7.70518 0,-8.426643 2.455846,6.065213 10.092267,10.942013 20.948591,6.716889 l -2.5436,-6.66301 C 90.545596,76.054777 82.078929,71.919452 82.078929,60.887128 V 38.121029 c 0,-1.082194 0.232961,-3.271212 0.884125,-4.674114 h -9.943972 c 1.00625,1.2387 1.469608,3.59192 1.469608,4.674114 v 32.842459 c 0,2.381442 -0.48337,6.069317 -1.980687,7.258243" /><path
         inkscape:connector-curvature="0"
         id="path5844"
         style="fill:#231f20;fill-opacity:1;fill-rule:evenodd;stroke:none"
         d="m 375.1031,73.655375 c 0,-0.623455 0,-27.099493 0,-29.082232 0,-9.123989 6.29202,-11.565468 10.95228,-11.565468 1.97453,-0.09801 4.76237,0.362784 6.71278,0.795867 l 1.20483,5.634695 c -2.27727,-0.868218 -4.91887,-1.074497 -6.5024,-1.074497 -2.92228,0 -5.03741,1.94015 -5.03741,4.974808 0,2.722162 -0.0678,29.412689 0,30.26654 h -0.0297 c 0.38894,0 6.45004,0.02207 7.0617,0 1.98994,-0.06979 3.51751,-0.192424 4.83061,-0.71941 l 0.009,5.307831 c 0,0 -11.64552,0.01368 -11.87027,0.01368 l 0.0502,13.610296 -8.82329,-2.437374 c 1.21869,-1.138638 1.61123,-4.469887 1.61123,-6.663011 0,0 -0.004,-4.067079 -0.004,-4.558145 -0.39922,0 -4.87321,-0.0201 -5.61674,-0.0201 v -4.483742 c 0.77996,0 5.45202,0 5.45202,0" /><path
         inkscape:connector-curvature="0"
         id="path5846"
         style="fill:#231f20;fill-opacity:1;fill-rule:evenodd;stroke:none"
         d="m 336.97693,42.905466 c 3.7905,-2.709847 9.7418,-5.113354 14.10547,-5.113354 6.05546,0 10.38885,2.944861 10.38885,8.488732 0,10.232865 -23.33362,8.541071 -23.33362,21.521755 0,8.779164 7.85142,12.080651 15.33185,12.080651 2.40351,0 7.89145,-0.521341 11.38331,-1.870364 l -0.0282,-5.994913 c -3.0988,2.647758 -7.82936,3.291224 -10.94817,3.291224 -4.95069,0 -8.66525,-2.455333 -8.66525,-7.272097 0,-7.073516 23.3095,-6.66455 23.3095,-21.178984 0,-9.384659 -8.13364,-13.762182 -17.08368,-13.762182 -4.36162,0 -8.90539,0.773802 -12.69384,1.855996 l -1.7662,7.953536" /><path
         inkscape:connector-curvature="0"
         id="path5848"
         style="fill:#231f20;fill-opacity:1;fill-rule:evenodd;stroke:none"
         d="m 196.15265,73.563011 c 0,0.529552 0.0192,5.285766 0.0192,5.893314 l -9.69151,-1.497317 c 1.16891,-1.224845 2.06278,-5.041003 2.06278,-7.76727 V 38.437631 c 0,-1.082194 -0.46284,-3.70994 -1.46909,-4.946586 h 10.56691 c -1.00625,1.236646 -1.46909,3.864392 -1.46909,4.946586 v 23.892935 c 0,8.741193 5.40789,11.797916 10.78807,11.797916 4.87065,0 9.27229,-2.108457 9.27229,-11.797916 V 38.437631 c 0,-1.082194 -0.4649,-3.70994 -1.46705,-4.946586 h 10.24416 c -1.0042,1.236646 -1.46704,3.864392 -1.46704,4.946586 v 23.892935 c 0,9.689459 5.98927,11.797916 10.86401,11.797916 4.87065,0 9.96809,-3.056723 9.96809,-11.797916 V 38.437631 c 0,-1.082194 -0.46541,-3.70994 -1.4696,-4.946586 h 9.86392 c -1.0042,1.236646 -1.4691,3.864392 -1.4691,4.946586 v 28.426964 c 0,4.846525 -4.94094,12.607637 -16.48639,12.607637 -6.71484,0 -10.59155,-2.986425 -13.53795,-5.558239 -2.50357,2.922283 -6.58039,5.664457 -13.13103,5.664457 -6.38387,0 -10.1523,-3.740214 -11.99239,-6.015439" /><path
         inkscape:connector-curvature="0"
         id="path5850"
         style="fill:#231f20;fill-opacity:1;fill-rule:evenodd;stroke:none"
         d="m 173.30239,58.666295 c -1.38135,-1.298735 -4.27746,-2.309091 -7.26799,-2.701637 -7.85347,-1.030367 -14.65657,-2.33526 -14.65657,-9.986049 0,-4.536081 4.94299,-8.110041 8.86178,-8.110041 10.38065,0 13.06278,7.486587 13.06278,13.387597 z m -24.51793,18.723137 c 3.96035,1.589681 10.35243,2.317301 14.36152,2.317301 10.23851,0 17.03751,-5.113354 17.03751,-16.989266 V 43.019894 c 0,-3.649903 0.0539,-7.10379 1.35518,-9.528849 h -8.23012 l -0.29505,5.181087 c -3.11881,-4.02295 -6.83696,-5.824554 -13.15874,-5.824554 -12.46755,0 -15.18971,8.518494 -15.18971,12.615847 0,14.609876 13.90483,14.782288 19.94387,15.642296 3.33946,0.47516 7.64104,1.417269 8.28656,4.549936 1.06629,5.181601 -2.63801,9.066005 -10.20875,9.066005 -5.55413,0 -10.10407,-1.687689 -13.90227,-3.9624 z M 325.66444,58.666295 c -1.38341,-1.298735 -4.27952,-2.309091 -7.27005,-2.701637 -7.85348,-1.030367 -14.65657,-2.33526 -14.65657,-9.986049 0,-4.536081 4.94505,-8.110041 8.86383,-8.110041 10.38065,0 13.06279,7.486587 13.06279,13.387597 z m -24.5205,18.723137 c 3.96291,1.589681 10.35499,2.317301 14.36203,2.317301 10.23851,0 17.0375,-5.113354 17.0375,-16.989266 V 43.019894 c 0,-3.649903 -0.79381,-7.027334 1.35467,-9.528849 h -8.23011 l -0.29454,5.181087 c -3.11676,-4.02295 -6.83696,-5.824554 -13.15669,-5.824554 -12.46755,0 -15.19176,8.518494 -15.19176,12.615847 0,14.609876 13.90688,14.782288 19.94387,15.642296 3.34151,0.47516 7.64309,1.417269 8.28656,4.549936 1.06834,5.181601 -2.63801,9.066005 -10.2067,9.066005 -5.55413,0 -10.10407,-1.687689 -13.90483,-3.9624 v 6.63017" /><path
         inkscape:connector-curvature="0"
         id="path5852"
         style="fill:#231f20;fill-opacity:1;fill-rule:evenodd;stroke:none"
         d="m 292.38479,71.350389 c -3.08854,1.802117 -7.96123,3.233241 -11.36073,3.233241 -11.9303,0 -17.4008,-7.340344 -17.4008,-17.909824 0,-10.470958 5.34375,-18.488636 17.01595,-18.488636 4.00037,0 9.4488,1.793908 13.67393,4.393944 l -1.72002,-7.703128 c -4.30107,-1.278723 -7.92531,-1.888323 -12.72566,-1.888323 -16.40224,0 -24.08946,11.629609 -24.08946,23.734377 0,13.379387 10.31291,22.786111 24.26547,22.786111 6.10164,0 10.55562,-1.495265 12.35517,-2.008396 l -0.0128,-6.149366" /><path
         inkscape:connector-curvature="0"
         id="path5854"
         style="fill:#231f20;fill-opacity:1;fill-rule:evenodd;stroke:none"
         d="m 108.78228,56.112953 c 0.006,1.106312 0.15181,2.162336 0.27658,3.180902 h 31.73358 c 0,10.910198 -5.45202,20.268688 -18.38036,20.268688 -13.41736,0 -21.38116,-10.49097 -21.38116,-23.872923 0,-12.104255 8.86742,-22.916446 24.05509,-22.916446 4.80239,0 8.81765,1.18482 13.15104,2.700097 l 1.52554,7.739047 c -3.7043,-3.052618 -9.69767,-4.858841 -15.10556,-4.858841 -9.71922,0 -15.91888,7.037597 -15.87475,17.759476 z m 1.27873,8.02127 c 1.03037,5.30783 5.94103,10.715722 11.81998,10.715722 8.9798,0 11.58137,-7.009375 11.58137,-10.717262 0,0 -23.40135,-0.01368 -23.40135,0.0015" /></g><path
       inkscape:connector-curvature="0"
       id="path5856"
       style="fill:#cf3311;fill-opacity:1;fill-rule:evenodd;stroke:none"
       d="m 236.13687,322.11923 c 8.81919,-1.3249 17.82516,-4.40574 22.52339,-5.84097 9.46111,-2.89406 24.82478,-11.88207 30.24909,-16.19545 2.56566,-2.03867 7.96123,-7.37832 10.05224,-10.0661 2.03406,-2.618 5.92308,-8.29066 8.40407,-11.78612 3.947,-5.76657 8.597,-14.35792 12.54195,-22.26528 4.40575,-8.8315 4.7085,-11.391 6.03905,-18.77342 l 2.91253,-13.01866 c 0.27247,-2.24905 0.49928,-10.50534 -4.34725,-11.66347 -4.84498,-1.1566 -9.32257,1.08014 -11.43359,4.34519 -2.92228,4.52223 -2.51948,10.94253 -5.82455,18.28852 -2.57798,5.93898 -3.7043,14.56831 -7.82115,20.77566 l -3.2276,5.45818 c -5.71218,8.79148 -11.66553,15.77263 -15.21742,20.32462 -3.12497,3.82283 -8.96543,9.02187 -14.50212,12.72412 -5.119,3.1029 -13.39119,6.64299 -19.3625,8.46461 -1.90218,0.61935 -10.03993,3.01259 -15.0994,3.68634 -6.86673,0.77175 -11.38279,1.85599 -17.90521,2.3173 -8.05411,0.56701 -11.9185,1.28488 -22.36534,0.0641 -3.95676,-1.0745 -10.22876,-1.49937 -15.87115,-3.65811 -4.55815,-1.86011 -10.89584,-4.86295 -17.1078,-8.5108 -6.68251,-3.66632 -16.82917,-11.16061 -23.55581,-17.5609 -6.78103,-7.24592 -10.17232,-11.13238 -14.84694,-20.31692 -2.07254,-4.54583 -6.07702,-11.57521 -7.69082,-16.53822 -1.1022,-5.03741 -3.20707,-14.43387 -2.85198,-18.99818 0.158,-8.17572 -0.55726,-9.86135 0.0579,-16.54438 0.022,-6.01698 1.99659,-10.18822 2.81812,-15.10915 0.7035,-3.40155 3.96702,-15.1656 5.98311,-17.89752 9.17427,-19.7653 21.48737,-28.32433 35.21159,-34.49987 3.86644,-1.96837 15.97121,-5.20777 19.47333,-6.13756 5.9708,-1.07655 13.82838,-1.79596 21.39091,-1.94221 7.95559,-0.1565 18.92377,0.92159 25.57857,3.37128 7.19975,2.64981 15.52992,6.41414 15.43396,6.30997 3.34306,1.84214 8.44256,4.84653 10.03018,6.16938 3.07058,1.96837 4.91888,2.73037 6.73896,4.62434 2.62569,2.29524 4.21281,3.61809 6.20119,6.46238 1.10682,1.60559 2.8643,4.05887 4.57816,6.22941 1.84009,3.01875 2.89868,6.19965 4.69874,10.13229 2.15259,5.82097 1.81803,5.54029 2.22648,11.72198 0.38485,1.79391 -0.0421,7.81346 -0.36638,8.83561 -0.96828,5.55414 -0.62756,10.45711 -1.89858,15.85114 -1.71745,7.29776 -3.14499,12.76209 -5.3376,19.76326 -2.06278,7.88323 -8.11773,15.18561 -12.66202,20.40313 -2.81607,3.23324 -11.54957,10.86966 -23.66819,15.64024 -3.41335,1.1489 -8.99981,2.44969 -12.54555,3.09675 -7.57074,0.79176 -8.80328,0.28479 -16.05126,-0.24631 -2.49382,-0.43513 -8.28861,-1.61944 -10.41708,-2.36707 -6.22582,-2.18697 -8.51695,-3.57807 -14.88286,-7.47684 -2.96436,-1.7195 -5.19751,-3.03671 -8.22601,-5.87689 -2.41941,-2.23879 -4.14508,-6.03904 -6.1037,-8.27014 -2.68367,-3.6499 -5.6701,-8.52054 -7.67285,-13.77039 -2.1726,-5.22368 -2.872,-12.57788 -2.54359,-17.30997 0,-3.60629 0.98213,-10.20875 1.37314,-11.65373 0.38895,-1.44703 1.36287,-5.92923 1.57531,-6.82927 0.21252,-0.89798 2.54359,-5.64239 2.8643,-6.32793 1.31515,-2.79811 3.83258,-6.82106 8.07412,-10.92611 3.12856,-3.41951 9.17582,-6.77283 13.7042,-8.07156 4.05887,-2.22904 10.90763,-2.60568 14.69608,-2.61389 1.86421,0.11246 6.62658,0.40691 9.11424,1.00214 5.0369,1.20894 5.96926,1.24281 11.16471,3.49802 4.66026,2.16233 7.82321,2.94024 11.06825,5.3376 0,0 4.45808,3.49391 6.48444,6.04725 1.06834,1.34902 2.90022,7.77343 2.57335,11.75379 -0.1518,5.44997 0.64142,8.54107 -0.47259,13.02276 -1.11247,4.4822 -3.01106,9.67971 -5.06717,12.88268 -2.08486,3.24093 -6.56655,6.40182 -11.66604,8.91771 -2.85404,1.41111 -9.61917,2.71754 -12.48757,3.05672 -5.45407,0.645 -10.01376,-1.82624 -12.7821,-4.65667 -2.40146,-2.74576 -7.14792,-8.4446 -5.25549,-14.3374 1.70975,-5.33195 3.77408,-11.01437 11.77379,-10.5936 5.48846,-1.14223 11.83641,0.51724 13.94897,-0.45669 3.14088,-1.7821 4.34571,-5.71679 3.20296,-8.4605 -0.79586,-5.29193 -5.86303,-5.92718 -11.27093,-6.32794 -4.84037,-0.81023 -17.12986,1.55735 -19.83355,3.58166 -1.80981,1.07655 -4.58637,3.66427 -6.54037,5.40994 -1.40547,1.25666 -2.99669,4.05887 -4.08094,6.07137 -1.33311,2.47329 -2.00839,4.29337 -2.35116,5.90512 -0.40692,1.91192 -1.24486,5.56439 -0.92826,9.21635 0.21449,2.46354 0.87386,3.51187 1.53119,7.11354 1.30694,4.08298 2.93049,7.19205 5.54438,10.73163 3.4036,3.45542 7.72724,7.56868 11.94621,9.47907 3.72226,1.96632 10.24056,2.68778 16.13952,2.34296 4.78495,-0.45669 10.44736,-1.03806 14.18962,-2.29472 6.40388,-2.28754 8.23422,-2.74423 13.49382,-6.05957 4.44372,-2.74987 8.9136,-7.80729 11.40486,-12.0006 5.30783,-10.85581 8.3507,-22.93441 6.13756,-39.19657 -0.18002,-2.74782 -1.03601,-5.43149 -2.74987,-9.06754 -1.58147,-3.35742 -4.35546,-7.44042 -8.51695,-10.51715 -1.67538,-1.55171 -4.31954,-3.46005 -6.47008,-4.57816 -3.05467,-1.85446 -5.10719,-2.81863 -8.29631,-4.42011 -2.7981,-1.31465 -6.06162,-2.81812 -10.31496,-4.00089 -4.60792,-1.82161 -8.14802,-1.89807 -13.94281,-2.76167 -5.70859,-1.43112 -21.32266,-0.40897 -30.62522,3.69403 -6.34795,2.66982 -13.47175,7.37421 -18.88785,13.11102 -3.00849,3.15063 -5.95078,8.87359 -6.81695,10.04199 -4.30568,8.2804 -5.14927,16.06717 -5.83892,17.70303 -0.94006,2.22289 -1.40495,7.20796 -2.03457,10.6172 -0.70966,3.82078 -0.26836,19.85203 3.58987,30.14288 2.17722,4.09684 3.44978,7.74879 4.92093,9.66893 2.64776,3.76433 3.92494,6.1155 6.17759,8.78532 3.3918,4.11532 5.86304,7.47273 9.16812,9.83776 8.42305,6.85133 15.45654,10.46121 24.97307,14.98343 11.82409,4.8142 15.37393,3.81821 26.56481,3.63964 5.03485,-0.044 12.35929,-1.6256 15.96096,-2.28087 6.68918,-0.88977 10.52124,-2.50151 15.04552,-3.76433 4.83678,-1.34902 7.63488,-3.50571 11.60139,-5.90511 3.26916,-2.11051 7.11148,-5.00098 9.65148,-7.34804 6.49625,-4.76238 9.63302,-9.77156 13.61389,-15.92298 0.72146,-1.03242 5.45202,-11.10878 6.20581,-13.91664 0.34842,-1.40546 1.41676,-5.44022 2.10435,-7.79754 0.88208,-3.74022 1.31105,-7.05351 2.29524,-11.27298 0.88413,-4.34725 2.38298,-12.55735 3.03466,-20.23021 1.09246,-6.58091 -0.65937,-20.01828 -1.69385,-24.1413 -2.30088,-7.69081 -6.32588,-17.07598 -14.27531,-26.11582 -3.37743,-4.00088 -6.96525,-7.10533 -11.11443,-10.47096 -3.1732,-2.6457 -5.89126,-4.18715 -10.79217,-7.11148 -6.65634,-3.97113 -11.71941,-6.50651 -21.04814,-10.15231 -3.7982,-1.22074 -8.58315,-2.82222 -13.74012,-3.89108 -9.99221,-0.92158 -20.25894,-1.80776 -31.46778,-0.47464 -11.20833,1.33055 -22.43513,4.4899 -29.06786,6.52805 -3.66017,1.37314 -10.74959,4.34572 -13.72216,5.9472 -1.93451,0.98419 -8.41844,5.4161 -9.5191,6.48444 -4.44372,2.74782 -14.38975,12.10272 -20.81004,20.81774 -1.40701,2.69394 -6.46597,10.77576 -7.56253,14.31791 -2.916643,5.98875 -4.950696,13.23315 -6.145779,16.32579 -1.260764,7.22181 -3.38718,11.87643 -4.221018,19.128 0.096,1.70616 -0.34072,5.72295 -0.729673,7.94584 0.56701,4.963 -0.190286,9.63917 0.795867,15.0409 0.865652,4.5602 2.010448,6.46443 2.282921,10.58539 0.266828,1.76415 2.535382,7.06582 3.140877,9.42468 1.83034,3.88697 2.284975,7.08994 4.676165,11.42949 3.44363,6.76872 7.0417,14.55395 12.57377,21.35499 1.57942,2.1064 6.05957,7.16793 7.58511,8.92181 3.60783,3.60372 5.72449,4.17484 9.81928,7.79498 0.42487,0.26683 3.12908,3.35126 5.95951,4.40985 4.69002,3.62374 8.7453,4.95275 13.20697,8.25013 8.94747,4.45603 12.20688,5.95899 21.09021,9.65508 5.13132,1.83239 12.2895,2.84223 14.86696,3.84284 4.90297,0.30428 9.87983,1.86985 15.03526,1.55735 5.79069,0.056 11.62551,-0.35868 17.44236,-0.88618 3.95265,-0.2463 9.07011,-0.43667 16.01535,-1.9422" /></g></svg>
