<?xml version="1.0" encoding="UTF-8" standalone="no"?>
<!-- Created with Inkscape (http://www.inkscape.org/) -->

<svg
   sodipodi:docname="application-x-arc.svg"
   inkscape:version="1.4.2 (ebf0e940d0, 2025-05-08)"
   sodipodi:version="0.32"
   id="svg2963"
   height="256mm"
   width="256mm"
   inkscape:output_extension="org.inkscape.output.svg.inkscape"
   version="1.1"
   viewBox="0 0 256 256"
   xml:space="preserve"
   xmlns:inkscape="http://www.inkscape.org/namespaces/inkscape"
   xmlns:sodipodi="http://sodipodi.sourceforge.net/DTD/sodipodi-0.dtd"
   xmlns:xlink="http://www.w3.org/1999/xlink"
   xmlns="http://www.w3.org/2000/svg"
   xmlns:svg="http://www.w3.org/2000/svg"
   xmlns:rdf="http://www.w3.org/1999/02/22-rdf-syntax-ns#"
   xmlns:cc="http://creativecommons.org/ns#"
   xmlns:dc="http://purl.org/dc/elements/1.1/"><title
     id="title8">Package generetic CLOSE</title><defs
     id="defs3"><linearGradient
       id="linearGradient7"
       inkscape:collect="always"><stop
         style="stop-color:#565656;stop-opacity:0;"
         offset="0"
         id="stop7" /><stop
         style="stop-color:#151515;stop-opacity:0.55101621;"
         offset="0.09685892"
         id="stop11" /><stop
         style="stop-color:#000000;stop-opacity:0.43376997;"
         offset="0.24463946"
         id="stop12" /><stop
         style="stop-color:#000000;stop-opacity:0.22523594;"
         offset="0.58946073"
         id="stop9" /><stop
         style="stop-color:#2b2b2b;stop-opacity:0;"
         offset="0.80921131"
         id="stop10" /><stop
         style="stop-color:#666666;stop-opacity:0;"
         offset="1"
         id="stop8" /></linearGradient><linearGradient
       id="linearGradient5"
       inkscape:collect="always"><stop
         style="stop-color:#b97a1b;stop-opacity:1"
         offset="0"
         id="stop5" /><stop
         style="stop-color:#eaba6f;stop-opacity:1"
         offset="1"
         id="stop6" /></linearGradient><radialGradient
       inkscape:collect="always"
       xlink:href="#linearGradient5060"
       id="radialGradient6719"
       gradientUnits="userSpaceOnUse"
       gradientTransform="matrix(-2.774389,0,0,1.969706,112.7623,-872.8854)"
       cx="605.71429"
       cy="486.64789"
       fx="605.71429"
       fy="486.64789"
       r="117.14286" /><linearGradient
       inkscape:collect="always"
       id="linearGradient5060"><stop
         style="stop-color:black;stop-opacity:1;"
         offset="0"
         id="stop5062" /><stop
         style="stop-color:black;stop-opacity:0;"
         offset="1"
         id="stop5064" /></linearGradient><radialGradient
       inkscape:collect="always"
       xlink:href="#linearGradient5060"
       id="radialGradient6717"
       gradientUnits="userSpaceOnUse"
       gradientTransform="matrix(2.774389,0,0,1.969706,-1891.633,-872.8854)"
       cx="605.71429"
       cy="486.64789"
       fx="605.71429"
       fy="486.64789"
       r="117.14286" /><linearGradient
       id="linearGradient5048"><stop
         style="stop-color:black;stop-opacity:0;"
         offset="0"
         id="stop5050" /><stop
         id="stop5056"
         offset="0.5"
         style="stop-color:black;stop-opacity:1;" /><stop
         style="stop-color:black;stop-opacity:0;"
         offset="1"
         id="stop5052" /></linearGradient><linearGradient
       inkscape:collect="always"
       xlink:href="#linearGradient5048"
       id="linearGradient6715"
       gradientUnits="userSpaceOnUse"
       gradientTransform="matrix(2.774389,0,0,1.969706,-1892.179,-872.8854)"
       x1="302.85715"
       y1="366.64789"
       x2="302.85715"
       y2="609.50507" /><linearGradient
       inkscape:collect="always"
       id="linearGradient2884"><stop
         style="stop-color:#000000;stop-opacity:1;"
         offset="0"
         id="stop2886" /><stop
         style="stop-color:#000000;stop-opacity:0;"
         offset="1"
         id="stop2888" /></linearGradient><linearGradient
       id="linearGradient2869"><stop
         style="stop-color:#ffffff;stop-opacity:1;"
         offset="0"
         id="stop2871" /><stop
         style="stop-color:#cccccc;stop-opacity:1.0000000;"
         offset="1.0000000"
         id="stop2873" /></linearGradient><linearGradient
       id="linearGradient4995"><stop
         id="stop4997"
         offset="0"
         style="stop-color:#de9523;stop-opacity:1;" /><stop
         id="stop4999"
         offset="1.0000000"
         style="stop-color:#a36d18;stop-opacity:1.0000000;" /></linearGradient><linearGradient
       id="linearGradient4987"
       inkscape:collect="always"><stop
         id="stop4989"
         offset="0"
         style="stop-color:#a0670c;stop-opacity:1;" /><stop
         id="stop4991"
         offset="1"
         style="stop-color:#a0670c;stop-opacity:0;" /></linearGradient><linearGradient
       id="linearGradient4979"><stop
         id="stop4981"
         offset="0.0000000"
         style="stop-color:#fbf0e0;stop-opacity:1.0000000;" /><stop
         id="stop4983"
         offset="1.0000000"
         style="stop-color:#f0ce99;stop-opacity:1.0000000;" /></linearGradient><linearGradient
       id="linearGradient4222"><stop
         id="stop4224"
         offset="0"
         style="stop-color:#ffffff;stop-opacity:1;" /><stop
         id="stop4226"
         offset="1.0000000"
         style="stop-color:#ffffff;stop-opacity:0.68639052;" /></linearGradient><linearGradient
       id="linearGradient4210"><stop
         id="stop4212"
         offset="0.0000000"
         style="stop-color:#eaba6f;stop-opacity:1.0000000;" /><stop
         id="stop4214"
         offset="1.0000000"
         style="stop-color:#b97a1b;stop-opacity:1.0000000;" /></linearGradient><linearGradient
       id="linearGradient4192"><stop
         id="stop4194"
         offset="0"
         style="stop-color:#e9b96e;stop-opacity:1;" /><stop
         id="stop4196"
         offset="1.0000000"
         style="stop-color:#f1d19e;stop-opacity:1.0000000;" /></linearGradient><linearGradient
       id="linearGradient4182"><stop
         id="stop4184"
         offset="0.0000000"
         style="stop-color:#a36d18;stop-opacity:1.0000000;" /><stop
         id="stop4186"
         offset="1.0000000"
         style="stop-color:#d79020;stop-opacity:1.0000000;" /></linearGradient><linearGradient
       inkscape:collect="always"
       xlink:href="#linearGradient4979"
       id="linearGradient2269"
       gradientUnits="userSpaceOnUse"
       x1="30.062469"
       y1="13.444801"
       x2="17.696169"
       y2="12.333632" /><linearGradient
       inkscape:collect="always"
       xlink:href="#linearGradient4995"
       id="linearGradient2274"
       gradientUnits="userSpaceOnUse"
       x1="36.288929"
       y1="14.661557"
       x2="47.065834"
       y2="15.267649" /><linearGradient
       inkscape:collect="always"
       xlink:href="#linearGradient4192"
       id="linearGradient2277"
       gradientUnits="userSpaceOnUse"
       gradientTransform="matrix(1,0,0,0.986355,0,0.316638)"
       x1="25.381256"
       y1="24.720648"
       x2="24.119167"
       y2="16.17037" /><linearGradient
       inkscape:collect="always"
       xlink:href="#linearGradient4182"
       id="linearGradient2280"
       gradientUnits="userSpaceOnUse"
       gradientTransform="matrix(1,0,0,1.039184,0,-0.04057054)"
       x1="16.148972"
       y1="12.636667"
       x2="34.193642"
       y2="12.636667" /><linearGradient
       inkscape:collect="always"
       xlink:href="#linearGradient4987"
       id="linearGradient2282"
       gradientUnits="userSpaceOnUse"
       x1="21.906841"
       y1="9.7577486"
       x2="22.071806"
       y2="16.020695" /><linearGradient
       inkscape:collect="always"
       xlink:href="#linearGradient4222"
       id="linearGradient2285"
       gradientUnits="userSpaceOnUse"
       x1="18.706615"
       y1="19.912336"
       x2="30.014812"
       y2="47.388485" /><linearGradient
       inkscape:collect="always"
       xlink:href="#linearGradient4210"
       id="linearGradient2288"
       gradientUnits="userSpaceOnUse"
       x1="24.990499"
       y1="34.004856"
       x2="24.990499"
       y2="22.585211" /><radialGradient
       inkscape:collect="always"
       xlink:href="#linearGradient2884"
       id="radialGradient2896"
       gradientUnits="userSpaceOnUse"
       gradientTransform="matrix(1.353283,0,0,0.635968,-8.45889,3.41347)"
       cx="23.94367"
       cy="20.800287"
       fx="23.94367"
       fy="20.800287"
       r="6.4286141" /><radialGradient
       inkscape:collect="always"
       xlink:href="#linearGradient2869"
       id="radialGradient2898"
       gradientUnits="userSpaceOnUse"
       gradientTransform="matrix(0.74942,0,0,0.394055,6.226925,10.09253)"
       cx="21.578989"
       cy="9.0255041"
       fx="21.578989"
       fy="9.0255041"
       r="9.586297" /><radialGradient
       inkscape:collect="always"
       xlink:href="#linearGradient2884"
       id="radialGradient2906"
       gradientUnits="userSpaceOnUse"
       gradientTransform="matrix(1.353283,0,0,0.635968,-8.45889,3.41347)"
       cx="23.94367"
       cy="20.800287"
       fx="23.94367"
       fy="20.800287"
       r="6.4286141" /><radialGradient
       inkscape:collect="always"
       xlink:href="#linearGradient2869"
       id="radialGradient2908"
       gradientUnits="userSpaceOnUse"
       gradientTransform="matrix(0.74942,0,0,0.394055,6.226925,10.09253)"
       cx="21.578989"
       cy="9.8105707"
       fx="21.578989"
       fy="9.8105707"
       r="9.586297" /><radialGradient
       inkscape:collect="always"
       xlink:href="#linearGradient5"
       id="radialGradient6"
       cx="35.309971"
       cy="19.082172"
       fx="35.309971"
       fy="19.082172"
       r="15.379377"
       gradientTransform="matrix(0.94811731,0.09422878,-0.07887936,0.79367356,3.3371659,-4.2542517)"
       gradientUnits="userSpaceOnUse" /><linearGradient
       inkscape:collect="always"
       xlink:href="#linearGradient7"
       id="linearGradient8"
       x1="23.564743"
       y1="14.577733"
       x2="23.564743"
       y2="21.833618"
       gradientUnits="userSpaceOnUse" /></defs><sodipodi:namedview
     inkscape:window-y="142"
     inkscape:window-x="392"
     inkscape:window-height="706"
     inkscape:window-width="872"
     stroke="#c17d11"
     fill="#e9b96e"
     inkscape:showpageshadow="false"
     inkscape:document-units="px"
     inkscape:grid-bbox="true"
     showgrid="false"
     inkscape:current-layer="g1"
     inkscape:cy="204.24999"
     inkscape:cx="133.99999"
     inkscape:zoom="2.0000001"
     inkscape:pageshadow="2"
     inkscape:pageopacity="0.0"
     borderopacity="0.16470588"
     bordercolor="#666666"
     pagecolor="#ffffff"
     id="base"
     inkscape:pagecheckerboard="0"
     inkscape:deskcolor="#d1d1d1" /><metadata
     id="metadata4"><rdf:RDF><cc:Work
         rdf:about=""><dc:format>image/svg+xml</dc:format><dc:type
           rdf:resource="http://purl.org/dc/dcmitype/StillImage" /><dc:title>Package generetic CLOSE</dc:title><dc:creator><cc:Agent><dc:title>Jakub Steiner</dc:title></cc:Agent></dc:creator><dc:source>http://jimmac.musichall.cz/</dc:source><dc:subject><rdf:Bag><rdf:li>package</rdf:li><rdf:li>archive</rdf:li><rdf:li>tarball</rdf:li><rdf:li>tar</rdf:li><rdf:li>bzip</rdf:li><rdf:li>gzip</rdf:li><rdf:li>zip</rdf:li><rdf:li>arj</rdf:li><rdf:li>tar</rdf:li><rdf:li>jar</rdf:li></rdf:Bag></dc:subject><cc:license
           rdf:resource="http://creativecommons.org/publicdomain/zero/1.0/" /><dc:publisher><cc:Agent><dc:title>Blackcrack</dc:title></cc:Agent></dc:publisher><dc:relation>Package x generetic</dc:relation><dc:description>https://commons.wikimedia.org/wiki/File:Package-x-generic.svg
20250708 me Blackcrack updated the picture for have a closed generetic package for use in other diffrent pictures because the balls or Eggs be nothing for the future if need a closed Tango Package.
But the open Package is pretty nice for opened Pack or a Softwareinstaller
Finaly Mimetypes from Blackcrack</dc:description><dc:contributor><cc:Agent><dc:title>Blackcrack</dc:title></cc:Agent></dc:contributor></cc:Work><cc:License
         rdf:about="http://creativecommons.org/publicdomain/zero/1.0/"><cc:permits
           rdf:resource="http://creativecommons.org/ns#Reproduction" /><cc:permits
           rdf:resource="http://creativecommons.org/ns#Distribution" /><cc:permits
           rdf:resource="http://creativecommons.org/ns#DerivativeWorks" /></cc:License></rdf:RDF></metadata><g
     id="g1"
     transform="matrix(6.5539364,0,0,6.5539364,-24.83285,-32.455652)"><g
       style="display:inline"
       transform="matrix(0.01753033,0,0,0.01737461,40.484138,37.550639)"
       id="g6707"><rect
         style="color:#000000;display:inline;overflow:visible;visibility:visible;opacity:0.402062;fill:url(#linearGradient6715);fill-opacity:1;fill-rule:nonzero;stroke:none;stroke-width:1;stroke-linecap:round;stroke-linejoin:miter;stroke-miterlimit:4;stroke-dasharray:none;stroke-dashoffset:0;stroke-opacity:1;marker:none;marker-start:none;marker-mid:none;marker-end:none"
         id="rect6709"
         width="1339.6335"
         height="478.35718"
         x="-1559.2523"
         y="-150.69685" /><path
         style="color:#000000;display:inline;overflow:visible;visibility:visible;opacity:0.402062;fill:url(#radialGradient6717);fill-opacity:1;fill-rule:nonzero;stroke:none;stroke-width:1;stroke-linecap:round;stroke-linejoin:miter;stroke-miterlimit:4;stroke-dasharray:none;stroke-dashoffset:0;stroke-opacity:1;marker:none;marker-start:none;marker-mid:none;marker-end:none"
         d="m -219.61876,-150.68038 c 0,0 0,478.33079 0,478.33079 142.874166,0.90045 345.40022,-107.16966 345.40014,-239.196175 0,-132.026537 -159.436816,-239.134595 -345.40014,-239.134615 z"
         id="path6711"
         sodipodi:nodetypes="cccc" /><path
         sodipodi:nodetypes="cccc"
         id="path6713"
         d="m -1559.2523,-150.68038 c 0,0 0,478.33079 0,478.33079 -142.8742,0.90045 -345.4002,-107.16966 -345.4002,-239.196175 0,-132.026537 159.4368,-239.134595 345.4002,-239.134615 z"
         style="color:#000000;display:inline;overflow:visible;visibility:visible;opacity:0.402062;fill:url(#radialGradient6719);fill-opacity:1;fill-rule:nonzero;stroke:none;stroke-width:1;stroke-linecap:round;stroke-linejoin:miter;stroke-miterlimit:4;stroke-dasharray:none;stroke-dashoffset:0;stroke-opacity:1;marker:none;marker-start:none;marker-mid:none;marker-end:none" /></g><rect
       ry="2.394444"
       rx="2.4241352"
       y="15.275433"
       x="7.4623847"
       height="23.112879"
       width="31.978371"
       id="rect3115"
       style="color:#000000;display:block;overflow:visible;visibility:visible;opacity:1;fill:url(#linearGradient2288);fill-opacity:1;fill-rule:nonzero;stroke:#a0670c;stroke-width:1;stroke-linecap:butt;stroke-linejoin:miter;stroke-miterlimit:4;stroke-dasharray:none;stroke-dashoffset:0;stroke-opacity:1;marker:none;marker-start:none;marker-mid:none;marker-end:none" /><rect
       style="color:#000000;display:block;overflow:visible;visibility:visible;opacity:0.481013;fill:none;fill-opacity:1;fill-rule:nonzero;stroke:url(#linearGradient2285);stroke-width:1;stroke-linecap:butt;stroke-linejoin:miter;stroke-miterlimit:4;stroke-dasharray:none;stroke-dashoffset:0;stroke-opacity:1;marker:none;marker-start:none;marker-mid:none;marker-end:none"
       id="rect4220"
       width="29.804138"
       height="21.075352"
       x="8.4989996"
       y="16.243698"
       rx="1.2846882"
       ry="1.2846882" /><g
       id="g2"
       inkscape:label="open"
       style="display:none"><path
         sodipodi:nodetypes="ccccc"
         id="path4162"
         d="M 8.7697819,16.547178 13.819731,9.7363408 32.615291,9.6353255 37.835264,16.408941 Z"
         style="display:inline;fill:url(#linearGradient2280);fill-opacity:1;fill-rule:evenodd;stroke:url(#linearGradient2282);stroke-width:1;stroke-linecap:butt;stroke-linejoin:miter;stroke-miterlimit:4;stroke-dasharray:none;stroke-opacity:1" /><path
         sodipodi:nodetypes="ccccc"
         id="path4164"
         d="m 38.276321,16.325703 5.192948,7.194661 H 3.9609455 l 4.6640688,-7.199601 z"
         style="color:#000000;display:inline;overflow:visible;visibility:visible;opacity:1;fill:url(#linearGradient2277);fill-opacity:1;fill-rule:nonzero;stroke:#a0670c;stroke-width:1;stroke-linecap:round;stroke-linejoin:round;stroke-miterlimit:4;stroke-dasharray:none;stroke-dashoffset:0;stroke-opacity:1;marker:none;marker-start:none;marker-mid:none;marker-end:none" /><path
         sodipodi:nodetypes="ccccc"
         id="path4178"
         d="m 32.849333,9.6141009 4.682886,6.9222691 9.033616,4.384827 -8.114506,-8.912652 z"
         style="color:#000000;display:inline;overflow:visible;visibility:visible;opacity:1;fill:url(#linearGradient2274);fill-opacity:1;fill-rule:nonzero;stroke:#a0670c;stroke-width:1;stroke-linecap:round;stroke-linejoin:round;stroke-miterlimit:4;stroke-dasharray:none;stroke-dashoffset:0;stroke-opacity:1;marker:none;marker-start:none;marker-mid:none;marker-end:none" /><path
         sodipodi:nodetypes="ccccc"
         style="color:#000000;display:inline;overflow:visible;visibility:visible;opacity:1;fill:#f8e8cf;fill-opacity:1;fill-rule:nonzero;stroke:#a0670c;stroke-width:1;stroke-linecap:round;stroke-linejoin:round;stroke-miterlimit:4;stroke-dasharray:none;stroke-dashoffset:0;stroke-opacity:1;marker:none;marker-start:none;marker-mid:none;marker-end:none"
         d="M 13.617702,9.7151161 9.6419233,16.435355 0.50729183,20.820182 8.6217973,11.90753 Z"
         id="path4180" /><path
         style="color:#000000;display:inline;overflow:visible;visibility:visible;opacity:1;fill:none;fill-opacity:1;fill-rule:nonzero;stroke:#f4e3ca;stroke-width:1;stroke-linecap:butt;stroke-linejoin:miter;stroke-miterlimit:4;stroke-dasharray:none;stroke-dashoffset:0;stroke-opacity:1;marker:none;marker-start:none;marker-mid:none;marker-end:none"
         d="m 37.024959,16.43605 4.453912,6.056961 H 5.6482792 l 4.141019,-6.180317 z"
         id="path4954"
         sodipodi:nodetypes="ccccc" /><g
         id="g2892"
         transform="matrix(0.676538,0,0,1,3.994869,0)"
         style="display:inline"><path
           style="color:#000000;display:inline;overflow:visible;visibility:visible;opacity:1;fill:url(#radialGradient2896);fill-opacity:1;fill-rule:evenodd;stroke:none;stroke-width:2;stroke-linecap:round;stroke-linejoin:round;stroke-miterlimit:4;stroke-dasharray:none;stroke-dashoffset:0;stroke-opacity:1;marker:none;marker-start:none;marker-mid:none;marker-end:none"
           d="m 23.926073,12.101621 c -5.338008,0 -9.643504,2.028188 -9.643504,4.540192 h 19.322204 c 0,-2.512004 -4.340692,-4.540192 -9.6787,-4.540192 z"
           id="path2882" /><path
           id="path2141"
           d="m 23.931961,12.861168 c -3.551975,0 -6.416904,1.34958 -6.416904,3.021098 h 12.857228 c 0,-1.671518 -2.888349,-3.021098 -6.440324,-3.021098 z"
           style="color:#000000;display:inline;overflow:visible;visibility:visible;opacity:1;fill:url(#radialGradient2898);fill-opacity:1;fill-rule:evenodd;stroke:none;stroke-width:2;stroke-linecap:round;stroke-linejoin:round;stroke-miterlimit:4;stroke-dasharray:none;stroke-dashoffset:0;stroke-opacity:1;marker:none;marker-start:none;marker-mid:none;marker-end:none" /></g><g
         transform="matrix(0.676538,0,0,1,10.49487,0)"
         id="g2900"
         style="display:inline"><path
           id="path2902"
           d="m 23.926073,12.101621 c -5.338008,0 -9.643504,2.028188 -9.643504,4.540192 h 19.322204 c 0,-2.512004 -4.340692,-4.540192 -9.6787,-4.540192 z"
           style="color:#000000;display:inline;overflow:visible;visibility:visible;opacity:1;fill:url(#radialGradient2906);fill-opacity:1;fill-rule:evenodd;stroke:none;stroke-width:2;stroke-linecap:round;stroke-linejoin:round;stroke-miterlimit:4;stroke-dasharray:none;stroke-dashoffset:0;stroke-opacity:1;marker:none;marker-start:none;marker-mid:none;marker-end:none" /><path
           style="color:#000000;display:inline;overflow:visible;visibility:visible;opacity:1;fill:url(#radialGradient2908);fill-opacity:1;fill-rule:evenodd;stroke:none;stroke-width:2;stroke-linecap:round;stroke-linejoin:round;stroke-miterlimit:4;stroke-dasharray:none;stroke-dashoffset:0;stroke-opacity:1;marker:none;marker-start:none;marker-mid:none;marker-end:none"
           d="m 23.931961,12.861168 c -3.551975,0 -6.416904,1.34958 -6.416904,3.021098 h 12.857228 c 0,-1.671518 -2.888349,-3.021098 -6.440324,-3.021098 z"
           id="path2904" /></g><path
         style="display:inline;opacity:0.879747;fill:none;fill-opacity:1;fill-rule:evenodd;stroke:url(#linearGradient2269);stroke-width:1;stroke-linecap:round;stroke-linejoin:round;stroke-miterlimit:4;stroke-dasharray:none;stroke-opacity:1"
         d="M 9.6523127,16.371803 13.036643,10.59302 33.514841,10.5178 37.356782,16.369881 Z"
         id="path4966"
         sodipodi:nodetypes="ccccc" /></g><g
       id="g29"
       inkscape:label="floppy525"
       style="display:inline"
       transform="matrix(0.0856803,0,0,0.0856803,6.1958704,17.568295)"><g
         id="g41"
         style="display:inline"
         inkscape:label="floppy525"><path
           id="rect41"
           style="display:inline;fill:#a0a0a4;stroke-width:0.0304921;stroke-linecap:square;stroke-opacity:0.106272"
           d="M 131.52187,30.582369 H 253.32101 V 150.79053 H 131.52187 Z"
           transform="matrix(1.0162095,0,0,1.0162095,5.2996694,-40.48951)" /><path
           id="rect38"
           style="display:inline;fill:#ffffff;stroke-width:0.0254052;stroke-linecap:square;stroke-opacity:0.106272"
           d="m 143.44449,-9.4114161 h 29.64096 V 25.978091 h -29.64096 z" /><path
           id="rect39"
           style="display:inline;fill:#d7d7d7;stroke-width:0.0219348;stroke-linecap:square;stroke-opacity:0.106272"
           d="m 172.90581,-9.4114161 h 50.61418 L 187.33074,25.978091 h -14.42493 z"
           sodipodi:nodetypes="ccccc" /><path
           id="rect40"
           style="display:inline;fill:#cccc99;fill-opacity:1;stroke-width:0.0254052;stroke-linecap:square;stroke-opacity:0.106272"
           d="m 223.38526,-9.4114161 h 10.73362 L 198.95392,25.798448 h -11.42175 z"
           sodipodi:nodetypes="ccccc" /><path
           id="rect82"
           style="display:inline;fill:#cccc66;stroke-width:0.025;stroke-linecap:square;stroke-opacity:0.106272"
           d="m 225.39905,30.312499 -35.08655,35.0625 h 49.23437 l 0.0781,-35.0625 z m 3.55603,1.361328 h 5.53124 v 5.591797 h -5.54296 z m -0.0234,10.681641 h 5.75781 v 5.822265 h -5.76953 z M 218.48047,53.11914 h 5.18359 v 5.242187 h -5.19531 z"
           sodipodi:nodetypes="cccccccccccccccccccc"
           transform="matrix(1.0162095,0,0,1.0162095,5.2996694,-40.48951)" /><path
           id="rect42"
           style="display:inline;fill:#ffff99;fill-opacity:1;stroke-width:0.0227302;stroke-linecap:square;stroke-opacity:0.106272"
           d="m 137.78711,31.6875 v 5.759766 h 6.02148 v 4.833984 h -5.98632 v 5.935547 h 5.98632 v 4.878906 h -5.94531 v 5.867188 h 5.94531 v 4.941406 h 5.14453 v -4.941406 h 5.98047 v 4.941406 h 9.74024 v -4.941406 h 5.36328 v 4.941406 h 5.14453 v -4.941406 h 5.85547 v 4.941406 h 5.14453 v -4.941406 h 5.29297 v 4.941406 h 5.14453 v -4.941406 h 5.76172 v 4.941406 h 5.14453 v -4.941406 h 5.83399 v -5.808594 h 5.2246 v -4.933594 h 5.00782 v 4.933594 h 5.36718 v -5.007813 h -4.86132 V 42.375 h 4.96484 v -5.009766 h -4.875 V 31.6875 h -6.02344 v 5.677734 H 213.625 V 31.6875 h -6.02344 v 5.677734 h -5.06054 v 4.894532 h -5.75391 v 5.886718 h -5.00195 V 42.375 H 196.75 v -4.818359 h 5.75 V 31.6875 h -6.02344 v 5.677734 H 191.6543 V 31.6875 h -31.8711 v 5.677734 h -4.92382 V 31.6875 h -6.0254 v 5.65625 h -4.94921 V 31.6875 Z m 11.16601,5.869141 h 5.8379 v 4.703125 h -5.8379 z m 58.73438,0 h 5.66602 v 4.703125 h -5.66602 z m 10.8125,0 h 5.41602 v 4.703125 H 218.5 Z m -58.56445,0.08789 h 5.48047 v 4.615235 h -5.47657 v 5.886718 h -4.92383 V 42.375 h 4.91993 z m 26.375,0 h 5.29297 v 4.615235 h -5.29297 z m -42.38867,4.707031 h 4.9707 v 5.794922 h -4.9707 z m 36.47265,0.02344 h 5.26758 v 5.771484 h -5.25781 v 4.949219 h -4.68555 V 48.23633 h 4.67578 z m 22.51563,0 h 4.56445 v 5.771484 h -4.56445 z m 10.6875,0 h 4.37695 v 5.771484 h -4.37695 z m -64.64454,5.845703 h 5.9961 v 4.875 h -5.9961 z m 36.81836,0 h 5.82032 v 4.875 h -5.82032 z m 11.1875,0 h 5.57032 v 4.933594 h 4.80273 v 5.742187 h -4.84765 v -5.800781 h -5.5254 z m 10.9375,0 h 5.32032 v 4.875 h -5.32032 z m -47.80273,0.01563 h 5.23047 v 4.859375 h -5.23047 z m -16.20313,4.917969 h 5.05079 v 5.742187 h -5.05079 z m 11.07813,0 h 5.03516 v 5.742187 h -5.03516 z m 15.1875,0 h 4.92578 v 5.742187 h -4.92578 z m 10.95313,0 h 4.66015 v 5.742187 h -4.66015 z m 10.6875,0 h 4.66015 v 5.742187 h -4.66015 z"
           sodipodi:nodetypes="cccccccccccccccccccccccccccccccccccccccccccccccccccccccccccccccccccccccccccccccccccccccccccccccccccccccccccccccccccccccccccccccccccccccccccccccccccccccccccccccccccccccccccccccccccccccc"
           transform="matrix(1.0162095,0,0,1.0162095,5.2996694,-40.48951)" /><path
           id="rect84"
           style="display:inline;fill:#a0a0a4;fill-opacity:1;stroke-width:0.025;stroke-linecap:square;stroke-opacity:0.106272"
           d="M 238.82617,31.554688 V 63.599609 H 137.01953 v 6.050782 l 107.72852,0.02148 V 31.554688 Z"
           sodipodi:nodetypes="ccccccc"
           transform="matrix(1.0162095,0,0,1.0162095,5.2996694,-40.48951)" /><path
           id="rect86"
           style="display:inline;fill:#868686;fill-opacity:1;stroke-width:0.0250123;stroke-linecap:square;stroke-opacity:0.106272"
           d="m 132.5,31.5 v 117.375 h 5.8808 V 148.75 H 244.48549 V 68.625 H 138.3808 V 31.5 Z"
           transform="matrix(1.0162095,0,0,1.0162095,5.2996694,-40.48951)" /><path
           id="rect85"
           style="display:inline;fill:#777777;fill-opacity:1;stroke-width:0.025;stroke-linecap:square;stroke-opacity:0.106272"
           d="M 244.5,31.375 V 149.25 h 5.375 V 31.375 Z m -106.25,43 v 5.25 h 5.375 v -5.25 z"
           sodipodi:nodetypes="cccccccccc"
           transform="matrix(1.0162095,0,0,1.0162095,5.2996694,-40.48951)" /><path
           id="path1-2"
           style="display:inline;fill:#777777;fill-opacity:1;stroke-width:0.0246012;stroke-linecap:square;stroke-opacity:0.106272"
           d="m 250.38672,74.400389 -9.97071,0.01953 V 80.3457 h -6.36328 V 74.431637 L 180.05469,74.5332 v 5.03125 h -5.09961 v -5.123047 h -5.28907 v 5.125 h -5.0664 v -5.056641 h -5.28907 v 5.048828 h -5.1914 v -5.097656 h -5.28906 v 5.107422 h -5.24024 v 5.064453 h -11.63476 v 5.166016 h 11.63476 v 5.078125 h -5.22265 v 4.996093 h -6.64649 v 5.166017 h 6.60938 v 5.09961 h -6.65625 v 5.16602 h 6.66992 v 5.05273 h -6.75 v 28.85352 h 6.75 v 0.15234 h 5.21484 v 0.0449 h 5.22461 v 0.0742 h 5.2832 v 0.0586 h 5.29102 v -0.0586 h 5.28711 v -0.11914 h 5.21484 4.97071 v 0.11914 h 16 v 0.0488 h 59.57226 z M 169.7207,79.60742 h 5.08399 v 5.082032 h -5.08399 z m -20.8418,0.01953 h 5.19336 v 5.042968 h -5.19336 z m 10.48243,0.04883 h 5.07031 v 4.984375 h -5.07031 z m -5.22461,5.050781 h 5.13867 v 5.064453 h -5.13867 z m 20.76953,0.0039 h 5.14844 v 4.908203 h -5.14844 z m -10.3418,0.002 h 5.05274 v 5.058594 h -5.05274 z m -20.91406,0.002 h 5.19726 v 5.013671 h -5.19726 z m 15.70898,5.091796 h 5.16602 v 5.050782 h -5.16602 z m -10.48047,0.0098 h 5.19141 v 5.041016 h -5.19141 z m 20.93555,0.01953 h 5.01563 v 5.021485 h -5 v 4.949218 h -5.25196 v -4.86914 h 5.23633 z m 21.97266,0.84375 h 5.36718 v 5.541016 h -5.36718 z m -48.13086,4.214844 h 5.16406 v 4.958984 h -5.16406 z m 10.45312,0.04297 h 5.17969 v 4.86914 h -5.17969 z m -15.66211,5.085939 h 5.10157 v 4.93945 h -5.10157 z m 10.39063,0 h 5.22851 v 4.93945 h -5.22851 z m 10.51953,0 h 5.21289 v 4.93945 h -5.21289 z m -15.73828,4.99609 h 5.16406 v 5.08399 h -5.16406 z m -5.17188,5.10938 h 5.11133 v 5.14648 h -5.11133 z"
           transform="matrix(1.0162095,0,0,1.0162095,5.2996694,-40.48951)" /><path
           id="rect117"
           style="display:inline;fill:#5f5f5f;fill-opacity:1;stroke-width:0.0257938;stroke-linecap:square;stroke-opacity:0.106272"
           d="m 244.43555,74.183594 v 5.5 h 5.8125 v -5.5 z m -42.49805,0.09766 v 5.5 h 5.8125 v -5.5 z m -21.5,0.06641 V 79.3125 h -5.375 v 5.0625 h -4.6875 v 11.3125 h 4.875 v -10.875 h 5.625 v 16.59375 h 4.96875 v 5.21875 h 5.8125 v -5.5 H 186.6875 V 85.3125 h 15.4375 v -5.5 h -15.5 v -5.464844 z m 42.51953,4.875 v 5.5 h 5.75 v 5.46875 h 5.59375 V 95.3125 h -5.61328 v 5.5 H 234.5 v -5.402344 h 5.45703 v 15.962894 h -5.05859 v -5.23243 h -10.82813 v -5.34765 h -5.45508 V 85.392578 h -5.03906 v -5.833984 h -5.8125 v 10.802734 h 5.03906 v 10.498052 h -5.03906 v 5.39257 h -5.65625 v 5.5 h 5.67578 v 5.32422 h 5.8125 v -5.43555 h 5.30469 v -5.34765 h 4.83789 v 5.34765 h 10.74805 v 5.04493 h -16.0625 v 5.32031 h -5.7793 v 5.5 h 5.61328 v 5.19531 h -5.45703 v -0.0449 h -5.12695 v -5.34766 h -5.8125 v 5.5 h 5.12695 v 16.92774 h 5.8125 v -11.53516 h 10.25391 v -5.34765 h 5.78906 v -5.29297 h 5.45508 v 5.3125 h -5.53125 v 10.625 h -10.4375 v 6.09375 h 10.4375 v 0.0312 h 5.8125 v -6.09375 h 5.65625 v 6.15625 h 11.34375 V 133.0293 h -6.4375 v -5.25 h 6.1875 v -5.5 h -0.0625 v -5.5 h -10.96875 v -5.35938 h 5.4707 v -0.0156 h 5.56055 v -5.5 h -5.56055 V 95.351562 h 5.56055 v -5.5 h -5.70117 v -5.214843 h -5.8125 v 5.273437 h -5.29688 v -5.21875 h -5.75 v -5.46875 z m -42.08203,0.625 H 186.5 V 84.6875 h -5.625 z m 59.23828,10.289063 h 5.4043 V 95.3125 h -5.4043 z m -26.53711,11.273443 h 4.68164 v 4.73046 h -4.68164 z m -5.65625,4.94922 h 5.16797 v 5.21679 h -5.16797 z m -6.05859,10.43164 v 5.5 h 5.8125 v -5.5 z m 32.8125,0.082 h 5.46875 v 5.1875 h -5.46875 z m -54.11328,5.31054 v 5.5 h 5.8125 v -5.5 z m 37.89648,0.002 h 10.12305 v 5.16797 h -10.12305 z m 21.8418,0.0937 h 4.5625 v 5.25 h -4.5625 z m -5.71875,10.75 h 5.65625 v 5 h -5.65625 z m -37.53516,5.32812 v 10.93555 h 5.8125 v -10.93555 z m -26.91406,0.0899 v 5.3457 h -5.25977 v 5.5 h 5.8125 v -5.3457 h 5.25977 v -5.5 z m 10.42969,0 v 5.5 h 5.39062 v 5.3457 h 5.8125 v -5.5 h -5.39062 v -5.3457 z"
           transform="matrix(1.0162095,0,0,1.0162095,5.2996694,-40.48951)" /><path
           id="rect164"
           style="display:inline;fill:#f1f1f1;fill-opacity:1;stroke-width:0.025;stroke-linecap:square;stroke-opacity:0.106272"
           d="m 207.53516,95.371094 v 5.646486 h -4.92774 v 5.46875 h -5.28125 v 5.83398 h 5.47852 v -5.46875 h 5.28125 v -5.64648 h 4.92968 v -5.833986 z m -10.20899,21.302736 v 21.70898 h 5.47852 v -21.70898 z"
           transform="matrix(1.0162095,0,0,1.0162095,5.2996694,-40.48951)" /><path
           id="rect166"
           style="display:inline;fill:#c0c0c0;fill-opacity:1;stroke-width:0.025;stroke-linecap:square;stroke-opacity:0.106272"
           d="m 207.4375,90.25 v 5.208984 h 5.48047 V 90.25 Z M 192.25,106.5 v 5.83398 h 5.48047 V 106.5 Z"
           transform="matrix(1.0162095,0,0,1.0162095,5.2996694,-40.48951)" /><path
           id="rect166-5"
           style="display:inline;fill:#999999;stroke-width:0.025;stroke-linecap:square;stroke-opacity:0.106272"
           d="m 186.46384,106.50303 h 5.85507 v 5.83363 h -5.85507 z"
           transform="matrix(1.0162095,0,0,1.0162095,5.2996694,-40.48951)" /><path
           id="rect166-6"
           style="display:inline;fill:#333333;fill-opacity:1;stroke-width:0.025;stroke-linecap:square;stroke-opacity:0.106272"
           d="m 202.14912,79.707031 v 5.833985 h 5.48047 v -5.833985 z m -21.09765,21.103519 v 5.83203 h 5.48047 v -5.83203 z"
           sodipodi:nodetypes="cccccccccc"
           transform="matrix(1.0162095,0,0,1.0162095,5.2996694,-40.48951)" /><path
           id="rect166-2"
           style="display:inline;fill:#040404;stroke-width:0.0429506;stroke-linecap:square;stroke-opacity:0.106272"
           d="m 186.18001,74.125 h 16.17507 v 5.833631 h -16.17507 z"
           transform="matrix(1.0162095,0,0,1.0162095,5.2996694,-40.48951)" /><path
           id="rect166-2-9"
           style="display:inline;fill:#040404;stroke-width:0.025;stroke-linecap:square;stroke-opacity:0.106272"
           d="m 180.9375,79.3125 h 5.48008 v 5.833631 h -5.48008 z"
           transform="matrix(1.0162095,0,0,1.0162095,5.2996694,-40.48951)" /><path
           id="rect167"
           style="display:inline;fill:#040404;stroke-width:0.0413695;stroke-linecap:square;stroke-opacity:0.106272"
           d="m 175.6875,84.984375 h 5.48008 v 15.974255 h -5.48008 z m 14.71248,31.690075 h 6.91758 v 21.84925 h -6.91758 z"
           sodipodi:nodetypes="cccccccccc"
           transform="matrix(1.0162095,0,0,1.0162095,5.2996694,-40.48951)" /><path
           id="rect168"
           style="display:inline;fill:#666666;fill-opacity:1;stroke-width:0.025;stroke-linecap:square;stroke-opacity:0.106272"
           d="m 127.8125,26.375 v 5.3125 h 0.0234 v 117.58008 h 5.3125 V 31.6875 H 250.0625 V 26.375 Z"
           transform="matrix(1.0162095,0,0,1.0162095,5.2996694,-40.48951)" /><path
           id="rect169"
           style="display:inline;fill:#040404;fill-opacity:1;stroke-width:0.104197;stroke-linecap:square;stroke-opacity:0.106272"
           d="M 250,26.375 V 149.08594 H 127.48633 v 5.5 h 128.11328 v -5.5 H 255.5 V 26.375 Z"
           transform="matrix(1.0162095,0,0,1.0162095,5.2996694,-40.48951)" /></g></g><g
       id="g3"
       inkscape:label="close"><g
         id="rect2"
         style="display:inline;opacity:1"><path
           style="baseline-shift:baseline;display:inline;overflow:visible;fill:url(#radialGradient6);stroke-width:0.999943;stroke-linecap:round;stroke-linejoin:round;stroke-dasharray:none;paint-order:fill markers stroke;enable-background:accumulate;stop-color:#000000;stop-opacity:1"
           d="m 12.157973,10.53458 c 0.338152,-0.38837 0.739305,-0.7487459 1.339437,-0.7351148 l 20.454569,-0.00625 c 0.438471,0.018128 0.857835,0.1291867 1.090746,0.5075088 l 3.744764,5.66038 C 38.340053,15.24692 37.398702,15.209196 36.750151,15.258294 L 9.685108,15.280267 C 9.2028243,15.229657 8.4643186,15.39282 8.0287354,16.12235 Z"
           id="path4" /><path
           style="baseline-shift:baseline;display:inline;overflow:visible;opacity:1;vector-effect:none;fill:#ffffff;fill-opacity:0.557704;stroke-width:4.28768;stroke-linecap:round;stroke-linejoin:round;paint-order:fill markers stroke;enable-background:accumulate;stop-color:#000000;stop-opacity:1"
           d="M 180.16821,54.165873 74.970221,54.0257 74.044379,54.0333 c -3.779881,-0.07032 -4.307542,0.717614 -6.037399,2.345178 -0.04194,0.03657 -0.08206,0.0745 -0.120279,0.113706 l -17.482688,22.747321 0.05552,0.03027 c -0.04685,0.06101 -0.130131,0.05864 -0.175794,0.121274 -1.406901,2.022203 3.183533,4.1625 4.918487,2.319242 l 0.129535,-0.151583 c 0.0054,-0.0073 0.01307,-0.0078 0.01852,-0.01513 1.559221,-2.117642 4.093547,-2.48138 5.625465,-2.349686 0.07996,0.0061 0.160263,0.0087 0.240562,0.0078 l 128.210612,-0.0836 c 0.0587,-7.49e-4 0.11734,-0.0033 0.17579,-0.0078 1.40933,-0.0874 3.07579,-0.07719 4.45967,0.204672 1.38096,0.281241 2.38506,0.757967 3.0718,1.652362 0.002,0.0019 0.008,-0.0019 0.01,0 l 0.028,0.03803 c 1.67631,1.981356 5.34599,0.04723 3.83975,-2.023762 -0.0118,-0.01552 -0.0341,-0.01474 -0.0464,-0.03027 l 0.0185,-0.0078 -13.69986,-21.91275 c -1.64063,-2.182653 -4.61177,-2.783596 -7.01355,-2.864942 -0.0339,-6.19e-4 -0.0679,-0.0021 -0.10175,0 z m -0.0925,3.744346 c 1.75251,0.05934 2.75532,0.322764 3.32161,1.076305 0.0119,0.01785 0.0242,0.03553 0.0369,0.05305 l 9.15449,15.773624 C 191.36986,74.739468 61.216203,74.214465 61.216203,74.214465 l 0.240561,0.0078 c -0.207704,-0.01785 -0.492552,0.09741 -0.712444,0.09097 l 8.406368,-13.66699 c 1.473953,-1.386792 2.664481,-2.248729 4.570692,-2.213258 0.01851,1.84e-4 0.03701,1.84e-4 0.05552,0 z"
           id="path6"
           inkscape:label="white"
           sodipodi:nodetypes="cccccccccccccccsccccccccscccccccccccc"
           transform="matrix(0.18669584,0,0,0.18669584,0.00606022,0.13144937)" /><path
           style="baseline-shift:baseline;display:inline;overflow:visible;vector-effect:none;fill:#a0670c;stroke-linecap:round;stroke-linejoin:round;paint-order:fill markers stroke;enable-background:accumulate;stop-color:#000000;stop-opacity:1"
           d="m 33.951172,9.3105469 -20.453125,0.00586 0.0098,0.00195 c -0.797909,-0.01812 -1.347763,0.481002 -1.712925,0.9003931 a 0.48219022,0.48219022 0 0 0 -0.02539,0.0293 l -4.128906,5.587891 0.011719,0.0078 c -0.00989,0.01572 -0.02747,0.01511 -0.037109,0.03125 a 0.48219022,0.48219022 0 0 0 0.8007812,0.533203 l 0.027344,-0.03906 c 0.00114,-0.0019 0.00276,-0.002 0.00391,-0.0039 0.3291416,-0.545675 0.8641219,-0.639403 1.1875,-0.605468 a 0.48219022,0.48219022 0 0 0 0.050781,0.002 L 36.75,15.740234 a 0.48219022,0.48219022 0 0 0 0.03711,-0.002 c 0.297499,-0.02252 0.649281,-0.01989 0.941407,0.05274 0.291511,0.07247 0.503472,0.195313 0.648437,0.425781 3.05e-4,4.85e-4 0.0016,-4.87e-4 0.002,0 l 0.0059,0.0098 A 0.48219022,0.48219022 0 0 0 39.1954,15.705071 c -0.0025,-0.004 -0.0072,-0.0038 -0.0098,-0.0078 l 0.0039,-0.002 -3.736328,-5.646485 C 35.106845,9.4863593 34.479655,9.3315081 33.972656,9.3105469 a 0.48219022,0.48219022 0 0 0 -0.02148,0 z m -0.01953,0.9648441 c 0.369943,0.01529 0.581629,0.08317 0.701171,0.277343 a 0.48219022,0.48219022 0 0 0 0.0078,0.01367 l 2.816406,4.257813 c -0.257289,-0.019 -0.534822,-0.06272 -0.74414,-0.04687 l 0.03711,-0.002 -27.0644531,0.02344 0.050781,0.002 c -0.043843,-0.0046 -0.1039726,0.0251 -0.1503906,0.02344 l 2.9355467,-3.972656 c 0.311142,-0.357349 0.562455,-0.579453 0.964844,-0.570313 a 0.48219022,0.48219022 0 0 0 0.01172,0 z"
           id="path5" /><g
           id="g8"
           inkscape:label="glue"
           transform="matrix(1.8219176,0,0,1,-19.281962,0)"><path
             id="rect6"
             style="fill:#715b39;fill-opacity:1;stroke-width:0.999943;stroke-linecap:round;stroke-linejoin:round;paint-order:fill markers stroke"
             d="m 22.333687,9.2823772 h 2.36759 l 0.462049,6.2776468 h -3.4072 z"
             sodipodi:nodetypes="ccccc" /><path
             id="rect7"
             style="fill:#715b39;fill-opacity:0.547858;stroke-width:0.999943;stroke-linecap:round;stroke-linejoin:round;paint-order:fill markers stroke"
             d="m 21.756126,15.256006 h 3.4072 v 6.020941 l -0.324337,-0.393979 -0.324336,0.134077 -0.203127,-0.259903 -0.21295,0.09695 -0.21295,0.327972 -0.21295,-0.134077 -0.21295,0.09695 -0.21295,0.02475 -0.21295,-0.272279 -0.21295,0.231024 -0.21295,-0.47855 -0.21295,0.495052 -0.21295,-0.247526 -0.21295,0.396042 -0.21295,-0.148516 z"
             sodipodi:nodetypes="ccccccccccccccccccc" /><path
             id="path7"
             style="fill:url(#linearGradient8);stroke-width:0.999943;stroke-linecap:round;stroke-linejoin:round;paint-order:fill markers stroke"
             d="m 21.756126,15.129601 0.151933,-0.733547 h 3.145134 l 0.110133,0.731013 v 6.14988 l -0.324337,-0.393979 -0.324336,0.134077 -0.203127,-0.259903 -0.21295,0.09695 -0.21295,0.327972 -0.21295,-0.134077 -0.21295,0.09695 -0.21295,0.02475 -0.21295,-0.272279 -0.21295,0.231024 -0.21295,-0.47855 -0.21295,0.495052 -0.21295,-0.247526 -0.21295,0.396042 -0.21295,-0.148516 z"
             sodipodi:nodetypes="ccccccccccccccccccccc" /></g></g></g><text
       xml:space="preserve"
       style="font-size:11.1393px;font-family:'MxPlus IBM VGA 8x16';-inkscape-font-specification:'MxPlus IBM VGA 8x16';text-align:start;writing-mode:lr-tb;direction:ltr;text-anchor:start;display:inline;fill:#000000;fill-opacity:1;stroke:#872020;stroke-width:6.89426;stroke-linecap:round;stroke-linejoin:round;paint-order:fill markers stroke"
       x="11.789377"
       y="35.427334"
       id="text1"><tspan
         sodipodi:role="line"
         id="tspan1"
         x="11.789377"
         y="35.427334"
         style="font-style:normal;font-variant:normal;font-weight:bold;font-stretch:normal;font-size:11.1393px;font-family:'Liberation Sans';-inkscape-font-specification:'Liberation Sans Bold';fill:#000000;fill-opacity:1;stroke:none;stroke-width:6.89426">ARC</tspan></text><text
       xml:space="preserve"
       style="font-style:normal;font-variant:normal;font-weight:bold;font-stretch:normal;font-size:10.172px;font-family:'Liberation Sans';-inkscape-font-specification:'Liberation Sans Bold';text-align:start;writing-mode:lr-tb;direction:ltr;text-anchor:start;display:none;fill:#715b39;fill-opacity:0.547858;stroke:none;stroke-width:6.29562;stroke-linecap:round;stroke-linejoin:round;paint-order:fill markers stroke"
       x="13.716615"
       y="26.771036"
       id="text2"><tspan
         sodipodi:role="line"
         id="tspan2"
         style="fill:#000000;fill-opacity:1;stroke-width:6.29562"
         x="0"
         y="0">APP</tspan></text></g></svg>
