<?xml version="1.0" encoding="UTF-8" standalone="no"?>
<!-- Created with Inkscape (http://www.inkscape.org/) -->

<svg
   width="256mm"
   height="256mm"
   viewBox="0 0 256 256"
   version="1.1"
   id="svg1"
   inkscape:version="1.3.2 (091e20ef0f, 2023-11-25)"
   xml:space="preserve"
   sodipodi:docname="00-help.svg"
   xmlns:inkscape="http://www.inkscape.org/namespaces/inkscape"
   xmlns:sodipodi="http://sodipodi.sourceforge.net/DTD/sodipodi-0.dtd"
   xmlns="http://www.w3.org/2000/svg"
   xmlns:svg="http://www.w3.org/2000/svg"
   xmlns:rdf="http://www.w3.org/1999/02/22-rdf-syntax-ns#"
   xmlns:cc="http://creativecommons.org/ns#"
   xmlns:dc="http://purl.org/dc/elements/1.1/"><defs
     id="defs1" /><sodipodi:namedview
     id="base"
     pagecolor="#ffffff"
     bordercolor="#000000"
     borderopacity="0.3"
     inkscape:pageopacity="0.0"
     inkscape:pageshadow="2"
     inkscape:zoom="0.98994949"
     inkscape:cx="505.07627"
     inkscape:cy="476.792"
     inkscape:document-units="mm"
     inkscape:showpageshadow="2"
     inkscape:pagecheckerboard="0"
     inkscape:deskcolor="#d1d1d1"
     inkscape:current-layer="svg1"
     showguides="true" /><metadata
     id="metadata1"><rdf:RDF><cc:Work
         rdf:about=""><dc:format>image/svg+xml</dc:format><dc:type
           rdf:resource="http://purl.org/dc/dcmitype/StillImage" /><cc:license
           rdf:resource="http://creativecommons.org/publicdomain/zero/1.0/" /></cc:Work><cc:License
         rdf:about="http://creativecommons.org/publicdomain/zero/1.0/"><cc:permits
           rdf:resource="http://creativecommons.org/ns#Reproduction" /><cc:permits
           rdf:resource="http://creativecommons.org/ns#Distribution" /><cc:permits
           rdf:resource="http://creativecommons.org/ns#DerivativeWorks" /></cc:License></rdf:RDF></metadata><g
     id="g10"
     transform="matrix(1.0120115,0,0,1.0120115,-1.9258391,-3.0442891)"><g
       id="g7"
       style="display:inline"><path
         id="rect7"
         style="fill:#ffffff;stroke-width:0.899999;stroke-linecap:round;stroke-linejoin:round"
         d="M 25.702382,143.25299 142.49703,196.9256 v 36.66369 L 25.702382,179.91668 Z"
         sodipodi:nodetypes="ccccc" /><path
         id="rect7-3"
         style="fill:#c0c0c0;stroke-width:0.899999;stroke-linecap:round;stroke-linejoin:round"
         inkscape:label="gray"
         d="m 238.70481,104.15953 -7.86309,0.13488 -0.1788,7.75198 -7.66309,-0.19947 -0.11163,7.99279 -7.92716,-0.0827 0.0109,7.66568 -7.92665,0.10646 -0.35656,7.8667 -7.5489,0.10645 0.11576,7.86671 -8.22689,-0.23875 0.24288,8.08736 -7.92975,-0.26613 0.0879,8.68732 -7.59592,-0.39945 -0.29145,7.61917 -7.66258,-0.0656 -0.35812,7.88686 -8.06204,-0.17519 0.3886,8.18555 -8.5881,-0.22427 0.54105,8.24445 -7.45433,-0.36638 c 0.17154,12.97992 -0.15794,26.90534 -0.16794,39.88645 l 8.32869,0.0351 -0.0346,-8.09098 7.9034,-0.15348 0.0258,-7.91424 7.52512,0.0357 0.1204,-7.67756 7.9034,-0.10646 0.0599,-7.80727 7.85637,0.12971 0.0729,-8.10287 7.95042,0.0827 0.21498,-7.53597 7.61917,-0.03 0.077,-7.92045 7.70599,-0.001 0.0553,-8.15299 7.9065,0.26613 -0.0114,-8.1194 8.09511,0.23151 -0.14521,-7.95249 7.99486,0.0646 -0.045,-7.9189 7.49102,-0.0362 c -0.016,-12.37864 0.16533,-25.75978 -0.14418,-39.39605 z M 18.441768,143.12305 v 32.27245 h 8.21862 v -23.65334 h 7.884273 v -8.55245 h -7.884273 v -0.0667 z m 23.369633,8.11216 v 8.01812 h 8.352462 v -8.01812 z m 15.716354,7.87394 v 8.01812 h 8.352461 v -8.01812 z m 15.91324,7.84293 v 8.01812 h 8.351945 v -8.01812 z m 15.679663,7.768 v 8.0176 h 8.351945 v -8.0176 z m 15.788182,7.80108 v 8.01811 h 8.35195 v -8.01811 z m 15.45746,7.99796 v 8.01812 h 8.35246 v -8.01812 z" /><path
         id="rect5"
         style="display:inline;fill:#808080;fill-opacity:1;stroke-width:0.899999;stroke-linecap:round;stroke-linejoin:round"
         d="m 230.82984,96.478349 v 7.857401 h -7.64915 v 7.81089 h -7.72046 v 7.76645 h -7.86877 v 7.94991 h -8.03672 v 7.68997 h -7.68118 v 7.94887 h -7.96024 v 7.90597 h -7.97471 v 7.86309 h -7.92819 v 7.80159 h -7.86206 v 7.8264 h -7.91838 v 7.92819 h -7.97522 v 7.80521 h -15.19287 v -7.9282 h -15.8595 v -7.81451 H 97.645203 v -8.00984 H 81.624992 v -7.82743 H 65.866781 V 151.0962 H 50.360234 v -7.7959 H 34.745166 v -7.9282 h -16.43724 v 8.68629 h 15.898772 v 7.54993 h 15.931844 v 7.60677 h 15.383557 v 7.85533 h 15.953548 v 8.0946 h 15.55719 v 7.64243 h 15.858983 v 8.04033 h 15.80885 v 7.88066 h 15.88637 v -7.89926 h 7.71064 v -7.9282 h 7.97574 v -7.82691 h 7.91838 v -7.80108 h 7.86205 v -7.86308 h 7.92768 v -7.9065 h 7.97523 v -7.94886 h 7.96024 v -7.68946 h 7.68066 v -7.95042 h 8.03724 v -7.76593 h 7.86877 v -7.81141 h 7.72046 v -7.85689 h 7.64914 V 96.478349 Z M 26.902234,174.47359 v 8.09666 h 15.69775 v 7.84397 h 15.471924 v 7.85326 h 15.733406 v 7.85482 h 15.831592 v 7.93337 h 15.648144 v 7.80521 h 15.54427 v 7.86205 h 15.63884 v 7.88065 h 8.04343 v -8.00209 h -7.7959 v -7.97522 h -15.54427 v -7.86206 H 105.52327 V 205.959 H 89.691683 v -7.93336 H 73.958276 v -7.8543 H 58.155623 v -7.85327 h -15.36702 v -7.84448 z"
         inkscape:label="greydark" /><path
         id="path1"
         style="display:inline;fill:#800080;stroke-width:0.899999;stroke-linecap:round;stroke-linejoin:round"
         d="m 120.9306,9.5932132 -0.0713,8.2108678 -7.63054,-0.03411 -0.19844,7.786088 -7.86102,0.0832 0.0362,7.857918 -7.806237,0.0155 0.03617,7.857918 -7.900809,-0.03204 0.01188,7.967472 -8.020182,-0.206189 0.03256,7.929232 -7.774719,-0.128674 -0.09043,8.055839 -7.74113,-0.02842 0.176734,7.722009 -8.041887,0.104903 0.109555,8.022766 -7.841382,0.07183 0.01085,7.720459 -7.677568,0.01292 -0.226859,7.796423 -8.142139,-0.128674 0.276986,7.688429 -8.142139,0.0718 0.143144,7.82226 -8.075476,-0.062 -0.04134,7.84086 -8.006746,0.0114 0.0279,8.00985 -7.5085853,0.0114 0.028422,55.22297 7.0006063,-0.0501 c 5.541354,-0.003 11.082939,-0.0236 16.624308,-0.0377 l -0.05013,7.81917 c 5.568537,-0.003 10.479225,-6e-5 16.045532,-0.0139 l -0.371036,7.90959 c 5.470347,-0.003 10.405044,-0.0231 15.854329,-0.0372 l -0.04392,7.67395 c 5.174901,-0.003 10.350226,-0.0226 15.525151,-0.0367 l 0.01033,7.97212 c 5.269157,-0.003 10.538641,-0.0231 15.807821,-0.0372 l 0.02945,8.04086 c 5.290676,-0.003 10.581216,-0.0226 15.871906,-0.0367 l 0.046,7.84344 c 5.21373,-0.003 10.42767,-0.0236 15.64142,-0.0377 l 0.0889,-8.07341 -15.40888,-0.0543 0.0889,-7.7525 -16.110648,-0.0548 0.0894,-7.94887 -15.7887,-0.0315 0.08837,-7.90391 -15.617651,-0.0543 0.0894,-7.58248 -15.863114,-0.0558 5.17e-4,-7.5799 -15.909624,-0.2899 0.09147,-7.75147 -16.446542,-0.0558 0.109554,-46.71084 23.842378,-0.18179 -0.138781,8.21596 15.615184,0.0546 0.0279,7.89112 15.711481,-0.10284 0.02796,7.8149 15.822164,-0.0864 0.05684,7.94938 15.55372,0.0587 0.292932,7.2409 15.64865,0.0119 -0.0377,7.94887 16.02589,-0.17674 -0.0372,8.23259 15.459,0.10645 0.17405,-8.02019 7.87714,-0.27181 -0.13229,-7.54681 7.89977,-0.0837 0.0568,-8.11475 7.61607,0.10645 -0.10128,-7.66826 8.09097,0.25322 0.22458,-8.15661 7.64213,0.0646 0.15348,-7.73183 8.28011,0.20619 -0.60255,-7.73131 7.52409,-0.54984 0.2682,-7.7494 8.19899,0.14211 0.11782,-8.18709 7.77213,0.22324 -0.25941,-8.09253 7.67757,0.22324 0.293,-7.919418 7.91011,0.232544 -0.37568,-8.195365 7.91011,0.357084 -0.0631,-8.143689 8.35608,0.0083 0.20412,-8.136454 -7.48998,0.135392 -0.78807,-7.608837 -15.96543,-0.259416 0.27492,-7.466728 -15.82849,-0.116789 0.008,-7.801074 -15.69465,0.150379 -0.19327,-8.134904 -15.76131,-0.09427 0.0991,-7.919192 -15.47133,0.22841 0.0274,-7.866703 -16.03572,-0.02377 0.12248,-8.457366 -7.81451,0.165365 -0.55294,-7.7364783 z m 117.70806,133.7861468 -0.0501,7.91683 -7.92355,-0.0537 -0.0491,7.73493 -7.76542,-0.0527 -0.0506,8.03103 -7.8109,-0.0532 -0.0496,7.8419 -7.72356,-0.0527 -0.0501,7.91683 -7.9344,-0.0543 -0.0501,7.92045 -7.74991,-0.0527 -0.0501,7.88427 -7.79797,-0.0532 -0.0501,7.89925 -7.85895,-0.0537 -0.0506,7.99538 -7.79022,-0.0532 -0.0481,7.56698 -7.68377,-0.0522 -0.0522,8.21035 -8.13077,-0.0553 -0.0501,7.92509 -15.10864,-0.0129 0.0899,-8.01709 -15.81816,-0.0558 -0.10955,8.16695 c 5.20914,-0.003 10.4183,-0.0231 15.62747,-0.0372 l -0.076,8.06721 c 5.57808,-0.003 9.95379,-0.0236 15.53187,-0.0377 l 0.0915,-7.74784 c 0.89139,6.5e-4 7.61315,0.0119 8.03465,0.0119 l -0.0217,-8.16694 c 0.64527,1.8e-4 7.77476,0.0124 8.20518,0.0124 l -0.0202,-7.52667 c 1.25302,0.001 7.34482,0.0119 7.75146,0.0119 l -0.0212,-7.95403 c 1.11883,0.001 7.44961,0.0119 7.86206,0.0119 l -0.0207,-7.8574 c 1.03223,9.3e-4 7.51427,0.0119 7.93026,0.0119 l -0.0212,-7.84345 c 1.11039,0.001 7.45598,0.0119 7.86877,0.0119 l -0.0207,-7.8791 c 1.17004,0.001 7.41044,0.0119 7.82072,0.0119 l -0.0207,-7.87445 c 0.93178,7.3e-4 7.58525,0.0119 8.0052,0.0119 l -0.0207,-7.80107 c 1.20265,0.001 7.38497,0.0119 7.79384,0.0119 l -0.0212,-7.9897 c 1.09276,10e-4 7.4692,0.0119 7.88273,0.0119 l -0.0202,-7.69411 c 1.15289,0.001 7.42366,0.0119 7.83467,0.0119 l -0.0212,-8.01657 c 0.92945,7.7e-4 7.37519,0.0119 7.7835,0.0119 l -0.0212,-8.06669 z"
         inkscape:label="darkprple"
         sodipodi:nodetypes="ccccccccccccccccccccccccccccccccccccccccccccccccccccccccccccccccccccccccccccccccccccccccccccccccccccccccccccccccccccccccccccccccccccccccccccccccccccccccccccccccccccccccccccccccc" /><path
         id="rect3"
         style="display:inline;fill:#000000;fill-opacity:1;stroke-width:3.11817;stroke-linecap:round;stroke-linejoin:round"
         inkscape:label="black"
         d="m 136.04028,9.6216349 v 8.5524491 h 8.08477 v 7.550444 h 16.1029 v 8.085295 h 15.30139 v 7.549926 h 15.90239 v 8.085295 h 15.6993 v 8.290967 h 15.40267 v 7.748364 h 16.25276 v 7.37061 h 7.9375 v 7.512202 h -8.17366 v 7.984526 h -7.98505 v 7.745264 h -7.84499 v 7.753533 h -7.87343 v 7.876 h -7.81967 v 8.13232 h -8.06566 v 7.66775 h -7.74526 v 8.07083 h -7.79333 v 7.62227 h -7.54269 l -0.0236,8.10789 -8.23117,-0.18899 v 7.76283 h -7.63778 v 7.87136 h -8.10751 v 7.84293 h -7.62538 v 8.21397 h -15.19494 v -8.4595 l -15.80833,0.31308 v -7.88413 H 97.387854 v -7.51065 H 81.602771 v -7.79539 H 65.748958 v -7.93905 H 50.207788 V 135.8315 H 34.047017 v 7.87549 h 15.541171 v 7.85585 H 65.442 v 7.80521 h 15.785083 v 7.79591 h 15.863632 v 7.66103 h 15.630055 v 0.11214 h -0.0274 v 7.97574 h 15.81609 v 7.79229 h 16.16077 v -7.67964 h 7.99434 v -7.84293 h 7.62589 v -7.87136 h 8.10752 v -7.76283 h 7.63778 v -7.91838 h 7.92406 v -7.62227 h 7.87342 v -8.07134 h 7.79281 v -7.66775 h 7.74526 v -8.13232 h 8.06566 v -7.87601 h 7.82019 v -7.75301 h 7.87342 v -7.745268 h 7.41971 v 46.585268 h -8.00365 v 7.76594 h -7.80107 v 7.72872 H 214.744 v 7.97109 h -7.68222 v 7.88118 h -7.95094 v 7.83466 H 191.394 v 7.92045 h -7.82381 v 7.75146 h -7.91735 v 7.88117 h -7.88789 v 7.9375 h -7.94731 v 7.79591 h -7.98453 v 7.92148 h -7.72976 v 8.29304 l 7.81761,-0.11214 v 7.65483 H 136.8547 v -7.96024 H 120.989 v -7.72718 H 105.66538 V 221.834 H 89.638973 v -7.84758 H 73.970679 v -7.876 H 58.24554 v -7.73441 l -15.86053,-0.0336 0.300757,-7.85586 H 26.669173 v -7.72872 h -16.16077 v 7.87497 h 15.816088 v 7.77937 l 15.760279,0.13384 v 7.70547 h 15.85898 v 8.03517 h 15.534452 v 7.9096 h 16.026412 v 7.72614 h 15.657956 v 7.83828 h 15.64866 v 8.32869 h 15.47451 v 7.35873 h 16.16077 v -7.75095 h 7.81761 v -7.61918 h 7.91631 v -7.72045 h 8.01295 v -8.02225 h 7.7866 v -7.78661 h 7.76491 v -8.00985 h 7.98969 v -7.84551 h 7.72356 v -7.78506 h 7.91218 v -7.79745 h 7.89047 v -7.77576 h 7.81761 v -8.02431 h 7.85947 v -7.75302 h 7.70082 v -8.01863 h 8.09305 v -7.74268 h 0.005 v -8.40982 h -7.87136 V 80.650891 h 7.5122 v -7.795906 h 0.0946 V 65.10662 H 238.88103 V 56.790849 H 223.38378 V 48.947917 H 207.53462 V 40.892078 H 191.63223 V 33.274972 H 175.99701 V 25.324036 H 160.42845 V 17.573088 H 144.79323 V 9.6216349 Z M 10.428304,127.6227 v 47.56454 h 8.477002 v -39.37899 h 15.553056 v -8.14266 H 18.905306 v -0.0429 z m 228.528166,16.14992 h 7.36545 v 7.37526 h -7.36545 z m -0.3023,7.72511 -0.047,7.78144 -7.66361,-0.0713 0.0232,-7.66258 z m -15.49983,8.02535 h 7.37371 v 7.40213 h -7.37371 z m -7.68222,7.72924 h 7.19594 v 7.44864 h -7.19594 z m -7.95094,7.97058 h 7.32979 v 7.27552 h -7.32979 z m -7.71736,7.88169 h 7.15667 v 7.17889 h -7.15667 z m -7.82381,7.83466 h 7.06831 v 7.18974 h -7.06831 z m -7.91734,7.91993 h 7.26157 v 7.27914 h -7.26157 z m -7.88789,7.75198 h 7.15977 v 7.31377 h -7.15977 z m -7.94681,7.88066 h 7.34219 v 7.45587 h -7.34219 z m -7.98504,7.9375 h 7.54063 v 7.23832 h -7.54063 z m -7.98039,7.69565 7.50807,0.10025 v 7.59644 h -7.54063 z"
         sodipodi:nodetypes="cccccccccccccccccccccccccccccccccccccccccccccccccccccccccccccccccccccccccccccccccccccccccccccccccccccccccccccccccccccccccccccccccccccccccccccccccccccccccccccccccccccccccccccccccccccccccccccccccccccccccccccccccccccccccccccccccccccccccccccccccccccccccccccccccccccccccccccccccccccc" /><path
         id="rect4"
         style="display:inline;fill:#808080;fill-opacity:1;stroke-width:0.911206;stroke-linecap:round;stroke-linejoin:round"
         d="m 120.92285,17.974097 v 7.558195 h -7.82743 v 7.776786 h -7.75095 v 7.836214 h -8.176758 v 8.124052 h -7.526155 v 7.616073 h -7.951453 v 7.748364 h -7.946802 v 8.088912 H 66.00424 v 7.970056 h -8.104415 v 7.912179 h -7.570081 v 7.717358 h -7.915795 v 7.878584 h -7.96799 v 7.99952 h -7.864636 v 7.71735 H 18.59318 v 7.95146 h 8.084778 v -7.61711 h 7.887891 v -8.0331 h 7.914762 v -7.87859 h 7.88479 v -7.985041 h 7.648112 v -7.611422 h 8.037752 V 80.84106 h 7.79539 v -8.031034 h 7.958688 v -8.032068 h 7.899259 v -7.758183 h 7.62124 v -7.522538 h 8.060488 v -8.319389 h 7.78351 v -7.788672 h 7.82174 v -7.62279 h 7.76542 v -7.792289 z"
         inkscape:label="back" /></g><g
       id="g8"><path
         id="rect8"
         style="fill:#ffff00;fill-opacity:1;stroke-width:0.899999;stroke-linecap:round;stroke-linejoin:round"
         d="m 136.34103,57.095223 v 7.550444 H 120.9058 v 7.984008 h -7.65328 v 8.151441 h 0.0512 v 7.873421 h 15.40113 v -7.873421 h 8.36796 v -7.983492 h 23.05699 v 8.09563 h 0.009 v 7.928198 h 0.0568 v 7.316866 h -23.63319 v 7.842932 h -15.70498 v 7.97522 h -8.05067 v 8.15196 h 23.82025 v -7.97522 h 23.73705 v -7.84345 h 15.70499 v -7.719944 h 7.9468 v -8.151957 h -0.0569 v -7.748364 h -0.009 v -7.928199 h -8.15351 v -8.095629 h -15.63522 v -7.550444 z m -31.17587,70.437047 v 8.05997 h -8.060493 v 7.90029 h 8.060493 v 8.06049 h 7.90029 v -8.06049 h 8.05997 v -7.90029 h -8.05997 v -8.05997 z" /><path
         id="rect8-90"
         style="fill:#808000;fill-opacity:1;stroke-width:1.53109;stroke-linecap:round;stroke-linejoin:round"
         d="m 160.20521,56.970683 v 7.748364 h 8.03207 V 56.970683 Z M 128.32292,57.15 v 7.748364 h 8.03206 V 57.15 Z m 8.4925,15.708085 v 7.748364 h 23.24561 v -7.748364 z m -31.73811,7.9344 v 7.748364 h 8.03206 v -7.748364 z m 47.20952,7.880655 v 7.748365 h 8.03155 V 88.67314 Z m -31.64613,0.12299 v 7.748365 h 7.9468 v 7.710645 h 8.03207 v -7.748369 h -7.9468 V 88.79613 Z m -7.70134,15.54427 v 7.74837 h 8.03207 v -7.74837 z m 47.36042,0.0568 v 7.74836 h 8.03206 v -7.74836 z m -23.5102,7.54062 v 7.74836 h 15.49725 v -7.74836 z m -32.01458,0.24546 v 7.74837 h 8.03207 v -7.74837 z m 16.22485,7.71064 v 7.87136 h -7.9282 v 7.74836 h 8.03207 v -7.65845 h 15.34583 v -7.96127 z m -23.812501,7.80986 v 7.74888 h 8.031551 v -7.74888 z m -0.08527,15.82333 v 7.74836 h 8.032071 v -7.74836 z m 15.794901,0.0615 v 7.74837 h 8.03156 v -7.74837 z" /></g></g></svg>
