<?xml version="1.0" encoding="UTF-8" standalone="no"?>
<!-- Created with Inkscape (http://www.inkscape.org/) -->

<svg
   width="256mm"
   height="256mm"
   id="svg1306"
   sodipodi:version="0.32"
   inkscape:version="1.4.2 (ebf0e940d0, 2025-05-08)"
   sodipodi:docname="application-x-font-type1.svg"
   inkscape:output_extension="org.inkscape.output.svg.inkscape"
   version="1.1"
   viewBox="0 0 256 256"
   xml:space="preserve"
   xmlns:inkscape="http://www.inkscape.org/namespaces/inkscape"
   xmlns:sodipodi="http://sodipodi.sourceforge.net/DTD/sodipodi-0.dtd"
   xmlns:xlink="http://www.w3.org/1999/xlink"
   xmlns="http://www.w3.org/2000/svg"
   xmlns:svg="http://www.w3.org/2000/svg"
   xmlns:rdf="http://www.w3.org/1999/02/22-rdf-syntax-ns#"
   xmlns:cc="http://creativecommons.org/ns#"
   xmlns:dc="http://purl.org/dc/elements/1.1/"
   xmlns:a="http://ns.adobe.com/AdobeSVGViewerExtensions/3.0/"><title
     id="title1">Fonts</title><defs
     id="defs1308"><radialGradient
       inkscape:collect="always"
       xlink:href="#linearGradient5060"
       id="radialGradient6719"
       gradientUnits="userSpaceOnUse"
       gradientTransform="matrix(-2.774389,0,0,1.969706,112.7623,-872.8854)"
       cx="605.71429"
       cy="486.64789"
       fx="605.71429"
       fy="486.64789"
       r="117.14286" /><linearGradient
       inkscape:collect="always"
       id="linearGradient5060"><stop
         style="stop-color:black;stop-opacity:1;"
         offset="0"
         id="stop5062" /><stop
         style="stop-color:black;stop-opacity:0;"
         offset="1"
         id="stop5064" /></linearGradient><radialGradient
       inkscape:collect="always"
       xlink:href="#linearGradient5060"
       id="radialGradient6717"
       gradientUnits="userSpaceOnUse"
       gradientTransform="matrix(2.774389,0,0,1.969706,-1891.633,-872.8854)"
       cx="605.71429"
       cy="486.64789"
       fx="605.71429"
       fy="486.64789"
       r="117.14286" /><linearGradient
       id="linearGradient5048"><stop
         style="stop-color:black;stop-opacity:0;"
         offset="0"
         id="stop5050" /><stop
         id="stop5056"
         offset="0.5"
         style="stop-color:black;stop-opacity:1;" /><stop
         style="stop-color:black;stop-opacity:0;"
         offset="1"
         id="stop5052" /></linearGradient><linearGradient
       inkscape:collect="always"
       xlink:href="#linearGradient5048"
       id="linearGradient6715"
       gradientUnits="userSpaceOnUse"
       gradientTransform="matrix(2.774389,0,0,1.969706,-1892.179,-872.8854)"
       x1="302.85715"
       y1="366.64789"
       x2="302.85715"
       y2="609.50507" /><linearGradient
       inkscape:collect="always"
       id="linearGradient4767"><stop
         style="stop-color:#729fcf"
         offset="0"
         id="stop4769" /><stop
         style="stop-color:#3465a4"
         offset="1"
         id="stop4771" /></linearGradient><linearGradient
       inkscape:collect="always"
       id="linearGradient4755"><stop
         style="stop-color:#eeeeec;stop-opacity:1;"
         offset="0"
         id="stop4757" /><stop
         style="stop-color:#ffffff;stop-opacity:1.0000000"
         offset="1"
         id="stop4759" /></linearGradient><linearGradient
       inkscape:collect="always"
       xlink:href="#linearGradient4755"
       id="linearGradient4761"
       x1="36.668537"
       y1="36.383247"
       x2="10.303555"
       y2="7.4928832"
       gradientUnits="userSpaceOnUse" /><linearGradient
       inkscape:collect="always"
       xlink:href="#linearGradient4767"
       id="linearGradient4773"
       x1="18.561554"
       y1="12.998214"
       x2="30.935921"
       y2="33.681091"
       gradientUnits="userSpaceOnUse"
       gradientTransform="translate(-1,-1)" /><linearGradient
       id="XMLID_5_"
       gradientUnits="userSpaceOnUse"
       x1="8.5775995"
       y1="-130.9097"
       x2="68.091003"
       y2="97.714798">
					<stop
   offset="0"
   style="stop-color:#FFFFFF"
   id="stop13-9" />
					<stop
   offset="1"
   style="stop-color:#000000"
   id="stop14-1" />
					<a:midPointStop
   offset="0"
   style="stop-color:#FFFFFF" />
					<a:midPointStop
   offset="0.5"
   style="stop-color:#FFFFFF" />
					<a:midPointStop
   offset="1"
   style="stop-color:#000000" />
				</linearGradient><linearGradient
       id="XMLID_8_"
       gradientUnits="userSpaceOnUse"
       x1="44.242699"
       y1="-62.0508"
       x2="44.242699"
       y2="92.450104">
					<stop
   offset="0"
   style="stop-color:#FFFFFF"
   id="stop21-6" />
					<stop
   offset="1"
   style="stop-color:#000000"
   id="stop22-7" />
					<a:midPointStop
   offset="0"
   style="stop-color:#FFFFFF" />
					<a:midPointStop
   offset="0.5"
   style="stop-color:#FFFFFF" />
					<a:midPointStop
   offset="1"
   style="stop-color:#000000" />
				</linearGradient><linearGradient
       id="XMLID_9_-5"
       gradientUnits="userSpaceOnUse"
       x1="90.902298"
       y1="-62.0513"
       x2="90.902298"
       y2="92.4487">
					<stop
   offset="0"
   style="stop-color:#FFFFFF"
   id="stop23-3" />
					<stop
   offset="1"
   style="stop-color:#000000"
   id="stop24-5" />
					<a:midPointStop
   offset="0"
   style="stop-color:#FFFFFF" />
					<a:midPointStop
   offset="0.5"
   style="stop-color:#FFFFFF" />
					<a:midPointStop
   offset="1"
   style="stop-color:#000000" />
				</linearGradient><linearGradient
       id="linearGradient2869"><stop
         style="stop-color:#ffffff;stop-opacity:1;"
         offset="0"
         id="stop2871" /><stop
         style="stop-color:#cccccc;stop-opacity:1.0000000;"
         offset="1.0000000"
         id="stop2873" /></linearGradient><linearGradient
       id="linearGradient4995"><stop
         id="stop4997"
         offset="0"
         style="stop-color:#de9523;stop-opacity:1;" /><stop
         id="stop4999"
         offset="1.0000000"
         style="stop-color:#a36d18;stop-opacity:1.0000000;" /></linearGradient><linearGradient
       id="linearGradient4979"><stop
         id="stop4981"
         offset="0.0000000"
         style="stop-color:#fbf0e0;stop-opacity:1.0000000;" /><stop
         id="stop4983"
         offset="1.0000000"
         style="stop-color:#f0ce99;stop-opacity:1.0000000;" /></linearGradient><linearGradient
       id="linearGradient4222"><stop
         id="stop4224"
         offset="0"
         style="stop-color:#ffffff;stop-opacity:1;" /><stop
         id="stop4226"
         offset="1.0000000"
         style="stop-color:#ffffff;stop-opacity:0.68639052;" /></linearGradient><linearGradient
       id="linearGradient4210"><stop
         id="stop4212"
         offset="0.0000000"
         style="stop-color:#eaba6f;stop-opacity:1.0000000;" /><stop
         id="stop4214"
         offset="1.0000000"
         style="stop-color:#b97a1b;stop-opacity:1.0000000;" /></linearGradient><linearGradient
       id="linearGradient4192"><stop
         id="stop4194"
         offset="0"
         style="stop-color:#e9b96e;stop-opacity:1;" /><stop
         id="stop4196"
         offset="1.0000000"
         style="stop-color:#f1d19e;stop-opacity:1.0000000;" /></linearGradient><linearGradient
       id="linearGradient4182"><stop
         id="stop4184"
         offset="0.0000000"
         style="stop-color:#a36d18;stop-opacity:1.0000000;" /><stop
         id="stop4186"
         offset="1.0000000"
         style="stop-color:#d79020;stop-opacity:1.0000000;" /></linearGradient><linearGradient
       id="XMLID_5_-5"
       gradientUnits="userSpaceOnUse"
       x1="44.4263"
       y1="115.898"
       x2="44.4263"
       y2="69.396896">
				<stop
   offset="0"
   style="stop-color:#808080;stop-opacity:1;"
   id="stop13-0" />
				<stop
   offset="1"
   style="stop-color:#808080;stop-opacity:1;"
   id="stop14-3" />
			</linearGradient><linearGradient
       id="XMLID_6_"
       gradientUnits="userSpaceOnUse"
       x1="44.4263"
       y1="20.419399"
       x2="44.4263"
       y2="52.461899">
				<stop
   offset="0"
   style="stop-color:rgb(255,255,255)"
   id="stop15" />
				<stop
   offset="100%"
   style="stop-opacity:0;stop-color:rgb(255,255,255)"
   id="stop16-0" />
			</linearGradient><linearGradient
       id="XMLID_7_"
       gradientUnits="userSpaceOnUse"
       x1="68.790001"
       y1="105.856"
       x2="68.790001"
       y2="82.417999">
				<stop
   offset="0"
   style="stop-color:#3cabff;stop-opacity:1;"
   id="stop17-3" />
				<stop
   offset="1"
   style="stop-color:#00389e;stop-opacity:1;"
   id="stop18-6" />
				<a:midPointStop
   offset="0"
   style="stop-color:#B0B0B0" />
				<a:midPointStop
   offset="0.5"
   style="stop-color:#B0B0B0" />
				<a:midPointStop
   offset="1"
   style="stop-color:#000000" />
			</linearGradient><linearGradient
       id="XMLID_8_-6"
       gradientUnits="userSpaceOnUse"
       x1="68.870102"
       y1="36.569801"
       x2="68.870102"
       y2="65.748001">
				<stop
   offset="0"
   style="stop-color:rgb(255,255,255)"
   id="stop19-1" /><stop
   offset="0.5"
   style="stop-color:#136fff;stop-opacity:1;"
   id="stop30" />
				<stop
   offset="1"
   style="stop-color:#4196fd;stop-opacity:0.12420385;"
   id="stop20-0" />
				<a:midPointStop
   offset="0"
   style="stop-color:#FFFFFF" />
				<a:midPointStop
   offset="0.5"
   style="stop-color:#FFFFFF" />
				<a:midPointStop
   offset="1"
   style="stop-color:#000000" />
			</linearGradient><linearGradient
       id="XMLID_5_-4"
       gradientUnits="userSpaceOnUse"
       x1="44.4263"
       y1="115.898"
       x2="44.4263"
       y2="69.396896">
				<stop
   offset="0"
   style="stop-color:#808080;stop-opacity:1;"
   id="stop13-3" />
				<stop
   offset="1"
   style="stop-color:#808080;stop-opacity:1;"
   id="stop14-0" />
			</linearGradient><linearGradient
       id="XMLID_6_-7"
       gradientUnits="userSpaceOnUse"
       x1="44.4263"
       y1="20.419399"
       x2="44.4263"
       y2="52.461899">
				<stop
   offset="0"
   style="stop-color:rgb(255,255,255)"
   id="stop15-8" />
				<stop
   offset="100%"
   style="stop-opacity:0;stop-color:rgb(255,255,255)"
   id="stop16-6" />
			</linearGradient><linearGradient
       id="XMLID_7_-8"
       gradientUnits="userSpaceOnUse"
       x1="68.790001"
       y1="105.856"
       x2="67.895844"
       y2="14.753437">
				<stop
   offset="0"
   style="stop-color:#36e800;stop-opacity:1;"
   id="stop17-8" />
				<stop
   offset="1"
   style="stop-color:rgb(0,0,0)"
   id="stop18-4" />
				<a:midPointStop
   offset="0"
   style="stop-color:#B0B0B0" />
				<a:midPointStop
   offset="0.5"
   style="stop-color:#B0B0B0" />
				<a:midPointStop
   offset="1"
   style="stop-color:#000000" />
			</linearGradient><linearGradient
       id="XMLID_8_-3"
       gradientUnits="userSpaceOnUse"
       x1="68.870102"
       y1="36.569801"
       x2="68.870102"
       y2="73.748917">
				<stop
   offset="0"
   style="stop-color:#72f772;stop-opacity:1;"
   id="stop19-1-6" /><stop
   offset="0.5"
   style="stop-color:#3fac36;stop-opacity:1;"
   id="stop29" /><stop
   offset="0.75"
   style="stop-color:#32ac20;stop-opacity:1;"
   id="stop30-4" />
				<stop
   offset="1"
   style="stop-color:#157800;stop-opacity:0.08585366;"
   id="stop20-9" />
				<a:midPointStop
   offset="0"
   style="stop-color:#FFFFFF" />
				<a:midPointStop
   offset="0.5"
   style="stop-color:#FFFFFF" />
				<a:midPointStop
   offset="1"
   style="stop-color:#000000" />
			</linearGradient><linearGradient
       id="XMLID_4_"
       gradientUnits="userSpaceOnUse"
       x1="58.423302"
       y1="132.44901"
       x2="58.423302"
       y2="74.146004">
				<stop
   offset="0"
   style="stop-color:rgb(255,144,0)"
   id="stop12-6" />
				<stop
   offset="1"
   style="stop-color:rgb(255,0,0)"
   id="stop13-9-7" />
			</linearGradient><linearGradient
       id="XMLID_5_-3"
       gradientUnits="userSpaceOnUse"
       x1="56.2407"
       y1="8.8989"
       x2="56.2407"
       y2="89.401199">
				<stop
   offset="13.2184%"
   style="stop-color:rgb(255,255,255)"
   id="stop15-7" />
				<stop
   offset="100%"
   style="stop-opacity:0;stop-color:rgb(255,255,255)"
   id="stop16-4" />
			</linearGradient></defs><sodipodi:namedview
     id="base"
     pagecolor="#ffffff"
     bordercolor="#666666"
     borderopacity="0.11372549"
     inkscape:pageopacity="0.0"
     inkscape:pageshadow="2"
     inkscape:zoom="0.44847323"
     inkscape:cx="581.97454"
     inkscape:cy="596.46815"
     inkscape:current-layer="svg1306"
     showgrid="false"
     inkscape:grid-bbox="true"
     inkscape:document-units="px"
     fill="#2e3436"
     stroke="#888a85"
     showguides="true"
     inkscape:guide-bbox="true"
     inkscape:window-width="872"
     inkscape:window-height="746"
     inkscape:window-x="357"
     inkscape:window-y="41"
     inkscape:showpageshadow="false"
     inkscape:pagecheckerboard="0"
     inkscape:deskcolor="#d1d1d1" /><metadata
     id="metadata1311"><rdf:RDF><cc:Work
         rdf:about=""><dc:format>image/svg+xml</dc:format><dc:type
           rdf:resource="http://purl.org/dc/dcmitype/StillImage" /><dc:creator><cc:Agent><dc:title>Andreas Nilsson</dc:title></cc:Agent></dc:creator><dc:contributor><cc:Agent><dc:title>the oxygen guys
202507 Blackcrack : Mimetypes creating for tango!</dc:title></cc:Agent></dc:contributor><cc:license
           rdf:resource="http://creativecommons.org/publicdomain/zero/1.0/" /><dc:source>http://tango-project.org</dc:source><dc:subject><rdf:Bag><rdf:li>font</rdf:li><rdf:li>type</rdf:li><rdf:li>letter</rdf:li></rdf:Bag></dc:subject><dc:description>https://commons.wikimedia.org/wiki/File:Font-x-generic.svg
202507 finaly many Mimetypes for Tango! from Blackcrack</dc:description><dc:title>Fonts</dc:title></cc:Work><cc:License
         rdf:about="http://creativecommons.org/publicdomain/zero/1.0/"><cc:permits
           rdf:resource="http://creativecommons.org/ns#Reproduction" /><cc:permits
           rdf:resource="http://creativecommons.org/ns#Distribution" /><cc:permits
           rdf:resource="http://creativecommons.org/ns#DerivativeWorks" /></cc:License></rdf:RDF></metadata><g
     id="g1"
     transform="matrix(5.0682813,0,0,5.0682813,6.0682403,4.5850225)"><g
       style="display:inline"
       transform="matrix(0.0247484,0,0,0.02086758,46.13711,41.50715)"
       id="g6707"><rect
         style="color:#000000;display:inline;overflow:visible;visibility:visible;opacity:0.402062;fill:url(#linearGradient6715);fill-opacity:1;fill-rule:nonzero;stroke:none;stroke-width:1;stroke-linecap:round;stroke-linejoin:miter;stroke-miterlimit:4;stroke-dasharray:none;stroke-dashoffset:0;stroke-opacity:1;marker:none;marker-start:none;marker-mid:none;marker-end:none"
         id="rect6709"
         width="1339.6335"
         height="478.35718"
         x="-1559.2523"
         y="-150.69685" /><path
         style="color:#000000;display:inline;overflow:visible;visibility:visible;opacity:0.402062;fill:url(#radialGradient6717);fill-opacity:1;fill-rule:nonzero;stroke:none;stroke-width:1;stroke-linecap:round;stroke-linejoin:miter;stroke-miterlimit:4;stroke-dasharray:none;stroke-dashoffset:0;stroke-opacity:1;marker:none;marker-start:none;marker-mid:none;marker-end:none"
         d="m -219.61876,-150.68038 c 0,0 0,478.33079 0,478.33079 142.874166,0.90045 345.40022,-107.16966 345.40014,-239.196175 0,-132.026537 -159.436816,-239.134595 -345.40014,-239.134615 z"
         id="path6711"
         sodipodi:nodetypes="cccc" /><path
         sodipodi:nodetypes="cccc"
         id="path6713"
         d="m -1559.2523,-150.68038 c 0,0 0,478.33079 0,478.33079 -142.8742,0.90045 -345.4002,-107.16966 -345.4002,-239.196175 0,-132.026537 159.4368,-239.134595 345.4002,-239.134615 z"
         style="color:#000000;display:inline;overflow:visible;visibility:visible;opacity:0.402062;fill:url(#radialGradient6719);fill-opacity:1;fill-rule:nonzero;stroke:none;stroke-width:1;stroke-linecap:round;stroke-linejoin:miter;stroke-miterlimit:4;stroke-dasharray:none;stroke-dashoffset:0;stroke-opacity:1;marker:none;marker-start:none;marker-mid:none;marker-end:none" /></g><rect
       style="opacity:1;fill:url(#linearGradient4761);fill-opacity:1;stroke:#888a85;stroke-width:1.02493;stroke-linecap:round;stroke-linejoin:round;stroke-miterlimit:4;stroke-dasharray:none;stroke-dashoffset:0;stroke-opacity:1"
       id="rect1314"
       width="41.011471"
       height="42.98724"
       x="3.4883704"
       y="2.5121932"
       rx="0.99906075"
       ry="0.99914879" /><path
       style="font-style:italic;font-variant:normal;font-weight:normal;font-stretch:normal;font-size:46.6005px;line-height:125%;font-family:'Nimbus Roman No9 L';text-align:start;writing-mode:lr-tb;text-anchor:start;display:none;fill:url(#linearGradient4773);fill-opacity:1;stroke:none;stroke-width:1px;stroke-linecap:butt;stroke-linejoin:miter;stroke-opacity:1"
       d="m 39,39.008527 c -2.656226,-0.233002 -2.935832,-0.23081 -3.541638,-3.632643 L 31.077914,8.9999998 H 30.241301 L 16.352156,32.300251 c -3.681436,6.19786 -4.553697,6.335472 -6.417715,6.708276 v 1.120608 h 9.120544 v -1.120608 c -2.376623,-0.233002 -2.74943,-0.09101 -2.74943,-1.256017 0,-0.885409 0.139803,-1.304816 0.93201,-2.889232 l 2.656229,-4.703356 h 10.25211 l 0.93201,5.542165 c 0.0466,0.419405 0.0932,0.83881 0.0932,1.211613 0,1.770818 -0.24616,1.815224 -3.228589,2.094827 v 1.120608 H 39 V 39.008527 M 20.872404,27.919804 27.86248,15.803673 29.912902,27.919804 h -9.040498"
       id="text2044"
       sodipodi:nodetypes="cccccccccsccccscccccccc" /><path
       id="path4633"
       style="display:inline;opacity:1;fill:#888a85;fill-opacity:1;stroke:none;stroke-width:1;stroke-linecap:round;stroke-linejoin:round;stroke-miterlimit:4;stroke-dasharray:none;stroke-dashoffset:0;stroke-opacity:1"
       d="m 22.141332,14.677599 a 1.1048543,0.93912619 0 0 1 -1.10485,-0.939122 1.1048543,0.93912619 0 0 1 1.10485,-0.939122 1.1048543,0.93912619 0 0 1 1.104851,0.939122 1.1048543,0.93912619 0 0 1 -1.104851,0.939122 z M 17.721931,10.92111 a 1.1048543,0.93912619 0 0 1 -1.10485,-0.9391224 1.1048543,0.93912619 0 0 1 1.10485,-0.9391223 1.1048543,0.93912619 0 0 1 1.104851,0.9391223 1.1048543,0.93912619 0 0 1 -1.104851,0.9391224 z m 4.419401,0 a 1.1048543,0.93912619 0 0 1 -1.10485,-0.9391224 1.1048543,0.93912619 0 0 1 1.10485,-0.9391223 1.1048543,0.93912619 0 0 1 1.104851,0.9391223 1.1048543,0.93912619 0 0 1 -1.104851,0.9391224 z m 4.419402,0 a 1.1048543,0.93912619 0 0 1 -1.104851,-0.9391224 1.1048543,0.93912619 0 0 1 1.104851,-0.9391223 1.1048543,0.93912619 0 0 1 1.10485,0.9391223 1.1048543,0.93912619 0 0 1 -1.10485,0.9391224 z m 4.419401,0 a 1.1048543,0.93912619 0 0 1 -1.104851,-0.9391224 1.1048543,0.93912619 0 0 1 1.104851,-0.9391223 1.1048543,0.93912619 0 0 1 1.10485,0.9391223 1.1048543,0.93912619 0 0 1 -1.10485,0.9391224 z m 4.419401,0 a 1.1048543,0.93912619 0 0 1 -1.10485,-0.9391224 1.1048543,0.93912619 0 0 1 1.10485,-0.9391223 1.1048543,0.93912619 0 0 1 1.10485,0.9391223 1.1048543,0.93912619 0 0 1 -1.10485,0.9391224 z m 4.419401,0 a 1.1048543,0.93912619 0 0 1 -1.10485,-0.9391224 1.1048543,0.93912619 0 0 1 1.10485,-0.9391223 1.1048543,0.93912619 0 0 1 1.10485,0.9391223 1.1048543,0.93912619 0 0 1 -1.10485,0.9391224 z m 4.419401,0 a 1.1048543,0.93912619 0 0 1 -1.10485,-0.9391224 1.1048543,0.93912619 0 0 1 1.10485,-0.9391223 1.1048543,0.93912619 0 0 1 1.104851,0.9391223 1.1048543,0.93912619 0 0 1 -1.104851,0.9391224 z m 4.419401,0 a 1.1048543,0.93912619 0 0 1 -1.10485,-0.9391224 1.1048543,0.93912619 0 0 1 1.10485,-0.9391223 1.1048543,0.93912619 0 0 1 1.104851,0.9391223 1.1048543,0.93912619 0 0 1 -1.104851,0.9391224 z m 4.419402,0 a 1.1048543,0.93912619 0 0 1 -1.104851,-0.9391224 1.1048543,0.93912619 0 0 1 1.104851,-0.9391223 1.1048543,0.93912619 0 0 1 1.10485,0.9391223 1.1048543,0.93912619 0 0 1 -1.10485,0.9391224 z m 4.419401,0 a 1.1048543,0.93912619 0 0 1 -1.10485,-0.9391224 1.1048543,0.93912619 0 0 1 1.10485,-0.9391223 1.1048543,0.93912619 0 0 1 1.10485,0.9391223 1.1048543,0.93912619 0 0 1 -1.10485,0.9391224 z m 4.419401,0 a 1.1048543,0.93912619 0 0 1 -1.10485,-0.9391224 1.1048543,0.93912619 0 0 1 1.10485,-0.9391223 1.1048543,0.93912619 0 0 1 1.10485,0.9391223 1.1048543,0.93912619 0 0 1 -1.10485,0.9391224 z m 4.419401,0 a 1.1048543,0.93912619 0 0 1 -1.10485,-0.9391224 1.1048543,0.93912619 0 0 1 1.10485,-0.9391223 1.1048543,0.93912619 0 0 1 1.10485,0.9391223 1.1048543,0.93912619 0 0 1 -1.10485,0.9391224 z m 4.419401,0 a 1.1048543,0.93912619 0 0 1 -1.10485,-0.9391224 1.1048543,0.93912619 0 0 1 1.10485,-0.9391223 1.1048543,0.93912619 0 0 1 1.104851,0.9391223 1.1048543,0.93912619 0 0 1 -1.104851,0.9391224 z m 4.419402,0 a 1.1048543,0.93912619 0 0 1 -1.104851,-0.9391224 1.1048543,0.93912619 0 0 1 1.104851,-0.9391223 1.1048543,0.93912619 0 0 1 1.10485,0.9391223 1.1048543,0.93912619 0 0 1 -1.10485,0.9391224 z m 4.419401,0 a 1.1048543,0.93912619 0 0 1 -1.104851,-0.9391224 1.1048543,0.93912619 0 0 1 1.104851,-0.9391223 1.1048543,0.93912619 0 0 1 1.10485,0.9391223 1.1048543,0.93912619 0 0 1 -1.10485,0.9391224 z m 4.419401,0 a 1.1048543,0.93912619 0 0 1 -1.10485,-0.9391224 1.1048543,0.93912619 0 0 1 1.10485,-0.9391223 1.1048543,0.93912619 0 0 1 1.10485,0.9391223 1.1048543,0.93912619 0 0 1 -1.10485,0.9391224 z m 4.419401,0 A 1.1048543,0.93912619 0 0 1 87.3275,9.9819876 1.1048543,0.93912619 0 0 1 88.43235,9.0428653 1.1048543,0.93912619 0 0 1 89.5372,9.9819876 1.1048543,0.93912619 0 0 1 88.43235,10.92111 Z m 4.419401,0 a 1.1048543,0.93912619 0 0 1 -1.10485,-0.9391224 1.1048543,0.93912619 0 0 1 1.10485,-0.9391223 1.1048543,0.93912619 0 0 1 1.10485,0.9391223 1.1048543,0.93912619 0 0 1 -1.10485,0.9391224 z M 22.141332,7.1646206 a 1.1048543,0.93912619 0 0 1 -1.10485,-0.9391223 1.1048543,0.93912619 0 0 1 1.10485,-0.9391223 1.1048543,0.93912619 0 0 1 1.104851,0.9391223 1.1048543,0.93912619 0 0 1 -1.104851,0.9391223 z m 0,-3.7564893 a 1.1048543,0.93912619 0 0 1 -1.10485,-0.9391223 1.1048543,0.93912619 0 0 1 1.10485,-0.9391224 1.1048543,0.93912619 0 0 1 1.104851,0.9391224 1.1048543,0.93912619 0 0 1 -1.104851,0.9391223 z m 0,-3.75648934 a 1.1048543,0.93912619 0 0 1 -1.10485,-0.93912236 1.1048543,0.93912619 0 0 1 1.10485,-0.9391223 1.1048543,0.93912619 0 0 1 1.104851,0.9391223 1.1048543,0.93912619 0 0 1 -1.104851,0.93912236 z m 0,-3.75648936 a 1.1048543,0.93912619 0 0 1 -1.10485,-0.9391223 1.1048543,0.93912619 0 0 1 1.10485,-0.9391223 1.1048543,0.93912619 0 0 1 1.104851,0.9391223 1.1048543,0.93912619 0 0 1 -1.104851,0.9391223 z m 0,-3.7564893 a 1.1048543,0.93912619 0 0 1 -1.10485,-0.9391223 1.1048543,0.93912619 0 0 1 1.10485,-0.9391224 1.1048543,0.93912619 0 0 1 1.104851,0.9391224 1.1048543,0.93912619 0 0 1 -1.104851,0.9391223 z m 0,-3.7564893 a 1.1048543,0.93912619 0 0 1 -1.10485,-0.939122 1.1048543,0.93912619 0 0 1 1.10485,-0.939123 1.1048543,0.93912619 0 0 1 1.104851,0.939123 1.1048543,0.93912619 0 0 1 -1.104851,0.939122 z m 0,-3.756489 a 1.1048543,0.93912619 0 0 1 -1.10485,-0.939123 1.1048543,0.93912619 0 0 1 1.10485,-0.939122 1.1048543,0.93912619 0 0 1 1.104851,0.939122 1.1048543,0.93912619 0 0 1 -1.104851,0.939123 z m 0,-3.75649 a 1.1048543,0.93912619 0 0 1 -1.10485,-0.939122 1.1048543,0.93912619 0 0 1 1.10485,-0.939122 1.1048543,0.93912619 0 0 1 1.104851,0.939122 1.1048543,0.93912619 0 0 1 -1.104851,0.939122 z m 0,-3.756489 a 1.1048543,0.93912619 0 0 1 -1.10485,-0.939122 1.1048543,0.93912619 0 0 1 1.10485,-0.939123 1.1048543,0.93912619 0 0 1 1.104851,0.939123 1.1048543,0.93912619 0 0 1 -1.104851,0.939122 z m 0,-3.756489 a 1.1048543,0.93912619 0 0 1 -1.10485,-0.939123 1.1048543,0.93912619 0 0 1 1.10485,-0.939122 1.1048543,0.93912619 0 0 1 1.104851,0.939122 1.1048543,0.93912619 0 0 1 -1.104851,0.939123 z m 0,-3.75649 a 1.1048543,0.93912619 0 0 1 -1.10485,-0.939122 1.1048543,0.93912619 0 0 1 1.10485,-0.939122 1.1048543,0.93912619 0 0 1 1.104851,0.939122 1.1048543,0.93912619 0 0 1 -1.104851,0.939122 z m 0,-3.756489 a 1.1048543,0.93912619 0 0 1 -1.10485,-0.939122 1.1048543,0.93912619 0 0 1 1.10485,-0.939123 1.1048543,0.93912619 0 0 1 1.104851,0.939123 1.1048543,0.93912619 0 0 1 -1.104851,0.939122 z m 0,-3.756489 a 1.1048543,0.93912619 0 0 1 -1.10485,-0.939123 1.1048543,0.93912619 0 0 1 1.10485,-0.939122 1.1048543,0.93912619 0 0 1 1.104851,0.939122 1.1048543,0.93912619 0 0 1 -1.104851,0.939123 z m 0,-3.75649 a 1.1048543,0.93912619 0 0 1 -1.10485,-0.939122 1.1048543,0.93912619 0 0 1 1.10485,-0.939122 1.1048543,0.93912619 0 0 1 1.104851,0.939122 1.1048543,0.93912619 0 0 1 -1.104851,0.939122 z m 0,-3.756489 a 1.1048543,0.93912619 0 0 1 -1.10485,-0.939122 1.1048543,0.93912619 0 0 1 1.10485,-0.939123 1.1048543,0.93912619 0 0 1 1.104851,0.939123 1.1048543,0.93912619 0 0 1 -1.104851,0.939122 z m 0,-3.756489 a 1.1048543,0.93912619 0 0 1 -1.10485,-0.939123 1.1048543,0.93912619 0 0 1 1.10485,-0.939122 1.1048543,0.93912619 0 0 1 1.104851,0.939122 1.1048543,0.93912619 0 0 1 -1.104851,0.939123 z m 0,-3.75649 a 1.1048543,0.93912619 0 0 1 -1.10485,-0.939122 1.1048543,0.93912619 0 0 1 1.10485,-0.939122 1.1048543,0.93912619 0 0 1 1.104851,0.939122 1.1048543,0.93912619 0 0 1 -1.104851,0.939122 z"
       transform="matrix(0.45255,0,0,-0.532412,-2.52006,11.81453)" /><rect
       style="opacity:1;fill:none;fill-opacity:1;stroke:#ffffff;stroke-width:1.025;stroke-linecap:butt;stroke-linejoin:miter;stroke-miterlimit:4;stroke-dasharray:none;stroke-dashoffset:0;stroke-opacity:1"
       id="rect4753"
       width="39.013622"
       height="41.033813"
       x="4.4870877"
       y="3.5124998"
       rx="0.0000000"
       ry="0.0000000" /></g><g
     id="g16"
     transform="matrix(1.8261304,0,0,1.8261304,32.787736,17.949231)">
			<linearGradient
   id="linearGradient2-5"
   gradientUnits="userSpaceOnUse"
   x1="58.423302"
   y1="132.44901"
   x2="58.423302"
   y2="74.146004">
				<stop
   offset="0"
   style="stop-color:rgb(255,144,0)"
   id="stop1-6" />
				<stop
   offset="1"
   style="stop-color:rgb(255,0,0)"
   id="stop2-9" />
			</linearGradient>
			<path
   d="m 90.85,75.364 -1.286,1.008 c -3.194,2.503 -6.572,4.624 -10.043,6.306 -2.463,1.2 -3.374,1.293 -3.595,1.293 -0.308,0 -0.41,-0.05 -0.412,-0.051 0,-0.006 -0.095,-0.139 -0.095,-0.537 0,-0.956 0.324,-3.412 1.868,-9.682 2.286,-9.4 4.749,-17.813 7.321,-25.005 l 7.283,-20.502 -2.737,0.485 -6.361,1.128 c 0,0 -1.349,1.79 -1.937,2.569 -1.596,-0.134 -3.197,-0.246 -4.749,-0.246 -7.548,0 -13.852,0.967 -18.734,2.873 -6.247,2.476 -12.255,6.37 -17.867,11.58 -5.584,5.187 -10.1,11.039 -13.421,17.394 -3.339,6.396 -5.033,12.309 -5.033,17.575 0,4.57 1.337,8.349 3.974,11.226 2.107,2.322 5.146,3.504 9.025,3.504 3.817,0 8.017,-1.188 12.482,-3.532 4.857,-2.519 9.264,-5.438 13.219,-8.672 -0.703,1.962 -1.448,4.037 -1.448,4.037 -0.513,1.389 -0.766,2.495 -0.766,3.372 0,1.506 0.561,2.702 1.665,3.556 1.078,0.823 2.597,1.239 4.524,1.239 2.274,0 4.633,-0.367 7.013,-1.092 3.466,-1.036 7.164,-2.662 10.98,-4.827 1.931,-1.098 6.145,-4.1 12.882,-9.178 l 1.188,-0.894 z m -48.003,8.607 c -1.642,0 -2.882,-0.515 -3.904,-1.618 -1.098,-1.184 -1.654,-3.271 -1.654,-6.205 0,-5.917 1.633,-11.935 4.854,-17.887 3.203,-5.915 6.668,-10.04 10.301,-12.26 3.578,-2.187 7.845,-3.294 12.678,-3.294 1.59,0 3.605,0.206 5.835,0.523 -0.83,2.58 -6.748,20.972 -6.748,20.972 -2.055,6.434 -5.292,11.405 -9.625,14.782 -4.24,3.309 -8.189,4.987 -11.737,4.987 z"
   style="fill:url(#XMLID_4_)"
   id="path13-2" />
			<path
   d="m 91.805,27.701 -9.293,1.647 c 0,0 -1.626,2.158 -1.895,2.515 -0.499,-0.026 -4.51,-0.233 -4.51,-0.233 -7.61,0 -13.975,0.978 -18.916,2.907 -6.306,2.5 -12.37,6.429 -18.026,11.679 -5.627,5.227 -10.177,11.124 -13.524,17.529 -3.377,6.47 -5.089,12.461 -5.089,17.807 0,4.7 1.381,8.591 4.105,11.563 2.207,2.432 5.368,3.666 9.394,3.666 3.901,0 8.179,-1.208 12.715,-3.59 4.27,-2.214 8.256,-4.849 11.965,-7.746 -0.423,1.179 -0.896,2.5 -0.896,2.5 -0.534,1.446 -0.795,2.605 -0.795,3.541 0,1.669 0.625,2.998 1.859,3.951 1.167,0.893 2.792,1.344 4.83,1.344 2.323,0 4.731,-0.375 7.158,-1.113 3.501,-1.047 7.229,-2.686 11.082,-4.871 1.951,-1.109 6.183,-4.123 12.936,-9.213 l 1.649,-1.24 -5.665,-5.646 -1.635,1.28 c -3.166,2.481 -6.515,4.584 -9.952,6.249 -2.47,1.203 -3.283,1.242 -3.373,1.243 -0.005,-0.036 -0.011,-0.088 -0.011,-0.088 0,-0.929 0.321,-3.341 1.854,-9.563 2.282,-9.384 4.74,-17.78 7.307,-24.956 L 92.65,27.55 Z m -2.564,1.469 c 0,0 1.084,-0.192 1.892,-0.335 -0.53,1.494 -6.995,19.693 -6.995,19.693 -2.578,7.208 -5.047,15.638 -7.337,25.055 -1.23,5 -1.882,8.39 -1.882,9.8 l 0.215,1.104 0.156,-0.12 0.636,0.104 c 0.395,0 1.415,-0.175 3.813,-1.344 3.501,-1.696 6.91,-3.836 10.133,-6.361 0,0 0.567,-0.444 0.938,-0.735 0.501,0.5 3.582,3.569 4.222,4.208 -0.346,0.26 -0.728,0.547 -0.728,0.547 -6.719,5.064 -10.915,8.055 -12.828,9.143 -3.786,2.147 -7.445,3.757 -10.877,4.782 -2.334,0.711 -4.645,1.071 -6.869,1.071 -1.813,0 -3.233,-0.383 -4.22,-1.137 -0.974,-0.752 -1.469,-1.815 -1.469,-3.158 0,-0.814 0.24,-1.861 0.735,-3.199 10e-4,-0.004 2.058,-5.738 2.058,-5.738 l -1.396,1.142 c -4.003,3.273 -8.422,6.172 -13.133,8.614 -4.394,2.308 -8.515,3.477 -12.252,3.477 -3.732,0 -6.645,-1.124 -8.655,-3.34 -2.551,-2.784 -3.844,-6.447 -3.844,-10.89 0,-5.183 1.674,-11.019 4.976,-17.344 3.293,-6.303 7.774,-12.11 13.318,-17.259 5.564,-5.166 11.523,-9.028 17.711,-11.481 4.822,-1.883 11.064,-2.838 18.55,-2.838 l 4.973,0.258 0.176,-0.211 c 0,0 1.609,-2.135 1.818,-2.412 0.362,-0.066 6.165,-1.096 6.165,-1.096 z"
   style="fill:#ae0000"
   id="path14" />
			<path
   d="m 52.184,45.574 c -3.709,2.266 -7.235,6.455 -10.48,12.448 -3.261,6.027 -4.915,12.125 -4.915,18.125 0,3.064 0.601,5.267 1.787,6.545 1.124,1.213 2.48,1.778 4.271,1.778 3.663,0 7.715,-1.714 12.045,-5.093 4.413,-3.44 7.708,-8.495 9.794,-15.024 l 6.929,-21.536 -0.587,-0.083 c -2.499,-0.355 -4.431,-0.528 -5.905,-0.528 -4.93,0 -9.282,1.133 -12.939,3.368 z M 39.309,82.013 c -1.009,-1.088 -1.521,-3.061 -1.521,-5.865 0,-5.833 1.613,-11.771 4.794,-17.649 3.16,-5.836 6.565,-9.898 10.122,-12.071 3.498,-2.137 7.676,-3.221 12.417,-3.221 1.298,0 3.035,0.16 5.173,0.447 -0.352,1.093 -6.562,20.395 -6.562,20.395 -2.023,6.335 -5.205,11.228 -9.457,14.541 -4.149,3.239 -7.995,4.882 -11.43,4.882 -1.491,-10e-4 -2.615,-0.464 -3.536,-1.459 z"
   style="fill:#ae0000"
   id="path15-5" />
			<linearGradient
   id="linearGradient4-5"
   gradientUnits="userSpaceOnUse"
   x1="56.2407"
   y1="8.8989"
   x2="56.2407"
   y2="89.401199">
				<stop
   offset="13.2184%"
   style="stop-color:rgb(255,255,255)"
   id="stop3" />
				<stop
   offset="100%"
   style="stop-opacity:0;stop-color:rgb(255,255,255)"
   id="stop4-4" />
			</linearGradient>
			<path
   a:adobe-blending-mode="screen"
   d="m 35.789,76.147 c 0,-6.169 1.694,-12.427 5.036,-18.602 3.33,-6.151 6.977,-10.466 10.838,-12.825 3.816,-2.332 8.345,-3.515 13.46,-3.515 1.522,0 3.5,0.176 6.046,0.538 l 1.762,0.25 -7.292,22.664 c -1.271,3.979 -2.995,7.417 -5.129,10.311 6.019,-2 11.705,-4.729 16.958,-8.063 1.824,-6.884 3.743,-13.162 5.729,-18.712 0,0 5.079,-14.299 6.42,-18.074 -0.026,0.004 -0.199,0.035 -0.199,0.035 0,0 -4.821,0.855 -5.78,1.025 -0.474,0.628 -1.582,2.098 -1.582,2.098 L 81.53,33.91 76.11,33.628 c -7.36,0 -13.48,0.932 -18.181,2.768 -6.075,2.408 -11.929,6.205 -17.402,11.286 -5.46,5.071 -9.872,10.788 -13.112,16.989 -2.412,4.62 -3.933,8.959 -4.548,12.953 4.253,0.742 8.629,1.148 13.098,1.19 -0.113,-0.81 -0.176,-1.691 -0.176,-2.667 z"
   style="fill:url(#XMLID_5_-3)"
   id="path16-6" />
		</g></svg>
