<?xml version="1.0" encoding="UTF-8" standalone="no"?>
<!-- Created with Inkscape (http://www.inkscape.org/) -->

<svg
   width="256mm"
   height="256mm"
   viewBox="0 0 256 256"
   version="1.1"
   id="svg1"
   inkscape:version="1.4.2 (ebf0e940d0, 2025-05-08)"
   sodipodi:docname="application-x-gnucash.svg"
   xmlns:inkscape="http://www.inkscape.org/namespaces/inkscape"
   xmlns:sodipodi="http://sodipodi.sourceforge.net/DTD/sodipodi-0.dtd"
   xmlns:xlink="http://www.w3.org/1999/xlink"
   xmlns="http://www.w3.org/2000/svg"
   xmlns:svg="http://www.w3.org/2000/svg"
   xmlns:rdf="http://www.w3.org/1999/02/22-rdf-syntax-ns#"
   xmlns:cc="http://creativecommons.org/ns#"
   xmlns:dc="http://purl.org/dc/elements/1.1/">
  <title
     id="title1">Sub File</title>
  <sodipodi:namedview
     id="namedview1"
     pagecolor="#ffffff"
     bordercolor="#000000"
     borderopacity="0.25"
     inkscape:showpageshadow="2"
     inkscape:pageopacity="0.0"
     inkscape:pagecheckerboard="0"
     inkscape:deskcolor="#d1d1d1"
     inkscape:document-units="mm"
     inkscape:zoom="0.57651276"
     inkscape:cx="562.86698"
     inkscape:cy="665.20643"
     inkscape:current-layer="g26"
     showguides="true" />
  <defs
     id="defs1">
    <linearGradient
       id="linearGradient14"
       inkscape:collect="always">
      <stop
         style="stop-color:#9d9d9d;stop-opacity:0.76277173;"
         offset="0"
         id="stop21" />
      <stop
         style="stop-color:#898989;stop-opacity:0;"
         offset="1"
         id="stop22" />
    </linearGradient>
    <linearGradient
       id="linearGradient9"
       inkscape:collect="always">
      <stop
         style="stop-color:#a4a4a4;stop-opacity:0;"
         offset="0"
         id="stop10" />
      <stop
         style="stop-color:#9e9e9e;stop-opacity:0.62876189;"
         offset="0.36316207"
         id="stop14" />
      <stop
         style="stop-color:#9d9d9d;stop-opacity:0.66334069;"
         offset="0.47206032"
         id="stop26" />
      <stop
         style="stop-color:#9c9c9c;stop-opacity:0.68627453"
         offset="0.58095855"
         id="stop23" />
      <stop
         style="stop-color:#a5a5a5;stop-opacity:0;"
         offset="1"
         id="stop13" />
    </linearGradient>
    <linearGradient
       id="linearGradient4"
       inkscape:collect="always">
      <stop
         style="stop-color:#9e9e9e;stop-opacity:0.77528024;"
         offset="0"
         id="stop4" />
      <stop
         style="stop-color:#969696;stop-opacity:0;"
         offset="1"
         id="stop9" />
    </linearGradient>
    <linearGradient
       id="linearGradient24"
       inkscape:collect="always">
      <stop
         style="stop-color:#ffffff;stop-opacity:1;"
         offset="0"
         id="stop24" />
      <stop
         style="stop-color:#f8f8f8;stop-opacity:0;"
         offset="1"
         id="stop25" />
    </linearGradient>
    <linearGradient
       id="linearGradient18"
       inkscape:collect="always">
      <stop
         style="stop-color:#a3a3a3;stop-opacity:1;"
         offset="0"
         id="stop19" />
      <stop
         style="stop-color:#8a8a8a;stop-opacity:1;"
         offset="1"
         id="stop20" />
    </linearGradient>
    <linearGradient
       id="linearGradient16"
       inkscape:collect="always">
      <stop
         style="stop-color:#ffffff;stop-opacity:1;"
         offset="0"
         id="stop17" />
      <stop
         style="stop-color:#bbbbbb;stop-opacity:1;"
         offset="1"
         id="stop18" />
    </linearGradient>
    <linearGradient
       id="linearGradient15"
       inkscape:collect="always">
      <stop
         style="stop-color:#000000;stop-opacity:0.52193588;"
         offset="0"
         id="stop15" />
      <stop
         style="stop-color:#000000;stop-opacity:0;"
         offset="1"
         id="stop16" />
    </linearGradient>
    <linearGradient
       id="linearGradient12"
       inkscape:collect="always">
      <stop
         style="stop-color:#ffffff;stop-opacity:1;"
         offset="0"
         id="stop11" />
      <stop
         style="stop-color:#ffffff;stop-opacity:0.64274555;"
         offset="1"
         id="stop12" />
    </linearGradient>
    <linearGradient
       id="linearGradient6"
       inkscape:collect="always">
      <stop
         style="stop-color:#ffffff;stop-opacity:1;"
         offset="0"
         id="stop7" />
      <stop
         style="stop-color:#bbbbbb;stop-opacity:1;"
         offset="1"
         id="stop8" />
    </linearGradient>
    <linearGradient
       id="linearGradient5"
       inkscape:collect="always">
      <stop
         style="stop-color:#a3a3a3;stop-opacity:1;"
         offset="0"
         id="stop5" />
      <stop
         style="stop-color:#8a8a8a;stop-opacity:1;"
         offset="1"
         id="stop6" />
    </linearGradient>
    <radialGradient
       inkscape:collect="always"
       xlink:href="#linearGradient5"
       id="radialGradient6"
       cx="75.066299"
       cy="74.607521"
       fx="75.066299"
       fy="74.607521"
       r="97.430664"
       gradientTransform="matrix(1.8981695,0,0,2.1817088,-96.702979,-133.54183)"
       gradientUnits="userSpaceOnUse" />
    <radialGradient
       inkscape:collect="always"
       xlink:href="#linearGradient6"
       id="radialGradient8"
       cx="174.45174"
       cy="189.403"
       fx="174.45174"
       fy="189.403"
       r="92.707426"
       gradientTransform="matrix(3.6956033,0,0,4.275761,-470.25265,-610.78818)"
       gradientUnits="userSpaceOnUse" />
    <radialGradient
       inkscape:collect="always"
       xlink:href="#linearGradient12"
       id="radialGradient11"
       gradientUnits="userSpaceOnUse"
       gradientTransform="matrix(1.8180173,0,0,2.0895839,-87.463524,-122.50101)"
       cx="75.066299"
       cy="74.607521"
       fx="75.066299"
       fy="74.607521"
       r="97.430664" />
    <radialGradient
       inkscape:collect="always"
       xlink:href="#linearGradient15"
       id="radialGradient16"
       cx="189.09937"
       cy="54.03986"
       fx="189.09937"
       fy="54.03986"
       r="26.26236"
       gradientTransform="matrix(2.5421412,0.6811647,-0.53467756,1.9954438,-265.4871,-191.34864)"
       gradientUnits="userSpaceOnUse" />
    <radialGradient
       inkscape:collect="always"
       xlink:href="#linearGradient16"
       id="radialGradient18"
       cx="163.13307"
       cy="81.723709"
       fx="163.13307"
       fy="81.723709"
       r="28.42736"
       gradientTransform="matrix(1.9525628,-0.49137406,0.39129194,1.5548686,-183.5452,34.191671)"
       gradientUnits="userSpaceOnUse" />
    <radialGradient
       inkscape:collect="always"
       xlink:href="#linearGradient18"
       id="radialGradient20"
       cx="163.86221"
       cy="57.354431"
       fx="163.86221"
       fy="57.354431"
       r="26.811067"
       gradientTransform="matrix(1.7424858,-0.07965295,0.07021751,1.5360764,-129.82848,-12.432711)"
       gradientUnits="userSpaceOnUse" />
    <linearGradient
       inkscape:collect="always"
       xlink:href="#linearGradient24"
       id="linearGradient25"
       x1="168.39914"
       y1="59.019711"
       x2="182.49422"
       y2="47.129765"
       gradientUnits="userSpaceOnUse" />
    <radialGradient
       inkscape:collect="always"
       xlink:href="#linearGradient4"
       id="radialGradient9"
       cx="25.964643"
       cy="242.70813"
       fx="25.964643"
       fy="242.70813"
       r="10.821037"
       gradientTransform="matrix(1.3500924,0,0,1.1782891,-7.4889947,-42.382648)"
       gradientUnits="userSpaceOnUse" />
    <linearGradient
       inkscape:collect="always"
       xlink:href="#linearGradient9"
       id="linearGradient13"
       x1="119.62739"
       y1="227.97072"
       x2="119.62739"
       y2="256.21124"
       gradientUnits="userSpaceOnUse" />
    <radialGradient
       inkscape:collect="always"
       xlink:href="#linearGradient14"
       id="radialGradient22"
       cx="215.0412"
       cy="241.92787"
       fx="215.0412"
       fy="241.92787"
       r="10.821037"
       gradientTransform="matrix(1.2864395,0,0,1.3278689,-63.973477,-78.809529)"
       gradientUnits="userSpaceOnUse" />
    <linearGradient
       id="linearGradient5060">
      <stop
         id="stop5062"
         offset="0" />
      <stop
         id="stop5064"
         stop-opacity="0"
         offset="1" />
    </linearGradient>
    <linearGradient
       id="linearGradient6001">
      <stop
         id="stop6003"
         stop-color="#fff"
         offset="0" />
      <stop
         id="stop6005"
         stop-color="#fff"
         stop-opacity="0"
         offset="1" />
    </linearGradient>
    <linearGradient
       id="linearGradient3-paper-sheet-orig-0-6">
      <stop
         style="stop-color: rgb(255, 255, 255); stop-opacity: 1;"
         offset="0"
         id="stop6-paper-sheet-orig-2-3" />
      <stop
         style="stop-color: rgb(211, 215, 207); stop-opacity: 1;"
         offset="1"
         id="stop7-paper-sheet-orig-8-4" />
    </linearGradient>
    <clipPath
       clipPathUnits="userSpaceOnUse"
       id="clipPath0-paper-sheet-orig-3">
      <path
         style="fill:url(#linearGradient6013) #000000;fill-opacity:1;fill-rule:evenodd;stroke:none"
         d="m 36,19 c -0.562656,0 -1,0.437344 -1,1 v 158.35872 c 0,0.56266 0.437344,1 1,1 h 184 c 0.56266,0 1,-0.43734 1,-1 V 66 C 221,52.442308 210.14182,40.704328 204.71875,35.28125 199.29568,29.858173 187.5577,19 174,19 Z"
         id="path0-paper-sheet-orig-9"
         inkscape:connector-curvature="0"
         sodipodi:nodetypes="ssssssssss" />
    </clipPath>
    <mask
       maskUnits="userSpaceOnUse"
       id="mask0-paper-sheet-orig-6-5">
      <path
         id="path1-paper-sheet-orig-9-2"
         d="m 36,-31 c -0.562656,0 -1,0.437344 -1,1 v 217 c 0,0.56266 0.437344,1 1,1 h 184 c 0.56266,0 1,-0.43734 1,-1 V 16 C 221,2.442308 208.14182,-7.295672 202.71875,-12.71875 197.29568,-18.141827 187.5577,-31 174,-31 Z"
         style="display:inline;fill:#ffffff;fill-opacity:1;fill-rule:evenodd;stroke:none"
         sodipodi:nodetypes="cccccccscc"
         inkscape:connector-curvature="0" />
    </mask>
    <linearGradient
       id="linearGradient32-paper-sheet-orig-9-6">
      <stop
         style="stop-color: rgb(255, 255, 255); stop-opacity: 1;"
         offset="0"
         id="stop42-paper-sheet-orig-3-0" />
      <stop
         id="stop43-paper-sheet-orig-9-9"
         offset="0.44760558"
         style="stop-color: rgb(230, 230, 230); stop-opacity: 1;" />
      <stop
         style="stop-color: rgb(203, 203, 203); stop-opacity: 1;"
         offset="0.81267858"
         id="stop44-paper-sheet-orig-1-3" />
      <stop
         style="stop-color: rgb(219, 219, 219); stop-opacity: 1;"
         offset="1"
         id="stop45-paper-sheet-orig-5-0" />
    </linearGradient>
    <clipPath
       clipPathUnits="userSpaceOnUse"
       id="clipPath12793">
      <path
         id="path12795"
         d="m 1240.989,951.95685 c -0.5566,0 -0.9892,0.44748 -0.9892,1.02317 v 222.02788 c 0,0.5757 0.4326,1.0232 0.9892,1.0232 h 182.0228 c 0.5566,0 0.9892,-0.4475 0.9892,-1.0232 v -174.9621 c 0,-13.87178 -10.7415,-25.88173 -16.1063,-31.43046 -5.3648,-5.54873 -16.9766,-16.65849 -30.3886,-16.65849 z"
         style="display:inline;overflow:visible;visibility:visible;fill:#000000;fill-opacity:1;fill-rule:nonzero;stroke:none;stroke-width:1;marker:none"
         inkscape:connector-curvature="0" />
    </clipPath>
    <clipPath
       clipPathUnits="userSpaceOnUse"
       id="clipPath12688">
      <path
         style="display:inline;fill:#000000;fill-opacity:1;stroke:none"
         d="m 1252,1006 v 2 134 2 h 224 v -2 z m 32,58.8438 74.375,45.1562 H 1284 Z"
         id="path12690"
         sodipodi:nodetypes="ccccccccccc"
         inkscape:connector-curvature="0" />
    </clipPath>
    <radialGradient
       xlink:href="#c"
       id="f"
       cx="17.983999"
       cy="40.604"
       r="21.031"
       fx="17.983999"
       fy="40.604"
       gradientTransform="matrix(1.11382,0,0,0.53935,-2.124,18.941)"
       gradientUnits="userSpaceOnUse" />
    <linearGradient
       id="c">
      <stop
         offset="0"
         stop-color="#555753"
         id="stop9-1" />
      <stop
         offset="1"
         stop-color="#555753"
         stop-opacity="0"
         id="stop10-5" />
    </linearGradient>
    <radialGradient
       xlink:href="#e"
       id="h"
       cx="24.013"
       cy="31.643999"
       r="14.987"
       fx="24.013"
       fy="31.643999"
       gradientTransform="matrix(3.32355,0,0,2.77205,-55.796,-48.866)"
       gradientUnits="userSpaceOnUse" />
    <linearGradient
       id="e">
      <stop
         offset="0"
         stop-color="#d3d7cf"
         id="stop3" />
      <stop
         offset="1"
         stop-color="#d3d7cf"
         stop-opacity="0"
         id="stop4-5" />
    </linearGradient>
    <radialGradient
       xlink:href="#d"
       id="i"
       cx="24.5"
       cy="18.593"
       r="14.5"
       fx="24.5"
       fy="18.593"
       gradientTransform="matrix(2.94027,0,0,2.43333,-47.537,-23.367)"
       gradientUnits="userSpaceOnUse" />
    <linearGradient
       id="d">
      <stop
         offset="0"
         stop-color="#babdb6"
         id="stop7-4" />
      <stop
         offset="1"
         stop-color="#babdb6"
         stop-opacity="0"
         id="stop8-7" />
    </linearGradient>
    <linearGradient
       xlink:href="#a"
       id="j"
       x1="24.613001"
       x2="29.181999"
       y1="20.16"
       y2="12.246"
       gradientTransform="translate(0,1)"
       gradientUnits="userSpaceOnUse" />
    <linearGradient
       id="a">
      <stop
         offset="0"
         stop-color="#204a87"
         id="stop5-6" />
      <stop
         offset="1"
         stop-color="#204a87"
         stop-opacity="0"
         id="stop6-5" />
    </linearGradient>
    <linearGradient
       xlink:href="#b"
       id="m"
       x1="18"
       x2="18"
       y1="39"
       y2="45.779999"
       gradientTransform="matrix(1,0,0,0.83333,0,7.5)"
       gradientUnits="userSpaceOnUse" />
    <linearGradient
       id="b">
      <stop
         offset="0"
         stop-color="#eeeeec"
         id="stop1" />
      <stop
         offset="1"
         stop-color="#eeeeec"
         stop-opacity="0"
         id="stop2" />
    </linearGradient>
  </defs>
  <metadata
     id="metadata1">
    <rdf:RDF>
      <cc:Work
         rdf:about="">
        <cc:license
           rdf:resource="http://creativecommons.org/publicdomain/zero/1.0/" />
        <dc:title>Sub File</dc:title>
        <dc:date>202507</dc:date>
        <dc:creator>
          <cc:Agent>
            <dc:title>Paper sheet by Jakub Steiner </dc:title>
          </cc:Agent>
        </dc:creator>
        <dc:publisher>
          <cc:Agent>
            <dc:title>Blackcrack</dc:title>
          </cc:Agent>
        </dc:publisher>
        <dc:description>Groundfile for Mimetype-files
202507 - Blackcrack - Rebuild the Sheet from  Jakub Steiner total fresh because the Code was buggy (oversize) because that i have must make it fresh with Inkscape 1.4.2 with same Design, now it's in the right size, also at the Icon Themeviewer in Plasma.
202507 finaly many Mimetypes for Tango! from Blackcrack</dc:description>
        <dc:contributor>
          <cc:Agent>
            <dc:title>Paper sheet by Jakub Steiner &lt;http://jimmac.musichall.cz&gt;
202507 Blackcrack : Mimetypes creating for tango!</dc:title>
          </cc:Agent>
        </dc:contributor>
      </cc:Work>
      <cc:License
         rdf:about="http://creativecommons.org/publicdomain/zero/1.0/">
        <cc:permits
           rdf:resource="http://creativecommons.org/ns#Reproduction" />
        <cc:permits
           rdf:resource="http://creativecommons.org/ns#Distribution" />
        <cc:permits
           rdf:resource="http://creativecommons.org/ns#DerivativeWorks" />
      </cc:License>
    </rdf:RDF>
  </metadata>
  <g
     id="g26"
     transform="matrix(1.0110135,0,0,1.0271114,5.1068557,-7.0669282)">
    <g
       id="g1"
       inkscape:label="bgnshadow">
      <g
         id="g27"
         inkscape:label="shadow"
         transform="matrix(0.9809334,0,0,0.9809334,5.1601093,4.6032445)">
        <rect
           style="fill:url(#linearGradient13);fill-rule:evenodd;stroke-width:1.476;stroke-linecap:round;stroke-linejoin:round;paint-order:stroke fill markers"
           id="rect2"
           width="184.84464"
           height="28.737843"
           x="27.673475"
           y="226.00008" />
        <rect
           style="fill:url(#radialGradient9);fill-rule:evenodd;stroke-width:1.476;stroke-linecap:round;stroke-linejoin:round;paint-order:stroke fill markers"
           id="rect3"
           width="21.580748"
           height="28.737839"
           x="6.1013594"
           y="226.00008" />
        <rect
           style="fill:url(#radialGradient22);fill-rule:evenodd;stroke-width:1.476;stroke-linecap:round;stroke-linejoin:round;paint-order:stroke fill markers"
           id="rect4"
           width="21.642075"
           height="28.737839"
           x="212.51927"
           y="226.00008" />
      </g>
      <g
         id="rect1"
         style="opacity:1"
         transform="matrix(0.96874842,0,0,0.96874842,2.9832174,4.9451305)">
        <path
           style="baseline-shift:baseline;display:inline;overflow:visible;fill:url(#radialGradient6);fill-rule:evenodd;stroke-width:1.00013;stroke-linecap:square;stroke-dasharray:none;paint-order:stroke fill markers;enable-background:accumulate;stop-color:#000000;stop-opacity:1"
           d="m 32.501748,15.190316 c -6.164423,0 -9.332052,2.390294 -9.332052,8.554717 V 232.87562 c 0,6.16442 2.390294,8.16605 8.554717,8.16605 H 211.78111 c 6.16442,0 9.33206,-2.3903 9.33206,-8.55472 V 77.24196 c 0,-7.769553 -48.54277,-62.051644 -67.51449,-62.051644 z m 1.943339,9.445313 H 153.59868 c 7.88599,0 57.28988,47.93445 57.28988,52.606331 v 152.52432 c 0,1.09493 -0.73319,1.83008 -1.82812,1.83008 H 34.445087 c -1.094929,0 -1.830078,-0.73515 -1.830078,-1.83008 V 26.465707 c 0,-1.094929 0.735149,-1.830078 1.830078,-1.830078 z"
           id="path4"
           sodipodi:nodetypes="ssssssssssssssssss" />
        <path
           style="baseline-shift:baseline;display:inline;overflow:visible;vector-effect:none;fill:url(#radialGradient8);fill-rule:evenodd;stroke-linecap:square;paint-order:stroke fill markers;enable-background:accumulate;stop-color:#000000;stop-opacity:1"
           d="m 35.95035,20.666336 h 126.97059 c 8.45031,0 51.8925,53.10732 51.8925,57.65975 V 228.63696 c 0,3.62968 -2.92208,6.55176 -6.55176,6.55176 H 35.95035 c -3.629676,0 -6.551762,-2.92208 -6.551762,-6.55176 V 27.218098 c 0,-3.629676 2.922086,-6.551762 6.551762,-6.551762 z"
           id="path5"
           sodipodi:nodetypes="sssssssss" />
        <path
           style="baseline-shift:baseline;display:inline;overflow:visible;opacity:1;fill:url(#radialGradient11);fill-rule:evenodd;stroke-width:0.957899;stroke-linecap:square;stroke-dasharray:none;paint-order:stroke fill markers;enable-background:accumulate;stop-color:#000000;stop-opacity:1"
           d="m 38.490307,20.672015 c -5.904124,0 -9.723771,1.698513 -9.700415,7.602591 l 0.798722,201.901844 c 0.0079,2.00188 2.542406,5.007 6.609957,5.007 H 208.01432 c 4.63265,0 7.40868,-4.18878 7.40868,-7.97377 V 79.352581 c 0,-7.441476 -40.78525,-58.680566 -63.90137,-58.680566 z m 113.031323,6.348757 c 18.21976,0 58.41027,42.155832 58.39934,52.331809 l -0.15572,145.031599 c -0.004,3.59404 -0.98481,4.99145 -5.14153,5.00212 -17.95655,-1.29577 -168.755024,-0.0767 -168.755024,-0.0767 L 35.586781,27.020772 Z"
           id="path11"
           sodipodi:nodetypes="sssssssssssssccs" />
      </g>
    </g>
    <g
       id="g49"
       transform="matrix(3.2861348,0,0,3.2346312,43.595649,60.533443)">
      <path
         fill="url(#f)"
         fill-rule="evenodd"
         d="m 39.693,41.416 a 21.0305,10.184242 0 1 1 -42.061,0 21.03,10.184 0 1 1 42.06,0 z"
         opacity="0.5"
         transform="matrix(1.1412,0,0,0.83467,2.703,4.931)"
         id="path10"
         style="fill:url(#f)" />
      <path
         fill="#edd400"
         fill-rule="evenodd"
         stroke="#786100"
         stroke-width="1.05"
         d="m 32.823,18.895 a 6.33,2.177 0 1 1 -12.66,0 6.33,2.177 0 1 1 12.66,0 z"
         transform="matrix(0.7904,0,0,1.14756,20.586,17.32)"
         id="path11-9" />
      <path
         fill="none"
         d="m 45.527,39.003 a 4.004,1.497 0 1 1 -8.008,0 4.004,1.497 0 1 1 8.008,0 z"
         opacity="0.6"
         id="path12" />
      <path
         id="use12"
         fill="#edd400"
         fill-rule="evenodd"
         stroke="#8c7200"
         stroke-width="1"
         d="m 46.538299,37.010146 a 5.003232,2.4982381 0 1 1 -10.006464,0 5.003232,2.4982381 0 1 1 10.006464,0 z" />
      <path
         fill="none"
         d="m 45.537,37.01 a 4.004,1.497 0 1 1 -8.008,0 4.004,1.497 0 1 1 8.008,0 z"
         opacity="0.6"
         id="path13" />
      <rect
         width="35.041"
         height="34.995998"
         x="6.473"
         y="2.5020001"
         fill="#eeeeec"
         fill-rule="evenodd"
         stroke="#555753"
         rx="2"
         ry="2"
         id="rect13" />
      <path
         id="use13"
         fill="#edd400"
         fill-rule="evenodd"
         stroke="#8c7200"
         stroke-width="1"
         d="m 46.538299,35.010146 a 5.003232,2.4982381 0 1 1 -10.006464,0 5.003232,2.4982381 0 1 1 10.006464,0 z" />
      <rect
         width="29.974001"
         height="25"
         x="9.026"
         y="6"
         fill="url(#h)"
         fill-rule="evenodd"
         rx="1.625"
         ry="1.625"
         id="rect14"
         style="fill:url(#h)" />
      <path
         fill="none"
         d="m 45.537,35.01 a 4.004,1.497 0 1 1 -8.008,0 4.004,1.497 0 1 1 8.008,0 z"
         opacity="0.6"
         id="path14" />
      <path
         fill="url(#i)"
         fill-rule="evenodd"
         d="m 14.031,6 v 4 H 10 v 1 h 4.031 v 4 H 10 v 1 h 4.031 v 4 H 10 v 1 h 4.031 v 4 H 10 v 1 h 4.031 v 4 h 1 v -4 h 4 v 4 h 1 v -4 h 4 v 4 h 1 v -4 h 4 v 4 h 1 v -4 h 4 v 4 h 1 V 26 H 39 V 25 H 35.031 V 21 H 39 V 20 H 35.031 V 16 H 39 V 15 H 35.031 V 11 H 39 V 10 H 35.031 V 6 h -1 v 4 h -4 V 6 h -1 v 4 h -4 V 6 h -1 v 4 h -4 V 6 h -1 v 4 h -4 V 6 Z m 1,5 h 4 v 4 h -4 z m 5,0 h 4 v 4 h -4 z m 5,0 h 4 v 4 h -4 z m 5,0 h 4 v 4 h -4 z m -15,5 h 4 v 4 h -4 z m 5,0 h 4 v 4 h -4 z m 5,0 h 4 v 4 h -4 z m 5,0 h 4 v 4 h -4 z m -15,5 h 4 v 4 h -4 z m 5,0 h 4 v 4 h -4 z m 5,0 h 4 v 4 h -4 z m 5,0 h 4 v 4 h -4 z"
         id="path15"
         style="fill:url(#i)" />
      <path
         id="use15"
         fill="#edd400"
         fill-rule="evenodd"
         stroke="#8c7200"
         stroke-width="1"
         d="m 46.526299,33.005146 a 5.003232,2.4982381 0 1 1 -10.006464,0 5.003232,2.4982381 0 1 1 10.006464,0 z" />
      <path
         fill="url(#j)"
         fill-rule="evenodd"
         d="M 28.531,13 23.648,21.817 15.038,17.02 9.031,26.5 9.906,27 15.318,18.273 24.02,23.054 29.406,13.5 Z"
         id="path16"
         style="fill:url(#j)" />
      <path
         fill="#888a85"
         fill-rule="evenodd"
         d="m 39,30 v 1 H 9 v -1 z"
         id="path17" />
      <path
         fill="none"
         d="m 45.537,33.003 a 4.004,1.497 0 1 1 -8.008,0 4.004,1.497 0 1 1 8.008,0 z"
         opacity="0.6"
         id="path18" />
      <path
         fill="#888a85"
         fill-rule="evenodd"
         d="m 9.026,6 h 1 v 25 h -1 z"
         id="path19" />
      <path
         fill="#4e9a06"
         fill-rule="evenodd"
         stroke="#2e5c02"
         d="m 1.5,34.49 h 24 v 6.024 h -24 z"
         id="path20" />
      <path
         fill="#59af05"
         fill-rule="evenodd"
         stroke="#2e5c02"
         d="M 4.326,28.5 H 24.598 L 25.5,34.51 H 1.5 Z"
         id="path21" />
      <path
         fill="#2e5c02"
         fill-rule="evenodd"
         d="m 2,38.037 h 23 v 1 H 2 Z m 0,-2 h 23 v 1 H 2 Z"
         id="path22" />
      <path
         fill="none"
         stroke="#ffffff"
         d="M 4.938,29.552 2.968,33.49 H 24.313 L 23.719,29.552 Z"
         opacity="0.25"
         id="path23" />
      <path
         fill="#eeeeec"
         fill-rule="evenodd"
         stroke="#555753"
         d="m 11.531,34.474 h 4.937 v 6.109 h -4.937 z"
         id="path24" />
      <path
         fill="#2e5c02"
         fill-rule="evenodd"
         d="m 19,31.5 a 5,1.5 0 1 1 -10,0 5,1.5 0 1 1 10,0 z"
         id="path25" />
      <path
         fill="#d3d7cf"
         fill-rule="evenodd"
         stroke="#555753"
         d="m 12.5,28.496 -1,5.637 v 6.371 h 5 V 34.08 L 15.406,28.497 H 12.5 Z"
         id="path26" />
      <path
         fill="#4e9a06"
         fill-rule="evenodd"
         stroke="#2e5c02"
         d="M 5.491,39.471 H 29.5 v 6.04 H 5.491 Z"
         id="path27" />
      <path
         fill="#57ae06"
         fill-rule="evenodd"
         stroke="#2e5c02"
         d="m 7.45,33.505 h 20.21 l 1.84,5.994 h -24 z"
         id="path28" />
      <path
         fill="#ecd300"
         fill-rule="evenodd"
         stroke="#786100"
         stroke-width="1.05"
         d="m 32.823,18.895 a 6.33,2.177 0 1 1 -12.66,0 6.33,2.177 0 1 1 12.66,0 z"
         transform="matrix(0.7904,0,0,1.14756,15.576,20.314)"
         id="path29" />
      <path
         id="use29"
         fill="#edd400"
         fill-rule="evenodd"
         stroke="#8c7200"
         stroke-width="1"
         d="m 46.538299,31.003146 a 5.003232,2.4982381 0 1 1 -10.006464,0 5.003232,2.4982381 0 1 1 10.006464,0 z" />
      <path
         fill="#2e5c02"
         fill-rule="evenodd"
         d="m 6,43 h 23 v 1 H 6 Z"
         id="path30" />
      <path
         fill="none"
         d="m 40.517,41.997 a 4.004,1.497 0 1 1 -8.007,0 4.004,1.497 0 1 1 8.007,0 z"
         opacity="0.6"
         id="path31" />
      <path
         fill="#2e5c02"
         fill-rule="evenodd"
         d="m 6,41 h 23 v 1 H 6 Z"
         id="path32" />
      <path
         id="use32"
         fill="#ecd300"
         fill-rule="evenodd"
         stroke="#8c7200"
         stroke-width="1"
         d="m 41.529299,40.003146 a 5.003232,2.4982381 0 1 1 -10.006464,0 5.003232,2.4982381 0 1 1 10.006464,0 z" />
      <path
         fill="none"
         d="m 45.537,31.003 a 4.004,1.497 0 1 1 -8.008,0 4.004,1.497 0 1 1 8.008,0 z m -5.01,9 a 4.004,1.497 0 1 1 -8.008,0 4.004,1.497 0 1 1 8.008,0 z"
         opacity="0.6"
         id="path33" />
      <path
         id="use33"
         fill="#ecd300"
         fill-rule="evenodd"
         stroke="#8c7200"
         stroke-width="1"
         d="m 41.529299,38.003146 a 5.003232,2.4982381 0 1 1 -10.006464,0 5.003232,2.4982381 0 1 1 10.006464,0 z" />
      <path
         id="use34"
         fill="#edd400"
         fill-rule="evenodd"
         stroke="#8c7200"
         stroke-width="1"
         d="m 46.538299,29.008146 a 5.003232,2.4982381 0 1 1 -10.006464,0 5.003232,2.4982381 0 1 1 10.006464,0 z" />
      <path
         fill="none"
         stroke="#ffffff"
         d="M 8.219,34.531 6.938,38.47 H 28.094 L 26.875,34.532 H 8.219 Z"
         opacity="0.25"
         id="path34" />
      <path
         fill="none"
         d="m 40.527,38.003 a 4.004,1.497 0 1 1 -8.008,0 4.004,1.497 0 1 1 8.008,0 z"
         opacity="0.6"
         id="path35" />
      <path
         id="use35"
         fill="#ecd300"
         fill-rule="evenodd"
         stroke="#8c7200"
         stroke-width="1"
         d="m 41.516299,35.999146 a 5.003232,2.4982381 0 1 1 -10.006464,0 5.003232,2.4982381 0 1 1 10.006464,0 z" />
      <path
         fill="none"
         d="m 40.527,35.997 a 4.004,1.497 0 1 1 -8.008,0 4.004,1.497 0 1 1 8.008,0 z"
         opacity="0.6"
         id="path36" />
      <path
         id="use36"
         fill="#edd400"
         fill-rule="evenodd"
         stroke="#8c7200"
         stroke-width="1"
         d="m 46.526299,27.003146 a 5.003232,2.4982381 0 1 1 -10.006464,0 5.003232,2.4982381 0 1 1 10.006464,0 z" />
      <path
         id="use37"
         fill="#ecd300"
         fill-rule="evenodd"
         stroke="#8c7200"
         stroke-width="1"
         d="m 41.529299,33.997146 a 5.003232,2.4982381 0 1 1 -10.006464,0 5.003232,2.4982381 0 1 1 10.006464,0 z" />
      <path
         fill="none"
         d="m 40.527,33.997 a 4.004,1.497 0 1 1 -8.008,0 4.004,1.497 0 1 1 8.008,0 z"
         opacity="0.6"
         id="path37" />
      <path
         fill="#2e5c02"
         fill-rule="evenodd"
         d="m 10.969,33.485 a 1,0.5 0 1 1 -2,0 1,0.5 0 1 1 2,0 z m 15,0 a 1,0.5 0 1 1 -2,0 1,0.5 0 1 1 2,0 z M 23,36.5 a 5,1.5 0 1 1 -10,0 5,1.5 0 1 1 10,0 z m -12,0.985 a 1.516,0.5 0 1 1 -3.031,0 1.516,0.5 0 1 1 3.031,0 z M 27,37.5 a 1.5,0.5 0 1 1 -3,0 1.5,0.5 0 1 1 3,0 z"
         id="path38" />
      <path
         fill="#d3d7cf"
         fill-rule="evenodd"
         stroke="#555753"
         d="m 16.5,33.521 -1,5.626 v 6.357 h 5 v -6.411 l -1.094,-5.572 z"
         id="path39" />
      <path
         fill="#888a85"
         fill-rule="evenodd"
         d="m 16,40 h 4 v 5 h -4 z"
         id="path40" />
      <path
         fill="url(#m)"
         fill-rule="evenodd"
         d="m 16,40 h 4 v 5 h -4 z"
         id="path41"
         style="fill:url(#m)" />
      <path
         fill="#2e5c02"
         fill-rule="evenodd"
         d="m 26,35.5 a 1.5,0.5 0 1 1 -3,0 1.5,0.5 0 1 1 3,0 z m -14,0 a 1.5,0.5 0 1 1 -3,0 1.5,0.5 0 1 1 3,0 z"
         id="path42" />
      <path
         fill="#ffffff"
         fill-rule="evenodd"
         d="M 9,6 H 39 C 26.84,9.91 27.662,24 9,24 Z"
         opacity="0.2"
         id="path43" />
      <path
         fill="#2e5c02"
         fill-rule="evenodd"
         d="m 7,32.5 a 1.516,0.5 0 1 1 -3.031,0 1.516,0.5 0 1 1 3.031,0 z m 17,0 a 1.5,0.5 0 1 1 -3,0 1.5,0.5 0 1 1 3,0 z m -1,-2 a 1.5,0.5 0 1 1 -3,0 1.5,0.5 0 1 1 3,0 z m -15,0 a 1.5,0.5 0 1 1 -3,0 1.5,0.5 0 1 1 3,0 z"
         id="path44" />
      <path
         id="use44"
         fill="#edd400"
         fill-rule="evenodd"
         stroke="#8c7200"
         stroke-width="1"
         d="m 46.538299,25.002146 a 5.003232,2.4982381 0 1 1 -10.006464,0 5.003232,2.4982381 0 1 1 10.006464,0 z" />
      <path
         id="use45"
         fill="#edd400"
         fill-rule="evenodd"
         stroke="#8c7200"
         stroke-width="1"
         d="m 46.538299,23.002146 a 5.003232,2.4982381 0 1 1 -10.006464,0 5.003232,2.4982381 0 1 1 10.006464,0 z" />
      <path
         id="use46"
         fill="#fce94f"
         fill-rule="evenodd"
         stroke="#8c7200"
         stroke-width="1"
         d="m 46.519299,20.999146 a 5.003232,2.4982381 0 1 1 -10.006464,0 5.003232,2.4982381 0 1 1 10.006464,0 z" />
      <path
         id="use47"
         fill="#fce94f"
         fill-rule="evenodd"
         stroke="#8c7200"
         stroke-width="1"
         d="m 41.509299,31.997146 a 5.003232,2.4982381 0 1 1 -10.006464,0 5.003232,2.4982381 0 1 1 10.006464,0 z" />
      <path
         id="use48"
         fill="none"
         stroke="#ffffff"
         stroke-width="0.819032"
         d="m 40.507876,31.996879 a 4.0037885,1.4967529 0 1 1 -8.007577,0 4.0037885,1.4967529 0 1 1 8.007577,0 z"
         opacity="0.3" />
      <path
         id="use49"
         fill="none"
         stroke="#ffffff"
         stroke-width="0.819032"
         d="m 45.509876,20.996879 a 4.0037885,1.4967529 0 1 1 -8.007577,0 4.0037885,1.4967529 0 1 1 8.007577,0 z"
         opacity="0.3" />
    </g>
    <g
       id="g25"
       transform="matrix(0.96874842,0,0,0.96874842,2.9832174,4.9451305)"
       inkscape:label="corner">
      <path
         id="rect15"
         style="fill:url(#radialGradient16);fill-rule:evenodd;stroke-width:5.31283;stroke-linecap:round;stroke-linejoin:round;stroke-dasharray:none;paint-order:stroke fill markers"
         d="m 162.28068,17.131718 6.77738,7.718687 c 14.83606,10.176161 40.05243,35.096719 46.35882,52.799059 -30.22806,-3.860408 -46.56567,3.040013 -62.92576,9.891727 -12.25281,-13.794148 20.14727,-48.441465 9.78956,-70.409473 z"
         sodipodi:nodetypes="ccccc" />
      <path
         id="rect16"
         style="fill:url(#radialGradient18);fill-rule:evenodd;stroke:url(#radialGradient20);stroke-width:8.17562;stroke-linecap:round;stroke-linejoin:round;stroke-dasharray:none;paint-order:stroke fill markers"
         d="m 154.0954,19.477065 c 26.62116,7.028338 58.21786,39.705383 61.08935,54.775615 -10.57275,-7.513474 -40.86995,-7.535453 -62.24463,-8.277256 5.26112,-5.771451 7.7788,-30.735109 1.15528,-46.498359 z"
         sodipodi:nodetypes="cccc" />
      <path
         id="rect20"
         style="fill:url(#linearGradient25);fill-rule:evenodd;stroke-width:5.82083;stroke-linecap:round;stroke-linejoin:round;paint-order:stroke fill markers"
         d="m 154.46507,21.289603 7.14008,0.594311 c 2.93924,11.484548 5.90595,25.163929 1.78202,39.604877 17.39684,-2.01662 38.85102,2.541784 50.19452,9.956123 l 0.37652,4.706517 c -10.27937,-10.991135 -27.67142,-11.007278 -59.70224,-9.724204 6.65045,-19.81034 4.06359,-35.945334 0.2091,-45.137624 z"
         sodipodi:nodetypes="ccccccc" />
    </g>
  </g>
</svg>
