<?xml version="1.0" encoding="UTF-8" standalone="no"?>
<!-- Created with Inkscape (http://www.inkscape.org/) -->

<svg
   sodipodi:docname="application-x-ktheme.svg"
   inkscape:version="1.4.2 (ebf0e940d0, 2025-05-08)"
   sodipodi:version="0.32"
   id="svg2963"
   height="256mm"
   width="256mm"
   inkscape:output_extension="org.inkscape.output.svg.inkscape"
   version="1.1"
   viewBox="0 0 256 256"
   xml:space="preserve"
   xmlns:inkscape="http://www.inkscape.org/namespaces/inkscape"
   xmlns:sodipodi="http://sodipodi.sourceforge.net/DTD/sodipodi-0.dtd"
   xmlns:xlink="http://www.w3.org/1999/xlink"
   xmlns="http://www.w3.org/2000/svg"
   xmlns:svg="http://www.w3.org/2000/svg"
   xmlns:rdf="http://www.w3.org/1999/02/22-rdf-syntax-ns#"
   xmlns:cc="http://creativecommons.org/ns#"
   xmlns:dc="http://purl.org/dc/elements/1.1/"><title
     id="title8">Package generetic CLOSE</title><defs
     id="defs3"><linearGradient
       id="linearGradient7"
       inkscape:collect="always"><stop
         style="stop-color:#565656;stop-opacity:0;"
         offset="0"
         id="stop7" /><stop
         style="stop-color:#151515;stop-opacity:0.55101621;"
         offset="0.09685892"
         id="stop11" /><stop
         style="stop-color:#000000;stop-opacity:0.43376997;"
         offset="0.24463946"
         id="stop12" /><stop
         style="stop-color:#000000;stop-opacity:0.22523594;"
         offset="0.58946073"
         id="stop9" /><stop
         style="stop-color:#2b2b2b;stop-opacity:0;"
         offset="0.80921131"
         id="stop10" /><stop
         style="stop-color:#666666;stop-opacity:0;"
         offset="1"
         id="stop8" /></linearGradient><linearGradient
       id="linearGradient5"
       inkscape:collect="always"><stop
         style="stop-color:#b97a1b;stop-opacity:1"
         offset="0"
         id="stop5" /><stop
         style="stop-color:#eaba6f;stop-opacity:1"
         offset="1"
         id="stop6" /></linearGradient><radialGradient
       inkscape:collect="always"
       xlink:href="#linearGradient5060"
       id="radialGradient6719"
       gradientUnits="userSpaceOnUse"
       gradientTransform="matrix(-2.774389,0,0,1.969706,112.7623,-872.8854)"
       cx="605.71429"
       cy="486.64789"
       fx="605.71429"
       fy="486.64789"
       r="117.14286" /><linearGradient
       inkscape:collect="always"
       id="linearGradient5060"><stop
         style="stop-color:black;stop-opacity:1;"
         offset="0"
         id="stop5062" /><stop
         style="stop-color:black;stop-opacity:0;"
         offset="1"
         id="stop5064" /></linearGradient><radialGradient
       inkscape:collect="always"
       xlink:href="#linearGradient5060"
       id="radialGradient6717"
       gradientUnits="userSpaceOnUse"
       gradientTransform="matrix(2.774389,0,0,1.969706,-1891.633,-872.8854)"
       cx="605.71429"
       cy="486.64789"
       fx="605.71429"
       fy="486.64789"
       r="117.14286" /><linearGradient
       id="linearGradient5048"><stop
         style="stop-color:black;stop-opacity:0;"
         offset="0"
         id="stop5050" /><stop
         id="stop5056"
         offset="0.5"
         style="stop-color:black;stop-opacity:1;" /><stop
         style="stop-color:black;stop-opacity:0;"
         offset="1"
         id="stop5052" /></linearGradient><linearGradient
       inkscape:collect="always"
       xlink:href="#linearGradient5048"
       id="linearGradient6715"
       gradientUnits="userSpaceOnUse"
       gradientTransform="matrix(2.774389,0,0,1.969706,-1892.179,-872.8854)"
       x1="302.85715"
       y1="366.64789"
       x2="302.85715"
       y2="609.50507" /><linearGradient
       inkscape:collect="always"
       id="linearGradient2884"><stop
         style="stop-color:#000000;stop-opacity:1;"
         offset="0"
         id="stop2886" /><stop
         style="stop-color:#000000;stop-opacity:0;"
         offset="1"
         id="stop2888" /></linearGradient><linearGradient
       id="linearGradient2869"><stop
         style="stop-color:#ffffff;stop-opacity:1;"
         offset="0"
         id="stop2871" /><stop
         style="stop-color:#cccccc;stop-opacity:1.0000000;"
         offset="1.0000000"
         id="stop2873" /></linearGradient><linearGradient
       id="linearGradient4995"><stop
         id="stop4997"
         offset="0"
         style="stop-color:#de9523;stop-opacity:1;" /><stop
         id="stop4999"
         offset="1.0000000"
         style="stop-color:#a36d18;stop-opacity:1.0000000;" /></linearGradient><linearGradient
       id="linearGradient4987"
       inkscape:collect="always"><stop
         id="stop4989"
         offset="0"
         style="stop-color:#a0670c;stop-opacity:1;" /><stop
         id="stop4991"
         offset="1"
         style="stop-color:#a0670c;stop-opacity:0;" /></linearGradient><linearGradient
       id="linearGradient4979"><stop
         id="stop4981"
         offset="0.0000000"
         style="stop-color:#fbf0e0;stop-opacity:1.0000000;" /><stop
         id="stop4983"
         offset="1.0000000"
         style="stop-color:#f0ce99;stop-opacity:1.0000000;" /></linearGradient><linearGradient
       id="linearGradient4222"><stop
         id="stop4224"
         offset="0"
         style="stop-color:#ffffff;stop-opacity:1;" /><stop
         id="stop4226"
         offset="1.0000000"
         style="stop-color:#ffffff;stop-opacity:0.68639052;" /></linearGradient><linearGradient
       id="linearGradient4210"><stop
         id="stop4212"
         offset="0.0000000"
         style="stop-color:#eaba6f;stop-opacity:1.0000000;" /><stop
         id="stop4214"
         offset="1.0000000"
         style="stop-color:#b97a1b;stop-opacity:1.0000000;" /></linearGradient><linearGradient
       id="linearGradient4192"><stop
         id="stop4194"
         offset="0"
         style="stop-color:#e9b96e;stop-opacity:1;" /><stop
         id="stop4196"
         offset="1.0000000"
         style="stop-color:#f1d19e;stop-opacity:1.0000000;" /></linearGradient><linearGradient
       id="linearGradient4182"><stop
         id="stop4184"
         offset="0.0000000"
         style="stop-color:#a36d18;stop-opacity:1.0000000;" /><stop
         id="stop4186"
         offset="1.0000000"
         style="stop-color:#d79020;stop-opacity:1.0000000;" /></linearGradient><linearGradient
       inkscape:collect="always"
       xlink:href="#linearGradient4979"
       id="linearGradient2269"
       gradientUnits="userSpaceOnUse"
       x1="30.062469"
       y1="13.444801"
       x2="17.696169"
       y2="12.333632" /><linearGradient
       inkscape:collect="always"
       xlink:href="#linearGradient4995"
       id="linearGradient2274"
       gradientUnits="userSpaceOnUse"
       x1="36.288929"
       y1="14.661557"
       x2="47.065834"
       y2="15.267649" /><linearGradient
       inkscape:collect="always"
       xlink:href="#linearGradient4192"
       id="linearGradient2277"
       gradientUnits="userSpaceOnUse"
       gradientTransform="matrix(1,0,0,0.986355,0,0.316638)"
       x1="25.381256"
       y1="24.720648"
       x2="24.119167"
       y2="16.17037" /><linearGradient
       inkscape:collect="always"
       xlink:href="#linearGradient4182"
       id="linearGradient2280"
       gradientUnits="userSpaceOnUse"
       gradientTransform="matrix(1,0,0,1.039184,0,-0.04057054)"
       x1="16.148972"
       y1="12.636667"
       x2="34.193642"
       y2="12.636667" /><linearGradient
       inkscape:collect="always"
       xlink:href="#linearGradient4987"
       id="linearGradient2282"
       gradientUnits="userSpaceOnUse"
       x1="21.906841"
       y1="9.7577486"
       x2="22.071806"
       y2="16.020695" /><linearGradient
       inkscape:collect="always"
       xlink:href="#linearGradient4222"
       id="linearGradient2285"
       gradientUnits="userSpaceOnUse"
       x1="18.706615"
       y1="19.912336"
       x2="30.014812"
       y2="47.388485" /><linearGradient
       inkscape:collect="always"
       xlink:href="#linearGradient4210"
       id="linearGradient2288"
       gradientUnits="userSpaceOnUse"
       x1="24.990499"
       y1="34.004856"
       x2="24.990499"
       y2="22.585211" /><radialGradient
       inkscape:collect="always"
       xlink:href="#linearGradient2884"
       id="radialGradient2896"
       gradientUnits="userSpaceOnUse"
       gradientTransform="matrix(1.353283,0,0,0.635968,-8.45889,3.41347)"
       cx="23.94367"
       cy="20.800287"
       fx="23.94367"
       fy="20.800287"
       r="6.4286141" /><radialGradient
       inkscape:collect="always"
       xlink:href="#linearGradient2869"
       id="radialGradient2898"
       gradientUnits="userSpaceOnUse"
       gradientTransform="matrix(0.74942,0,0,0.394055,6.226925,10.09253)"
       cx="21.578989"
       cy="9.0255041"
       fx="21.578989"
       fy="9.0255041"
       r="9.586297" /><radialGradient
       inkscape:collect="always"
       xlink:href="#linearGradient2884"
       id="radialGradient2906"
       gradientUnits="userSpaceOnUse"
       gradientTransform="matrix(1.353283,0,0,0.635968,-8.45889,3.41347)"
       cx="23.94367"
       cy="20.800287"
       fx="23.94367"
       fy="20.800287"
       r="6.4286141" /><radialGradient
       inkscape:collect="always"
       xlink:href="#linearGradient2869"
       id="radialGradient2908"
       gradientUnits="userSpaceOnUse"
       gradientTransform="matrix(0.74942,0,0,0.394055,6.226925,10.09253)"
       cx="21.578989"
       cy="9.8105707"
       fx="21.578989"
       fy="9.8105707"
       r="9.586297" /><radialGradient
       inkscape:collect="always"
       xlink:href="#linearGradient5"
       id="radialGradient6"
       cx="35.309971"
       cy="19.082172"
       fx="35.309971"
       fy="19.082172"
       r="15.379377"
       gradientTransform="matrix(0.94811731,0.09422878,-0.07887936,0.79367356,3.3371659,-4.2542517)"
       gradientUnits="userSpaceOnUse" /><linearGradient
       inkscape:collect="always"
       xlink:href="#linearGradient7"
       id="linearGradient8"
       x1="23.564743"
       y1="14.577733"
       x2="23.564743"
       y2="21.833618"
       gradientUnits="userSpaceOnUse" /></defs><sodipodi:namedview
     inkscape:window-y="142"
     inkscape:window-x="392"
     inkscape:window-height="706"
     inkscape:window-width="872"
     stroke="#c17d11"
     fill="#e9b96e"
     inkscape:showpageshadow="false"
     inkscape:document-units="px"
     inkscape:grid-bbox="true"
     showgrid="false"
     inkscape:current-layer="g4"
     inkscape:cy="593.26256"
     inkscape:cx="181.01933"
     inkscape:zoom="0.70710682"
     inkscape:pageshadow="2"
     inkscape:pageopacity="0.0"
     borderopacity="0.16470588"
     bordercolor="#666666"
     pagecolor="#ffffff"
     id="base"
     inkscape:pagecheckerboard="0"
     inkscape:deskcolor="#d1d1d1" /><metadata
     id="metadata4"><rdf:RDF><cc:Work
         rdf:about=""><dc:format>image/svg+xml</dc:format><dc:type
           rdf:resource="http://purl.org/dc/dcmitype/StillImage" /><dc:title>Package generetic CLOSE</dc:title><dc:creator><cc:Agent><dc:title>Jakub Steiner</dc:title></cc:Agent></dc:creator><dc:source>http://jimmac.musichall.cz/</dc:source><dc:subject><rdf:Bag><rdf:li>package</rdf:li><rdf:li>archive</rdf:li><rdf:li>tarball</rdf:li><rdf:li>tar</rdf:li><rdf:li>bzip</rdf:li><rdf:li>gzip</rdf:li><rdf:li>zip</rdf:li><rdf:li>arj</rdf:li><rdf:li>tar</rdf:li><rdf:li>jar</rdf:li></rdf:Bag></dc:subject><cc:license
           rdf:resource="http://creativecommons.org/publicdomain/zero/1.0/" /><dc:publisher><cc:Agent><dc:title>Blackcrack</dc:title></cc:Agent></dc:publisher><dc:relation>Package x generetic</dc:relation><dc:description>https://commons.wikimedia.org/wiki/File:Package-x-generic.svg
20250708 me Blackcrack updated the picture for have a closed generetic package for use in other diffrent pictures because the balls or Eggs be nothing for the future if need a closed Tango Package.
But the open Package is pretty nice for opened Pack or a Softwareinstaller
Finaly Mimetypes from Blackcrack</dc:description><dc:contributor><cc:Agent><dc:title>Blackcrack</dc:title></cc:Agent></dc:contributor></cc:Work><cc:License
         rdf:about="http://creativecommons.org/publicdomain/zero/1.0/"><cc:permits
           rdf:resource="http://creativecommons.org/ns#Reproduction" /><cc:permits
           rdf:resource="http://creativecommons.org/ns#Distribution" /><cc:permits
           rdf:resource="http://creativecommons.org/ns#DerivativeWorks" /></cc:License></rdf:RDF></metadata><g
     id="g1"
     transform="matrix(6.5539364,0,0,6.5539364,-24.83285,-32.455652)"><g
       style="display:inline"
       transform="matrix(0.01753033,0,0,0.01737461,40.484138,37.550639)"
       id="g6707"><rect
         style="color:#000000;display:inline;overflow:visible;visibility:visible;opacity:0.402062;fill:url(#linearGradient6715);fill-opacity:1;fill-rule:nonzero;stroke:none;stroke-width:1;stroke-linecap:round;stroke-linejoin:miter;stroke-miterlimit:4;stroke-dasharray:none;stroke-dashoffset:0;stroke-opacity:1;marker:none;marker-start:none;marker-mid:none;marker-end:none"
         id="rect6709"
         width="1339.6335"
         height="478.35718"
         x="-1559.2523"
         y="-150.69685" /><path
         style="color:#000000;display:inline;overflow:visible;visibility:visible;opacity:0.402062;fill:url(#radialGradient6717);fill-opacity:1;fill-rule:nonzero;stroke:none;stroke-width:1;stroke-linecap:round;stroke-linejoin:miter;stroke-miterlimit:4;stroke-dasharray:none;stroke-dashoffset:0;stroke-opacity:1;marker:none;marker-start:none;marker-mid:none;marker-end:none"
         d="m -219.61876,-150.68038 c 0,0 0,478.33079 0,478.33079 142.874166,0.90045 345.40022,-107.16966 345.40014,-239.196175 0,-132.026537 -159.436816,-239.134595 -345.40014,-239.134615 z"
         id="path6711"
         sodipodi:nodetypes="cccc" /><path
         sodipodi:nodetypes="cccc"
         id="path6713"
         d="m -1559.2523,-150.68038 c 0,0 0,478.33079 0,478.33079 -142.8742,0.90045 -345.4002,-107.16966 -345.4002,-239.196175 0,-132.026537 159.4368,-239.134595 345.4002,-239.134615 z"
         style="color:#000000;display:inline;overflow:visible;visibility:visible;opacity:0.402062;fill:url(#radialGradient6719);fill-opacity:1;fill-rule:nonzero;stroke:none;stroke-width:1;stroke-linecap:round;stroke-linejoin:miter;stroke-miterlimit:4;stroke-dasharray:none;stroke-dashoffset:0;stroke-opacity:1;marker:none;marker-start:none;marker-mid:none;marker-end:none" /></g><rect
       ry="2.394444"
       rx="2.4241352"
       y="15.275433"
       x="7.4623847"
       height="23.112879"
       width="31.978371"
       id="rect3115"
       style="color:#000000;display:block;overflow:visible;visibility:visible;opacity:1;fill:url(#linearGradient2288);fill-opacity:1;fill-rule:nonzero;stroke:#a0670c;stroke-width:1;stroke-linecap:butt;stroke-linejoin:miter;stroke-miterlimit:4;stroke-dasharray:none;stroke-dashoffset:0;stroke-opacity:1;marker:none;marker-start:none;marker-mid:none;marker-end:none" /><rect
       style="color:#000000;display:block;overflow:visible;visibility:visible;opacity:0.481013;fill:none;fill-opacity:1;fill-rule:nonzero;stroke:url(#linearGradient2285);stroke-width:1;stroke-linecap:butt;stroke-linejoin:miter;stroke-miterlimit:4;stroke-dasharray:none;stroke-dashoffset:0;stroke-opacity:1;marker:none;marker-start:none;marker-mid:none;marker-end:none"
       id="rect4220"
       width="29.804138"
       height="21.075352"
       x="8.4989996"
       y="16.243698"
       rx="1.2846882"
       ry="1.2846882" /><g
       id="g2"
       inkscape:label="open"
       style="display:none"><path
         sodipodi:nodetypes="ccccc"
         id="path4162"
         d="M 8.7697819,16.547178 13.819731,9.7363408 32.615291,9.6353255 37.835264,16.408941 Z"
         style="display:inline;fill:url(#linearGradient2280);fill-opacity:1;fill-rule:evenodd;stroke:url(#linearGradient2282);stroke-width:1;stroke-linecap:butt;stroke-linejoin:miter;stroke-miterlimit:4;stroke-dasharray:none;stroke-opacity:1" /><path
         sodipodi:nodetypes="ccccc"
         id="path4164"
         d="m 38.276321,16.325703 5.192948,7.194661 H 3.9609455 l 4.6640688,-7.199601 z"
         style="color:#000000;display:inline;overflow:visible;visibility:visible;opacity:1;fill:url(#linearGradient2277);fill-opacity:1;fill-rule:nonzero;stroke:#a0670c;stroke-width:1;stroke-linecap:round;stroke-linejoin:round;stroke-miterlimit:4;stroke-dasharray:none;stroke-dashoffset:0;stroke-opacity:1;marker:none;marker-start:none;marker-mid:none;marker-end:none" /><path
         sodipodi:nodetypes="ccccc"
         id="path4178"
         d="m 32.849333,9.6141009 4.682886,6.9222691 9.033616,4.384827 -8.114506,-8.912652 z"
         style="color:#000000;display:inline;overflow:visible;visibility:visible;opacity:1;fill:url(#linearGradient2274);fill-opacity:1;fill-rule:nonzero;stroke:#a0670c;stroke-width:1;stroke-linecap:round;stroke-linejoin:round;stroke-miterlimit:4;stroke-dasharray:none;stroke-dashoffset:0;stroke-opacity:1;marker:none;marker-start:none;marker-mid:none;marker-end:none" /><path
         sodipodi:nodetypes="ccccc"
         style="color:#000000;display:inline;overflow:visible;visibility:visible;opacity:1;fill:#f8e8cf;fill-opacity:1;fill-rule:nonzero;stroke:#a0670c;stroke-width:1;stroke-linecap:round;stroke-linejoin:round;stroke-miterlimit:4;stroke-dasharray:none;stroke-dashoffset:0;stroke-opacity:1;marker:none;marker-start:none;marker-mid:none;marker-end:none"
         d="M 13.617702,9.7151161 9.6419233,16.435355 0.50729183,20.820182 8.6217973,11.90753 Z"
         id="path4180" /><path
         style="color:#000000;display:inline;overflow:visible;visibility:visible;opacity:1;fill:none;fill-opacity:1;fill-rule:nonzero;stroke:#f4e3ca;stroke-width:1;stroke-linecap:butt;stroke-linejoin:miter;stroke-miterlimit:4;stroke-dasharray:none;stroke-dashoffset:0;stroke-opacity:1;marker:none;marker-start:none;marker-mid:none;marker-end:none"
         d="m 37.024959,16.43605 4.453912,6.056961 H 5.6482792 l 4.141019,-6.180317 z"
         id="path4954"
         sodipodi:nodetypes="ccccc" /><g
         id="g2892"
         transform="matrix(0.676538,0,0,1,3.994869,0)"
         style="display:inline"><path
           style="color:#000000;display:inline;overflow:visible;visibility:visible;opacity:1;fill:url(#radialGradient2896);fill-opacity:1;fill-rule:evenodd;stroke:none;stroke-width:2;stroke-linecap:round;stroke-linejoin:round;stroke-miterlimit:4;stroke-dasharray:none;stroke-dashoffset:0;stroke-opacity:1;marker:none;marker-start:none;marker-mid:none;marker-end:none"
           d="m 23.926073,12.101621 c -5.338008,0 -9.643504,2.028188 -9.643504,4.540192 h 19.322204 c 0,-2.512004 -4.340692,-4.540192 -9.6787,-4.540192 z"
           id="path2882" /><path
           id="path2141"
           d="m 23.931961,12.861168 c -3.551975,0 -6.416904,1.34958 -6.416904,3.021098 h 12.857228 c 0,-1.671518 -2.888349,-3.021098 -6.440324,-3.021098 z"
           style="color:#000000;display:inline;overflow:visible;visibility:visible;opacity:1;fill:url(#radialGradient2898);fill-opacity:1;fill-rule:evenodd;stroke:none;stroke-width:2;stroke-linecap:round;stroke-linejoin:round;stroke-miterlimit:4;stroke-dasharray:none;stroke-dashoffset:0;stroke-opacity:1;marker:none;marker-start:none;marker-mid:none;marker-end:none" /></g><g
         transform="matrix(0.676538,0,0,1,10.49487,0)"
         id="g2900"
         style="display:inline"><path
           id="path2902"
           d="m 23.926073,12.101621 c -5.338008,0 -9.643504,2.028188 -9.643504,4.540192 h 19.322204 c 0,-2.512004 -4.340692,-4.540192 -9.6787,-4.540192 z"
           style="color:#000000;display:inline;overflow:visible;visibility:visible;opacity:1;fill:url(#radialGradient2906);fill-opacity:1;fill-rule:evenodd;stroke:none;stroke-width:2;stroke-linecap:round;stroke-linejoin:round;stroke-miterlimit:4;stroke-dasharray:none;stroke-dashoffset:0;stroke-opacity:1;marker:none;marker-start:none;marker-mid:none;marker-end:none" /><path
           style="color:#000000;display:inline;overflow:visible;visibility:visible;opacity:1;fill:url(#radialGradient2908);fill-opacity:1;fill-rule:evenodd;stroke:none;stroke-width:2;stroke-linecap:round;stroke-linejoin:round;stroke-miterlimit:4;stroke-dasharray:none;stroke-dashoffset:0;stroke-opacity:1;marker:none;marker-start:none;marker-mid:none;marker-end:none"
           d="m 23.931961,12.861168 c -3.551975,0 -6.416904,1.34958 -6.416904,3.021098 h 12.857228 c 0,-1.671518 -2.888349,-3.021098 -6.440324,-3.021098 z"
           id="path2904" /></g><path
         style="display:inline;opacity:0.879747;fill:none;fill-opacity:1;fill-rule:evenodd;stroke:url(#linearGradient2269);stroke-width:1;stroke-linecap:round;stroke-linejoin:round;stroke-miterlimit:4;stroke-dasharray:none;stroke-opacity:1"
         d="M 9.6523127,16.371803 13.036643,10.59302 33.514841,10.5178 37.356782,16.369881 Z"
         id="path4966"
         sodipodi:nodetypes="ccccc" /></g><g
       id="g4"
       transform="matrix(0.18997917,0,0,0.18997917,15.124583,20.542816)"><g
         id="g5"
         transform="matrix(0.18886671,0,0,0.18886671,33.227857,1.5227114)"><path
           style="fill:#fdfdfb"
           d="m -59.66751,191.00247 v -4.01571 h 4.015704 4.015705 v -4.0157 -4.01571 h 4.417275 4.417276 v -8.43298 -8.43298 h 4.015705 4.015704 v 4.0157 4.01571 h 4.015705 4.015705 v 4.41727 4.41728 h 4.417275 4.417276 v 4.01571 4.0157 h 4.015704 4.0157051 v 4.01571 4.0157 h -4.0157051 -4.015704 v -4.0157 -4.01571 h -4.417276 -4.417275 v -4.0157 -4.01571 h -8.03141 -8.031409 v 4.01571 4.0157 h -4.417276 -4.417275 v 4.01571 4.0157 h -4.015705 -4.015704 z m 66.6606993,-8.03141 v -4.01571 h 8.4329797 8.43298 v 4.01571 4.0157 H 15.426169 6.9931893 Z M 99.3544,174.53807 v -4.41727 h 4.0157 4.01571 v 4.41727 4.41728 H 103.3701 99.3544 Z M -9.8727709,166.10509 v -4.0157 h -4.0157051 -4.015704 v -4.41728 -4.41727 h -4.417276 -4.417275 v -4.01571 -4.0157 h -4.015705 -4.015705 v -12.44869 -12.44868 h -4.015704 -4.015705 V 103.4601 86.594134 h 4.015705 4.015704 v 16.865966 16.86596 h 4.015705 4.015705 v 8.03141 8.03141 h 4.417275 4.417276 v 8.43298 8.43298 h 4.015704 4.0157051 v 4.41727 4.41728 h 4.4172753 4.4172753 v 4.0157 4.01571 h -4.4172753 -4.4172753 z m 125.2899909,0 v -4.0157 h 4.41727 4.41728 v -4.41728 -4.41727 h 4.0157 4.01571 v -4.01571 -4.0157 h 4.41727 4.41728 v 4.0157 4.01571 h -4.41728 -4.41727 v 4.41727 4.41728 h -4.01571 -4.0157 v 4.0157 4.01571 h -4.41728 -4.41727 z M 31.890559,86.594134 V 11.098879 h 4.417275 4.417276 V 7.0831741 3.067469 h -4.417276 -4.417275 v -37.747627 -37.747628 h 4.417275 4.417276 v -4.015705 -4.015705 h 16.464389 16.46439 v -4.417275 -4.417276 h 4.417275 4.417276 v 54.613589 54.613588 h 8.43298 8.43298 v -4.417275 -4.417276 h 4.0157 4.01571 V 2.6658985 -5.7670821 h 4.0157 4.01571 v -4.015705 -4.0157049 h 4.41727 4.41728 v -4.015705 -4.015705 h 4.0157 4.01571 v -8.432981 -8.43298 h 4.41727 4.41728 v -4.417276 -4.417276 h 4.0157 4.01571 v -4.015705 -4.015705 h 4.41727 4.41728 v -8.43298 -8.432981 h 4.0157 4.01571 v -4.015705 -4.015705 h 16.86596 16.86596 v 4.015705 4.015705 h 12.44868 12.44869 v 8.432981 8.43298 h -4.41728 -4.41727 v 4.015705 4.015705 h -4.01571 -4.0157 v 4.417276 4.417276 h -4.01571 -4.0157 v 4.015705 4.015705 h -4.41728 -4.41727 v 4.417275 4.417276 h -4.01571 -4.0157 v 4.015705 4.015705 h -4.41728 -4.41727 v 8.4329804 8.4329806 h -4.01571 -4.0157 v 4.0157051 4.0157049 h -4.01571 -4.0157 v 4.417276 4.417275 h -4.41728 -4.41727 v 12.448686 12.448686 h 4.41727 4.41728 v 8.43298 8.432981 h 4.0157 4.01571 v 4.015705 4.015705 h 4.0157 4.01571 v 4.417275 4.417276 h 4.41727 4.41728 v 8.03141 8.03141 h 4.0157 4.01571 v 4.417276 4.41728 h 4.41727 4.41728 v 4.0157 4.01571 h 4.0157 4.01571 v 8.43298 8.43298 h 4.0157 4.01571 v 4.0157 4.01571 h 4.41727 4.41728 v 4.41727 4.41728 h -4.41728 -4.41727 v 4.0157 4.01571 h -16.46439 -16.46439 v 4.41727 4.41728 h -8.43298 -8.43298 v -8.43298 -8.43298 h -4.01571 -4.0157 v -4.41728 -4.41727 h -4.41728 -4.41727 v -8.03141 -8.03141 h -4.01571 -4.0157 v -4.41728 -4.41727 h -4.41728 -4.41727 v -8.43299 -8.432976 h -4.01571 -4.0157 v -4.015705 -4.015705 h -4.41728 -4.41727 v -4.015705 -4.015705 h -4.01571 -4.0157 v -8.432981 -8.43298 H 103.3701 99.3544 V 57.279487 52.862212 H 94.937125 90.519849 V 48.846507 44.830802 H 86.504144 82.48844 V 99.04282 153.25484 H 65.622479 48.756519 v 4.41727 4.41728 h -8.43298 -8.43298 z M -93.399431,91.01141 V 78.562724 h -4.015705 -4.015704 v -4.417276 -4.417275 h 16.464389 16.46439 v -4.015705 -4.015705 h 4.417275 4.417276 V 82.578429 103.4601 h -16.865961 -16.86596 z M -42.80155,70.129743 v -8.43298 h 4.015705 4.015704 v 8.43298 8.432981 h -4.015704 -4.015705 z m 24.89737,-4.417275 V 52.862212 h 4.015704 4.0157051 V 44.429231 35.99625 h 8.4329801 8.4329801 v 8.432981 8.432981 h 4.0157047 4.015705 v 4.417275 4.417276 H 11.008894 6.9931893 v 8.43298 8.432981 H -5.4554956 -17.90418 Z M -42.80155,44.429231 V 35.99625 h 4.015705 4.015704 v -8.03141 -8.03141 h 4.015705 4.015705 v -4.417275 -4.417276 h 4.417275 4.417276 V 7.0831741 3.067469 h 4.015704 4.0157051 v -4.4172755 -4.4172756 h 4.4172753 4.4172753 v -4.015705 -4.0157049 h 8.0314096 8.0314097 v 4.0157049 4.015705 H 11.008894 6.9931893 v 4.4172756 4.4172755 h -8.4329801 -8.4329801 v 4.0157051 4.0157049 h -4.0157051 -4.015704 v 8.432981 8.43298 h -4.417276 -4.417275 v 8.432981 8.432981 h -4.015705 -4.015705 v 4.015705 4.015705 h -4.015704 -4.015705 z m 0,-37.3460569 V 3.067469 h -4.417276 -4.417275 v -8.4329806 -8.4329804 h -4.015705 -4.015704 v -8.432981 -8.43298 h 4.015704 4.015705 v -4.015705 -4.015705 h 4.417275 4.417276 v 4.015705 4.015705 h 8.031409 8.03141 v 4.417275 4.417276 h 8.43298 8.4329801 v 4.015705 4.015705 h -8.4329801 -8.43298 v 4.0157049 4.015705 h -4.015705 -4.015705 v 8.4329806 8.4329805 h -4.015704 -4.015705 z"
           id="path45" /><path
           style="fill:#f9f9e9"
           d="m -1.0382203,174.53807 v -4.41727 h 4.0157048 4.0157048 v 4.41727 4.41728 H 2.9774845 -1.0382203 Z M -17.90418,166.10509 v -4.0157 h -4.417276 -4.417275 v -4.41728 -4.41727 h 4.417275 4.417276 v 4.41727 4.41728 h 4.015704 4.0157051 v 4.0157 4.01571 h -4.0157051 -4.015704 z m 200.78524,-8.43298 v -4.41727 h 4.0157 4.01571 v 4.41727 4.41728 h -4.01571 -4.0157 z M -42.80155,124.34176 v -4.0157 h 4.015705 4.015704 v 4.0157 4.01571 h -4.015704 -4.015705 z M 124.25177,99.04282 v -4.417276 h 4.0157 4.01571 v 4.417276 4.41728 h -4.01571 -4.0157 z m -225.68261,-8.432981 v -4.015705 h 4.015704 4.015705 v 4.015705 4.015705 h -4.015705 -4.015704 z m 284.3119,0 v -4.015705 h 4.0157 4.01571 v 4.015705 4.015705 h -4.01571 -4.0157 z m -225.68261,-8.03141 v -4.015705 h 4.015705 4.015704 v 4.015705 4.015705 h -4.015704 -4.015705 z m 24.89737,0 V 78.562724 H -5.4554956 6.9931893 v -8.432981 -8.43298 h 4.0157047 4.015705 v 8.43298 8.432981 H 11.008894 6.9931893 v 4.015705 4.015705 H -5.4554956 -17.90418 Z M -42.80155,57.279487 v -4.417275 h 4.015705 4.015704 v 4.417275 4.417276 h -4.015704 -4.015705 z m 200.78524,0 v -4.417275 h 4.0157 4.01571 v 4.417275 4.417276 h -4.01571 -4.0157 z m -175.88787,-8.43298 v -4.015705 h 4.015704 4.0157051 v 4.015705 4.015705 H -13.888476 -17.90418 Z M 6.9931893,44.429231 V 35.99625 H 2.9774845 -1.0382203 v -8.03141 -8.03141 h 4.0157048 4.0157048 v 4.015705 4.015705 h 4.0157047 4.015705 V 40.413526 52.862212 H 11.008894 6.9931893 Z M 31.890559,7.0831741 V 3.067469 h 4.417275 4.417276 v 4.0157051 4.0157049 h -4.417276 -4.417275 z m 67.463841,0 V 3.067469 h 4.0157 4.01571 V 7.0831741 11.098879 H 103.3701 99.3544 Z M -34.770141,-1.3498065 v -4.4172756 h 4.015705 4.015705 v 4.4172756 4.4172755 h -4.015705 -4.015705 z M -42.80155,-34.680158 v -4.015705 h 4.015705 4.015704 v 4.015705 4.015705 h -4.015704 -4.015705 z m 74.692109,-41.763333 v -4.015705 h 4.417275 4.417276 v 4.015705 4.015705 h -4.417276 -4.417275 z"
           id="path44" /><path
           style="fill:#e8e8e9"
           d="m -42.80155,207.86843 v -4.01571 h -4.417276 -4.417275 v -4.41727 -4.41728 h 4.417275 4.417276 v -8.03141 -8.03141 h 8.031409 8.03141 v 8.03141 8.03141 h 4.417275 4.417276 v 4.41728 4.41727 h -4.417276 -4.417275 v 4.01571 4.0157 h -8.03141 -8.031409 z m 16.062819,-8.43298 v -4.41728 h -8.03141 -8.031409 v 4.41728 4.41727 h 8.031409 8.03141 z m 50.59788,-12.44869 v -8.03141 h 8.432981 8.43298 v 4.01571 4.0157 h 4.015704 4.015705 v -4.0157 -4.01571 h 4.417276 4.417275 v 4.01571 4.0157 h -4.417275 -4.417276 v 4.01571 4.0157 H 36.307834 23.859149 Z m 41.76333,-4.0157 v -4.01571 h 12.448685 12.448685 v 4.01571 4.0157 H 78.071164 65.622479 Z m -75.4952499,-8.43299 v -4.41727 h 4.4172753 4.4172753 v -4.01571 -4.0157 h 4.0157048 4.0157048 v 4.0157 4.01571 h 4.0157047 4.015705 v 4.41727 4.41728 H 11.008894 6.9931893 v -4.41728 -4.41727 H 2.9774845 -1.0382203 v 4.41727 4.41728 h -4.4172753 -4.4172753 z m 117.2585809,0 v -4.41727 h 4.0157 4.01571 v 4.41727 4.41728 h -4.01571 -4.0157 z M 23.859149,40.815096 V -80.459196 h 4.015705 4.015705 V 40.815096 162.08939 h -4.015705 -4.015705 z m 24.89737,116.857014 v -4.41727 h 4.417276 4.417275 v 4.41727 4.41728 H 53.173795 48.756519 Z M 207.77843,124.34176 v -4.0157 h 4.0157 4.01571 v 4.0157 4.01571 h -4.01571 -4.0157 z M -68.502061,107.4758 v -4.0157 h 4.417275 4.417276 v 4.0157 4.01571 h -4.417276 -4.417275 z m -32.928779,-8.43298 v -4.417276 h 4.015704 4.015705 v 4.417276 4.41728 h -4.015705 -4.015704 z M -51.636101,82.176858 V 69.728173 h 4.417275 4.417276 v 12.448685 12.448686 h -4.417276 -4.417275 z m -49.794739,0.401571 v -4.015705 h 4.015704 4.015705 v 4.015705 4.015705 h -4.015705 -4.015704 z m 24.897369,-16.865961 v -4.015705 h 4.015705 4.015705 v 4.015705 4.015705 h -4.015705 -4.015705 z m 175.887871,0 v -4.015705 h 4.0157 4.01571 v 4.015705 4.015705 H 103.3701 99.3544 Z M 82.48844,48.846507 v -4.015705 h 4.015704 4.015705 v 4.015705 4.015705 H 86.504144 82.48844 Z M -9.8727709,31.980545 V 27.96484 h 4.4172753 4.4172753 v 4.015705 4.015705 H -5.4554956 -9.8727709 Z M -17.90418,15.516155 v -4.417276 h -4.417276 -4.417275 V 7.0831741 3.067469 h 4.417275 4.417276 v -4.4172755 -4.4172756 h -4.417276 -4.417275 v -4.015705 -4.0157049 h 4.417275 4.417276 v 4.0157049 4.015705 h 4.015704 4.0157051 v -4.015705 -4.0157049 h 4.4172753 4.4172753 v 4.0157049 4.015705 h -4.4172753 -4.4172753 v 4.4172756 4.4172755 h 4.4172753 4.4172753 v 4.0157051 4.0157049 h -4.4172753 -4.4172753 v 4.417276 4.417275 H -13.888476 -17.90418 Z M -9.8727709,7.0831741 V 3.067469 h -4.0157051 -4.015704 v 4.0157051 4.0157049 h 4.015704 4.0157051 z M 6.9931893,-17.814197 v -4.015705 h 4.0157047 4.015705 v 4.015705 4.015705 H 11.008894 6.9931893 Z M 124.25177,-26.247178 v -4.417275 h 4.0157 4.01571 v 4.417275 4.417276 h -4.01571 -4.0157 z m 75.49525,-50.196313 v -4.015705 h 4.0157 4.01571 v 4.015705 4.015705 h -4.01571 -4.0157 z m -134.124541,-8.43298 v -4.417276 h 4.015705 4.015705 v 4.417276 4.417275 h -4.015705 -4.015705 z m 108.424031,0 v -4.417276 h 4.41727 4.41728 v 4.417276 4.417275 h -4.41728 -4.41727 z"
           id="path43" /><path
           style="fill:#f1efd4"
           d="m 57.59107,182.97106 v -4.01571 h 4.015705 4.015704 v 4.01571 4.0157 H 61.606775 57.59107 Z m 49.79474,-16.86597 v -4.0157 h 4.0157 4.01571 v 4.0157 4.01571 h -4.01571 -4.0157 z M -17.90418,90.609839 V 86.594134 H -5.4554956 6.9931893 v -4.015705 -4.015705 h 4.0157047 4.015705 v 8.03141 8.03141 H -1.4397908 -17.90418 Z M 6.9931893,23.949135 V 19.93343 h 4.0157047 4.015705 v 4.015705 4.015705 H 11.008894 6.9931893 Z"
           id="path42" /><path
           style="fill:#faedaf"
           d="m 90.519849,174.53807 v -4.41727 h 4.417276 4.417275 v 4.41727 4.41728 H 94.937125 90.519849 Z M -17.90418,103.05852 V 94.625544 H -1.4397908 15.024599 v 4.417276 4.41728 H 2.575914 -9.8727709 v 4.0157 4.01571 H -13.888476 -17.90418 Z M 6.9931893,15.516155 v -4.417276 h 4.0157047 4.015705 v 4.417276 4.417275 H 11.008894 6.9931893 Z"
           id="path41" /><path
           style="fill:#d7d6d6"
           d="m 48.756519,224.33282 v -12.44869 h 4.417276 4.417275 v 12.44869 12.44868 h -4.417275 -4.417276 z m -91.558069,-8.03141 v -4.41728 h -4.417276 -4.417275 v -4.0157 -4.01571 h -4.015705 -4.015704 v -4.41727 -4.41728 h 4.015704 4.015705 v -4.0157 -4.01571 h 4.417275 4.417276 v 4.01571 4.0157 h 8.031409 8.03141 v -4.0157 -4.01571 h 4.417275 4.417276 v 4.01571 4.0157 h 4.015704 4.0157051 v 4.41728 4.41727 h -4.0157051 -4.015704 v -4.41727 -4.41728 h -4.417276 -4.417275 v 4.41728 4.41727 h -8.03141 -8.031409 v 4.01571 4.0157 h 4.015705 4.015704 v 4.41728 4.41727 h -4.015704 -4.015705 z m 0,-16.86596 v -4.41728 h -4.417276 -4.417275 v 4.41728 4.41727 h 4.417275 4.417276 z m 125.28999,16.86596 v -4.41728 h 4.015704 4.015705 v 4.41728 4.41727 H 86.504144 82.48844 Z M 57.59107,199.43545 v -4.41728 h -4.417275 -4.417276 v -4.0157 -4.01571 H 44.740814 40.72511 v -4.0157 -4.01571 h 4.015704 4.015705 v 4.01571 4.0157 h 8.43298 8.43298 v 4.01571 4.0157 h 4.015705 4.015705 v 4.41728 4.41727 h -8.03141 -8.031409 z m 32.928779,-12.44869 v -8.03141 h 4.417276 4.417275 v 4.01571 4.0157 h 4.0157 4.01571 v 4.01571 4.0157 h -8.432981 -8.43298 z m 50.597881,4.01571 v -4.01571 h 4.0157 4.01571 v 4.01571 4.0157 h -4.01571 -4.0157 z m -25.70051,-8.03141 v -4.01571 h 4.41727 4.41728 v 4.01571 4.0157 h -4.41728 -4.41727 z M -9.8727709,157.67211 v -4.41727 h -4.0157051 -4.015704 v -4.01571 -4.0157 h 4.015704 4.0157051 v 4.0157 4.01571 h 4.4172753 4.4172753 v 4.41727 4.41728 h -4.4172753 -4.4172753 z m 67.4638409,0 v -4.41727 h 4.015705 4.015704 v 4.41727 4.41728 H 61.606775 57.59107 Z m 100.39262,-8.43298 v -4.0157 h 4.0157 4.01571 v 4.0157 4.01571 h -4.01571 -4.0157 z m -16.86596,-24.89737 v -4.0157 h 4.0157 4.01571 v 4.0157 4.01571 h -4.01571 -4.0157 z M -51.636101,99.04282 v -4.417276 h 4.417275 4.417276 v 4.417276 4.41728 h -4.417276 -4.417275 z M 215.80984,74.145448 v -4.417275 h 4.41727 4.41728 v 4.417275 4.417276 h -4.41728 -4.41727 z M -51.636101,61.295192 v -8.43298 h 4.417275 4.417276 v 8.43298 8.432981 h -4.417276 -4.417275 z m 16.86596,-45.779037 v -4.417276 h 4.015705 4.015705 v 4.417276 4.417275 h -4.015705 -4.015705 z m 192.753831,0 v -4.417276 h 4.0157 4.01571 v 4.417276 4.417275 h -4.01571 -4.0157 z M -59.66751,-9.7827871 v -4.0157049 h 4.015704 4.015705 v 4.0157049 4.015705 h -4.015705 -4.015704 z m 233.71402,0 v -4.0157049 h 4.41727 4.41728 v -4.015705 -4.015705 h 4.0157 4.01571 v -4.417276 -4.417275 h 4.41727 4.41728 v 4.417275 4.417276 h -4.41728 -4.41727 v 4.015705 4.015705 h -4.01571 -4.0157 v 4.0157049 4.015705 h -4.41728 -4.41727 z M -26.738731,-26.247178 v -4.417275 h 4.417275 4.417276 v 4.417275 4.417276 h -4.417276 -4.417275 z M 141.11773,-51.54612 v -4.015705 h 4.0157 4.01571 v -4.417275 -4.417276 h 4.41727 4.41728 v 4.417276 4.417275 h -4.41728 -4.41727 v 4.015705 4.015705 h -4.01571 -4.0157 z M 57.59107,-84.876471 v -4.417276 h 4.015705 4.015704 v 4.417276 4.417275 H 61.606775 57.59107 Z"
           id="path40" /><path
           style="fill:#fdd491"
           d="m -17.90418,115.90878 v -4.41727 h 4.015704 4.0157051 v -4.01571 -4.0157 H 2.575914 15.024599 v 8.43298 8.43298 H -1.4397908 -17.90418 Z"
           id="path39" /><path
           style="fill:#c9c6c6"
           d="m 48.756519,241.19878 v -4.41728 h 4.417276 4.417275 v 4.41728 4.41727 h -4.417275 -4.417276 z m 8.834551,-20.88167 v -8.43298 h 4.015705 4.015704 v 4.41728 4.41727 h 4.015705 4.015705 v -4.41727 -4.41728 h 4.417275 4.417276 v 8.43298 8.43298 H 70.039755 57.59107 Z m -16.86596,-4.0157 v -4.41728 h 4.015704 4.015705 v 4.41728 4.41727 H 44.740814 40.72511 Z m 8.031409,-16.86596 v -4.41728 h 4.417276 4.417275 v 4.41728 4.41727 h -4.417275 -4.417276 z m 24.89737,0 v -4.41728 h -4.015705 -4.015705 v -4.0157 -4.01571 h 12.448685 12.448685 v 4.01571 4.0157 H 86.504144 82.48844 v 4.41728 4.41727 h -4.417276 -4.417275 z m 75.495251,0 v -4.41728 h 4.41727 4.41728 v 4.41728 4.41727 h -4.41728 -4.41727 z M 15.024599,191.00247 v -4.01571 h 4.417275 4.417275 v 4.01571 4.0157 H 19.441874 15.024599 Z M 99.3544,182.97106 v -4.01571 h 8.03141 8.03141 v -4.41728 -4.41727 h 4.41727 4.41728 v -4.01571 -4.0157 h 4.0157 4.01571 v -4.41728 -4.41727 h 4.41727 4.41728 v 4.41727 4.41728 h 4.0157 4.01571 v 4.0157 4.01571 h -4.01571 -4.0157 v 4.41727 4.41728 h -12.85026 -12.85025 v 4.01571 4.0157 h -8.03141 -8.03141 z m 49.79474,0 v -4.01571 h 4.41727 4.41728 v 4.01571 4.0157 h -4.41728 -4.41727 z m -200.785241,-8.43299 v -4.41727 h 4.417275 4.417276 v 4.41727 4.41728 h -4.417276 -4.417275 z m 16.86596,-25.29894 v -4.0157 h 4.015705 4.015705 v 4.0157 4.01571 h -4.015705 -4.015705 z M 190.91247,99.04282 v -4.417276 h 4.41727 4.41728 v 4.417276 4.41728 h -4.41728 -4.41727 z m 24.89737,-8.432981 v -4.015705 h 4.41727 4.41728 v 4.015705 4.015705 h -4.41728 -4.41727 z M 199.74702,74.145448 v -4.417275 h -4.41728 -4.41727 v -4.015705 -4.015705 h 4.41727 4.41728 v 4.015705 4.015705 h 8.03141 8.03141 v 4.417275 4.417276 h -8.03141 -8.03141 z M 149.14914,40.413526 V 35.99625 h 4.41727 4.41728 v 4.417276 4.417276 h -4.41728 -4.41727 z M 90.519849,15.516155 v -4.417276 h 4.417276 4.417275 v 4.417276 4.417275 H 94.937125 90.519849 Z M 99.3544,-17.814197 v -4.015705 h 4.0157 4.01571 v 4.015705 4.015705 h -4.01571 -4.0157 z"
           id="path38" /><path
           style="fill:#cdc7b4"
           d="m 115.41722,157.67211 v -4.41727 h 4.41727 4.41728 v -4.01571 -4.0157 h 4.0157 4.01571 v -4.41728 -4.41727 h 4.41727 4.41728 v 4.41727 4.41728 h -4.41728 -4.41727 v 4.0157 4.01571 h -4.01571 -4.0157 v 4.41727 4.41728 h -4.41728 -4.41727 z M -26.738731,82.176858 V 69.728173 h 4.417275 4.417276 v 12.448685 12.448686 h -4.417276 -4.417275 z m 75.49525,-167.053329 v -4.417276 h 4.417276 4.417275 v 4.417276 4.417275 h -4.417275 -4.417276 z"
           id="path37" /><path
           style="fill:#c3bbb7"
           d="m 57.59107,258.06474 v -4.41728 h 4.015705 4.015704 v 4.41728 4.41727 H 61.606775 57.59107 Z m 16.062819,-12.44869 v -16.86596 h 4.417275 4.417276 v -4.0157 -4.01571 h 4.015704 4.015705 v 4.01571 4.0157 H 86.504144 82.48844 v 16.86596 16.86596 H 78.071164 73.653889 Z M 57.59107,232.7658 v -4.01571 h 4.015705 4.015704 v 4.01571 4.0157 H 61.606775 57.59107 Z m -16.86596,-8.03141 v -4.01571 h 4.015704 4.015705 v 4.01571 4.0157 H 44.740814 40.72511 Z m 24.897369,-8.43298 v -4.41728 h 4.015705 4.015705 v 4.41728 4.41727 h -4.015705 -4.015705 z m 100.392621,0 v -4.41728 h -4.01571 -4.0157 v -4.0157 -4.01571 h 4.0157 4.01571 v 4.01571 4.0157 h 4.0157 4.01571 v 4.41728 4.41727 h -4.01571 -4.0157 z m -58.62929,-25.29894 v -4.01571 h 4.0157 4.01571 v 4.01571 4.0157 h -4.01571 -4.0157 z m 75.49525,0 v -4.01571 h -4.41728 -4.41727 v -4.0157 -4.01571 h 4.41727 4.41728 v 4.01571 4.0157 h 4.0157 4.01571 v 4.01571 4.0157 h -4.01571 -4.0157 z m -41.76333,-33.33036 v -4.41727 h 4.0157 4.01571 v 4.41727 4.41728 h -4.01571 -4.0157 z m 49.79474,0 v -4.41727 h 4.41727 4.41728 v 4.41727 4.41728 h -4.41728 -4.41727 z m 24.89737,-8.43298 v -4.0157 h 4.41727 4.41728 v 4.0157 4.01571 h -4.41728 -4.41727 z M -76.533471,107.4758 v -4.0157 h 4.015705 4.015705 v 4.0157 4.01571 h -4.015705 -4.015705 z M 224.64439,90.609839 v -4.015705 h -4.41728 -4.41727 v -4.015705 -4.015705 h 4.41727 4.41728 v -4.417276 -4.417275 h 4.0157 4.01571 v 12.448685 12.448686 h -4.01571 -4.0157 z M 166.0151,65.712468 v -4.015705 h 4.0157 4.01571 v 4.015705 4.015705 h -4.01571 -4.0157 z M -51.636101,48.846507 v -4.015705 h 4.417275 4.417276 v 4.015705 4.015705 h -4.417276 -4.417275 z M -42.80155,31.980545 V 27.96484 h 4.015705 4.015704 v 4.015705 4.015705 h -4.015704 -4.015705 z"
           id="path36" /><path
           style="fill:#f7c27b"
           d="m -9.8727709,124.34176 v -4.0157 H 2.575914 15.024599 v 4.0157 4.01571 H 2.575914 -9.8727709 Z"
           id="path35" /><path
           style="fill:#bab6b5"
           d="m 48.756519,249.63176 v -4.01571 h 4.417276 4.417275 v -4.41727 -4.41728 h 4.015705 4.015704 v -4.0157 -4.01571 h 4.015705 4.015705 v 4.01571 4.0157 h -4.015705 -4.015705 v 4.41728 4.41727 h 4.015705 4.015705 v 4.01571 4.0157 H 61.205204 48.756519 Z M 174.04651,207.86843 v -4.01571 h 4.41727 4.41728 v -4.41727 -4.41728 h 4.0157 4.01571 v 4.41728 4.41727 h -4.01571 -4.0157 v 4.01571 4.0157 h -4.41728 -4.41727 z m -133.3214,-8.43298 v -4.41728 h 4.015704 4.015705 v 4.41728 4.41727 H 44.740814 40.72511 Z m 41.76333,0 v -4.41728 h 4.015704 4.015705 v 4.41728 4.41727 H 86.504144 82.48844 Z M -17.90418,182.97106 v -4.01571 h 4.015704 4.0157051 v 4.01571 4.0157 h -4.0157051 -4.015704 z m 175.88787,0 v -4.01571 h 4.0157 4.01571 v 4.01571 4.0157 h -4.01571 -4.0157 z M 65.622479,157.67211 v -4.41727 h 4.015705 4.015705 v 4.41727 4.41728 H 69.638184 65.622479 Z M 115.41722,90.609839 v -4.015705 h 4.41727 4.41728 v 4.015705 4.015705 h -4.41728 -4.41727 z m 92.36121,-8.03141 v -4.015705 h 4.0157 4.01571 v 4.015705 4.015705 h -4.01571 -4.0157 z M -85.368021,65.712468 v -4.015705 h 4.417275 4.417275 v 4.015705 4.015705 h -4.417275 -4.417275 z"
           id="path34" /><path
           style="fill:#b4b2ab"
           d="m 65.622479,258.06474 v -4.41728 h 4.015705 4.015705 v 4.41728 4.41727 h -4.015705 -4.015705 z m 0,-16.86596 v -4.41728 h 4.015705 4.015705 v 4.41728 4.41727 h -4.015705 -4.015705 z m -92.36121,-33.33035 v -4.01571 h 4.417275 4.417276 v 4.01571 4.0157 h -4.417276 -4.417275 z m 184.722421,-8.43298 v -4.41728 h -4.41728 -4.41727 v -4.0157 -4.01571 h 8.43298 8.43298 v -4.0157 -4.01571 h 4.0157 4.01571 v 12.44869 12.44868 h -8.03141 -8.03141 z M -9.8727709,191.00247 v -4.01571 h 4.4172753 4.4172753 v -4.0157 -4.01571 h 4.0157048 4.0157048 v 4.01571 4.0157 H 2.9774845 -1.0382203 v 4.01571 4.0157 h -4.4172753 -4.4172753 z m 142.1559509,0 v -4.01571 h 4.41727 4.41728 v 4.01571 4.0157 h -4.41728 -4.41727 z M -34.770141,166.10509 v -4.0157 h -4.015704 -4.015705 v -4.41728 -4.41727 h 4.015705 4.015704 v 4.41727 4.41728 h 4.015705 4.015705 v 4.0157 4.01571 h -4.015705 -4.015705 z M 224.64439,140.80615 v -4.41727 h -4.41728 -4.41727 v -4.01571 -4.0157 h 4.41727 4.41728 v 4.0157 4.01571 h 4.0157 4.01571 v 4.41727 4.41728 h -4.01571 -4.0157 z m -267.44594,-8.43298 v -4.0157 h 4.015705 4.015704 v 4.0157 4.01571 h -4.015704 -4.015705 z M -85.368021,107.4758 v -4.0157 h 4.417275 4.417275 v 4.0157 4.01571 h -4.417275 -4.417275 z M 207.77843,90.609839 v -4.015705 h 4.0157 4.01571 v 4.015705 4.015705 h -4.01571 -4.0157 z m -8.03141,-24.897371 v -4.015705 h 4.0157 4.01571 v 4.015705 4.015705 h -4.01571 -4.0157 z M -68.502061,-17.814197 v -4.015705 h 4.417275 4.417276 v 4.015705 4.015705 h -4.417276 -4.417275 z M 207.77843,-76.443491 v -4.015705 h 4.0157 4.01571 v 4.015705 4.015705 h -4.01571 -4.0157 z m -24.89737,-8.43298 v -4.417276 h 4.0157 4.01571 v 4.417276 4.417275 h -4.01571 -4.0157 z"
           id="path33" /><path
           style="fill:#eeb267"
           d="m 82.48844,174.53807 v -4.41727 h 4.015704 4.015705 v 4.41727 4.41728 H 86.504144 82.48844 Z M 6.9931893,149.23913 v -4.0157 H 2.9774845 -1.0382203 v -4.41728 -4.41727 h -4.4172753 -4.4172753 v -4.01571 -4.0157 h -4.0157051 -4.015704 v -4.01571 -4.0157 h 4.015704 4.0157051 v 4.0157 4.01571 H 2.575914 15.024599 v 12.44868 12.44869 H 11.008894 6.9931893 Z"
           id="path32" /><path
           style="fill:#abaaa3"
           d="m 40.72511,232.7658 v -4.01571 h 4.015704 4.015705 v 4.01571 4.0157 H 44.740814 40.72511 Z m 41.76333,0 v -4.01571 h 4.015704 4.015705 v 4.01571 4.0157 H 86.504144 82.48844 Z m 83.52666,-24.89737 v -4.01571 h 4.0157 4.01571 v -8.43298 -8.43298 h 4.41727 4.41728 v 8.43298 8.43298 h -4.41728 -4.41727 v 4.01571 4.0157 h -4.01571 -4.0157 z m -24.89737,-8.43298 v -4.41728 h 4.0157 4.01571 v 4.41728 4.41727 h -4.01571 -4.0157 z M 15.024599,174.53807 V 170.1208 H 11.008894 6.9931893 v -4.01571 -4.0157 h 4.0157047 4.015705 v 4.0157 4.01571 h 4.417275 4.417275 v 4.41727 4.41728 H 19.441874 15.024599 Z M 132.28318,115.90878 v -4.41727 h 4.41727 4.41728 v 4.41727 4.41728 h -4.41728 -4.41727 z m 67.46384,-33.330351 v -4.015705 h -4.41728 -4.41727 v -4.417276 -4.417275 h 4.41727 4.41728 v 4.417275 4.417276 h 4.0157 4.01571 v 4.015705 4.015705 h -4.01571 -4.0157 z M 149.14914,23.949135 V 19.93343 h 4.41727 4.41728 v 4.015705 4.015705 h -4.41728 -4.41727 z M 166.0151,7.0831741 V 3.067469 h 4.0157 4.01571 v -4.4172755 -4.4172756 h 4.41727 4.41728 v 4.4172756 4.4172755 h -4.41728 -4.41727 v 4.0157051 4.0157049 h -4.01571 -4.0157 z M 115.41722,-17.814197 v -4.015705 h 4.41727 4.41728 v 4.015705 4.015705 h -4.41728 -4.41727 z M -34.770141,-34.680158 v -4.015705 h 4.015705 4.015705 v 4.015705 4.015705 h -4.015705 -4.015705 z m 159.021911,0 v -4.015705 h 4.0157 4.01571 v -4.417276 -4.417276 h 4.41727 4.41728 v 4.417276 4.417276 h -4.41728 -4.41727 v 4.015705 4.015705 h -4.01571 -4.0157 z m 75.49525,0 v -4.015705 h 4.0157 4.01571 v -4.417276 -4.417276 h 4.0157 4.01571 v -4.015705 -4.015705 h 4.41727 4.41728 v 4.015705 4.015705 h -4.41728 -4.41727 v 4.417276 4.417276 h -4.01571 -4.0157 v 4.015705 4.015705 h -4.01571 -4.0157 z m -50.59788,-33.731923 v -4.015705 h 4.41727 4.41728 v -4.015705 -4.015705 h 4.0157 4.01571 v -4.417275 -4.417276 h 4.0157 4.01571 v 4.417276 4.417275 h -4.01571 -4.0157 v 4.015705 4.015705 h -4.01571 -4.0157 v 4.015705 4.015705 h -4.41728 -4.41727 z m 75.49525,0 v -4.015705 h 4.0157 4.01571 v 4.015705 4.015705 h -4.01571 -4.0157 z M 40.72511,-84.876471 v -4.417276 h 4.015704 4.015705 v 4.417276 4.417275 H 44.740814 40.72511 Z"
           id="path31" /><path
           style="fill:#a8a397"
           d="m 124.25177,182.97106 v -4.01571 h 4.0157 4.01571 v 4.01571 4.0157 h -4.01571 -4.0157 z M -51.636101,111.89308 v -8.43298 h 4.417275 4.417276 v 8.43298 8.43298 h -4.417276 -4.417275 z m -41.76333,-4.41728 v -4.0157 h 4.015705 4.015705 v 4.0157 4.01571 h -4.015705 -4.015705 z m 66.6607,-8.43298 v -4.417276 h 4.417275 4.417276 v 4.417276 4.41728 h -4.417276 -4.417275 z m -66.6607,-33.330352 v -4.015705 h 4.015705 4.015705 v 4.015705 4.015705 h -4.015705 -4.015705 z"
           id="path30" /><path
           style="fill:#a19c99"
           d="m 31.890559,199.43545 v -4.41728 h 4.417275 4.417276 v 4.41728 4.41727 h -4.417276 -4.417275 z m -58.62929,-24.89738 v -4.41727 h 4.417275 4.417276 v 4.41727 4.41728 h -4.417276 -4.417275 z m -8.03141,-58.62929 v -4.41727 h 4.015705 4.015705 v 4.41727 4.41728 h -4.015705 -4.015705 z M -59.66751,107.4758 v -4.0157 h 4.015704 4.015705 v 4.0157 4.01571 h -4.015705 -4.015704 z m 0,-37.346057 v -8.43298 h 4.015704 4.015705 v 8.43298 8.432981 h -4.015705 -4.015704 z m 242.54857,-4.417275 v -4.015705 h 4.0157 4.01571 v 4.015705 4.015705 h -4.01571 -4.0157 z m 24.89737,0 v -4.015705 h 4.0157 4.01571 v 4.015705 4.015705 h -4.01571 -4.0157 z M 90.519849,57.279487 v -4.417275 h 4.417276 4.417275 v 4.417275 4.417276 h -4.417275 -4.417276 z"
           id="path29" /><path
           style="fill:#9a9794"
           d="m 48.756519,258.06474 v -4.41728 h 4.417276 4.417275 v 4.41728 4.41727 H 53.173795 48.756519 Z M 40.72511,241.19878 v -4.41728 h 4.015704 4.015705 v 4.41728 4.41727 H 44.740814 40.72511 Z m 41.76333,0 v -4.41728 h 4.015704 4.015705 v 4.41728 4.41727 H 86.504144 82.48844 Z m 8.031409,-41.76333 v -4.41728 h 4.417276 4.417275 v 4.41728 4.41727 H 94.937125 90.519849 Z M -59.66751,182.97106 v -4.01571 h 4.015704 4.015705 v 4.01571 4.0157 h -4.015705 -4.015704 z M 199.74702,107.4758 v -4.0157 h 4.0157 4.01571 v 4.0157 4.01571 h -4.01571 -4.0157 z M -59.66751,99.04282 v -4.417276 h 4.015704 4.015705 v 4.417276 4.41728 h -4.015705 -4.015704 z m 24.897369,-50.196313 v -4.015705 h 4.015705 4.015705 v 4.015705 4.015705 h -4.015705 -4.015705 z M 82.48844,15.516155 v -4.417276 h 4.015704 4.015705 v 4.417276 4.417275 H 86.504144 82.48844 Z M -51.636101,7.0831741 V 3.067469 h 4.417275 4.417276 v 4.0157051 4.0157049 h -4.417276 -4.417275 z m 16.86596,0 V 3.067469 h 4.015705 4.015705 v 4.0157051 4.0157049 h -4.015705 -4.015705 z M -17.90418,-9.7827871 v -4.0157049 h 4.015704 4.0157051 v 4.0157049 4.015705 h -4.0157051 -4.015704 z"
           id="path28" /><path
           style="fill:#91918b"
           d="m -51.636101,216.30141 v -4.41728 h -4.015705 -4.015704 v -4.0157 -4.01571 h -4.417276 -4.417275 v -8.43298 -8.43298 h 4.417275 4.417276 v 8.43298 8.43298 h 4.015704 4.015705 v 4.01571 4.0157 h 4.417275 4.417276 v 4.41728 4.41727 h -4.417276 -4.417275 z M 141.11773,182.97106 v -4.01571 h 4.0157 4.01571 v 4.01571 4.0157 h -4.01571 -4.0157 z M 73.653889,157.67211 v -4.41727 h 4.417275 4.417276 v -4.01571 -4.0157 h 4.015704 4.015705 v 4.0157 4.01571 H 86.504144 82.48844 v 4.41727 4.41728 h -4.417276 -4.417275 z m -100.39262,-25.29894 v -4.0157 h 4.417275 4.417276 v 4.0157 4.01571 h -4.417276 -4.417275 z M 215.80984,99.04282 v -4.417276 h 4.41727 4.41728 v 4.417276 4.41728 h -4.41728 -4.41727 z M -59.66751,82.578429 v -4.015705 h 4.015704 4.015705 v 4.015705 4.015705 h -4.015705 -4.015704 z M 82.48844,70.129743 v -8.43298 h 4.015704 4.015705 v 8.43298 8.432981 H 86.504144 82.48844 Z m 133.3214,-4.417275 v -4.015705 h 4.41727 4.41728 v 4.015705 4.015705 h -4.41728 -4.41727 z M -26.738731,31.980545 V 27.96484 h 4.417275 4.417276 v 4.015705 4.015705 h -4.417276 -4.417275 z m -41.76333,-58.227723 v -4.417275 h 4.417275 4.417276 v -4.015705 -4.015705 h 4.015704 4.015705 v -4.417276 -4.417276 h 8.43298 8.43298 v 4.417276 4.417276 h -8.43298 -8.43298 v 4.015705 4.015705 h -4.015705 -4.015704 v 4.417275 4.417276 h -4.417276 -4.417275 z m 100.39262,-58.629293 v -4.417276 h 4.417275 4.417276 v 4.417276 4.417275 h -4.417276 -4.417275 z"
           id="path27" /><path
           style="fill:#c7914f"
           d="m 73.653889,174.53807 v -4.41727 h 4.417275 4.417276 v 4.41727 4.41728 H 78.071164 73.653889 Z M 99.3544,166.10509 v -4.0157 h 4.0157 4.01571 v 4.0157 4.01571 H 103.3701 99.3544 Z M 6.9931893,157.67211 v -4.41727 H 2.9774845 -1.0382203 v -4.01571 -4.0157 h 4.0157048 4.0157048 v 4.0157 4.01571 h 4.0157047 4.015705 v 4.41727 4.41728 H 11.008894 6.9931893 Z M 99.3544,123.94019 V 94.625544 h 4.0157 4.01571 v 8.432976 8.43299 h 4.0157 4.01571 v 4.41727 4.41728 h 4.41727 4.41728 v 8.03141 8.03141 h -8.43298 -8.43298 v 8.43298 8.43298 h -4.01571 -4.0157 z"
           id="path26" /><path
           style="fill:#898883"
           d="m 190.91247,191.00247 v -4.01571 h -4.01571 -4.0157 v -4.0157 -4.01571 h 4.0157 4.01571 v 4.01571 4.0157 h 4.41727 4.41728 v 4.01571 4.0157 h -4.41728 -4.41727 z m -32.92878,-16.4644 v -4.41727 h 4.0157 4.01571 v 4.41727 4.41728 h -4.01571 -4.0157 z m -8.83455,-33.73192 v -4.41727 h 4.41727 4.41728 v 4.41727 4.41728 h -4.41728 -4.41727 z M -59.66751,90.609839 v -4.015705 h 4.015704 4.015705 v 4.015705 4.015705 h -4.015705 -4.015704 z m 142.15595,-8.03141 v -4.015705 h 4.015704 4.015705 v 4.015705 4.015705 H 86.504144 82.48844 Z m 24.89737,0 v -4.015705 h 4.0157 4.01571 v 4.015705 4.015705 h -4.01571 -4.0157 z m 66.6607,-8.432981 v -4.417275 h 4.41727 4.41728 v 4.417275 4.417276 h -4.41728 -4.41727 z m -200.785241,-8.43298 v -4.015705 h 4.417275 4.417276 v 4.015705 4.015705 h -4.417276 -4.417275 z M -42.80155,15.516155 v -4.417276 h 4.015705 4.015704 v 4.417276 4.417275 h -4.015704 -4.015705 z m 16.062819,-16.8659615 v -4.4172756 h 4.417275 4.417276 v 4.4172756 4.4172755 h -4.417276 -4.417275 z"
           id="path25" /><path
           style="fill:#bb8648"
           d="m 65.622479,174.53807 v -4.41727 h 4.015705 4.015705 v 4.41727 4.41728 h -4.015705 -4.015705 z m 41.763331,-29.71621 v -8.43298 h 8.43298 8.43298 v 4.41727 4.41728 h -4.41728 -4.41727 v 4.0157 4.01571 h -4.01571 -4.0157 z m 0,-37.34606 v -4.0157 h 4.0157 4.01571 v 4.0157 4.01571 h -4.01571 -4.0157 z"
           id="path24" /><path
           style="fill:#84837b"
           d="m 40.72511,249.63176 v -4.01571 h 4.015704 4.015705 v 4.01571 4.0157 H 44.740814 40.72511 Z m 41.76333,0 v -4.01571 h 4.015704 4.015705 v 4.01571 4.0157 H 86.504144 82.48844 Z M -34.770141,216.30141 v -4.41728 h 4.015705 4.015705 v 4.41728 4.41727 h -4.015705 -4.015705 z M 166.0151,166.10509 v -4.0157 h 4.0157 4.01571 v 4.0157 4.01571 h -4.01571 -4.0157 z m -24.89737,-16.86596 v -4.0157 h 4.0157 4.01571 v 4.0157 4.01571 h -4.01571 -4.0157 z M 82.48844,115.90878 V 86.594134 h 4.015704 4.015705 v 29.314646 29.31465 H 86.504144 82.48844 Z m 0,-58.629293 v -4.417275 h 4.015704 4.015705 v 4.417275 4.417276 H 86.504144 82.48844 Z M -51.636101,40.413526 V 35.99625 h 4.417275 4.417276 v 4.417276 4.417276 h -4.417276 -4.417275 z m 33.731921,0 V 35.99625 h 4.015704 4.0157051 v 4.417276 4.417276 h -4.0157051 -4.015704 z m 183.91928,0 V 35.99625 h 4.0157 4.01571 v 4.417276 4.417276 h -4.01571 -4.0157 z M 90.519849,-17.814197 v -4.015705 h 4.417276 4.417275 v -4.417276 -4.417275 h 4.0157 4.01571 v 4.417275 4.417276 h -4.01571 -4.0157 v 4.015705 4.015705 H 94.937125 90.519849 Z M 6.9931893,-26.247178 v -4.417275 h 4.0157047 4.015705 v 4.417275 4.417276 H 11.008894 6.9931893 Z"
           id="path23" /><path
           style="fill:#817d83"
           d="m 149.14914,174.53807 v -4.41727 h 4.41727 4.41728 v 4.41727 4.41728 h -4.41728 -4.41727 z M -1.0382203,157.67211 v -4.41727 h 4.0157048 4.0157048 v 4.41727 4.41728 H 2.9774845 -1.0382203 Z m 200.7852403,0 v -4.41727 h 4.0157 4.01571 v 4.41727 4.41728 h -4.01571 -4.0157 z m 8.03141,-58.62929 v -4.417276 h 4.0157 4.01571 v 4.417276 4.41728 h -4.01571 -4.0157 z"
           id="path22" /><path
           style="fill:#bd813b"
           d="m 99.3544,157.67211 v -4.41727 h 4.0157 4.01571 v 4.41727 4.41728 h -4.01571 -4.0157 z m 24.89737,-20.88166 v -8.43298 h 4.0157 4.01571 v 8.43298 8.43298 h -4.01571 -4.0157 z"
           id="path21" /><path
           style="fill:#8e785a"
           d="m 40.72511,174.53807 v -4.41727 h 4.015704 4.015705 v 4.41727 4.41728 H 44.740814 40.72511 Z M -9.8727709,140.80615 v -4.41727 h 4.4172753 4.4172753 v 4.41727 4.41728 h -4.4172753 -4.4172753 z"
           id="path20" /><path
           style="fill:#ab7532"
           d="m 48.756519,174.53807 v -4.41727 h 8.43298 8.43298 v 4.41727 4.41728 h -8.43298 -8.43298 z m 41.76333,-8.43298 v -4.0157 h 4.417276 4.417275 v 4.0157 4.01571 h -4.417275 -4.417276 z m 16.865961,-8.43298 v -4.41727 h 4.0157 4.01571 v -4.01571 -4.0157 h 4.41727 4.41728 v 4.0157 4.01571 h -4.41728 -4.41727 v 4.41727 4.41728 h -4.01571 -4.0157 z m 8.03141,-41.76333 v -4.41727 h 4.41727 4.41728 v 4.41727 4.41728 h -4.41728 -4.41727 z M 99.3544,90.609839 v -4.015705 h 4.0157 4.01571 v 4.015705 4.015705 h -4.01571 -4.0157 z"
           id="path19" /><path
           style="fill:#726f6b"
           d="m 157.98369,216.30141 v -4.41728 h -4.41728 -4.41727 v -4.0157 -4.01571 h 4.41727 4.41728 v 4.01571 4.0157 h 4.0157 4.01571 v 4.41728 4.41727 h -4.01571 -4.0157 z m 16.06282,0 v -4.41728 h 4.41727 4.41728 v -4.0157 -4.01571 h 4.0157 4.01571 v -4.41727 -4.41728 h 4.41727 4.41728 v 4.41728 4.41727 h -4.41728 -4.41727 v 4.01571 4.0157 h -4.01571 -4.0157 v 4.41728 4.41727 h -4.41728 -4.41727 z m -58.62929,-25.29894 v -4.01571 h 4.41727 4.41728 v 4.01571 4.0157 h -4.41728 -4.41727 z m 58.62929,-24.89738 v -4.0157 h 4.41727 4.41728 v 4.0157 4.01571 h -4.41728 -4.41727 z M -34.770141,107.4758 v -4.0157 h 4.015705 4.015705 v 4.0157 4.01571 h -4.015705 -4.015705 z M -1.0382203,-17.814197 v -4.015705 h 4.0157048 4.0157048 v 4.015705 4.015705 H 2.9774845 -1.0382203 Z M 23.859149,-84.876471 v -4.417276 h 4.015705 4.015705 v 4.417276 4.417275 h -4.015705 -4.015705 z"
           id="path18" /><path
           style="fill:#6a645a"
           d="m 23.859149,199.43545 v -4.41728 h 4.015705 4.015705 v 4.41728 4.41727 h -4.015705 -4.015705 z m 75.495251,0 v -4.41728 h 4.0157 4.01571 v 4.41728 4.41727 H 103.3701 99.3544 Z M 6.9931893,191.00247 v -4.01571 h 4.0157047 4.015705 v 4.01571 4.0157 H 11.008894 6.9931893 Z m 16.8659597,-16.4644 v -4.41727 h 8.432981 8.43298 v 4.41727 4.41728 H 32.29213 23.859149 Z M -9.8727709,149.23913 v -4.0157 h -4.0157051 -4.015704 v -8.43298 -8.43298 h 4.015704 4.0157051 v 8.43298 8.43298 h 4.4172753 4.4172753 v 4.0157 4.01571 H -5.4554956 -9.8727709 Z M -42.80155,140.80615 v -4.41727 h 4.015705 4.015704 v 4.41727 4.41728 h -4.015704 -4.015705 z m -8.834551,-16.46439 v -4.0157 h -4.015705 -4.015704 v -4.41728 -4.41727 h 4.015704 4.015705 v 4.41727 4.41728 h 4.417275 4.417276 v 4.0157 4.01571 h -4.417276 -4.417275 z m 24.89737,-16.86596 v -4.0157 h 4.417275 4.417276 v 4.0157 4.01571 h -4.417276 -4.417275 z M -59.66751,57.279487 v -4.417275 h 4.015704 4.015705 v 4.417275 4.417276 h -4.015705 -4.015704 z m 24.897369,0 v -4.417275 h 8.43298 8.432981 v 4.417275 4.417276 h -8.432981 -8.43298 z M 90.519849,7.0831741 V 3.067469 h 4.417276 4.417275 v -4.4172755 -4.4172756 h 4.0157 4.01571 V -1.3498065 3.067469 H 103.3701 99.3544 V 7.0831741 11.098879 H 94.937125 90.519849 Z M 6.9931893,-1.3498065 v -4.4172756 h 4.0157047 4.015705 V -1.3498065 3.067469 H 11.008894 6.9931893 Z M 90.519849,-26.247178 v -4.417275 h 4.417276 4.417275 v 4.417275 4.417276 h -4.417275 -4.417276 z"
           id="path17" /><path
           style="fill:#54524e"
           d="m -34.770141,157.67211 v -4.41727 h 4.015705 4.015705 v 4.41727 4.41728 h -4.015705 -4.015705 z m 183.919281,0 v -4.41727 h 4.41727 4.41728 v 4.41727 4.41728 h -4.41728 -4.41727 z m -8.03141,-25.29894 v -4.0157 h 4.0157 4.01571 v 4.0157 4.01571 h -4.01571 -4.0157 z m -167.856461,-8.03141 v -4.0157 h 4.417275 4.417276 v 4.0157 4.01571 h -4.417276 -4.417275 z M 124.25177,107.4758 v -4.0157 h 4.0157 4.01571 v 4.0157 4.01571 h -4.01571 -4.0157 z M -34.770141,99.04282 v -4.417276 h 4.015705 4.015705 v 4.417276 4.41728 h -4.015705 -4.015705 z M 199.74702,90.609839 v -4.015705 h 4.0157 4.01571 v 4.015705 4.015705 h -4.01571 -4.0157 z m -16.86596,-8.03141 v -4.015705 h 4.0157 4.01571 v 4.015705 4.015705 h -4.01571 -4.0157 z M 99.3544,74.145448 v -4.417275 h 4.0157 4.01571 v 4.417275 4.417276 h -4.01571 -4.0157 z m 74.69211,-16.865961 v -4.417275 h -4.01571 -4.0157 v -4.015705 -4.015705 h 4.0157 4.01571 v 4.015705 4.015705 h 4.41727 4.41728 v 4.417275 4.417276 h -4.41728 -4.41727 z M 157.98369,31.980545 V 27.96484 h 4.0157 4.01571 v 4.015705 4.015705 h -4.01571 -4.0157 z M -42.80155,23.949135 V 19.93343 h 4.015705 4.015704 v 4.015705 4.015705 h -4.015704 -4.015705 z M 90.519849,-9.7827871 v -4.0157049 h 4.417276 4.417275 v 4.0157049 4.015705 h -4.417275 -4.417276 z m 16.865961,0 v -4.0157049 h 4.0157 4.01571 v 4.0157049 4.015705 h -4.01571 -4.0157 z M -9.8727709,-17.814197 v -4.015705 h 4.4172753 4.4172753 v 4.015705 4.015705 h -4.4172753 -4.4172753 z"
           id="path16" /><path
           style="fill:#644a29"
           d="M 90.519849,115.90878 V 78.562724 h 4.417276 4.417275 v 37.346056 37.34606 h -4.417275 -4.417276 z m 33.731921,8.43298 v -4.0157 h 4.0157 4.01571 v 4.0157 4.01571 h -4.01571 -4.0157 z M 107.38581,99.04282 v -4.417276 h 4.0157 4.01571 v 4.417276 4.41728 h -4.01571 -4.0157 z"
           id="path15" /><path
           style="fill:#4b443b"
           d="m 40.72511,207.86843 v -4.01571 h 4.015704 4.015705 v 4.01571 4.0157 H 44.740814 40.72511 Z m 41.76333,0 v -4.01571 h 4.015704 4.015705 v 4.01571 4.0157 H 86.504144 82.48844 Z M -17.90418,174.53807 v -4.41727 h -4.417276 -4.417275 v -4.01571 -4.0157 h 4.417275 4.417276 v 4.0157 4.01571 h 4.015704 4.0157051 v 4.41727 4.41728 h -4.0157051 -4.015704 z m 175.88787,-16.86596 v -4.41727 h 4.0157 4.01571 v 4.41727 4.41728 h -4.01571 -4.0157 z M -26.738731,115.90878 v -4.41727 h 4.417275 4.417276 v 4.41727 4.41728 h -4.417276 -4.417275 z m -8.03141,-25.298941 v -4.015705 h 4.015705 4.015705 v 4.015705 4.015705 h -4.015705 -4.015705 z m 0,-24.897371 v -4.015705 h 4.015705 4.015705 v 4.015705 4.015705 h -4.015705 -4.015705 z M -17.90418,23.949135 V 19.93343 h 8.4329796 8.4329801 V 11.50045 3.067469 h 4.0157048 4.0157048 v 8.432981 8.43298 H 2.9774845 -1.0382203 v 4.015705 4.015705 H -9.4712004 -17.90418 Z"
           id="path14" /><path
           style="fill:#3d413b"
           d="m -9.8727709,182.97106 v -4.01571 h 4.4172753 4.4172753 v 4.01571 4.0157 H -5.4554956 -9.8727709 Z M 141.11773,174.53807 v -4.41727 h 4.0157 4.01571 v 4.41727 4.41728 h -4.01571 -4.0157 z M 82.48844,157.67211 v -4.41727 h 4.015704 4.015705 v 4.41727 4.41728 H 86.504144 82.48844 Z M 190.91247,86.594134 v -8.03141 h 4.41727 4.41728 v 8.03141 8.03141 h -4.41728 -4.41727 z M -34.770141,78.161153 v -8.43298 h 4.015705 4.015705 v 8.43298 8.432981 h -4.015705 -4.015705 z M 157.98369,23.949135 V 19.93343 h 4.0157 4.01571 v 4.015705 4.015705 h -4.01571 -4.0157 z"
           id="path13" /><path
           style="fill:#493319"
           d="m 82.48844,166.10509 v -4.0157 h 4.015704 4.015705 v -4.41728 -4.41727 h 4.417276 4.417275 v 4.41727 4.41728 h -4.417275 -4.417276 v 4.0157 4.01571 H 86.504144 82.48844 Z m 49.79474,-33.73192 v -4.0157 h 4.41727 4.41728 v 4.0157 4.01571 h -4.41728 -4.41727 z M 115.41722,107.4758 v -4.0157 h 4.41727 4.41728 v 4.0157 4.01571 h -4.41728 -4.41727 z"
           id="path12" /><path
           style="fill:#343029"
           d="m 48.756519,207.86843 v -4.01571 h 16.86596 16.865961 v 4.01571 4.0157 H 65.622479 48.756519 Z m 41.76333,0 v -4.01571 h 4.417276 4.417275 v 4.01571 4.0157 h -4.417275 -4.417276 z m 41.763331,-24.89737 v -4.01571 h 4.41727 4.41728 v 4.01571 4.0157 h -4.41728 -4.41727 z m 33.73192,-8.43299 v -4.41727 h 8.43298 8.43298 v 4.41727 4.41728 h -8.43298 -8.43298 z m -16.86596,-8.43298 v -4.0157 h 4.41727 4.41728 v 4.0157 4.01571 h -4.41728 -4.41727 z M 115.41722,99.04282 v -4.417276 h 4.41727 4.41728 v 4.417276 4.41728 h -4.41728 -4.41727 z m 67.46384,-24.897372 v -4.417275 h -4.41728 -4.41727 v -4.015705 -4.015705 h -4.01571 -4.0157 v -4.417276 -4.417275 h -4.01571 -4.0157 V 44.429231 35.99625 h -4.41728 -4.41727 V 31.980545 27.96484 h 4.41727 4.41728 v 4.015705 4.015705 h 4.0157 4.01571 v 8.432981 8.432981 h 4.0157 4.01571 v 4.417275 4.417276 h 4.41727 4.41728 v 4.015705 4.015705 h 4.0157 4.01571 v 4.417275 4.417276 h -4.01571 -4.0157 z M -26.738731,44.429231 V 35.99625 h 4.417275 4.417276 v 8.432981 8.432981 h -4.417276 -4.417275 z M -9.8727709,15.516155 v -4.417276 h 4.4172753 4.4172753 v 4.417276 4.417275 H -5.4554956 -9.8727709 Z M 6.9931893,7.0831741 V 3.067469 h 4.0157047 4.015705 V 7.0831741 11.098879 H 11.008894 6.9931893 Z M 82.48844,-26.247178 v -4.417275 h 4.015704 4.015705 v 4.417275 4.417276 H 86.504144 82.48844 Z m -109.227171,-8.43298 v -4.015705 h -4.015705 -4.015705 v -4.417276 -4.417276 h 4.015705 4.015705 v 4.417276 4.417276 h 4.417275 4.417276 v 4.015705 4.015705 h -4.417276 -4.417275 z M 132.28318,-51.54612 v -4.015705 h 4.41727 4.41728 v 4.015705 4.015705 h -4.41728 -4.41727 z"
           id="path11" /><path
           style="fill:#322612"
           d="m -42.80155,224.73439 v -4.01571 h 4.015705 4.015704 v 4.01571 4.0157 h -4.015704 -4.015705 z m 74.692109,-16.86596 v -4.01571 h 4.417275 4.417276 v 4.01571 4.0157 H 36.307834 31.890559 Z M -1.0382203,191.00247 v -4.01571 h 4.0157048 4.0157048 v 4.01571 4.0157 H 2.9774845 -1.0382203 Z M 57.59107,166.10509 v -4.0157 H 70.039755 82.48844 v 4.0157 4.01571 H 70.039755 57.59107 Z M 99.3544,82.578429 v -4.015705 h 4.0157 4.01571 v 4.015705 4.015705 H 103.3701 99.3544 Z M -17.90418,31.980545 V 27.96484 h 4.015704 4.0157051 v 4.015705 4.015705 H -13.888476 -17.90418 Z M 82.48844,-5.3655116 V -21.829902 h 4.015704 4.015705 v 8.03141 8.0314099 H 94.937125 99.3544 V -1.3498065 3.067469 H 94.937125 90.519849 V 7.0831741 11.098879 H 86.504144 82.48844 Z m 32.92878,-20.8816664 v -4.417275 h 4.41727 4.41728 v 4.417275 4.417276 h -4.41728 -4.41727 z"
           id="path10" /><path
           style="fill:#281c0b"
           d="m 23.859149,207.86843 v -4.01571 h -8.43298 -8.4329797 v -4.41727 -4.41728 h 8.4329797 8.43298 v 4.41728 4.41727 h 4.015705 4.015705 v 4.01571 4.0157 H 27.874854 23.859149 Z M 15.024599,69.728173 V -30.664453 h 4.417275 4.417275 V 69.728173 170.1208 H 19.441874 15.024599 Z M 40.72511,166.10509 v -4.0157 h 8.43298 8.43298 v 4.0157 4.01571 h -8.43298 -8.43298 z m 117.25858,0 v -4.0157 h 4.0157 4.01571 v 4.0157 4.01571 h -4.01571 -4.0157 z m -8.83455,-16.86596 v -4.0157 h 4.41727 4.41728 v 4.0157 4.01571 h -4.41728 -4.41727 z m -16.86596,-24.89737 v -4.0157 h -4.01571 -4.0157 v -4.41728 -4.41727 h 4.0157 4.01571 v 4.41727 4.41728 h 4.41727 4.41728 v 4.0157 4.01571 h -4.41728 -4.41727 z m 75.49525,-16.86596 v -4.0157 h -4.01571 -4.0157 v -4.41728 -4.417276 h 4.0157 4.01571 v 4.417276 4.41728 h 4.0157 4.01571 v 4.0157 4.01571 h -4.01571 -4.0157 z M 107.38581,90.609839 v -4.015705 h 4.0157 4.01571 v 4.015705 4.015705 h -4.01571 -4.0157 z M 90.519849,65.712468 v -4.015705 h 4.417276 4.417275 v 4.015705 4.015705 h -4.417275 -4.417276 z m 16.865961,-83.526665 v -4.015705 h 4.0157 4.01571 v 4.015705 4.015705 h -4.01571 -4.0157 z M 82.48844,-39.097434 v -8.432981 h 4.015704 4.015705 v 8.432981 8.432981 H 86.504144 82.48844 Z"
           id="path9" /><path
           style="fill:#020203"
           d="m 40.72511,262.08044 v -8.43298 H 36.307834 31.890559 V 232.7658 211.88413 h 4.417275 4.417276 v 20.88167 20.88166 h 4.015704 4.015705 v 4.41728 4.41727 h 16.86596 16.865961 v -4.41727 -4.41728 h 4.015704 4.015705 V 232.7658 211.88413 h 4.417276 4.417275 v -4.0157 -4.01571 h 4.0157 4.01571 v -4.41727 -4.41728 h 8.43298 8.43298 v -4.0157 -4.01571 h 4.0157 4.01571 v 4.01571 4.0157 h 4.41727 4.41728 v 4.41728 4.41727 h 4.0157 4.01571 v 4.01571 4.0157 h 4.41727 4.41728 v 4.41728 4.41727 h 12.44868 12.44869 v -4.41727 -4.41728 h 4.0157 4.01571 v -4.0157 -4.01571 h 4.41727 4.41728 v -8.43298 -8.43298 h -4.41728 -4.41727 v -4.0157 -4.01571 h -4.01571 -4.0157 v -8.43298 -8.43298 h 12.44868 12.44869 v -4.41728 -4.41727 h 8.43298 8.43298 v -4.01571 -4.0157 h 4.0157 4.01571 v -4.41728 -4.41727 h -4.01571 -4.0157 v -4.01571 -4.0157 h -4.41728 -4.41727 v -4.01571 -4.0157 h -4.01571 -4.0157 v -4.41728 -4.41727 h 4.0157 4.01571 v -4.01571 -4.0157 h 4.41727 4.41728 v -4.41728 -4.417276 h 4.0157 4.01571 V 82.176858 69.728173 h -4.01571 -4.0157 v -4.015705 -4.015705 h -20.88167 -20.88166 v -4.417276 -4.417275 h -4.41728 -4.41727 V 44.429231 35.99625 h -4.01571 -4.0157 V 23.547565 11.098879 h 4.0157 4.01571 V 7.0831741 3.067469 h 4.41727 4.41728 v -8.4329806 -8.4329804 h 4.0157 4.01571 v -4.015705 -4.015705 h 4.41727 4.41728 v -4.417276 -4.417275 h 4.0157 4.01571 v -4.015705 -4.015705 h 4.0157 4.01571 v -4.417276 -4.417276 h 4.41727 4.41728 v -8.43298 -8.432981 h 4.0157 4.01571 v -4.015705 -4.015705 h -8.43298 -8.43298 v -4.015705 -4.015705 h -12.44869 -12.44868 v -4.417275 -4.417276 H 178.46378 166.0151 v 4.417276 4.417275 h -4.01571 -4.0157 v 4.015705 4.015705 h -4.41728 -4.41727 v 8.432981 8.43298 h -4.01571 -4.0157 v -8.43298 -8.432981 h 4.0157 4.01571 v -4.015705 -4.015705 h 4.41727 4.41728 v -4.417275 -4.417276 h 4.0157 4.01571 v -4.015705 -4.015705 h 12.44868 12.44869 v 4.015705 4.015705 h 12.44868 12.44869 v 4.417276 4.417275 h 8.43298 8.43298 v 4.015705 4.015705 h 4.41727 4.41728 v 4.015705 4.015705 h -4.41728 -4.41727 v 8.432981 8.43298 h -4.01571 -4.0157 v 4.417276 4.417276 h -4.41728 -4.41727 v 4.015705 4.015705 h -4.01571 -4.0157 v 4.417275 4.417276 h -4.01571 -4.0157 v 4.015705 4.015705 h -4.41728 -4.41727 v 8.4329804 8.4329806 h -4.01571 -4.0157 v 4.0157051 4.0157049 h -4.41728 -4.41727 V 23.547565 35.99625 h 4.41727 4.41728 v 8.432981 8.432981 h 20.88166 20.88167 v 4.417275 4.417276 h 8.43298 8.43298 V 82.578429 103.4601 h -8.43298 -8.43298 v 4.0157 4.01571 h -4.41728 -4.41727 v 4.41727 4.41728 h 4.41727 4.41728 v 4.0157 4.01571 h 4.0157 4.01571 v 4.0157 4.01571 h 4.41727 4.41728 v 4.41727 4.41728 h -4.41728 -4.41727 v 4.0157 4.01571 h -4.01571 -4.0157 v 4.41727 4.41728 h -8.43298 -8.43298 v 4.0157 4.01571 h -8.43298 -8.43298 v 4.41727 4.41728 h 4.41727 4.41728 v 4.01571 4.0157 h 4.0157 4.01571 v 8.43298 8.43298 h -4.01571 -4.0157 v 4.01571 4.0157 h -4.41728 -4.41727 v 4.41728 4.41727 h -4.01571 -4.0157 v 4.01571 4.0157 h -12.44869 -12.44868 v -4.0157 -4.01571 h -4.41728 -4.41727 v -4.41727 -4.41728 h -4.01571 -4.0157 v -4.0157 -4.01571 h -4.41728 -4.41727 v -4.41727 -4.41728 h -4.01571 -4.0157 v 4.41728 4.41727 h -8.43298 -8.43298 v 4.01571 4.0157 h -4.01571 -4.0157 v 20.88167 20.88166 h -4.417275 -4.417276 v 8.43298 8.43299 H 65.622479 40.72511 Z m -92.361211,-37.34605 v -4.01571 h -4.015705 -4.015704 v -4.41727 -4.41728 h -4.417276 -4.417275 v -4.0157 -4.01571 h -4.015705 -4.015705 v -8.43298 -8.43298 h 4.015705 4.015705 v -4.0157 -4.01571 h 4.417275 4.417276 v -4.41728 -4.41727 h 4.015704 4.015705 v -8.43298 -8.43298 h 4.417275 4.417276 v -4.01571 -4.0157 h -4.417276 -4.417275 v -8.43298 -8.43298 h -4.015705 -4.015704 v -4.01571 -4.0157 h -16.865961 -16.86596 v -4.41728 -4.41727 h -8.432979 -8.43298 V 86.594134 61.696763 h 8.43298 8.432979 v -4.417276 -4.417275 h 16.86596 16.865961 V 44.429231 35.99625 h 4.015704 4.015705 V 23.547565 11.098879 h -4.015705 -4.015704 V 2.6658985 -5.7670821 h -4.417276 -4.417275 v -4.015705 -4.0157049 h -4.015705 -4.015705 v -8.432981 -8.43298 h 4.015705 4.015705 v -4.015705 -4.015705 h 4.417275 4.417276 v -4.417276 -4.417276 h 4.015704 4.015705 v -4.015705 -4.015705 h 8.43298 8.43298 v 4.015705 4.015705 h -8.43298 -8.43298 v 4.417276 4.417276 h -4.015705 -4.015704 v 4.015705 4.015705 h -4.417276 -4.417275 v 8.43298 8.432981 h 4.417275 4.417276 v 4.0157049 4.015705 h 4.015704 4.015705 v 8.4329806 8.4329805 h 4.417275 4.417276 V 23.547565 35.99625 h -4.417276 -4.417275 v 8.432981 8.432981 h -4.015705 -4.015704 v 4.417275 4.417276 h -16.865961 -16.86596 v 4.015705 4.015705 h -4.015705 -4.015704 V 86.594134 103.4601 h 4.015704 4.015705 v 4.0157 4.01571 h 16.86596 16.865961 v 4.41727 4.41728 h 4.015704 4.015705 v 4.0157 4.01571 h 4.417275 4.417276 v 8.43298 8.43298 h 4.015705 4.015704 v 4.0157 4.01571 h -4.015704 -4.015705 v 8.43298 8.43298 h -4.417276 -4.417275 v 4.41727 4.41728 h -4.015705 -4.015704 v 4.01571 4.0157 h -4.417276 -4.417275 v 8.43298 8.43298 h 4.417275 4.417276 v 4.01571 4.0157 h 4.015704 4.015705 v 4.41728 4.41727 h 4.417275 4.417276 v 4.01571 4.0157 h -4.417276 -4.417275 z m 16.86596,0 v -4.01571 h 4.015705 4.015705 v -4.41727 -4.41728 h 4.417275 4.417276 v -4.0157 -4.01571 h 4.015704 4.0157051 v -4.41727 -4.41728 h 4.4172753 4.4172753 v 4.41728 4.41727 h -4.4172753 -4.4172753 v 4.01571 4.0157 h -4.0157051 -4.015704 v 4.41728 4.41727 h -4.417276 -4.417275 v 4.01571 4.0157 h -4.015705 -4.015705 z m 58.62929,-58.6293 v -4.0157 h 8.432981 8.43298 v 4.0157 4.01571 H 32.29213 23.859149 Z M 141.11773,140.80615 v -4.41727 h 4.0157 4.01571 v 4.41727 4.41728 h -4.01571 -4.0157 z M 90.519849,74.145448 v -4.417275 h 4.417276 4.417275 v 4.417275 4.417276 H 94.937125 90.519849 Z M 99.3544,-9.7827871 v -4.0157049 h 4.0157 4.01571 v 4.0157049 4.015705 H 103.3701 99.3544 Z M -17.90418,-26.247178 v -4.417275 H -5.4554956 6.9931893 v -4.015705 -4.015705 h 4.0157047 4.015705 v -25.298942 -25.298942 h 4.417275 4.417275 v -4.015705 -4.015705 h 33.33035 33.33035 v 24.897371 24.897371 H 86.504144 82.48844 V -68.412081 -89.293747 H 53.173795 23.859149 v 29.314647 29.314647 h -8.43298 -8.4329797 v 4.417275 4.417276 H -5.4554956 -17.90418 Z m 125.28999,0 v -4.417275 h -8.432981 -8.43298 v -4.015705 -4.015705 h 8.43298 8.432981 v 4.015705 4.015705 h 4.0157 4.01571 v -4.015705 -4.015705 h 4.41727 4.41728 v -4.417276 -4.417276 h 4.0157 4.01571 v 4.417276 4.417276 h -4.01571 -4.0157 v 4.015705 4.015705 h -4.41728 -4.41727 v 4.417275 4.417276 h -4.01571 -4.0157 z"
           id="path8" /></g></g><g
       id="g3"
       inkscape:label="close"><g
         id="rect2"
         style="display:inline;opacity:1"><path
           style="baseline-shift:baseline;display:inline;overflow:visible;fill:url(#radialGradient6);stroke-width:0.999943;stroke-linecap:round;stroke-linejoin:round;stroke-dasharray:none;paint-order:fill markers stroke;enable-background:accumulate;stop-color:#000000;stop-opacity:1"
           d="m 12.157973,10.53458 c 0.338152,-0.38837 0.739305,-0.7487459 1.339437,-0.7351148 l 20.454569,-0.00625 c 0.438471,0.018128 0.857835,0.1291867 1.090746,0.5075088 l 3.744764,5.66038 C 38.340053,15.24692 37.398702,15.209196 36.750151,15.258294 L 9.685108,15.280267 C 9.2028243,15.229657 8.4643186,15.39282 8.0287354,16.12235 Z"
           id="path4" /><path
           style="baseline-shift:baseline;display:inline;overflow:visible;opacity:1;vector-effect:none;fill:#ffffff;fill-opacity:0.557704;stroke-width:4.28768;stroke-linecap:round;stroke-linejoin:round;paint-order:fill markers stroke;enable-background:accumulate;stop-color:#000000;stop-opacity:1"
           d="M 180.16821,54.165873 74.970221,54.0257 74.044379,54.0333 c -3.779881,-0.07032 -4.307542,0.717614 -6.037399,2.345178 -0.04194,0.03657 -0.08206,0.0745 -0.120279,0.113706 l -17.482688,22.747321 0.05552,0.03027 c -0.04685,0.06101 -0.130131,0.05864 -0.175794,0.121274 -1.406901,2.022203 3.183533,4.1625 4.918487,2.319242 l 0.129535,-0.151583 c 0.0054,-0.0073 0.01307,-0.0078 0.01852,-0.01513 1.559221,-2.117642 4.093547,-2.48138 5.625465,-2.349686 0.07996,0.0061 0.160263,0.0087 0.240562,0.0078 l 128.210612,-0.0836 c 0.0587,-7.49e-4 0.11734,-0.0033 0.17579,-0.0078 1.40933,-0.0874 3.07579,-0.07719 4.45967,0.204672 1.38096,0.281241 2.38506,0.757967 3.0718,1.652362 0.002,0.0019 0.008,-0.0019 0.01,0 l 0.028,0.03803 c 1.67631,1.981356 5.34599,0.04723 3.83975,-2.023762 -0.0118,-0.01552 -0.0341,-0.01474 -0.0464,-0.03027 l 0.0185,-0.0078 -13.69986,-21.91275 c -1.64063,-2.182653 -4.61177,-2.783596 -7.01355,-2.864942 -0.0339,-6.19e-4 -0.0679,-0.0021 -0.10175,0 z m -0.0925,3.744346 c 1.75251,0.05934 2.75532,0.322764 3.32161,1.076305 0.0119,0.01785 0.0242,0.03553 0.0369,0.05305 l 9.15449,15.773624 C 191.36986,74.739468 61.216203,74.214465 61.216203,74.214465 l 0.240561,0.0078 c -0.207704,-0.01785 -0.492552,0.09741 -0.712444,0.09097 l 8.406368,-13.66699 c 1.473953,-1.386792 2.664481,-2.248729 4.570692,-2.213258 0.01851,1.84e-4 0.03701,1.84e-4 0.05552,0 z"
           id="path6"
           inkscape:label="white"
           sodipodi:nodetypes="cccccccccccccccsccccccccscccccccccccc"
           transform="matrix(0.18669584,0,0,0.18669584,0.00606022,0.13144937)" /><path
           style="baseline-shift:baseline;display:inline;overflow:visible;vector-effect:none;fill:#a0670c;stroke-linecap:round;stroke-linejoin:round;paint-order:fill markers stroke;enable-background:accumulate;stop-color:#000000;stop-opacity:1"
           d="m 33.951172,9.3105469 -20.453125,0.00586 0.0098,0.00195 c -0.797909,-0.01812 -1.347763,0.481002 -1.712925,0.9003931 a 0.48219022,0.48219022 0 0 0 -0.02539,0.0293 l -4.128906,5.587891 0.011719,0.0078 c -0.00989,0.01572 -0.02747,0.01511 -0.037109,0.03125 a 0.48219022,0.48219022 0 0 0 0.8007812,0.533203 l 0.027344,-0.03906 c 0.00114,-0.0019 0.00276,-0.002 0.00391,-0.0039 0.3291416,-0.545675 0.8641219,-0.639403 1.1875,-0.605468 a 0.48219022,0.48219022 0 0 0 0.050781,0.002 L 36.75,15.740234 a 0.48219022,0.48219022 0 0 0 0.03711,-0.002 c 0.297499,-0.02252 0.649281,-0.01989 0.941407,0.05274 0.291511,0.07247 0.503472,0.195313 0.648437,0.425781 3.05e-4,4.85e-4 0.0016,-4.87e-4 0.002,0 l 0.0059,0.0098 A 0.48219022,0.48219022 0 0 0 39.1954,15.705071 c -0.0025,-0.004 -0.0072,-0.0038 -0.0098,-0.0078 l 0.0039,-0.002 -3.736328,-5.646485 C 35.106845,9.4863593 34.479655,9.3315081 33.972656,9.3105469 a 0.48219022,0.48219022 0 0 0 -0.02148,0 z m -0.01953,0.9648441 c 0.369943,0.01529 0.581629,0.08317 0.701171,0.277343 a 0.48219022,0.48219022 0 0 0 0.0078,0.01367 l 2.816406,4.257813 c -0.257289,-0.019 -0.534822,-0.06272 -0.74414,-0.04687 l 0.03711,-0.002 -27.0644531,0.02344 0.050781,0.002 c -0.043843,-0.0046 -0.1039726,0.0251 -0.1503906,0.02344 l 2.9355467,-3.972656 c 0.311142,-0.357349 0.562455,-0.579453 0.964844,-0.570313 a 0.48219022,0.48219022 0 0 0 0.01172,0 z"
           id="path5" /><g
           id="g8"
           inkscape:label="glue"
           transform="matrix(1.8219176,0,0,1,-19.281962,0)"><path
             id="rect6"
             style="fill:#715b39;fill-opacity:1;stroke-width:0.999943;stroke-linecap:round;stroke-linejoin:round;paint-order:fill markers stroke"
             d="m 22.333687,9.2823772 h 2.36759 l 0.462049,6.2776468 h -3.4072 z"
             sodipodi:nodetypes="ccccc" /><path
             id="rect7"
             style="fill:#715b39;fill-opacity:0.547858;stroke-width:0.999943;stroke-linecap:round;stroke-linejoin:round;paint-order:fill markers stroke"
             d="m 21.756126,15.256006 h 3.4072 v 6.020941 l -0.324337,-0.393979 -0.324336,0.134077 -0.203127,-0.259903 -0.21295,0.09695 -0.21295,0.327972 -0.21295,-0.134077 -0.21295,0.09695 -0.21295,0.02475 -0.21295,-0.272279 -0.21295,0.231024 -0.21295,-0.47855 -0.21295,0.495052 -0.21295,-0.247526 -0.21295,0.396042 -0.21295,-0.148516 z"
             sodipodi:nodetypes="ccccccccccccccccccc" /><path
             id="path7"
             style="fill:url(#linearGradient8);stroke-width:0.999943;stroke-linecap:round;stroke-linejoin:round;paint-order:fill markers stroke"
             d="m 21.756126,15.129601 0.151933,-0.733547 h 3.145134 l 0.110133,0.731013 v 6.14988 l -0.324337,-0.393979 -0.324336,0.134077 -0.203127,-0.259903 -0.21295,0.09695 -0.21295,0.327972 -0.21295,-0.134077 -0.21295,0.09695 -0.21295,0.02475 -0.21295,-0.272279 -0.21295,0.231024 -0.21295,-0.47855 -0.21295,0.495052 -0.21295,-0.247526 -0.21295,0.396042 -0.21295,-0.148516 z"
             sodipodi:nodetypes="ccccccccccccccccccccc" /></g></g></g><text
       xml:space="preserve"
       style="font-size:11.1393px;font-family:'MxPlus IBM VGA 8x16';-inkscape-font-specification:'MxPlus IBM VGA 8x16';text-align:start;writing-mode:lr-tb;direction:ltr;text-anchor:start;display:inline;fill:#000000;fill-opacity:1;stroke:#872020;stroke-width:6.89426;stroke-linecap:round;stroke-linejoin:round;paint-order:fill markers stroke"
       x="12.510764"
       y="35.863934"
       id="text3"><tspan
         sodipodi:role="line"
         id="tspan3"
         x="12.510764"
         y="35.863934"
         style="font-style:normal;font-variant:normal;font-weight:bold;font-stretch:normal;font-size:11.1393px;font-family:'Liberation Sans';-inkscape-font-specification:'Liberation Sans Bold';fill:#000000;fill-opacity:1;stroke:none;stroke-width:6.89426">KTH</tspan></text><text
       xml:space="preserve"
       style="font-size:11.1393px;font-family:'MxPlus IBM VGA 8x16';-inkscape-font-specification:'MxPlus IBM VGA 8x16';text-align:start;writing-mode:lr-tb;direction:ltr;text-anchor:start;display:none;fill:#000000;fill-opacity:1;stroke:#872020;stroke-width:6.89426;stroke-linecap:round;stroke-linejoin:round;paint-order:fill markers stroke"
       x="13.050216"
       y="27.340591"
       id="text4"><tspan
         sodipodi:role="line"
         id="tspan4"
         x="0"
         y="0"
         style="font-style:normal;font-variant:normal;font-weight:bold;font-stretch:normal;font-size:11.1393px;font-family:'Liberation Sans';-inkscape-font-specification:'Liberation Sans Bold';fill:#000000;fill-opacity:1;stroke:none;stroke-width:6.89426">JAR</tspan></text></g></svg>
