<?xml version="1.0" encoding="UTF-8" standalone="no"?>
<!-- Created with Inkscape (http://www.inkscape.org/) -->

<svg
   width="256mm"
   height="256mm"
   id="svg1306"
   sodipodi:version="0.32"
   inkscape:version="1.4.2 (ebf0e940d0, 2025-05-08)"
   sodipodi:docname="application-x-font-linux-psf.svg"
   inkscape:output_extension="org.inkscape.output.svg.inkscape"
   version="1.1"
   viewBox="0 0 256 256"
   xmlns:inkscape="http://www.inkscape.org/namespaces/inkscape"
   xmlns:sodipodi="http://sodipodi.sourceforge.net/DTD/sodipodi-0.dtd"
   xmlns:xlink="http://www.w3.org/1999/xlink"
   xmlns="http://www.w3.org/2000/svg"
   xmlns:svg="http://www.w3.org/2000/svg"
   xmlns:rdf="http://www.w3.org/1999/02/22-rdf-syntax-ns#"
   xmlns:cc="http://creativecommons.org/ns#"
   xmlns:dc="http://purl.org/dc/elements/1.1/"
   xmlns:a="http://ns.adobe.com/AdobeSVGViewerExtensions/3.0/">
  <title
     id="title1">Fonts</title>
  <defs
     id="defs1308">
    <radialGradient
       inkscape:collect="always"
       xlink:href="#linearGradient5060"
       id="radialGradient6719"
       gradientUnits="userSpaceOnUse"
       gradientTransform="matrix(-2.774389,0,0,1.969706,112.7623,-872.8854)"
       cx="605.71429"
       cy="486.64789"
       fx="605.71429"
       fy="486.64789"
       r="117.14286" />
    <linearGradient
       inkscape:collect="always"
       id="linearGradient5060">
      <stop
         style="stop-color:black;stop-opacity:1;"
         offset="0"
         id="stop5062" />
      <stop
         style="stop-color:black;stop-opacity:0;"
         offset="1"
         id="stop5064" />
    </linearGradient>
    <radialGradient
       inkscape:collect="always"
       xlink:href="#linearGradient5060"
       id="radialGradient6717"
       gradientUnits="userSpaceOnUse"
       gradientTransform="matrix(2.774389,0,0,1.969706,-1891.633,-872.8854)"
       cx="605.71429"
       cy="486.64789"
       fx="605.71429"
       fy="486.64789"
       r="117.14286" />
    <linearGradient
       id="linearGradient5048">
      <stop
         style="stop-color:black;stop-opacity:0;"
         offset="0"
         id="stop5050" />
      <stop
         id="stop5056"
         offset="0.5"
         style="stop-color:black;stop-opacity:1;" />
      <stop
         style="stop-color:black;stop-opacity:0;"
         offset="1"
         id="stop5052" />
    </linearGradient>
    <linearGradient
       inkscape:collect="always"
       xlink:href="#linearGradient5048"
       id="linearGradient6715"
       gradientUnits="userSpaceOnUse"
       gradientTransform="matrix(2.774389,0,0,1.969706,-1892.179,-872.8854)"
       x1="302.85715"
       y1="366.64789"
       x2="302.85715"
       y2="609.50507" />
    <linearGradient
       inkscape:collect="always"
       id="linearGradient4767">
      <stop
         style="stop-color:#729fcf"
         offset="0"
         id="stop4769" />
      <stop
         style="stop-color:#3465a4"
         offset="1"
         id="stop4771" />
    </linearGradient>
    <linearGradient
       inkscape:collect="always"
       id="linearGradient4755">
      <stop
         style="stop-color:#eeeeec;stop-opacity:1;"
         offset="0"
         id="stop4757" />
      <stop
         style="stop-color:#ffffff;stop-opacity:1.0000000"
         offset="1"
         id="stop4759" />
    </linearGradient>
    <linearGradient
       inkscape:collect="always"
       xlink:href="#linearGradient4755"
       id="linearGradient4761"
       x1="36.668537"
       y1="36.383247"
       x2="10.303555"
       y2="7.4928832"
       gradientUnits="userSpaceOnUse" />
    <linearGradient
       inkscape:collect="always"
       xlink:href="#linearGradient4767"
       id="linearGradient4773"
       x1="18.561554"
       y1="12.998214"
       x2="30.935921"
       y2="33.681091"
       gradientUnits="userSpaceOnUse"
       gradientTransform="translate(-1,-1)" />
    <linearGradient
       id="XMLID_5_"
       gradientUnits="userSpaceOnUse"
       x1="8.5775995"
       y1="-130.9097"
       x2="68.091003"
       y2="97.714798">
					<stop
   offset="0"
   style="stop-color:#FFFFFF"
   id="stop13-9" />

					<stop
   offset="1"
   style="stop-color:#000000"
   id="stop14-1" />

					<a:midPointStop
   offset="0"
   style="stop-color:#FFFFFF" />

					<a:midPointStop
   offset="0.5"
   style="stop-color:#FFFFFF" />

					<a:midPointStop
   offset="1"
   style="stop-color:#000000" />

				</linearGradient>
  </defs>
  <sodipodi:namedview
     id="base"
     pagecolor="#ffffff"
     bordercolor="#666666"
     borderopacity="0.11372549"
     inkscape:pageopacity="0.0"
     inkscape:pageshadow="2"
     inkscape:zoom="0.61566056"
     inkscape:cx="401.1951"
     inkscape:cy="411.75287"
     inkscape:current-layer="svg1306"
     showgrid="false"
     inkscape:grid-bbox="true"
     inkscape:document-units="px"
     fill="#2e3436"
     stroke="#888a85"
     showguides="true"
     inkscape:guide-bbox="true"
     inkscape:window-width="872"
     inkscape:window-height="746"
     inkscape:window-x="357"
     inkscape:window-y="41"
     inkscape:showpageshadow="false"
     inkscape:pagecheckerboard="0"
     inkscape:deskcolor="#d1d1d1" />
  <metadata
     id="metadata1311">
    <rdf:RDF>
      <cc:Work
         rdf:about="">
        <dc:format>image/svg+xml</dc:format>
        <dc:type
           rdf:resource="http://purl.org/dc/dcmitype/StillImage" />
        <dc:creator>
          <cc:Agent>
            <dc:title>Andreas Nilsson</dc:title>
          </cc:Agent>
        </dc:creator>
        <dc:contributor>
          <cc:Agent>
            <dc:title>the oxygen guys
202507 Blackcrack : Mimetypes creating for tango!</dc:title>
          </cc:Agent>
        </dc:contributor>
        <cc:license
           rdf:resource="http://creativecommons.org/publicdomain/zero/1.0/" />
        <dc:source>http://tango-project.org</dc:source>
        <dc:subject>
          <rdf:Bag>
            <rdf:li>font</rdf:li>
            <rdf:li>type</rdf:li>
            <rdf:li>letter</rdf:li>
          </rdf:Bag>
        </dc:subject>
        <dc:description>https://commons.wikimedia.org/wiki/File:Font-x-generic.svg
202507 finaly many Mimetypes for Tango! from Blackcrack</dc:description>
        <dc:title>Fonts</dc:title>
      </cc:Work>
      <cc:License
         rdf:about="http://creativecommons.org/publicdomain/zero/1.0/">
        <cc:permits
           rdf:resource="http://creativecommons.org/ns#Reproduction" />
        <cc:permits
           rdf:resource="http://creativecommons.org/ns#Distribution" />
        <cc:permits
           rdf:resource="http://creativecommons.org/ns#DerivativeWorks" />
      </cc:License>
    </rdf:RDF>
  </metadata>
  <g
     id="g1"
     transform="matrix(5.0682813,0,0,5.0682813,6.0682403,4.5850225)">
    <g
       style="display:inline"
       transform="matrix(0.0247484,0,0,0.02086758,46.13711,41.50715)"
       id="g6707">
      <rect
         style="color:#000000;display:inline;overflow:visible;visibility:visible;opacity:0.402062;fill:url(#linearGradient6715);fill-opacity:1;fill-rule:nonzero;stroke:none;stroke-width:1;stroke-linecap:round;stroke-linejoin:miter;stroke-miterlimit:4;stroke-dasharray:none;stroke-dashoffset:0;stroke-opacity:1;marker:none;marker-start:none;marker-mid:none;marker-end:none"
         id="rect6709"
         width="1339.6335"
         height="478.35718"
         x="-1559.2523"
         y="-150.69685" />
      <path
         style="color:#000000;display:inline;overflow:visible;visibility:visible;opacity:0.402062;fill:url(#radialGradient6717);fill-opacity:1;fill-rule:nonzero;stroke:none;stroke-width:1;stroke-linecap:round;stroke-linejoin:miter;stroke-miterlimit:4;stroke-dasharray:none;stroke-dashoffset:0;stroke-opacity:1;marker:none;marker-start:none;marker-mid:none;marker-end:none"
         d="m -219.61876,-150.68038 c 0,0 0,478.33079 0,478.33079 142.874166,0.90045 345.40022,-107.16966 345.40014,-239.196175 0,-132.026537 -159.436816,-239.134595 -345.40014,-239.134615 z"
         id="path6711"
         sodipodi:nodetypes="cccc" />
      <path
         sodipodi:nodetypes="cccc"
         id="path6713"
         d="m -1559.2523,-150.68038 c 0,0 0,478.33079 0,478.33079 -142.8742,0.90045 -345.4002,-107.16966 -345.4002,-239.196175 0,-132.026537 159.4368,-239.134595 345.4002,-239.134615 z"
         style="color:#000000;display:inline;overflow:visible;visibility:visible;opacity:0.402062;fill:url(#radialGradient6719);fill-opacity:1;fill-rule:nonzero;stroke:none;stroke-width:1;stroke-linecap:round;stroke-linejoin:miter;stroke-miterlimit:4;stroke-dasharray:none;stroke-dashoffset:0;stroke-opacity:1;marker:none;marker-start:none;marker-mid:none;marker-end:none" />
    </g>
    <rect
       style="opacity:1;fill:url(#linearGradient4761);fill-opacity:1;stroke:#888a85;stroke-width:1.02493;stroke-linecap:round;stroke-linejoin:round;stroke-miterlimit:4;stroke-dasharray:none;stroke-dashoffset:0;stroke-opacity:1"
       id="rect1314"
       width="41.011471"
       height="42.98724"
       x="3.4883704"
       y="2.5121932"
       rx="0.99906075"
       ry="0.99914879" />
    <path
       style="font-style:italic;font-variant:normal;font-weight:normal;font-stretch:normal;font-size:46.6005px;line-height:125%;font-family:'Nimbus Roman No9 L';text-align:start;writing-mode:lr-tb;text-anchor:start;display:none;fill:url(#linearGradient4773);fill-opacity:1;stroke:none;stroke-width:1px;stroke-linecap:butt;stroke-linejoin:miter;stroke-opacity:1"
       d="m 39,39.008527 c -2.656226,-0.233002 -2.935832,-0.23081 -3.541638,-3.632643 L 31.077914,8.9999998 H 30.241301 L 16.352156,32.300251 c -3.681436,6.19786 -4.553697,6.335472 -6.417715,6.708276 v 1.120608 h 9.120544 v -1.120608 c -2.376623,-0.233002 -2.74943,-0.09101 -2.74943,-1.256017 0,-0.885409 0.139803,-1.304816 0.93201,-2.889232 l 2.656229,-4.703356 h 10.25211 l 0.93201,5.542165 c 0.0466,0.419405 0.0932,0.83881 0.0932,1.211613 0,1.770818 -0.24616,1.815224 -3.228589,2.094827 v 1.120608 H 39 V 39.008527 M 20.872404,27.919804 27.86248,15.803673 29.912902,27.919804 h -9.040498"
       id="text2044"
       sodipodi:nodetypes="cccccccccsccccscccccccc" />
    <path
       id="path4633"
       style="display:inline;opacity:1;fill:#888a85;fill-opacity:1;stroke:none;stroke-width:1;stroke-linecap:round;stroke-linejoin:round;stroke-miterlimit:4;stroke-dasharray:none;stroke-dashoffset:0;stroke-opacity:1"
       d="m 22.141332,14.677599 a 1.1048543,0.93912619 0 0 1 -1.10485,-0.939122 1.1048543,0.93912619 0 0 1 1.10485,-0.939122 1.1048543,0.93912619 0 0 1 1.104851,0.939122 1.1048543,0.93912619 0 0 1 -1.104851,0.939122 z M 17.721931,10.92111 a 1.1048543,0.93912619 0 0 1 -1.10485,-0.9391224 1.1048543,0.93912619 0 0 1 1.10485,-0.9391223 1.1048543,0.93912619 0 0 1 1.104851,0.9391223 1.1048543,0.93912619 0 0 1 -1.104851,0.9391224 z m 4.419401,0 a 1.1048543,0.93912619 0 0 1 -1.10485,-0.9391224 1.1048543,0.93912619 0 0 1 1.10485,-0.9391223 1.1048543,0.93912619 0 0 1 1.104851,0.9391223 1.1048543,0.93912619 0 0 1 -1.104851,0.9391224 z m 4.419402,0 a 1.1048543,0.93912619 0 0 1 -1.104851,-0.9391224 1.1048543,0.93912619 0 0 1 1.104851,-0.9391223 1.1048543,0.93912619 0 0 1 1.10485,0.9391223 1.1048543,0.93912619 0 0 1 -1.10485,0.9391224 z m 4.419401,0 a 1.1048543,0.93912619 0 0 1 -1.104851,-0.9391224 1.1048543,0.93912619 0 0 1 1.104851,-0.9391223 1.1048543,0.93912619 0 0 1 1.10485,0.9391223 1.1048543,0.93912619 0 0 1 -1.10485,0.9391224 z m 4.419401,0 a 1.1048543,0.93912619 0 0 1 -1.10485,-0.9391224 1.1048543,0.93912619 0 0 1 1.10485,-0.9391223 1.1048543,0.93912619 0 0 1 1.10485,0.9391223 1.1048543,0.93912619 0 0 1 -1.10485,0.9391224 z m 4.419401,0 a 1.1048543,0.93912619 0 0 1 -1.10485,-0.9391224 1.1048543,0.93912619 0 0 1 1.10485,-0.9391223 1.1048543,0.93912619 0 0 1 1.10485,0.9391223 1.1048543,0.93912619 0 0 1 -1.10485,0.9391224 z m 4.419401,0 a 1.1048543,0.93912619 0 0 1 -1.10485,-0.9391224 1.1048543,0.93912619 0 0 1 1.10485,-0.9391223 1.1048543,0.93912619 0 0 1 1.104851,0.9391223 1.1048543,0.93912619 0 0 1 -1.104851,0.9391224 z m 4.419401,0 a 1.1048543,0.93912619 0 0 1 -1.10485,-0.9391224 1.1048543,0.93912619 0 0 1 1.10485,-0.9391223 1.1048543,0.93912619 0 0 1 1.104851,0.9391223 1.1048543,0.93912619 0 0 1 -1.104851,0.9391224 z m 4.419402,0 a 1.1048543,0.93912619 0 0 1 -1.104851,-0.9391224 1.1048543,0.93912619 0 0 1 1.104851,-0.9391223 1.1048543,0.93912619 0 0 1 1.10485,0.9391223 1.1048543,0.93912619 0 0 1 -1.10485,0.9391224 z m 4.419401,0 a 1.1048543,0.93912619 0 0 1 -1.10485,-0.9391224 1.1048543,0.93912619 0 0 1 1.10485,-0.9391223 1.1048543,0.93912619 0 0 1 1.10485,0.9391223 1.1048543,0.93912619 0 0 1 -1.10485,0.9391224 z m 4.419401,0 a 1.1048543,0.93912619 0 0 1 -1.10485,-0.9391224 1.1048543,0.93912619 0 0 1 1.10485,-0.9391223 1.1048543,0.93912619 0 0 1 1.10485,0.9391223 1.1048543,0.93912619 0 0 1 -1.10485,0.9391224 z m 4.419401,0 a 1.1048543,0.93912619 0 0 1 -1.10485,-0.9391224 1.1048543,0.93912619 0 0 1 1.10485,-0.9391223 1.1048543,0.93912619 0 0 1 1.10485,0.9391223 1.1048543,0.93912619 0 0 1 -1.10485,0.9391224 z m 4.419401,0 a 1.1048543,0.93912619 0 0 1 -1.10485,-0.9391224 1.1048543,0.93912619 0 0 1 1.10485,-0.9391223 1.1048543,0.93912619 0 0 1 1.104851,0.9391223 1.1048543,0.93912619 0 0 1 -1.104851,0.9391224 z m 4.419402,0 a 1.1048543,0.93912619 0 0 1 -1.104851,-0.9391224 1.1048543,0.93912619 0 0 1 1.104851,-0.9391223 1.1048543,0.93912619 0 0 1 1.10485,0.9391223 1.1048543,0.93912619 0 0 1 -1.10485,0.9391224 z m 4.419401,0 a 1.1048543,0.93912619 0 0 1 -1.104851,-0.9391224 1.1048543,0.93912619 0 0 1 1.104851,-0.9391223 1.1048543,0.93912619 0 0 1 1.10485,0.9391223 1.1048543,0.93912619 0 0 1 -1.10485,0.9391224 z m 4.419401,0 a 1.1048543,0.93912619 0 0 1 -1.10485,-0.9391224 1.1048543,0.93912619 0 0 1 1.10485,-0.9391223 1.1048543,0.93912619 0 0 1 1.10485,0.9391223 1.1048543,0.93912619 0 0 1 -1.10485,0.9391224 z m 4.419401,0 A 1.1048543,0.93912619 0 0 1 87.3275,9.9819876 1.1048543,0.93912619 0 0 1 88.43235,9.0428653 1.1048543,0.93912619 0 0 1 89.5372,9.9819876 1.1048543,0.93912619 0 0 1 88.43235,10.92111 Z m 4.419401,0 a 1.1048543,0.93912619 0 0 1 -1.10485,-0.9391224 1.1048543,0.93912619 0 0 1 1.10485,-0.9391223 1.1048543,0.93912619 0 0 1 1.10485,0.9391223 1.1048543,0.93912619 0 0 1 -1.10485,0.9391224 z M 22.141332,7.1646206 a 1.1048543,0.93912619 0 0 1 -1.10485,-0.9391223 1.1048543,0.93912619 0 0 1 1.10485,-0.9391223 1.1048543,0.93912619 0 0 1 1.104851,0.9391223 1.1048543,0.93912619 0 0 1 -1.104851,0.9391223 z m 0,-3.7564893 a 1.1048543,0.93912619 0 0 1 -1.10485,-0.9391223 1.1048543,0.93912619 0 0 1 1.10485,-0.9391224 1.1048543,0.93912619 0 0 1 1.104851,0.9391224 1.1048543,0.93912619 0 0 1 -1.104851,0.9391223 z m 0,-3.75648934 a 1.1048543,0.93912619 0 0 1 -1.10485,-0.93912236 1.1048543,0.93912619 0 0 1 1.10485,-0.9391223 1.1048543,0.93912619 0 0 1 1.104851,0.9391223 1.1048543,0.93912619 0 0 1 -1.104851,0.93912236 z m 0,-3.75648936 a 1.1048543,0.93912619 0 0 1 -1.10485,-0.9391223 1.1048543,0.93912619 0 0 1 1.10485,-0.9391223 1.1048543,0.93912619 0 0 1 1.104851,0.9391223 1.1048543,0.93912619 0 0 1 -1.104851,0.9391223 z m 0,-3.7564893 a 1.1048543,0.93912619 0 0 1 -1.10485,-0.9391223 1.1048543,0.93912619 0 0 1 1.10485,-0.9391224 1.1048543,0.93912619 0 0 1 1.104851,0.9391224 1.1048543,0.93912619 0 0 1 -1.104851,0.9391223 z m 0,-3.7564893 a 1.1048543,0.93912619 0 0 1 -1.10485,-0.939122 1.1048543,0.93912619 0 0 1 1.10485,-0.939123 1.1048543,0.93912619 0 0 1 1.104851,0.939123 1.1048543,0.93912619 0 0 1 -1.104851,0.939122 z m 0,-3.756489 a 1.1048543,0.93912619 0 0 1 -1.10485,-0.939123 1.1048543,0.93912619 0 0 1 1.10485,-0.939122 1.1048543,0.93912619 0 0 1 1.104851,0.939122 1.1048543,0.93912619 0 0 1 -1.104851,0.939123 z m 0,-3.75649 a 1.1048543,0.93912619 0 0 1 -1.10485,-0.939122 1.1048543,0.93912619 0 0 1 1.10485,-0.939122 1.1048543,0.93912619 0 0 1 1.104851,0.939122 1.1048543,0.93912619 0 0 1 -1.104851,0.939122 z m 0,-3.756489 a 1.1048543,0.93912619 0 0 1 -1.10485,-0.939122 1.1048543,0.93912619 0 0 1 1.10485,-0.939123 1.1048543,0.93912619 0 0 1 1.104851,0.939123 1.1048543,0.93912619 0 0 1 -1.104851,0.939122 z m 0,-3.756489 a 1.1048543,0.93912619 0 0 1 -1.10485,-0.939123 1.1048543,0.93912619 0 0 1 1.10485,-0.939122 1.1048543,0.93912619 0 0 1 1.104851,0.939122 1.1048543,0.93912619 0 0 1 -1.104851,0.939123 z m 0,-3.75649 a 1.1048543,0.93912619 0 0 1 -1.10485,-0.939122 1.1048543,0.93912619 0 0 1 1.10485,-0.939122 1.1048543,0.93912619 0 0 1 1.104851,0.939122 1.1048543,0.93912619 0 0 1 -1.104851,0.939122 z m 0,-3.756489 a 1.1048543,0.93912619 0 0 1 -1.10485,-0.939122 1.1048543,0.93912619 0 0 1 1.10485,-0.939123 1.1048543,0.93912619 0 0 1 1.104851,0.939123 1.1048543,0.93912619 0 0 1 -1.104851,0.939122 z m 0,-3.756489 a 1.1048543,0.93912619 0 0 1 -1.10485,-0.939123 1.1048543,0.93912619 0 0 1 1.10485,-0.939122 1.1048543,0.93912619 0 0 1 1.104851,0.939122 1.1048543,0.93912619 0 0 1 -1.104851,0.939123 z m 0,-3.75649 a 1.1048543,0.93912619 0 0 1 -1.10485,-0.939122 1.1048543,0.93912619 0 0 1 1.10485,-0.939122 1.1048543,0.93912619 0 0 1 1.104851,0.939122 1.1048543,0.93912619 0 0 1 -1.104851,0.939122 z m 0,-3.756489 a 1.1048543,0.93912619 0 0 1 -1.10485,-0.939122 1.1048543,0.93912619 0 0 1 1.10485,-0.939123 1.1048543,0.93912619 0 0 1 1.104851,0.939123 1.1048543,0.93912619 0 0 1 -1.104851,0.939122 z m 0,-3.756489 a 1.1048543,0.93912619 0 0 1 -1.10485,-0.939123 1.1048543,0.93912619 0 0 1 1.10485,-0.939122 1.1048543,0.93912619 0 0 1 1.104851,0.939122 1.1048543,0.93912619 0 0 1 -1.104851,0.939123 z m 0,-3.75649 a 1.1048543,0.93912619 0 0 1 -1.10485,-0.939122 1.1048543,0.93912619 0 0 1 1.10485,-0.939122 1.1048543,0.93912619 0 0 1 1.104851,0.939122 1.1048543,0.93912619 0 0 1 -1.104851,0.939122 z"
       transform="matrix(0.45255,0,0,-0.532412,-2.52006,11.81453)" />
    <rect
       style="opacity:1;fill:none;fill-opacity:1;stroke:#ffffff;stroke-width:1.025;stroke-linecap:butt;stroke-linejoin:miter;stroke-miterlimit:4;stroke-dasharray:none;stroke-dashoffset:0;stroke-opacity:1"
       id="rect4753"
       width="39.013622"
       height="41.033813"
       x="4.4870877"
       y="3.5124998"
       rx="0.0000000"
       ry="0.0000000" />
  </g>
  <g
     id="g49"
     transform="matrix(1.8913391,0,0,1.8913391,22.194463,11.533704)">
    <circle
       style="fill:#000000;fill-opacity:1;fill-rule:evenodd;stroke-width:0.432927"
       id="path49"
       cx="57.741619"
       cy="60.181774"
       r="38.963776" />
    <path
       style="font-size:59.9418px;line-height:0.6;font-family:'MxPlus IBM VGA 9x16';-inkscape-font-specification:'MxPlus IBM VGA 9x16';letter-spacing:0.479535px;word-spacing:0px;fill:#ffffff;fill-rule:evenodd;stroke-width:0.375136"
       d="m 30.103071,71.67417 v -3.746363 h 3.746362 v -3.746362 h 3.746363 v -3.746363 h 3.746362 V 56.68872 H 37.595796 V 52.942358 H 33.849433 V 49.195995 H 30.103071 V 45.449633 H 26.356708 V 41.70327 h 7.492725 v 3.746363 h 3.746363 v 3.746362 h 3.746362 v 3.746363 h 3.746363 v 3.746362 h 3.746362 v 3.746362 h -3.746362 v 3.746363 h -3.746363 v 3.746362 h -3.746362 v 3.746363 h -3.746363 v 3.746362 H 26.356708 V 71.67417 Z m 26.704071,11.239087 v -3.746362 h 29.9709 v 3.746362 z"
       id="text49"
       aria-label="&gt;_" />
  </g>
</svg>
