<?xml version="1.0" encoding="UTF-8" standalone="no"?>
<!-- Created with Inkscape (http://www.inkscape.org/) -->

<svg
   width="256mm"
   height="256mm"
   viewBox="0 0 256 256"
   version="1.1"
   id="svg1"
   inkscape:version="1.3.2 (091e20ef0f, 2023-11-25)"
   xml:space="preserve"
   sodipodi:docname="application-x-wine-extension-unknown.svg"
   xmlns:inkscape="http://www.inkscape.org/namespaces/inkscape"
   xmlns:sodipodi="http://sodipodi.sourceforge.net/DTD/sodipodi-0.dtd"
   xmlns:xlink="http://www.w3.org/1999/xlink"
   xmlns="http://www.w3.org/2000/svg"
   xmlns:svg="http://www.w3.org/2000/svg"
   xmlns:rdf="http://www.w3.org/1999/02/22-rdf-syntax-ns#"
   xmlns:cc="http://creativecommons.org/ns#"
   xmlns:dc="http://purl.org/dc/elements/1.1/"><defs
     id="defs1"><linearGradient
       id="linearGradient1"
       inkscape:collect="always"><stop
         style="stop-color:#ffffff;stop-opacity:1;"
         offset="0"
         id="stop1" /><stop
         style="stop-color:#d2d2d2;stop-opacity:1;"
         offset="1"
         id="stop2" /></linearGradient><linearGradient
       inkscape:collect="always"
       xlink:href="#linearGradient1"
       id="linearGradient2"
       x1="86.910767"
       y1="76.225304"
       x2="217.36191"
       y2="242.69786"
       gradientUnits="userSpaceOnUse" /></defs><sodipodi:namedview
     id="base"
     pagecolor="#ffffff"
     bordercolor="#000000"
     borderopacity="0.3"
     inkscape:pageopacity="0.0"
     inkscape:pageshadow="2"
     inkscape:zoom="0.98994949"
     inkscape:cx="505.07627"
     inkscape:cy="476.792"
     inkscape:document-units="mm"
     inkscape:showpageshadow="2"
     inkscape:pagecheckerboard="0"
     inkscape:deskcolor="#d1d1d1"
     inkscape:current-layer="svg1"
     showguides="true"><sodipodi:guide
       position="159.5599,165.93016"
       orientation="0,-1"
       id="guide210"
       inkscape:locked="false" /><sodipodi:guide
       position="161.02989,133.32328"
       orientation="0,-1"
       id="guide211"
       inkscape:locked="false" /><sodipodi:guide
       position="155.01632,123.03341"
       orientation="0,-1"
       id="guide212"
       inkscape:locked="false" /><sodipodi:guide
       position="157.15448,89.624716"
       orientation="0,-1"
       id="guide213"
       inkscape:locked="false" /><sodipodi:guide
       position="125.48304,120.49435"
       orientation="1,0"
       id="guide214"
       inkscape:locked="false" /><sodipodi:guide
       position="134.06343,95.147504"
       orientation="0,-1"
       id="guide215"
       inkscape:locked="false" /><sodipodi:guide
       position="136.90881,162.9902"
       orientation="1,0"
       id="guide216"
       inkscape:locked="false" /><sodipodi:guide
       position="168.3798,143.34589"
       orientation="1,0"
       id="guide217"
       inkscape:locked="false" /><sodipodi:guide
       position="131.03962,119.62146"
       orientation="1,0"
       id="guide218"
       inkscape:locked="false" /><sodipodi:guide
       position="174.32655,134.25873"
       orientation="1,0"
       id="guide219"
       inkscape:locked="false" /></sodipodi:namedview><metadata
     id="metadata1"><rdf:RDF><cc:Work
         rdf:about=""><dc:format>image/svg+xml</dc:format><dc:type
           rdf:resource="http://purl.org/dc/dcmitype/StillImage" /><cc:license
           rdf:resource="http://creativecommons.org/publicdomain/zero/1.0/" /></cc:Work><cc:License
         rdf:about="http://creativecommons.org/publicdomain/zero/1.0/"><cc:permits
           rdf:resource="http://creativecommons.org/ns#Reproduction" /><cc:permits
           rdf:resource="http://creativecommons.org/ns#Distribution" /><cc:permits
           rdf:resource="http://creativecommons.org/ns#DerivativeWorks" /></cc:License></rdf:RDF></metadata><g
     id="g2"
     style="display:inline"
     transform="matrix(0.99219098,0,0,0.99219098,-0.00294705,1.0686325)"
     inkscape:label="body"><path
       id="rect2"
       style="fill:url(#linearGradient2);stroke-width:0.447;stroke-linecap:round;stroke-linejoin:round;stroke-opacity:0.923077"
       d="M 28.726189,2.6458333 H 178.97172 L 228.67559,53.672619 V 253.24405 H 28.726189 Z"
       sodipodi:nodetypes="cccccc"
       inkscape:label="bg" /><path
       id="rect3"
       style="fill:#c0c0c0;stroke-width:0.447;stroke-linecap:round;stroke-linejoin:round;stroke-opacity:0.923077"
       d="M 30.521576,240.67635 H 216.43698 l -0.0402,-190.983269 8.71287,-0.0041 0.0231,199.775229 -194.611164,0.28349 z"
       sodipodi:nodetypes="ccccccc" /><path
       id="rect1"
       style="fill:#808080;stroke-width:0.447;stroke-linecap:round;stroke-linejoin:round;stroke-opacity:0.923077"
       d="M 23.786989,0 H 184.08188 V 8.0849037 H 31.604623 l 0.0167,242.3967563 -7.734112,-0.0167 z"
       sodipodi:nodetypes="ccccccc" /><path
       id="rect4"
       style="stroke-width:0.447;stroke-linecap:round;stroke-linejoin:round;stroke-opacity:0.923077"
       d="m 224.04538,48.097473 h 8.26823 V 256.55134 H 23.918757 l -0.02913,-8.0682 200.155753,-0.0167 z"
       sodipodi:nodetypes="ccccccc" /></g><g
     id="g5"
     inkscape:label="corner"
     style="display:inline"><rect
       style="opacity:1;fill:#fefefe;fill-opacity:1;stroke:none;stroke-width:0.447;stroke-linecap:round;stroke-linejoin:round;stroke-opacity:0.923077"
       id="rect16"
       width="16.036171"
       height="15.902536"
       x="182.67873"
       y="32.807335"
       inkscape:label="white" /><path
       id="rect6"
       style="opacity:1;fill:#808080;fill-opacity:1;stroke:none;stroke-width:0.447;stroke-linecap:round;stroke-linejoin:round;stroke-opacity:0.923077"
       inkscape:label="gray"
       d="M 174.86116,1.0691854 V 56.861646 h 7.95145 V 24.956099 h 7.61711 v 7.951453 h 8.08478 v 8.018115 h 8.01811 v 7.617106 h 8.35195 v -8.084777 h -8.01812 v -7.617107 h -8.08477 v -8.018115 h -8.15145 v -7.951452 h -7.81761 V 1.0691854 Z" /><path
       id="rect14"
       style="opacity:1;fill:#c0c0c0;fill-opacity:1;stroke:none;stroke-width:0.447;stroke-linecap:round;stroke-linejoin:round;stroke-opacity:0.923077"
       d="m 182.62865,24.914758 v 7.917863 h 7.82381 v 7.792806 h 8.04292 v 7.806759 h 7.91786 v -7.917863 h -7.90959 v -7.806759 h -7.95714 v -7.792806 z"
       inkscape:label="lgray" /><path
       id="rect5"
       style="opacity:1;fill:#000000;fill-opacity:1;stroke:none;stroke-width:0.447;stroke-linecap:round;stroke-linejoin:round;stroke-opacity:0.923077"
       d="m 182.41316,9.1736003 v 7.9607547 h 8.11836 v 7.81761 h 8.10132 v 7.817611 h 7.6972 v 7.872388 h 8.05377 v 7.733895 h -32.03898 v 8.351945 h 48.04162 v -8.351945 h -7.56698 v -7.817611 h -8.00674 v -7.877555 h -7.69721 v -7.871871 h -8.10183 v -7.817611 h -8.11837 V 9.1736003 Z"
       inkscape:label="black"
       sodipodi:nodetypes="ccccccccccccccccccccccccc" /></g><g
     id="g208"
     style="display:inline"><path
       id="rect204"
       style="fill:#ea0000;fill-opacity:1;stroke:none;stroke-width:2.042;stroke-linecap:round;stroke-linejoin:round;stroke-opacity:1"
       d="m 125.29933,89.391443 v 35.907887 h 22.86734 V 89.391443 Z M 50.766779,111.33776 v 11.26826 h 6.047545 v -11.26826 z m 42.845137,0.16499 v 16.06077 l 6.191885,0.20045 0.04468,-4.54358 h 10.512889 v -17.26348 h -5.85781 l 0.15578,5.54584 z m -15.843389,5.10305 v 16.44183 l 5.327139,0.0472 0.22446,-5.33891 h 5.5516 v -16.30009 l -5.657868,-0.0472 0.106268,5.19717 z m -16.383534,5.4345 v 11.04663 l 6.215968,-0.0334 0.03536,-5.41221 h 5.115433 v -11.04663 h -5.614612 l 0.06487,5.44562 z"
       inkscape:label="red"
       sodipodi:nodetypes="ccccccccccccccccccccccccccccccccccccc" /><path
       id="path208"
       style="fill:#0011ea;fill-opacity:1;stroke:none;stroke-width:2.042;stroke-linecap:round;stroke-linejoin:round;stroke-opacity:1"
       d="m 125.29933,132.68911 v 35.90788 h 22.86734 v -35.90788 z m -74.532551,21.94631 v 11.26826 h 6.047545 v -11.26826 z m 42.845137,0.16499 v 16.06077 l 6.191885,0.20045 0.04468,-4.54358 h 10.512889 v -17.26348 h -5.85781 l 0.15578,5.54584 z m -15.843389,5.10305 v 16.44183 l 5.327139,0.0472 0.22446,-5.33891 h 5.5516 v -16.30009 l -5.657868,-0.0472 0.106268,5.19717 z m -16.383534,5.4345 v 11.04663 l 6.215968,-0.0334 0.03536,-5.41221 h 5.115433 v -11.04663 h -5.614612 l 0.06487,5.44562 z"
       inkscape:label="blue"
       sodipodi:nodetypes="ccccccccccccccccccccccccccccccccccccc" /><path
       d="m 157.89748,89.3995 v 35.90789 h 22.86734 V 89.3995 Z"
       style="fill:#00ff00;fill-opacity:1;stroke:none;stroke-width:2.042;stroke-linecap:round;stroke-linejoin:round;stroke-opacity:1"
       id="path1"
       inkscape:label="green" /><path
       d="m 157.89748,132.56353 v 35.90789 h 22.86734 v -35.90789 z"
       style="fill:#ffff00;fill-opacity:1;stroke:none;stroke-width:2.042;stroke-linecap:round;stroke-linejoin:round;stroke-opacity:1"
       id="path209"
       inkscape:label="yellow" /><path
       id="rect215"
       style="fill-opacity:0.466834;stroke-width:2.042;stroke-linecap:round;stroke-linejoin:round"
       d="m 130.97992,90.052826 h 5.95313 v 5.622396 h -5.95313 z m 37.42028,0.02363 h 5.95313 v 5.622396 h -5.95313 z m -37.397,26.978054 h 5.95313 v 5.6224 h -5.95313 z m 37.3761,-0.002 h 5.95313 v 5.62239 h -5.95313 z m -37.52867,15.95281 h 5.95313 v 5.62239 h -5.95313 z m 37.51623,-0.0559 h 5.95313 v 5.62241 h -5.95313 z m -37.42174,27.8798 h 5.95313 v 5.6224 h -5.95313 z m 37.45424,1e-5 h 5.95313 v 5.6224 h -5.95313 z"
       sodipodi:nodetypes="cccccccccccccccccccccccccccccccccccccccc"
       inkscape:label="blacklight" /><path
       id="rect209"
       style="display:inline;fill:#000000;fill-opacity:1;stroke-width:2.042;stroke-linecap:round;stroke-linejoin:round"
       inkscape:label="black"
       d="m 131.64674,74.033724 -0.18345,5.078243 -10.5823,-0.06718 0.10852,5.545914 h -5.92987 V 187.35601 h 10.57197 l 0.61133,-5.95313 10.53321,-0.37775 0.23357,-5.19762 h 32.07763 l 0.0904,5.28753 11.04842,0.47698 0.0904,5.68802 11.04842,0.076 V 84.590702 h -6.06371 l -0.58446,-5.078243 -10.34045,-0.133325 -0.18345,-5.078243 z m -27.05002,10.332703 0.15554,5.545914 H 93.704875 v 16.060519 l 6.19187,0.2005 0.04496,-4.54339 H 110.45476 V 84.366427 Z m -53.736775,5.381066 v 11.268047 h 6.047693 V 89.747493 Z m 32.447115,0.0708 0.106453,5.197099 h -5.551599 v 16.441888 l 5.326807,0.047 0.224792,-5.3387 h 5.551599 V 89.865316 Z m 47.83842,0.251664 17.05529,0.03307 -0.14159,26.827303 -11.15591,0.11834 -0.017,5.61619 -11.41998,0.062 0.0171,-27.094474 h 5.57898 z m 27.21178,0 15.906,0.03359 0.004,5.614128 6.54069,-0.03514 V 122.6597 l -12.41889,5.1e-4 0.0465,-5.5795 -10.07793,0.11834 z m -91.126738,4.934066 0.0646,5.445657 h -5.817216 v 11.04687 l 6.216158,-0.0336 0.03566,-5.41207 h 5.11545 V 95.00402 Z m 37.366198,32.073487 0.15554,5.54592 H 93.704875 v 16.06103 l 6.19187,0.20051 0.04496,-4.54391 h 10.513055 v -17.26355 z m -53.736775,5.38107 v 11.26805 h 6.047693 v -11.26805 z m 32.447115,0.0708 0.106453,5.1971 h -5.551599 v 16.44189 l 5.326807,0.047 0.224792,-5.33869 h 5.551599 v -16.3003 z m 75.45121,0.43718 15.4683,0.0165 0.0667,5.66322 6.41408,-0.0672 -0.1602,27.8629 H 168.4724 l -0.004,-5.60483 -9.71,-0.0501 z m -10.95851,0.0171 v 27.9368 h -10.78383 l -0.19999,5.38778 -11.4825,0.0672 0.016,-27.79623 h 5.6901 v -5.56194 z m -80.569238,4.73201 0.0646,5.44567 h -5.817216 v 11.04635 l 6.216158,-0.0331 0.03566,-5.41259 h 5.11545 v -11.04636 z m 37.366198,32.45125 0.15554,5.54592 H 93.704875 v 16.06103 l 6.19187,0.19999 0.04496,-4.54339 h 10.513055 v -17.26355 z m -53.736775,5.38107 v 11.26805 h 6.047693 v -11.26805 z m 32.447115,0.0708 0.106453,5.1971 h -5.551599 v 16.44189 l 5.326807,0.047 0.224792,-5.33869 h 5.551599 v -16.3003 z m -16.076538,5.18624 0.0646,5.44567 h -5.817221 v 11.0463 l 6.216158,-0.0336 0.03566,-5.41207 h 5.11545 v -11.04636 z" /></g></svg>
