<?xml version="1.0" encoding="UTF-8" standalone="no"?>
<svg
   height="256mm"
   width="256mm"
   version="1.1"
   id="svg19"
   sodipodi:docname="application-x-bzpdf.svg"
   viewBox="0 0 256 256"
   inkscape:version="1.4.2 (ebf0e940d0, 2025-05-08)"
   xml:space="preserve"
   xmlns:inkscape="http://www.inkscape.org/namespaces/inkscape"
   xmlns:sodipodi="http://sodipodi.sourceforge.net/DTD/sodipodi-0.dtd"
   xmlns:xlink="http://www.w3.org/1999/xlink"
   xmlns="http://www.w3.org/2000/svg"
   xmlns:svg="http://www.w3.org/2000/svg"
   xmlns:rdf="http://www.w3.org/1999/02/22-rdf-syntax-ns#"
   xmlns:cc="http://creativecommons.org/ns#"
   xmlns:dc="http://purl.org/dc/elements/1.1/"><title
     id="title1">Textfile File</title><sodipodi:namedview
     id="namedview19"
     pagecolor="#ffffff"
     bordercolor="#000000"
     borderopacity="0.25"
     inkscape:showpageshadow="2"
     inkscape:pageopacity="0.0"
     inkscape:pagecheckerboard="0"
     inkscape:deskcolor="#d1d1d1"
     inkscape:zoom="0.32380003"
     inkscape:cx="802.96471"
     inkscape:cy="705.68244"
     inkscape:current-layer="svg19"
     inkscape:document-units="mm" /><defs
     id="defs10"><radialGradient
       id="b"
       gradientUnits="userSpaceOnUse"
       cy="42.099998"
       cx="24.309999"
       gradientTransform="matrix(1.076,0,0,0.285,-6.9499999,28.65)"
       r="15.82"><stop
         offset="0"
         id="stop1" /><stop
         stop-opacity="0"
         offset="1"
         id="stop2" /></radialGradient><radialGradient
       id="f"
       gradientUnits="userSpaceOnUse"
       cy="35.740002"
       cx="33.970001"
       gradientTransform="matrix(0.961,0,0,1.041,-5.0999999,-2.1500001)"
       r="86.699997"><stop
         stop-color="#fafafa"
         offset="0"
         id="stop3"
         style="stop-color:#ff0606;stop-opacity:1;" /><stop
         stop-color="#bbb"
         offset="1"
         id="stop4" /></radialGradient><radialGradient
       id="g"
       gradientUnits="userSpaceOnUse"
       cy="3.76"
       cx="8.8199997"
       gradientTransform="matrix(0.968,0,0,1.033,-1.7499999,-1.5000001)"
       r="37.75"><stop
         stop-color="#a3a3a3"
         offset="0"
         id="stop5" /><stop
         stop-color="#4c4c4c"
         offset="1"
         id="stop6" /></radialGradient><radialGradient
       id="e"
       gradientUnits="userSpaceOnUse"
       cy="7.27"
       cx="8.1400003"
       gradientTransform="matrix(0.968,0,0,1.033,-1.7499999,-1.5000001)"
       r="38.200001"><stop
         stop-color="#fff"
         offset="0"
         id="stop7" /><stop
         stop-color="#f8f8f8"
         offset="1"
         id="stop8" /></radialGradient><radialGradient
       id="c"
       gradientUnits="userSpaceOnUse"
       cy="18.82"
       cx="10.1"
       r="1.21"><stop
         stop-color="#f0f0f0"
         offset="0"
         id="stop9" /><stop
         stop-color="#9a9a9a"
         offset="1"
         id="stop10" /></radialGradient><radialGradient
       inkscape:collect="always"
       xlink:href="#c"
       id="radialGradient2"
       gradientUnits="userSpaceOnUse"
       cx="10.1"
       cy="18.82"
       r="1.21" /><linearGradient
       id="swatch1"
       inkscape:swatch="solid"><stop
         style="stop-color:#ff0707;stop-opacity:1;"
         offset="0"
         id="stop1-21" /></linearGradient><linearGradient
       id="linearGradient7648"
       gradientUnits="userSpaceOnUse"
       x1="21.9326"
       y1="24.627399"
       x2="21.9326"
       y2="7.1090999"
       style="stroke-width:1.21667;stroke-miterlimit:4;stroke-dasharray:none"><stop
         offset="0"
         style="stop-color:#8595bc;stop-opacity:1;"
         id="stop7650" /><stop
         offset="1"
         style="stop-color:#041a3b;stop-opacity:1;"
         id="stop7652" /></linearGradient><linearGradient
       id="linearGradient7"
       inkscape:collect="always"><stop
         style="stop-color:#565656;stop-opacity:0;"
         offset="0"
         id="stop7-3" /><stop
         style="stop-color:#151515;stop-opacity:0.55101621;"
         offset="0.09685892"
         id="stop11" /><stop
         style="stop-color:#000000;stop-opacity:0.43376997;"
         offset="0.24463946"
         id="stop12" /><stop
         style="stop-color:#000000;stop-opacity:0.22523594;"
         offset="0.58946073"
         id="stop9-6" /><stop
         style="stop-color:#2b2b2b;stop-opacity:0;"
         offset="0.80921131"
         id="stop10-7" /><stop
         style="stop-color:#666666;stop-opacity:0;"
         offset="1"
         id="stop8-5" /></linearGradient><linearGradient
       id="linearGradient5"
       inkscape:collect="always"><stop
         style="stop-color:#b97a1b;stop-opacity:1"
         offset="0"
         id="stop5-3" /><stop
         style="stop-color:#eaba6f;stop-opacity:1"
         offset="1"
         id="stop6-5" /></linearGradient><radialGradient
       inkscape:collect="always"
       xlink:href="#linearGradient5060"
       id="radialGradient6719"
       gradientUnits="userSpaceOnUse"
       gradientTransform="matrix(-2.774389,0,0,1.969706,112.7623,-872.8854)"
       cx="605.71429"
       cy="486.64789"
       fx="605.71429"
       fy="486.64789"
       r="117.14286" /><linearGradient
       inkscape:collect="always"
       id="linearGradient5060"><stop
         style="stop-color:black;stop-opacity:1;"
         offset="0"
         id="stop5062" /><stop
         style="stop-color:black;stop-opacity:0;"
         offset="1"
         id="stop5064" /></linearGradient><radialGradient
       inkscape:collect="always"
       xlink:href="#linearGradient5060"
       id="radialGradient6717"
       gradientUnits="userSpaceOnUse"
       gradientTransform="matrix(2.774389,0,0,1.969706,-1891.633,-872.8854)"
       cx="605.71429"
       cy="486.64789"
       fx="605.71429"
       fy="486.64789"
       r="117.14286" /><linearGradient
       id="linearGradient5048"><stop
         style="stop-color:black;stop-opacity:0;"
         offset="0"
         id="stop5050" /><stop
         id="stop5056"
         offset="0.5"
         style="stop-color:black;stop-opacity:1;" /><stop
         style="stop-color:black;stop-opacity:0;"
         offset="1"
         id="stop5052" /></linearGradient><linearGradient
       inkscape:collect="always"
       xlink:href="#linearGradient5048"
       id="linearGradient6715"
       gradientUnits="userSpaceOnUse"
       gradientTransform="matrix(2.774389,0,0,1.969706,-1892.179,-872.8854)"
       x1="302.85715"
       y1="366.64789"
       x2="302.85715"
       y2="609.50507" /><linearGradient
       id="linearGradient2869"><stop
         style="stop-color:#ffffff;stop-opacity:1;"
         offset="0"
         id="stop2871" /><stop
         style="stop-color:#cccccc;stop-opacity:1.0000000;"
         offset="1.0000000"
         id="stop2873" /></linearGradient><linearGradient
       id="linearGradient4995"><stop
         id="stop4997"
         offset="0"
         style="stop-color:#de9523;stop-opacity:1;" /><stop
         id="stop4999"
         offset="1.0000000"
         style="stop-color:#a36d18;stop-opacity:1.0000000;" /></linearGradient><linearGradient
       id="linearGradient4987"
       inkscape:collect="always"><stop
         id="stop4989"
         offset="0"
         style="stop-color:#a0670c;stop-opacity:1;" /><stop
         id="stop4991"
         offset="1"
         style="stop-color:#a0670c;stop-opacity:0;" /></linearGradient><linearGradient
       id="linearGradient4979"><stop
         id="stop4981"
         offset="0.0000000"
         style="stop-color:#fbf0e0;stop-opacity:1.0000000;" /><stop
         id="stop4983"
         offset="1.0000000"
         style="stop-color:#f0ce99;stop-opacity:1.0000000;" /></linearGradient><linearGradient
       id="linearGradient4222"><stop
         id="stop4224"
         offset="0"
         style="stop-color:#ffffff;stop-opacity:1;" /><stop
         id="stop4226"
         offset="1.0000000"
         style="stop-color:#ffffff;stop-opacity:0.68639052;" /></linearGradient><linearGradient
       id="linearGradient4210"><stop
         id="stop4212"
         offset="0.0000000"
         style="stop-color:#eaba6f;stop-opacity:1.0000000;" /><stop
         id="stop4214"
         offset="1.0000000"
         style="stop-color:#b97a1b;stop-opacity:1.0000000;" /></linearGradient><linearGradient
       id="linearGradient4192"><stop
         id="stop4194"
         offset="0"
         style="stop-color:#e9b96e;stop-opacity:1;" /><stop
         id="stop4196"
         offset="1.0000000"
         style="stop-color:#f1d19e;stop-opacity:1.0000000;" /></linearGradient><linearGradient
       id="linearGradient4182"><stop
         id="stop4184"
         offset="0.0000000"
         style="stop-color:#a36d18;stop-opacity:1.0000000;" /><stop
         id="stop4186"
         offset="1.0000000"
         style="stop-color:#d79020;stop-opacity:1.0000000;" /></linearGradient><linearGradient
       inkscape:collect="always"
       xlink:href="#linearGradient4979"
       id="linearGradient2269"
       gradientUnits="userSpaceOnUse"
       x1="30.062469"
       y1="13.444801"
       x2="17.696169"
       y2="12.333632" /><linearGradient
       inkscape:collect="always"
       xlink:href="#linearGradient4995"
       id="linearGradient2274"
       gradientUnits="userSpaceOnUse"
       x1="36.288929"
       y1="14.661557"
       x2="47.065834"
       y2="15.267649" /><linearGradient
       inkscape:collect="always"
       xlink:href="#linearGradient4192"
       id="linearGradient2277"
       gradientUnits="userSpaceOnUse"
       gradientTransform="matrix(1,0,0,0.986355,0,0.316638)"
       x1="25.381256"
       y1="24.720648"
       x2="24.119167"
       y2="16.17037" /><linearGradient
       inkscape:collect="always"
       xlink:href="#linearGradient4182"
       id="linearGradient2280"
       gradientUnits="userSpaceOnUse"
       gradientTransform="matrix(1,0,0,1.039184,0,-0.04057054)"
       x1="16.148972"
       y1="12.636667"
       x2="34.193642"
       y2="12.636667" /><linearGradient
       inkscape:collect="always"
       xlink:href="#linearGradient4987"
       id="linearGradient2282"
       gradientUnits="userSpaceOnUse"
       x1="21.906841"
       y1="9.7577486"
       x2="22.071806"
       y2="16.020695" /><linearGradient
       inkscape:collect="always"
       xlink:href="#linearGradient4222"
       id="linearGradient2285"
       gradientUnits="userSpaceOnUse"
       x1="18.706615"
       y1="19.912336"
       x2="30.014812"
       y2="47.388485" /><linearGradient
       inkscape:collect="always"
       xlink:href="#linearGradient4210"
       id="linearGradient2288"
       gradientUnits="userSpaceOnUse"
       x1="24.990499"
       y1="34.004856"
       x2="24.990499"
       y2="22.585211" /><radialGradient
       inkscape:collect="always"
       xlink:href="#linearGradient5060"
       id="radialGradient2896"
       gradientUnits="userSpaceOnUse"
       gradientTransform="matrix(1.353283,0,0,0.635968,-8.45889,3.41347)"
       cx="23.94367"
       cy="20.800287"
       fx="23.94367"
       fy="20.800287"
       r="6.4286141" /><radialGradient
       inkscape:collect="always"
       xlink:href="#linearGradient2869"
       id="radialGradient2898"
       gradientUnits="userSpaceOnUse"
       gradientTransform="matrix(0.74942,0,0,0.394055,6.226925,10.09253)"
       cx="21.578989"
       cy="9.0255041"
       fx="21.578989"
       fy="9.0255041"
       r="9.586297" /><radialGradient
       inkscape:collect="always"
       xlink:href="#linearGradient5060"
       id="radialGradient2906"
       gradientUnits="userSpaceOnUse"
       gradientTransform="matrix(1.353283,0,0,0.635968,-8.45889,3.41347)"
       cx="23.94367"
       cy="20.800287"
       fx="23.94367"
       fy="20.800287"
       r="6.4286141" /><radialGradient
       inkscape:collect="always"
       xlink:href="#linearGradient2869"
       id="radialGradient2908"
       gradientUnits="userSpaceOnUse"
       gradientTransform="matrix(0.74942,0,0,0.394055,6.226925,10.09253)"
       cx="21.578989"
       cy="9.8105707"
       fx="21.578989"
       fy="9.8105707"
       r="9.586297" /><radialGradient
       inkscape:collect="always"
       xlink:href="#linearGradient5"
       id="radialGradient6"
       cx="35.309971"
       cy="19.082172"
       fx="35.309971"
       fy="19.082172"
       r="15.379377"
       gradientTransform="matrix(0.94811731,0.09422878,-0.07887936,0.79367356,3.3371659,-4.2542517)"
       gradientUnits="userSpaceOnUse" /><linearGradient
       inkscape:collect="always"
       xlink:href="#linearGradient7"
       id="linearGradient8"
       x1="23.564743"
       y1="14.577733"
       x2="23.564743"
       y2="21.833618"
       gradientUnits="userSpaceOnUse" /><radialGradient
       inkscape:collect="always"
       xlink:href="#c"
       id="radialGradient4"
       gradientUnits="userSpaceOnUse"
       cx="10.1"
       cy="18.82"
       r="1.21" /></defs><g
     id="g31"
     transform="matrix(5.4987246,0,0,5.4987246,20.583851,7.1467567)"><g
       id="g3"><ellipse
         opacity="0.8"
         rx="17"
         ry="4.5"
         cy="40.649998"
         cx="19.199999"
         fill="url(#b)"
         id="ellipse10"
         style="fill:url(#b)" /><rect
         rx="1.2"
         height="41"
         width="34.880001"
         stroke="url(#g)"
         y="1.5"
         x="1.5"
         fill="url(#f)"
         id="rect10"
         style="fill:url(#f);stroke:url(#g)" /><rect
         rx="0.2"
         height="39"
         width="32.779999"
         stroke="url(#e)"
         y="2.4299998"
         x="2.5599999"
         fill="none"
         id="rect11"
         style="stroke:url(#e)" /><g
         fill="none"
         id="g12"
         transform="translate(-5.0999999,-2.1500001)"><path
           stroke="#000000"
           d="M 11.5,5.4 V 43.3"
           stroke-opacity="0.02"
           id="path11" /><path
           stroke="#ffffff"
           d="M 12.5,5 V 43"
           stroke-opacity="0.2"
           id="path12" /></g><g
         id="g2"
         style="display:inline"><g
           id="d"
           transform="translate(-5.0999999,-2.1500001)"><circle
             cy="18.690001"
             cx="10.17"
             r="0.81999999"
             fill="#ffffff"
             id="circle18" /><circle
             cy="18.43"
             cx="9.8199997"
             r="0.81999999"
             fill="url(#c)"
             id="circle19"
             style="fill:url(#radialGradient4)" /></g><g
           id="use19"
           transform="translate(-5.0999999,9.3499999)"><circle
             cy="18.690001"
             cx="10.17"
             r="0.81999999"
             fill="#ffffff"
             id="circle1" /><circle
             cy="18.43"
             cx="9.8199997"
             r="0.81999999"
             fill="url(#c)"
             id="circle2"
             style="fill:url(#radialGradient2)" /></g></g></g><g
       fill-opacity="0.55"
       fill="#9b9b9b"
       id="g18"
       transform="translate(-5.0999999,-2.1500001)"
       style="display:none"><g
         id="a"><rect
           rx="0.2"
           height="1"
           width="20"
           y="9"
           x="16"
           id="rect12" /><rect
           rx="0.2"
           height="1"
           width="20"
           y="11"
           x="16"
           id="rect13" /><rect
           rx="0.2"
           height="1"
           width="20"
           y="13"
           x="16"
           id="rect14" /><rect
           rx="0.2"
           height="1"
           width="20"
           y="15"
           x="16"
           id="rect15" /></g><rect
         rx="0.2"
         height="1"
         width="9"
         y="25"
         x="16"
         id="rect16" /><rect
         rx="0.2"
         height="1"
         width="14"
         y="37"
         x="16"
         id="rect17" /><use
         y="8"
         xlink:href="#a"
         id="use17" /><use
         y="20"
         xlink:href="#a"
         id="use18" /></g></g><g
     id="g1"
     transform="matrix(0.89397519,0,0,0.89397519,18.850414,22.267119)"><g
       id="g3-7"
       transform="matrix(1.6268735,0,0,1.6268735,55.539421,10.789743)"
       style="clip-rule:nonzero;display:inline;fill:#d51d1d;fill-opacity:1;fill-rule:nonzero;stroke:#000000;stroke-width:0.68971;stroke-miterlimit:4;stroke-dasharray:none;stroke-opacity:0.357798"><path
         d="M 5.996094,0 H 0 v 14.339843 z m 0,0"
         id="path1"
         style="fill:#d51d1d;fill-opacity:1;stroke:#000000;stroke-width:0.68971;stroke-dasharray:none;stroke-opacity:0.357798" /><path
         d="m 10.214844,0 h 5.988281 v 14.339843 z m 0,0"
         id="path2-3"
         style="fill:#d51d1d;fill-opacity:1;stroke:#000000;stroke-width:0.68971;stroke-dasharray:none;stroke-opacity:0.357798" /><path
         d="m 8.105469,5.285156 3.816406,9.054687 H 9.417969 L 8.277344,11.457031 H 5.484375 Z m 0,0"
         id="path3-6"
         style="fill:#d51d1d;fill-opacity:1;stroke:#000000;stroke-width:0.68971;stroke-dasharray:none;stroke-opacity:0.357798" /></g><text
       xml:space="preserve"
       style="font-weight:bold;font-size:200px;line-height:1.15;font-family:'Liberation Sans';-inkscape-font-specification:'Liberation Sans Bold';letter-spacing:3.51px;word-spacing:0px;display:none;fill:#ffffff;fill-opacity:1;fill-rule:evenodd;stroke-width:8.31496;stroke-linecap:round;stroke-linejoin:round;stroke-miterlimit:2.1"
       x="131.23602"
       y="822.34528"
       id="text13"><tspan
         sodipodi:role="line"
         id="tspan13"
         style="font-size:200px;stroke-width:8.31496"
         x="0"
         y="0">PDF</tspan></text><path
       d="m 64.343135,164.70273 c -2.485694,-1.35531 -3.013185,-2.47664 -2.329147,-4.95115 0.908095,-3.28505 1.249289,-3.97395 3.680358,-7.4311 2.713285,-3.85852 7.191871,-7.97318 13.021386,-11.96336 3.946172,-2.70108 11.895688,-7.39133 13.194131,-7.9573 -9.025157,6.27472 -16.286077,14.0179 -20.555157,18.66674 -2.183684,2.37794 -5.355642,8.08652 -6.016226,9.9387 -0.542727,1.5217 -0.554813,2.06042 -0.05733,2.55786 0.497293,0.49729 1.014481,0.59492 1.723401,0.21224 5.556972,-2.99963 10.871385,-7.57 14.819054,-12.66714 4.585081,-5.88595 8.721996,-12.11869 12.579048,-18.50933 2.999175,-5.11871 3.914413,-6.72212 5.42944,-9.51175 0.767887,-1.41389 2.352037,-4.30598 3.520327,-6.42685 2.21533,-4.02157 8.51669,-16.709834 10.72433,-21.594246 3.56531,-7.88832 5.44403,-12.71635 8.16133,-20.973713 1.45039,-4.407458 1.66314,-5.610833 1.27258,-7.198088 -0.25793,-1.048248 -0.93164,-3.756806 -1.49715,-6.019072 -5.26147,-21.048082 -2.814,-32.761143 -0.32743,-35.444233 1.24901,-1.347675 1.53121,-1.41866 4.88657,-1.229078 4.47743,0.25301 5.08482,0.911962 5.10762,5.541612 0.009,1.782009 -0.84099,5.229335 -1.04364,5.936585 -0.57596,-3.341866 -0.79689,-8.484254 -3.96647,-10.620451 l -1.27671,1.712071 c -0.70219,0.941634 -1.46286,2.753213 -1.69034,4.025747 -0.83501,4.670373 -0.36755,14.582174 0.99417,21.080097 0.43787,2.157866 0.84514,3.776423 1.6143,6.38517 0.58934,-2.000468 1.97264,-8.278724 2.31627,-10.241278 0.29872,-1.696697 0.74215,-4.473097 0.98535,-6.169782 0.24325,-1.696699 0.68153,-3.663333 0.97396,-4.370287 0.9044,10.465119 0.25052,17.874571 -0.44901,21.851311 -1.06121,6.03288 -1.15092,9.384755 -0.29702,11.096471 0.45499,0.91198 0.82722,1.848173 0.82722,2.08043 0,2.052256 8.74646,18.297378 11.4777,21.317932 4.76034,6.274982 10.87822,11.088462 17.46618,15.300062 l 4.73284,3.00738 3.85609,-0.36512 c 6.22514,-0.58947 20.03229,-0.72484 23.65083,-0.23192 4.50628,0.61387 8.88978,1.59361 9.48605,2.1202 0.26864,0.23726 0.80466,0.43137 1.19116,0.43137 0.38649,0 1.51258,0.76408 2.50242,1.69794 1.61399,1.52273 1.78199,1.93391 1.62796,3.98465 l -0.17179,2.2867 -0.73075,-1.44512 c -0.80739,-1.59667 -4.03324,-3.41382 -7.73531,-4.10997 -10.72747,-2.01722 -17.88041,-1.57649 -24.91726,-0.23482 3.00827,1.44576 8.22931,3.42747 11.42783,4.45445 7.37778,2.36883 15.26898,3.89328 18.97679,3.24213 1.11711,-0.19618 1.59842,-0.29042 2.68249,-0.71091 -0.63918,1.84021 -2.31933,2.70718 -4.26684,3.23753 -5.16653,1.40694 -19.17512,-1.12112 -28.83922,-5.2045 -3.33312,-1.2995 -6.6005,-2.75008 -9.85229,-4.2411 -1.80162,-0.82931 -16.61107,0.99146 -30.25128,3.71932 -10.6569,2.13125 -15.47491,3.34919 -24.6089,6.2209 l -5.58541,1.75604 c 0,0 -2.73125,4.15374 -3.996558,6.12715 -4.785864,7.46413 -9.77438,14.78128 -15.567141,21.47492 -2.967517,3.43366 -6.104641,6.02602 -9.77029,8.07375 -2.264728,1.26513 -7.038271,1.41399 -9.110502,0.28412 z M 155.3474,113.09658 c -23.16147,-12.21954 -25.33747,-31.154032 -28.45526,-34.852695 -2.318,4.678139 -4.69079,16.642334 -20.3901,43.814945 -1.8508,3.20341 -2.56631,5.01296 -2.56631,5.01296 22.3908,-9.05906 41.35335,-12.22923 51.41167,-13.97521 z"
       style="fill:#ffffff;fill-opacity:1;stroke-width:1.94323"
       id="path1-2"
       sodipodi:nodetypes="sssscsssssssssssssssccssscsscssssscsssssscsscsscssssscsssssccscc" /><g
       id="g4"
       style="display:inline"
       transform="translate(-21.374241)"><path
         d="m 115.85192,193.41123 q 0,3.54583 -1.57663,6.33556 -1.57662,2.78973 -4.52644,4.32799 -2.92439,1.5122 -6.96767,1.5122 h -8.900298 v 12.93184 h -7.501685 v -36.73583 h 16.096833 q 6.43364,0 9.89205,3.05047 3.48384,3.02437 3.48384,8.57777 z m -7.55255,0.13036 q 0,-5.78805 -6.66251,-5.78805 h -7.755978 v 11.91503 h 7.959418 q 3.10239,0 4.78073,-1.56434 1.67834,-1.5904 1.67834,-4.56264 z m 45.66981,6.33555 q 0,5.68376 -2.18693,9.93354 -2.16151,4.22371 -6.15393,6.46592 -3.96699,2.24222 -9.10373,2.24222 H 122.0298 v -36.73583 h 12.96901 q 9.05288,0 14.01163,4.69301 4.95874,4.66694 4.95874,13.40114 z m -7.55255,0 q 0,-5.91839 -3.00067,-9.021 -3.00067,-3.12867 -8.56972,-3.12867 h -5.31475 v 24.84688 h 6.35735 q 4.83159,0 7.6797,-3.41548 2.84809,-3.41547 2.84809,-9.28173 z m 21.63899,-12.14967 v 11.3675 h 18.33464 v 5.94448 h -18.33464 v 13.47937 h -7.50168 v -36.73583 h 26.42119 v 5.94448 z"
         id="path2"
         style="font-weight:bold;font-size:52.2603px;line-height:1.15;font-family:'Liberation Sans';-inkscape-font-specification:'Liberation Sans Bold';letter-spacing:0.917168px;word-spacing:0px;fill-rule:evenodd;stroke-width:2.19239;stroke-linecap:round;stroke-linejoin:round;stroke-miterlimit:2.1"
         aria-label="PDF" /><path
         d="m 116.06298,195.0131 q 0,3.54581 -1.61648,6.33555 -1.61649,2.78974 -4.64086,4.32799 -2.99831,1.51219 -7.1438,1.51219 h -9.125294 v 12.93184 h -7.691314 v -36.73582 h 16.503738 q 6.59628,0 10.14211,3.05047 3.5719,3.02438 3.5719,8.57778 z m -7.74346,0.13035 q 0,-5.78804 -6.83093,-5.78804 h -7.952044 v 11.91502 h 8.160614 q 3.18082,0 4.90158,-1.56433 1.72078,-1.59042 1.72078,-4.56265 z m 46.82427,6.33556 q 0,5.68375 -2.24222,9.93352 -2.21614,4.22372 -6.30948,6.46592 -4.06728,2.24222 -9.33387,2.24222 h -14.86119 v -36.73582 h 13.29686 q 9.28171,0 14.3658,4.69303 5.0841,4.66693 5.0841,13.40113 z m -7.74347,0 q 0,-5.9184 -3.07652,-9.021 -3.07653,-3.12868 -8.78635,-3.12868 h -5.4491 v 24.84687 h 6.51807 q 4.95372,0 7.87381,-3.41547 2.92009,-3.41546 2.92009,-9.28172 z m 22.186,-12.14968 v 11.36751 h 18.79808 v 5.94448 h -18.79808 v 13.47935 H 161.895 v -36.73582 h 27.08906 v 5.94448 z"
         id="path3"
         style="font-weight:bold;font-size:52.9167px;line-height:1.15;font-family:'Liberation Sans';-inkscape-font-specification:'Liberation Sans Bold';letter-spacing:0.928688px;word-spacing:0px;fill:#ffffff;fill-rule:evenodd;stroke-width:2.21993;stroke-linecap:round;stroke-linejoin:round;stroke-miterlimit:2.1"
         aria-label="PDF" /></g></g><metadata
     id="metadata21"><rdf:RDF><cc:Work
         rdf:about=""><dc:source>https://commons.wikimedia.org/wiki/File:Text-x-generic.svg</dc:source><cc:license
           rdf:resource="http://creativecommons.org/publicdomain/zero/1.0/" /><dc:title>Textfile File</dc:title><dc:publisher><cc:Agent><dc:title>Blackcrack</dc:title></cc:Agent></dc:publisher><dc:creator><cc:Agent><dc:title>Paper sheet by Jakub Steiner </dc:title></cc:Agent></dc:creator><dc:date>202507</dc:date><dc:description>Groundfile for Mimetype-files
finaly many mimetypes for Tango! from Blackcrack</dc:description><dc:contributor><cc:Agent><dc:title>Paper sheet by Jakub Steiner &lt;http://jimmac.musichall.cz&gt;
202507 Blackcrack : Mimetypes creating for tango!</dc:title></cc:Agent></dc:contributor></cc:Work><cc:License
         rdf:about="http://creativecommons.org/publicdomain/zero/1.0/"><cc:permits
           rdf:resource="http://creativecommons.org/ns#Reproduction" /><cc:permits
           rdf:resource="http://creativecommons.org/ns#Distribution" /><cc:permits
           rdf:resource="http://creativecommons.org/ns#DerivativeWorks" /></cc:License></rdf:RDF></metadata><g
     id="g1-6"
     transform="matrix(2.2922816,0,0,2.2922816,158.28961,156.941)"><g
       style="display:inline"
       transform="matrix(0.01753033,0,0,0.01737461,40.484138,37.550639)"
       id="g6707"><rect
         style="color:#000000;display:inline;overflow:visible;visibility:visible;opacity:0.402062;fill:url(#linearGradient6715);fill-opacity:1;fill-rule:nonzero;stroke:none;stroke-width:1;stroke-linecap:round;stroke-linejoin:miter;stroke-miterlimit:4;stroke-dasharray:none;stroke-dashoffset:0;stroke-opacity:1;marker:none;marker-start:none;marker-mid:none;marker-end:none"
         id="rect6709"
         width="1339.6335"
         height="478.35718"
         x="-1559.2523"
         y="-150.69685" /><path
         style="color:#000000;display:inline;overflow:visible;visibility:visible;opacity:0.402062;fill:url(#radialGradient6717);fill-opacity:1;fill-rule:nonzero;stroke:none;stroke-width:1;stroke-linecap:round;stroke-linejoin:miter;stroke-miterlimit:4;stroke-dasharray:none;stroke-dashoffset:0;stroke-opacity:1;marker:none;marker-start:none;marker-mid:none;marker-end:none"
         d="m -219.61876,-150.68038 c 0,0 0,478.33079 0,478.33079 142.874166,0.90045 345.40022,-107.16966 345.40014,-239.196175 0,-132.026537 -159.436816,-239.134595 -345.40014,-239.134615 z"
         id="path6711"
         sodipodi:nodetypes="cccc" /><path
         sodipodi:nodetypes="cccc"
         id="path6713"
         d="m -1559.2523,-150.68038 c 0,0 0,478.33079 0,478.33079 -142.8742,0.90045 -345.4002,-107.16966 -345.4002,-239.196175 0,-132.026537 159.4368,-239.134595 345.4002,-239.134615 z"
         style="color:#000000;display:inline;overflow:visible;visibility:visible;opacity:0.402062;fill:url(#radialGradient6719);fill-opacity:1;fill-rule:nonzero;stroke:none;stroke-width:1;stroke-linecap:round;stroke-linejoin:miter;stroke-miterlimit:4;stroke-dasharray:none;stroke-dashoffset:0;stroke-opacity:1;marker:none;marker-start:none;marker-mid:none;marker-end:none" /></g><rect
       ry="2.394444"
       rx="2.4241352"
       y="15.275433"
       x="7.4623847"
       height="23.112879"
       width="31.978371"
       id="rect3115"
       style="color:#000000;display:block;overflow:visible;visibility:visible;opacity:1;fill:url(#linearGradient2288);fill-opacity:1;fill-rule:nonzero;stroke:#a0670c;stroke-width:1;stroke-linecap:butt;stroke-linejoin:miter;stroke-miterlimit:4;stroke-dasharray:none;stroke-dashoffset:0;stroke-opacity:1;marker:none;marker-start:none;marker-mid:none;marker-end:none" /><rect
       style="color:#000000;display:block;overflow:visible;visibility:visible;opacity:0.481013;fill:none;fill-opacity:1;fill-rule:nonzero;stroke:url(#linearGradient2285);stroke-width:1;stroke-linecap:butt;stroke-linejoin:miter;stroke-miterlimit:4;stroke-dasharray:none;stroke-dashoffset:0;stroke-opacity:1;marker:none;marker-start:none;marker-mid:none;marker-end:none"
       id="rect4220"
       width="29.804138"
       height="21.075352"
       x="8.4989996"
       y="16.243698"
       rx="1.2846882"
       ry="1.2846882" /><g
       id="g2-2"
       inkscape:label="open"
       style="display:none"><path
         sodipodi:nodetypes="ccccc"
         id="path4162"
         d="M 8.7697819,16.547178 13.819731,9.7363408 32.615291,9.6353255 37.835264,16.408941 Z"
         style="display:inline;fill:url(#linearGradient2280);fill-opacity:1;fill-rule:evenodd;stroke:url(#linearGradient2282);stroke-width:1;stroke-linecap:butt;stroke-linejoin:miter;stroke-miterlimit:4;stroke-dasharray:none;stroke-opacity:1" /><path
         sodipodi:nodetypes="ccccc"
         id="path4164"
         d="m 38.276321,16.325703 5.192948,7.194661 H 3.9609455 l 4.6640688,-7.199601 z"
         style="color:#000000;display:inline;overflow:visible;visibility:visible;opacity:1;fill:url(#linearGradient2277);fill-opacity:1;fill-rule:nonzero;stroke:#a0670c;stroke-width:1;stroke-linecap:round;stroke-linejoin:round;stroke-miterlimit:4;stroke-dasharray:none;stroke-dashoffset:0;stroke-opacity:1;marker:none;marker-start:none;marker-mid:none;marker-end:none" /><path
         sodipodi:nodetypes="ccccc"
         id="path4178"
         d="m 32.849333,9.6141009 4.682886,6.9222691 9.033616,4.384827 -8.114506,-8.912652 z"
         style="color:#000000;display:inline;overflow:visible;visibility:visible;opacity:1;fill:url(#linearGradient2274);fill-opacity:1;fill-rule:nonzero;stroke:#a0670c;stroke-width:1;stroke-linecap:round;stroke-linejoin:round;stroke-miterlimit:4;stroke-dasharray:none;stroke-dashoffset:0;stroke-opacity:1;marker:none;marker-start:none;marker-mid:none;marker-end:none" /><path
         sodipodi:nodetypes="ccccc"
         style="color:#000000;display:inline;overflow:visible;visibility:visible;opacity:1;fill:#f8e8cf;fill-opacity:1;fill-rule:nonzero;stroke:#a0670c;stroke-width:1;stroke-linecap:round;stroke-linejoin:round;stroke-miterlimit:4;stroke-dasharray:none;stroke-dashoffset:0;stroke-opacity:1;marker:none;marker-start:none;marker-mid:none;marker-end:none"
         d="M 13.617702,9.7151161 9.6419233,16.435355 0.50729183,20.820182 8.6217973,11.90753 Z"
         id="path4180" /><path
         style="color:#000000;display:inline;overflow:visible;visibility:visible;opacity:1;fill:none;fill-opacity:1;fill-rule:nonzero;stroke:#f4e3ca;stroke-width:1;stroke-linecap:butt;stroke-linejoin:miter;stroke-miterlimit:4;stroke-dasharray:none;stroke-dashoffset:0;stroke-opacity:1;marker:none;marker-start:none;marker-mid:none;marker-end:none"
         d="m 37.024959,16.43605 4.453912,6.056961 H 5.6482792 l 4.141019,-6.180317 z"
         id="path4954"
         sodipodi:nodetypes="ccccc" /><g
         id="g2892"
         transform="matrix(0.676538,0,0,1,3.994869,0)"
         style="display:inline"><path
           style="color:#000000;display:inline;overflow:visible;visibility:visible;opacity:1;fill:url(#radialGradient2896);fill-opacity:1;fill-rule:evenodd;stroke:none;stroke-width:2;stroke-linecap:round;stroke-linejoin:round;stroke-miterlimit:4;stroke-dasharray:none;stroke-dashoffset:0;stroke-opacity:1;marker:none;marker-start:none;marker-mid:none;marker-end:none"
           d="m 23.926073,12.101621 c -5.338008,0 -9.643504,2.028188 -9.643504,4.540192 h 19.322204 c 0,-2.512004 -4.340692,-4.540192 -9.6787,-4.540192 z"
           id="path2882" /><path
           id="path2141"
           d="m 23.931961,12.861168 c -3.551975,0 -6.416904,1.34958 -6.416904,3.021098 h 12.857228 c 0,-1.671518 -2.888349,-3.021098 -6.440324,-3.021098 z"
           style="color:#000000;display:inline;overflow:visible;visibility:visible;opacity:1;fill:url(#radialGradient2898);fill-opacity:1;fill-rule:evenodd;stroke:none;stroke-width:2;stroke-linecap:round;stroke-linejoin:round;stroke-miterlimit:4;stroke-dasharray:none;stroke-dashoffset:0;stroke-opacity:1;marker:none;marker-start:none;marker-mid:none;marker-end:none" /></g><g
         transform="matrix(0.676538,0,0,1,10.49487,0)"
         id="g2900"
         style="display:inline"><path
           id="path2902"
           d="m 23.926073,12.101621 c -5.338008,0 -9.643504,2.028188 -9.643504,4.540192 h 19.322204 c 0,-2.512004 -4.340692,-4.540192 -9.6787,-4.540192 z"
           style="color:#000000;display:inline;overflow:visible;visibility:visible;opacity:1;fill:url(#radialGradient2906);fill-opacity:1;fill-rule:evenodd;stroke:none;stroke-width:2;stroke-linecap:round;stroke-linejoin:round;stroke-miterlimit:4;stroke-dasharray:none;stroke-dashoffset:0;stroke-opacity:1;marker:none;marker-start:none;marker-mid:none;marker-end:none" /><path
           style="color:#000000;display:inline;overflow:visible;visibility:visible;opacity:1;fill:url(#radialGradient2908);fill-opacity:1;fill-rule:evenodd;stroke:none;stroke-width:2;stroke-linecap:round;stroke-linejoin:round;stroke-miterlimit:4;stroke-dasharray:none;stroke-dashoffset:0;stroke-opacity:1;marker:none;marker-start:none;marker-mid:none;marker-end:none"
           d="m 23.931961,12.861168 c -3.551975,0 -6.416904,1.34958 -6.416904,3.021098 h 12.857228 c 0,-1.671518 -2.888349,-3.021098 -6.440324,-3.021098 z"
           id="path2904" /></g><path
         style="display:inline;opacity:0.879747;fill:none;fill-opacity:1;fill-rule:evenodd;stroke:url(#linearGradient2269);stroke-width:1;stroke-linecap:round;stroke-linejoin:round;stroke-miterlimit:4;stroke-dasharray:none;stroke-opacity:1"
         d="M 9.6523127,16.371803 13.036643,10.59302 33.514841,10.5178 37.356782,16.369881 Z"
         id="path4966"
         sodipodi:nodetypes="ccccc" /></g><g
       id="g3-9"
       inkscape:label="close"><g
         id="rect2"
         style="display:inline;opacity:1"><path
           style="baseline-shift:baseline;display:inline;overflow:visible;fill:url(#radialGradient6);stroke-width:0.999943;stroke-linecap:round;stroke-linejoin:round;stroke-dasharray:none;paint-order:fill markers stroke;enable-background:accumulate;stop-color:#000000;stop-opacity:1"
           d="m 12.157973,10.53458 c 0.338152,-0.38837 0.739305,-0.7487459 1.339437,-0.7351148 l 20.454569,-0.00625 c 0.438471,0.018128 0.857835,0.1291867 1.090746,0.5075088 l 3.744764,5.66038 C 38.340053,15.24692 37.398702,15.209196 36.750151,15.258294 L 9.685108,15.280267 C 9.2028243,15.229657 8.4643186,15.39282 8.0287354,16.12235 Z"
           id="path4" /><path
           style="baseline-shift:baseline;display:inline;overflow:visible;opacity:1;vector-effect:none;fill:#ffffff;fill-opacity:0.557704;stroke-width:4.28768;stroke-linecap:round;stroke-linejoin:round;paint-order:fill markers stroke;enable-background:accumulate;stop-color:#000000;stop-opacity:1"
           d="M 180.16821,54.165873 74.970221,54.0257 74.044379,54.0333 c -3.779881,-0.07032 -4.307542,0.717614 -6.037399,2.345178 -0.04194,0.03657 -0.08206,0.0745 -0.120279,0.113706 l -17.482688,22.747321 0.05552,0.03027 c -0.04685,0.06101 -0.130131,0.05864 -0.175794,0.121274 -1.406901,2.022203 3.183533,4.1625 4.918487,2.319242 l 0.129535,-0.151583 c 0.0054,-0.0073 0.01307,-0.0078 0.01852,-0.01513 1.559221,-2.117642 4.093547,-2.48138 5.625465,-2.349686 0.07996,0.0061 0.160263,0.0087 0.240562,0.0078 l 128.210612,-0.0836 c 0.0587,-7.49e-4 0.11734,-0.0033 0.17579,-0.0078 1.40933,-0.0874 3.07579,-0.07719 4.45967,0.204672 1.38096,0.281241 2.38506,0.757967 3.0718,1.652362 0.002,0.0019 0.008,-0.0019 0.01,0 l 0.028,0.03803 c 1.67631,1.981356 5.34599,0.04723 3.83975,-2.023762 -0.0118,-0.01552 -0.0341,-0.01474 -0.0464,-0.03027 l 0.0185,-0.0078 -13.69986,-21.91275 c -1.64063,-2.182653 -4.61177,-2.783596 -7.01355,-2.864942 -0.0339,-6.19e-4 -0.0679,-0.0021 -0.10175,0 z m -0.0925,3.744346 c 1.75251,0.05934 2.75532,0.322764 3.32161,1.076305 0.0119,0.01785 0.0242,0.03553 0.0369,0.05305 l 9.15449,15.773624 C 191.36986,74.739468 61.216203,74.214465 61.216203,74.214465 l 0.240561,0.0078 c -0.207704,-0.01785 -0.492552,0.09741 -0.712444,0.09097 l 8.406368,-13.66699 c 1.473953,-1.386792 2.664481,-2.248729 4.570692,-2.213258 0.01851,1.84e-4 0.03701,1.84e-4 0.05552,0 z"
           id="path6"
           inkscape:label="white"
           sodipodi:nodetypes="cccccccccccccccsccccccccscccccccccccc"
           transform="matrix(0.18669584,0,0,0.18669584,0.00606022,0.13144937)" /><path
           style="baseline-shift:baseline;display:inline;overflow:visible;vector-effect:none;fill:#a0670c;stroke-linecap:round;stroke-linejoin:round;paint-order:fill markers stroke;enable-background:accumulate;stop-color:#000000;stop-opacity:1"
           d="m 33.951172,9.3105469 -20.453125,0.00586 0.0098,0.00195 c -0.797909,-0.01812 -1.347763,0.481002 -1.712925,0.9003931 a 0.48219022,0.48219022 0 0 0 -0.02539,0.0293 l -4.128906,5.587891 0.011719,0.0078 c -0.00989,0.01572 -0.02747,0.01511 -0.037109,0.03125 a 0.48219022,0.48219022 0 0 0 0.8007812,0.533203 l 0.027344,-0.03906 c 0.00114,-0.0019 0.00276,-0.002 0.00391,-0.0039 0.3291416,-0.545675 0.8641219,-0.639403 1.1875,-0.605468 a 0.48219022,0.48219022 0 0 0 0.050781,0.002 L 36.75,15.740234 a 0.48219022,0.48219022 0 0 0 0.03711,-0.002 c 0.297499,-0.02252 0.649281,-0.01989 0.941407,0.05274 0.291511,0.07247 0.503472,0.195313 0.648437,0.425781 3.05e-4,4.85e-4 0.0016,-4.87e-4 0.002,0 l 0.0059,0.0098 A 0.48219022,0.48219022 0 0 0 39.1954,15.705071 c -0.0025,-0.004 -0.0072,-0.0038 -0.0098,-0.0078 l 0.0039,-0.002 -3.736328,-5.646485 C 35.106845,9.4863593 34.479655,9.3315081 33.972656,9.3105469 a 0.48219022,0.48219022 0 0 0 -0.02148,0 z m -0.01953,0.9648441 c 0.369943,0.01529 0.581629,0.08317 0.701171,0.277343 a 0.48219022,0.48219022 0 0 0 0.0078,0.01367 l 2.816406,4.257813 c -0.257289,-0.019 -0.534822,-0.06272 -0.74414,-0.04687 l 0.03711,-0.002 -27.0644531,0.02344 0.050781,0.002 c -0.043843,-0.0046 -0.1039726,0.0251 -0.1503906,0.02344 l 2.9355467,-3.972656 c 0.311142,-0.357349 0.562455,-0.579453 0.964844,-0.570313 a 0.48219022,0.48219022 0 0 0 0.01172,0 z"
           id="path5" /><g
           id="g8"
           inkscape:label="glue"
           transform="matrix(1.8219176,0,0,1,-19.281962,0)"><path
             id="rect6"
             style="fill:#715b39;fill-opacity:1;stroke-width:0.999943;stroke-linecap:round;stroke-linejoin:round;paint-order:fill markers stroke"
             d="m 22.333687,9.2823772 h 2.36759 l 0.462049,6.2776468 h -3.4072 z"
             sodipodi:nodetypes="ccccc" /><path
             id="rect7"
             style="fill:#715b39;fill-opacity:0.547858;stroke-width:0.999943;stroke-linecap:round;stroke-linejoin:round;paint-order:fill markers stroke"
             d="m 21.756126,15.256006 h 3.4072 v 6.020941 l -0.324337,-0.393979 -0.324336,0.134077 -0.203127,-0.259903 -0.21295,0.09695 -0.21295,0.327972 -0.21295,-0.134077 -0.21295,0.09695 -0.21295,0.02475 -0.21295,-0.272279 -0.21295,0.231024 -0.21295,-0.47855 -0.21295,0.495052 -0.21295,-0.247526 -0.21295,0.396042 -0.21295,-0.148516 z"
             sodipodi:nodetypes="ccccccccccccccccccc" /><path
             id="path7"
             style="fill:url(#linearGradient8);stroke-width:0.999943;stroke-linecap:round;stroke-linejoin:round;paint-order:fill markers stroke"
             d="m 21.756126,15.129601 0.151933,-0.733547 h 3.145134 l 0.110133,0.731013 v 6.14988 l -0.324337,-0.393979 -0.324336,0.134077 -0.203127,-0.259903 -0.21295,0.09695 -0.21295,0.327972 -0.21295,-0.134077 -0.21295,0.09695 -0.21295,0.02475 -0.21295,-0.272279 -0.21295,0.231024 -0.21295,-0.47855 -0.21295,0.495052 -0.21295,-0.247526 -0.21295,0.396042 -0.21295,-0.148516 z"
             sodipodi:nodetypes="ccccccccccccccccccccc" /></g></g></g><text
       xml:space="preserve"
       style="font-size:11.1393px;font-family:'MxPlus IBM VGA 8x16';-inkscape-font-specification:'MxPlus IBM VGA 8x16';text-align:start;writing-mode:lr-tb;direction:ltr;text-anchor:start;display:inline;fill:#000000;fill-opacity:1;stroke:#872020;stroke-width:6.89426;stroke-linecap:round;stroke-linejoin:round;paint-order:fill markers stroke"
       x="12.539563"
       y="36.037655"
       id="text1"><tspan
         sodipodi:role="line"
         id="tspan1"
         x="12.539563"
         y="36.037655"
         style="font-style:normal;font-variant:normal;font-weight:bold;font-stretch:normal;font-size:11.1393px;font-family:'Liberation Sans';-inkscape-font-specification:'Liberation Sans Bold';fill:#000000;fill-opacity:1;stroke:none;stroke-width:6.89426">BZ2</tspan></text><text
       xml:space="preserve"
       style="font-size:11.1393px;font-family:'MxPlus IBM VGA 8x16';-inkscape-font-specification:'MxPlus IBM VGA 8x16';text-align:start;writing-mode:lr-tb;direction:ltr;text-anchor:start;display:none;fill:#000000;fill-opacity:1;stroke:#872020;stroke-width:6.89426;stroke-linecap:round;stroke-linejoin:round;paint-order:fill markers stroke"
       x="12.704857"
       y="27.340591"
       id="text4"><tspan
         sodipodi:role="line"
         id="tspan4"
         x="0"
         y="0"
         style="font-style:normal;font-variant:normal;font-weight:bold;font-stretch:normal;font-size:11.1393px;font-family:'Liberation Sans';-inkscape-font-specification:'Liberation Sans Bold';fill:#000000;fill-opacity:1;stroke:none;stroke-width:6.89426">TAR</tspan></text></g></svg>
