<?xml version="1.0" encoding="UTF-8" standalone="no"?>
<!-- Created with Inkscape (http://www.inkscape.org/) -->

<svg
   width="256mm"
   height="256mm"
   viewBox="0 0 256 256"
   version="1.1"
   id="svg1"
   inkscape:version="1.4.2 (ebf0e940d0, 2025-05-08)"
   sodipodi:docname="audio-AMR.svg"
   xmlns:inkscape="http://www.inkscape.org/namespaces/inkscape"
   xmlns:sodipodi="http://sodipodi.sourceforge.net/DTD/sodipodi-0.dtd"
   xmlns:xlink="http://www.w3.org/1999/xlink"
   xmlns="http://www.w3.org/2000/svg"
   xmlns:svg="http://www.w3.org/2000/svg"
   xmlns:rdf="http://www.w3.org/1999/02/22-rdf-syntax-ns#"
   xmlns:cc="http://creativecommons.org/ns#"
   xmlns:dc="http://purl.org/dc/elements/1.1/">
  <title
     id="title1">Multimedia File</title>
  <sodipodi:namedview
     id="namedview1"
     pagecolor="#ffffff"
     bordercolor="#000000"
     borderopacity="0.25"
     inkscape:showpageshadow="2"
     inkscape:pageopacity="0.0"
     inkscape:pagecheckerboard="0"
     inkscape:deskcolor="#d1d1d1"
     inkscape:document-units="mm"
     inkscape:zoom="0.41995632"
     inkscape:cx="639.35221"
     inkscape:cy="1048.9186"
     inkscape:current-layer="g26"
     showguides="true" />
  <defs
     id="defs1">
    <linearGradient
       id="linearGradient14"
       inkscape:collect="always">
      <stop
         style="stop-color:#9d9d9d;stop-opacity:0.76277173;"
         offset="0"
         id="stop21" />
      <stop
         style="stop-color:#898989;stop-opacity:0;"
         offset="1"
         id="stop22" />
    </linearGradient>
    <linearGradient
       id="linearGradient9"
       inkscape:collect="always">
      <stop
         style="stop-color:#a4a4a4;stop-opacity:0;"
         offset="0"
         id="stop10" />
      <stop
         style="stop-color:#9e9e9e;stop-opacity:0.62876189;"
         offset="0.36316207"
         id="stop14" />
      <stop
         style="stop-color:#9d9d9d;stop-opacity:0.66334069;"
         offset="0.47206032"
         id="stop26" />
      <stop
         style="stop-color:#9c9c9c;stop-opacity:0.68627453"
         offset="0.58095855"
         id="stop23" />
      <stop
         style="stop-color:#a5a5a5;stop-opacity:0;"
         offset="1"
         id="stop13" />
    </linearGradient>
    <linearGradient
       id="linearGradient4"
       inkscape:collect="always">
      <stop
         style="stop-color:#9e9e9e;stop-opacity:0.77528024;"
         offset="0"
         id="stop4" />
      <stop
         style="stop-color:#969696;stop-opacity:0;"
         offset="1"
         id="stop9" />
    </linearGradient>
    <linearGradient
       id="linearGradient24"
       inkscape:collect="always">
      <stop
         style="stop-color:#ffffff;stop-opacity:1;"
         offset="0"
         id="stop24" />
      <stop
         style="stop-color:#f8f8f8;stop-opacity:0;"
         offset="1"
         id="stop25" />
    </linearGradient>
    <linearGradient
       id="linearGradient18"
       inkscape:collect="always">
      <stop
         style="stop-color:#a3a3a3;stop-opacity:1;"
         offset="0"
         id="stop19" />
      <stop
         style="stop-color:#8a8a8a;stop-opacity:1;"
         offset="1"
         id="stop20" />
    </linearGradient>
    <linearGradient
       id="linearGradient16"
       inkscape:collect="always">
      <stop
         style="stop-color:#ffffff;stop-opacity:1;"
         offset="0"
         id="stop17" />
      <stop
         style="stop-color:#bbbbbb;stop-opacity:1;"
         offset="1"
         id="stop18" />
    </linearGradient>
    <linearGradient
       id="linearGradient15"
       inkscape:collect="always">
      <stop
         style="stop-color:#000000;stop-opacity:0.52193588;"
         offset="0"
         id="stop15" />
      <stop
         style="stop-color:#000000;stop-opacity:0;"
         offset="1"
         id="stop16" />
    </linearGradient>
    <linearGradient
       id="linearGradient12"
       inkscape:collect="always">
      <stop
         style="stop-color:#ffffff;stop-opacity:1;"
         offset="0"
         id="stop11" />
      <stop
         style="stop-color:#ffffff;stop-opacity:0.64274555;"
         offset="1"
         id="stop12" />
    </linearGradient>
    <linearGradient
       id="linearGradient6"
       inkscape:collect="always">
      <stop
         style="stop-color:#ffffff;stop-opacity:1;"
         offset="0"
         id="stop7" />
      <stop
         style="stop-color:#bbbbbb;stop-opacity:1;"
         offset="1"
         id="stop8" />
    </linearGradient>
    <linearGradient
       id="linearGradient5"
       inkscape:collect="always">
      <stop
         style="stop-color:#a3a3a3;stop-opacity:1;"
         offset="0"
         id="stop5" />
      <stop
         style="stop-color:#8a8a8a;stop-opacity:1;"
         offset="1"
         id="stop6" />
    </linearGradient>
    <radialGradient
       inkscape:collect="always"
       xlink:href="#linearGradient5"
       id="radialGradient6"
       cx="75.066299"
       cy="74.607521"
       fx="75.066299"
       fy="74.607521"
       r="97.430664"
       gradientTransform="matrix(1.8981695,0,0,2.1817088,-96.702979,-133.54183)"
       gradientUnits="userSpaceOnUse" />
    <radialGradient
       inkscape:collect="always"
       xlink:href="#linearGradient6"
       id="radialGradient8"
       cx="174.45174"
       cy="189.403"
       fx="174.45174"
       fy="189.403"
       r="92.707426"
       gradientTransform="matrix(3.6956033,0,0,4.275761,-470.25265,-610.78818)"
       gradientUnits="userSpaceOnUse" />
    <radialGradient
       inkscape:collect="always"
       xlink:href="#linearGradient12"
       id="radialGradient11"
       gradientUnits="userSpaceOnUse"
       gradientTransform="matrix(1.8180173,0,0,2.0895839,-87.463524,-122.50101)"
       cx="75.066299"
       cy="74.607521"
       fx="75.066299"
       fy="74.607521"
       r="97.430664" />
    <radialGradient
       inkscape:collect="always"
       xlink:href="#linearGradient15"
       id="radialGradient16"
       cx="189.09937"
       cy="54.03986"
       fx="189.09937"
       fy="54.03986"
       r="26.26236"
       gradientTransform="matrix(2.5421412,0.6811647,-0.53467756,1.9954438,-265.4871,-191.34864)"
       gradientUnits="userSpaceOnUse" />
    <radialGradient
       inkscape:collect="always"
       xlink:href="#linearGradient16"
       id="radialGradient18"
       cx="163.13307"
       cy="81.723709"
       fx="163.13307"
       fy="81.723709"
       r="28.42736"
       gradientTransform="matrix(1.9525628,-0.49137406,0.39129194,1.5548686,-183.5452,34.191671)"
       gradientUnits="userSpaceOnUse" />
    <radialGradient
       inkscape:collect="always"
       xlink:href="#linearGradient18"
       id="radialGradient20"
       cx="163.86221"
       cy="57.354431"
       fx="163.86221"
       fy="57.354431"
       r="26.811067"
       gradientTransform="matrix(1.7424858,-0.07965295,0.07021751,1.5360764,-129.82848,-12.432711)"
       gradientUnits="userSpaceOnUse" />
    <linearGradient
       inkscape:collect="always"
       xlink:href="#linearGradient24"
       id="linearGradient25"
       x1="168.39914"
       y1="59.019711"
       x2="182.49422"
       y2="47.129765"
       gradientUnits="userSpaceOnUse" />
    <radialGradient
       inkscape:collect="always"
       xlink:href="#linearGradient4"
       id="radialGradient9"
       cx="25.964643"
       cy="242.70813"
       fx="25.964643"
       fy="242.70813"
       r="10.821037"
       gradientTransform="matrix(1.3500924,0,0,1.1782891,-7.4889947,-42.382648)"
       gradientUnits="userSpaceOnUse" />
    <linearGradient
       inkscape:collect="always"
       xlink:href="#linearGradient9"
       id="linearGradient13"
       x1="119.62739"
       y1="227.97072"
       x2="119.62739"
       y2="256.21124"
       gradientUnits="userSpaceOnUse" />
    <radialGradient
       inkscape:collect="always"
       xlink:href="#linearGradient14"
       id="radialGradient22"
       cx="215.0412"
       cy="241.92787"
       fx="215.0412"
       fy="241.92787"
       r="10.821037"
       gradientTransform="matrix(1.2864395,0,0,1.3278689,-63.973477,-78.809529)"
       gradientUnits="userSpaceOnUse" />
    <linearGradient
       id="linearGradient5060">
      <stop
         id="stop5062"
         offset="0" />
      <stop
         id="stop5064"
         stop-opacity="0"
         offset="1" />
    </linearGradient>
    <linearGradient
       id="linearGradient6001">
      <stop
         id="stop6003"
         stop-color="#fff"
         offset="0" />
      <stop
         id="stop6005"
         stop-color="#fff"
         stop-opacity="0"
         offset="1" />
    </linearGradient>
    <linearGradient
       id="d">
      <stop
         offset="0"
         stop-color="#eaeae9"
         id="stop9-9" />
      <stop
         offset="1"
         stop-color="#a5a7a2"
         id="stop10-12" />
    </linearGradient>
    <linearGradient
       id="c">
      <stop
         offset="0"
         stop-color="#eeeeec"
         id="stop27" />
      <stop
         offset="1"
         stop-color="#8a8c87"
         id="stop28" />
    </linearGradient>
    <linearGradient
       id="e">
      <stop
         offset="0"
         stop-color="#6f726f"
         id="stop7-7" />
      <stop
         offset="1"
         stop-color="#6f726f"
         stop-opacity="0"
         id="stop8-0" />
    </linearGradient>
    <linearGradient
       id="m">
      <stop
         offset="0"
         stop-color="#fff"
         stop-opacity="0"
         id="stop23-6" />
      <stop
         offset="1"
         stop-color="#fff"
         id="stop24-0" />
    </linearGradient>
    <linearGradient
       id="k">
      <stop
         offset="0"
         stop-color="#eeeeec"
         id="stop21-6" />
      <stop
         offset="1"
         stop-color="#555753"
         id="stop22-2" />
    </linearGradient>
    <linearGradient
       id="b">
      <stop
         offset="0"
         stop-color="#2e3436"
         id="stop19-6" />
      <stop
         offset="1"
         stop-color="#888a85"
         id="stop20-1" />
    </linearGradient>
    <linearGradient
       id="j">
      <stop
         offset="0"
         stop-color="#eeeeec"
         id="stop17-8" />
      <stop
         offset="1"
         stop-color="#888a85"
         id="stop18-7" />
    </linearGradient>
    <linearGradient
       id="h">
      <stop
         offset="0"
         stop-color="#d3d7cf"
         id="stop11-9" />
      <stop
         offset="1"
         stop-color="#555753"
         id="stop12-2" />
    </linearGradient>
    <linearGradient
       id="a">
      <stop
         offset="0"
         stop-color="#2e3436"
         id="stop13-0" />
      <stop
         offset="1"
         stop-color="#babdb6"
         id="stop14-2" />
    </linearGradient>
    <linearGradient
       id="n">
      <stop
         offset="0"
         stop-color="#3465a4"
         id="stop15-9" />
      <stop
         offset="1"
         stop-color="#3465a4"
         stop-opacity="0"
         id="stop16-2" />
    </linearGradient>
    <radialGradient
       xlink:href="#linearGradient5060"
       id="o"
       cx="6.4081554"
       cy="17.403807"
       r="5.524272"
       fx="6.4081554"
       fy="17.403807"
       gradientTransform="matrix(2.9019,0,0,1.5828592,0.5253597,8.3779539)"
       gradientUnits="userSpaceOnUse" />
    <linearGradient
       inkscape:collect="always"
       xlink:href="#d"
       id="linearGradient1"
       gradientUnits="userSpaceOnUse"
       x1="7.5763841"
       y1="20.301662"
       x2="7.3215322"
       y2="27.345011" />
    <linearGradient
       xlink:href="#linearGradient6001"
       id="r"
       x1="4.6831217"
       x2="8.3712559"
       y1="24.665476"
       y2="24.317278"
       gradientUnits="userSpaceOnUse" />
    <linearGradient
       xlink:href="#linearGradient6001"
       id="u"
       x1="9.485774"
       x2="7.378232"
       y1="22.107626"
       y2="22.637957"
       gradientUnits="userSpaceOnUse" />
    <radialGradient
       xlink:href="#m"
       id="v"
       cx="5.0822492"
       cy="12.516305"
       r="2.9831069"
       fx="5.0822492"
       fy="12.516305"
       gradientTransform="matrix(1.5258,0,0,1.76896,-0.08162983,6.066255)"
       gradientUnits="userSpaceOnUse" />
    <radialGradient
       xlink:href="#k"
       id="w"
       cx="-1.0016617"
       cy="0.99004257"
       r="9.9205227"
       fx="-1.0016617"
       fy="0.99004257"
       gradientTransform="matrix(-0.12758,1.41606,-1.63014,-0.14685,17.48751,15.56121)"
       gradientUnits="userSpaceOnUse" />
    <linearGradient
       xlink:href="#b"
       id="x"
       x1="17.0625"
       x2="20.3125"
       y1="34.950001"
       y2="5.375"
       gradientUnits="userSpaceOnUse" />
    <radialGradient
       xlink:href="#j"
       id="y"
       cx="-1.0016617"
       cy="0.99004257"
       r="9.9205227"
       fx="-1.0016617"
       fy="0.99004257"
       gradientTransform="matrix(-0.31003,2.11086,-2.08277,-0.30587,17.75288,16.41459)"
       gradientUnits="userSpaceOnUse" />
    <radialGradient
       xlink:href="#h"
       id="z"
       cx="12.704856"
       cy="13.847466"
       r="9.375"
       fx="12.704856"
       fy="13.847466"
       gradientTransform="matrix(0.0637,-1.42447,1.5473,0.06921,-9.530629,30.98681)"
       gradientUnits="userSpaceOnUse" />
    <linearGradient
       xlink:href="#a"
       id="A"
       x1="-0.51990569"
       x2="-0.51990569"
       y1="-0.51990569"
       y2="19.269905"
       gradientUnits="userSpaceOnUse" />
    <radialGradient
       xlink:href="#h"
       id="B"
       cx="6.8797626"
       cy="7.1986876"
       r="9.375"
       fx="6.8797626"
       fy="7.1986876"
       gradientTransform="matrix(1.24075,0,0,1.15763,-1.713645,-1.134736)"
       gradientUnits="userSpaceOnUse" />
    <radialGradient
       xlink:href="#n"
       id="C"
       cx="36.82843"
       cy="24.427677"
       r="1.2404948"
       fx="36.82843"
       fy="24.427671"
       gradientTransform="matrix(13.39869,0,0,22.22678,-456.6246,-518.5208)"
       gradientUnits="userSpaceOnUse" />
    <radialGradient
       xlink:href="#n"
       id="D"
       cx="36.82843"
       cy="24.427677"
       r="1.2404948"
       fx="36.82843"
       fy="24.427671"
       gradientTransform="matrix(13.39869,0,0,22.22678,-456.6246,-518.5208)"
       gradientUnits="userSpaceOnUse" />
    <radialGradient
       xlink:href="#n"
       id="E"
       cx="36.82843"
       cy="24.427683"
       r="1.2404948"
       fx="36.82843"
       fy="24.427683"
       gradientTransform="matrix(21.09444,0,0,22.22672,-740.0468,-518.5196)"
       gradientUnits="userSpaceOnUse" />
    <radialGradient
       inkscape:collect="always"
       xlink:href="#linearGradient5060"
       id="radialGradient3405"
       gradientUnits="userSpaceOnUse"
       gradientTransform="matrix(0.67804297,0,0,0.398649,-0.87408512,25.570383)"
       cx="23.25"
       cy="35.375"
       fx="23.25"
       fy="35.375"
       r="18.5" />
    <radialGradient
       inkscape:collect="always"
       xlink:href="#linearGradient6001"
       id="radialGradient3407"
       gradientUnits="userSpaceOnUse"
       gradientTransform="matrix(1,0,0,0.509804,0,16.05392)"
       cx="4.3920336"
       cy="32.307854"
       fx="4.3920336"
       fy="32.307854"
       r="6.375" />
    <linearGradient
       inkscape:collect="always"
       xlink:href="#d"
       id="linearGradient19"
       gradientUnits="userSpaceOnUse"
       x1="7.5763841"
       y1="20.301662"
       x2="7.3215322"
       y2="27.345011" />
    <linearGradient
       inkscape:collect="always"
       xlink:href="#c"
       id="linearGradient20"
       gradientUnits="userSpaceOnUse"
       gradientTransform="matrix(1.76991,0,0,1.76991,-88.34438,10.67235)"
       x1="56.302975"
       y1="4.9369388"
       x2="56.609135"
       y2="8.6796741" />
    <linearGradient
       inkscape:collect="always"
       xlink:href="#e"
       id="linearGradient21"
       gradientUnits="userSpaceOnUse"
       gradientTransform="matrix(1.29618,0,0,1.29618,-4.978245,-7.324566)"
       x1="11.125889"
       y1="25.559732"
       x2="9.346509"
       y2="25.736509" />
  </defs>
  <metadata
     id="metadata1">
    <rdf:RDF>
      <cc:Work
         rdf:about="">
        <cc:license
           rdf:resource="http://creativecommons.org/publicdomain/zero/1.0/" />
        <dc:title>Multimedia File</dc:title>
        <dc:date>202507</dc:date>
        <dc:creator>
          <cc:Agent>
            <dc:title>Paper sheet by Jakub Steiner </dc:title>
          </cc:Agent>
        </dc:creator>
        <dc:publisher>
          <cc:Agent>
            <dc:title>Blackcrack</dc:title>
          </cc:Agent>
        </dc:publisher>
        <dc:description>Groundfile for Mimetype-files
202507 - Blackcrack - Rebuild the Sheet from  Jakub Steiner total fresh because the Code was buggy (oversize) because that i have must make it fresh with Inkscape 1.4.2 with same Design, now it's in the right size, also at the Icon Themeviewer in Plasma.
202507 finaly many Mimetypes for Tango! from Blackcrack</dc:description>
        <dc:contributor>
          <cc:Agent>
            <dc:title>Paper sheet by Jakub Steiner &lt;http://jimmac.musichall.cz&gt;
202507 Blackcrack : Mimetypes creating for tango!</dc:title>
          </cc:Agent>
        </dc:contributor>
      </cc:Work>
      <cc:License
         rdf:about="http://creativecommons.org/publicdomain/zero/1.0/">
        <cc:permits
           rdf:resource="http://creativecommons.org/ns#Reproduction" />
        <cc:permits
           rdf:resource="http://creativecommons.org/ns#Distribution" />
        <cc:permits
           rdf:resource="http://creativecommons.org/ns#DerivativeWorks" />
      </cc:License>
    </rdf:RDF>
  </metadata>
  <g
     id="g26"
     transform="matrix(1.0110135,0,0,1.0271114,5.1068557,-7.0669282)">
    <g
       id="g1">
      <g
         id="g27"
         inkscape:label="shadow"
         transform="matrix(0.9809334,0,0,0.9809334,5.1601093,4.6032445)">
        <rect
           style="fill:url(#linearGradient13);fill-rule:evenodd;stroke-width:1.476;stroke-linecap:round;stroke-linejoin:round;paint-order:stroke fill markers"
           id="rect2"
           width="184.84464"
           height="28.737843"
           x="27.673475"
           y="226.00008" />
        <rect
           style="fill:url(#radialGradient9);fill-rule:evenodd;stroke-width:1.476;stroke-linecap:round;stroke-linejoin:round;paint-order:stroke fill markers"
           id="rect3"
           width="21.580748"
           height="28.737839"
           x="6.1013594"
           y="226.00008" />
        <rect
           style="fill:url(#radialGradient22);fill-rule:evenodd;stroke-width:1.476;stroke-linecap:round;stroke-linejoin:round;paint-order:stroke fill markers"
           id="rect4"
           width="21.642075"
           height="28.737839"
           x="212.51927"
           y="226.00008" />
      </g>
      <g
         id="rect1"
         style="opacity:1"
         transform="matrix(0.96874842,0,0,0.96874842,2.9832174,4.9451305)">
        <path
           style="baseline-shift:baseline;display:inline;overflow:visible;fill:url(#radialGradient6);fill-rule:evenodd;stroke-width:1.00013;stroke-linecap:square;stroke-dasharray:none;paint-order:stroke fill markers;enable-background:accumulate;stop-color:#000000;stop-opacity:1"
           d="m 32.501748,15.190316 c -6.164423,0 -9.332052,2.390294 -9.332052,8.554717 V 232.87562 c 0,6.16442 2.390294,8.16605 8.554717,8.16605 H 211.78111 c 6.16442,0 9.33206,-2.3903 9.33206,-8.55472 V 77.24196 c 0,-7.769553 -48.54277,-62.051644 -67.51449,-62.051644 z m 1.943339,9.445313 H 153.59868 c 7.88599,0 57.28988,47.93445 57.28988,52.606331 v 152.52432 c 0,1.09493 -0.73319,1.83008 -1.82812,1.83008 H 34.445087 c -1.094929,0 -1.830078,-0.73515 -1.830078,-1.83008 V 26.465707 c 0,-1.094929 0.735149,-1.830078 1.830078,-1.830078 z"
           id="path4"
           sodipodi:nodetypes="ssssssssssssssssss" />
        <path
           style="baseline-shift:baseline;display:inline;overflow:visible;vector-effect:none;fill:url(#radialGradient8);fill-rule:evenodd;stroke-linecap:square;paint-order:stroke fill markers;enable-background:accumulate;stop-color:#000000;stop-opacity:1"
           d="m 35.95035,20.666336 h 126.97059 c 8.45031,0 51.8925,53.10732 51.8925,57.65975 V 228.63696 c 0,3.62968 -2.92208,6.55176 -6.55176,6.55176 H 35.95035 c -3.629676,0 -6.551762,-2.92208 -6.551762,-6.55176 V 27.218098 c 0,-3.629676 2.922086,-6.551762 6.551762,-6.551762 z"
           id="path5"
           sodipodi:nodetypes="sssssssss" />
        <path
           style="baseline-shift:baseline;display:inline;overflow:visible;opacity:1;fill:url(#radialGradient11);fill-rule:evenodd;stroke-width:0.957899;stroke-linecap:square;stroke-dasharray:none;paint-order:stroke fill markers;enable-background:accumulate;stop-color:#000000;stop-opacity:1"
           d="m 38.490307,20.672015 c -5.904124,0 -9.723771,1.698513 -9.700415,7.602591 l 0.798722,201.901844 c 0.0079,2.00188 2.542406,5.007 6.609957,5.007 H 208.01432 c 4.63265,0 7.40868,-4.18878 7.40868,-7.97377 V 79.352581 c 0,-7.441476 -40.78525,-58.680566 -63.90137,-58.680566 z m 113.031323,6.348757 c 18.21976,0 58.41027,42.155832 58.39934,52.331809 l -0.15572,145.031599 c -0.004,3.59404 -0.98481,4.99145 -5.14153,5.00212 -17.95655,-1.29577 -168.755024,-0.0767 -168.755024,-0.0767 L 35.586781,27.020772 Z"
           id="path11"
           sodipodi:nodetypes="sssssssssssssccs" />
      </g>
    </g>
    <g
       id="g21"
       transform="translate(-41.128734,-160.7097)">
      <g
         id="g4244"
         transform="matrix(0.25197962,0,0,0.24803035,111.81693,138.67626)"
         style="display:inline">
        <path
           id="rect4222"
           d="m 188.91815,322.18362 h 400.07092 v 400.3143 H 188.91815 Z"
           style="color:#000000;clip-rule:nonzero;display:inline;overflow:visible;visibility:visible;opacity:1;isolation:auto;mix-blend-mode:normal;color-interpolation:sRGB;color-interpolation-filters:linearRGB;solid-color:#000000;solid-opacity:1;fill:none;fill-opacity:1;fill-rule:nonzero;stroke:none;stroke-width:10;stroke-linecap:butt;stroke-linejoin:round;stroke-miterlimit:4;stroke-dasharray:none;stroke-dashoffset:0;stroke-opacity:1;color-rendering:auto;image-rendering:auto;shape-rendering:auto;text-rendering:auto;enable-background:accumulate"
           inkscape:connector-curvature="0" />
      </g>
      <g
         id="g2556"
         inkscape:label="Layer 1"
         transform="matrix(2.6071621,0,0,2.5662839,185.95057,248.5551)"
         style="display:inline">
        <ellipse
           id="path1344"
           style="display:inline;overflow:visible;visibility:visible;opacity:0.3;fill:url(#radialGradient3405);fill-opacity:1;fill-rule:evenodd;stroke:none;stroke-width:1.64687;stroke-linecap:round;stroke-linejoin:round;stroke-miterlimit:4;stroke-dasharray:none;stroke-dashoffset:0;stroke-opacity:1;marker:none;marker-start:none;marker-mid:none;marker-end:none"
           cx="14.890413"
           cy="39.672581"
           rx="12.543795"
           ry="7.375" />
        <path
           style="display:block;visibility:visible;fill:#2949b0;fill-opacity:1;fill-rule:nonzero;stroke:#001c7c;stroke-width:1;stroke-linecap:round;stroke-linejoin:round;stroke-miterlimit:4;stroke-dashoffset:0;stroke-opacity:1;marker:none;marker-start:none;marker-mid:none;marker-end:none"
           d="M 38.072176,7.5861613 18.5625,10.629798 v 21.78125 c -1.645955,-0.557651 -3.931785,-0.703429 -6.4375,-0.1875 -4.356314,0.896969 -7.4778602,3.299487 -7,5.34375 0.4778601,2.044263 4.393685,2.99072 8.75,2.09375 4.116641,-0.84762 7.684123,-3.037802 7.602633,-5 l 0.15625,-19.03125 15.476764,-0.628383 z"
           id="path7042"
           sodipodi:nodetypes="cccccccccc" />
        <path
           sodipodi:nodetypes="cccccccc"
           id="path2311"
           d="M 37.176212,8.6866473 19.547267,11.730284 V 33.568621 C 11.982012,31.663311 5.8141632,35.40303 6.2685944,37.347065 6.9730255,40.6661 20.646969,38.449299 20.569474,34.208305 l 0.148589,-19.473166 15.835789,-0.571585 z"
           style="display:block;visibility:visible;opacity:0.511765;fill:none;fill-opacity:1;fill-rule:nonzero;stroke:#ffffff;stroke-width:1;stroke-linecap:butt;stroke-linejoin:miter;stroke-miterlimit:4;stroke-dasharray:none;stroke-dashoffset:0;stroke-opacity:1;marker:none;marker-start:none;marker-mid:none;marker-end:none" />
        <ellipse
           transform="matrix(0.734516,-0.111645,0.111645,0.734516,3.903362,12.22551)"
           id="path2313"
           style="display:block;overflow:visible;visibility:visible;opacity:0.511765;fill:url(#radialGradient3407);fill-opacity:1;fill-rule:nonzero;stroke:none;stroke-width:1;stroke-linecap:butt;stroke-linejoin:miter;stroke-miterlimit:4;stroke-dasharray:none;stroke-dashoffset:0;stroke-opacity:1;marker:none;marker-start:none;marker-mid:none;marker-end:none"
           cx="5.875"
           cy="32.75"
           rx="6.375"
           ry="3.25" />
      </g>
      <g
         id="g46"
         transform="matrix(4.050693,0,0,3.9872066,32.826341,138.45913)"
         style="display:inline">
        <path
           fill="url(#o)"
           d="m 35.15207,35.925743 a 16.030885,8.7441446 0 1 1 -32.0617688,0 16.030885,8.7441446 0 1 1 32.0617688,0 z"
           color="#000000"
           opacity="0.428571"
           overflow="visible"
           style="fill:url(#o);stroke-width:3.32289;marker:none"
           id="path28" />
        <g
           transform="matrix(1.29618,0,0,1.29618,-4.176277,-7.324567)"
           id="g32">
          <path
             fill="url(#p)"
             stroke="#5d615f"
             stroke-linecap="round"
             stroke-linejoin="round"
             stroke-width="0.577925"
             d="m 12.374369,24.665476 a 3.6239225,6.3639616 0 1 1 -7.247845,0 3.6239225,6.3639616 0 1 1 7.247845,0 z"
             color="#000000"
             overflow="visible"
             style="fill:url(#linearGradient19);marker:none"
             transform="matrix(1.41596,0,0,1.25856,-2.667614,-6.200669)"
             id="path29" />
          <path
             fill="url(#q)"
             d="m 12.374369,24.665476 a 3.6239225,6.3639616 0 1 1 -7.247845,0 3.6239225,6.3639616 0 1 1 7.247845,0 z"
             color="#000000"
             overflow="visible"
             style="fill:url(#linearGradient1);marker:none"
             transform="matrix(1.15453,0,0,1.15453,-0.379902,-3.63468)"
             id="path30" />
          <path
             fill="#93958f"
             d="m 12.374369,24.665476 a 3.6239225,6.3639616 0 1 1 -7.247845,0 3.6239225,6.3639616 0 1 1 7.247845,0 z"
             color="#000000"
             overflow="visible"
             style="marker:none"
             transform="matrix(1.08136,0,0,1.08136,1.232653,-1.829889)"
             id="path31" />
          <path
             fill="none"
             stroke="url(#r)"
             stroke-linecap="round"
             stroke-linejoin="round"
             stroke-width="0.684167"
             d="m 12.374369,24.665476 a 3.6239225,6.3639616 0 1 1 -7.247845,0 3.6239225,6.3639616 0 1 1 7.247845,0 z"
             color="#000000"
             opacity="0.395604"
             overflow="visible"
             style="stroke:url(#r);marker:none"
             transform="matrix(1.1807,0,0,1.07697,-0.608944,-1.721744)"
             id="path32" />
        </g>
        <path
           fill="url(#s)"
           fill-rule="evenodd"
           stroke="url(#t)"
           stroke-linecap="round"
           stroke-width="1"
           d="M 9.4806798,18.24261 16.570367,12.118401 16.341232,37.201244 9.1369775,31.676187 C 6.6164956,29.613972 6.1582259,20.41939 9.4806798,18.24261 Z"
           color="#000000"
           overflow="visible"
           style="fill:url(#linearGradient20);stroke:url(#linearGradient21);marker:none"
           id="path33" />
        <path
           fill="url(#u)"
           fill-rule="evenodd"
           d="m 7.5383505,21.987453 4.0549655,-3.039021 -0.251614,3.536074 -3.9634698,0.660996 z"
           color="#000000"
           overflow="visible"
           style="fill:url(#u);marker:none"
           id="path34" />
        <path
           fill="url(#v)"
           d="m 8.203516,30.371178 4.440805,3.568341 -0.556825,-2.427893 -4.4764048,-2.502739 z"
           color="#000000"
           opacity="0.769231"
           overflow="visible"
           style="fill:url(#v);marker:none"
           id="path35" />
        <g
           transform="matrix(1.0969,0,0,1.50927,-4.216951,-12.11812)"
           id="g43">
          <path
             fill="url(#w)"
             fill-rule="evenodd"
             stroke="url(#x)"
             stroke-linecap="round"
             stroke-width="1.47668"
             d="M 23.75,14 C 21.81001,14.04917 20.013366,14.683436 18.5,15.6875 18.13319,15.264088 17.60375,15 17,15 c -0.0345,0 -0.08734,8.54e-4 -0.125,0 -0.02799,-2e-4 -0.06855,-0.0026 -0.09375,0 C 15.773145,15.102481 15,15.965001 15,17 c 0,0.60375 0.264088,1.13319 0.6875,1.5 C 14.639107,20.080181 14,21.962011 14,24 c 0,2.033681 0.611921,3.921829 1.65625,5.5 C 15.243427,29.869532 15,30.401641 15,31 c 0,1.104 0.896,2.000001 2,2 0.60375,0 1.13319,-0.264089 1.5,-0.6875 C 20.080181,33.360893 21.962011,34 24,34 c 2.03799,0 3.919819,-0.639107 5.5,-1.6875 0.36681,0.423412 0.896251,0.687501 1.5,0.6875 1.103999,0 2,-0.895999 2,-2 0,-0.60375 -0.264088,-1.13319 -0.6875,-1.5 C 33.360893,27.919819 34,26.03799 34,24 34,21.962011 33.360893,20.080181 32.3125,18.5 32.735912,18.13319 33,17.60375 33,17 c 0,-1.104 -0.896001,-2 -2,-2 -0.0345,0 -0.08734,8.54e-4 -0.125,0 -0.02799,-2e-4 -0.06855,-0.0026 -0.09375,0 -0.504052,0.05124 -0.961951,0.298435 -1.28125,0.65625 -0.0067,-0.0044 -0.02455,0.0044 -0.03125,0 C 27.894622,14.620029 26.025064,14 24,14 c -0.08617,0 -0.164349,-0.0022 -0.25,0 z"
             color="#000000"
             overflow="visible"
             style="fill:url(#w);stroke:url(#x);marker:none"
             id="path36" />
          <path
             fill="url(#y)"
             fill-rule="evenodd"
             d="M 23.75,14 C 21.81001,14.04917 20.013366,14.683436 18.5,15.6875 18.13319,15.264088 17.60375,15 17,15 c -0.0345,0 -0.08734,8.54e-4 -0.125,0 -0.02799,-2e-4 -0.06855,-0.0026 -0.09375,0 C 15.773145,15.102481 15,15.965001 15,17 c 0,0.60375 0.264088,1.13319 0.6875,1.5 C 14.639107,20.080181 14,21.962011 14,24 c 0,2.033681 0.611921,3.921829 1.65625,5.5 C 15.243427,29.869532 15,30.401641 15,31 c 0,1.104 0.896,2.000001 2,2 0.60375,0 1.13319,-0.264089 1.5,-0.6875 C 20.080181,33.360893 21.962011,34 24,34 c 2.03799,0 3.919819,-0.639107 5.5,-1.6875 0.36681,0.423412 0.896251,0.687501 1.5,0.6875 1.103999,0 2,-0.895999 2,-2 0,-0.60375 -0.264088,-1.13319 -0.6875,-1.5 C 33.360893,27.919819 34,26.03799 34,24 34,21.962011 33.360893,20.080181 32.3125,18.5 32.735912,18.13319 33,17.60375 33,17 c 0,-1.104 -0.896001,-2 -2,-2 -0.0345,0 -0.08734,8.54e-4 -0.125,0 -0.02799,-2e-4 -0.06855,-0.0026 -0.09375,0 -0.504052,0.05124 -0.961951,0.298435 -1.28125,0.65625 -0.0067,-0.0044 -0.02455,0.0044 -0.03125,0 C 27.894622,14.620029 26.025064,14 24,14 c -0.08617,0 -0.164349,-0.0022 -0.25,0 z"
             color="#000000"
             overflow="visible"
             style="fill:url(#y);marker:none"
             id="path37" />
          <path
             fill="url(#z)"
             fill-rule="evenodd"
             stroke="url(#A)"
             stroke-linecap="round"
             stroke-width="0.838319"
             d="m 18.75,9.375 a 9.375,9.375 0 1 1 -18.75,0 9.375,9.375 0 1 1 18.75,0 z"
             color="#000000"
             overflow="visible"
             style="fill:url(#z);stroke:url(#A);marker:none"
             transform="matrix(0.84698,0,0,0.91141,16.71027,15.44956)"
             id="path38" />
          <path
             fill="url(#B)"
             fill-rule="evenodd"
             d="m 18.75,9.375 a 9.375,9.375 0 1 1 -18.75,0 9.375,9.375 0 1 1 18.75,0 z"
             color="#000000"
             overflow="visible"
             style="fill:url(#B);marker:none"
             transform="matrix(0.36727,0,0,0.32,18.56254,21.125)"
             id="path39" />
          <path
             fill="#2e3436"
             fill-rule="evenodd"
             d="m 17,16.5 a 0.5,0.5 0 1 1 -1,0 0.5,0.5 0 1 1 1,0 z"
             color="#000000"
             overflow="visible"
             style="marker:none"
             transform="matrix(1.3125,0,0,1.3125,-4.657679,-5.09375)"
             id="path40" />
          <path
             fill="#2e3436"
             fill-rule="evenodd"
             d="m 17,16.5 a 0.5,0.5 0 1 1 -1,0 0.5,0.5 0 1 1 1,0 z"
             color="#000000"
             overflow="visible"
             style="marker:none"
             transform="translate(15.22159,0.25)"
             id="path41" />
          <path
             fill="#2e3436"
             fill-rule="evenodd"
             d="m 17,16.5 a 0.5,0.5 0 1 1 -1,0 0.5,0.5 0 1 1 1,0 z"
             color="#000000"
             overflow="visible"
             style="marker:none"
             transform="translate(15.22159,14.96875)"
             id="path42" />
          <path
             fill="#2e3436"
             fill-rule="evenodd"
             d="m 17,16.5 a 0.5,0.5 0 1 1 -1,0 0.5,0.5 0 1 1 1,0 z"
             color="#000000"
             overflow="visible"
             style="marker:none"
             transform="matrix(1.375,0,0,1.375,-5.688929,8.8125)"
             id="path43" />
        </g>
        <path
           fill="none"
           stroke="url(#C)"
           stroke-linecap="round"
           stroke-width="1"
           d="m 36.087935,32.865672 c 0.917263,-2.164764 1.48099,-5.158083 1.48099,-8.437989 0,-3.279906 -0.563727,-6.273225 -1.48099,-8.437989"
           color="#000000"
           overflow="visible"
           style="display:none;stroke:url(#C);marker:none"
           id="path44" />
        <path
           fill="none"
           stroke="url(#D)"
           stroke-linecap="round"
           stroke-width="1"
           d="m 39.838951,35.702755 c 1.225673,-2.892618 1.978941,-6.892375 1.978941,-11.275077 0,-4.382702 -0.753268,-8.382459 -1.978941,-11.275077"
           color="#000000"
           overflow="visible"
           style="display:none;stroke:url(#D);marker:none"
           id="path45" />
        <path
           fill="none"
           stroke="url(#E)"
           stroke-linecap="round"
           stroke-width="1"
           d="m 43.487454,39.708054 c 1.661074,-3.920178 2.681929,-9.340788 2.681929,-15.28038 0,-5.939591 -1.020855,-11.360202 -2.681929,-15.2803792"
           color="#000000"
           overflow="visible"
           style="display:none;stroke:url(#E);marker:none"
           id="path46" />
      </g>
      <text
         xml:space="preserve"
         style="font-weight:bold;font-size:51.9285px;font-family:'Bitstream Vera Sans';-inkscape-font-specification:'Bitstream Vera Sans Bold';text-align:start;writing-mode:lr-tb;direction:ltr;text-anchor:start;display:inline;fill:#d06200;stroke-width:5.58472;stroke-linecap:round;stroke-linejoin:round;paint-order:stroke fill markers"
         x="100.16534"
         y="387.3718"
         id="text1"
         transform="scale(1.0079298,0.99213256)"><tspan
           sodipodi:role="line"
           id="tspan1"
           style="font-size:51.9285px;fill:#000000;fill-opacity:1;stroke-width:5.58472"
           x="100.16534"
           y="387.3718">AWR</tspan></text>
      <g
         id="g1-8"
         transform="matrix(0.93822948,0,0,0.92352463,48.274575,176.2393)"
         style="display:inline">
        <g
           id="g3-0">
          <g
             style="fill:none"
             id="g2-0"
             transform="translate(41.19478,128.11105)">
            <path
               d="M 117.514,1.21646 V 38.7835 h 5.634 V 1.21646 Z M 57.3221,0.57473 C 46.3463,0.574681 37.8303,8.56332 37.8303,20 c 0,11.9517 8.516,19.4255 19.4918,19.4253 C 68.2979,39.4251 76.8314,31.9517 76.8139,20 76.798,9.16418 68.2979,0.574779 57.3221,0.57473 Z M 71.1901,20 c 0,8.4666 -6.2089,14.0774 -13.868,14.0774 -7.6591,0 -13.868,-5.6108 -13.868,-14.0774 0,-8.313 6.2089,-14.07735 13.868,-14.07735 7.6591,0 13.868,5.76435 13.868,14.07735 z M 0,3.39001e-6 V 38.7835 H 5.74992 V 13.1531 L 35.6298,40 V 31.9591 Z M 81.0513,20 101.961,38.7836 h 8.384 L 89.4038,20 110.345,1.21644 h -8.384 z M 170,38.7835 h -6.198 l -4.532,-8.3191 h -20.528 l -4.533,8.3191 h -6.198 l 7.506,-13.8659 h 20.805 L 145.948,5.64789 149.006,0 V 3.76291e-5 0 Z"
               fill="#005aff"
               id="path1-7" />
          </g>
          <g
             id="g7-9"
             transform="matrix(1.250422,0,0,1.250422,-363.17124,5.2646008)">
            <path
               style="fill:#0b71b9"
               d="m 408.14604,80.81807 c -3.24558,-10.309701 -6.10622,-19.307412 -6.35699,-19.994912 -0.28825,-0.790268 0.47238,-1.25 2.06813,-1.25 2.35638,0 2.83405,0.930103 7.18992,14 2.56621,7.7 4.81621,14 5,14 0.18378,0 2.43378,-6.3 5,-14 4.35586,-13.069897 4.83353,-14 7.18991,-14 1.58974,0 2.35946,0.462708 2.0794,1.25 -0.24457,0.6875 -3.08768,9.6875 -6.31802,20 -7.88728,25.179232 -7.92412,25.179222 -15.85235,-0.0051 z"
               id="path26-6"
               sodipodi:nodetypes="sssssssssss" />
            <path
               id="path31-7"
               style="fill:#f60000;fill-opacity:1"
               d="m 400.54102,17.65625 c -1.14659,0.0043 -2.29444,0.591243 -3.35547,1.763672 -2.01251,2.223792 -7.40799,18.001788 -16.29493,47.652344 -3.62663,12.099988 -7.03165,22.840522 -7.5664,23.867187 -1.49762,2.875267 -2.89958,0.827083 -9.83008,-14.367187 -3.38673,-7.424993 -6.58563,-13.950001 -7.10937,-14.5 -1.65159,-1.734402 10.13939,30.819633 11.8457,32.705078 2.28259,2.522227 5.82818,2.232468 8.10351,-0.660156 2.02765,-2.57774 8.84646,-22.866291 17.7793,-52.898438 2.92101,-9.820373 5.57072,-18.115643 5.88867,-18.433594 0.31795,-0.317949 0.95439,-0.157863 1.41407,0.355469 0.79919,0.892471 8.13086,20.451752 8.13086,21.691406 0,0.319704 -2.46283,0.929399 -5.50782,1.376953 0.10078,-0.0839 0.0351,-0.186919 -0.24218,-0.298828 -0.6875,-0.277412 -1.81251,-0.277412 -2.5,0 -0.6875,0.277412 -0.125,0.50586 1.25,0.50586 0.0408,0 0.0642,-0.0055 0.10351,-0.0059 l -4.33398,0.617188 c -0.0136,-0.01962 -0.0206,-0.03821 -0.041,-0.05859 -0.33229,-0.332294 -1.19415,-0.366995 -1.91601,-0.07813 -0.79774,0.319227 -0.56143,0.555536 0.60351,0.603516 0.92005,0.0379 1.48802,-0.138189 1.39649,-0.404297 l 6.16406,0.480468 6.47656,0.501954 1.80664,4.5 c 1.23878,3.087507 1.6224,3.558338 1.22461,1.5 -0.31887,-1.649999 -0.81366,-3.787501 -1.09961,-4.75 -0.24703,-0.831504 0.0437,-1.270949 2.75977,-1.525391 -0.11173,0.02875 -0.22434,0.05065 -0.33203,0.09375 -0.79774,0.319227 -0.56143,0.555536 0.60351,0.603516 1.05417,0.04342 1.64479,-0.1931 1.3125,-0.525391 -0.12134,-0.121342 -0.31289,-0.201336 -0.54297,-0.242188 2.75062,-0.181852 7.28089,-0.253455 14.99805,-0.320312 l 19.31641,-0.167969 -19.5,-0.949219 -19.5,-0.949218 -3.25586,-12.060547 c -1.79074,-6.633666 -3.9973,-12.882539 -4.9043,-13.884766 -1.0538,-1.164433 -2.19912,-1.742617 -3.3457,-1.738281 z m 35.88476,28.027344 c -1.0875,-0.0018 -2.21265,0.05278 -3.11133,0.164062 -1.79735,0.222561 -0.56757,0.410416 2.73243,0.416016 3.3,0.0056 4.77022,-0.176123 3.26757,-0.404297 -0.75132,-0.114084 -1.80117,-0.173932 -2.88867,-0.175781 z m 18.1211,1.005859 c -0.81563,0 -1.63126,0.05856 -2.25,0.177735 -1.2375,0.238352 -0.225,0.433593 2.25,0.433593 2.47499,0 3.48749,-0.195241 2.25,-0.433593 -0.61875,-0.119177 -1.43438,-0.177735 -2.25,-0.177735 z" />
            <path
               id="path28-5"
               style="fill:#000000;fill-opacity:1"
               d="m 442.01521,58.697266 c -0.34739,-0.01431 -0.74453,0.04892 -1.10546,0.193359 -0.70695,0.282893 -0.59784,0.498709 0.24609,0.578125 -0.70633,0.24172 -1.33595,1.422395 -2.0293,3.353516 -3.82289,10.647484 -12.02929,35.181201 -12.02929,35.96289 0,0.509947 0.97745,0.783175 2.17187,0.607422 1.72209,-0.253397 2.67481,-1.830871 4.59961,-7.617187 l 2.42578,-7.296875 4.51953,0.242187 c -0.53537,0.02819 -1.04103,0.07222 -1.46679,0.136719 -1.5125,0.229124 -0.275,0.416016 2.75,0.416016 2.54222,0 3.81379,-0.132286 3.25976,-0.310547 l 2.04297,0.109375 2.58789,7.25 c 2.22422,6.229746 2.92061,7.25 4.95508,7.25 1.46411,0 2.19822,-0.477026 1.92383,-1.25 -0.24404,-0.6875 -3.32818,-9.683295 -6.85547,-19.992188 -4.30915,-12.593973 -6.55307,-18.155246 -8.23438,-18.833984 0.8831,-0.0042 1.35176,-0.224411 1.04883,-0.527344 -0.16614,-0.166147 -0.46315,-0.257175 -0.81055,-0.271484 z m 0.0176,11.875 c 0.64812,0 3.06446,6.597716 3.06446,8.367187 -10e-6,0.348689 -1.54784,0.632813 -3.43946,0.632813 h -3.43945 l 1.5332,-4.5 c 0.84331,-2.474998 1.87001,-4.5 2.28125,-4.5 z" />
          </g>
        </g>
      </g>
    </g>
    <g
       id="g25"
       transform="matrix(0.96874842,0,0,0.96874842,2.9832174,4.9451305)">
      <path
         id="rect15"
         style="fill:url(#radialGradient16);fill-rule:evenodd;stroke-width:5.31283;stroke-linecap:round;stroke-linejoin:round;stroke-dasharray:none;paint-order:stroke fill markers"
         d="m 162.28068,17.131718 6.77738,7.718687 c 14.83606,10.176161 40.05243,35.096719 46.35882,52.799059 -30.22806,-3.860408 -46.56567,3.040013 -62.92576,9.891727 -12.25281,-13.794148 20.14727,-48.441465 9.78956,-70.409473 z"
         sodipodi:nodetypes="ccccc" />
      <path
         id="rect16"
         style="fill:url(#radialGradient18);fill-rule:evenodd;stroke:url(#radialGradient20);stroke-width:8.17562;stroke-linecap:round;stroke-linejoin:round;stroke-dasharray:none;paint-order:stroke fill markers"
         d="m 154.0954,19.477065 c 26.62116,7.028338 58.21786,39.705383 61.08935,54.775615 -10.57275,-7.513474 -40.86995,-7.535453 -62.24463,-8.277256 5.26112,-5.771451 7.7788,-30.735109 1.15528,-46.498359 z"
         sodipodi:nodetypes="cccc" />
      <path
         id="rect20"
         style="fill:url(#linearGradient25);fill-rule:evenodd;stroke-width:5.82083;stroke-linecap:round;stroke-linejoin:round;paint-order:stroke fill markers"
         d="m 154.46507,21.289603 7.14008,0.594311 c 2.93924,11.484548 5.90595,25.163929 1.78202,39.604877 17.39684,-2.01662 38.85102,2.541784 50.19452,9.956123 l 0.37652,4.706517 c -10.27937,-10.991135 -27.67142,-11.007278 -59.70224,-9.724204 6.65045,-19.81034 4.06359,-35.945334 0.2091,-45.137624 z"
         sodipodi:nodetypes="ccccccc" />
    </g>
  </g>
</svg>
