<?xml version="1.0" encoding="UTF-8" standalone="no"?>
<!-- Created with Inkscape (http://www.inkscape.org/) -->

<svg
   width="256mm"
   height="256mm"
   viewBox="0 0 256 256"
   version="1.1"
   id="svg1"
   inkscape:version="1.4.2 (ebf0e940d0, 2025-05-08)"
   sodipodi:docname="audio-midi.svg"
   xmlns:inkscape="http://www.inkscape.org/namespaces/inkscape"
   xmlns:sodipodi="http://sodipodi.sourceforge.net/DTD/sodipodi-0.dtd"
   xmlns:xlink="http://www.w3.org/1999/xlink"
   xmlns="http://www.w3.org/2000/svg"
   xmlns:svg="http://www.w3.org/2000/svg"
   xmlns:rdf="http://www.w3.org/1999/02/22-rdf-syntax-ns#"
   xmlns:cc="http://creativecommons.org/ns#"
   xmlns:dc="http://purl.org/dc/elements/1.1/">
  <title
     id="title1">Multimedia File</title>
  <sodipodi:namedview
     id="namedview1"
     pagecolor="#ffffff"
     bordercolor="#000000"
     borderopacity="0.25"
     inkscape:showpageshadow="2"
     inkscape:pageopacity="0.0"
     inkscape:pagecheckerboard="0"
     inkscape:deskcolor="#d1d1d1"
     inkscape:document-units="mm"
     inkscape:zoom="0.41995632"
     inkscape:cx="639.35221"
     inkscape:cy="1048.9186"
     inkscape:current-layer="g26"
     showguides="true" />
  <defs
     id="defs1">
    <linearGradient
       id="linearGradient14"
       inkscape:collect="always">
      <stop
         style="stop-color:#9d9d9d;stop-opacity:0.76277173;"
         offset="0"
         id="stop21" />
      <stop
         style="stop-color:#898989;stop-opacity:0;"
         offset="1"
         id="stop22" />
    </linearGradient>
    <linearGradient
       id="linearGradient9"
       inkscape:collect="always">
      <stop
         style="stop-color:#a4a4a4;stop-opacity:0;"
         offset="0"
         id="stop10" />
      <stop
         style="stop-color:#9e9e9e;stop-opacity:0.62876189;"
         offset="0.36316207"
         id="stop14" />
      <stop
         style="stop-color:#9d9d9d;stop-opacity:0.66334069;"
         offset="0.47206032"
         id="stop26" />
      <stop
         style="stop-color:#9c9c9c;stop-opacity:0.68627453"
         offset="0.58095855"
         id="stop23" />
      <stop
         style="stop-color:#a5a5a5;stop-opacity:0;"
         offset="1"
         id="stop13" />
    </linearGradient>
    <linearGradient
       id="linearGradient4"
       inkscape:collect="always">
      <stop
         style="stop-color:#9e9e9e;stop-opacity:0.77528024;"
         offset="0"
         id="stop4" />
      <stop
         style="stop-color:#969696;stop-opacity:0;"
         offset="1"
         id="stop9" />
    </linearGradient>
    <linearGradient
       id="linearGradient24"
       inkscape:collect="always">
      <stop
         style="stop-color:#ffffff;stop-opacity:1;"
         offset="0"
         id="stop24" />
      <stop
         style="stop-color:#f8f8f8;stop-opacity:0;"
         offset="1"
         id="stop25" />
    </linearGradient>
    <linearGradient
       id="linearGradient18"
       inkscape:collect="always">
      <stop
         style="stop-color:#a3a3a3;stop-opacity:1;"
         offset="0"
         id="stop19" />
      <stop
         style="stop-color:#8a8a8a;stop-opacity:1;"
         offset="1"
         id="stop20" />
    </linearGradient>
    <linearGradient
       id="linearGradient16"
       inkscape:collect="always">
      <stop
         style="stop-color:#ffffff;stop-opacity:1;"
         offset="0"
         id="stop17" />
      <stop
         style="stop-color:#bbbbbb;stop-opacity:1;"
         offset="1"
         id="stop18" />
    </linearGradient>
    <linearGradient
       id="linearGradient15"
       inkscape:collect="always">
      <stop
         style="stop-color:#000000;stop-opacity:0.52193588;"
         offset="0"
         id="stop15" />
      <stop
         style="stop-color:#000000;stop-opacity:0;"
         offset="1"
         id="stop16" />
    </linearGradient>
    <linearGradient
       id="linearGradient12"
       inkscape:collect="always">
      <stop
         style="stop-color:#ffffff;stop-opacity:1;"
         offset="0"
         id="stop11" />
      <stop
         style="stop-color:#ffffff;stop-opacity:0.64274555;"
         offset="1"
         id="stop12" />
    </linearGradient>
    <linearGradient
       id="linearGradient6"
       inkscape:collect="always">
      <stop
         style="stop-color:#ffffff;stop-opacity:1;"
         offset="0"
         id="stop7" />
      <stop
         style="stop-color:#bbbbbb;stop-opacity:1;"
         offset="1"
         id="stop8" />
    </linearGradient>
    <linearGradient
       id="linearGradient5"
       inkscape:collect="always">
      <stop
         style="stop-color:#a3a3a3;stop-opacity:1;"
         offset="0"
         id="stop5" />
      <stop
         style="stop-color:#8a8a8a;stop-opacity:1;"
         offset="1"
         id="stop6" />
    </linearGradient>
    <radialGradient
       inkscape:collect="always"
       xlink:href="#linearGradient5"
       id="radialGradient6"
       cx="75.066299"
       cy="74.607521"
       fx="75.066299"
       fy="74.607521"
       r="97.430664"
       gradientTransform="matrix(1.8981695,0,0,2.1817088,-96.702979,-133.54183)"
       gradientUnits="userSpaceOnUse" />
    <radialGradient
       inkscape:collect="always"
       xlink:href="#linearGradient6"
       id="radialGradient8"
       cx="174.45174"
       cy="189.403"
       fx="174.45174"
       fy="189.403"
       r="92.707426"
       gradientTransform="matrix(3.6956033,0,0,4.275761,-470.25265,-610.78818)"
       gradientUnits="userSpaceOnUse" />
    <radialGradient
       inkscape:collect="always"
       xlink:href="#linearGradient12"
       id="radialGradient11"
       gradientUnits="userSpaceOnUse"
       gradientTransform="matrix(1.8180173,0,0,2.0895839,-87.463524,-122.50101)"
       cx="75.066299"
       cy="74.607521"
       fx="75.066299"
       fy="74.607521"
       r="97.430664" />
    <radialGradient
       inkscape:collect="always"
       xlink:href="#linearGradient15"
       id="radialGradient16"
       cx="189.09937"
       cy="54.03986"
       fx="189.09937"
       fy="54.03986"
       r="26.26236"
       gradientTransform="matrix(2.5421412,0.6811647,-0.53467756,1.9954438,-265.4871,-191.34864)"
       gradientUnits="userSpaceOnUse" />
    <radialGradient
       inkscape:collect="always"
       xlink:href="#linearGradient16"
       id="radialGradient18"
       cx="163.13307"
       cy="81.723709"
       fx="163.13307"
       fy="81.723709"
       r="28.42736"
       gradientTransform="matrix(1.9525628,-0.49137406,0.39129194,1.5548686,-183.5452,34.191671)"
       gradientUnits="userSpaceOnUse" />
    <radialGradient
       inkscape:collect="always"
       xlink:href="#linearGradient18"
       id="radialGradient20"
       cx="163.86221"
       cy="57.354431"
       fx="163.86221"
       fy="57.354431"
       r="26.811067"
       gradientTransform="matrix(1.7424858,-0.07965295,0.07021751,1.5360764,-129.82848,-12.432711)"
       gradientUnits="userSpaceOnUse" />
    <linearGradient
       inkscape:collect="always"
       xlink:href="#linearGradient24"
       id="linearGradient25"
       x1="168.39914"
       y1="59.019711"
       x2="182.49422"
       y2="47.129765"
       gradientUnits="userSpaceOnUse" />
    <radialGradient
       inkscape:collect="always"
       xlink:href="#linearGradient4"
       id="radialGradient9"
       cx="25.964643"
       cy="242.70813"
       fx="25.964643"
       fy="242.70813"
       r="10.821037"
       gradientTransform="matrix(1.3500924,0,0,1.1782891,-7.4889947,-42.382648)"
       gradientUnits="userSpaceOnUse" />
    <linearGradient
       inkscape:collect="always"
       xlink:href="#linearGradient9"
       id="linearGradient13"
       x1="119.62739"
       y1="227.97072"
       x2="119.62739"
       y2="256.21124"
       gradientUnits="userSpaceOnUse" />
    <radialGradient
       inkscape:collect="always"
       xlink:href="#linearGradient14"
       id="radialGradient22"
       cx="215.0412"
       cy="241.92787"
       fx="215.0412"
       fy="241.92787"
       r="10.821037"
       gradientTransform="matrix(1.2864395,0,0,1.3278689,-63.973477,-78.809529)"
       gradientUnits="userSpaceOnUse" />
  </defs>
  <metadata
     id="metadata1">
    <rdf:RDF>
      <cc:Work
         rdf:about="">
        <cc:license
           rdf:resource="http://creativecommons.org/publicdomain/zero/1.0/" />
        <dc:title>Multimedia File</dc:title>
        <dc:date>202507</dc:date>
        <dc:creator>
          <cc:Agent>
            <dc:title>Paper sheet by Jakub Steiner </dc:title>
          </cc:Agent>
        </dc:creator>
        <dc:publisher>
          <cc:Agent>
            <dc:title>Blackcrack</dc:title>
          </cc:Agent>
        </dc:publisher>
        <dc:description>Groundfile for Mimetype-files
202507 - Blackcrack - Rebuild the Sheet from  Jakub Steiner total fresh because the Code was buggy (oversize) because that i have must make it fresh with Inkscape 1.4.2 with same Design, now it's in the right size, also at the Icon Themeviewer in Plasma.
202507 finaly many Mimetypes for Tango! from Blackcrack</dc:description>
        <dc:contributor>
          <cc:Agent>
            <dc:title>Paper sheet by Jakub Steiner &lt;http://jimmac.musichall.cz&gt;
202507 Blackcrack : Mimetypes creating for tango!</dc:title>
          </cc:Agent>
        </dc:contributor>
      </cc:Work>
      <cc:License
         rdf:about="http://creativecommons.org/publicdomain/zero/1.0/">
        <cc:permits
           rdf:resource="http://creativecommons.org/ns#Reproduction" />
        <cc:permits
           rdf:resource="http://creativecommons.org/ns#Distribution" />
        <cc:permits
           rdf:resource="http://creativecommons.org/ns#DerivativeWorks" />
      </cc:License>
    </rdf:RDF>
  </metadata>
  <g
     id="g26"
     transform="matrix(1.0110135,0,0,1.0271114,5.1068557,-7.0669282)">
    <g
       id="g1">
      <g
         id="g27"
         inkscape:label="shadow"
         transform="matrix(0.9809334,0,0,0.9809334,5.1601093,4.6032445)">
        <rect
           style="fill:url(#linearGradient13);fill-rule:evenodd;stroke-width:1.476;stroke-linecap:round;stroke-linejoin:round;paint-order:stroke fill markers"
           id="rect2"
           width="184.84464"
           height="28.737843"
           x="27.673475"
           y="226.00008" />
        <rect
           style="fill:url(#radialGradient9);fill-rule:evenodd;stroke-width:1.476;stroke-linecap:round;stroke-linejoin:round;paint-order:stroke fill markers"
           id="rect3"
           width="21.580748"
           height="28.737839"
           x="6.1013594"
           y="226.00008" />
        <rect
           style="fill:url(#radialGradient22);fill-rule:evenodd;stroke-width:1.476;stroke-linecap:round;stroke-linejoin:round;paint-order:stroke fill markers"
           id="rect4"
           width="21.642075"
           height="28.737839"
           x="212.51927"
           y="226.00008" />
      </g>
      <g
         id="rect1"
         style="opacity:1"
         transform="matrix(0.96874842,0,0,0.96874842,2.9832174,4.9451305)">
        <path
           style="baseline-shift:baseline;display:inline;overflow:visible;fill:url(#radialGradient6);fill-rule:evenodd;stroke-width:1.00013;stroke-linecap:square;stroke-dasharray:none;paint-order:stroke fill markers;enable-background:accumulate;stop-color:#000000;stop-opacity:1"
           d="m 32.501748,15.190316 c -6.164423,0 -9.332052,2.390294 -9.332052,8.554717 V 232.87562 c 0,6.16442 2.390294,8.16605 8.554717,8.16605 H 211.78111 c 6.16442,0 9.33206,-2.3903 9.33206,-8.55472 V 77.24196 c 0,-7.769553 -48.54277,-62.051644 -67.51449,-62.051644 z m 1.943339,9.445313 H 153.59868 c 7.88599,0 57.28988,47.93445 57.28988,52.606331 v 152.52432 c 0,1.09493 -0.73319,1.83008 -1.82812,1.83008 H 34.445087 c -1.094929,0 -1.830078,-0.73515 -1.830078,-1.83008 V 26.465707 c 0,-1.094929 0.735149,-1.830078 1.830078,-1.830078 z"
           id="path4"
           sodipodi:nodetypes="ssssssssssssssssss" />
        <path
           style="baseline-shift:baseline;display:inline;overflow:visible;vector-effect:none;fill:url(#radialGradient8);fill-rule:evenodd;stroke-linecap:square;paint-order:stroke fill markers;enable-background:accumulate;stop-color:#000000;stop-opacity:1"
           d="m 35.95035,20.666336 h 126.97059 c 8.45031,0 51.8925,53.10732 51.8925,57.65975 V 228.63696 c 0,3.62968 -2.92208,6.55176 -6.55176,6.55176 H 35.95035 c -3.629676,0 -6.551762,-2.92208 -6.551762,-6.55176 V 27.218098 c 0,-3.629676 2.922086,-6.551762 6.551762,-6.551762 z"
           id="path5"
           sodipodi:nodetypes="sssssssss" />
        <path
           style="baseline-shift:baseline;display:inline;overflow:visible;opacity:1;fill:url(#radialGradient11);fill-rule:evenodd;stroke-width:0.957899;stroke-linecap:square;stroke-dasharray:none;paint-order:stroke fill markers;enable-background:accumulate;stop-color:#000000;stop-opacity:1"
           d="m 38.490307,20.672015 c -5.904124,0 -9.723771,1.698513 -9.700415,7.602591 l 0.798722,201.901844 c 0.0079,2.00188 2.542406,5.007 6.609957,5.007 H 208.01432 c 4.63265,0 7.40868,-4.18878 7.40868,-7.97377 V 79.352581 c 0,-7.441476 -40.78525,-58.680566 -63.90137,-58.680566 z m 113.031323,6.348757 c 18.21976,0 58.41027,42.155832 58.39934,52.331809 l -0.15572,145.031599 c -0.004,3.59404 -0.98481,4.99145 -5.14153,5.00212 -17.95655,-1.29577 -168.755024,-0.0767 -168.755024,-0.0767 L 35.586781,27.020772 Z"
           id="path11"
           sodipodi:nodetypes="sssssssssssssccs" />
      </g>
    </g>
    <g
       id="g38"
       transform="matrix(0.52478781,0,0,0.51656282,31.945228,56.711331)">
      <path
         id="path44-2"
         style="display:inline;fill:#cecece"
         d="m 150.07227,60.396484 c -0.13432,-0.256054 -0.22852,1.926957 -0.22852,5.845704 0,5.224994 0.16705,7.362497 0.37305,4.75 0.20599,-2.612498 0.20599,-6.887503 0,-9.5 -0.0515,-0.653125 -0.0998,-1.010352 -0.14453,-1.095704 z m -79.976567,2.703125 c -0.120195,-0.350947 -0.20395,3.630086 -0.203125,10.642579 0.0011,9.34999 0.15223,13.040672 0.335938,8.201171 0.183697,-4.8395 0.182903,-12.489509 -0.002,-17 -0.04621,-1.127622 -0.09079,-1.726767 -0.130859,-1.84375 z m 79.749997,15.38086 c -0.21894,-0.09436 -0.21378,0.302389 0.043,1.09375 0.32689,1.007482 0.59332,3.707485 0.59375,6 l 0.002,4.167969 5.9375,-0.06055 c 0.38592,0.09964 2.9298,0.170774 7.56054,0.171875 7.14999,0.0018 10.20564,-0.156886 6.79102,-0.351563 -0.44487,-0.02536 -1.14463,-0.02026 -1.66211,-0.03906 2.93719,-0.08107 5.71004,-0.165186 7.45508,-0.302735 -0.044,-0.147034 0.19529,-0.502742 0.73437,-1.166015 0.72502,-0.892047 1.17502,-3.114074 1,-4.9375 l -0.31836,-3.314453 h -13.5 c -7.77044,0 -13.85776,-0.424412 -14.34375,-1 -0.12159,-0.144006 -0.21999,-0.230265 -0.29297,-0.261719 z m 26.72071,10.679687 c 0.0129,0.04311 0.21363,-0.02645 0.28125,-0.02148 -0.0859,0.0072 -0.1911,0.01438 -0.28125,0.02148 z m 0.28125,-0.02148 c 1.30722,-0.109549 2.2961,-0.223845 2.41601,-0.34375 0.3619,-0.361901 -0.22927,-0.325014 -1.3125,0.08203 -0.67721,0.254474 -0.90959,0.27597 -1.10351,0.26172 z m -48.04688,-8.683594 c -2.88928,-0.04709 -6.48872,-0.03177 -10.89062,0.03711 l -18.197269,0.285156 c -9.912512,-0.142325 -18.013751,-0.169608 -18.367188,0.04883 -1.012037,0.625473 -1.173182,7.77213 -0.197265,8.748047 0.366666,0.366665 0.708012,0.667969 0.757812,0.667969 0.0498,0 -0.07073,-2.025003 -0.267578,-4.5 l -0.357422,-4.5 h 9.201172 9.201172 l -0.34961,4.25 -0.351562,4.25 h 11.689458 c 1.74869,0.05012 4.4791,0.08789 8.81054,0.08789 4.33144,0 7.06186,-0.03777 8.81055,-0.08789 h 9.1875 l 0.002,-4.089844 v -3.244141 c 0,0.641666 0.30777,0.860209 0.6836,0.484375 1.58327,-1.583278 -0.69739,-2.296222 -9.36524,-2.4375 z m -22.5039,0.419922 11.93554,0.140625 c 6.9754,0.08209 11.78891,0.220216 14.86524,0.445313 L 109.8457,80.927734 c -1.36412,-0.03136 -2.23017,-0.0263 -3.54882,-0.05273 z m 43.74023,0.982422 c -0.14939,-0.148242 -0.25586,1.116018 -0.25586,3.384766 0,3.024996 0.18885,4.262498 0.41797,2.75 0.22912,-1.512499 0.22912,-3.987502 0,-5.5 -0.0573,-0.378125 -0.11232,-0.585352 -0.16211,-0.634766 z M 43.400391,89.365234 c -0.347396,-0.01431 -0.744532,0.04892 -1.105469,0.19336 -0.797732,0.319226 -0.561426,0.555535 0.603516,0.603515 1.054165,0.04342 1.644791,-0.1931 1.3125,-0.52539 -0.166146,-0.166147 -0.463152,-0.257175 -0.810547,-0.271485 z m 243.460939,1.376954 0.16406,17.000002 c 0.0718,7.4731 0.4325,14.82772 0.86328,18.67578 l -0.14258,-0.67578 -0.13281,4.16797 c -0.0724,2.2925 -0.3905,4.99251 -0.70703,6 -0.29212,0.92979 -0.27358,1.11104 -0.0937,0.95703 l 0.25,10.875 c 0.10184,4.46007 0.40195,8.83887 0.72656,12.13086 l -0.0234,-0.13086 -0.14062,4.16797 c -0.0781,2.2925 -0.40222,4.99251 -0.71875,6 -0.29212,0.92979 -0.27358,1.11104 -0.0937,0.95703 l 0.23438,10.875 c 0.10003,4.65113 0.41997,9.1061 0.76367,12.19922 -0.65557,-2.16534 -0.96782,-1.00427 -0.54102,3.4375 0.40731,4.2389 0.16424,5.42452 -1.33594,6.52148 -0.39389,0.28803 -0.59034,0.52108 -0.76562,0.74023 -2.69537,0.42366 -8.16328,0.60157 -18.24805,0.60157 -11.80033,0 -19.55999,0.38917 -19.9375,1 -0.0478,0.0774 -0.17884,0.14822 -0.27734,0.22265 -0.30319,-0.37527 -1.9507,-0.72265 -4.72656,-0.72265 -2.91825,0 -4.88348,0.26205 -4.36524,0.58203 0.0834,0.0515 0.14996,0.39493 0.2207,0.66406 -0.15196,-0.45475 -0.3358,-0.75531 -0.56445,-0.90039 -1.61751,-1.02627 -18.50494,-1.11056 -19.13476,-0.0957 -0.25599,0.4125 3.81836,0.75 9.05468,0.75 h 9.52149 l 0.13672,9.79297 c 0.15891,11.45847 0.583,11.07903 -11.76368,10.53906 -4.18283,-0.18293 -7.60451,0.005 -7.60351,0.41797 10e-4,0.4125 -1.57305,0.75 -3.49805,0.75 -2.12517,0 -3.50662,0.49102 -3.51562,1.25 -0.0104,0.84999 -0.36003,0.76999 -1.09375,-0.25 -0.89739,-1.24751 -0.97867,-1.19142 -0.48438,0.33203 0.0518,0.15972 0.0967,0.52614 0.14844,0.75195 l -0.49023,3.91602 c -0.11976,0.9545 -0.18003,2.98964 -0.23633,5 h -14.63672 c -10.26891,0 -15.33245,-0.38321 -16.51758,-1.25 -0.29467,-0.21555 -1.41562,-0.38815 -3.30664,-0.53321 0.81207,0.0484 2.53773,0.0885 2.5918,0.14258 0.47876,0.47891 0.80713,-1.51318 0.74023,-4.5 l -0.12109,-5.35937 -4.83594,0.34961 -4.83789,0.34961 0.004,-0.0859 4.79493,-0.30664 4.79687,-0.30664 0.29688,-6.25 0.24023,-5.04297 c 0.0469,0.43783 0.19734,0.79297 0.4043,0.79297 0.24254,0 0.71867,-0.45 1.05859,-1 0.33991,-0.55 0.14106,-1 -0.4414,-1 -0.53168,0 -0.93063,0.39325 -1.00391,0.87695 l 0.041,-0.87695 5.20118,-0.15039 5.20312,-0.15039 -4.5,-0.59961 c -4.36194,-0.5814 -4.5,-0.70699 -4.5,-4.09961 0,-3.38426 0.14881,-3.52171 4.5,-4.15625 3.56541,-0.51995 3.35773,-0.55607 -1,-0.17578 -0.67328,0.0588 -3.80888,0.18604 -5.11914,0.26757 -1.07151,-0.24351 -8.88183,-0.43554 -18.89258,-0.43554 -10.91509,0 -19.31639,0.29495 -18.66797,0.65625 0.11766,0.0656 0.1945,0.31807 0.28711,0.49414 -0.20671,-0.33325 -0.45536,-0.57288 -0.79101,-0.75196 -2.69417,-1.43737 -29.54988,-1.14135 -30.46289,0.33594 -0.42,0.67958 -0.63516,2.70458 -0.48047,4.5 -0.15469,-1.79542 -0.008,-3.70792 0.32617,-4.25 0.39176,-0.63478 -6.44701,-0.98437 -19.21289,-0.98437 -10.890257,0 -19.573143,0.22539 -19.318359,0.5 -23.979653,-0.99437 -27.469685,-0.91024 -29.261719,0.0488 -0.05141,0.0275 -0.140392,0.0459 -0.197266,0.0723 -0.636692,-0.70739 -7.849746,-0.81431 -8.644531,-0.0195 -0.247047,0.24705 1.133593,0.50448 3,0.66016 -0.06322,-0.006 -0.13501,0.009 -0.197266,0.002 l -3.867187,-0.44922 0.316406,10.41016 0.314453,10.41015 -10.066406,-0.31836 c -5.537315,-0.1748 -10.067606,0.0211 -10.066406,0.4336 0.0012,0.4125 -1.9313583,0.75 -4.2949221,0.75 h -4.296875 l 0.15625,2.46875 -0.3007813,3.86523 c -0.3145013,4.0225 -0.6627493,4.73652 -2.07031248,4.24805 -1.31880318,-0.45767 -1.26320506,-0.25522 0.25,0.91601 0.90707078,0.70209 1.56759098,1.11273 1.91210938,1.27539 -0.4707542,-0.14378 -0.8535156,4.15125 -0.8535156,9.73047 0,5.67046 0.3302974,9.78903 0.734375,9.15235 0.07295,-0.11495 0.122224,-0.66298 0.1894531,-0.93164 l -0.234375,2.27539 h 13.40625 13.404297 v -6.5 -6.5 l 0.193359,6.75 0.191407,6.75 0.353515,-6.19922 0.355469,-6.19922 5.203125,-0.30078 c 4.991646,-0.2884 5.212645,-0.42298 5.421875,-3.30078 l 0.216797,-3 -1.050781,2.75 c -0.949954,2.48455 -1.526681,2.75 -5.96875,2.75 H 34.375 c 5.482986,0 6.107422,-0.7226 6.107422,-7.06836 v -3.9043 l 67.246098,-0.26172 c -63.015045,0.24671 -67.24481,0.37199 -67.230473,1.99805 0.01109,1.2578 0.237098,1.38834 0.818359,0.47266 0.638237,-1.00545 14.592908,-1.17228 68.234374,-0.81641 54.88471,0.36411 96.16517,1.38214 97.68164,2.41016 0.1375,0.0932 0.25,4.66992 0.25,10.16992 0,5.49999 0.225,10 0.5,10 0.20544,0 0.34911,-3.15046 0.42578,-7.07031 l 0.19532,7.07031 h 13.43945 13.43945 v -5.30078 c 0,6.86513 1.80254,6.90693 2.19727,0.0508 l 0.30273,-5.25 4.5,-0.5 c 4.34673,-0.48297 4.5046,-0.61921 4.64063,-4 0.10524,-2.61546 0.0253,-2.805 -0.31641,-0.75 -0.0915,0.5506 -0.19431,0.95483 -0.32422,1.30859 v -4.05859 -5.5 h 34 c -31.74434,0 -33.99557,0.1161 -33.92187,1.75 0.049,1.08599 0.27365,1.2657 0.59179,0.47461 0.40136,-0.99806 7.60346,-1.26411 33.17188,-1.22461 17.9621,0.0278 33.22398,0.0395 33.91601,0.0254 0.99903,-0.0203 1.20505,-11.71738 1,-56.77539 l -0.25781,-56.75 -13.5,-0.16602 -13.5,-0.16406 -0.56054,-16.83594 z M -1.5175781,101.24219 c -0.051616,0.0516 0.2511122,0.45697 0.87304685,1.25 0.75484385,0.9625 1.54234482,1.75 1.75000005,1.75 0.8230333,0 0.2926994,-0.82254 -1.37304692,-2.12891 -0.79302698,-0.62193 -1.19838438,-0.92271 -1.24999998,-0.87109 z m 89.6992191,1.03125 c -3.914333,0.0209 -6.765826,0.26411 -7.048829,0.71875 -0.256769,0.41273 3.39381,0.60242 8.111329,0.42187 4.717518,-0.18056 9.513916,0.13257 10.658203,0.69727 0.0603,0.0298 0.152866,0.0596 0.216796,0.0898 -0.0446,-0.0212 -0.11171,-0.0337 -0.154296,-0.0547 -1.109275,-0.54597 -5.834281,-0.86103 -10.5,-0.69921 l -8.482422,0.29492 -0.291016,8.91992 c -0.160284,4.90646 -0.06177,9.51897 0.21875,10.25 0.280522,0.73103 0.636254,1.33103 0.791016,1.33203 0.154761,0.001 0.138871,-4.4988 -0.03516,-10 l -0.316407,-10.00195 h 9.132813 9.132812 l -0.316406,9.83203 -0.316406,9.83398 4.369142,-0.082 c 0.11493,0.11967 0.64911,0.20857 1.63086,0.22071 1.65,0.0204 2.44656,-0.18702 1.76953,-0.46094 -0.0943,-0.0381 -0.26918,-0.0324 -0.38672,-0.0605 1.17563,-0.20279 2.11908,-0.46675 2.35157,-0.7832 0.40408,-0.55 0.742,-4.92568 0.75,-9.72266 l 0.0156,-8.7207 13.75,-0.3086 13.75,-0.31054 -14.25,-0.21875 c -10.82078,-0.16656 -14.26656,0.0821 -14.31836,1.03125 -0.0376,0.6875 -0.009,4.9625 0.0625,9.5 l 0.12891,8.25 h -0.043 l -0.1582,-9.36719 -0.15821,-9.36523 -6.63086,-0.62696 c -4.540364,-0.42889 -9.519261,-0.63026 -13.433593,-0.60937 z m 71.197269,0.0781 c -1.63125,-0.001 -3.30265,0.051 -4.61719,0.1543 -2.6291,0.20668 -0.72929,0.37786 4.2207,0.38086 4.95,0.003 7.1002,-0.16527 4.7793,-0.375 -1.16046,-0.10509 -2.75157,-0.1591 -4.38281,-0.16016 z m -123.023441,0.004 c -0.906249,-0.002 -1.849345,0.053 -2.609375,0.16797 -1.520062,0.22986 -0.513669,0.42364 2.236328,0.43164 2.749997,0.008 3.993608,-0.1806 2.763672,-0.41797 -0.614969,-0.11866 -1.484376,-0.17917 -2.390625,-0.18164 z m 87.212891,0 c -2.5375,5.3e-4 -5.03469,0.0506 -6.87891,0.14648 -3.68843,0.19186 -0.40702,0.34771 7.29297,0.34571 7.69999,-0.002 10.71859,-0.15931 6.70703,-0.34961 -2.00578,-0.0951 -4.58359,-0.14311 -7.12109,-0.14258 z m -67.894532,0.0937 -13.691406,0.20703 14,0.58594 c 2.103157,0.0881 2.095241,0.12923 3.908203,0.21679 -3.399663,-0.11743 -7.727199,-0.12352 -10.658203,0.043 -3.437497,0.19527 -0.624993,0.35352 6.25,0.35352 5.132096,0 7.987088,-0.0885 7.68164,-0.21485 2.576403,0.14302 7.042299,0.33788 7.126954,0.39454 0.169958,0.11376 0.03132,-0.24297 -0.308594,-0.79297 -0.373758,-0.60475 -6.028949,-0.91805 -14.308594,-0.79297 z m 191.000002,0.0195 -28.69141,0.22656 29,0.54688 c 4.11132,0.0774 3.98594,0.1201 7.55469,0.19922 -7.24948,-0.0789 -15.80841,-0.082 -21.80469,0.0527 -7.56249,0.16988 -1.37498,0.30859 13.75,0.30859 9.6668,0 15.12956,-0.0592 16.23828,-0.14453 4.64257,0.12659 13.49162,0.29965 13.57032,0.35742 0.16996,0.12479 0.0313,-0.22343 -0.3086,-0.77343 -0.39415,-0.63774 -11.01119,-0.91814 -29.30859,-0.77344 z m -67.19336,0.18555 13.56445,0.32226 13.56446,0.32227 -0.01,0.35156 -13.61719,-0.1875 c -7.69999,-0.10534 -14.62726,0.20752 -15.39453,0.69336 -0.26165,0.16567 -0.47592,0.43892 -0.64844,0.85742 -0.17251,0.41851 -0.3038,0.98234 -0.39648,1.72852 -0.0926,0.74566 -0.14775,1.67273 -0.16992,2.82031 0.0221,-1.14606 0.0771,-2.07517 0.16992,-2.82031 0.0927,-0.74444 0.22383,-1.31033 0.39648,-1.72852 0.17269,-0.41825 0.38657,-0.6916 0.64844,-0.85742 0.90515,-0.57314 -0.53688,-0.88477 -4.10547,-0.88477 -3.40661,0 -4.98921,0.32487 -4.1582,0.85157 0.24299,0.15401 0.44509,0.42601 0.60937,0.83398 -0.16052,-0.4086 -0.36176,-0.67705 -0.60937,-0.83398 -0.73792,-0.4677 -5.1668,-0.77369 -9.8418,-0.67969 l -8.5,0.17187 8.5,0.5625 8.5,0.56446 0.0703,7 c 0.0385,3.84999 0.35788,8.125 0.70899,9.5 0.41894,1.64066 0.87187,2.2148 2.74219,2.40625 -0.48437,0.20889 0.0552,0.38084 1.47851,0.39844 1.31071,0.0162 2.04416,-0.11423 1.9668,-0.30469 h 3.74805 l 0.14257,-9.5 0.14258,-9.5 14,-0.54297 13.61524,-0.52734 -0.30078,10.0996 c -0.17258,5.76041 0.0376,10.47366 0.46874,10.47266 0.4311,-0.001 0.6561,-4.83946 0.5,-10.75195 l -0.2832,-10.75 -13.75195,-0.0449 z m -9.53125,2.36718 c 0.47388,1.23021 0.6253,3.64139 0.52148,7.83594 -0.1074,4.33638 -0.14869,8.22227 -0.0918,8.63477 0.016,0.11567 0.15866,0.22222 0.36523,0.32031 l -0.72461,-0.0703 0.32422,-8.38477 c 0.17713,-4.59686 0.0725,-7.08846 -0.39453,-8.33594 z m -31.87305,1.75977 c -0.1317,-0.28301 -0.22461,2.12969 -0.22461,6.46094 0,5.77499 0.16714,8.13749 0.36914,5.25 0.202,-2.8875 0.202,-7.61251 0,-10.5 -0.0505,-0.72188 -0.10063,-1.1166 -0.14453,-1.21094 z m -193.994139,0.36719 c -0.130393,-0.39923 -0.222884,2.05625 -0.224609,6.59375 -0.0023,6.04999 0.160022,8.65257 0.361328,5.78515 0.201303,-2.86741 0.202955,-7.81742 0.0039,-11 -0.04976,-0.79564 -0.09716,-1.24583 -0.140625,-1.3789 z m 68,0 c -0.130393,-0.39923 -0.222884,2.05625 -0.224609,6.59375 -0.0023,6.04999 0.160022,8.65257 0.361328,5.78515 0.201303,-2.86741 0.202955,-7.81742 0.0039,-11 -0.04976,-0.79564 -0.09716,-1.24583 -0.140625,-1.3789 z m -10.003906,1.61523 c -0.1328422,-0.3712 -0.2285188,1.85352 -0.2304688,5.97852 -0.0026,5.49999 0.1638952,7.87726 0.3691407,5.2832 0.2052413,-2.59407 0.2065479,-7.09407 0.00391,-10 -0.05066,-0.72648 -0.098297,-1.13798 -0.1425781,-1.26172 z m 67.994141,0.63281 c -0.134309,-0.25605 -0.228516,1.92696 -0.228516,5.84571 0,5.22499 0.167049,7.36249 0.373047,4.75 0.205999,-2.6125 0.205999,-6.88751 0,-9.5 -0.0515,-0.65313 -0.09976,-1.01035 -0.144531,-1.09571 z m 148.000004,0 c -0.13432,-0.25605 -0.22852,1.92696 -0.22852,5.84571 0,5.22499 0.16705,7.36249 0.37305,4.75 0.20599,-2.6125 0.20599,-6.88751 0,-9.5 -0.0515,-0.65313 -0.0998,-1.01035 -0.14453,-1.09571 z m 58,0 c -0.13432,-0.25605 -0.22852,1.92696 -0.22852,5.84571 0,5.22499 0.16705,7.36249 0.37305,4.75 0.20599,-2.6125 0.20599,-6.88751 0,-9.5 -0.0515,-0.65313 -0.0998,-1.01035 -0.14453,-1.09571 z m -126.01368,0.20508 c -0.14246,-0.28632 -0.24504,1.25313 -0.24804,4.14063 -0.004,3.85 0.17362,5.54671 0.39453,3.77148 0.22085,-1.77523 0.22429,-4.92523 0.008,-7 -0.0541,-0.51869 -0.10681,-0.81667 -0.1543,-0.91211 z m 26.31836,0.42774 c -0.0131,1.06406 -0.0113,2.23604 0.0234,3.67968 l -0.002,-0.0684 c -0.0341,-1.41654 -0.0343,-2.56274 -0.0215,-3.61132 z m -1.17187,12.21289 h 1.40039 l 0.004,0.13476 z m 113.54883,8.28906 c 0.23634,0.76893 0.46207,1.44824 0.52343,0.79297 l -0.0586,1.41797 z m 4.13281,4.43945 c 1.22516,-0.005 2.71488,0.0279 4.52734,0.0918 -2.42623,-0.0855 -4.64339,-0.0761 -6.36133,-0.006 0.57331,-0.0344 1.07164,-0.0827 1.83399,-0.0859 z m -2.36914,0.11133 c -0.27699,0.0149 -0.46948,0.0377 -0.70899,0.0566 0.19766,-0.0258 0.48117,-0.0374 0.70899,-0.0566 z m -2.44727,0.54297 c 0.57736,0.34723 3.95692,0.61719 8.38672,0.61719 h 9.0918 l -0.28321,11.25 -0.2832,11.25 h -8.5 -8.5 l -0.58594,-11 -0.58007,-10.88086 c 0.10683,-0.0933 0.20615,-0.17343 0.49804,-0.61914 0.1666,-0.25438 0.43524,-0.44496 0.75586,-0.61719 z m -60.58789,0.72656 c -1.72187,0 -3.44375,0.0513 -4.75,0.1543 -2.6125,0.20599 -0.47499,0.375 4.75,0.375 5.225,0 7.3625,-0.16901 4.75,-0.375 -1.30625,-0.103 -3.02812,-0.1543 -4.75,-0.1543 z m -28.01953,0.0664 c -1.81137,-0.0154 -4.01929,3.1e-4 -6.69922,0.043 l -13.78125,0.21875 13.75,0.31054 13.75,0.3086 0.20313,9.2207 0.19336,8.81836 c -0.2586,0.1157 -0.61244,0.44468 -0.89649,0.9043 -0.33992,0.55 -0.14105,1 0.44141,1 0.58246,0 1.05859,-0.45 1.05859,-1 0,-0.55 -0.19886,-1 -0.4414,-1 -0.0332,0 -0.0938,0.0641 -0.13477,0.0801 l 0.32227,-7.9961 c 0.18677,-4.62901 0.10958,-9.01652 -0.17188,-9.75 -0.29854,-0.778 -2.15965,-1.11194 -7.59375,-1.1582 z m -144.289062,0.0312 -14.191406,0.20898 14.5,0.58399 c 3.2575,0.13118 3.582,0.19822 6.048828,0.32226 l -6.798828,-0.10351 c -8.979555,-0.13822 -14.25,0.15111 -14.25,0.78125 0,-0.55 -1.912502,-1.00291 -4.25,-1.00391 l -4.25,-0.002 0.320312,9.57031 0.320313,9.57031 2.056641,-0.1914 -2.121094,0.19922 -0.28711,-9.24024 c -0.202956,-6.50122 -0.667412,-9.31605 -1.564453,-9.49609 -0.701249,-0.14073 -0.813749,-0.0276 -0.25,0.25195 0.594166,0.29467 1.024928,4.57031 1.025391,10.17383 l 0.002,9.66797 1.849609,-0.0137 c -0.100609,0.16485 0.699916,0.28125 2.148438,0.28125 1.652503,0 2.389991,-0.15342 1.978516,-0.35547 2.4665,-0.1192 3.554699,-0.53362 3.617187,-1.44727 0.05513,-0.80606 0.168183,-5.16552 0.251953,-9.6875 l 0.152344,-8.2207 13.75,-0.3086 L 65.25,137.76367 c 1.358474,0.0841 4.983159,0.23058 5.041016,0.26953 0.169958,0.11443 0.03132,-0.24101 -0.308594,-0.79101 -0.375153,-0.607 -6.194545,-0.91925 -14.808594,-0.79297 z m 68.500002,0 -13.69141,0.20703 14,0.58594 c 3.33499,0.13967 3.74226,0.21371 6.19727,0.34375 l -6.11719,-0.12305 c -8.14353,-0.1634 -14.32791,0.12674 -14.90039,0.69922 -0.53823,0.53823 -0.88322,4.55693 -0.76758,8.93164 0.11564,4.37471 -0.22099,8.22114 -0.74805,8.54687 -0.27248,0.16841 -0.90064,0.23773 -1.67187,0.22657 1.86605,-0.26068 2.04167,-2.17143 2.14453,-8.30274 0.0752,-4.48033 0.40846,-8.5862 0.74024,-9.12304 0.35006,-0.56643 -1.17625,-1.05745 -3.63672,-1.16993 -2.33195,-0.1066 -8.458557,-0.41483 -13.615238,-0.68554 -5.156682,-0.27071 -9.749205,-0.12129 -10.205078,0.33203 -0.455874,0.45334 3.191217,0.68016 8.105468,0.50391 6.894945,-0.24729 9.447516,0.0381 11.177738,1.25 0.0114,0.008 0.0122,0.0116 0.0234,0.0195 -1.665296,-1.15481 -4.331601,-1.45652 -10.951168,-1.23829 l -8.77539,0.28907 -0.291016,8.91992 c -0.160284,4.90646 -0.06177,9.51897 0.21875,10.25 0.280522,0.73103 0.636254,1.33103 0.791016,1.33203 0.154761,10e-4 0.138871,-4.4988 -0.03516,-10 l -0.316407,-10.00195 h 9.132813 9.132812 l -0.316406,9.83203 -0.316406,9.83398 4.369142,-0.082 c 0.11493,0.11967 0.64911,0.20857 1.63086,0.22071 1.65,0.0204 2.44656,-0.18702 1.76953,-0.46094 -0.0943,-0.0382 -0.26918,-0.0324 -0.38672,-0.0606 1.17563,-0.20279 2.11908,-0.46675 2.35157,-0.7832 0.40408,-0.55 0.742,-4.93751 0.75,-9.75 l 0.0156,-8.75 h 13.96289 13.96485 l 0.34375,9.50195 0.34375,9.50195 -0.0586,-9.75195 -0.0547,-9.47656 c 0.009,0.003 0.30299,0.0151 0.30664,0.0176 0.16996,0.11376 0.0313,-0.24297 -0.3086,-0.79297 -0.37376,-0.60475 -6.02895,-0.91805 -14.30859,-0.79297 z m 139.4414,0.0879 c -6.73268,0.0791 -14.82644,0.3563 -20.63281,0.78906 l -4.5,0.33594 0.31836,9.31055 0.32031,9.31054 2.48243,-0.25195 -2.54493,0.29297 -0.28711,-9.29102 -0.28906,-9.29101 -9.5,-0.082 -9.5,-0.082 8.98047,0.58204 8.97852,0.58203 -0.3125,8.13867 c -0.19773,5.15973 0.0907,8.38988 0.78711,8.82031 0.60433,0.37348 0.90978,0.98489 0.67773,1.35938 -0.15276,0.24655 0.67748,0.3922 1.98828,0.45507 -0.10712,0.0201 -0.25349,0.012 -0.34961,0.0371 -0.9625,0.25153 -0.175,0.45704 1.75,0.45704 1.925,0 2.7125,-0.20551 1.75,-0.45704 -0.20787,-0.0543 -0.50319,-0.0512 -0.75586,-0.082 1.34473,-0.0222 2.62521,-0.0203 4.31446,-0.16211 0.44496,-0.0373 0.55466,-0.47803 0.24414,-0.98047 -0.29854,-0.483 -2.21182,-0.66955 -4.29102,-0.46289 l 3.23828,-0.33007 0.29688,-6.73633 c 0.15085,-3.41313 -0.12856,-6.62587 -0.61719,-7.66406 0.4915,0.94772 0.92702,3.50997 1.02148,6.41601 0.19151,5.89152 0.21864,5.81653 0.54297,-1.55859 l 0.33985,-7.74219 c -0.43527,0.11636 -0.99667,0.21887 -1.19727,0.35938 -0.76533,0.53605 -1.15637,1.01826 -1.23633,1.41796 -0.47821,-1.78407 3.87418,-2.56115 13.02735,-2.58203 -4.51298,0.0645 -8.60098,0.27869 -10.56836,0.79688 h 13.84961 c 8.47803,0 14.0722,0.39907 14.38281,1.02539 0.27957,0.56375 0.39328,0.45125 0.25195,-0.25 -0.17429,-0.86481 -5.45833,-1.39898 -11.50195,-1.58594 6.43173,0.0842 11.40851,-0.0951 11.00781,-0.49414 -0.36181,-0.3603 -5.73412,-0.47948 -12.4668,-0.40039 z m -15.52343,1.70508 h -0.0254 v 0.008 c 0.009,-0.002 0.016,-0.005 0.0254,-0.008 z m -91.91016,-1.48828 c -0.54375,7.4e-4 0.0133,0.048 1.80078,0.14062 2.19625,0.1138 4.5052,0.31012 6.54492,0.51758 -1.75031,-0.0422 -3.6952,-0.0244 -6.54492,0.0352 l -8.5,0.17773 9.5,0.55859 9.5,0.5586 0.12305,8.5 c 0.0672,4.67499 -0.24139,8.95831 -0.68359,9.51953 -0.46125,0.58538 1.15432,0.84545 4.125,0.87305 -0.50169,0.21131 0.23251,0.375 1.93554,0.375 1.69918,0 2.43407,-0.16244 1.93946,-0.37305 l 3.27539,-0.0547 0.14257,-9.41992 0.14258,-9.41992 h 13.75196 c 7.56301,0 13.75051,-0.3375 13.75,-0.75 -10e-4,-1.04986 -27.19671,-0.91377 -28.86719,0.14453 -0.37683,0.23873 -0.65418,0.92873 -0.88281,1.89453 0.22905,-0.97823 0.50612,-1.67807 0.88281,-1.92578 0.91154,-0.59944 -0.13071,-0.89563 -3.13477,-0.89063 -2.475,0.004 -8.775,-0.1414 -14,-0.32422 -2.6125,-0.0916 -4.25703,-0.13746 -4.80078,-0.13671 z m 12.46094,1.18359 2.50586,0.42578 -0.1836,8.18945 c -0.1006,4.50404 -0.13703,8.55682 -0.082,9.00586 0.009,0.0709 0.096,0.12452 0.16211,0.1836 h -0.49804 l 0.29882,-8.61328 c 0.20427,-5.91024 0.30774,-8.26742 -2.20312,-9.19141 z m -166.0449238,1.29883 -0.34375,9.48828 -0.34375,9.48633 -28.4648442,0.28906 -28.46289,0.28906 28.75,-0.0234 28.7499999,-0.0234 0.056641,-9.75196 z m 9.9843748,0.92969 c -0.129387,-0.30997 -0.220703,2.33242 -0.220703,7.07617 0,6.32499 0.160924,8.91249 0.359375,5.75 0.198451,-3.1625 0.198451,-8.33751 0,-11.5 -0.04961,-0.79063 -0.09554,-1.22285 -0.138672,-1.32617 z m 58.019531,0.0703 -0.345703,8.97461 -0.347656,8.97461 -13.464844,0.32226 -13.46289,0.32227 13.75,-0.0449 13.751953,-0.043 0.06055,-9.25196 z m 31.603518,0.006 c -0.21342,0 -0.39616,0.14039 -0.55078,0.43164 -0.15463,0.29125 -0.2814,0.73337 -0.38086,1.33789 -0.19892,1.20904 -0.29102,3.06588 -0.29102,5.66016 0,5.93248 0.19475,7.13618 1.55274,7.63085 l -1.55274,-0.31054 v -7.32031 -0.0547 c 0,-2.56708 0.0928,-4.40466 0.29102,-5.60547 0.0994,-0.60253 0.2262,-1.04719 0.38086,-1.33789 0.15485,-0.29107 0.33699,-0.43164 0.55078,-0.43164 z m -157.623049,0.90625 c -0.130393,-0.39923 -0.222884,2.05625 -0.224609,6.59375 -0.0023,6.04999 0.160022,8.65257 0.361328,5.78515 0.201303,-2.86741 0.202955,-7.81742 0.0039,-11 -0.04976,-0.79564 -0.09716,-1.24583 -0.140625,-1.3789 z m 273.990239,2.24804 c -0.13432,-0.25605 -0.22852,1.92696 -0.22852,5.84571 0,5.22499 0.16705,7.36249 0.37305,4.75 0.20599,-2.6125 0.20599,-6.88751 0,-9.5 -0.0515,-0.65313 -0.0998,-1.01035 -0.14453,-1.09571 z m 58,0 c -0.13432,-0.25605 -0.22852,1.92696 -0.22852,5.84571 0,5.22499 0.16705,7.36249 0.37305,4.75 0.20599,-2.6125 0.20599,-6.88751 0,-9.5 -0.0515,-0.65313 -0.0998,-1.01035 -0.14453,-1.09571 z m -126.01368,0.23047 c -0.14066,-0.20215 -0.24023,1.52149 -0.24023,4.61524 0,4.12499 0.17684,5.8125 0.39258,3.75 0.21575,-2.0625 0.21575,-5.4375 0,-7.5 -0.0539,-0.51563 -0.10546,-0.79785 -0.15235,-0.86524 z m 26.0586,3.7461 -0.13477,8.36914 h -1.16015 c 1.16559,-0.53047 1.19426,-2.10717 1.29492,-8.36914 z m -137.826174,8.24023 c -0.193105,0.075 -0.533285,0.0873 -0.761719,0.14258 0.228769,-0.0551 0.568385,-0.0675 0.761719,-0.14258 z m 86.191404,2.12891 c -7.59495,0 -13.60063,0.3375 -13.3457,0.75 0.25494,0.4125 6.26062,0.75 13.3457,0.75 7.08507,0 13.09077,-0.3375 13.3457,-0.75 0.25494,-0.4125 -5.75075,-0.75 -13.3457,-0.75 z m 68.50391,0 c -7.87051,0 -14.10183,0.3375 -13.84766,0.75 0.59644,0.96801 25.47377,0.95357 27,-0.0156 0.63631,-0.40408 -5.28183,-0.73437 -13.15234,-0.73437 z m 63.83789,0.27539 c -6.13757,-0.15121 -10.63757,0.0549 -10,0.45898 0.63756,0.40408 7.23321,0.66603 14.6582,0.58203 14.77616,-0.16724 12.78853,-0.61118 -4.6582,-1.04101 z m -236.341798,0.33398 c -1.540624,0 -3.081251,0.0529 -4.25,0.15821 -2.337498,0.21053 -0.424995,0.38281 4.25,0.38281 4.674995,0 6.587498,-0.17228 4.25,-0.38281 -1.168749,-0.10527 -2.709377,-0.15821 -4.25,-0.15821 z m 70,0 c -1.540624,0 -3.081251,0.0529 -4.25,0.15821 -2.337498,0.21053 -0.424995,0.38281 4.25,0.38281 4.674995,0 6.587498,-0.17228 4.25,-0.38281 -1.168749,-0.10527 -2.709377,-0.15821 -4.25,-0.15821 z m 67.999998,0 c -1.54062,0 -3.08125,0.0529 -4.25,0.15821 -2.3375,0.21053 -0.42499,0.38281 4.25,0.38281 4.675,0 6.5875,-0.17228 4.25,-0.38281 -1.16875,-0.10527 -2.70937,-0.15821 -4.25,-0.15821 z m 68,0 c -1.54062,0 -3.08125,0.0529 -4.25,0.15821 -2.3375,0.21053 -0.42499,0.38281 4.25,0.38281 4.675,0 6.5875,-0.17228 4.25,-0.38281 -1.16875,-0.10527 -2.70937,-0.15821 -4.25,-0.15821 z m 62.91016,4.32227 -0.0527,1.35742 -0.14062,3.71094 -0.16797,-0.9375 0.24219,-2.77344 z m 3.49414,6.29687 c 1.22516,-0.005 2.71488,0.0279 4.52734,0.0918 -2.34116,-0.0825 -4.44269,-0.0724 -6.13281,-0.0156 0.5211,-0.0266 0.93809,-0.0734 1.60547,-0.0762 z m -2.85352,0.13477 c -0.0408,0.003 -0.0754,0.005 -0.11523,0.008 0.0327,-0.004 0.0818,-0.004 0.11523,-0.008 z m -1.92968,0.49219 c 0.60278,0.35154 3.8477,0.71557 8.09375,0.85546 l 8.78515,0.28907 v 11 11 h -8.5 -8.5 l -0.58594,-11 -0.58007,-10.88086 c 0.10683,-0.0933 0.20615,-0.17343 0.49804,-0.61914 0.17394,-0.26559 0.4454,-0.46828 0.78907,-0.64453 z m -13.92969,0.66015 c -0.71562,0.009 -0.59271,0.40192 0.30859,0.98438 1.92112,1.24153 2.2673,1.24153 1.5,0 -0.33992,-0.55 -1.15355,-0.99238 -1.80859,-0.98438 z m -114.57617,0.0937 c -1.26875,10e-4 -2.49911,0.0575 -3.38672,0.16797 -1.77523,0.22091 -0.0785,0.39853 3.77148,0.39453 3.85,-0.004 5.30329,-0.18587 3.22852,-0.40234 -1.03739,-0.10827 -2.34454,-0.16161 -3.61328,-0.16016 z m 68.88476,0 c -1.35937,0 -2.71875,0.0542 -3.75,0.16211 -2.0625,0.21574 -0.37499,0.39258 3.75,0.39258 4.125,0 5.8125,-0.17684 3.75,-0.39258 -1.03125,-0.10787 -2.39062,-0.16211 -3.75,-0.16211 z m -36,0.004 c -2.44687,0 -4.89375,0.0483 -6.75,0.14453 -3.71249,0.19241 -0.67499,0.34961 6.75,0.34961 7.42499,0 10.4625,-0.1572 6.75,-0.34961 -1.85625,-0.0962 -4.30313,-0.14453 -6.75,-0.14453 z m -101.906248,0.10156 c -4.623857,-0.16537 -8.76638,0.056 -9.205078,0.49219 -0.438699,0.43613 3.343694,0.57155 8.40625,0.30078 l 9.205078,-0.49219 z m 172.626948,0.31445 c -0.63731,6e-5 -3.0957,0.0535 -7.2207,0.15821 -8.24999,0.20935 -15.675,0.46079 -16.5,0.55859 -1.23957,0.14699 -1.44407,1.79976 -1.17969,9.52149 l 0.32032,9.34375 3.67968,-0.30469 3.67969,-0.30664 0.0703,-8.26953 c 0.0173,-2.06215 0.13845,-3.95216 0.29493,-5.54883 -0.0521,1.53705 -0.0336,3.38174 0.10351,5.31836 l 0.53125,7.5 0.28906,-8.22266 0.29102,-8.22265 13.71094,-0.3086 13.70898,-0.30859 -13.62695,-0.21875 c -7.20417,-0.11596 -11.16587,0.007 -13.09961,0.42383 2.0318,-0.40732 6.39842,-0.79466 11.24219,-0.95508 3.15802,-0.1046 4.34239,-0.15826 3.70507,-0.15821 z m -226.470698,0.29688 -4.75,0.32812 0.318359,9.42188 0.310547,9.21875 -0.05664,-0.006 -0.285157,-9.06445 c -0.200762,-6.35957 -0.667916,-9.13881 -1.5625,-9.31836 -0.701249,-0.14073 -0.813749,-0.0276 -0.25,0.25195 0.596919,0.29603 1.025391,4.64876 1.025391,10.42383 v 9.91797 h 4.25 l 4.25,0.002 -0.195313,-9.75195 c -0.0968,-4.84929 -0.439677,-8.72328 -0.792968,-9.45508 0.143541,-0.18493 0.306037,-0.29492 0.505859,-0.29492 0.723399,0 1.466678,-0.45 1.650391,-1 0.201189,-0.60234 -1.556524,-0.871 -4.417969,-0.67383 z m 71.749998,0.17383 -4.75,0.0312 c -4.393963,0.0294 -4.604227,0.14185 -2.80859,1.5 0.64653,0.48901 0.98439,0.90272 1.03711,1.16992 -0.0803,-0.27874 -0.48569,-0.71857 -1.23047,-1.24024 -1.664041,-1.16549 -4.328445,-1.46904 -10.972658,-1.25 l -8.77539,0.28907 -0.503906,5.65625 c -0.27741,3.11146 -0.16491,5.44783 0.25,5.1914 0.41491,-0.25642 0.753906,-2.68871 0.753906,-5.40625 v -4.9414 h 9 9 v 9.33203 c 0,5.13332 0.299352,9.63333 0.666018,10 0.36667,0.36666 2.44024,0.66797 4.60742,0.66797 3.12095,0 3.78127,-0.30514 3.34375,-1.52149 l 0.19141,-9.72851 z m 65,0.0293 c -3.32897,0 -4.97907,0.33029 -4.18164,0.83594 0.23446,0.14867 0.43115,0.4279 0.59375,0.8457 -0.15958,-0.42034 -0.35599,-0.69494 -0.59375,-0.8457 -0.72462,-0.45947 -5.59336,-0.7551 -10.81836,-0.6582 l -9.5,0.17578 9.5,0.55859 9.5,0.5586 0.0703,7 c 0.0385,3.84999 0.38508,8.2375 0.76954,9.75 0.59466,2.33945 1.21842,2.75 4.17968,2.75 3.95634,0 4.33174,-1.41742 1.17188,-2 h 2.43164 l -0.20703,-8.60157 c -0.002,-0.0942 1.2e-4,-0.14773 -0.002,-0.24023 0.1182,4.58847 0.63816,8.4914 1.15625,8.67578 0.51836,0.18448 0.642,0.85948 0.27539,1.5 -0.36659,0.64053 -0.32212,0.85594 0.0996,0.47656 0.42172,-0.37937 0.83311,-4.87937 0.91211,-10 l 0.14258,-9.31054 14,-0.54297 14,-0.54297 -14,-0.19336 c -7.69297,-0.10524 -14.61373,0.20642 -15.39453,0.69336 0.90515,-0.57314 -0.53688,-0.88477 -4.10547,-0.88477 z m 48.50586,0.11719 c -1.62635,0.0351 -2.56864,0.12277 -2.43555,0.25586 0.26618,0.26618 4.33074,0.57018 9.03321,0.67383 l 8.55078,0.1875 -0.44727,7.71094 c -0.28152,4.86299 -0.008,8.52698 0.73828,9.92187 0.98118,1.83332 1.89944,2.16049 5.36915,1.90821 2.30214,-0.16739 3.96054,-0.73065 3.68554,-1.25 -0.275,-0.51935 -2.16962,-0.82317 -4.21094,-0.67579 l -3.71289,0.26758 -0.28711,-9.32422 -0.28906,-9.32226 -9.45703,-0.29102 c -2.60066,-0.0798 -4.91076,-0.0976 -6.53711,-0.0625 z m 25.70313,0.67188 c -0.29233,0.1 -0.53577,0.2094 -0.67383,0.33593 0.0178,-0.0264 0.0328,-0.12269 0.0508,-0.14062 0.0637,-0.0637 0.41546,-0.13017 0.62305,-0.19531 z m -77.79297,0.91211 c 0.4775,1.24273 0.65261,3.72037 0.58008,7.86914 -0.0755,4.34459 -0.10521,8.23789 -0.0664,8.65039 0.0103,0.10931 0.12812,0.21079 0.31055,0.30469 l -0.56055,-0.0547 0.22851,-8.40039 c 0.12286,-4.53018 -0.0178,-7.10295 -0.49218,-8.36914 z m -63.26563,0.16211 c 9.8e-4,-3.7e-4 0.003,0.0178 0.004,0.0176 -0.003,0.0129 -0.007,0.0198 -0.01,0.0332 0.002,-0.002 0.003,-0.0499 0.006,-0.0508 z m -104.5351538,0.10156 -0.34375,9.48828 -0.34375,9.48633 -28.4648442,0.28906 -28.46289,0.28906 28.75,-0.0234 28.7499999,-0.0234 0.056641,-9.75196 z m 274.0039038,1 -0.34765,9.05469 -0.34766,9.05273 -14.36914,-0.30078 c -7.90265,-0.16552 -14.15008,0.0492 -13.88477,0.47656 0.26531,0.4273 6.86039,0.65235 14.65625,0.5 l 14.17383,-0.27734 0.0606,-9.25391 z m -237.515622,0.0859 c -0.338172,4.03396 -0.180667,14.98728 0.394531,15.91796 0.198462,0.32112 -1.164706,0.40541 -3.03125,0.1875 l -1.587891,-0.18554 h 1.251953 2.992188 l -0.208985,-8.75 c -0.08835,-3.6736 -0.03164,-5.86176 0.189454,-7.16992 z m 62.697262,0.26757 c -0.0424,0.0599 -0.0979,0.0415 -0.13672,0.12305 0.0385,-0.0783 0.0946,-0.0648 0.13672,-0.12305 z m 105.79492,0.17383 c -0.13274,-0.3712 -0.22821,1.85352 -0.23046,5.97852 -0.003,5.49999 0.16389,7.87726 0.36914,5.2832 0.20551,-2.59407 0.20654,-7.09407 0.004,-10 -0.0507,-0.72648 -0.0983,-1.13798 -0.14258,-1.26172 z m -262.996089,0.38477 c -0.130393,-0.39923 -0.222884,2.05625 -0.224609,6.59375 -0.0023,6.04999 0.160022,8.65257 0.361328,5.78515 0.201303,-2.86741 0.202955,-7.81742 0.0039,-11 -0.04976,-0.79564 -0.09716,-1.24583 -0.140625,-1.3789 z m 68,0 c -0.130393,-0.39923 -0.222884,2.05625 -0.224609,6.59375 -0.0023,6.04999 0.160022,8.65257 0.361328,5.78515 0.201303,-2.86741 0.202955,-7.81742 0.0039,-11 -0.04976,-0.79564 -0.09716,-1.24583 -0.140625,-1.3789 z m 88.947269,0.0117 c -0.3619,1.13601 -0.54688,3.38731 -0.54688,7.14843 0,-3.81381 0.18046,-6.02972 0.54688,-7.14843 z m 48.96484,0.90039 c -0.17095,-0.17734 -0.30111,0.44414 -0.31641,1.68164 -0.0204,1.65 0.18702,2.44656 0.46094,1.76953 0.27397,-0.67704 0.29065,-2.02704 0.0371,-3 -0.0634,-0.24324 -0.12466,-0.39206 -0.18164,-0.45117 z m -109.927734,0.95117 c -0.137266,-0.2291 -0.234375,1.72422 -0.234375,5.23047 0,4.67499 0.172278,6.5875 0.382813,4.25 0.210535,-2.3375 0.210535,-6.1625 0,-8.5 -0.05263,-0.58438 -0.102682,-0.9041 -0.148438,-0.98047 z m 178.000004,0 c -0.13727,-0.2291 -0.23438,1.72422 -0.23438,5.23047 0,4.67499 0.17228,6.5875 0.38281,4.25 0.21054,-2.3375 0.21054,-6.1625 0,-8.5 -0.0526,-0.58438 -0.10268,-0.9041 -0.14843,-0.98047 z m -110.54883,4.76953 0.58008,8.92187 c -0.006,-0.0171 -0.001,-0.0255 -0.008,-0.043 -0.30092,-0.78422 -0.52557,-4.68001 -0.57226,-8.87891 z m -28.492189,0.25977 c -0.623678,-0.0716 -1.550087,-0.0656 -2.626953,0.0371 -2.153734,0.20539 -3.916016,0.55231 -3.916016,0.76954 0,0.74485 6.882172,0.39397 7.357422,-0.375 0.130597,-0.21133 -0.190776,-0.36006 -0.814453,-0.43164 z m 65.326169,0.32031 c -0.725,-0.004 -1.48546,0.0542 -2.10742,0.17383 -1.24391,0.2392 -0.46172,0.44397 1.73828,0.45507 2.20005,0.0111 3.21781,-0.18524 2.26172,-0.43554 -0.47804,-0.12516 -1.16758,-0.1897 -1.89258,-0.19336 z m -4.35742,1.72656 c -0.16399,-0.0943 -0.2793,0.71055 -0.2793,2.1543 0,1.925 0.20551,2.7125 0.45704,1.75 0.25152,-0.9625 0.25152,-2.5375 0,-3.5 -0.0629,-0.24063 -0.12308,-0.37285 -0.17774,-0.4043 z m -68.974609,2.35352 c -0.159025,-0.20165 -0.276831,0.65078 -0.285156,2.30078 -0.0111,2.19996 0.185254,3.21781 0.435547,2.26172 0.250292,-0.95608 0.258724,-2.75608 0.01953,-4 -0.0598,-0.31098 -0.116913,-0.49529 -0.169921,-0.5625 z m 34.335939,2.85937 c -0.0167,0.0223 -0.0274,0.0593 -0.0449,0.0801 -0.40675,0.48138 -1.04955,0.55938 -2.07813,0.67773 1.02327,-0.11774 1.66594,-0.20182 2.07813,-0.67773 0.0178,-0.0206 0.028,-0.058 0.0449,-0.0801 z m 33.41992,1.31641 c -0.18125,0.0799 -0.29297,0.27517 -0.29297,0.5664 0,0.58246 0.45,1.0586 1,1.0586 0.55,0 1,-0.19887 1,-0.44141 0,-0.24254 -0.45,-0.71867 -1,-1.05859 -0.275,-0.16996 -0.52578,-0.20493 -0.70703,-0.125 z m 49.04883,1.39062 c -5.03677,-0.14655 -8.94814,0.0719 -8.69141,0.48438 0.25674,0.4125 6.40317,0.66941 13.65821,0.57031 13.40759,-0.18321 11.57397,-0.57345 -4.9668,-1.05469 z m -166.445314,0.34375 c -1.631248,-0.001 -3.302641,0.051 -4.617187,0.1543 -2.629093,0.20668 -0.729292,0.37786 4.220703,0.38086 4.949995,0.003 7.100199,-0.16527 4.779297,-0.375 -1.160452,-0.10509 -2.751564,-0.1591 -4.382813,-0.16016 z m 205.103514,0 c -1.54062,0 -3.08125,0.0529 -4.25,0.15821 -2.3375,0.21053 -0.42499,0.38281 4.25,0.38281 4.675,0 6.5875,-0.17228 4.25,-0.38281 -1.16875,-0.10527 -2.70937,-0.15821 -4.25,-0.15821 z m -72.08789,0.004 c -2.35625,-5.5e-4 -4.7534,0.0481 -6.62109,0.14453 -3.73537,0.19292 -0.94101,0.35152 6.20898,0.35352 7.14999,0.002 10.20564,-0.1569 6.79102,-0.35157 -1.70731,-0.0973 -4.02266,-0.14593 -6.37891,-0.14648 z m -69.826171,0.002 c -2.537497,5.4e-4 -5.034689,0.0486 -6.878906,0.14453 -3.688433,0.19186 -0.407023,0.34771 7.292969,0.34571 7.699992,-0.002 10.71859,-0.15931 6.707031,-0.34961 -2.005779,-0.0951 -4.583596,-0.14116 -7.121094,-0.14063 z m 204.849611,3.77149 -0.0508,1.40234 c -0.066,1.84086 -0.1384,2.28265 -0.28907,1.90234 l 0.19532,-1.90234 z m -332.000001,8.23632 c -4.531246,-1.8e-4 -9.104697,0.0428 -12.626953,0.12891 -7.044511,0.17214 -1.55858,0.31384 12.191406,0.31445 13.749986,6.1e-4 19.514069,-0.1417 12.808594,-0.31445 -3.352738,-0.0863 -7.841802,-0.12872 -12.373047,-0.12891 z m 339.158201,0.084 8.40625,0.29297 0.2832,11.27929 0.28321,11.2793 -29.53321,-0.2793 c -16.15496,-0.15272 -29.33901,0.0568 -29.48242,0.46485 l -0.26367,-8.98633 -0.20117,-6.85547 c 0.16899,1.19261 0.31132,2.71715 0.48047,5.10352 l 0.5664,7.99414 0.1836,-9.25 0.18359,-9.25 h 19.30078 c 12.06353,0 19.68988,-0.39106 20.3418,-1.04297 0.60903,-0.60903 4.54204,-0.92109 9.45117,-0.75 z m -267.087889,0.16797 -8.753906,0.0625 -8.751953,0.0625 -0.05273,10 -0.05274,10 0.337891,-9.71289 0.335937,-9.71094 8.46875,-0.34961 z m 11.994141,1.57031 14.25,0.27734 14.25,0.27735 v 10 10 l -14.25,0.27734 -14.25,0.27735 V 216.7424 Z m 68.499998,0.20312 14,0.17579 14,0.17578 v 10 10 l -18.77344,0.27148 c -20.814244,0.30175 -20.113663,0.53249 -19.542964,-6.41601 0.30955,-3.76892 0.417084,-3.86665 4.816404,-4.35547 l 4.5,-0.5 0.5,-4.67578 z m 30.20508,0.66993 c 0.0806,0.20633 0.14875,0.4891 0.20703,0.80664 -0.0668,-0.26976 -0.11068,-0.6165 -0.20703,-0.80664 z m 97.67578,0.0176 c 0.0583,0.25079 0.1103,0.53975 0.1582,0.92383 -0.0532,-0.30308 -0.0892,-0.70026 -0.1582,-0.92383 z m 2.11914,0.4004 3,0.63671 c 0.0109,0.002 0.0145,0.006 0.0254,0.008 l -0.0254,-0.006 z m -21.91601,3.5332 c -0.13727,-0.2291 -0.23438,1.72422 -0.23438,5.23047 0,4.67499 0.17228,6.5875 0.38281,4.25 0.21054,-2.3375 0.21054,-6.1625 0,-8.5 -0.0526,-0.58438 -0.10268,-0.9041 -0.14843,-0.98047 z m -240.583988,4.3457 c -0.815624,0 -1.631251,0.0586 -2.25,0.17774 -1.237499,0.23835 -0.224998,0.43359 2.25,0.43359 2.474997,0 3.487499,-0.19524 2.25,-0.43359 -0.61875,-0.11918 -1.434376,-0.17774 -2.25,-0.17774 z m 121.804687,0.70899 c -0.05357,0.14989 -0.126819,0.25037 -0.173828,0.42578 -0.308329,1.15053 -0.460998,2.66386 -0.529297,4.18945 0.05871,-2.08458 0.225109,-3.6799 0.703125,-4.61523 z m 77.195311,0.0547 v 5.56055 c 0,5.4029 -0.0779,5.55982 -2.75,5.54492 -4.41828,-0.0246 -5.41249,-1.21952 -5.06445,-6.08398 0.30753,-4.29836 0.40182,-4.40781 4.06445,-4.71094 z m -77.960936,5.89258 c 0.0028,1.56377 0.165915,2.94035 0.427735,3.97071 -0.41344,-0.87325 -0.436707,-2.05793 -0.4375,-3.74219 -4.5e-5,-0.0949 0.0095,-0.13577 0.0098,-0.22852 z m 148.011716,5.48438 c 0.14392,0.40948 13.53765,0.74414 29.94922,0.74414 h -29.92773 z m -106.55078,0.24414 -19.92773,0.27148 c -1.22785,0.0167 -1.73624,0.005 -2.82813,0.0195 0.97845,-0.0114 1.53035,-0.007 2.6211,-0.0215 z m -34.58984,0.27343 c 1.06146,0.0314 1.97801,0.0736 3.46289,0.0781 -1.24786,-0.009 -2.50697,-0.0358 -3.46289,-0.0781 z m -94.462892,1.75977 c -0.431974,0.30235 -1.2952352,0.4668 -2.742188,0.4668 H 8.130859 c 1.1977481,0 2.205818,-0.19281 2.798829,-0.4668 z m 199.503902,2.88672 c -0.0491,0.52249 -0.0927,1.04345 -0.125,1.83008 l -0.17578,4.25 -0.19726,-1.73828 c 0.0668,-0.38788 0.13211,-0.87753 0.27929,-2.51172 0.0706,-0.78396 0.14154,-1.3084 0.21875,-1.83008 z m -207.1777306,1.36719 0.054687,0.84961 c 0.1207241,1.89593 0.1192946,3.51586 0.027344,4.62304 0.02219,-1.03888 0.013792,-2.44829 -0.035156,-4.00976 z m 1.2167968,0.14062 -0.4101562,7.82227 c -0.1073154,2.03987 -0.1979009,2.92119 -0.3164062,4.89258 0.1226871,-2.95423 0.182594,-5.72022 0.390625,-8.39258 z m 164.0644538,3.08594 c 1.5749,0.0333 2.52639,0.0711 3.62109,0.10937 -0.8472,-0.0468 -2.50413,-0.0709 -3.62109,-0.10937 z m -182.142579,1.09961 c -2.356247,-5.5e-4 -4.753409,0.0481 -6.621093,0.14453 -3.735371,0.19292 -0.941009,0.35152 6.208984,0.35352 7.1499925,0.002 10.2056386,-0.1569 6.7910155,-0.35157 -1.7073118,-0.0973 -4.0226585,-0.14593 -6.3789065,-0.14648 z m 251.662109,10.45508 c -0.90138,0.37323 -1.54008,0.94606 -1.92969,1.8789 0.16892,-0.57137 0.35027,-1.04363 0.55469,-1.24804 0.23685,-0.23686 0.75962,-0.44433 1.375,-0.63086 z" />
      <path
         style="display:none;fill:#8f8f8f"
         d="m 183.98251,238.5722 c 12.14721,-0.72774 24.27689,-0.76867 23.84866,-0.0805 -0.25668,0.4125 -6.85264,0.66676 -14.65768,0.56502 -7.80504,-0.10174 -11.94098,-0.31978 -9.19098,-0.48453 z m -6.76004,-14.03703 c 0.56138,-7.89958 1.08891,-8.93738 1.16578,-2.29346 0.035,3.025 -0.30562,6.08206 -0.75693,6.79346 -0.45796,0.72188 -0.63863,-1.26669 -0.40885,-4.5 z m 30.51207,4.70654 c 0.28443,-1.05524 1.86366,-1.53192 5.32614,-1.60765 l 4.92183,-0.10766 -4.48358,0.42657 c -2.46596,0.23461 -4.86272,0.95806 -5.32613,1.60766 -0.58253,0.81658 -0.71778,0.71816 -0.43826,-0.31892 z M 4.2325058,227.53598 c 1.2375,-0.23835 3.2625,-0.23835 4.5,0 1.2375,0.23835 0.225,0.43337 -2.25,0.43337 -2.475,0 -3.4875,-0.19502 -2.25,-0.43337 z M 180.73251,215.55239 c 0.9625,-0.25153 2.5375,-0.25153 3.5,0 0.9625,0.25153 0.175,0.45732 -1.75,0.45732 -1.925,0 -2.7125,-0.20579 -1.75,-0.45732 z m -198.95034,-5.31068 c 0,-3.025 0.187466,-4.2625 0.41659,-2.75 0.229125,1.5125 0.229125,3.9875 0,5.5 -0.229124,1.5125 -0.41659,0.275 -0.41659,-2.75 z m 205.85823,0 c 0,-1.375 0.22697,-1.9375 0.50439,-1.25 0.27741,0.6875 0.27741,1.8125 0,2.5 -0.27742,0.6875 -0.50439,0.125 -0.50439,-1.25 z M 37.982506,205.09747 c 3.779915,-0.69975 34.68624,-0.99112 31.5,-0.29696 -0.825,0.17973 -9.15,0.48668 -18.5,0.68212 -9.35,0.19543 -15.2,0.0221 -13,-0.38516 z m 33.583333,0.76636 c 0.229167,-0.20783 15.491667,-0.59604 33.916671,-0.86268 22.30798,-0.32283 27.65342,-0.23828 16,0.25307 -19.40229,0.81808 -50.56619,1.19867 -49.916671,0.60961 z m 77.666671,-0.36718 c 5.0875,-0.18149 13.4125,-0.18149 18.5,0 5.0875,0.18149 0.925,0.32998 -9.25,0.32998 -10.175,0 -14.3375,-0.14849 -9.25,-0.32998 z m 93.75,-0.38595 c 4.84149,-0.67178 43.5231,-0.96842 40.5,-0.31058 -0.825,0.17953 -11.4,0.47895 -23.5,0.66539 -12.1,0.18643 -19.75,0.0268 -17,-0.35481 z m -63.75,-0.57472 c 1.2375,-0.23835 3.2625,-0.23835 4.5,0 1.2375,0.23835 0.225,0.43337 -2.25,0.43337 -2.475,0 -3.4875,-0.19502 -2.25,-0.43337 z m 44.5,-0.0293 c 2.6125,-0.206 6.8875,-0.206 9.5,0 2.6125,0.20599 0.475,0.37454 -4.75,0.37454 -5.225,0 -7.3625,-0.16855 -4.75,-0.37454 z m 62.73173,-5.56328 0.48173,-5.20169 0.3324,4.38587 c 0.18283,2.41222 -0.034,4.75298 -0.48173,5.20168 -0.44777,0.44871 -0.59736,-1.52493 -0.3324,-4.38586 z m -250.231734,-6.40152 4.25,-0.41516 0.01531,-9.6925 c 0.0084,-5.33088 0.460691,-10.36751 1.005043,-11.19251 0.675697,-1.02406 0.908808,2.14887 0.734688,10 l -0.255044,11.5 -5,0.10766 c -4.48837,0.0967 -4.565115,0.0652 -0.75,-0.30749 z m 68.179734,-0.006 c 2.31033,-0.23576 4.1356,-1.00955 4.40564,-1.8677 0.29554,-0.93919 0.40475,-0.8299 0.30421,0.30443 -0.1217,1.37312 -1.10878,1.79158 -4.40563,1.86769 l -4.2488,0.0981 z m 66.32027,-0.01 c 1.5125,-0.22912 3.9875,-0.22912 5.5,0 1.5125,0.22912 0.275,0.41659 -2.75,0.41659 -3.025,0 -4.2625,-0.18747 -2.75,-0.41659 z m 69.01375,-0.001 c 1.52006,-0.22985 3.77006,-0.22371 5,0.0136 1.22993,0.23737 -0.0138,0.42543 -2.76375,0.41792 -2.75,-0.008 -3.75632,-0.20171 -2.23625,-0.43157 z m 46.10148,-9.78242 c 0.003,-5.5 0.17053,-7.62241 0.37317,-4.71647 0.20264,2.90593 0.20051,7.40593 -0.005,10 -0.20525,2.59406 -0.37105,0.21647 -0.36844,-5.28353 z m -147.36523,4.05902 c 0,-1.89254 0.34578,-3.65469 0.7684,-3.91588 0.42262,-0.2612 0.60036,1.28725 0.39496,3.44098 -0.46113,4.83542 -1.16336,5.12208 -1.16336,0.4749 z m -29.65059,-6.55902 c 0,-4.675 0.17226,-6.5875 0.38279,-4.25 0.21054,2.3375 0.21054,6.1625 0,8.5 -0.21053,2.3375 -0.38279,0.425 -0.38279,-4.25 z m -29.367684,-3.29831 0.48173,-5.20169 0.332406,4.38587 c 0.182824,2.41222 -0.03396,4.75298 -0.48173,5.20168 -0.447775,0.44871 -0.597358,-1.52493 -0.332406,-4.38586 z m 68.860454,0 c 0.1882,-2.86093 0.6382,-5.51744 1,-5.90337 0.3618,-0.38593 0.50383,1.63907 0.31563,4.5 -0.1882,2.86093 -0.6382,5.51744 -1,5.90337 -0.3618,0.38593 -0.50383,-1.63907 -0.31563,-4.5 z m 88.65782,-5.70169 c -1.31874,-0.56668 -1.48906,-0.87815 -0.5,-0.9144 0.825,-0.0302 2.175,0.38125 3,0.9144 1.82796,1.18133 0.24908,1.18133 -2.5,0 z M 32.250415,170.51698 c 1.79735,-0.22256 4.49735,-0.21797 6,0.0102 1.50265,0.22817 0.03209,0.41027 -3.267909,0.40466 -3.3,-0.006 -4.529441,-0.19231 -2.732091,-0.41487 z m 135.044595,0.0416 c 0.72187,-0.28887 1.58437,-0.25334 1.91666,0.0789 0.33229,0.33229 -0.25833,0.56864 -1.3125,0.52522 -1.16494,-0.048 -1.4019,-0.28494 -0.60416,-0.60417 z m -209.002002,-1.06497 c 7.870775,-0.16916 20.470775,-0.16875 28,9.1e-4 7.5292236,0.16967 1.089498,0.30807 -14.310502,0.30757 -15.4,-5.1e-4 -21.560274,-0.13932 -13.689498,-0.30848 z m 57.939498,0.0159 c 2.3375,-0.21054 6.1625,-0.21054 8.5,0 2.3375,0.21053 0.425,0.38279 -4.25,0.38279 -4.675,0 -6.5875,-0.17226 -4.25,-0.38279 z m 270.549664,-5.2678 c 0,-3.025 0.18747,-4.2625 0.41659,-2.75 0.22912,1.5125 0.22912,3.9875 0,5.5 -0.22912,1.5125 -0.41659,0.275 -0.41659,-2.75 z M 33.732506,158.52546 c 1.5125,-0.22912 3.9875,-0.22912 5.5,0 1.5125,0.22912 0.275,0.41659 -2.75,0.41659 -3.025,0 -4.2625,-0.18747 -2.75,-0.41659 z m 74.562504,0.0331 c 0.72187,-0.28887 1.58437,-0.25334 1.91666,0.0789 0.33229,0.33229 -0.25833,0.56864 -1.3125,0.52522 -1.16494,-0.048 -1.4019,-0.28494 -0.60416,-0.60417 z M 79.85247,148.24171 c 0,-5.775 0.165275,-8.1375 0.367278,-5.25 0.202002,2.8875 0.202002,7.6125 0,10.5 -0.202003,2.8875 -0.367278,0.525 -0.367278,-5.25 z m 205.99527,0.5 c 0.003,-5.5 0.17053,-7.62241 0.37317,-4.71647 0.20264,2.90593 0.20051,7.40593 -0.005,10 -0.20525,2.59406 -0.37105,0.21647 -0.36844,-5.28353 z m -137.19713,-1.19098 c -0.0925,-5.60504 0.1694,-10.40106 0.5819,-10.65782 0.4125,-0.25676 0.62703,2.75418 0.47673,6.69098 -0.49108,12.8631 -0.88739,14.34811 -1.05863,3.96684 z m -48.28012,-10.37824 c -0.561736,-0.34718 1.51407,-0.65403 4.61291,-0.68191 3.09884,-0.0279 5.43213,0.15144 5.1851,0.39848 -0.73618,0.73617 -8.69302,0.96634 -9.79801,0.28343 z m 68.61202,10e-4 c -1.31791,-0.52141 0.18837,-0.81524 4.41666,-0.86155 3.52917,-0.0387 6.22917,0.0928 6,0.29213 -1.00391,0.87319 -8.59939,1.28839 -10.41666,0.56942 z m 68.56475,0.10818 c -0.59526,-0.36789 1.41438,-0.69512 4.46587,-0.72718 3.05149,-0.0321 5.34996,0.13992 5.1077,0.38217 -0.76646,0.76647 -8.44397,1.04315 -9.57357,0.34501 z M 33.250415,136.51698 c 1.79735,-0.22256 4.49735,-0.21797 6,0.0102 1.50265,0.22817 0.03209,0.41027 -3.267909,0.40466 -3.3,-0.006 -4.529441,-0.19231 -2.732091,-0.41487 z m -74.957407,-1.02335 c 7.870775,-0.16916 20.470775,-0.16875 28,9.1e-4 7.5292236,0.16967 1.089498,0.30807 -14.310502,0.30757 -15.4,-5.1e-4 -21.560274,-0.13932 -13.689498,-0.30848 z m 58.469671,0.0118 c 2.629095,-0.20667 6.679095,-0.20418 9,0.006 2.320905,0.20973 0.169827,0.37883 -4.780173,0.37578 -4.95,-0.003 -6.848922,-0.17464 -4.219827,-0.38132 z M 286.78217,130.2417 c 0,-3.025 0.18747,-4.2625 0.41659,-2.75 0.22912,1.5125 0.22912,3.9875 0,5.5 -0.22912,1.5125 -0.41659,0.275 -0.41659,-2.75 z m -327.98849,-5.7482 c 8.146146,-0.16828 21.196146,-0.16789 29,8.6e-4 7.8038543,0.16875 1.138826,0.30643 -14.811174,0.30596 -15.95,-4.8e-4 -22.334972,-0.13855 -14.188826,-0.30682 z m 57.968999,0.0119 c 2.629095,-0.20667 6.679095,-0.20418 9,0.006 2.320905,0.20973 0.169827,0.37883 -4.780173,0.37578 -4.95,-0.003 -6.848922,-0.17464 -4.219827,-0.38132 z m 16.487736,0.0115 c 1.79735,-0.22256 4.49735,-0.21797 6,0.0102 1.50265,0.22817 0.03209,0.41027 -3.267909,0.40466 -3.3,-0.006 -4.529441,-0.19231 -2.732091,-0.41487 z m 17.523679,-0.0178 c 3.735373,-0.19293 9.585373,-0.1915 13,0.003 3.414626,0.19467 0.358412,0.35252 -6.791588,0.35077 -7.15,-0.002 -9.943786,-0.16103 -6.208412,-0.35395 z m 34.958412,0.007 c 2.6125,-0.206 6.8875,-0.206 9.5,0 2.6125,0.20599 0.475,0.37454 -4.75,0.37454 -5.225,0 -7.3625,-0.16855 -4.75,-0.37454 z m 32.000004,-0.007 c 3.7125,-0.1924 9.7875,-0.1924 13.5,0 3.7125,0.19241 0.675,0.34983 -6.75,0.34983 -7.425,0 -10.4625,-0.15742 -6.75,-0.34983 z m 37.03017,0.005 c 2.62909,-0.20667 6.67909,-0.20418 9,0.006 2.3209,0.20973 0.16983,0.37883 -4.78017,0.37578 -4.95,-0.003 -6.84893,-0.17464 -4.21983,-0.38132 z m 30.96983,-0.005 c 3.7125,-0.1924 9.7875,-0.1924 13.5,0 3.7125,0.19241 0.675,0.34983 -6.75,0.34983 -7.425,0 -10.4625,-0.15742 -6.75,-0.34983 z m 47.06117,-0.007 c 8.14615,-0.16828 21.19615,-0.16789 29,8.6e-4 7.80385,0.16875 1.13883,0.30643 -14.81117,0.30596 -15.95,-4.8e-4 -22.33498,-0.13855 -14.18883,-0.30682 z M 79.85247,114.24171 c 0,-5.775 0.165275,-8.1375 0.367278,-5.25 0.202002,2.8875 0.202002,7.6125 0,10.5 -0.202003,2.8875 -0.367278,0.525 -0.367278,-5.25 z m 205.85274,-6.24123 -0.2227,-16.741239 -53.25,-0.267714 -53.25,-0.267715 53.28138,-0.241049 c 42.76043,-0.193451 53.37914,0.0137 53.77646,1.049093 0.27229,0.709578 0.35838,8.472074 0.19132,17.250004 l -0.30375,15.95985 z m -137.0546,5.55025 c -0.0925,-5.60504 0.1694,-10.40106 0.5819,-10.65782 0.4125,-0.25676 0.62703,2.75418 0.47673,6.69098 -0.49108,12.8631 -0.88739,14.34811 -1.05863,3.96684 z m -40.3556,-10.99213 c 0.72187,-0.28887 1.58437,-0.25334 1.91666,0.079 0.33229,0.33229 -0.25833,0.56864 -1.3125,0.52522 -1.16494,-0.048 -1.4019,-0.28494 -0.60416,-0.60417 z m 60,0 c 0.72187,-0.28887 1.58437,-0.25334 1.91666,0.079 0.33229,0.33229 -0.25833,0.56864 -1.3125,0.52522 -1.16494,-0.048 -1.4019,-0.28494 -0.60416,-0.60417 z m 9,0 c 0.72187,-0.28887 1.58437,-0.25334 1.91666,0.079 0.33229,0.33229 -0.25833,0.56864 -1.3125,0.52522 -1.16494,-0.048 -1.4019,-0.28494 -0.60416,-0.60417 z m -219.562504,-1.06445 c 7.5625,-0.16988 19.9375,-0.16988 27.5,0 7.5624998,0.16988 1.375,0.30887 -13.75,0.30887 -15.125,0 -21.3125,-0.13899 -13.75,-0.30887 z m 59.030173,0.0113 c 2.629095,-0.20667 6.679095,-0.20418 9,0.006 2.320905,0.20973 0.169827,0.37883 -4.780173,0.37578 -4.95,-0.003 -6.848922,-0.17464 -4.219827,-0.38132 z m -60.59957,-11.012718 c 13.299331,-0.157437 35.3493313,-0.157591 48.9999997,-3.41e-4 13.6506683,0.15725 2.7693971,0.286062 -24.1806027,0.28625 -26.95,1.88e-4 -38.118729,-0.128471 -24.819397,-0.285909 z m 94.610985,0.0065 c 3.735373,-0.192927 9.585373,-0.191496 13,0.0032 3.414626,0.194677 0.358412,0.352527 -6.791588,0.350777 -7.15,-0.0017 -9.943786,-0.16103 -6.208412,-0.353958 z m 35.458412,0.01029 c 2.3375,-0.210534 6.1625,-0.210534 8.5,0 2.3375,0.210535 0.425,0.382791 -4.25,0.382791 -4.675,0 -6.5875,-0.172256 -4.25,-0.382791 z M 79.78217,85.241714 c 0,-3.025 0.187466,-4.2625 0.41659,-2.75 0.229125,1.5125 0.229125,3.9875 0,5.5 -0.229124,1.5125 -0.41659,0.275 -0.41659,-2.75 z m 57.89528,0.5 c 0.0204,-1.65 0.2445,-2.203935 0.49805,-1.230968 0.25354,0.972968 0.23687,2.322968 -0.0371,3 -0.27392,0.677033 -0.48137,-0.119032 -0.46099,-1.769032 z M 85.732506,79.506675 c 2.6125,-0.205999 6.8875,-0.205999 9.5,0 2.6125,0.205999 0.475,0.374543 -4.75,0.374543 -5.225,0 -7.3625,-0.168544 -4.75,-0.374543 z M 148.85247,69.241714 c 0,-5.775 0.16528,-8.1375 0.36728,-5.25 0.202,2.8875 0.202,7.6125 0,10.5 -0.202,2.8875 -0.36728,0.525 -0.36728,-5.25 z"
         id="path42-6" />
      <path
         style="fill:#6d6d6d"
         d="m 1.4665336,233.44476 0.4840277,-5.70305 0.3264612,4.88952 c 0.1795537,2.68923 -0.038259,5.2556 -0.4840278,5.70305 -0.4457689,0.44744 -0.5926764,-1.75284 -0.3264611,-4.88952 z m -28.3327786,4.04695 c -0.256732,-0.4125 3.65421,-0.6301 8.690983,-0.48355 16.5407924,0.48124 18.37439325,0.8701 4.966785,1.05331 -7.255041,0.0991 -13.401036,-0.15726 -13.657768,-0.56976 z m 204.750735,-0.64483 c -0.29439,-0.76717 -0.38158,-3.12967 -0.19376,-5.25 0.31638,-3.57177 0.37642,-3.46918 0.81663,1.39546 0.48498,5.35934 0.32781,6.33198 -0.62287,3.85454 z m 29.54916,-2.88122 c 0.48675,-4.11996 0.50759,-4.14081 0.84679,-0.84679 0.19126,1.85744 -0.0333,3.75821 -0.49903,4.22394 -0.46573,0.46573 -0.62222,-1.05399 -0.34776,-3.37715 z m -234.608334,-6.22395 c 0.0036,-4.4 0.179441,-6.0756 0.390686,-3.72356 0.211246,2.35204 0.208274,5.95204 -0.0066,8 -0.214877,2.04796 -0.387714,0.12356 -0.384082,-4.27644 z m 0.433249,-10.62363 c 0.398167,-0.36933 2.624714,-0.84088 4.947882,-1.04788 2.323167,-0.207 3.898167,-0.0742 3.5,0.29515 -0.398168,0.36933 -2.624715,0.84088 -4.947882,1.04788 -2.323167,0.207 -3.898167,0.0742 -3.5,-0.29515 z m -16.276059,-12.87637 -25,-0.55275 24.690983,-0.22362 c 15.627847,-0.14154 24.91784,0.14344 25.309017,0.77637 0.339918,0.55 0.478976,0.89937 0.309017,0.77638 -0.16996,-0.12299 -11.559017,-0.47236 -25.309017,-0.77638 z m 64,0 -9,-0.62205 8.690983,-0.18897 c 4.93074,-0.10722 8.958382,0.24368 9.309017,0.81102 0.339918,0.55 0.478976,0.91497 0.309017,0.81103 -0.16996,-0.10393 -4.359017,-0.46889 -9.309017,-0.81103 z m 12.76375,0.28242 c 1.520062,-0.22985 3.770062,-0.22371 5,0.0136 1.229937,0.23737 -0.01375,0.42543 -2.76375,0.41792 -2.75,-0.008 -3.756313,-0.20171 -2.23625,-0.43157 z m 45.98625,-0.0279 c 5.3625,-0.1798 14.1375,-0.1798 19.5,0 5.362504,0.17981 0.975004,0.32692 -9.75,0.32692 -10.725,0 -15.1125,-0.14711 -9.75,-0.32692 z m 69.000004,0 c 5.3625,-0.1798 14.1375,-0.1798 19.5,0 5.3625,0.17981 0.975,0.32692 -9.75,0.32692 -10.725,0 -15.1125,-0.14711 -9.75,-0.32692 z m 91.01375,0.0279 c 1.52006,-0.22985 3.77006,-0.22371 5,0.0136 1.22993,0.23737 -0.0138,0.42543 -2.76375,0.41792 -2.75,-0.008 -3.75632,-0.20171 -2.23625,-0.43157 z M 31.482506,193.67451 c 3.408387,-0.76167 11,-0.8928 11,-0.19 0,0.41646 -2.8125,0.705 -6.25,0.6412 -3.4375,-0.0638 -5.575,-0.26684 -4.75,-0.4512 z M 207.843,181.24171 c 0,-5.225 0.16855,-7.3625 0.37455,-4.75 0.20599,2.6125 0.20599,6.8875 0,9.5 -0.206,2.6125 -0.37455,0.475 -0.37455,-4.75 z m -135.610494,0.29427 c 1.2375,-0.23835 3.2625,-0.23835 4.5,0 1.2375,0.23835 0.225,0.43337 -2.25,0.43337 -2.475,0 -3.4875,-0.19502 -2.25,-0.43337 z m 68.250004,0.31077 c 0,-0.21723 1.76214,-0.56301 3.91588,-0.7684 2.15373,-0.2054 3.70218,-0.0277 3.44098,0.39496 -0.47525,0.76897 -7.35686,1.11829 -7.35686,0.37344 z M 285.6404,171.24171 c 0,-1.375 0.22697,-1.9375 0.50439,-1.25 0.27741,0.6875 0.27741,1.8125 0,2.5 -0.27742,0.6875 -0.50439,0.125 -0.50439,-1.25 z m -183.90789,-0.68932 c 0.9625,-0.25153 2.5375,-0.25153 3.5,0 0.9625,0.25153 0.175,0.45732 -1.75,0.45732 -1.925,0 -2.7125,-0.20579 -1.75,-0.45732 z m 69.5,-0.0164 c 1.2375,-0.23835 3.2625,-0.23835 4.5,0 1.2375,0.23835 0.225,0.43337 -2.25,0.43337 -2.475,0 -3.4875,-0.19502 -2.25,-0.43337 z m 69,0 c 1.2375,-0.23835 3.2625,-0.23835 4.5,0 1.2375,0.23835 0.225,0.43337 -2.25,0.43337 -2.475,0 -3.4875,-0.19502 -2.25,-0.43337 z M 33.232506,159.51832 c 1.7875,-0.22183 4.7125,-0.22183 6.5,0 1.7875,0.22183 0.325,0.40332 -3.25,0.40332 -3.575,0 -5.0375,-0.18149 -3.25,-0.40332 z m 70.519034,-0.9696 c 0.97297,-0.25354 2.32297,-0.23687 3,0.0371 0.67703,0.27392 -0.11903,0.48137 -1.76903,0.46099 -1.65,-0.0204 -2.20394,-0.2445 -1.23097,-0.49805 z m 34.72537,-10.6029 0.49439,-11.20411 0.29239,10.41322 c 0.16081,5.72727 -0.0617,10.76912 -0.4944,11.20411 -0.43273,0.43499 -0.5643,-4.25096 -0.29238,-10.41322 z m 33.2556,10.60657 c 0.9625,-0.25153 2.5375,-0.25153 3.5,0 0.9625,0.25153 0.175,0.45732 -1.75,0.45732 -1.925,0 -2.7125,-0.20579 -1.75,-0.45732 z m 68,0 c 0.9625,-0.25153 2.5375,-0.25153 3.5,0 0.9625,0.25153 0.175,0.45732 -1.75,0.45732 -1.925,0 -2.7125,-0.20579 -1.75,-0.45732 z M 207.843,147.24171 c 0,-5.225 0.16855,-7.3625 0.37455,-4.75 0.20599,2.6125 0.20599,6.8875 0,9.5 -0.206,2.6125 -0.37455,0.475 -0.37455,-4.75 z m 77.83445,-10.5 c 0.0204,-1.65 0.2445,-2.20393 0.49805,-1.23096 0.25354,0.97296 0.23687,2.32296 -0.0371,3 -0.27392,0.67703 -0.48137,-0.11904 -0.46099,-1.76904 z m -217.194944,-0.5 c -0.901292,-0.58246 -1.024633,-0.97548 -0.309017,-0.98468 0.65504,-0.008 1.469098,0.43468 1.809017,0.98468 0.767305,1.24153 0.421123,1.24153 -1.5,0 z m 193.000004,0 -14.5,-0.5839 14.19098,-0.20805 c 8.61406,-0.12628 14.43386,0.18495 14.80902,0.79195 0.33991,0.55 0.47897,0.90638 0.30901,0.79195 -0.16996,-0.11442 -6.83401,-0.4708 -14.80901,-0.79195 z M 47.774094,135.49922 c 3.735373,-0.19293 9.585373,-0.1915 13,0.003 3.414626,0.19467 0.358412,0.35252 -6.791588,0.35077 -7.15,-0.002 -9.943786,-0.16103 -6.208412,-0.35395 z m 37.988585,0.006 c 2.629095,-0.20667 6.679095,-0.20418 9,0.006 2.320905,0.20973 0.169827,0.37883 -4.780173,0.37578 -4.95,-0.003 -6.848922,-0.17464 -4.219827,-0.38132 z m 31.969831,-0.005 c 3.7125,-0.1924 9.7875,-0.1924 13.5,0 3.7125,0.19241 0.675,0.34983 -6.75,0.34983 -7.425,0 -10.4625,-0.15742 -6.75,-0.34983 z m 37.03017,0.005 c 2.62909,-0.20667 6.67909,-0.20418 9,0.006 2.3209,0.20973 0.16983,0.37883 -4.78017,0.37578 -4.95,-0.003 -6.84893,-0.17464 -4.21983,-0.38132 z m 30.96983,-0.005 c 3.7125,-0.1924 9.7875,-0.1924 13.5,0 3.7125,0.19241 0.675,0.34983 -6.75,0.34983 -7.425,0 -10.4625,-0.15742 -6.75,-0.34983 z m 37.03017,0.005 c 2.62909,-0.20667 6.67909,-0.20418 9,0.006 2.3209,0.20973 0.16983,0.37883 -4.78017,0.37578 -4.95,-0.003 -6.84893,-0.17464 -4.21983,-0.38132 z M 42.295006,124.5586 c 0.721875,-0.28887 1.584375,-0.25334 1.916666,0.079 0.332292,0.33229 -0.258333,0.56864 -1.3125,0.52522 -1.164943,-0.048 -1.401899,-0.28494 -0.604166,-0.60417 z m 59.451254,-0.0345 c 1.52006,-0.22985 3.77006,-0.22371 5,0.0136 1.22993,0.23737 -0.0138,0.42543 -2.76375,0.41792 -2.75,-0.008 -3.75632,-0.20171 -2.23625,-0.43157 z m 36.72918,-9.07788 0.49292,-9.70454 0.29832,8.90876 c 0.16408,4.89981 -0.0577,9.26685 -0.49293,9.70453 -0.43518,0.43769 -0.56943,-3.57125 -0.29831,-8.90875 z m 33.25707,9.10614 c 0.9625,-0.25153 2.5375,-0.25153 3.5,0 0.9625,0.25153 0.175,0.45732 -1.75,0.45732 -1.925,0 -2.7125,-0.20579 -1.75,-0.45732 z m 36.11523,-11.81068 c 0.003,-5.5 0.17053,-7.62241 0.37317,-4.71647 0.20264,2.90593 0.20051,7.40593 -0.005,10 -0.20525,2.59406 -0.37105,0.21647 -0.36844,-5.28353 z M 102.23251,102.57943 c 0.6875,-0.27741 1.8125,-0.27741 2.5,0 0.6875,0.27742 0.125,0.50439 -1.25,0.50439 -1.375,0 -1.9375,-0.22697 -1.25,-0.50439 z m 69.5,-0.027 c 0.9625,-0.25153 2.5375,-0.25153 3.5,0 0.9625,0.25153 0.175,0.45732 -1.75,0.45732 -1.925,0 -2.7125,-0.20579 -1.75,-0.45732 z m -137.986254,-1.0283 c 1.520062,-0.22985 3.770062,-0.22371 5,0.0136 1.229937,0.23737 -0.01375,0.42543 -2.76375,0.41792 -2.75,-0.008 -3.756313,-0.20171 -2.23625,-0.43157 z m 17.027838,-0.0249 c 3.735373,-0.19293 9.585373,-0.1915 13,0.003 3.414626,0.19467 0.358412,0.35252 -6.791588,0.35077 -7.15,-0.002 -9.943786,-0.16103 -6.208412,-0.35395 z m 34.958412,0.007 c 2.6125,-0.206 6.8875,-0.206 9.5,0 2.6125,0.20599 0.475,0.37454 -4.75,0.37454 -5.225,0 -7.3625,-0.16855 -4.75,-0.37454 z m 30.956254,-0.006 c 3.68843,-0.19186 9.98843,-0.19313 14,-0.003 4.01156,0.1903 0.99375,0.34728 -6.70625,0.34884 -7.7,0.002 -10.98219,-0.15414 -7.29375,-0.346 z m 38.07392,0.004 c 2.62909,-0.20667 6.67909,-0.20418 9,0.006 2.3209,0.20973 0.16983,0.37883 -4.78017,0.37578 -4.95,-0.003 -6.84893,-0.17464 -4.21983,-0.38132 z m 30.92608,-0.004 c 3.68843,-0.19186 9.98843,-0.19313 14,-0.003 4.01156,0.1903 0.99375,0.34728 -6.70625,0.34884 -7.7,0.002 -10.98219,-0.15414 -7.29375,-0.346 z m 47.10492,-0.008 c 8.14615,-0.16828 21.19615,-0.16789 29,8.6e-4 7.80385,0.16875 1.13883,0.30643 -14.81117,0.30596 -15.95,-4.8e-4 -22.33498,-0.13855 -14.18883,-0.30682 z M 33.258939,90.508218 c 2.352038,-0.211245 5.952038,-0.208274 8,0.0066 2.047962,0.214877 0.123567,0.387714 -4.276433,0.384082 -4.4,-0.0036 -6.075605,-0.179441 -3.723567,-0.390686 z m 76.525511,-0.01263 c 5.39106,-0.180152 13.94106,-0.179365 19,0.0017 5.05893,0.181113 0.64806,0.32851 -9.80194,0.327548 -10.45,-9.61e-4 -14.58913,-0.149144 -9.19806,-0.329296 z m 47.99376,0.002 c 4.28764,-0.187903 11.03764,-0.186757 15,0.0025 3.96236,0.189305 0.4543,0.343044 -7.7957,0.341643 -8.25,-0.0014 -11.49194,-0.156286 -7.2043,-0.34419 z m -8.98584,-5.755869 c 0.006,-3.3 0.19231,-4.52944 0.41487,-2.73209 0.22256,1.79735 0.21797,4.49735 -0.0102,6 -0.22817,1.50265 -0.41027,0.03209 -0.40466,-3.26791 z m -40.05986,-5.245501 c 5.3625,-0.179807 14.1375,-0.179807 19.5,0 5.3625,0.179807 0.975,0.326922 -9.75,0.326922 -10.725,0 -15.1125,-0.147115 -9.75,-0.326922 z"
         id="path41-1" />
      <path
         style="fill:#4e4e4e"
         d="m 185.68876,237.50116 c 3.68843,-0.19186 9.98843,-0.19313 14,-0.003 4.01156,0.1903 0.99375,0.34728 -6.70625,0.34884 -7.7,0.002 -10.98219,-0.15414 -7.29375,-0.346 z M 10.650609,215.55073 c -0.09246,-6.15504 0.169397,-11.40109 0.581897,-11.65788 0.4125,-0.2568 0.628792,3.20415 0.480649,7.69098 -0.462835,14.01798 -0.887737,15.60431 -1.062546,3.9669 z m 169.331901,1.18451 c 2.28577,-0.79677 8.32228,-1.01499 7.87083,-0.28454 -0.26888,0.43506 -2.37481,0.75549 -4.67985,0.71207 -2.30504,-0.0434 -3.74098,-0.23581 -3.19098,-0.42753 z m 36.65789,-9.49353 c 0,-1.375 0.22697,-1.9375 0.50439,-1.25 0.27741,0.6875 0.27741,1.8125 0,2.5 -0.27742,0.6875 -0.50439,0.125 -0.50439,-1.25 z m -33.65789,-3 -5,-0.68579 4.69098,-0.1571 c 2.58004,-0.0864 4.9691,0.29289 5.30902,0.84289 0.33991,0.55 0.47897,0.92931 0.30901,0.8429 -0.16996,-0.0864 -2.55901,-0.46571 -5.30901,-0.8429 z m -135.250004,-0.7433 c 4.2625,-0.18746 11.2375,-0.18746 15.5,0 4.2625,0.18745 0.775,0.34082 -7.75,0.34082 -8.525,0 -12.0125,-0.15337 -7.75,-0.34082 z m 69.045704,-8.3e-4 c 4.28764,-0.1879 11.03764,-0.18675 15,0.003 3.96236,0.1893 0.4543,0.34304 -7.7957,0.34164 -8.25,-0.001 -11.49194,-0.15628 -7.2043,-0.34419 z m 105.9543,0.009 c 2.6125,-0.206 6.8875,-0.206 9.5,0 2.6125,0.20599 0.475,0.37454 -4.75,0.37454 -5.225,0 -7.3625,-0.16855 -4.75,-0.37454 z m 42.94606,-0.003 19.69607,-0.30434 0.40603,-4.72904 0.40604,-4.72904 -0.1021,5 -0.1021,5 -20,0.0334 -20,0.0334 z M 30.136972,194.49171 c -0.254962,-0.4125 1.63098,-0.61554 4.190983,-0.4512 7.302907,0.46881 8.188625,0.95832 1.963568,1.0852 -3.130041,0.0638 -5.899589,-0.2215 -6.154551,-0.634 z m -87.276297,-13.25 c 0,-6.325 0.162368,-8.9125 0.360819,-5.75 0.198451,3.1625 0.198451,8.3375 0,11.5 -0.198451,3.1625 -0.360819,0.575 -0.360819,-5.75 z m 68,0 c 0,-6.325 0.162368,-8.9125 0.360819,-5.75 0.198451,3.1625 0.198451,8.3375 0,11.5 -0.198451,3.1625 -0.360819,0.575 -0.360819,-5.75 z m 31.700778,9.41667 c 0.04798,-1.16494 0.28494,-1.4019 0.604167,-0.60417 0.28887,0.72188 0.253344,1.58438 -0.07895,1.91667 -0.332291,0.33229 -0.56864,-0.25833 -0.525219,-1.3125 z m 27.173236,-1.91667 c 0.0111,-2.2 0.215884,-2.98225 0.455078,-1.73834 0.239193,1.24392 0.230112,3.04392 -0.02018,4 -0.250293,0.95609 -0.445996,-0.0617 -0.434898,-2.26166 z m 77.979821,-13.5 c 0,-1.925 0.20579,-2.7125 0.45732,-1.75 0.25153,0.9625 0.25153,2.5375 0,3.5 -0.25153,0.9625 -0.45732,0.175 -0.45732,-1.75 z M 42.561453,174.65838 c 0.04798,-1.16494 0.28494,-1.4019 0.604167,-0.60417 0.28887,0.72188 0.253344,1.58438 -0.07895,1.91667 -0.332291,0.33229 -0.56864,-0.25833 -0.525219,-1.3125 z M 216.6404,173.24171 c 0,-1.375 0.22697,-1.9375 0.50439,-1.25 0.27741,0.6875 0.27741,1.8125 0,2.5 -0.27742,0.6875 -0.50439,0.125 -0.50439,-1.25 z M 80.366413,169.95355 c 0.435831,-0.43349 5.252747,-0.65577 10.704257,-0.49396 l 9.91184,0.29419 -10.704261,0.49397 c -5.887342,0.27168 -10.347668,0.13929 -9.911836,-0.2942 z m 69.001337,-0.001 c 0.43673,-0.43431 5.02871,-0.65637 10.2044,-0.49348 l 9.41036,0.29617 -10.20441,0.49348 c -5.61242,0.27141 -9.84708,0.13813 -9.41035,-0.29617 z M 32.250415,169.51698 c 1.79735,-0.22256 4.49735,-0.21797 6,0.0102 1.50265,0.22817 0.03209,0.41027 -3.267909,0.40466 -3.3,-0.006 -4.529441,-0.19231 -2.732091,-0.41487 z m 152.527795,-0.0194 c 4.28764,-0.1879 11.03764,-0.18675 15,0.003 3.96236,0.1893 0.4543,0.34304 -7.7957,0.34164 -8.25,-0.001 -11.49194,-0.15628 -7.2043,-0.34419 z m 37.4543,0.007 c 2.8875,-0.202 7.6125,-0.202 10.5,0 2.8875,0.20201 0.525,0.36728 -5.25,0.36728 -5.775,0 -8.1375,-0.16527 -5.25,-0.36728 z m 31.5457,-0.007 c 4.28764,-0.1879 11.03764,-0.18675 15,0.003 3.96236,0.1893 0.4543,0.34304 -7.7957,0.34164 -8.25,-0.001 -11.49194,-0.15628 -7.2043,-0.34419 z m 31.99031,-4.75587 c 0.008,-2.75 0.20171,-3.75631 0.43157,-2.23625 0.22985,1.52007 0.22371,3.77007 -0.0136,5 -0.23736,1.22994 -0.42543,-0.0137 -0.41792,-2.76375 z m -255.631548,-4.25 c -0.254962,-0.4125 1.63098,-0.61554 4.190983,-0.4512 7.302907,0.46881 8.188625,0.95832 1.963568,1.0852 -3.130041,0.0638 -5.899589,-0.2215 -6.154551,-0.634 z M 147.91128,157.9167 c -0.27965,-0.72876 -0.37453,-5.56626 -0.21083,-10.75 l 0.29762,-9.42499 0.49222,10.75211 c 0.27072,5.91366 0.36559,10.75116 0.21083,10.75 -0.15476,-0.001 -0.51019,-0.59836 -0.78984,-1.32712 z M -57.139325,147.24171 c 0,-6.325 0.162368,-8.9125 0.360819,-5.75 0.198451,3.1625 0.198451,8.3375 0,11.5 -0.198451,3.1625 -0.360819,0.575 -0.360819,-5.75 z m 68,0 c 0,-6.325 0.162368,-8.9125 0.360819,-5.75 0.198451,3.1625 0.198451,8.3375 0,11.5 -0.198451,3.1625 -0.360819,0.575 -0.360819,-5.75 z m 205.779725,-8 c 0,-1.375 0.22697,-1.9375 0.50439,-1.25 0.27741,0.6875 0.27741,1.8125 0,2.5 -0.27742,0.6875 -0.50439,0.125 -0.50439,-1.25 z m -9.94732,-2.60085 c -0.70919,-0.76953 -0.84824,-1.39915 -0.30902,-1.39915 1.03844,0 2.54173,1.90222 1.94858,2.46568 -0.19257,0.18293 -0.93038,-0.29701 -1.63956,-1.06653 z M 32.232506,135.51832 c 1.7875,-0.22183 4.7125,-0.22183 6.5,0 1.7875,0.22183 0.325,0.40332 -3.25,0.40332 -3.575,0 -5.0375,-0.18149 -3.25,-0.40332 z m 67.0625,0.0403 c 0.721874,-0.28887 1.584374,-0.25334 1.916664,0.0789 0.33229,0.33229 -0.25833,0.56864 -1.312498,0.52522 -1.164943,-0.048 -1.401899,-0.28494 -0.604166,-0.60417 z m 5.451254,-0.0345 c 1.52006,-0.22985 3.77006,-0.22371 5,0.0136 1.22993,0.23737 -0.0138,0.42543 -2.76375,0.41792 -2.75,-0.008 -3.75632,-0.20171 -2.23625,-0.43157 z m 65.48625,-0.006 c 1.7875,-0.22183 4.7125,-0.22183 6.5,0 1.7875,0.22183 0.325,0.40332 -3.25,0.40332 -3.575,0 -5.0375,-0.18149 -3.25,-0.40332 z m 67.51375,0.006 c 1.52006,-0.22985 3.77006,-0.22371 5,0.0136 1.22993,0.23737 -0.0138,0.42543 -2.76375,0.41792 -2.75,-0.008 -3.75632,-0.20171 -2.23625,-0.43157 z m 48.00861,-5.28242 c 0,-2.475 0.19502,-3.4875 0.43337,-2.25 0.23835,1.2375 0.23835,3.2625 0,4.5 -0.23835,1.2375 -0.43337,0.225 -0.43337,-2.25 z m -137.84359,-6.325 c -0.27965,-0.72876 -0.37453,-5.56626 -0.21083,-10.75 l 0.29762,-9.42499 0.49222,10.75211 c 0.27072,5.91366 0.36559,10.75116 0.21083,10.75 -0.15476,-0.001 -0.51019,-0.59836 -0.78984,-1.32712 z M -57.139325,113.24171 c 0,-6.325 0.162368,-8.9125 0.360819,-5.75 0.198451,3.1625 0.198451,8.3375 0,11.5 -0.198451,3.1625 -0.360819,0.575 -0.360819,-5.75 z m 68,0 c 0,-6.325 0.162368,-8.9125 0.360819,-5.75 0.198451,3.1625 0.198451,8.3375 0,11.5 -0.198451,3.1625 -0.360819,0.575 -0.360819,-5.75 z m 205.779725,-8 c 0,-1.375 0.22697,-1.9375 0.50439,-1.25 0.27741,0.6875 0.27741,1.8125 0,2.5 -0.27742,0.6875 -0.50439,0.125 -0.50439,-1.25 z m -114.38999,-3.72473 c 1.79735,-0.22256 4.49735,-0.21797 6,0.0102 1.50265,0.22817 0.0321,0.41027 -3.2679,0.40466 -3.3,-0.006 -4.52945,-0.19231 -2.7321,-0.41487 z m 67.9821,10e-4 c 1.7875,-0.22183 4.7125,-0.22183 6.5,0 1.7875,0.22183 0.325,0.40332 -3.25,0.40332 -3.575,0 -5.0375,-0.18149 -3.25,-0.40332 z m -32.25,-16.276606 c 0,-3.194959 0.3375,-5.60043 0.75,-5.345491 0.4125,0.254939 0.75,2.66041 0.75,5.345491 0,2.685082 -0.3375,5.090553 -0.75,5.345492 -0.4125,0.254939 -0.75,-2.150532 -0.75,-5.345492 z M 85.732506,78.506675 c 2.6125,-0.205999 6.8875,-0.205999 9.5,0 2.6125,0.205999 0.475,0.374543 -4.75,0.374543 -5.225,0 -7.3625,-0.168544 -4.75,-0.374543 z M 147.84774,66.741714 c 0.003,-5.5 0.17053,-7.622415 0.37317,-4.716478 0.20264,2.905937 0.20051,7.405937 -0.005,10 -0.20525,2.594063 -0.37105,0.216478 -0.36844,-5.283522 z"
         id="path40-8" />
      <path
         style="fill:#2c2c2c"
         d="m 0.90447476,231.74171 0.078031,-5 4.50000004,-0.0817 4.5,-0.0817 -4.1995692,0.38441 -4.1995691,0.38442 -0.3784619,4.69727 -0.37846191,4.69726 z m 177.89810524,-0.5 c 0,-3.575 0.18149,-5.0375 0.40332,-3.25 0.22183,1.7875 0.22183,4.7125 0,6.5 -0.22183,1.7875 -0.40332,0.325 -0.40332,-3.25 z m 28.10189,0.5 0.078,-5 4.5,-0.0817 4.5,-0.0817 -4.19957,0.38441 -4.19957,0.38442 -0.37846,4.69727 -0.37847,4.69726 z m 9.92085,-15 c 0.004,-4.4 0.17944,-6.0756 0.39068,-3.72356 0.21125,2.35204 0.20828,5.95204 -0.007,8 -0.21488,2.04796 -0.38772,0.12356 -0.38408,-4.27644 z m -38.26387,1.91667 c 0.048,-1.16494 0.28494,-1.4019 0.60417,-0.60417 0.28887,0.72188 0.25334,1.58438 -0.0789,1.91667 -0.33229,0.33229 -0.56864,-0.25833 -0.52522,-1.3125 z M 32.250415,203.51698 c 1.79735,-0.22256 4.49735,-0.21797 6,0.0102 1.50265,0.22817 0.03209,0.41027 -3.267909,0.40466 -3.3,-0.006 -4.529441,-0.19231 -2.732091,-0.41487 z m 48.035285,-0.0217 c 5.666756,-0.17857 14.666756,-0.17785 20,0.002 5.33324,0.17946 0.69681,0.32556 -10.303194,0.32468 -11,-8.9e-4 -15.363563,-0.14771 -9.696806,-0.32628 z m 67.94681,5.8e-4 c 5.6375,-0.17824 14.8625,-0.17824 20.5,0 5.6375,0.17825 1.025,0.32409 -10.25,0.32409 -11.275,0 -15.8875,-0.14584 -10.25,-0.32409 z m 90.5,0.0296 c 1.5125,-0.22912 3.9875,-0.22912 5.5,0 1.5125,0.22912 0.275,0.41659 -2.75,0.41659 -3.025,0 -4.2625,-0.18747 -2.75,-0.41659 z m 45.90789,-5.28375 c 0,-1.375 0.22697,-1.9375 0.50439,-1.25 0.27741,0.6875 0.27741,1.8125 0,2.5 -0.27742,0.6875 -0.50439,0.125 -0.50439,-1.25 z m -254.657894,-3 c -0.339919,-0.55 -4.614919,-1 -9.5,-1 -4.885082,0 -9.092019,-0.3375 -9.348751,-0.75 -0.677229,-1.08812 17.669218,-0.28955 18.798751,0.81827 0.5225,0.51245 3.312639,0.93173 6.20031,0.93173 3.94533,0 5.503655,-0.43496 6.269591,-1.75 0.560605,-0.9625 1.032965,-1.2775 1.04969,-0.7 0.06508,2.24725 -2.588152,3.45 -7.610574,3.45 -2.882541,0 -5.519099,-0.45 -5.859017,-1 z m -86.837135,-1.73522 c -0.260388,-0.42063 12.96859,-0.63941 29.397729,-0.48619 l 29.8711623,0.2786 0.3399131,-10.7786 0.3399131,-10.77859 -0.055791,11 -0.055791,11 -29.6818505,0.26478 c -16.325018,0.14563 -29.894896,-0.0794 -30.155285,-0.5 z m 127.003128,0.006 c -0.26283,-0.42399 8.479799,-0.64033 19.428067,-0.48074 l 19.905944,0.29015 V 181.83666 170.3513 l -4.50645,-0.39695 -4.50645,-0.39695 4.75645,0.0922 4.75645,0.0922 v 12 12 l -19.67807,0.2709 c -10.822937,0.149 -19.89311,-0.076 -20.155941,-0.5 z m 67.987341,-0.0209 c -0.42328,-0.68315 26.75132,-0.66583 58.34667,0.0372 6.875,0.15298 -3.33595,0.37594 -22.69099,0.49547 -19.35504,0.11954 -35.40009,-0.12017 -35.65568,-0.53267 z m 78.99969,0 c -0.25575,-0.4125 8.38019,-0.63495 19.19098,-0.49434 37.04389,0.48181 40.63445,0.81974 10.96501,1.03196 -16.33004,0.11681 -29.90023,-0.12512 -30.15599,-0.53762 z m 67.75407,-15.25 c 0,-9.075 0.1516,-12.7875 0.33689,-8.25 0.1853,4.5375 0.1853,11.9625 0,16.5 -0.18529,4.5375 -0.33689,0.825 -0.33689,-8.25 z m -8.03303,3.5 c 0.002,-6.05 0.16696,-8.39606 0.36601,-5.21348 0.19905,3.18258 0.19721,8.13258 -0.004,11 -0.2013,2.86742 -0.36416,0.26348 -0.36191,-5.78652 z m -139.19936,5.45 c -0.16616,-4.32757 1.04748,-6.95 3.21643,-6.95 0.54512,0 0.25123,0.5625 -0.65308,1.25 -0.9645,0.73325 -1.79809,3.11031 -2.01643,5.75 l -0.37221,4.5 z m 79.16811,-4.45 c 0.004,-4.4 0.17944,-6.0756 0.39068,-3.72356 0.21125,2.35204 0.20828,5.95204 -0.007,8 -0.21488,2.04796 -0.38772,0.12356 -0.38408,-4.27644 z m -174.014674,0 c 0.0044,-3.85 0.185182,-5.30246 0.401658,-3.22769 0.216475,2.07477 0.212846,5.22477 -0.0081,7 -0.220912,1.77523 -0.398028,0.0777 -0.393592,-3.77231 z m 32.619497,-2.05945 c 2.687224,-0.51003 2.98337,-0.97384 3.352102,-5.25 l 0.404465,-4.69055 -0.102102,5 c -0.100047,4.89936 -0.16752,5.00504 -3.352102,5.25 -3.107415,0.23904 -3.120681,0.22546 -0.302363,-0.30945 z m 68.552367,-0.16416 c 1.1,-0.27038 2.675,-1.00568 3.5,-1.63399 1.30456,-0.99355 1.32118,-0.91439 0.12755,0.6076 -0.75484,0.9625 -2.32984,1.6978 -3.5,1.634 -2.02078,-0.11018 -2.02718,-0.14067 -0.12755,-0.60761 z M 42.640401,171.24171 c 0,-1.375 0.226973,-1.9375 0.504386,-1.25 0.277412,0.6875 0.277412,1.8125 0,2.5 -0.277413,0.6875 -0.504386,0.125 -0.504386,-1.25 z m 104.842109,0.059 c 0,-0.51754 0.44484,-1.21591 0.98854,-1.55194 0.56686,-0.35034 0.73451,0.0511 0.39301,0.94099 -0.66479,1.73241 -1.38155,2.04938 -1.38155,0.61095 z m 59.5,-1.05902 c -0.33992,-0.55 -0.14148,-1 0.44098,-1 0.58246,0 1.05902,0.45 1.05902,1 0,0.55 -0.19845,1 -0.44099,1 -0.24254,0 -0.7191,-0.45 -1.05901,-1 z m -36.23625,-0.71758 c 1.52006,-0.22985 3.77006,-0.22371 5,0.0136 1.22993,0.23737 -0.0138,0.42543 -2.76375,0.41792 -2.75,-0.008 -3.75632,-0.20171 -2.23625,-0.43157 z m 69,0 c 1.52006,-0.22985 3.77006,-0.22371 5,0.0136 1.22993,0.23737 -0.0138,0.42543 -2.76375,0.41792 -2.75,-0.008 -3.75632,-0.20171 -2.23625,-0.43157 z m -209.763754,-8.2824 c -0.339919,-0.55 -4.614919,-1 -9.5,-1 -4.885082,0 -9.092052,-0.3375 -9.348823,-0.75 -0.665138,-1.06853 16.442904,-0.38223 18.848823,0.75615 1.1,0.52047 4.025,1.10339 6.5,1.29537 l 4.5,0.34907 -5.190983,0.17471 c -2.855041,0.0961 -5.469099,-0.2753 -5.809017,-0.8253 z m -86.837135,-1.73522 c -0.260388,-0.42063 12.96859,-0.63941 29.397729,-0.48619 l 29.8711623,0.2786 0.3399131,-10.7786 0.3399131,-10.77859 -0.055791,11 -0.055791,11 -29.6818505,0.26478 c -16.325018,0.14563 -29.894896,-0.0794 -30.155285,-0.5 z m 113.801119,10e-4 13.466668,-0.32194 0.342635,-10.22201 0.342635,-10.22201 -0.05796,10.5 -0.05796,10.5 -13.751342,0.044 -13.751341,0.0439 z m 22.202682,0.0674 c -0.921901,-0.9219 -0.84384,-23.10518 0.08333,-23.68147 0.4125,-0.2564 0.611146,4.88531 0.441435,11.42601 l -0.308565,11.89218 29.808568,0.28043 29.80857,0.28043 -29.58334,0.23454 c -16.270835,0.129 -29.883335,-0.0655 -30.250002,-0.43212 z m 85.145138,-0.0816 c 8.4215,-0.16745 21.9215,-0.16708 30,8.1e-4 8.07851,0.16789 1.1882,0.30489 -15.3118,0.30444 -16.5,-4.5e-4 -23.10969,-0.13781 -14.6882,-0.30525 z m 52.85486,0.0816 c -0.36666,-0.36667 -0.65977,-1.15417 -0.65135,-1.75 0.009,-0.65378 0.32625,-0.59381 0.79948,0.15124 0.58626,0.92299 8.21701,1.30553 30.23469,1.5157 l 29.45052,0.28113 -29.58334,0.23429 c -16.27083,0.12887 -29.88333,-0.0657 -30.25,-0.43236 z m 67.74043,-15.33334 c 0,-9.075 0.1516,-12.7875 0.33689,-8.25 0.1853,4.5375 0.1853,11.9625 0,16.5 -0.18529,4.5375 -0.33689,0.825 -0.33689,-8.25 z m -8.03303,3.5 c 0.002,-6.05 0.16696,-8.39606 0.36601,-5.21348 0.19905,3.18258 0.19721,8.13258 -0.004,11 -0.2013,2.86742 -0.36416,0.26348 -0.36191,-5.78652 z m -137.0041,-0.5 c 0,-5.775 0.16528,-8.1375 0.36728,-5.25 0.202,2.8875 0.202,7.6125 0,10.5 -0.202,2.8875 -0.36728,0.525 -0.36728,-5.25 z m 76.96624,1 c 0,-4.125 0.17652,-5.8125 0.39226,-3.75 0.21575,2.0625 0.21575,5.4375 0,7.5 -0.21574,2.0625 -0.39226,0.375 -0.39226,-3.75 z m -69.3362,-10.94098 c 0,-0.51754 0.44484,-1.21591 0.98854,-1.55194 0.56686,-0.35034 0.73451,0.0511 0.39301,0.94099 -0.66479,1.73241 -1.38155,2.04938 -1.38155,0.61095 z m -189.189502,-2.8071 c 7.870775,-0.16916 20.470775,-0.16875 28,9.1e-4 7.5292236,0.16967 1.089498,0.30807 -14.310502,0.30757 -15.4,-5.1e-4 -21.560274,-0.13932 -13.689498,-0.30848 z m 58.469671,0.0118 c 2.629095,-0.20667 6.679095,-0.20418 9,0.006 2.320905,0.20973 0.169827,0.37883 -4.780173,0.37578 -4.95,-0.003 -6.848922,-0.17464 -4.219827,-0.38132 z m -73.627202,-9.01373 c -0.255785,-0.4125 8.155158,-0.63474 18.690983,-0.49388 36.4904507,0.48789 40.0218917,0.8201 10.965063,1.0315 -16.055041,0.11681 -29.400261,-0.12512 -29.656046,-0.53762 z m 67.998383,0 c -0.256674,-0.4125 2.529268,-0.62581 6.190983,-0.47403 11.599652,0.48082 12.961099,0.89868 3.46668,1.064 -5.055041,0.088 -9.400989,-0.17747 -9.657663,-0.58997 z m 22.098646,0.0266 c 1.7875,-0.22183 4.7125,-0.22183 6.5,0 1.7875,0.22183 0.325,0.40332 -3.25,0.40332 -3.575,0 -5.0375,-0.18149 -3.25,-0.40332 z m 17.541588,-0.0191 c 3.735373,-0.19293 9.585373,-0.1915 13,0.003 3.414626,0.19467 0.358412,0.35252 -6.791588,0.35077 -7.15,-0.002 -9.943786,-0.16103 -6.208412,-0.35395 z m 34.958412,0.007 c 2.6125,-0.206 6.8875,-0.206 9.5,0 2.6125,0.20599 0.475,0.37454 -4.75,0.37454 -5.225,0 -7.3625,-0.16855 -4.75,-0.37454 z m 22.562504,0.0519 c 0.72187,-0.28887 1.58437,-0.25334 1.91666,0.079 0.33229,0.33229 -0.25833,0.56864 -1.3125,0.52522 -1.16494,-0.048 -1.4019,-0.28494 -0.60416,-0.60417 z m 9.4375,-0.0584 c 3.7125,-0.1924 9.7875,-0.1924 13.5,0 3.7125,0.19241 0.675,0.34983 -6.75,0.34983 -7.425,0 -10.4625,-0.15742 -6.75,-0.34983 z m 36,0.007 c 2.6125,-0.206 6.8875,-0.206 9.5,0 2.6125,0.20599 0.475,0.37454 -4.75,0.37454 -5.225,0 -7.3625,-0.16855 -4.75,-0.37454 z m 30,-0.008 c 4.2625,-0.18746 11.2375,-0.18746 15.5,0 4.2625,0.18745 0.775,0.34082 -7.75,0.34082 -8.525,0 -12.0125,-0.15337 -7.75,-0.34082 z m 33.41666,0.0766 c -0.36666,-0.36667 -0.65977,-1.15417 -0.65135,-1.75 0.009,-0.65395 0.32606,-0.5941 0.79933,0.151 0.58543,0.92168 8.11727,1.30567 29.73469,1.51595 l 28.95067,0.28162 -29.08334,0.23405 c -15.99583,0.12872 -29.38333,-0.066 -29.75,-0.43262 z m 67.74651,-16.83334 c 10e-4,-9.899996 0.1507,-13.814734 0.33256,-8.69941 0.18186,5.11532 0.181,13.21532 -0.002,18 -0.18291,4.78468 -0.33171,0.59941 -0.33066,-9.30059 z m -282.0391074,6 c 0.00226,-6.05 0.1669611,-8.39606 0.366011,-5.21348 0.1990498,3.18258 0.1972039,8.13258 -0.0041,11 -0.201306,2.86742 -0.364165,0.26348 -0.3619088,-5.78652 z m 67.9911634,1 c 0.0026,-5.5 0.170532,-7.62241 0.373174,-4.71647 0.202642,2.90593 0.200512,7.40593 -0.0047,10 -0.205245,2.59406 -0.371043,0.21647 -0.36844,-5.28353 z m 7.809477,-1.69098 c -0.09609,-6.43004 0.162793,-11.90109 0.575293,-12.15788 0.4125,-0.2568 0.628769,3.20415 0.480597,7.69098 -0.485471,14.70074 -0.878134,16.36189 -1.05589,4.4669 z M 276.86067,113.2418 c 0,-6.325 0.16237,-8.9125 0.36082,-5.75 0.19845,3.1625 0.19845,8.3375 0,11.5 -0.19845,3.1625 -0.36082,0.575 -0.36082,-5.75 z m -137.0082,0 c 0,-5.775 0.16528,-8.1375 0.36728,-5.25 0.202,2.8875 0.202,7.6125 0,10.5 -0.202,2.8875 -0.36728,0.525 -0.36728,-5.25 z m 76.96624,1 c 0,-4.125 0.17652,-5.8125 0.39226,-3.75 0.21575,2.0625 0.21575,5.4375 0,7.5 -0.21574,2.0625 -0.39226,0.375 -0.39226,-3.75 z m -69.3362,-10.94098 c 0,-0.51754 0.44484,-1.21591 0.98854,-1.55194 0.56686,-0.35034 0.73451,0.0511 0.39301,0.94099 -0.66479,1.73241 -1.38155,2.04938 -1.38155,0.61095 z m -204.135302,-2.3249 c 0.421889,-0.42124 13.562421,-0.64577 29.201184,-0.49895 l 28.4341138,0.26693 -29.2011838,0.49895 c -16.060651,0.27443 -28.856002,0.15431 -28.434114,-0.26693 z m 68.022009,-0.0254 c 0.437682,-0.43519 4.804724,-0.65701 9.704537,-0.49293 l 8.908752,0.29832 -9.704537,0.49293 c -5.337496,0.27111 -9.346434,0.13686 -8.908752,-0.29832 z m 39.399801,-0.44883 c 3.182582,-0.19905 8.132582,-0.19721 11,0.004 2.867418,0.2013 0.263488,0.36416 -5.786512,0.36191 -6.05,-0.002 -8.39607,-0.16696 -5.213488,-0.36601 z m 34.963488,0.005 c 2.6125,-0.206 6.8875,-0.206 9.5,0 2.6125,0.20599 0.475,0.37454 -4.75,0.37454 -5.225,0 -7.3625,-0.16855 -4.75,-0.37454 z m 32.000004,-0.007 c 3.7125,-0.1924 9.7875,-0.1924 13.5,0 3.7125,0.19241 0.675,0.34983 -6.75,0.34983 -7.425,0 -10.4625,-0.15742 -6.75,-0.34983 z m 37.03017,0.005 c 2.62909,-0.20667 6.67909,-0.20418 9,0.006 2.3209,0.20973 0.16983,0.37883 -4.78017,0.37578 -4.95,-0.003 -6.84893,-0.17464 -4.21983,-0.38132 z m 30.96983,-0.005 c 3.7125,-0.1924 9.7875,-0.1924 13.5,0 3.7125,0.19241 0.675,0.34983 -6.75,0.34983 -7.425,0 -10.4625,-0.15742 -6.75,-0.34983 z m 47.06117,-0.007 c 8.14615,-0.16828 21.19615,-0.16789 29,8.6e-4 7.80385,0.16875 1.13883,0.30643 -14.81117,0.30596 -15.95,-4.8e-4 -22.33498,-0.13855 -14.18883,-0.30682 z M 70.893776,74.241714 c 0,-9.625 0.149984,-13.5625 0.333298,-8.75 0.183314,4.8125 0.183314,12.6875 0,17.5 -0.183314,4.8125 -0.333298,0.875 -0.333298,-8.75 z m 7.781409,11.285184 c -0.160433,-5.174735 0.121308,-6.382857 1.683498,-7.218916 1.98316,-1.061354 57.887887,-0.255114 58.570157,0.84468 0.20098,0.323979 -12.07972,0.249717 -27.29045,-0.165027 -15.210738,-0.414744 -28.646995,-0.524039 -29.858352,-0.242878 -1.92898,0.447724 -2.24653,1.286399 -2.55732,6.75408 l -0.354853,6.242877 z m 69.224465,4.359489 c -0.28605,-0.74543 -0.37842,-4.23293 -0.20528,-7.75 l 0.31482,-6.394673 0.48666,7.752328 c 0.487,7.757829 0.37766,8.930184 -0.5962,6.392345 z m -8.3382,-7.228006 c 0.048,-1.164943 0.28494,-1.401899 0.60417,-0.604167 0.28887,0.721875 0.25334,1.584375 -0.0789,1.916667 -0.33229,0.332292 -0.56864,-0.258333 -0.52522,-1.3125 z"
         id="path39-7" />
      <path
         style="fill:#010101"
         d="m -26.517494,227.24171 v -10 h 4.5 4.5 v -7 -7 h -25 -25 V 147.22119 91.200669 l 67.7499998,0.05044 c 37.2625002,0.02774 68.5375002,0.03698 69.5000002,0.02052 1.596866,-0.0273 1.75,-1.517507 1.75,-17.029919 v -17 h 37.975824 37.97582 l 0.27418,16.75 0.27418,16.75 68.25,0.256941 68.25,0.25694 0.0189,17.243059 c 0.0104,9.48369 0.0566,34.56806 0.10278,55.74306 l 0.0839,38.5 -33.85279,0.5 -33.85278,0.5 -0.28226,11.19653 -0.28225,11.19653 -4.71775,0.30347 -4.71774,0.30347 -0.30226,5.25 -0.30226,5.25 h -13.44774 -13.44774 v -10 -10 h 4.5 c 4.83936,0 4.65384,0.27905 4.65384,-7 0,-2.2 -0.0346,-4.675 -0.0769,-5.5 -0.0678,-1.32152 -10.66667,-1.5 -89.076924,-1.5 h -89 v 11.44521 11.44521 l -4.7500002,0.30479 -4.75,0.30479 -0.30225958,5.25 -0.30225958,5.25 H -13.069754 -26.517494 Z m 68.8,-32.2 c 0.803252,-0.80325 1.2,-5.26666 1.2,-13.5 v -12.3 H 26.951727 10.420948 l 0.280779,12.25 0.280779,12.25 8.992469,0.29247 c 4.945858,0.16086 9.423358,0.72336 9.95,1.25 1.37164,1.37164 10.930988,1.18408 12.357531,-0.24247 z m -39.0135708,-11.681 c 0.4209323,-15.25577 2.9926471,-14.119 -31.9414172,-14.119 h -28.845012 v 11.83334 c 0,6.50833 0.30657,12.1399 0.681268,12.5146 0.374698,0.3747 13.987198,0.5622 30.25,0.41667 l 29.5687318,-0.26461 z m 106.7135748,-1.619 v -12 l -14.92385,-0.27772 c -16.65271,-0.30991 -16.535911,-0.35554 -16.560841,6.47023 l -0.01531,4.1925 -4.25,0.3075 -4.25,0.30749 -0.306796,5.38081 c -0.168738,2.95944 -0.0667,6.00648 0.226757,6.77121 0.435648,1.13528 4.16186,1.34065 20.306796,1.1192 l 19.773244,-0.27122 z m 98.64301,11.25 c 0.19634,-0.6875 0.21629,-6.31905 0.0443,-12.51457 l -0.31265,-11.26456 -30.18735,0.26456 -30.18735,0.26457 -0.5,5 c -0.48709,4.87089 -0.59028,5.00857 -3.99599,5.33171 -1.92279,0.18244 -4.06029,0.80004 -4.75,1.37244 -1.30184,1.08043 -1.77915,10.93738 -0.58735,12.12919 0.36667,0.36666 16.29352,0.66666 35.39301,0.66666 26.92402,0 34.80656,-0.28085 35.08334,-1.25 z m 68.25,-0.33178 c 0.8962,-2.33546 0.70829,-20.71037 -0.22686,-22.18361 -0.62441,-0.9837 -7.35493,-1.20631 -30.23468,-1 l -29.43147,0.26539 -0.28572,10.93574 c -0.15714,6.01465 -0.0588,11.52715 0.21862,12.25 0.4008,1.04448 6.54433,1.31426 29.92872,1.31426 25.90871,0 29.49692,-0.18899 30.03139,-1.58178 z m -220.393014,-32.22474 14.5,-0.69348 v -12 -12 l -28,-0.73493 c -15.4,-0.40421 -29.026254,-0.50468 -30.280565,-0.22327 -2.241215,0.50282 -2.275723,0.72255 -2,12.73493 l 0.280565,12.22327 8.992469,0.29247 c 4.945858,0.16086 9.445858,0.75427 10,1.31869 0.603765,0.61496 3.211645,0.77566 6.507531,0.401 3.025,-0.34386 12.025,-0.93727 20,-1.31868 z M 3.2691073,149.34513 c 0.2636344,-9.56345 0.1094277,-10.58518 -1.9243141,-12.75 l -2.21091546,-2.35342 H -27.610021 c -14.709144,0 -27.455703,0.27315 -28.325686,0.60699 -1.317947,0.50575 -1.581787,2.56293 -1.581787,12.33334 0,6.44949 0.30657,12.03291 0.681268,12.40761 0.374698,0.3747 13.987198,0.5622 30.25,0.41667 l 29.5687318,-0.26461 z m 135.6316127,10.2896 c 1.30668,-0.50143 1.57912,-2.45803 1.56647,-11.25 -0.008,-5.85366 -0.37669,-11.21234 -0.81838,-11.90818 -0.62461,-0.984 -7.45472,-1.20623 -30.73469,-1 l -29.931614,0.26516 -0.285716,10.93574 c -0.157144,6.01465 -0.05877,11.52715 0.218615,12.25 0.400547,1.04381 6.461761,1.31426 29.453925,1.31426 15.92228,0 29.66141,-0.27314 30.53139,-0.60698 z m 69.7248,-0.64302 c 0.19634,-0.6875 0.21629,-6.31905 0.0443,-12.51457 l -0.31265,-11.26456 -30.18735,0.26456 -30.18735,0.26457 -0.28434,11.41976 c -0.21073,8.46342 0.0481,11.63073 1,12.23469 0.70638,0.44821 14.39869,0.82182 30.42735,0.83024 22.46797,0.0118 29.22477,-0.27099 29.5,-1.23469 z m 68.25,-0.33178 c 0.8962,-2.33546 0.70829,-20.71037 -0.22686,-22.18361 -0.62441,-0.9837 -7.35493,-1.20631 -30.23468,-1 l -29.43147,0.26539 -0.28572,10.93574 c -0.15714,6.01465 -0.0588,11.52715 0.21862,12.25 0.4008,1.04448 6.54433,1.31426 29.92872,1.31426 25.90871,0 29.49692,-0.18899 30.03139,-1.58178 z M 1.9007183,125.63473 c 2.5287812,-0.97039 2.2202891,-20.04771 -0.3744908,-23.15872 l -1.88973971,-2.2657 -28.32699079,0.2657 -28.326991,0.2657 -0.284518,11.43886 c -0.156484,6.29137 -0.05811,12.02887 0.218616,12.75 0.398705,1.03901 6.407971,1.31114 28.95273,1.31114 15.647278,0 29.1614012,-0.27314 30.0313843,-0.60698 z m 68.0858827,-0.033 c 1.986301,-0.76222 2.208387,-22.54377 0.245905,-24.11764 -0.779512,-0.62516 -12.165317,-0.95354 -30.25,-0.87245 l -29,0.13003 -0.284518,11.43886 c -0.156484,6.29137 -0.06633,12.00745 0.200348,12.7024 0.374813,0.97674 6.965819,1.26686 29.038612,1.27818 15.704561,0.008 29.226905,-0.24366 30.049653,-0.55938 z m 67.745909,0.0431 2.75,-0.5621 v -10.84911 c 0,-8.34964 -0.34842,-11.19754 -1.51233,-12.36145 -1.28098,-1.28097 -5.75562,-1.50053 -29.25,-1.43521 -15.255723,0.0424 -28.525174,0.48165 -29.487674,0.97609 -1.511641,0.77652 -1.75,2.45054 -1.75,12.29045 0,10.02908 0.209299,11.43962 1.75,11.7939 2.775326,0.63817 54.450884,0.77067 57.500004,0.14743 z m 69.85191,-0.68466 c 1.07906,-0.94047 1.32708,-3.77056 1.08691,-12.40251 l -0.31119,-11.18398 -2.68881,-0.54123 c -4.46712,-0.899179 -54.55743,-0.38242 -56.43882,0.58226 -1.51161,0.77506 -1.75,2.44777 -1.75,12.27878 0,8.20097 0.3493,11.50596 1.25,11.8269 0.6875,0.24497 13.89586,0.49331 29.35191,0.55186 20.79355,0.0788 28.46551,-0.21045 29.5,-1.11208 z m 68.69809,0.0815 c 1.64564,-1.64564 1.64564,-21.95435 0,-23.6 -1.71205,-1.712045 -56.88795,-1.712045 -58.6,0 -1.28418,1.28418 -1.76198,22.90469 -0.53334,24.13334 0.36667,0.36666 13.55167,0.66666 29.3,0.66666 20.93704,0 28.95588,-0.32254 29.83334,-1.2 z M 139.58684,90.461738 c 0.0574,-0.396013 0.22443,-2.520024 0.3712,-4.720024 0.49784,-7.462058 1.8468,-7.105613 -29.54828,-7.80773 -18.176232,-0.406492 -28.840715,-0.273768 -30.051077,0.373998 -1.509187,0.807693 -1.876177,2.157247 -1.876177,6.899365 0,5.35226 0.207244,5.924699 2.25,6.214817 4.438862,0.630419 58.752244,-0.255904 58.854334,-0.960426 z"
         id="path38-9" />
    </g>
    <g
       id="g25"
       transform="matrix(0.96874842,0,0,0.96874842,2.9832174,4.9451305)">
      <path
         id="rect15"
         style="fill:url(#radialGradient16);fill-rule:evenodd;stroke-width:5.31283;stroke-linecap:round;stroke-linejoin:round;stroke-dasharray:none;paint-order:stroke fill markers"
         d="m 162.28068,17.131718 6.77738,7.718687 c 14.83606,10.176161 40.05243,35.096719 46.35882,52.799059 -30.22806,-3.860408 -46.56567,3.040013 -62.92576,9.891727 -12.25281,-13.794148 20.14727,-48.441465 9.78956,-70.409473 z"
         sodipodi:nodetypes="ccccc" />
      <path
         id="rect16"
         style="fill:url(#radialGradient18);fill-rule:evenodd;stroke:url(#radialGradient20);stroke-width:8.17562;stroke-linecap:round;stroke-linejoin:round;stroke-dasharray:none;paint-order:stroke fill markers"
         d="m 154.0954,19.477065 c 26.62116,7.028338 58.21786,39.705383 61.08935,54.775615 -10.57275,-7.513474 -40.86995,-7.535453 -62.24463,-8.277256 5.26112,-5.771451 7.7788,-30.735109 1.15528,-46.498359 z"
         sodipodi:nodetypes="cccc" />
      <path
         id="rect20"
         style="fill:url(#linearGradient25);fill-rule:evenodd;stroke-width:5.82083;stroke-linecap:round;stroke-linejoin:round;paint-order:stroke fill markers"
         d="m 154.46507,21.289603 7.14008,0.594311 c 2.93924,11.484548 5.90595,25.163929 1.78202,39.604877 17.39684,-2.01662 38.85102,2.541784 50.19452,9.956123 l 0.37652,4.706517 c -10.27937,-10.991135 -27.67142,-11.007278 -59.70224,-9.724204 6.65045,-19.81034 4.06359,-35.945334 0.2091,-45.137624 z"
         sodipodi:nodetypes="ccccccc" />
    </g>
  </g>
</svg>
