<?xml version="1.0" encoding="UTF-8" standalone="no"?>
<!-- Created with Inkscape (http://www.inkscape.org/) -->

<svg
   width="256mm"
   height="256mm"
   viewBox="0 0 256 256"
   version="1.1"
   id="svg1"
   inkscape:version="1.4.2 (ebf0e940d0, 2025-05-08)"
   sodipodi:docname="image-x-3ds.svg"
   xml:space="preserve"
   xmlns:inkscape="http://www.inkscape.org/namespaces/inkscape"
   xmlns:sodipodi="http://sodipodi.sourceforge.net/DTD/sodipodi-0.dtd"
   xmlns:xlink="http://www.w3.org/1999/xlink"
   xmlns="http://www.w3.org/2000/svg"
   xmlns:svg="http://www.w3.org/2000/svg"
   xmlns:rdf="http://www.w3.org/1999/02/22-rdf-syntax-ns#"
   xmlns:cc="http://creativecommons.org/ns#"
   xmlns:dc="http://purl.org/dc/elements/1.1/"><title
     id="title1">Grafic File</title><sodipodi:namedview
     id="namedview1"
     pagecolor="#ffffff"
     bordercolor="#000000"
     borderopacity="0.25"
     inkscape:showpageshadow="2"
     inkscape:pageopacity="0.0"
     inkscape:pagecheckerboard="0"
     inkscape:deskcolor="#d1d1d1"
     inkscape:document-units="mm"
     inkscape:zoom="0.45912897"
     inkscape:cx="605.49435"
     inkscape:cy="1148.9146"
     inkscape:current-layer="g26"
     showguides="true" /><defs
     id="defs1"><linearGradient
       id="linearGradient14"
       inkscape:collect="always"><stop
         style="stop-color:#9d9d9d;stop-opacity:0.76277173;"
         offset="0"
         id="stop21" /><stop
         style="stop-color:#898989;stop-opacity:0;"
         offset="1"
         id="stop22" /></linearGradient><linearGradient
       id="linearGradient9"
       inkscape:collect="always"><stop
         style="stop-color:#a4a4a4;stop-opacity:0;"
         offset="0"
         id="stop10" /><stop
         style="stop-color:#9e9e9e;stop-opacity:0.62876189;"
         offset="0.36316207"
         id="stop14" /><stop
         style="stop-color:#9d9d9d;stop-opacity:0.66334069;"
         offset="0.47206032"
         id="stop26" /><stop
         style="stop-color:#9c9c9c;stop-opacity:0.68627453"
         offset="0.58095855"
         id="stop23" /><stop
         style="stop-color:#a5a5a5;stop-opacity:0;"
         offset="1"
         id="stop13" /></linearGradient><linearGradient
       id="linearGradient4"
       inkscape:collect="always"><stop
         style="stop-color:#9e9e9e;stop-opacity:0.77528024;"
         offset="0"
         id="stop4" /><stop
         style="stop-color:#969696;stop-opacity:0;"
         offset="1"
         id="stop9" /></linearGradient><linearGradient
       id="linearGradient24"
       inkscape:collect="always"><stop
         style="stop-color:#ffffff;stop-opacity:1;"
         offset="0"
         id="stop24" /><stop
         style="stop-color:#f8f8f8;stop-opacity:0;"
         offset="1"
         id="stop25" /></linearGradient><linearGradient
       id="linearGradient18"
       inkscape:collect="always"><stop
         style="stop-color:#a3a3a3;stop-opacity:1;"
         offset="0"
         id="stop19" /><stop
         style="stop-color:#8a8a8a;stop-opacity:1;"
         offset="1"
         id="stop20" /></linearGradient><linearGradient
       id="linearGradient16"
       inkscape:collect="always"><stop
         style="stop-color:#ffffff;stop-opacity:1;"
         offset="0"
         id="stop17" /><stop
         style="stop-color:#bbbbbb;stop-opacity:1;"
         offset="1"
         id="stop18" /></linearGradient><linearGradient
       id="linearGradient15"
       inkscape:collect="always"><stop
         style="stop-color:#000000;stop-opacity:0.52193588;"
         offset="0"
         id="stop15" /><stop
         style="stop-color:#000000;stop-opacity:0;"
         offset="1"
         id="stop16" /></linearGradient><linearGradient
       id="linearGradient12"
       inkscape:collect="always"><stop
         style="stop-color:#ffffff;stop-opacity:1;"
         offset="0"
         id="stop11" /><stop
         style="stop-color:#ffffff;stop-opacity:0.64274555;"
         offset="1"
         id="stop12" /></linearGradient><linearGradient
       id="linearGradient6"
       inkscape:collect="always"><stop
         style="stop-color:#ffffff;stop-opacity:1;"
         offset="0"
         id="stop7" /><stop
         style="stop-color:#bbbbbb;stop-opacity:1;"
         offset="1"
         id="stop8" /></linearGradient><linearGradient
       id="linearGradient5"
       inkscape:collect="always"><stop
         style="stop-color:#a3a3a3;stop-opacity:1;"
         offset="0"
         id="stop5" /><stop
         style="stop-color:#8a8a8a;stop-opacity:1;"
         offset="1"
         id="stop6" /></linearGradient><radialGradient
       inkscape:collect="always"
       xlink:href="#linearGradient5"
       id="radialGradient6"
       cx="75.066299"
       cy="74.607521"
       fx="75.066299"
       fy="74.607521"
       r="97.430664"
       gradientTransform="matrix(1.8981695,0,0,2.1817088,-96.702979,-133.54183)"
       gradientUnits="userSpaceOnUse" /><radialGradient
       inkscape:collect="always"
       xlink:href="#linearGradient6"
       id="radialGradient8"
       cx="174.45174"
       cy="189.403"
       fx="174.45174"
       fy="189.403"
       r="92.707426"
       gradientTransform="matrix(3.6956033,0,0,4.275761,-470.25265,-610.78818)"
       gradientUnits="userSpaceOnUse" /><radialGradient
       inkscape:collect="always"
       xlink:href="#linearGradient12"
       id="radialGradient11"
       gradientUnits="userSpaceOnUse"
       gradientTransform="matrix(1.8180173,0,0,2.0895839,-87.463524,-122.50101)"
       cx="75.066299"
       cy="74.607521"
       fx="75.066299"
       fy="74.607521"
       r="97.430664" /><radialGradient
       inkscape:collect="always"
       xlink:href="#linearGradient15"
       id="radialGradient16"
       cx="189.09937"
       cy="54.03986"
       fx="189.09937"
       fy="54.03986"
       r="26.26236"
       gradientTransform="matrix(2.5421412,0.6811647,-0.53467756,1.9954438,-265.4871,-191.34864)"
       gradientUnits="userSpaceOnUse" /><radialGradient
       inkscape:collect="always"
       xlink:href="#linearGradient16"
       id="radialGradient18"
       cx="163.13307"
       cy="81.723709"
       fx="163.13307"
       fy="81.723709"
       r="28.42736"
       gradientTransform="matrix(1.9525628,-0.49137406,0.39129194,1.5548686,-183.5452,34.191671)"
       gradientUnits="userSpaceOnUse" /><radialGradient
       inkscape:collect="always"
       xlink:href="#linearGradient18"
       id="radialGradient20"
       cx="163.86221"
       cy="57.354431"
       fx="163.86221"
       fy="57.354431"
       r="26.811067"
       gradientTransform="matrix(1.7424858,-0.07965295,0.07021751,1.5360764,-129.82848,-12.432711)"
       gradientUnits="userSpaceOnUse" /><linearGradient
       inkscape:collect="always"
       xlink:href="#linearGradient24"
       id="linearGradient25"
       x1="168.39914"
       y1="59.019711"
       x2="182.49422"
       y2="47.129765"
       gradientUnits="userSpaceOnUse" /><radialGradient
       inkscape:collect="always"
       xlink:href="#linearGradient4"
       id="radialGradient9"
       cx="25.964643"
       cy="242.70813"
       fx="25.964643"
       fy="242.70813"
       r="10.821037"
       gradientTransform="matrix(1.3500924,0,0,1.1782891,-7.4889947,-42.382648)"
       gradientUnits="userSpaceOnUse" /><linearGradient
       inkscape:collect="always"
       xlink:href="#linearGradient9"
       id="linearGradient13"
       x1="119.62739"
       y1="227.97072"
       x2="119.62739"
       y2="256.21124"
       gradientUnits="userSpaceOnUse" /><radialGradient
       inkscape:collect="always"
       xlink:href="#linearGradient14"
       id="radialGradient22"
       cx="215.0412"
       cy="241.92787"
       fx="215.0412"
       fy="241.92787"
       r="10.821037"
       gradientTransform="matrix(1.2864395,0,0,1.3278689,-63.973477,-78.809529)"
       gradientUnits="userSpaceOnUse" /><linearGradient
       inkscape:collect="always"
       xlink:href="#linearGradient37"
       id="linearGradient38"
       x1="134.32066"
       y1="62.200924"
       x2="113.11316"
       y2="103.29556"
       gradientUnits="userSpaceOnUse" /><linearGradient
       id="linearGradient37"
       inkscape:collect="always"><stop
         style="stop-color:#868686;stop-opacity:0.29367089;"
         offset="0"
         id="stop37" /><stop
         style="stop-color:#afafaf;stop-opacity:0.26582283;"
         offset="0.21559465"
         id="stop39" /><stop
         style="stop-color:#e3e3e3;stop-opacity:0.4101266;"
         offset="0.45232898"
         id="stop40" /><stop
         style="stop-color:#ffffff;stop-opacity:0.07843137;"
         offset="0.81121176"
         id="stop41" /><stop
         style="stop-color:#ffffff;stop-opacity:0;"
         offset="1"
         id="stop38" /></linearGradient><linearGradient
       inkscape:collect="always"
       xlink:href="#linearGradient6-2"
       id="linearGradient36"
       x1="148.96805"
       y1="93.490295"
       x2="183.8985"
       y2="114.03761"
       gradientUnits="userSpaceOnUse" /><linearGradient
       id="linearGradient6-2"
       inkscape:collect="always"><stop
         style="stop-color:#a3a3a3;stop-opacity:0.97468352;"
         offset="0"
         id="stop35" /><stop
         style="stop-color:#ffffff;stop-opacity:0;"
         offset="1"
         id="stop36" /></linearGradient><linearGradient
       inkscape:collect="always"
       xlink:href="#linearGradient37"
       id="linearGradient52"
       gradientUnits="userSpaceOnUse"
       x1="130.55367"
       y1="106.72011"
       x2="112.08579"
       y2="150.21194" /><linearGradient
       inkscape:collect="always"
       xlink:href="#linearGradient37"
       id="linearGradient53"
       gradientUnits="userSpaceOnUse"
       x1="185.39691"
       y1="20.53788"
       x2="80.121666"
       y2="296.95633" /><radialGradient
       inkscape:collect="always"
       xlink:href="#linearGradient58-1"
       id="radialGradient59"
       cx="123.57336"
       cy="291.41568"
       fx="123.57336"
       fy="291.41568"
       r="166.64836"
       gradientTransform="matrix(0.75247755,-0.25945141,0.13058646,0.37873517,0.25247112,225.25936)"
       gradientUnits="userSpaceOnUse" /><linearGradient
       id="linearGradient58-1"
       inkscape:collect="always"><stop
         style="stop-color:#ffffff;stop-opacity:0.49620253;"
         offset="0"
         id="stop58-5" /><stop
         style="stop-color:#ffffff;stop-opacity:0;"
         offset="1"
         id="stop59-8" /></linearGradient><radialGradient
       inkscape:collect="always"
       xlink:href="#linearGradient59"
       id="radialGradient61"
       cx="90.336494"
       cy="72.543907"
       fx="90.336494"
       fy="72.543907"
       r="184.2386"
       gradientTransform="matrix(0.38188237,1.4738206,-1.6932431,0.43873687,157.95597,-103.82001)"
       gradientUnits="userSpaceOnUse" /><linearGradient
       id="linearGradient59"
       inkscape:collect="always"><stop
         style="stop-color:#efefef;stop-opacity:0.38734177;"
         offset="0"
         id="stop60-9" /><stop
         style="stop-color:#efefef;stop-opacity:0;"
         offset="1"
         id="stop61-3" /></linearGradient></defs><metadata
     id="metadata1"><rdf:RDF><cc:Work
         rdf:about=""><cc:license
           rdf:resource="http://creativecommons.org/publicdomain/zero/1.0/" /><dc:title>Grafic File</dc:title><dc:date>202507</dc:date><dc:creator><cc:Agent><dc:title>Paper sheet by Jakub Steiner </dc:title></cc:Agent></dc:creator><dc:publisher><cc:Agent><dc:title>Blackcrack</dc:title></cc:Agent></dc:publisher><dc:description>Groundfile for Mimetype-files
202507 - Blackcrack - Rebuild the Sheet from  Jakub Steiner total fresh because the Code was buggy (oversize) because that i have must make it fresh with Inkscape 1.4.2 with same Design, now it's in the right size, also at the Icon Themeviewer in Plasma.
202507 finaly many Mimetypes for Tango! from Blackcrack</dc:description><dc:contributor><cc:Agent><dc:title>Paper sheet by Jakub Steiner &lt;http://jimmac.musichall.cz&gt;
202507 Blackcrack : Mimetypes creating for tango!</dc:title></cc:Agent></dc:contributor></cc:Work><cc:License
         rdf:about="http://creativecommons.org/publicdomain/zero/1.0/"><cc:permits
           rdf:resource="http://creativecommons.org/ns#Reproduction" /><cc:permits
           rdf:resource="http://creativecommons.org/ns#Distribution" /><cc:permits
           rdf:resource="http://creativecommons.org/ns#DerivativeWorks" /></cc:License></rdf:RDF></metadata><g
     id="g26"
     transform="matrix(1.0110135,0,0,1.0271114,5.1068557,-7.0669282)"><g
       id="g1"><g
         id="g27"
         inkscape:label="shadow"
         transform="matrix(0.9809334,0,0,0.9809334,5.1601093,4.6032445)"><rect
           style="fill:url(#linearGradient13);fill-rule:evenodd;stroke-width:1.476;stroke-linecap:round;stroke-linejoin:round;paint-order:stroke fill markers"
           id="rect2"
           width="184.84464"
           height="28.737843"
           x="27.673475"
           y="226.00008" /><rect
           style="fill:url(#radialGradient9);fill-rule:evenodd;stroke-width:1.476;stroke-linecap:round;stroke-linejoin:round;paint-order:stroke fill markers"
           id="rect3"
           width="21.580748"
           height="28.737839"
           x="6.1013594"
           y="226.00008" /><rect
           style="fill:url(#radialGradient22);fill-rule:evenodd;stroke-width:1.476;stroke-linecap:round;stroke-linejoin:round;paint-order:stroke fill markers"
           id="rect4"
           width="21.642075"
           height="28.737839"
           x="212.51927"
           y="226.00008" /></g><g
         id="rect1"
         style="opacity:1"
         transform="matrix(0.96874842,0,0,0.96874842,2.9832174,4.9451305)"><path
           style="baseline-shift:baseline;display:inline;overflow:visible;fill:url(#radialGradient6);fill-rule:evenodd;stroke-width:1.00013;stroke-linecap:square;stroke-dasharray:none;paint-order:stroke fill markers;enable-background:accumulate;stop-color:#000000;stop-opacity:1"
           d="m 32.501748,15.190316 c -6.164423,0 -9.332052,2.390294 -9.332052,8.554717 V 232.87562 c 0,6.16442 2.390294,8.16605 8.554717,8.16605 H 211.78111 c 6.16442,0 9.33206,-2.3903 9.33206,-8.55472 V 77.24196 c 0,-7.769553 -48.54277,-62.051644 -67.51449,-62.051644 z m 1.943339,9.445313 H 153.59868 c 7.88599,0 57.28988,47.93445 57.28988,52.606331 v 152.52432 c 0,1.09493 -0.73319,1.83008 -1.82812,1.83008 H 34.445087 c -1.094929,0 -1.830078,-0.73515 -1.830078,-1.83008 V 26.465707 c 0,-1.094929 0.735149,-1.830078 1.830078,-1.830078 z"
           id="path4"
           sodipodi:nodetypes="ssssssssssssssssss" /><path
           style="baseline-shift:baseline;display:inline;overflow:visible;vector-effect:none;fill:url(#radialGradient8);fill-rule:evenodd;stroke-linecap:square;paint-order:stroke fill markers;enable-background:accumulate;stop-color:#000000;stop-opacity:1"
           d="m 35.95035,20.666336 h 126.97059 c 8.45031,0 51.8925,53.10732 51.8925,57.65975 V 228.63696 c 0,3.62968 -2.92208,6.55176 -6.55176,6.55176 H 35.95035 c -3.629676,0 -6.551762,-2.92208 -6.551762,-6.55176 V 27.218098 c 0,-3.629676 2.922086,-6.551762 6.551762,-6.551762 z"
           id="path5"
           sodipodi:nodetypes="sssssssss" /><path
           style="baseline-shift:baseline;display:inline;overflow:visible;opacity:1;fill:url(#radialGradient11);fill-rule:evenodd;stroke-width:0.957899;stroke-linecap:square;stroke-dasharray:none;paint-order:stroke fill markers;enable-background:accumulate;stop-color:#000000;stop-opacity:1"
           d="m 38.490307,20.672015 c -5.904124,0 -9.723771,1.698513 -9.700415,7.602591 l 0.798722,201.901844 c 0.0079,2.00188 2.542406,5.007 6.609957,5.007 H 208.01432 c 4.63265,0 7.40868,-4.18878 7.40868,-7.97377 V 79.352581 c 0,-7.441476 -40.78525,-58.680566 -63.90137,-58.680566 z m 113.031323,6.348757 c 18.21976,0 58.41027,42.155832 58.39934,52.331809 l -0.15572,145.031599 c -0.004,3.59404 -0.98481,4.99145 -5.14153,5.00212 -17.95655,-1.29577 -169.086361,-0.0767 -169.086361,-0.0767 L 35.255444,27.020772 Z"
           id="path11"
           sodipodi:nodetypes="sssssssssssssccs" /></g></g><g
       id="g5"
       transform="matrix(0.98910651,0,0,0.97360426,-7.7154182,0.24976781)"><g
         id="g54"
         style="display:inline"
         transform="matrix(0.35510293,0,0,0.35510293,94.239105,63.452318)"><path
           id="rect1-9"
           style="fill:#005eac;fill-opacity:1;fill-rule:evenodd;stroke-width:3.3;stroke-linejoin:round"
           d="M 88.579454,45.575145 178.4257,80.838905 169.63163,116.91438 123.06179,107.4652 57.915098,81.887549 Z"
           sodipodi:nodetypes="cccccc"
           inkscape:label="colorrect1" /><g
           id="g43"
           style="display:inline"><path
             id="path36"
             style="fill:url(#linearGradient38);fill-opacity:0.651416;fill-rule:evenodd;stroke-width:3.3;stroke-linejoin:round"
             d="M 123.22355,107.18726 178.00844,80.147253 128.31957,61.048857 86.376914,93.302673 Z"
             sodipodi:nodetypes="ccccc" /><path
             id="path6-7"
             style="display:inline;fill:url(#linearGradient36);fill-opacity:0.20915;fill-rule:evenodd;stroke-width:3.3;stroke-linejoin:round"
             d="m 177.7343,80.81945 -8.21893,35.61534 -45.88901,-9.07506 z"
             sodipodi:nodetypes="cccc" /><path
             id="rect2-6"
             style="display:inline;fill:#ffffff;fill-opacity:0.651416;fill-rule:evenodd;stroke-width:3.3;stroke-linejoin:round"
             d="m 168.83046,92.805385 -0.68491,12.328385 -19.51995,-2.73964 z"
             sodipodi:nodetypes="cccc" /><path
             id="path2-5"
             style="display:inline;fill:#ffffff;fill-opacity:0.651416;fill-rule:evenodd;stroke-width:3.3;stroke-linejoin:round"
             d="m 161.98135,106.50359 -22.9445,-2.05473 11.30103,-5.821738 -4.10947,4.451918 z"
             sodipodi:nodetypes="ccccc" /><path
             id="path5-7"
             style="display:inline;fill:#ffffff;fill-opacity:0.651416;fill-rule:evenodd;stroke-width:3.3;stroke-linejoin:round"
             d="m 170.48238,101.36552 3.93028,-16.766348 -10.30651,7.441889 6.85722,-2.334169 z"
             sodipodi:nodetypes="ccccc" /></g><path
           id="rect4518"
           style="display:inline;fill:#005eac;fill-opacity:1;fill-rule:evenodd;stroke-width:3.3;stroke-linejoin:round"
           d="m 213.57848,-83.784752 c 16.061,4.946601 31.55912,13.472862 42.61883,16.466367 1.85848,17.044201 3.68904,31.192509 4.35874,52.789237 C 160.69348,-36.810221 50.252818,-13.864742 18.887903,22.278026 -3.495431,48.071038 -5.4181232,87.041415 -8.2331728,121.07623 -11.910715,165.53885 6.0579909,256.71944 22.260538,264.32187 c 9.17105,4.30317 132.218302,0.19922 195.607762,-44.47546 3.28476,-2.31499 16.76263,-39.35787 15.78349,-59.44463 -0.9893,-20.29527 2.47397,-68.422319 -27.09573,-99.742589 -9.29835,-2.422356 -51.30073,-3.513483 -61.61625,0.05938 -42.84614,29.986381 -50.84956,35.825235 -60.360777,46.700229 -6.715272,7.67816 -6.807637,0.97487 6.543818,15.0825 8.886899,9.39022 8.536201,6.86329 31.189979,1.1362 25.97368,-6.56641 111.18953,29.94155 111.28643,40.48793 0.0447,4.86252 -2.88077,23.87863 -5.59368,28.6289 -5.20688,9.11718 -25.86704,27.9869 -77.05634,38.60239 C 99.677799,241.98924 30.465772,213.55704 20.171898,195.43143 -40.267705,89.008417 27.302899,22.531891 32.656171,18.205312 61.578177,-5.1698002 117.83394,-8.6887728 148.06928,-5.5366654 223.70309,2.3483411 274.89894,37.465311 282.48371,50.937336 c 42.70374,75.850184 16.91002,162.436344 15.31205,170.746104 -1.59796,8.30975 -3.92909,16.15702 -7.00616,23.16402 -3.07708,7.00699 -6.90011,13.17371 -11.4819,18.12236 -20.89577,22.56888 -51.46076,34.12984 -77.88726,43.61785 -75.31515,27.04067 -186.621933,45.86754 -250.21407,-15.02464 -28.347632,-27.14407 -42.15471,-89.10401 -45.161513,-108.73792 -7.489897,-48.90778 -3.34992,-100.628167 6.538116,-149.529147 3.540715,-17.510499 10.56162,-34.3154953 18.645739,-50.246636 C -57.475929,-39.21011 -41.848156,-47.073285 -3.8744285,-61.99103 69.099263,-78.392787 161.72883,-78.048485 213.57848,-83.784752 Z"
           sodipodi:nodetypes="cccsssssccssssssssssssssssascc"
           inkscape:label="colorrect4518" /><g
           id="g53"><path
             id="path52"
             style="fill:url(#linearGradient52);fill-opacity:0.651416;fill-rule:evenodd;stroke-width:3.3;stroke-linejoin:round"
             d="m 128.01792,142.80261 c 26.02619,4.81109 31.17642,-9.35259 77.93714,2.55299 -18.5572,-8.19333 -48.90193,-21.06719 -73.18357,-22.66479 -11.74282,-0.77261 -33.344973,-5.45669 -34.751096,6.22721 10.485376,5.27705 18.580036,8.99856 29.997526,13.88459 z"
             sodipodi:nodetypes="ccccc" /><path
             id="path53"
             style="fill:url(#linearGradient53);fill-opacity:0.651416;fill-rule:evenodd;stroke-width:3.3;stroke-linejoin:round"
             d="m 89.273527,286.64117 c 45.971693,-0.23257 152.684103,-42.7067 162.808013,-47.41351 6.24173,-3.0789 33.73135,-40.69924 8.55794,-145.355799 -0.75293,-3.130248 -28.48575,-26.469166 -50.80101,-30.802192 -3.47639,-0.675021 11.61064,12.493038 15.03062,25.431249 20.78373,78.627572 -2.00203,127.924132 -9.0091,132.245312 -27.33276,16.85579 -100.97458,39.31737 -113.1154,38.51857 -5.871415,-0.38631 -40.25208,10.82362 -77.792578,4.07067 -17.2373564,-3.10073 -1.530842,5.17392 1.87556,11.35833 10.485376,5.27705 51.028465,7.06134 62.445955,11.94737 z"
             sodipodi:nodetypes="ccsssscscc" /></g><path
           id="rect53"
           style="fill:#005eac;fill-opacity:1;fill-rule:evenodd;stroke-width:3.3;stroke-linejoin:round"
           inkscape:label="colortrieangle"
           d="m 230.1659,159.33631 c 0,0 10.76029,9.86744 10.53363,16.3453 -0.74341,7.28426 -23.60986,28.45291 -23.60986,28.45291 z"
           sodipodi:nodetypes="cccc" /><g
           id="g42"
           style="display:inline"><path
             id="path63"
             style="display:inline;fill:#ffffff;fill-opacity:0.08061;fill-rule:evenodd;stroke-width:3.3;stroke-linejoin:round"
             d="m 256.68164,-63.927734 c 0,0 -243.377008,0.534558 -273.148437,44.554687 -91.247773,144.341397 -18.067834,275.808197 -0.484375,313.224607 30.694502,40.3967 42.318237,34.19166 65.664699,37.06389 99.041523,7.50668 210.413403,-44.72082 226.614593,-60.09904 2.53482,-5.43972 9.68615,-18.98864 13.80274,-32.59961 14.95289,-38.27266 18.7962,-85.82243 16.86328,-109.79102 C 301.75362,75.84238 292.71281,44.180621 233.92969,19.037109 214.56071,10.752347 158.63338,3.9217554 105.32227,18.029297 92.903012,21.315762 81.432284,19.487931 60.199219,42.099609 54.336446,48.343039 42.519382,79.73447 41.560547,83.783203 40.601712,87.831936 25.744921,168.18236 57.308594,209.89453 c 13.227024,7.13317 22.378939,15.30626 38.519531,20.65625 22.647235,2.95281 40.207625,5.836 57.394535,-0.0449 29.57232,-6.10945 68.1087,-18.03246 87.59179,-55.30078 -10.59297,-33.09419 -66.98999,-36.56626 -76.15039,-34.85938 -40.94883,7.63007 -38.69586,1.23149 -42.6582,-0.4375 C 111.21088,135.36121 102.30081,130.63231 98.152344,128.6094 95.423393,127.27865 86.70092,119.05466 80.244141,112.69922 79.270203,111.74056 97.627537,94.485193 99.173828,92.970703 108.63764,85.654805 127.5298,72.675476 138.9082,63.224609 142.57449,46.114592 219.82864,50.559426 260.47852,93.421875 286.90174,208.8005 255.3507,232.94273 252.08008,239.51953 108.21551,296.53655 88.995808,287.87216 30.027344,275.20703 10.808735,261.21219 -48.963908,120.72686 19.373047,20.824219 55.924159,-32.610306 241.43166,-20.110917 260.07227,-15.982422 c -5.89579,-13.534319 -3.39063,-47.945312 -3.39063,-47.945312 z M 163.93555,175 c 6.80081,0.0522 35.98139,4.91674 41.16797,5.13867 C 201.12826,184.10676 152.6502,211.0335 152,212.03125 l 10.59375,-36.88281 c 0.17317,-0.10805 0.63826,-0.15384 1.3418,-0.14844 z"
             sodipodi:nodetypes="ccccccsssssccccsssscccccsccscccs" /><path
             id="rect41"
             style="display:inline;fill:#ffffff;fill-opacity:0.087146;fill-rule:evenodd;stroke-width:3.3;stroke-linejoin:round"
             d="m 250.86998,-59.084685 c 0,0 -230.785079,0.534558 -260.5565082,44.554687 C -100.9343,129.8114 -27.754362,252.07641 -10.170903,289.49282 c 30.694502,40.3967 37.475188,28.8643 60.82165,31.73653 87.418203,14.77126 207.507573,-45.20512 219.350023,-56.2246 2.53482,-5.43972 14.42177,-17.27636 19.50697,-28.95011 8.65692,-22.7749 13.09197,-83.17597 11.15905,-107.14456 -4.24052,-52.583395 -22.48313,-81.339325 -66.2528,-101.155483 -19.19122,-8.688582 -76.26491,-11.725219 -104.87647,-9.240995 -12.7986,1.111249 -39.387748,3.395854 -60.620813,26.007532 -5.862773,6.24343 -18.164141,34.729031 -19.122976,38.777764 -0.958835,4.048733 -24.04881,84.883462 7.514863,126.595632 13.227024,7.13317 22.378939,15.30626 38.519531,20.65625 22.647235,2.95281 40.207625,5.836 57.394535,-0.0449 29.57232,-6.10945 68.1087,-18.03246 87.59179,-55.30078 -10.59297,-33.09419 -66.98999,-36.56626 -76.15039,-34.85938 -40.94883,7.63007 -38.69586,1.23149 -42.6582,-0.4375 C 111.21088,135.36121 102.30081,130.63231 98.152344,128.6094 95.423393,127.27865 86.70092,119.05466 80.244141,112.69922 79.270203,111.74056 97.627537,94.485193 99.173828,92.970703 108.63764,85.654805 127.5298,72.675476 138.9082,63.224609 142.57449,46.114592 219.82864,50.559426 260.47852,93.421875 286.90174,208.8005 255.3507,232.94273 252.08008,239.51953 108.21551,296.53655 79.794015,288.84077 20.825551,276.17564 1.6069417,262.1808 -51.869737,118.30534 16.467218,18.402694 53.01833,-35.031831 237.07292,-25.438271 255.71353,-21.309776 c -5.89579,-13.534319 -4.84355,-37.774909 -4.84355,-37.774909 z M 216.06209,176.02921 c -15.27629,19.03612 -47.5509,40.21057 -65.27285,39.2711 -5.992,-22.42196 6.542,-42.17802 9.50406,-50.32227 20.87198,-1.57435 44.15312,-5.84107 55.76879,11.05117 z"
             sodipodi:nodetypes="ccccccsssssccccsssscccccscccccc" /><path
             id="path50"
             style="display:inline;fill:#e9e9e9;fill-opacity:0.152505;fill-rule:evenodd;stroke:none;stroke-width:3.3;stroke-linejoin:round;stroke-opacity:1"
             d="M -5.8116529,-12.591928 C 23.959806,-56.612101 256.6816,-63.928249 256.6816,-63.928249 c 0,0 -2.50566,34.411855 3.39013,47.946188 C 241.43111,-20.11056 83.886588,-58.115179 13.076239,15.982063 -63.493967,117.82202 -13.891268,283.97374 23.246642,288.76681 82.215165,301.43195 114.02766,311.54958 257.89237,254.5325 258.25717,246.01847 305.83488,196.36675 269.04062,85.545632 226.33597,37.54631 172.56516,33.386982 120.95513,50.15456 98.275691,60.632802 85.148962,82.265347 75.685144,89.581252 c -4.405434,3.17877 -6.536045,5.631045 -9.804543,12.372588 -1.331277,8.19445 -1.378916,16.07728 0.318816,18.49383 5.208161,7.41329 16.14749,20.87494 18.876443,22.20567 4.148467,2.02292 16.9338,9.9006 27.72879,14.44762 3.96234,1.66899 13.20525,5.20797 38.78252,2.85866 -7.21527,7.6934 -9.29227,16.91927 -10.6602,26.50616 -1.41674,9.92901 -4.09794,18.90338 -5.26059,29.75294 -16.8428,-2.76894 -15.97952,-3.0565 -38.626777,-6.00932 C 80.898995,204.8594 82.885711,203.46718 69.658674,196.334 56.740709,165.76082 49.34294,130.8933 56.597739,91.248155 57.346687,87.155391 60.665223,73.772703 77.450495,55.570854 88.005441,44.125133 100.6098,33.475722 113.71397,31.90153 c 54.75256,-6.577369 86.47644,-2.877255 107.07744,1.526669 46.83756,10.012572 66.50651,41.019638 70.74703,93.603101 1.93292,23.96861 3.82702,64.6803 -11.12589,102.953 -4.11659,13.61099 -13.68939,23.76991 -16.22421,29.20963 C 247.98713,274.57217 161.03266,307.04929 57.632292,310.1973 34.285807,307.32507 13.743868,305.67476 -3.8744324,287.07174 -21.457909,249.65529 -83.983289,119.64199 -5.8116529,-12.591928 Z"
             sodipodi:nodetypes="ccccccccccssscscccsssssccccc" /><g
             id="g49"
             style="fill:#ffffff;fill-opacity:0.376906"><path
               id="path43"
               style="display:inline;fill:#ffffff;fill-opacity:0.376906;fill-rule:evenodd;stroke-width:3.3;stroke-linejoin:round"
               d="m 257.18392,-35.272895 1.36982,16.780304 -16.7803,-2.311578 12.07154,-2.054725 z"
               sodipodi:nodetypes="ccccc"
               inkscape:label="path43" /><path
               id="path64"
               style="display:inline;fill:#ffffff;fill-opacity:0.376906;fill-rule:evenodd;stroke-width:3.3;stroke-linejoin:round"
               d="m 254.63683,-48.492591 -0.0831,-15.569542 -16.7803,1.100816 13.76661,3.265487 z"
               sodipodi:nodetypes="ccccc"
               inkscape:label="path43" /><path
               id="path44"
               style="display:inline;fill:#ffffff;fill-opacity:0.376906;fill-rule:evenodd;stroke-width:3.3;stroke-linejoin:round"
               d="m 238.53696,-69.951465 -22.60205,-11.814702 -30.99219,3.681399 31.76271,0.513676 z"
               sodipodi:nodetypes="ccccc"
               inkscape:label="path43" /><path
               id="path45"
               style="display:inline;fill:#ffffff;fill-opacity:0.376906;fill-rule:evenodd;stroke-width:3.3;stroke-linejoin:round"
               d="M -16.770223,-3.6251645 -12.328384,-20.889773 16.075234,-31.654428 -7.6196238,-16.52347 Z"
               sodipodi:nodetypes="ccccc"
               inkscape:label="path43" /><path
               id="path46"
               style="display:inline;fill:#ffffff;fill-opacity:0.376906;fill-rule:evenodd;stroke-width:3.3;stroke-linejoin:round"
               d="m -49.988386,-36.843327 c 13.797782,2.655521 21.388736,6.687271 31.989319,17.602903 -12.295286,-5.333439 -19.270483,-10.086395 -31.989319,-17.602903 z"
               sodipodi:nodetypes="ccc"
               inkscape:label="path43" /><path
               id="path47"
               style="display:inline;fill:#ffffff;fill-opacity:0.376906;fill-rule:evenodd;stroke-width:3.3;stroke-linejoin:round"
               d="m -1.096199,288.96551 10.7772628,19.31934 c 10.3240112,2.58214 20.6480222,2.32708 30.9720342,2.20327 -10.029058,-2.15194 -19.714555,-4.47731 -28.831689,-8.45309 z"
               sodipodi:nodetypes="ccccc"
               inkscape:label="path43" /><path
               id="path48"
               style="display:inline;fill:#ffffff;fill-opacity:0.376906;fill-rule:evenodd;stroke-width:3.3;stroke-linejoin:round"
               d="m 216.19255,224.09508 c 13.07132,7.75704 25.50533,12.92708 35.1373,11.45539 -9.38946,-4.59481 -21.93416,-11.22301 -35.1373,-11.45539 z"
               sodipodi:nodetypes="ccc"
               inkscape:label="path43" /><path
               id="path49"
               style="display:inline;fill:#ffffff;fill-opacity:0.376906;fill-rule:evenodd;stroke-width:3.3;stroke-linejoin:round"
               d="M 29.430389,23.882766 C 36.326822,32.971644 46.460384,42.016123 54.760515,45.14533 48.761189,37.765767 35.24788,25.083755 29.430389,23.882766 Z"
               sodipodi:nodetypes="ccc"
               inkscape:label="path43" /><path
               id="path61"
               style="display:inline;fill:#ffffff;fill-opacity:0.376906;fill-rule:evenodd;stroke-width:3.3;stroke-linejoin:round"
               d="m 57.262551,194.94982 c 1.831652,5.35607 6.537605,17.24545 10.499642,20.76061 1.8472,1.15248 20.441329,7.84769 25.559067,8.32926 -6.638935,-3.12055 -15.707603,-8.13288 -23.319686,-11.85487 -2.638222,-2.00301 -9.450276,-11.94779 -12.739023,-17.235 z"
               sodipodi:nodetypes="ccccc"
               inkscape:label="path43" /><path
               id="path62"
               style="display:inline;fill:#ffffff;fill-opacity:0.376906;fill-rule:evenodd;stroke-width:3.3;stroke-linejoin:round"
               d="M 102.88822,21.884963 C 96.98768,23.663411 83.718914,28.269307 79.039404,30.750474 77.313312,32.077487 64.533778,47.152335 62.291504,51.777849 67.538257,46.650965 75.407521,39.910138 81.558268,34.082151 84.357946,32.311825 98.47943,24.325996 102.88822,21.884963 Z"
               sodipodi:nodetypes="ccccc"
               inkscape:label="path43" /><path
               id="path51"
               style="display:inline;fill:#ffffff;fill-opacity:0.376906;fill-rule:evenodd;stroke-width:3.3;stroke-linejoin:round"
               d="m 247.76377,32.404689 c 15.37177,9.815335 24.01947,17.965694 34.62005,29.085932 -6.96793,-9.680012 -12.8205,-23.543408 -34.62005,-29.085932 z"
               sodipodi:nodetypes="ccc"
               inkscape:label="path43" /><path
               id="path54"
               style="display:inline;fill:#ffffff;fill-opacity:0.376906;fill-rule:evenodd;stroke-width:3.3;stroke-linejoin:round"
               d="m 148.43295,203.60677 c -0.34772,4.87176 0.60487,14.58177 2.87184,15.25164 1.8472,1.15248 9.18124,-1.95948 14.54113,-6.32096 -8.09185,1.96465 -14.19415,2.27967 -14.84435,1.2819 -0.76154,-0.5501 -1.94355,-4.74376 -2.56862,-10.21258 z"
               sodipodi:nodetypes="ccccc"
               inkscape:label="path43" /><path
               id="path55"
               style="display:inline;fill:#ffffff;fill-opacity:0.376906;fill-rule:evenodd;stroke-width:3.3;stroke-linejoin:round"
               d="m 204.15934,190.38838 c 4.87176,-1.1052 12.88775,-10.30061 13.38661,-12.71448 -0.68696,-2.45406 -2.27382,-7.20856 -9.54113,-9.42046 4.62833,3.97526 5.20879,5.54863 5.71283,8.24873 0.41598,2.43584 -6.02671,11.08177 -9.55831,13.88621 z"
               sodipodi:nodetypes="ccccc"
               inkscape:label="path43" /><path
               id="path56"
               style="display:inline;fill:#ffffff;fill-opacity:0.376906;fill-rule:evenodd;stroke-width:3.3;stroke-linejoin:round"
               d="m 156.06075,175.02829 c -1.31633,-3.29777 -0.12159,-12.64455 2.14538,-13.31442 1.8472,-1.15248 11.36061,-2.15711 16.7205,2.20437 -8.09185,-0.26958 -15.16275,1.83694 -15.81295,2.83469 -0.76154,0.5501 -1.2171,5.22806 -3.05293,8.27536 z"
               sodipodi:nodetypes="ccccc"
               inkscape:label="path43" /></g><path
             id="path58"
             style="display:inline;fill:url(#radialGradient59);fill-rule:evenodd;stroke-width:3.3;stroke-linejoin:round"
             d="m -16.951172,293.85156 c 30.694502,40.3967 42.318237,34.19166 65.664699,37.06389 99.041523,7.50668 210.413403,-44.72082 226.614593,-60.09904 2.53482,-5.43972 9.68615,-18.98864 13.80274,-32.59961 187.25307,-479.28347 -676.19912,-56.97372 -37.05078,1.30273 -143.86457,57.01702 -163.084272,48.35263 -222.052736,35.6875 z"
             sodipodi:nodetypes="ccccccc" /><path
             id="path41"
             style="display:inline;fill:url(#radialGradient61);fill-rule:evenodd;stroke-width:3.3;stroke-linejoin:round"
             inkscape:label="halfshadow"
             d="m 252.70689,-61.146545 c 0,0 -239.402288,-2.246587 -269.173687,41.773498 -47.045552,74.419573 -51.554726,138.113267 -41.337891,194.562497 16.569696,1.23994 33.339188,4.21634 50.2636724,7.0293 C -17.441495,131.91934 -16.016588,72.560762 19.373047,20.824219 55.924122,-32.610253 240.06185,-22.5081 258.70245,-18.379609 c -5.89579,-13.534305 -5.99556,-42.766936 -5.99556,-42.766936 z M 177.62314,12.988348 C 156.5775,13.040941 128.64585,11.857253 105.32227,18.029297 92.90302,21.315759 85.136619,16.613273 58.486328,42.099609 40.592064,59.212339 40.120943,80.420021 39.162109,84.46875 c -0.798224,3.370549 -9.475612,59.09656 5.820313,101.75391 38.178938,-0.0738 75.998588,-1.94757 113.482418,-5.64844 l 3.45682,-6.55469 c 3.21251,-0.79566 19.94714,3.70204 30.01469,3.449 15.56348,-0.39116 32.62126,-5.30983 46.07342,-7.65603 -14.84615,-27.78407 -64.74662,-31.06909 -73.34571,-29.4668 -40.94879,7.63007 -38.69586,1.23149 -42.6582,-0.4375 -10.79497,-4.547 -19.70505,-9.27592 -23.853516,-11.29882 -2.728949,-1.33073 -11.451431,-9.55473 -17.908203,-15.91016 -0.973937,-0.95866 17.383398,-18.214028 18.929687,-19.728517 9.463802,-7.315891 28.355982,-20.295236 39.734372,-29.746094 3.66629,-17.11 80.92048,-12.66514 121.57032,30.197266 6.55745,28.633545 9.87271,47.172095 10.60742,65.693355 11.77059,-2.44171 23.16209,-6.48138 33.83594,-12.42187 0.60212,-10.53552 1.65157,-11.08397 1.07226,-18.26758 C 301.75362,75.842434 294.08257,45.892872 235.29951,20.749385 224.40447,16.089211 205.7079,12.918164 177.62314,12.988348 Z"
             sodipodi:nodetypes="ccccsccsssscccacsssscccccsss" /></g></g><path
         d="m 105.38403,217.23273 q 0,5.83739 -3.83263,9.02142 -3.832625,3.18403 -10.908205,3.18403 -6.69237,0 -10.64293,-3.06609 -3.95056,-3.0956 -4.62864,-8.90349 l 8.43177,-0.73705 q 0.79602,5.9848 6.8103,5.9848 2.97767,0 4.62864,-1.4741 1.65096,-1.47407 1.65096,-4.5107 0,-2.77128 -2.00477,-4.24535 -2.00473,-1.47409 -5.95529,-1.47409 h -2.88923 v -6.69236 h 2.71234 q 3.56727,0 5.36567,-1.4446 1.7984,-1.4741 1.7984,-4.18641 0,-2.56491 -1.4446,-4.00951 -1.41514,-1.47409 -4.15694,-1.47409 -2.56491,0 -4.15694,1.41511 -1.56252,1.41514 -1.79835,4.00951 l -8.28439,-0.58961 q 0.64859,-5.36569 4.45176,-8.4023 3.80313,-3.03662 9.93531,-3.03662 6.51548,0 10.171245,2.94818 3.68519,2.91868 3.68519,8.10747 0,3.89159 -2.29956,6.39754 -2.270105,2.50595 -6.574425,3.33143 v 0.11794 q 4.776045,0.56015 7.340955,3.15454 2.59436,2.56491 2.59436,6.57441 z m 44.26069,-9.55206 q 0,6.42703 -2.53542,11.23255 -2.50596,4.77602 -7.13457,7.31145 -4.59913,2.53543 -10.55448,2.53543 h -16.8046 v -41.53976 h 15.0357 q 10.49548,0 16.24445,5.30672 5.74892,5.27722 5.74892,15.15361 z m -8.75607,0 q 0,-6.69236 -3.47883,-10.20068 -3.47887,-3.5378 -9.93537,-3.5378 h -6.16167 v 28.09606 h 7.37045 q 5.60153,0 8.90347,-3.86208 3.30195,-3.86212 3.30195,-10.4955 z m 50.21598,9.10986 q 0,6.1027 -4.5402,9.3457 -4.5107,3.21351 -13.26676,3.21351 -7.98955,0 -12.52975,-2.83025 -4.54015,-2.83025 -5.83736,-8.57919 l 8.40228,-1.38563 q 0.855,3.30196 3.33144,4.80551 2.47647,1.4741 6.86923,1.4741 9.10989,0 9.10989,-5.54258 0,-1.7689 -1.06137,-2.91868 -1.03185,-1.14978 -2.94818,-1.91631 -1.88684,-0.76652 -7.28196,-1.85736 -4.65813,-1.09083 -6.48598,-1.73941 -1.82789,-0.67809 -3.30198,-1.56253 -1.47408,-0.91393 -2.50592,-2.18166 -1.03189,-1.26771 -1.62152,-2.97765 -0.56014,-1.70993 -0.56014,-3.92107 0,-5.63102 4.21589,-8.60866 4.24538,-3.00714 12.32333,-3.00714 7.72425,0 11.58633,2.4175 3.89161,2.41751 5.0119,7.98956 l -8.43177,1.14977 q -0.64859,-2.68283 -2.65336,-4.03899 -1.97524,-1.35617 -5.68997,-1.35617 -7.90108,0 -7.90108,4.95293 0,1.62152 0.82546,2.65336 0.85499,1.03186 2.50596,1.76891 1.65098,0.70756 6.69236,1.79839 5.9848,1.2677 8.54967,2.35853 2.59441,1.06134 4.09799,2.50595 1.50354,1.41514 2.29956,3.41987 0.79601,1.97529 0.79601,4.56969 z"
         id="text1"
         style="font-weight:bold;font-size:57.3333px;line-height:0.7;font-family:'Liberation Sans';-inkscape-font-specification:'Liberation Sans Bold';letter-spacing:0.96px;word-spacing:0px;display:inline;fill-rule:evenodd;stroke-width:4.37831"
         aria-label="3DS" /></g><g
       id="g25"
       transform="matrix(0.96874842,0,0,0.96874842,2.9832174,4.9451305)"><path
         id="rect15"
         style="fill:url(#radialGradient16);fill-rule:evenodd;stroke-width:5.31283;stroke-linecap:round;stroke-linejoin:round;stroke-dasharray:none;paint-order:stroke fill markers"
         d="m 162.28068,17.131718 6.77738,7.718687 c 14.83606,10.176161 40.05243,35.096719 46.35882,52.799059 -30.22806,-3.860408 -46.56567,3.040013 -62.92576,9.891727 -12.25281,-13.794148 20.14727,-48.441465 9.78956,-70.409473 z"
         sodipodi:nodetypes="ccccc" /><path
         id="rect16"
         style="fill:url(#radialGradient18);fill-rule:evenodd;stroke:url(#radialGradient20);stroke-width:8.17562;stroke-linecap:round;stroke-linejoin:round;stroke-dasharray:none;paint-order:stroke fill markers"
         d="m 154.0954,19.477065 c 26.62116,7.028338 58.21786,39.705383 61.08935,54.775615 -10.57275,-7.513474 -40.86995,-7.535453 -62.24463,-8.277256 5.26112,-5.771451 7.7788,-30.735109 1.15528,-46.498359 z"
         sodipodi:nodetypes="cccc" /><path
         id="rect20"
         style="fill:url(#linearGradient25);fill-rule:evenodd;stroke-width:5.82083;stroke-linecap:round;stroke-linejoin:round;paint-order:stroke fill markers"
         d="m 154.46507,21.289603 7.14008,0.594311 c 2.93924,11.484548 5.90595,25.163929 1.78202,39.604877 17.39684,-2.01662 38.85102,2.541784 50.19452,9.956123 l 0.37652,4.706517 c -10.27937,-10.991135 -27.67142,-11.007278 -59.70224,-9.724204 6.65045,-19.81034 4.06359,-35.945334 0.2091,-45.137624 z"
         sodipodi:nodetypes="ccccccc" /></g></g></svg>
