<?xml version="1.0" encoding="UTF-8" standalone="no"?>
<!-- Created with Inkscape (http://www.inkscape.org/) -->

<svg
   width="256mm"
   height="256mm"
   viewBox="0 0 256 256"
   version="1.1"
   id="svg1"
   inkscape:version="1.4.2 (ebf0e940d0, 2025-05-08)"
   sodipodi:docname="image-x-xwindowdump.svg"
   xml:space="preserve"
   xmlns:inkscape="http://www.inkscape.org/namespaces/inkscape"
   xmlns:sodipodi="http://sodipodi.sourceforge.net/DTD/sodipodi-0.dtd"
   xmlns:xlink="http://www.w3.org/1999/xlink"
   xmlns="http://www.w3.org/2000/svg"
   xmlns:svg="http://www.w3.org/2000/svg"
   xmlns:rdf="http://www.w3.org/1999/02/22-rdf-syntax-ns#"
   xmlns:cc="http://creativecommons.org/ns#"
   xmlns:dc="http://purl.org/dc/elements/1.1/"><title
     id="title1">Grafic File</title><sodipodi:namedview
     id="namedview1"
     pagecolor="#ffffff"
     bordercolor="#000000"
     borderopacity="0.25"
     inkscape:showpageshadow="2"
     inkscape:pageopacity="0.0"
     inkscape:pagecheckerboard="0"
     inkscape:deskcolor="#d1d1d1"
     inkscape:document-units="mm"
     inkscape:zoom="0.4729823"
     inkscape:cx="397.47787"
     inkscape:cy="946.12419"
     inkscape:current-layer="g26"
     showguides="true" /><defs
     id="defs1"><linearGradient
       id="linearGradient14"
       inkscape:collect="always"><stop
         style="stop-color:#9d9d9d;stop-opacity:0.76277173;"
         offset="0"
         id="stop21" /><stop
         style="stop-color:#898989;stop-opacity:0;"
         offset="1"
         id="stop22" /></linearGradient><linearGradient
       id="linearGradient9"
       inkscape:collect="always"><stop
         style="stop-color:#a4a4a4;stop-opacity:0;"
         offset="0"
         id="stop10" /><stop
         style="stop-color:#9e9e9e;stop-opacity:0.62876189;"
         offset="0.36316207"
         id="stop14" /><stop
         style="stop-color:#9d9d9d;stop-opacity:0.66334069;"
         offset="0.47206032"
         id="stop26" /><stop
         style="stop-color:#9c9c9c;stop-opacity:0.68627453"
         offset="0.58095855"
         id="stop23" /><stop
         style="stop-color:#a5a5a5;stop-opacity:0;"
         offset="1"
         id="stop13" /></linearGradient><linearGradient
       id="linearGradient4"
       inkscape:collect="always"><stop
         style="stop-color:#9e9e9e;stop-opacity:0.77528024;"
         offset="0"
         id="stop4" /><stop
         style="stop-color:#969696;stop-opacity:0;"
         offset="1"
         id="stop9" /></linearGradient><linearGradient
       id="linearGradient24"
       inkscape:collect="always"><stop
         style="stop-color:#ffffff;stop-opacity:1;"
         offset="0"
         id="stop24" /><stop
         style="stop-color:#f8f8f8;stop-opacity:0;"
         offset="1"
         id="stop25" /></linearGradient><linearGradient
       id="linearGradient18"
       inkscape:collect="always"><stop
         style="stop-color:#a3a3a3;stop-opacity:1;"
         offset="0"
         id="stop19" /><stop
         style="stop-color:#8a8a8a;stop-opacity:1;"
         offset="1"
         id="stop20" /></linearGradient><linearGradient
       id="linearGradient16"
       inkscape:collect="always"><stop
         style="stop-color:#ffffff;stop-opacity:1;"
         offset="0"
         id="stop17" /><stop
         style="stop-color:#bbbbbb;stop-opacity:1;"
         offset="1"
         id="stop18" /></linearGradient><linearGradient
       id="linearGradient15"
       inkscape:collect="always"><stop
         style="stop-color:#000000;stop-opacity:0.52193588;"
         offset="0"
         id="stop15" /><stop
         style="stop-color:#000000;stop-opacity:0;"
         offset="1"
         id="stop16" /></linearGradient><linearGradient
       id="linearGradient12"
       inkscape:collect="always"><stop
         style="stop-color:#ffffff;stop-opacity:1;"
         offset="0"
         id="stop11" /><stop
         style="stop-color:#ffffff;stop-opacity:0.64274555;"
         offset="1"
         id="stop12" /></linearGradient><linearGradient
       id="linearGradient6"
       inkscape:collect="always"><stop
         style="stop-color:#ffffff;stop-opacity:1;"
         offset="0"
         id="stop7" /><stop
         style="stop-color:#bbbbbb;stop-opacity:1;"
         offset="1"
         id="stop8" /></linearGradient><linearGradient
       id="linearGradient5"
       inkscape:collect="always"><stop
         style="stop-color:#a3a3a3;stop-opacity:1;"
         offset="0"
         id="stop5" /><stop
         style="stop-color:#8a8a8a;stop-opacity:1;"
         offset="1"
         id="stop6" /></linearGradient><radialGradient
       inkscape:collect="always"
       xlink:href="#linearGradient5"
       id="radialGradient6"
       cx="75.066299"
       cy="74.607521"
       fx="75.066299"
       fy="74.607521"
       r="97.430664"
       gradientTransform="matrix(1.8981695,0,0,2.1817088,-96.702979,-133.54183)"
       gradientUnits="userSpaceOnUse" /><radialGradient
       inkscape:collect="always"
       xlink:href="#linearGradient6"
       id="radialGradient8"
       cx="174.45174"
       cy="189.403"
       fx="174.45174"
       fy="189.403"
       r="92.707426"
       gradientTransform="matrix(3.6956033,0,0,4.275761,-470.25265,-610.78818)"
       gradientUnits="userSpaceOnUse" /><radialGradient
       inkscape:collect="always"
       xlink:href="#linearGradient12"
       id="radialGradient11"
       gradientUnits="userSpaceOnUse"
       gradientTransform="matrix(1.8180173,0,0,2.0895839,-87.463524,-122.50101)"
       cx="75.066299"
       cy="74.607521"
       fx="75.066299"
       fy="74.607521"
       r="97.430664" /><radialGradient
       inkscape:collect="always"
       xlink:href="#linearGradient15"
       id="radialGradient16"
       cx="189.09937"
       cy="54.03986"
       fx="189.09937"
       fy="54.03986"
       r="26.26236"
       gradientTransform="matrix(2.5421412,0.6811647,-0.53467756,1.9954438,-265.4871,-191.34864)"
       gradientUnits="userSpaceOnUse" /><radialGradient
       inkscape:collect="always"
       xlink:href="#linearGradient16"
       id="radialGradient18"
       cx="163.13307"
       cy="81.723709"
       fx="163.13307"
       fy="81.723709"
       r="28.42736"
       gradientTransform="matrix(1.9525628,-0.49137406,0.39129194,1.5548686,-183.5452,34.191671)"
       gradientUnits="userSpaceOnUse" /><radialGradient
       inkscape:collect="always"
       xlink:href="#linearGradient18"
       id="radialGradient20"
       cx="163.86221"
       cy="57.354431"
       fx="163.86221"
       fy="57.354431"
       r="26.811067"
       gradientTransform="matrix(1.7424858,-0.07965295,0.07021751,1.5360764,-129.82848,-12.432711)"
       gradientUnits="userSpaceOnUse" /><linearGradient
       inkscape:collect="always"
       xlink:href="#linearGradient24"
       id="linearGradient25"
       x1="168.39914"
       y1="59.019711"
       x2="182.49422"
       y2="47.129765"
       gradientUnits="userSpaceOnUse" /><radialGradient
       inkscape:collect="always"
       xlink:href="#linearGradient4"
       id="radialGradient9"
       cx="25.964643"
       cy="242.70813"
       fx="25.964643"
       fy="242.70813"
       r="10.821037"
       gradientTransform="matrix(1.3500924,0,0,1.1782891,-7.4889947,-42.382648)"
       gradientUnits="userSpaceOnUse" /><linearGradient
       inkscape:collect="always"
       xlink:href="#linearGradient9"
       id="linearGradient13"
       x1="119.62739"
       y1="227.97072"
       x2="119.62739"
       y2="256.21124"
       gradientUnits="userSpaceOnUse" /><radialGradient
       inkscape:collect="always"
       xlink:href="#linearGradient14"
       id="radialGradient22"
       cx="215.0412"
       cy="241.92787"
       fx="215.0412"
       fy="241.92787"
       r="10.821037"
       gradientTransform="matrix(1.2864395,0,0,1.3278689,-63.973477,-78.809529)"
       gradientUnits="userSpaceOnUse" /><linearGradient
       inkscape:collect="always"
       xlink:href="#linearGradient56"
       id="linearGradient57"
       x1="132.65276"
       y1="145.28073"
       x2="173.16696"
       y2="282.33902"
       gradientUnits="userSpaceOnUse" /><linearGradient
       id="linearGradient56"
       inkscape:collect="always"><stop
         style="stop-color:#0054be;stop-opacity:1;"
         offset="0"
         id="stop56" /><stop
         style="stop-color:#002e6a;stop-opacity:1;"
         offset="1"
         id="stop57" /></linearGradient></defs><metadata
     id="metadata1"><rdf:RDF><cc:Work
         rdf:about=""><cc:license
           rdf:resource="http://creativecommons.org/publicdomain/zero/1.0/" /><dc:title>Grafic File</dc:title><dc:date>202507</dc:date><dc:creator><cc:Agent><dc:title>Paper sheet by Jakub Steiner </dc:title></cc:Agent></dc:creator><dc:publisher><cc:Agent><dc:title>Blackcrack</dc:title></cc:Agent></dc:publisher><dc:description>Groundfile for Mimetype-files
202507 - Blackcrack - Rebuild the Sheet from  Jakub Steiner total fresh because the Code was buggy (oversize) because that i have must make it fresh with Inkscape 1.4.2 with same Design, now it's in the right size, also at the Icon Themeviewer in Plasma.
202507 finaly many Mimetypes for Tango! from Blackcrack</dc:description><dc:contributor><cc:Agent><dc:title>Paper sheet by Jakub Steiner &lt;http://jimmac.musichall.cz&gt;
202507 Blackcrack : Mimetypes creating for tango!</dc:title></cc:Agent></dc:contributor></cc:Work><cc:License
         rdf:about="http://creativecommons.org/publicdomain/zero/1.0/"><cc:permits
           rdf:resource="http://creativecommons.org/ns#Reproduction" /><cc:permits
           rdf:resource="http://creativecommons.org/ns#Distribution" /><cc:permits
           rdf:resource="http://creativecommons.org/ns#DerivativeWorks" /></cc:License></rdf:RDF></metadata><g
     id="g26"
     transform="matrix(1.0110135,0,0,1.0271114,5.1068557,-7.0669282)"><g
       id="g1"><g
         id="g27"
         inkscape:label="shadow"
         transform="matrix(0.9809334,0,0,0.9809334,5.1601093,4.6032445)"><rect
           style="fill:url(#linearGradient13);fill-rule:evenodd;stroke-width:1.476;stroke-linecap:round;stroke-linejoin:round;paint-order:stroke fill markers"
           id="rect2"
           width="184.84464"
           height="28.737843"
           x="27.673475"
           y="226.00008" /><rect
           style="fill:url(#radialGradient9);fill-rule:evenodd;stroke-width:1.476;stroke-linecap:round;stroke-linejoin:round;paint-order:stroke fill markers"
           id="rect3"
           width="21.580748"
           height="28.737839"
           x="6.1013594"
           y="226.00008" /><rect
           style="fill:url(#radialGradient22);fill-rule:evenodd;stroke-width:1.476;stroke-linecap:round;stroke-linejoin:round;paint-order:stroke fill markers"
           id="rect4"
           width="21.642075"
           height="28.737839"
           x="212.51927"
           y="226.00008" /></g><g
         id="rect1"
         style="opacity:1"
         transform="matrix(0.96874842,0,0,0.96874842,2.9832174,4.9451305)"><path
           style="baseline-shift:baseline;display:inline;overflow:visible;fill:url(#radialGradient6);fill-rule:evenodd;stroke-width:1.00013;stroke-linecap:square;stroke-dasharray:none;paint-order:stroke fill markers;enable-background:accumulate;stop-color:#000000;stop-opacity:1"
           d="m 32.501748,15.190316 c -6.164423,0 -9.332052,2.390294 -9.332052,8.554717 V 232.87562 c 0,6.16442 2.390294,8.16605 8.554717,8.16605 H 211.78111 c 6.16442,0 9.33206,-2.3903 9.33206,-8.55472 V 77.24196 c 0,-7.769553 -48.54277,-62.051644 -67.51449,-62.051644 z m 1.943339,9.445313 H 153.59868 c 7.88599,0 57.28988,47.93445 57.28988,52.606331 v 152.52432 c 0,1.09493 -0.73319,1.83008 -1.82812,1.83008 H 34.445087 c -1.094929,0 -1.830078,-0.73515 -1.830078,-1.83008 V 26.465707 c 0,-1.094929 0.735149,-1.830078 1.830078,-1.830078 z"
           id="path4"
           sodipodi:nodetypes="ssssssssssssssssss" /><path
           style="baseline-shift:baseline;display:inline;overflow:visible;vector-effect:none;fill:url(#radialGradient8);fill-rule:evenodd;stroke-linecap:square;paint-order:stroke fill markers;enable-background:accumulate;stop-color:#000000;stop-opacity:1"
           d="m 35.95035,20.666336 h 126.97059 c 8.45031,0 51.8925,53.10732 51.8925,57.65975 V 228.63696 c 0,3.62968 -2.92208,6.55176 -6.55176,6.55176 H 35.95035 c -3.629676,0 -6.551762,-2.92208 -6.551762,-6.55176 V 27.218098 c 0,-3.629676 2.922086,-6.551762 6.551762,-6.551762 z"
           id="path5"
           sodipodi:nodetypes="sssssssss" /><path
           style="baseline-shift:baseline;display:inline;overflow:visible;opacity:1;fill:url(#radialGradient11);fill-rule:evenodd;stroke-width:0.957899;stroke-linecap:square;stroke-dasharray:none;paint-order:stroke fill markers;enable-background:accumulate;stop-color:#000000;stop-opacity:1"
           d="m 38.490307,20.672015 c -5.904124,0 -9.723771,1.698513 -9.700415,7.602591 l 0.798722,201.901844 c 0.0079,2.00188 2.542406,5.007 6.609957,5.007 H 208.01432 c 4.63265,0 7.40868,-4.18878 7.40868,-7.97377 V 79.352581 c 0,-7.441476 -40.78525,-58.680566 -63.90137,-58.680566 z m 113.031323,6.348757 c 18.21976,0 58.41027,42.155832 58.39934,52.331809 l -0.15572,145.031599 c -0.004,3.59404 -0.98481,4.99145 -5.14153,5.00212 -17.95655,-1.29577 -169.086361,-0.0767 -169.086361,-0.0767 L 35.255444,27.020772 Z"
           id="path11"
           sodipodi:nodetypes="sssssssssssssccs" /></g></g><g
       id="g57"
       transform="matrix(0.68821397,0,0,0.6774276,34.233976,15.305134)"
       style="display:inline"><path
         style="font-weight:bold;font-size:66.6666px;line-height:1.8;font-family:'Liberation Sans';-inkscape-font-specification:'Liberation Sans Bold';letter-spacing:0.959999px;word-spacing:0px;fill-opacity:0.98234;fill-rule:evenodd;stroke-width:9.99999;stroke-linejoin:round"
         d="m 134.92322,198.71898 -11.52342,-18.2617 -11.52343,18.2617 h -10.15624 l 15.8854,-24.12107 -14.55077,-21.74477 H 113.211 l 10.1888,16.21092 10.18879,-16.21092 h 10.09114 l -13.93228,21.74477 15.26691,24.12107 z m 62.64614,0 h -11.39322 l -6.21744,-26.52992 q -1.13932,-4.6875 -1.92057,-9.79817 -0.78125,4.26432 -1.26953,6.51041 -0.48828,2.21354 -6.93359,29.81768 H 158.44179 L 146.6254,152.85314 h 9.73306 l 6.64062,29.62236 1.4974,7.16146 q 0.91145,-4.52474 1.75781,-8.6263 0.8789,-4.13411 6.51041,-28.15752 h 10.74217 l 5.79427,24.41404 q 0.68359,2.73437 2.3112,12.36978 l 0.8138,-3.77604 1.72526,-7.48697 5.53384,-25.52081 h 9.73307 z m 58.21906,-23.27472 q 0,7.09635 -2.79947,12.40233 -2.76693,5.27344 -7.8776,8.07291 -5.07812,2.79948 -11.65364,2.79948 h -18.55467 v -45.86584 h 16.60155 q 11.58853,0 17.93618,5.85937 6.34765,5.82681 6.34765,16.73175 z m -9.66796,0 q 0,-7.38931 -3.84114,-11.26301 -3.84114,-3.90624 -10.97004,-3.90624 h -6.80338 v 31.0221 h 8.13801 q 6.18489,0 9.83072,-4.26432 3.64583,-4.26432 3.64583,-11.58853 z"
         id="text56"
         aria-label="XWD" /><path
         style="fill:url(#linearGradient57);fill-opacity:1"
         d="m 109.36177,289.39282 c -13.959042,-1.53952 -35.435011,-7.83931 -35.38581,-10.38013 0.02907,-1.50127 3.736779,-9.63414 4.392126,-9.63414 0.281529,0 2.874308,0.93119 5.761731,2.0693 11.890645,4.68686 21.548183,6.33212 36.824183,6.2734 12.37111,-0.0476 15.96819,-0.44377 24.5,-2.69859 25.49872,-6.73891 49.71235,-24.69536 61.55226,-45.6462 l 3.44774,-6.10081 5.72895,0.36374 c 3.15093,0.20005 6.00361,0.63839 6.3393,0.97408 0.82196,0.82196 -6.81696,13.85187 -12.41366,21.17432 -16.54226,21.6431 -42.13407,37.32587 -68.58353,42.02828 -10.75019,1.91126 -23.47434,2.53504 -32.16329,1.57675 z M 55.286912,277.30129 c -5.127889,-1.51703 -8.332914,-6.17076 -8.332914,-12.09946 0,-4.37941 0.435799,-5.45908 3.4,-8.42328 2.964201,-2.9642 4.043864,-3.4 8.423275,-3.4 6.279364,0 10.629085,3.25251 12.212175,9.13165 2.420912,8.99058 -6.596847,17.4849 -15.702536,14.79109 z M 36.34521,252.58352 C 22.473565,236.69911 13.23858,217.87445 9.2976604,197.44962 7.1402209,186.26813 7.176428,165.51332 9.3710541,155.37855 16.05015,124.53454 32.782354,99.265783 57.352779,82.917187 c 8.452484,-5.624089 23.962839,-13.06096 29.585148,-14.185421 2.546731,-0.509347 2.795953,-0.224098 4.196061,4.802638 l 1.488517,5.344147 -7.084254,2.594722 C 71.814399,86.499856 61.931784,92.661476 50.89608,103.072 12.129307,139.64261 8.3358365,198.79054 42.058927,240.86121 l 6.604929,8.23987 -3.437864,4.13874 c -1.890825,2.2763 -3.738043,4.11847 -4.104929,4.0937 -0.366886,-0.0248 -2.51602,-2.16226 -4.775853,-4.75 z M 111.454,240.74804 c -15.419076,-2.38965 -30.603034,-11.00071 -40.692694,-23.07748 -5.194041,-6.21698 -10.826833,-16.8298 -11.118687,-20.94888 -0.169941,-2.39845 0.303109,-2.79002 4.776721,-3.95393 2.730939,-0.71052 5.002593,-1.20125 5.04812,-1.09052 0.04553,0.11073 1.821315,3.80132 3.946195,8.20132 6.840258,14.16416 21.118351,25.40083 36.277765,28.55013 6.94557,1.44291 21.13066,0.73525 26.8026,-1.33713 l 4.04002,-1.47611 2.11746,5.37972 c 1.16459,2.95885 1.82158,5.55817 1.45997,5.77628 -4.58791,2.7672 -24.67707,5.21339 -32.65747,3.9766 z m 37.5,-11.36949 c -2.40261,-2.40261 -2.53847,-4.78621 -0.4433,-7.77749 3.17887,-4.53848 10.4433,-1.96895 10.4433,3.69393 0,5.4555 -6.12633,7.95723 -10,4.08356 z m -95.229784,-45.9661 c -8.144019,-6.40609 -4.453276,-19.40413 5.868202,-20.66661 11.096523,-1.35728 17.460027,13.69051 8.702615,20.57909 -3.510087,2.76104 -11.113925,2.80671 -14.570817,0.0875 z M 65.672962,154.08094 C 62.19597,152.555 61.050007,151.55936 61.4715,150.43062 63.369603,145.34759 69.387243,136.94243 75.564569,130.74608 88.17179,118.10003 105.07273,111.7122 123.454,112.64594 c 8.88656,0.45143 21.5,3.25658 21.5,4.78148 0,0.43193 -0.90585,2.89858 -2.013,5.48146 -1.74237,4.06478 -2.31375,4.60836 -4.25,4.04327 -1.23035,-0.35907 -5.387,-1.34371 -9.237,-2.18808 -10.7898,-2.36639 -23.22248,-0.27338 -34.770727,5.85356 -6.688618,3.54865 -17.052708,14.06217 -20.727558,21.02641 -1.374055,2.60398 -2.724055,4.68966 -3,4.63483 -0.275944,-0.0548 -2.653183,-1.04389 -5.282753,-2.19793 z M 215.88453,137.72399 c -0.86321,-0.2324 -2.59298,-2.52925 -3.84394,-5.10411 -4.19839,-8.64155 -11.31299,-18.68493 -18.47709,-26.08335 -5.91799,-6.11154 -8.95703,-8.684631 -17.48033,-14.800223 -0.69691,-0.500047 5.36817,-9.354175 6.40884,-9.355967 0.57091,-9.84e-4 4.62091,2.867603 9,6.374638 14.50771,11.618632 27.1478,28.421002 33.38134,44.373572 l 2.05146,5.25 -4.7354,-0.116 c -2.60448,-0.0638 -5.44167,-0.30615 -6.30488,-0.53856 z m -63.91392,-2.63143 c -7.53778,-3.81386 -2.65409,-15.16703 5.62989,-13.08788 5.87377,1.47422 6.46187,11.24157 0.80633,13.3918 -3.23834,1.23122 -3.419,1.22269 -6.43622,-0.30392 z M 126.86312,94.88532 c -6.01551,-1.932054 -13.34268,-8.481036 -16.65195,-14.883419 -3.59699,-6.959029 -3.79669,-17.887092 -0.4523,-24.750633 4.8816,-10.018297 13.42077,-15.865543 24.31136,-16.647348 8.76418,-0.629157 15.34845,1.588726 21.7182,7.315682 7.10597,6.388876 9.52047,12.565493 8.95621,22.911163 -0.47373,8.685902 -1.8555,12.274193 -6.96932,18.09851 -6.88317,7.839496 -20.42409,11.324599 -30.9122,7.956045 z"
         id="path56"
         sodipodi:nodetypes="ssssssscssssssssssssssssscssscssssssssssscssssssssssssssssssssssssssssssscssssssssssssss" /></g><g
       id="g25"
       transform="matrix(0.96874842,0,0,0.96874842,2.9832174,4.9451305)"><path
         id="rect15"
         style="fill:url(#radialGradient16);fill-rule:evenodd;stroke-width:5.31283;stroke-linecap:round;stroke-linejoin:round;stroke-dasharray:none;paint-order:stroke fill markers"
         d="m 162.28068,17.131718 6.77738,7.718687 c 14.83606,10.176161 40.05243,35.096719 46.35882,52.799059 -30.22806,-3.860408 -46.56567,3.040013 -62.92576,9.891727 -12.25281,-13.794148 20.14727,-48.441465 9.78956,-70.409473 z"
         sodipodi:nodetypes="ccccc" /><path
         id="rect16"
         style="fill:url(#radialGradient18);fill-rule:evenodd;stroke:url(#radialGradient20);stroke-width:8.17562;stroke-linecap:round;stroke-linejoin:round;stroke-dasharray:none;paint-order:stroke fill markers"
         d="m 154.0954,19.477065 c 26.62116,7.028338 58.21786,39.705383 61.08935,54.775615 -10.57275,-7.513474 -40.86995,-7.535453 -62.24463,-8.277256 5.26112,-5.771451 7.7788,-30.735109 1.15528,-46.498359 z"
         sodipodi:nodetypes="cccc" /><path
         id="rect20"
         style="fill:url(#linearGradient25);fill-rule:evenodd;stroke-width:5.82083;stroke-linecap:round;stroke-linejoin:round;paint-order:stroke fill markers"
         d="m 154.46507,21.289603 7.14008,0.594311 c 2.93924,11.484548 5.90595,25.163929 1.78202,39.604877 17.39684,-2.01662 38.85102,2.541784 50.19452,9.956123 l 0.37652,4.706517 c -10.27937,-10.991135 -27.67142,-11.007278 -59.70224,-9.724204 6.65045,-19.81034 4.06359,-35.945334 0.2091,-45.137624 z"
         sodipodi:nodetypes="ccccccc" /></g></g></svg>
