<?xml version="1.0" encoding="UTF-8" standalone="no"?>
<!-- Created with Inkscape (http://www.inkscape.org/) -->

<svg
   width="256mm"
   height="256mm"
   viewBox="0 0 256 256"
   version="1.1"
   id="svg1"
   inkscape:version="1.4.2 (ebf0e940d0, 2025-05-08)"
   sodipodi:docname="image-x-xcf-3.0.svg"
   xml:space="preserve"
   xmlns:inkscape="http://www.inkscape.org/namespaces/inkscape"
   xmlns:sodipodi="http://sodipodi.sourceforge.net/DTD/sodipodi-0.dtd"
   xmlns:xlink="http://www.w3.org/1999/xlink"
   xmlns="http://www.w3.org/2000/svg"
   xmlns:svg="http://www.w3.org/2000/svg"
   xmlns:rdf="http://www.w3.org/1999/02/22-rdf-syntax-ns#"
   xmlns:cc="http://creativecommons.org/ns#"
   xmlns:dc="http://purl.org/dc/elements/1.1/"><title
     id="title1">Grafic File</title><sodipodi:namedview
     id="namedview1"
     pagecolor="#ffffff"
     bordercolor="#000000"
     borderopacity="0.25"
     inkscape:showpageshadow="2"
     inkscape:pageopacity="0.0"
     inkscape:pagecheckerboard="0"
     inkscape:deskcolor="#d1d1d1"
     inkscape:document-units="mm"
     inkscape:zoom="0.4729823"
     inkscape:cx="397.47787"
     inkscape:cy="946.12419"
     inkscape:current-layer="g26"
     showguides="true" /><defs
     id="defs1"><linearGradient
       id="linearGradient14"
       inkscape:collect="always"><stop
         style="stop-color:#9d9d9d;stop-opacity:0.76277173;"
         offset="0"
         id="stop21" /><stop
         style="stop-color:#898989;stop-opacity:0;"
         offset="1"
         id="stop22" /></linearGradient><linearGradient
       id="linearGradient9"
       inkscape:collect="always"><stop
         style="stop-color:#a4a4a4;stop-opacity:0;"
         offset="0"
         id="stop10" /><stop
         style="stop-color:#9e9e9e;stop-opacity:0.62876189;"
         offset="0.36316207"
         id="stop14" /><stop
         style="stop-color:#9d9d9d;stop-opacity:0.66334069;"
         offset="0.47206032"
         id="stop26" /><stop
         style="stop-color:#9c9c9c;stop-opacity:0.68627453"
         offset="0.58095855"
         id="stop23" /><stop
         style="stop-color:#a5a5a5;stop-opacity:0;"
         offset="1"
         id="stop13" /></linearGradient><linearGradient
       id="linearGradient4"
       inkscape:collect="always"><stop
         style="stop-color:#9e9e9e;stop-opacity:0.77528024;"
         offset="0"
         id="stop4" /><stop
         style="stop-color:#969696;stop-opacity:0;"
         offset="1"
         id="stop9" /></linearGradient><linearGradient
       id="linearGradient24"
       inkscape:collect="always"><stop
         style="stop-color:#ffffff;stop-opacity:1;"
         offset="0"
         id="stop24" /><stop
         style="stop-color:#f8f8f8;stop-opacity:0;"
         offset="1"
         id="stop25" /></linearGradient><linearGradient
       id="linearGradient18"
       inkscape:collect="always"><stop
         style="stop-color:#a3a3a3;stop-opacity:1;"
         offset="0"
         id="stop19" /><stop
         style="stop-color:#8a8a8a;stop-opacity:1;"
         offset="1"
         id="stop20" /></linearGradient><linearGradient
       id="linearGradient16"
       inkscape:collect="always"><stop
         style="stop-color:#ffffff;stop-opacity:1;"
         offset="0"
         id="stop17" /><stop
         style="stop-color:#bbbbbb;stop-opacity:1;"
         offset="1"
         id="stop18" /></linearGradient><linearGradient
       id="linearGradient15"
       inkscape:collect="always"><stop
         style="stop-color:#000000;stop-opacity:0.52193588;"
         offset="0"
         id="stop15" /><stop
         style="stop-color:#000000;stop-opacity:0;"
         offset="1"
         id="stop16" /></linearGradient><linearGradient
       id="linearGradient12"
       inkscape:collect="always"><stop
         style="stop-color:#ffffff;stop-opacity:1;"
         offset="0"
         id="stop11" /><stop
         style="stop-color:#ffffff;stop-opacity:0.64274555;"
         offset="1"
         id="stop12" /></linearGradient><linearGradient
       id="linearGradient6"
       inkscape:collect="always"><stop
         style="stop-color:#ffffff;stop-opacity:1;"
         offset="0"
         id="stop7" /><stop
         style="stop-color:#bbbbbb;stop-opacity:1;"
         offset="1"
         id="stop8" /></linearGradient><linearGradient
       id="linearGradient5"
       inkscape:collect="always"><stop
         style="stop-color:#a3a3a3;stop-opacity:1;"
         offset="0"
         id="stop5" /><stop
         style="stop-color:#8a8a8a;stop-opacity:1;"
         offset="1"
         id="stop6" /></linearGradient><radialGradient
       inkscape:collect="always"
       xlink:href="#linearGradient5"
       id="radialGradient6"
       cx="75.066299"
       cy="74.607521"
       fx="75.066299"
       fy="74.607521"
       r="97.430664"
       gradientTransform="matrix(1.8981695,0,0,2.1817088,-96.702979,-133.54183)"
       gradientUnits="userSpaceOnUse" /><radialGradient
       inkscape:collect="always"
       xlink:href="#linearGradient6"
       id="radialGradient8"
       cx="174.45174"
       cy="189.403"
       fx="174.45174"
       fy="189.403"
       r="92.707426"
       gradientTransform="matrix(3.6956033,0,0,4.275761,-470.25265,-610.78818)"
       gradientUnits="userSpaceOnUse" /><radialGradient
       inkscape:collect="always"
       xlink:href="#linearGradient12"
       id="radialGradient11"
       gradientUnits="userSpaceOnUse"
       gradientTransform="matrix(1.8180173,0,0,2.0895839,-87.463524,-122.50101)"
       cx="75.066299"
       cy="74.607521"
       fx="75.066299"
       fy="74.607521"
       r="97.430664" /><radialGradient
       inkscape:collect="always"
       xlink:href="#linearGradient15"
       id="radialGradient16"
       cx="189.09937"
       cy="54.03986"
       fx="189.09937"
       fy="54.03986"
       r="26.26236"
       gradientTransform="matrix(2.5421412,0.6811647,-0.53467756,1.9954438,-265.4871,-191.34864)"
       gradientUnits="userSpaceOnUse" /><radialGradient
       inkscape:collect="always"
       xlink:href="#linearGradient16"
       id="radialGradient18"
       cx="163.13307"
       cy="81.723709"
       fx="163.13307"
       fy="81.723709"
       r="28.42736"
       gradientTransform="matrix(1.9525628,-0.49137406,0.39129194,1.5548686,-183.5452,34.191671)"
       gradientUnits="userSpaceOnUse" /><radialGradient
       inkscape:collect="always"
       xlink:href="#linearGradient18"
       id="radialGradient20"
       cx="163.86221"
       cy="57.354431"
       fx="163.86221"
       fy="57.354431"
       r="26.811067"
       gradientTransform="matrix(1.7424858,-0.07965295,0.07021751,1.5360764,-129.82848,-12.432711)"
       gradientUnits="userSpaceOnUse" /><linearGradient
       inkscape:collect="always"
       xlink:href="#linearGradient24"
       id="linearGradient25"
       x1="168.39914"
       y1="59.019711"
       x2="182.49422"
       y2="47.129765"
       gradientUnits="userSpaceOnUse" /><radialGradient
       inkscape:collect="always"
       xlink:href="#linearGradient4"
       id="radialGradient9"
       cx="25.964643"
       cy="242.70813"
       fx="25.964643"
       fy="242.70813"
       r="10.821037"
       gradientTransform="matrix(1.3500924,0,0,1.1782891,-7.4889947,-42.382648)"
       gradientUnits="userSpaceOnUse" /><linearGradient
       inkscape:collect="always"
       xlink:href="#linearGradient9"
       id="linearGradient13"
       x1="119.62739"
       y1="227.97072"
       x2="119.62739"
       y2="256.21124"
       gradientUnits="userSpaceOnUse" /><radialGradient
       inkscape:collect="always"
       xlink:href="#linearGradient14"
       id="radialGradient22"
       cx="215.0412"
       cy="241.92787"
       fx="215.0412"
       fy="241.92787"
       r="10.821037"
       gradientTransform="matrix(1.2864395,0,0,1.3278689,-63.973477,-78.809529)"
       gradientUnits="userSpaceOnUse" /><filter
       id="d-91"
       x="-0.017838454"
       y="-0.036137352"
       width="1.0356769"
       height="1.0722747"><feGaussianBlur
         stdDeviation=".278"
         id="feGaussianBlur2" /></filter><linearGradient
       id="s-7"
       gradientTransform="matrix(-1.2,0,0,-1.2,213.6,233.401)"
       gradientUnits="userSpaceOnUse"
       x1="64"
       x2="64"
       y1="41.5"
       y2="39.5"><stop
         offset=".15"
         stop-color="#c20600"
         id="stop5-1" /><stop
         offset=".575"
         stop-color="#860202"
         id="stop6-2-4" /><stop
         offset="1"
         stop-color="#760101"
         id="stop7-7" /></linearGradient><linearGradient
       id="SVGID_o-0_6"
       gradientUnits="userSpaceOnUse"
       gradientTransform="matrix(1.9620698,0,0,2.5920924,1.0795986,-51.729871)"
       x1="43.139999"
       y1="79.260002"
       x2="122.03"
       y2="82.029999">
<stop
   offset="15%"
   style="stop-color:rgb(107,253,0);stop-opacity: 0.53"
   id="stop13-7" />
<stop
   offset="59.9%"
   style="stop-color:rgb(46,134,2);stop-opacity: 1"
   id="stop14-3" />
<stop
   offset="100%"
   style="stop-color:rgb(34,118,1);stop-opacity: 1"
   id="stop15-6" />
</linearGradient><linearGradient
       id="q-3"
       gradientUnits="userSpaceOnUse"
       x1="77.279999"
       x2="77.279999"
       y1="90.279999"
       y2="88.099998"
       gradientTransform="translate(58.189546,121.31397)"><stop
         offset="0"
         stop-color="#004fcd"
         id="stop11-02" /><stop
         offset="1"
         stop-color="#297cff"
         id="stop12-3-7" /></linearGradient><filter
       inkscape:collect="always"
       style="color-interpolation-filters:sRGB"
       id="filter521"
       x="-0.03795536"
       y="-0.043703691"
       width="1.0759107"
       height="1.0874074"><feGaussianBlur
         inkscape:collect="always"
         stdDeviation="0.40504619"
         id="feGaussianBlur521" /></filter><clipPath
       clipPathUnits="userSpaceOnUse"
       id="clipath_lpe_path-effect520"><path
         style="display:none;opacity:1;fill:#000000;fill-opacity:1;stroke:none;stroke-width:0;stroke-linecap:round;stroke-linejoin:round;stroke-dasharray:none;paint-order:stroke markers fill"
         d="m 1396.2684,724.37728 -0.098,-0.18359 -0.1474,-0.74504 1.6069,-1.36398 0.4734,-0.0196 0.4745,0.2836 -0.4773,-0.47034 -1.096,-0.22609 -1.1061,0.71625 -0.075,1.1693 0.3006,0.79854 z"
         id="path520"
         sodipodi:nodetypes="cccccccccccc" /><path
         id="lpe_path-effect520"
         style="display:block;opacity:1;fill:#000000;fill-opacity:1;stroke:none;stroke-width:0;stroke-linecap:round;stroke-linejoin:round;stroke-dasharray:none;paint-order:stroke markers fill"
         class="powerclip"
         d="m 1390.8785,716.82155 h 13.5377 v 14.09705 h -13.5377 z m 5.3899,7.55573 -0.098,-0.18359 -0.1474,-0.74504 1.6069,-1.36398 0.4734,-0.0196 0.4745,0.2836 -0.4773,-0.47034 -1.096,-0.22609 -1.1061,0.71625 -0.075,1.1693 0.3006,0.79854 z" /></clipPath><inkscape:path-effect
       effect="powerclip"
       id="path-effect520"
       is_visible="true"
       lpeversion="1"
       inverse="true"
       flatten="false"
       hide_clip="false"
       message="" /><clipPath
       clipPathUnits="userSpaceOnUse"
       id="clipPath382-87"><path
         id="path382-33"
         style="fill:none;fill-opacity:1;stroke:none;stroke-width:0.0863068;stroke-linecap:round;stroke-linejoin:round"
         d="m 1399.06,725.88231 c 0.1487,0.27038 0.4395,-1.02899 0.3334,-1.93164 -0.2357,-2.00494 -2.3519,-2.57702 -3.0943,-1.78747 -0.6299,0.65669 -0.49,1.66327 0.01,2.26491 0.4952,0.60163 1.2521,0.61547 1.736,0.72591 0.484,0.11044 0.8424,0.40566 1.0197,0.72829 z"
         sodipodi:nodetypes="ssczcs" /></clipPath><clipPath
       clipPathUnits="userSpaceOnUse"
       id="clipath_lpe_path-effect386-54"><path
         style="display:none;opacity:1;fill:#000000;fill-opacity:1;stroke:none;stroke-width:0;stroke-linecap:round;stroke-linejoin:round;stroke-dasharray:none;paint-order:stroke markers fill"
         d="m 1396.2684,724.37728 -0.098,-0.18359 -0.1474,-0.74504 1.6069,-1.36398 0.4734,-0.0196 0.4745,0.2836 -0.4773,-0.47034 -1.096,-0.22609 -1.1061,0.71625 -0.075,1.1693 0.3006,0.79854 z"
         id="path502"
         sodipodi:nodetypes="cccccccccccc" /><path
         id="lpe_path-effect386-54"
         style="display:block;opacity:1;fill:#000000;fill-opacity:1;stroke:none;stroke-width:0;stroke-linecap:round;stroke-linejoin:round;stroke-dasharray:none;paint-order:stroke markers fill"
         class="powerclip"
         d="m 1390.8785,716.82155 h 13.5377 v 14.09705 h -13.5377 z m 5.3899,7.55573 -0.098,-0.18359 -0.1474,-0.74504 1.6069,-1.36398 0.4734,-0.0196 0.4745,0.2836 -0.4773,-0.47034 -1.096,-0.22609 -1.1061,0.71625 -0.075,1.1693 0.3006,0.79854 z" /></clipPath><inkscape:path-effect
       effect="powerclip"
       id="path-effect386-54"
       is_visible="true"
       lpeversion="1"
       inverse="true"
       flatten="false"
       hide_clip="false"
       message="" /><clipPath
       clipPathUnits="userSpaceOnUse"
       id="clipPath1"><path
         id="path1"
         style="fill:none;fill-opacity:1;stroke:none;stroke-width:0.0863068;stroke-linecap:round;stroke-linejoin:round"
         d="m 1399.06,725.88231 c 0.1487,0.27038 0.4395,-1.02899 0.3334,-1.93164 -0.2357,-2.00494 -2.3519,-2.57702 -3.0943,-1.78747 -0.6299,0.65669 -0.49,1.66327 0.01,2.26491 0.4952,0.60163 1.2521,0.61547 1.736,0.72591 0.484,0.11044 0.8424,0.40566 1.0197,0.72829 z"
         sodipodi:nodetypes="ssczcs" /></clipPath></defs><metadata
     id="metadata1"><rdf:RDF><cc:Work
         rdf:about=""><cc:license
           rdf:resource="http://creativecommons.org/publicdomain/zero/1.0/" /><dc:title>Grafic File</dc:title><dc:date>202507</dc:date><dc:creator><cc:Agent><dc:title>Paper sheet by Jakub Steiner </dc:title></cc:Agent></dc:creator><dc:publisher><cc:Agent><dc:title>Blackcrack</dc:title></cc:Agent></dc:publisher><dc:description>Groundfile for Mimetype-files
202507 - Blackcrack - Rebuild the Sheet from  Jakub Steiner total fresh because the Code was buggy (oversize) because that i have must make it fresh with Inkscape 1.4.2 with same Design, now it's in the right size, also at the Icon Themeviewer in Plasma.
202507 finaly many Mimetypes for Tango! from Blackcrack</dc:description><dc:contributor><cc:Agent><dc:title>Paper sheet by Jakub Steiner &lt;http://jimmac.musichall.cz&gt;
202507 Blackcrack : Mimetypes creating for tango!</dc:title></cc:Agent></dc:contributor></cc:Work><cc:License
         rdf:about="http://creativecommons.org/publicdomain/zero/1.0/"><cc:permits
           rdf:resource="http://creativecommons.org/ns#Reproduction" /><cc:permits
           rdf:resource="http://creativecommons.org/ns#Distribution" /><cc:permits
           rdf:resource="http://creativecommons.org/ns#DerivativeWorks" /></cc:License></rdf:RDF></metadata><g
     id="g26"
     transform="matrix(1.0110135,0,0,1.0271114,5.1068557,-7.0669282)"><g
       id="g1"><g
         id="g27"
         inkscape:label="shadow"
         transform="matrix(0.9809334,0,0,0.9809334,5.1601093,4.6032445)"><rect
           style="fill:url(#linearGradient13);fill-rule:evenodd;stroke-width:1.476;stroke-linecap:round;stroke-linejoin:round;paint-order:stroke fill markers"
           id="rect2"
           width="184.84464"
           height="28.737843"
           x="27.673475"
           y="226.00008" /><rect
           style="fill:url(#radialGradient9);fill-rule:evenodd;stroke-width:1.476;stroke-linecap:round;stroke-linejoin:round;paint-order:stroke fill markers"
           id="rect3"
           width="21.580748"
           height="28.737839"
           x="6.1013594"
           y="226.00008" /><rect
           style="fill:url(#radialGradient22);fill-rule:evenodd;stroke-width:1.476;stroke-linecap:round;stroke-linejoin:round;paint-order:stroke fill markers"
           id="rect4"
           width="21.642075"
           height="28.737839"
           x="212.51927"
           y="226.00008" /></g><g
         id="rect1"
         style="opacity:1"
         transform="matrix(0.96874842,0,0,0.96874842,2.9832174,4.9451305)"><path
           style="baseline-shift:baseline;display:inline;overflow:visible;fill:url(#radialGradient6);fill-rule:evenodd;stroke-width:1.00013;stroke-linecap:square;stroke-dasharray:none;paint-order:stroke fill markers;enable-background:accumulate;stop-color:#000000;stop-opacity:1"
           d="m 32.501748,15.190316 c -6.164423,0 -9.332052,2.390294 -9.332052,8.554717 V 232.87562 c 0,6.16442 2.390294,8.16605 8.554717,8.16605 H 211.78111 c 6.16442,0 9.33206,-2.3903 9.33206,-8.55472 V 77.24196 c 0,-7.769553 -48.54277,-62.051644 -67.51449,-62.051644 z m 1.943339,9.445313 H 153.59868 c 7.88599,0 57.28988,47.93445 57.28988,52.606331 v 152.52432 c 0,1.09493 -0.73319,1.83008 -1.82812,1.83008 H 34.445087 c -1.094929,0 -1.830078,-0.73515 -1.830078,-1.83008 V 26.465707 c 0,-1.094929 0.735149,-1.830078 1.830078,-1.830078 z"
           id="path4"
           sodipodi:nodetypes="ssssssssssssssssss" /><path
           style="baseline-shift:baseline;display:inline;overflow:visible;vector-effect:none;fill:url(#radialGradient8);fill-rule:evenodd;stroke-linecap:square;paint-order:stroke fill markers;enable-background:accumulate;stop-color:#000000;stop-opacity:1"
           d="m 35.95035,20.666336 h 126.97059 c 8.45031,0 51.8925,53.10732 51.8925,57.65975 V 228.63696 c 0,3.62968 -2.92208,6.55176 -6.55176,6.55176 H 35.95035 c -3.629676,0 -6.551762,-2.92208 -6.551762,-6.55176 V 27.218098 c 0,-3.629676 2.922086,-6.551762 6.551762,-6.551762 z"
           id="path5"
           sodipodi:nodetypes="sssssssss" /><path
           style="baseline-shift:baseline;display:inline;overflow:visible;opacity:1;fill:url(#radialGradient11);fill-rule:evenodd;stroke-width:0.957899;stroke-linecap:square;stroke-dasharray:none;paint-order:stroke fill markers;enable-background:accumulate;stop-color:#000000;stop-opacity:1"
           d="m 38.490307,20.672015 c -5.904124,0 -9.723771,1.698513 -9.700415,7.602591 l 0.798722,201.901844 c 0.0079,2.00188 2.542406,5.007 6.609957,5.007 H 208.01432 c 4.63265,0 7.40868,-4.18878 7.40868,-7.97377 V 79.352581 c 0,-7.441476 -40.78525,-58.680566 -63.90137,-58.680566 z m 113.031323,6.348757 c 18.21976,0 58.41027,42.155832 58.39934,52.331809 l -0.15572,145.031599 c -0.004,3.59404 -0.98481,4.99145 -5.14153,5.00212 -17.95655,-1.29577 -169.086361,-0.0767 -169.086361,-0.0767 L 35.255444,27.020772 Z"
           id="path11"
           sodipodi:nodetypes="sssssssssssssccs" /></g></g><g
       id="g521"
       transform="matrix(8.3814772,0,0,8.2501144,-11734.428,-6349.6137)"><g
         id="g519"
         style="opacity:1;fill:#000000;fill-opacity:0.45;filter:url(#filter521)"
         transform="matrix(0.97270407,0,0,0.97270407,66.605351,45.93308)"><path
           id="path503"
           style="fill:#000000;fill-opacity:0.45;stroke:none;stroke-width:0;stroke-linecap:round;stroke-linejoin:round;stroke-dasharray:none"
           d="m 1399.06,725.8823 c 0.1487,0.27039 0.4395,-1.02898 0.3334,-1.93163 -0.2357,-2.00493 -2.3519,-2.57702 -3.0943,-1.78748 -0.6299,0.6567 -0.49,1.66328 0.01,2.26491 0.4952,0.60164 1.252,0.61548 1.7359,0.72591 0.484,0.11044 0.8424,0.40566 1.0197,0.72829 z"
           sodipodi:nodetypes="ssczcss"
           clip-path="url(#clipath_lpe_path-effect520)"
           transform="translate(-2.4908058,48.89653)"
           inkscape:original-d="m 1399.06,725.8823 c 0.1487,0.27039 0.4395,-1.02898 0.3334,-1.93163 -0.2357,-2.00493 -2.3519,-2.57702 -3.0943,-1.78748 -0.6299,0.6567 -0.49,1.66328 0.01,2.26491 0.4952,0.60164 1.252,0.61548 1.7359,0.72591 0.484,0.11044 0.8424,0.40566 1.0197,0.72829 z"
           inkscape:path-effect="#path-effect520" /><path
           d="m 1396.0146,752.57381 c 0.029,0 0.056,0 0.081,0 0.099,0.016 0.2173,0.1222 0.2583,0.2424 0.041,0.1202 1.6717,8.3689 -0.6551,13.117 -2.3268,4.7481 -7.4741,6.1856 -10.4388,6.165 -4.9826,0.073 -9.31,-1.7057 -11.3004,-5.7598 2.1608,-0.073 2.8794,-2.1661 2.9145,-3.9088 0.011,-0.5378 0.8536,-6.3886 1.047,-6.6461 0.053,-0.065 0.1307,-0.032 0.1689,0.027 0.81,1.266 1.5553,1.9199 2.6484,2.5176 1.7368,0.7503 2.868,1.0257 5.4304,0.57 2.5627,-0.4557 6.7828,-1.9767 9.5501,-6.1304 0.1061,-0.1363 0.2093,-0.186 0.2961,-0.1958 z"
           style="color:#000000;fill:#000000;fill-opacity:0.45;stroke-width:0.999988;stroke-linecap:round;-inkscape-stroke:none;paint-order:stroke fill markers"
           id="path504" /><ellipse
           style="fill:#000000;fill-opacity:0.45;stroke:none;stroke-width:0.388936;stroke-linecap:round;stroke-linejoin:round"
           id="ellipse504"
           cx="1380.6746"
           cy="762.4704"
           rx="2.8563435"
           ry="3.2004485" /><ellipse
           style="fill:#000000;fill-opacity:0.45;stroke:none;stroke-width:0.401192;stroke-linecap:round;stroke-linejoin:round"
           id="ellipse505"
           cx="1381.2908"
           cy="762.58905"
           rx="1.7185632"
           ry="2.0892863" /><ellipse
           style="fill:#000000;fill-opacity:0.45;stroke:none;stroke-width:0.387617;stroke-linecap:round;stroke-linejoin:round"
           id="ellipse506"
           cx="1381.2969"
           cy="761.43451"
           rx="0.7829693"
           ry="0.78298879" /><ellipse
           style="fill:#000000;fill-opacity:0.45;stroke:none;stroke-width:0.584723;stroke-linecap:round;stroke-linejoin:round"
           id="ellipse507"
           cx="1191.4666"
           cy="1027.3871"
           rx="2.4320455"
           ry="3.1360881"
           transform="matrix(0.97889982,-0.20434075,0.20194198,0.97939749,0,0)" /><ellipse
           style="fill:#000000;fill-opacity:0.45;stroke:none;stroke-width:0.595814;stroke-linecap:round;paint-order:stroke fill markers"
           id="ellipse508"
           cx="1373.5033"
           cy="761.16364"
           rx="1.323804"
           ry="1.323837" /><path
           d="m 1389.8789,766.96321 c -0.1746,-0.1214 0.034,-0.3108 0.4112,-0.3241 0.2261,-0.01 0.5127,0.048 0.8132,0.2192 0.8086,0.462 0.8362,1.0306 0.5707,1.1541 -0.1857,0.086 -0.9024,-0.4493 -0.9024,-0.4493 0,0 -0.5222,-0.3422 -0.8927,-0.5999 z"
           style="fill:#000000;fill-opacity:0.45;stroke:none;stroke-width:0.0876773;stroke-linecap:round;stroke-linejoin:round;stroke-dasharray:none"
           id="path510"
           sodipodi:nodetypes="cccccc" /><path
           style="color:#000000;fill:#000000;fill-opacity:0.45;stroke-width:0.999988;-inkscape-stroke:none"
           d="m 1390.6728,767.10031 c -1.5937,2.2126 -4.031,3.5472 -8.0089,2.9837 -0.5193,-0.069 -0.9134,0.6153 1.4528,0.7119 2.9659,0.1206 5.5251,-0.7637 7.267,-3.1819 z"
           id="path515"
           sodipodi:nodetypes="ccscc" /><path
           d="m 1390.3304,768.79501 c -0.6615,-0.2764 -1.5684,0.6625 -1.2246,0.9142 0.527,0.3379 2.3644,1.513 2.7517,1.7188 0.4496,0.2388 1.0919,-0.1876 1.0919,-0.1876 l 0.2005,-0.3768 c 0,0 -0.01,-0.7713 -0.4563,-1.0102 -0.2907,-0.1544 -1.5042,-0.6859 -2.3554,-1.0553 0,0 -0.01,0 -0.01,0 z"
           style="fill:#000000;fill-opacity:0.45;stroke-width:0.40666;stroke-linecap:round;stroke-linejoin:round"
           id="path516" /><path
           id="path517"
           style="fill:#000000;fill-opacity:0.45;stroke:none;stroke-width:0.0847624;stroke-linecap:round;stroke-linejoin:round"
           d="m 1392.4069,771.39811 c 0.084,0.2969 0.3796,0.1622 0.5591,0.2618 0.1794,0.1 0.2208,0.4219 0.5173,0.3365 0.2965,-0.085 0.6851,-0.7845 0.601,-1.0815 -0.084,-0.297 -0.3797,-0.162 -0.5591,-0.2617 -0.1793,-0.1 -0.2207,-0.4221 -0.5172,-0.3367 -0.2966,0.085 -0.6852,0.7846 -0.6011,1.0816 z"
           sodipodi:nodetypes="zzzzzzz" /><ellipse
           style="fill:#000000;fill-opacity:0.45;stroke:none;stroke-width:0.363585;stroke-linecap:round;stroke-linejoin:round"
           id="ellipse517"
           cx="1386.9677"
           cy="762.47772"
           rx="3.7499065"
           ry="3.8277867" /><ellipse
           style="fill:#000000;fill-opacity:0.45;stroke:none;stroke-width:0.514703;stroke-linecap:round;stroke-linejoin:round"
           id="ellipse518"
           cx="1387.8748"
           cy="762.6181"
           rx="2.3218393"
           ry="2.5452883" /><ellipse
           style="fill:#000000;fill-opacity:0.45;stroke:none;stroke-width:0.377451;stroke-linecap:round;stroke-linejoin:round"
           id="ellipse519"
           cx="1387.8745"
           cy="761.2312"
           rx="0.99682391"
           ry="0.99685425" /><path
           style="fill:#000000;fill-opacity:0.45;stroke:none;stroke-width:0;stroke-linecap:round;stroke-linejoin:round;stroke-dasharray:none;stroke-opacity:1;paint-order:stroke markers fill"
           d="m 1397.693,722.21492 c 0.1266,-0.20758 0.8185,0.0728 0.9692,0.18088 -0.2987,-0.48421 -1.8637,-1.10586 -2.563,-0.33574 -0.6993,0.77012 -0.055,2.09042 0.2073,2.43123 -0.077,-0.21189 -0.2301,-0.81294 -0.069,-0.9281 0.1606,-0.11516 0.5326,0.53901 0.8382,0.35 0.3055,-0.18901 -0.2892,-0.71221 0.01,-0.95904 0.312,-0.247 0.7338,0.44411 0.9975,0.13324 0.2255,-0.27366 -0.5053,-0.68338 -0.3901,-0.87247 z"
           id="path519"
           sodipodi:nodetypes="sczczcccss"
           clip-path="url(#clipPath382-87)"
           transform="translate(-2.4908058,48.89653)" /></g><g
         id="g503"
         transform="translate(28.227902,24.757247)"><path
           id="path378-4"
           style="fill:#000000;fill-opacity:1;stroke:none;stroke-width:0;stroke-linecap:round;stroke-linejoin:round;stroke-dasharray:none"
           d="m 1399.06,725.8823 c 0.1487,0.27039 0.4395,-1.02898 0.3334,-1.93163 -0.2357,-2.00493 -2.3519,-2.57702 -3.0943,-1.78748 -0.6299,0.6567 -0.49,1.66328 0.01,2.26491 0.4952,0.60164 1.252,0.61548 1.7359,0.72591 0.484,0.11044 0.8424,0.40566 1.0197,0.72829 z"
           sodipodi:nodetypes="ssczcss"
           clip-path="url(#clipath_lpe_path-effect386-54)"
           inkscape:path-effect="#path-effect386-54"
           inkscape:original-d="m 1399.06,725.8823 c 0.1487,0.27039 0.4395,-1.02898 0.3334,-1.93163 -0.2357,-2.00493 -2.3519,-2.57702 -3.0943,-1.78748 -0.6299,0.6567 -0.49,1.66328 0.01,2.26491 0.4952,0.60164 1.252,0.61548 1.7359,0.72591 0.484,0.11044 0.8424,0.40566 1.0197,0.72829 z"
           transform="translate(-2.4908058,48.89653)" /><path
           d="m 1396.0146,752.57381 c 0.029,0 0.056,0 0.081,0 0.099,0.016 0.2173,0.1222 0.2583,0.2424 0.041,0.1202 1.6717,8.3689 -0.6551,13.117 -2.3268,4.7481 -7.4741,6.1856 -10.4388,6.165 -4.9826,0.073 -9.31,-1.7057 -11.3004,-5.7598 2.1608,-0.073 2.8794,-2.1661 2.9145,-3.9088 0.011,-0.5378 0.8536,-6.3886 1.047,-6.6461 0.053,-0.065 0.1307,-0.032 0.1689,0.027 0.81,1.266 1.5553,1.9199 2.6484,2.5176 1.7368,0.7503 2.868,1.0257 5.4304,0.57 2.5627,-0.4557 6.7828,-1.9767 9.5501,-6.1304 0.1061,-0.1363 0.2093,-0.186 0.2961,-0.1958 z"
           style="color:#000000;fill:#8c8073;fill-opacity:1;stroke-width:0.999988;stroke-linecap:round;-inkscape-stroke:none;paint-order:stroke fill markers"
           id="path429-0-5" /><ellipse
           style="fill:#ffffff;fill-opacity:1;stroke:none;stroke-width:0.388936;stroke-linecap:round;stroke-linejoin:round"
           id="ellipse430-9-7"
           cx="1380.6746"
           cy="762.4704"
           rx="2.8563435"
           ry="3.2004485" /><ellipse
           style="fill:#000000;fill-opacity:1;stroke:none;stroke-width:0.401192;stroke-linecap:round;stroke-linejoin:round"
           id="ellipse431-4-0"
           cx="1381.2908"
           cy="762.58905"
           rx="1.7185632"
           ry="2.0892863" /><ellipse
           style="fill:#ffffff;fill-opacity:1;stroke:none;stroke-width:0.387617;stroke-linecap:round;stroke-linejoin:round"
           id="circle431-6-7"
           cx="1381.2969"
           cy="761.43451"
           rx="0.7829693"
           ry="0.78298879" /><ellipse
           style="fill:#000000;fill-opacity:1;stroke:none;stroke-width:0.584723;stroke-linecap:round;stroke-linejoin:round"
           id="ellipse432-9-8"
           cx="1191.4666"
           cy="1027.3871"
           rx="2.4320455"
           ry="3.1360881"
           transform="matrix(0.97889982,-0.20434075,0.20194198,0.97939749,0,0)" /><ellipse
           style="fill:#ffffff;stroke:none;stroke-width:0.595814;stroke-linecap:round;paint-order:stroke fill markers"
           id="circle432-2-9"
           cx="1373.5033"
           cy="761.16364"
           rx="1.323804"
           ry="1.323837" /><path
           d="m 1389.8789,766.96321 c -0.1746,-0.1214 0.034,-0.3108 0.4112,-0.3241 0.2261,-0.01 0.5127,0.048 0.8132,0.2192 0.8086,0.462 0.8362,1.0306 0.5707,1.1541 -0.1857,0.086 -0.9024,-0.4493 -0.9024,-0.4493 0,0 -0.5222,-0.3422 -0.8927,-0.5999 z"
           style="fill:#000000;fill-opacity:1;stroke:none;stroke-width:0.0876773;stroke-linecap:round;stroke-linejoin:round;stroke-dasharray:none"
           id="path432-2-9"
           sodipodi:nodetypes="cccccc" /><path
           style="color:#000000;fill:#000000;stroke-width:0.999988;-inkscape-stroke:none"
           d="m 1390.6728,767.10031 c -1.5937,2.2126 -4.031,3.5472 -8.0089,2.9837 -0.5193,-0.069 -0.9134,0.6153 1.4528,0.7119 2.9659,0.1206 5.5251,-0.7637 7.267,-3.1819 z"
           id="path433-4-3"
           sodipodi:nodetypes="ccscc" /><path
           d="m 1390.3304,768.79501 c -0.6615,-0.2764 -1.5684,0.6625 -1.2246,0.9142 0.527,0.3379 2.3644,1.513 2.7517,1.7188 0.4496,0.2388 1.0919,-0.1876 1.0919,-0.1876 l 0.2005,-0.3768 c 0,0 -0.01,-0.7713 -0.4563,-1.0102 -0.2907,-0.1544 -1.5042,-0.6859 -2.3554,-1.0553 0,0 -0.01,0 -0.01,0 z"
           style="fill:#f2840d;stroke-width:0.40666;stroke-linecap:round;stroke-linejoin:round"
           id="path434-77-9" /><path
           id="path435-5-4"
           style="fill:#bbbbbb;fill-opacity:1;stroke:none;stroke-width:0.0847624;stroke-linecap:round;stroke-linejoin:round"
           d="m 1392.4069,771.39811 c 0.084,0.2969 0.3796,0.1622 0.5591,0.2618 0.1794,0.1 0.2208,0.4219 0.5173,0.3365 0.2965,-0.085 0.6851,-0.7845 0.601,-1.0815 -0.084,-0.297 -0.3797,-0.162 -0.5591,-0.2617 -0.1793,-0.1 -0.2207,-0.4221 -0.5172,-0.3367 -0.2966,0.085 -0.6852,0.7846 -0.6011,1.0816 z"
           sodipodi:nodetypes="zzzzzzz" /><ellipse
           style="fill:#ffffff;fill-opacity:1;stroke:none;stroke-width:0.363585;stroke-linecap:round;stroke-linejoin:round"
           id="ellipse435-8-6"
           cx="1386.9677"
           cy="762.47772"
           rx="3.7499065"
           ry="3.8277867" /><ellipse
           style="fill:#000000;fill-opacity:1;stroke:none;stroke-width:0.514703;stroke-linecap:round;stroke-linejoin:round"
           id="ellipse436-1-4"
           cx="1387.8748"
           cy="762.6181"
           rx="2.3218393"
           ry="2.5452883" /><ellipse
           style="fill:#ffffff;fill-opacity:1;stroke:none;stroke-width:0.377451;stroke-linecap:round;stroke-linejoin:round"
           id="circle436-2-5"
           cx="1387.8745"
           cy="761.2312"
           rx="0.99682391"
           ry="0.99685425" /><path
           style="fill:#8c8073;fill-opacity:1;stroke:none;stroke-width:0;stroke-linecap:round;stroke-linejoin:round;stroke-dasharray:none;stroke-opacity:1;paint-order:stroke markers fill"
           d="m 1397.693,722.21492 c 0.1266,-0.20758 0.8185,0.0728 0.9692,0.18088 -0.2987,-0.48421 -1.8637,-1.10586 -2.563,-0.33574 -0.6993,0.77012 -0.055,2.09042 0.2073,2.43123 -0.077,-0.21189 -0.2301,-0.81294 -0.069,-0.9281 0.1606,-0.11516 0.5326,0.53901 0.8382,0.35 0.3055,-0.18901 -0.2892,-0.71221 0.01,-0.95904 0.312,-0.247 0.7338,0.44411 0.9975,0.13324 0.2255,-0.27366 -0.5053,-0.68338 -0.3901,-0.87247 z"
           id="path379-5"
           sodipodi:nodetypes="sczczcccss"
           clip-path="url(#clipPath382-87)"
           transform="translate(-2.4908058,48.89653)" /></g></g><g
       id="g25"
       transform="matrix(0.96874842,0,0,0.96874842,2.9832174,4.9451305)"><path
         id="rect15"
         style="fill:url(#radialGradient16);fill-rule:evenodd;stroke-width:5.31283;stroke-linecap:round;stroke-linejoin:round;stroke-dasharray:none;paint-order:stroke fill markers"
         d="m 162.28068,17.131718 6.77738,7.718687 c 14.83606,10.176161 40.05243,35.096719 46.35882,52.799059 -30.22806,-3.860408 -46.56567,3.040013 -62.92576,9.891727 -12.25281,-13.794148 20.14727,-48.441465 9.78956,-70.409473 z"
         sodipodi:nodetypes="ccccc" /><path
         id="rect16"
         style="fill:url(#radialGradient18);fill-rule:evenodd;stroke:url(#radialGradient20);stroke-width:8.17562;stroke-linecap:round;stroke-linejoin:round;stroke-dasharray:none;paint-order:stroke fill markers"
         d="m 154.0954,19.477065 c 26.62116,7.028338 58.21786,39.705383 61.08935,54.775615 -10.57275,-7.513474 -40.86995,-7.535453 -62.24463,-8.277256 5.26112,-5.771451 7.7788,-30.735109 1.15528,-46.498359 z"
         sodipodi:nodetypes="cccc" /><path
         id="rect20"
         style="fill:url(#linearGradient25);fill-rule:evenodd;stroke-width:5.82083;stroke-linecap:round;stroke-linejoin:round;paint-order:stroke fill markers"
         d="m 154.46507,21.289603 7.14008,0.594311 c 2.93924,11.484548 5.90595,25.163929 1.78202,39.604877 17.39684,-2.01662 38.85102,2.541784 50.19452,9.956123 l 0.37652,4.706517 c -10.27937,-10.991135 -27.67142,-11.007278 -59.70224,-9.724204 6.65045,-19.81034 4.06359,-35.945334 0.2091,-45.137624 z"
         sodipodi:nodetypes="ccccccc" /></g></g></svg>
