<?xml version="1.0" encoding="UTF-8" standalone="no"?>
<!-- Created with Inkscape (http://www.inkscape.org/) -->

<svg
   width="256mm"
   height="256mm"
   viewBox="0 0 256 256"
   version="1.1"
   id="svg1"
   inkscape:version="1.4.2 (ebf0e940d0, 2025-05-08)"
   sodipodi:docname="image-x-applix-graphics.svg"
   xml:space="preserve"
   xmlns:inkscape="http://www.inkscape.org/namespaces/inkscape"
   xmlns:sodipodi="http://sodipodi.sourceforge.net/DTD/sodipodi-0.dtd"
   xmlns:xlink="http://www.w3.org/1999/xlink"
   xmlns="http://www.w3.org/2000/svg"
   xmlns:svg="http://www.w3.org/2000/svg"
   xmlns:rdf="http://www.w3.org/1999/02/22-rdf-syntax-ns#"
   xmlns:cc="http://creativecommons.org/ns#"
   xmlns:dc="http://purl.org/dc/elements/1.1/"><title
     id="title1">Grafic File</title><sodipodi:namedview
     id="namedview1"
     pagecolor="#ffffff"
     bordercolor="#000000"
     borderopacity="0.25"
     inkscape:showpageshadow="2"
     inkscape:pageopacity="0.0"
     inkscape:pagecheckerboard="0"
     inkscape:deskcolor="#d1d1d1"
     inkscape:document-units="mm"
     inkscape:zoom="0.45912897"
     inkscape:cx="605.49435"
     inkscape:cy="1148.9146"
     inkscape:current-layer="g26"
     showguides="true" /><defs
     id="defs1"><linearGradient
       id="linearGradient14"
       inkscape:collect="always"><stop
         style="stop-color:#9d9d9d;stop-opacity:0.76277173;"
         offset="0"
         id="stop21" /><stop
         style="stop-color:#898989;stop-opacity:0;"
         offset="1"
         id="stop22" /></linearGradient><linearGradient
       id="linearGradient9"
       inkscape:collect="always"><stop
         style="stop-color:#a4a4a4;stop-opacity:0;"
         offset="0"
         id="stop10" /><stop
         style="stop-color:#9e9e9e;stop-opacity:0.62876189;"
         offset="0.36316207"
         id="stop14" /><stop
         style="stop-color:#9d9d9d;stop-opacity:0.66334069;"
         offset="0.47206032"
         id="stop26" /><stop
         style="stop-color:#9c9c9c;stop-opacity:0.68627453"
         offset="0.58095855"
         id="stop23" /><stop
         style="stop-color:#a5a5a5;stop-opacity:0;"
         offset="1"
         id="stop13" /></linearGradient><linearGradient
       id="linearGradient4"
       inkscape:collect="always"><stop
         style="stop-color:#9e9e9e;stop-opacity:0.77528024;"
         offset="0"
         id="stop4" /><stop
         style="stop-color:#969696;stop-opacity:0;"
         offset="1"
         id="stop9" /></linearGradient><linearGradient
       id="linearGradient24"
       inkscape:collect="always"><stop
         style="stop-color:#ffffff;stop-opacity:1;"
         offset="0"
         id="stop24" /><stop
         style="stop-color:#f8f8f8;stop-opacity:0;"
         offset="1"
         id="stop25" /></linearGradient><linearGradient
       id="linearGradient18"
       inkscape:collect="always"><stop
         style="stop-color:#a3a3a3;stop-opacity:1;"
         offset="0"
         id="stop19" /><stop
         style="stop-color:#8a8a8a;stop-opacity:1;"
         offset="1"
         id="stop20" /></linearGradient><linearGradient
       id="linearGradient16"
       inkscape:collect="always"><stop
         style="stop-color:#ffffff;stop-opacity:1;"
         offset="0"
         id="stop17" /><stop
         style="stop-color:#bbbbbb;stop-opacity:1;"
         offset="1"
         id="stop18" /></linearGradient><linearGradient
       id="linearGradient15"
       inkscape:collect="always"><stop
         style="stop-color:#000000;stop-opacity:0.52193588;"
         offset="0"
         id="stop15" /><stop
         style="stop-color:#000000;stop-opacity:0;"
         offset="1"
         id="stop16" /></linearGradient><linearGradient
       id="linearGradient12"
       inkscape:collect="always"><stop
         style="stop-color:#ffffff;stop-opacity:1;"
         offset="0"
         id="stop11" /><stop
         style="stop-color:#ffffff;stop-opacity:0.64274555;"
         offset="1"
         id="stop12" /></linearGradient><linearGradient
       id="linearGradient6"
       inkscape:collect="always"><stop
         style="stop-color:#ffffff;stop-opacity:1;"
         offset="0"
         id="stop7" /><stop
         style="stop-color:#bbbbbb;stop-opacity:1;"
         offset="1"
         id="stop8" /></linearGradient><linearGradient
       id="linearGradient5"
       inkscape:collect="always"><stop
         style="stop-color:#a3a3a3;stop-opacity:1;"
         offset="0"
         id="stop5" /><stop
         style="stop-color:#8a8a8a;stop-opacity:1;"
         offset="1"
         id="stop6" /></linearGradient><radialGradient
       inkscape:collect="always"
       xlink:href="#linearGradient5"
       id="radialGradient6"
       cx="75.066299"
       cy="74.607521"
       fx="75.066299"
       fy="74.607521"
       r="97.430664"
       gradientTransform="matrix(1.8981695,0,0,2.1817088,-96.702979,-133.54183)"
       gradientUnits="userSpaceOnUse" /><radialGradient
       inkscape:collect="always"
       xlink:href="#linearGradient6"
       id="radialGradient8"
       cx="174.45174"
       cy="189.403"
       fx="174.45174"
       fy="189.403"
       r="92.707426"
       gradientTransform="matrix(3.6956033,0,0,4.275761,-470.25265,-610.78818)"
       gradientUnits="userSpaceOnUse" /><radialGradient
       inkscape:collect="always"
       xlink:href="#linearGradient12"
       id="radialGradient11"
       gradientUnits="userSpaceOnUse"
       gradientTransform="matrix(1.8180173,0,0,2.0895839,-87.463524,-122.50101)"
       cx="75.066299"
       cy="74.607521"
       fx="75.066299"
       fy="74.607521"
       r="97.430664" /><radialGradient
       inkscape:collect="always"
       xlink:href="#linearGradient15"
       id="radialGradient16"
       cx="189.09937"
       cy="54.03986"
       fx="189.09937"
       fy="54.03986"
       r="26.26236"
       gradientTransform="matrix(2.5421412,0.6811647,-0.53467756,1.9954438,-265.4871,-191.34864)"
       gradientUnits="userSpaceOnUse" /><radialGradient
       inkscape:collect="always"
       xlink:href="#linearGradient16"
       id="radialGradient18"
       cx="163.13307"
       cy="81.723709"
       fx="163.13307"
       fy="81.723709"
       r="28.42736"
       gradientTransform="matrix(1.9525628,-0.49137406,0.39129194,1.5548686,-183.5452,34.191671)"
       gradientUnits="userSpaceOnUse" /><radialGradient
       inkscape:collect="always"
       xlink:href="#linearGradient18"
       id="radialGradient20"
       cx="163.86221"
       cy="57.354431"
       fx="163.86221"
       fy="57.354431"
       r="26.811067"
       gradientTransform="matrix(1.7424858,-0.07965295,0.07021751,1.5360764,-129.82848,-12.432711)"
       gradientUnits="userSpaceOnUse" /><linearGradient
       inkscape:collect="always"
       xlink:href="#linearGradient24"
       id="linearGradient25"
       x1="168.39914"
       y1="59.019711"
       x2="182.49422"
       y2="47.129765"
       gradientUnits="userSpaceOnUse" /><radialGradient
       inkscape:collect="always"
       xlink:href="#linearGradient4"
       id="radialGradient9"
       cx="25.964643"
       cy="242.70813"
       fx="25.964643"
       fy="242.70813"
       r="10.821037"
       gradientTransform="matrix(1.3500924,0,0,1.1782891,-7.4889947,-42.382648)"
       gradientUnits="userSpaceOnUse" /><linearGradient
       inkscape:collect="always"
       xlink:href="#linearGradient9"
       id="linearGradient13"
       x1="119.62739"
       y1="227.97072"
       x2="119.62739"
       y2="256.21124"
       gradientUnits="userSpaceOnUse" /><radialGradient
       inkscape:collect="always"
       xlink:href="#linearGradient14"
       id="radialGradient22"
       cx="215.0412"
       cy="241.92787"
       fx="215.0412"
       fy="241.92787"
       r="10.821037"
       gradientTransform="matrix(1.2864395,0,0,1.3278689,-63.973477,-78.809529)"
       gradientUnits="userSpaceOnUse" /></defs><metadata
     id="metadata1"><rdf:RDF><cc:Work
         rdf:about=""><cc:license
           rdf:resource="http://creativecommons.org/publicdomain/zero/1.0/" /><dc:title>Grafic File</dc:title><dc:date>202507</dc:date><dc:creator><cc:Agent><dc:title>Paper sheet by Jakub Steiner </dc:title></cc:Agent></dc:creator><dc:publisher><cc:Agent><dc:title>Blackcrack</dc:title></cc:Agent></dc:publisher><dc:description>Groundfile for Mimetype-files
202507 - Blackcrack - Rebuild the Sheet from  Jakub Steiner total fresh because the Code was buggy (oversize) because that i have must make it fresh with Inkscape 1.4.2 with same Design, now it's in the right size, also at the Icon Themeviewer in Plasma.
202507 finaly many Mimetypes for Tango! from Blackcrack</dc:description><dc:contributor><cc:Agent><dc:title>Paper sheet by Jakub Steiner &lt;http://jimmac.musichall.cz&gt;
202507 Blackcrack : Mimetypes creating for tango!</dc:title></cc:Agent></dc:contributor></cc:Work><cc:License
         rdf:about="http://creativecommons.org/publicdomain/zero/1.0/"><cc:permits
           rdf:resource="http://creativecommons.org/ns#Reproduction" /><cc:permits
           rdf:resource="http://creativecommons.org/ns#Distribution" /><cc:permits
           rdf:resource="http://creativecommons.org/ns#DerivativeWorks" /></cc:License></rdf:RDF></metadata><g
     id="g26"
     transform="matrix(1.0110135,0,0,1.0271114,5.1068557,-7.0669282)"><g
       id="g1"><g
         id="g27"
         inkscape:label="shadow"
         transform="matrix(0.9809334,0,0,0.9809334,5.1601093,4.6032445)"><rect
           style="fill:url(#linearGradient13);fill-rule:evenodd;stroke-width:1.476;stroke-linecap:round;stroke-linejoin:round;paint-order:stroke fill markers"
           id="rect2"
           width="184.84464"
           height="28.737843"
           x="27.673475"
           y="226.00008" /><rect
           style="fill:url(#radialGradient9);fill-rule:evenodd;stroke-width:1.476;stroke-linecap:round;stroke-linejoin:round;paint-order:stroke fill markers"
           id="rect3"
           width="21.580748"
           height="28.737839"
           x="6.1013594"
           y="226.00008" /><rect
           style="fill:url(#radialGradient22);fill-rule:evenodd;stroke-width:1.476;stroke-linecap:round;stroke-linejoin:round;paint-order:stroke fill markers"
           id="rect4"
           width="21.642075"
           height="28.737839"
           x="212.51927"
           y="226.00008" /></g><g
         id="rect1"
         style="opacity:1"
         transform="matrix(0.96874842,0,0,0.96874842,2.9832174,4.9451305)"><path
           style="baseline-shift:baseline;display:inline;overflow:visible;fill:url(#radialGradient6);fill-rule:evenodd;stroke-width:1.00013;stroke-linecap:square;stroke-dasharray:none;paint-order:stroke fill markers;enable-background:accumulate;stop-color:#000000;stop-opacity:1"
           d="m 32.501748,15.190316 c -6.164423,0 -9.332052,2.390294 -9.332052,8.554717 V 232.87562 c 0,6.16442 2.390294,8.16605 8.554717,8.16605 H 211.78111 c 6.16442,0 9.33206,-2.3903 9.33206,-8.55472 V 77.24196 c 0,-7.769553 -48.54277,-62.051644 -67.51449,-62.051644 z m 1.943339,9.445313 H 153.59868 c 7.88599,0 57.28988,47.93445 57.28988,52.606331 v 152.52432 c 0,1.09493 -0.73319,1.83008 -1.82812,1.83008 H 34.445087 c -1.094929,0 -1.830078,-0.73515 -1.830078,-1.83008 V 26.465707 c 0,-1.094929 0.735149,-1.830078 1.830078,-1.830078 z"
           id="path4"
           sodipodi:nodetypes="ssssssssssssssssss" /><path
           style="baseline-shift:baseline;display:inline;overflow:visible;vector-effect:none;fill:url(#radialGradient8);fill-rule:evenodd;stroke-linecap:square;paint-order:stroke fill markers;enable-background:accumulate;stop-color:#000000;stop-opacity:1"
           d="m 35.95035,20.666336 h 126.97059 c 8.45031,0 51.8925,53.10732 51.8925,57.65975 V 228.63696 c 0,3.62968 -2.92208,6.55176 -6.55176,6.55176 H 35.95035 c -3.629676,0 -6.551762,-2.92208 -6.551762,-6.55176 V 27.218098 c 0,-3.629676 2.922086,-6.551762 6.551762,-6.551762 z"
           id="path5"
           sodipodi:nodetypes="sssssssss" /><path
           style="baseline-shift:baseline;display:inline;overflow:visible;opacity:1;fill:url(#radialGradient11);fill-rule:evenodd;stroke-width:0.957899;stroke-linecap:square;stroke-dasharray:none;paint-order:stroke fill markers;enable-background:accumulate;stop-color:#000000;stop-opacity:1"
           d="m 38.490307,20.672015 c -5.904124,0 -9.723771,1.698513 -9.700415,7.602591 l 0.798722,201.901844 c 0.0079,2.00188 2.542406,5.007 6.609957,5.007 H 208.01432 c 4.63265,0 7.40868,-4.18878 7.40868,-7.97377 V 79.352581 c 0,-7.441476 -40.78525,-58.680566 -63.90137,-58.680566 z m 113.031323,6.348757 c 18.21976,0 58.41027,42.155832 58.39934,52.331809 l -0.15572,145.031599 c -0.004,3.59404 -0.98481,4.99145 -5.14153,5.00212 -17.95655,-1.29577 -169.086361,-0.0767 -169.086361,-0.0767 L 35.255444,27.020772 Z"
           id="path11"
           sodipodi:nodetypes="sssssssssssssccs" /></g></g><g
       id="g5"
       transform="matrix(0.94634436,0,0,0.93151231,-11.251655,12.936665)"><g
         id="path39"
         transform="matrix(0.53493773,0,0,0.53493773,165.34551,-13.025323)"
         style="display:inline"><path
           style="color:#000000;fill:#fbb74e;fill-rule:evenodd;stroke-linejoin:round;-inkscape-stroke:none"
           d="m -23.135599,342.41741 c -88.897461,18.0079 113.65551,-257.86883 -66.436327,-257.86883 -188.158534,0 229.192786,224.89934 66.436327,257.86883 z"
           id="path43" /><path
           d="m -31.138432,250.7938 c -5.131789,20.74621 -8.739144,43.86625 -10.3018,58.78979 -0.967169,9.23659 -2.097583,19.04865 2.253511,24.68726 2.175541,2.81929 5.545213,4.80576 9.426412,5.48753 3.881197,0.68179 9.595846,-1.79459 14.633749,-3.11009 C -1.6398691,333.12658 6.6136666,326.20905 9.0969348,317.09291 11.580202,307.97678 8.6728455,297.72377 3.0988776,286.75843 -2.3750627,275.98985 -12.515449,260.74275 -22.05895,248.77157 m -0.504939,16.11531 c 7.428256,9.68856 13.8352959,16.98893 18.0711038,25.32179 5.14913958,10.12963 7.0890806,18.73065 5.42378013,24.84398 -1.66529116,6.11332 -4.15846283,7.20573 -15.76296493,12.50663 -3.998675,1.82658 -11.347791,4.69421 -13.43275,4.32796 -2.084957,-0.36624 -3.147903,-1.05698 -4.126836,-2.3256 -1.957865,-2.53721 -1.545837,-10.6544 -0.656572,-19.14699 1.274488,-12.1715 5.899896,-27.28852 10.484239,-45.52777 z"
           style="color:#000000;fill:#fcdcab;fill-opacity:1;fill-rule:evenodd;stroke-width:0.861147;stroke-linejoin:round;-inkscape-stroke:none"
           id="path1-5"
           sodipodi:nodetypes="cssssssccssssssc" /><path
           d="m -93.864558,87.428995 c -18.205862,-0.344626 -29.931102,2.326937 -36.248042,9.847656 -3.15848,3.760359 -4.40073,8.622689 -4.07813,13.476559 0.3226,4.85388 2.00053,9.84091 4.55859,15.11914 10.23225,21.11293 35.143763,47.81925 60.812504,75.9668 12.048581,13.2121 24.151688,26.66468 35.013672,39.69922 -4.866079,24.95796 21.498661,10.94909 10.171875,-2.84766 0.875103,-4.61347 1.792694,-8.7957 2.595703,-13.48437 5.478445,-31.98794 10.236028,-67.15306 1.347446,-93.59933 -4.444291,-13.22314 -12.125419,-24.77397 -24.066406,-32.91602 -11.940987,-8.142039 -29.37155,-10.86948 -50.107212,-11.261995 z m -0.179687,10.630702 c 19.388174,-0.883398 34.835755,1.644953 44.909946,8.514113 10.074191,6.86915 16.46736,16.37029 20.40039,28.07226 7.866061,23.40395 0.847826,46.77189 -4.372451,78.29423 -0.156705,0.94625 -0.01537,1.65042 -0.552813,3.37536 -9.702149,-11.33736 -13.955084,-14.23419 -24.235243,-25.5071 -25.688198,-28.16889 -52.803734,-51.711 -61.698874,-70.06497 -2.22378,-4.5885 -3.42206,-8.5677 -3.62304,-11.5918 -0.20099,-3.0241 -0.26066,-3.67883 1.13487,-5.49627 1.85783,-2.41951 11.21209,-4.829207 28.037215,-5.595823 z"
           style="color:#000000;fill:#fcdcab;fill-opacity:1;fill-rule:evenodd;stroke-linejoin:round;-inkscape-stroke:none"
           id="path1-56"
           sodipodi:nodetypes="sssssccsssssssscsssss" /><path
           style="color:#000000;fill:#d26b10;fill-rule:evenodd;stroke-linejoin:round;-inkscape-stroke:none"
           d="m -89.572266,79.199219 c -24.052684,0 -39.218984,3.143436 -48.068354,11.097656 -4.42469,3.97711 -6.84555,9.414914 -7.06836,15.011715 -0.22282,5.59681 1.42396,11.28244 4.18164,17.16602 11.03069,23.5343 40.642403,52.2686 70.869137,82.43164 12.433872,12.40767 24.67915,24.92585 36,37.15625 -7.067059,24.80424 -14.400582,48.28791 -17.320313,66.82812 -1.908947,12.12177 -2.312423,22.35049 2.205079,30.26758 2.25875,3.95855 6.057686,7.06905 10.685546,8.45508 4.627861,1.38603 9.903168,1.28468 16.013672,0.0469 21.1425604,-4.28284 34.312594,-11.96628 39.904297,-23.44727 5.591703,-11.48099 2.633221,-24.86889 -4.390625,-38.45312 -7.5953277,-14.6895 -20.3801284,-30.54854 -35.154297,-46.76368 1.610791,-5.78337 3.242738,-11.5578 4.742188,-17.4375 8.5815379,-33.65024 14.6913061,-68.20546 6.378906,-95.73242 -4.1562,-13.76348 -12.217887,-25.76699 -25.203125,-33.980467 -12.985238,-8.213481 -30.580977,-12.646484 -53.775391,-12.646484 z m 0,10.699218 c 21.828501,0 37.299106,4.187066 48.054688,10.990233 10.755582,6.80317 17.110799,16.21269 20.679687,28.03125 7.137778,23.63713 1.931073,56.92626 -6.501953,89.99414 -0.936372,3.67174 -1.987584,7.27496 -2.982422,10.92578 -10.251536,-10.81661 -20.946391,-21.69968 -31.777343,-32.50781 -30.246662,-30.18292 -59.521351,-59.73386 -68.738281,-79.39844 -2.30423,-4.91614 -3.30365,-9.08564 -3.17969,-12.19921 0.12396,-3.11358 1.0407,-5.24165 3.5293,-7.478521 4.9772,-4.473737 17.92911,-8.357422 40.916014,-8.357422 z m 64.44336,161.380863 c 12.535955,14.16096 22.9729851,27.6173 29.0624998,39.39453 6.2752232,12.13639 7.7493292,21.72672 4.2773437,28.85547 -3.4719855,7.12874 -12.8616892,13.685 -32.4082035,17.64453 -5.001667,1.01318 -8.560762,0.86618 -10.820312,0.18945 -2.25955,-0.67673 -3.400696,-1.64627 -4.462891,-3.50781 -2.12439,-3.72308 -2.694937,-12.09149 -0.929687,-23.30078 2.470621,-15.68839 8.787623,-36.64793 15.28125,-59.27539 z"
           id="path44" /><g
           id="g47"
           transform="matrix(1,0,0,-1,-106.06278,355.34851)"
           inkscape:transform-center-y="-1.5603639"><path
             id="rect49"
             style="fill:#ffffff;fill-opacity:1;fill-rule:evenodd;stroke:none;stroke-width:7.42776;stroke-linejoin:miter;stroke-dasharray:none;stroke-opacity:1"
             d="m 4.3460572,338.62103 -3.9523492,-9.63281 19.27534,-8.39678 -6.32132,11.85877 z m -36.0624442,11.4134 -8.688116,-3.25092 14.994643,-6.68451 3.722514,9.07265 z"
             transform="matrix(1,0,0,-1,106.06278,355.34851)"
             sodipodi:nodetypes="cccccccccc" /><g
             id="g51"><path
               id="rect48"
               style="fill:#ffffff;fill-rule:evenodd;stroke-width:10.6972"
               d="m 77.367714,11.86547 39.028096,4.623146 0.68491,15.717661 H 77.367714 Z"
               sodipodi:nodetypes="ccccc" /></g><path
             id="path46"
             style="color:#000000;fill:#7fa8d2;fill-opacity:1;fill-rule:evenodd;stroke-linejoin:round;-inkscape-stroke:none"
             d="M 19.851827,-36.4999 C 12.42948,-39.637977 3.742276,-36.113656 0.60419824,-28.691309 -2.5338791,-21.268962 0.99044157,-12.581757 8.4127888,-9.4436799 14.19167,-7.0004396 20.737492,-8.5961122 24.834376,-12.925273 L 165.40978,46.508289 c -0.25193,5.95511 3.16454,11.762367 8.94362,14.205691 7.42237,3.138086 16.11136,-0.38548 19.24944,-7.807827 3.13807,-7.422348 -0.38803,-16.110307 -7.8104,-19.248392 -5.69453,-2.407576 -12.13094,-0.890711 -16.23732,3.296553 L 28.801609,-22.554547 C 28.944007,-28.417906 25.54647,-34.092275 19.851827,-36.4999 Z m -3.504726,8.289566 c 2.942347,1.243988 4.269539,4.51175 3.025551,7.454098 -1.243988,2.942347 -4.512789,4.26698 -7.455136,3.022991 -2.9423476,-1.243988 -4.2677409,-4.51099 -3.0237526,-7.453337 1.2439886,-2.942348 4.5109906,-4.267741 7.4533376,-3.023752 z m 165.940609,70.15766 c 2.94236,1.243991 4.26955,4.511753 3.02556,7.4541 -1.24399,2.942347 -4.51279,4.26698 -7.45514,3.022989 -2.94234,-1.243983 -4.26774,-4.51099 -3.02375,-7.453337 1.24398,-2.942347 4.511,-4.267736 7.45333,-3.023752 z" /><rect
             style="fill:#7fa8d2;fill-opacity:1;fill-rule:evenodd;stroke:#4574ad;stroke-width:11.3475;stroke-linejoin:miter;stroke-dasharray:none;stroke-opacity:1"
             id="rect47"
             width="20.016743"
             height="18.699852"
             x="86.852608"
             y="2.8787735" /></g><g
           id="g53"
           transform="translate(-190,70)"><g
             id="g52"><rect
               style="fill:#ffffff;fill-opacity:1;fill-rule:evenodd;stroke:none;stroke-width:10.6972;stroke-linejoin:miter;stroke-dasharray:none;stroke-opacity:1"
               id="rect51"
               width="39.713005"
               height="20.340807"
               x="77.367714"
               y="11.86547" /><path
               id="path51"
               style="fill:#ffffff;fill-opacity:1;fill-rule:evenodd;stroke:none;stroke-width:7.42776;stroke-linejoin:miter;stroke-dasharray:none;stroke-opacity:1"
               d="m 113.93359,11.865234 v 10.41211 h 39.71289 v -10.41211 z m -67.802731,0.121094 v 9.806641 H 85.84375 v -9.806641 z" /></g><path
             id="path52"
             style="color:#000000;fill:#7fa8d2;fill-opacity:1;fill-rule:evenodd;stroke-linejoin:round;-inkscape-stroke:none"
             d="m 7.0214844,-2.5800781 c -8.0584595,0 -14.6874999,6.6290403 -14.6875,14.6875001 0,8.058459 6.6290405,14.6875 14.6875,14.6875 6.2741446,0 11.6818806,-4.01875 13.7695316,-9.601563 H 173.41406 c 2.08696,5.583135 7.49517,9.601563 13.76953,9.601563 8.05848,0 14.68946,-6.629041 14.68946,-14.6875 0,-8.0584598 -6.63098,-14.6875002 -14.68946,-14.6875001 -6.18256,0 -11.52021,3.9035576 -13.67187,9.359375 H 20.695312 C 18.543195,1.3233224 13.204171,-2.5800782 7.0214844,-2.5800781 Z m 0,9 c 3.1945136,-1e-7 5.6894526,2.4929868 5.6894536,5.6875001 0,3.194513 -2.49494,5.6875 -5.6894536,5.6875 -3.194513,0 -5.6875,-2.492987 -5.6875,-5.6875 0,-3.1945132 2.4929871,-5.6875001 5.6875,-5.6875001 z m 180.1621056,0 c 3.19452,-1e-7 5.68946,2.4929868 5.68946,5.6875001 0,3.194513 -2.49494,5.6875 -5.68946,5.6875 -3.1945,0 -5.6875,-2.492987 -5.6875,-5.6875 0,-3.1945132 2.493,-5.6875001 5.6875,-5.6875001 z" /><rect
             style="fill:#7fa8d2;fill-opacity:1;fill-rule:evenodd;stroke:#4574ad;stroke-width:11.3475;stroke-linejoin:miter;stroke-dasharray:none;stroke-opacity:1"
             id="rect52"
             width="20.016743"
             height="18.699852"
             x="86.852608"
             y="2.8787735" /></g></g><path
         style="font-weight:bold;font-size:57.3333px;line-height:0.7;font-family:'Liberation Sans';-inkscape-font-specification:'Liberation Sans Bold';letter-spacing:0.96px;word-spacing:0px;display:inline;fill-rule:evenodd;stroke-width:4.11698"
         d="m 126.0883,226.97769 -3.46523,-9.97991 h -14.88672 l -3.46523,9.97991 h -8.177976 l 14.249076,-39.06027 h 9.64728 l 14.19365,39.06027 z m -10.92243,-33.04461 -0.16649,0.60989 q -0.27734,0.998 -0.66534,2.27321 -0.38819,1.2752 -4.76816,14.02732 h 11.22739 l -3.85335,-11.2274 -1.19203,-3.77019 z m 43.80882,27.19528 q 3.188,0 6.18201,-0.91484 2.99395,-0.94254 4.62957,-2.38409 v -5.40578 h -9.53637 v -6.04339 h 17.02127 v 14.35998 q -3.10484,3.18804 -8.0948,4.98996 -4.96223,1.80194 -10.42347,1.80194 -9.53633,0 -14.66493,-5.26719 -5.12854,-5.2949 -5.12854,-14.99759 0,-9.64724 5.15627,-14.77581 5.15629,-5.15629 14.83125,-5.15629 13.75011,0 17.49259,10.17397 l -7.54039,2.27319 q -1.21978,-2.96624 -3.82562,-4.49095 -2.60588,-1.52471 -6.12658,-1.52471 -5.76615,0 -8.76013,3.49297 -2.99396,3.49296 -2.99396,10.00763 0,6.62555 3.07711,10.25714 3.1049,3.60386 8.70472,3.60386 z"
         id="text1"
         aria-label="AG" /></g><g
       id="g25"
       transform="matrix(0.96874842,0,0,0.96874842,2.9832174,4.9451305)"><path
         id="rect15"
         style="fill:url(#radialGradient16);fill-rule:evenodd;stroke-width:5.31283;stroke-linecap:round;stroke-linejoin:round;stroke-dasharray:none;paint-order:stroke fill markers"
         d="m 162.28068,17.131718 6.77738,7.718687 c 14.83606,10.176161 40.05243,35.096719 46.35882,52.799059 -30.22806,-3.860408 -46.56567,3.040013 -62.92576,9.891727 -12.25281,-13.794148 20.14727,-48.441465 9.78956,-70.409473 z"
         sodipodi:nodetypes="ccccc" /><path
         id="rect16"
         style="fill:url(#radialGradient18);fill-rule:evenodd;stroke:url(#radialGradient20);stroke-width:8.17562;stroke-linecap:round;stroke-linejoin:round;stroke-dasharray:none;paint-order:stroke fill markers"
         d="m 154.0954,19.477065 c 26.62116,7.028338 58.21786,39.705383 61.08935,54.775615 -10.57275,-7.513474 -40.86995,-7.535453 -62.24463,-8.277256 5.26112,-5.771451 7.7788,-30.735109 1.15528,-46.498359 z"
         sodipodi:nodetypes="cccc" /><path
         id="rect20"
         style="fill:url(#linearGradient25);fill-rule:evenodd;stroke-width:5.82083;stroke-linecap:round;stroke-linejoin:round;paint-order:stroke fill markers"
         d="m 154.46507,21.289603 7.14008,0.594311 c 2.93924,11.484548 5.90595,25.163929 1.78202,39.604877 17.39684,-2.01662 38.85102,2.541784 50.19452,9.956123 l 0.37652,4.706517 c -10.27937,-10.991135 -27.67142,-11.007278 -59.70224,-9.724204 6.65045,-19.81034 4.06359,-35.945334 0.2091,-45.137624 z"
         sodipodi:nodetypes="ccccccc" /></g></g></svg>
