<?xml version="1.0" encoding="UTF-8" standalone="no"?>
<!-- Created with Inkscape (http://www.inkscape.org/) -->

<svg
   width="256mm"
   height="256mm"
   viewBox="0 0 256 256"
   version="1.1"
   id="svg1"
   inkscape:version="1.4.2 (ebf0e940d0, 2025-05-08)"
   sodipodi:docname="image-x-psd-02.svg"
   xml:space="preserve"
   xmlns:inkscape="http://www.inkscape.org/namespaces/inkscape"
   xmlns:sodipodi="http://sodipodi.sourceforge.net/DTD/sodipodi-0.dtd"
   xmlns:xlink="http://www.w3.org/1999/xlink"
   xmlns="http://www.w3.org/2000/svg"
   xmlns:svg="http://www.w3.org/2000/svg"
   xmlns:rdf="http://www.w3.org/1999/02/22-rdf-syntax-ns#"
   xmlns:cc="http://creativecommons.org/ns#"
   xmlns:dc="http://purl.org/dc/elements/1.1/"><title
     id="title1">Grafic File</title><sodipodi:namedview
     id="namedview1"
     pagecolor="#ffffff"
     bordercolor="#000000"
     borderopacity="0.25"
     inkscape:showpageshadow="2"
     inkscape:pageopacity="0.0"
     inkscape:pagecheckerboard="0"
     inkscape:deskcolor="#d1d1d1"
     inkscape:document-units="mm"
     inkscape:zoom="0.4456814"
     inkscape:cx="410.60722"
     inkscape:cy="1147.6808"
     inkscape:current-layer="g26"
     showguides="true" /><defs
     id="defs1"><linearGradient
       id="linearGradient14"
       inkscape:collect="always"><stop
         style="stop-color:#9d9d9d;stop-opacity:0.76277173;"
         offset="0"
         id="stop21" /><stop
         style="stop-color:#898989;stop-opacity:0;"
         offset="1"
         id="stop22" /></linearGradient><linearGradient
       id="linearGradient9"
       inkscape:collect="always"><stop
         style="stop-color:#a4a4a4;stop-opacity:0;"
         offset="0"
         id="stop10" /><stop
         style="stop-color:#9e9e9e;stop-opacity:0.62876189;"
         offset="0.36316207"
         id="stop14" /><stop
         style="stop-color:#9d9d9d;stop-opacity:0.66334069;"
         offset="0.47206032"
         id="stop26" /><stop
         style="stop-color:#9c9c9c;stop-opacity:0.68627453"
         offset="0.58095855"
         id="stop23" /><stop
         style="stop-color:#a5a5a5;stop-opacity:0;"
         offset="1"
         id="stop13" /></linearGradient><linearGradient
       id="linearGradient4"
       inkscape:collect="always"><stop
         style="stop-color:#9e9e9e;stop-opacity:0.77528024;"
         offset="0"
         id="stop4" /><stop
         style="stop-color:#969696;stop-opacity:0;"
         offset="1"
         id="stop9" /></linearGradient><linearGradient
       id="linearGradient24"
       inkscape:collect="always"><stop
         style="stop-color:#ffffff;stop-opacity:1;"
         offset="0"
         id="stop24" /><stop
         style="stop-color:#f8f8f8;stop-opacity:0;"
         offset="1"
         id="stop25" /></linearGradient><linearGradient
       id="linearGradient18"
       inkscape:collect="always"><stop
         style="stop-color:#a3a3a3;stop-opacity:1;"
         offset="0"
         id="stop19" /><stop
         style="stop-color:#8a8a8a;stop-opacity:1;"
         offset="1"
         id="stop20" /></linearGradient><linearGradient
       id="linearGradient16"
       inkscape:collect="always"><stop
         style="stop-color:#ffffff;stop-opacity:1;"
         offset="0"
         id="stop17" /><stop
         style="stop-color:#bbbbbb;stop-opacity:1;"
         offset="1"
         id="stop18" /></linearGradient><linearGradient
       id="linearGradient15"
       inkscape:collect="always"><stop
         style="stop-color:#000000;stop-opacity:0.52193588;"
         offset="0"
         id="stop15" /><stop
         style="stop-color:#000000;stop-opacity:0;"
         offset="1"
         id="stop16" /></linearGradient><linearGradient
       id="linearGradient12"
       inkscape:collect="always"><stop
         style="stop-color:#ffffff;stop-opacity:1;"
         offset="0"
         id="stop11" /><stop
         style="stop-color:#ffffff;stop-opacity:0.64274555;"
         offset="1"
         id="stop12" /></linearGradient><linearGradient
       id="linearGradient6"
       inkscape:collect="always"><stop
         style="stop-color:#ffffff;stop-opacity:1;"
         offset="0"
         id="stop7" /><stop
         style="stop-color:#bbbbbb;stop-opacity:1;"
         offset="1"
         id="stop8" /></linearGradient><linearGradient
       id="linearGradient5"
       inkscape:collect="always"><stop
         style="stop-color:#a3a3a3;stop-opacity:1;"
         offset="0"
         id="stop5" /><stop
         style="stop-color:#8a8a8a;stop-opacity:1;"
         offset="1"
         id="stop6" /></linearGradient><radialGradient
       inkscape:collect="always"
       xlink:href="#linearGradient5"
       id="radialGradient6"
       cx="75.066299"
       cy="74.607521"
       fx="75.066299"
       fy="74.607521"
       r="97.430664"
       gradientTransform="matrix(1.8981695,0,0,2.1817088,-96.702979,-133.54183)"
       gradientUnits="userSpaceOnUse" /><radialGradient
       inkscape:collect="always"
       xlink:href="#linearGradient6"
       id="radialGradient8"
       cx="174.45174"
       cy="189.403"
       fx="174.45174"
       fy="189.403"
       r="92.707426"
       gradientTransform="matrix(3.6956033,0,0,4.275761,-470.25265,-610.78818)"
       gradientUnits="userSpaceOnUse" /><radialGradient
       inkscape:collect="always"
       xlink:href="#linearGradient12"
       id="radialGradient11"
       gradientUnits="userSpaceOnUse"
       gradientTransform="matrix(1.8180173,0,0,2.0895839,-87.463524,-122.50101)"
       cx="75.066299"
       cy="74.607521"
       fx="75.066299"
       fy="74.607521"
       r="97.430664" /><radialGradient
       inkscape:collect="always"
       xlink:href="#linearGradient15"
       id="radialGradient16"
       cx="189.09937"
       cy="54.03986"
       fx="189.09937"
       fy="54.03986"
       r="26.26236"
       gradientTransform="matrix(2.5421412,0.6811647,-0.53467756,1.9954438,-265.4871,-191.34864)"
       gradientUnits="userSpaceOnUse" /><radialGradient
       inkscape:collect="always"
       xlink:href="#linearGradient16"
       id="radialGradient18"
       cx="163.13307"
       cy="81.723709"
       fx="163.13307"
       fy="81.723709"
       r="28.42736"
       gradientTransform="matrix(1.9525628,-0.49137406,0.39129194,1.5548686,-183.5452,34.191671)"
       gradientUnits="userSpaceOnUse" /><radialGradient
       inkscape:collect="always"
       xlink:href="#linearGradient18"
       id="radialGradient20"
       cx="163.86221"
       cy="57.354431"
       fx="163.86221"
       fy="57.354431"
       r="26.811067"
       gradientTransform="matrix(1.7424858,-0.07965295,0.07021751,1.5360764,-129.82848,-12.432711)"
       gradientUnits="userSpaceOnUse" /><linearGradient
       inkscape:collect="always"
       xlink:href="#linearGradient24"
       id="linearGradient25"
       x1="168.39914"
       y1="59.019711"
       x2="182.49422"
       y2="47.129765"
       gradientUnits="userSpaceOnUse" /><radialGradient
       inkscape:collect="always"
       xlink:href="#linearGradient4"
       id="radialGradient9"
       cx="25.964643"
       cy="242.70813"
       fx="25.964643"
       fy="242.70813"
       r="10.821037"
       gradientTransform="matrix(1.3500924,0,0,1.1782891,-7.4889947,-42.382648)"
       gradientUnits="userSpaceOnUse" /><linearGradient
       inkscape:collect="always"
       xlink:href="#linearGradient9"
       id="linearGradient13"
       x1="119.62739"
       y1="227.97072"
       x2="119.62739"
       y2="256.21124"
       gradientUnits="userSpaceOnUse" /><radialGradient
       inkscape:collect="always"
       xlink:href="#linearGradient14"
       id="radialGradient22"
       cx="215.0412"
       cy="241.92787"
       fx="215.0412"
       fy="241.92787"
       r="10.821037"
       gradientTransform="matrix(1.2864395,0,0,1.3278689,-63.973477,-78.809529)"
       gradientUnits="userSpaceOnUse" /><radialGradient
       id="radialGradient13398-9"
       gradientUnits="userSpaceOnUse"
       cx="205"
       cy="58.580002"
       r="0.95569998"
       gradientTransform="matrix(2.9776183,-0.12193238,0.12533935,3.060816,-141.64717,827.6907)"><stop
         stop-color="#FFF"
         offset="0"
         id="stop5-2" /><stop
         stop-color="#41c3f3"
         offset="1"
         id="stop6-0" /></radialGradient><linearGradient
       id="linearGradient13400"
       y2="62.889999"
       xlink:href="#linearGradient11978-8"
       spreadMethod="reflect"
       gradientUnits="userSpaceOnUse"
       y1="65.599998"
       gradientTransform="rotate(16.179987,-2890.6303,1528.1033)"
       x2="198.10001"
       x1="190.2" /><linearGradient
       id="linearGradient11978-8"><stop
         stop-color="#3dc2f3"
         offset="0"
         id="stop1-7" /><stop
         stop-color="#FFF"
         offset="1"
         id="stop2-5" /></linearGradient><linearGradient
       id="linearGradient13402"
       y2="62.18"
       spreadMethod="reflect"
       gradientUnits="userSpaceOnUse"
       y1="59.950001"
       gradientTransform="rotate(16.179987,-2890.6303,1528.1033)"
       x2="200.60001"
       x1="206.89999"><stop
         stop-color="#3dc2f3"
         offset="0"
         id="stop7-3" /><stop
         stop-color="#FFF"
         offset="1"
         id="stop8-56" /></linearGradient><linearGradient
       id="linearGradient13404"
       y2="41.240002"
       spreadMethod="reflect"
       gradientUnits="userSpaceOnUse"
       y1="40.5"
       gradientTransform="rotate(16.179987,-2890.6303,1528.1033)"
       x2="190.3"
       x1="192.8"><stop
         stop-color="#3dc2f3"
         offset="0"
         id="stop9-9" /><stop
         stop-color="#FFF"
         offset="1"
         id="stop10-1" /></linearGradient><linearGradient
       id="linearGradient13406"
       y2="26.98"
       xlink:href="#linearGradient11490"
       spreadMethod="reflect"
       gradientUnits="userSpaceOnUse"
       y1="29.549999"
       gradientTransform="rotate(16.179987,-2890.6303,1528.1033)"
       x2="175.39999"
       x1="167.39999" /><linearGradient
       id="linearGradient11490"><stop
         stop-color="#0995dd"
         offset="0"
         id="stop3-2" /><stop
         stop-color="#FFF"
         offset="1"
         id="stop4-7" /></linearGradient><linearGradient
       id="linearGradient13410"
       y2="58.98"
       xlink:href="#linearGradient11490"
       spreadMethod="reflect"
       gradientUnits="userSpaceOnUse"
       y1="62.529999"
       gradientTransform="rotate(16.179987,-2890.6303,1528.1033)"
       x2="184"
       x1="176" /><radialGradient
       id="radialGradient13412-3"
       gradientUnits="userSpaceOnUse"
       cx="212.8"
       cy="58.830002"
       r="0.95569998"
       gradientTransform="matrix(2.9776183,-0.12193238,0.12533935,3.060816,-141.64717,827.6907)"><stop
         stop-color="#FFF"
         offset="0"
         id="stop15-2" /><stop
         stop-color="#41c3f3"
         offset="1"
         id="stop16-6" /></radialGradient><linearGradient
       id="linearGradient13414"
       y2="350.5"
       xlink:href="#linearGradient11978-8"
       gradientUnits="userSpaceOnUse"
       y1="351.79999"
       gradientTransform="rotate(16.179987,-1840.474,1496.3872)"
       x2="262.39999"
       x1="257.70001" /><linearGradient
       id="linearGradient6-6"
       gradientTransform="scale(2.1233444,0.47095515)"
       x1="76.295404"
       y1="161.57299"
       x2="101.42888"
       y2="161.57299"
       gradientUnits="userSpaceOnUse"><stop
         stop-color="#3dc2f3"
         offset="0"
         id="stop5-7" /><stop
         stop-color="#FFF"
         offset="1"
         id="stop6-5" /></linearGradient><linearGradient
       id="linearGradient5-9"
       gradientTransform="scale(1.7380611,0.57535376)"
       x1="91.832977"
       y1="128.16164"
       x2="125.03606"
       y2="128.16164"
       gradientUnits="userSpaceOnUse"><stop
         stop-color="#0995dd"
         offset="0"
         id="stop7-8" /><stop
         stop-color="#FFF"
         offset="1"
         id="stop8-7" /></linearGradient><linearGradient
       inkscape:collect="always"
       xlink:href="#linearGradient41-6"
       id="linearGradient25-9"
       gradientUnits="userSpaceOnUse"
       x1="183.93015"
       y1="72.650764"
       x2="192.85063"
       y2="93.169281" /><linearGradient
       id="linearGradient41-6"
       inkscape:collect="always"><stop
         style="stop-color:#0092ea;stop-opacity:1;"
         offset="0"
         id="stop49-6" /><stop
         style="stop-color:#0089da;stop-opacity:1;"
         offset="0.41630289"
         id="stop50-1" /><stop
         style="stop-color:#007cc8;stop-opacity:1;"
         offset="0.60048252"
         id="stop51-1" /><stop
         style="stop-color:#001e30;stop-opacity:1;"
         offset="1"
         id="stop52-0" /></linearGradient><linearGradient
       id="linearGradient3702"><stop
         id="stop3704"
         offset="0"
         style="stop-color:black;stop-opacity:0;" /><stop
         style="stop-color:black;stop-opacity:1;"
         offset="0.5"
         id="stop3710" /><stop
         id="stop3706"
         offset="1"
         style="stop-color:black;stop-opacity:0;" /></linearGradient><linearGradient
       id="linearGradient259"><stop
         id="stop260"
         offset="0.0000000"
         style="stop-color:#fafafa;stop-opacity:1.0000000;" /><stop
         id="stop261"
         offset="1.0000000"
         style="stop-color:#bbbbbb;stop-opacity:1.0000000;" /></linearGradient><linearGradient
       id="linearGradient15662"><stop
         id="stop15664"
         offset="0.0000000"
         style="stop-color:#ffffff;stop-opacity:1.0000000;" /><stop
         id="stop15666"
         offset="1.0000000"
         style="stop-color:#f8f8f8;stop-opacity:1.0000000;" /></linearGradient><linearGradient
       id="linearGradient26-3"
       gradientTransform="scale(0.98128502,1.0190719)"
       x1="34.2229"
       y1="9.2594643"
       x2="40.837365"
       y2="4.1681118"
       gradientUnits="userSpaceOnUse"><stop
         id="stop25-3"
         offset="0"
         style="stop-color:#f7f7f7;stop-opacity:1;" /><stop
         id="stop26-3"
         offset="1"
         style="stop-color:#8a8a8a;stop-opacity:1;" /></linearGradient><radialGradient
       inkscape:collect="always"
       xlink:href="#linearGradient7192"
       id="radialGradient13285"
       gradientUnits="userSpaceOnUse"
       gradientTransform="matrix(1.3112619,-1.0240636,1.0605649,1.3579947,-543.97107,298.9627)"
       cx="416.65488"
       cy="392.0784"
       fx="416.65488"
       fy="392.0784"
       r="27.076788" /><linearGradient
       id="linearGradient7192"><stop
         style="stop-color:#fce94f;stop-opacity:1;"
         offset="0"
         id="stop7210" /><stop
         id="stop8189"
         offset="0.5"
         style="stop-color:#66d09a;stop-opacity:1;" /><stop
         id="stop8187"
         offset="1"
         style="stop-color:#66c6d0;stop-opacity:1;" /></linearGradient><linearGradient
       inkscape:collect="always"
       xlink:href="#linearGradient7176"
       id="linearGradient13287"
       gradientUnits="userSpaceOnUse"
       x1="375.62509"
       y1="311.79102"
       x2="393.43311"
       y2="374.92462" /><linearGradient
       id="linearGradient7176"><stop
         style="stop-color:#204a87;stop-opacity:1;"
         offset="0"
         id="stop7178" /><stop
         style="stop-color:#729fcf;stop-opacity:0.75;"
         offset="1"
         id="stop7180" /></linearGradient><radialGradient
       inkscape:collect="always"
       xlink:href="#linearGradient9162"
       id="radialGradient13289"
       gradientUnits="userSpaceOnUse"
       gradientTransform="matrix(-1.4600842,-0.5099764,0.225117,-0.6445198,943.90985,883.94293)"
       cx="416.80206"
       cy="399.14209"
       fx="416.80206"
       fy="399.14209"
       r="20.131355" /><linearGradient
       id="linearGradient9162"><stop
         id="stop9170"
         offset="0"
         style="stop-color:#8ae234;stop-opacity:1;" /><stop
         style="stop-color:#4db07d;stop-opacity:0.88235295;"
         offset="1"
         id="stop9166" /></linearGradient></defs><metadata
     id="metadata1"><rdf:RDF><cc:Work
         rdf:about=""><cc:license
           rdf:resource="http://creativecommons.org/publicdomain/zero/1.0/" /><dc:title>Grafic File</dc:title><dc:date>202507</dc:date><dc:creator><cc:Agent><dc:title>Paper sheet by Jakub Steiner </dc:title></cc:Agent></dc:creator><dc:publisher><cc:Agent><dc:title>Blackcrack</dc:title></cc:Agent></dc:publisher><dc:description>Groundfile for Mimetype-files
202507 - Blackcrack - Rebuild the Sheet from  Jakub Steiner total fresh because the Code was buggy (oversize) because that i have must make it fresh with Inkscape 1.4.2 with same Design, now it's in the right size, also at the Icon Themeviewer in Plasma.
202507 finaly many Mimetypes for Tango! from Blackcrack</dc:description><dc:contributor><cc:Agent><dc:title>Paper sheet by Jakub Steiner &lt;http://jimmac.musichall.cz&gt;
202507 Blackcrack : Mimetypes creating for tango!</dc:title></cc:Agent></dc:contributor></cc:Work><cc:License
         rdf:about="http://creativecommons.org/publicdomain/zero/1.0/"><cc:permits
           rdf:resource="http://creativecommons.org/ns#Reproduction" /><cc:permits
           rdf:resource="http://creativecommons.org/ns#Distribution" /><cc:permits
           rdf:resource="http://creativecommons.org/ns#DerivativeWorks" /></cc:License></rdf:RDF></metadata><g
     id="g26"
     transform="matrix(1.0110135,0,0,1.0271114,5.1068557,-7.0669282)"><g
       id="g1"><g
         id="g27"
         inkscape:label="shadow"
         transform="matrix(0.9809334,0,0,0.9809334,5.1601093,4.6032445)"><rect
           style="fill:url(#linearGradient13);fill-rule:evenodd;stroke-width:1.476;stroke-linecap:round;stroke-linejoin:round;paint-order:stroke fill markers"
           id="rect2"
           width="184.84464"
           height="28.737843"
           x="27.673475"
           y="226.00008" /><rect
           style="fill:url(#radialGradient9);fill-rule:evenodd;stroke-width:1.476;stroke-linecap:round;stroke-linejoin:round;paint-order:stroke fill markers"
           id="rect3"
           width="21.580748"
           height="28.737839"
           x="6.1013594"
           y="226.00008" /><rect
           style="fill:url(#radialGradient22);fill-rule:evenodd;stroke-width:1.476;stroke-linecap:round;stroke-linejoin:round;paint-order:stroke fill markers"
           id="rect4"
           width="21.642075"
           height="28.737839"
           x="212.51927"
           y="226.00008" /></g><g
         id="rect1"
         style="opacity:1"
         transform="matrix(0.96874842,0,0,0.96874842,2.9832174,4.9451305)"><path
           style="baseline-shift:baseline;display:inline;overflow:visible;fill:url(#radialGradient6);fill-rule:evenodd;stroke-width:1.00013;stroke-linecap:square;stroke-dasharray:none;paint-order:stroke fill markers;enable-background:accumulate;stop-color:#000000;stop-opacity:1"
           d="m 32.501748,15.190316 c -6.164423,0 -9.332052,2.390294 -9.332052,8.554717 V 232.87562 c 0,6.16442 2.390294,8.16605 8.554717,8.16605 H 211.78111 c 6.16442,0 9.33206,-2.3903 9.33206,-8.55472 V 77.24196 c 0,-7.769553 -48.54277,-62.051644 -67.51449,-62.051644 z m 1.943339,9.445313 H 153.59868 c 7.88599,0 57.28988,47.93445 57.28988,52.606331 v 152.52432 c 0,1.09493 -0.73319,1.83008 -1.82812,1.83008 H 34.445087 c -1.094929,0 -1.830078,-0.73515 -1.830078,-1.83008 V 26.465707 c 0,-1.094929 0.735149,-1.830078 1.830078,-1.830078 z"
           id="path4"
           sodipodi:nodetypes="ssssssssssssssssss" /><path
           style="baseline-shift:baseline;display:inline;overflow:visible;vector-effect:none;fill:url(#radialGradient8);fill-rule:evenodd;stroke-linecap:square;paint-order:stroke fill markers;enable-background:accumulate;stop-color:#000000;stop-opacity:1"
           d="m 35.95035,20.666336 h 126.97059 c 8.45031,0 51.8925,53.10732 51.8925,57.65975 V 228.63696 c 0,3.62968 -2.92208,6.55176 -6.55176,6.55176 H 35.95035 c -3.629676,0 -6.551762,-2.92208 -6.551762,-6.55176 V 27.218098 c 0,-3.629676 2.922086,-6.551762 6.551762,-6.551762 z"
           id="path5"
           sodipodi:nodetypes="sssssssss" /><path
           style="baseline-shift:baseline;display:inline;overflow:visible;opacity:1;fill:url(#radialGradient11);fill-rule:evenodd;stroke-width:0.957899;stroke-linecap:square;stroke-dasharray:none;paint-order:stroke fill markers;enable-background:accumulate;stop-color:#000000;stop-opacity:1"
           d="m 38.490307,20.672015 c -5.904124,0 -9.723771,1.698513 -9.700415,7.602591 l 0.798722,201.901844 c 0.0079,2.00188 2.542406,5.007 6.609957,5.007 H 208.01432 c 4.63265,0 7.40868,-4.18878 7.40868,-7.97377 V 79.352581 c 0,-7.441476 -40.78525,-58.680566 -63.90137,-58.680566 z m 113.031323,6.348757 c 18.21976,0 58.41027,42.155832 58.39934,52.331809 l -0.15572,145.031599 c -0.004,3.59404 -0.98481,4.99145 -5.14153,5.00212 -17.95655,-1.29577 -169.086361,-0.0767 -169.086361,-0.0767 L 35.255444,27.020772 Z"
           id="path11"
           sodipodi:nodetypes="sssssssssssssccs" /></g></g><g
       id="g17582"
       transform="matrix(4.924265,0,0,4.847087,-476.46339,26.092142)"
       style="display:inline"><path
         id="path9209"
         d="m 120.85923,18.513974 c -1.44164,0.646501 -2.18835,2.372981 -3.00076,3.690988 -0.4277,0.8023 -0.60526,1.773179 -0.72427,2.603736 -1.10352,0.577334 0.0539,2.121115 0.11704,3.014023 0.64839,2.209077 2.20588,3.999793 3.74522,5.589562 1.09498,3.532817 4.39812,5.538888 7.06,7.765291 1.26295,1.705654 3.54391,2.402235 5.44784,2.64155 -0.35368,0.638151 -0.0377,1.486102 0.51916,1.680814 -0.25422,1.119488 1.20708,1.056698 1.64246,0.33402 1.1797,-1.211423 3.29451,-2.274671 4.80802,-0.992165 1.59481,0.674712 3.08174,1.850055 4.89831,1.763253 1.00723,-1.074872 -7e-5,-2.497787 -1.15412,-2.873686 -1.58947,-0.875547 -3.35447,-1.386578 -4.85854,-2.411137 0.90626,-2.080892 0.60202,-4.397471 0.0683,-6.53072 -0.27217,0.947521 -0.5566,1.715436 -0.84368,0.412216 -0.20166,-0.530769 -0.74421,-1.215135 -1.37471,-0.89667 -0.77339,-1.900017 -1.86239,-3.783942 -1.83238,-5.900841 -0.53429,-0.989983 -1.57642,0.07109 -1.90337,0.712529 -1.42868,-2.113855 -2.16265,-4.690977 -4.2094,-6.350579 -1.48969,-2.129652 -3.57323,-3.969563 -6.24887,-4.282424 -0.71064,-0.120626 -1.45004,-0.140376 -2.15629,0.03024 z"
         style="fill:#204a87;fill-opacity:1;fill-rule:evenodd;stroke:none;stroke-width:1px;stroke-linecap:butt;stroke-linejoin:miter;stroke-opacity:1" /><path
         id="path9182"
         d="m 120.57818,19.144614 c -1.51428,1.883642 -3.25928,4.091032 -2.81709,6.660997 -1.21293,-1.568877 -0.18136,1.074083 -0.0207,1.844972 0.68049,2.071592 1.97602,3.894821 3.65046,5.268326 0.95644,3.461324 4.07795,5.60747 6.80481,7.571891 1.31686,1.99278 3.79963,2.809121 6.10427,2.776153 -0.87595,1.730779 -0.24304,2.063901 0.66693,1.138204 -0.94877,2.067723 -0.28198,1.736922 0.99862,0.416898 1.30685,-0.786878 3.04546,-1.716835 4.40981,-0.576285 1.55452,0.549874 3.02736,1.822082 4.70214,1.82482 0.80859,-1.160297 -1.03795,-1.816969 -1.81109,-2.229583 -1.47354,-0.762827 -3.40892,-1.362597 -4.5306,-2.367261 0.68499,-1.509331 0.86058,-3.181628 0.52753,-4.815225 -0.52441,1.456891 -0.56934,0.02056 -0.89603,-0.590232 -0.93764,-2.683318 -1.45674,-0.746824 -1.06326,1.070533 0.0402,1.334725 -0.0232,-0.820897 -0.20322,-1.270046 -0.41367,-2.436618 -2.212,-4.379231 -2.17835,-6.936213 0.0737,-1.136383 -0.93634,0.329679 -1.22715,0.771979 -0.15647,0.760246 -0.34459,0.243438 -0.58529,-0.206419 -1.4357,-1.847998 -1.90222,-4.340881 -3.76531,-5.857501 -1.30248,-1.386434 -2.31147,-3.180562 -4.17123,-3.956405 -1.38721,-0.612888 -3.21796,-1.077957 -4.59527,-0.539603 z m 6.76972,20.054938 c -0.53079,-0.0076 -0.1536,-0.62084 0,0 z"
         style="fill:#d3d7cf;fill-opacity:1;fill-rule:evenodd;stroke:none;stroke-width:1px;stroke-linecap:butt;stroke-linejoin:miter;stroke-opacity:1" /><g
         transform="matrix(0.2559338,-0.04274846,0.04274846,0.2559338,11.236145,-44.704044)"
         id="g9174"><path
           style="fill:url(#radialGradient13285);fill-opacity:1;fill-rule:evenodd;stroke:none;stroke-width:1px;stroke-linecap:butt;stroke-linejoin:miter;stroke-opacity:1"
           d="m 371.51071,356.64712 c -2.61177,18.44921 11.27184,31.95294 24.41106,42.84388 7.71247,4.46089 15.27133,4.85523 23.91287,5.23095 7.01891,-9.82704 6.31113,-19.04715 3.48729,-30.38927 -2.17133,-4.60337 -2.16905,-9.01234 -1.99274,-13.94918 -3.81453,2.52707 -2.93254,7.87205 -3.73638,12.20553 -0.74027,-7.71349 -4.29636,-14.59669 -7.22368,-21.67104 -1.10702,-11.65674 -11.00063,-20.32798 -18.68193,-28.39653 10.65162,24.92934 13.8844,26.65165 3.2382,52.55849 -14.04967,2.59294 -21.38372,-5.51401 -23.41469,-18.43283 z"
           id="path27337"
           sodipodi:nodetypes="cccccccccc" /><path
           style="fill:url(#linearGradient13287);fill-opacity:1;fill-rule:evenodd;stroke:none;stroke-width:1px;stroke-linecap:butt;stroke-linejoin:miter;stroke-opacity:1"
           d="m 360.55065,339.70883 c 1.19727,13.07324 8.44437,24.76745 19.6783,31.63474 5.20213,2.04356 10.39284,4.04146 14.94554,3.48729 0.30243,-8.13609 3.29901,-15.45117 5.44091,-24.04713 1.60913,-7.44903 3.10639,-14.04427 -0.27969,-20.93821 -5.26573,-10.30681 -13.49255,-15.22979 -23.84315,-16.29139 -3.07554,3.06468 -6.06026,5.55581 -8.45477,8.23277 -3.98658,4.45684 -7.81653,12.38749 -4.74713,18.42012 3.29308,4.30065 7.7626,9.01094 10.71098,9.96369 -4.63735,-0.4537 -7.35099,-3.30558 -10.71098,-6.22731 -0.91334,-1.41152 -1.82667,-2.82305 -2.74001,-4.23457 z"
           id="path24402"
           sodipodi:nodetypes="ccccccscccc" /><path
           style="fill:url(#radialGradient13289);fill-opacity:1;fill-rule:evenodd;stroke:none;stroke-width:1px;stroke-linecap:butt;stroke-linejoin:miter;stroke-opacity:1"
           d="m 392.54617,397.77416 c 4.95893,9.157 12.86282,11.7592 22.73939,13.28594 -0.93683,1.44783 -1.87365,2.89565 -2.81048,4.34348 2.26574,-1.94074 4.08329,-4.1571 7.15396,-3.32148 -2.39653,2.45754 -3.0143,4.20357 -4.08798,6.13197 4.30086,-2.74849 10.3538,-2.92762 15.30615,-3.49038 -0.93683,-2.12916 -2.61637,-3.83392 -3.5532,-5.96308 2.81019,-3.36438 4.58728,-8.26209 5.51487,-12.70785 -1.23563,2.19054 -2.78955,3.85056 -4.23738,5.29839 3.38484,-5.54205 2.22596,-9.77666 1.022,-15.07443 -0.17033,2.38465 -0.34067,4.76931 -0.511,7.15396 -3.04088,6.59976 -5.3415,7.05904 -10.20901,10.56633 -7.16003,0.56033 -17.9524,0.34389 -26.32732,-6.22285 z"
           id="path8191"
           sodipodi:nodetypes="ccccccccccccc" /><path
           id="path24368"
           d="m 446.63008,425.98759 c -6.22632,-3.86128 -20.39719,-14.07534 -24.25288,-17.48096 -2.88166,-2.54527 -4.73884,-3.34958 -8,-3.46463 -2.98433,-0.10528 -3.42946,-0.2737 -1.49712,-0.56642 1.5125,-0.22913 2.75,-0.65505 2.75,-0.94649 0,-0.29144 -2.42187,-3.29905 -5.38194,-6.68358 -19.17405,-21.92354 -31.85932,-49.02821 -33.06665,-70.65368 -0.2303,-4.125 -0.21173,-6.15 0.0413,-4.5 3.60654,23.5218 9.30755,38.50504 21.61571,56.8099 7.26217,10.8004 19.33484,23.80261 21.37428,23.02001 0.96887,-0.37179 1.25444,-0.069 0.87282,0.92552 -0.69399,1.8085 8.57842,9.80117 20.18409,17.39837 4.47676,2.93054 8.40014,6.00729 8.71861,6.83723 0.72256,1.88295 0.8376,1.90677 -3.35818,-0.69527 z"
           style="fill:#2a6a28" /></g></g><g
       id="g25"
       transform="matrix(0.96874842,0,0,0.96874842,2.9832174,4.9451305)"><path
         id="rect15"
         style="fill:url(#radialGradient16);fill-rule:evenodd;stroke-width:5.31283;stroke-linecap:round;stroke-linejoin:round;stroke-dasharray:none;paint-order:stroke fill markers"
         d="m 162.28068,17.131718 6.77738,7.718687 c 14.83606,10.176161 40.05243,35.096719 46.35882,52.799059 -30.22806,-3.860408 -46.56567,3.040013 -62.92576,9.891727 -12.25281,-13.794148 20.14727,-48.441465 9.78956,-70.409473 z"
         sodipodi:nodetypes="ccccc" /><path
         id="rect16"
         style="fill:url(#radialGradient18);fill-rule:evenodd;stroke:url(#radialGradient20);stroke-width:8.17562;stroke-linecap:round;stroke-linejoin:round;stroke-dasharray:none;paint-order:stroke fill markers"
         d="m 154.0954,19.477065 c 26.62116,7.028338 58.21786,39.705383 61.08935,54.775615 -10.57275,-7.513474 -40.86995,-7.535453 -62.24463,-8.277256 5.26112,-5.771451 7.7788,-30.735109 1.15528,-46.498359 z"
         sodipodi:nodetypes="cccc" /><path
         id="rect20"
         style="fill:url(#linearGradient25);fill-rule:evenodd;stroke-width:5.82083;stroke-linecap:round;stroke-linejoin:round;paint-order:stroke fill markers"
         d="m 154.46507,21.289603 7.14008,0.594311 c 2.93924,11.484548 5.90595,25.163929 1.78202,39.604877 17.39684,-2.01662 38.85102,2.541784 50.19452,9.956123 l 0.37652,4.706517 c -10.27937,-10.991135 -27.67142,-11.007278 -59.70224,-9.724204 6.65045,-19.81034 4.06359,-35.945334 0.2091,-45.137624 z"
         sodipodi:nodetypes="ccccccc" /></g></g></svg>
