<?xml version="1.0" encoding="UTF-8" standalone="no"?>
<!-- Created with Inkscape (http://www.inkscape.org/) -->

<svg
   width="256mm"
   height="256mm"
   viewBox="0 0 256 256"
   version="1.1"
   id="svg1"
   inkscape:version="1.4.2 (ebf0e940d0, 2025-05-08)"
   sodipodi:docname="image-vnd.zbrush.pcx.svg"
   xml:space="preserve"
   xmlns:inkscape="http://www.inkscape.org/namespaces/inkscape"
   xmlns:sodipodi="http://sodipodi.sourceforge.net/DTD/sodipodi-0.dtd"
   xmlns:xlink="http://www.w3.org/1999/xlink"
   xmlns="http://www.w3.org/2000/svg"
   xmlns:svg="http://www.w3.org/2000/svg"
   xmlns:rdf="http://www.w3.org/1999/02/22-rdf-syntax-ns#"
   xmlns:cc="http://creativecommons.org/ns#"
   xmlns:dc="http://purl.org/dc/elements/1.1/"><title
     id="title1">Grafic File</title><sodipodi:namedview
     id="namedview1"
     pagecolor="#ffffff"
     bordercolor="#000000"
     borderopacity="0.25"
     inkscape:showpageshadow="2"
     inkscape:pageopacity="0.0"
     inkscape:pagecheckerboard="0"
     inkscape:deskcolor="#d1d1d1"
     inkscape:document-units="mm"
     inkscape:zoom="0.45912897"
     inkscape:cx="605.49435"
     inkscape:cy="1148.9146"
     inkscape:current-layer="g26"
     showguides="true" /><defs
     id="defs1"><linearGradient
       id="linearGradient14"
       inkscape:collect="always"><stop
         style="stop-color:#9d9d9d;stop-opacity:0.76277173;"
         offset="0"
         id="stop21" /><stop
         style="stop-color:#898989;stop-opacity:0;"
         offset="1"
         id="stop22" /></linearGradient><linearGradient
       id="linearGradient9"
       inkscape:collect="always"><stop
         style="stop-color:#a4a4a4;stop-opacity:0;"
         offset="0"
         id="stop10" /><stop
         style="stop-color:#9e9e9e;stop-opacity:0.62876189;"
         offset="0.36316207"
         id="stop14" /><stop
         style="stop-color:#9d9d9d;stop-opacity:0.66334069;"
         offset="0.47206032"
         id="stop26" /><stop
         style="stop-color:#9c9c9c;stop-opacity:0.68627453"
         offset="0.58095855"
         id="stop23" /><stop
         style="stop-color:#a5a5a5;stop-opacity:0;"
         offset="1"
         id="stop13" /></linearGradient><linearGradient
       id="linearGradient4"
       inkscape:collect="always"><stop
         style="stop-color:#9e9e9e;stop-opacity:0.77528024;"
         offset="0"
         id="stop4" /><stop
         style="stop-color:#969696;stop-opacity:0;"
         offset="1"
         id="stop9" /></linearGradient><linearGradient
       id="linearGradient24"
       inkscape:collect="always"><stop
         style="stop-color:#ffffff;stop-opacity:1;"
         offset="0"
         id="stop24" /><stop
         style="stop-color:#f8f8f8;stop-opacity:0;"
         offset="1"
         id="stop25" /></linearGradient><linearGradient
       id="linearGradient18"
       inkscape:collect="always"><stop
         style="stop-color:#a3a3a3;stop-opacity:1;"
         offset="0"
         id="stop19" /><stop
         style="stop-color:#8a8a8a;stop-opacity:1;"
         offset="1"
         id="stop20" /></linearGradient><linearGradient
       id="linearGradient16"
       inkscape:collect="always"><stop
         style="stop-color:#ffffff;stop-opacity:1;"
         offset="0"
         id="stop17" /><stop
         style="stop-color:#bbbbbb;stop-opacity:1;"
         offset="1"
         id="stop18" /></linearGradient><linearGradient
       id="linearGradient15"
       inkscape:collect="always"><stop
         style="stop-color:#000000;stop-opacity:0.52193588;"
         offset="0"
         id="stop15" /><stop
         style="stop-color:#000000;stop-opacity:0;"
         offset="1"
         id="stop16" /></linearGradient><linearGradient
       id="linearGradient12"
       inkscape:collect="always"><stop
         style="stop-color:#ffffff;stop-opacity:1;"
         offset="0"
         id="stop11" /><stop
         style="stop-color:#ffffff;stop-opacity:0.64274555;"
         offset="1"
         id="stop12" /></linearGradient><linearGradient
       id="linearGradient6"
       inkscape:collect="always"><stop
         style="stop-color:#ffffff;stop-opacity:1;"
         offset="0"
         id="stop7" /><stop
         style="stop-color:#bbbbbb;stop-opacity:1;"
         offset="1"
         id="stop8" /></linearGradient><linearGradient
       id="linearGradient5"
       inkscape:collect="always"><stop
         style="stop-color:#a3a3a3;stop-opacity:1;"
         offset="0"
         id="stop5" /><stop
         style="stop-color:#8a8a8a;stop-opacity:1;"
         offset="1"
         id="stop6" /></linearGradient><radialGradient
       inkscape:collect="always"
       xlink:href="#linearGradient5"
       id="radialGradient6"
       cx="75.066299"
       cy="74.607521"
       fx="75.066299"
       fy="74.607521"
       r="97.430664"
       gradientTransform="matrix(1.8981695,0,0,2.1817088,-96.702979,-133.54183)"
       gradientUnits="userSpaceOnUse" /><radialGradient
       inkscape:collect="always"
       xlink:href="#linearGradient6"
       id="radialGradient8"
       cx="174.45174"
       cy="189.403"
       fx="174.45174"
       fy="189.403"
       r="92.707426"
       gradientTransform="matrix(3.6956033,0,0,4.275761,-470.25265,-610.78818)"
       gradientUnits="userSpaceOnUse" /><radialGradient
       inkscape:collect="always"
       xlink:href="#linearGradient12"
       id="radialGradient11"
       gradientUnits="userSpaceOnUse"
       gradientTransform="matrix(1.8180173,0,0,2.0895839,-87.463524,-122.50101)"
       cx="75.066299"
       cy="74.607521"
       fx="75.066299"
       fy="74.607521"
       r="97.430664" /><radialGradient
       inkscape:collect="always"
       xlink:href="#linearGradient15"
       id="radialGradient16"
       cx="189.09937"
       cy="54.03986"
       fx="189.09937"
       fy="54.03986"
       r="26.26236"
       gradientTransform="matrix(2.5421412,0.6811647,-0.53467756,1.9954438,-265.4871,-191.34864)"
       gradientUnits="userSpaceOnUse" /><radialGradient
       inkscape:collect="always"
       xlink:href="#linearGradient16"
       id="radialGradient18"
       cx="163.13307"
       cy="81.723709"
       fx="163.13307"
       fy="81.723709"
       r="28.42736"
       gradientTransform="matrix(1.9525628,-0.49137406,0.39129194,1.5548686,-183.5452,34.191671)"
       gradientUnits="userSpaceOnUse" /><radialGradient
       inkscape:collect="always"
       xlink:href="#linearGradient18"
       id="radialGradient20"
       cx="163.86221"
       cy="57.354431"
       fx="163.86221"
       fy="57.354431"
       r="26.811067"
       gradientTransform="matrix(1.7424858,-0.07965295,0.07021751,1.5360764,-129.82848,-12.432711)"
       gradientUnits="userSpaceOnUse" /><linearGradient
       inkscape:collect="always"
       xlink:href="#linearGradient24"
       id="linearGradient25"
       x1="168.39914"
       y1="59.019711"
       x2="182.49422"
       y2="47.129765"
       gradientUnits="userSpaceOnUse" /><radialGradient
       inkscape:collect="always"
       xlink:href="#linearGradient4"
       id="radialGradient9"
       cx="25.964643"
       cy="242.70813"
       fx="25.964643"
       fy="242.70813"
       r="10.821037"
       gradientTransform="matrix(1.3500924,0,0,1.1782891,-7.4889947,-42.382648)"
       gradientUnits="userSpaceOnUse" /><linearGradient
       inkscape:collect="always"
       xlink:href="#linearGradient9"
       id="linearGradient13"
       x1="119.62739"
       y1="227.97072"
       x2="119.62739"
       y2="256.21124"
       gradientUnits="userSpaceOnUse" /><radialGradient
       inkscape:collect="always"
       xlink:href="#linearGradient14"
       id="radialGradient22"
       cx="215.0412"
       cy="241.92787"
       fx="215.0412"
       fy="241.92787"
       r="10.821037"
       gradientTransform="matrix(1.2864395,0,0,1.3278689,-63.973477,-78.809529)"
       gradientUnits="userSpaceOnUse" /><linearGradient
       inkscape:collect="always"
       xlink:href="#linearGradient4503"
       id="linearGradient4504"
       x1="142.34808"
       y1="127.033"
       x2="133.62143"
       y2="143.98367"
       gradientUnits="userSpaceOnUse" /><linearGradient
       id="linearGradient4503"
       inkscape:collect="always"><stop
         style="stop-color:#000000;stop-opacity:0.56747407;"
         offset="0"
         id="stop4503" /><stop
         style="stop-color:#a6a6a6;stop-opacity:0.54671282;"
         offset="1"
         id="stop4504" /></linearGradient><linearGradient
       inkscape:collect="always"
       xlink:href="#linearGradient4509"
       id="linearGradient4510"
       x1="215.68784"
       y1="271.92276"
       x2="203.07014"
       y2="233.29942"
       gradientUnits="userSpaceOnUse" /><linearGradient
       id="linearGradient4509"
       inkscape:collect="always"><stop
         style="stop-color:#7b7b7b;stop-opacity:0.63321799;"
         offset="0"
         id="stop4509" /><stop
         style="stop-color:#7b7b7b;stop-opacity:0;"
         offset="1"
         id="stop4510" /></linearGradient><linearGradient
       inkscape:collect="always"
       xlink:href="#linearGradient4512"
       id="linearGradient4513"
       x1="188.17056"
       y1="217.05325"
       x2="204.18768"
       y2="228.01181"
       gradientUnits="userSpaceOnUse" /><linearGradient
       id="linearGradient4512"
       inkscape:collect="always"><stop
         style="stop-color:#7b7b7b;stop-opacity:0.74048442;"
         offset="0"
         id="stop4512" /><stop
         style="stop-color:#7b7b7b;stop-opacity:0.61245674;"
         offset="1"
         id="stop4513" /></linearGradient><linearGradient
       inkscape:collect="always"
       xlink:href="#linearGradient4515"
       id="linearGradient4514"
       gradientUnits="userSpaceOnUse"
       x1="193.79526"
       y1="228.86499"
       x2="206.11777"
       y2="232.31683"
       gradientTransform="rotate(-90,138.64665,269.89876)" /><linearGradient
       id="linearGradient4515"
       inkscape:collect="always"><stop
         style="stop-color:#7b7b7b;stop-opacity:0.74048442;"
         offset="0"
         id="stop4514" /><stop
         style="stop-color:#7b7b7b;stop-opacity:0;"
         offset="1"
         id="stop4515" /></linearGradient><linearGradient
       inkscape:collect="always"
       xlink:href="#linearGradient4517"
       id="linearGradient4518"
       x1="-13.012707"
       y1="239.49522"
       x2="45.548573"
       y2="219.88087"
       gradientUnits="userSpaceOnUse" /><linearGradient
       id="linearGradient4517"
       inkscape:collect="always"><stop
         style="stop-color:#707070;stop-opacity:0.51211071;"
         offset="0"
         id="stop4517" /><stop
         style="stop-color:#696969;stop-opacity:0.83737022;"
         offset="1"
         id="stop4518" /></linearGradient></defs><metadata
     id="metadata1"><rdf:RDF><cc:Work
         rdf:about=""><cc:license
           rdf:resource="http://creativecommons.org/publicdomain/zero/1.0/" /><dc:title>Grafic File</dc:title><dc:date>202507</dc:date><dc:creator><cc:Agent><dc:title>Paper sheet by Jakub Steiner </dc:title></cc:Agent></dc:creator><dc:publisher><cc:Agent><dc:title>Blackcrack</dc:title></cc:Agent></dc:publisher><dc:description>Groundfile for Mimetype-files
202507 - Blackcrack - Rebuild the Sheet from  Jakub Steiner total fresh because the Code was buggy (oversize) because that i have must make it fresh with Inkscape 1.4.2 with same Design, now it's in the right size, also at the Icon Themeviewer in Plasma.
202507 finaly many Mimetypes for Tango! from Blackcrack</dc:description><dc:contributor><cc:Agent><dc:title>Paper sheet by Jakub Steiner &lt;http://jimmac.musichall.cz&gt;
202507 Blackcrack : Mimetypes creating for tango!</dc:title></cc:Agent></dc:contributor></cc:Work><cc:License
         rdf:about="http://creativecommons.org/publicdomain/zero/1.0/"><cc:permits
           rdf:resource="http://creativecommons.org/ns#Reproduction" /><cc:permits
           rdf:resource="http://creativecommons.org/ns#Distribution" /><cc:permits
           rdf:resource="http://creativecommons.org/ns#DerivativeWorks" /></cc:License></rdf:RDF></metadata><g
     id="g26"
     transform="matrix(1.0110135,0,0,1.0271114,5.1068557,-7.0669282)"><g
       id="g1"><g
         id="g27"
         inkscape:label="shadow"
         transform="matrix(0.9809334,0,0,0.9809334,5.1601093,4.6032445)"><rect
           style="fill:url(#linearGradient13);fill-rule:evenodd;stroke-width:1.476;stroke-linecap:round;stroke-linejoin:round;paint-order:stroke fill markers"
           id="rect2"
           width="184.84464"
           height="28.737843"
           x="27.673475"
           y="226.00008" /><rect
           style="fill:url(#radialGradient9);fill-rule:evenodd;stroke-width:1.476;stroke-linecap:round;stroke-linejoin:round;paint-order:stroke fill markers"
           id="rect3"
           width="21.580748"
           height="28.737839"
           x="6.1013594"
           y="226.00008" /><rect
           style="fill:url(#radialGradient22);fill-rule:evenodd;stroke-width:1.476;stroke-linecap:round;stroke-linejoin:round;paint-order:stroke fill markers"
           id="rect4"
           width="21.642075"
           height="28.737839"
           x="212.51927"
           y="226.00008" /></g><g
         id="rect1"
         style="opacity:1"
         transform="matrix(0.96874842,0,0,0.96874842,2.9832174,4.9451305)"><path
           style="baseline-shift:baseline;display:inline;overflow:visible;fill:url(#radialGradient6);fill-rule:evenodd;stroke-width:1.00013;stroke-linecap:square;stroke-dasharray:none;paint-order:stroke fill markers;enable-background:accumulate;stop-color:#000000;stop-opacity:1"
           d="m 32.501748,15.190316 c -6.164423,0 -9.332052,2.390294 -9.332052,8.554717 V 232.87562 c 0,6.16442 2.390294,8.16605 8.554717,8.16605 H 211.78111 c 6.16442,0 9.33206,-2.3903 9.33206,-8.55472 V 77.24196 c 0,-7.769553 -48.54277,-62.051644 -67.51449,-62.051644 z m 1.943339,9.445313 H 153.59868 c 7.88599,0 57.28988,47.93445 57.28988,52.606331 v 152.52432 c 0,1.09493 -0.73319,1.83008 -1.82812,1.83008 H 34.445087 c -1.094929,0 -1.830078,-0.73515 -1.830078,-1.83008 V 26.465707 c 0,-1.094929 0.735149,-1.830078 1.830078,-1.830078 z"
           id="path4"
           sodipodi:nodetypes="ssssssssssssssssss" /><path
           style="baseline-shift:baseline;display:inline;overflow:visible;vector-effect:none;fill:url(#radialGradient8);fill-rule:evenodd;stroke-linecap:square;paint-order:stroke fill markers;enable-background:accumulate;stop-color:#000000;stop-opacity:1"
           d="m 35.95035,20.666336 h 126.97059 c 8.45031,0 51.8925,53.10732 51.8925,57.65975 V 228.63696 c 0,3.62968 -2.92208,6.55176 -6.55176,6.55176 H 35.95035 c -3.629676,0 -6.551762,-2.92208 -6.551762,-6.55176 V 27.218098 c 0,-3.629676 2.922086,-6.551762 6.551762,-6.551762 z"
           id="path5"
           sodipodi:nodetypes="sssssssss" /><path
           style="baseline-shift:baseline;display:inline;overflow:visible;opacity:1;fill:url(#radialGradient11);fill-rule:evenodd;stroke-width:0.957899;stroke-linecap:square;stroke-dasharray:none;paint-order:stroke fill markers;enable-background:accumulate;stop-color:#000000;stop-opacity:1"
           d="m 38.490307,20.672015 c -5.904124,0 -9.723771,1.698513 -9.700415,7.602591 l 0.798722,201.901844 c 0.0079,2.00188 2.542406,5.007 6.609957,5.007 H 208.01432 c 4.63265,0 7.40868,-4.18878 7.40868,-7.97377 V 79.352581 c 0,-7.441476 -40.78525,-58.680566 -63.90137,-58.680566 z m 113.031323,6.348757 c 18.21976,0 58.41027,42.155832 58.39934,52.331809 l -0.15572,145.031599 c -0.004,3.59404 -0.98481,4.99145 -5.14153,5.00212 -17.95655,-1.29577 -169.086361,-0.0767 -169.086361,-0.0767 L 35.255444,27.020772 Z"
           id="path11"
           sodipodi:nodetypes="sssssssssssssccs" /></g></g><g
       id="g5"
       transform="matrix(0.98910651,0,0,0.97360426,-16.049732,3.5251714)"><path
         d="m 111.07215,193.30628 q 0,4.21537 -1.92171,7.53192 -1.92171,3.3165 -5.51721,5.14526 -3.56448,1.79773 -8.492802,1.79773 h -10.84846 v 15.37383 H 75.14827 v -43.67281 h 19.620218 q 7.841862,0 12.057282,3.62649 4.24638,3.59549 4.24638,10.19758 z m -9.20565,0.1548 q 0,-6.88102 -8.120862,-6.88102 h -9.45367 v 14.16498 h 9.70161 q 3.78147,0 5.82719,-1.85972 2.045732,-1.89075 2.045732,-5.42424 z m 36.96905,23.1227 q 8.27581,0 11.49935,-8.30682 l 7.96589,3.0066 q -2.57264,6.32311 -7.56293,9.42263 -4.95931,3.06857 -11.90231,3.06857 -10.53852,0 -16.30367,-5.95116 -5.73423,-5.98212 -5.73423,-16.70662 0,-10.75546 5.54826,-16.52064 5.5482,-5.76518 16.08668,-5.76518 7.68691,0 12.52224,3.09957 4.83532,3.06855 6.78803,9.05072 l -8.05884,2.20066 q -1.02289,-3.28551 -4.02944,-5.20726 -2.97557,-1.95271 -7.03601,-1.95271 -6.1991,0 -9.42267,3.84345 -3.19254,3.84344 -3.19254,11.25139 0,7.53192 3.28555,11.49936 3.31654,3.96744 9.54664,3.96744 z m 54.3266,6.57108 -10.97244,-17.38854 -10.97245,17.38854 h -9.6706 L 176.6725,200.1871 162.81748,179.48205 h 9.67061 l 9.70162,15.43584 9.70161,-15.43584 h 9.60865 l -13.26615,20.70505 14.53698,22.96776 z"
         id="text1"
         style="font-weight:bold;font-size:64px;line-height:0.7;font-family:'Liberation Sans';-inkscape-font-specification:'Liberation Sans Bold';letter-spacing:0.96px;word-spacing:0px;display:inline;fill-rule:evenodd;stroke-width:4.12364"
         aria-label="PCX" /><g
         id="g4518"
         transform="matrix(0.49300138,0,0,0.49300138,84.945398,15.721258)"
         style="display:inline"><path
           style="display:inline;fill:#050505;stroke:none;stroke-width:0.979534"
           d="m 127.5138,41.738579 c -16.66961,3.97027 -26.87134,27.69289 -13.61067,40.434461 9.38552,9.01812 26.40046,7.99766 38.09899,5.03901 10.80761,-2.73336 11.25001,-12.495886 7.76899,-21.50666 C 154.93581,53.188994 142.55226,38.1568 127.5138,41.738579 m -2.9386,97.431781 c -4.46744,7.93211 -13.31505,13.81785 -19.42437,20.57018 -7.386975,8.16446 -14.311548,20.75487 -23.675835,26.60081 -8.283522,5.17126 -19.443121,6.52699 -28.405678,10.48613 -21.026284,9.28823 -41.709595,20.65495 -59.7515183,35.00774 -12.2010517,9.70622 -38.8324317,31.04959 -35.8670767,49.36362 1.271068,7.85011 10.163796,7.33081 16.27642,6.5801 14.657651,-1.80015 28.561925,-8.08619 41.140375,-15.58863 14.777073,-8.81378 28.916801,-18.98466 41.140393,-31.1493 7.248667,-7.2137 15.233081,-19.50869 24.48832,-23.92673 7.686872,-3.6694 18.332259,-1.20422 26.44738,-0.64851 23.91639,1.6378 49.02562,4.1587 71.50589,13.26527 8.33248,3.37542 21.11163,9.34239 23.10821,19.147 1.25476,6.16174 -2.98772,11.4033 -0.0191,17.63159 4.55969,9.56331 16.34606,16.86384 24.90706,22.52547 5.11127,3.38024 16.84008,13.25689 23.36369,10.93961 5.68136,-2.01809 2.11538,-11.10983 0.70818,-14.85396 -5.37322,-14.29668 -13.90706,-27.17034 -23.2095,-39.1813 -27.93264,-36.06576 -75.3776,-61.71058 -121.34491,-61.71058 6.07531,-9.72305 14.45251,-18.36804 22.52924,-26.44737 2.72996,-2.73084 5.95528,-7.26538 9.79535,-8.4175 4.92535,-1.47773 12.45057,3.7726 17.63157,4.32927 13.04053,1.40117 24.81318,-2.82022 35.26319,-10.53071 10.89451,-8.03847 31.65146,-29.85862 12.73015,-40.85545 -10.01999,-5.82347 -21.91004,-2.88649 -31.34127,2.6703 -4.62406,2.72442 -9.97996,8.29589 -15.67253,8.19374 -12.62817,-0.22654 -27.92882,-10.80543 -40.16088,-14.43526 -28.897823,-8.57534 -59.514928,-3.08128 -84.239816,13.66435 -14.021534,9.49648 -26.8363528,22.70692 -36.5155667,36.56545 -2.4230605,3.46926 -9.1818033,11.82935 -5.0095232,16.06022 4.7973995,4.86481 22.8324349,-3.55037 27.8116329,-6.15682 4.112423,-2.15273 9.50273,-4.62555 11.727177,-8.93898 2.620626,-5.08161 1.081908,-11.37759 4.168313,-16.63695 5.516916,-9.40108 18.766204,-16.62569 29.163037,-19.09787 24.028748,-5.71359 40.548136,17.32514 60.731016,24.97507 m 77.38309,-25.46786 c -5.12752,8.87174 -17.78393,8.61682 -26.44739,5.87721 v -1.95908 c 8.2346,-4.68174 17.18585,-6.12312 26.44739,-3.91813 M 56.006933,219.49206 c -10.922986,18.89673 -35.951999,36.33759 -54.8538618,46.7122 -4.5975419,2.52347 -19.1682712,11.20012 -23.4778002,4.77828 -4.649763,-6.92887 8.054912,-19.72735 12.7036941,-23.40828 17.816635,-14.10733 43.0235389,-25.03834 65.6279569,-28.0822 z"
           id="path318" /><path
           id="path4494"
           style="fill:#f1f1f1;fill-rule:evenodd;stroke-width:3.3;stroke-linejoin:round"
           d="m 141.20426,55.534965 c 0,2.607874 -2.84461,2.581628 -5.71996,2.581627 -2.87535,1e-6 -5.71996,-2.799009 -5.71996,-5.406884 0,-2.607874 0.70893,-5.056973 4.60698,-4.8932 4.50536,0.189288 6.83294,5.110582 6.83294,7.718457 z"
           sodipodi:nodetypes="sssss" /><path
           id="path4495"
           style="fill:#f1f1f1;fill-rule:evenodd;stroke-width:3.3;stroke-linejoin:round"
           d="m 152.59089,77.280876 c 1.97878,1.698657 -2.84461,2.581628 -5.71996,2.581627 -2.87535,10e-7 -7.98905,0.08924 -6.40487,-1.982331 1.79789,-2.351033 3.61981,-1.716498 5.80557,-1.725489 3.73879,-0.01538 4.17891,-0.711158 6.31926,1.126193 z"
           sodipodi:nodetypes="sssss" /><path
           id="path4496"
           style="fill:#b4b4b4;fill-opacity:0.483776;fill-rule:evenodd;stroke-width:3.3;stroke-linejoin:round"
           d="m 158.15579,79.078766 c -4.90204,8.566764 -32.94012,9.28708 -42.5339,-1.270995 -2.56047,-2.817826 -12.01133,-22.38946 13.11508,-34.344356 -2.85068,7.1304 -15.06584,20.596463 -5.92352,29.694784 4.45898,4.437527 15.06019,10.816258 35.34234,5.920567 z"
           sodipodi:nodetypes="cscsc" /><path
           id="path4497"
           style="fill:#f1f1f1;fill-rule:evenodd;stroke-width:3.3;stroke-linejoin:round"
           d="m 206.71196,106.33917 c -0.62798,3.42993 0.42445,-1.89819 -9.35224,-3.47218 -2.83879,-0.45703 -13.8006,-0.81265 -8.09994,-1.98233 6.31489,-1.295706 6.04134,-0.990042 8.2271,-0.999032 3.73879,-0.0154 9.97392,2.363462 9.22508,6.453542 z"
           sodipodi:nodetypes="sssss" /><path
           id="path4502"
           style="fill:#7b7b7b;fill-opacity:1;fill-rule:evenodd;stroke-width:1.84483;stroke-linejoin:round"
           d="m 171.98593,127.85464 c -3.44105,-0.70878 5.28387,-0.76796 9.93639,-0.94983 3.62202,-0.14159 11.37649,-0.64886 8.6132,0.14965 -1.95961,0.56626 -4.66699,0.93341 -6.99767,1.111 -3.52431,0.26855 -8.9107,0.23321 -11.55192,-0.31082 z"
           sodipodi:nodetypes="sssss" /><path
           id="path4498"
           style="fill:#f1f1f1;fill-rule:evenodd;stroke-width:3.3;stroke-linejoin:round"
           d="m 187.41261,127.14026 c -2.83692,-2.71831 2.71744,-0.6863 8.26691,-4.31972 4.06029,-2.6584 9.88857,-3.95889 7.1573,-1.0728 -1.9369,2.04669 -3.08749,2.26257 -4.72492,3.71049 -2.80083,2.47671 -7.69701,4.5588 -10.69929,1.68203 z"
           sodipodi:nodetypes="sssss" /><path
           id="path4499"
           style="fill:#a2a2a2;fill-opacity:0.743363;fill-rule:evenodd;stroke-width:3.3;stroke-linejoin:round"
           d="m 188.30654,109.85182 c -6.31751,3.64668 -3.06776,0.81005 -8.78713,4.16971 -2.47924,1.45636 -12.04814,5.71457 -7.58589,1.97907 4.94305,-4.13799 4.36307,-3.61804 6.28261,-4.66349 3.28342,-1.7883 13.69158,-3.56401 10.09041,-1.48529 z"
           sodipodi:nodetypes="sssss" /><path
           id="path4500"
           style="fill:#f1f1f1;fill-rule:evenodd;stroke-width:3.3;stroke-linejoin:round"
           d="m 93.819521,101.68839 c -2.934702,-0.0654 -16.473192,-3.945887 -1.353001,-4.001391 11.91289,-0.04373 33.77581,9.414671 36.34939,10.630651 6.46555,3.05488 18.68556,8.92532 47.26148,19.04437 1.32813,0.4703 -2.02054,1.6586 -7.39391,0.74494 -20.98377,-3.56794 -31.54167,-10.26624 -37.30158,-12.72917 -3.43023,-1.46676 -30.9572,-13.54212 -37.562379,-13.6894 z"
           sodipodi:nodetypes="sssssss" /><path
           id="path4501"
           style="fill:#f1f1f1;fill-rule:evenodd;stroke-width:3.3;stroke-linejoin:round"
           d="m 165.24705,146.19686 c -3.4653,-1.85176 5.25121,-3.09208 9.89358,-4.2341 3.61412,-0.88907 11.344,-3.44521 8.61273,-0.55912 -1.9369,2.04669 -4.62854,3.54678 -6.95088,4.3954 -3.5117,1.28324 -8.8956,1.81916 -11.55543,0.39782 z"
           sodipodi:nodetypes="sssss" /><path
           id="path4503"
           style="display:inline;fill:url(#linearGradient4504);fill-rule:evenodd;stroke-width:3.3;stroke-linejoin:round"
           d="m 87.29464,108.80414 c -0.59622,-1.87186 8.390504,-2.47906 10.535028,-1.34735 2.144523,1.13172 49.267472,23.85885 51.329362,25.06822 3.21038,1.88302 5.90141,3.01353 8.62132,5.30253 2.80273,2.3587 -0.3237,4.98383 2.42596,8.29194 3.01777,3.63066 -1.76417,6.66924 -9.71972,3.21296 -4.40017,-1.91165 -16.31977,-7.17452 -22.92006,-11.43814 -4.19115,-2.70737 -39.814255,-27.65339 -40.27189,-29.09016 z"
           sodipodi:nodetypes="ssssssss" /><path
           id="path4504"
           style="fill:#a2a2a2;fill-opacity:0.668555;fill-rule:evenodd;stroke-width:5.09936;stroke-linejoin:round"
           d="m 63.304842,108.98076 c -4.404069,1.90334 -7.780783,4.03581 -13.067302,6.69738 -3.595569,1.81025 -17.353369,10.54264 -11.055343,3.99453 2.86661,-2.98044 8.335468,-6.26721 11.31457,-7.67929 4.837519,-2.29296 19.852878,-6.05721 12.808075,-3.01262 z"
           sodipodi:nodetypes="sssss" /><path
           id="path4505"
           style="fill:#f1f1f1;fill-rule:evenodd;stroke-width:3.3;stroke-linejoin:round"
           d="m 26.816269,123.74517 c 2.957092,-0.43141 -0.668515,3.42954 -3.808034,13.16144 -0.882789,2.73647 -1.629367,13.75416 -12.754604,15.5236 -2.4936676,0.39661 6.834373,-15.45812 7.576543,-17.51404 2.84302,-7.87561 6.643709,-10.82926 8.986095,-11.171 z"
           sodipodi:nodetypes="sssss" /><path
           id="path4506"
           style="fill:#a2a2a2;fill-opacity:0.743363;fill-rule:evenodd;stroke-width:3.3;stroke-linejoin:round"
           d="m 15.862091,153.56768 c -1.335397,2.5365 -3.211105,2.41477 -4.549246,3.14234 -0.899002,0.48881 -7.5861532,3.72188 -4.8890547,0.01 0.4262065,-0.58658 3.0098252,-1.68356 4.0994577,-2.00946 1.141433,-0.3414 6.171712,-2.72482 5.338843,-1.14284 z"
           sodipodi:nodetypes="sssss" /><path
           id="path4507"
           style="fill:#f1f1f1;fill-rule:evenodd;stroke-width:3.3;stroke-linejoin:round"
           d="m 218.35747,262.34346 c 2.31151,-3.17715 5.21525,2.81859 7.84117,6.81363 2.0443,3.11017 7.21133,9.36031 4.25769,8.87405 -3.07581,-0.50639 -8.95588,-5.32207 -10.53092,-7.22803 -2.38169,-2.88207 -3.47299,-5.84119 -1.56794,-8.45965 z"
           sodipodi:nodetypes="sssss" /><path
           id="path4508"
           style="fill:#7b7b7b;fill-opacity:1;fill-rule:evenodd;stroke-width:1.8;stroke-linejoin:round"
           d="m 248.92326,295.7086 c 0.12199,1.71779 -4.37829,-0.85013 -5.96492,-2.24801 -1.23521,-1.08824 -3.13247,-3.14995 -1.03174,-3.22668 1.48974,-0.0544 2.85142,0.41579 3.79133,1.00246 1.42128,0.8871 3.08816,2.82222 3.20533,4.47223 z"
           sodipodi:nodetypes="sssss" /><path
           id="path4509"
           style="fill:url(#linearGradient4510);fill-rule:evenodd;stroke-width:1.8;stroke-linejoin:round"
           d="m 240.24055,290.82375 c -28.4376,-12.00345 -34.89059,-25.43839 -35.38644,-26.82648 -1.50653,-4.21744 7.03793,-13.68358 -8.65954,-30.58991 22.31485,15.08013 12.65859,24.99426 13.5985,30.06075 0.3056,1.6473 10.83704,12.99263 30.44748,27.35564 z"
           sodipodi:nodetypes="cscsc" /><path
           id="path4512"
           style="fill:url(#linearGradient4513);fill-opacity:1;fill-rule:evenodd;stroke-width:1.8;stroke-linejoin:round"
           d="m 204.10115,229.17334 c 0.12199,1.71779 -11.39863,-8.17011 -12.98526,-9.56799 -1.23521,-1.08824 -6.34299,-3.4496 -4.24226,-3.52633 1.48974,-0.0544 4.52089,2.12807 5.4608,2.71474 1.42128,0.8871 11.64955,8.72957 11.76672,10.37958 z"
           sodipodi:nodetypes="sssss" /><path
           id="path4510"
           style="fill:#f1f1f1;fill-rule:evenodd;stroke-width:3.3;stroke-linejoin:round"
           d="m 220.80968,257.18522 c -2.31151,3.17715 -3.81529,-2.55999 -5.05642,-7.17686 -2.5286,-9.40613 -17.50144,-25.70256 -10.43257,-20.37629 3.44867,2.59851 14.76754,15.61355 15.85827,19.0935 1.11823,3.56768 1.53577,5.84119 -0.36928,8.45965 z"
           sodipodi:nodetypes="sssss" /><path
           id="path4511"
           style="fill:#f1f1f1;fill-rule:evenodd;stroke-width:3.3;stroke-linejoin:round"
           d="m 94.32292,191.65906 c -3.17715,2.31151 15.29599,3.01527 32.861,5.39888 29.05989,3.94349 66.80789,25.70316 55.66996,16.21276 -3.28672,-2.80054 -30.24999,-17.00313 -54.38717,-21.63846 -14.88367,-2.85828 -31.52533,-1.87823 -34.14379,0.0268 z"
           sodipodi:nodetypes="sssss" /><path
           id="path4513"
           style="fill:url(#linearGradient4514);fill-opacity:1;fill-rule:evenodd;stroke-width:1.8;stroke-linejoin:round"
           d="m 139.45038,212.19315 c 1.71779,-0.12199 -38.63603,0.018 -63.931221,1.60409 -9.994303,0.62668 -20.037044,3.92147 -20.113774,1.82074 -0.0544,-1.48974 10.446111,-9.2558 33.104874,-11.39354 13.670171,-1.28971 49.290111,8.08588 50.940121,7.96871 z"
           sodipodi:nodetypes="sssss" /><path
           id="path4515"
           style="fill:#f1f1f1;fill-rule:evenodd;stroke-width:3.3;stroke-linejoin:round"
           d="m -25.974362,274.75377 c 2.432587,0.33406 1.030959,1.59229 3.906193,1.54681 2.94641,-0.0466 3.937617,1.14192 2.683699,2.09378 -0.921711,0.69969 -3.0667,1.22619 -5.930023,0.0971 -1.128878,-0.44516 -3.8679,-4.17823 -0.659869,-3.73768 z"
           sodipodi:nodetypes="sssss" /><path
           id="path4516"
           style="fill:#d7d7d7;fill-opacity:0.450425;fill-rule:evenodd;stroke-width:3.3;stroke-linejoin:round"
           d="m 22.107699,263.35403 c 13.666902,-9.50492 25.528289,-19.24282 29.562622,-22.12147 9.140043,-6.52175 -15.004274,14.60234 -28.81343,23.94912 -24.1050977,16.31564 -49.892829,22.07267 -39.162111,18.17712 7.9587429,-2.88925 20.7475463,-7.71903 38.412919,-20.00477 z"
           sodipodi:nodetypes="sssss" /><path
           id="path4517"
           style="fill:url(#linearGradient4518);fill-rule:evenodd;stroke-width:3.3;stroke-linejoin:round"
           d="m 13.3161,231.10018 c 30.992719,-13.43552 31.066808,-10.68389 35.319018,-13.22971 9.541388,-5.71248 -12.965887,0.6788 -36.466426,11.50081 -26.439008,12.17518 -37.634861,29.36995 -28.620738,22.365 6.6855832,-5.19541 10.0258456,-12.0777 29.768146,-20.6361 z"
           sodipodi:nodetypes="sssss" /></g></g><g
       id="g25"
       transform="matrix(0.96874842,0,0,0.96874842,2.9832174,4.9451305)"><path
         id="rect15"
         style="fill:url(#radialGradient16);fill-rule:evenodd;stroke-width:5.31283;stroke-linecap:round;stroke-linejoin:round;stroke-dasharray:none;paint-order:stroke fill markers"
         d="m 162.28068,17.131718 6.77738,7.718687 c 14.83606,10.176161 40.05243,35.096719 46.35882,52.799059 -30.22806,-3.860408 -46.56567,3.040013 -62.92576,9.891727 -12.25281,-13.794148 20.14727,-48.441465 9.78956,-70.409473 z"
         sodipodi:nodetypes="ccccc" /><path
         id="rect16"
         style="fill:url(#radialGradient18);fill-rule:evenodd;stroke:url(#radialGradient20);stroke-width:8.17562;stroke-linecap:round;stroke-linejoin:round;stroke-dasharray:none;paint-order:stroke fill markers"
         d="m 154.0954,19.477065 c 26.62116,7.028338 58.21786,39.705383 61.08935,54.775615 -10.57275,-7.513474 -40.86995,-7.535453 -62.24463,-8.277256 5.26112,-5.771451 7.7788,-30.735109 1.15528,-46.498359 z"
         sodipodi:nodetypes="cccc" /><path
         id="rect20"
         style="fill:url(#linearGradient25);fill-rule:evenodd;stroke-width:5.82083;stroke-linecap:round;stroke-linejoin:round;paint-order:stroke fill markers"
         d="m 154.46507,21.289603 7.14008,0.594311 c 2.93924,11.484548 5.90595,25.163929 1.78202,39.604877 17.39684,-2.01662 38.85102,2.541784 50.19452,9.956123 l 0.37652,4.706517 c -10.27937,-10.991135 -27.67142,-11.007278 -59.70224,-9.724204 6.65045,-19.81034 4.06359,-35.945334 0.2091,-45.137624 z"
         sodipodi:nodetypes="ccccccc" /></g></g></svg>
