<?xml version="1.0" encoding="UTF-8" standalone="no"?>
<!-- Created with Inkscape (http://www.inkscape.org/) -->

<svg
   width="256mm"
   height="256mm"
   viewBox="0 0 256 256"
   version="1.1"
   id="svg1"
   inkscape:version="1.3.2 (091e20ef0f, 2023-11-25)"
   sodipodi:docname="inode-vnd.kde.service.lskat.svg"
   xml:space="preserve"
   xmlns:inkscape="http://www.inkscape.org/namespaces/inkscape"
   xmlns:sodipodi="http://sodipodi.sourceforge.net/DTD/sodipodi-0.dtd"
   xmlns:xlink="http://www.w3.org/1999/xlink"
   xmlns="http://www.w3.org/2000/svg"
   xmlns:svg="http://www.w3.org/2000/svg"
   xmlns:rdf="http://www.w3.org/1999/02/22-rdf-syntax-ns#"
   xmlns:cc="http://creativecommons.org/ns#"
   xmlns:dc="http://purl.org/dc/elements/1.1/"><defs
     id="defs1"><linearGradient
       id="linearGradient86"
       inkscape:collect="always"><stop
         style="stop-color:#d1d1d1;stop-opacity:0.75618809;"
         offset="0"
         id="stop86" /><stop
         style="stop-color:#f3f3f3;stop-opacity:0.92780489;"
         offset="0.18862344"
         id="stop88" /><stop
         style="stop-color:#e1e1e1;stop-opacity:0.52103961;"
         offset="0.57113278"
         id="stop89" /><stop
         style="stop-color:#ffffff;stop-opacity:0.91089112;"
         offset="1"
         id="stop87" /></linearGradient><linearGradient
       id="linearGradient28"
       inkscape:collect="always"><stop
         style="stop-color:#f5f5f5;stop-opacity:0.76608908;"
         offset="0"
         id="stop28" /><stop
         style="stop-color:#ffffff;stop-opacity:0;"
         offset="1"
         id="stop29" /></linearGradient><linearGradient
       id="linearGradient13"
       inkscape:collect="always"><stop
         style="stop-color:#766868;stop-opacity:1;"
         offset="0"
         id="stop14" /><stop
         style="stop-color:#5b3d3d;stop-opacity:1;"
         offset="0.15443042"
         id="stop16" /><stop
         style="stop-color:#974747;stop-opacity:1;"
         offset="0.75"
         id="stop17" /><stop
         style="stop-color:#8f4f4f;stop-opacity:1;"
         offset="0.875"
         id="stop18" /><stop
         style="stop-color:#994545;stop-opacity:1;"
         offset="1"
         id="stop15" /></linearGradient><linearGradient
       id="linearGradient9"
       inkscape:collect="always"><stop
         style="stop-color:#816767;stop-opacity:1;"
         offset="0"
         id="stop9" /><stop
         style="stop-color:#8b5d5d;stop-opacity:1;"
         offset="0.11247988"
         id="stop11" /><stop
         style="stop-color:#4e1b1b;stop-opacity:1;"
         offset="0.50998646"
         id="stop12" /><stop
         style="stop-color:#ae3a3a;stop-opacity:1;"
         offset="0.82708913"
         id="stop13" /><stop
         style="stop-color:#ae3a3a;stop-opacity:1;"
         offset="1"
         id="stop10" /></linearGradient><linearGradient
       id="linearGradient5"
       inkscape:collect="always"><stop
         style="stop-color:#8f8f8f;stop-opacity:1;"
         offset="0"
         id="stop5" /><stop
         style="stop-color:#8f8f8f;stop-opacity:0;"
         offset="1"
         id="stop6" /></linearGradient><linearGradient
       id="linearGradient2"
       inkscape:collect="always"><stop
         style="stop-color:#aa0202;stop-opacity:1;"
         offset="0"
         id="stop2" /><stop
         style="stop-color:#440000;stop-opacity:1;"
         offset="1"
         id="stop3" /></linearGradient><radialGradient
       inkscape:collect="always"
       xlink:href="#linearGradient2"
       id="radialGradient3"
       cx="169.50035"
       cy="210.07431"
       fx="169.50035"
       fy="210.07431"
       r="48.509411"
       gradientTransform="matrix(2.6965425,-0.51036074,0.55484159,2.9315615,-389.60782,-296.81497)"
       gradientUnits="userSpaceOnUse" /><linearGradient
       inkscape:collect="always"
       xlink:href="#linearGradient5"
       id="linearGradient6"
       x1="161.8317"
       y1="143.09142"
       x2="160.36171"
       y2="190.98528"
       gradientUnits="userSpaceOnUse"
       gradientTransform="matrix(0.98567335,0,0,0.98567335,2.2583888,2.7397035)" /><linearGradient
       inkscape:collect="always"
       xlink:href="#linearGradient5"
       id="linearGradient7"
       gradientUnits="userSpaceOnUse"
       gradientTransform="matrix(0.98567335,0,0,0.98567335,2.2583888,2.7397035)"
       x1="161.8317"
       y1="131.11691"
       x2="160.36171"
       y2="190.98528" /><linearGradient
       inkscape:collect="always"
       xlink:href="#linearGradient9"
       id="linearGradient10"
       x1="170.74063"
       y1="101.57908"
       x2="167.82442"
       y2="225.17729"
       gradientUnits="userSpaceOnUse" /><linearGradient
       inkscape:collect="always"
       xlink:href="#linearGradient13"
       id="linearGradient15"
       x1="150.07991"
       y1="100.44514"
       x2="149.1756"
       y2="224.04337"
       gradientUnits="userSpaceOnUse" /><linearGradient
       inkscape:collect="always"
       xlink:href="#linearGradient28"
       id="linearGradient29"
       x1="183.56561"
       y1="59.406548"
       x2="163.59579"
       y2="158.30089"
       gradientUnits="userSpaceOnUse" /><radialGradient
       inkscape:collect="always"
       xlink:href="#linearGradient28"
       id="radialGradient29"
       cx="157.8111"
       cy="270.95605"
       fx="157.8111"
       fy="270.95605"
       r="48.509411"
       gradientTransform="matrix(0.67145682,0.26310117,-0.44624174,1.1388474,140.96613,-129.60053)"
       gradientUnits="userSpaceOnUse" /><linearGradient
       inkscape:collect="always"
       xlink:href="#linearGradient86"
       id="linearGradient87"
       x1="168.90323"
       y1="109.7355"
       x2="123.60514"
       y2="230.4077"
       gradientUnits="userSpaceOnUse" /></defs><sodipodi:namedview
     id="base"
     pagecolor="#ffffff"
     bordercolor="#000000"
     borderopacity="0.3"
     inkscape:pageopacity="0.0"
     inkscape:pageshadow="2"
     inkscape:zoom="0.98994949"
     inkscape:cx="505.07627"
     inkscape:cy="476.792"
     inkscape:document-units="mm"
     inkscape:showpageshadow="2"
     inkscape:pagecheckerboard="0"
     inkscape:deskcolor="#d1d1d1"
     inkscape:current-layer="svg1" /><metadata
     id="metadata1"><rdf:RDF><cc:Work
         rdf:about=""><dc:format>image/svg+xml</dc:format><dc:type
           rdf:resource="http://purl.org/dc/dcmitype/StillImage" /><cc:license
           rdf:resource="http://creativecommons.org/publicdomain/zero/1.0/" /></cc:Work><cc:License
         rdf:about="http://creativecommons.org/publicdomain/zero/1.0/"><cc:permits
           rdf:resource="http://creativecommons.org/ns#Reproduction" /><cc:permits
           rdf:resource="http://creativecommons.org/ns#Distribution" /><cc:permits
           rdf:resource="http://creativecommons.org/ns#DerivativeWorks" /></cc:License></rdf:RDF></metadata><g
     id="g2"
     transform="matrix(3.104908,0,0,3.104908,-211.1444,2.2804574)"
     style="fill:#0f80d0;fill-opacity:1"><path
       id="path4154"
       d="m 109.67579,0.02116778 c -3.08041,0.0047401 -6.14334,0.39186083 -9.13648,1.11070342 -3.708852,0.8948359 -7.258001,2.3920065 -10.626697,4.1714199 2.443886,0.6735512 4.001056,3.2845788 3.826156,5.7650859 0.06197,2.682967 0.123941,5.365935 0.185912,8.048902 3.529216,-2.976926 8.072929,-4.465674 12.575259,-5.176266 4.81962,-0.602987 9.83507,0.0091 14.23902,2.112589 3.71562,1.694582 6.84452,4.424664 9.55711,7.435467 -1.05551,0.627614 -1.9054,1.905711 -1.29035,3.120978 0.5833,1.415635 2.35938,1.292282 3.58927,1.78122 4.37467,1.182652 8.72169,2.497251 13.11353,3.598052 1.55397,0.102484 2.69517,-1.595293 2.1779,-3.021435 -0.85472,-4.947749 -1.60331,-9.922498 -2.52353,-14.853615 -0.55496,-1.488919 -2.68393,-1.839921 -3.69911,-0.636755 -0.63419,0.682602 -1.25472,1.189386 -1.75076,0.09431 C 136.25424,9.3686997 131.62579,6.0321317 126.5594,3.7260637 121.26873,1.3286519 115.50564,-0.10192723 109.67579,0.02116778 Z"
       style="fill:#0f80d0;fill-opacity:1" /><path
       id="path4162"
       d="m 134.82659,32.581988 c 1.04427,6.144338 0.90725,12.781714 -2.09293,18.391717 -1.63107,2.998217 -3.86169,5.661561 -6.62304,7.682782 -3.96513,2.966438 -8.74575,4.843562 -13.64935,5.472922 -1.14766,-0.0079 -1.1634,-0.576325 -1.12125,-1.536391 0.16048,-1.747182 -2.01083,-2.914936 -3.4321,-1.938386 -4.38244,2.824804 -8.838816,5.57379 -13.175404,8.445566 -1.174134,1.0427 -0.674403,3.014224 0.731593,3.610491 1.887384,1.058391 3.670391,2.50996 5.591151,3.625616 2.80741,1.630661 6.72392,4.902302 8.65208,4.47293 1.3905,-0.198278 1.91655,-1.697203 1.70432,-2.932288 6.85955,-0.07632 13.69068,-2.046075 19.46847,-5.759689 6.55153,-4.113957 11.82965,-10.206424 15.11919,-17.197686 2.13316,-4.636207 3.48274,-9.654372 3.56603,-14.773806 0.0425,-1.979479 -0.075,-3.967646 -0.38503,-5.922952 -1.80553,1.394454 -4.27389,1.347449 -6.32987,0.572058 -2.67456,-0.737615 -5.3496,-1.475333 -8.02386,-2.212884 z"
       sodipodi:nodetypes="ccccccccacccccccc"
       style="fill:#0f80d0;fill-opacity:1" /><path
       id="path4156"
       d="m 87.811469,8.320162 c -1.709531,0.4800948 -3.245251,1.5097984 -4.886705,2.205479 -3.355228,1.645682 -6.763504,3.202821 -10.086313,4.902632 -0.964743,0.753372 -1.124865,2.177222 -0.279517,3.077667 0.730919,0.753777 1.756253,1.132203 2.613496,1.72282 -3.8463,6.090285 -5.291412,13.474759 -4.838245,20.609089 0.333737,5.462437 1.826825,10.854953 4.309492,15.729095 3.465256,6.616851 8.76983,12.285954 15.268931,15.990983 0.812137,0.26325 1.566241,0.581188 1.110644,-0.536944 -0.194973,-1.851437 -0.377016,-4.105663 1.25522,-5.396214 2.20463,-1.723939 4.700241,-3.058385 7.034107,-4.604737 C 94.507136,60.104608 90.682629,56.288955 87.991341,51.943043 85.80103,48.429532 84.510078,44.368103 84.281912,40.229202 83.999366,35.778055 85.09175,31.3457 86.975234,27.33159 88.349978,28.455318 90.719621,27.256841 90.50781,25.459312 90.369944,20.282001 90.371097,15.095069 90.145447,9.9238334 89.750261,8.962967 88.906238,8.2581556 87.811469,8.320162 Z"
       style="fill:#0f80d0;fill-opacity:1" /></g><g
     id="g1"
     style="display:inline"
     inkscape:label="lskatsvg"><path
       id="rect1"
       style="fill:#ffffff;stroke:#000000;stroke-width:1.6;stroke-miterlimit:2.1"
       d="m 115.19317,84.991707 h 95.14795 c 3.70168,0 6.68174,2.980057 6.68174,6.681742 V 231.72265 c 0,3.70169 -2.98006,6.68175 -6.68174,6.68175 h -95.14795 c -3.70168,0 -6.68174,-2.98006 -6.68174,-6.68175 V 91.673449 c 0,-3.701685 2.98006,-6.681742 6.68174,-6.681742 z" /><path
       id="rect2"
       style="display:inline;fill:url(#radialGradient3);stroke-width:1.6;stroke-miterlimit:2.1"
       d="m 117.5986,90.069832 h 90.06981 c 1.92487,0 3.4745,1.549629 3.4745,3.474505 V 229.85178 c 0,1.92488 -1.54963,3.47451 -3.4745,3.47451 H 117.5986 c -1.92488,0 -3.47451,-1.54963 -3.47451,-3.47451 V 93.544337 c 0,-1.924876 1.54963,-3.474505 3.47451,-3.474505 z" /><g
       id="g25"
       style="display:inline;fill:none;fill-opacity:1;stroke:#ffffff;stroke-opacity:1"><path
         id="path26"
         style="color:#000000;fill:url(#linearGradient87);stroke:none;stroke-linecap:round;stroke-linejoin:round;stroke-miterlimit:2.1;stroke-opacity:1;-inkscape-stroke:none"
         d="m 186.34211,107.72314 c 0.0305,0.0552 0.0639,0.10759 0.0987,0.15761 z m 0.0992,0.15865 0.84595,1.3534 c 0,-0.59612 -0.50728,-0.86708 -0.84595,-1.3534 z m -36.78742,1.03663 c -0.13528,0.0266 1.68975,5.00019 1.85777,6.69468 2.55736,13.21172 1.72717,24.27205 -0.47077,34.48471 -0.029,0.13481 0.15722,0.4033 0.29197,0.43254 0.13481,0.029 0.59244,-0.0627 0.62167,-0.19741 2.20813,-10.25999 2.61868,-21.53063 0.0475,-34.81338 -0.56897,-2.19132 -2.2122,-6.62734 -2.34818,-6.60114 z m 36.87734,1.82883 v 1.51153 z m -16.83411,0.447 c -0.0863,-0.026 0.0102,3.36163 0.10542,6.44095 l -0.5855,-1.75545 c 0.004,0.44127 -0.25713,1.38992 -0.0729,1.48208 0.11269,0.0563 0.26558,-0.0563 0.37827,0 0.12214,0.061 0.0192,0.44925 0.28784,0.53382 0.0698,2.24655 0.1376,4.31242 0.1235,4.47724 0.0331,3.4564 0.0721,7.2137 0.007,10.74922 l -1.74098,0.87023 c 0.13631,-0.0273 1.26248,-0.21172 1.51153,-0.37776 0.0524,-0.0349 0,-0.12614 0,-0.18913 0.063,-0.063 0.10945,-0.14878 0.18914,-0.18862 0.009,-0.004 0.0284,-0.005 0.0382,-0.009 -0.0277,1.46051 -0.0714,2.8862 -0.14418,4.22971 -0.12519,2.31192 -0.32868,4.39456 -0.65009,6.04873 -0.32141,1.65417 -0.77787,2.87733 -1.31671,3.44888 -0.0945,0.10083 -0.089,0.25963 0.0119,0.35399 0.10012,0.0936 0.49086,1.05774 0.5855,0.9586 0.67722,-0.71834 1.28143,-2.75661 1.61024,-4.44883 0.3288,-1.69222 0.58465,-4.04311 0.71055,-6.36809 0.0787,-1.45414 0.0772,-2.99737 0.0434,-4.57594 0.0323,-0.0561 0.0563,-0.12021 0.0563,-0.20516 l -0.0599,0.03 c -0.0788,-3.41709 -0.32064,-7.00803 -0.35244,-10.33218 -0.001,-0.13807 -0.5983,-11.17404 -0.73638,-11.17296 z m -0.48008,4.6855 c -0.001,-0.11724 -0.0207,-0.19911 -0.0729,-0.21911 z m 14.85749,-3.99872 c -0.25198,0.37798 -0.50403,0.7558 -0.75602,1.13378 z m -28.39361,6.03322 c 0.004,0.002 0.0273,0.0109 0.0543,0.0217 0.2504,0.19712 0.55952,0.80858 0.7462,0.55966 0.005,-0.006 0.008,-0.0127 0.0114,-0.0191 l -0.75344,-0.53847 c 0.1952,0.0781 0.84069,0.34672 0.75344,0.53847 h 5.2e-4 v 5.2e-4 l 0.55604,0.39687 c 0,-0.65563 0.0532,-0.48639 -1.32085,-0.94413 -4.9e-4,-3.7e-4 -0.001,-7.1e-4 -0.002,-0.001 l 5.2e-4,0.001 c -6.4e-4,-2.1e-4 -4e-4,-3e-4 -0.001,-5.1e-4 v -5.2e-4 c -0.0364,-0.0122 -0.0504,-0.0168 -0.0455,-0.0145 z m 26.19065,0.16536 c -0.0294,1.8e-4 -0.0519,0.0113 -0.0651,0.0377 -0.0845,0.16903 0.13363,0.43378 0,0.56741 -0.0445,0.0445 -0.14459,-0.0445 -0.18913,0 -0.0445,0.0445 -0.0564,0.16044 0,0.18861 0.11269,0.0563 0.25227,0 0.37827,0 l 0.45527,-0.45527 c -0.21136,-0.14237 -0.45641,-0.33923 -0.57929,-0.33848 z m 0.57929,0.33848 c 0.27775,0.18713 0.49708,0.27919 0.30076,-0.30075 z m 8.60568,-0.0429 c -0.0697,0.006 0.11358,0.94989 0.37052,2.96365 0.003,0.037 0.008,0.0786 0.014,0.11937 0.0148,0.11688 0.0313,0.26104 0.0465,0.38499 0.007,0.10558 0.002,0.19816 -0.0424,0.24288 -0.0756,0.0756 -0.24046,0.10265 -0.37827,0.37827 -0.0282,0.0563 0.0446,0.1446 0,0.18914 -0.0891,0.0891 -0.28866,-0.0891 -0.37775,0 -0.0445,0.0445 -0.0563,0.16044 0,0.18861 0.0188,0.009 0.63528,0.0226 0.9188,0.008 0.21073,1.87581 0.44085,4.36969 0.61599,7.56129 -0.0909,1.70713 1.53047,16.53409 -2.73059,25.9271 -2.63042,5.79848 -5.9449,11.11951 -10.61382,15.64969 h -1.01131 c 0.0443,0.028 0.37838,0.17653 0.6904,0.30644 -3.26079,3.09719 -7.16576,5.81909 -11.96516,8.04551 -1.11803,0.71896 -1.19611,0.61608 -1.47226,1.44332 -1.13436,0.9522 -1.94053,2.08237 -1.8154,2.02417 5.70584,-2.64691 11.20869,-6.76544 15.82746,-11.30888 0.23435,0.0663 0.4333,0.10183 0.47232,0.0238 0.0398,-0.0797 -0.0398,-0.18749 0,-0.26717 0.048,-0.0959 0.52794,0.25437 0.26717,-0.26717 -0.007,-0.0133 -0.10092,-0.015 -0.2005,-0.0155 4.85825,-4.88687 8.66858,-10.21717 10.56524,-14.73244 3.74112,-8.90621 3.08712,-19.19798 2.57917,-27.76936 0.02,-1.66683 -0.47639,-4.82244 -0.95136,-7.37578 0.0993,-0.0998 0.28322,-0.25087 0.63562,-0.51676 -0.18971,-0.10433 -0.57262,-0.38475 -0.82682,-0.46354 -0.29907,-1.51647 -0.56707,-2.74389 -0.61753,-2.73937 z m 1.44435,3.20291 c 0.10199,0.0561 0.14605,0.0575 0.078,-0.0589 -0.0292,0.0219 -0.0508,0.0384 -0.078,0.0589 z m -27.85411,-1.7694 c -0.0286,0.005 0.0234,0.29229 0.10697,0.68884 l -0.51212,-0.093 c 0.0134,0.0495 -0.0497,0.13104 -0.0109,0.17001 0.056,0.056 0.30286,0.0462 0.54416,0.0284 0.16487,0.76317 0.38327,1.65838 0.63975,2.68925 -0.0884,-0.0243 -0.18909,-0.0467 -0.23926,-0.0718 -0.73888,-0.36945 -1.38686,-0.82476 -2.26756,-1.1343 l 2.45669,1.32291 h 0.0791 c 0.2457,0.98544 0.52823,2.10933 0.53743,2.15956 3.27063,18.1668 -2.14437,19.4062 -4.76921,25.95501 -0.0508,0.12782 0.33028,0.47352 0.45785,0.52503 0.12781,0.0508 0.56756,0.0242 0.61908,-0.10335 2.56067,-6.3887 7.36506,-8.71814 4.07831,-26.97458 -0.0185,-0.10191 -0.89897,-2.96417 -1.3963,-4.38165 0.0682,-0.006 0.17389,-0.0145 0.20464,-0.0145 l -0.22479,-0.0408 c -0.15438,-0.43639 -0.27143,-0.73097 -0.30386,-0.72502 z m -0.40515,0.59583 c -0.002,-0.007 -0.005,-0.0136 -0.0109,-0.0191 -0.15103,-0.15105 -0.58837,-0.20776 -0.89142,-0.20723 -0.10101,1.8e-4 -0.18718,0.007 -0.24288,0.0181 z m 25.32094,-0.10594 c -0.13208,-0.0378 -0.2698,0.0382 -0.30851,0.17002 -0.76498,2.67011 -1.57603,5.14887 -2.40709,7.53959 -0.16488,-0.0923 -0.3264,-0.19269 -0.50488,-0.25218 -0.15242,-0.0508 -0.60496,-0.0698 -1.05316,-0.0667 -0.4482,0.003 -0.89212,0.0285 -1.02578,0.0667 -1.68983,0.48281 0.46376,0.37775 -1.13378,0.37775 -0.19921,0 -0.74507,0.10005 -0.56689,0.18914 0.0663,0.0332 3.55088,0.26939 3.591,0.18913 0.22376,-0.44753 0.11124,-0.40991 0.65164,-0.38395 -8.17268,23.43722 -19.31463,34.00488 -29.51862,42.26667 -10.69431,8.65879 -20.38353,14.87584 -25.74106,30.74696 1.32948,-7.61364 5.39616,-13.76346 8.90592,-21.35632 3.64763,-7.89112 6.04883,-18.21092 2.24792,-35.91254 -0.0283,-0.13555 -0.16171,-0.22217 -0.29714,-0.19327 -0.13475,0.0292 -0.22019,0.16233 -0.1912,0.29714 3.78351,17.62066 0.12459,27.35522 -3.48868,35.17201 -1.41625,3.06386 -3.07644,5.90098 -4.54701,8.93744 -0.0516,-0.0198 -0.13192,-0.0478 -0.13901,-0.062 -0.0398,-0.0797 0.0398,-0.18747 0,-0.26717 -0.006,-0.0128 -0.0611,-0.0187 -0.14572,-0.0196 -0.32428,-0.004 -1.09012,0.0592 -1.28106,0.0341 l 1.48053,0.49351 c -0.78879,1.64164 -1.51719,3.34676 -2.11977,5.17902 l -1.08469,0.13539 c 0.31844,0.0426 0.70306,0.1453 0.87902,0.0574 0.1242,-0.0621 0.13725,-0.087 0.1819,-0.12351 -1.08659,3.32795 -1.75431,7.07991 -1.58492,11.66751 -0.22512,0.90208 -0.42185,1.70524 -0.65164,2.72076 -0.61514,1.15951 -1.15056,2.38367 -1.58905,3.67988 -0.34575,0.10954 -0.64408,0.24684 -0.73225,0.18242 -0.0639,-0.0467 -0.0819,-0.0668 -0.0879,-0.0734 8.2e-4,-0.006 10e-4,-0.0133 0.008,-0.046 0.0552,-0.27015 0.0995,-0.99656 -0.1757,-1.01493 l -0.3545,-0.0238 c -0.27513,-0.0184 -0.72317,0.0716 -0.8971,0.60151 -0.23278,0.56904 0.17471,0.88864 0.27491,1.09916 0.10025,0.21052 0.49259,0.15581 0.64286,0.26562 0.30054,0.2196 0.65161,0.39421 1.14618,0.76791 0.98914,0.74741 1.75342,1.11978 3.80442,4.79764 0.74867,0.6437 2.09371,3.58897 2.33526,3.45354 0.24138,-0.13515 0.0912,-2.23626 -0.46974,-3.20963 -1.63022,-2.92332 -2.73183,-4.89015 -3.66179,-6.01668 -7.1e-4,-0.0118 -0.007,-0.0415 -0.006,-0.0465 3.21046,-10.39155 10.81402,-15.26494 17.74362,-21.42764 1.36013,-1.20959 3.70382,-2.64569 5.58623,-3.75119 -0.0118,0.10419 -0.0383,0.86451 0.002,0.8847 0.11953,0.0598 0.34124,0.11953 0.40101,0 0.0398,-0.0797 -0.0399,-0.18749 0,-0.26717 0.0199,-0.0398 0.10234,0.0315 0.13384,0 0.0446,-0.0446 0.2974,-0.59764 0.26717,-0.66817 -0.0475,-0.11093 -0.10695,-0.21641 -0.16175,-0.32401 1.1958,-0.69419 2.15561,-1.24035 2.12235,-1.28106 -0.0337,-0.0412 -0.98637,0.35433 -2.27117,0.9834 -0.0311,-0.0597 -0.0604,-0.12021 -0.0904,-0.18035 -0.0378,0.0945 -0.0754,0.18917 -0.11317,0.2837 -2.0283,1.00466 -4.77796,2.5403 -6.19239,3.9331 v 5.1e-4 c -4.60788,3.76896 -10.90537,7.83119 -15.31431,13.70873 1.21,-4.1853 2.70321,-7.70973 4.41575,-10.79573 0.0683,0.12522 0.16774,0.15482 0.23255,0.21963 0.0315,0.0315 -0.0315,0.10234 0,0.13384 0.0315,0.0315 0.10182,-0.0315 0.13332,0 0.0668,0.0668 0.067,0.20035 0.13385,0.26717 0.35298,0.35299 0.69189,-0.61566 0.53433,-0.66818 -0.16904,-0.0563 -0.37496,0.0797 -0.53433,0 -0.21764,-0.10881 -0.28272,-0.18927 -0.34004,-0.25373 1.17756,-2.08475 2.46656,-3.95234 3.83853,-5.68234 -0.41417,0.73883 0.36943,0.18185 0.6444,0.45682 0.17818,0.17818 -0.22303,0.13384 0.13333,0.13384 l -0.63872,-0.76636 c 5.02066,-6.26716 11.21359,-10.62844 17.85627,-16.00677 11.29034,-9.14137 22.94754,-21.61468 31.26425,-50.64342 0.0376,-0.13266 -0.039,-0.27117 -0.17157,-0.30903 z m -58.67704,73.2808 c -0.20327,-0.0272 -0.37964,-0.0301 -0.45734,0.0574 z m 19.92695,-66.39026 c -0.0614,0.35229 -0.63616,1.85516 -0.56689,1.8898 0.11268,0.0563 0.25822,-0.0398 0.37775,0 0.20487,0.0683 0.2289,0.41752 0.37828,0.56689 z m 5.66942,2.07894 c 0,0.25198 0.0414,0.50695 0,0.75551 -0.0231,0.13895 -0.14407,0.24464 -0.18862,0.37827 -0.15675,0.47027 0.54817,0.25077 0.71934,0.4563 z m 38.36458,0.75551 c -0.34108,0.76578 0.10039,0.83364 0.29456,1.1777 z m -20.2215,1.1343 c -0.81174,0.0479 -0.99379,0.41051 -1.51205,0.75602 -0.099,0.066 -0.15246,0.21635 -0.18035,0.37259 z m -1.6924,1.12861 -0.008,0.005 v 0.0444 c 0.002,-0.0166 0.005,-0.0331 0.008,-0.0496 z m -0.008,0.0496 c -0.0425,0.29455 0,0.57994 0,0.33331 z m -17.19792,1.08934 c -0.0306,0.32564 0.72111,0.50025 1.28726,0.61288 z m 1.28726,0.61288 0.59686,0.28422 c 0.007,-0.0504 0.0385,-0.10792 0.006,-0.14108 -0.0382,-0.0382 -0.29427,-0.0818 -0.60255,-0.14314 z m 0.59686,0.28422 c -0.002,0.0172 -0.002,0.0337 0.006,0.0481 0.13339,0.26679 0.37195,0.28028 0.56689,0.37775 0.78652,0.39326 -0.20189,-0.0127 0.18913,0.37828 0.25552,0.25552 0.93942,0.18861 1.32292,0.18861 z m 44.17043,1.73219 c 0,0 -0.84713,3.71813 -1.55029,5.48236 -1.91796,4.81215 -4.44111,9.38979 -7.21713,13.7635 -0.71549,1.12728 -2.41794,3.1936 -2.41794,3.1936 0,0 2.05753,-1.8485 2.86132,-2.96106 3.03369,-4.19904 5.50353,-8.87482 7.21713,-13.7635 0.64187,-1.83117 1.10691,-5.7149 1.10691,-5.7149 z m -50.82067,0.13023 c -0.0699,-10e-4 -0.17845,0.0217 -0.33693,0.0755 l 0.16537,0.49557 c 0.19174,-0.27334 0.41607,-0.56728 0.17156,-0.57102 z m -0.17156,0.57102 c -0.14344,0.20449 -0.26898,0.39778 -0.16537,0.44959 0.0695,0.0347 0.20269,0.0636 0.34468,0.0879 z m 0.17931,0.53744 0.0336,0.10077 c 0.90846,0 0.39591,-0.0276 -0.0336,-0.10077 z m 28.9879,0.24856 c -0.0785,0.001 -0.1553,0.0121 -0.22841,0.0413 -0.0103,0.004 -0.0192,0.01 -0.0274,0.016 0.1498,-0.0118 0.39107,-0.016 0.78341,-0.016 -0.17324,0 -0.3549,-0.0441 -0.52761,-0.0413 z m -0.2558,0.0574 c -0.42983,0.034 -0.0989,0.13473 -0.35708,0.4036 0.0708,0.005 0.13773,-0.003 0.19585,-0.0419 0.10793,-0.072 0.0663,-0.28725 0.16123,-0.36174 z m -0.35708,0.4036 c -0.18464,-0.0141 -0.39728,-0.12328 -0.56018,-0.0419 -0.12599,0.063 0.26056,0.26726 0.37776,0.18913 0.081,-0.054 0.1397,-0.10289 0.18242,-0.14727 z m 7.94421,1.09244 h 2.4567 z m -13.22916,0.56689 c -1.05186,1.4066 0.0522,0.68205 0.32142,0.9648 z m -25.0145,3.84111 c -0.0124,-8.4e-4 -0.026,0.005 -0.0408,0.0202 -0.0315,0.0315 0.0315,0.10234 0,0.13384 -0.0216,0.0216 -0.39301,0.11764 -0.40101,0.13384 -0.0399,0.0797 0.063,0.20417 0,0.26717 -0.12075,0.12075 -0.19711,0.17647 -0.24391,0.19275 -0.008,0.0253 -0.0137,0.0454 -0.0233,0.0744 -0.097,0.29113 -0.75702,0.13384 -0.80202,0.13384 l 0.80202,0.26717 c 0.7178,0 0.77218,0.34131 1.06919,0.93534 0.0712,0.14255 -0.17759,0.63797 0.13332,0.53433 0.43309,-0.14436 0.27079,-0.39428 0.13384,-0.66817 -0.0701,-0.1402 0.10667,-0.56152 0,-0.66818 -0.0892,-0.0892 -0.17796,0.0892 -0.26716,0 -0.0458,-0.0458 -0.0261,-0.37272 -0.13384,-0.53433 -0.0908,-0.13623 -0.10636,-0.81413 -0.22635,-0.82217 z m -0.68574,0.74775 c 0.23745,-0.74928 -0.22195,0.0772 0,0 z m 24.75507,-0.43098 c -0.30451,0.47145 -0.54884,0.71942 -0.75602,1.13378 -0.0228,0.0456 -0.0127,0.10172 0.002,0.15813 z m 22.67872,0 c -0.21191,0.5847 -0.18913,1.11131 -0.18913,1.70067 z m -23.43319,1.29295 -0.12247,0.21084 c 0.0441,0.0113 0.0931,0.0359 0.12092,0.008 0.0529,-0.0529 0.0227,-0.13626 0.002,-0.2191 z m -0.16072,0.20567 5.2e-4,5.2e-4 c -0.0115,7.1e-4 -0.0221,0.004 -0.0305,0.0124 -0.12848,0.12848 -0.37827,0.56433 -0.37827,0.75602 l 0.44545,-0.76377 c -0.013,-0.003 -0.0258,-0.005 -0.0372,-0.005 z m 4.96094,0.36587 c -0.0862,-0.002 -0.17899,0.0253 -0.26561,0.0253 l -1.32292,0.18862 c -0.15787,1.38823 -0.0276,0.45876 0.56689,0.75602 1.2378,0.6189 1.16139,-0.93084 1.13378,-0.94464 -0.0352,-0.0176 -0.0729,-0.0246 -0.11214,-0.0253 z m 9.62215,4.68653 c -0.16065,0.38055 -0.36018,0.72274 -0.36018,1.17047 z m -45.8897,0.82734 c 0.0578,0.23268 -0.17919,1.07571 -0.0403,1.14515 0.16361,0.0818 0.49419,-0.058 0.66818,0 0.4954,0.16513 -0.16248,0.13384 0.26768,0.13384 z m -3.91552,7.47913 c -0.0842,0.29281 -0.57851,0.34592 -0.66818,0.61495 -0.0133,0.0398 -0.18726,0.77531 -0.13384,0.80202 0.0797,0.0398 0.18125,-0.0216 0.26768,0 0.68261,0.17065 0.53434,0.30097 0.53434,-0.53485 z m 52.56061,3.54397 c -0.0927,8e-4 -0.16868,0.004 -0.1757,0.0109 -0.063,0.063 0.063,0.20417 0,0.26717 -0.2433,0.2433 -1.2476,-0.26219 -1.47019,0 l 0.93534,0.53485 c 0.25335,0 0.85285,0.10817 1.06919,0 0.11952,-0.0598 0,-0.26738 0,-0.40101 0,-0.13364 0.0598,-0.28148 0,-0.40101 -0.003,-0.007 -0.20406,-0.0122 -0.35864,-0.0109 z m -49.88791,8.29614 c -0.14261,-0.14264 -0.61247,0.49882 -0.66818,0.0796 v 0.58859 c 0.57768,0 0.23605,0.61706 0.66818,0.40101 0.007,-0.004 0.0616,-1.00758 0,-1.06918 z m -4.00906,2.13837 -0.80202,0.26717 c 0.17818,0.13361 0.36094,0.26186 0.53486,0.401 0.0793,0.0635 0.67514,0.65373 0.8015,0.40101 0.0163,-0.0327 0.0442,-0.75782 0,-0.80201 -0.0909,-0.0909 -0.39879,-0.26717 -0.53434,-0.26717 z m 13.49737,0.13384 0.0475,0.0475 c -0.0111,-0.0245 -0.0265,-0.0408 -0.0475,-0.0475 z m 0.0481,0.0486 c 0.10756,0.2429 -0.21169,1.25742 -0.0481,1.4211 0.063,0.063 0.20418,-0.063 0.26717,0 0.0315,0.0315 -0.0315,0.10234 0,0.13384 0.0315,0.0315 0.0888,0 0.13332,0 0.48891,0 0.40101,-0.40884 0.40101,-0.80202 z m -10.87324,2.20245 c -0.15907,10e-4 -0.35218,0.0381 -0.47129,0.031 l 0.73897,0.12299 c 0,-0.12582 -0.1188,-0.15527 -0.26768,-0.15399 z m -0.53382,0.0207 c 0.0169,0.006 0.0377,0.009 0.0615,0.0103 z m -1.33635,4.27622 c -0.3686,0.52072 0.0933,0.58195 0.23099,0.8077 z m 0.23099,0.80822 0.0362,0.12712 c 0,-0.0485 -0.0137,-0.0901 -0.0362,-0.12712 z m -2.63653,1.06247 -0.92035,1.8402 c 0.20194,-0.15588 0.44971,-0.23075 0.51934,-0.37001 0.12214,-0.24433 0.0649,-0.35816 0.13385,-0.66817 0.0611,-0.27502 0.17806,-0.53475 0.26716,-0.80202 z m -0.92035,1.8402 c -0.15464,0.11936 -0.28267,0.28627 -0.28267,0.56534 z m -0.416,0.43149 c -0.17828,0.86264 -0.72031,1.33636 0.53433,1.33636 z m -3.20756,0.13385 0.40101,0.26716 z m 38.98987,0.78238 c -0.16722,0.002 -0.33576,0.0196 -0.50281,0.0196 l 0.81029,0.045 c 0.007,-0.0232 0.0101,-0.042 -0.008,-0.045 -0.0989,-0.0165 -0.19888,-0.0209 -0.29921,-0.0196 z m 0.30748,0.0646 c -0.01,0.0313 -0.0267,0.0703 -0.008,0.0884 0.0156,0.0156 1.41659,0 1.60352,0 z m -1.61231,2.89492 -2.93987,0.53433 c 0.23969,0.1057 2.84473,0.40988 2.93987,0.26717 0.0781,-0.1172 0.0815,-0.26971 0.13384,-0.4005 0.13049,-0.32618 0.29237,-0.401 -0.13384,-0.401 z m -18.85776,0.65629 c -0.0737,0.002 -0.22539,0.0408 -0.51883,0.14521 l 0.54828,0.11007 c -0.0985,-0.0684 0.13789,-0.25921 -0.0294,-0.25528 z m -3.6804,2.52336 c -0.0207,3e-4 -0.0367,0.009 -0.046,0.0274 -0.0398,0.0797 0.0282,0.18264 0,0.26716 -0.0445,0.13364 -0.26696,0.35646 -0.13332,0.40101 0.19242,0.0641 0.58144,0 0.8015,0 0.0891,0 0.26716,0.0891 0.26716,0 0,-0.0767 -0.0102,-0.15221 -0.0253,-0.22737 -0.0596,0.21365 -0.67413,-0.47095 -0.86403,-0.46819 z m 5.83427,1.09657 c -0.18777,0.51831 -0.13384,1.0635 -0.13384,1.60352 0,0.30753 -0.21347,0.21347 -0.40101,0.40101 -0.0704,0.0704 -0.0629,0.19674 -0.13332,0.26717 -0.0315,0.0315 -0.10235,-0.0315 -0.13385,0 -0.22144,0.22144 0.43882,0.2194 0.53434,0.26716 0.0511,0.0256 0.54662,0.5108 0.66817,0.26769 0.0398,-0.0797 -0.0399,-0.188 0,-0.26769 0.0199,-0.0398 0.10235,0.0315 0.13385,0 0.063,-0.063 0,-0.17807 0,-0.26716 0,-0.24939 0.0287,-0.1908 0.13384,-0.40101 0.032,-0.064 0.13332,-1.07426 0.13332,-1.20251 0,-0.0544 0.0333,-0.51767 0,-0.53434 -0.24235,-0.12117 -0.53863,-0.0681 -0.8015,-0.13384 z m 4.27623,0.13384 c 0.14898,0.14734 0.43123,0.18896 0.74259,0.19792 z m 0.74259,0.19792 1.26194,0.33642 c 0,-0.0891 0.0797,-0.22727 0,-0.26717 -0.23836,-0.11917 -0.78438,-0.0555 -1.26194,-0.0693 z m -31.74587,0.87075 c -0.0725,0.31792 0.20492,0.49101 0.42427,0.67851 z m 0.42427,0.67851 0.24391,0.39068 c 0,-0.15876 -0.11142,-0.27742 -0.24391,-0.39068 z m 4.52013,2.12804 c -0.42756,0 -0.25803,0.20165 -0.53485,0.66817 z m 10.23297,1.31465 c -0.0276,6.6e-4 -0.0538,0.006 -0.077,0.0217 0.0283,-0.0141 0.0815,-0.0182 0.13436,-0.0176 -0.0195,-0.003 -0.0388,-0.005 -0.0574,-0.004 z m -0.077,0.0217 c -0.15853,0.0793 -0.64177,0.21447 -0.66817,0.26717 -0.0314,0.0626 0.0358,0.16712 0.0274,0.22841 0.0311,-0.0348 0.0733,-0.0614 0.10646,-0.0946 0.13904,-0.13864 0.31731,-0.0501 0.40101,-0.13384 0.0704,-0.0704 0.0504,-0.21187 0.13332,-0.26717 z m 9.0873,0.26717 -0.52038,2.34404 c 0.087,-0.21138 0.56124,-0.53128 0.78755,-0.60668 0.0845,-0.0282 0.18798,0.0398 0.26768,0 0.15061,-0.0753 -0.48675,-1.5919 -0.53485,-1.73736 z m -10.28981,0.26717 c 0.17819,0.0891 0.34107,0.21938 0.53434,0.26768 0.0864,0.0216 -0.0399,-0.18798 0,-0.26768 -0.15937,0.0797 -0.35615,0 -0.53434,0 z m -9.35447,1.60403 v 1.46968 z m -1.31206,2.86649 c 0.01,0.21036 -0.60282,0.56224 -0.69247,0.74156 -0.14068,0.28138 0.37105,0.20728 0.40101,0.26717 0.0195,0.039 0.0393,0.28083 0.0202,0.51159 0.14789,-0.1748 0.51418,-0.83794 0.51418,-0.9126 z m -0.2713,1.52032 c -0.007,0.008 -0.0142,0.0167 -0.0202,0.0227 -0.0779,0.0779 -0.65394,0.20762 -0.26716,0.40101 0.19074,0.0954 0.26516,-0.1567 0.28732,-0.42375 z m 13.0762,-0.51159 -1.88929,1.54564 c 0.36711,-0.0209 0.71877,-0.025 1.08727,-0.20929 0.47794,-0.23896 0.52004,-0.78772 0.53434,-0.80202 0.16789,-0.16788 0.24748,-0.0699 0.28112,0.0362 -0.007,-0.10923 -0.0134,-0.28872 -0.0134,-0.57051 z m -1.88929,1.54564 c -0.16788,0.01 -0.33849,0.0223 -0.51625,0.0579 -0.30163,0.0603 -0.41716,0.0974 -0.60306,0.11679 0.0245,0.005 0.0475,0.0101 0.0682,0.017 0.0272,0.009 0.0452,0.0317 0.0625,0.0563 -0.021,0.0118 -0.0417,0.0353 -0.0625,0.077 -0.0415,0.0829 0,0.41646 0,0.53486 z m -1.38286,0.15865 c -0.21371,0.004 -0.4534,0.0331 -0.60358,0.0331 h 0.40101 c 0.217,0 0.35372,-0.006 0.46509,-0.017 -0.0755,-0.014 -0.16602,-0.0177 -0.26252,-0.016 z m 0.56999,0.15606 h 5.2e-4 c 0.0109,-8e-5 0.0211,0.002 0.0289,0.0103 0.063,0.063 0,0.35678 0,0.26769 0,-0.074 -0.0313,-0.19025 -0.0765,-0.26924 0.0163,-0.004 0.0326,-0.009 0.047,-0.009 z m -11.46338,1.88154 -0.26717,0.66817 c 0.28719,-0.57438 0.26717,-0.33533 0.26717,-0.66817 z" /></g><g
       id="g5"
       style="display:inline"
       transform="matrix(0.99634955,0,0,0.99634955,0.50685216,0.69808034)"><path
         id="rect3"
         style="fill:#ffffff;stroke-width:1.6;stroke-miterlimit:2.1"
         d="m 161.69807,129.62572 c 5.58125,11.40444 14.42547,21.46642 23.92062,30.736 -8.09385,7.65232 -16.85091,17.52204 -24.5888,30.86963 -5.75082,-11.79987 -14.40085,-21.90326 -22.18337,-31.67144 9.01168,-10.32603 16.61441,-19.82734 22.85155,-29.93419 z"
         sodipodi:nodetypes="ccccc" /><path
         id="path3"
         style="fill:url(#linearGradient6);stroke-width:1.57258;stroke-miterlimit:2.1"
         d="m 161.70723,130.68182 c 5.48558,11.20893 14.17818,21.09842 23.51056,30.2091 -7.9551,7.52114 -16.56204,17.22166 -24.16728,30.34043 -5.65224,-11.59759 -14.15398,-21.52778 -21.80309,-31.1285 8.8572,-10.14901 16.3296,-19.48744 22.45981,-29.42103 z"
         sodipodi:nodetypes="ccccc" /></g><g
       id="g7"
       style="display:inline"
       transform="matrix(0.26533007,0,0,0.26533007,81.693877,179.64691)"><path
         id="path6"
         style="fill:#ffffff;stroke-width:1.6;stroke-miterlimit:2.1"
         d="m 161.69807,129.62572 c 5.58125,11.40444 14.42547,21.46642 23.92062,30.736 -8.09385,7.65232 -16.85091,17.52204 -24.5888,30.86963 -5.75082,-11.79987 -14.40085,-21.90326 -22.18337,-31.67144 9.01168,-10.32603 16.61441,-19.82734 22.85155,-29.93419 z"
         sodipodi:nodetypes="ccccc" /><path
         id="path7"
         style="fill:url(#linearGradient7);stroke-width:1.57258;stroke-miterlimit:2.1"
         d="m 161.70723,130.68182 c 5.48558,11.20893 14.17818,21.09842 23.51056,30.2091 -7.9551,7.52114 -16.56204,17.22166 -24.16728,30.34043 -5.65224,-11.59759 -14.15398,-21.52778 -21.80309,-31.1285 8.8572,-10.14901 16.3296,-19.48744 22.45981,-29.42103 z"
         sodipodi:nodetypes="ccccc" /></g><g
       id="g9"
       style="display:inline"><path
         id="path8"
         style="display:inline;fill:url(#linearGradient10);stroke:url(#linearGradient15);stroke-width:0.5;stroke-linecap:round;stroke-linejoin:round;stroke-miterlimit:2.1;stroke-dasharray:none;stroke-opacity:1"
         d="M 119.33587,96.751717 V 209.13814 l 0.96893,5.2e-4 0.63459,-111.05059 68.05373,0.267167 0.045,-1.494483 z m 86.64019,16.971573 -0.63459,113.05512 -68.05373,-0.26769 -0.045,1.49448 69.7022,0.10956 V 113.72329 Z" /></g><g
       id="g29"
       style="display:inline"><path
         id="path28"
         style="display:inline;fill:url(#linearGradient29);fill-opacity:1;stroke-width:1.6;stroke-miterlimit:2.1"
         d="m 117.5986,90.069832 h 90.06981 c 1.92487,0 3.4745,1.549629 3.4745,3.474505 V 229.85178 c 0,1.92488 -1.54963,3.47451 -3.4745,3.47451 H 117.5986 c -1.92488,0 -3.47451,-1.54963 -3.47451,-3.47451 V 93.544337 c 0,-1.924876 1.54963,-3.474505 3.47451,-3.474505 z" /><path
         id="path29"
         style="display:inline;fill:url(#radialGradient29);stroke-width:1.6;stroke-miterlimit:2.1"
         d="m 117.5986,154.21452 h 90.06981 c 1.92487,0 3.4745,1.54963 3.4745,3.4745 v 72.16276 c 0,1.92488 -1.54963,3.47451 -3.4745,3.47451 H 117.5986 c -1.92488,0 -3.47451,-1.54963 -3.47451,-3.47451 v -72.16276 c 0,-1.92487 1.54963,-3.4745 3.47451,-3.4745 z"
         inkscape:label="path30"
         sodipodi:nodetypes="sssssssss" /></g></g></svg>
