<?xml version="1.0" encoding="UTF-8" standalone="no"?>
<svg
   width="128"
   height="128"
   viewBox="0 0 128 128"
   version="1.1"
   id="svg45"
   sodipodi:docname="inode-blockdevice.svg"
   inkscape:version="1.3.2 (091e20ef0f, 2023-11-25)"
   xmlns:inkscape="http://www.inkscape.org/namespaces/inkscape"
   xmlns:sodipodi="http://sodipodi.sourceforge.net/DTD/sodipodi-0.dtd"
   xmlns:xlink="http://www.w3.org/1999/xlink"
   xmlns="http://www.w3.org/2000/svg"
   xmlns:svg="http://www.w3.org/2000/svg">
  <defs
     id="defs45" />
  <sodipodi:namedview
     id="namedview45"
     pagecolor="#ffffff"
     bordercolor="#000000"
     borderopacity="0.25"
     inkscape:showpageshadow="2"
     inkscape:pageopacity="0.0"
     inkscape:pagecheckerboard="0"
     inkscape:deskcolor="#d1d1d1"
     inkscape:current-layer="svg45" />
  <linearGradient
     id="d"
     x1="113.492"
     x2="76.112"
     y1="108.742"
     y2="71.362"
     gradientUnits="userSpaceOnUse">
    <stop
       offset="0"
       stop-color="#86e692"
       id="stop1" />
    <stop
       offset="1"
       stop-color="#ffffdc"
       id="stop2" />
  </linearGradient>
  <linearGradient
     id="e"
     x1="115.886"
     x2="74.95"
     y1="111.136"
     y2="70.2"
     gradientUnits="userSpaceOnUse">
    <stop
       offset="0"
       stop-color="#007200"
       id="stop3" />
    <stop
       offset="1"
       stop-color="#00c22b"
       id="stop4" />
  </linearGradient>
  <linearGradient
     id="a">
    <stop
       offset="0"
       stop-color="#006d21"
       id="stop5" />
    <stop
       offset="1"
       stop-color="#0f0"
       id="stop6" />
  </linearGradient>
  <linearGradient
     id="f"
     x1="106.238"
     x2="106.238"
     y1="128.498"
     y2="71"
     gradientUnits="userSpaceOnUse"
     xlink:href="#a" />
  <linearGradient
     id="g"
     x1="91.617"
     x2="94.617"
     y1="105.119"
     y2="61.621"
     gradientUnits="userSpaceOnUse"
     xlink:href="#a" />
  <linearGradient
     id="b">
    <stop
       offset="0"
       stop-color="#fff"
       id="stop7" />
    <stop
       offset="1"
       stop-color="#fff"
       stop-opacity="0"
       id="stop8" />
  </linearGradient>
  <linearGradient
     id="h"
     x1="108.933"
     x2="104.933"
     y1="61.119"
     y2="101.618"
     gradientUnits="userSpaceOnUse"
     xlink:href="#b" />
  <linearGradient
     id="i"
     x1="78.23"
     x2="78.23"
     y1="128.502"
     y2="71.004"
     gradientUnits="userSpaceOnUse"
     xlink:href="#a" />
  <linearGradient
     id="j"
     x1="93.384"
     x2="93.384"
     y1="50.501"
     y2="88"
     gradientUnits="userSpaceOnUse"
     xlink:href="#b" />
  <linearGradient
     id="k"
     x1="54.261"
     x2="16.882"
     y1="103.058"
     y2="65.678"
     gradientUnits="userSpaceOnUse">
    <stop
       offset="0"
       stop-color="#ff904e"
       id="stop9" />
    <stop
       offset="1"
       stop-color="#ffe39a"
       id="stop10" />
  </linearGradient>
  <linearGradient
     id="l"
     x1="56.655"
     x2="15.72"
     y1="105.452"
     y2="64.517"
     gradientUnits="userSpaceOnUse">
    <stop
       offset="0"
       stop-color="#650000"
       id="stop11" />
    <stop
       offset="1"
       stop-color="#ff5600"
       id="stop12" />
  </linearGradient>
  <linearGradient
     id="m"
     x1="18.998"
     x2="18.998"
     y1="116.738"
     y2="62"
     gradientUnits="userSpaceOnUse">
    <stop
       offset="0"
       stop-color="#ff3d00"
       id="stop13" />
    <stop
       offset="1"
       stop-color="#ffbb51"
       id="stop14" />
  </linearGradient>
  <linearGradient
     id="n"
     x1="47.008"
     x2="47.008"
     y1="116.737"
     y2="62.001"
     gradientUnits="userSpaceOnUse">
    <stop
       offset="0"
       stop-color="#ff3000"
       id="stop15" />
    <stop
       offset="1"
       stop-color="#ffbb51"
       id="stop16" />
  </linearGradient>
  <linearGradient
     id="o"
     x1="39.578"
     x2="27.987"
     y1="84.7"
     y2="46.314"
     gradientUnits="userSpaceOnUse">
    <stop
       offset="0"
       stop-color="#ff4e00"
       id="stop17" />
    <stop
       offset="1"
       stop-color="#ffbb51"
       id="stop18" />
  </linearGradient>
  <linearGradient
     id="p"
     x1="48.432"
     x2="44.432"
     y1="55.62"
     y2="96.118"
     gradientUnits="userSpaceOnUse"
     xlink:href="#b" />
  <linearGradient
     id="q"
     x1="32.884"
     x2="32.884"
     y1="44.001"
     y2="81.5"
     gradientUnits="userSpaceOnUse"
     xlink:href="#b" />
  <linearGradient
     id="r"
     x1="85.602"
     x2="48.222"
     y1="59.193"
     y2="21.813"
     gradientUnits="userSpaceOnUse">
    <stop
       offset="0"
       stop-color="#b1dcff"
       id="stop19" />
    <stop
       offset="1"
       stop-color="#e3f0ff"
       id="stop20" />
  </linearGradient>
  <linearGradient
     id="s"
     x1="98.727"
     x2="25.988"
     y1="68.331"
     y2="4.532"
     gradientUnits="userSpaceOnUse">
    <stop
       offset="0"
       stop-color="#00b"
       id="stop21" />
    <stop
       offset="1"
       stop-color="#0095ff"
       id="stop22" />
  </linearGradient>
  <linearGradient
     id="c">
    <stop
       offset="0"
       stop-color="#0095ff"
       id="stop23" />
    <stop
       offset="1"
       stop-color="#00e1ff"
       id="stop24" />
  </linearGradient>
  <linearGradient
     id="t"
     x1="50.339"
     x2="50.339"
     y1="76.962"
     y2="34.001"
     gradientUnits="userSpaceOnUse"
     xlink:href="#c" />
  <linearGradient
     id="u"
     x1="78.348"
     x2="78.348"
     y1="76.959"
     y2="34.001"
     gradientUnits="userSpaceOnUse"
     xlink:href="#c" />
  <linearGradient
     id="v"
     x1="65.892"
     x2="65.892"
     y1="46.119"
     y2="13.534"
     gradientUnits="userSpaceOnUse"
     xlink:href="#c" />
  <linearGradient
     id="w"
     x1="80.432"
     x2="76.432"
     y1="10.119"
     y2="50.618"
     gradientUnits="userSpaceOnUse"
     xlink:href="#b" />
  <linearGradient
     id="x"
     x1="64.883"
     x2="64.883"
     y1="-1.5"
     y2="35.999"
     gradientUnits="userSpaceOnUse"
     xlink:href="#b" />
  <g
     id="g6"
     transform="matrix(0.51265823,0,0,0.51265823,-1.6202532,-1.4836635)">
    <path
       id="rect2"
       style="fill:#ffffff;fill-opacity:0.996078;stroke-width:8.774;stroke-linecap:square"
       d="m 151.94727,23.630859 v 8.203125 h -8.02735 v 17.28711 h 17.62305 v -8.16211 h 7.16015 V 23.630859 Z M 15.96875,111.77734 v 8.20313 H 7.9414062 v 17.28711 H 25.564453 v -8.16211 h 7.160156 v -17.32813 z m -0.03711,64.08789 v 8.20313 H 7.9042969 v 17.28711 H 25.527344 v -8.16211 H 32.6875 v -17.32813 z" />
    <path
       style="fill:#bfbfbf"
       d="m 80,168 v -64 h 4 140 8 v 64 64 H 156 80 Z m -64,36 v -4 h 4 4 v -4 -4 h 4 4 v -8 -8 h 4 4 v 12 12 h -4 -4 v 4 4 h -8 -8 z m 32,-8 v -4 h 12 12 v 4 4 H 60 48 Z M 16,140 v -4 h 4 4 v -4 -4 h 4 4 v -8 -8 h 4 4 v 12 12 h -4 -4 v 4 4 h -8 -8 z m 32,-8 v -4 h 12 12 v 4 4 H 60 48 Z M 88,92 v -4 h 32 32 v 4 4 H 120 88 Z m 72,-8 V 72 h 4 4 v 12 12 h -4 -4 z m 16,8 v -4 h 32 32 v 4 4 H 208 176 Z M 144,52 v -4 h 8 8 v -4 -4 h 4 4 v -8 -8 h 4 4 v 12 12 h -4 -4 v 4 4 h -12 -12 z"
       id="path10"
       sodipodi:nodetypes="cccccccccccccccccccccccccccccccccccccccccccccccccccccccccccccccccccccccccccccccccccccccccccccccccccccccccccccccccccccc" />
    <path
       style="fill:#7f7f7f"
       d="m 72,212 v -20 h -8 -8 v -4 -4 h 8 8 v -28 -28 h -8 -8 v -4 -4 h 8 8 V 108 96 h 4 4 v -4 -4 h 4 4 v -4 -4 h 32 32 v -4 -4 h 4 4 v -4 -4 h -4 -4 v -4 -4 h 4 4 v 4 4 h 4 4 v -8 -8 h 4 4 v -8 -8 h 4 4 v 12 12 h -4 -4 v 4 4 h -4 -4 v 4 4 h -4 -4 v 12 12 h 36 36 v 4 4 H 156 80 v 64 64 H 76 72 Z M 152,92 V 88 H 120 88 v 4 4 h 32 32 z m 88,68 V 96 h 4 4 v 64 64 h -4 -4 z M 16,212 v -4 H 8 0 v -12 -12 h 4 4 v -4 -4 h 4 4 v -4 -4 h 12 12 v 4 4 H 28 16 v 4 4 H 12 8 v 8 8 h 4 4 v 4 4 h 8 8 v -4 -4 h 8 8 v 4 4 h -4 -4 v 4 4 H 28 16 Z m 24,-24 v -4 h 4 4 v 4 4 H 44 40 Z M 16,148 v -4 H 8 0 v -12 -12 h 4 4 v -4 -4 h 4 4 v -4 -4 h 12 12 v 4 4 H 28 16 v 4 4 H 12 8 v 8 8 h 4 4 v 4 4 h 8 8 v -4 -4 h 8 8 v 4 4 h -4 -4 v 4 4 H 28 16 Z m 24,-24 v -4 h 4 4 v 4 4 H 44 40 Z M 176,84 v -4 h 36 36 v 4 4 H 212 176 Z M 136,44 V 32 h 4 4 v -4 -4 h 4 4 v -4 -4 h 12 12 v 4 4 h -12 -12 v 4 4 h -4 -4 v 12 12 h -4 -4 z"
       id="path8"
       sodipodi:nodetypes="ccccccccccccccccccccccccccccccccccccccccccccccccccccccccccccccccccccccccccccccccccccccccccccccccccccccccccccccccccccccccccccccccccccccccccccccccccccccccccccccccccccccccccccccccccccccccccccccccccccccccccccccccccccccccccccccccccccccccccccc" />
    <path
       style="fill:#000000"
       d="m 72,236 v -4 h 80 80 V 164 96 h 4 4 v -4 -4 h 4 4 v -4 -4 h 4 4 v 72 72 h -4 -4 v 4 4 h -4 -4 v 4 4 H 156 72 Z M 248,160 V 96 h -4 -4 v 64 64 h 4 4 z M 16,220 v -4 H 12 8 v -4 -4 h 4 4 v 4 4 h 12 12 v -4 -4 h 4 4 v -4 -4 h -4 -4 v -4 -4 h 4 4 v -4 -4 h -4 -4 v -4 -4 h 4 4 v 4 4 h 4 4 v 4 4 h -4 -4 v 4 4 h 12 12 v 4 4 H 60 48 v 4 4 h -4 -4 v 4 4 H 28 16 Z m 0,-64 v -4 H 12 8 v -4 -4 h 4 4 v 4 4 h 12 12 v -4 -4 h 4 4 v -4 -4 h -4 -4 v -4 -4 h 4 4 v -4 -4 h -4 -4 v -4 -4 h 4 4 v 4 4 h 4 4 v 4 4 h -4 -4 v 4 4 h 12 12 v 4 4 H 60 48 v 4 4 h -4 -4 v 4 4 H 28 16 Z M 168,80 V 64 h -4 -4 v 4 4 h -4 -4 v -4 -4 h -4 -4 v -4 -4 h 4 4 v 4 4 h 4 4 v -4 -4 h 4 4 v 4 4 h 4 4 v -4 -4 h 4 4 V 44 32 h -4 -4 v -4 -4 h 4 4 v 4 4 h 4 4 v 12 12 h -4 -4 v 4 4 h -4 -4 v 16 16 h -4 -4 z"
       id="path6"
       sodipodi:nodetypes="ccccccccccccccccccccccccccccccccccccccccccccccccccccccccccccccccccccccccccccccccccccccccccccccccccccccccccccccccccccccccccccccccccccccccccccccccccccccccccccccccccccccccccccccccccccccccccccccccccccccccccccccccc" />
    <path
       id="rect1"
       style="fill:#ffffff;fill-opacity:0.996078;stroke-width:8.774;stroke-linecap:square"
       d="m 71.898438,95.96875 v 144.5918 h 8.210937 V 104.81641 H 232.38867 V 96.607422 H 80.109375 V 95.96875 Z" />
  </g>
  <g
     id="g1"
     transform="matrix(0.51265823,0,0,0.51265823,46.582278,51.848101)">
    <path
       fill="url(#d)"
       d="M 64.681,101.596 V 70.475 l 32.128,-17.708 25.739,23.367 v 30.938 l -32.493,17.705 z"
       id="path24"
       style="fill:url(#d)" />
    <path
       fill="url(#e)"
       d="M 96.413,52.049 64.284,69.756 c -0.262,0.145 -0.424,0.42 -0.424,0.719 v 31.121 c 0,0.23 0.097,0.45 0.267,0.606 l 25.374,23.184 c 0.259,0.236 0.639,0.282 0.947,0.114 l 32.492,-17.707 c 0.265,-0.143 0.43,-0.42 0.43,-0.721 V 76.134 c 0,-0.231 -0.099,-0.452 -0.27,-0.608 L 97.36,52.159 c -0.26,-0.236 -0.64,-0.28 -0.947,-0.11 z m 0.278,1.721 c 0.831,0.755 24.516,22.257 25.035,22.727 v 30.087 c -0.82,0.447 -30.566,16.657 -31.55,17.192 -0.827,-0.754 -24.16,-22.073 -24.674,-22.543 0,-0.699 0,-29.341 0,-30.273 0.815,-0.448 30.208,-16.648 31.189,-17.19 z"
       id="path25"
       style="fill:url(#e)" />
    <path
       fill="url(#f)"
       d="m 91.268,95.335 -0.02,27.086 29.959,-16.112 0.021,-29.24 -28.731,15.062 c 0,0 -0.787,0.558 -1.018,1.507 -0.229,0.951 -0.211,1.697 -0.211,1.697 z"
       id="path26"
       style="fill:url(#f)" />
    <path
       fill="url(#g)"
       d="M 96.596,54.488 120.59,76.545 92.489,91.272 c 0,0 -1.085,0.364 -1.778,0.302 -0.692,-0.065 -1.539,-0.766 -1.539,-0.766 L 66.974,70.93 Z"
       id="path27"
       style="fill:url(#g)" />
    <path
       fill="url(#h)"
       d="M 119.951,79.214 93.842,92.902 c 0,0 -0.738,0.523 -0.955,1.412 -0.215,0.893 -0.197,1.592 -0.197,1.592 l -0.005,13.916 c 1.281,0.195 2.713,-7.085 12.636,-9.83 12.012,-3.323 14.826,-19.696 14.63,-20.778 z"
       id="path28"
       style="fill:url(#h)" />
    <path
       fill="url(#i)"
       d="M 90.115,108.434 90.106,95.055 c 0,0 0.016,-0.747 -0.208,-1.697 -0.222,-0.95 -0.98,-1.506 -0.98,-1.506 l -22.376,-19.816 -0.207,-0.183 0.022,29.238 23.767,21.049 z"
       id="path29"
       style="fill:url(#i)" />
    <path
       fill="url(#j)"
       d="m 69.143,72.1 2.966,2.656 C 78.379,77.988 87.152,80 96.87,80 c 7.792,0 14.979,-1.293 20.755,-3.471 L 96.368,56.988 Z"
       id="path30"
       style="fill:url(#j)" />
    <path
       fill="url(#k)"
       d="M 5.45,95.911 V 64.791 L 37.578,47.084 63.317,70.449 v 30.938 l -32.493,17.706 z"
       id="path31"
       style="fill:url(#k)" />
    <path
       fill="url(#l)"
       d="M 37.182,46.365 5.054,64.072 C 4.792,64.217 4.63,64.491 4.63,64.791 v 31.12 c 0,0.231 0.097,0.45 0.268,0.606 l 25.373,23.185 c 0.259,0.235 0.639,0.282 0.945,0.114 L 63.71,102.108 c 0.266,-0.143 0.43,-0.42 0.43,-0.721 V 70.449 c 0,-0.23 -0.098,-0.451 -0.271,-0.607 L 38.13,46.476 C 37.871,46.24 37.49,46.195 37.182,46.365 Z m 0.279,1.722 c 0.83,0.754 24.517,22.256 25.036,22.726 v 30.086 C 61.675,101.347 31.93,117.557 30.946,118.092 30.119,117.337 6.786,96.018 6.272,95.548 c 0,-0.697 0,-29.34 0,-30.272 0.815,-0.448 30.207,-16.649 31.189,-17.189 z"
       id="path32"
       style="fill:url(#l)" />
    <path
       fill="url(#m)"
       d="M 30.876,89.369 30.894,116.457 7.127,95.407 7.104,66.169 29.688,86.167 c 0,0 0.758,0.556 0.981,1.507 0.223,0.95 0.207,1.695 0.207,1.695 z"
       id="path33"
       style="fill:url(#m)" />
    <path
       fill="url(#n)"
       d="m 32.037,89.65 -0.021,27.087 29.961,-16.112 0.021,-29.24 -28.731,15.062 c 0,0 -0.785,0.557 -1.017,1.508 -0.229,0.951 -0.213,1.695 -0.213,1.695 z"
       id="path34"
       style="fill:url(#n)" />
    <path
       fill="url(#o)"
       d="m 37.365,48.804 23.993,22.058 -28.1,14.727 c 0,0 -1.083,0.364 -1.776,0.302 -0.694,-0.064 -1.54,-0.766 -1.54,-0.766 L 7.744,65.247 Z"
       id="path35"
       style="fill:url(#o)" />
    <path
       fill="url(#p)"
       d="M 59.451,73.714 33.342,87.402 c 0,0 -0.738,0.523 -0.955,1.412 -0.215,0.893 -0.197,1.592 -0.197,1.592 l -0.005,13.916 c 1.281,0.195 2.713,-7.085 12.636,-9.83 12.012,-3.323 14.826,-19.696 14.63,-20.778 z"
       id="path36"
       style="fill:url(#p)" />
    <path
       fill="url(#q)"
       d="m 8.643,65.6 2.966,2.656 c 6.27,3.232 15.043,5.244 24.761,5.244 7.792,0 14.979,-1.293 20.755,-3.471 L 35.868,50.488 Z"
       id="path37"
       style="fill:url(#q)" />
    <path
       fill="url(#r)"
       d="M 36.79,52.046 V 20.926 L 68.918,3.22 94.658,26.585 V 57.523 L 62.163,75.229 Z"
       id="path38"
       style="fill:url(#r)" />
    <path
       fill="url(#s)"
       d="M 68.521,2.5 36.394,20.207 c -0.262,0.146 -0.424,0.42 -0.424,0.72 v 31.12 c 0,0.232 0.096,0.451 0.267,0.607 L 61.61,75.836 c 0.259,0.236 0.638,0.283 0.945,0.115 L 95.05,58.244 c 0.264,-0.142 0.43,-0.42 0.43,-0.721 V 26.585 c 0,-0.232 -0.099,-0.453 -0.27,-0.608 L 69.47,2.61 C 69.21,2.375 68.83,2.33 68.521,2.5 Z M 68.8,4.222 C 69.631,4.976 93.318,26.48 93.837,26.95 V 57.035 C 93.016,57.483 63.27,73.692 62.286,74.229 61.458,73.473 38.127,52.154 37.612,51.686 c 0,-0.7 0,-29.342 0,-30.273 C 38.426,20.961 67.819,4.763 68.8,4.222 Z"
       id="path39"
       style="fill:url(#s)" />
    <path
       fill="url(#t)"
       d="M 62.216,45.505 62.234,72.592 38.467,51.542 38.446,22.304 61.027,42.303 c 0,0 0.76,0.556 0.982,1.505 0.222,0.95 0.207,1.697 0.207,1.697 z"
       id="path40"
       style="fill:url(#t)" />
    <path
       fill="url(#u)"
       d="M 63.376,45.786 63.356,72.873 93.317,56.759 93.34,27.52 64.605,42.583 c 0,0 -0.784,0.556 -1.016,1.506 -0.23,0.951 -0.213,1.697 -0.213,1.697 z"
       id="path41"
       style="fill:url(#u)" />
    <path
       fill="url(#v)"
       d="M 68.704,4.938 92.7,26.996 64.598,41.724 c 0,0 -1.083,0.364 -1.776,0.3 -0.693,-0.064 -1.541,-0.765 -1.541,-0.765 L 39.084,21.382 Z"
       id="path42"
       style="fill:url(#v)" />
    <path
       fill="url(#w)"
       d="M 91.451,28.214 65.342,41.902 c 0,0 -0.738,0.523 -0.955,1.412 -0.215,0.893 -0.197,1.592 -0.197,1.592 l -0.005,13.916 c 1.281,0.195 2.713,-7.085 12.636,-9.83 12.012,-3.323 14.826,-19.696 14.63,-20.778 z"
       id="path43"
       style="fill:url(#w)" />
    <path
       fill="url(#x)"
       d="m 40.643,20.1 2.966,2.656 C 49.879,25.988 58.652,28 68.37,28 76.162,28 83.349,26.707 89.125,24.529 L 67.868,4.988 Z"
       id="path44"
       style="fill:url(#x)" />
    <path
       fill="none"
       d="M 128,128 H 0 V 0 h 128 z"
       id="path45" />
  </g>
</svg>
