<?xml version="1.0" encoding="UTF-8" standalone="no"?>
<!-- Created with Inkscape (http://www.inkscape.org/) -->

<svg
   width="256mm"
   height="256mm"
   viewBox="0 0 256 256"
   version="1.1"
   id="svg1"
   inkscape:version="1.3.2 (091e20ef0f, 2023-11-25)"
   sodipodi:docname="inode-vnd.kde.service.upnp.WFADevice1.svg"
   xml:space="preserve"
   xmlns:inkscape="http://www.inkscape.org/namespaces/inkscape"
   xmlns:sodipodi="http://sodipodi.sourceforge.net/DTD/sodipodi-0.dtd"
   xmlns="http://www.w3.org/2000/svg"
   xmlns:svg="http://www.w3.org/2000/svg"
   xmlns:rdf="http://www.w3.org/1999/02/22-rdf-syntax-ns#"
   xmlns:cc="http://creativecommons.org/ns#"
   xmlns:dc="http://purl.org/dc/elements/1.1/"
   xmlns:a="http://ns.adobe.com/AdobeSVGViewerExtensions/3.0/"><defs
     id="defs1"><linearGradient
       id="XMLID_1_"
       gradientUnits="userSpaceOnUse"
       x1="59.450699"
       y1="126.196"
       x2="59.450699"
       y2="94.688301"><stop
         offset="0"
         style="stop-color:rgb(158,158,158)"
         id="stop1" /><stop
         offset="1"
         style="stop-color:rgb(97,97,97)"
         id="stop2" /></linearGradient><linearGradient
       id="XMLID_2_"
       gradientUnits="userSpaceOnUse"
       x1="59.463402"
       y1="102.881"
       x2="59.463402"
       y2="123.654"><stop
         offset="0"
         style="stop-color:rgb(255,255,255)"
         id="stop3" /><stop
         offset="1"
         style="stop-color:rgb(207,207,207)"
         id="stop4" /><a:midPointStop
         offset="0"
         style="stop-color:#FFFFFF" /><a:midPointStop
         offset="0.5"
         style="stop-color:#FFFFFF" /><a:midPointStop
         offset="1"
         style="stop-color:#CFCFCF" /></linearGradient><linearGradient
       id="XMLID_3_"
       gradientUnits="userSpaceOnUse"
       x1="44.869099"
       y1="89.282204"
       x2="73.438004"
       y2="120.732"><stop
         offset="0.0337"
         style="stop-color:rgb(255,255,255)"
         id="stop5" /><stop
         offset="1"
         style="stop-color:rgb(135,135,135)"
         id="stop6" /></linearGradient><linearGradient
       id="XMLID_4_"
       gradientUnits="userSpaceOnUse"
       x1="58.564899"
       y1="109.229"
       x2="58.564899"
       y2="77.887497"><stop
         offset="0"
         style="stop-color:rgb(158,158,158)"
         id="stop7" /><stop
         offset="1"
         style="stop-color:rgb(97,97,97)"
         id="stop8" /></linearGradient><linearGradient
       id="XMLID_5_"
       gradientUnits="userSpaceOnUse"
       x1="58.566399"
       y1="104.072"
       x2="58.566399"
       y2="89.384598"><stop
         offset="0"
         style="stop-color:rgb(255,255,255)"
         id="stop9" /><stop
         offset="1"
         style="stop-color:rgb(207,207,207)"
         id="stop10" /></linearGradient><linearGradient
       id="XMLID_6_"
       gradientUnits="userSpaceOnUse"
       x1="43.089802"
       y1="73.366203"
       x2="75.628998"
       y2="109.186"><stop
         offset="0.0337"
         style="stop-color:rgb(255,255,255)"
         id="stop11" /><stop
         offset="1"
         style="stop-color:rgb(135,135,135)"
         id="stop12" /></linearGradient><linearGradient
       id="XMLID_7_"
       gradientUnits="userSpaceOnUse"
       x1="59.449699"
       y1="99.836899"
       x2="59.449699"
       y2="13.0515"><stop
         offset="0"
         style="stop-color:rgb(158,158,158)"
         id="stop13" /><stop
         offset="1"
         style="stop-color:rgb(97,97,97)"
         id="stop14" /></linearGradient><linearGradient
       id="XMLID_8_"
       gradientUnits="userSpaceOnUse"
       x1="58.5107"
       y1="69.587898"
       x2="62.727001"
       y2="-38.7365"><stop
         offset="0.0337"
         style="stop-color:rgb(255,255,255)"
         id="stop15" /><stop
         offset="1"
         style="stop-color:rgb(178,178,178)"
         id="stop16" /></linearGradient><linearGradient
       id="XMLID_9_"
       gradientUnits="userSpaceOnUse"
       x1="43.4175"
       y1="29.4097"
       x2="119.845"
       y2="105.837"><stop
         offset="0.0337"
         style="stop-color:rgb(255,255,255)"
         id="stop17" /><stop
         offset="1"
         style="stop-color:rgb(178,178,178)"
         id="stop18" /></linearGradient><linearGradient
       id="XMLID_10_"
       gradientUnits="userSpaceOnUse"
       x1="1.6362"
       y1="-25.0278"
       x2="1.6362"
       y2="56.389301"><stop
         offset="0%"
         style="stop-color:rgb(255,255,255)"
         id="stop19" /><stop
         offset="100%"
         style="stop-opacity:0;stop-color:rgb(255,255,255)"
         id="stop20" /></linearGradient><linearGradient
       id="XMLID_11_"
       gradientUnits="userSpaceOnUse"
       x1="59.7729"
       y1="0.0283"
       x2="59.7729"
       y2="59.2285"><stop
         offset="0%"
         style="stop-color:rgb(255,255,255)"
         id="stop21" /><stop
         offset="100%"
         style="stop-opacity:0;stop-color:rgb(255,255,255)"
         id="stop22" /></linearGradient><radialGradient
       id="XMLID_12_"
       cx="-13.7461"
       cy="95.490196"
       r="61.608101"
       fx="-13.7461"
       fy="95.490196"
       gradientTransform="matrix(1.0388,0,0,1,70.2622,0)"
       gradientUnits="userSpaceOnUse"><stop
         offset="0"
         style="stop-color:rgb(133,202,255)"
         id="stop23" /><stop
         offset="1"
         style="stop-color:rgb(0,61,169)"
         id="stop24" /><a:midPointStop
         offset="0"
         style="stop-color:#85CAFF" /><a:midPointStop
         offset="0.5"
         style="stop-color:#85CAFF" /><a:midPointStop
         offset="1"
         style="stop-color:#003DA9" /></radialGradient><linearGradient
       id="XMLID_13_"
       gradientUnits="userSpaceOnUse"
       x1="59.382301"
       y1="60.042"
       x2="59.382301"
       y2="-28.417801"><stop
         offset="0"
         style="stop-color:rgb(204,204,204)"
         id="stop25" /><stop
         offset="1"
         style="stop-color:rgb(97,97,97)"
         id="stop26" /><a:midPointStop
         offset="0"
         style="stop-color:#CCCCCC" /><a:midPointStop
         offset="0.5"
         style="stop-color:#CCCCCC" /><a:midPointStop
         offset="1"
         style="stop-color:#616161" /></linearGradient><radialGradient
       id="XMLID_14_"
       cx="-16.730499"
       cy="15.3696"
       r="67.632599"
       fx="-16.730499"
       fy="15.3696"
       gradientTransform="matrix(1.0463,0,0,0.9215,74.949,-5.7288)"
       gradientUnits="userSpaceOnUse"><stop
         offset="0"
         style="stop-color:rgb(133,202,255)"
         id="stop27" /><stop
         offset="1"
         style="stop-color:rgb(0,61,169)"
         id="stop28" /><a:midPointStop
         offset="0"
         style="stop-color:#85CAFF" /><a:midPointStop
         offset="0.5"
         style="stop-color:#85CAFF" /><a:midPointStop
         offset="1"
         style="stop-color:#003DA9" /></radialGradient></defs><sodipodi:namedview
     id="base"
     pagecolor="#ffffff"
     bordercolor="#000000"
     borderopacity="0.3"
     inkscape:pageopacity="0.0"
     inkscape:pageshadow="2"
     inkscape:zoom="0.98994949"
     inkscape:cx="505.07627"
     inkscape:cy="476.792"
     inkscape:document-units="mm"
     inkscape:showpageshadow="2"
     inkscape:pagecheckerboard="0"
     inkscape:deskcolor="#d1d1d1"
     inkscape:current-layer="svg1" /><metadata
     id="metadata1"><rdf:RDF><cc:Work
         rdf:about=""><dc:format>image/svg+xml</dc:format><dc:type
           rdf:resource="http://purl.org/dc/dcmitype/StillImage" /><cc:license
           rdf:resource="http://creativecommons.org/publicdomain/zero/1.0/" /></cc:Work><cc:License
         rdf:about="http://creativecommons.org/publicdomain/zero/1.0/"><cc:permits
           rdf:resource="http://creativecommons.org/ns#Reproduction" /><cc:permits
           rdf:resource="http://creativecommons.org/ns#Distribution" /><cc:permits
           rdf:resource="http://creativecommons.org/ns#DerivativeWorks" /></cc:License></rdf:RDF></metadata><g
     id="g2"
     transform="matrix(3.104908,0,0,3.104908,-211.1444,2.2804574)"
     style="fill:#0f80d0;fill-opacity:1"><path
       id="path4154"
       d="m 109.67579,0.02116778 c -3.08041,0.0047401 -6.14334,0.39186083 -9.13648,1.11070342 -3.708852,0.8948359 -7.258001,2.3920065 -10.626697,4.1714199 2.443886,0.6735512 4.001056,3.2845788 3.826156,5.7650859 0.06197,2.682967 0.123941,5.365935 0.185912,8.048902 3.529216,-2.976926 8.072929,-4.465674 12.575259,-5.176266 4.81962,-0.602987 9.83507,0.0091 14.23902,2.112589 3.71562,1.694582 6.84452,4.424664 9.55711,7.435467 -1.05551,0.627614 -1.9054,1.905711 -1.29035,3.120978 0.5833,1.415635 2.35938,1.292282 3.58927,1.78122 4.37467,1.182652 8.72169,2.497251 13.11353,3.598052 1.55397,0.102484 2.69517,-1.595293 2.1779,-3.021435 -0.85472,-4.947749 -1.60331,-9.922498 -2.52353,-14.853615 -0.55496,-1.488919 -2.68393,-1.839921 -3.69911,-0.636755 -0.63419,0.682602 -1.25472,1.189386 -1.75076,0.09431 C 136.25424,9.3686997 131.62579,6.0321317 126.5594,3.7260637 121.26873,1.3286519 115.50564,-0.10192723 109.67579,0.02116778 Z"
       style="fill:#0f80d0;fill-opacity:1" /><path
       id="path4162"
       d="m 134.82659,32.581988 c 1.04427,6.144338 0.90725,12.781714 -2.09293,18.391717 -1.63107,2.998217 -3.86169,5.661561 -6.62304,7.682782 -3.96513,2.966438 -8.74575,4.843562 -13.64935,5.472922 -1.14766,-0.0079 -1.1634,-0.576325 -1.12125,-1.536391 0.16048,-1.747182 -2.01083,-2.914936 -3.4321,-1.938386 -4.38244,2.824804 -8.838816,5.57379 -13.175404,8.445566 -1.174134,1.0427 -0.674403,3.014224 0.731593,3.610491 1.887384,1.058391 3.670391,2.50996 5.591151,3.625616 2.80741,1.630661 6.72392,4.902302 8.65208,4.47293 1.3905,-0.198278 1.91655,-1.697203 1.70432,-2.932288 6.85955,-0.07632 13.69068,-2.046075 19.46847,-5.759689 6.55153,-4.113957 11.82965,-10.206424 15.11919,-17.197686 2.13316,-4.636207 3.48274,-9.654372 3.56603,-14.773806 0.0425,-1.979479 -0.075,-3.967646 -0.38503,-5.922952 -1.80553,1.394454 -4.27389,1.347449 -6.32987,0.572058 -2.67456,-0.737615 -5.3496,-1.475333 -8.02386,-2.212884 z"
       sodipodi:nodetypes="ccccccccacccccccc"
       style="fill:#0f80d0;fill-opacity:1" /><path
       id="path4156"
       d="m 87.811469,8.320162 c -1.709531,0.4800948 -3.245251,1.5097984 -4.886705,2.205479 -3.355228,1.645682 -6.763504,3.202821 -10.086313,4.902632 -0.964743,0.753372 -1.124865,2.177222 -0.279517,3.077667 0.730919,0.753777 1.756253,1.132203 2.613496,1.72282 -3.8463,6.090285 -5.291412,13.474759 -4.838245,20.609089 0.333737,5.462437 1.826825,10.854953 4.309492,15.729095 3.465256,6.616851 8.76983,12.285954 15.268931,15.990983 0.812137,0.26325 1.566241,0.581188 1.110644,-0.536944 -0.194973,-1.851437 -0.377016,-4.105663 1.25522,-5.396214 2.20463,-1.723939 4.700241,-3.058385 7.034107,-4.604737 C 94.507136,60.104608 90.682629,56.288955 87.991341,51.943043 85.80103,48.429532 84.510078,44.368103 84.281912,40.229202 83.999366,35.778055 85.09175,31.3457 86.975234,27.33159 88.349978,28.455318 90.719621,27.256841 90.50781,25.459312 90.369944,20.282001 90.371097,15.095069 90.145447,9.9238334 89.750261,8.962967 88.906238,8.2581556 87.811469,8.320162 Z"
       style="fill:#0f80d0;fill-opacity:1" /></g><g
     id="g5"
     style="fill:#f39100;fill-opacity:1;stroke:#8cabff;stroke-width:3.6;stroke-dasharray:none;stroke-opacity:1"
     transform="matrix(0.7221662,0.70194521,-0.70194521,0.7221662,124.28772,-31.925675)"><path
       style="color:#000000;fill:#f39100;fill-opacity:1;stroke:#8cabff;stroke-width:3.6;stroke-miterlimit:2.1;stroke-dasharray:none;stroke-opacity:1"
       d="M 99.580078,1.8183594 C 76.072187,2.8195558 52.915824,12.066734 34.796875,29.359375 -1.4410231,63.944655 -6.4707117,120.16049 23.052734,160.62891 l 11.06836,-8.07422 C 8.5846918,117.5514 12.91177,69.186136 44.255859,39.271484 75.599948,9.3568314 124.11458,7.2903579 157.88867,34.431641 L 166.4707,23.751953 C 146.94705,8.0625032 123.08797,0.81716296 99.580078,1.8183594 Z"
       id="path2" /><path
       style="color:#000000;fill:#f39100;fill-opacity:1;stroke:#8cabff;stroke-width:3.6;stroke-miterlimit:2.1;stroke-dasharray:none;stroke-opacity:1"
       d="M 114.10742,40.208984 C 95.208698,40.053703 76.368695,46.997316 61.851562,60.714844 36.043327,85.10156 30.841702,124.34361 49.40625,154.61133 l 11.677734,-7.16211 C 45.865848,122.63751 50.103676,90.662686 71.259766,70.671875 92.415855,50.681064 124.57955,48.25947 148.49023,64.857422 l 7.8125,-11.253906 C 143.54149,44.745112 128.80643,40.329759 114.10742,40.208984 Z"
       id="path3" /><path
       style="color:#000000;fill:#f39100;fill-opacity:1;stroke:#8cabff;stroke-width:3.6;stroke-miterlimit:2.1;stroke-dasharray:none;stroke-opacity:1"
       d="M 124.32422,71.746094 C 110.66693,71.500009 97.083898,76.580329 86.828125,86.539062 70.418891,102.47304 66.239434,127.29147 76.525391,147.7207 l 12.236328,-6.16211 C 81.142039,126.42493 84.215383,108.17279 96.371094,96.369141 108.52681,84.565496 126.86238,82.02879 141.76562,90.089844 l 6.51758,-12.050782 c -7.54432,-4.080666 -15.76461,-6.145317 -23.95898,-6.292968 z"
       id="path4" /></g><g
     id="g1"
     transform="matrix(0.30306502,0,0,0.30306502,92.916671,139.48894)"><path
       id="rect25"
       style="fill:#ffffff;stroke-width:2;stroke-miterlimit:2.1"
       d="m -161.01785,44.60119 c 8.28453,-36.9449254 28.02532,-65.803083 70.492555,-78.619047 H 114.52679 310.50744 c 46.34922,7.544804 67.28885,39.0045157 79.56399,78.619047 v 81.64285 c -13.36509,42.80132 -38.0029,70.30396 -79.56399,74.83929 H 114.52679 -90.525295 C -140.1377,188.57256 -153.16621,158.64089 -161.01785,126.24404 Z"
       sodipodi:nodetypes="ccccccccccc" /><path
       style="fill:#000000"
       d="m -37.550089,-59.060476 c 17.933072,-19.066427 41.7252432,-35.884497 66.143929,-46.755434 22.521542,-10.02635 44.388451,-15.46829 70.643748,-17.58088 5.337322,-0.42945 23.237682,-0.42945 28.575002,0 26.25529,2.11259 48.1222,7.55453 70.64375,17.58088 24.41868,10.870937 48.21085,27.689007 66.14393,46.755434 l 3.23702,3.441605 H 113.52509 -40.787117 Z"
       id="path25" /><g
       id="g27"
       style="fill:#0046a4;fill-opacity:1"><path
         id="path15"
         style="fill:#0046a4;fill-opacity:1"
         d="m 113.52485,-37.79976 c -96.782406,0 -193.56542,0.130983 -195.923955,0.392741 -18.419595,2.044263 -34.469425,8.684307 -48.947915,20.250443 -3.40348,2.718859 -10.80953,10.1249056 -13.52837,13.5283737 -11.56614,14.4785073 -18.20618,30.5283193 -20.25045,48.9479163 -0.51286,4.62105 -0.51286,73.960216 0,78.581246 2.04427,18.41962 8.68431,34.46943 20.25045,48.94792 4.36435,5.46333 12.22001,12.81443 18.42316,17.23978 12.68961,9.05277 28.629436,15.0316 43.920834,16.47393 1.673484,0.15785 3.459427,0.32763 3.96875,0.37723 0.50932,0.0495 87.6038619,0.0744 193.542706,0.0553 180.98663,-0.0326 192.81635,-0.0621 195.92396,-0.49196 18.52052,-2.5617 33.39831,-8.86662 47.49271,-20.12591 3.40347,-2.71883 10.81002,-10.1249 13.52889,-13.52837 11.56614,-14.47849 18.20618,-30.5283 20.25044,-48.94792 0.51286,-4.62103 0.51286,-73.960196 0,-78.581246 -2.04671,-18.44165 -8.64934,-34.397823 -20.25406,-48.9479163 -2.70896,-3.3965075 -10.11477,-10.8039017 -13.52527,-13.5283737 -14.47852,-11.566136 -30.52833,-18.20618 -48.94792,-20.250443 -2.35854,-0.261758 -99.14153,-0.392741 -195.92396,-0.392741 z m 141.2875,9.531718 c 26.74698,0 53.4941,0.126005 55.43021,0.377755 12.75694,1.658764 23.26735,5.275243 33.60209,11.562085 20.0885,12.2202535 34.02513,32.699631 38.08087,55.959375 1.07574,6.169315 1.07746,6.253174 1.07746,45.111458 0,38.972479 0.004,38.835589 -1.09658,45.243749 -3.97733,23.16567 -18.27373,43.96847 -38.59092,56.15471 -9.74451,5.84477 -19.16604,9.13888 -31.76137,11.10475 -2.70342,0.42194 -11.64787,0.45463 -132.80946,0.48473 -71.45052,0.0177 -129.37464,-0.008 -128.719796,-0.0579 2.856819,-0.21592 8.056258,-0.95214 11.056172,-1.5658 31.876989,-6.52069 57.156704,-31.80072 63.662264,-63.66329 1.644,-8.05189 1.572,-6.09486 1.75545,-47.965552 0.17865,-40.777122 0.13571,-39.385527 1.43144,-46.157906 4.34741,-22.722616 18.16584,-42.6741283 37.84988,-54.648344 10.33475,-6.286842 20.84515,-9.903321 33.60209,-11.562085 1.93608,-0.25175 28.68324,-0.377755 55.4302,-0.377755 z M 74.348433,15.843994 c 2.33328,-0.03846 4.705727,0.453862 6.941179,1.562695 9.184261,4.555609 11.760112,15.843693 5.475118,23.992334 -2.001957,2.595587 -5.588224,4.81711 -8.914702,5.522144 -11.207052,2.375298 -21.086299,-7.503948 -18.711002,-18.711003 1.559532,-7.358141 8.209571,-12.250787 15.209407,-12.36617 z m -97.900484,3.143994 0.504362,1.656747 c 0.277478,0.910998 5.727228,19.723986 12.110372,41.80675 C -4.5541729,84.53425 0.73065041,102.60113 0.80666911,102.59994 0.8826878,102.59875 5.2230149,84.173807 10.451558,61.655668 15.680101,39.13753 20.061217,20.326511 20.187398,19.853569 l 0.229444,-0.859896 h 12.837459 c 12.10308,0 12.829898,0.0265 12.69845,0.463021 -0.07668,0.254661 -7.475404,28.383211 -16.441374,62.507812 -8.965969,34.124604 -16.480164,62.669874 -16.698206,63.433854 l -0.396358,1.38906 H 1.0691854 -10.278442 l -0.504362,-1.65364 c -0.277232,-0.9095 -6.022661,-20.67391 -12.767696,-43.92084 -6.745036,-23.246927 -12.33156,-42.267184 -12.41423,-42.267184 -0.08266,0 -5.668677,19.020257 -12.413712,42.267184 -6.745037,23.24693 -12.490464,43.01134 -12.767697,43.92084 l -0.504361,1.65364 h -10.948686 -10.949203 l -0.269751,-0.85989 c -0.148254,-0.47294 -7.793087,-29.07775 -16.98863,-63.566149 -9.19555,-34.488402 -16.77586,-62.855078 -16.84496,-63.036979 -0.0996,-0.261979 2.76523,-0.330729 13.78107,-0.330729 h 13.906125 l 0.230477,0.859896 c 0.126625,0.472942 4.269614,18.80776 9.206674,40.743766 4.93706,21.936006 9.039449,39.884935 9.116239,39.885935 0.0768,10e-4 5.568497,-18.303813 12.203906,-40.677618 l 12.06438,-40.679688 11.795146,-0.06873 z M 61.401937,59.210339 H 74.631104 87.86027 v 43.788541 43.78854 H 74.631104 61.401937 v -43.78854 z" /><g
         id="g26"
         inkscape:label="tm"
         style="display:none;fill:#0046a4;fill-opacity:1"><path
           style="fill:#0046a4;fill-opacity:1"
           d="m 404.83133,-27.31712 v -12.708665 l 2.93496,0.07481 2.93495,0.07481 4.01036,10.648586 c 2.20569,5.856722 4.06989,10.648171 4.14265,10.647663 0.0728,-5.07e-4 1.99817,-4.792371 4.27869,-10.648586 l 4.14641,-10.647663 2.66661,-0.0754 2.66662,-0.0754 v 12.709255 12.709256 h -1.85208 -1.85209 l -0.0125,-10.517187 -0.0125,-10.517188 -4.19375,10.451042 -4.19376,10.451042 h -1.76987 -1.76987 l -4.01187,-10.37739 -4.01187,-10.377389 -0.0692,10.443535 -0.0692,10.443535 h -1.98134 -1.98134 z"
           id="path24" /><path
           style="fill:#0046a4;fill-opacity:1"
           d="m 385.25216,-25.720955 v -11.1125 h -4.6302 -4.63021 v -1.5875 -1.5875 h 11.37708 11.37708 v 1.5875 1.5875 h -4.7625 -4.7625 v 11.1125 11.1125 h -1.98437 -1.98438 z"
           id="path23" /></g><path
         style="fill:#0046a4;fill-opacity:1"
         d="m 293.00837,46.515205 c -5.86462,-1.537494 -9.9832,-5.689723 -11.4909,-11.58478 -0.28112,-1.09919 -0.51114,-2.734342 -0.51114,-3.633672 0,-0.899329 0.23002,-2.534482 0.51114,-3.633672 1.52075,-5.946058 5.65084,-10.076898 11.5951,-11.597182 6.87656,-1.75873 14.24608,1.619571 17.55859,8.04913 1.03208,2.003268 1.82059,5.113706 1.82059,7.181724 0,1.995253 -0.77645,5.147532 -1.73706,7.052234 -3.27718,6.498026 -10.83813,9.977299 -17.74632,8.166218 z"
         id="path19" /><path
         style="fill:#0046a4;fill-opacity:1"
         d="M 283.38758,102.99884 V 59.210295 h 13.22917 13.22917 v 43.788545 43.78854 h -13.22917 -13.22917 z"
         id="path18" /><path
         style="fill:#0046a4;fill-opacity:1"
         d="M 168.55842,82.890503 V 18.993628 h 47.88958 47.88958 v 12.964584 12.964583 h -33.86666 -33.86667 v 12.964583 12.964583 h 31.75 31.75 v 12.964583 12.964584 h -31.75 -31.75 v 25.003122 25.00313 h -14.02291 -14.02292 z"
         id="path17" /></g><path
       style="fill:#000000"
       d="M 105.19071,292.94418 C 94.638358,292.29994 90.262617,291.89449 83.759464,290.95838 43.240709,285.12587 5.8382533,267.72524 -25.116575,240.3063 c -2.110052,-1.86903 -6.507155,-6.0839 -9.771341,-9.36639 l -5.934883,-5.96816 77.173944,-0.0666 c 42.445669,-0.0366 111.902215,-0.0366 154.347885,0 l 77.17394,0.0666 -5.93488,5.96816 c -12.79691,12.86866 -25.46427,22.91609 -40.06613,31.77941 -28.70271,17.42255 -59.37173,27.21237 -93.53021,29.85568 -3.63047,0.28094 -20.25427,0.54603 -23.15104,0.36918 z"
       id="path14" /><g
       id="g25"
       inkscape:label="alli"><path
         id="path12"
         style="fill:#000000"
         d="m -56.264266,244.36131 -27.426233,12.77958 c -15.084318,7.02874 -27.393601,12.85879 -27.354401,12.95529 0.0392,0.0965 1.94435,2.12711 4.23385,4.51238 l 4.16254,4.33669 5.49475,-2.74609 5.494239,-2.74608 7.457425,7.63881 7.45691,7.63932 -2.794662,5.38986 -2.794661,5.38933 4.325317,4.33152 c 2.378876,2.38216 4.412438,4.24406 4.518587,4.13773 0.106149,-0.10633 6.095004,-12.39451 13.308749,-27.30686 l 13.115995,-27.11307 -4.599202,-4.59921 z m -4.914429,14.17795 c 0.07044,0.0704 -2.281297,4.75031 -5.226554,10.39988 -2.945257,5.64958 -5.37312,10.29757 -5.39502,10.32857 -0.07865,0.11139 -10.201961,-10.12012 -10.201961,-10.311 0,-0.25327 20.654722,-10.58627 20.823535,-10.41745 z" /><path
         style="fill:#000000"
         d="m 275.11034,292.66984 c -10.44608,-11.58811 -18.95905,-21.09825 -18.91771,-21.13365 0.0413,-0.0354 7.02974,-6.33345 15.52977,-13.99567 8.50004,-7.66223 15.53536,-13.89803 15.63405,-13.85734 0.0987,0.0407 1.62838,1.68133 3.39931,3.64586 l 3.21986,3.57188 -0.86225,0.77775 c -0.47423,0.42777 -5.47592,4.93662 -11.11485,10.01968 -5.63893,5.08307 -10.2526,9.3579 -10.2526,9.49964 0,0.14173 1.68923,2.12178 3.75384,4.40011 2.06461,2.27832 3.83783,4.24279 3.94048,4.36548 0.10264,0.1227 4.81302,-3.96083 10.46751,-9.07451 l 10.28087,-9.29759 1.55098,1.66618 c 0.85304,0.91639 2.37123,2.57508 3.37376,3.68596 l 1.82279,2.01979 -10.18678,9.18416 c -5.60273,5.05129 -10.18679,9.29927 -10.18679,9.43996 0,0.14069 2.15831,2.63895 4.79625,5.55169 l 4.79624,5.2959 0.95845,-0.90897 c 0.52714,-0.49993 5.30422,-4.81318 10.61573,-9.58501 5.31151,-4.77183 10.14525,-9.1417 10.74163,-9.71082 l 1.08435,-1.03476 3.48414,3.83844 3.48414,3.83844 -15.91579,14.36736 c -8.75368,7.90205 -16.04825,14.39706 -16.21015,14.43335 -0.1619,0.0363 -8.84115,-9.41519 -19.28723,-21.00331 z"
         id="path11" /><path
         style="fill:#000000"
         d="m -38.478033,332.12373 c -10.544086,-6.64752 -16.92106,-10.82255 -16.900806,-11.06503 0.0324,-0.38797 29.230605,-47.0935 29.849464,-47.7473 0.263683,-0.27857 1.261299,0.2414 5.265405,2.74438 l 4.940085,3.08807 -0.587443,0.95978 c -0.323093,0.52788 -5.91973,9.45898 -12.43697,19.84688 -6.517239,10.3879 -11.849526,18.98012 -11.849526,19.09382 0,0.1137 5.268515,3.50491 11.707812,7.53602 6.439296,4.0311 11.857509,7.46931 12.040472,7.64047 0.263257,0.24627 -0.205945,1.17648 -2.248958,4.45863 -1.41989,2.28109 -2.64115,4.14124 -2.71391,4.13367 -0.07276,-0.008 -7.752292,-4.8178 -17.065625,-10.68939 z"
         id="path10" /><path
         style="fill:#000000"
         d="m 237.75726,344.93057 c -6.33239,-0.92256 -12.13446,-4.43968 -16.70455,-10.12603 -5.69493,-7.08594 -9.36721,-16.41223 -9.36721,-23.78939 0,-10.949 5.89961,-19.08875 17.07021,-23.55194 7.36569,-2.94294 13.89287,-2.6448 20.16436,0.92106 2.1012,1.1947 5.95111,4.60971 6.75502,5.99194 l 0.46562,0.8006 -1.39166,0.78078 c -3.08782,1.73239 -8.89582,4.81729 -9.06961,4.81729 -0.10195,0 -0.85691,-0.6148 -1.67768,-1.36622 -4.00636,-3.66787 -8.58543,-4.10445 -13.92772,-1.32791 -8.6743,4.50829 -8.97392,15.38506 -0.76697,27.84243 3.90595,5.92886 9.6159,9.08242 14.95001,8.25678 4.09764,-0.63426 8.13822,-3.47756 9.83402,-6.92008 0.80555,-1.63528 0.85378,-1.89795 0.85378,-4.65024 0,-1.60438 -0.0935,-3.46161 -0.20766,-4.12719 l -0.20765,-1.21013 5.23473,-2.81222 5.23474,-2.81222 0.32468,0.93602 c 1.32672,3.82485 1.60585,9.74083 0.64502,13.67071 -1.7409,7.1204 -6.02602,12.18485 -13.44639,15.89186 -5.07695,2.5363 -10.04108,3.47233 -14.76509,2.7841 z"
         id="path9" /><path
         style="fill:#000000"
         d="m 17.349049,358.84593 c -10.1864581,-3.69223 -18.6171758,-6.75172 -18.7349283,-6.79888 -0.2081095,-0.0833 18.7321503,-53.04636 19.1205633,-53.4672 0.313941,-0.34015 11.006523,3.66668 10.907018,4.08718 -0.04644,0.19624 -3.596333,10.10809 -7.888658,22.02633 -5.565894,15.45448 -7.713841,21.72538 -7.489083,21.86429 0.173329,0.10713 6.193772,2.30893 13.378761,4.8929 7.238885,2.60335 13.063618,4.83777 13.063618,5.01133 0,0.2654 -1.004086,3.13442 -2.803809,8.01143 -0.228226,0.61847 -0.553938,1.11577 -0.723803,1.10512 -0.169865,-0.0106 -8.643221,-3.04028 -18.829679,-6.7325 z"
         id="path8" /><path
         style="fill:#000000"
         d="m 61.068189,370.2616 c -4.824611,-0.88105 -5.738218,-1.1191 -5.636265,-1.46859 0.06692,-0.2294 2.399657,-12.79922 5.183856,-27.93294 2.784198,-15.13371 5.103663,-27.55733 5.154365,-27.60803 0.135953,-0.13595 11.074188,1.87168 11.318107,2.07735 0.198456,0.16734 -9.694225,54.72093 -10.077621,55.57345 -0.162182,0.36063 -0.881006,0.28306 -5.942442,-0.64124 z"
         id="path7" /><path
         style="fill:#000000"
         d="m 162.63666,371.74935 c -0.0751,-0.25466 -3.12653,-12.54786 -6.7809,-27.31822 -3.65437,-14.77037 -6.69963,-27.04798 -6.76724,-27.28358 -0.10245,-0.35701 0.87276,-0.67744 5.85383,-1.92346 3.28722,-0.8223 6.09069,-1.42468 6.22993,-1.33862 0.13925,0.0861 7.06129,7.36859 15.38231,16.1834 8.32103,8.81482 15.16136,15.92027 15.20074,15.78991 0.0394,-0.13037 -1.99873,-8.5714 -4.52913,-18.75786 -2.5304,-10.18646 -4.52136,-18.59396 -4.42436,-18.68333 0.29777,-0.27434 10.37283,-2.69383 10.53638,-2.53027 0.16906,0.16905 13.89081,55.26967 13.7837,55.34935 -0.0366,0.0273 -2.61364,0.68095 -5.72665,1.45265 -3.61259,0.89555 -5.77838,1.31646 -5.98724,1.16359 -0.17997,-0.13172 -7.26135,-7.59735 -15.7364,-16.59029 -8.47505,-8.99294 -15.45659,-16.30339 -15.51455,-16.24543 -0.058,0.0579 2.02879,8.7255 4.6372,19.26122 2.60842,10.53571 4.70218,19.19726 4.6528,19.24789 -0.0921,0.0945 -10.168,2.66725 -10.49323,2.67935 -0.0993,0.004 -0.24207,-0.20163 -0.31719,-0.4563 z"
         id="path6" /><path
         id="path1"
         style="fill:#000000"
         d="m 107.50868,318.22864 -10.593665,28.2484 -10.594186,28.24892 2.159042,0.20413 c 1.187396,0.11229 3.99564,0.17189 6.240962,0.13229 l 4.082438,-0.0718 2.033989,-5.82084 2.03398,-5.82083 9.09712,0.0765 c 5.00345,0.0421 9.71931,0.1445 10.47946,0.2279 l 1.38183,0.15192 0.65164,2.15284 c 0.35826,1.18425 1.15645,3.84766 1.77405,5.91851 l 1.12293,3.76514 5.57485,0.077 c 3.06618,0.0422 5.96181,0.10364 6.43475,0.13694 0.47294,0.0333 0.85233,-0.0283 0.84233,-0.13746 -0.01,-0.10914 -4.32569,-13.0572 -9.59115,-28.77344 l -9.57357,-28.575 -6.7784,-0.0708 z m 6.58616,13.58677 c 0.18943,0.34091 6.57376,21.41706 6.57376,21.70151 0,0.24378 -14.2857,0.22008 -14.2937,-0.0238 -0.0205,-0.60838 7.57542,-21.93782 7.71994,-21.67774 z" /></g></g></svg>
