<?xml version="1.0" encoding="UTF-8" standalone="no"?>
<!-- Created with Inkscape (http://www.inkscape.org/) -->

<svg
   width="256mm"
   height="256mm"
   viewBox="0 0 256 256"
   version="1.1"
   id="svg1"
   inkscape:version="1.3.2 (091e20ef0f, 2023-11-25)"
   sodipodi:docname="inode-vnd.kde.service.giver.svg"
   xml:space="preserve"
   xmlns:inkscape="http://www.inkscape.org/namespaces/inkscape"
   xmlns:sodipodi="http://sodipodi.sourceforge.net/DTD/sodipodi-0.dtd"
   xmlns:xlink="http://www.w3.org/1999/xlink"
   xmlns="http://www.w3.org/2000/svg"
   xmlns:svg="http://www.w3.org/2000/svg"
   xmlns:rdf="http://www.w3.org/1999/02/22-rdf-syntax-ns#"
   xmlns:cc="http://creativecommons.org/ns#"
   xmlns:dc="http://purl.org/dc/elements/1.1/"><defs
     id="defs1"><linearGradient
       id="linearGradient32"
       inkscape:collect="always"><stop
         style="stop-color:#ffffff;stop-opacity:0.39331624;"
         offset="0"
         id="stop32" /><stop
         style="stop-color:#d3d3d3;stop-opacity:1;"
         offset="0.33309257"
         id="stop34" /><stop
         style="stop-color:#848484;stop-opacity:1;"
         offset="0.48491174"
         id="stop35" /><stop
         style="stop-color:#171717;stop-opacity:0.12339332;"
         offset="0.75718302"
         id="stop36" /><stop
         style="stop-color:#848484;stop-opacity:1;"
         offset="1"
         id="stop33" /></linearGradient><linearGradient
       id="linearGradient31"
       inkscape:collect="always"><stop
         style="stop-color:#464646;stop-opacity:1;"
         offset="0"
         id="stop30" /><stop
         style="stop-color:#959595;stop-opacity:1;"
         offset="1"
         id="stop31" /></linearGradient><linearGradient
       id="linearGradient26"
       inkscape:collect="always"><stop
         style="stop-color:#4f4f4f;stop-opacity:1;"
         offset="0"
         id="stop26" /><stop
         style="stop-color:#9a9a9a;stop-opacity:0.75686276;"
         offset="0.34818503"
         id="stop28" /><stop
         style="stop-color:#a4a4a4;stop-opacity:0.51670951;"
         offset="1"
         id="stop27" /></linearGradient><linearGradient
       id="linearGradient24"
       inkscape:collect="always"><stop
         style="stop-color:#666666;stop-opacity:1;"
         offset="0"
         id="stop24" /><stop
         style="stop-color:#959595;stop-opacity:1;"
         offset="1"
         id="stop25" /></linearGradient><linearGradient
       id="linearGradient21"
       inkscape:collect="always"><stop
         style="stop-color:#a4a4a4;stop-opacity:0.41645244;"
         offset="0"
         id="stop21" /><stop
         style="stop-color:#383838;stop-opacity:1;"
         offset="1"
         id="stop22" /></linearGradient><linearGradient
       id="linearGradient19"
       inkscape:collect="always"><stop
         style="stop-color:#848484;stop-opacity:1;"
         offset="0"
         id="stop19" /><stop
         style="stop-color:#000000;stop-opacity:1;"
         offset="1"
         id="stop20" /></linearGradient><linearGradient
       inkscape:collect="always"
       xlink:href="#linearGradient19"
       id="linearGradient20"
       x1="131.98192"
       y1="114.49994"
       x2="131.98192"
       y2="144.83252"
       gradientUnits="userSpaceOnUse" /><linearGradient
       inkscape:collect="always"
       xlink:href="#linearGradient21"
       id="linearGradient22"
       x1="126.50126"
       y1="113.64949"
       x2="125.74152"
       y2="132.31207"
       gradientUnits="userSpaceOnUse" /><linearGradient
       inkscape:collect="always"
       xlink:href="#linearGradient24"
       id="linearGradient25"
       x1="137.43755"
       y1="124.90466"
       x2="151.75757"
       y2="120.0604"
       gradientUnits="userSpaceOnUse" /><linearGradient
       inkscape:collect="always"
       xlink:href="#linearGradient26"
       id="linearGradient27"
       x1="137.17023"
       y1="120.62798"
       x2="151.32278"
       y2="114.61441"
       gradientUnits="userSpaceOnUse" /><linearGradient
       inkscape:collect="always"
       xlink:href="#linearGradient31"
       id="linearGradient29"
       gradientUnits="userSpaceOnUse"
       x1="137.43755"
       y1="124.90466"
       x2="151.75757"
       y2="120.0604" /><linearGradient
       inkscape:collect="always"
       xlink:href="#linearGradient26"
       id="linearGradient30"
       gradientUnits="userSpaceOnUse"
       x1="137.17023"
       y1="120.62798"
       x2="151.32278"
       y2="114.61441" /><linearGradient
       inkscape:collect="always"
       xlink:href="#linearGradient32"
       id="linearGradient33"
       x1="132.72722"
       y1="113.53235"
       x2="132.72722"
       y2="114.23595"
       gradientUnits="userSpaceOnUse"
       gradientTransform="matrix(1,0,0,1.9264604,0,-105.29813)" /></defs><sodipodi:namedview
     id="base"
     pagecolor="#ffffff"
     bordercolor="#000000"
     borderopacity="0.3"
     inkscape:pageopacity="0.0"
     inkscape:pageshadow="2"
     inkscape:zoom="0.98994949"
     inkscape:cx="505.07627"
     inkscape:cy="476.792"
     inkscape:document-units="mm"
     inkscape:showpageshadow="2"
     inkscape:pagecheckerboard="0"
     inkscape:deskcolor="#d1d1d1"
     inkscape:current-layer="svg1" /><metadata
     id="metadata1"><rdf:RDF><cc:Work
         rdf:about=""><dc:format>image/svg+xml</dc:format><dc:type
           rdf:resource="http://purl.org/dc/dcmitype/StillImage" /><cc:license
           rdf:resource="http://creativecommons.org/publicdomain/zero/1.0/" /></cc:Work><cc:License
         rdf:about="http://creativecommons.org/publicdomain/zero/1.0/"><cc:permits
           rdf:resource="http://creativecommons.org/ns#Reproduction" /><cc:permits
           rdf:resource="http://creativecommons.org/ns#Distribution" /><cc:permits
           rdf:resource="http://creativecommons.org/ns#DerivativeWorks" /></cc:License></rdf:RDF></metadata><g
     id="g2"
     transform="matrix(3.104908,0,0,3.104908,-211.1444,2.2804574)"
     style="fill:#0f80d0;fill-opacity:1"><path
       id="path4154"
       d="m 109.67579,0.02116778 c -3.08041,0.0047401 -6.14334,0.39186083 -9.13648,1.11070342 -3.708852,0.8948359 -7.258001,2.3920065 -10.626697,4.1714199 2.443886,0.6735512 4.001056,3.2845788 3.826156,5.7650859 0.06197,2.682967 0.123941,5.365935 0.185912,8.048902 3.529216,-2.976926 8.072929,-4.465674 12.575259,-5.176266 4.81962,-0.602987 9.83507,0.0091 14.23902,2.112589 3.71562,1.694582 6.84452,4.424664 9.55711,7.435467 -1.05551,0.627614 -1.9054,1.905711 -1.29035,3.120978 0.5833,1.415635 2.35938,1.292282 3.58927,1.78122 4.37467,1.182652 8.72169,2.497251 13.11353,3.598052 1.55397,0.102484 2.69517,-1.595293 2.1779,-3.021435 -0.85472,-4.947749 -1.60331,-9.922498 -2.52353,-14.853615 -0.55496,-1.488919 -2.68393,-1.839921 -3.69911,-0.636755 -0.63419,0.682602 -1.25472,1.189386 -1.75076,0.09431 C 136.25424,9.3686997 131.62579,6.0321317 126.5594,3.7260637 121.26873,1.3286519 115.50564,-0.10192723 109.67579,0.02116778 Z"
       style="fill:#0f80d0;fill-opacity:1" /><path
       id="path4162"
       d="m 134.82659,32.581988 c 1.04427,6.144338 0.90725,12.781714 -2.09293,18.391717 -1.63107,2.998217 -3.86169,5.661561 -6.62304,7.682782 -3.96513,2.966438 -8.74575,4.843562 -13.64935,5.472922 -1.14766,-0.0079 -1.1634,-0.576325 -1.12125,-1.536391 0.16048,-1.747182 -2.01083,-2.914936 -3.4321,-1.938386 -4.38244,2.824804 -8.838816,5.57379 -13.175404,8.445566 -1.174134,1.0427 -0.674403,3.014224 0.731593,3.610491 1.887384,1.058391 3.670391,2.50996 5.591151,3.625616 2.80741,1.630661 6.72392,4.902302 8.65208,4.47293 1.3905,-0.198278 1.91655,-1.697203 1.70432,-2.932288 6.85955,-0.07632 13.69068,-2.046075 19.46847,-5.759689 6.55153,-4.113957 11.82965,-10.206424 15.11919,-17.197686 2.13316,-4.636207 3.48274,-9.654372 3.56603,-14.773806 0.0425,-1.979479 -0.075,-3.967646 -0.38503,-5.922952 -1.80553,1.394454 -4.27389,1.347449 -6.32987,0.572058 -2.67456,-0.737615 -5.3496,-1.475333 -8.02386,-2.212884 z"
       sodipodi:nodetypes="ccccccccacccccccc"
       style="fill:#0f80d0;fill-opacity:1" /><path
       id="path4156"
       d="m 87.811469,8.320162 c -1.709531,0.4800948 -3.245251,1.5097984 -4.886705,2.205479 -3.355228,1.645682 -6.763504,3.202821 -10.086313,4.902632 -0.964743,0.753372 -1.124865,2.177222 -0.279517,3.077667 0.730919,0.753777 1.756253,1.132203 2.613496,1.72282 -3.8463,6.090285 -5.291412,13.474759 -4.838245,20.609089 0.333737,5.462437 1.826825,10.854953 4.309492,15.729095 3.465256,6.616851 8.76983,12.285954 15.268931,15.990983 0.812137,0.26325 1.566241,0.581188 1.110644,-0.536944 -0.194973,-1.851437 -0.377016,-4.105663 1.25522,-5.396214 2.20463,-1.723939 4.700241,-3.058385 7.034107,-4.604737 C 94.507136,60.104608 90.682629,56.288955 87.991341,51.943043 85.80103,48.429532 84.510078,44.368103 84.281912,40.229202 83.999366,35.778055 85.09175,31.3457 86.975234,27.33159 88.349978,28.455318 90.719621,27.256841 90.50781,25.459312 90.369944,20.282001 90.371097,15.095069 90.145447,9.9238334 89.750261,8.962967 88.906238,8.2581556 87.811469,8.320162 Z"
       style="fill:#0f80d0;fill-opacity:1" /></g><g
     id="g32"
     style="display:inline"
     transform="matrix(3.4122083,0,0,3.4122083,-321.52082,-291.42776)"><g
       id="g22"
       style="display:inline"><g
         id="g19"
         style="display:inline"><path
           style="color:#000000;display:inline;fill:#f3f3f3;fill-opacity:1;stroke-miterlimit:2.1;-inkscape-stroke:none"
           d="m 115.12249,111.58126 -17.953868,27.86396 72.232228,0.37798 -18.14286,-28.29205 z m 2.56657,2.16092 31.09609,-0.11812 12.54409,22.28526 -56.14242,-0.0884 z"
           id="rect1"
           sodipodi:nodetypes="cccccccccc" /><path
           id="rect2"
           style="display:inline;fill:#fdc676;stroke-width:5.42499;stroke-miterlimit:2.1"
           d="m 144.05104,111.56088 0.88068,2.13037 3.28714,0.0667 -1.06465,-2.19703 z m -24.84616,-3.3e-4 -1.19296,2.24956 3.59718,0.0333 0.95888,-2.28281 z m 6.22191,0 -0.29076,2.24956 3.54707,0.0667 0.10731,-2.31622 z m 6.25976,-0.0167 0.005,2.2306 3.28714,0.0672 -0.18912,-2.29778 z m 6.25045,-0.0167 0.44008,2.2473 3.28714,0.0672 -0.62405,-2.31448 z m 14.59611,2.03801 -3.77165,0.0501 1.22687,2.18074 3.99349,0.0165 z m -34.84727,0.34417 -4.09543,0.0351 -1.65313,2.57917 4.2794,0.0311 z m 37.50322,3.73155 -4.19772,0.017 1.5658,2.69803 h 4.37321 z m -40.68479,1.71411 -4.41974,0.014 -1.81591,2.83238 4.56274,0.0593 z m 44.14525,3.71967 -4.55682,0.0176 1.57665,2.85874 h 4.86348 z m -47.64493,2.59416 -5.0129,0.0648 -2.07016,3.22978 5.24287,0.0183 z m 51.379,3.19323 -5.02834,0.0458 1.97146,3.53984 h 5.31816 z m -55.22114,3.45545 -5.41842,0.008 -2.173537,3.36332 5.638047,0.0825 -2.3393,3.69575 6.28253,0.0748 2.00077,-3.82421 -5.89645,0.0284 z m 9.39994,3.46181 -1.17667,3.78607 6.15311,0.0336 0.99219,-3.75303 z m 10.80761,0 -0.14056,3.86622 6.16965,0.004 -0.0599,-3.80094 z m 11.77655,0.14197 0.22685,3.72052 5.81024,0.0665 -0.45242,-3.81048 z m 11.40437,0.0167 1.18955,3.78649 5.21828,0.0202 -1.41459,-3.82144 z m 16.40293,0.009 -5.59109,0.007 2.07946,3.84931 5.96715,0.0472 z"
           sodipodi:nodetypes="cccccccccccccccccccccccccccccccccccccccccccccccccccccccccccccccccccccccccccccccccccccccccccccc" /></g><g
         id="rect19"><path
           style="color:#000000;fill:url(#linearGradient20);stroke-miterlimit:2.1;-inkscape-stroke:none"
           d="m 117.92857,114.00706 h 30.41802 V 135.876 l -30.41802,-0.0668 z"
           id="path23"
           sodipodi:nodetypes="ccccc" /><path
           id="path24"
           style="color:#000000;fill:url(#linearGradient22);stroke-miterlimit:2.1;-inkscape-stroke:none"
           d="m 117.6662,113.74396 v 22.02892 l 0.52504,0.009 v -21.51191 h 29.89274 v 21.6274 l 0.52555,-0.0183 v -22.13464 z"
           sodipodi:nodetypes="ccccccccc" /></g></g><g
       id="g31"
       style="display:inline"><path
         id="rect31"
         style="display:inline;fill:url(#linearGradient33);stroke-width:0.506202;stroke-miterlimit:2.1"
         d="m 117.632,113.65637 h 31.15361 l -0.15034,1.21571 H 117.632 Z"
         sodipodi:nodetypes="ccccc" /><g
         id="rect24"><path
           style="color:#000000;fill:url(#linearGradient25);stroke-miterlimit:2.1;-inkscape-stroke:none"
           d="m 137.6104,120.07083 11.15849,-6.11379 12.6619,21.94951 -22.18337,0.004 z"
           id="path25"
           sodipodi:nodetypes="ccccc" /><path
           id="path26"
           style="color:#000000;fill:url(#linearGradient27);stroke-miterlimit:2.1;-inkscape-stroke:none"
           d="m 148.83019,113.73828 -11.39258,6.24199 1.64408,15.93754 h 0.32711 l -1.62548,-15.75564 10.92388,-5.98619 12.28349,21.29637 h 0.37775 z"
           sodipodi:nodetypes="ccccccccc" /></g><g
         id="g29"
         transform="matrix(-1,0,0,1,266.64593,-0.14174108)"><path
           style="color:#000000;fill:url(#linearGradient29);stroke-miterlimit:2.1;-inkscape-stroke:none"
           d="m 137.6104,120.07083 11.15849,-6.11379 12.6619,21.94951 -22.18337,0.16705 z"
           id="path28"
           sodipodi:nodetypes="ccccc" /><path
           id="path29"
           style="color:#000000;fill:url(#linearGradient30);stroke-miterlimit:2.1;-inkscape-stroke:none"
           d="m 148.93877,113.84686 -11.50116,6.13341 1.64408,15.99322 h 0.32711 l -1.62548,-15.81132 10.92388,-5.98619 12.28349,21.29637 h 0.37775 z"
           sodipodi:nodetypes="ccccccccc" /></g></g></g><text
     xml:space="preserve"
     style="font-style:normal;font-variant:normal;font-weight:normal;font-stretch:normal;font-size:5.29167px;line-height:0.7;font-family:'Source Code Pro';-inkscape-font-specification:'Source Code Pro';letter-spacing:0px;word-spacing:0px;fill:#8b8b8b;fill-opacity:1;stroke:none;stroke-width:5.42499;stroke-miterlimit:2.1"
     x="1.6036175"
     y="253.10423"
     id="text1"><tspan
       sodipodi:role="line"
       id="tspan1"
       style="fill:#8b8b8b;fill-opacity:1;stroke:none;stroke-width:5.425"
       x="1.6036175"
       y="253.10423">https://code.google.com/archive/p/giver/</tspan></text><text
     xml:space="preserve"
     style="font-style:normal;font-variant:normal;font-weight:normal;font-stretch:normal;font-size:52.9167px;line-height:0.7;font-family:'Liberation Sans';-inkscape-font-specification:'Liberation Sans';letter-spacing:0px;word-spacing:0px;fill:#848484;fill-opacity:1;stroke:none;stroke-width:2.025;stroke-miterlimit:2.1;stroke-dasharray:none;stroke-opacity:1"
     x="47.039436"
     y="238.93895"
     id="text36"><tspan
       sodipodi:role="line"
       id="tspan36"
       style="font-style:normal;font-variant:normal;font-weight:bold;font-stretch:normal;font-size:52.9167px;font-family:'Liberation Sans';-inkscape-font-specification:'Liberation Sans Bold';fill:#000000;fill-opacity:1;stroke:#8fc600;stroke-width:2.025;stroke-dasharray:none;stroke-opacity:1"
       x="47.039436"
       y="238.93895">GIVER</tspan></text></svg>
