<?xml version="1.0" encoding="UTF-8" standalone="no"?>
<!-- Created with Inkscape (http://www.inkscape.org/) -->

<svg
   width="256"
   height="256"
   viewBox="0 0 256.00001 256"
   overflow="visible"
   enable-background="new 0 0 128.583 128"
   xml:space="preserve"
   id="svg1"
   sodipodi:version="0.32"
   inkscape:version="1.3.2 (091e20ef0f, 2023-11-25)"
   sodipodi:docname="inode-socket.svg"
   version="1.1"
   xmlns:inkscape="http://www.inkscape.org/namespaces/inkscape"
   xmlns:sodipodi="http://sodipodi.sourceforge.net/DTD/sodipodi-0.dtd"
   xmlns:xlink="http://www.w3.org/1999/xlink"
   xmlns="http://www.w3.org/2000/svg"
   xmlns:svg="http://www.w3.org/2000/svg"
   xmlns:rdf="http://www.w3.org/1999/02/22-rdf-syntax-ns#"
   xmlns:cc="http://creativecommons.org/ns#"
   xmlns:a="http://ns.adobe.com/AdobeSVGViewerExtensions/3.0/">
  <defs
   id="defs240"><linearGradient
   id="linearGradient3"
   inkscape:collect="always"><stop
     style="stop-color:#868686;stop-opacity:0.68549621;"
     offset="0"
     id="stop4" /><stop
     style="stop-color:#b4b4b4;stop-opacity:0.75294118;"
     offset="0.8825224"
     id="stop6" /><stop
     style="stop-color:#e0e0e0;stop-opacity:1;"
     offset="0.89993298"
     id="stop9" /><stop
     style="stop-color:#f7f7f7;stop-opacity:0.57191199;"
     offset="1"
     id="stop5" /></linearGradient><linearGradient
   id="linearGradient1"
   inkscape:collect="always"><stop
     style="stop-color:#94a7fe;stop-opacity:0.996939;"
     offset="0"
     id="stop1" /><stop
     style="stop-color:#dad6fe;stop-opacity:0.99607843;"
     offset="0.5"
     id="stop3" /><stop
     style="stop-color:#e3d2fe;stop-opacity:1;"
     offset="1"
     id="stop2" /></linearGradient>
    <linearGradient
   id="XMLID_2_"
   gradientUnits="userSpaceOnUse"
   x1="57.2827"
   y1="102.5938"
   x2="57.2827"
   y2="14.7341"><stop
   offset="0"
   style="stop-color:#9E9E9E"
   id="stop27" />
<stop
   offset="1"
   style="stop-color:#616161"
   id="stop29" />
</linearGradient>
    <linearGradient
   id="XMLID_3_"
   gradientUnits="userSpaceOnUse"
   x1="56.334499"
   y1="71.911102"
   x2="60.592602"
   y2="-37.4884"><stop
   offset="0.0337"
   style="stop-color:#FFFFFF"
   id="stop36" />
<stop
   offset="1"
   style="stop-color:#B3B3B3"
   id="stop38" />
</linearGradient>
    <linearGradient
   id="XMLID_4_"
   gradientUnits="userSpaceOnUse"
   x1="41.5425"
   y1="31.7861"
   x2="116.5705"
   y2="106.8136"><stop
   offset="0.0337"
   style="stop-color:#e3f6ff;stop-opacity:1;"
   id="stop45" />
<stop
   offset="1"
   style="stop-color:#8776a0;stop-opacity:1;"
   id="stop47" />
</linearGradient>
    <linearGradient
   id="XMLID_5_"
   gradientUnits="userSpaceOnUse"
   x1="23.288528"
   y1="-6.4724555"
   x2="47.723854"
   y2="92.260117"><stop
   offset="0"
   style="stop-color:#d4fdff;stop-opacity:1;"
   id="stop54" />
<stop
   offset="1"
   style="stop-color:#8196c3;stop-opacity:0.33333334;"
   id="stop56" />
</linearGradient>
    <radialGradient
   id="XMLID_6_"
   cx="-15.519"
   cy="98.195297"
   r="59.012402"
   fx="-15.519"
   fy="98.195297"
   gradientTransform="matrix(1.0388,0,0,1,70.0961,0)"
   gradientUnits="userSpaceOnUse"><stop
   offset="0.00000000"
   style="stop-color:#858585;stop-opacity:1;"
   id="stop63" />
<stop
   offset="1"
   style="stop-color:#ece3ff;stop-opacity:1;"
   id="stop65" />
</radialGradient>
    <linearGradient
   id="XMLID_7_"
   gradientUnits="userSpaceOnUse"
   x1="57.213402"
   y1="62.305698"
   x2="57.213402"
   y2="-27.247601"><stop
   offset="0"
   style="stop-color:#CCCCCC"
   id="stop72" />
<stop
   offset="1"
   style="stop-color:#979797;stop-opacity:1;"
   id="stop74" />
</linearGradient>
    <linearGradient
   id="XMLID_8_"
   gradientUnits="userSpaceOnUse"
   x1="57.292"
   y1="-9.0747004"
   x2="57.292"
   y2="50.440399"><stop
   offset="0"
   style="stop-color:#484848;stop-opacity:1;"
   id="stop83" /><stop
   offset="0.45298776"
   style="stop-color:#a3a3a3;stop-opacity:0.49803922;"
   id="stop7" /><stop
   offset="0.60896331"
   style="stop-color:#d1d1d1;stop-opacity:0.24705882;"
   id="stop8" />
<stop
   offset="1"
   style="stop-color:#ffffff;stop-opacity:0.4887805;"
   id="stop85" />
</linearGradient>
  <linearGradient
   inkscape:collect="always"
   xlink:href="#linearGradient1"
   id="linearGradient2"
   x1="40.074165"
   y1="29.013208"
   x2="84.013748"
   y2="62.961521"
   gradientUnits="userSpaceOnUse" /><linearGradient
   inkscape:collect="always"
   xlink:href="#linearGradient3"
   id="linearGradient5"
   x1="73.497719"
   y1="73.970329"
   x2="87.079285"
   y2="61.382351"
   gradientUnits="userSpaceOnUse" /></defs>
  <sodipodi:namedview
   id="base"
   pagecolor="#ffffff"
   bordercolor="#666666"
   borderopacity="1.0"
   inkscape:pageopacity="0.0"
   inkscape:pageshadow="2"
   inkscape:zoom="2.4559706"
   inkscape:cx="146.78514"
   inkscape:cy="114.00788"
   inkscape:window-width="640"
   inkscape:window-height="497"
   inkscape:window-x="0"
   inkscape:window-y="48"
   inkscape:showpageshadow="2"
   inkscape:pagecheckerboard="0"
   inkscape:deskcolor="#d1d1d1"
   inkscape:current-layer="g1374"
   showguides="true" />
  <g
   id="g1374"
   transform="matrix(2.1828807,0,0,2.1828807,3.257368,20.907048)">
    
    <g
   id="g1340"><path
   fill="url(#XMLID_2_)"
   d="M 11.535,1.521 C 0.75648183,1.521 0,2.8089102 0,12.626 l 0,73.230298 c 0,6.125 0.03105348,7.674702 6.3910535,7.674702 l 101.7664965,0 c 6.365,0 6.40745,-2.274327 6.40745,-8.399327 V 9.6583385 c 0,-6.124 -1.34701,-8.1318382 -7.71201,-8.1363385 L 13.579389,1.456052 M 2.743,82.427 V 12.626 c 0,-4.667 3.944,-8.463 8.792,-8.463 h 91.493 c 4.852,0 8.793,3.796 8.793,8.463 v 69.801 c 0,4.666 -3.941,8.464 -8.793,8.464 H 11.535 c -4.848,0 -8.792,-3.798 -8.792,-8.464 z"
   id="path32"
   style="font-size:12px;fill:url(#XMLID_2_)"
   sodipodi:nodetypes="cssssssscsssssssss" />
<path
   fill="url(#XMLID_3_)"
   d="m 113.194,86.064319 c 0,5.403 -0.25883,6.145681 -5.87583,6.145681 l -98.4210913,0 C 3.2860787,92.21 1.373,91.259298 1.373,85.856298 l 0,-75.8682193 C 1.373,5.243559 1.5044818,2.84 7.446222,2.84 h 99.340818 c 5.617,0 6.40696,1.8100267 6.40696,7.214027 z"
   id="path41"
   style="font-size:12px;fill:url(#XMLID_3_)"
   sodipodi:nodetypes="sssssssss" />
<path
   fill="url(#XMLID_4_)"
   d="m 112.102,85.17979 c 0,5.258 -2.09638,6.06321 -7.55338,6.06321 l -94.309957,0 c -5.46,0 -7.775663,-0.958598 -7.775663,-6.216598 l 0,-73.815739 C 2.463,3.1208976 2.404534,3.806 12.349,3.806 h 93.1664 c 5.457,0 6.5876,1.8858708 6.5876,7.140871 v 67.051545 z"
   id="path50"
   style="font-size:12px;fill:url(#XMLID_4_)"
   sodipodi:nodetypes="cssssssscc" />
<path
   fill="url(#XMLID_5_)"
   a:adobe-blending-mode="screen"
   d="m 104.98625,4.72 -95.8746123,0 C 3.8496377,4.72 4.205,5.8563385 4.205,10.920339 V 71.346 c 6.92,1.216 32.315,5.514 50.616,-18.229 21.825,-28.321 48.302,-25.004 56.196,-26.978 l 0,-14.756025 C 111.016,6.3179748 110.24425,4.72 104.98625,4.72 Z"
   id="path59"
   style="font-size:12px;fill:url(#XMLID_5_)"
   sodipodi:nodetypes="sssccccs" />
<path
   fill="url(#XMLID_6_)"
   d="M 102.553,81.471 H 11.77 V 13.595 h 90.784 v 67.876 z"
   id="path68"
   style="font-size:12px;fill:url(#XMLID_6_)" />
<path
   fill="url(#XMLID_7_)"
   d="M 102.657,13.566 H 11.77 v 67.741 h 1.524 V 15.073 h 89.363 z"
   id="path77"
   style="font-size:12px;fill:url(#XMLID_7_)" />
<path
   fill="#FFFFFF"
   d="M 101.278,13.561 V 79.945 H 11.763 v 1.504 h 89.515 v 0.044 h 1.521 V 13.561 Z"
   id="path79"
   style="font-size:12px;fill:#e8e8e8;fill-opacity:1" />
<path
   fill="url(#XMLID_8_)"
   a:adobe-blending-mode="screen"
   d="m 14.431,27.729 c 0,13.95 20.489,25.263 45.762,25.263 25.278,0 39.959,-11.313 39.959,-25.263 0,-4.66 -2.299,-9.021 -6.291,-12.773 H 20.715 c -3.99,3.752 -6.284,8.114 -6.284,12.773 z"
   id="path88"
   style="font-size:12px;fill:url(#XMLID_8_)" />
</g>
    
    
  <g
   id="g13"
   transform="matrix(1.2997925,0,0,1.2997925,-16.978628,-14.122186)"><g
     id="g3"
     style="display:inline"><path
       id="circle3"
       style="display:inline;fill:url(#linearGradient2);stroke:#a5a5a5;stroke-width:1.21674;stroke-linecap:round;stroke-linejoin:round;stroke-miterlimit:1.8;stroke-dashoffset:20.7632;paint-order:stroke fill markers"
       d="m 87.135961,64.602171 -60.935786,-0.02332 -0.06692,-34.967939 60.979389,0.02966 z"
       sodipodi:nodetypes="ccccc" /><path
       id="rect3"
       style="fill:url(#linearGradient5);stroke-width:4.9294;stroke-linecap:round;stroke-linejoin:round"
       d="m 25.8762,58.019001 h 55.397362 v -28.51861 l 6.132148,0.0087 V 64.7457 H 25.8762 Z"
       sodipodi:nodetypes="ccccccc" /></g><g
     id="g11"
     transform="translate(2.1146925)"><rect
       style="fill:#000000;fill-opacity:0.685496;stroke-width:4.9294;stroke-linecap:round;stroke-linejoin:round"
       id="rect9"
       width="10.165843"
       height="25.088179"
       x="63.419933"
       y="31.458693" /><path
       id="rect11"
       style="fill:#848484;fill-opacity:0.685496;stroke-width:4.9294;stroke-linecap:round;stroke-linejoin:round"
       d="m 70.787833,31.598587 h 2.797938 V 56.541038 H 63.454904 v -2.267496 l 7.332929,0.01166 z"
       sodipodi:nodetypes="ccccccc" /></g><g
     id="g12"
     transform="translate(-35.284414)"><rect
       style="fill:#000000;fill-opacity:0.685496;stroke-width:4.9294;stroke-linecap:round;stroke-linejoin:round"
       id="rect12"
       width="10.165843"
       height="25.088179"
       x="63.419933"
       y="31.458693" /><path
       id="path12"
       style="fill:#848484;fill-opacity:0.685496;stroke-width:4.9294;stroke-linecap:round;stroke-linejoin:round"
       d="m 70.787833,31.598587 h 2.797938 V 56.541038 H 63.454904 v -2.267496 l 7.332929,0.01166 z"
       sodipodi:nodetypes="ccccccc" /></g></g></g>
<metadata
   id="metadata1"><rdf:RDF><cc:License
       rdf:about="http://creativecommons.org/publicdomain/zero/1.0/"><cc:permits
         rdf:resource="http://creativecommons.org/ns#Reproduction" /><cc:permits
         rdf:resource="http://creativecommons.org/ns#Distribution" /><cc:permits
         rdf:resource="http://creativecommons.org/ns#DerivativeWorks" /></cc:License><cc:Work
       rdf:about=""><cc:license
         rdf:resource="http://creativecommons.org/publicdomain/zero/1.0/" /></cc:Work></rdf:RDF></metadata></svg>
