<?xml version="1.0" encoding="UTF-8" standalone="no"?>
<!-- Created with Inkscape (http://www.inkscape.org/) -->

<svg
   width="256mm"
   height="256mm"
   viewBox="0 0 256 256"
   version="1.1"
   id="svg1"
   inkscape:version="1.3.2 (091e20ef0f, 2023-11-25)"
   sodipodi:docname="inode-vnd.kde.service.appletv-itunes.svg"
   xml:space="preserve"
   xmlns:inkscape="http://www.inkscape.org/namespaces/inkscape"
   xmlns:sodipodi="http://sodipodi.sourceforge.net/DTD/sodipodi-0.dtd"
   xmlns="http://www.w3.org/2000/svg"
   xmlns:svg="http://www.w3.org/2000/svg"
   xmlns:rdf="http://www.w3.org/1999/02/22-rdf-syntax-ns#"
   xmlns:cc="http://creativecommons.org/ns#"
   xmlns:dc="http://purl.org/dc/elements/1.1/"><defs
     id="defs1" /><sodipodi:namedview
     id="base"
     pagecolor="#ffffff"
     bordercolor="#000000"
     borderopacity="0.3"
     inkscape:pageopacity="0.0"
     inkscape:pageshadow="2"
     inkscape:zoom="0.98994949"
     inkscape:cx="505.07627"
     inkscape:cy="476.792"
     inkscape:document-units="mm"
     inkscape:showpageshadow="2"
     inkscape:pagecheckerboard="0"
     inkscape:deskcolor="#d1d1d1"
     inkscape:current-layer="svg1" /><metadata
     id="metadata1"><rdf:RDF><cc:Work
         rdf:about=""><dc:format>image/svg+xml</dc:format><dc:type
           rdf:resource="http://purl.org/dc/dcmitype/StillImage" /><cc:license
           rdf:resource="http://creativecommons.org/publicdomain/zero/1.0/" /></cc:Work><cc:License
         rdf:about="http://creativecommons.org/publicdomain/zero/1.0/"><cc:permits
           rdf:resource="http://creativecommons.org/ns#Reproduction" /><cc:permits
           rdf:resource="http://creativecommons.org/ns#Distribution" /><cc:permits
           rdf:resource="http://creativecommons.org/ns#DerivativeWorks" /></cc:License></rdf:RDF></metadata><g
     id="g2"
     transform="matrix(3.104908,0,0,3.104908,-211.1444,2.2804574)"
     style="fill:#0f80d0;fill-opacity:1"><path
       id="path4154"
       d="m 109.67579,0.02116778 c -3.08041,0.0047401 -6.14334,0.39186083 -9.13648,1.11070342 -3.708852,0.8948359 -7.258001,2.3920065 -10.626697,4.1714199 2.443886,0.6735512 4.001056,3.2845788 3.826156,5.7650859 0.06197,2.682967 0.123941,5.365935 0.185912,8.048902 3.529216,-2.976926 8.072929,-4.465674 12.575259,-5.176266 4.81962,-0.602987 9.83507,0.0091 14.23902,2.112589 3.71562,1.694582 6.84452,4.424664 9.55711,7.435467 -1.05551,0.627614 -1.9054,1.905711 -1.29035,3.120978 0.5833,1.415635 2.35938,1.292282 3.58927,1.78122 4.37467,1.182652 8.72169,2.497251 13.11353,3.598052 1.55397,0.102484 2.69517,-1.595293 2.1779,-3.021435 -0.85472,-4.947749 -1.60331,-9.922498 -2.52353,-14.853615 -0.55496,-1.488919 -2.68393,-1.839921 -3.69911,-0.636755 -0.63419,0.682602 -1.25472,1.189386 -1.75076,0.09431 C 136.25424,9.3686997 131.62579,6.0321317 126.5594,3.7260637 121.26873,1.3286519 115.50564,-0.10192723 109.67579,0.02116778 Z"
       style="fill:#0f80d0;fill-opacity:1" /><path
       id="path4162"
       d="m 134.82659,32.581988 c 1.04427,6.144338 0.90725,12.781714 -2.09293,18.391717 -1.63107,2.998217 -3.86169,5.661561 -6.62304,7.682782 -3.96513,2.966438 -8.74575,4.843562 -13.64935,5.472922 -1.14766,-0.0079 -1.1634,-0.576325 -1.12125,-1.536391 0.16048,-1.747182 -2.01083,-2.914936 -3.4321,-1.938386 -4.38244,2.824804 -8.838816,5.57379 -13.175404,8.445566 -1.174134,1.0427 -0.674403,3.014224 0.731593,3.610491 1.887384,1.058391 3.670391,2.50996 5.591151,3.625616 2.80741,1.630661 6.72392,4.902302 8.65208,4.47293 1.3905,-0.198278 1.91655,-1.697203 1.70432,-2.932288 6.85955,-0.07632 13.69068,-2.046075 19.46847,-5.759689 6.55153,-4.113957 11.82965,-10.206424 15.11919,-17.197686 2.13316,-4.636207 3.48274,-9.654372 3.56603,-14.773806 0.0425,-1.979479 -0.075,-3.967646 -0.38503,-5.922952 -1.80553,1.394454 -4.27389,1.347449 -6.32987,0.572058 -2.67456,-0.737615 -5.3496,-1.475333 -8.02386,-2.212884 z"
       sodipodi:nodetypes="ccccccccacccccccc"
       style="fill:#0f80d0;fill-opacity:1" /><path
       id="path4156"
       d="m 87.811469,8.320162 c -1.709531,0.4800948 -3.245251,1.5097984 -4.886705,2.205479 -3.355228,1.645682 -6.763504,3.202821 -10.086313,4.902632 -0.964743,0.753372 -1.124865,2.177222 -0.279517,3.077667 0.730919,0.753777 1.756253,1.132203 2.613496,1.72282 -3.8463,6.090285 -5.291412,13.474759 -4.838245,20.609089 0.333737,5.462437 1.826825,10.854953 4.309492,15.729095 3.465256,6.616851 8.76983,12.285954 15.268931,15.990983 0.812137,0.26325 1.566241,0.581188 1.110644,-0.536944 -0.194973,-1.851437 -0.377016,-4.105663 1.25522,-5.396214 2.20463,-1.723939 4.700241,-3.058385 7.034107,-4.604737 C 94.507136,60.104608 90.682629,56.288955 87.991341,51.943043 85.80103,48.429532 84.510078,44.368103 84.281912,40.229202 83.999366,35.778055 85.09175,31.3457 86.975234,27.33159 88.349978,28.455318 90.719621,27.256841 90.50781,25.459312 90.369944,20.282001 90.371097,15.095069 90.145447,9.9238334 89.750261,8.962967 88.906238,8.2581556 87.811469,8.320162 Z"
       style="fill:#0f80d0;fill-opacity:1" /></g><g
     id="g1"
     transform="matrix(1.1897296,0,0,1.1897296,-25.304391,-23.877422)"><rect
       style="fill:#ffffff;stroke:none;stroke-width:5.198;stroke-miterlimit:2.1"
       id="rect1"
       width="89.535286"
       height="67.886459"
       x="89.535286"
       y="91.673447" /><path
       style="fill:#000000"
       d="m 104.13238,175.4644 c -10.010512,-1.05767 -17.279064,-6.98371 -19.574588,-15.95912 -0.960414,-3.75518 -1.062471,-6.97187 -1.062471,-33.4877 0,-26.674629 0.102931,-29.859765 1.089906,-33.726726 1.516425,-5.941343 5.459413,-10.811073 10.948194,-13.521409 5.494619,-2.71322 7.321899,-2.83236 41.142709,-2.682529 27.87073,0.123472 27.85716,0.122842 31.77428,1.473597 5.39044,1.858802 9.71889,5.587086 12.1221,10.441297 1.29005,2.605759 2.02898,5.364137 2.39658,8.946281 0.37038,3.609249 0.36919,54.541299 -0.001,58.152199 -1.08584,10.58124 -7.20694,17.63683 -17.30449,19.94632 -2.33572,0.53422 -3.11763,0.54948 -30.83919,0.60176 -15.64349,0.0295 -29.45474,-0.0533 -30.69167,-0.18397 z m 5.39869,-34.47876 c 2.8702,-1.08035 3.66149,-1.09759 6.58163,-0.14341 2.85958,0.93438 3.75435,0.91962 5.24743,-0.0866 2.34865,-1.58276 6.69408,-8.91725 5.28315,-8.91725 -0.62519,0 -3.16673,-2.72855 -3.70326,-3.97575 -1.32171,-3.07238 -0.5247,-6.66829 1.99219,-8.98828 l 1.20983,-1.11518 -0.88452,-0.92152 c -1.39526,-1.45364 -3.22605,-2.25987 -5.46497,-2.40664 -1.68937,-0.11075 -2.26615,-0.0154 -4.5499,0.75246 l -2.61529,0.87929 -2.64207,-0.88242 c -2.19116,-0.73182 -2.87945,-0.8543 -4.03302,-0.71768 -3.06216,0.36267 -6.193455,2.86794 -7.41601,5.93337 -0.525849,1.31851 -0.604959,1.97734 -0.595587,4.96005 0.0095,3.03649 0.09754,3.70315 0.750853,5.68855 1.206856,3.66757 3.092824,6.89009 5.216664,8.9136 1.90766,1.81753 2.99552,2.0163 5.62288,1.02737 z m 33.42891,0.23245 c 0.2228,-0.0691 0.33073,-0.6997 0.33073,-1.93221 v -1.82957 l -1.75544,-0.11178 c -1.51453,-0.0964 -1.84132,-0.21162 -2.38125,-0.83932 l -0.62581,-0.72755 v -7.79046 -7.79045 h 2.39238 2.39238 l -0.0773,-2.02443 -0.0773,-2.02443 -2.3151,0.0564 -2.31511,0.0564 v -3.05907 -3.05907 h -2.64583 -2.64583 v 3.06094 3.06095 l -1.78594,-0.0648 -1.78594,-0.0647 v 1.96474 1.96474 l 1.76106,0.0777 1.76106,0.0777 0.091,8.389 0.091,8.389 0.72156,1.46924 c 0.86169,1.75456 2.16515,2.61168 4.4111,2.90065 1.36177,0.17521 3.6605,0.0981 4.45848,-0.14959 z m 21.48025,-12.09165 c 2.37687,-6.73034 4.33535,-12.3938 4.35218,-12.58547 0.0233,-0.26521 -0.5593,-0.34975 -2.43789,-0.35374 -1.35767,-0.003 -2.51382,0.0401 -2.56922,0.0955 -0.0554,0.0554 -1.47707,4.55285 -3.15926,9.99434 -1.6822,5.44148 -3.08898,9.92405 -3.12618,9.96125 -0.0372,0.0372 -1.4196,-4.31928 -3.072,-9.68106 -1.6524,-5.36178 -3.09539,-9.89597 -3.20665,-10.07599 -0.14146,-0.22889 -0.94501,-0.31097 -2.67255,-0.273 -1.35865,0.0299 -2.50092,0.0849 -2.53837,0.12239 -0.08,0.08 8.52627,24.3418 8.78064,24.75337 0.1021,0.16521 1.2261,0.27941 2.7502,0.27941 h 2.57753 z m -48.74895,-16.07178 c 2.07451,-1.18978 3.50093,-3.39905 3.89173,-6.02763 0.21279,-1.43121 -0.1252,-1.59388 -2.01057,-0.96766 -2.72288,0.9044 -5.23798,4.22161 -5.23798,6.90847 0,0.83968 0.0443,0.8788 0.99219,0.87643 0.61298,-0.002 1.51673,-0.30332 2.36463,-0.78961 z"
       id="path1" /></g><g
     style="fill:#000000"
     id="g4"
     transform="matrix(1.7807165,0,0,1.7807165,-12744.198,-12620.257)"><path
       d="m 7151.891,7212.926 c -1.299,2.881 -1.922,4.166 -3.595,6.711 -2.334,3.556 -5.625,7.979 -9.703,8.019 -3.625,0.033 -4.557,-2.357 -9.475,-2.332 -4.917,0.026 -5.943,2.373 -9.566,2.34 -4.078,-0.037 -7.197,-4.033 -9.533,-7.586 -6.528,-9.938 -7.211,-21.6 -3.186,-27.799 2.861,-4.404 7.376,-6.982 11.622,-6.982 4.323,0 7.04,2.369 10.612,2.369 3.467,0 5.578,-2.373 10.576,-2.373 3.776,0 7.778,2.059 10.631,5.609 -9.342,5.119 -7.823,18.456 1.617,22.024 z"
       id="path1-7"
       style="display:none" /><path
       d="m 7135.854,7181.319 c 1.815,-2.33 3.194,-5.619 2.694,-8.982 -2.967,0.205 -6.437,2.092 -8.461,4.551 -1.838,2.232 -3.355,5.543 -2.766,8.762 3.239,0.099 6.589,-1.835 8.533,-4.331 z"
       id="path2"
       style="display:none" /><g
       id="g3"><path
         d="m 7168.464,7197.131 c 0,2.019 -1.535,3.647 -3.938,3.647 -2.305,0 -3.84,-1.631 -3.792,-3.647 -0.048,-2.11 1.487,-3.694 3.84,-3.694 2.353,0 3.843,1.584 3.89,3.694 z m -7.536,30.004 v -23.476 h 7.297 v 23.476 z m 19.632,-26.211 h -8.688 v -6.144 h 24.865 v 6.144 h -8.832 v 26.211 h -7.347 z m 39.361,18.675 c 0,3.071 0.097,5.567 0.19,7.537 h -6.336 l -0.336,-3.312 h -0.146 c -0.912,1.439 -3.121,3.842 -7.346,3.842 -4.753,0 -8.257,-2.979 -8.257,-10.227 v -13.775 h 7.345 v 12.625 c 0,3.408 1.104,5.471 3.648,5.471 2.018,0 3.169,-1.391 3.648,-2.543 0.19,-0.432 0.237,-1.008 0.237,-1.584 v -13.969 h 7.347 v 15.936 h 0.01 z m 5.854,-8.452 c 0,-2.93 -0.096,-5.426 -0.191,-7.487 h 6.336 l 0.336,3.217 h 0.146 c 0.959,-1.487 3.357,-3.744 7.248,-3.744 4.801,0 8.398,3.168 8.398,10.08 v 13.922 h -7.295 v -13.01 c 0,-3.022 -1.057,-5.088 -3.695,-5.088 -2.018,0 -3.217,1.394 -3.695,2.733 -0.191,0.48 -0.287,1.152 -0.287,1.824 v 13.537 h -7.297 v -15.983 z m 33.745,6.579 c 0.24,3.024 3.217,4.465 6.625,4.465 2.496,0 4.513,-0.336 6.479,-0.959 l 0.961,4.942 c -2.399,0.961 -5.328,1.487 -8.498,1.487 -7.97,0 -12.528,-4.655 -12.528,-12.002 0,-5.953 3.696,-12.526 11.856,-12.526 7.586,0 10.465,5.901 10.465,11.713 0,1.248 -0.145,2.353 -0.238,2.879 z m 8.593,-4.995 c 0,-1.774 -0.77,-4.752 -4.129,-4.752 -3.072,0 -4.32,2.783 -4.514,4.752 z m 11.086,8.019 c 1.347,0.813 4.129,1.774 6.289,1.774 2.209,0 3.121,-0.77 3.121,-1.969 0,-1.199 -0.721,-1.775 -3.457,-2.688 -4.849,-1.631 -6.721,-4.271 -6.672,-7.008 0,-4.416 3.744,-7.73 9.554,-7.73 2.735,0 5.187,0.625 6.625,1.346 l -1.297,5.041 c -1.058,-0.576 -3.071,-1.346 -5.088,-1.346 -1.774,0 -2.784,0.721 -2.784,1.92 0,1.105 0.912,1.682 3.792,2.689 4.465,1.535 6.337,3.793 6.385,7.248 0,4.369 -3.456,7.633 -10.177,7.633 -3.07,0 -5.811,-0.722 -7.585,-1.683 z"
         id="path3" /></g></g></svg>
