<?xml version="1.0" encoding="UTF-8" standalone="no"?>
<!-- Created with Inkscape (http://www.inkscape.org/) -->

<svg
   width="256mm"
   height="256mm"
   viewBox="0 0 256 256"
   version="1.1"
   id="svg1"
   inkscape:version="1.4.2 (ebf0e940d0, 2025-05-08)"
   sodipodi:docname="inode-vnd.kde.service.unknown.svg"
   xml:space="preserve"
   xmlns:inkscape="http://www.inkscape.org/namespaces/inkscape"
   xmlns:sodipodi="http://sodipodi.sourceforge.net/DTD/sodipodi-0.dtd"
   xmlns:xlink="http://www.w3.org/1999/xlink"
   xmlns="http://www.w3.org/2000/svg"
   xmlns:svg="http://www.w3.org/2000/svg"
   xmlns:rdf="http://www.w3.org/1999/02/22-rdf-syntax-ns#"
   xmlns:cc="http://creativecommons.org/ns#"
   xmlns:dc="http://purl.org/dc/elements/1.1/"><defs
     id="defs1"><linearGradient
       id="h"
       y2="47.094002"
       gradientUnits="userSpaceOnUse"
       x2="26.243"
       y1="34.620998"
       x1="20.573999"><stop
         stop-color="#fff"
         offset="0"
         id="stop1" /><stop
         stop-opacity="0"
         stop-color="#888a85"
         offset="1"
         id="stop2" /></linearGradient><linearGradient
       id="m"
       x1="23.33"
       xlink:href="#c"
       gradientUnits="userSpaceOnUse"
       x2="38.740002"
       y1="6.2399998"
       y2="29.870001" /><linearGradient
       id="k"
       x1="20.1"
       xlink:href="#c"
       gradientUnits="userSpaceOnUse"
       x2="31.389999"
       y1="21.75"
       y2="41.75" /><linearGradient
       id="l"
       x1="14.82"
       xlink:href="#c"
       gradientUnits="userSpaceOnUse"
       x2="29.309999"
       y1="12.4"
       y2="36.5" /><linearGradient
       id="g"
       y2="21.469999"
       xlink:href="#c"
       gradientUnits="userSpaceOnUse"
       x2="24.1"
       y1="13.7"
       x1="13.77" /><linearGradient
       id="c"
       y2="73.800003"
       gradientUnits="userSpaceOnUse"
       y1="17.1"
       x2="31.860001"
       x1="19.889999"><stop
         stop-color="#fff"
         offset="0"
         id="stop3" /><stop
         stop-color="#b3b3b3"
         stop-opacity="0"
         offset="1"
         id="stop4" /></linearGradient><linearGradient
       id="d"
       y2="10.49"
       gradientUnits="userSpaceOnUse"
       x2="9.125"
       y1="59.23"
       x1="31.5"><stop
         stop-color="#1a3b6e"
         offset="0"
         id="stop5" /><stop
         stop-color="#204a87"
         offset="1"
         id="stop6" /></linearGradient><linearGradient
       id="i"
       y2="4.7940001"
       gradientUnits="userSpaceOnUse"
       x2="17.799999"
       y1="23.219999"
       x1="23.540001"><stop
         stop-color="#fff"
         offset="0"
         id="stop7" /><stop
         stop-color="#fff"
         stop-opacity="0"
         offset="1"
         id="stop8" /></linearGradient><radialGradient
       id="j"
       xlink:href="#a"
       gradientUnits="userSpaceOnUse"
       cy="42"
       cx="25"
       gradientTransform="matrix(1,0,0,0.346,0,27.99)"
       r="13" /><radialGradient
       id="f"
       xlink:href="#a"
       gradientUnits="userSpaceOnUse"
       cy="42"
       cx="25"
       gradientTransform="matrix(0.527,0,0,0.212,9.73,33.51)"
       r="13" /><radialGradient
       id="a"
       gradientUnits="userSpaceOnUse"
       cy="36.419998"
       cx="24.84"
       gradientTransform="matrix(0.831,0,0,0.288,4.36,31.57)"
       r="15.64"><stop
         offset="0"
         id="stop9" /><stop
         stop-opacity="0"
         offset="1"
         id="stop10" /></radialGradient><radialGradient
       id="b"
       gradientUnits="userSpaceOnUse"
       cy="26.165001"
       cx="26.033001"
       gradientTransform="matrix(1,0,0,1.8455,-1.2238e-4,-19.879)"
       r="10.97"><stop
         stop-color="#2a5387"
         offset="0"
         id="stop11" /><stop
         stop-color="#497fc6"
         offset="1"
         id="stop12" /></radialGradient><linearGradient
       inkscape:collect="always"
       xlink:href="#d"
       id="linearGradient19"
       gradientUnits="userSpaceOnUse"
       x1="31.5"
       y1="59.23"
       x2="9.125"
       y2="10.49" /><radialGradient
       inkscape:collect="always"
       xlink:href="#b"
       id="radialGradient21"
       gradientUnits="userSpaceOnUse"
       gradientTransform="matrix(1,0,0,1.8455,-1.2238e-4,-19.879)"
       cx="26.033001"
       cy="26.165001"
       r="10.97" /><radialGradient
       inkscape:collect="always"
       xlink:href="#b"
       id="radialGradient22"
       gradientUnits="userSpaceOnUse"
       gradientTransform="matrix(1,0,0,1.8455,-1.2238e-4,-19.879)"
       cx="26.033001"
       cy="26.165001"
       r="10.97" /><radialGradient
       inkscape:collect="always"
       xlink:href="#b"
       id="radialGradient23"
       gradientUnits="userSpaceOnUse"
       gradientTransform="matrix(1,0,0,1.8455,-1.2238e-4,-19.879)"
       cx="26.033001"
       cy="26.165001"
       r="10.97" /><radialGradient
       inkscape:collect="always"
       xlink:href="#b"
       id="radialGradient24"
       gradientUnits="userSpaceOnUse"
       gradientTransform="matrix(1,0,0,1.8455,-1.2238e-4,-19.879)"
       cx="26.033001"
       cy="26.165001"
       r="10.97" /><radialGradient
       inkscape:collect="always"
       xlink:href="#b"
       id="radialGradient25"
       gradientUnits="userSpaceOnUse"
       gradientTransform="matrix(1,0,0,1.8455,-1.2238e-4,-19.879)"
       cx="26.033001"
       cy="26.165001"
       r="10.97" /><radialGradient
       inkscape:collect="always"
       xlink:href="#b"
       id="radialGradient26"
       gradientUnits="userSpaceOnUse"
       gradientTransform="matrix(1,0,0,1.8455,-1.2238e-4,-19.879)"
       cx="26.033001"
       cy="26.165001"
       r="10.97" /><radialGradient
       inkscape:collect="always"
       xlink:href="#b"
       id="radialGradient27"
       gradientUnits="userSpaceOnUse"
       gradientTransform="matrix(1,0,0,1.8455,-1.2238e-4,-19.879)"
       cx="26.033001"
       cy="26.165001"
       r="10.97" /><radialGradient
       inkscape:collect="always"
       xlink:href="#b"
       id="radialGradient28"
       gradientUnits="userSpaceOnUse"
       gradientTransform="matrix(1,0,0,1.8455,-1.2238e-4,-19.879)"
       cx="26.033001"
       cy="26.165001"
       r="10.97" /><linearGradient
       inkscape:collect="always"
       xlink:href="#d"
       id="linearGradient1"
       gradientUnits="userSpaceOnUse"
       x1="31.5"
       y1="59.23"
       x2="9.125"
       y2="10.49" /><linearGradient
       inkscape:collect="always"
       xlink:href="#d"
       id="linearGradient2"
       gradientUnits="userSpaceOnUse"
       x1="31.5"
       y1="59.23"
       x2="9.125"
       y2="10.49" /></defs><sodipodi:namedview
     id="base"
     pagecolor="#ffffff"
     bordercolor="#000000"
     borderopacity="0.3"
     inkscape:pageopacity="0.0"
     inkscape:pageshadow="2"
     inkscape:zoom="0.72112115"
     inkscape:cx="475.64823"
     inkscape:cy="483.96861"
     inkscape:document-units="mm"
     inkscape:showpageshadow="2"
     inkscape:pagecheckerboard="0"
     inkscape:deskcolor="#d1d1d1"
     inkscape:current-layer="svg1" /><metadata
     id="metadata1"><rdf:RDF><cc:Work
         rdf:about=""><dc:format>image/svg+xml</dc:format><dc:type
           rdf:resource="http://purl.org/dc/dcmitype/StillImage" /><cc:license
           rdf:resource="http://creativecommons.org/publicdomain/zero/1.0/" /></cc:Work><cc:License
         rdf:about="http://creativecommons.org/publicdomain/zero/1.0/"><cc:permits
           rdf:resource="http://creativecommons.org/ns#Reproduction" /><cc:permits
           rdf:resource="http://creativecommons.org/ns#Distribution" /><cc:permits
           rdf:resource="http://creativecommons.org/ns#DerivativeWorks" /></cc:License></rdf:RDF></metadata><g
     id="g2"
     transform="matrix(3.104908,0,0,3.104908,-211.1444,2.2804574)"
     style="fill:#0f80d0;fill-opacity:1;stroke:#ff6060;stroke-opacity:1"><path
       id="path4154"
       d="m 109.67579,0.02116778 c -3.08041,0.0047401 -6.14334,0.39186083 -9.13648,1.11070342 -3.708852,0.8948359 -7.258001,2.3920065 -10.626697,4.1714199 2.443886,0.6735512 4.001056,3.2845788 3.826156,5.7650859 0.06197,2.682967 0.123941,5.365935 0.185912,8.048902 3.529216,-2.976926 8.072929,-4.465674 12.575259,-5.176266 4.81962,-0.602987 9.83507,0.0091 14.23902,2.112589 3.71562,1.694582 6.84452,4.424664 9.55711,7.435467 -1.05551,0.627614 -1.9054,1.905711 -1.29035,3.120978 0.5833,1.415635 2.35938,1.292282 3.58927,1.78122 4.37467,1.182652 8.72169,2.497251 13.11353,3.598052 1.55397,0.102484 2.69517,-1.595293 2.1779,-3.021435 -0.85472,-4.947749 -1.60331,-9.922498 -2.52353,-14.853615 -0.55496,-1.488919 -2.68393,-1.839921 -3.69911,-0.636755 -0.63419,0.682602 -1.25472,1.189386 -1.75076,0.09431 C 136.25424,9.3686997 131.62579,6.0321317 126.5594,3.7260637 121.26873,1.3286519 115.50564,-0.10192723 109.67579,0.02116778 Z"
       style="fill:#0f80d0;fill-opacity:1;stroke:#ff6060;stroke-opacity:1" /><path
       id="path4162"
       d="m 134.82659,32.581988 c 1.04427,6.144338 0.90725,12.781714 -2.09293,18.391717 -1.63107,2.998217 -3.86169,5.661561 -6.62304,7.682782 -3.96513,2.966438 -8.74575,4.843562 -13.64935,5.472922 -1.14766,-0.0079 -1.1634,-0.576325 -1.12125,-1.536391 0.16048,-1.747182 -2.01083,-2.914936 -3.4321,-1.938386 -4.38244,2.824804 -8.838816,5.57379 -13.175404,8.445566 -1.174134,1.0427 -0.674403,3.014224 0.731593,3.610491 1.887384,1.058391 3.670391,2.50996 5.591151,3.625616 2.80741,1.630661 6.72392,4.902302 8.65208,4.47293 1.3905,-0.198278 1.91655,-1.697203 1.70432,-2.932288 6.85955,-0.07632 13.69068,-2.046075 19.46847,-5.759689 6.55153,-4.113957 11.82965,-10.206424 15.11919,-17.197686 2.13316,-4.636207 3.48274,-9.654372 3.56603,-14.773806 0.0425,-1.979479 -0.075,-3.967646 -0.38503,-5.922952 -1.80553,1.394454 -4.27389,1.347449 -6.32987,0.572058 -2.67456,-0.737615 -5.3496,-1.475333 -8.02386,-2.212884 z"
       sodipodi:nodetypes="ccccccccacccccccc"
       style="fill:#0f80d0;fill-opacity:1;stroke:#ff6060;stroke-opacity:1" /><path
       id="path4156"
       d="m 87.811469,8.320162 c -1.709531,0.4800948 -3.245251,1.5097984 -4.886705,2.205479 -3.355228,1.645682 -6.763504,3.202821 -10.086313,4.902632 -0.964743,0.753372 -1.124865,2.177222 -0.279517,3.077667 0.730919,0.753777 1.756253,1.132203 2.613496,1.72282 -3.8463,6.090285 -5.291412,13.474759 -4.838245,20.609089 0.333737,5.462437 1.826825,10.854953 4.309492,15.729095 3.465256,6.616851 8.76983,12.285954 15.268931,15.990983 0.812137,0.26325 1.566241,0.581188 1.110644,-0.536944 -0.194973,-1.851437 -0.377016,-4.105663 1.25522,-5.396214 2.20463,-1.723939 4.700241,-3.058385 7.034107,-4.604737 C 94.507136,60.104608 90.682629,56.288955 87.991341,51.943043 85.80103,48.429532 84.510078,44.368103 84.281912,40.229202 83.999366,35.778055 85.09175,31.3457 86.975234,27.33159 88.349978,28.455318 90.719621,27.256841 90.50781,25.459312 90.369944,20.282001 90.371097,15.095069 90.145447,9.9238334 89.750261,8.962967 88.906238,8.2581556 87.811469,8.320162 Z"
       style="fill:#0f80d0;fill-opacity:1;stroke:#ff6060;stroke-opacity:1" /></g><g
     id="g19"
     transform="matrix(3.2554237,0,0,3.2554237,54.320834,43.425692)"><g
       id="use12"
       style="fill:none;stroke:url(#linearGradient19);stroke-width:3"><path
         d="m 22.08,27.93 c 0,-2.23 0.42,-3.68 1.85,-6.48 1.96,-3.81 2.49,-5.6 2.49,-8.36 0,-3.57 -1.14,-5.89 -3.35,-6.82 -1.33,-0.55 -2.98,-0.3 -3.96,0.6 -0.72,0.66 -0.69,1.1 0.19,3.15 1.19,2.76 0.93,4.65 -0.74,5.49 -1.63,0.82 -3.67,0.21 -4.57,-1.37 -0.39,-0.69 -0.48,-1.13 -0.45,-2.24 0.08,-3.51 3.05,-6.57 7.19,-7.41 1.58,-0.32 4.87,-0.32 6.44,0 4.26,0.88 7.12,3.89 7.3,7.68 0.08,1.78 -0.31,3.46 -1.14,4.87 -0.71,1.21 -3,3.33 -5.29,4.86 -3.49,2.35 -4.52,3.73 -4.85,6.53 -0.11,0.97 -0.18,1.09 -0.62,1.09 -0.47,0 -0.49,-0.06 -0.49,-1.61 z"
         id="path19"
         style="stroke:url(#linearGradient1)" /><circle
         cy="37.93"
         cx="22.77"
         r="4.2800002"
         id="circle19"
         style="stroke:url(#linearGradient2)" /></g><g
       opacity="0.2"
       id="g13"><ellipse
         rx="6.8499999"
         ry="2.76"
         cy="42.400002"
         cx="23"
         fill="url(#f)"
         id="ellipse12"
         style="fill:url(#f)" /><ellipse
         rx="13"
         ry="4.5"
         cy="42.5"
         cx="25"
         fill="url(#j)"
         id="ellipse13"
         style="fill:url(#j)" /></g><g
       stroke="url(#b)"
       fill="url(#b)"
       id="g14"
       style="fill:url(#radialGradient27);stroke:url(#radialGradient28)"><g
         id="q"
         style="fill:url(#radialGradient25);stroke:url(#radialGradient26)"><path
           d="m 22.08,27.93 c 0,-2.23 0.42,-3.68 1.85,-6.48 1.96,-3.81 2.49,-5.6 2.49,-8.36 0,-3.57 -1.14,-5.89 -3.35,-6.82 -1.33,-0.55 -2.98,-0.3 -3.96,0.6 -0.72,0.66 -0.69,1.1 0.19,3.15 1.19,2.76 0.93,4.65 -0.74,5.49 -1.63,0.82 -3.67,0.21 -4.57,-1.37 -0.39,-0.69 -0.48,-1.13 -0.45,-2.24 0.08,-3.51 3.05,-6.57 7.19,-7.41 1.58,-0.32 4.87,-0.32 6.44,0 4.26,0.88 7.12,3.89 7.3,7.68 0.08,1.78 -0.31,3.46 -1.14,4.87 -0.71,1.21 -3,3.33 -5.29,4.86 -3.49,2.35 -4.52,3.73 -4.85,6.53 -0.11,0.97 -0.18,1.09 -0.62,1.09 -0.47,0 -0.49,-0.06 -0.49,-1.61 z"
           id="path13"
           style="fill:url(#radialGradient21);stroke:url(#radialGradient22)" /><circle
           cy="37.93"
           cx="22.77"
           r="4.2800002"
           id="circle13"
           style="fill:url(#radialGradient23);stroke:url(#radialGradient24)" /></g></g><g
       opacity="0.7"
       fill="none"
       id="g18"><circle
         stroke="url(#h)"
         cy="37.93"
         cx="22.77"
         r="4.2800002"
         fill="none"
         id="circle14"
         style="stroke:url(#h)" /><path
         stroke="url(#g)"
         d="m 18.56,15.53 c -1.63,0.82 -3.845,0.345 -4.57,-1.37"
         id="path14"
         style="stroke:url(#g)" /><path
         stroke="url(#m)"
         d="m 34.5,12.19 c 0.08,1.78 -0.31,3.45 -1.14,4.87 -0.71,1.21 -3,3.33 -5.29,4.86 -3.49,2.35 -4.52,3.73 -4.85,6.53 -0.11,0.97 -0.21,1.09 -0.65,1.09"
         id="path15"
         style="stroke:url(#m)" /><path
         d="m 22.57,29.54 c -0.47,0 -0.49,-0.06 -0.49,-1.61 0,-2.23 0.42,-3.7021 1.85,-6.48"
         stroke="url(#k)"
         id="path16"
         style="stroke:url(#k)" /><path
         stroke="url(#l)"
         d="m 13.99,14.16 c -0.81,-1.87 -0.471,-4.081 0.63,-5.76 1.469,-2.241 4,-3.5 6.59,-3.99 1.96,-0.3704 4,-0.3418 5.965,0.105 C 31.63,5.528 34.32,8.4 34.5,12.19"
         id="path17"
         style="stroke:url(#l)" /><path
         d="m 23.93,21.45 c 1.96,-3.81 2.49,-5.6 2.49,-8.36 0,-3.57 -1.14,-5.89 -3.35,-6.82 -1.33,-0.55 -2.98,-0.3 -3.96,0.6 -0.72,0.66 -0.69,1.1 0.19,3.15 1.19,2.76 0.93,4.67 -0.74,5.51"
         stroke="url(#i)"
         id="path18"
         style="stroke:url(#i)" /></g></g></svg>
