<?xml version="1.0" encoding="UTF-8" standalone="no"?>
<!-- Created with Inkscape (http://www.inkscape.org/) -->

<svg
   width="256mm"
   height="256mm"
   viewBox="0 0 256 256"
   version="1.1"
   id="svg1"
   inkscape:version="1.3.2 (091e20ef0f, 2023-11-25)"
   sodipodi:docname="inode-vnd.kde.bluedevil.service.svg"
   xml:space="preserve"
   xmlns:inkscape="http://www.inkscape.org/namespaces/inkscape"
   xmlns:sodipodi="http://sodipodi.sourceforge.net/DTD/sodipodi-0.dtd"
   xmlns="http://www.w3.org/2000/svg"
   xmlns:svg="http://www.w3.org/2000/svg"
   xmlns:rdf="http://www.w3.org/1999/02/22-rdf-syntax-ns#"
   xmlns:cc="http://creativecommons.org/ns#"
   xmlns:dc="http://purl.org/dc/elements/1.1/"><defs
     id="defs1"><linearGradient
       id="linearGradient29"
       x1="197.89"
       y1="364.76"
       x2="183.33"
       y2="12.946"
       gradientUnits="userSpaceOnUse"><stop
         stop-color="#197cf1"
         id="stop28"
         offset="0"
         style="stop-color:#ffffff;stop-opacity:1;" /><stop
         offset="1"
         stop-color="#20bcfa"
         id="stop29"
         style="stop-color:#ffffff;stop-opacity:0;" /></linearGradient><linearGradient
       id="linearGradient27"
       x1="197.89"
       y1="364.76"
       x2="183.33"
       y2="12.946"
       gradientUnits="userSpaceOnUse"><stop
         stop-color="#197cf1"
         id="stop26"
         offset="0"
         style="stop-color:#ffffff;stop-opacity:1;" /><stop
         offset="1"
         stop-color="#20bcfa"
         id="stop27"
         style="stop-color:#20bcfa;stop-opacity:0;" /></linearGradient><linearGradient
       id="linearGradient25"
       x1="197.89"
       y1="364.76"
       x2="183.33"
       y2="12.946"
       gradientUnits="userSpaceOnUse"><stop
         stop-color="#197cf1"
         id="stop24"
         offset="0"
         style="stop-color:#000000;stop-opacity:0.61182517;" /><stop
         offset="1"
         stop-color="#20bcfa"
         id="stop25"
         style="stop-color:#035979;stop-opacity:0;" /></linearGradient><linearGradient
       id="linearGradient23"
       x1="197.89"
       y1="364.76"
       x2="183.33"
       y2="12.946"
       gradientUnits="userSpaceOnUse"><stop
         stop-color="#197cf1"
         id="stop22" /><stop
         offset="1"
         stop-color="#20bcfa"
         id="stop23"
         style="stop-color:#20bcfa;stop-opacity:1;" /></linearGradient><linearGradient
       id="linearGradient21"
       x1="197.89"
       y1="364.76"
       x2="183.33"
       y2="12.946"
       gradientUnits="userSpaceOnUse"><stop
         stop-color="#197cf1"
         id="stop20"
         offset="0"
         style="stop-color:#d6d6ff;stop-opacity:1;" /><stop
         offset="1"
         stop-color="#20bcfa"
         id="stop21"
         style="stop-color:#20bcfa;stop-opacity:0;" /></linearGradient><linearGradient
       id="linearGradient1902"><stop
         offset="0.0000000"
         style="stop-color:#9e9e9e;stop-opacity:1.0000000;"
         id="stop1904" /><stop
         offset="1.0000000"
         style="stop-color:#616161;stop-opacity:1.0000000;"
         id="stop1903" /></linearGradient><linearGradient
       id="linearGradient1910"><stop
         offset="0.033700000"
         style="stop-color:#ffffff;stop-opacity:1.0000000;"
         id="stop1912" /><stop
         offset="1.0000000"
         style="stop-color:#b2b2b2;stop-opacity:1.0000000;"
         id="stop1911" /></linearGradient><linearGradient
       id="linearGradient1925"><stop
         offset="0.0000000"
         style="stop-color:#ffffff;stop-opacity:1.0000000;"
         id="stop1927" /><stop
         offset="1.0000000"
         style="stop-color:#ffffff;stop-opacity:0.0000000;"
         id="stop1926" /></linearGradient><linearGradient
       id="linearGradient1939"><stop
         offset="0.0000000"
         style="stop-color:#ffffff;stop-opacity:1.0000000;"
         id="stop1941" /><stop
         offset="1.0000000"
         style="stop-color:#cfcfcf;stop-opacity:1.0000000;"
         id="stop1940" /></linearGradient><linearGradient
       id="linearGradient2001"><stop
         offset="0.033700000"
         style="stop-color:#ffffff;stop-opacity:1.0000000;"
         id="stop2003" /><stop
         offset="1.0000000"
         style="stop-color:#878787;stop-opacity:1.0000000;"
         id="stop2002" /></linearGradient><linearGradient
       id="linearGradient2049"><stop
         offset="0.033700000"
         style="stop-color:#00ff00;stop-opacity:1.0000000;"
         id="stop2050" /><stop
         offset="1.0000000"
         style="stop-color:#009700;stop-opacity:1.0000000;"
         id="stop2051" /></linearGradient><linearGradient
       id="0"
       x1="197.89"
       y1="364.76"
       x2="183.33"
       y2="12.946"
       gradientUnits="userSpaceOnUse"><stop
         stop-color="#197cf1"
         id="stop1" /><stop
         offset="1"
         stop-color="#20bcfa"
         id="stop2" /></linearGradient><linearGradient
       id="SVGID_linearGradient11_3"
       gradientUnits="userSpaceOnUse"
       x1="197.89"
       y1="364.76001"
       x2="183.33"
       y2="12.946"
       gradientTransform="matrix(2.65,0,0,2.65,-477,-477)">
<stop
   offset="0%"
   style="stop-color:rgb(25,124,241);stop-opacity: 1"
   id="stop1-7" />
<stop
   offset="100%"
   style="stop-color:rgb(32,188,250);stop-opacity: 1"
   id="stop2-5" />
</linearGradient><radialGradient
       id="SVGID_radialGradient32_4"
       gradientUnits="userSpaceOnUse"
       gradientTransform="matrix(2.279,0.1855,-1.06,12.614,-272.4995,-2196.638)"
       cx="59.615437"
       cy="166.69046"
       r="120.00004"
       fx="59.615437"
       fy="166.69046">
<stop
   offset="0%"
   style="stop-color:rgb(255,255,255);stop-opacity: 1"
   id="stop3" />
<stop
   offset="100%"
   style="stop-color:rgb(239,249,254);stop-opacity: 0"
   id="stop4" />
</radialGradient><radialGradient
       id="SVGID_radialGradient33_5"
       gradientUnits="userSpaceOnUse"
       gradientTransform="matrix(0.4505,1.484,-8.639,2.544,615.224,-554.698)"
       cx="-52.27787"
       cy="75.25927"
       r="120.00004"
       fx="-52.27787"
       fy="75.25927">
<stop
   offset="0%"
   style="stop-color:rgb(255,255,255);stop-opacity: 0.59640104"
   id="stop5" />
<stop
   offset="100%"
   style="stop-color:rgb(239,249,254);stop-opacity: 0"
   id="stop6" />
</radialGradient><radialGradient
       id="SVGID_radialGradient38_6"
       gradientUnits="userSpaceOnUse"
       gradientTransform="matrix(3.127,0.106,-0.371,10.388,-553.903,-1658.0785)"
       cx="293.74142"
       cy="182.69533"
       r="120.00004"
       fx="293.74142"
       fy="182.69533">
<stop
   offset="0%"
   style="stop-color:rgb(0,0,0);stop-opacity: 0.76349616"
   id="stop7" />
<stop
   offset="100%"
   style="stop-color:rgb(9,99,136);stop-opacity: 0"
   id="stop8" />
</radialGradient><radialGradient
       id="SVGID_radialGradient34_7"
       gradientUnits="userSpaceOnUse"
       gradientTransform="matrix(2.544,2.4645,-5.406,5.5915,-652.7745,-1378.901)"
       cx="528.7832"
       cy="95.379326"
       r="120.00004"
       fx="528.7832"
       fy="95.379326">
<stop
   offset="0%"
   style="stop-color:rgb(0,0,0);stop-opacity: 0.55012852"
   id="stop9" />
<stop
   offset="100%"
   style="stop-color:rgb(239,249,254);stop-opacity: 0"
   id="stop10" />
</radialGradient></defs><sodipodi:namedview
     id="base"
     pagecolor="#ffffff"
     bordercolor="#000000"
     borderopacity="0.3"
     inkscape:pageopacity="0.0"
     inkscape:pageshadow="2"
     inkscape:zoom="0.98994949"
     inkscape:cx="505.07627"
     inkscape:cy="476.792"
     inkscape:document-units="mm"
     inkscape:showpageshadow="2"
     inkscape:pagecheckerboard="0"
     inkscape:deskcolor="#d1d1d1"
     inkscape:current-layer="svg1" /><metadata
     id="metadata1"><rdf:RDF><cc:Work
         rdf:about=""><dc:format>image/svg+xml</dc:format><dc:type
           rdf:resource="http://purl.org/dc/dcmitype/StillImage" /><cc:license
           rdf:resource="http://creativecommons.org/publicdomain/zero/1.0/" /></cc:Work><cc:License
         rdf:about="http://creativecommons.org/publicdomain/zero/1.0/"><cc:permits
           rdf:resource="http://creativecommons.org/ns#Reproduction" /><cc:permits
           rdf:resource="http://creativecommons.org/ns#Distribution" /><cc:permits
           rdf:resource="http://creativecommons.org/ns#DerivativeWorks" /></cc:License></rdf:RDF></metadata><g
     id="g2"
     transform="matrix(3.104908,0,0,3.104908,-211.1444,2.2804574)"
     style="fill:#0f80d0;fill-opacity:1"><path
       id="path4154"
       d="m 109.67579,0.02116778 c -3.08041,0.0047401 -6.14334,0.39186083 -9.13648,1.11070342 -3.708852,0.8948359 -7.258001,2.3920065 -10.626697,4.1714199 2.443886,0.6735512 4.001056,3.2845788 3.826156,5.7650859 0.06197,2.682967 0.123941,5.365935 0.185912,8.048902 3.529216,-2.976926 8.072929,-4.465674 12.575259,-5.176266 4.81962,-0.602987 9.83507,0.0091 14.23902,2.112589 3.71562,1.694582 6.84452,4.424664 9.55711,7.435467 -1.05551,0.627614 -1.9054,1.905711 -1.29035,3.120978 0.5833,1.415635 2.35938,1.292282 3.58927,1.78122 4.37467,1.182652 8.72169,2.497251 13.11353,3.598052 1.55397,0.102484 2.69517,-1.595293 2.1779,-3.021435 -0.85472,-4.947749 -1.60331,-9.922498 -2.52353,-14.853615 -0.55496,-1.488919 -2.68393,-1.839921 -3.69911,-0.636755 -0.63419,0.682602 -1.25472,1.189386 -1.75076,0.09431 C 136.25424,9.3686997 131.62579,6.0321317 126.5594,3.7260637 121.26873,1.3286519 115.50564,-0.10192723 109.67579,0.02116778 Z"
       style="fill:#0f80d0;fill-opacity:1" /><path
       id="path4162"
       d="m 134.82659,32.581988 c 1.04427,6.144338 0.90725,12.781714 -2.09293,18.391717 -1.63107,2.998217 -3.86169,5.661561 -6.62304,7.682782 -3.96513,2.966438 -8.74575,4.843562 -13.64935,5.472922 -1.14766,-0.0079 -1.1634,-0.576325 -1.12125,-1.536391 0.16048,-1.747182 -2.01083,-2.914936 -3.4321,-1.938386 -4.38244,2.824804 -8.838816,5.57379 -13.175404,8.445566 -1.174134,1.0427 -0.674403,3.014224 0.731593,3.610491 1.887384,1.058391 3.670391,2.50996 5.591151,3.625616 2.80741,1.630661 6.72392,4.902302 8.65208,4.47293 1.3905,-0.198278 1.91655,-1.697203 1.70432,-2.932288 6.85955,-0.07632 13.69068,-2.046075 19.46847,-5.759689 6.55153,-4.113957 11.82965,-10.206424 15.11919,-17.197686 2.13316,-4.636207 3.48274,-9.654372 3.56603,-14.773806 0.0425,-1.979479 -0.075,-3.967646 -0.38503,-5.922952 -1.80553,1.394454 -4.27389,1.347449 -6.32987,0.572058 -2.67456,-0.737615 -5.3496,-1.475333 -8.02386,-2.212884 z"
       sodipodi:nodetypes="ccccccccacccccccc"
       style="fill:#0f80d0;fill-opacity:1" /><path
       id="path4156"
       d="m 87.811469,8.320162 c -1.709531,0.4800948 -3.245251,1.5097984 -4.886705,2.205479 -3.355228,1.645682 -6.763504,3.202821 -10.086313,4.902632 -0.964743,0.753372 -1.124865,2.177222 -0.279517,3.077667 0.730919,0.753777 1.756253,1.132203 2.613496,1.72282 -3.8463,6.090285 -5.291412,13.474759 -4.838245,20.609089 0.333737,5.462437 1.826825,10.854953 4.309492,15.729095 3.465256,6.616851 8.76983,12.285954 15.268931,15.990983 0.812137,0.26325 1.566241,0.581188 1.110644,-0.536944 -0.194973,-1.851437 -0.377016,-4.105663 1.25522,-5.396214 2.20463,-1.723939 4.700241,-3.058385 7.034107,-4.604737 C 94.507136,60.104608 90.682629,56.288955 87.991341,51.943043 85.80103,48.429532 84.510078,44.368103 84.281912,40.229202 83.999366,35.778055 85.09175,31.3457 86.975234,27.33159 88.349978,28.455318 90.719621,27.256841 90.50781,25.459312 90.369944,20.282001 90.371097,15.095069 90.145447,9.9238334 89.750261,8.962967 88.906238,8.2581556 87.811469,8.320162 Z"
       style="fill:#0f80d0;fill-opacity:1" /></g><g
     id="g1"
     transform="matrix(0.70448875,0,0,0.70448875,14.896372,88.56832)"><path
       style="display:inline;fill:#0156f3;fill-opacity:1;stroke-width:3.58881"
       d="m 154.1256,230.60967 c -16.18307,-1.32449 -32.06063,-7.62103 -44.81829,-17.7736 -3.29697,-2.62371 -12.919156,-12.25063 -15.612704,-15.62035 -7.980122,-9.98347 -14.2393,-23.02457 -16.715905,-34.82789 C 75.058865,153.23797 75.17037,156.95978 75.045335,97.855819 74.926187,41.579666 74.99581,37.56467 76.2131,30.400479 79.146058,13.139903 86.983812,-2.0078121 99.41295,-14.436947 c 10.79451,-10.794506 23.371,-17.980678 38.00073,-21.713511 9.26495,-2.363988 15.50888,-2.849238 34.03154,-2.644795 16.85059,0.185973 21.40673,0.732115 31.44877,3.769651 18.39956,5.565536 35.10427,18.423516 45.72131,35.19271873 2.1741,3.43390257 6.14667,11.51262027 7.5992,15.45397427 2.15896,5.858221 3.94504,13.511137 4.86751,20.856445 0.11556,0.919156 0.35135,2.559961 0.52433,3.646234 0.4659,2.926265 0.68288,108.71262 0.23542,114.70447 -1.26358,16.91537 -7.41671,32.7138 -17.81074,45.72985 -2.64862,3.31678 -8.95409,9.62226 -12.27087,12.27087 -12.87426,10.2808 -28.61028,16.46602 -45.25886,17.78954 -4.66865,0.37115 -27.80993,0.36483 -32.37555,-0.007 z"
       id="path1"
       sodipodi:nodetypes="csssscsssssssscssscc" /><path
       d="m 157.53124,213.00794 c 1.22382,-1.17035 3.78118,-3.51736 10.8511,-9.95871 3.75577,-3.42179 8.54145,-7.79519 10.63488,-9.71865 2.09339,-1.92346 6.06229,-5.54669 8.81976,-8.05161 2.75746,-2.50492 5.08194,-4.62487 5.16549,-4.711 0.0836,-0.0861 2.47639,-2.26681 5.31743,-4.84594 2.84102,-2.5791 5.23386,-4.76519 5.31741,-4.85796 0.0836,-0.093 2.40805,-2.21922 5.16552,-4.72547 2.75743,-2.50621 5.0819,-4.62537 5.16545,-4.7092 0.0836,-0.084 1.5812,-1.45139 3.32809,-3.03905 1.74689,-1.58762 3.39871,-3.09169 3.67074,-3.34237 0.27203,-0.25085 1.23556,-1.13944 2.14123,-1.97503 1.28857,-1.18883 5.85009,-5.33438 8.35867,-7.59633 3.07684,-2.77441 3.50821,-3.27842 3.11466,-3.63902 -0.22394,-0.20528 -2.11636,-1.92049 -4.20533,-3.81179 -4.6576,-4.21686 -9.15094,-8.31166 -11.9963,-10.93228 -2.12884,-1.96071 -4.71243,-4.31709 -12.00806,-10.95195 -2.08898,-1.89981 -4.48182,-4.08626 -5.3174,-4.85879 -1.98982,-1.83969 -5.04017,-4.62744 -8.9654,-8.19364 -1.74746,-1.58766 -4.13955,-3.775401 -5.31571,-4.861663 -1.17616,-1.086262 -3.52906,-3.248164 -5.22861,-4.804201 l -3.09015,-2.82917 2.33628,-2.182286 c 1.28494,-1.200243 4.04556,-3.824025 6.13475,-5.830638 2.08916,-2.006613 7.33977,-6.99833 11.66803,-11.092772 4.32828,-4.094406 8.84556,-8.401521 10.03841,-9.57133 1.19281,-1.169846 3.05232,-2.930446 4.13223,-3.912453 1.07995,-0.982008 3.67646,-3.443216 5.77006,-5.469353 4.77578,-4.621889 10.88103,-10.291318 11.42739,-10.611655 0.74978,-0.439558 0.4387,-1.024607 -1.48462,-2.792026 C 226.64189,37.445004 214.83265,26.047793 208.7963,20.137304 207.17484,18.549649 202.44517,13.969282 198.28588,9.9586388 194.12663,5.9480318 189.6171,1.57255 188.26477,0.23535803 185.78759,-2.2140432 184.78376,-3.1863247 169.59834,-17.844296 c -4.58801,-4.428668 -9.32532,-9.043452 -10.52735,-10.255035 -1.20204,-1.21162 -2.33158,-2.202958 -2.51013,-2.202958 -0.22896,0 -0.3273,14.806405 -0.33412,50.211703 -0.007,39.518295 -0.0886,50.114626 -0.3798,49.755889 -0.29859,-0.367531 -2.55506,-2.449115 -7.08195,-6.532826 -0.18518,-0.167238 -1.82427,-1.671203 -3.64222,-3.34237 -4.59974,-4.228448 -6.79032,-6.234487 -10.45188,-9.571366 -1.74212,-1.587655 -3.38274,-3.091691 -3.64584,-3.342406 -0.26306,-0.250858 -1.9109,-1.74829 -3.66174,-3.328086 -1.75087,-1.579796 -3.89415,-3.544564 -4.76285,-4.366223 -2.13438,-2.018743 -2.7387,-2.412652 -3.25377,-2.120989 -0.49127,0.278133 -1.77359,1.427666 -9.22572,8.26974 -1.71341,1.573156 -3.38731,3.050814 -3.71974,3.283657 -0.87215,0.610887 -0.75246,1.108943 0.53506,2.226715 1.21506,1.054896 4.73648,4.259384 11.16957,10.164382 2.1848,2.005429 5.39977,4.945206 7.1444,6.532825 1.74466,1.58762 4.13707,3.77536 5.3165,4.861659 1.17943,1.086262 3.57241,3.274003 5.3178,4.861622 1.74538,1.587619 4.06702,3.706993 5.1592,4.709708 2.44711,2.246633 8.05083,7.369198 9.00789,8.234461 l 0.70585,0.638091 -1.28659,1.142715 c -1.35374,1.202288 -9.68574,9.120938 -15.86593,15.078728 -2.00852,1.93623 -4.88244,4.65568 -6.38651,6.04323 -1.50407,1.38754 -3.56176,3.35841 -4.57262,4.37975 -1.01086,1.02134 -3.54043,3.42416 -5.62126,5.33965 -2.08087,1.9155 -4.67289,4.3767 -5.76008,5.46935 -1.0872,1.09266 -2.6938,2.64162 -3.57026,3.44214 -0.87646,0.80052 -1.59358,1.7043 -1.59358,2.00841 0,0.31043 1.22902,1.67174 2.80053,3.10232 1.54025,1.40215 3.01676,2.75448 3.28111,3.00516 0.26449,0.25086 1.68688,1.54965 3.16113,2.88659 1.47429,1.33698 3.01296,2.73848 3.41932,3.11452 0.40632,0.376 0.84441,0.68367 0.97353,0.68367 0.1292,0 1.06118,-0.85461 2.07122,-1.8991 1.01003,-1.04448 3.3199,-3.26643 5.13308,-4.93759 1.81314,-1.67121 4.94187,-4.63453 6.95275,-6.58515 2.01085,-1.95063 4.00738,-3.86491 4.43674,-4.25393 0.42933,-0.38907 2.18882,-2.00633 3.90994,-3.59395 1.72113,-1.58762 3.24993,-2.93217 3.39735,-2.9879 0.1475,-0.0556 0.26809,-0.24871 0.26809,-0.42865 0,-0.18016 0.39897,-0.68363 0.88661,-1.11899 0.48765,-0.4354 2.15369,-1.95167 3.70226,-3.3695 1.54857,-1.41784 3.43984,-3.148 4.2029,-3.84481 l 1.38729,-1.26692 0.0768,50.71898 c 0.0485,31.8373 0.18446,50.71898 0.36602,50.71898 0.15899,0 0.61085,-0.30756 1.00404,-0.68366 z m 17.84775,-71.06799 v -28.63902 l 0.98753,0.91543 c 0.54313,0.50348 1.73957,1.59979 2.6587,2.43627 0.91917,0.83648 2.76507,2.52674 4.10201,3.75612 3.88866,3.57583 7.96627,7.28838 12.18116,11.09066 0.46643,0.42075 6.49119,5.95991 9.08153,8.34952 1.17372,1.08274 2.17245,2.05273 2.21946,2.15547 0.047,0.10264 -0.56829,0.77727 -1.36734,1.49887 -0.79905,0.72164 -2.13645,1.9394 -2.97207,2.70618 -0.83559,0.76679 -2.94854,2.69312 -4.69543,4.28074 -1.74689,1.58762 -3.39469,3.09169 -3.66174,3.34237 -0.267,0.25086 -1.91093,1.75475 -3.65305,3.34241 -4.07556,3.7142 -6.37761,5.82407 -10.43114,9.56038 -1.8065,1.66517 -3.54671,3.21116 -3.86709,3.43557 -0.57288,0.40127 -0.58253,-0.0653 -0.58253,-28.23097 z m -0.0725,-101.388145 c -0.0434,-14.570405 -0.0287,-26.491619 0.0323,-26.491583 0.16365,3.6e-5 3.45768,3.124673 6.41587,6.085767 1.42393,1.425262 3.58023,3.495038 4.79185,4.599496 1.21162,1.104457 2.20296,2.082193 2.20296,2.172739 0,0.09044 0.84488,0.960546 1.87749,1.93333 1.03264,0.972784 2.98108,2.862761 4.3299,4.199989 1.34882,1.337228 3.23862,3.156684 4.19956,4.043265 0.96094,0.886545 1.74714,1.6707 1.74714,1.742549 0,0.07178 0.49106,0.58067 1.09125,1.130691 l 1.09122,1.000023 -1.62297,1.483616 c -2.86771,2.621413 -12.17319,11.487864 -14.68905,13.996015 -1.34107,1.336976 -4.00896,3.858082 -5.92865,5.602497 -1.91973,1.744378 -3.93327,3.581492 -4.47457,4.082419 l -0.9842,0.910769 z"
       style="display:inline;fill:#ffffff;fill-opacity:1;stroke-width:3.58881"
       id="path1-9"
       inkscape:label="path1-9" /></g></svg>
