<?xml version="1.0" encoding="UTF-8" standalone="no"?>
<!-- Created with Inkscape (http://www.inkscape.org/) -->

<svg
   width="256mm"
   height="256mm"
   viewBox="0 0 256 256"
   version="1.1"
   id="svg1"
   inkscape:version="1.3.2 (091e20ef0f, 2023-11-25)"
   sodipodi:docname="inode-vnd.kde.service.h323.svg"
   xml:space="preserve"
   xmlns:inkscape="http://www.inkscape.org/namespaces/inkscape"
   xmlns:sodipodi="http://sodipodi.sourceforge.net/DTD/sodipodi-0.dtd"
   xmlns="http://www.w3.org/2000/svg"
   xmlns:svg="http://www.w3.org/2000/svg"
   xmlns:rdf="http://www.w3.org/1999/02/22-rdf-syntax-ns#"
   xmlns:cc="http://creativecommons.org/ns#"
   xmlns:dc="http://purl.org/dc/elements/1.1/"><defs
     id="defs1" /><sodipodi:namedview
     id="base"
     pagecolor="#ffffff"
     bordercolor="#000000"
     borderopacity="0.3"
     inkscape:pageopacity="0.0"
     inkscape:pageshadow="2"
     inkscape:zoom="0.98994949"
     inkscape:cx="505.07627"
     inkscape:cy="476.792"
     inkscape:document-units="mm"
     inkscape:showpageshadow="2"
     inkscape:pagecheckerboard="0"
     inkscape:deskcolor="#d1d1d1"
     inkscape:current-layer="svg1" /><metadata
     id="metadata1"><rdf:RDF><cc:Work
         rdf:about=""><dc:format>image/svg+xml</dc:format><dc:type
           rdf:resource="http://purl.org/dc/dcmitype/StillImage" /><cc:license
           rdf:resource="http://creativecommons.org/publicdomain/zero/1.0/" /></cc:Work><cc:License
         rdf:about="http://creativecommons.org/publicdomain/zero/1.0/"><cc:permits
           rdf:resource="http://creativecommons.org/ns#Reproduction" /><cc:permits
           rdf:resource="http://creativecommons.org/ns#Distribution" /><cc:permits
           rdf:resource="http://creativecommons.org/ns#DerivativeWorks" /></cc:License></rdf:RDF></metadata><g
     id="g2"
     transform="matrix(3.104908,0,0,3.104908,-211.1444,2.2804574)"
     style="fill:#0f80d0;fill-opacity:1"><path
       id="path4154"
       d="m 109.67579,0.02116778 c -3.08041,0.0047401 -6.14334,0.39186083 -9.13648,1.11070342 -3.708852,0.8948359 -7.258001,2.3920065 -10.626697,4.1714199 2.443886,0.6735512 4.001056,3.2845788 3.826156,5.7650859 0.06197,2.682967 0.123941,5.365935 0.185912,8.048902 3.529216,-2.976926 8.072929,-4.465674 12.575259,-5.176266 4.81962,-0.602987 9.83507,0.0091 14.23902,2.112589 3.71562,1.694582 6.84452,4.424664 9.55711,7.435467 -1.05551,0.627614 -1.9054,1.905711 -1.29035,3.120978 0.5833,1.415635 2.35938,1.292282 3.58927,1.78122 4.37467,1.182652 8.72169,2.497251 13.11353,3.598052 1.55397,0.102484 2.69517,-1.595293 2.1779,-3.021435 -0.85472,-4.947749 -1.60331,-9.922498 -2.52353,-14.853615 -0.55496,-1.488919 -2.68393,-1.839921 -3.69911,-0.636755 -0.63419,0.682602 -1.25472,1.189386 -1.75076,0.09431 C 136.25424,9.3686997 131.62579,6.0321317 126.5594,3.7260637 121.26873,1.3286519 115.50564,-0.10192723 109.67579,0.02116778 Z"
       style="fill:#0f80d0;fill-opacity:1" /><path
       id="path4162"
       d="m 134.82659,32.581988 c 1.04427,6.144338 0.90725,12.781714 -2.09293,18.391717 -1.63107,2.998217 -3.86169,5.661561 -6.62304,7.682782 -3.96513,2.966438 -8.74575,4.843562 -13.64935,5.472922 -1.14766,-0.0079 -1.1634,-0.576325 -1.12125,-1.536391 0.16048,-1.747182 -2.01083,-2.914936 -3.4321,-1.938386 -4.38244,2.824804 -8.838816,5.57379 -13.175404,8.445566 -1.174134,1.0427 -0.674403,3.014224 0.731593,3.610491 1.887384,1.058391 3.670391,2.50996 5.591151,3.625616 2.80741,1.630661 6.72392,4.902302 8.65208,4.47293 1.3905,-0.198278 1.91655,-1.697203 1.70432,-2.932288 6.85955,-0.07632 13.69068,-2.046075 19.46847,-5.759689 6.55153,-4.113957 11.82965,-10.206424 15.11919,-17.197686 2.13316,-4.636207 3.48274,-9.654372 3.56603,-14.773806 0.0425,-1.979479 -0.075,-3.967646 -0.38503,-5.922952 -1.80553,1.394454 -4.27389,1.347449 -6.32987,0.572058 -2.67456,-0.737615 -5.3496,-1.475333 -8.02386,-2.212884 z"
       sodipodi:nodetypes="ccccccccacccccccc"
       style="fill:#0f80d0;fill-opacity:1" /><path
       id="path4156"
       d="m 87.811469,8.320162 c -1.709531,0.4800948 -3.245251,1.5097984 -4.886705,2.205479 -3.355228,1.645682 -6.763504,3.202821 -10.086313,4.902632 -0.964743,0.753372 -1.124865,2.177222 -0.279517,3.077667 0.730919,0.753777 1.756253,1.132203 2.613496,1.72282 -3.8463,6.090285 -5.291412,13.474759 -4.838245,20.609089 0.333737,5.462437 1.826825,10.854953 4.309492,15.729095 3.465256,6.616851 8.76983,12.285954 15.268931,15.990983 0.812137,0.26325 1.566241,0.581188 1.110644,-0.536944 -0.194973,-1.851437 -0.377016,-4.105663 1.25522,-5.396214 2.20463,-1.723939 4.700241,-3.058385 7.034107,-4.604737 C 94.507136,60.104608 90.682629,56.288955 87.991341,51.943043 85.80103,48.429532 84.510078,44.368103 84.281912,40.229202 83.999366,35.778055 85.09175,31.3457 86.975234,27.33159 88.349978,28.455318 90.719621,27.256841 90.50781,25.459312 90.369944,20.282001 90.371097,15.095069 90.145447,9.9238334 89.750261,8.962967 88.906238,8.2581556 87.811469,8.320162 Z"
       style="fill:#0f80d0;fill-opacity:1" /></g><g
     id="g4"
     transform="matrix(0.5405276,0,0,0.5405276,53.709488,48.889355)"><circle
       style="fill:#ffffff;stroke-width:2.025;stroke-miterlimit:2.1"
       id="path5"
       cx="129.35844"
       cy="195.64128"
       r="29.399649"
       transform="matrix(1.7986112,0,0,1.7986112,-78.057346,-168.60052)" /><path
       fill="#000000"
       d="m 245.8,222.2 c 0,-4 0,-9 0,-15.1 0,-58.1 -21,-74.3 -35,-82.9 -14,-8.6 -13.4,-18.3 -13.4,-18.3 0,0 2.1,-15.1 -10.2,-15.1 -12.4,0 -10.8,14.5 -10.8,22.6 0,8.1 -10.2,7.5 -10.2,7.5 h -39.4 c -9.8,0 -8.4,-9.2 -8.4,-9.2 0,-9.7 3,-18.3 -7.7,-18.3 -9.7,0 -11.3,10.2 -11.3,18.8 0,8.6 -5.9,16.7 -5.9,16.7 0,0 -15.1,15.6 -24.2,33.4 -9.1,17.8 -9.7,52.8 -9.7,52.8 l -8.6,1.1 c -11.3,0 -18.3,-14 -18.3,-14 0,0 8.9,6.7 19.4,-3.8 10.5,-10.5 1.1,-18.8 -4.7,-18.8 -5.8,0 -9.8,3.2 -13.1,6.5 -3.2,3.2 -11.3,5.9 -11.3,-2.7 0,-8.6 10.2,-4.3 10.2,-4.3 0,0 19.9,-2.1 19.9,-15.6 0,-13.5 -20.5,-8.6 -23.1,-7.5 -2.7,1.1 -10.8,5.4 -10.8,-3.2 0,-8.6 7.5,-12.4 11.8,-16.7 4.3,-4.3 16.3,0 16.3,0 l 11.2,-0.5 25.3,-11.8 c 0,0 4.3,-3.8 3.8,-9.7 -0.5,-5.9 -7.5,-4.8 -7.5,-4.8 0,0 -8.6,4.3 -37.1,14.5 -28.7,10.1 -33,23.1 -33,30 0,7 7.5,19.9 7.5,19.9 -9.2,14 7,23.7 7,23.7 2.1,31.8 36.6,27.8 36.6,27.8 2.7,4.6 5.4,12 12.9,13.7 7.5,1.6 8.1,6.5 8.1,6.5 h 24.8 c 0,-7.5 11.5,-8.6 11.5,-8.6 h 93 c 0,0 1.1,8.6 10.8,8.6 9.7,0 12.4,-7.8 12.4,-7.8 13.9,0 11.2,-15.4 11.2,-15.4 z m -93.8,2 c -24.7,0 -44.7,-20 -44.7,-44.7 0,-24.7 20,-44.7 44.7,-44.7 24.7,0 44.7,20 44.7,44.7 0,24.7 -20,44.7 -44.7,44.7 z"
       id="path1" /><path
       fill="#000000"
       d="m 124.9,179.5 c 0,15 12.1,27.1 27.1,27.1 15,0 27.1,-12.1 27.1,-27.1 v 0 c 0,-15 -12.1,-27.1 -27.1,-27.1 -15,0 -27.1,12.2 -27.1,27.1 z"
       id="path2" /><path
       fill="#000000"
       d="M 27.2,103.2 C 27.2,93 29.9,73 64.9,58.5 c 35,-14.5 90.5,-42 90.5,-42 0,0 10.2,-5.9 33.4,-5.9 23.1,0 36.1,11.3 45.2,20.5 0,0 5.4,10.2 0,13.5 -5.4,3.2 -34.5,12.4 -34.5,12.4 0,0 -6.5,4.3 -10.8,-2.1 -4.3,-6.5 -8.1,-10.8 -18.6,-7.3 -10.4,3.4 -76.7,30.1 -76.7,30.1 0,0 -11.5,4.5 -11.5,15.3 0,10.8 -5.7,12.9 -5.7,12.9 l -28.9,12.2 c 0,0.1 -20.1,10.4 -20.1,-14.9 z"
       id="path3" /><path
       fill="#000000"
       d="m 199.5,61 33.6,-13.5 c 0,0 9.2,-2.7 7,7.8 l -30.9,13.2 c 0,0 -16.1,4 -9.7,-7.5 z"
       id="path4" /></g><text
     xml:space="preserve"
     style="font-style:normal;font-variant:normal;font-weight:normal;font-stretch:normal;font-size:5.29167px;line-height:0.7;font-family:'Source Code Pro';-inkscape-font-specification:'Source Code Pro';letter-spacing:0px;word-spacing:0px;fill:#7d7d7d;stroke-width:2.025;stroke-miterlimit:2.1;fill-opacity:1"
     x="5.6126599"
     y="253.10423"
     id="text1"><tspan
       sodipodi:role="line"
       id="tspan1"
       style="stroke-width:2.025;fill:#7d7d7d;fill-opacity:1"
       x="5.6126599"
       y="253.10423">https://en.wikipedia.org/wiki/H.323</tspan></text></svg>
