<?xml version="1.0" encoding="UTF-8" standalone="no"?>
<!-- Created with Inkscape (http://www.inkscape.org/) -->

<svg
   width="256mm"
   height="256mm"
   viewBox="0 0 256 256"
   version="1.1"
   id="svg1"
   inkscape:version="1.3.2 (091e20ef0f, 2023-11-25)"
   sodipodi:docname="inode-vnd.kde.service.realplayfavs.svg"
   xml:space="preserve"
   xmlns:inkscape="http://www.inkscape.org/namespaces/inkscape"
   xmlns:sodipodi="http://sodipodi.sourceforge.net/DTD/sodipodi-0.dtd"
   xmlns:xlink="http://www.w3.org/1999/xlink"
   xmlns="http://www.w3.org/2000/svg"
   xmlns:svg="http://www.w3.org/2000/svg"
   xmlns:rdf="http://www.w3.org/1999/02/22-rdf-syntax-ns#"
   xmlns:cc="http://creativecommons.org/ns#"
   xmlns:dc="http://purl.org/dc/elements/1.1/"><defs
     id="defs1"><linearGradient
       inkscape:collect="always"
       xlink:href="#linearGradient17"
       id="linearGradient18"
       x1="113.42792"
       y1="148.35991"
       x2="183.49622"
       y2="150.98705"
       gradientUnits="userSpaceOnUse" /><linearGradient
       id="linearGradient17"
       inkscape:collect="always"><stop
         style="stop-color:#ffffff;stop-opacity:1;"
         offset="0"
         id="stop17" /><stop
         style="stop-color:#abd4ff;stop-opacity:0;"
         offset="1"
         id="stop18" /></linearGradient><radialGradient
       id="XMLID_11_"
       cx="94.323196"
       cy="50.379398"
       r="61.592602"
       fx="94.323196"
       fy="50.379398"
       gradientUnits="userSpaceOnUse">
				<stop
   offset="0"
   style="stop-color:#FFC0B8"
   id="stop28" />
				<stop
   offset="1"
   style="stop-color:#FF0000"
   id="stop29" />
				
				
				
			</radialGradient><linearGradient
       id="XMLID_12_"
       gradientUnits="userSpaceOnUse"
       x1="92.014603"
       y1="44.745602"
       x2="90.509804"
       y2="137.7296">
				<stop
   offset="0"
   style="stop-color:#F20000"
   id="stop30" />
				<stop
   offset="1"
   style="stop-color:#8D0000"
   id="stop31" />
				
				
				
			</linearGradient><linearGradient
       id="XMLID_13_"
       gradientUnits="userSpaceOnUse"
       x1="62.527344"
       y1="37.891567"
       x2="98.008102"
       y2="104.11658">
				<stop
   offset="0"
   style="stop-color:#FFFFFF"
   id="stop32" />
				<stop
   offset="1"
   style="stop-color:#FFFFFF;stop-opacity:0"
   id="stop33" />
				
				
				
			</linearGradient><linearGradient
       id="XMLID_14_"
       gradientUnits="userSpaceOnUse"
       x1="93.111298"
       y1="144.1152"
       x2="91.600502"
       y2="98.790298">
				<stop
   offset="0"
   style="stop-color:#FFFFFF"
   id="stop34" />
				<stop
   offset="1"
   style="stop-color:#FFFFFF;stop-opacity:0"
   id="stop35" />
				
				
				
			</linearGradient><linearGradient
       id="SVGID_XMLID_13__5"
       gradientUnits="userSpaceOnUse"
       x1="62.527344"
       y1="37.891567"
       x2="98.008102"
       y2="104.11658"
       gradientTransform="matrix(12.93,0,0,12.93,-644.6107,-648.6774)">
<stop
   offset="0%"
   style="stop-color:rgb(255,255,255);stop-opacity: 1"
   id="stop5" />
<stop
   offset="100%"
   style="stop-color:rgb(255,255,255);stop-opacity: 0"
   id="stop6" />
</linearGradient><linearGradient
       id="SVGID_XMLID_14__6"
       gradientUnits="userSpaceOnUse"
       x1="93.111298"
       y1="144.1152"
       x2="91.600502"
       y2="98.790298"
       gradientTransform="matrix(12.93,0,0,12.93,-644.5592,-648.7688)">
<stop
   offset="0%"
   style="stop-color:rgb(255,255,255);stop-opacity: 1"
   id="stop7" />
<stop
   offset="100%"
   style="stop-color:rgb(255,255,255);stop-opacity: 0"
   id="stop8" />
</linearGradient><radialGradient
       id="SVGID_XMLID_11__3"
       gradientUnits="userSpaceOnUse"
       cx="94.323196"
       cy="50.379398"
       r="61.592602"
       fx="94.323196"
       fy="50.379398"
       gradientTransform="matrix(12.93,0,0,12.93,-644.5766,-648.7742)">
<stop
   offset="0%"
   style="stop-color:rgb(255,192,184);stop-opacity: 1"
   id="stop1" />
<stop
   offset="100%"
   style="stop-color:rgb(255,0,0);stop-opacity: 1"
   id="stop2" />
</radialGradient><linearGradient
       id="SVGID_XMLID_12__4"
       gradientUnits="userSpaceOnUse"
       x1="92.014603"
       y1="44.745602"
       x2="90.509804"
       y2="137.7296"
       gradientTransform="matrix(12.93,0,0,12.93,-644.6466,-648.7842)">
<stop
   offset="0%"
   style="stop-color:rgb(242,0,0);stop-opacity: 1"
   id="stop3" />
<stop
   offset="100%"
   style="stop-color:rgb(141,0,0);stop-opacity: 1"
   id="stop4" />
</linearGradient><radialGradient
       id="SVGID_radialGradient10_7"
       gradientUnits="userSpaceOnUse"
       gradientTransform="matrix(13.4472,15.516,-27.2823,23.7912,1735.7071,-2925.8765)"
       cx="82.390617"
       cy="95.014931"
       r="35.417957"
       fx="82.390617"
       fy="95.014931">
<stop
   offset="0%"
   style="stop-color:rgb(0,0,0);stop-opacity: 0"
   id="stop9" />
<stop
   offset="51.891017%"
   style="stop-color:rgb(0,0,0);stop-opacity: 0"
   id="stop10" />
<stop
   offset="74.670732%"
   style="stop-color:rgb(0,0,0);stop-opacity: 1"
   id="stop11" />
<stop
   offset="84.996825%"
   style="stop-color:rgb(0,0,0);stop-opacity: 1"
   id="stop12" />
<stop
   offset="100%"
   style="stop-color:rgb(0,0,0);stop-opacity: 1"
   id="stop13" />
</radialGradient><radialGradient
       cx="38.797401"
       cy="112.9609"
       r="67.358803"
       fx="38.797401"
       fy="112.9609"
       id="bluelightlesstoblue"
       gradientUnits="userSpaceOnUse"><stop
         style="stop-color:#d9ffff;stop-opacity:1.0000000;"
         offset="0.0055999998"
         id="stop3468" /><stop
         style="stop-color:#6eaafe;stop-opacity:1.0000000;"
         offset="0.24089479"
         id="stop3469" /><stop
         style="stop-color:#0356fe;stop-opacity:1.0000000;"
         offset="1.0000000"
         id="stop3470" /></radialGradient><linearGradient
       x1="-229.39058"
       y1="289.30026"
       x2="-203.84911"
       y2="289.30026"
       id="linearGradient3471"
       collect="always"
       xlink:href="#bluelightlesstoblue"
       gradientTransform="matrix(1.395481,0,0,0.716599,337.6102,-241.4638)"
       gradientUnits="userSpaceOnUse" /><radialGradient
       inkscape:collect="always"
       xlink:href="#light75to0"
       id="radialGradient3045"
       gradientUnits="userSpaceOnUse"
       gradientTransform="matrix(1.153166,0,0,0.567477,69.26162,208.4443)"
       cx="17.741598"
       cy="31.72328"
       fx="17.741598"
       fy="31.72328"
       r="9.2936869" /><linearGradient
       inkscape:collect="always"
       xlink:href="#light75to0"
       id="linearGradient3044"
       gradientUnits="userSpaceOnUse"
       gradientTransform="matrix(1.273506,0,0,0.575045,68.79433,207.2818)"
       x1="5.6831765"
       y1="21.673885"
       x2="14.964557"
       y2="41.796101" /><linearGradient
       inkscape:collect="always"
       xlink:href="#garylighttowite"
       id="linearGradient3043"
       gradientUnits="userSpaceOnUse"
       gradientTransform="matrix(1.157103,0,0,0.569763,69.20782,208.5642)"
       x1="14.699177"
       y1="30.518322"
       x2="-0.95806932"
       y2="6.8631005" /><linearGradient
       inkscape:collect="always"
       xlink:href="#greantodarkgrean"
       id="linearGradient3042"
       gradientUnits="userSpaceOnUse"
       gradientTransform="matrix(1.425104,0,0,0.701703,-3.146582,10.46599)"
       x1="56.601124"
       y1="298.93405"
       x2="63.028267"
       y2="306.9472" /><radialGradient
       inkscape:collect="always"
       xlink:href="#light75to0"
       id="radialGradient3028"
       gradientUnits="userSpaceOnUse"
       gradientTransform="matrix(1.153166,0,0,0.567477,112.9949,197.5797)"
       cx="17.741598"
       cy="31.72328"
       fx="17.741598"
       fy="31.72328"
       r="9.2936869" /><linearGradient
       inkscape:collect="always"
       xlink:href="#light75to0"
       id="linearGradient3027"
       gradientUnits="userSpaceOnUse"
       gradientTransform="matrix(1.273506,0,0,0.575045,112.5276,196.4172)"
       x1="5.6831765"
       y1="21.673885"
       x2="14.964557"
       y2="41.796101" /><radialGradient
       inkscape:collect="always"
       xlink:href="#light75to0"
       id="radialGradient3236"
       gradientUnits="userSpaceOnUse"
       gradientTransform="matrix(1.127833,0,0,0.901321,100.6636,170.9705)"
       cx="54.483288"
       cy="66.623512"
       fx="54.483288"
       fy="66.623512"
       r="22.013363" /><linearGradient
       inkscape:collect="always"
       xlink:href="#garylighttowite"
       id="linearGradient3026"
       gradientUnits="userSpaceOnUse"
       gradientTransform="matrix(1.157103,0,0,0.569763,112.9411,197.6996)"
       x1="14.699177"
       y1="30.518322"
       x2="-0.95806932"
       y2="6.8631005" /><linearGradient
       inkscape:collect="always"
       xlink:href="#greantodarkgrean"
       id="linearGradient3025"
       gradientUnits="userSpaceOnUse"
       gradientTransform="matrix(1.425104,0,0,0.701703,40.58671,-0.398568)"
       x1="56.601124"
       y1="298.93405"
       x2="63.028267"
       y2="306.9472" /><linearGradient
       inkscape:collect="always"
       xlink:href="#light75to0"
       id="linearGradient3235"
       gradientUnits="userSpaceOnUse"
       gradientTransform="scale(1.178997,0.848179)"
       x1="65.49279"
       y1="177.25127"
       x2="128.39543"
       y2="264.10431" /><radialGradient
       inkscape:collect="always"
       xlink:href="#light75to0"
       id="radialGradient3049"
       gradientUnits="userSpaceOnUse"
       gradientTransform="matrix(1.153166,0,0,0.567477,69.26162,208.4443)"
       cx="17.741598"
       cy="31.72328"
       fx="17.741598"
       fy="31.72328"
       r="9.2936869" /><linearGradient
       id="greantodarkgrean"><stop
         style="stop-color:#00ff01;stop-opacity:1.0000000;"
         offset="0.0000000"
         id="stop5123" /><stop
         style="stop-color:#15980f;stop-opacity:1.0000000;"
         offset="1.0000000"
         id="stop5124" /></linearGradient><radialGradient
       inkscape:collect="always"
       xlink:href="#light75to0"
       id="radialGradient3234"
       gradientUnits="userSpaceOnUse"
       gradientTransform="matrix(1.137235,0,0,0.901321,99.9098,171.3698)"
       cx="57.165112"
       cy="68.95816"
       fx="57.165112"
       fy="68.95816"
       r="32.89352" /><radialGradient
       inkscape:collect="always"
       xlink:href="#light75to0"
       id="radialGradient3233"
       gradientUnits="userSpaceOnUse"
       gradientTransform="matrix(0.752677,0,0,0.567477,102.8777,215.8329)"
       cx="17.741598"
       cy="31.72328"
       fx="17.741598"
       fy="31.72328"
       r="9.2936869" /><linearGradient
       inkscape:collect="always"
       xlink:href="#light75to0"
       id="linearGradient3232"
       gradientUnits="userSpaceOnUse"
       gradientTransform="matrix(0.831223,0,0,0.575045,102.4739,214.7439)"
       x1="5.6831765"
       y1="21.673885"
       x2="14.964557"
       y2="41.796101" /><linearGradient
       inkscape:collect="always"
       xlink:href="#garylighttowite"
       id="linearGradient3231"
       gradientUnits="userSpaceOnUse"
       gradientTransform="matrix(0.755246,0,0,0.569763,102.7439,216.0263)"
       x1="14.699177"
       y1="30.518322"
       x2="-0.95806932"
       y2="6.8631005" /><linearGradient
       inkscape:collect="always"
       xlink:href="#garylighttowite"
       id="linearGradient3230"
       gradientUnits="userSpaceOnUse"
       gradientTransform="matrix(0.755259,0,0,0.569753,102.7439,216.0263)"
       x1="22.979046"
       y1="53.585712"
       x2="6.4564261"
       y2="20.178543" /><radialGradient
       inkscape:collect="always"
       xlink:href="#light75to0"
       id="radialGradient3229"
       gradientUnits="userSpaceOnUse"
       gradientTransform="matrix(0.752677,0,0,0.567477,102.9901,207.0938)"
       cx="17.741598"
       cy="31.72328"
       fx="17.741598"
       fy="31.72328"
       r="9.2936869" /><linearGradient
       inkscape:collect="always"
       xlink:href="#light75to0"
       id="linearGradient3228"
       gradientUnits="userSpaceOnUse"
       gradientTransform="matrix(0.831223,0,0,0.575045,102.4739,205.7799)"
       x1="5.6831765"
       y1="21.673885"
       x2="14.964557"
       y2="41.796101" /><linearGradient
       inkscape:collect="always"
       xlink:href="#garylighttowite"
       id="linearGradient3227"
       gradientUnits="userSpaceOnUse"
       gradientTransform="matrix(0.755246,0,0,0.569763,102.7439,207.0623)"
       x1="14.699177"
       y1="30.518322"
       x2="-0.95806932"
       y2="6.8631005" /><linearGradient
       inkscape:collect="always"
       xlink:href="#garylighttowite"
       id="linearGradient3226"
       gradientUnits="userSpaceOnUse"
       gradientTransform="matrix(0.755259,0,0,0.569753,102.7439,207.0623)"
       x1="22.979046"
       y1="53.585712"
       x2="6.4564261"
       y2="20.178543" /><radialGradient
       inkscape:collect="always"
       xlink:href="#light75to0"
       id="radialGradient3221"
       gradientUnits="userSpaceOnUse"
       gradientTransform="matrix(0.752677,0,0,0.567477,102.7651,189.0531)"
       cx="17.741598"
       cy="31.72328"
       fx="17.741598"
       fy="31.72328"
       r="9.2936869" /><linearGradient
       inkscape:collect="always"
       xlink:href="#light75to0"
       id="linearGradient3220"
       gradientUnits="userSpaceOnUse"
       gradientTransform="matrix(0.831223,0,0,0.575045,102.4739,187.8517)"
       x1="5.6831765"
       y1="21.673885"
       x2="14.964557"
       y2="41.796101" /><linearGradient
       inkscape:collect="always"
       xlink:href="#garylighttowite"
       id="linearGradient3219"
       gradientUnits="userSpaceOnUse"
       gradientTransform="matrix(0.755246,0,0,0.569763,102.7439,189.1341)"
       x1="14.699177"
       y1="30.518322"
       x2="-0.95806932"
       y2="6.8631005" /><linearGradient
       inkscape:collect="always"
       xlink:href="#garylighttowite"
       id="linearGradient3218"
       gradientUnits="userSpaceOnUse"
       gradientTransform="matrix(0.755259,0,0,0.569753,102.7439,189.1341)"
       x1="22.979046"
       y1="53.585712"
       x2="6.4564261"
       y2="20.178543" /><radialGradient
       inkscape:collect="always"
       xlink:href="#light75to0"
       id="radialGradient3217"
       gradientUnits="userSpaceOnUse"
       gradientTransform="matrix(0.752677,0,0,0.567477,103.1026,180.3285)"
       cx="17.741598"
       cy="31.72328"
       fx="17.741598"
       fy="31.72328"
       r="9.2936869" /><linearGradient
       inkscape:collect="always"
       xlink:href="#light75to0"
       id="linearGradient3216"
       gradientUnits="userSpaceOnUse"
       gradientTransform="matrix(0.831223,0,0,0.575045,102.4739,178.902)"
       x1="5.6831765"
       y1="21.673885"
       x2="14.964557"
       y2="41.796101" /><linearGradient
       inkscape:collect="always"
       xlink:href="#garylighttowite"
       id="linearGradient3215"
       gradientUnits="userSpaceOnUse"
       gradientTransform="matrix(0.755246,0,0,0.569763,102.7439,180.1844)"
       x1="14.699177"
       y1="30.518322"
       x2="-0.95806932"
       y2="6.8631005" /><linearGradient
       inkscape:collect="always"
       xlink:href="#garylighttowite"
       id="linearGradient3214"
       gradientUnits="userSpaceOnUse"
       gradientTransform="matrix(0.755259,0,0,0.569753,102.7439,180.1844)"
       x1="22.979046"
       y1="53.585712"
       x2="6.4564261"
       y2="20.178543" /><linearGradient
       id="bludraktowhite"
       gradientUnits="userSpaceOnUse"
       x1="33.332001"
       y1="10.3052"
       x2="33.332001"
       y2="91.4077"><stop
         offset="0"
         style="stop-color:rgb(255,255,255)"
         id="stop7271" /><stop
         offset="1"
         style="stop-color:rgb(84,84,119)"
         id="stop7273" /></linearGradient><radialGradient
       inkscape:collect="always"
       xlink:href="#light75to0"
       id="radialGradient5543"
       gradientUnits="userSpaceOnUse"
       gradientTransform="matrix(0.752677,0,0,0.567477,102.6417,198.2288)"
       cx="17.741598"
       cy="31.72328"
       fx="17.741598"
       fy="31.72328"
       r="9.2936869" /><linearGradient
       id="light75to0"><stop
         style="stop-color:#ffffff;stop-opacity:0.72916669;"
         offset="0.0000000"
         id="stop2769" /><stop
         style="stop-color:#ffffff;stop-opacity:0.0000000;"
         offset="1.0000000"
         id="stop2770" /></linearGradient><linearGradient
       inkscape:collect="always"
       xlink:href="#light75to0"
       id="linearGradient5544"
       gradientUnits="userSpaceOnUse"
       gradientTransform="matrix(0.831223,0,0,0.575045,102.539,196.7913)"
       x1="5.6831765"
       y1="21.673885"
       x2="14.964557"
       y2="41.796101" /><linearGradient
       inkscape:collect="always"
       xlink:href="#garylighttowite"
       id="linearGradient5546"
       gradientUnits="userSpaceOnUse"
       gradientTransform="matrix(0.755246,0,0,0.569763,102.809,198.0737)"
       x1="14.699177"
       y1="30.518322"
       x2="-0.95806932"
       y2="6.8631005" /><linearGradient
       id="greandarktobgrean"><stop
         style="stop-color:#00ad01;stop-opacity:1.0000000;"
         offset="0.0000000"
         id="stop4492" /><stop
         style="stop-color:#15720f;stop-opacity:1.0000000;"
         offset="1.0000000"
         id="stop4493" /></linearGradient><linearGradient
       inkscape:collect="always"
       xlink:href="#greandarktobgrean"
       id="linearGradient5545"
       gradientUnits="userSpaceOnUse"
       gradientTransform="matrix(0.930171,0,0,0.701703,55.58287,-0.02453)"
       x1="56.601124"
       y1="298.93405"
       x2="63.028267"
       y2="306.9472" /><linearGradient
       inkscape:collect="always"
       xlink:href="#garylighttowite"
       id="linearGradient3197"
       gradientUnits="userSpaceOnUse"
       gradientTransform="matrix(1.161778,0,0,0.958139,92.30482,170.1421)"
       x1="60.118301"
       y1="60.763058"
       x2="22.065891"
       y2="17.787029" /><linearGradient
       id="garylighttowite"><stop
         style="stop-color:#7d7d7d;stop-opacity:1.0000000;"
         offset="0.0000000"
         id="stop5106" /><stop
         style="stop-color:#d3d4d4;stop-opacity:1.0000000;"
         offset="1.0000000"
         id="stop5107" /></linearGradient><linearGradient
       inkscape:collect="always"
       xlink:href="#garylighttowite"
       id="linearGradient3196"
       gradientUnits="userSpaceOnUse"
       gradientTransform="matrix(1.161778,0,0,0.958139,92.30482,170.1421)"
       x1="58.493671"
       y1="51.05872"
       x2="9.8675079"
       y2="8.7825632" /><linearGradient
       id="graytolightgray"><stop
         style="stop-color:#d4d3d3;stop-opacity:1.0000000;"
         offset="0.0000000"
         id="stop5101" /><stop
         style="stop-color:#ffffff;stop-opacity:1.0000000;"
         offset="1.0000000"
         id="stop5102" /></linearGradient><linearGradient
       inkscape:collect="always"
       xlink:href="#graytolightgray"
       id="linearGradient3195"
       gradientUnits="userSpaceOnUse"
       gradientTransform="matrix(1.13497,0,0,0.894659,98.89866,170.7963)"
       x1="57.453247"
       y1="65.521439"
       x2="8.0769463"
       y2="17.892019" /><linearGradient
       inkscape:collect="always"
       xlink:href="#greantodarkgrean"
       id="linearGradient2518"
       gradientTransform="scale(0.999857,1.000143)"
       x1="351.57092"
       y1="50.663139"
       x2="176.99603"
       y2="218.6331"
       gradientUnits="userSpaceOnUse" /><radialGradient
       inkscape:collect="always"
       xlink:href="#greandarktobgrean"
       id="radialGradient9371"
       gradientTransform="scale(0.999855,1.000145)"
       cx="78.732162"
       cy="52.096363"
       fx="78.732162"
       fy="52.096363"
       r="219.06058"
       gradientUnits="userSpaceOnUse" /><radialGradient
       inkscape:collect="always"
       xlink:href="#light100to0"
       id="radialGradient3143"
       gradientTransform="scale(0.999851,1.000149)"
       cx="232.0688"
       cy="333.0015"
       fx="232.0688"
       fy="333.0015"
       r="105.99626"
       gradientUnits="userSpaceOnUse" /><linearGradient
       id="light100to0"><stop
         style="stop-color:#ffffff;stop-opacity:1.0000000;"
         offset="0.0000000"
         id="stop2764" /><stop
         style="stop-color:#ffffff;stop-opacity:0.0000000;"
         offset="1.0000000"
         id="stop2765" /></linearGradient><linearGradient
       inkscape:collect="always"
       xlink:href="#light100to0"
       id="linearGradient4390"
       gradientTransform="matrix(1.048333,0,0,0.953895,3.135114,2.949073)"
       x1="23.488348"
       y1="34.215549"
       x2="261.13272"
       y2="362.30255"
       gradientUnits="userSpaceOnUse" /><linearGradient
       inkscape:collect="always"
       xlink:href="#light75to0"
       id="linearGradient10826"
       gradientUnits="userSpaceOnUse"
       gradientTransform="matrix(1.338395,0,0,0.594171,48.1017,-10.30535)"
       x1="5.6831765"
       y1="21.673885"
       x2="14.964557"
       y2="41.796101" /><linearGradient
       inkscape:collect="always"
       xlink:href="#bluelightlesstoblue"
       id="linearGradient10827"
       gradientUnits="userSpaceOnUse"
       gradientTransform="matrix(1.211573,0,0,0.58652,-9.072597,-9.15471)"
       x1="51.89975"
       y1="16.215153"
       x2="64.908592"
       y2="31.783899" /><linearGradient
       inkscape:collect="always"
       xlink:href="#garylighttowite"
       id="linearGradient10828"
       gradientUnits="userSpaceOnUse"
       gradientTransform="matrix(1.216061,0,0,0.588713,48.53626,-8.98029)"
       x1="14.699177"
       y1="30.518322"
       x2="-0.95806932"
       y2="6.8631005" /><linearGradient
       inkscape:collect="always"
       xlink:href="#light75to0"
       id="linearGradient10829"
       gradientUnits="userSpaceOnUse"
       gradientTransform="matrix(1.338395,0,0,0.594171,28.92128,-10.51407)"
       x1="5.6831765"
       y1="21.673885"
       x2="14.964557"
       y2="41.796101" /><linearGradient
       inkscape:collect="always"
       xlink:href="#bluelightlesstoblue"
       id="linearGradient10830"
       gradientUnits="userSpaceOnUse"
       gradientTransform="matrix(1.437254,0,0,0.695771,0,10)"
       x1="24.260241"
       y1="-11.936115"
       x2="37.231518"
       y2="3.0705032" /><linearGradient
       inkscape:collect="always"
       xlink:href="#garylighttowite"
       id="linearGradient10831"
       gradientUnits="userSpaceOnUse"
       gradientTransform="matrix(1.216061,0,0,0.588713,29.35585,-9.18901)"
       x1="14.699177"
       y1="30.518322"
       x2="-0.95806932"
       y2="6.8631005" /><linearGradient
       inkscape:collect="always"
       xlink:href="#light75to0"
       id="linearGradient10832"
       gradientUnits="userSpaceOnUse"
       gradientTransform="matrix(1.338395,0,0,0.594171,9.740965,-10.52894)"
       x1="5.6831765"
       y1="21.673885"
       x2="14.964557"
       y2="41.796101" /><linearGradient
       inkscape:collect="always"
       xlink:href="#bluelightlesstoblue"
       id="linearGradient10833"
       gradientUnits="userSpaceOnUse"
       gradientTransform="matrix(1.437254,0,0,0.695771,0,10)"
       x1="10.626847"
       y1="-12.486367"
       x2="30.964518"
       y2="12.172108" /><linearGradient
       inkscape:collect="always"
       xlink:href="#garylighttowite"
       id="linearGradient10834"
       gradientUnits="userSpaceOnUse"
       gradientTransform="matrix(1.216061,0,0,0.588713,10.17553,-9.20389)"
       x1="14.699177"
       y1="30.518322"
       x2="-0.95806932"
       y2="6.8631005" /><linearGradient
       inkscape:collect="always"
       xlink:href="#light75to0"
       id="linearGradient10835"
       gradientUnits="userSpaceOnUse"
       gradientTransform="matrix(0.873576,0,0,0.594171,-0.995256,-10.51231)"
       x1="5.6831765"
       y1="21.673885"
       x2="14.964557"
       y2="41.796101" /><linearGradient
       inkscape:collect="always"
       xlink:href="#bluelightlesstoblue"
       id="linearGradient10836"
       gradientUnits="userSpaceOnUse"
       gradientTransform="matrix(1.161159,0,0,0.861209,0,10)"
       x1="2.4107552"
       y1="-9.3231096"
       x2="30.756163"
       y2="17.80114" /><linearGradient
       inkscape:collect="always"
       xlink:href="#garylighttowite"
       id="linearGradient10837"
       gradientUnits="userSpaceOnUse"
       gradientTransform="matrix(0.793728,0,0,0.588713,-0.711603,-9.18726)"
       x1="14.699177"
       y1="30.518322"
       x2="-0.95806932"
       y2="6.8631005" /><linearGradient
       id="linearGradient4"><stop
         style="stop-color:#ff0f0f;stop-opacity:1;"
         offset="0"
         id="stop3-3" /><stop
         style="stop-color:#e64822;stop-opacity:1;"
         offset="1"
         id="stop4-6" /></linearGradient><linearGradient
       id="linearGradient2"><stop
         style="stop-color:#ff4200;stop-opacity:1;"
         offset="0"
         id="stop1-7" /><stop
         style="stop-color:#b81010;stop-opacity:1;"
         offset="1"
         id="stop2-5" /></linearGradient><radialGradient
       cx="38.797401"
       cy="112.9609"
       r="67.358803"
       fx="38.797401"
       fy="112.9609"
       id="bluelightlesstoblue-7"
       gradientUnits="userSpaceOnUse"><stop
         style="stop-color:#d9ffff;stop-opacity:1.0000000;"
         offset="0.0055999998"
         id="stop3468-5" /><stop
         style="stop-color:#6eaafe;stop-opacity:1.0000000;"
         offset="0.24089479"
         id="stop3469-3" /><stop
         style="stop-color:#0356fe;stop-opacity:1.0000000;"
         offset="1.0000000"
         id="stop3470-5" /></radialGradient><radialGradient
       inkscape:collect="always"
       xlink:href="#light75to0"
       id="radialGradient3045-6"
       gradientUnits="userSpaceOnUse"
       gradientTransform="matrix(1.153166,0,0,0.567477,69.26162,208.4443)"
       cx="17.741598"
       cy="31.72328"
       fx="17.741598"
       fy="31.72328"
       r="9.2936869" /><radialGradient
       inkscape:collect="always"
       xlink:href="#light75to0"
       id="radialGradient3028-2"
       gradientUnits="userSpaceOnUse"
       gradientTransform="matrix(1.153166,0,0,0.567477,112.9949,197.5797)"
       cx="17.741598"
       cy="31.72328"
       fx="17.741598"
       fy="31.72328"
       r="9.2936869" /><radialGradient
       inkscape:collect="always"
       xlink:href="#light75to0"
       id="radialGradient3236-9"
       gradientUnits="userSpaceOnUse"
       gradientTransform="matrix(1.127833,0,0,0.901321,100.6636,170.9705)"
       cx="54.483288"
       cy="66.623512"
       fx="54.483288"
       fy="66.623512"
       r="22.013363" /><radialGradient
       inkscape:collect="always"
       xlink:href="#light75to0"
       id="radialGradient3049-1"
       gradientUnits="userSpaceOnUse"
       gradientTransform="matrix(1.153166,0,0,0.567477,69.26162,208.4443)"
       cx="17.741598"
       cy="31.72328"
       fx="17.741598"
       fy="31.72328"
       r="9.2936869" /><radialGradient
       inkscape:collect="always"
       xlink:href="#light75to0"
       id="radialGradient3234-0"
       gradientUnits="userSpaceOnUse"
       gradientTransform="matrix(1.137235,0,0,0.901321,99.9098,171.3698)"
       cx="57.165112"
       cy="68.95816"
       fx="57.165112"
       fy="68.95816"
       r="32.89352" /><radialGradient
       inkscape:collect="always"
       xlink:href="#light75to0"
       id="radialGradient3233-9"
       gradientUnits="userSpaceOnUse"
       gradientTransform="matrix(0.752677,0,0,0.567477,102.8777,215.8329)"
       cx="17.741598"
       cy="31.72328"
       fx="17.741598"
       fy="31.72328"
       r="9.2936869" /><radialGradient
       inkscape:collect="always"
       xlink:href="#light75to0"
       id="radialGradient3229-3"
       gradientUnits="userSpaceOnUse"
       gradientTransform="matrix(0.752677,0,0,0.567477,102.9901,207.0938)"
       cx="17.741598"
       cy="31.72328"
       fx="17.741598"
       fy="31.72328"
       r="9.2936869" /><radialGradient
       inkscape:collect="always"
       xlink:href="#light75to0"
       id="radialGradient3221-6"
       gradientUnits="userSpaceOnUse"
       gradientTransform="matrix(0.752677,0,0,0.567477,102.7651,189.0531)"
       cx="17.741598"
       cy="31.72328"
       fx="17.741598"
       fy="31.72328"
       r="9.2936869" /><radialGradient
       inkscape:collect="always"
       xlink:href="#light75to0"
       id="radialGradient3217-0"
       gradientUnits="userSpaceOnUse"
       gradientTransform="matrix(0.752677,0,0,0.567477,103.1026,180.3285)"
       cx="17.741598"
       cy="31.72328"
       fx="17.741598"
       fy="31.72328"
       r="9.2936869" /><radialGradient
       inkscape:collect="always"
       xlink:href="#light75to0"
       id="radialGradient5543-6"
       gradientUnits="userSpaceOnUse"
       gradientTransform="matrix(0.752677,0,0,0.567477,102.6417,198.2288)"
       cx="17.741598"
       cy="31.72328"
       fx="17.741598"
       fy="31.72328"
       r="9.2936869" /><radialGradient
       inkscape:collect="always"
       xlink:href="#greandarktobgrean"
       id="radialGradient9371-9"
       gradientTransform="scale(0.999855,1.000145)"
       cx="78.732162"
       cy="52.096363"
       fx="78.732162"
       fy="52.096363"
       r="219.06058"
       gradientUnits="userSpaceOnUse" /><radialGradient
       inkscape:collect="always"
       xlink:href="#light100to0"
       id="radialGradient3143-8"
       gradientTransform="scale(0.999851,1.000149)"
       cx="232.0688"
       cy="333.0015"
       fx="232.0688"
       fy="333.0015"
       r="105.99626"
       gradientUnits="userSpaceOnUse" /><clipPath
       clipPathUnits="userSpaceOnUse"
       id="clipPath2"><rect
         style="fill:#303030;fill-opacity:0.234266;stroke-width:0.614467;stroke-linejoin:round;stroke-opacity:0.955178"
         id="rect2"
         width="322.34329"
         height="113.20296"
         x="19.98414"
         y="125.06965" /></clipPath><clipPath
       clipPathUnits="userSpaceOnUse"
       id="clipPath7"><rect
         style="fill:#000000;fill-opacity:1;stroke-width:6.13843;stroke-linejoin:round;stroke-dasharray:none;stroke-opacity:0.955178"
         id="rect8"
         width="217.44028"
         height="83.563812"
         x="26.687832"
         y="129.36821" /></clipPath><clipPath
       clipPathUnits="userSpaceOnUse"
       id="clipPath9"><rect
         style="fill:#000000;fill-opacity:1;stroke-width:6.13843;stroke-linejoin:round;stroke-dasharray:none;stroke-opacity:0.955178"
         id="rect10"
         width="237.63225"
         height="97.004898"
         x="3.6088881"
         y="129.88403" /></clipPath><radialGradient
       inkscape:collect="always"
       xlink:href="#linearGradient3-0"
       id="radialGradient7"
       cx="140.16675"
       cy="158.72911"
       fx="140.16675"
       fy="158.72911"
       r="62.144695"
       gradientTransform="matrix(0.65282085,0.48416279,-2.2103408,2.9803127,400.52735,-381.82639)"
       gradientUnits="userSpaceOnUse" /><linearGradient
       id="linearGradient3-0"
       inkscape:collect="always"><stop
         style="stop-color:#49ace1;stop-opacity:1;"
         offset="0"
         id="stop6-6" /><stop
         style="stop-color:#1b94d1;stop-opacity:1;"
         offset="0.5538491"
         id="stop8-1" /><stop
         style="stop-color:#176ca8;stop-opacity:1;"
         offset="0.84975439"
         id="stop9-5" /><stop
         style="stop-color:#135592;stop-opacity:1;"
         offset="1"
         id="stop7-5" /></linearGradient><radialGradient
       inkscape:collect="always"
       xlink:href="#linearGradient10-4"
       id="radialGradient11"
       cx="152.95671"
       cy="172.78772"
       fx="152.95671"
       fy="172.78772"
       r="62.640976"
       gradientTransform="matrix(0.94672189,0.84864231,-2.1408157,2.3882348,375.42852,-359.14302)"
       gradientUnits="userSpaceOnUse" /><linearGradient
       id="linearGradient10-4"
       inkscape:collect="always"><stop
         style="stop-color:#c3c3c7;stop-opacity:0.68858129;"
         offset="0"
         id="stop10-7" /><stop
         style="stop-color:#c5d0d6;stop-opacity:0.64359862;"
         offset="0.48335963"
         id="stop13-65" /><stop
         style="stop-color:#008ad6;stop-opacity:0;"
         offset="1"
         id="stop11-6" /></linearGradient><radialGradient
       inkscape:collect="always"
       xlink:href="#linearGradient3-0"
       id="radialGradient17"
       gradientUnits="userSpaceOnUse"
       gradientTransform="matrix(0.65282085,0.48416279,-2.2103408,2.9803127,400.52735,-381.82639)"
       cx="140.16675"
       cy="158.72911"
       fx="140.16675"
       fy="158.72911"
       r="62.144695" /><radialGradient
       inkscape:collect="always"
       xlink:href="#linearGradient10-4"
       id="radialGradient18"
       gradientUnits="userSpaceOnUse"
       gradientTransform="matrix(0.94672189,0.84864231,-2.1408157,2.3882348,375.42852,-359.14302)"
       cx="152.95671"
       cy="172.78772"
       fx="152.95671"
       fy="172.78772"
       r="62.640976" /><radialGradient
       inkscape:collect="always"
       xlink:href="#linearGradient3-0"
       id="radialGradient30"
       gradientUnits="userSpaceOnUse"
       gradientTransform="matrix(0.65282085,0.48416279,-2.2103408,2.9803127,400.52735,-381.82639)"
       cx="140.16675"
       cy="158.72911"
       fx="140.16675"
       fy="158.72911"
       r="62.144695" /><radialGradient
       inkscape:collect="always"
       xlink:href="#linearGradient10-4"
       id="radialGradient31"
       gradientUnits="userSpaceOnUse"
       gradientTransform="matrix(0.94672189,0.84864231,-2.1408157,2.3882348,375.42852,-359.14302)"
       cx="152.95671"
       cy="172.78772"
       fx="152.95671"
       fy="172.78772"
       r="62.640976" /></defs><sodipodi:namedview
     id="base"
     pagecolor="#ffffff"
     bordercolor="#000000"
     borderopacity="0.3"
     inkscape:pageopacity="0.0"
     inkscape:pageshadow="2"
     inkscape:zoom="0.98994949"
     inkscape:cx="505.07627"
     inkscape:cy="476.792"
     inkscape:document-units="mm"
     inkscape:showpageshadow="2"
     inkscape:pagecheckerboard="0"
     inkscape:deskcolor="#d1d1d1"
     inkscape:current-layer="svg1" /><metadata
     id="metadata1"><rdf:RDF><cc:Work
         rdf:about=""><dc:format>image/svg+xml</dc:format><dc:type
           rdf:resource="http://purl.org/dc/dcmitype/StillImage" /><cc:license
           rdf:resource="http://creativecommons.org/publicdomain/zero/1.0/" /></cc:Work><cc:License
         rdf:about="http://creativecommons.org/publicdomain/zero/1.0/"><cc:permits
           rdf:resource="http://creativecommons.org/ns#Reproduction" /><cc:permits
           rdf:resource="http://creativecommons.org/ns#Distribution" /><cc:permits
           rdf:resource="http://creativecommons.org/ns#DerivativeWorks" /></cc:License></rdf:RDF></metadata><g
     id="g2"
     transform="matrix(3.104908,0,0,3.104908,-211.1444,2.2804574)"
     style="fill:#0f80d0;fill-opacity:1"><path
       id="path4154"
       d="m 109.67579,0.02116778 c -3.08041,0.0047401 -6.14334,0.39186083 -9.13648,1.11070342 -3.708852,0.8948359 -7.258001,2.3920065 -10.626697,4.1714199 2.443886,0.6735512 4.001056,3.2845788 3.826156,5.7650859 0.06197,2.682967 0.123941,5.365935 0.185912,8.048902 3.529216,-2.976926 8.072929,-4.465674 12.575259,-5.176266 4.81962,-0.602987 9.83507,0.0091 14.23902,2.112589 3.71562,1.694582 6.84452,4.424664 9.55711,7.435467 -1.05551,0.627614 -1.9054,1.905711 -1.29035,3.120978 0.5833,1.415635 2.35938,1.292282 3.58927,1.78122 4.37467,1.182652 8.72169,2.497251 13.11353,3.598052 1.55397,0.102484 2.69517,-1.595293 2.1779,-3.021435 -0.85472,-4.947749 -1.60331,-9.922498 -2.52353,-14.853615 -0.55496,-1.488919 -2.68393,-1.839921 -3.69911,-0.636755 -0.63419,0.682602 -1.25472,1.189386 -1.75076,0.09431 C 136.25424,9.3686997 131.62579,6.0321317 126.5594,3.7260637 121.26873,1.3286519 115.50564,-0.10192723 109.67579,0.02116778 Z"
       style="fill:#0f80d0;fill-opacity:1" /><path
       id="path4162"
       d="m 134.82659,32.581988 c 1.04427,6.144338 0.90725,12.781714 -2.09293,18.391717 -1.63107,2.998217 -3.86169,5.661561 -6.62304,7.682782 -3.96513,2.966438 -8.74575,4.843562 -13.64935,5.472922 -1.14766,-0.0079 -1.1634,-0.576325 -1.12125,-1.536391 0.16048,-1.747182 -2.01083,-2.914936 -3.4321,-1.938386 -4.38244,2.824804 -8.838816,5.57379 -13.175404,8.445566 -1.174134,1.0427 -0.674403,3.014224 0.731593,3.610491 1.887384,1.058391 3.670391,2.50996 5.591151,3.625616 2.80741,1.630661 6.72392,4.902302 8.65208,4.47293 1.3905,-0.198278 1.91655,-1.697203 1.70432,-2.932288 6.85955,-0.07632 13.69068,-2.046075 19.46847,-5.759689 6.55153,-4.113957 11.82965,-10.206424 15.11919,-17.197686 2.13316,-4.636207 3.48274,-9.654372 3.56603,-14.773806 0.0425,-1.979479 -0.075,-3.967646 -0.38503,-5.922952 -1.80553,1.394454 -4.27389,1.347449 -6.32987,0.572058 -2.67456,-0.737615 -5.3496,-1.475333 -8.02386,-2.212884 z"
       sodipodi:nodetypes="ccccccccacccccccc"
       style="fill:#0f80d0;fill-opacity:1" /><path
       id="path4156"
       d="m 87.811469,8.320162 c -1.709531,0.4800948 -3.245251,1.5097984 -4.886705,2.205479 -3.355228,1.645682 -6.763504,3.202821 -10.086313,4.902632 -0.964743,0.753372 -1.124865,2.177222 -0.279517,3.077667 0.730919,0.753777 1.756253,1.132203 2.613496,1.72282 -3.8463,6.090285 -5.291412,13.474759 -4.838245,20.609089 0.333737,5.462437 1.826825,10.854953 4.309492,15.729095 3.465256,6.616851 8.76983,12.285954 15.268931,15.990983 0.812137,0.26325 1.566241,0.581188 1.110644,-0.536944 -0.194973,-1.851437 -0.377016,-4.105663 1.25522,-5.396214 2.20463,-1.723939 4.700241,-3.058385 7.034107,-4.604737 C 94.507136,60.104608 90.682629,56.288955 87.991341,51.943043 85.80103,48.429532 84.510078,44.368103 84.281912,40.229202 83.999366,35.778055 85.09175,31.3457 86.975234,27.33159 88.349978,28.455318 90.719621,27.256841 90.50781,25.459312 90.369944,20.282001 90.371097,15.095069 90.145447,9.9238334 89.750261,8.962967 88.906238,8.2581556 87.811469,8.320162 Z"
       style="fill:#0f80d0;fill-opacity:1" /></g><g
     id="g1"
     transform="matrix(0.17039594,0,0,0.17039594,-8.7604309,86.685269)"><path
       style="fill:url(#SVGID_XMLID_11__3);fill-rule:nonzero;stroke:none;stroke-width:12.93;stroke-linecap:butt;stroke-linejoin:miter;stroke-miterlimit:4;stroke-dasharray:none;stroke-dashoffset:0"
       vector-effect="non-scaling-stroke"
       d="M 862.11751,161.43253 C 767.05615,102.56224 647.10454,129.49543 543.949,188.74069 462.47707,130.96945 364.222,90.66664 273.15601,122.07361 107.47099,179.15956 26.749,398.14204 124.39636,583.95907 222.18595,770.09935 502.90918,965.6656 528.1744,968.83345 531.30346,969.20842 837.27898,771.49579 931.96537,618.65026 1042.5169,440.1904 1011.1228,253.7398 862.11751,161.43253 Z"
       stroke-linecap="round"
       id="path2" /><path
       style="fill:url(#SVGID_XMLID_12__4);fill-rule:nonzero;stroke:none;stroke-width:12.93;stroke-linecap:butt;stroke-linejoin:miter;stroke-miterlimit:4;stroke-dasharray:none;stroke-dashoffset:0"
       vector-effect="non-scaling-stroke"
       d="m 269.8923,112.81866 c -77.15331,26.60994 -140.23878,89.28165 -173.05512,172.04658 -38.46675,96.98793 -31.58799,207.66873 18.83901,303.63519 99.18603,188.79093 379.96098,386.06394 411.19986,389.99466 16.36938,2.01708 321.76305,-206.95758 413.30745,-354.72162 59.59437,-96.22506 80.7091,-199.09614 59.45214,-289.632 -17.80461,-75.79566 -63.6156,-138.37686 -132.42906,-181.02 C 752.15544,81.86424 617.67051,136.29954 544.35741,177.46866 473.31999,128.07606 369.87999,78.38607 269.8923,112.81866 Z M 132.97653,579.42357 C 105.59079,527.3286 91.76862,470.72106 91.76862,414.64365 c 0,-41.84148 7.69335,-83.3985 23.23521,-122.58933 30.70875,-77.42484 89.4756,-136.01067 161.27589,-160.74576 94.37607,-32.53188 194.55771,17.5848 261.93594,65.39994 l 5.08149,3.6204 5.4306,-3.09027 c 68.30919,-39.25548 199.19958,-95.00964 308.19948,-27.50211 64.30089,39.86319 107.07333,98.25507 123.66252,168.89166 5.08149,21.51552 7.55112,43.81977 7.55112,66.5895 0,67.64976 -22.04565,139.61814 -64.59828,208.27644 C 836.16165,754.57335 557.89512,940.24815 527.16051,958.18206 493.40028,946.11837 228.28356,760.81854 132.97653,579.42357 Z"
       stroke-linecap="round"
       id="path4" /><path
       style="fill:url(#SVGID_radialGradient10_7);fill-rule:nonzero;stroke:none;stroke-width:12.93;stroke-linecap:butt;stroke-linejoin:miter;stroke-miterlimit:4;stroke-dasharray:none;stroke-dashoffset:0"
       vector-effect="non-scaling-stroke"
       d="M 862.11751,161.43253 C 767.05615,102.56224 647.10454,129.49543 543.949,188.74069 462.47707,130.96945 364.222,90.66664 273.15601,122.07361 107.47099,179.15956 26.749,398.14204 124.39636,583.95907 222.18595,770.09935 502.90918,965.6656 528.1744,968.83345 531.30346,969.20842 837.27898,771.49579 931.96537,618.65026 1042.5169,440.1904 1011.1228,253.7398 862.11751,161.43253 Z"
       stroke-linecap="round"
       id="path13-6" /></g><g
     id="g24"><g
       id="g29"
       transform="matrix(0.88856767,0,0,1.0897053,169.1263,208.25807)"
       style="display:inline"><path
         id="rect24"
         style="fill:#858585;fill-rule:evenodd;stroke-width:14.8384;stroke-linecap:round;stroke-linejoin:round"
         d="M -13.281639,-73.216095 H 96.182442 v 6.713797 H -13.281639 Z" /><path
         id="path24"
         style="fill:#858585;fill-rule:evenodd;stroke-width:14.8384;stroke-linecap:round;stroke-linejoin:round"
         d="M -13.281639,-57.453267 H 96.182442 v 6.713797 H -13.281639 Z" /><path
         id="path25-6"
         style="fill:#858585;fill-rule:evenodd;stroke-width:14.8384;stroke-linecap:round;stroke-linejoin:round"
         d="M -13.281639,-40.522822 H 96.182442 v 6.713797 H -13.281639 Z" /><path
         id="path26"
         style="fill:#858585;fill-rule:evenodd;stroke-width:14.8384;stroke-linecap:round;stroke-linejoin:round"
         d="M -13.281639,-23.300473 H 96.182442 v 6.713797 H -13.281639 Z" /><path
         id="path27-1"
         style="fill:#858585;fill-rule:evenodd;stroke-width:14.8384;stroke-linecap:round;stroke-linejoin:round"
         d="M -13.281639,-5.4943156 H 96.182442 v 6.713797 H -13.281639 Z" /><path
         id="path28"
         style="fill:#858585;fill-rule:evenodd;stroke-width:14.8384;stroke-linecap:round;stroke-linejoin:round"
         d="M -13.281639,10.852321 H 96.182442 v 6.713797 H -13.281639 Z" /><path
         id="path29-2"
         style="fill:#858585;fill-rule:evenodd;stroke-width:14.8384;stroke-linecap:round;stroke-linejoin:round"
         d="M -13.281639,28.658478 H 96.182442 v 6.713797 H -13.281639 Z" /></g><g
       id="rect1-9"
       style="display:inline"
       transform="matrix(0.20510462,0,0,0.20510462,109.42139,196.80828)"><g
         id="g13"
         inkscape:label="shadow"><path
           style="color:#000000;display:inline;fill:#000000;fill-opacity:0.12549;stroke-width:1.02033;stroke-linecap:round;stroke-linejoin:round;stroke-miterlimit:9.6;-inkscape-stroke:none"
           d="m 155.09203,44.128821 h 7.66499 c 8.83212,26.150392 28.0383,37.039316 36.58943,49.942883 13.38977,20.205026 13.84091,42.793196 5.97771,66.622656 -2.63483,6.1994 -7.12406,11.36858 -12.05184,16.29411 l -7.90603,-0.19283 c -0.45643,-0.27247 -0.62147,-0.96163 -0.57848,-1.73547 26.86421,-40.19353 5.55945,-76.471908 -14.07657,-81.072826 -0.8512,-0.199444 -1.67963,-0.260238 -1.54264,0.976202 l -0.94006,106.398644 c -5.09396,15.74799 -14.25278,20.31764 -23.35648,25.03889 -24.78205,11.41742 -45.836214,2.41071 -51.099878,-2.20549 -14.73573,-12.92314 -11.655719,-34.88233 -1.542637,-46.74914 13.388465,-15.71017 49.852315,-17.70353 61.430795,-7.79728 0.57474,0.53908 1.41031,0.64384 1.41031,-0.68653 z"
           id="path13-5"
           inkscape:label="shadow" /><path
           style="color:#000000;display:inline;fill:#000000;fill-opacity:0.12549;stroke-width:1.02033;stroke-linecap:round;stroke-linejoin:round;stroke-miterlimit:9.6;-inkscape-stroke:none"
           d="m 154.03369,43.070487 h 7.66499 c 8.83212,26.150392 28.0383,37.039316 36.58943,49.942883 13.38977,20.20502 13.84091,42.79319 5.97771,66.62265 -2.63483,6.1994 -7.12406,11.36858 -12.05184,16.29411 l -7.90603,-0.19283 c -0.45643,-0.27247 -0.62147,-0.96163 -0.57848,-1.73547 26.86421,-40.19353 5.55945,-76.471902 -14.07657,-81.07282 -0.8512,-0.199444 -1.67963,-0.260238 -1.54264,0.976202 L 167.1702,200.30385 c -5.09396,15.74799 -14.25278,20.31764 -23.35648,25.03889 -24.78205,11.41742 -45.836208,2.41071 -51.099872,-2.20549 -14.73573,-12.92314 -11.655719,-34.88233 -1.542637,-46.74914 13.388459,-15.71017 49.852309,-17.70353 61.430789,-7.79728 0.57474,0.53908 1.41031,0.64384 1.41031,-0.68653 z"
           id="path14-3"
           inkscape:label="shadow" /><path
           style="color:#000000;display:inline;fill:#000000;fill-opacity:0.12549;stroke-width:1.02033;stroke-linecap:round;stroke-linejoin:round;stroke-miterlimit:9.6;-inkscape-stroke:none"
           d="m 152.97535,42.54132 h 7.66499 c 8.83212,26.150392 28.0383,37.039316 36.58943,49.942883 13.38977,20.205017 13.84091,42.793187 5.97771,66.622647 -2.63483,6.1994 -7.12406,11.36858 -12.05184,16.29411 l -7.90603,-0.19283 c -0.45643,-0.27247 -0.62147,-0.96163 -0.57848,-1.73547 26.86421,-40.19353 5.55945,-76.471899 -14.07657,-81.072817 -0.8512,-0.199444 -1.67963,-0.260238 -1.54264,0.976202 l -0.94006,106.398635 c -5.09396,15.74799 -14.25278,20.31764 -23.35648,25.03889 -24.78205,11.41742 -45.836202,2.41071 -51.099866,-2.20549 -14.73573,-12.92314 -11.655719,-34.88233 -1.542637,-46.74914 13.388453,-15.71017 49.852303,-17.70353 61.430783,-7.79728 0.57474,0.53908 1.41031,0.64384 1.41031,-0.68653 z"
           id="path15-74"
           inkscape:label="shadow" /></g><path
         style="color:#000000;display:inline;fill:url(#radialGradient7);stroke-linecap:round;stroke-linejoin:round;stroke-miterlimit:9.6;-inkscape-stroke:none"
         d="m 151.75743,44.412207 h 7.51228 c 8.65617,25.629421 27.47972,36.301415 35.86049,48.947916 13.12302,19.802487 13.56517,41.940657 5.85863,65.295387 -2.58234,6.07589 -6.98214,11.14209 -11.81175,15.96949 l -7.74852,-0.18898 c -0.44734,-0.26705 -0.60909,-0.94248 -0.56696,-1.7009 26.32902,-39.39279 5.4487,-74.948419 -13.79613,-79.457677 -0.83424,-0.19547 -1.64617,-0.255053 -1.51191,0.956754 l -0.92133,104.278953 c -4.99248,15.43426 -13.96884,19.91287 -22.89117,24.54006 -24.28834,11.18996 -44.923044,2.36268 -50.081845,-2.16155 -14.442163,-12.66568 -11.423512,-34.1874 -1.511904,-45.8178 13.121719,-15.39719 48.859139,-17.35084 60.206949,-7.64194 0.56329,0.52834 1.38221,0.63101 1.38221,-0.67285 z"
         id="path2-6" /><path
         id="path9"
         style="fill:#e9f6fd;fill-opacity:0.694051;stroke-width:1.00012;stroke-linecap:round;stroke-linejoin:round;stroke-miterlimit:9.6"
         d="m 142.13248,163.49091 c 0,0 -25.00347,-2.15193 -40.03306,6.45523 -26.544086,15.20131 -17.409988,45.3446 -14.030971,45.02781 -1.566973,1.29045 -17.766277,-28.72311 12.000741,-47.15253 14.77187,-9.14559 42.06329,-4.33051 42.06329,-4.33051 z"
         sodipodi:nodetypes="cscsc" /><path
         id="rect9"
         style="fill-opacity:0.27762;stroke-width:1.00012;stroke-linecap:round;stroke-linejoin:round;stroke-miterlimit:9.6"
         d="m 163.94717,120.95239 1.32292,-20.88318 -1.22842,98.74627 c -8.02842,31.25115 -48.73997,30.58724 -60.54706,27.47417 h -0.33073 c 19.8255,3.87828 54.81643,-5.62772 59.79852,-28.50003 z"
         sodipodi:nodetypes="ccccccc" /><path
         id="path1-5"
         style="display:inline;fill:#cfdbe1;fill-opacity:0.408284;stroke:none;stroke-width:1.00012;stroke-linecap:round;stroke-linejoin:round;stroke-miterlimit:9.6;stroke-opacity:1"
         d="m 151.75743,44.412207 h 7.51228 c 8.68472,24.772966 25.15743,34.284299 35.86049,48.947916 1.15043,1.576134 0.88922,3.412855 0.18899,4.819196 l -13.61189,4.685561 c -3.72009,-4.429995 -10.73943,-8.913294 -15.24319,-9.453802 -0.85073,-0.102098 -12.785,0.279486 -12.65074,1.491293 l 0.14103,76.396489 c -23.7635,-11.47401 -76.008779,25.22658 -62.295185,49.5928 -9.391695,-6.72813 -16.222507,-30.26855 -1.511904,-45.8178 14.739289,-15.57957 48.859139,-17.35084 60.206949,-7.64194 0.56329,0.52834 1.38221,0.63101 1.38221,-0.67285 z"
         sodipodi:nodetypes="ccsccscccsccc"
         inkscape:label="shadowhead" /><path
         style="color:#000000;display:inline;fill:#008ad6;stroke-linecap:round;stroke-linejoin:round;stroke-miterlimit:9.6;-inkscape-stroke:none"
         d="m 151.75781,43.912109 a 0.50011003,0.50011003 0 0 0 -0.5,0.5 l -0.0215,122.347661 c 0,0.27361 -0.047,0.43608 -0.0801,0.5 -0.0331,0.0639 -0.0237,0.0386 -0.0254,0.0391 -0.003,8.7e-4 -0.22836,-0.0399 -0.43359,-0.23242 a 0.50011003,0.50011003 0 0 0 -0.0176,-0.0137 c -5.88353,-5.03379 -17.73413,-6.92087 -29.8125,-5.71289 -12.07837,1.20799 -24.400164,5.54894 -31.099612,13.41016 -5.038312,5.91202 -8.305052,14.29596 -8.496094,22.83398 -0.191041,8.53803 2.718972,17.2468 10.058594,23.6836 2.706678,2.37373 9.194582,5.70498 18.119142,7.09179 8.92455,1.38682 20.26353,0.78685 32.50195,-4.85156 a 0.50011003,0.50011003 0 0 0 0.0195,-0.01 c 8.91771,-4.62479 18.09895,-9.25579 23.13672,-24.83008 a 0.50011003,0.50011003 0 0 0 0.0254,-0.15039 l 0.91992,-104.279299 a 0.50011003,0.50011003 0 0 0 -0.002,-0.05859 c -0.0275,-0.248568 0.003,-0.385534 0.0234,-0.433593 0.0209,-0.04806 0.0112,-0.03476 0.0527,-0.05078 0.083,-0.03205 0.4312,-0.02373 0.82422,0.06836 18.75456,4.394383 39.67802,39.517732 13.49414,78.693362 a 0.50011003,0.50011003 0 0 0 -0.082,0.25 c -0.0235,0.4228 0.006,0.83346 0.12109,1.20899 0.11516,0.37552 0.32729,0.73418 0.6875,0.94921 a 0.50011003,0.50011003 0 0 0 0.24415,0.0703 l 7.74804,0.18945 a 0.50011003,0.50011003 0 0 0 0.36719,-0.14648 c 4.84593,-4.84372 9.29479,-9.95499 11.91797,-16.12696 a 0.50011003,0.50011003 0 0 0 0.0137,-0.0391 c 7.73778,-23.44941 7.29894,-45.78731 -5.91602,-65.72852 -8.49966,-12.825912 -27.20343,-23.370985 -35.80273,-48.832031 a 0.50011003,0.50011003 0 0 0 -0.47461,-0.339844 z m 0.5,1 h 6.67969 c 8.76756,25.535332 27.55254,36.316412 35.77539,48.72461 13.02738,19.658161 13.47516,41.589121 5.80664,64.841801 -2.51674,5.90995 -6.80929,10.87972 -11.55859,15.64062 l -7.31836,-0.17773 c -0.0728,-0.0614 -0.14751,-0.137 -0.20313,-0.31836 -0.0596,-0.19424 -0.0773,-0.47186 -0.0703,-0.76368 26.3164,-39.54872 5.51986,-75.450263 -14.18945,-80.068354 -0.44122,-0.103381 -0.91613,-0.221536 -1.41407,-0.0293 -0.24896,0.09612 -0.4897,0.310456 -0.60937,0.585937 -0.11967,0.275481 -0.1392,0.584072 -0.0996,0.941406 l -0.004,-0.05859 -0.91992,104.187501 c -4.94835,15.23402 -13.69785,19.56325 -22.60742,24.18359 -12.04761,5.54901 -23.16874,6.12971 -31.92187,4.76953 -8.75457,-1.36039 -15.163121,-4.70498 -17.615239,-6.85547 -7.102526,-6.22886 -9.902442,-14.61331 -9.716797,-22.91015 0.185645,-8.29684 3.382573,-16.48866 8.25586,-22.20703 6.422257,-7.53596 18.529796,-11.87159 30.437496,-13.0625 11.9077,-1.19092 23.60018,0.80146 29.06446,5.47656 l -0.0176,-0.0156 c 0.35805,0.33584 0.82417,0.61238 1.37109,0.47071 0.27347,-0.0708 0.52206,-0.2818 0.66016,-0.54883 0.13809,-0.26703 0.19336,-0.58067 0.19336,-0.95898 z"
         id="path3" /><path
         id="path10"
         style="color:#000000;display:inline;fill:url(#radialGradient11);stroke-linecap:round;stroke-linejoin:round;stroke-miterlimit:9.6;-inkscape-stroke:none"
         d="m 155.33987,43.912048 v 0.999939 h 3.59772 c 8.76755,25.535307 27.55223,36.316489 35.77507,48.724675 13.02737,19.658138 13.4754,41.589378 5.80688,64.842038 -2.51673,5.90994 -6.80917,10.87949 -11.55846,15.64039 l -7.31842,-0.17777 c -0.0728,-0.0614 -0.14747,-0.13697 -0.20309,-0.31833 -0.0596,-0.19424 -0.0773,-0.47195 -0.0703,-0.76377 26.31637,-39.54868 5.51946,-75.449898 -14.18983,-80.067985 -0.44122,-0.103381 -0.91593,-0.221691 -1.41387,-0.02945 -0.24896,0.09612 -0.48959,0.31053 -0.60926,0.586011 -0.11967,0.27548 -0.13934,0.583694 -0.0997,0.941027 l -0.004,-0.05839 -0.91984,104.187437 c -4.94835,15.23401 -13.69785,19.5632 -22.60741,24.18354 -12.0476,5.549 -23.16844,6.12991 -31.92156,4.76973 -8.75457,-1.36038 -15.163351,-4.7049 -17.615466,-6.85539 -7.102519,-6.22885 -9.902365,-14.6134 -9.71672,-22.91023 0.08839,-3.95051 0.876732,-7.86888 2.18643,-11.51609 h -1.05575 c -1.272647,3.65023 -2.042357,7.54981 -2.130619,11.49439 -0.191041,8.53802 2.718686,17.24703 10.058301,23.68382 2.706675,2.37373 9.194754,5.70475 18.119304,7.09156 8.92454,1.38682 20.26349,0.78702 32.5019,-4.85139 a 0.50011003,0.50011003 0 0 0 0.0196,-0.01 c 8.9177,-4.62479 18.09881,-9.25574 23.13657,-24.83001 a 0.50011003,0.50011003 0 0 0 0.0253,-0.15038 L 166.0524,94.238175 a 0.50011003,0.50011003 0 0 0 -0.002,-0.05891 c -0.0275,-0.248567 0.003,-0.385506 0.0232,-0.433565 0.0209,-0.04806 0.0112,-0.03462 0.0527,-0.05064 0.083,-0.03205 0.43122,-0.02388 0.82424,0.06821 18.75454,4.394379 39.67812,39.5178 13.49427,78.69339 a 0.50011003,0.50011003 0 0 0 -0.0822,0.25011 c -0.0235,0.4228 0.006,0.8337 0.12092,1.20923 0.11516,0.37552 0.32761,0.73375 0.68782,0.94878 a 0.50011003,0.50011003 0 0 0 0.24391,0.0708 l 7.74785,0.18913 a 0.50011003,0.50011003 0 0 0 0.36742,-0.14624 c 4.84592,-4.84372 9.29496,-9.95522 11.91813,-16.12718 a 0.50011003,0.50011003 0 0 0 0.0134,-0.0393 c 7.73777,-23.44938 7.29903,-45.7871 -5.91592,-65.728285 -8.49965,-12.825899 -27.20369,-23.371141 -35.80298,-48.832162 a 0.50011003,0.50011003 0 0 0 -0.47439,-0.339514 z" /></g><g
       id="g17"
       style="display:inline"
       transform="matrix(0.20510462,0,0,0.20510462,110.03556,157.29669)"><g
         id="g6"
         inkscape:label="shadow"><path
           style="color:#000000;display:inline;fill:#000000;fill-opacity:0.12549;stroke-width:1.02033;stroke-linecap:round;stroke-linejoin:round;stroke-miterlimit:9.6;-inkscape-stroke:none"
           d="m 155.09203,44.128821 h 7.66499 c 8.83212,26.150392 28.0383,37.039316 36.58943,49.942883 13.38977,20.205026 13.84091,42.793196 5.97771,66.622656 -2.63483,6.1994 -7.12406,11.36858 -12.05184,16.29411 l -7.90603,-0.19283 c -0.45643,-0.27247 -0.62147,-0.96163 -0.57848,-1.73547 26.86421,-40.19353 5.55945,-76.471908 -14.07657,-81.072826 -0.8512,-0.199444 -1.67963,-0.260238 -1.54264,0.976202 l -0.94006,106.398644 c -5.09396,15.74799 -14.25278,20.31764 -23.35648,25.03889 -24.78205,11.41742 -45.836214,2.41071 -51.099878,-2.20549 -14.73573,-12.92314 -11.655719,-34.88233 -1.542637,-46.74914 13.388465,-15.71017 49.852315,-17.70353 61.430795,-7.79728 0.57474,0.53908 1.41031,0.64384 1.41031,-0.68653 z"
           id="path1"
           inkscape:label="shadow" /><path
           style="color:#000000;display:inline;fill:#000000;fill-opacity:0.12549;stroke-width:1.02033;stroke-linecap:round;stroke-linejoin:round;stroke-miterlimit:9.6;-inkscape-stroke:none"
           d="m 154.03369,43.070487 h 7.66499 c 8.83212,26.150392 28.0383,37.039316 36.58943,49.942883 13.38977,20.20502 13.84091,42.79319 5.97771,66.62265 -2.63483,6.1994 -7.12406,11.36858 -12.05184,16.29411 l -7.90603,-0.19283 c -0.45643,-0.27247 -0.62147,-0.96163 -0.57848,-1.73547 26.86421,-40.19353 5.55945,-76.471902 -14.07657,-81.07282 -0.8512,-0.199444 -1.67963,-0.260238 -1.54264,0.976202 L 167.1702,200.30385 c -5.09396,15.74799 -14.25278,20.31764 -23.35648,25.03889 -24.78205,11.41742 -45.836208,2.41071 -51.099872,-2.20549 -14.73573,-12.92314 -11.655719,-34.88233 -1.542637,-46.74914 13.388459,-15.71017 49.852309,-17.70353 61.430789,-7.79728 0.57474,0.53908 1.41031,0.64384 1.41031,-0.68653 z"
           id="path5"
           inkscape:label="shadow" /><path
           style="color:#000000;display:inline;fill:#000000;fill-opacity:0.12549;stroke-width:1.02033;stroke-linecap:round;stroke-linejoin:round;stroke-miterlimit:9.6;-inkscape-stroke:none"
           d="m 152.97535,42.54132 h 7.66499 c 8.83212,26.150392 28.0383,37.039316 36.58943,49.942883 13.38977,20.205017 13.84091,42.793187 5.97771,66.622647 -2.63483,6.1994 -7.12406,11.36858 -12.05184,16.29411 l -7.90603,-0.19283 c -0.45643,-0.27247 -0.62147,-0.96163 -0.57848,-1.73547 26.86421,-40.19353 5.55945,-76.471899 -14.07657,-81.072817 -0.8512,-0.199444 -1.67963,-0.260238 -1.54264,0.976202 l -0.94006,106.398635 c -5.09396,15.74799 -14.25278,20.31764 -23.35648,25.03889 -24.78205,11.41742 -45.836202,2.41071 -51.099866,-2.20549 -14.73573,-12.92314 -11.655719,-34.88233 -1.542637,-46.74914 13.388453,-15.71017 49.852303,-17.70353 61.430783,-7.79728 0.57474,0.53908 1.41031,0.64384 1.41031,-0.68653 z"
           id="path6"
           inkscape:label="shadow" /></g><path
         style="color:#000000;display:inline;fill:url(#radialGradient17);stroke-linecap:round;stroke-linejoin:round;stroke-miterlimit:9.6;-inkscape-stroke:none"
         d="m 151.75743,44.412207 h 7.51228 c 8.65617,25.629421 27.47972,36.301415 35.86049,48.947916 13.12302,19.802487 13.56517,41.940657 5.85863,65.295387 -2.58234,6.07589 -6.98214,11.14209 -11.81175,15.96949 l -7.74852,-0.18898 c -0.44734,-0.26705 -0.60909,-0.94248 -0.56696,-1.7009 26.32902,-39.39279 5.4487,-74.948419 -13.79613,-79.457677 -0.83424,-0.19547 -1.64617,-0.255053 -1.51191,0.956754 l -0.92133,104.278953 c -4.99248,15.43426 -13.96884,19.91287 -22.89117,24.54006 -24.28834,11.18996 -44.923044,2.36268 -50.081845,-2.16155 -14.442163,-12.66568 -11.423512,-34.1874 -1.511904,-45.8178 13.121719,-15.39719 48.859139,-17.35084 60.206949,-7.64194 0.56329,0.52834 1.38221,0.63101 1.38221,-0.67285 z"
         id="path7" /><path
         id="path11"
         style="fill:#e9f6fd;fill-opacity:0.694051;stroke-width:1.00012;stroke-linecap:round;stroke-linejoin:round;stroke-miterlimit:9.6"
         d="m 142.13248,163.49091 c 0,0 -25.00347,-2.15193 -40.03306,6.45523 -26.544086,15.20131 -17.409988,45.3446 -14.030971,45.02781 -1.566973,1.29045 -17.766277,-28.72311 12.000741,-47.15253 14.77187,-9.14559 42.06329,-4.33051 42.06329,-4.33051 z"
         sodipodi:nodetypes="cscsc" /><path
         id="path12"
         style="fill-opacity:0.27762;stroke-width:1.00012;stroke-linecap:round;stroke-linejoin:round;stroke-miterlimit:9.6"
         d="m 163.94717,120.95239 1.32292,-20.88318 -1.22842,98.74627 c -8.02842,31.25115 -48.73997,30.58724 -60.54706,27.47417 h -0.33073 c 19.8255,3.87828 54.81643,-5.62772 59.79852,-28.50003 z"
         sodipodi:nodetypes="ccccccc" /><path
         id="path14"
         style="display:inline;fill:#cfdbe1;fill-opacity:0.408284;stroke:none;stroke-width:1.00012;stroke-linecap:round;stroke-linejoin:round;stroke-miterlimit:9.6;stroke-opacity:1"
         d="m 151.75743,44.412207 h 7.51228 c 8.68472,24.772966 25.15743,34.284299 35.86049,48.947916 1.15043,1.576134 0.88922,3.412855 0.18899,4.819196 l -13.61189,4.685561 c -3.72009,-4.429995 -10.73943,-8.913294 -15.24319,-9.453802 -0.85073,-0.102098 -12.785,0.279486 -12.65074,1.491293 l 0.14103,76.396489 c -23.7635,-11.47401 -76.008779,25.22658 -62.295185,49.5928 -9.391695,-6.72813 -16.222507,-30.26855 -1.511904,-45.8178 14.739289,-15.57957 48.859139,-17.35084 60.206949,-7.64194 0.56329,0.52834 1.38221,0.63101 1.38221,-0.67285 z"
         sodipodi:nodetypes="ccsccscccsccc"
         inkscape:label="shadowhead" /><path
         style="color:#000000;display:inline;fill:#008ad6;stroke-linecap:round;stroke-linejoin:round;stroke-miterlimit:9.6;-inkscape-stroke:none"
         d="m 151.75781,43.912109 a 0.50011003,0.50011003 0 0 0 -0.5,0.5 l -0.0215,122.347661 c 0,0.27361 -0.047,0.43608 -0.0801,0.5 -0.0331,0.0639 -0.0237,0.0386 -0.0254,0.0391 -0.003,8.7e-4 -0.22836,-0.0399 -0.43359,-0.23242 a 0.50011003,0.50011003 0 0 0 -0.0176,-0.0137 c -5.88353,-5.03379 -17.73413,-6.92087 -29.8125,-5.71289 -12.07837,1.20799 -24.400164,5.54894 -31.099612,13.41016 -5.038312,5.91202 -8.305052,14.29596 -8.496094,22.83398 -0.191041,8.53803 2.718972,17.2468 10.058594,23.6836 2.706678,2.37373 9.194582,5.70498 18.119142,7.09179 8.92455,1.38682 20.26353,0.78685 32.50195,-4.85156 a 0.50011003,0.50011003 0 0 0 0.0195,-0.01 c 8.91771,-4.62479 18.09895,-9.25579 23.13672,-24.83008 a 0.50011003,0.50011003 0 0 0 0.0254,-0.15039 l 0.91992,-104.279299 a 0.50011003,0.50011003 0 0 0 -0.002,-0.05859 c -0.0275,-0.248568 0.003,-0.385534 0.0234,-0.433593 0.0209,-0.04806 0.0112,-0.03476 0.0527,-0.05078 0.083,-0.03205 0.4312,-0.02373 0.82422,0.06836 18.75456,4.394383 39.67802,39.517732 13.49414,78.693362 a 0.50011003,0.50011003 0 0 0 -0.082,0.25 c -0.0235,0.4228 0.006,0.83346 0.12109,1.20899 0.11516,0.37552 0.32729,0.73418 0.6875,0.94921 a 0.50011003,0.50011003 0 0 0 0.24415,0.0703 l 7.74804,0.18945 a 0.50011003,0.50011003 0 0 0 0.36719,-0.14648 c 4.84593,-4.84372 9.29479,-9.95499 11.91797,-16.12696 a 0.50011003,0.50011003 0 0 0 0.0137,-0.0391 c 7.73778,-23.44941 7.29894,-45.78731 -5.91602,-65.72852 -8.49966,-12.825912 -27.20343,-23.370985 -35.80273,-48.832031 a 0.50011003,0.50011003 0 0 0 -0.47461,-0.339844 z m 0.5,1 h 6.67969 c 8.76756,25.535332 27.55254,36.316412 35.77539,48.72461 13.02738,19.658161 13.47516,41.589121 5.80664,64.841801 -2.51674,5.90995 -6.80929,10.87972 -11.55859,15.64062 l -7.31836,-0.17773 c -0.0728,-0.0614 -0.14751,-0.137 -0.20313,-0.31836 -0.0596,-0.19424 -0.0773,-0.47186 -0.0703,-0.76368 26.3164,-39.54872 5.51986,-75.450263 -14.18945,-80.068354 -0.44122,-0.103381 -0.91613,-0.221536 -1.41407,-0.0293 -0.24896,0.09612 -0.4897,0.310456 -0.60937,0.585937 -0.11967,0.275481 -0.1392,0.584072 -0.0996,0.941406 l -0.004,-0.05859 -0.91992,104.187501 c -4.94835,15.23402 -13.69785,19.56325 -22.60742,24.18359 -12.04761,5.54901 -23.16874,6.12971 -31.92187,4.76953 -8.75457,-1.36039 -15.163121,-4.70498 -17.615239,-6.85547 -7.102526,-6.22886 -9.902442,-14.61331 -9.716797,-22.91015 0.185645,-8.29684 3.382573,-16.48866 8.25586,-22.20703 6.422257,-7.53596 18.529796,-11.87159 30.437496,-13.0625 11.9077,-1.19092 23.60018,0.80146 29.06446,5.47656 l -0.0176,-0.0156 c 0.35805,0.33584 0.82417,0.61238 1.37109,0.47071 0.27347,-0.0708 0.52206,-0.2818 0.66016,-0.54883 0.13809,-0.26703 0.19336,-0.58067 0.19336,-0.95898 z"
         id="path16" /><path
         id="path17"
         style="color:#000000;display:inline;fill:url(#radialGradient18);stroke-linecap:round;stroke-linejoin:round;stroke-miterlimit:9.6;-inkscape-stroke:none"
         d="m 155.33987,43.912048 v 0.999939 h 3.59772 c 8.76755,25.535307 27.55223,36.316489 35.77507,48.724675 13.02737,19.658138 13.4754,41.589378 5.80688,64.842038 -2.51673,5.90994 -6.80917,10.87949 -11.55846,15.64039 l -7.31842,-0.17777 c -0.0728,-0.0614 -0.14747,-0.13697 -0.20309,-0.31833 -0.0596,-0.19424 -0.0773,-0.47195 -0.0703,-0.76377 26.31637,-39.54868 5.51946,-75.449898 -14.18983,-80.067985 -0.44122,-0.103381 -0.91593,-0.221691 -1.41387,-0.02945 -0.24896,0.09612 -0.48959,0.31053 -0.60926,0.586011 -0.11967,0.27548 -0.13934,0.583694 -0.0997,0.941027 l -0.004,-0.05839 -0.91984,104.187437 c -4.94835,15.23401 -13.69785,19.5632 -22.60741,24.18354 -12.0476,5.549 -23.16844,6.12991 -31.92156,4.76973 -8.75457,-1.36038 -15.163351,-4.7049 -17.615466,-6.85539 -7.102519,-6.22885 -9.902365,-14.6134 -9.71672,-22.91023 0.08839,-3.95051 0.876732,-7.86888 2.18643,-11.51609 h -1.05575 c -1.272647,3.65023 -2.042357,7.54981 -2.130619,11.49439 -0.191041,8.53802 2.718686,17.24703 10.058301,23.68382 2.706675,2.37373 9.194754,5.70475 18.119304,7.09156 8.92454,1.38682 20.26349,0.78702 32.5019,-4.85139 a 0.50011003,0.50011003 0 0 0 0.0196,-0.01 c 8.9177,-4.62479 18.09881,-9.25574 23.13657,-24.83001 a 0.50011003,0.50011003 0 0 0 0.0253,-0.15038 L 166.0524,94.238175 a 0.50011003,0.50011003 0 0 0 -0.002,-0.05891 c -0.0275,-0.248567 0.003,-0.385506 0.0232,-0.433565 0.0209,-0.04806 0.0112,-0.03462 0.0527,-0.05064 0.083,-0.03205 0.43122,-0.02388 0.82424,0.06821 18.75454,4.394379 39.67812,39.5178 13.49427,78.69339 a 0.50011003,0.50011003 0 0 0 -0.0822,0.25011 c -0.0235,0.4228 0.006,0.8337 0.12092,1.20923 0.11516,0.37552 0.32761,0.73375 0.68782,0.94878 a 0.50011003,0.50011003 0 0 0 0.24391,0.0708 l 7.74785,0.18913 a 0.50011003,0.50011003 0 0 0 0.36742,-0.14624 c 4.84592,-4.84372 9.29496,-9.95522 11.91813,-16.12718 a 0.50011003,0.50011003 0 0 0 0.0134,-0.0393 c 7.73777,-23.44938 7.29903,-45.7871 -5.91592,-65.728285 -8.49965,-12.825899 -27.20369,-23.371141 -35.80298,-48.832162 a 0.50011003,0.50011003 0 0 0 -0.47439,-0.339514 z" /></g><g
       id="g30"
       style="display:inline"
       transform="matrix(0.20510462,0,0,0.20510462,109.62611,119.21817)"><g
         id="g20"
         inkscape:label="shadow"><path
           style="color:#000000;display:inline;fill:#000000;fill-opacity:0.12549;stroke-width:1.02033;stroke-linecap:round;stroke-linejoin:round;stroke-miterlimit:9.6;-inkscape-stroke:none"
           d="m 155.09203,44.128821 h 7.66499 c 8.83212,26.150392 28.0383,37.039316 36.58943,49.942883 13.38977,20.205026 13.84091,42.793196 5.97771,66.622656 -2.63483,6.1994 -7.12406,11.36858 -12.05184,16.29411 l -7.90603,-0.19283 c -0.45643,-0.27247 -0.62147,-0.96163 -0.57848,-1.73547 26.86421,-40.19353 5.55945,-76.471908 -14.07657,-81.072826 -0.8512,-0.199444 -1.67963,-0.260238 -1.54264,0.976202 l -0.94006,106.398644 c -5.09396,15.74799 -14.25278,20.31764 -23.35648,25.03889 -24.78205,11.41742 -45.836214,2.41071 -51.099878,-2.20549 -14.73573,-12.92314 -11.655719,-34.88233 -1.542637,-46.74914 13.388465,-15.71017 49.852315,-17.70353 61.430795,-7.79728 0.57474,0.53908 1.41031,0.64384 1.41031,-0.68653 z"
           id="path18"
           inkscape:label="shadow" /><path
           style="color:#000000;display:inline;fill:#000000;fill-opacity:0.12549;stroke-width:1.02033;stroke-linecap:round;stroke-linejoin:round;stroke-miterlimit:9.6;-inkscape-stroke:none"
           d="m 154.03369,43.070487 h 7.66499 c 8.83212,26.150392 28.0383,37.039316 36.58943,49.942883 13.38977,20.20502 13.84091,42.79319 5.97771,66.62265 -2.63483,6.1994 -7.12406,11.36858 -12.05184,16.29411 l -7.90603,-0.19283 c -0.45643,-0.27247 -0.62147,-0.96163 -0.57848,-1.73547 26.86421,-40.19353 5.55945,-76.471902 -14.07657,-81.07282 -0.8512,-0.199444 -1.67963,-0.260238 -1.54264,0.976202 L 167.1702,200.30385 c -5.09396,15.74799 -14.25278,20.31764 -23.35648,25.03889 -24.78205,11.41742 -45.836208,2.41071 -51.099872,-2.20549 -14.73573,-12.92314 -11.655719,-34.88233 -1.542637,-46.74914 13.388459,-15.71017 49.852309,-17.70353 61.430789,-7.79728 0.57474,0.53908 1.41031,0.64384 1.41031,-0.68653 z"
           id="path19"
           inkscape:label="shadow" /><path
           style="color:#000000;display:inline;fill:#000000;fill-opacity:0.12549;stroke-width:1.02033;stroke-linecap:round;stroke-linejoin:round;stroke-miterlimit:9.6;-inkscape-stroke:none"
           d="m 152.97535,42.54132 h 7.66499 c 8.83212,26.150392 28.0383,37.039316 36.58943,49.942883 13.38977,20.205017 13.84091,42.793187 5.97771,66.622647 -2.63483,6.1994 -7.12406,11.36858 -12.05184,16.29411 l -7.90603,-0.19283 c -0.45643,-0.27247 -0.62147,-0.96163 -0.57848,-1.73547 26.86421,-40.19353 5.55945,-76.471899 -14.07657,-81.072817 -0.8512,-0.199444 -1.67963,-0.260238 -1.54264,0.976202 l -0.94006,106.398635 c -5.09396,15.74799 -14.25278,20.31764 -23.35648,25.03889 -24.78205,11.41742 -45.836202,2.41071 -51.099866,-2.20549 -14.73573,-12.92314 -11.655719,-34.88233 -1.542637,-46.74914 13.388453,-15.71017 49.852303,-17.70353 61.430783,-7.79728 0.57474,0.53908 1.41031,0.64384 1.41031,-0.68653 z"
           id="path20"
           inkscape:label="shadow" /></g><path
         style="color:#000000;display:inline;fill:url(#radialGradient30);stroke-linecap:round;stroke-linejoin:round;stroke-miterlimit:9.6;-inkscape-stroke:none"
         d="m 151.75743,44.412207 h 7.51228 c 8.65617,25.629421 27.47972,36.301415 35.86049,48.947916 13.12302,19.802487 13.56517,41.940657 5.85863,65.295387 -2.58234,6.07589 -6.98214,11.14209 -11.81175,15.96949 l -7.74852,-0.18898 c -0.44734,-0.26705 -0.60909,-0.94248 -0.56696,-1.7009 26.32902,-39.39279 5.4487,-74.948419 -13.79613,-79.457677 -0.83424,-0.19547 -1.64617,-0.255053 -1.51191,0.956754 l -0.92133,104.278953 c -4.99248,15.43426 -13.96884,19.91287 -22.89117,24.54006 -24.28834,11.18996 -44.923044,2.36268 -50.081845,-2.16155 -14.442163,-12.66568 -11.423512,-34.1874 -1.511904,-45.8178 13.121719,-15.39719 48.859139,-17.35084 60.206949,-7.64194 0.56329,0.52834 1.38221,0.63101 1.38221,-0.67285 z"
         id="path21" /><path
         id="path22"
         style="fill:#e9f6fd;fill-opacity:0.694051;stroke-width:1.00012;stroke-linecap:round;stroke-linejoin:round;stroke-miterlimit:9.6"
         d="m 142.13248,163.49091 c 0,0 -25.00347,-2.15193 -40.03306,6.45523 -26.544086,15.20131 -17.409988,45.3446 -14.030971,45.02781 -1.566973,1.29045 -17.766277,-28.72311 12.000741,-47.15253 14.77187,-9.14559 42.06329,-4.33051 42.06329,-4.33051 z"
         sodipodi:nodetypes="cscsc" /><path
         id="path23"
         style="fill-opacity:0.27762;stroke-width:1.00012;stroke-linecap:round;stroke-linejoin:round;stroke-miterlimit:9.6"
         d="m 163.94717,120.95239 1.32292,-20.88318 -1.22842,98.74627 c -8.02842,31.25115 -48.73997,30.58724 -60.54706,27.47417 h -0.33073 c 19.8255,3.87828 54.81643,-5.62772 59.79852,-28.50003 z"
         sodipodi:nodetypes="ccccccc" /><path
         id="path25"
         style="display:inline;fill:#cfdbe1;fill-opacity:0.408284;stroke:none;stroke-width:1.00012;stroke-linecap:round;stroke-linejoin:round;stroke-miterlimit:9.6;stroke-opacity:1"
         d="m 151.75743,44.412207 h 7.51228 c 8.68472,24.772966 25.15743,34.284299 35.86049,48.947916 1.15043,1.576134 0.88922,3.412855 0.18899,4.819196 l -13.61189,4.685561 c -3.72009,-4.429995 -10.73943,-8.913294 -15.24319,-9.453802 -0.85073,-0.102098 -12.785,0.279486 -12.65074,1.491293 l 0.14103,76.396489 c -23.7635,-11.47401 -76.008779,25.22658 -62.295185,49.5928 -9.391695,-6.72813 -16.222507,-30.26855 -1.511904,-45.8178 14.739289,-15.57957 48.859139,-17.35084 60.206949,-7.64194 0.56329,0.52834 1.38221,0.63101 1.38221,-0.67285 z"
         sodipodi:nodetypes="ccsccscccsccc"
         inkscape:label="shadowhead" /><path
         style="color:#000000;display:inline;fill:#008ad6;stroke-linecap:round;stroke-linejoin:round;stroke-miterlimit:9.6;-inkscape-stroke:none"
         d="m 151.75781,43.912109 a 0.50011003,0.50011003 0 0 0 -0.5,0.5 l -0.0215,122.347661 c 0,0.27361 -0.047,0.43608 -0.0801,0.5 -0.0331,0.0639 -0.0237,0.0386 -0.0254,0.0391 -0.003,8.7e-4 -0.22836,-0.0399 -0.43359,-0.23242 a 0.50011003,0.50011003 0 0 0 -0.0176,-0.0137 c -5.88353,-5.03379 -17.73413,-6.92087 -29.8125,-5.71289 -12.07837,1.20799 -24.400164,5.54894 -31.099612,13.41016 -5.038312,5.91202 -8.305052,14.29596 -8.496094,22.83398 -0.191041,8.53803 2.718972,17.2468 10.058594,23.6836 2.706678,2.37373 9.194582,5.70498 18.119142,7.09179 8.92455,1.38682 20.26353,0.78685 32.50195,-4.85156 a 0.50011003,0.50011003 0 0 0 0.0195,-0.01 c 8.91771,-4.62479 18.09895,-9.25579 23.13672,-24.83008 a 0.50011003,0.50011003 0 0 0 0.0254,-0.15039 l 0.91992,-104.279299 a 0.50011003,0.50011003 0 0 0 -0.002,-0.05859 c -0.0275,-0.248568 0.003,-0.385534 0.0234,-0.433593 0.0209,-0.04806 0.0112,-0.03476 0.0527,-0.05078 0.083,-0.03205 0.4312,-0.02373 0.82422,0.06836 18.75456,4.394383 39.67802,39.517732 13.49414,78.693362 a 0.50011003,0.50011003 0 0 0 -0.082,0.25 c -0.0235,0.4228 0.006,0.83346 0.12109,1.20899 0.11516,0.37552 0.32729,0.73418 0.6875,0.94921 a 0.50011003,0.50011003 0 0 0 0.24415,0.0703 l 7.74804,0.18945 a 0.50011003,0.50011003 0 0 0 0.36719,-0.14648 c 4.84593,-4.84372 9.29479,-9.95499 11.91797,-16.12696 a 0.50011003,0.50011003 0 0 0 0.0137,-0.0391 c 7.73778,-23.44941 7.29894,-45.78731 -5.91602,-65.72852 -8.49966,-12.825912 -27.20343,-23.370985 -35.80273,-48.832031 a 0.50011003,0.50011003 0 0 0 -0.47461,-0.339844 z m 0.5,1 h 6.67969 c 8.76756,25.535332 27.55254,36.316412 35.77539,48.72461 13.02738,19.658161 13.47516,41.589121 5.80664,64.841801 -2.51674,5.90995 -6.80929,10.87972 -11.55859,15.64062 l -7.31836,-0.17773 c -0.0728,-0.0614 -0.14751,-0.137 -0.20313,-0.31836 -0.0596,-0.19424 -0.0773,-0.47186 -0.0703,-0.76368 26.3164,-39.54872 5.51986,-75.450263 -14.18945,-80.068354 -0.44122,-0.103381 -0.91613,-0.221536 -1.41407,-0.0293 -0.24896,0.09612 -0.4897,0.310456 -0.60937,0.585937 -0.11967,0.275481 -0.1392,0.584072 -0.0996,0.941406 l -0.004,-0.05859 -0.91992,104.187501 c -4.94835,15.23402 -13.69785,19.56325 -22.60742,24.18359 -12.04761,5.54901 -23.16874,6.12971 -31.92187,4.76953 -8.75457,-1.36039 -15.163121,-4.70498 -17.615239,-6.85547 -7.102526,-6.22886 -9.902442,-14.61331 -9.716797,-22.91015 0.185645,-8.29684 3.382573,-16.48866 8.25586,-22.20703 6.422257,-7.53596 18.529796,-11.87159 30.437496,-13.0625 11.9077,-1.19092 23.60018,0.80146 29.06446,5.47656 l -0.0176,-0.0156 c 0.35805,0.33584 0.82417,0.61238 1.37109,0.47071 0.27347,-0.0708 0.52206,-0.2818 0.66016,-0.54883 0.13809,-0.26703 0.19336,-0.58067 0.19336,-0.95898 z"
         id="path27" /><path
         id="path29"
         style="color:#000000;display:inline;fill:url(#radialGradient31);stroke-linecap:round;stroke-linejoin:round;stroke-miterlimit:9.6;-inkscape-stroke:none"
         d="m 155.33987,43.912048 v 0.999939 h 3.59772 c 8.76755,25.535307 27.55223,36.316489 35.77507,48.724675 13.02737,19.658138 13.4754,41.589378 5.80688,64.842038 -2.51673,5.90994 -6.80917,10.87949 -11.55846,15.64039 l -7.31842,-0.17777 c -0.0728,-0.0614 -0.14747,-0.13697 -0.20309,-0.31833 -0.0596,-0.19424 -0.0773,-0.47195 -0.0703,-0.76377 26.31637,-39.54868 5.51946,-75.449898 -14.18983,-80.067985 -0.44122,-0.103381 -0.91593,-0.221691 -1.41387,-0.02945 -0.24896,0.09612 -0.48959,0.31053 -0.60926,0.586011 -0.11967,0.27548 -0.13934,0.583694 -0.0997,0.941027 l -0.004,-0.05839 -0.91984,104.187437 c -4.94835,15.23401 -13.69785,19.5632 -22.60741,24.18354 -12.0476,5.549 -23.16844,6.12991 -31.92156,4.76973 -8.75457,-1.36038 -15.163351,-4.7049 -17.615466,-6.85539 -7.102519,-6.22885 -9.902365,-14.6134 -9.71672,-22.91023 0.08839,-3.95051 0.876732,-7.86888 2.18643,-11.51609 h -1.05575 c -1.272647,3.65023 -2.042357,7.54981 -2.130619,11.49439 -0.191041,8.53802 2.718686,17.24703 10.058301,23.68382 2.706675,2.37373 9.194754,5.70475 18.119304,7.09156 8.92454,1.38682 20.26349,0.78702 32.5019,-4.85139 a 0.50011003,0.50011003 0 0 0 0.0196,-0.01 c 8.9177,-4.62479 18.09881,-9.25574 23.13657,-24.83001 a 0.50011003,0.50011003 0 0 0 0.0253,-0.15038 L 166.0524,94.238175 a 0.50011003,0.50011003 0 0 0 -0.002,-0.05891 c -0.0275,-0.248567 0.003,-0.385506 0.0232,-0.433565 0.0209,-0.04806 0.0112,-0.03462 0.0527,-0.05064 0.083,-0.03205 0.43122,-0.02388 0.82424,0.06821 18.75454,4.394379 39.67812,39.5178 13.49427,78.69339 a 0.50011003,0.50011003 0 0 0 -0.0822,0.25011 c -0.0235,0.4228 0.006,0.8337 0.12092,1.20923 0.11516,0.37552 0.32761,0.73375 0.68782,0.94878 a 0.50011003,0.50011003 0 0 0 0.24391,0.0708 l 7.74785,0.18913 a 0.50011003,0.50011003 0 0 0 0.36742,-0.14624 c 4.84592,-4.84372 9.29496,-9.95522 11.91813,-16.12718 a 0.50011003,0.50011003 0 0 0 0.0134,-0.0393 c 7.73777,-23.44938 7.29903,-45.7871 -5.91592,-65.728285 -8.49965,-12.825899 -27.20369,-23.371141 -35.80298,-48.832162 a 0.50011003,0.50011003 0 0 0 -0.47439,-0.339514 z" /></g></g><g
     id="g7"
     transform="matrix(0.5161397,0,0,0.5161397,100.34094,27.738125)"><ellipse
       style="fill:url(#linearGradient18);fill-opacity:1;fill-rule:evenodd;stroke-width:14.8384;stroke-linecap:round;stroke-linejoin:round"
       id="path15"
       cx="130.65591"
       cy="150.98705"
       rx="52.840309"
       ry="27.761803"
       transform="matrix(2.0204966,0,0,2.0204966,-208.70231,-197.57629)" /><path
       style="fill:#0074f1;fill-opacity:1"
       d="m 35.197766,204.71848 c -1.529424,-1.52942 -0.360885,-4.30926 7.854422,-18.68491 4.703704,-8.23082 8.317827,-15.57587 8.031385,-16.32233 -0.341169,-0.88907 -2.221945,-1.35719 -5.452816,-1.35719 -7.29031,0 -26.190403,-3.47433 -37.8991615,-6.96686 C -20.062427,153.0967 -42.870439,138.93009 -50.991071,124.91312 -64.043072,102.38413 -52.19162,77.916383 -20.70142,62.379045 -5.6368408,54.946147 19.706605,48.612427 34.924892,47.116768 42.062566,46.415275 57.614424,46.293262 68.5,47.572668 c 23.797681,2.796994 50.14862,10.743407 65.84528,21.178527 7.02496,4.670183 9.28944,7.415165 4.99195,6.051195 -3.24328,-1.029378 -18.7182,-0.773256 -23.75954,0.393237 -3.7696,0.872232 -5.0087,0.724103 -8.39533,-1.003626 C 101.10939,71.093805 86.32097,67.683667 73,66.309715 14.445545,60.270291 -36.595417,84.434849 -27.968169,114.11154 c 1.336175,4.59628 2.805615,6.79062 7.877514,11.76365 13.8486118,13.57864 41.139873,22.57424 73.340655,24.17416 7.220738,0.35877 12.25,1.02535 12.25,1.62363 0,0.55824 -1.575,3.88034 -3.5,7.38245 -3.908923,7.11141 -4.189127,8.29862 -1.958631,8.29862 0.847752,0 12.023989,-5.4 24.83608,-12 l 23.294711,-12 11.91392,-0.0239 c 6.55266,-0.0131 13.59825,-0.41501 15.65687,-0.8931 4.878,-1.13284 4.28696,-0.38618 -4.46122,5.63586 -7.29144,5.01924 -91.149986,55.71771 -93.916985,56.77951 -0.808067,0.31008 -1.783208,0.24979 -2.166979,-0.13398 z"
       id="path13"
       sodipodi:nodetypes="cssssssssssssssssssssccssscc" /><path
       style="fill:#191919"
       d="M 103.17233,133.97635 C 88.878283,129.9716 82.644296,118.33325 86.97747,103.74187 93.061635,83.254266 129.63665,74.475143 150.25645,88.552981 155.7678,92.315772 158.5,97.678195 158.5,104.73242 c 0,9.2803 1.9181,8.62163 -25.10699,8.62163 H 109.5 v 2.54545 c 0,1.4 1.10455,3.65 2.45455,5 1.96987,1.96988 3.47032,2.45455 7.59887,2.45455 2.82938,0 6.59827,-0.68994 8.37532,-1.53321 2.46713,-1.17073 6.04909,-1.46625 15.15113,-1.25 L 155,120.85405 l -5.03518,5.0828 c -7.06913,7.13598 -11.69075,8.60383 -28.46482,9.04057 -9.28313,0.2417 -15.00798,-0.071 -18.32767,-1.00107 z m 31.96901,-32.13002 c 0.94242,-2.45592 -2.35335,-6.325715 -6.42681,-7.546151 -5.21785,-1.563307 -11.28022,0.154799 -14.64153,4.149483 -1.41515,1.681808 -2.573,3.473308 -2.573,3.981108 0,0.51099 5.14931,0.92328 11.53138,0.92328 9.35388,0 11.64064,-0.28471 12.10996,-1.50772 z m 37.10787,32.36788 c -4.56375,-1.28879 -9.39802,-5.61272 -10.30199,-9.21444 -0.99458,-3.9627 0.31457,-9.20918 3.13407,-12.55996 4.50342,-5.35202 13.11323,-7.4166 39.17884,-9.3949 10.95228,-0.83124 12.9105,-8.986454 2.49333,-10.38369 -4.33033,-0.580819 -10.94687,1.73029 -11.87451,4.147677 -0.48839,1.272735 -2.67322,1.545153 -12.39232,1.545153 -11.65413,0 -11.79233,-0.02701 -11.22576,-2.193566 0.3155,-1.206461 2.48895,-4.108885 4.82989,-6.44983 6.22359,-6.223583 12.32816,-7.819586 29.90924,-7.819586 16.29166,0 23.94003,1.749167 28.77065,6.579789 2.69465,2.694647 2.92962,3.447165 2.49351,7.985818 -0.26481,2.755958 -2.45758,12.407405 -4.87282,21.447665 L 228,134.34117 l -12.11133,0.006 -12.11133,0.006 0.48058,-2.51399 0.48058,-2.51399 -5.11362,2.65304 c -4.23815,2.19883 -6.69822,2.70794 -14.36925,2.97368 -5.0906,0.17634 -10.94348,-0.15602 -13.00642,-0.73858 z m 30.7824,-11.71639 c 2.72461,-1.66153 7.4286,-9.51689 6.34679,-10.59871 -0.239,-0.239 -2.22192,-0.0201 -4.40647,0.48634 -2.18456,0.50649 -5.68178,0.93162 -7.77159,0.94474 -4.35855,0.0274 -9.1724,2.20569 -10.07557,4.55932 -0.70477,1.83658 0.74103,5.04397 2.61377,5.79844 3.02761,1.21974 10.42777,0.5572 13.29307,-1.19013 z m -175.954834,3.10623 c 1.307546,-4.8125 4.347192,-16.175 6.754768,-25.25 l 4.377412,-16.5 12.196686,-0.28119 12.196686,-0.281189 -0.664015,3.539508 -0.664016,3.539509 5.105817,-3.435961 c 5.733046,-3.858055 14.190175,-6.033319 19.548518,-5.028088 l 3.558109,0.667505 -4.104804,7.889953 -4.104805,7.889953 h -6.072841 c -12.976351,0 -16.945572,4.43112 -22.253508,24.84315 l -2.901221,11.15685 H 37.374491 24.699419 Z m 210.389064,8 c -0.0188,-0.4125 4.14372,-16.38273 9.25,-35.489391 L 256,63.375269 l 12.67017,-0.01061 12.67017,-0.01061 -2.92437,10.75 c -1.60841,5.9125 -5.92194,21.8875 -9.58562,35.500001 l -6.66124,24.75 h -12.33456 c -6.784,0 -12.34992,-0.3375 -12.36871,-0.75 z"
       id="path8" /></g></svg>
