<?xml version="1.0" encoding="UTF-8" standalone="no"?>
<!-- Created with Inkscape (http://www.inkscape.org/) -->

<svg
   width="256mm"
   height="256mm"
   viewBox="0 0 256 256"
   version="1.1"
   id="svg1"
   inkscape:version="1.3.2 (091e20ef0f, 2023-11-25)"
   sodipodi:docname="inode-vnd.kde.service.odisk.svg"
   xml:space="preserve"
   xmlns:inkscape="http://www.inkscape.org/namespaces/inkscape"
   xmlns:sodipodi="http://sodipodi.sourceforge.net/DTD/sodipodi-0.dtd"
   xmlns:xlink="http://www.w3.org/1999/xlink"
   xmlns="http://www.w3.org/2000/svg"
   xmlns:svg="http://www.w3.org/2000/svg"
   xmlns:rdf="http://www.w3.org/1999/02/22-rdf-syntax-ns#"
   xmlns:cc="http://creativecommons.org/ns#"
   xmlns:dc="http://purl.org/dc/elements/1.1/"
   xmlns:a="http://ns.adobe.com/AdobeSVGViewerExtensions/3.0/"><defs
     id="defs1"><linearGradient
   inkscape:collect="always"
   xlink:href="#linearGradient107"
   id="linearGradient6"
   gradientUnits="userSpaceOnUse"
   x1="231.66823"
   y1="57.090565"
   x2="235.94186"
   y2="72.977219"
   gradientTransform="matrix(0.31893861,0,0,0.31893861,116.78104,185.54662)" /><linearGradient
   id="linearGradient107"
   inkscape:collect="always"><stop
     style="stop-color:#d37600;stop-opacity:1;"
     offset="0"
     id="stop107" /><stop
     style="stop-color:#4f2e00;stop-opacity:1;"
     offset="1"
     id="stop108" /></linearGradient><radialGradient
   inkscape:collect="always"
   xlink:href="#linearGradient1"
   id="radialGradient9"
   gradientUnits="userSpaceOnUse"
   gradientTransform="matrix(2.7010071,-1.3744179,0.0883434,0.17361252,-273.44961,300.388)"
   cx="150.0742"
   cy="187.64339"
   fx="150.0742"
   fy="187.64339"
   r="80.983971" /><linearGradient
   id="linearGradient1"
   inkscape:collect="always"><stop
     style="stop-color:#945e02;stop-opacity:1;"
     offset="0"
     id="stop1-7" /><stop
     style="stop-color:#9c5b05;stop-opacity:0;"
     offset="1"
     id="stop2-5" /></linearGradient><radialGradient
   inkscape:collect="always"
   xlink:href="#linearGradient106"
   id="radialGradient104"
   gradientUnits="userSpaceOnUse"
   gradientTransform="matrix(4.2459335,0,-2.6605172e-7,0.68916754,-538.80931,69.025066)"
   cx="164.75844"
   cy="208.52188"
   fx="164.75844"
   fy="208.52188"
   r="18.17433" /><linearGradient
   id="linearGradient106"
   inkscape:collect="always"><stop
     style="stop-color:#a96300;stop-opacity:1;"
     offset="0"
     id="stop105" /><stop
     style="stop-color:#cc9d61;stop-opacity:0.02926829;"
     offset="0.34547445"
     id="stop109" /><stop
     style="stop-color:#432703;stop-opacity:0.01560974;"
     offset="1"
     id="stop106" /></linearGradient><radialGradient
   inkscape:collect="always"
   xlink:href="#linearGradient97"
   id="radialGradient98"
   cx="158.23705"
   cy="215.34305"
   fx="158.23705"
   fy="215.34305"
   r="18.17433"
   gradientTransform="matrix(2.242455,0.29547774,-0.05432764,0.41230615,-187.20266,78.481251)"
   gradientUnits="userSpaceOnUse" /><linearGradient
   id="linearGradient97"
   inkscape:collect="always"><stop
     style="stop-color:#9d6c32;stop-opacity:1;"
     offset="0"
     id="stop97" /><stop
     style="stop-color:#fbce91;stop-opacity:0.36682928;"
     offset="1"
     id="stop98" /></linearGradient><radialGradient
   inkscape:collect="always"
   xlink:href="#linearGradient101"
   id="radialGradient102"
   cx="146.21675"
   cy="216.70329"
   fx="146.21675"
   fy="216.70329"
   r="16.43708"
   gradientTransform="matrix(1.4656458,-0.0932534,0.02025146,0.31828847,-72.727971,150.14837)"
   gradientUnits="userSpaceOnUse" /><linearGradient
   id="linearGradient101"
   inkscape:collect="always"><stop
     style="stop-color:#ffffff;stop-opacity:0;"
     offset="0"
     id="stop101" /><stop
     style="stop-color:#ffffff;stop-opacity:0;"
     offset="0.34125176"
     id="stop103" /><stop
     style="stop-color:#ffffff;stop-opacity:1;"
     offset="0.9511686"
     id="stop104" /><stop
     style="stop-color:#ffffff;stop-opacity:1;"
     offset="1"
     id="stop102" /></linearGradient><radialGradient
   inkscape:collect="always"
   xlink:href="#linearGradient7"
   id="radialGradient57"
   cx="158.92912"
   cy="222.41537"
   fx="158.92912"
   fy="222.41537"
   r="15.86913"
   gradientTransform="matrix(2.6809166,0.346256,-0.10836992,0.83907257,-240.65178,-28.199645)"
   gradientUnits="userSpaceOnUse" /><linearGradient
   id="linearGradient7"
   inkscape:collect="always"><stop
     style="stop-color:#95562f;stop-opacity:1;"
     offset="0"
     id="stop56" /><stop
     style="stop-color:#fbce91;stop-opacity:0;"
     offset="1"
     id="stop57" /></linearGradient><radialGradient
   inkscape:collect="always"
   xlink:href="#linearGradient1"
   id="radialGradient2"
   cx="150.0742"
   cy="187.64339"
   fx="150.0742"
   fy="187.64339"
   r="80.983971"
   gradientTransform="matrix(2.7010071,-1.3744179,0.0883434,0.17361252,-273.44961,300.388)"
   gradientUnits="userSpaceOnUse" /><radialGradient
   inkscape:collect="always"
   xlink:href="#linearGradient5"
   id="radialGradient3"
   gradientUnits="userSpaceOnUse"
   gradientTransform="matrix(0.98818341,-0.01312909,0.00258785,0.19477979,-39.429487,133.21907)"
   cx="177.43427"
   cy="-135.33635"
   fx="177.43427"
   fy="-135.33635"
   r="80.983971" /><linearGradient
   id="linearGradient5"
   inkscape:collect="always"><stop
     style="stop-color:#a66306;stop-opacity:1;"
     offset="0"
     id="stop5" /><stop
     style="stop-color:#885007;stop-opacity:0;"
     offset="1"
     id="stop6-6" /></linearGradient><linearGradient
   inkscape:collect="always"
   xlink:href="#linearGradient107"
   id="linearGradient108"
   x1="168.66307"
   y1="206.83519"
   x2="170.18762"
   y2="216.59052"
   gradientUnits="userSpaceOnUse" /><linearGradient
   inkscape:collect="always"
   xlink:href="#linearGradient109"
   id="linearGradient111"
   x1="130.16026"
   y1="199.1158"
   x2="129.89299"
   y2="223.3037"
   gradientUnits="userSpaceOnUse" /><linearGradient
   id="linearGradient109"
   inkscape:collect="always"><stop
     style="stop-color:#ffffff;stop-opacity:1;"
     offset="0"
     id="stop110" /><stop
     style="stop-color:#ffffff;stop-opacity:1;"
     offset="0.29517782"
     id="stop112" /><stop
     style="stop-color:#8a8a8a;stop-opacity:1;"
     offset="0.46765605"
     id="stop113" /><stop
     style="stop-color:#535353;stop-opacity:1;"
     offset="0.68693352"
     id="stop114" /><stop
     style="stop-color:#8b8b8b;stop-opacity:1;"
     offset="1"
     id="stop111" /></linearGradient><linearGradient
   inkscape:collect="always"
   xlink:href="#linearGradient114"
   id="linearGradient116"
   x1="124.1351"
   y1="197.14468"
   x2="122.79875"
   y2="217.65764"
   gradientUnits="userSpaceOnUse" /><linearGradient
   id="linearGradient114"
   inkscape:collect="always"><stop
     style="stop-color:#585858;stop-opacity:1;"
     offset="0"
     id="stop115" /><stop
     style="stop-color:#909090;stop-opacity:1;"
     offset="0.13216288"
     id="stop117" /><stop
     style="stop-color:#000000;stop-opacity:1;"
     offset="0.8560605"
     id="stop118" /><stop
     style="stop-color:#000000;stop-opacity:1;"
     offset="1"
     id="stop116" /></linearGradient>
		
		
		
		
		<linearGradient
   id="XMLID_14_-5"
   gradientUnits="userSpaceOnUse"
   x1="-10.3018"
   y1="10.0996"
   x2="121.019"
   y2="10.0996"
   gradientTransform="matrix(2.5440652,0,0,2.5440652,-12.112123,-13.112933)">
			<stop
   offset="0"
   style="stop-color:rgb(255,202,0)"
   id="stop38-6" />
			<stop
   offset="1"
   style="stop-color:rgb(255,83,0)"
   id="stop39-9" />
			<a:midPointStop
   offset="0"
   style="stop-color:#FFCA00" />
			<a:midPointStop
   offset="0.5"
   style="stop-color:#FFCA00" />
			<a:midPointStop
   offset="1"
   style="stop-color:#FF5300" />
		</linearGradient>
		
		
	
				
				<linearGradient
   id="XMLID_10_-3"
   gradientUnits="userSpaceOnUse"
   x1="59.4487"
   y1="29.814501"
   x2="59.4487"
   y2="64.436699"
   gradientTransform="matrix(1,-0.0092,0.0092,1,-5.3914,0.7243)">
					<stop
   offset="0%"
   style="stop-color:rgb(255,255,255)"
   id="stop30-6" />
					<stop
   offset="100%"
   style="stop-opacity:0;stop-color:rgb(255,255,255)"
   id="stop31-1" />
				</linearGradient>
				
			<linearGradient
   id="linearGradient19"
   inkscape:collect="always"><stop
     style="stop-color:#767676;stop-opacity:1;"
     offset="0"
     id="stop20" /><stop
     style="stop-color:#565656;stop-opacity:1;"
     offset="1"
     id="stop21" /></linearGradient><linearGradient
   id="linearGradient11"
   inkscape:collect="always"><stop
     style="stop-color:#fef7fd;stop-opacity:1;"
     offset="0"
     id="stop11" /><stop
     style="stop-color:#fee9b1;stop-opacity:1;"
     offset="0.34914112"
     id="stop19" /><stop
     style="stop-color:#ffda8d;stop-opacity:1;"
     offset="0.5"
     id="stop13" /><stop
     style="stop-color:#feecaf;stop-opacity:1;"
     offset="0.66053116"
     id="stop18" /><stop
     style="stop-color:#fefbfe;stop-opacity:1;"
     offset="1"
     id="stop12-7" /></linearGradient><linearGradient
   id="linearGradient1-5"
   inkscape:collect="always"><stop
     style="stop-color:#fafafa;stop-opacity:1;"
     offset="0"
     id="stop5-3" /><stop
     style="stop-color:#fff1d1;stop-opacity:1;"
     offset="0.13190186"
     id="stop7" /><stop
     style="stop-color:#fff777;stop-opacity:1;"
     offset="0.50460124"
     id="stop8" /><stop
     style="stop-color:#fff0b2;stop-opacity:1;"
     offset="0.74665546"
     id="stop9" /><stop
     style="stop-color:#fafafa;stop-opacity:1;"
     offset="1"
     id="stop6" /></linearGradient><radialGradient
   id="SVGID_path125302_1__3"
   gradientUnits="userSpaceOnUse"
   gradientTransform="matrix(0.017,0,0,-0.017,-110.605,-119.9735)"
   cx="2233.1721"
   cy="-328.13577"
   r="17925.004"
   fx="2233.1721"
   fy="-328.13577">
<stop
   offset="0%"
   style="stop-color:rgb(1,161,255);stop-opacity: 1"
   id="stop1" />
<stop
   offset="100%"
   style="stop-color:rgb(66,102,170);stop-opacity: 1"
   id="stop2" />
</radialGradient><linearGradient
   id="SVGID_linearGradient279_4"
   gradientUnits="userSpaceOnUse"
   gradientTransform="matrix(0.017,0,0,-0.017,-110.605,-119.9735)"
   x1="4032.1331"
   y1="1356.1727"
   x2="12738.493"
   y2="-21803.039">
<stop
   offset="0"
   style="stop-color:#1890ff;stop-opacity:1;"
   id="stop3" />
<stop
   offset="1"
   style="stop-color:#003984;stop-opacity:1;"
   id="stop4" />
</linearGradient><radialGradient
   id="SVGID_radialGradient10_5"
   gradientUnits="userSpaceOnUse"
   gradientTransform="matrix(2.363,1.326,-0.816,1.4535,-1537.3715,-2374.4585)"
   cx="896.6864"
   cy="705.14777"
   r="83.244499"
   fx="896.6864"
   fy="705.14777">
<stop
   offset="0%"
   style="stop-color:rgb(237,237,237);stop-opacity: 1"
   id="stop371" />
<stop
   offset="100%"
   style="stop-color:rgb(237,237,237);stop-opacity: 0"
   id="stop372" />
</radialGradient><radialGradient
   id="SVGID_radialGradient12_6"
   gradientUnits="userSpaceOnUse"
   gradientTransform="matrix(0.5185,-0.68,1.598,1.207,-2289.0835,-639.5435)"
   cx="739.13629"
   cy="1110.2391"
   r="131.2"
   fx="739.13629"
   fy="1110.2391">
<stop
   offset="0%"
   style="stop-color:rgb(0,109,0);stop-opacity: 1"
   id="stop373" />
<stop
   offset="25%"
   style="stop-color:rgb(0,116,0);stop-opacity: 0.89411765"
   id="stop374" />
<stop
   offset="61.164187999999996%"
   style="stop-color:rgb(0,161,0);stop-opacity: 0.79151291"
   id="stop375" />
<stop
   offset="100%"
   style="stop-color:rgb(0,186,0);stop-opacity: 0"
   id="stop376" />
</radialGradient><radialGradient
   id="SVGID_radialGradient16_7"
   gradientUnits="userSpaceOnUse"
   gradientTransform="matrix(1.037,0.442,-0.8245,1.9465,-258.0775,-1931.0125)"
   cx="749.99298"
   cy="777.77173"
   r="128.9615"
   fx="749.99298"
   fy="777.77173">
<stop
   offset="0%"
   style="stop-color:rgb(0,168,0);stop-opacity: 1"
   id="stop377" />
<stop
   offset="12.5%"
   style="stop-color:rgb(0,170,0);stop-opacity: 1"
   id="stop378" />
<stop
   offset="32.941052%"
   style="stop-color:rgb(0,173,0);stop-opacity: 1"
   id="stop379" />
<stop
   offset="48.928455%"
   style="stop-color:rgb(0,179,0);stop-opacity: 0.49803922"
   id="stop380" />
<stop
   offset="100%"
   style="stop-color:rgb(0,190,0);stop-opacity: 0"
   id="stop381" />
</radialGradient><linearGradient
   id="SVGID_linearGradient282_10"
   gradientUnits="userSpaceOnUse"
   x1="895.25104"
   y1="859.62811"
   x2="1216.1501"
   y2="1038.5518"
   gradientTransform="matrix(0.85,0,0,0.85,-765.802,-764.1885)">
<stop
   offset="0%"
   style="stop-color:rgb(0,237,0);stop-opacity: 0"
   id="stop389" />
<stop
   offset="100%"
   style="stop-color:rgb(0,133,0);stop-opacity: 1"
   id="stop390" />
</linearGradient><radialGradient
   id="SVGID_polygon8_1__12"
   gradientUnits="userSpaceOnUse"
   gradientTransform="matrix(0.017,0,0,-0.017,-108.8495,-131.8565)"
   cx="7553.0029"
   cy="-7131.8633"
   r="16567.537"
   fx="7553.0029"
   fy="-7131.8633">
<stop
   offset="0%"
   style="stop-color:rgb(1,1,255);stop-opacity: 1"
   id="stop395" />
<stop
   offset="100%"
   style="stop-color:rgb(0,0,128);stop-opacity: 1"
   id="stop396" />
</radialGradient><radialGradient
   id="SVGID_radialGradient25_9"
   gradientUnits="userSpaceOnUse"
   gradientTransform="matrix(0.90389443,-0.10145356,0.10444941,0.9245093,-877.03325,-748.53182)"
   cx="819.43304"
   cy="718.97656"
   r="284.62247"
   fx="819.43304"
   fy="718.97656">
<stop
   offset="0%"
   style="stop-color:rgb(255,255,255);stop-opacity: 0.95940959"
   id="stop384" />
<stop
   offset="0.20281267"
   style="stop-color:#effaff;stop-opacity:0.66697419;"
   id="stop385" />
<stop
   offset="0.31218511"
   style="stop-color:#e0f5ff;stop-opacity:0.61254615;"
   id="stop386" />
<stop
   offset="0.5"
   style="stop-color:#d8f0ff;stop-opacity:0.44557196;"
   id="stop387" />
<stop
   offset="100%"
   style="stop-color:rgb(255,255,255);stop-opacity: 0"
   id="stop388" />
</radialGradient><radialGradient
   id="SVGID_radialGradient21_11"
   gradientUnits="userSpaceOnUse"
   gradientTransform="matrix(2.4465617,-0.13478003,0.05000968,0.91937032,-2578.4314,-678.43373)"
   cx="1123.8925"
   cy="1044.1923"
   r="147.22652"
   fx="1123.8925"
   fy="1044.1923">
<stop
   offset="0%"
   style="stop-color:rgb(0,106,0);stop-opacity: 1"
   id="stop391" />
<stop
   offset="25%"
   style="stop-color:rgb(0,131,0);stop-opacity: 1"
   id="stop392" />
<stop
   offset="0.703861"
   style="stop-color:#009d00;stop-opacity:1;"
   id="stop393" />
<stop
   offset="1"
   style="stop-color:#b4b4b4;stop-opacity:0;"
   id="stop394" />
</radialGradient><radialGradient
   id="SVGID_radialGradient279_13"
   gradientUnits="userSpaceOnUse"
   cx="643.51404"
   cy="1173.4269"
   r="348.30591"
   fx="643.51404"
   fy="1173.4269"
   gradientTransform="matrix(0.85,0,0,0.85,-765.8225,-764.113)">
<stop
   offset="0%"
   style="stop-color:rgb(255,255,255);stop-opacity: 0.25738007"
   id="stop397" />
<stop
   offset="100%"
   style="stop-color:rgb(255,255,255);stop-opacity: 0"
   id="stop398" />
</radialGradient><linearGradient
   inkscape:collect="always"
   xlink:href="#linearGradient1-5"
   id="linearGradient6-5"
   x1="65.011902"
   y1="57.830349"
   x2="194.27977"
   y2="187.85417"
   gradientUnits="userSpaceOnUse" /><linearGradient
   inkscape:collect="always"
   xlink:href="#linearGradient11"
   id="linearGradient12"
   x1="85.086981"
   y1="124.54316"
   x2="163.24337"
   y2="124.54316"
   gradientUnits="userSpaceOnUse"
   gradientTransform="translate(0,2.2678572)" /><linearGradient
   inkscape:collect="always"
   xlink:href="#linearGradient19"
   id="linearGradient21"
   x1="45.559151"
   y1="52.53883"
   x2="206.17308"
   y2="196.54776"
   gradientUnits="userSpaceOnUse" /></defs><sodipodi:namedview
     id="base"
     pagecolor="#ffffff"
     bordercolor="#000000"
     borderopacity="0.3"
     inkscape:pageopacity="0.0"
     inkscape:pageshadow="2"
     inkscape:zoom="0.98994949"
     inkscape:cx="505.07627"
     inkscape:cy="476.792"
     inkscape:document-units="mm"
     inkscape:showpageshadow="2"
     inkscape:pagecheckerboard="0"
     inkscape:deskcolor="#d1d1d1"
     inkscape:current-layer="svg1" /><metadata
     id="metadata1"><rdf:RDF><cc:Work
         rdf:about=""><dc:format>image/svg+xml</dc:format><dc:type
           rdf:resource="http://purl.org/dc/dcmitype/StillImage" /><cc:license
           rdf:resource="http://creativecommons.org/publicdomain/zero/1.0/" /></cc:Work><cc:License
         rdf:about="http://creativecommons.org/publicdomain/zero/1.0/"><cc:permits
           rdf:resource="http://creativecommons.org/ns#Reproduction" /><cc:permits
           rdf:resource="http://creativecommons.org/ns#Distribution" /><cc:permits
           rdf:resource="http://creativecommons.org/ns#DerivativeWorks" /></cc:License></rdf:RDF></metadata><g
     id="g2"
     transform="matrix(3.104908,0,0,3.104908,-211.1444,2.2804574)"
     style="fill:#0f80d0;fill-opacity:1"><path
       id="path4154"
       d="m 109.67579,0.02116778 c -3.08041,0.0047401 -6.14334,0.39186083 -9.13648,1.11070342 -3.708852,0.8948359 -7.258001,2.3920065 -10.626697,4.1714199 2.443886,0.6735512 4.001056,3.2845788 3.826156,5.7650859 0.06197,2.682967 0.123941,5.365935 0.185912,8.048902 3.529216,-2.976926 8.072929,-4.465674 12.575259,-5.176266 4.81962,-0.602987 9.83507,0.0091 14.23902,2.112589 3.71562,1.694582 6.84452,4.424664 9.55711,7.435467 -1.05551,0.627614 -1.9054,1.905711 -1.29035,3.120978 0.5833,1.415635 2.35938,1.292282 3.58927,1.78122 4.37467,1.182652 8.72169,2.497251 13.11353,3.598052 1.55397,0.102484 2.69517,-1.595293 2.1779,-3.021435 -0.85472,-4.947749 -1.60331,-9.922498 -2.52353,-14.853615 -0.55496,-1.488919 -2.68393,-1.839921 -3.69911,-0.636755 -0.63419,0.682602 -1.25472,1.189386 -1.75076,0.09431 C 136.25424,9.3686997 131.62579,6.0321317 126.5594,3.7260637 121.26873,1.3286519 115.50564,-0.10192723 109.67579,0.02116778 Z"
       style="fill:#0f80d0;fill-opacity:1" /><path
       id="path4162"
       d="m 134.82659,32.581988 c 1.04427,6.144338 0.90725,12.781714 -2.09293,18.391717 -1.63107,2.998217 -3.86169,5.661561 -6.62304,7.682782 -3.96513,2.966438 -8.74575,4.843562 -13.64935,5.472922 -1.14766,-0.0079 -1.1634,-0.576325 -1.12125,-1.536391 0.16048,-1.747182 -2.01083,-2.914936 -3.4321,-1.938386 -4.38244,2.824804 -8.838816,5.57379 -13.175404,8.445566 -1.174134,1.0427 -0.674403,3.014224 0.731593,3.610491 1.887384,1.058391 3.670391,2.50996 5.591151,3.625616 2.80741,1.630661 6.72392,4.902302 8.65208,4.47293 1.3905,-0.198278 1.91655,-1.697203 1.70432,-2.932288 6.85955,-0.07632 13.69068,-2.046075 19.46847,-5.759689 6.55153,-4.113957 11.82965,-10.206424 15.11919,-17.197686 2.13316,-4.636207 3.48274,-9.654372 3.56603,-14.773806 0.0425,-1.979479 -0.075,-3.967646 -0.38503,-5.922952 -1.80553,1.394454 -4.27389,1.347449 -6.32987,0.572058 -2.67456,-0.737615 -5.3496,-1.475333 -8.02386,-2.212884 z"
       sodipodi:nodetypes="ccccccccacccccccc"
       style="fill:#0f80d0;fill-opacity:1" /><path
       id="path4156"
       d="m 87.811469,8.320162 c -1.709531,0.4800948 -3.245251,1.5097984 -4.886705,2.205479 -3.355228,1.645682 -6.763504,3.202821 -10.086313,4.902632 -0.964743,0.753372 -1.124865,2.177222 -0.279517,3.077667 0.730919,0.753777 1.756253,1.132203 2.613496,1.72282 -3.8463,6.090285 -5.291412,13.474759 -4.838245,20.609089 0.333737,5.462437 1.826825,10.854953 4.309492,15.729095 3.465256,6.616851 8.76983,12.285954 15.268931,15.990983 0.812137,0.26325 1.566241,0.581188 1.110644,-0.536944 -0.194973,-1.851437 -0.377016,-4.105663 1.25522,-5.396214 2.20463,-1.723939 4.700241,-3.058385 7.034107,-4.604737 C 94.507136,60.104608 90.682629,56.288955 87.991341,51.943043 85.80103,48.429532 84.510078,44.368103 84.281912,40.229202 83.999366,35.778055 85.09175,31.3457 86.975234,27.33159 88.349978,28.455318 90.719621,27.256841 90.50781,25.459312 90.369944,20.282001 90.371097,15.095069 90.145447,9.9238334 89.750261,8.962967 88.906238,8.2581556 87.811469,8.320162 Z"
       style="fill:#0f80d0;fill-opacity:1" /></g><g
     id="path1"
     style="display:inline"
     transform="matrix(0.74779775,0,0,0.74779775,52.785928,0.55321036)"><g
       id="g17"
       inkscape:label="shadow"><path
         style="color:#000000;display:inline;fill:#191919;fill-opacity:0.186512;stroke-width:1.05132;stroke-linecap:round;stroke-linejoin:round;-inkscape-stroke:none"
         d="M 130.59101,11.339137 C 64.312485,11.33896 10.583081,65.068365 10.583259,131.34689 c 1.22e-4,66.27831 55.997295,123.0312 122.275611,123.03102 66.2781,-1.3e-4 119.27209,-57.00316 119.27221,-123.28126 C 252.13126,64.818338 196.86932,11.339264 130.59101,11.339137 Z m 1.04988,107.252313 c 11.19276,-5e-5 17.22905,2.75466 17.229,13.94742 4e-5,11.19275 -9.07349,20.26628 -20.26624,20.26623 -7.12929,-0.66172 -13.59046,-9.08598 -13.68491,-14.98684 -5e-5,-11.19254 5.52962,-19.22655 16.72215,-19.22681 z"
         id="path13"
         sodipodi:nodetypes="ccsscccccc" /><path
         style="color:#000000;display:inline;fill:#191919;fill-opacity:0.186512;stroke-width:1.03145;stroke-linecap:round;stroke-linejoin:round;-inkscape-stroke:none"
         d="M 130.591,13.606994 C 65.564985,13.606821 12.850941,66.320865 12.851116,131.34688 12.851232,196.37269 67.035173,251.22457 132.06098,251.2244 197.08658,251.22428 249.66658,195.10295 249.6667,130.07735 249.66687,65.051544 195.61681,13.607116 130.591,13.606994 Z M 131.30047,117.44 c 10.88664,0.80366 17.22404,4.0951 17.22399,15.07634 5e-5,10.98124 -8.90202,19.8833 -19.88326,19.88325 -10.98102,-2.5e-4 -13.91712,-4.3637 -14.88471,-15.28894 -0.96874,-10.93821 6.87505,-20.45824 17.54398,-19.67065 z"
         id="path14"
         sodipodi:nodetypes="ccsccsccss" /><path
         style="color:#000000;display:inline;fill:#191919;fill-opacity:0.186512;stroke-width:1.00496;stroke-linecap:round;stroke-linejoin:round;-inkscape-stroke:none"
         d="M 130.59099,16.630804 C 67.234987,16.630636 15.874757,67.990867 15.874926,131.34687 15.875036,194.70268 65.097029,249.40347 131.3928,249.13603 194.74788,248.88045 247.17732,192.96522 247.17743,129.60962 247.1776,66.253817 193.94679,16.63092 130.59099,16.630804 Z m -1.79179,99.305416 c 10.69922,-4e-5 19.26473,5.85086 19.26468,16.55008 4e-5,10.69921 -8.6734,19.37265 -19.37261,19.3726 -10.69901,-2.5e-4 -15.01192,-5.52033 -15.81513,-15.8886 -0.82635,-10.66706 5.22404,-20.03383 15.92306,-20.03408 z"
         id="path15"
         sodipodi:nodetypes="ccscccccsc" /><path
         style="color:#000000;display:inline;fill:#191919;fill-opacity:0.186512;stroke-width:0.991715;stroke-linecap:round;stroke-linejoin:round;-inkscape-stroke:none"
         d="M 131.25244,16.252828 C 68.731443,16.252667 18.048122,66.935993 18.048289,129.45699 c 1.1e-4,62.5208 50.015176,117.7474 112.535981,117.74724 62.52061,-1.2e-4 114.80715,-55.62753 114.80726,-118.14814 C 245.3917,66.535285 193.77324,16.252944 131.25244,16.252828 Z m -2.23923,98.317302 c 10.55821,-5e-5 19.48188,5.45306 19.48183,16.01127 4e-5,10.5582 -8.55909,19.11733 -19.11729,19.11728 -10.558,-2.5e-4 -17.99406,-5.58658 -17.9694,-17.14518 0.0247,-11.5586 7.04685,-17.98313 17.60486,-17.98337 z"
         id="path16"
         sodipodi:nodetypes="ccsccccczc" /><path
         style="color:#000000;display:inline;fill:#191919;fill-opacity:0.186512;stroke-width:0.980008;stroke-linecap:round;stroke-linejoin:round;-inkscape-stroke:none"
         d="M 130.02402,17.022212 C 68.241064,17.022049 18.156044,67.107074 18.156214,128.89003 c 1.1e-4,61.78276 49.951414,116.27742 111.734176,116.27726 61.78256,-1.2e-4 113.87171,-54.4947 113.87182,-116.27726 C 243.76238,67.107272 191.80678,17.022328 130.02402,17.022212 Z m -3.25654,95.775948 c 10.43357,-5e-5 20.29564,6.76943 20.29559,17.203 4e-5,10.43357 -8.45804,18.89165 -18.89161,18.89161 -10.43336,-2.4e-4 -18.21624,-7.43109 -18.2162,-17.86445 -5e-5,-10.43337 6.37885,-18.22992 16.81222,-18.23016 z"
         id="path17"
         sodipodi:nodetypes="ccsccccccc" /></g><path
       style="color:#000000;fill:#fafafa;stroke-linecap:round;stroke-linejoin:round;-inkscape-stroke:none"
       d="M 126.62225,11.717114 A 114.1488,114.1488 0 0 0 12.47314,125.86622 114.1488,114.1488 0 0 0 126.62225,240.01481 114.1488,114.1488 0 0 0 240.77083,125.86622 114.1488,114.1488 0 0 0 126.62225,11.717114 Z m -1.89033,96.006026 A 19.276779,19.276779 0 0 1 144.00878,127 19.276779,19.276779 0 0 1 124.73192,146.27686 19.276779,19.276779 0 0 1 105.45558,127 19.276779,19.276779 0 0 1 124.73192,107.72314 Z"
       id="path9-9" /><path
       id="rect1"
       style="display:inline;fill:url(#linearGradient6-5);stroke-width:6.40001;stroke-linecap:round;stroke-linejoin:round"
       d="M 118.88466,13.342855 C 105.48901,14.544764 93.698286,18.602908 80.508781,23.8125 l 35.398359,85.41287 c 3.08936,-1.9662 6.67486,-3.01175 10.33683,-3.01428 10.64633,-4e-5 19.2769,8.63053 19.27686,19.27686 -0.0157,4.92825 -0.84926,7.25791 -4.2479,10.82683 l 88.91442,35.66438 C 264.98059,86.704334 193.39884,6.6571516 118.88466,13.342855 Z M 21.544421,83.532886 C -12.84267,197.94979 97.02593,260.53972 168.19955,233.96704 L 138.05101,140.6679 c -3.3715,2.63895 -7.5256,4.08037 -11.80704,4.09691 -10.64633,4e-5 -19.2769,-8.63053 -19.27686,-19.27686 0.008,-4.51031 1.59799,-8.8749 4.49224,-12.33413 z"
       sodipodi:nodetypes="sccccccsccccccc" /><path
       id="rect10"
       style="fill:#fff393;fill-opacity:1;stroke-width:6.40001;stroke-linecap:round;stroke-linejoin:round"
       d="M 22.273586,84.353615 C 10.834992,97.778653 11.923768,113.35979 13.11074,127.75603 l 94.28787,1.55701 c -0.2711,-1.25744 -0.41565,-2.53886 -0.4315,-3.82509 0.0137,-3.43697 2.28247,-9.48047 4.03696,-12.43593 z M 145.27795,122.46436 c 0.16025,0.99992 0.24147,2.01091 0.24288,3.02359 -0.006,3.78502 -1.12631,7.4845 -3.22099,10.63707 l 86.75388,35.85415 c 9.19308,-15.44053 10.63224,-35.30605 11.14473,-49.78208 z"
       sodipodi:nodetypes="cccccccccccc" /><path
       style="color:#000000;fill:url(#linearGradient21);fill-opacity:1;stroke-linecap:round;stroke-linejoin:round;-inkscape-stroke:none"
       d="M 126.62305,8.5175781 C 61.850815,8.5174022 9.2732639,61.094956 9.2734375,125.86719 9.2735567,190.63921 61.851022,243.21502 126.62305,243.21484 191.39486,243.21472 243.97058,190.639 243.9707,125.86719 243.97088,61.095168 191.39507,8.517703 126.62305,8.5175781 Z m -0.37798,9.0462239 c 61.3132,-1.13381 109.43553,51.525895 109.05738,109.059338 -1.1e-4,61.31301 -47.3664,107.92327 -108.6794,107.92345 C 69.467575,234.54676 18.319774,187.55838 18.319661,126.24517 18.319497,64.931757 69.089403,17.563635 126.24507,17.563802 Z m -1.51265,86.959638 c -12.3755,2.8e-4 -22.47661,10.10105 -22.47656,22.47656 -5e-5,12.37551 10.10106,22.47628 22.47656,22.47656 12.37574,5e-5 22.47662,-10.10082 22.47656,-22.47656 6e-5,-12.37574 -10.10082,-22.47661 -22.47656,-22.47656 z m 0,6.40039 c 8.91691,-4e-5 16.07621,7.15926 16.07617,16.07617 4e-5,8.91691 -7.15926,16.07621 -16.07617,16.07617 -8.91673,-2e-4 -16.07621,-7.15944 -16.07617,-16.07617 -4e-5,-8.91673 7.15944,-16.07597 16.07617,-16.07617 z"
       id="path10"
       sodipodi:nodetypes="cccccccscccccccccccc" /><path
       style="color:#000000;fill:url(#linearGradient12);stroke-linecap:round;stroke-linejoin:round;-inkscape-stroke:none"
       d="m 124.16602,82.433594 c -24.411308,-3e-6 -44.378911,19.965646 -44.378911,44.376956 -3e-6,24.4113 19.967601,44.37891 44.378911,44.3789 24.4113,0 44.37695,-19.9676 44.37695,-44.3789 0,-24.4113 -19.96566,-44.376953 -44.37695,-44.376956 z m 0,16.5625 c 15.45999,2e-6 27.81445,12.354456 27.81445,27.814456 0,15.46 -12.35445,27.8164 -27.81445,27.8164 -15.46001,0 -27.816413,-12.3564 -27.816411,-27.8164 0,-15.46001 12.356401,-27.814458 27.816411,-27.814456 z"
       id="path11" /></g><g
     id="g100"
     inkscape:label="share"
     transform="matrix(2.6349262,0,0,2.6349262,-296.75847,-362.31006)"><g
       id="g107"><g
         id="g6"
         inkscape:label="bigfinger"
         transform="matrix(0.30930618,-0.03606603,0.03606603,0.30930618,118.83083,190.85056)"
         style="display:inline"><path
           style="color:#000000;display:inline;fill:#fbce91;fill-opacity:1;stroke-miterlimit:2.1;-inkscape-stroke:none"
           d="m 172.98433,210.40974 c 2.17883,-0.94237 4.26212,-1.46227 6.18927,-1.29171 2.03089,-1.26655 4.1402,-2.38997 7.03897,-2.07265 0,0 2.77052,-2.71329 4.55423,-3.3396 1.62208,-0.56955 3.8304,-1.30325 5.16228,-0.22984 1.05413,0.84957 1.74011,3.21189 0.61814,3.97295 -12.10714,8.21246 -23.81099,14.06742 -28.51785,13.95452 z"
           id="path9"
           inkscape:label="colorhandbackground"
           sodipodi:nodetypes="cccssccc"
           transform="matrix(3.2112855,0,0,3.2112855,-380.61288,-597.31013)" /><path
           id="path1-7"
           style="color:#000000;display:inline;fill:url(#linearGradient6);stroke-width:0.318939;stroke-miterlimit:2.1;-inkscape-stroke:none"
           d="m 194.228,202.40952 c -0.25397,3.4e-4 -0.50928,0.0199 -0.7618,0.053 -1.01009,0.13205 -2.01458,0.47924 -2.84863,0.7721 -1.04173,0.36578 -2.20633,1.2438 -3.16065,2.03243 -0.87131,0.72001 -1.41885,1.25814 -1.53021,1.36623 -2.94033,-0.24799 -5.36186,0.80089 -7.37759,2.05123 -7.67836,2.20251 -8.35915,2.7256 0.59846,0.93547 2.06196,-1.28592 4.74964,-2.65454 7.57489,-2.34527 0.15068,0.3178 0.97384,0.93119 0.6852,1.46937 -0.19179,0.35758 0.36392,0.29112 0.37028,-0.008 0.30087,-0.6739 -0.20196,-0.9526 -0.50255,-1.6274 0,0 -0.14117,-0.35591 0.77998,-1.11712 0.92116,-0.76121 2.08748,-1.5947 2.87261,-1.87039 0.82729,-0.29047 1.78337,-0.61156 2.66051,-0.72623 0.87716,-0.11467 1.63386,-0.0252 2.17646,0.41212 0.41299,0.33283 0.84189,1.08742 0.98822,1.79829 0.0731,0.35544 0.0793,0.69701 0.02,0.96022 -0.0593,0.26321 -0.16857,0.43905 -0.34405,0.55807 -6.05118,4.10461 -11.99741,7.62445 -17.04993,10.13805 l 0.0742,1.01396 c 5.1757,-2.54907 11.28807,-6.16008 17.50341,-10.37604 0.39909,-0.27071 0.63378,-0.69135 0.7322,-1.12822 0.0984,-0.43686 0.0779,-0.9006 -0.0159,-1.35625 -0.18759,-0.91127 -0.65162,-1.80122 -1.31827,-2.33851 -0.61613,-0.49655 -1.36482,-0.66804 -2.12674,-0.66702 z m -14.84885,14.85208 -0.33955,0.17202 c 0.11069,-0.0545 0.22798,-0.11652 0.33955,-0.17202 z"
           transform="matrix(3.2112855,0,0,3.2112855,-380.61289,-597.31013)"
           sodipodi:nodetypes="csscccccsccscsscscccscscscccc" /><path
           d="m 178.55485,77.621319 c 0,0 10.92693,-4.30686 16.95525,-3.77334 6.35284,-3.9619 12.95098,-7.47607 22.01863,-6.48346 0,0 8.66648,-8.487462 14.24612,-10.44662 5.07403,-1.781614 11.98189,-4.076703 16.14816,-0.718967 3.29742,2.657547 7.71109,10.803089 4.20146,13.183759 -37.8724,25.68943 -80.64946,46.230279 -95.37302,45.877119 -12.37825,-0.29693 -53.74852,-15.746001 -68.393787,-20.120861 61.833347,-2.8556 65.017747,-11.39297 84.459137,-16.60228 0.78945,-0.21153 1.86535,-0.4922 1.86535,-0.4922"
           style="color:#000000;display:inline;fill:url(#radialGradient9);stroke-width:0.974102;stroke-miterlimit:2.1;-inkscape-stroke:none"
           id="path6-1"
           sodipodi:nodetypes="cccsccccsc"
           transform="translate(6.702185e-6)" /></g><path
         style="color:#000000;fill:#fbce91;fill-opacity:1;stroke-miterlimit:2.1;-inkscape-stroke:none"
         d="m 133.36355,202.52375 c 10.45842,-5.8932 21.02772,-3.85164 30.73981,1.31337 l 7.606,0.71342 c 3.74552,1.41439 2.78698,3.8159 1.27497,5.8592 2.17883,-0.94237 4.26212,-1.46227 6.18927,-1.29171 2.03089,-1.26655 3.05823,-2.09867 5.957,-1.78135 0,0 1.64694,-2.17231 3.43065,-2.79862 1.62208,-0.56955 3.8304,-1.30325 5.16228,-0.22984 1.05413,0.84957 1.74011,3.21189 0.61814,3.97295 -12.10714,8.21246 -21.60544,13.23514 -26.3123,13.12224 -7.91422,-0.18985 -14.92251,-4.15911 -22.68445,-5.68919 -3.94672,-0.77801 -12.29589,0.55292 -12.29589,0.55292 z"
         id="path99"
         inkscape:label="colorhandbackground"
         sodipodi:nodetypes="ccccccsscsscc" /><g
         id="rect2"><path
           style="color:#000000;fill:#e8d7d7;fill-opacity:0.806244;stroke-miterlimit:2.1;-inkscape-stroke:none"
           d="m 169.04986,205.57179 2.97656,0.42522 c 1.04814,1.01957 1.33869,2.57439 -0.82683,3.63802 l -3.00018,-0.59058 c 0.55552,-0.90008 1.04501,-2.07254 0.85045,-3.47266 z"
           id="path106"
           sodipodi:nodetypes="ccccc" /><path
           id="path107"
           style="color:#000000;fill:#d37600;stroke-miterlimit:2.1;-inkscape-stroke:none"
           d="m 168.74215,205.26189 c 0.15473,1.11342 -0.27908,1.58596 -0.68936,2.45972 l 0.19858,1.29929 c 0.34657,-0.73106 0.94562,-2.19301 0.88356,-3.18316 0.80768,-0.20302 1.71113,-0.0234 2.46449,0.12125 0.5108,0.0714 0.59909,0.0178 0.11907,-0.28809 -0.94989,-0.23768 -1.97542,-0.29381 -2.97634,-0.40901 z"
           sodipodi:nodetypes="ccccccc" /></g><path
         id="rect3"
         style="display:inline;fill:#d37600;fill-opacity:1;stroke-width:0.924999;stroke-miterlimit:2.1"
         d="m 161.78621,205.30167 c 0,0 0.70003,0.78746 0.59059,1.22842 -0.17915,0.72187 -0.45675,1.66847 0,2.45685 -0.36074,-0.32945 -0.88309,-0.91879 -0.70871,-1.41741 0.2321,-0.66365 0.62499,-1.40621 0.11812,-2.26786 z"
         sodipodi:nodetypes="cscsc" /><path
         id="path104"
         style="display:inline;fill:url(#radialGradient104);stroke-width:1.01726;stroke-miterlimit:2.1"
         d="m 138.25974,211.19004 c 0,0 14.28909,5.41714 21.12216,8.58394 8.41996,3.90225 17.61278,0.092 27.69579,-6.9485 -1.28171,-1.53886 -2.34132,-3.36404 -4.29097,-4.04183 -1.94964,-0.67779 -9.56433,1.37253 -9.56433,1.37253 l -5.4039,-1.24583 -32.10828,-2.34082 1.27477,2.31025 z"
         sodipodi:nodetypes="cscsccccc"
         inkscape:label="shadow2" /><path
         id="path101"
         style="display:inline;fill:#d37600;fill-opacity:1;stroke-width:1.20402;stroke-miterlimit:2.1"
         d="m 163.01626,205.21186 c 0,0 0.93031,1.05194 0.69327,1.50304 -0.38803,0.73849 -0.96135,1.69513 -0.39895,2.68114 -0.4918,-0.45878 -1.18569,-1.24562 -0.84113,-1.74179 0.45861,-0.66037 1.17309,-1.36263 0.54681,-2.44239 z"
         sodipodi:nodetypes="cscsc" /><path
         id="path7"
         style="display:inline;fill:url(#radialGradient98);stroke-width:1.01726;stroke-miterlimit:2.1"
         d="m 133.34605,216.0031 c 5.85065,-1.39488 17.08903,-0.18444 24.79206,3.40202 9.24586,4.3048 16.89027,2.17019 28.93958,-6.57964 -1.28171,-1.53886 -2.34132,-3.36404 -4.29097,-4.04183 -1.94964,-0.67779 -4.78932,-0.20819 -9.63115,2.84251 -13.28891,6.32107 -34.25994,-5.66482 -39.38249,-4.91489 z"
         sodipodi:nodetypes="cscsccc" /><path
         id="rect101"
         style="fill:url(#radialGradient102);stroke-width:0.924999;stroke-miterlimit:2.1"
         d="m 133.70158,202.79076 c 6.39386,-2.82494 13.22733,-7.20011 30.05141,1.5368 -5.56917,-1.47454 -12.50039,-2.15827 -17.95746,0.0668 -7.91329,3.22657 -12.42804,3.87541 -12.42804,3.87541 z"
         sodipodi:nodetypes="ccscc" /><path
         id="rect4"
         style="display:inline;fill:url(#radialGradient57);stroke-width:0.924999;stroke-miterlimit:2.1"
         d="m 139.19345,208.01023 c -12.96889,-7.11613 17.44025,9.49267 33.72994,1.9968 -0.83565,1.01036 -1.67234,2.01996 -3.53485,2.28351 -5.27809,3.42726 -18.47569,-0.70708 -21.29852,-1.43865 z"
         sodipodi:nodetypes="ccccc" /><g
         id="g5"
         transform="matrix(0.31140178,0,0,0.31140178,118.52353,186.00343)"><path
           d="m 178.55485,77.621319 c 0,0 10.92693,-4.30686 16.95525,-3.77334 6.35284,-3.9619 9.74375,-5.337914 18.8114,-4.345304 0,0 8.66648,-8.487462 14.24612,-10.44662 5.07403,-1.781614 11.98189,-4.076703 16.14816,-0.718967 3.29742,2.657547 5.44323,10.047137 1.9336,12.427807 -37.8724,25.68943 -75.55235,43.336175 -90.27591,42.983015 -12.37825,-0.29693 -53.37054,-14.234101 -68.015807,-18.608961 61.833347,-2.8556 65.017747,-11.39297 84.459137,-16.60228 0.78945,-0.21153 1.86535,-0.4922 1.86535,-0.4922"
           style="color:#000000;fill:url(#radialGradient2);stroke-width:0.974102;stroke-miterlimit:2.1;-inkscape-stroke:none"
           id="path1-2"
           sodipodi:nodetypes="cccsccccsc" /><path
           d="m 178.55485,77.621319 c 40.86762,-0.190601 10.16188,32.085111 -22.18138,36.126591 -12.37825,-0.29693 -53.37054,-14.234101 -68.015807,-18.608961 0.297639,-30.876324 65.017747,-11.39297 84.459137,-16.60228 0.78945,-0.211533 1.86535,-0.4922 1.86535,-0.4922"
           style="color:#000000;display:none;fill:url(#radialGradient3);stroke-width:0.974102;stroke-miterlimit:2.1;-inkscape-stroke:none"
           id="path2-7"
           sodipodi:nodetypes="cccsc" /></g><path
         style="color:#000000;fill:url(#linearGradient108);stroke-miterlimit:2.1;-inkscape-stroke:none"
         d="m 145.08594,198.53711 c -3.96538,0.23548 -7.9674,1.34528 -11.94727,3.58789 l -0.23437,0.13086 v 0.26758 l -0.32262,13.71084 0.44336,0.0156 c 0,0 8.23858,-0.98748 12.0887,-0.22851 7.61438,1.50099 14.79001,5.6453 22.90384,5.83994 2.5525,0.0612 6.64387,-1.41351 11.69726,-3.90235 5.05339,-2.48883 9.37762,-5.24465 15.4461,-9.361 0.38965,-0.26431 0.61875,-0.67502 0.71484,-1.10156 0.0961,-0.42654 0.076,-0.87934 -0.0156,-1.32422 -0.18316,-0.88974 -0.63621,-1.75861 -1.28711,-2.2832 -0.80209,-0.64643 -1.8341,-0.72853 -2.82032,-0.59961 -0.98622,0.12893 -1.96691,0.46797 -2.78125,0.75391 -1.01712,0.35714 -1.90446,0.88146 -2.83625,1.65146 -0.85072,0.703 -1.38541,1.22845 -1.49414,1.33399 -2.87085,-0.24213 -3.63783,0.42624 -5.60593,1.64703 -1.60204,-0.10886 -3.28481,0.27986 -5.00391,0.90234 0.4338,-0.75254 0.77751,-1.5314 0.74609,-2.35156 -0.0235,-0.6138 -0.25734,-1.23124 -0.73632,-1.75976 -0.47898,-0.52853 -1.18738,-0.97468 -2.16993,-1.34571 l -0.0566,-0.0215 -7.59961,-0.71289 c -6.08897,-3.22251 -12.5564,-5.23992 -19.1289,-4.84961 z m 0.0781,0.90039 c 6.39782,-0.38092 12.70302,1.60233 18.72461,4.80469 l 0.0801,0.043 7.60937,0.71484 c 0.8641,0.33196 1.44177,0.70723 1.78321,1.08398 0.34747,0.38341 0.482,0.75895 0.49804,1.17774 0.0321,0.83757 -0.2277,1.95197 -0.96017,2.94182 -2.12935,1.51796 -1.55291,1.28138 -2.8608,1.82935 -3.43506,1.43919 2.0556,0.18818 4.12305,-1.35414 0.795,-0.59307 2.78713,-1.26532 4.60386,-1.10453 0.0451,0.40881 0.66855,1.79996 0.24904,2.5722 -0.29821,0.54893 -0.0625,0.76546 0.37244,0.29612 0.53481,-1.1835 0.0774,-2.43349 0.0296,-2.93472 2.01323,-1.25553 3.24333,-2.15484 6.00181,-1.85288 0.14713,0.31029 0.95083,0.90915 0.669,1.43461 -0.18725,0.34913 0.35536,0.28429 0.36157,-0.008 0.29376,-0.65797 -0.19723,-0.93005 -0.49072,-1.5889 0,0 -0.13782,-0.34761 0.76157,-1.09083 0.89939,-0.74322 1.78843,-1.22409 2.55501,-1.49326 0.80774,-0.28361 1.74123,-0.59702 2.59765,-0.70898 0.85643,-0.11196 1.59522,-0.0246 2.125,0.40234 0.40323,0.32498 0.82197,1.06179 0.96485,1.75586 0.0714,0.34704 0.0774,0.68051 0.0195,0.9375 -0.0579,0.25699 -0.16461,0.42871 -0.33594,0.54492 -6.03865,4.09611 -10.33274,6.83302 -15.33476,9.29655 -5.00203,2.46353 -9.11518,3.86027 -11.26953,3.80859 -7.7146,-0.18506 -14.84005,-4.26319 -22.74954,-5.82236 -3.84565,-0.75808 -11.06991,0.25936 -11.79183,0.23437 l 0.32262,-12.54482 c 3.78602,-2.08976 7.58081,-3.15107 11.34179,-3.375 z"
         id="path100"
         inkscape:label="handframe"
         sodipodi:nodetypes="scccccsssssssssscccsscccssscccsscsscscccsccsssssscsssccss" /></g><g
       id="g118"><rect
         style="fill:url(#linearGradient111);fill-opacity:1;stroke:#010100;stroke-width:0.825;stroke-miterlimit:2.1;stroke-dasharray:none;stroke-opacity:0.528926"
         id="rect109"
         width="12.027128"
         height="24.321527"
         x="123.87943"
         y="198.71489" /><circle
         style="fill:#000000;fill-opacity:1;stroke:none;stroke-width:0.524999;stroke-miterlimit:2.1;stroke-dasharray:none;stroke-opacity:1"
         id="path114"
         cx="132.16479"
         cy="219.42827"
         r="2.0045214" /><rect
         style="fill:url(#linearGradient116);fill-opacity:1;stroke:#010100;stroke-width:0.825;stroke-miterlimit:2.1;stroke-dasharray:none;stroke-opacity:0.528926"
         id="rect114"
         width="9.822156"
         height="27.461943"
         x="119.60311"
         y="197.04446"
         ry="1.403165" /></g></g><g
     id="g1"
     transform="matrix(0.74779774,0,0,0.74779774,52.785927,0.55321037)" /></svg>
