<?xml version="1.0" encoding="UTF-8" standalone="no"?>
<!-- Created with Inkscape (http://www.inkscape.org/) -->

<svg
   width="256mm"
   height="256mm"
   viewBox="0 0 256 256"
   version="1.1"
   id="svg1"
   inkscape:version="1.4.4 (dcaf3e7d9e, 2026-05-05)"
   sodipodi:docname="Inkscape-Icon-svg erstellen.svg"
   xml:space="preserve"
   xmlns:inkscape="http://www.inkscape.org/namespaces/inkscape"
   xmlns:sodipodi="http://sodipodi.sourceforge.net/DTD/sodipodi-0.dtd"
   xmlns:xlink="http://www.w3.org/1999/xlink"
   xmlns="http://www.w3.org/2000/svg"
   xmlns:svg="http://www.w3.org/2000/svg"
   xmlns:rdf="http://www.w3.org/1999/02/22-rdf-syntax-ns#"
   xmlns:cc="http://creativecommons.org/ns#"><sodipodi:namedview
     id="namedview1"
     pagecolor="#ffffff"
     bordercolor="#000000"
     borderopacity="0.25"
     inkscape:showpageshadow="2"
     inkscape:pageopacity="0.0"
     inkscape:pagecheckerboard="0"
     inkscape:deskcolor="#d1d1d1"
     inkscape:document-units="mm"
     inkscape:zoom="0.1136233"
     inkscape:cx="-2486.2859"
     inkscape:cy="1227.7412"
     inkscape:current-layer="rect1" /><defs
     id="defs1"><linearGradient
       id="linearGradient60"
       inkscape:collect="always"><stop
         style="stop-color:#a5cee5;stop-opacity:1;"
         offset="0"
         id="stop60" /><stop
         style="stop-color:#a5cee5;stop-opacity:0;"
         offset="1"
         id="stop61" /></linearGradient><linearGradient
       id="linearGradient56"
       inkscape:collect="always"><stop
         style="stop-color:#98c7e1;stop-opacity:0.87984499;"
         offset="0"
         id="stop57" /><stop
         style="stop-color:#98c7e1;stop-opacity:0;"
         offset="1"
         id="stop58" /></linearGradient><linearGradient
       id="linearGradient52"
       inkscape:collect="always"><stop
         style="stop-color:#62bae9;stop-opacity:1"
         offset="0"
         id="stop52" /><stop
         style="stop-color:#5ab0dd;stop-opacity:1"
         offset="0.4140949"
         id="stop54" /><stop
         style="stop-color:#3793c7;stop-opacity:1"
         offset="0.68867147"
         id="stop55" /><stop
         style="stop-color:#2787be;stop-opacity:1"
         offset="0.875"
         id="stop56" /><stop
         style="stop-color:#1f7fb6;stop-opacity:1"
         offset="1"
         id="stop53" /></linearGradient><linearGradient
       id="linearGradient45"
       inkscape:collect="always"><stop
         style="stop-color:#168ace;stop-opacity:1;"
         offset="0"
         id="stop46" /><stop
         style="stop-color:#1176b2;stop-opacity:1;"
         offset="0.5"
         id="stop48" /><stop
         style="stop-color:#0d6396;stop-opacity:1;"
         offset="1"
         id="stop47" /></linearGradient><linearGradient
       id="linearGradient44"
       inkscape:collect="always"><stop
         style="stop-color:#cfcdcc;stop-opacity:1;"
         offset="0"
         id="stop44" /><stop
         style="stop-color:#cfcdcc;stop-opacity:0;"
         offset="1"
         id="stop45" /></linearGradient><linearGradient
       id="linearGradient10"
       inkscape:collect="always"><stop
         style="stop-color:#eaeaea;stop-opacity:1;"
         offset="0"
         id="stop10" /><stop
         style="stop-color:#eaeaea;stop-opacity:1;"
         offset="0.36329454"
         id="stop12" /><stop
         style="stop-color:#eaeaea;stop-opacity:1;"
         offset="0.58743137"
         id="stop13" /><stop
         style="stop-color:#a2a2a2;stop-opacity:1;"
         offset="1"
         id="stop11" /></linearGradient><linearGradient
       id="linearGradient9"
       inkscape:collect="always"><stop
         style="stop-color:#020202;stop-opacity:0.71308154;"
         offset="0"
         id="stop8" /><stop
         style="stop-color:#000000;stop-opacity:0.36666861;"
         offset="0.5"
         id="stop38" /><stop
         style="stop-color:#2b2b2b;stop-opacity:0.11764706;"
         offset="0.79970759"
         id="stop39" /><stop
         style="stop-color:#7f7f7f;stop-opacity:0;"
         offset="1"
         id="stop9" /></linearGradient><linearGradient
       id="linearGradient5"
       inkscape:collect="always"><stop
         style="stop-color:#7f7f7f;stop-opacity:0;"
         offset="0"
         id="stop6" /><stop
         style="stop-color:#7f7f7f;stop-opacity:0.24588816;"
         offset="0.5"
         id="stop40" /><stop
         style="stop-color:#7f7f7f;stop-opacity:0.54474562;"
         offset="1"
         id="stop7" /></linearGradient><linearGradient
       id="linearGradient2"
       inkscape:collect="always"><stop
         style="stop-color:#585858;stop-opacity:0.92156899;"
         offset="0"
         id="stop2" /><stop
         style="stop-color:#585858;stop-opacity:0.96078431;"
         offset="0.5"
         id="stop4" /><stop
         style="stop-color:#585858;stop-opacity:0;"
         offset="0.51514798"
         id="stop5" /><stop
         style="stop-color:#585858;stop-opacity:0;"
         offset="1"
         id="stop3" /></linearGradient><linearGradient
       inkscape:collect="always"
       xlink:href="#linearGradient2"
       id="linearGradient3"
       x1="8.068696"
       y1="179.4761"
       x2="186.63918"
       y2="45.692322"
       gradientUnits="userSpaceOnUse" /><linearGradient
       inkscape:collect="always"
       xlink:href="#linearGradient5"
       id="linearGradient7"
       x1="7.8212051"
       y1="221.05197"
       x2="194.29521"
       y2="122.25779"
       gradientUnits="userSpaceOnUse" /><radialGradient
       inkscape:collect="always"
       xlink:href="#linearGradient9"
       id="radialGradient7"
       cx="187.17377"
       cy="61.429367"
       fx="187.17377"
       fy="61.429367"
       r="86.239082"
       gradientTransform="matrix(0.45526134,-0.13488221,0.21180854,0.714907,75.283019,24.552567)"
       gradientUnits="userSpaceOnUse" /><radialGradient
       inkscape:collect="always"
       xlink:href="#linearGradient10"
       id="radialGradient11"
       cx="146.56622"
       cy="53.25597"
       fx="146.56622"
       fy="53.25597"
       r="26.604023"
       gradientTransform="matrix(1.6846972,0,0,1.4806206,-102.90179,-25.575328)"
       gradientUnits="userSpaceOnUse" /><radialGradient
       inkscape:collect="always"
       xlink:href="#linearGradient44"
       id="radialGradient45"
       cx="118.37528"
       cy="176.81715"
       fx="118.37528"
       fy="176.81715"
       r="67.157294"
       gradientTransform="matrix(1.5427321,0.52188346,-0.50162664,1.4828512,24.450134,-142.48478)"
       gradientUnits="userSpaceOnUse" /><radialGradient
       inkscape:collect="always"
       xlink:href="#linearGradient45"
       id="radialGradient47"
       cx="98.3834"
       cy="38.712994"
       fx="98.3834"
       fy="38.712994"
       r="76.843842"
       gradientTransform="matrix(-0.36116508,-1.0071047,0.57718497,-0.20698842,111.57148,126.59756)"
       gradientUnits="userSpaceOnUse" /><radialGradient
       inkscape:collect="always"
       xlink:href="#linearGradient52"
       id="radialGradient53"
       cx="156.54089"
       cy="210.89999"
       fx="156.54089"
       fy="210.89999"
       r="62.679555"
       gradientTransform="matrix(0.99998118,-0.00613485,0.00928772,1.5138996,-1.9776923,-98.752806)"
       gradientUnits="userSpaceOnUse" /><radialGradient
       inkscape:collect="always"
       xlink:href="#linearGradient56"
       id="radialGradient58"
       cx="160.76733"
       cy="205.42247"
       fx="160.76733"
       fy="205.42247"
       r="41.438366"
       gradientTransform="matrix(1.3153842,0,0,1.4329579,-51.451583,-87.309735)"
       gradientUnits="userSpaceOnUse" /><radialGradient
       inkscape:collect="always"
       xlink:href="#linearGradient60"
       id="radialGradient61"
       cx="152.16583"
       cy="208.43466"
       fx="152.16583"
       fy="208.43466"
       r="45.579062"
       gradientTransform="matrix(1.025545,0.2235156,-0.20498081,0.9405028,37.587851,-23.784261)"
       gradientUnits="userSpaceOnUse" /></defs><metadata
     id="metadata1"><rdf:RDF><cc:Work
         rdf:about=""><cc:license
           rdf:resource="http://creativecommons.org/publicdomain/zero/1.0/" /></cc:Work><cc:License
         rdf:about="http://creativecommons.org/publicdomain/zero/1.0/"><cc:permits
           rdf:resource="http://creativecommons.org/ns#Reproduction" /><cc:permits
           rdf:resource="http://creativecommons.org/ns#Distribution" /><cc:permits
           rdf:resource="http://creativecommons.org/ns#DerivativeWorks" /></cc:License></rdf:RDF></metadata><g
     id="rect1"
     style="display:inline;opacity:1"><path
       style="baseline-shift:baseline;display:inline;overflow:visible;vector-effect:none;fill:#f7f7f7;fill-opacity:1;fill-rule:evenodd;stroke-linecap:square;paint-order:stroke fill markers;enable-background:accumulate;stop-color:#000000;stop-opacity:1"
       d="m 21.817047,8.2328482 125.243153,0 47.23501,43.9523468 0,184.097545 H 21.817047 Z"
       id="path2"
       sodipodi:nodetypes="cccccc" /><path
       id="rect45"
       style="fill:url(#radialGradient47);fill-rule:evenodd;stroke-width:1.3;stroke-linecap:square;paint-order:stroke fill markers"
       d="M 21.53956,8.7322531 H 147.4071 c 0,0 7.79636,3.9305409 11.30805,6.4914169 6.01687,4.387757 16.51209,15.048143 16.51209,15.048143 H 21.53956 Z"
       sodipodi:nodetypes="ccsccc"
       inkscape:label="bandtop" /><path
       style="baseline-shift:baseline;display:inline;overflow:visible;opacity:1;vector-effect:none;fill:url(#linearGradient3);fill-rule:evenodd;stroke-linecap:square;paint-order:stroke fill markers;enable-background:accumulate;stop-color:#000000;stop-opacity:1"
       d="M 20.417969,6.8320312 V 237.68359 H 195.69531 V 6.8320312 Z M 22.41634,8.5048963 194.1316,8.3593588 193.91329,235.95615 l -171.897178,0.091 z"
       id="path1"
       sodipodi:nodetypes="cccccccccc" /><path
       style="baseline-shift:baseline;display:inline;overflow:visible;vector-effect:none;fill:url(#linearGradient7);fill-rule:evenodd;stroke-linecap:square;paint-order:stroke fill markers;enable-background:accumulate;stop-color:#000000;stop-opacity:1"
       d="M 21.817047,8.2328482 H 146.33887 L 194.29521,48.162162 V 236.28274 H 21.817047 Z"
       id="path5"
       sodipodi:nodetypes="cccccc" /><path
       style="baseline-shift:baseline;display:inline;overflow:visible;opacity:1;vector-effect:none;fill:url(#radialGradient7);fill-rule:evenodd;stroke-linecap:square;paint-order:stroke fill markers;enable-background:accumulate;stop-color:#000000;stop-opacity:1"
       d="m 21.817047,8.2328482 c 0,0 73.478167,-0.8232848 125.756753,0 21.40541,12.7609148 32.82848,23.4636178 46.82432,40.7525988 0.41165,51.455303 -0.10291,187.297293 -0.10291,187.297293 H 21.817047 Z"
       id="path7"
       sodipodi:nodetypes="cccccc" /><g
       id="g14"
       inkscape:label="lines"
       style="display:inline"><rect
         style="fill:#000000;fill-opacity:1;fill-rule:evenodd;stroke:none;stroke-width:2.80001;stroke-linecap:square;stroke-dasharray:none;stroke-opacity:0.261786;paint-order:stroke fill markers"
         id="rect13"
         width="7.0004311"
         height="5.5304279"
         x="39.894947"
         y="44.705002" /><rect
         style="fill:#000000;fill-opacity:1;fill-rule:evenodd;stroke:none;stroke-width:2.80001;stroke-linecap:square;stroke-dasharray:none;stroke-opacity:0.261786;paint-order:stroke fill markers"
         id="rect14"
         width="101.74539"
         height="5.5304279"
         x="53.575455"
         y="44.705002" /><rect
         style="fill:#000000;fill-opacity:1;fill-rule:evenodd;stroke:none;stroke-width:2.80001;stroke-linecap:square;stroke-dasharray:none;stroke-opacity:0.261786;paint-order:stroke fill markers"
         id="rect15"
         width="7.0004311"
         height="5.5304279"
         x="39.894947"
         y="53.761135" /><rect
         style="fill:#000000;fill-opacity:1;fill-rule:evenodd;stroke:none;stroke-width:2.80001;stroke-linecap:square;stroke-dasharray:none;stroke-opacity:0.261786;paint-order:stroke fill markers"
         id="rect16"
         width="101.74539"
         height="5.5304279"
         x="53.575455"
         y="53.761135" /><rect
         style="fill:#000000;fill-opacity:1;fill-rule:evenodd;stroke:none;stroke-width:2.80001;stroke-linecap:square;stroke-dasharray:none;stroke-opacity:0.261786;paint-order:stroke fill markers"
         id="rect17"
         width="7.0004311"
         height="5.5304279"
         x="39.894947"
         y="62.405624" /><rect
         style="fill:#000000;fill-opacity:1;fill-rule:evenodd;stroke:none;stroke-width:2.80001;stroke-linecap:square;stroke-dasharray:none;stroke-opacity:0.261786;paint-order:stroke fill markers"
         id="rect18"
         width="101.74539"
         height="5.5304279"
         x="53.575455"
         y="62.405624" /><rect
         style="fill:#000000;fill-opacity:1;fill-rule:evenodd;stroke:none;stroke-width:2.80001;stroke-linecap:square;stroke-dasharray:none;stroke-opacity:0.261786;paint-order:stroke fill markers"
         id="rect19"
         width="7.0004311"
         height="5.5304279"
         x="39.894947"
         y="71.66758" /><rect
         style="fill:#000000;fill-opacity:1;fill-rule:evenodd;stroke:none;stroke-width:2.80001;stroke-linecap:square;stroke-dasharray:none;stroke-opacity:0.261786;paint-order:stroke fill markers"
         id="rect20"
         width="101.74539"
         height="5.5304279"
         x="53.575455"
         y="71.66758" /><rect
         style="fill:#000000;fill-opacity:1;fill-rule:evenodd;stroke:none;stroke-width:2.80001;stroke-linecap:square;stroke-dasharray:none;stroke-opacity:0.261786;paint-order:stroke fill markers"
         id="rect21"
         width="7.0004311"
         height="5.5304279"
         x="39.894947"
         y="80.723717" /><rect
         style="fill:#000000;fill-opacity:1;fill-rule:evenodd;stroke:none;stroke-width:2.80001;stroke-linecap:square;stroke-dasharray:none;stroke-opacity:0.261786;paint-order:stroke fill markers"
         id="rect22"
         width="101.74539"
         height="5.5304279"
         x="53.575455"
         y="80.723717" /><rect
         style="fill:#000000;fill-opacity:1;fill-rule:evenodd;stroke:none;stroke-width:2.80001;stroke-linecap:square;stroke-dasharray:none;stroke-opacity:0.261786;paint-order:stroke fill markers"
         id="rect23"
         width="7.0004311"
         height="5.5304279"
         x="39.894947"
         y="89.779846" /><rect
         style="fill:#000000;fill-opacity:1;fill-rule:evenodd;stroke:none;stroke-width:2.80001;stroke-linecap:square;stroke-dasharray:none;stroke-opacity:0.261786;paint-order:stroke fill markers"
         id="rect24"
         width="101.74539"
         height="5.5304279"
         x="53.575455"
         y="89.779846" /><rect
         style="fill:#000000;fill-opacity:1;fill-rule:evenodd;stroke:none;stroke-width:2.80001;stroke-linecap:square;stroke-dasharray:none;stroke-opacity:0.261786;paint-order:stroke fill markers"
         id="rect25"
         width="7.0004311"
         height="5.5304279"
         x="39.894947"
         y="98.424339" /><rect
         style="fill:#000000;fill-opacity:1;fill-rule:evenodd;stroke:none;stroke-width:2.80001;stroke-linecap:square;stroke-dasharray:none;stroke-opacity:0.261786;paint-order:stroke fill markers"
         id="rect26"
         width="101.74539"
         height="5.5304279"
         x="53.575455"
         y="98.424339" /><rect
         style="fill:#000000;fill-opacity:1;fill-rule:evenodd;stroke:none;stroke-width:2.80001;stroke-linecap:square;stroke-dasharray:none;stroke-opacity:0.261786;paint-order:stroke fill markers"
         id="rect27"
         width="7.0004311"
         height="5.5304279"
         x="39.894947"
         y="107.68629" /><rect
         style="fill:#000000;fill-opacity:1;fill-rule:evenodd;stroke:none;stroke-width:2.80001;stroke-linecap:square;stroke-dasharray:none;stroke-opacity:0.261786;paint-order:stroke fill markers"
         id="rect28"
         width="101.74539"
         height="5.5304279"
         x="53.575455"
         y="107.68629" /><rect
         style="fill:#000000;fill-opacity:1;fill-rule:evenodd;stroke:none;stroke-width:2.80001;stroke-linecap:square;stroke-dasharray:none;stroke-opacity:0.261786;paint-order:stroke fill markers"
         id="rect29"
         width="7.0004311"
         height="5.5304279"
         x="39.894947"
         y="116.33079" /><rect
         style="fill:#000000;fill-opacity:1;fill-rule:evenodd;stroke:none;stroke-width:2.80001;stroke-linecap:square;stroke-dasharray:none;stroke-opacity:0.261786;paint-order:stroke fill markers"
         id="rect30"
         width="101.74539"
         height="5.5304279"
         x="53.575455"
         y="116.33079" /><rect
         style="fill:#000000;fill-opacity:1;fill-rule:evenodd;stroke:none;stroke-width:2.80001;stroke-linecap:square;stroke-dasharray:none;stroke-opacity:0.261786;paint-order:stroke fill markers"
         id="rect31"
         width="7.0004311"
         height="5.5304279"
         x="39.894947"
         y="125.38692" /><rect
         style="fill:#000000;fill-opacity:1;fill-rule:evenodd;stroke:none;stroke-width:2.80001;stroke-linecap:square;stroke-dasharray:none;stroke-opacity:0.261786;paint-order:stroke fill markers"
         id="rect32"
         width="101.74539"
         height="5.5304279"
         x="53.575455"
         y="125.38692" /><rect
         style="fill:#000000;fill-opacity:1;fill-rule:evenodd;stroke:none;stroke-width:2.80001;stroke-linecap:square;stroke-dasharray:none;stroke-opacity:0.261786;paint-order:stroke fill markers"
         id="rect33"
         width="7.0004311"
         height="5.5304279"
         x="39.894947"
         y="134.0314" /><rect
         style="fill:#000000;fill-opacity:1;fill-rule:evenodd;stroke:none;stroke-width:2.80001;stroke-linecap:square;stroke-dasharray:none;stroke-opacity:0.261786;paint-order:stroke fill markers"
         id="rect34"
         width="101.74539"
         height="5.5304279"
         x="53.575455"
         y="134.0314" /><rect
         style="fill:#000000;fill-opacity:1;fill-rule:evenodd;stroke:none;stroke-width:2.80001;stroke-linecap:square;stroke-dasharray:none;stroke-opacity:0.261786;paint-order:stroke fill markers"
         id="rect35"
         width="7.0004311"
         height="5.5304279"
         x="39.894947"
         y="143.29335" /><rect
         style="fill:#000000;fill-opacity:1;fill-rule:evenodd;stroke:none;stroke-width:2.80001;stroke-linecap:square;stroke-dasharray:none;stroke-opacity:0.261786;paint-order:stroke fill markers"
         id="rect36"
         width="101.74539"
         height="5.5304279"
         x="53.575455"
         y="143.29335" /><rect
         style="fill:#000000;fill-opacity:1;fill-rule:evenodd;stroke:none;stroke-width:2.80001;stroke-linecap:square;stroke-dasharray:none;stroke-opacity:0.261786;paint-order:stroke fill markers"
         id="rect37"
         width="7.0004311"
         height="5.5304279"
         x="39.894947"
         y="151.93784" /><rect
         style="fill:#000000;fill-opacity:1;fill-rule:evenodd;stroke:none;stroke-width:2.80001;stroke-linecap:square;stroke-dasharray:none;stroke-opacity:0.261786;paint-order:stroke fill markers"
         id="rect38"
         width="101.74539"
         height="5.5304279"
         x="53.575455"
         y="151.93784" /></g><path
       id="rect9"
       style="display:inline;fill:url(#radialGradient11);fill-rule:evenodd;stroke:#e7e7e7;stroke-width:2.80001;stroke-linecap:square;stroke-opacity:0.261786;paint-order:stroke fill markers"
       d="m 152.95998,16.300207 c -1.08689,-5.64375 -9.02333,-8.0045668 -9.02333,-8.0045668 3.34736,-0.4366127 8.71356,0.1539875 19.35649,8.8777918 6.3651,5.217343 19.72834,15.78773 25.46908,21.685098 8.09887,8.319836 5.96704,10.478705 5.23935,12.807306 -2.44332,-3.752768 -5.27508,-8.392763 -9.31441,-8.586717 -11.62867,-1.117331 -20.64694,-0.803405 -30.56288,0.582151 0,0 0.0283,-21.16823 -1.1643,-27.361063 z"
       sodipodi:nodetypes="scsscccs"
       inkscape:label="corner" /><path
       style="font-weight:bold;font-size:19.7556px;font-family:'Nimbus Sans';-inkscape-font-specification:'Nimbus Sans Bold';fill-rule:evenodd;stroke-width:1.3;stroke-linecap:square;paint-order:stroke fill markers"
       d="M 32.742406,26.487837 H 35.50819 V 12.086004 h -2.765784 v 5.116701 c -0.691446,-1.066803 -1.600203,-1.560693 -2.943584,-1.560693 -2.548472,0 -4.484521,2.449695 -4.484521,5.669858 0,1.442158 0.434623,2.904073 1.145825,3.931364 0.730957,1.047047 2.034826,1.698982 3.338696,1.698982 1.343381,0 2.252138,-0.474135 2.943584,-1.540937 z m -2.33116,-8.534419 c 1.402647,0 2.33116,1.34338 2.33116,3.397963 0,1.936049 -0.948268,3.279429 -2.33116,3.279429 -1.382892,0 -2.331161,-1.363136 -2.331161,-3.31894 0,-1.995316 0.948269,-3.358452 2.331161,-3.358452 z m 12.347251,-2.311406 c -3.259674,0 -5.25499,2.153361 -5.25499,5.650102 0,3.516497 1.995316,5.650102 5.274746,5.650102 3.259673,0 5.274745,-2.133605 5.274745,-5.57108 0,-3.615274 -1.955805,-5.729124 -5.294501,-5.729124 z m 0.01976,2.232383 c 1.521181,0 2.508961,1.363137 2.508961,3.45723 0,1.995316 -1.027291,3.378208 -2.508961,3.378208 -1.501426,0 -2.508962,-1.363137 -2.508962,-3.417719 0,-2.054582 1.007536,-3.417719 2.508962,-3.417719 z m 17.957832,8.613442 3.022607,-10.668024 H 60.89413 L 59.274171,23.28743 57.673967,15.819813 H 54.908183 L 53.288224,23.28743 51.589242,15.819813 H 48.72468 l 3.002851,10.668024 h 2.844807 l 1.698981,-7.526884 1.600204,7.526884 z m 4.504274,-10.668024 v 10.668024 h 2.765784 v -6.400815 c 0,-1.264358 0.869246,-2.094093 2.232383,-2.094093 1.185336,0 1.778004,0.651935 1.778004,1.916293 v 6.578615 h 2.765784 V 19.33631 c 0,-2.370672 -1.284114,-3.694298 -3.575764,-3.694298 -1.442159,0 -2.410183,0.513646 -3.200407,1.718738 V 15.819813 Z M 80.15584,12.086004 h -2.765784 v 14.401833 h 2.765784 z m 7.349081,3.556008 c -3.259674,0 -5.25499,2.153361 -5.25499,5.650102 0,3.516497 1.995316,5.650102 5.274745,5.650102 3.259674,0 5.274746,-2.133605 5.274746,-5.57108 0,-3.615274 -1.955805,-5.729124 -5.294501,-5.729124 z m 0.01975,2.232383 c 1.521182,0 2.508962,1.363137 2.508962,3.45723 0,1.995316 -1.027292,3.378208 -2.508962,3.378208 -1.501425,0 -2.508961,-1.363137 -2.508961,-3.417719 0,-2.054582 1.007536,-3.417719 2.508961,-3.417719 z m 16.456419,8.277597 c -0.47414,-0.454379 -0.63218,-0.770469 -0.63218,-1.30387 v -5.92668 c 0,-2.173116 -1.48167,-3.27943 -4.365991,-3.27943 -2.884318,0 -4.385743,1.224848 -4.563544,3.694298 h 2.667006 c 0.138289,-1.106314 0.592668,-1.461915 1.955805,-1.461915 1.066804,0 1.600204,0.355601 1.600204,1.066803 0,0.3556 -0.1778,0.651934 -0.47413,0.829735 -0.375362,0.197556 -0.375362,0.197556 -1.738498,0.414867 l -1.106314,0.197556 c -2.113849,0.355601 -3.14114,1.442159 -3.14114,3.358452 0,1.916294 1.284114,3.200408 3.239918,3.200408 1.185336,0 2.252139,-0.49389 3.239924,-1.521182 0,0.553157 0.0593,0.750713 0.31609,1.066803 h 3.00285 z m -3.3387,-3.95112 c 0,1.600203 -0.790225,2.508961 -2.192872,2.508961 -0.928514,0 -1.501426,-0.49389 -1.501426,-1.284114 0,-0.829735 0.434623,-1.224847 1.580448,-1.461915 l 0.948269,-0.1778 c 0.730961,-0.138289 0.849491,-0.1778 1.165581,-0.335845 z m 11.9719,4.286965 h 2.76578 V 12.086004 h -2.76578 v 5.116701 c -0.69145,-1.066803 -1.60021,-1.560693 -2.94359,-1.560693 -2.54847,0 -4.48452,2.449695 -4.48452,5.669858 0,1.442158 0.43462,2.904073 1.14583,3.931364 0.73095,1.047047 2.03482,1.698982 3.33869,1.698982 1.34338,0 2.25214,-0.474135 2.94359,-1.540937 z m -2.33116,-8.534419 c 1.40264,0 2.33116,1.34338 2.33116,3.397963 0,1.936049 -0.94827,3.279429 -2.33116,3.279429 -1.3829,0 -2.33117,-1.363136 -2.33117,-3.31894 0,-1.995316 0.94827,-3.358452 2.33117,-3.358452 z m 10.60876,5.650101 h -2.96334 v 2.884318 h 2.96334 z m 7.21079,-7.566395 h -1.54094 v -2.864562 h -2.76578 v 2.864562 h -1.36314 v 1.837271 h 1.36314 v 6.558859 c 0,1.679226 0.889,2.508962 2.70652,2.508962 0.63218,0 1.08655,-0.05927 1.6002,-0.217312 v -1.936049 c -0.27658,0.03951 -0.41487,0.05927 -0.63218,0.05927 -0.73096,0 -0.90876,-0.217312 -0.90876,-1.16558 v -5.808147 h 1.54094 z m 8.49491,10.450713 h 2.76579 V 12.086004 h -2.76579 v 5.116701 c -0.69144,-1.066803 -1.6002,-1.560693 -2.94358,-1.560693 -2.54847,0 -4.48452,2.449695 -4.48452,5.669858 0,1.442158 0.43462,2.904073 1.14582,3.931364 0.73096,1.047047 2.03483,1.698982 3.3387,1.698982 1.34338,0 2.25214,-0.474135 2.94358,-1.540937 z m -2.33116,-8.534419 c 1.40265,0 2.33116,1.34338 2.33116,3.397963 0,1.936049 -0.94827,3.279429 -2.33116,3.279429 -1.38289,0 -2.33116,-1.363136 -2.33116,-3.31894 0,-1.995316 0.94827,-3.358452 2.33116,-3.358452 z m 10.49023,-5.867414 h -2.76578 v 14.401833 h 2.76578 z"
       id="text48"
       inkscape:label="band-text"
       aria-label="download.tdl" /><g
       id="g51"
       transform="matrix(1.1388278,0,0,1.1388278,-5.9408096,-25.067632)"
       style="stroke-width:0.878096"><path
         d="m 35.19788,189.35432 v -4.29949 h 8.598974 v 4.29949 h -1.433162 v -1.43316 h -1.433163 v 10.03214 h 1.433163 v 1.43316 h -5.73265 v -1.43316 h 1.433162 v -10.03214 h -1.433162 v 1.43316 z m 10.032137,8.59898 v -7.16582 h 1.433162 v -1.43316 h 7.165812 v 1.43316 h 1.433163 v 2.86633 h -7.165812 v 4.29949 h 4.299487 v -1.43317 h 2.866325 v 1.43317 h -1.433163 v 1.43316 h -7.165812 v -1.43316 z m 2.866325,-5.73265 h 4.299487 v -1.43317 h -4.299487 z m 8.598974,7.16581 v -1.43316 h 1.433163 v -7.16582 h -1.433163 v -1.43316 h 2.866325 v 1.43316 h 1.433163 v -1.43316 h 4.299487 v 1.43316 h 1.433162 v 2.86633 h -2.866324 v -2.86633 h -1.433163 v 1.43317 h -1.433162 v 5.73265 h 1.433162 v 1.43316 z m 11.465298,0 v -10.03214 h 4.299487 v 1.43316 h 1.433163 v -1.43316 h 2.866325 v 1.43316 h 1.433162 v 8.59898 h -2.866325 v -7.16581 h -1.433162 v 5.73265 h -1.433163 v -5.73265 h -1.433162 v 7.16581 z m 14.331626,0 v -1.43316 h 1.433163 v -7.16582 H 82.49224 v -1.43316 h 4.299488 v 8.59898 h 1.433162 v 1.43316 z m 1.433163,-14.33163 h 2.866325 v 2.86633 h -2.866325 z m 7.165814,5.73265 v -1.43316 h 2.866325 v 1.43316 h 1.433162 v 8.59898 h -2.866325 v -8.59898 z m 4.299487,0 v -1.43316 h 4.299488 v 1.43316 h 1.433158 v 8.59898 h -2.866321 v -8.59898 z m 7.165806,7.16582 v -4.29949 h 1.43316 v -1.43316 h 4.29949 v -1.43317 h -4.29949 v -1.43316 h 5.73265 v 1.43316 h 1.43317 v 7.16582 h 1.43316 v 1.43316 h -2.86633 v -1.43316 h -1.43316 v -4.29949 h -2.86632 v 4.29949 h 2.86632 v 1.43316 h -4.29949 v -1.43316 z m 18.63111,0 h 1.43317 v 1.43316 h -5.73265 v -1.43316 h 1.43316 V 186.488 h -1.43316 v -1.43317 h 4.29948 z"
         id="text50"
         style="font-size:22.9306px;font-family:'MxPlus IBM VGA 8x16';-inkscape-font-specification:'MxPlus IBM VGA 8x16';fill-rule:evenodd;stroke-width:1.14152;stroke-linecap:square;paint-order:stroke fill markers"
         aria-label="Terminal" /><path
         d="m 32.309341,218.30635 v -1.43316 h 1.433163 v -11.4653 h -1.433163 v -1.43316 h 7.165813 v 1.43316 h 1.433162 v 1.43316 h 1.433163 v 8.59898 h -1.433163 v 1.43316 h -1.433162 v 1.43316 z m 4.299488,-1.43316 h 1.433162 v -1.43316 h 1.433163 v -8.59898 h -1.433163 v -1.43316 h -1.433162 z m 7.165812,0 v -7.16581 h 1.433162 v -1.43317 h 7.165813 v 1.43317 h 1.433162 v 7.16581 h -1.433162 v 1.43316 h -7.165813 v -1.43316 z m 2.866325,0 h 4.299487 v -7.16581 h -4.299487 z m 8.598975,0 v -8.59898 h 2.866325 v 7.16582 h 1.433162 v -4.29949 h 1.433162 v 4.29949 h 1.433163 v -7.16582 h 2.866325 v 8.59898 h -1.433163 v 1.43316 H 60.97259 v -1.43316 h -1.433162 v 1.43316 h -2.866325 v -1.43316 z m 11.465297,-7.16581 v -1.43317 h 2.866325 v 1.43317 h 1.433163 v 8.59897 h -2.866325 v -8.59897 z m 4.299488,0 v -1.43317 h 4.299487 v 1.43317 h 1.433162 v 8.59897 h -2.866324 v -8.59897 z m 14.331626,7.16581 h 1.433163 v 1.43316 h -5.73265 v -1.43316 h 1.433162 v -11.4653 h -1.433162 v -1.43316 h 4.299487 z m 4.299489,0 v -7.16581 h 1.433163 v -1.43317 h 7.165812 v 1.43317 h 1.433163 v 7.16581 h -1.433163 v 1.43316 h -7.165812 v -1.43316 z m 2.866325,0 h 4.299488 v -7.16581 h -4.299488 z m 8.598974,0 v -4.29949 h 1.43316 v -1.43316 h 4.29949 v -1.43316 h -4.29949 v -1.43317 h 5.73265 v 1.43317 h 1.43316 v 7.16581 h 1.43316 v 1.43316 h -2.86632 v -1.43316 h -1.43316 v -4.29949 h -2.86633 v 4.29949 h 2.86633 v 1.43316 h -4.29949 v -1.43316 z m 11.4653,0 v -5.73265 h 1.43316 v -1.43316 h 1.43316 v -1.43317 h 2.86633 v -2.86632 h -1.43317 v -1.43316 h 4.29949 v 12.89846 h 1.43316 v 1.43316 h -2.86632 v -1.43316 h -1.43316 v -7.16581 h -1.43317 v 1.43316 h -1.43316 v 5.73265 h 2.86633 v 1.43316 h -4.29949 v -1.43316 z m 11.4653,0 v -7.16581 h 1.43316 v -1.43317 h 7.16581 v 1.43317 h 1.43317 v 2.86632 h -7.16582 v 4.29949 h 4.29949 v -1.43316 h 2.86633 v 1.43316 h -1.43317 v 1.43316 h -7.16581 v -1.43316 z m 2.86632,-5.73265 h 4.29949 v -1.43316 h -4.29949 z m 8.59898,7.16581 v -1.43316 h 1.43316 v -7.16581 h -1.43316 v -1.43317 h 2.86632 v 1.43317 h 1.43317 v -1.43317 h 4.29948 v 1.43317 h 1.43317 v 2.86632 h -2.86633 v -2.86632 h -1.43316 v 1.43316 h -1.43316 v 5.73265 h 1.43316 v 1.43316 z"
         id="text51"
         style="font-size:22.9306px;font-family:'MxPlus IBM VGA 8x16';-inkscape-font-specification:'MxPlus IBM VGA 8x16';fill-rule:evenodd;stroke-width:1.14152;stroke-linecap:square;paint-order:stroke fill markers"
         aria-label="Downloader" /></g><g
       id="rect40"
       style="display:inline;opacity:1"
       inkscape:label="arrow"><path
         style="baseline-shift:baseline;display:inline;overflow:visible;opacity:1;vector-effect:none;fill:#7d8081;fill-opacity:0.597071;fill-rule:evenodd;stroke-width:1;stroke-linecap:square;paint-order:stroke fill markers;enable-background:accumulate;stop-color:#000000;stop-opacity:1"
         d="m 141.07882,117.66147 43.48363,0.87323 -0.15436,52.34827 20.84135,-20.1972 32.15168,31.59952 -72.91764,70.78717 -71.092196,-71.05278 32.689376,-31.51631 15.07899,15.17157 z"
         id="path45"
         sodipodi:nodetypes="cccccccccc" /><path
         style="baseline-shift:baseline;display:inline;overflow:visible;opacity:1;fill:#676261;fill-rule:evenodd;stroke:url(#radialGradient45);stroke-width:1.3;stroke-linecap:square;stroke-dasharray:none;stroke-opacity:1;paint-order:stroke fill markers;enable-background:accumulate;stop-color:#000000;stop-opacity:1"
         d="m 146.51172,123.05078 0.0684,54.38867 -20.75781,-20.59961 -26.232426,25.88086 66.300776,65.0918 66.16602,-64.86133 -25.52734,-25.82422 -23.26563,22.51758 -0.48633,-56.59375 z m 5.00586,5 h 26.30273 l 0.54297,63.29688 28.08789,-27.1875 18.51953,18.73632 -59.07812,57.91211 -59.17383,-58.09765 19.09375,-18.83594 25.7832,25.58398 z"
         id="path43" /><path
         style="baseline-shift:baseline;display:inline;overflow:visible;opacity:1;vector-effect:none;fill:url(#radialGradient53);fill-rule:evenodd;stroke-linecap:square;paint-order:stroke fill markers;enable-background:accumulate;stop-color:#000000;stop-opacity:1"
         d="m 149.01454,125.55093 h 31.28482 l 0.51455,59.94542 25.6762,-24.85291 22.02287,22.28014 -62.6211,61.38618 -62.73801,-61.59351 22.66316,-22.35871 23.27028,23.09157 z"
         id="path44" /><path
         style="baseline-shift:baseline;display:inline;overflow:visible;opacity:1;vector-effect:none;fill:url(#radialGradient61);fill-rule:evenodd;stroke-linecap:square;paint-order:stroke fill markers;enable-background:accumulate;stop-color:#000000;stop-opacity:1"
         d="m 149.01454,181.43736 c 8.47375,-6.23484 18.93011,-8.901 31.28482,-8.15011 l 0.51455,12.2091 25.6762,-24.85291 22.02287,22.28014 -62.6211,61.38618 -26.35362,-26.66449 c 0,0 -4.23063,-9.95034 -0.91392,-20.32119 3.3167,-10.37085 10.46297,-13.87497 10.46297,-13.87497 z"
         id="path51"
         sodipodi:nodetypes="ccccccczcc" /><path
         style="baseline-shift:baseline;display:inline;overflow:visible;opacity:1;vector-effect:none;fill:url(#radialGradient58);fill-rule:evenodd;stroke-linecap:square;paint-order:stroke fill markers;enable-background:accumulate;stop-color:#000000;stop-opacity:1"
         d="m 149.01454,156.40489 c 13.10452,0.56279 24.36678,4.96652 31.28482,20.95742 l 0.51455,8.13404 4.71879,-1.85797 c 0,0 2.30664,21.73352 -3.00959,30.43024 -5.78606,9.4653 -27.98316,18.01598 -27.98316,18.01598 l -51.38608,-49.36835 22.66316,-22.35871 23.27028,23.09157 z"
         id="path52"
         sodipodi:nodetypes="ccccsccccc" /><path
         style="baseline-shift:baseline;display:inline;overflow:visible;opacity:1;vector-effect:none;fill:#e7e7e7;fill-opacity:0.261786;fill-rule:evenodd;stroke-linecap:square;paint-order:stroke fill markers;enable-background:accumulate;stop-color:#000000;stop-opacity:1"
         d="m 148.62318,125.46902 0.32758,57.84222 -23.15815,-23.01199 -22.633,22.41755 62.87849,61.84653 62.75343,-61.68981 -22.3428,-22.12345 -25.61767,24.88027 -0.53159,-60.21277 z m 1.40039,1.39844 28.88725,-0.0514 0.54721,62.04675 26.97119,-26.16542 20.36623,20.17227 -60.75733,59.73082 -60.8824,-59.88559 20.63496,-20.44684 24.56439,24.40847 z"
         id="path41"
         sodipodi:nodetypes="cccccccccccccccccccc" /></g></g></svg>
