<?xml version="1.0" encoding="UTF-8" standalone="no"?>
<svg
   height="256mm"
   width="256mm"
   version="1.1"
   id="svg19"
   sodipodi:docname="text-vnd.rn-realtext.svg"
   viewBox="0 0 256 256"
   inkscape:version="1.4.2 (ebf0e940d0, 2025-05-08)"
   xml:space="preserve"
   xmlns:inkscape="http://www.inkscape.org/namespaces/inkscape"
   xmlns:sodipodi="http://sodipodi.sourceforge.net/DTD/sodipodi-0.dtd"
   xmlns:xlink="http://www.w3.org/1999/xlink"
   xmlns="http://www.w3.org/2000/svg"
   xmlns:svg="http://www.w3.org/2000/svg"
   xmlns:rdf="http://www.w3.org/1999/02/22-rdf-syntax-ns#"
   xmlns:cc="http://creativecommons.org/ns#"
   xmlns:dc="http://purl.org/dc/elements/1.1/"><title
     id="title1">Textfiles</title><sodipodi:namedview
     id="namedview19"
     pagecolor="#ffffff"
     bordercolor="#000000"
     borderopacity="0.25"
     inkscape:showpageshadow="2"
     inkscape:pageopacity="0.0"
     inkscape:pagecheckerboard="0"
     inkscape:deskcolor="#d1d1d1"
     inkscape:zoom="0.4579224"
     inkscape:cx="462.96054"
     inkscape:cy="603.8141"
     inkscape:current-layer="svg19"
     inkscape:document-units="mm" /><defs
     id="defs10"><radialGradient
       id="b"
       gradientUnits="userSpaceOnUse"
       cy="42.099998"
       cx="24.309999"
       gradientTransform="matrix(1.076,0,0,0.285,-6.9499999,28.65)"
       r="15.82"><stop
         offset="0"
         id="stop1" /><stop
         stop-opacity="0"
         offset="1"
         id="stop2" /></radialGradient><radialGradient
       id="f"
       gradientUnits="userSpaceOnUse"
       cy="35.740002"
       cx="33.970001"
       gradientTransform="matrix(0.961,0,0,1.041,-5.0999999,-2.1500001)"
       r="86.699997"><stop
         stop-color="#fafafa"
         offset="0"
         id="stop3" /><stop
         stop-color="#bbb"
         offset="1"
         id="stop4" /></radialGradient><radialGradient
       id="g"
       gradientUnits="userSpaceOnUse"
       cy="3.76"
       cx="8.8199997"
       gradientTransform="matrix(0.968,0,0,1.033,-1.7499999,-1.5000001)"
       r="37.75"><stop
         stop-color="#a3a3a3"
         offset="0"
         id="stop5" /><stop
         stop-color="#4c4c4c"
         offset="1"
         id="stop6" /></radialGradient><radialGradient
       id="e"
       gradientUnits="userSpaceOnUse"
       cy="7.27"
       cx="8.1400003"
       gradientTransform="matrix(0.968,0,0,1.033,-1.7499999,-1.5000001)"
       r="38.200001"><stop
         stop-color="#fff"
         offset="0"
         id="stop7" /><stop
         stop-color="#f8f8f8"
         offset="1"
         id="stop8" /></radialGradient><radialGradient
       id="c"
       gradientUnits="userSpaceOnUse"
       cy="18.82"
       cx="10.1"
       r="1.21"><stop
         stop-color="#f0f0f0"
         offset="0"
         id="stop9" /><stop
         stop-color="#9a9a9a"
         offset="1"
         id="stop10" /></radialGradient><radialGradient
       inkscape:collect="always"
       xlink:href="#c"
       id="radialGradient2"
       gradientUnits="userSpaceOnUse"
       cx="10.1"
       cy="18.82"
       r="1.21" /><linearGradient
       id="swatch1"
       inkscape:swatch="solid"><stop
         style="stop-color:#ff0707;stop-opacity:1;"
         offset="0"
         id="stop1-21" /></linearGradient><linearGradient
       id="linearGradient5060"><stop
         id="stop5062"
         offset="0" /><stop
         id="stop5064"
         stop-opacity="0"
         offset="1" /></linearGradient><radialGradient
       inkscape:collect="always"
       xlink:href="#linearGradient5060"
       id="radialGradient7074"
       cx="37.408669"
       cy="42.696701"
       fx="37.408669"
       fy="42.696701"
       r="1.0198655"
       gradientTransform="matrix(1,0,0,0.56,0,18.786549)"
       gradientUnits="userSpaceOnUse" /><radialGradient
       inkscape:collect="always"
       xlink:href="#linearGradient5060"
       id="radialGradient6920"
       cx="22.967371"
       cy="41.309681"
       fx="22.967371"
       fy="41.309681"
       r="19.94857"
       gradientTransform="matrix(1,0,0,0.3149284,0,28.300089)"
       gradientUnits="userSpaceOnUse" /><radialGradient
       inkscape:collect="always"
       xlink:href="#linearGradient6485"
       id="radialGradient6474"
       cx="20.030159"
       cy="39.59631"
       fx="20.030159"
       fy="39.59631"
       r="15.297982"
       gradientTransform="matrix(1,0,0,0.3893333,0,24.180146)"
       gradientUnits="userSpaceOnUse" /><linearGradient
       inkscape:collect="always"
       id="linearGradient6485"><stop
         style="stop-color:#babdb6;stop-opacity:1"
         offset="0"
         id="stop6487" /><stop
         style="stop-color:#ffffff;stop-opacity:1"
         offset="1"
         id="stop6489" /></linearGradient><radialGradient
       inkscape:collect="always"
       xlink:href="#linearGradient5060"
       id="radialGradient6647"
       cx="19.49839"
       cy="39.109619"
       fx="19.49839"
       fy="39.109619"
       r="11.01923"
       gradientTransform="matrix(1.0416667,0,0,0.3083188,-0.3605775,28.153309)"
       gradientUnits="userSpaceOnUse" /><linearGradient
       inkscape:collect="always"
       xlink:href="#linearGradient6697"
       id="linearGradient6525"
       x1="-2.2426405"
       y1="29.677462"
       x2="26.960201"
       y2="51.706558"
       gradientUnits="userSpaceOnUse"
       gradientTransform="matrix(1,0,0,0.928567,1.0000002,1.2144083)" /><linearGradient
       inkscape:collect="always"
       id="linearGradient6697"><stop
         style="stop-color:#000000;stop-opacity:1;"
         offset="0"
         id="stop6699" /><stop
         style="stop-color:#ffffff;stop-opacity:0"
         offset="1"
         id="stop6701" /></linearGradient><radialGradient
       inkscape:collect="always"
       xlink:href="#linearGradient6972"
       id="radialGradient6978"
       cx="38.271816"
       cy="22.034494"
       fx="38.271816"
       fy="22.034494"
       r="7.4999995"
       gradientTransform="matrix(-0.8124067,-0.09048769,0.8060108,-4.3425845,54.463748,116.30491)"
       gradientUnits="userSpaceOnUse" /><linearGradient
       id="linearGradient6972"><stop
         style="stop-color:#ffffff;stop-opacity:1;"
         offset="0"
         id="stop6974" /><stop
         id="stop6988"
         offset="0.26791042"
         style="stop-color:#ffffff;stop-opacity:1;" /><stop
         style="stop-color:#babdb6;stop-opacity:1"
         offset="1"
         id="stop6976" /></linearGradient><radialGradient
       inkscape:collect="always"
       xlink:href="#linearGradient6674"
       id="radialGradient6672"
       cx="16.879473"
       cy="24.207943"
       fx="16.879473"
       fy="24.207943"
       r="18.031313"
       gradientTransform="matrix(1.3072989,-1.1169287e-7,1.4513664e-7,1.6964998,-5.1459795,-18.939898)"
       gradientUnits="userSpaceOnUse" /><linearGradient
       id="linearGradient6674"><stop
         id="stop6676"
         offset="0"
         style="stop-color:#ffffff;stop-opacity:1;" /><stop
         id="stop6678"
         offset="1"
         style="stop-color:#d3d7cf;stop-opacity:1" /></linearGradient><linearGradient
       inkscape:collect="always"
       xlink:href="#linearGradient5060"
       id="linearGradient7033"
       gradientUnits="userSpaceOnUse"
       spreadMethod="pad"
       x1="-7.9941564"
       y1="36.043625"
       x2="15.359629"
       y2="27.639933"
       gradientTransform="translate(0,-1.000012)" /><linearGradient
       inkscape:collect="always"
       xlink:href="#linearGradient6697"
       id="linearGradient6703"
       x1="29.403845"
       y1="42"
       x2="23.173077"
       y2="40.076923"
       gradientUnits="userSpaceOnUse"
       gradientTransform="translate(1.0000002,-2.000015)" /><linearGradient
       inkscape:collect="always"
       xlink:href="#b-74"
       id="linearGradient6436"
       x1="2.0234036"
       y1="22.198654"
       x2="35.63699"
       y2="35.920536"
       gradientUnits="userSpaceOnUse"
       gradientTransform="matrix(0.9890811,0,0,1,1.0327568,-2.000015)" /><linearGradient
       id="b-74"><stop
         offset="0"
         stop-color="#fff"
         id="stop12-4" /><stop
         offset="1"
         stop-color="#fff"
         stop-opacity="0"
         id="stop13-3" /></linearGradient><linearGradient
       inkscape:collect="always"
       xlink:href="#linearGradient6485"
       id="linearGradient6491"
       x1="4.0794621"
       y1="19.525354"
       x2="38.26535"
       y2="19.525354"
       gradientUnits="userSpaceOnUse" /><radialGradient
       inkscape:collect="always"
       xlink:href="#linearGradient6415"
       id="radialGradient5568"
       gradientUnits="userSpaceOnUse"
       gradientTransform="matrix(0.01835287,0.5342203,-1.2705949,0.0747899,48.480461,15.698035)"
       cx="2.6166739"
       cy="25.459009"
       fx="2.6166739"
       fy="25.459009"
       r="15" /><linearGradient
       id="linearGradient6415"><stop
         style="stop-color:#8e5801;stop-opacity:1;"
         offset="0"
         id="stop6417" /><stop
         id="stop6501"
         offset="0.50000024"
         style="stop-color:#543400;stop-opacity:1" /><stop
         style="stop-color:#e9b96e;stop-opacity:1"
         offset="1"
         id="stop6419" /></linearGradient><radialGradient
       inkscape:collect="always"
       xlink:href="#linearGradient6356"
       id="radialGradient5570"
       gradientUnits="userSpaceOnUse"
       gradientTransform="matrix(0.7782092,0.2144213,-0.5487816,0.5203076,10.345927,5.3482006)"
       cx="30.268013"
       cy="12.26056"
       fx="30.268013"
       fy="12.26056"
       r="12" /><linearGradient
       id="linearGradient6356"
       inkscape:collect="always"><stop
         id="stop6358"
         offset="0"
         style="stop-color:#f1d09d;stop-opacity:1" /><stop
         id="stop6360"
         offset="1"
         style="stop-color:#ffffff;stop-opacity:0.28409091" /></linearGradient><radialGradient
       inkscape:collect="always"
       xlink:href="#linearGradient7010"
       id="radialGradient7018"
       cx="26.671368"
       cy="40.067455"
       fx="26.671368"
       fy="40.067455"
       r="17"
       gradientTransform="matrix(1.0863679,-0.00671757,0.00479934,0.7761513,-2.5375583,5.7982012)"
       gradientUnits="userSpaceOnUse" /><linearGradient
       id="linearGradient7010"><stop
         id="stop7012"
         offset="0"
         style="stop-color:#ffffff;stop-opacity:0.2" /><stop
         id="stop7016"
         offset="1"
         style="stop-color:#ffffff;stop-opacity:1;" /></linearGradient><radialGradient
       inkscape:collect="always"
       xlink:href="#b-74"
       id="radialGradient6908"
       cx="18.348351"
       cy="45.815006"
       fx="18.348351"
       fy="45.815006"
       r="9.000001"
       gradientTransform="matrix(1.1947638,0.4236272,-0.3550842,0.9983516,12.684783,-14.23029)"
       gradientUnits="userSpaceOnUse" /><radialGradient
       inkscape:collect="always"
       xlink:href="#c"
       id="radialGradient1"
       gradientUnits="userSpaceOnUse"
       cx="10.1"
       cy="18.82"
       r="1.21" /></defs><g
     id="g31"
     transform="matrix(5.4987246,0,0,5.4987246,20.583851,7.1467567)"><g
       id="g3"><ellipse
         opacity="0.8"
         rx="17"
         ry="4.5"
         cy="40.649998"
         cx="19.199999"
         fill="url(#b)"
         id="ellipse10"
         style="fill:url(#b)" /><rect
         rx="1.2"
         height="41"
         width="34.880001"
         stroke="url(#g)"
         y="1.5"
         x="1.5"
         fill="url(#f)"
         id="rect10"
         style="fill:url(#f);stroke:url(#g)" /><rect
         rx="0.2"
         height="39"
         width="32.779999"
         stroke="url(#e)"
         y="2.4299998"
         x="2.5599999"
         fill="none"
         id="rect11"
         style="stroke:url(#e)" /><g
         fill="none"
         id="g12"
         transform="translate(-5.0999999,-2.1500001)"><path
           stroke="#000000"
           d="M 11.5,5.4 V 43.3"
           stroke-opacity="0.02"
           id="path11" /><path
           stroke="#ffffff"
           d="M 12.5,5 V 43"
           stroke-opacity="0.2"
           id="path12" /></g><g
         id="g2"
         style="display:inline"><g
           id="d"
           transform="translate(-5.0999999,-2.1500001)"><circle
             cy="18.690001"
             cx="10.17"
             r="0.81999999"
             fill="#ffffff"
             id="circle18" /><circle
             cy="18.43"
             cx="9.8199997"
             r="0.81999999"
             fill="url(#c)"
             id="circle19"
             style="fill:url(#radialGradient1)" /></g><g
           id="use19"
           transform="translate(-5.0999999,9.3499999)"><circle
             cy="18.690001"
             cx="10.17"
             r="0.81999999"
             fill="#ffffff"
             id="circle1" /><circle
             cy="18.43"
             cx="9.8199997"
             r="0.81999999"
             fill="url(#c)"
             id="circle2"
             style="fill:url(#radialGradient2)" /></g></g></g><g
       fill-opacity="0.55"
       fill="#9b9b9b"
       id="g18"
       transform="translate(-5.0999999,-2.1500001)"
       style="display:none"><g
         id="a"><rect
           rx="0.2"
           height="1"
           width="20"
           y="9"
           x="16"
           id="rect12" /><rect
           rx="0.2"
           height="1"
           width="20"
           y="11"
           x="16"
           id="rect13" /><rect
           rx="0.2"
           height="1"
           width="20"
           y="13"
           x="16"
           id="rect14" /><rect
           rx="0.2"
           height="1"
           width="20"
           y="15"
           x="16"
           id="rect15" /></g><rect
         rx="0.2"
         height="1"
         width="9"
         y="25"
         x="16"
         id="rect16" /><rect
         rx="0.2"
         height="1"
         width="14"
         y="37"
         x="16"
         id="rect17" /><use
         y="8"
         xlink:href="#a"
         id="use17" /><use
         y="20"
         xlink:href="#a"
         id="use18" /></g></g><g
     id="g1"
     transform="matrix(0.9307168,0,0,0.9307168,19.374784,2.3719729)"><g
       id="g11"
       transform="matrix(1.0691375,0,0,1.0691375,6.2292244,-4.1398549)"
       style="clip-rule:nonzero;display:inline;fill:#a3a3a3;fill-opacity:0.70915;fill-rule:nonzero;stroke:none;stroke-width:0;stroke-miterlimit:4"><rect
         style="fill:#a3a3a3;fill-opacity:0.70915;fill-rule:evenodd;stroke:none;stroke-width:1.29;stroke-linecap:round;stroke-linejoin:round;stroke-miterlimit:2.1"
         id="rect1"
         width="92.663994"
         height="7.6032"
         x="42.055199"
         y="41.104797" /><rect
         style="fill:#a3a3a3;fill-opacity:0.70915;fill-rule:evenodd;stroke:none;stroke-width:1.59471;stroke-linecap:round;stroke-linejoin:round;stroke-miterlimit:2.1"
         id="rect3"
         width="141.60959"
         height="7.6032"
         x="42.055199"
         y="76.507195" /><rect
         style="fill:#a3a3a3;fill-opacity:0.70915;fill-rule:evenodd;stroke:none;stroke-width:1.59471;stroke-linecap:round;stroke-linejoin:round;stroke-miterlimit:2.1"
         id="rect4"
         width="141.60959"
         height="7.6032"
         x="42.055199"
         y="94.802399" /><rect
         style="fill:#a3a3a3;fill-opacity:0.70915;fill-rule:evenodd;stroke:none;stroke-width:1.59471;stroke-linecap:round;stroke-linejoin:round;stroke-miterlimit:2.1"
         id="rect5"
         width="141.60959"
         height="7.6032"
         x="42.055199"
         y="111.90959" /><rect
         style="fill:#a3a3a3;fill-opacity:0.70915;fill-rule:evenodd;stroke:none;stroke-width:1.59471;stroke-linecap:round;stroke-linejoin:round;stroke-miterlimit:2.1"
         id="rect6"
         width="141.60959"
         height="7.6032"
         x="42.055199"
         y="130.9176" /><rect
         style="fill:#a3a3a3;fill-opacity:0.70915;fill-rule:evenodd;stroke:none;stroke-width:1.59471;stroke-linecap:round;stroke-linejoin:round;stroke-miterlimit:2.1"
         id="rect7"
         width="141.60959"
         height="7.6032"
         x="42.055199"
         y="148.0248" /><rect
         style="fill:#a3a3a3;fill-opacity:0.70915;fill-rule:evenodd;stroke:none;stroke-width:1.59471;stroke-linecap:round;stroke-linejoin:round;stroke-miterlimit:2.1"
         id="rect8"
         width="141.60959"
         height="7.6032"
         x="42.055199"
         y="166.31999" /></g><g
       id="g1-2"
       transform="matrix(2.8471779,0,0,2.8471779,55.178511,53.451838)"><ellipse
         style="display:inline;overflow:visible;visibility:visible;opacity:0.3;fill:url(#radialGradient7074);fill-opacity:1;fill-rule:evenodd;stroke:none;stroke-width:1;stroke-linecap:round;stroke-linejoin:miter;stroke-miterlimit:4;stroke-dasharray:none;stroke-dashoffset:0;stroke-opacity:1;marker:none;marker-start:none;marker-mid:none;marker-end:none;enable-background:accumulate"
         id="path7066"
         transform="matrix(7.844173,0,0,7.003731,-253.44006,-256.03621)"
         cx="37.408669"
         cy="42.696701"
         rx="1.0198655"
         ry="0.57112467" /><ellipse
         style="display:inline;overflow:visible;visibility:visible;opacity:0.6;fill:url(#radialGradient6920);fill-opacity:1;fill-rule:evenodd;stroke:none;stroke-width:1;stroke-linecap:round;stroke-linejoin:round;stroke-miterlimit:4;stroke-dasharray:none;stroke-dashoffset:0;stroke-opacity:1;marker:none;marker-start:none;marker-mid:none;marker-end:none;enable-background:accumulate"
         id="path6910"
         transform="matrix(1.1028359,0,0,1.3529923,-1.3292418,-17.391694)"
         cx="22.967371"
         cy="41.309681"
         rx="19.94857"
         ry="6.2823715" /><ellipse
         style="display:inline;overflow:visible;visibility:visible;opacity:1;fill:url(#radialGradient6474);fill-opacity:1;fill-rule:evenodd;stroke:none;stroke-width:0.741427;stroke-linecap:round;stroke-linejoin:round;stroke-miterlimit:4;stroke-dasharray:none;stroke-dashoffset:0;stroke-opacity:1;marker:none;marker-start:none;marker-mid:none;marker-end:none;enable-background:accumulate"
         id="path6380"
         transform="matrix(1.2419939,0,0,1.2592313,-3.8773344,-13.360927)"
         cx="20.030159"
         cy="39.59631"
         rx="15.297982"
         ry="5.9560146" /><ellipse
         style="display:inline;overflow:visible;visibility:visible;opacity:0.5;fill:url(#radialGradient6647);fill-opacity:1;fill-rule:evenodd;stroke:none;stroke-width:1;stroke-linecap:round;stroke-linejoin:round;stroke-miterlimit:4;stroke-dasharray:none;stroke-dashoffset:0;stroke-opacity:0.333333;marker:none;marker-start:none;marker-mid:none;marker-end:none;enable-background:accumulate"
         id="path6639"
         transform="matrix(1.0436301,0,0,1.3081764,1.9685851,-14.603786)"
         cx="19.673077"
         cy="40.21154"
         rx="11.01923"
         ry="3.0576923" /><path
         style="display:inline;overflow:visible;visibility:visible;opacity:0.23;fill:url(#linearGradient6525);fill-opacity:1;fill-rule:evenodd;stroke:none;stroke-width:0.741427;stroke-linecap:round;stroke-linejoin:round;stroke-miterlimit:4;stroke-dasharray:none;stroke-dashoffset:0;stroke-opacity:1;marker:none;marker-start:none;marker-mid:none;marker-end:none;enable-background:accumulate"
         d="m 19.311741,29.999985 c -9.155609,0.350567 -16.3117408,3.272588 -16.3117408,6.81314 0,2.743188 4.293952,5.09558 10.4861188,6.18599 15.685894,-1.935488 -23.534998,-3.680051 5.825622,-12.99913 z"
         id="path6505"
         sodipodi:nodetypes="cscc" /><ellipse
         transform="matrix(1.1766258,0,0,1.2592312,-3.0680011,-13.860924)"
         id="path6382"
         style="display:inline;overflow:visible;visibility:visible;opacity:1;fill:none;fill-opacity:1;fill-rule:evenodd;stroke:#ffffff;stroke-width:0.821539;stroke-linecap:round;stroke-linejoin:round;stroke-miterlimit:4;stroke-dasharray:none;stroke-dashoffset:0;stroke-opacity:1;marker:none;marker-start:none;marker-mid:none;marker-end:none;enable-background:accumulate"
         cx="20.030159"
         cy="39.59631"
         rx="15.297982"
         ry="5.9560146" /><g
         id="layer1" /><path
         sodipodi:nodetypes="csc"
         id="use6711"
         d="m 34.892388,19.885196 c 0,-4.692758 7.607608,-3.998944 7.607608,-0.99745 0,10.029256 -9.738406,8.84768 -13.999997,14.612241"
         style="fill:none;fill-rule:evenodd;stroke:#888a85;stroke-width:5;stroke-linecap:round;stroke-linejoin:miter;stroke-miterlimit:4;stroke-dasharray:none;stroke-opacity:1" /><ellipse
         transform="matrix(1.2746779,0,0,1.3431802,-4.5320012,-16.684992)"
         id="path6384"
         style="display:inline;overflow:visible;visibility:visible;opacity:1;fill:none;fill-opacity:1;fill-rule:evenodd;stroke:#888a85;stroke-width:0.764245;stroke-linecap:round;stroke-linejoin:round;stroke-miterlimit:4;stroke-dasharray:none;stroke-dashoffset:0;stroke-opacity:1;marker:none;marker-start:none;marker-mid:none;marker-end:none;enable-background:accumulate"
         cx="20.030159"
         cy="39.59631"
         rx="15.297982"
         ry="5.9560146" /><path
         sodipodi:nodetypes="csc"
         id="use6713"
         d="m 34.892389,19.885194 c 0,-4.692757 7.607609,-3.998943 7.607609,-0.997449 0,10.029255 -9.738407,8.847678 -13.999998,14.612238"
         style="fill:none;fill-rule:evenodd;stroke:url(#radialGradient6978);stroke-width:3;stroke-linecap:round;stroke-linejoin:miter;stroke-miterlimit:4;stroke-dasharray:none;stroke-opacity:1" /><path
         sodipodi:nodetypes="csc"
         id="use6715"
         d="m 34.892389,19.885195 c 0,-4.692758 7.607609,-3.998944 7.607609,-0.99745 0,10.029256 -9.738406,8.847679 -13.999998,14.612239"
         style="fill:none;fill-rule:evenodd;stroke:#eeeeec;stroke-width:1;stroke-linecap:round;stroke-linejoin:miter;stroke-miterlimit:4;stroke-dasharray:none;stroke-opacity:1" /><path
         style="display:inline;overflow:visible;visibility:visible;opacity:1;fill:url(#radialGradient6672);fill-opacity:1;fill-rule:evenodd;stroke:none;stroke-width:1.06263;stroke-linecap:round;stroke-linejoin:round;stroke-miterlimit:4;stroke-dasharray:none;stroke-dashoffset:0;stroke-opacity:1;marker:none;marker-start:none;marker-mid:none;marker-end:none;enable-background:accumulate"
         d="m 21,8.499985 c -9.66,0 -17.4999999,3.252759 -17.4999998,7.25 0,0 0.094439,13.526095 8.0937498,19.71875 -0.04132,0.169334 -0.0625,0.356718 -0.0625,0.53125 0,2.466715 4.242035,4.468748 9.46875,4.46875 5.226716,0 9.468749,-2.002035 9.46875,-4.46875 0,-0.164351 -0.0258,-0.34023 -0.0625,-0.5 8.04932,-6.182974 8.09375,-19.75 8.09375,-19.75 10e-7,-3.997241 -7.839999,-7.25 -17.5,-7.25 z"
         id="path6649" /><path
         style="fill:url(#linearGradient7033);fill-opacity:1;fill-rule:evenodd;stroke:none;stroke-width:1px;stroke-linecap:butt;stroke-linejoin:miter;stroke-opacity:1"
         d="m 14.59375,15.281238 c -4.191734,1.001555 -4.511634,12.48106 -8.96875,9.21875 1.9399911,6.09923 6.155522,13.436376 15.21875,13.5 C 22.681065,27.338825 8.9873584,30.976917 14.5625,17.968738 l 0.09375,-2.6875 c -0.01991,0.0046 -0.04262,-0.0047 -0.0625,0 z"
         id="path7020"
         sodipodi:nodetypes="cccccc" /><path
         style="display:inline;overflow:visible;visibility:visible;opacity:0.5;fill:url(#linearGradient6703);fill-opacity:1;fill-rule:evenodd;stroke:none;stroke-width:0.972288;stroke-linecap:round;stroke-linejoin:round;stroke-miterlimit:4;stroke-dasharray:none;stroke-dashoffset:0;stroke-opacity:1;marker:none;marker-start:none;marker-mid:none;marker-end:none;enable-background:accumulate"
         d="M 12.1875,34.999985 C 12.067547,35.27044 12,35.557388 12,35.844141 c 0,2.294026 4.032,4.155843 9,4.155844 4.968,0 8.999999,-1.861819 9,-4.155844 0,-0.286753 -0.06755,-0.573702 -0.1875,-0.844156 -2.257679,1.778179 -5.139764,2.918598 -8.8125,2.922078 -3.680722,0.0035 -6.552622,-1.139146 -8.8125,-2.922078 z"
         id="path6663" /><path
         style="fill:url(#linearGradient6436);fill-opacity:1;fill-rule:evenodd;stroke:none;stroke-width:1px;stroke-linecap:butt;stroke-linejoin:miter;stroke-opacity:1"
         d="M 14.878713,9.999985 C 8.53138,10.981987 3.9423078,13.958868 4.0000002,16.429614 c 1e-7,0 1.3027011,21.461376 16.8289488,21.57037 1.837315,-10.661163 -11.8559446,-7.02145 -6.280803,-20.029629 z"
         id="path6425"
         sodipodi:nodetypes="ccccc" /><ellipse
         transform="matrix(0.877555,0,0,0.7581351,2.4200479,1.1971293)"
         id="path6339"
         style="display:inline;overflow:visible;visibility:visible;opacity:1;fill:url(#linearGradient6491);fill-opacity:1;fill-rule:evenodd;stroke:none;stroke-width:0.95311;stroke-linecap:round;stroke-linejoin:round;stroke-miterlimit:4;stroke-dasharray:none;stroke-dashoffset:0;stroke-opacity:1;marker:none;marker-start:none;marker-mid:none;marker-end:none;enable-background:accumulate"
         cx="21.172407"
         cy="19.525354"
         rx="17.092945"
         ry="7.9141564" /><path
         style="display:inline;overflow:visible;visibility:visible;opacity:1;fill:url(#radialGradient5568);fill-opacity:1;fill-rule:evenodd;stroke:#8f5902;stroke-width:1;stroke-linecap:round;stroke-linejoin:round;stroke-miterlimit:4;stroke-dasharray:none;stroke-dashoffset:0;stroke-opacity:1;marker:none;marker-start:none;marker-mid:none;marker-end:none;enable-background:accumulate"
         d="m 20.999999,16.5 c -5.011801,0 -9.348095,1.015109 -11.4999991,2.499993 2.1519041,1.484883 6.4881991,2.49999 11.4999991,2.499991 5.011802,0 9.348094,-1.015108 11.5,-2.499991 -2.151906,-1.484884 -6.488198,-2.499994 -11.5,-2.499993 z"
         id="path6342" /><ellipse
         style="display:inline;overflow:visible;visibility:visible;opacity:1;fill:none;fill-opacity:1;fill-rule:evenodd;stroke:#ffffff;stroke-width:1.15875;stroke-linecap:round;stroke-linejoin:round;stroke-miterlimit:4;stroke-dasharray:none;stroke-dashoffset:0;stroke-opacity:1;marker:none;marker-start:none;marker-mid:none;marker-end:none;enable-background:accumulate"
         id="path6347"
         transform="matrix(0.9068069,0,0,0.8213131,1.800716,-0.03644353)"
         cx="21.172407"
         cy="19.525354"
         rx="17.092945"
         ry="7.9141564" /><path
         id="path6411"
         d="M 28.500001,18.499999 C 27.096584,17.949923 24.529297,17.499998 21,17.499998 c -3.529295,0 -6.096583,0.449925 -7.499999,1.000001"
         style="display:inline;overflow:visible;visibility:visible;opacity:1;fill:none;fill-opacity:1;fill-rule:evenodd;stroke:url(#radialGradient5570);stroke-width:1;stroke-linecap:round;stroke-linejoin:round;stroke-miterlimit:4;stroke-dasharray:none;stroke-dashoffset:0;stroke-opacity:1;marker:none;marker-start:none;marker-mid:none;marker-end:none;enable-background:accumulate"
         sodipodi:nodetypes="ccc" /><path
         style="display:inline;overflow:visible;visibility:visible;fill:none;fill-opacity:1;fill-rule:evenodd;stroke:url(#radialGradient7018);stroke-width:1;stroke-linecap:round;stroke-linejoin:round;stroke-miterlimit:4;stroke-dasharray:none;stroke-dashoffset:0;stroke-opacity:1;marker:none;marker-start:none;marker-mid:none;marker-end:none;enable-background:accumulate"
         d="M 21,9.499985 C 15.565556,9.842402 7.0682722,9.782597 4.5,15.71523 c 0,0 0.3352984,21.799409 16.5,21.784748 C 37.164421,37.485317 37.5,15.71523 37.5,15.71523 35.450001,9.813966 26.16578,9.755521 21,9.499985 Z"
         id="path6408"
         sodipodi:nodetypes="cczcc" /><path
         style="display:inline;overflow:visible;visibility:visible;opacity:1;fill:none;fill-opacity:1;fill-rule:evenodd;stroke:url(#radialGradient6908);stroke-width:1;stroke-linecap:round;stroke-linejoin:round;stroke-miterlimit:4;stroke-dasharray:none;stroke-dashoffset:0;stroke-opacity:1;marker:none;marker-start:none;marker-mid:none;marker-end:none;enable-background:accumulate"
         d="m 12.499999,35.499987 c 0,2.207966 3.808032,3.999996 8.500001,3.999998 4.691967,0 8.499997,-1.792032 8.499998,-3.999998"
         id="path6900"
         sodipodi:nodetypes="css" /><path
         id="path6695"
         d="m 21.000002,8.531297 c -9.642717,0 -17.4686895,3.249573 -17.4686894,7.242899 0,0 0.09427,13.512846 8.0792684,19.699435 -0.04124,0.169168 -0.06239,0.356369 -0.06239,0.53073 0,2.464299 4.234446,4.464371 9.45181,4.464373 5.217364,0 9.451807,-2.000074 9.451808,-4.464373 0,-0.16419 -0.02575,-0.339897 -0.06239,-0.49951 8.034918,-6.176918 8.079268,-19.730655 8.079268,-19.730655 10e-7,-3.993326 -7.825971,-7.242899 -17.468688,-7.242899 z"
         style="display:inline;overflow:visible;visibility:visible;opacity:1;fill:none;fill-opacity:1;fill-rule:evenodd;stroke:#888a85;stroke-width:1.06263;stroke-linecap:round;stroke-linejoin:round;stroke-miterlimit:4;stroke-dasharray:none;stroke-dashoffset:0;stroke-opacity:1;marker:none;marker-start:none;marker-mid:none;marker-end:none;enable-background:accumulate" /><path
         style="display:inline;overflow:visible;visibility:visible;fill:#eeeeec;fill-opacity:1;fill-rule:evenodd;stroke:#888a85;stroke-width:1;stroke-linecap:round;stroke-linejoin:miter;stroke-miterlimit:4;stroke-dasharray:none;stroke-dashoffset:0;stroke-opacity:1;marker:none;marker-start:none;marker-mid:none;marker-end:none;enable-background:accumulate"
         d="m 41,34.499988 -5.5,2.2 v 6.600001 l 5.5,2.2 5.5,-3.3 v -5.500001 z"
         id="path7043" /><path
         style="display:inline;overflow:visible;visibility:visible;opacity:0.6;fill:#ffffff;fill-opacity:1;fill-rule:evenodd;stroke:none;stroke-width:1;stroke-linecap:round;stroke-linejoin:round;stroke-miterlimit:4;stroke-dashoffset:0;stroke-opacity:1;marker:none;marker-start:none;marker-mid:none;marker-end:none;enable-background:accumulate"
         d="m 40.999998,38.999991 -5,-2 v 6 l 5,2 z"
         id="rect7037"
         sodipodi:nodetypes="ccccc" /><path
         style="fill:#ffffff;fill-opacity:1;fill-rule:evenodd;stroke:none;stroke-width:1px;stroke-linecap:butt;stroke-linejoin:miter;stroke-opacity:1"
         d="m 40.999998,38.999991 5,-2 -5,-2 -5,2 z"
         id="path7039"
         sodipodi:nodetypes="ccccc" /></g><g
       id="g25"
       transform="matrix(3.2105271,0,0,3.2105271,48.376635,23.935402)"
       style="fill:#24a8ff;fill-opacity:0.346189"><path
         d="m 7.35234,26.40323 c -1.586,1.57 -4.117,1.57 -5.684,0 -1.561,-1.567 -1.561,-4.101 0,-5.668 l 9.287,-9.291 2.494,2.483 -9.363,9.356 0.71,0.705 9.345,-9.357 2.491,2.492 -9.28,9.28"
         id="path2"
         style="fill:#24a8ff;fill-opacity:0.346189" /><path
         d="m 14.58334,20.63723 c 1.562,-1.568 4.093,-1.568 5.659,0 1.579,1.565 1.579,4.098 0,5.665 l -9.287,9.296 -2.475,-2.486 9.351,-9.353 -0.699,-0.7 -9.366,9.347 -2.482,-2.48 9.299,-9.289"
         id="path3-2"
         style="fill:#24a8ff;fill-opacity:0.346189" /><path
         d="m 26.61834,39.90923 c 1.566,1.563 1.566,4.102 0,5.668 -1.567,1.569 -4.11,1.569 -5.666,0 l -9.292,-9.293 2.475,-2.484 9.35,9.357 0.714,-0.695 -9.354,-9.363 2.479,-2.487 9.294,9.297"
         id="path4-3"
         style="fill:#24a8ff;fill-opacity:0.346189" /><path
         d="m 20.83934,32.67323 c -1.561,-1.565 -1.561,-4.114 0,-5.67 1.566,-1.567 4.117,-1.567 5.683,0 l 9.288,9.289 -2.482,2.48 -9.362,-9.35 -0.703,0.697 9.356,9.361 -2.484,2.477 -9.296,-9.284"
         id="path5"
         style="fill:#24a8ff;fill-opacity:0.346189" /><path
         d="m 32.89234,26.40323 c -1.569,1.561 -4.101,1.561 -5.673,0 -1.566,-1.567 -1.566,-4.109 0,-5.675 l 9.287,-9.284 2.498,2.474 -9.36,9.362 0.698,0.7 9.35,-9.349 2.497,2.477 -9.297,9.295"
         id="path6"
         style="fill:#24a8ff;fill-opacity:0.346189" /><path
         d="m 40.12234,20.63123 c 1.574,-1.571 4.111,-1.571 5.672,0 1.572,1.561 1.572,4.104 0,5.671 l -9.288,9.293 -2.481,-2.496 9.355,-9.35 -0.708,-0.697 -9.344,9.349 -2.492,-2.483 9.286,-9.287"
         id="path7-7"
         style="fill:#24a8ff;fill-opacity:0.346189" /><path
         d="m 26.61834,14.35623 c 1.566,1.569 1.566,4.109 0,5.679 -1.567,1.564 -4.11,1.564 -5.666,0 l -9.292,-9.293 2.475,-2.487 9.35,9.359 0.714,-0.715 -9.354,-9.34 2.479,-2.491 9.294,9.288"
         id="path8-5"
         style="fill:#24a8ff;fill-opacity:0.346189" /><path
         d="m 20.83934,7.12323 c -1.561,-1.561 -1.561,-4.111 0,-5.666 1.566,-1.574 4.117,-1.574 5.683,0 l 9.288,9.285 -2.482,2.49 -9.362,-9.36 -0.703,0.699 9.356,9.356 -2.484,2.488 -9.296,-9.292"
         id="path9"
         style="fill:#24a8ff;fill-opacity:0.346189" /></g><path
       d="m 85.180386,237.70052 q -5.703121,0 -8.776036,-2.47396 -3.046873,-2.47395 -4.062498,-7.99478 l 7.630204,-1.11979 q 0.46875,2.83854 1.744791,4.21874 1.276041,1.35417 3.515623,1.35417 2.291665,0 3.463539,-1.53646 1.197916,-1.53646 1.197916,-4.40104 V 206.50262 H 82.576221 V 200.487 h 14.97395 v 25.07811 q 0,5.72916 -3.255207,8.93229 -3.255206,3.20312 -9.114578,3.20312 z m 46.480804,-0.52083 -3.25521,-9.375 h -13.98436 l -3.25521,9.375 h -7.68229 L 116.86953,200.487 h 9.0625 l 13.33332,36.69269 z m -10.26041,-31.04165 -0.15625,0.57292 q -0.26042,0.9375 -0.625,2.13541 -0.36458,1.19792 -4.47916,13.17708 h 10.54687 l -3.61979,-10.54687 -1.11979,-3.54167 z m 56.50684,12.42187 q 0,5.67708 -2.23958,9.92187 -2.21354,4.21874 -6.30208,6.45833 -4.0625,2.23958 -9.32291,2.23958 H 145.19931 V 200.487 h 13.28124 q 9.27083,0 14.34895,4.6875 5.07812,4.66145 5.07812,13.38541 z m -7.73437,0 q 0,-5.91146 -3.07292,-9.01041 -3.07291,-3.125 -8.77603,-3.125 h -5.44271 v 24.81769 h 6.51042 q 4.94791,0 7.86457,-3.41146 2.91667,-3.41145 2.91667,-9.27082 z"
       id="text4"
       style="font-weight:bold;font-size:53.3333px;line-height:1.1;font-family:'Liberation Sans';-inkscape-font-specification:'Liberation Sans Bold';letter-spacing:0.96px;word-spacing:0px;fill-rule:evenodd;stroke-width:14.8384;stroke-linecap:round;stroke-linejoin:round"
       aria-label="JAD" /></g><metadata
     id="metadata21"><rdf:RDF><cc:Work
         rdf:about=""><dc:source>https://commons.wikimedia.org/wiki/File:Text-x-generic.svg</dc:source><cc:license
           rdf:resource="http://creativecommons.org/publicdomain/zero/1.0/" /><dc:title>Textfiles</dc:title><dc:publisher><cc:Agent><dc:title>Blackcrack</dc:title></cc:Agent></dc:publisher><dc:creator><cc:Agent><dc:title>Rocket000</dc:title></cc:Agent></dc:creator><dc:date>202507</dc:date><dc:description>groundfile for Textfiles
202507 finaly many Mimetypes for Tango! from Blackcrack</dc:description><dc:contributor><cc:Agent><dc:title>Blackcrack</dc:title></cc:Agent></dc:contributor></cc:Work><cc:License
         rdf:about="http://creativecommons.org/publicdomain/zero/1.0/"><cc:permits
           rdf:resource="http://creativecommons.org/ns#Reproduction" /><cc:permits
           rdf:resource="http://creativecommons.org/ns#Distribution" /><cc:permits
           rdf:resource="http://creativecommons.org/ns#DerivativeWorks" /></cc:License></rdf:RDF></metadata></svg>
