<?xml version="1.0" encoding="UTF-8" standalone="no"?>
<svg
   height="256mm"
   width="256mm"
   version="1.1"
   id="svg19"
   sodipodi:docname="text-x-install.svg"
   viewBox="0 0 256 256"
   inkscape:version="1.4.2 (ebf0e940d0, 2025-05-08)"
   xml:space="preserve"
   xmlns:inkscape="http://www.inkscape.org/namespaces/inkscape"
   xmlns:sodipodi="http://sodipodi.sourceforge.net/DTD/sodipodi-0.dtd"
   xmlns:xlink="http://www.w3.org/1999/xlink"
   xmlns="http://www.w3.org/2000/svg"
   xmlns:svg="http://www.w3.org/2000/svg"
   xmlns:rdf="http://www.w3.org/1999/02/22-rdf-syntax-ns#"
   xmlns:cc="http://creativecommons.org/ns#"
   xmlns:dc="http://purl.org/dc/elements/1.1/"><title
     id="title1">Textfiles</title><sodipodi:namedview
     id="namedview19"
     pagecolor="#ffffff"
     bordercolor="#000000"
     borderopacity="0.25"
     inkscape:showpageshadow="2"
     inkscape:pageopacity="0.0"
     inkscape:pagecheckerboard="0"
     inkscape:deskcolor="#d1d1d1"
     inkscape:zoom="1.6754108"
     inkscape:cx="154.29052"
     inkscape:cy="131.01264"
     inkscape:current-layer="svg19"
     inkscape:document-units="mm" /><defs
     id="defs10"><radialGradient
       id="b"
       gradientUnits="userSpaceOnUse"
       cy="42.099998"
       cx="24.309999"
       gradientTransform="matrix(1.076,0,0,0.285,-6.9499999,28.65)"
       r="15.82"><stop
         offset="0"
         id="stop1" /><stop
         stop-opacity="0"
         offset="1"
         id="stop2" /></radialGradient><radialGradient
       id="f"
       gradientUnits="userSpaceOnUse"
       cy="35.740002"
       cx="33.970001"
       gradientTransform="matrix(0.961,0,0,1.041,-5.0999999,-2.1500001)"
       r="86.699997"><stop
         stop-color="#fafafa"
         offset="0"
         id="stop3" /><stop
         stop-color="#bbb"
         offset="1"
         id="stop4" /></radialGradient><radialGradient
       id="g"
       gradientUnits="userSpaceOnUse"
       cy="3.76"
       cx="8.8199997"
       gradientTransform="matrix(0.968,0,0,1.033,-1.7499999,-1.5000001)"
       r="37.75"><stop
         stop-color="#a3a3a3"
         offset="0"
         id="stop5" /><stop
         stop-color="#4c4c4c"
         offset="1"
         id="stop6" /></radialGradient><radialGradient
       id="e"
       gradientUnits="userSpaceOnUse"
       cy="7.27"
       cx="8.1400003"
       gradientTransform="matrix(0.968,0,0,1.033,-1.7499999,-1.5000001)"
       r="38.200001"><stop
         stop-color="#fff"
         offset="0"
         id="stop7" /><stop
         stop-color="#f8f8f8"
         offset="1"
         id="stop8" /></radialGradient><radialGradient
       id="c"
       gradientUnits="userSpaceOnUse"
       cy="18.82"
       cx="10.1"
       r="1.21"><stop
         stop-color="#f0f0f0"
         offset="0"
         id="stop9" /><stop
         stop-color="#9a9a9a"
         offset="1"
         id="stop10" /></radialGradient><radialGradient
       inkscape:collect="always"
       xlink:href="#c"
       id="radialGradient2"
       gradientUnits="userSpaceOnUse"
       cx="10.1"
       cy="18.82"
       r="1.21" /><linearGradient
       id="swatch1"
       inkscape:swatch="solid"><stop
         style="stop-color:#ff0707;stop-opacity:1;"
         offset="0"
         id="stop1-21" /></linearGradient><linearGradient
       inkscape:collect="always"
       xlink:href="#linearGradient1"
       id="linearGradient2"
       x1="38.314232"
       y1="132.20995"
       x2="192.57486"
       y2="132.20995"
       gradientUnits="userSpaceOnUse"
       gradientTransform="matrix(0.89115807,0,0,0.89115807,34.116801,7.1292605)" /><linearGradient
       id="linearGradient1"
       inkscape:collect="always"><stop
         style="stop-color:#0054ab;stop-opacity:1;"
         offset="0"
         id="stop1-4" /><stop
         style="stop-color:#439fff;stop-opacity:1;"
         offset="1"
         id="stop2-7" /></linearGradient><radialGradient
       inkscape:collect="always"
       xlink:href="#c"
       id="radialGradient1"
       gradientUnits="userSpaceOnUse"
       cx="10.1"
       cy="18.82"
       r="1.21" /></defs><g
     id="g31"
     transform="matrix(5.4987246,0,0,5.4987246,20.583851,7.1467567)"><g
       id="g3"><ellipse
         opacity="0.8"
         rx="17"
         ry="4.5"
         cy="40.649998"
         cx="19.199999"
         fill="url(#b)"
         id="ellipse10"
         style="fill:url(#b)" /><rect
         rx="1.2"
         height="41"
         width="34.880001"
         stroke="url(#g)"
         y="1.5"
         x="1.5"
         fill="url(#f)"
         id="rect10"
         style="fill:url(#f);stroke:url(#g)" /><rect
         rx="0.2"
         height="39"
         width="32.779999"
         stroke="url(#e)"
         y="2.4299998"
         x="2.5599999"
         fill="none"
         id="rect11"
         style="stroke:url(#e)" /><g
         fill="none"
         id="g12"
         transform="translate(-5.0999999,-2.1500001)"><path
           stroke="#000000"
           d="M 11.5,5.4 V 43.3"
           stroke-opacity="0.02"
           id="path11" /><path
           stroke="#ffffff"
           d="M 12.5,5 V 43"
           stroke-opacity="0.2"
           id="path12" /></g><g
         id="g2"
         style="display:inline"><g
           id="d"
           transform="translate(-5.0999999,-2.1500001)"><circle
             cy="18.690001"
             cx="10.17"
             r="0.81999999"
             fill="#ffffff"
             id="circle18" /><circle
             cy="18.43"
             cx="9.8199997"
             r="0.81999999"
             fill="url(#c)"
             id="circle19"
             style="fill:url(#radialGradient1)" /></g><g
           id="use19"
           transform="translate(-5.0999999,9.3499999)"><circle
             cy="18.690001"
             cx="10.17"
             r="0.81999999"
             fill="#ffffff"
             id="circle1" /><circle
             cy="18.43"
             cx="9.8199997"
             r="0.81999999"
             fill="url(#c)"
             id="circle2"
             style="fill:url(#radialGradient2)" /></g></g></g><g
       fill-opacity="0.55"
       fill="#9b9b9b"
       id="g18"
       transform="translate(-5.0999999,-2.1500001)"
       style="display:none"><g
         id="a"><rect
           rx="0.2"
           height="1"
           width="20"
           y="9"
           x="16"
           id="rect12" /><rect
           rx="0.2"
           height="1"
           width="20"
           y="11"
           x="16"
           id="rect13" /><rect
           rx="0.2"
           height="1"
           width="20"
           y="13"
           x="16"
           id="rect14" /><rect
           rx="0.2"
           height="1"
           width="20"
           y="15"
           x="16"
           id="rect15" /></g><rect
         rx="0.2"
         height="1"
         width="9"
         y="25"
         x="16"
         id="rect16" /><rect
         rx="0.2"
         height="1"
         width="14"
         y="37"
         x="16"
         id="rect17" /><use
         y="8"
         xlink:href="#a"
         id="use17" /><use
         y="20"
         xlink:href="#a"
         id="use18" /></g></g><metadata
     id="metadata21"><rdf:RDF><cc:Work
         rdf:about=""><dc:source>https://commons.wikimedia.org/wiki/File:Text-x-generic.svg</dc:source><cc:license
           rdf:resource="http://creativecommons.org/publicdomain/zero/1.0/" /><dc:title>Textfiles</dc:title><dc:publisher><cc:Agent><dc:title>Blackcrack</dc:title></cc:Agent></dc:publisher><dc:creator><cc:Agent><dc:title>Rocket000</dc:title></cc:Agent></dc:creator><dc:date>202507</dc:date><dc:description>groundfile for Textfiles
202507 finaly many Mimetypes for Tango! from Blackcrack</dc:description><dc:contributor><cc:Agent><dc:title>Blackcrack</dc:title></cc:Agent></dc:contributor></cc:Work><cc:License
         rdf:about="http://creativecommons.org/publicdomain/zero/1.0/"><cc:permits
           rdf:resource="http://creativecommons.org/ns#Reproduction" /><cc:permits
           rdf:resource="http://creativecommons.org/ns#Distribution" /><cc:permits
           rdf:resource="http://creativecommons.org/ns#DerivativeWorks" /></cc:License></rdf:RDF></metadata><path
     style="clip-rule:nonzero;display:inline;fill:url(#linearGradient2);fill-opacity:1;fill-rule:nonzero;stroke:#000000;stroke-width:0.518655;stroke-miterlimit:4;stroke-dasharray:none;stroke-opacity:1"
     d="m 69.833712,195.87408 c -1.416673,-1.50797 -1.318282,-3.98897 0.205735,-5.18776 1.343852,-1.05708 2.578027,-1.15978 4.183616,-0.34815 0.854775,0.43209 1.179065,1.02814 1.382159,2.54039 0.224541,1.67196 0.107435,2.13375 -0.76146,3.00264 -1.380978,1.38098 -3.709117,1.37767 -5.01005,-0.007 z m 10.033626,-0.33866 c -0.780509,-0.61396 -1.177051,-1.35552 -1.177051,-2.2012 0,-0.84567 0.396542,-1.58723 1.177051,-2.20117 l 1.177049,-0.92587 h 61.041303 c 68.23271,0 63.027,-0.25828 63.027,3.12704 0,3.38535 5.20571,3.12707 -63.027,3.12707 H 81.044387 Z m -9.827891,-9.38118 c -1.572207,-1.23669 -1.643209,-3.84112 -0.143134,-5.25037 1.448348,-1.36065 3.98939,-1.31776 5.093572,0.086 1.29111,1.64137 0.862683,4.57753 -0.792841,5.43364 -1.726712,0.8929 -2.765689,0.82563 -4.157597,-0.26926 z m 9.827891,-0.44671 c -0.780509,-0.61396 -1.177051,-1.35552 -1.177051,-2.2012 0,-0.84567 0.396542,-1.58724 1.177051,-2.20118 l 1.177049,-0.92586 h 61.041303 c 68.23271,0 63.027,-0.25829 63.027,3.12704 0,3.38535 5.20571,3.12707 -63.027,3.12707 H 81.044387 Z m -9.999817,-9.32354 c -1.496927,-1.24877 -1.404942,-4.11309 0.171926,-5.35345 1.5271,-1.20122 2.953388,-1.1727 4.419465,0.0883 1.59641,1.37317 1.768781,3.72258 0.37535,5.11601 -1.255575,1.25558 -3.557549,1.32468 -4.966741,0.14908 z m 10.609655,0.1115 c -1.899137,-0.67874 -2.385591,-3.47689 -0.846597,-4.86973 0.913693,-0.82693 2.672297,-0.85431 62.165601,-0.96739 68.46811,-0.13018 63.31651,-0.37469 63.31651,3.00505 0,3.40456 5.23557,3.14626 -62.97556,3.10681 -33.54443,-0.0194 -61.291407,-0.14303 -61.659954,-0.27474 z m -10.437729,-9.99702 c -1.662803,-1.30795 -1.662803,-3.98787 0,-5.29583 1.343852,-1.05707 2.578027,-1.15977 4.183616,-0.34814 0.854775,0.43208 1.179065,1.02814 1.382159,2.54038 0.224541,1.67197 0.107435,2.13376 -0.76146,3.00265 -1.286036,1.28603 -3.245377,1.3272 -4.804315,0.10098 z m 9.827891,-0.44672 c -0.780509,-0.61396 -1.177051,-1.35552 -1.177051,-2.20119 0,-0.84567 0.396542,-1.58724 1.177051,-2.20119 l 1.177049,-0.92587 h 61.041303 c 68.23271,0 63.027,-0.25828 63.027,3.12706 0,3.38533 5.20571,3.12706 -63.027,3.12706 H 81.044387 Z m -9.827891,-9.38117 c -1.572207,-1.2367 -1.643209,-3.84114 -0.143134,-5.25037 1.448348,-1.36066 3.98939,-1.31776 5.093572,0.0859 1.29111,1.64138 0.862683,4.57754 -0.792841,5.43364 -1.726712,0.89293 -2.765689,0.82564 -4.157597,-0.26923 z m 9.827891,-0.44672 c -0.780509,-0.61395 -1.177051,-1.35552 -1.177051,-2.2012 0,-0.84567 0.396542,-1.58723 1.177051,-2.20119 l 1.177049,-0.92586 h 61.041303 c 68.23271,0 63.027,-0.25828 63.027,3.12705 0,3.38534 5.20571,3.12707 -63.027,3.12707 H 81.044387 Z m -9.999817,-9.32354 c -1.496927,-1.24878 -1.404942,-4.11308 0.171926,-5.35345 1.5271,-1.20123 2.953388,-1.1727 4.419465,0.0883 1.59641,1.37318 1.768781,3.72258 0.37535,5.11602 -1.255575,1.25558 -3.557549,1.32466 -4.966741,0.14908 z m 10.287978,-0.0342 c -1.312621,-0.52817 -1.787974,-2.50252 -0.958381,-3.98056 l 0.644213,-1.14778 62.029609,-0.11323 c 45.47164,-0.083 62.1914,0.0209 62.63568,0.38973 0.33334,0.27665 0.60607,1.27109 0.60607,2.20984 0,3.35202 5.14995,3.101 -62.97556,3.06938 -34.69156,-0.0161 -61.417509,-0.20038 -61.981631,-0.42738 z m -10.116052,-9.85136 c -1.662803,-1.30795 -1.662803,-3.98786 0,-5.29581 1.343852,-1.05708 2.578027,-1.15978 4.183616,-0.34815 0.854775,0.43208 1.179065,1.02814 1.382159,2.54038 0.224541,1.67197 0.107435,2.13375 -0.76146,3.00264 -1.286036,1.28604 -3.245377,1.32721 -4.804315,0.10099 z m 9.827891,-0.44672 c -0.780509,-0.61395 -1.177051,-1.35551 -1.177051,-2.20118 0,-0.84567 0.396542,-1.58724 1.177051,-2.20119 l 1.177049,-0.92587 h 61.041303 c 68.23271,0 63.027,-0.25829 63.027,3.12706 0,3.38533 5.20571,3.12704 -63.027,3.12704 H 81.044387 Z m -9.827891,-9.38116 c -1.572207,-1.2367 -1.643209,-3.84114 -0.143134,-5.25037 1.459763,-1.37139 3.989353,-1.31782 5.111074,0.10822 1.223298,1.55518 0.773646,4.70273 -0.784324,5.49029 -1.605589,0.81163 -2.839764,0.70892 -4.183616,-0.34814 z m 9.827891,-0.44672 c -0.780509,-0.61395 -1.177051,-1.35552 -1.177051,-2.20119 0,-0.84568 0.396542,-1.58724 1.177051,-2.2012 1.169789,-0.92015 1.410936,-0.92587 39.088202,-0.92587 h 37.91114 v 3.12707 3.12704 h -37.91114 c -37.677266,0 -37.918413,-0.005 -39.088202,-0.92585 z m 92.039002,0.62805 c -0.16381,-0.16381 -0.29781,-1.57098 -0.29781,-3.12707 v -2.82924 h 15.78076 15.78077 l 0.97132,1.03391 c 1.33206,1.41793 1.24908,3.14999 -0.20573,4.29435 -1.13868,0.89567 -1.67515,0.92585 -16.45428,0.92585 -8.40248,0 -15.41125,-0.13401 -15.57503,-0.2978 z m -9.23227,-3.44724 c 0,-0.33987 -0.40205,-0.72311 -0.89344,-0.85161 -0.7099,-0.18565 -0.89344,-0.60934 -0.89344,-2.06235 0,-1.5309 -0.1455,-1.82872 -0.89345,-1.82872 -0.74191,0 -0.89345,-0.2978 -0.89345,-1.75581 0,-1.48074 -0.15747,-1.77818 -1.00511,-1.89857 -0.80738,-0.11466 -1.03242,-0.47234 -1.14378,-1.81796 -0.12477,-1.50744 -0.26494,-1.67521 -1.39976,-1.67521 -0.8854,0 -1.33069,0.26617 -1.49472,0.89344 -0.12851,0.49141 -0.55399,0.89345 -0.94556,0.89345 -0.41409,0 -0.71189,0.37376 -0.71189,0.89345 0,0.60894 -0.29782,0.89345 -0.93527,0.89345 -0.55958,0 -1.02912,0.35888 -1.16891,0.89344 -0.1512,0.57818 -0.60934,0.89344 -1.29835,0.89344 h -1.0647 V 101.5328 85.674159 h 1.1168 c 0.67077,0 1.11681,0.25521 1.11681,0.63902 0,0.35146 0.45231,0.70325 1.00513,0.78176 0.64594,0.0917 1.05613,0.50194 1.14786,1.14787 0.0917,0.64594 0.45094,1.00513 1.00513,1.00513 0.56456,0 0.86238,0.30855 0.86238,0.89344 0,0.59563 0.29781,0.89345 0.89344,0.89345 0.59564,0 0.89345,0.29782 0.89345,0.89345 0,0.59562 0.29782,0.89344 0.89344,0.89344 0.59563,0 0.89344,0.29781 0.89344,0.89345 0,0.59562 0.29783,0.89344 0.89345,0.89344 0.59564,0 0.89345,0.29781 0.89345,0.89344 0,0.59563 0.29781,0.89344 0.89344,0.89344 0.5849,0 0.89345,0.29782 0.89345,0.86237 0,0.55421 0.35918,0.9134 1.00512,1.00513 0.64594,0.0917 1.05613,0.50194 1.14789,1.14788 0.0786,0.55282 0.43029,1.005121 0.78175,1.005121 0.35146,0 0.63901,0.28756 0.63901,0.63902 0,0.35145 0.45232,0.70325 1.00513,0.78176 0.64595,0.0917 1.05613,0.50193 1.14787,1.14788 0.0917,0.64594 0.45093,1.00512 1.00513,1.00512 0.56456,0 0.86238,0.30855 0.86238,0.89345 0,0.6052 0.2978,0.89345 0.92311,0.89345 0.74349,0 0.89562,0.23904 0.78177,1.22848 -0.13894,1.20749 -0.19972,1.2307 -3.55538,1.35809 -3.40597,0.1293 -3.41448,0.13272 -3.60809,1.45185 -0.15462,1.05346 -0.0282,1.32224 0.62201,1.32224 0.65187,0 0.81607,0.3533 0.81607,1.75582 0,1.48074 0.15748,1.77817 1.00513,1.89857 0.83557,0.11867 1.02831,0.46304 1.14249,2.04132 0.11106,1.53488 0.30359,1.89856 1.00513,1.89856 0.73325,0 0.86776,0.31807 0.86776,2.05207 0,1.67639 -0.16358,2.09486 -0.89344,2.28571 -0.4914,0.12851 -0.89345,0.51174 -0.89345,0.85163 0,0.44377 -0.62969,0.61798 -2.23362,0.61798 -1.60391,0 -2.23361,-0.17421 -2.23361,-0.61798 z m -92.634623,-6.11523 c -0.907902,-0.71415 -1.177051,-1.31963 -1.177051,-2.64791 0,-3.15284 3.770112,-4.75822 5.981366,-2.54697 0.868895,0.8689 0.986001,1.33068 0.76146,3.00265 -0.203094,1.51224 -0.527384,2.10828 -1.382159,2.54038 -1.605589,0.81162 -2.839764,0.70892 -4.183616,-0.34815 z m 9.827891,-0.44672 c -0.780509,-0.61395 -1.177051,-1.35552 -1.177051,-2.20119 0,-0.84568 0.396542,-1.58724 1.177051,-2.20119 1.165958,-0.91715 1.479189,-0.92586 33.241122,-0.92586 h 32.06409 l 0.17424,2.79201 c 0.0958,1.53561 0.10182,2.94278 0.0133,3.12705 -0.0884,0.18428 -14.59575,0.33505 -32.23832,0.33505 -31.775408,0 -32.08847,-0.009 -33.254439,-0.92587 z m 90.512692,-0.25386 c -0.55283,-0.59697 -1.00511,-1.54066 -1.00511,-2.09711 0,-0.55642 -0.23377,-1.24546 -0.51948,-1.53116 -1.18921,-1.18922 2.02535,-1.44611 18.09468,-1.44611 18.32889,0 18.16257,-0.0286 18.16257,3.12705 0,3.15764 0.14071,3.13338 -17.85661,3.07988 l -15.87092,-0.0471 z M 69.755841,108.45699 c -1.281433,-1.28143 -1.224988,-4.18433 0.0994,-5.11197 1.409484,-0.98724 4.146457,-0.89566 5.141153,0.17202 1.017825,1.0925 0.9487,3.77757 -0.127878,4.96717 -1.070865,1.1833 -3.917316,1.16815 -5.112673,-0.0273 z m 9.845293,-0.53095 c -1.088554,-1.16842 -1.162465,-2.48479 -0.215433,-3.83687 l 0.695415,-0.99284 h 32.585394 32.5854 v 2.9037 2.90369 H 112.88194 80.511981 Z m 93.564676,0.52086 c -0.15528,-0.25127 -0.22301,-1.02249 -0.15049,-1.71384 0.0725,-0.69135 -0.21898,-1.79245 -0.64777,-2.44687 l -0.77962,-1.18986 h 16.22631 c 12.02484,0 16.36513,0.1388 16.76239,0.53607 0.29483,0.29483 0.53606,1.39339 0.53606,2.44125 0,1.4264 -0.21714,2.0214 -0.86408,2.36763 -1.17585,0.62929 -30.69406,0.63462 -31.0828,0.005 z M 96.998931,94.228169 c -2.749556,-1.46112 -3.56724,-3.20827 -3.563864,-7.61495 0.0032,-4.20081 0.463883,-5.35614 2.899591,-7.27207 l 1.319485,-1.03791 h 39.355207 39.35521 l 1.64328,1.11681 c 2.32274,1.57858 3.15926,3.98028 2.88343,8.27844 -0.18943,2.95161 -0.37827,3.54531 -1.51089,4.74997 -2.10832,2.24245 -3.52492,2.60687 -10.13385,2.60687 h -5.96446 l -2.53761,-2.39962 c -1.39568,-1.31978 -2.53761,-2.52594 -2.53761,-2.68033 0,-0.1544 3.67876,-0.28072 8.17503,-0.28072 5.76271,0 8.33319,-0.15818 8.71108,-0.53607 0.29484,-0.29483 0.53607,-1.46077 0.53607,-2.59098 0,-1.13021 -0.24123,-2.29616 -0.53607,-2.59099 -0.4023,-0.4023 -5.97615,-0.53607 -22.33612,-0.53607 h -21.80005 v 3.12706 3.12705 h 7.14756 7.14756 v 2.68034 2.68033 H 121.9037 c -21.86625,0 -23.447008,-0.0525 -24.904769,-0.82716 z M 91.645233,61.774516 v -8.711084 h 2.010252 2.01025 v 8.711084 8.711085 h -2.01025 -2.010252 z m 6.254113,0 v -8.760037 l 2.121934,0.136156 c 2.06926,0.132778 2.12182,0.172195 2.11761,1.588007 -0.004,1.381305 0.0773,1.451847 1.67521,1.451847 1.66163,0 1.67952,0.01905 1.67952,1.786887 0,1.687619 0.0745,1.786891 1.34017,1.786891 h 1.34016 v -3.350418 -3.350417 h 2.01025 2.01025 v 8.711084 8.711085 h -2.01025 -2.01025 v -3.350417 -3.350417 h -1.56352 c -1.5263,0 -1.56353,-0.04254 -1.56353,-1.786889 0,-1.718054 -0.0559,-1.78691 -1.45185,-1.787422 l -1.45184,-4.71e-4 v 5.026158 5.026157 l -2.12193,0.136156 -2.121934,0.136157 z m 17.061434,6.812516 0.13737,-1.89857 3.23874,-0.131251 3.23874,-0.131252 v -1.29363 c 0,-1.172396 -0.157,-1.306622 -1.67522,-1.432275 -1.58424,-0.13112 -1.68273,-0.229619 -1.81385,-1.813858 -0.1316,-1.590018 -0.21809,-1.675207 -1.7009,-1.675207 -1.56167,0 -1.5622,-7.07e-4 -1.42488,-1.898571 0.12894,-1.782042 0.22648,-1.907161 1.58921,-2.038553 1.3292,-0.128159 1.45186,-0.269691 1.45186,-1.675209 v -1.535224 h 3.79714 3.79713 v 2.010249 2.010251 h -3.35042 -3.35042 V 58.4241 c 0,1.265713 0.0993,1.340167 1.7869,1.340167 1.74434,0 1.78688,0.03722 1.78688,1.563528 0,1.489073 0.0744,1.563527 1.56354,1.563527 h 1.56352 v 2.233611 2.233612 h -1.56352 c -1.48908,0 -1.56354,0.07446 -1.56354,1.563528 v 1.563528 h -3.82282 -3.82283 z m 16.88946,-4.775298 v -6.673868 l -1.67521,-0.138647 c -1.62609,-0.134581 -1.67924,-0.19432 -1.81257,-2.037218 l -0.13738,-1.898569 h 5.38635 5.38636 v 2.010249 c 0,1.999615 -0.008,2.010251 -1.56352,2.010251 h -1.56354 v 6.700835 6.700834 h -2.01025 -2.01024 z m 9.82788,-0.473688 v -7.147557 h 1.7869 c 1.74434,0 1.78689,-0.03722 1.78689,-1.563529 v -1.563528 h 3.57377 3.57379 v 1.563528 c 0,1.526301 0.0425,1.563529 1.78688,1.563529 h 1.78689 v 7.147557 7.147555 h -2.01025 -2.01025 v -3.350417 -3.350417 h -3.12706 -3.12705 v 3.350417 3.350417 h -2.01025 -2.01026 z M 151.95274,58.4241 v -1.340168 h -3.12706 -3.12705 v 1.340168 1.340167 h 3.12705 3.12706 z m 6.55193,11.763687 c -0.1638,-0.163798 -0.29782,-4.083785 -0.29782,-8.711084 v -8.413271 h 2.23361 2.23361 v 6.700835 6.700835 h 3.35042 3.35043 v 2.010249 2.01025 h -5.28622 c -2.90742,0 -5.42024,-0.134015 -5.58403,-0.297814 z m 13.55057,-8.413271 v -8.711084 h 2.01026 2.01025 v 6.700835 6.700835 h 3.3504 3.35043 v 2.010249 2.01025 h -5.36067 -5.36067 z"
     id="path1" /></svg>
