<?xml version="1.0" encoding="UTF-8" standalone="no"?>
<svg
   height="256mm"
   width="256mm"
   version="1.1"
   id="svg19"
   sodipodi:docname="text-enriched.svg"
   viewBox="0 0 256 256"
   inkscape:version="1.4.2 (ebf0e940d0, 2025-05-08)"
   xml:space="preserve"
   xmlns:inkscape="http://www.inkscape.org/namespaces/inkscape"
   xmlns:sodipodi="http://sodipodi.sourceforge.net/DTD/sodipodi-0.dtd"
   xmlns:xlink="http://www.w3.org/1999/xlink"
   xmlns="http://www.w3.org/2000/svg"
   xmlns:svg="http://www.w3.org/2000/svg"
   xmlns:rdf="http://www.w3.org/1999/02/22-rdf-syntax-ns#"
   xmlns:cc="http://creativecommons.org/ns#"
   xmlns:dc="http://purl.org/dc/elements/1.1/"><title
     id="title1">Textfiles</title><sodipodi:namedview
     id="namedview19"
     pagecolor="#ffffff"
     bordercolor="#000000"
     borderopacity="0.25"
     inkscape:showpageshadow="2"
     inkscape:pageopacity="0.0"
     inkscape:pagecheckerboard="0"
     inkscape:deskcolor="#d1d1d1"
     inkscape:zoom="0.32380003"
     inkscape:cx="123.53303"
     inkscape:cy="890.98199"
     inkscape:current-layer="svg19"
     inkscape:document-units="mm" /><defs
     id="defs10"><radialGradient
       id="b"
       gradientUnits="userSpaceOnUse"
       cy="42.099998"
       cx="24.309999"
       gradientTransform="matrix(1.076,0,0,0.285,-6.9499999,28.65)"
       r="15.82"><stop
         offset="0"
         id="stop1" /><stop
         stop-opacity="0"
         offset="1"
         id="stop2" /></radialGradient><radialGradient
       id="f"
       gradientUnits="userSpaceOnUse"
       cy="35.740002"
       cx="33.970001"
       gradientTransform="matrix(0.961,0,0,1.041,-5.0999999,-2.1500001)"
       r="86.699997"><stop
         stop-color="#fafafa"
         offset="0"
         id="stop3" /><stop
         stop-color="#bbb"
         offset="1"
         id="stop4" /></radialGradient><radialGradient
       id="g"
       gradientUnits="userSpaceOnUse"
       cy="3.76"
       cx="8.8199997"
       gradientTransform="matrix(0.968,0,0,1.033,-1.7499999,-1.5000001)"
       r="37.75"><stop
         stop-color="#a3a3a3"
         offset="0"
         id="stop5" /><stop
         stop-color="#4c4c4c"
         offset="1"
         id="stop6" /></radialGradient><radialGradient
       id="e"
       gradientUnits="userSpaceOnUse"
       cy="7.27"
       cx="8.1400003"
       gradientTransform="matrix(0.968,0,0,1.033,-1.7499999,-1.5000001)"
       r="38.200001"><stop
         stop-color="#fff"
         offset="0"
         id="stop7" /><stop
         stop-color="#f8f8f8"
         offset="1"
         id="stop8" /></radialGradient><radialGradient
       id="c"
       gradientUnits="userSpaceOnUse"
       cy="18.82"
       cx="10.1"
       r="1.21"><stop
         stop-color="#f0f0f0"
         offset="0"
         id="stop9" /><stop
         stop-color="#9a9a9a"
         offset="1"
         id="stop10" /></radialGradient><radialGradient
       inkscape:collect="always"
       xlink:href="#c"
       id="radialGradient2"
       gradientUnits="userSpaceOnUse"
       cx="10.1"
       cy="18.82"
       r="1.21" /><linearGradient
       id="swatch1"
       inkscape:swatch="solid"><stop
         style="stop-color:#ff0707;stop-opacity:1;"
         offset="0"
         id="stop1-21" /></linearGradient><radialGradient
       id="path21642_1_"
       cx="-21.335899"
       cy="-473.23779"
       r="14.5732"
       gradientTransform="matrix(0.893,0,0,-0.2717,35.3554,-100.5359)"
       gradientUnits="userSpaceOnUse">
	<stop
   offset="0"
   style="stop-color:#000000"
   id="stop1-0" />
	<stop
   offset="1"
   style="stop-color:#000000;stop-opacity:0"
   id="stop2-91" />
</radialGradient><radialGradient
       id="path2093_1_"
       cx="-15.5317"
       cy="77.125504"
       r="20.684601"
       gradientTransform="matrix(0.8841,0.0043,0.0046,-0.9649,30.5057,92.9265)"
       gradientUnits="userSpaceOnUse">
	<stop
   offset="0"
   style="stop-color:#9CBCDE"
   id="stop3-7" />
	<stop
   offset="1"
   style="stop-color:#204A87"
   id="stop4-71" />
</radialGradient><radialGradient
       id="SVGID_1_-1"
       cx="15.9551"
       cy="14.7158"
       r="5.9693999"
       gradientTransform="matrix(1,0,0,1.04,0,-0.5886)"
       gradientUnits="userSpaceOnUse">
			<stop
   offset="0"
   style="stop-color:#FFFFFF"
   id="stop5-59" />
			<stop
   offset="1"
   style="stop-color:#E9E9E9"
   id="stop6-7" />
		</radialGradient><linearGradient
       id="linearGradient6715"
       y2="609.51001"
       gradientUnits="userSpaceOnUse"
       x2="302.85999"
       gradientTransform="matrix(2.7744,0,0,1.9697,-1892.2,-872.89)"
       y1="366.64999"
       x1="302.85999"><stop
         id="stop5050"
         stop-opacity="0"
         offset="0" /><stop
         id="stop5056"
         offset=".5" /><stop
         id="stop5052"
         stop-opacity="0"
         offset="1" /></linearGradient><radialGradient
       id="radialGradient6717"
       xlink:href="#linearGradient5060"
       gradientUnits="userSpaceOnUse"
       cy="486.64999"
       cx="605.71002"
       gradientTransform="matrix(2.7744,0,0,1.9697,-1891.6,-872.89)"
       r="117.14" /><linearGradient
       id="linearGradient5060"><stop
         id="stop5062"
         offset="0" /><stop
         id="stop5064"
         stop-opacity="0"
         offset="1" /></linearGradient><radialGradient
       id="radialGradient6719"
       xlink:href="#linearGradient5060"
       gradientUnits="userSpaceOnUse"
       cy="486.64999"
       cx="605.71002"
       gradientTransform="matrix(-2.0913748,0,0,1.9697,-298.69145,-872.89)"
       r="117.14" /><radialGradient
       id="radialGradient238"
       gradientUnits="userSpaceOnUse"
       cy="37.518002"
       cx="20.705999"
       gradientTransform="matrix(1.055,-0.027345,0.1777,1.1909,-3.5722,-7.1253)"
       r="30.905001"><stop
         id="stop1790"
         stop-color="#202020"
         offset="0" /><stop
         id="stop1791"
         stop-color="#b9b9b9"
         offset="1" /></radialGradient><linearGradient
       id="linearGradient3104"
       y2="6.1803002"
       gradientUnits="userSpaceOnUse"
       x2="15.515"
       y1="31.368"
       x1="18.113001"><stop
         id="stop3098"
         stop-color="#424242"
         offset="0" /><stop
         id="stop3100"
         stop-color="#777"
         offset="1" /></linearGradient><linearGradient
       id="linearGradient491"
       y2="66.834"
       gradientUnits="userSpaceOnUse"
       x2="9.8980999"
       gradientTransform="matrix(1.5168,0,0,0.70898,-0.87957,-1.3182)"
       y1="13.773"
       x1="6.2298002"><stop
         id="stop3984"
         stop-color="#fff"
         stop-opacity=".87629"
         offset="0" /><stop
         id="stop3985"
         stop-color="#fffffe"
         stop-opacity="0"
         offset="1" /></linearGradient><linearGradient
       id="linearGradient9772"
       y2="32.049999"
       gradientUnits="userSpaceOnUse"
       x2="22.065001"
       y1="36.987999"
       x1="22.176001"><stop
         id="stop9768"
         stop-color="#6194cb"
         offset="0" /><stop
         id="stop9770"
         stop-color="#729fcf"
         offset="1" /></linearGradient><linearGradient
       id="linearGradient322"
       y2="46.688999"
       gradientUnits="userSpaceOnUse"
       x2="12.854"
       gradientTransform="matrix(1.3175,0,0,0.81626,-0.87957,-1.3182)"
       y1="32.567001"
       x1="13.036"><stop
         id="stop320"
         stop-color="#fff"
         offset="0" /><stop
         id="stop321"
         stop-color="#fff"
         stop-opacity="0"
         offset="1" /></linearGradient><linearGradient
       xlink:href="#e-6"
       id="o-4"
       x1="-22.89403"
       x2="-19.799696"
       y1="38.945435"
       y2="20.305889"
       gradientTransform="matrix(1,0,0,1.02212,52.05694,-1.323026)"
       gradientUnits="userSpaceOnUse" /><linearGradient
       id="e-6"><stop
         offset="0"
         stop-color="#6194cb"
         id="stop8-93" /><stop
         offset="1"
         stop-color="#729fcf"
         id="stop9-74" /></linearGradient><linearGradient
       xlink:href="#c-52"
       id="p-3"
       x1="14.899379"
       x2="22.715446"
       y1="27.059643"
       y2="41.836895"
       gradientTransform="matrix(1.5353,0,0,0.65134,3.451418,2.448)"
       gradientUnits="userSpaceOnUse" /><linearGradient
       id="c-52"><stop
         offset="0"
         stop-color="#fff"
         stop-opacity=".13402061"
         id="stop10-5" /><stop
         offset="1"
         stop-color="#fff"
         stop-opacity=".05154639"
         id="stop11-4" /></linearGradient><linearGradient
       xlink:href="#b-74"
       id="q-4"
       x1="19.116116"
       x2="19.426924"
       y1="28.946041"
       y2="51.912693"
       gradientTransform="scale(1.42154,0.70346)"
       gradientUnits="userSpaceOnUse" /><linearGradient
       id="b-74"><stop
         offset="0"
         stop-color="#fff"
         id="stop12-4" /><stop
         offset="1"
         stop-color="#fff"
         stop-opacity="0"
         id="stop13-3" /></linearGradient><radialGradient
       inkscape:collect="always"
       xlink:href="#c"
       id="radialGradient1"
       gradientUnits="userSpaceOnUse"
       cx="10.1"
       cy="18.82"
       r="1.21" /></defs><g
     id="g31"
     transform="matrix(5.4987246,0,0,5.4987246,20.583851,7.1467567)"><g
       id="g3"><ellipse
         opacity="0.8"
         rx="17"
         ry="4.5"
         cy="40.649998"
         cx="19.199999"
         fill="url(#b)"
         id="ellipse10"
         style="fill:url(#b)" /><rect
         rx="1.2"
         height="41"
         width="34.880001"
         stroke="url(#g)"
         y="1.5"
         x="1.5"
         fill="url(#f)"
         id="rect10"
         style="fill:url(#f);stroke:url(#g)" /><rect
         rx="0.2"
         height="39"
         width="32.779999"
         stroke="url(#e)"
         y="2.4299998"
         x="2.5599999"
         fill="none"
         id="rect11"
         style="stroke:url(#e)" /><g
         fill="none"
         id="g12"
         transform="translate(-5.0999999,-2.1500001)"><path
           stroke="#000000"
           d="M 11.5,5.4 V 43.3"
           stroke-opacity="0.02"
           id="path11" /><path
           stroke="#ffffff"
           d="M 12.5,5 V 43"
           stroke-opacity="0.2"
           id="path12" /></g><g
         id="g2"
         style="display:inline"><g
           id="d"
           transform="translate(-5.0999999,-2.1500001)"><circle
             cy="18.690001"
             cx="10.17"
             r="0.81999999"
             fill="#ffffff"
             id="circle18" /><circle
             cy="18.43"
             cx="9.8199997"
             r="0.81999999"
             fill="url(#c)"
             id="circle19"
             style="fill:url(#radialGradient1)" /></g><g
           id="use19"
           transform="translate(-5.0999999,9.3499999)"><circle
             cy="18.690001"
             cx="10.17"
             r="0.81999999"
             fill="#ffffff"
             id="circle1" /><circle
             cy="18.43"
             cx="9.8199997"
             r="0.81999999"
             fill="url(#c)"
             id="circle2"
             style="fill:url(#radialGradient2)" /></g></g></g><g
       fill-opacity="0.55"
       fill="#9b9b9b"
       id="g18"
       transform="translate(-5.0999999,-2.1500001)"
       style="display:none"><g
         id="a"><rect
           rx="0.2"
           height="1"
           width="20"
           y="9"
           x="16"
           id="rect12" /><rect
           rx="0.2"
           height="1"
           width="20"
           y="11"
           x="16"
           id="rect13" /><rect
           rx="0.2"
           height="1"
           width="20"
           y="13"
           x="16"
           id="rect14" /><rect
           rx="0.2"
           height="1"
           width="20"
           y="15"
           x="16"
           id="rect15" /></g><rect
         rx="0.2"
         height="1"
         width="9"
         y="25"
         x="16"
         id="rect16" /><rect
         rx="0.2"
         height="1"
         width="14"
         y="37"
         x="16"
         id="rect17" /><use
         y="8"
         xlink:href="#a"
         id="use17" /><use
         y="20"
         xlink:href="#a"
         id="use18" /></g></g><g
     id="g11"
     transform="matrix(0.92357348,0,0,0.92357348,33.246703,-3.8495211)"
     style="clip-rule:nonzero;display:inline;fill:#a3a3a3;fill-opacity:0.70915;fill-rule:nonzero;stroke:none;stroke-width:0;stroke-miterlimit:4"><rect
       style="fill:#a3a3a3;fill-opacity:0.70915;fill-rule:evenodd;stroke:none;stroke-width:1.29;stroke-linecap:round;stroke-linejoin:round;stroke-miterlimit:2.1"
       id="rect1"
       width="92.663994"
       height="7.6032"
       x="42.055199"
       y="41.104797" /><rect
       style="fill:#a3a3a3;fill-opacity:0.70915;fill-rule:evenodd;stroke:none;stroke-width:1.59471;stroke-linecap:round;stroke-linejoin:round;stroke-miterlimit:2.1"
       id="rect3"
       width="141.60959"
       height="7.6032"
       x="42.055199"
       y="76.507195" /><rect
       style="fill:#a3a3a3;fill-opacity:0.70915;fill-rule:evenodd;stroke:none;stroke-width:1.59471;stroke-linecap:round;stroke-linejoin:round;stroke-miterlimit:2.1"
       id="rect4"
       width="141.60959"
       height="7.6032"
       x="42.055199"
       y="94.802399" /><rect
       style="fill:#a3a3a3;fill-opacity:0.70915;fill-rule:evenodd;stroke:none;stroke-width:1.59471;stroke-linecap:round;stroke-linejoin:round;stroke-miterlimit:2.1"
       id="rect5"
       width="141.60959"
       height="7.6032"
       x="42.055199"
       y="111.90959" /><rect
       style="fill:#a3a3a3;fill-opacity:0.70915;fill-rule:evenodd;stroke:none;stroke-width:1.59471;stroke-linecap:round;stroke-linejoin:round;stroke-miterlimit:2.1"
       id="rect6"
       width="141.60959"
       height="7.6032"
       x="42.055199"
       y="130.9176" /><rect
       style="fill:#a3a3a3;fill-opacity:0.70915;fill-rule:evenodd;stroke:none;stroke-width:1.59471;stroke-linecap:round;stroke-linejoin:round;stroke-miterlimit:2.1"
       id="rect7"
       width="141.60959"
       height="7.6032"
       x="42.055199"
       y="148.0248" /><rect
       style="fill:#a3a3a3;fill-opacity:0.70915;fill-rule:evenodd;stroke:none;stroke-width:1.59471;stroke-linecap:round;stroke-linejoin:round;stroke-miterlimit:2.1"
       id="rect8"
       width="141.60959"
       height="7.6032"
       x="42.055199"
       y="166.31999" /><rect
       style="fill:#a3a3a3;fill-opacity:0.70915;fill-rule:evenodd;stroke:none;stroke-width:1.59471;stroke-linecap:round;stroke-linejoin:round;stroke-miterlimit:2.1"
       id="rect9"
       width="141.60959"
       height="7.6032"
       x="42.055199"
       y="183.42719" /><rect
       style="fill:#a3a3a3;fill-opacity:0.70915;fill-rule:evenodd;stroke:none;stroke-width:1.59471;stroke-linecap:round;stroke-linejoin:round;stroke-miterlimit:2.1"
       id="rect10-3"
       width="141.60959"
       height="7.6032"
       x="42.055199"
       y="201.0096" /><rect
       style="fill:#a3a3a3;fill-opacity:0.70915;fill-rule:evenodd;stroke:none;stroke-width:1.59471;stroke-linecap:round;stroke-linejoin:round;stroke-miterlimit:2.1"
       id="rect11-9"
       width="141.60959"
       height="7.6032"
       x="42.055199"
       y="219.30479" /></g><g
     id="text6"
     style="font-style:italic;font-size:28.2222px;line-height:1;font-family:'Source Code Pro';-inkscape-font-specification:'Source Code Pro Italic';letter-spacing:0.928688px;word-spacing:0px;fill-rule:evenodd;stroke-width:4.2;stroke-linecap:round;stroke-linejoin:round;stroke-miterlimit:2.1"
     aria-label="&lt;bold&gt;&#10;  Enriched&#10;      &lt;BolD&gt;"
     transform="matrix(0.92357348,0,0,0.92357348,33.246703,-3.8495211)"><path
       style="font-style:normal;font-weight:bold;font-family:'Liberation Sans';-inkscape-font-specification:'Liberation Sans Bold'"
       d="m 41.843185,174.33859 v -4.43728 l 14.152442,-5.38812 v 3.14192 l -11.47905,4.47862 11.47905,4.46484 v 3.12815 z m 32.306593,-0.39963 q 0,3.69314 -1.48828,5.74642 -1.4745,2.03949 -4.230574,2.03949 -1.584743,0 -2.742294,-0.68902 -1.157551,-0.68902 -1.777668,-1.98437 h -0.02756 q 0,0.48231 -0.0689,1.32292 -0.05512,0.8406 -0.124024,1.07486 h -3.762041 q 0.110243,-1.28157 0.110243,-3.40375 v -17.04632 h 3.872284 v 5.70508 l -0.05512,2.42534 h 0.05512 q 1.309135,-2.86631 4.768009,-2.86631 2.645831,0 4.051429,2.01193 1.419378,1.99815 1.419378,5.66373 z m -4.037649,0 q 0,-2.53559 -0.74414,-3.76204 -0.74414,-1.22645 -2.301322,-1.22645 -1.570962,0 -2.397784,1.32291 -0.813042,1.30914 -0.813042,3.78961 0,2.37022 0.799261,3.69314 0.813042,1.32291 2.384004,1.32291 3.073023,0 3.073023,-5.14008 z m 22.260701,0.0413 q 0,3.62424 -2.011934,5.6913 -2.011934,2.05327 -5.56727,2.05327 -3.486434,0 -5.470808,-2.06705 -1.984373,-2.06706 -1.984373,-5.67752 0,-3.59667 1.984373,-5.64995 1.984374,-2.06705 5.55349,-2.06705 3.651799,0 5.56727,1.99815 1.929252,1.98437 1.929252,5.71885 z m -4.051429,0 q 0,-2.65961 -0.868163,-3.8585 -0.868164,-1.19889 -2.521808,-1.19889 -3.527775,0 -3.527775,5.05739 0,2.49425 0.854383,3.80339 0.868163,1.29535 2.494247,1.29535 3.569116,0 3.569116,-5.09874 z m 8.053142,7.46896 v -20.45007 h 3.872287 v 20.45007 z m 18.429757,0 q -0.0551,-0.2067 -0.1378,-1.03352 -0.0689,-0.84061 -0.0689,-1.39182 h -0.0551 q -1.25401,2.70095 -4.768,2.70095 -2.60449,0 -4.02387,-2.02571 -1.41938,-2.0395 -1.41938,-5.6913 0,-3.70692 1.48828,-5.71885 1.50206,-2.02571 4.24435,-2.02571 1.58475,0 2.72852,0.66145 1.15755,0.66146 1.77766,1.9706 h 0.0276 l -0.0276,-2.45291 v -5.44325 h 3.87229 v 17.19791 q 0,1.37803 0.11024,3.25216 z m -0.17914,-7.53786 q 0,-2.41156 -0.81305,-3.70692 -0.79926,-1.30913 -2.37022,-1.30913 -1.55718,0 -2.3151,1.26779 -0.75792,1.25401 -0.75792,3.84472 0,5.07118 3.04546,5.07118 1.52962,0 2.37022,-1.3367 0.84061,-1.35047 0.84061,-3.83094 z m 7.90155,5.81532 v -3.12815 l 11.46527,-4.46484 -11.46527,-4.47862 v -3.14192 l 14.15244,5.38812 v 4.43728 z"
       id="path6" /><path
       style="font-style:normal;font-weight:bold;font-family:'Liberation Sans';-inkscape-font-specification:'Liberation Sans Bold'"
       d="m 60.085423,210.39831 v -19.41654 h 15.268651 v 3.14192 H 64.150632 v 4.87825 h 10.362839 v 3.14193 H 64.150632 v 5.11252 h 11.768437 v 3.14192 z m 29.495398,0 v -8.36468 q 0,-3.92741 -2.659612,-3.92741 -1.405597,0 -2.273761,1.21267 -0.854383,1.1989 -0.854383,3.08681 v 7.99261 H 79.920781 V 198.8228 q 0,-1.19889 -0.04134,-1.95681 -0.02756,-0.7717 -0.0689,-1.37804 h 3.693139 q 0.04134,0.26183 0.110243,1.4056 0.0689,1.12999 0.0689,1.55718 h 0.05512 q 0.785481,-1.70877 1.970593,-2.48047 1.185112,-0.7717 2.824976,-0.7717 2.370224,0 3.638018,1.46072 1.267794,1.46072 1.267794,4.27192 v 9.46711 z m 8.50789,0 v -11.41015 q 0,-1.22645 -0.04134,-2.03949 -0.02756,-0.82682 -0.0689,-1.46072 h 3.693139 q 0.0413,0.24805 0.11024,1.51584 0.0689,1.25401 0.0689,1.66743 h 0.0551 q 0.565,-1.57097 1.00597,-2.20486 0.44097,-0.64768 1.04731,-0.95085 0.60634,-0.31695 1.51584,-0.31695 0.74414,0 1.19889,0.20671 v 3.23838 q -0.93706,-0.2067 -1.65364,-0.2067 -1.44694,0 -2.25998,1.17133 -0.79926,1.17133 -0.79926,3.47265 v 7.31738 z m 11.911649,-17.59753 v -2.85254 h 3.87228 v 2.85254 z m 0,17.59753 v -14.91036 h 3.87228 v 14.91036 z m 14.98466,0.27561 q -3.38997,0 -5.23654,-2.01194 -1.84657,-2.02571 -1.84657,-5.63617 0,-3.69314 1.86035,-5.74641 1.86035,-2.06706 5.27789,-2.06706 2.63205,0 4.35459,1.32292 1.72255,1.32291 2.16352,3.6518 l -3.89984,0.19292 q -0.16537,-1.14377 -0.82683,-1.81901 -0.66145,-0.68902 -1.87413,-0.68902 -2.99034,0 -2.99034,5.00228 0,5.15386 3.04547,5.15386 1.10243,0 1.84657,-0.68902 0.74414,-0.7028 0.92328,-2.08084 l 3.88606,0.17915 q -0.2067,1.52962 -1.10242,2.72851 -0.88195,1.19889 -2.32889,1.86035 -1.44694,0.64768 -3.25217,0.64768 z m 14.22675,-12.20941 q 0.78548,-1.70877 1.97059,-2.48047 1.18511,-0.7717 2.82498,-0.7717 2.37022,0 3.63801,1.46072 1.2678,1.46072 1.2678,4.27192 v 9.45333 h -3.85851 v -8.3509 q 0,-3.92741 -2.65961,-3.92741 -1.40559,0 -2.27376,1.21267 -0.85438,1.1989 -0.85438,3.08681 v 7.97883 h -3.87229 v -20.45007 h 3.87229 v 5.58105 q 0,1.50206 -0.11024,2.93522 z m 20.45548,12.20941 q -3.36241,0 -5.16764,-1.98437 -1.80523,-1.99816 -1.80523,-5.81532 0,-3.69314 1.83279,-5.67751 1.83279,-1.98438 5.1952,-1.98438 3.21083,0 4.90581,2.13596 1.69499,2.12218 1.69499,6.22873 v 0.11024 h -9.56358 q 0,2.1773 0.79926,3.29351 0.81304,1.10243 2.30132,1.10243 2.05328,0 2.59071,-1.77767 l 3.6518,0.31695 q -1.58474,4.05143 -6.43543,4.05143 z m 0,-13.02245 q -1.36426,0 -2.1084,0.95084 -0.73036,0.95085 -0.7717,2.65962 h 5.78776 q -0.11025,-1.80523 -0.86817,-2.70096 -0.75792,-0.9095 -2.03949,-0.9095 z m 20.17986,12.74684 q -0.0551,-0.2067 -0.1378,-1.03353 -0.0689,-0.8406 -0.0689,-1.39181 h -0.0551 q -1.25401,2.70095 -4.76801,2.70095 -2.60449,0 -4.02386,-2.02572 -1.41938,-2.03949 -1.41938,-5.69129 0,-3.70692 1.48828,-5.71885 1.50206,-2.02572 4.24435,-2.02572 1.58474,0 2.72852,0.66146 1.15755,0.66146 1.77766,1.97059 h 0.0276 l -0.0276,-2.4529 v -5.44325 h 3.87229 v 17.1979 q 0,1.37804 0.11024,3.25217 z m -0.17915,-7.53786 q 0,-2.41157 -0.81304,-3.70692 -0.79926,-1.30914 -2.37022,-1.30914 -1.55718,0 -2.3151,1.2678 -0.75792,1.25401 -0.75792,3.84472 0,5.07118 3.04546,5.07118 1.52962,0 2.37022,-1.3367 0.8406,-1.35047 0.8406,-3.83094 z"
       id="path7" /><path
       style="font-style:normal;font-weight:bold;font-family:'Liberation Sans';-inkscape-font-specification:'Liberation Sans Bold'"
       d="m 94.461498,232.23669 v -4.43728 l 14.152442,-5.38813 v 3.14193 l -11.47905,4.47862 11.47905,4.46484 v 3.12814 z m 35.324502,1.57096 q 0,2.64583 -1.98438,4.09277 -1.98437,1.44694 -5.51215,1.44694 h -9.71516 v -19.41654 h 8.88834 q 3.55534,0 5.37435,1.24023 1.83279,1.22645 1.83279,3.63802 0,1.65364 -0.92329,2.79741 -0.9095,1.12999 -2.78363,1.52962 2.35644,0.27561 3.58289,1.48828 1.24024,1.1989 1.24024,3.18327 z m -5.20898,-8.44737 q 0,-1.30913 -0.84061,-1.86035 -0.82682,-0.55121 -2.46668,-0.55121 h -4.63021 v 4.80935 h 4.65777 q 1.72254,0 2.49424,-0.59256 0.78549,-0.60634 0.78549,-1.80523 z m 1.12999,8.13042 q 0,-2.72851 -3.91363,-2.72851 h -5.15386 v 5.56727 h 5.30544 q 1.95682,0 2.85254,-0.7028 0.90951,-0.71658 0.90951,-2.13596 z m 22.42606,-1.6123 q 0,3.62423 -2.01194,5.69129 -2.01193,2.05328 -5.56727,2.05328 -3.48643,0 -5.4708,-2.06706 -1.98438,-2.06706 -1.98438,-5.67751 0,-3.59668 1.98438,-5.64996 1.98437,-2.06705 5.55349,-2.06705 3.6518,0 5.56727,1.99815 1.92925,1.98438 1.92925,5.71886 z m -4.05143,0 q 0,-2.65961 -0.86816,-3.85851 -0.86817,-1.19889 -2.52181,-1.19889 -3.52778,0 -3.52778,5.0574 0,2.49424 0.85439,3.80338 0.86816,1.29535 2.49424,1.29535 3.56912,0 3.56912,-5.09873 z m 8.05314,7.46896 v -20.45007 h 3.87228 v 20.45007 z m 25.99518,-9.85297 q 0,3.00412 -1.18511,5.25032 -1.17133,2.23242 -3.33485,3.41754 -2.14974,1.18511 -4.93337,1.18511 h -7.85481 v -19.41654 h 7.02799 q 4.90581,0 7.59298,2.48046 2.68717,2.46669 2.68717,7.08311 z m -4.09277,0 q 0,-3.12814 -1.62608,-4.76801 -1.62608,-1.65364 -4.64399,-1.65364 h -2.88009 v 13.13269 h 3.44509 q 2.61827,0 4.16167,-1.80523 1.5434,-1.80522 1.5434,-4.90581 z m 7.39169,8.13042 v -3.12814 l 11.46527,-4.46484 -11.46527,-4.47862 v -3.14193 l 14.15244,5.38813 v 4.43728 z"
       id="path8" /></g><metadata
     id="metadata21"><rdf:RDF><cc:Work
         rdf:about=""><dc:source>https://commons.wikimedia.org/wiki/File:Text-x-generic.svg</dc:source><cc:license
           rdf:resource="http://creativecommons.org/publicdomain/zero/1.0/" /><dc:title>Textfiles</dc:title><dc:publisher><cc:Agent><dc:title>Blackcrack</dc:title></cc:Agent></dc:publisher><dc:creator><cc:Agent><dc:title>Rocket000</dc:title></cc:Agent></dc:creator><dc:date>202507</dc:date><dc:description>groundfile for Textfiles
202507 finaly many Mimetypes for Tango! from Blackcrack</dc:description><dc:contributor><cc:Agent><dc:title>Blackcrack</dc:title></cc:Agent></dc:contributor></cc:Work><cc:License
         rdf:about="http://creativecommons.org/publicdomain/zero/1.0/"><cc:permits
           rdf:resource="http://creativecommons.org/ns#Reproduction" /><cc:permits
           rdf:resource="http://creativecommons.org/ns#Distribution" /><cc:permits
           rdf:resource="http://creativecommons.org/ns#DerivativeWorks" /></cc:License></rdf:RDF></metadata></svg>
