<?xml version="1.0" encoding="UTF-8" standalone="no"?>
<!-- Created with Inkscape (http://www.inkscape.org/) -->

<svg
   width="256mm"
   height="256mm"
   viewBox="0 0 256 256"
   version="1.1"
   id="svg1"
   inkscape:version="1.3.2 (091e20ef0f, 2023-11-25)"
   sodipodi:docname="x-office-address-book.svg"
   xmlns:inkscape="http://www.inkscape.org/namespaces/inkscape"
   xmlns:sodipodi="http://sodipodi.sourceforge.net/DTD/sodipodi-0.dtd"
   xmlns:xlink="http://www.w3.org/1999/xlink"
   xmlns="http://www.w3.org/2000/svg"
   xmlns:svg="http://www.w3.org/2000/svg"
   xmlns:rdf="http://www.w3.org/1999/02/22-rdf-syntax-ns#"
   xmlns:cc="http://creativecommons.org/ns#"
   xmlns:dc="http://purl.org/dc/elements/1.1/">
  <defs
     id="defs1">
    <linearGradient
       inkscape:collect="always"
       xlink:href="#linearGradient5048"
       id="linearGradient6208"
       gradientUnits="userSpaceOnUse"
       gradientTransform="matrix(2.774389,0,0,1.969706,-1892.179,-872.8854)"
       x1="302.85715"
       y1="366.64789"
       x2="302.85715"
       y2="609.50507" />
    <linearGradient
       id="linearGradient5048">
      <stop
         style="stop-color:black;stop-opacity:0;"
         offset="0"
         id="stop5050" />
      <stop
         id="stop5056"
         offset="0.5"
         style="stop-color:black;stop-opacity:1;" />
      <stop
         style="stop-color:black;stop-opacity:0;"
         offset="1"
         id="stop5052" />
    </linearGradient>
    <radialGradient
       inkscape:collect="always"
       xlink:href="#linearGradient5060"
       id="radialGradient6210"
       gradientUnits="userSpaceOnUse"
       gradientTransform="matrix(2.774389,0,0,1.969706,-1891.633,-872.8854)"
       cx="605.71429"
       cy="486.64789"
       fx="605.71429"
       fy="486.64789"
       r="117.14286" />
    <linearGradient
       inkscape:collect="always"
       id="linearGradient5060">
      <stop
         style="stop-color:black;stop-opacity:1;"
         offset="0"
         id="stop5062" />
      <stop
         style="stop-color:black;stop-opacity:0;"
         offset="1"
         id="stop5064" />
    </linearGradient>
    <radialGradient
       inkscape:collect="always"
       xlink:href="#linearGradient5060"
       id="radialGradient6212"
       gradientUnits="userSpaceOnUse"
       gradientTransform="matrix(-2.774389,0,0,1.969706,112.7623,-872.8854)"
       cx="605.71429"
       cy="486.64789"
       fx="605.71429"
       fy="486.64789"
       r="117.14286" />
    <radialGradient
       inkscape:collect="always"
       xlink:href="#linearGradient6642"
       id="radialGradient6214"
       gradientUnits="userSpaceOnUse"
       gradientTransform="matrix(1.3279654,0,-0.4677714,1.6070078,3.489273,-5.7538092)"
       cx="4.4339509"
       cy="8.3226004"
       fx="4.4339509"
       fy="8.3226004"
       r="6" />
    <linearGradient
       inkscape:collect="always"
       id="linearGradient6642">
      <stop
         style="stop-color:#d3d7cf;stop-opacity:1"
         offset="0"
         id="stop6644" />
      <stop
         style="stop-color:#888a85;stop-opacity:1"
         offset="1"
         id="stop6646" />
    </linearGradient>
    <radialGradient
       inkscape:collect="always"
       xlink:href="#linearGradient6642"
       id="radialGradient6216"
       gradientUnits="userSpaceOnUse"
       gradientTransform="matrix(1.3279654,0,-0.4677714,1.6070078,3.489273,-5.7538092)"
       cx="4.4339509"
       cy="8.3226004"
       fx="4.4339509"
       fy="8.3226004"
       r="6" />
    <radialGradient
       inkscape:collect="always"
       xlink:href="#linearGradient6642"
       id="radialGradient6218"
       gradientUnits="userSpaceOnUse"
       gradientTransform="matrix(1.3279654,0,-0.4677714,1.6070078,3.489273,-5.7538092)"
       cx="4.4339509"
       cy="8.3226004"
       fx="4.4339509"
       fy="8.3226004"
       r="6" />
    <radialGradient
       inkscape:collect="always"
       xlink:href="#linearGradient6642"
       id="radialGradient6220"
       gradientUnits="userSpaceOnUse"
       gradientTransform="matrix(1.3279654,0,-0.4677714,1.6070078,3.489273,-5.7538092)"
       cx="4.4339509"
       cy="8.3226004"
       fx="4.4339509"
       fy="8.3226004"
       r="6" />
    <radialGradient
       inkscape:collect="always"
       xlink:href="#linearGradient6642"
       id="radialGradient6222"
       gradientUnits="userSpaceOnUse"
       gradientTransform="matrix(1.3279654,0,-0.4677714,1.6070078,3.489273,-5.7538092)"
       cx="4.4339509"
       cy="8.3226004"
       fx="4.4339509"
       fy="8.3226004"
       r="6" />
    <radialGradient
       inkscape:collect="always"
       xlink:href="#linearGradient6642"
       id="radialGradient6224"
       gradientUnits="userSpaceOnUse"
       gradientTransform="matrix(1.3279654,0,-0.4677714,1.6070078,3.489273,-5.7538092)"
       cx="4.4339509"
       cy="8.3226004"
       fx="4.4339509"
       fy="8.3226004"
       r="6" />
    <radialGradient
       inkscape:collect="always"
       xlink:href="#linearGradient6859"
       id="radialGradient6226"
       gradientUnits="userSpaceOnUse"
       gradientTransform="matrix(0.7867179,0,0,1.4423161,-51.042152,-5.8996785)"
       cx="42"
       cy="15.814279"
       fx="42"
       fy="15.814279"
       r="3" />
    <linearGradient
       inkscape:collect="always"
       id="linearGradient6859">
      <stop
         style="stop-color:#9ee757;stop-opacity:1"
         offset="0"
         id="stop6861" />
      <stop
         style="stop-color:#8ae234;stop-opacity:1"
         offset="1"
         id="stop6863" />
    </linearGradient>
    <linearGradient
       inkscape:collect="always"
       xlink:href="#linearGradient6794"
       id="linearGradient6228"
       gradientUnits="userSpaceOnUse"
       x1="42.875"
       y1="30.9375"
       x2="39.919209"
       y2="51.062393" />
    <linearGradient
       inkscape:collect="always"
       id="linearGradient6794">
      <stop
         style="stop-color:#ffffff;stop-opacity:1;"
         offset="0"
         id="stop6796" />
      <stop
         style="stop-color:#ffffff;stop-opacity:0;"
         offset="1"
         id="stop6798" />
    </linearGradient>
    <radialGradient
       inkscape:collect="always"
       xlink:href="#linearGradient6851"
       id="radialGradient6230"
       gradientUnits="userSpaceOnUse"
       gradientTransform="matrix(0.8213255,0,0,1.0038423,-52.350499,0.173875)"
       cx="42.8125"
       cy="25.727272"
       fx="42.8125"
       fy="25.727272"
       r="4.5" />
    <linearGradient
       inkscape:collect="always"
       id="linearGradient6851">
      <stop
         style="stop-color:#fdee77;stop-opacity:1"
         offset="0"
         id="stop6853" />
      <stop
         style="stop-color:#fce94f;stop-opacity:1"
         offset="1"
         id="stop6855" />
    </linearGradient>
    <radialGradient
       inkscape:collect="always"
       xlink:href="#linearGradient6843"
       id="radialGradient6232"
       gradientUnits="userSpaceOnUse"
       gradientTransform="matrix(0.7452385,0,0,0.9108471,-49.172637,3.6387251)"
       cx="42.5"
       cy="36.307945"
       fx="42.5"
       fy="36.307945"
       r="4.5" />
    <linearGradient
       inkscape:collect="always"
       id="linearGradient6843">
      <stop
         style="stop-color:#fec065;stop-opacity:1"
         offset="0"
         id="stop6845" />
      <stop
         style="stop-color:#fcaf3e;stop-opacity:1"
         offset="1"
         id="stop6847" />
    </linearGradient>
    <linearGradient
       inkscape:collect="always"
       xlink:href="#linearGradient6499"
       id="linearGradient6238"
       gradientUnits="userSpaceOnUse"
       gradientTransform="matrix(0.8885602,0,0,1,-55.486688,0)"
       x1="17.077137"
       y1="14.375"
       x2="41.06271"
       y2="56.9375" />
    <linearGradient
       id="linearGradient6499"
       inkscape:collect="always">
      <stop
         id="stop6501"
         offset="0"
         style="stop-color:#729fcf;stop-opacity:1" />
      <stop
         id="stop6503"
         offset="1"
         style="stop-color:#3465a4;stop-opacity:1" />
    </linearGradient>
    <linearGradient
       inkscape:collect="always"
       xlink:href="#linearGradient6820"
       id="linearGradient6240"
       gradientUnits="userSpaceOnUse"
       x1="24.75"
       y1="43.927441"
       x2="24.75"
       y2="35.790096" />
    <linearGradient
       inkscape:collect="always"
       id="linearGradient6820">
      <stop
         style="stop-color:#729fcf;stop-opacity:1;"
         offset="0"
         id="stop6822" />
      <stop
         style="stop-color:#729fcf;stop-opacity:0;"
         offset="1"
         id="stop6824" />
    </linearGradient>
    <linearGradient
       inkscape:collect="always"
       xlink:href="#linearGradient6794"
       id="linearGradient6242"
       gradientUnits="userSpaceOnUse"
       x1="17.353554"
       y1="7.9356604"
       x2="28.035534"
       y2="81.759773" />
    <radialGradient
       inkscape:collect="always"
       xlink:href="#linearGradient6642"
       id="radialGradient6244"
       gradientUnits="userSpaceOnUse"
       gradientTransform="matrix(1.5261839,0,0,1.400538,-2.7953523,-3.4069917)"
       cx="5.312501"
       cy="8.1713457"
       fx="5.312501"
       fy="8.1713457"
       r="6" />
    <radialGradient
       inkscape:collect="always"
       xlink:href="#linearGradient6642"
       id="radialGradient6246"
       gradientUnits="userSpaceOnUse"
       gradientTransform="matrix(1.5261839,0,0,1.400538,-2.7953523,-3.4069917)"
       cx="5.312501"
       cy="8.1713457"
       fx="5.312501"
       fy="8.1713457"
       r="6" />
    <radialGradient
       inkscape:collect="always"
       xlink:href="#linearGradient6642"
       id="radialGradient6248"
       gradientUnits="userSpaceOnUse"
       gradientTransform="matrix(1.5261839,0,0,1.400538,-2.7953523,-3.4069917)"
       cx="5.312501"
       cy="8.1713457"
       fx="5.312501"
       fy="8.1713457"
       r="6" />
    <radialGradient
       inkscape:collect="always"
       xlink:href="#linearGradient6642"
       id="radialGradient6250"
       gradientUnits="userSpaceOnUse"
       gradientTransform="matrix(1.5261839,0,0,1.400538,-2.7953523,-3.4069917)"
       cx="5.312501"
       cy="8.1713457"
       fx="5.312501"
       fy="8.1713457"
       r="6" />
    <radialGradient
       inkscape:collect="always"
       xlink:href="#linearGradient6642"
       id="radialGradient6252"
       gradientUnits="userSpaceOnUse"
       gradientTransform="matrix(1.5261839,0,0,1.400538,-2.7953523,-3.4069917)"
       cx="5.312501"
       cy="8.1713457"
       fx="5.312501"
       fy="8.1713457"
       r="6" />
    <radialGradient
       inkscape:collect="always"
       xlink:href="#linearGradient6642"
       id="radialGradient6254"
       gradientUnits="userSpaceOnUse"
       gradientTransform="matrix(1.5261839,0,0,1.400538,-2.7953523,-3.4069917)"
       cx="5.312501"
       cy="8.1713457"
       fx="5.312501"
       fy="8.1713457"
       r="6" />
    <radialGradient
       inkscape:collect="always"
       xlink:href="#linearGradient2378"
       id="radialGradient6308"
       gradientUnits="userSpaceOnUse"
       cx="38.658855"
       cy="9.3411446"
       fx="38.658855"
       fy="9.3411446"
       r="8.341651" />
    <linearGradient
       id="linearGradient2378">
      <stop
         id="stop2380"
         offset="0"
         style="stop-color:#ffffff;stop-opacity:1;" />
      <stop
         style="stop-color:#fefede;stop-opacity:0.91836733;"
         offset="0.25"
         id="stop4146" />
      <stop
         style="stop-color:#f5f328;stop-opacity:1;"
         offset="0.5"
         id="stop2386" />
      <stop
         id="stop2382"
         offset="1"
         style="stop-color:#f5f32d;stop-opacity:0.12234043;" />
    </linearGradient>
    <linearGradient
       inkscape:collect="always"
       xlink:href="#linearGradient6794"
       id="linearGradient1"
       gradientUnits="userSpaceOnUse"
       x1="42.875"
       y1="30.9375"
       x2="39.919209"
       y2="51.062393" />
    <linearGradient
       inkscape:collect="always"
       xlink:href="#linearGradient6794"
       id="linearGradient2"
       gradientUnits="userSpaceOnUse"
       x1="42.875"
       y1="30.9375"
       x2="39.919209"
       y2="51.062393" />
  </defs>
  <sodipodi:namedview
     id="base"
     pagecolor="#ffffff"
     bordercolor="#000000"
     borderopacity="0.3"
     inkscape:pageopacity="0.0"
     inkscape:pageshadow="2"
     inkscape:zoom="0.98994949"
     inkscape:cx="505.07627"
     inkscape:cy="476.792"
     inkscape:document-units="mm"
     inkscape:showpageshadow="2"
     inkscape:pagecheckerboard="0"
     inkscape:deskcolor="#d1d1d1"
     inkscape:current-layer="svg1" />
  <metadata
     id="metadata1">
    <rdf:RDF>
      <cc:Work
         rdf:about="">
        <dc:format>image/svg+xml</dc:format>
        <dc:type
           rdf:resource="http://purl.org/dc/dcmitype/StillImage" />
        <cc:license
           rdf:resource="http://creativecommons.org/publicdomain/zero/1.0/" />
      </cc:Work>
      <cc:License
         rdf:about="http://creativecommons.org/publicdomain/zero/1.0/">
        <cc:permits
           rdf:resource="http://creativecommons.org/ns#Reproduction" />
        <cc:permits
           rdf:resource="http://creativecommons.org/ns#Distribution" />
        <cc:permits
           rdf:resource="http://creativecommons.org/ns#DerivativeWorks" />
      </cc:License>
    </rdf:RDF>
  </metadata>
  <g
     id="g1"
     transform="matrix(5.3824837,0,0,5.3824837,-0.50429449,1.818963)">
    <g
       id="g6053"
       transform="translate(60)">
      <g
         transform="matrix(0.02019273,0,0,0.01708318,-17.539869,42.402519)"
         id="g6055"
         style="display:inline">
        <rect
           style="color:#000000;display:inline;overflow:visible;visibility:visible;opacity:0.39196;fill:url(#linearGradient6208);fill-opacity:1;fill-rule:nonzero;stroke:none;stroke-width:1;stroke-linecap:round;stroke-linejoin:miter;stroke-miterlimit:4;stroke-dasharray:none;stroke-dashoffset:0;stroke-opacity:1;marker:none;marker-start:none;marker-mid:none;marker-end:none"
           id="rect6057"
           width="1339.6335"
           height="478.35718"
           x="-1559.2523"
           y="-150.69685" />
        <path
           style="color:#000000;display:inline;overflow:visible;visibility:visible;opacity:0.402062;fill:url(#radialGradient6210);fill-opacity:1;fill-rule:nonzero;stroke:none;stroke-width:1;stroke-linecap:round;stroke-linejoin:miter;stroke-miterlimit:4;stroke-dasharray:none;stroke-dashoffset:0;stroke-opacity:1;marker:none;marker-start:none;marker-mid:none;marker-end:none"
           d="m -219.61876,-150.68038 c 0,0 0,478.33079 0,478.33079 142.874166,0.90045 345.40022,-107.16966 345.40014,-239.196175 0,-132.026537 -159.436816,-239.134595 -345.40014,-239.134615 z"
           id="path6059"
           sodipodi:nodetypes="cccc" />
        <path
           sodipodi:nodetypes="cccc"
           id="path6061"
           d="m -1559.2523,-150.68038 c 0,0 0,478.33079 0,478.33079 -142.8742,0.90045 -345.4002,-107.16966 -345.4002,-239.196175 0,-132.026537 159.4368,-239.134595 345.4002,-239.134615 z"
           style="color:#000000;display:inline;overflow:visible;visibility:visible;opacity:0.402062;fill:url(#radialGradient6212);fill-opacity:1;fill-rule:nonzero;stroke:none;stroke-width:1;stroke-linecap:round;stroke-linejoin:miter;stroke-miterlimit:4;stroke-dasharray:none;stroke-dashoffset:0;stroke-opacity:1;marker:none;marker-start:none;marker-mid:none;marker-end:none" />
      </g>
      <g
         transform="translate(-60,30)"
         id="g6063">
        <path
           style="fill:none;fill-opacity:1;stroke:url(#radialGradient6214);stroke-width:3;stroke-linecap:round;stroke-linejoin:miter;stroke-miterlimit:4;stroke-dashoffset:0;stroke-opacity:1"
           d="m 14.345337,8.5060394 c -0.64368,2.2113336 -3.112797,4.0060386 -5.5114231,4.0060386 -2.3986256,0 -3.8229293,-1.794705 -3.1792494,-4.0060386 0.64368,-2.2113336 3.1127974,-4.0060393 5.5114235,-4.0060393 2.398625,0 3.822929,1.7947057 3.179249,4.0060393 z"
           id="path6065" />
        <ellipse
           style="fill:none;fill-opacity:1;stroke:#eeeeec;stroke-width:1.0008;stroke-linecap:round;stroke-linejoin:miter;stroke-miterlimit:4;stroke-dasharray:none;stroke-dashoffset:0;stroke-opacity:1"
           id="path6067"
           transform="matrix(0.8701215,0,-0.3339941,1.1474218,4.7836537,-1.8445527)"
           cx="9.4575529"
           cy="9.0207386"
           rx="4.9939418"
           ry="3.4913397" />
      </g>
      <g
         transform="translate(-60,24)"
         id="g6070">
        <path
           style="fill:none;fill-opacity:1;stroke:url(#radialGradient6216);stroke-width:3;stroke-linecap:round;stroke-linejoin:miter;stroke-miterlimit:4;stroke-dashoffset:0;stroke-opacity:1"
           d="m 14.345337,8.5060394 c -0.64368,2.2113336 -3.112797,4.0060386 -5.5114231,4.0060386 -2.3986256,0 -3.8229293,-1.794705 -3.1792494,-4.0060386 0.64368,-2.2113336 3.1127974,-4.0060393 5.5114235,-4.0060393 2.398625,0 3.822929,1.7947057 3.179249,4.0060393 z"
           id="path6072" />
        <ellipse
           style="fill:none;fill-opacity:1;stroke:#eeeeec;stroke-width:1.0008;stroke-linecap:round;stroke-linejoin:miter;stroke-miterlimit:4;stroke-dasharray:none;stroke-dashoffset:0;stroke-opacity:1"
           id="path6074"
           transform="matrix(0.8701215,0,-0.3339941,1.1474218,4.7836537,-1.8445527)"
           cx="9.4575529"
           cy="9.0207386"
           rx="4.9939418"
           ry="3.4913397" />
      </g>
      <g
         transform="translate(-60,18)"
         id="g6076">
        <path
           style="fill:none;fill-opacity:1;stroke:url(#radialGradient6218);stroke-width:3;stroke-linecap:round;stroke-linejoin:miter;stroke-miterlimit:4;stroke-dashoffset:0;stroke-opacity:1"
           d="m 14.345337,8.5060394 c -0.64368,2.2113336 -3.112797,4.0060386 -5.5114231,4.0060386 -2.3986256,0 -3.8229293,-1.794705 -3.1792494,-4.0060386 0.64368,-2.2113336 3.1127974,-4.0060393 5.5114235,-4.0060393 2.398625,0 3.822929,1.7947057 3.179249,4.0060393 z"
           id="path6078" />
        <ellipse
           style="fill:none;fill-opacity:1;stroke:#eeeeec;stroke-width:1.0008;stroke-linecap:round;stroke-linejoin:miter;stroke-miterlimit:4;stroke-dasharray:none;stroke-dashoffset:0;stroke-opacity:1"
           id="path6080"
           transform="matrix(0.8701215,0,-0.3339941,1.1474218,4.7836537,-1.8445527)"
           cx="9.4575529"
           cy="9.0207386"
           rx="4.9939418"
           ry="3.4913397" />
      </g>
      <g
         transform="translate(-60,12)"
         id="g6082">
        <path
           style="fill:none;fill-opacity:1;stroke:url(#radialGradient6220);stroke-width:3;stroke-linecap:round;stroke-linejoin:miter;stroke-miterlimit:4;stroke-dashoffset:0;stroke-opacity:1"
           d="m 14.345337,8.5060394 c -0.64368,2.2113336 -3.112797,4.0060386 -5.5114231,4.0060386 -2.3986256,0 -3.8229293,-1.794705 -3.1792494,-4.0060386 0.64368,-2.2113336 3.1127974,-4.0060393 5.5114235,-4.0060393 2.398625,0 3.822929,1.7947057 3.179249,4.0060393 z"
           id="path6084" />
        <ellipse
           style="fill:none;fill-opacity:1;stroke:#eeeeec;stroke-width:1.0008;stroke-linecap:round;stroke-linejoin:miter;stroke-miterlimit:4;stroke-dasharray:none;stroke-dashoffset:0;stroke-opacity:1"
           id="path6086"
           transform="matrix(0.8701215,0,-0.3339941,1.1474218,4.7836537,-1.8445527)"
           cx="9.4575529"
           cy="9.0207386"
           rx="4.9939418"
           ry="3.4913397" />
      </g>
      <g
         transform="translate(-60,6)"
         id="g6088">
        <path
           style="fill:none;fill-opacity:1;stroke:url(#radialGradient6222);stroke-width:3;stroke-linecap:round;stroke-linejoin:miter;stroke-miterlimit:4;stroke-dashoffset:0;stroke-opacity:1"
           d="m 14.345337,8.5060394 c -0.64368,2.2113336 -3.112797,4.0060386 -5.5114231,4.0060386 -2.3986256,0 -3.8229293,-1.794705 -3.1792494,-4.0060386 0.64368,-2.2113336 3.1127974,-4.0060393 5.5114235,-4.0060393 2.398625,0 3.822929,1.7947057 3.179249,4.0060393 z"
           id="path6090" />
        <ellipse
           style="fill:none;fill-opacity:1;stroke:#eeeeec;stroke-width:1.0008;stroke-linecap:round;stroke-linejoin:miter;stroke-miterlimit:4;stroke-dasharray:none;stroke-dashoffset:0;stroke-opacity:1"
           id="path6092"
           transform="matrix(0.8701215,0,-0.3339941,1.1474218,4.7836537,-1.8445527)"
           cx="9.4575529"
           cy="9.0207386"
           rx="4.9939418"
           ry="3.4913397" />
      </g>
      <g
         transform="translate(-60)"
         id="g6094">
        <path
           style="fill:none;fill-opacity:1;stroke:url(#radialGradient6224);stroke-width:3;stroke-linecap:round;stroke-linejoin:miter;stroke-miterlimit:4;stroke-dashoffset:0;stroke-opacity:1"
           d="m 14.345337,8.5060394 c -0.64368,2.2113336 -3.112797,4.0060386 -5.5114231,4.0060386 -2.3986256,0 -3.8229293,-1.794705 -3.1792494,-4.0060386 0.64368,-2.2113336 3.1127974,-4.0060393 5.5114235,-4.0060393 2.398625,0 3.822929,1.7947057 3.179249,4.0060393 z"
           id="path6096" />
        <ellipse
           style="fill:none;fill-opacity:1;stroke:#eeeeec;stroke-width:1.0008;stroke-linecap:round;stroke-linejoin:miter;stroke-miterlimit:4;stroke-dasharray:none;stroke-dashoffset:0;stroke-opacity:1"
           id="path6098"
           transform="matrix(0.8701215,0,-0.3339941,1.1474218,4.7836537,-1.8445527)"
           cx="9.4575529"
           cy="9.0207386"
           rx="4.9939418"
           ry="3.4913397" />
      </g>
      <rect
         ry="2.4748738"
         rx="2.3950391"
         y="1.5"
         x="-50.5"
         height="39.999996"
         width="29.999998"
         id="rect6100"
         style="fill:#3465a4;fill-opacity:1;stroke:#204a87;stroke-width:1;stroke-linecap:round;stroke-linejoin:miter;stroke-miterlimit:0;stroke-dasharray:none;stroke-dashoffset:0;stroke-opacity:1" />
      <g
         transform="translate(-62,1)"
         id="g6102">
        <path
           style="fill:#d3d7cf;fill-opacity:1;stroke:none;stroke-width:1;stroke-linecap:butt;stroke-linejoin:miter;stroke-miterlimit:4;stroke-dashoffset:0;stroke-opacity:1"
           d="M 14,3 H 39.182408 L 40,3.6961651 V 25 H 14 Z"
           id="path6104"
           sodipodi:nodetypes="cccccc" />
        <path
           style="fill:#ffffff;fill-opacity:1;stroke:none;stroke-width:1;stroke-linecap:butt;stroke-linejoin:miter;stroke-miterlimit:4;stroke-dashoffset:0;stroke-opacity:1"
           d="m 14,3 h 25.65625 c 1.055682,1.0277742 -0.49011,2.0151389 -2,2 H 12.625 C 14.126385,5 15.015732,3.4971845 14,3 Z"
           id="path6106"
           sodipodi:nodetypes="ccccc" />
      </g>
      <rect
         ry="1.1136932"
         rx="1.2374369"
         y="9.5"
         x="-20.5"
         height="10"
         width="5"
         id="rect6108"
         style="fill:url(#radialGradient6226);fill-opacity:1;stroke:#4e9a06;stroke-width:1;stroke-linecap:butt;stroke-linejoin:miter;stroke-miterlimit:4;stroke-dasharray:none;stroke-dashoffset:0;stroke-opacity:1" />
      <path
         sodipodi:nodetypes="ccccccccc"
         id="path6110"
         d="m -48.079373,2.53125 c -0.800828,0 -1.389377,0.6089338 -1.389377,1.4375 v 35.0625 c 0,0.828566 0.588549,1.4375 1.389377,1.4375 h 25.189997 c 0.800828,0 1.389377,-0.608935 1.389377,-1.4375 V 3.96875 c 0,-0.8285661 -0.58855,-1.4375 -1.389377,-1.4375 z"
         style="opacity:0.2;fill:none;fill-opacity:1;stroke:#ffffff;stroke-width:1;stroke-linecap:round;stroke-linejoin:miter;stroke-miterlimit:0;stroke-dashoffset:0;stroke-opacity:1" />
      <path
         transform="translate(-62,-20)"
         d="m 39.75,30.492187 c -0.140446,0 -0.257813,0.117368 -0.257813,0.257813 v 7.5 c 0,0.140448 0.117365,0.257812 0.257813,0.257812 h 5.5 c 0.140448,0 0.257812,-0.117364 0.257812,-0.257812 v -7.5 c 0,-0.140448 -0.117364,-0.257812 -0.257812,-0.257813 z"
         id="path6112"
         style="opacity:0.5;fill:none;fill-opacity:1;stroke:url(#linearGradient1);stroke-width:1;stroke-linecap:butt;stroke-linejoin:miter;stroke-miterlimit:4;stroke-dasharray:none;stroke-dashoffset:0;stroke-opacity:1"
         inkscape:original="M 39.75 29.5 C 39.06446 29.5 38.5 30.064461 38.5 30.75 L 38.5 38.25 C 38.5 38.93554 39.064459 39.5 39.75 39.5 L 45.25 39.5 C 45.93554 39.5 46.5 38.935541 46.5 38.25 L 46.5 30.75 C 46.5 30.06446 45.935541 29.5 45.25 29.5 L 39.75 29.5 z "
         inkscape:radius="-0.99302852"
         sodipodi:type="inkscape:offset" />
      <rect
         ry="1.2374369"
         rx="1.2374369"
         y="19.5"
         x="-22.5"
         height="10"
         width="8"
         id="rect6114"
         style="fill:url(#radialGradient6230);fill-opacity:1;stroke:#c4a000;stroke-width:1;stroke-linecap:butt;stroke-linejoin:miter;stroke-miterlimit:4;stroke-dasharray:none;stroke-dashoffset:0;stroke-opacity:1" />
      <rect
         ry="1.2374369"
         rx="1.2374369"
         y="29.5"
         x="-21.5"
         height="10"
         width="8"
         id="rect6116"
         style="fill:url(#radialGradient6232);fill-opacity:1;stroke:#ce5c00;stroke-width:1;stroke-linecap:butt;stroke-linejoin:miter;stroke-miterlimit:4;stroke-dasharray:none;stroke-dashoffset:0;stroke-opacity:1" />
      <path
         transform="translate(-61,-10)"
         d="m 39.75,30.492187 c -0.140446,0 -0.257813,0.117368 -0.257813,0.257813 v 7.5 c 0,0.140448 0.117365,0.257812 0.257813,0.257812 h 5.5 c 0.140448,0 0.257812,-0.117364 0.257812,-0.257812 v -7.5 c 0,-0.140448 -0.117364,-0.257812 -0.257812,-0.257813 z"
         id="path6118"
         style="opacity:0.5;fill:none;fill-opacity:1;stroke:url(#linearGradient2);stroke-width:1;stroke-linecap:butt;stroke-linejoin:miter;stroke-miterlimit:4;stroke-dasharray:none;stroke-dashoffset:0;stroke-opacity:1"
         inkscape:original="M 39.75 29.5 C 39.06446 29.5 38.5 30.064461 38.5 30.75 L 38.5 38.25 C 38.5 38.93554 39.064459 39.5 39.75 39.5 L 45.25 39.5 C 45.93554 39.5 46.5 38.935541 46.5 38.25 L 46.5 30.75 C 46.5 30.06446 45.935541 29.5 45.25 29.5 L 39.75 29.5 z "
         inkscape:radius="-0.99302852"
         sodipodi:type="inkscape:offset" />
      <rect
         y="19"
         x="-24.8125"
         height="10"
         width="6.8125"
         id="rect6120"
         style="opacity:0.25;fill:#000000;fill-opacity:1;stroke:none;stroke-width:1;stroke-linecap:round;stroke-linejoin:miter;stroke-miterlimit:4;stroke-dasharray:none;stroke-dashoffset:0;stroke-opacity:1" />
      <path
         transform="translate(-60)"
         d="m 39.75,30.492187 c -0.140446,0 -0.257813,0.117368 -0.257813,0.257813 v 7.5 c 0,0.140448 0.117365,0.257812 0.257813,0.257812 h 5.5 c 0.140448,0 0.257812,-0.117364 0.257812,-0.257812 v -7.5 c 0,-0.140448 -0.117364,-0.257812 -0.257812,-0.257813 z"
         id="path6122"
         style="opacity:0.5;fill:none;fill-opacity:1;stroke:url(#linearGradient6228);stroke-width:1;stroke-linecap:butt;stroke-linejoin:miter;stroke-miterlimit:4;stroke-dasharray:none;stroke-dashoffset:0;stroke-opacity:1"
         inkscape:original="M 39.75 29.5 C 39.06446 29.5 38.5 30.064461 38.5 30.75 L 38.5 38.25 C 38.5 38.93554 39.064459 39.5 39.75 39.5 L 45.25 39.5 C 45.93554 39.5 46.5 38.935541 46.5 38.25 L 46.5 30.75 C 46.5 30.06446 45.935541 29.5 45.25 29.5 L 39.75 29.5 z "
         inkscape:radius="-0.99302852"
         sodipodi:type="inkscape:offset" />
      <rect
         y="29"
         x="-24.8125"
         height="11"
         width="6.8125"
         id="rect6124"
         style="opacity:0.1;fill:#000000;fill-opacity:1;stroke:none;stroke-width:1;stroke-linecap:round;stroke-linejoin:miter;stroke-miterlimit:4;stroke-dasharray:none;stroke-dashoffset:0;stroke-opacity:1" />
      <rect
         y="9"
         x="-25"
         height="10"
         width="7"
         id="rect6126"
         style="opacity:0.155172;fill:#000000;fill-opacity:1;stroke:none;stroke-width:1;stroke-linecap:round;stroke-linejoin:miter;stroke-miterlimit:4;stroke-dasharray:none;stroke-dashoffset:0;stroke-opacity:1" />
      <path
         style="fill:url(#linearGradient6238);fill-opacity:1;stroke:#204a87;stroke-width:1;stroke-linecap:round;stroke-linejoin:miter;stroke-miterlimit:0;stroke-dashoffset:0;stroke-opacity:1"
         d="m -49.025126,6.5 h 27.050252 C -20.603794,6.5 -19.5,7.6037937 -19.5,8.9748738 V 43.025122 c 0,1.37108 -1.103794,2.474874 -2.474874,2.474874 h -27.050252 c -1.37108,0 -2.474874,-1.103794 -2.474874,-2.474874 V 8.9748738 C -51.5,7.6037937 -50.396206,6.5 -49.025126,6.5 Z"
         id="rect6128"
         sodipodi:nodetypes="ccccccccc" />
      <path
         transform="translate(-60)"
         style="fill:url(#linearGradient6240);fill-opacity:1;stroke:none;stroke-width:1;stroke-linecap:round;stroke-linejoin:miter;stroke-miterlimit:0;stroke-dashoffset:0;stroke-opacity:1"
         d="M 10.96875,7 C 9.866556,7 9,7.8665563 9,8.96875 v 34.0625 C 9,44.133444 9.8665564,45 10.96875,45 h 27.0625 C 39.133444,45 40,44.133443 40,43.03125 V 8.96875 C 40,7.8665562 39.133443,7 38.03125,7 Z"
         id="path6130"
         sodipodi:nodetypes="ccccccccc" />
      <path
         transform="translate(-60)"
         style="opacity:0.461207;fill:none;fill-opacity:1;stroke:url(#linearGradient6242);stroke-width:1;stroke-linecap:round;stroke-linejoin:miter;stroke-miterlimit:0;stroke-dashoffset:0;stroke-opacity:1"
         d="m 10.96875,7.53125 c -0.828566,0 -1.4375,0.6089338 -1.4375,1.4375 v 34.0625 c 0,0.828566 0.608934,1.4375 1.4375,1.4375 h 27.0625 c 0.828566,0 1.4375,-0.608935 1.4375,-1.4375 V 8.96875 c 0,-0.8285661 -0.608935,-1.4375 -1.4375,-1.4375 z"
         id="path6132"
         sodipodi:nodetypes="ccccccccc" />
      <ellipse
         transform="matrix(0.9838006,0,0,0.9524402,-59.717389,30.145517)"
         id="path6134"
         style="opacity:1;fill:none;fill-opacity:1;stroke:#204a87;stroke-width:1.03306;stroke-linecap:round;stroke-linejoin:miter;stroke-miterlimit:4;stroke-dasharray:none;stroke-dashoffset:0;stroke-opacity:1"
         cx="11.91033"
         cy="11.959651"
         rx="1.524699"
         ry="1.6130873" />
      <ellipse
         transform="matrix(0.9838006,0,0,0.9524402,-59.717389,24.145517)"
         id="path6136"
         style="opacity:1;fill:none;fill-opacity:1;stroke:#204a87;stroke-width:1.03306;stroke-linecap:round;stroke-linejoin:miter;stroke-miterlimit:4;stroke-dasharray:none;stroke-dashoffset:0;stroke-opacity:1"
         cx="11.91033"
         cy="11.959651"
         rx="1.524699"
         ry="1.6130873" />
      <ellipse
         transform="matrix(0.9838006,0,0,0.9524402,-59.717389,18.145517)"
         id="path6138"
         style="opacity:1;fill:none;fill-opacity:1;stroke:#204a87;stroke-width:1.03306;stroke-linecap:round;stroke-linejoin:miter;stroke-miterlimit:4;stroke-dasharray:none;stroke-dashoffset:0;stroke-opacity:1"
         cx="11.91033"
         cy="11.959651"
         rx="1.524699"
         ry="1.6130873" />
      <ellipse
         transform="matrix(0.9838006,0,0,0.9524402,-59.717389,6.1455167)"
         id="path6140"
         style="opacity:1;fill:none;fill-opacity:1;stroke:#204a87;stroke-width:1.03306;stroke-linecap:round;stroke-linejoin:miter;stroke-miterlimit:4;stroke-dasharray:none;stroke-dashoffset:0;stroke-opacity:1"
         cx="11.91033"
         cy="11.959651"
         rx="1.524699"
         ry="1.6130873" />
      <ellipse
         transform="matrix(0.9838006,0,0,0.9524402,-59.717389,12.145517)"
         id="path6142"
         style="opacity:1;fill:none;fill-opacity:1;stroke:#204a87;stroke-width:1.03306;stroke-linecap:round;stroke-linejoin:miter;stroke-miterlimit:4;stroke-dasharray:none;stroke-dashoffset:0;stroke-opacity:1"
         cx="11.91033"
         cy="11.959651"
         rx="1.524699"
         ry="1.6130873" />
      <ellipse
         transform="matrix(0.9838006,0,0,0.9524402,-59.717389,0.1455168)"
         id="path6144"
         style="opacity:1;fill:none;fill-opacity:1;stroke:#204a87;stroke-width:1.03306;stroke-linecap:round;stroke-linejoin:miter;stroke-miterlimit:4;stroke-dasharray:none;stroke-dashoffset:0;stroke-opacity:1"
         cx="11.91033"
         cy="11.959651"
         rx="1.524699"
         ry="1.6130873" />
      <g
         transform="translate(-60,30)"
         id="g6146">
        <path
           style="fill:none;fill-opacity:1;stroke:url(#radialGradient6244);stroke-width:3;stroke-linecap:round;stroke-linejoin:miter;stroke-miterlimit:4;stroke-dasharray:none;stroke-dashoffset:0;stroke-opacity:1"
           d="m 5.65625,8.5 c -0.6436799,2.211334 0.7888742,4 3.1875,4 0.913594,0 1.829015,-0.27526 2.65625,-0.71875"
           id="path6148"
           sodipodi:nodetypes="csc" />
        <path
           style="fill:none;fill-opacity:1;stroke:#eeeeec;stroke-width:1;stroke-linecap:round;stroke-linejoin:miter;stroke-miterlimit:4;stroke-dasharray:none;stroke-dashoffset:0;stroke-opacity:1"
           d="m 6.84375,6.5 c -0.5475716,0.5922996 -0.9735778,1.2650799 -1.1875,2 -0.6436799,2.211334 0.7888742,4 3.1875,4 0.913594,0 1.829015,-0.27526 2.65625,-0.71875"
           id="path6150"
           sodipodi:nodetypes="cssc" />
        <ellipse
           style="opacity:1;fill:#ffffff;fill-opacity:1;stroke:none;stroke-width:1;stroke-linecap:round;stroke-linejoin:miter;stroke-miterlimit:4;stroke-dasharray:none;stroke-dashoffset:0;stroke-opacity:1"
           id="path6152"
           transform="matrix(1.3714287,0,0,0.9320388,-1.7365942,0.3133592)"
           cx="5.265625"
           cy="8.2578125"
           rx="0.546875"
           ry="0.8046875" />
        <ellipse
           style="opacity:0.7;fill:#ffffff;fill-opacity:1;stroke:none;stroke-width:1;stroke-linecap:round;stroke-linejoin:miter;stroke-miterlimit:4;stroke-dasharray:none;stroke-dashoffset:0;stroke-opacity:1"
           id="path6154"
           transform="matrix(1.3714287,0,0,0.9320388,4.0970367,3.7163106)"
           cx="5.265625"
           cy="8.2578125"
           rx="0.546875"
           ry="0.8046875" />
      </g>
      <g
         transform="translate(-60,24)"
         id="g6156">
        <path
           style="fill:none;fill-opacity:1;stroke:url(#radialGradient6246);stroke-width:3;stroke-linecap:round;stroke-linejoin:miter;stroke-miterlimit:4;stroke-dasharray:none;stroke-dashoffset:0;stroke-opacity:1"
           d="m 5.65625,8.5 c -0.6436799,2.211334 0.7888742,4 3.1875,4 0.913594,0 1.829015,-0.27526 2.65625,-0.71875"
           id="path6158"
           sodipodi:nodetypes="csc" />
        <path
           style="fill:none;fill-opacity:1;stroke:#eeeeec;stroke-width:1;stroke-linecap:round;stroke-linejoin:miter;stroke-miterlimit:4;stroke-dasharray:none;stroke-dashoffset:0;stroke-opacity:1"
           d="m 6.84375,6.5 c -0.5475716,0.5922996 -0.9735778,1.2650799 -1.1875,2 -0.6436799,2.211334 0.7888742,4 3.1875,4 0.913594,0 1.829015,-0.27526 2.65625,-0.71875"
           id="path6160"
           sodipodi:nodetypes="cssc" />
        <ellipse
           style="opacity:1;fill:#ffffff;fill-opacity:1;stroke:none;stroke-width:1;stroke-linecap:round;stroke-linejoin:miter;stroke-miterlimit:4;stroke-dasharray:none;stroke-dashoffset:0;stroke-opacity:1"
           id="path6162"
           transform="matrix(1.3714287,0,0,0.9320388,-1.7365942,0.3133592)"
           cx="5.265625"
           cy="8.2578125"
           rx="0.546875"
           ry="0.8046875" />
        <ellipse
           style="opacity:0.7;fill:#ffffff;fill-opacity:1;stroke:none;stroke-width:1;stroke-linecap:round;stroke-linejoin:miter;stroke-miterlimit:4;stroke-dasharray:none;stroke-dashoffset:0;stroke-opacity:1"
           id="path6164"
           transform="matrix(1.3714287,0,0,0.9320388,4.0970367,3.7163106)"
           cx="5.265625"
           cy="8.2578125"
           rx="0.546875"
           ry="0.8046875" />
      </g>
      <g
         transform="translate(-60,18)"
         id="g6166">
        <path
           style="fill:none;fill-opacity:1;stroke:url(#radialGradient6248);stroke-width:3;stroke-linecap:round;stroke-linejoin:miter;stroke-miterlimit:4;stroke-dasharray:none;stroke-dashoffset:0;stroke-opacity:1"
           d="m 5.65625,8.5 c -0.6436799,2.211334 0.7888742,4 3.1875,4 0.913594,0 1.829015,-0.27526 2.65625,-0.71875"
           id="path6168"
           sodipodi:nodetypes="csc" />
        <path
           style="fill:none;fill-opacity:1;stroke:#eeeeec;stroke-width:1;stroke-linecap:round;stroke-linejoin:miter;stroke-miterlimit:4;stroke-dasharray:none;stroke-dashoffset:0;stroke-opacity:1"
           d="m 6.84375,6.5 c -0.5475716,0.5922996 -0.9735778,1.2650799 -1.1875,2 -0.6436799,2.211334 0.7888742,4 3.1875,4 0.913594,0 1.829015,-0.27526 2.65625,-0.71875"
           id="path6170"
           sodipodi:nodetypes="cssc" />
        <ellipse
           style="opacity:1;fill:#ffffff;fill-opacity:1;stroke:none;stroke-width:1;stroke-linecap:round;stroke-linejoin:miter;stroke-miterlimit:4;stroke-dasharray:none;stroke-dashoffset:0;stroke-opacity:1"
           id="path6172"
           transform="matrix(1.3714287,0,0,0.9320388,-1.7365942,0.3133592)"
           cx="5.265625"
           cy="8.2578125"
           rx="0.546875"
           ry="0.8046875" />
        <ellipse
           style="opacity:0.7;fill:#ffffff;fill-opacity:1;stroke:none;stroke-width:1;stroke-linecap:round;stroke-linejoin:miter;stroke-miterlimit:4;stroke-dasharray:none;stroke-dashoffset:0;stroke-opacity:1"
           id="path6174"
           transform="matrix(1.3714287,0,0,0.9320388,4.0970367,3.7163106)"
           cx="5.265625"
           cy="8.2578125"
           rx="0.546875"
           ry="0.8046875" />
      </g>
      <g
         transform="translate(-60,12)"
         id="g6176">
        <path
           style="fill:none;fill-opacity:1;stroke:url(#radialGradient6250);stroke-width:3;stroke-linecap:round;stroke-linejoin:miter;stroke-miterlimit:4;stroke-dasharray:none;stroke-dashoffset:0;stroke-opacity:1"
           d="m 5.65625,8.5 c -0.6436799,2.211334 0.7888742,4 3.1875,4 0.913594,0 1.829015,-0.27526 2.65625,-0.71875"
           id="path6178"
           sodipodi:nodetypes="csc" />
        <path
           style="fill:none;fill-opacity:1;stroke:#eeeeec;stroke-width:1;stroke-linecap:round;stroke-linejoin:miter;stroke-miterlimit:4;stroke-dasharray:none;stroke-dashoffset:0;stroke-opacity:1"
           d="m 6.84375,6.5 c -0.5475716,0.5922996 -0.9735778,1.2650799 -1.1875,2 -0.6436799,2.211334 0.7888742,4 3.1875,4 0.913594,0 1.829015,-0.27526 2.65625,-0.71875"
           id="path6180"
           sodipodi:nodetypes="cssc" />
        <ellipse
           style="opacity:1;fill:#ffffff;fill-opacity:1;stroke:none;stroke-width:1;stroke-linecap:round;stroke-linejoin:miter;stroke-miterlimit:4;stroke-dasharray:none;stroke-dashoffset:0;stroke-opacity:1"
           id="path6182"
           transform="matrix(1.3714287,0,0,0.9320388,-1.7365942,0.3133592)"
           cx="5.265625"
           cy="8.2578125"
           rx="0.546875"
           ry="0.8046875" />
        <ellipse
           style="opacity:0.7;fill:#ffffff;fill-opacity:1;stroke:none;stroke-width:1;stroke-linecap:round;stroke-linejoin:miter;stroke-miterlimit:4;stroke-dasharray:none;stroke-dashoffset:0;stroke-opacity:1"
           id="path6184"
           transform="matrix(1.3714287,0,0,0.9320388,4.0970367,3.7163106)"
           cx="5.265625"
           cy="8.2578125"
           rx="0.546875"
           ry="0.8046875" />
      </g>
      <g
         transform="translate(-60,6)"
         id="g6186">
        <path
           style="fill:none;fill-opacity:1;stroke:url(#radialGradient6252);stroke-width:3;stroke-linecap:round;stroke-linejoin:miter;stroke-miterlimit:4;stroke-dasharray:none;stroke-dashoffset:0;stroke-opacity:1"
           d="m 5.65625,8.5 c -0.6436799,2.211334 0.7888742,4 3.1875,4 0.913594,0 1.829015,-0.27526 2.65625,-0.71875"
           id="path6188"
           sodipodi:nodetypes="csc" />
        <path
           style="fill:none;fill-opacity:1;stroke:#eeeeec;stroke-width:1;stroke-linecap:round;stroke-linejoin:miter;stroke-miterlimit:4;stroke-dasharray:none;stroke-dashoffset:0;stroke-opacity:1"
           d="m 6.84375,6.5 c -0.5475716,0.5922996 -0.9735778,1.2650799 -1.1875,2 -0.6436799,2.211334 0.7888742,4 3.1875,4 0.913594,0 1.829015,-0.27526 2.65625,-0.71875"
           id="path6190"
           sodipodi:nodetypes="cssc" />
        <ellipse
           style="opacity:1;fill:#ffffff;fill-opacity:1;stroke:none;stroke-width:1;stroke-linecap:round;stroke-linejoin:miter;stroke-miterlimit:4;stroke-dasharray:none;stroke-dashoffset:0;stroke-opacity:1"
           id="path6192"
           transform="matrix(1.3714287,0,0,0.9320388,-1.7365942,0.3133592)"
           cx="5.265625"
           cy="8.2578125"
           rx="0.546875"
           ry="0.8046875" />
        <ellipse
           style="opacity:0.7;fill:#ffffff;fill-opacity:1;stroke:none;stroke-width:1;stroke-linecap:round;stroke-linejoin:miter;stroke-miterlimit:4;stroke-dasharray:none;stroke-dashoffset:0;stroke-opacity:1"
           id="path6194"
           transform="matrix(1.3714287,0,0,0.9320388,4.0970367,3.7163106)"
           cx="5.265625"
           cy="8.2578125"
           rx="0.546875"
           ry="0.8046875" />
      </g>
      <path
         id="path6196"
         d="m -36.126698,24.53508 c -9e-6,0.958803 0.196069,1.714927 0.588236,2.268374 0.399687,0.553456 0.938903,0.830181 1.617647,0.830178 0.671179,3e-6 1.206623,-0.276722 1.606334,-0.830178 0.399685,-0.561242 0.599535,-1.317366 0.599548,-2.268374 -1.3e-5,-0.943199 -0.203634,-1.68763 -0.61086,-2.233296 -0.399711,-0.553442 -0.938926,-0.830168 -1.617647,-0.830178 -0.663661,10e-6 -1.195335,0.276736 -1.595022,0.830178 -0.392167,0.545666 -0.588245,1.290097 -0.588236,2.233296 m 4.63801,3.519487 c -0.226258,0.553454 -0.59202,0.986082 -1.097286,1.297885 -0.49775,0.304009 -1.082214,0.456014 -1.753393,0.456013 -1.297144,10e-7 -2.352951,-0.483295 -3.167421,-1.449888 -0.806945,-0.974385 -1.210414,-2.241087 -1.210407,-3.800111 -7e-6,-1.559012 0.407232,-2.825714 1.221719,-3.800111 0.814471,-0.974376 1.866506,-1.461569 3.156109,-1.461581 0.671179,1.2e-5 1.255643,0.155913 1.753393,0.467706 0.505266,0.311815 0.871028,0.744442 1.097286,1.297884 v -1.531736 h 2.364252 v 8.103004 c 0.935127,-0.148103 1.67042,-0.611911 2.205883,-1.391425 0.535426,-0.7873 0.803148,-1.792866 0.803167,-3.016703 -1.9e-5,-0.779502 -0.10937,-1.508343 -0.328054,-2.186526 -0.218722,-0.685957 -0.550546,-1.313463 -0.995475,-1.882516 -0.716458,-0.950989 -1.613892,-1.683728 -2.692308,-2.198218 -1.070904,-0.514461 -2.23229,-0.7717 -3.484163,-0.771714 -0.874822,1.4e-5 -1.711925,0.120838 -2.511312,0.362472 -0.799405,0.233867 -1.538469,0.580748 -2.217194,1.040646 -1.116145,0.763932 -1.987185,1.753908 -2.613122,2.969932 -0.618405,1.208249 -0.927606,2.517824 -0.927602,3.92873 -4e-6,1.161475 0.199846,2.252787 0.599547,3.273942 0.407236,1.013364 0.9917,1.9098 1.753395,2.689308 0.754141,0.76392 1.617639,1.344654 2.590496,1.742205 0.980384,0.405343 2.024878,0.608015 3.133485,0.608017 0.950214,-2e-6 1.900439,-0.183186 2.850678,-0.549554 0.950212,-0.36637 1.760919,-0.861359 2.432127,-1.484966 l 1.210407,1.894209 c -0.942701,0.756122 -1.972113,1.332959 -3.088235,1.730512 -1.108611,0.405341 -2.236061,0.608013 -3.382353,0.608018 -1.395184,-5e-6 -2.71117,-0.257243 -3.947964,-0.771715 -1.236809,-0.506684 -2.337863,-1.247218 -3.303167,-2.221603 -0.965312,-0.974388 -1.700606,-2.100778 -2.205882,-3.379176 -0.50528,-1.286188 -0.757919,-2.665919 -0.757918,-4.139197 -10e-7,-1.4187 0.256408,-2.771149 0.769231,-4.057349 0.512817,-1.286179 1.244339,-2.416468 2.194569,-3.390868 0.950221,-0.966578 2.055046,-1.714906 3.31448,-2.244989 1.266959,-0.53005 2.579175,-0.795082 3.936651,-0.795099 1.689278,1.7e-5 3.223967,0.335205 4.604072,1.005567 1.380073,0.662599 2.533919,1.621395 3.461539,2.876391 0.565591,0.763933 0.991683,1.59411 1.27828,2.490534 0.294097,0.888651 0.441155,1.824062 0.441177,2.806237 -2.2e-5,2.112476 -0.614651,3.753344 -1.843891,4.922604 -1.22928,1.169266 -2.963818,1.753899 -5.203621,1.753898 h -0.441175 v -1.800669"
         style="font-style:normal;font-weight:normal;font-size:23.5538px;font-family:'Bitstream Vera Sans';opacity:1;fill:#ffffff;fill-opacity:1;stroke:none;stroke-width:1px;stroke-linecap:butt;stroke-linejoin:miter;stroke-opacity:1" />
      <g
         transform="translate(-60)"
         id="g6198">
        <path
           style="fill:none;fill-opacity:1;stroke:url(#radialGradient6254);stroke-width:3;stroke-linecap:round;stroke-linejoin:miter;stroke-miterlimit:4;stroke-dasharray:none;stroke-dashoffset:0;stroke-opacity:1"
           d="m 5.65625,8.5 c -0.6436799,2.211334 0.7888742,4 3.1875,4 0.913594,0 1.829015,-0.27526 2.65625,-0.71875"
           id="path6200"
           sodipodi:nodetypes="csc" />
        <path
           style="fill:none;fill-opacity:1;stroke:#eeeeec;stroke-width:1;stroke-linecap:round;stroke-linejoin:miter;stroke-miterlimit:4;stroke-dasharray:none;stroke-dashoffset:0;stroke-opacity:1"
           d="m 6.84375,6.5 c -0.5475716,0.5922996 -0.9735778,1.2650799 -1.1875,2 -0.6436799,2.211334 0.7888742,4 3.1875,4 0.913594,0 1.829015,-0.27526 2.65625,-0.71875"
           id="path6202"
           sodipodi:nodetypes="cssc" />
        <ellipse
           style="opacity:1;fill:#ffffff;fill-opacity:1;stroke:none;stroke-width:1;stroke-linecap:round;stroke-linejoin:miter;stroke-miterlimit:4;stroke-dasharray:none;stroke-dashoffset:0;stroke-opacity:1"
           id="path6204"
           transform="matrix(1.3714287,0,0,0.9320388,-1.7365942,0.3133592)"
           cx="5.265625"
           cy="8.2578125"
           rx="0.546875"
           ry="0.8046875" />
        <ellipse
           style="opacity:0.7;fill:#ffffff;fill-opacity:1;stroke:none;stroke-width:1;stroke-linecap:round;stroke-linejoin:miter;stroke-miterlimit:4;stroke-dasharray:none;stroke-dashoffset:0;stroke-opacity:1"
           id="path6206"
           transform="matrix(1.3714287,0,0,0.9320388,4.0970367,3.7163106)"
           cx="5.265625"
           cy="8.2578125"
           rx="0.546875"
           ry="0.8046875" />
      </g>
    </g>
    <g
       style="display:inline"
       transform="matrix(0.9904451,0,0,0.9904451,-1.511305,-1.687672)"
       id="g2029">
      <circle
         transform="matrix(1.14985,0,0,1.14985,-6.073881,0.554685)"
         id="path2388"
         style="display:inline;fill:url(#radialGradient6308);fill-opacity:1;fill-rule:evenodd;stroke:none;stroke-width:1px;stroke-linecap:butt;stroke-linejoin:miter;stroke-opacity:1"
         cx="38.658855"
         cy="9.3411446"
         r="8.341651" />
      <path
         transform="matrix(0.674116,0.299577,-0.299577,0.674116,16.98558,-7.128679)"
         d="m 44.520054,15.50279 c -0.507171,0.878446 -4.594703,-0.160823 -5.521351,0.251748 -0.926648,0.41257 -2.889414,4.145604 -3.88159,3.934711 -0.992177,-0.210894 -1.266891,-4.419519 -1.945618,-5.173323 -0.678728,-0.753803 -4.835582,-1.466933 -4.94161,-2.475719 -0.106028,-1.008786 3.811722,-2.5705906 4.318893,-3.4490369 0.507171,-0.8784463 -0.09914,-5.0522193 0.827507,-5.4647895 0.926648,-0.4125703 3.622664,2.8308064 4.614841,3.0417001 0.992176,0.2108936 4.77431,-1.6555099 5.453037,-0.9017066 0.678728,0.7538034 -1.572792,4.3201254 -1.466764,5.3289109 0.106027,1.008786 3.049826,4.029058 2.542655,4.907505 z"
         inkscape:randomized="0"
         inkscape:rounded="0.18352206"
         inkscape:flatsided="false"
         sodipodi:arg2="1.1519173"
         sodipodi:arg1="0.52359878"
         sodipodi:r2="5.0676599"
         sodipodi:r1="8.755579"
         sodipodi:cy="11.125"
         sodipodi:cx="36.9375"
         sodipodi:sides="5"
         id="path1345"
         style="color:#000000;display:inline;overflow:visible;visibility:visible;opacity:1;fill:#ffffff;fill-opacity:1;fill-rule:evenodd;stroke:none;stroke-width:0.5;stroke-linecap:butt;stroke-linejoin:miter;stroke-miterlimit:4;stroke-dasharray:none;stroke-dashoffset:0;stroke-opacity:1;marker:none;marker-start:none;marker-mid:none;marker-end:none"
         sodipodi:type="star" />
    </g>
  </g>
</svg>
