<?xml version="1.0" encoding="UTF-8" standalone="no"?>
<svg
   version="1.1"
   width="256px"
   height="256px"
   style="shape-rendering:geometricPrecision; text-rendering:geometricPrecision; image-rendering:optimizeQuality; fill-rule:evenodd; clip-rule:evenodd"
   id="svg197"
   sodipodi:docname="dialog-input-devices.svg"
   inkscape:version="1.4.2 (ebf0e940d0, 2025-05-08)"
   xml:space="preserve"
   xmlns:inkscape="http://www.inkscape.org/namespaces/inkscape"
   xmlns:sodipodi="http://sodipodi.sourceforge.net/DTD/sodipodi-0.dtd"
   xmlns:xlink="http://www.w3.org/1999/xlink"
   xmlns="http://www.w3.org/2000/svg"
   xmlns:svg="http://www.w3.org/2000/svg"><defs
     id="defs197"><linearGradient
       id="h"
       y2="52.669998"
       gradientUnits="userSpaceOnUse"
       y1="19.74"
       x2="17.700001"
       x1="11.89"><stop
         stop-color="#fff"
         offset="0"
         id="stop1" /><stop
         stop-color="#fff"
         stop-opacity="0"
         offset="1"
         id="stop2" /></linearGradient><linearGradient
       id="i"
       y2="43.400002"
       gradientUnits="userSpaceOnUse"
       y1="20.940001"
       x2="30.1"
       x1="12.1"><stop
         stop-color="#ebebeb"
         offset="0"
         id="stop3" /><stop
         stop-color="#acacac"
         offset="1"
         id="stop4" /></linearGradient><linearGradient
       id="f"
       y2="609.5"
       gradientUnits="userSpaceOnUse"
       x2="0"
       gradientTransform="matrix(0.068,0,0,0.041,-1.34,20.69)"
       y1="366.60001"><stop
         stop-opacity="0"
         offset="0"
         id="stop5" /><stop
         offset=".5"
         id="stop6" /><stop
         stop-opacity="0"
         offset="1"
         id="stop7" /></linearGradient><linearGradient
       id="g"
       y2="5"
       gradientUnits="userSpaceOnUse"
       y1="14.91"
       x2="35.299999"
       x1="11.5"><stop
         stop-color="#8c8c8c"
         offset="0"
         id="stop8" /><stop
         stop-color="#8c8c8c"
         stop-opacity="0"
         offset="1"
         id="stop9" /></linearGradient><radialGradient
       id="d"
       gradientUnits="userSpaceOnUse"
       cy="486.60001"
       cx="605.70001"
       gradientTransform="matrix(-0.056,0,0,0.041,40.5,20.69)"
       r="117.1"><stop
         offset="0"
         id="stop10" /><stop
         stop-opacity="0"
         offset="1"
         id="stop11" /></radialGradient><linearGradient
       id="linearGradient12270"><stop
         id="stop12272"
         offset="0.0000000"
         style="stop-color:#acacac;stop-opacity:1.0000000;" /><stop
         id="stop12274"
         offset="1.0000000"
         style="stop-color:#8d8d8d;stop-opacity:0.0000000;" /></linearGradient><linearGradient
       id="linearGradient11950"><stop
         id="stop11952"
         offset="0.0000000"
         style="stop-color:#ffffff;stop-opacity:1.0000000;" /><stop
         id="stop11954"
         offset="1.0000000"
         style="stop-color:#a9a9a9;stop-opacity:1.0000000;" /></linearGradient><linearGradient
       id="linearGradient11937"><stop
         id="stop11939"
         offset="0.0000000"
         style="stop-color:#fd6c05;stop-opacity:1.0000000;" /><stop
         id="stop11941"
         offset="1.0000000"
         style="stop-color:#b41111;stop-opacity:1.0000000;" /></linearGradient><linearGradient
       id="linearGradient11635"
       inkscape:collect="always"><stop
         id="stop11637"
         offset="0"
         style="stop-color:#ffffff;stop-opacity:1;" /><stop
         id="stop11639"
         offset="1"
         style="stop-color:#ffffff;stop-opacity:0;" /></linearGradient><linearGradient
       id="linearGradient11621"><stop
         id="stop11623"
         offset="0.0000000"
         style="stop-color:#b1b1b1;stop-opacity:1.0000000;" /><stop
         style="stop-color:#dfdfdf;stop-opacity:1.0000000;"
         offset="0.20000000"
         id="stop11629" /><stop
         id="stop11625"
         offset="1.0000000"
         style="stop-color:#565656;stop-opacity:1.0000000;" /></linearGradient><linearGradient
       id="linearGradient11607"
       inkscape:collect="always"><stop
         id="stop11609"
         offset="0"
         style="stop-color:#000000;stop-opacity:1;" /><stop
         id="stop11611"
         offset="1"
         style="stop-color:#000000;stop-opacity:0;" /></linearGradient><linearGradient
       id="linearGradient11597"><stop
         id="stop11599"
         offset="0.0000000"
         style="stop-color:#ffffff;stop-opacity:1.0000000;" /><stop
         style="stop-color:#d9d9d9;stop-opacity:1.0000000;"
         offset="0.37333333"
         id="stop11643" /><stop
         id="stop11964"
         offset="0.60311109"
         style="stop-color:#c5c5c5;stop-opacity:1.0000000;" /><stop
         id="stop11601"
         offset="1.0000000"
         style="stop-color:#909090;stop-opacity:1.0000000;" /></linearGradient><radialGradient
       gradientUnits="userSpaceOnUse"
       gradientTransform="matrix(1,0,0,0.619469,0,12.30737)"
       r="22.829447"
       fy="32.342636"
       fx="24.344677"
       cy="32.342636"
       cx="24.344677"
       id="radialGradient11613"
       xlink:href="#linearGradient11607"
       inkscape:collect="always" /><linearGradient
       gradientUnits="userSpaceOnUse"
       y2="15.069027"
       x2="23.991123"
       y1="6.583746"
       x1="23.991123"
       id="linearGradient11627"
       xlink:href="#linearGradient11621"
       inkscape:collect="always" /><linearGradient
       gradientTransform="matrix(0.917773,0,0,1,1.9962,1)"
       gradientUnits="userSpaceOnUse"
       y2="56.399807"
       x2="16.002489"
       y1="2.4829133"
       x1="10.807498"
       id="linearGradient11641"
       xlink:href="#linearGradient11635"
       inkscape:collect="always" /><radialGradient
       gradientUnits="userSpaceOnUse"
       gradientTransform="matrix(1,0,0,0.367351,0,27.37887)"
       r="6.4192042"
       fy="46.026909"
       fx="25.754154"
       cy="46.026909"
       cx="25.754154"
       id="radialGradient11943"
       xlink:href="#linearGradient11937"
       inkscape:collect="always" /><linearGradient
       gradientUnits="userSpaceOnUse"
       y2="7.1877394"
       x2="23.991123"
       y1="12.830256"
       x1="23.991123"
       id="linearGradient11958"
       xlink:href="#linearGradient11950"
       inkscape:collect="always" /><radialGradient
       r="13.261548"
       fy="14.245288"
       fx="20.588579"
       cy="14.245288"
       cx="20.588579"
       gradientTransform="matrix(2.220476,0,0,2.305134,-25.17729,-19.0131)"
       gradientUnits="userSpaceOnUse"
       id="radialGradient12258"
       xlink:href="#linearGradient11597"
       inkscape:collect="always" /><linearGradient
       gradientUnits="userSpaceOnUse"
       y2="-1"
       x2="36.543125"
       y1="4.375"
       x1="35.743351"
       id="linearGradient12278"
       xlink:href="#linearGradient12270"
       inkscape:collect="always"
       gradientTransform="matrix(1.0002277,0,0,0.98760364,-0.00768285,0.13072217)" /><radialGradient
       id="m"
       cx="605.71399"
       cy="486.64801"
       r="117.143"
       fx="605.71399"
       fy="486.64801"
       gradientTransform="matrix(-2.77439,0,0,1.9697,112.762,-872.885)"
       gradientUnits="userSpaceOnUse"
       xlink:href="#linearGradient11607" /><radialGradient
       id="l"
       cx="605.71399"
       cy="486.64801"
       r="117.143"
       fx="605.71399"
       fy="486.64801"
       gradientTransform="matrix(2.77439,0,0,1.9697,-1891.633,-872.885)"
       gradientUnits="userSpaceOnUse"
       xlink:href="#linearGradient11607" /><linearGradient
       id="b-2"><stop
         offset="0"
         stop-opacity="0"
         id="stop3-9" /><stop
         offset=".5"
         id="stop4-1" /><stop
         offset="1"
         stop-opacity="0"
         id="stop5-2" /></linearGradient><linearGradient
       id="k"
       x1="302.85699"
       x2="302.85699"
       y1="366.64801"
       y2="609.505"
       gradientTransform="matrix(2.77439,0,0,1.9697,-1892.179,-872.885)"
       gradientUnits="userSpaceOnUse"
       xlink:href="#b-2" /><linearGradient
       id="g-1"><stop
         offset="0"
         stop-color="#aaa"
         id="stop12" /><stop
         offset="1"
         stop-color="#cdcdcd"
         id="stop13" /></linearGradient><linearGradient
       id="e-8"><stop
         offset="0"
         stop-color="#ff8a2b"
         id="stop14" /><stop
         offset="1"
         stop-color="#833a00"
         id="stop15" /></linearGradient><linearGradient
       id="i-9"><stop
         offset="0"
         stop-color="#e4e4e4"
         id="stop18" /><stop
         offset="1"
         stop-color="#d3d3d3"
         id="stop19" /></linearGradient><linearGradient
       id="j-2"><stop
         offset="0"
         stop-color="#bbb"
         id="stop20" /><stop
         offset="1"
         stop-color="#9f9f9f"
         id="stop21" /></linearGradient><radialGradient
       id="p"
       cx="10.364"
       cy="32.709"
       r="3.823"
       fx="10.364"
       fy="32.709"
       gradientTransform="matrix(1,0,0,0.62428,0,12.29)"
       gradientUnits="userSpaceOnUse"
       xlink:href="#linearGradient11607" /><linearGradient
       id="s"
       x1="24.237"
       x2="24.237"
       y1="31.712"
       y2="28.358999"
       gradientUnits="userSpaceOnUse"
       xlink:href="#linearGradient11635" /><linearGradient
       id="w"
       x1="23.599001"
       x2="26.033001"
       y1="3.493"
       y2="13.095"
       gradientUnits="userSpaceOnUse"
       xlink:href="#e-8" /><linearGradient
       id="x"
       x1="24.395"
       x2="17.766001"
       y1="11.51"
       y2="-6.461"
       gradientUnits="userSpaceOnUse"
       xlink:href="#e-8" /><linearGradient
       id="y"
       x1="21.058001"
       x2="26.285999"
       y1="2.437"
       y2="29.562"
       gradientUnits="userSpaceOnUse"
       xlink:href="#linearGradient11635" /><linearGradient
       id="u"
       x1="26.313"
       x2="23.063"
       y1="17.5"
       y2="17.5"
       gradientTransform="translate(0,-0.625)"
       gradientUnits="userSpaceOnUse"
       xlink:href="#g-1" /><linearGradient
       id="r"
       x1="28.469"
       x2="20"
       y1="28.125"
       y2="26.375"
       gradientTransform="translate(0,-0.625)"
       gradientUnits="userSpaceOnUse"
       xlink:href="#g-1" /><linearGradient
       id="q"
       x1="12.378"
       x2="44.096001"
       y1="4.4330001"
       y2="47.620998"
       gradientTransform="translate(0,8.055)"
       gradientUnits="userSpaceOnUse"
       xlink:href="#linearGradient11635" /><radialGradient
       id="o"
       cx="15.571"
       cy="2.9590001"
       r="20.936001"
       fx="15.571"
       fy="2.9590001"
       gradientTransform="matrix(1.28624,0.7817,-0.71078,1.16955,-2.354,3.179)"
       gradientUnits="userSpaceOnUse"
       xlink:href="#i-9" /><linearGradient
       id="n"
       x1="7.605"
       x2="36.182999"
       y1="28.481001"
       y2="40.944"
       gradientTransform="translate(0,8.055)"
       gradientUnits="userSpaceOnUse"
       xlink:href="#j-2" /><radialGradient
       id="v"
       cx="22.694"
       cy="4.9369998"
       r="6.6290002"
       fx="22.694"
       fy="4.9369998"
       gradientTransform="matrix(2.38556,0,0,2.38556,-30.844,-6.09)"
       gradientUnits="userSpaceOnUse"
       xlink:href="#e-8" /></defs><sodipodi:namedview
     id="namedview197"
     pagecolor="#ffffff"
     bordercolor="#000000"
     borderopacity="0.25"
     inkscape:showpageshadow="2"
     inkscape:pageopacity="0.0"
     inkscape:pagecheckerboard="0"
     inkscape:deskcolor="#d1d1d1"
     inkscape:current-layer="svg197"
     inkscape:zoom="2.1816406"
     inkscape:cx="99.008057"
     inkscape:cy="166.15936" /><g
     id="g31"
     transform="matrix(5.1008711,0,0,5.1008711,11.626653,-33.783865)"><path
       d="m 10.5,19.25 c 0.25,-7.37 4.12,-11 9.25,-10.88 5.13,0.13 5.87,3.38 12.63,3.38 C 39.12,11.75 39.12,7.25 38,6 36.88,4.75 35.62,3.5 35.62,3.5"
       stroke="url(#g)"
       stroke-width="1"
       fill="none"
       id="path11-3"
       style="stroke:url(#g)" /><g
       opacity="0.5"
       id="g12"><path
         opacity="1"
         fill="url(#f)"
         d="m 6.8,35.76 h 32.78 v 9.98 H 6.8 Z"
         id="path12-6"
         style="fill:url(#f)" /><path
         id="e"
         opacity="1"
         d="m 6.8,35.76 v 9.98 c -12.53,-1.5 -9.1,-9.81 0,-9.98"
         fill="url(#d)"
         style="fill:url(#d)" /><use
         xlink:href="#e"
         transform="matrix(-1,0,0,1,46.4,0)"
         id="use12" /></g><path
       d="m 1.63,40.72 c -0.31,0.94 0.19,1.56 1.13,1.62 h 39.75 c 1.44,0.07 2,-0.87 1.88,-1.62 L 40.76,21.39 C 40.57,20.14 39.51,19.45 38.51,19.52 H 7.76 c -1,-0.07 -1.56,0.81 -1.75,1.75 z"
       stroke="#626262"
       fill="url(#i)"
       id="path13-7"
       style="fill:url(#i)" /><g
       transform="translate(-1.94,-1)"
       id="g14"><rect
         rx="0.69"
         height="2.9400001"
         width="13.79"
         y="35.099998"
         x="11.19"
         fill="#6d6d6d"
         id="rect13" /><rect
         rx="0.69"
         height="1.88"
         width="13.44"
         y="35.099998"
         x="11.31"
         fill="#e4e4e4"
         id="rect14" /></g><path
       d="m 2.72,40.2 c -0.33,1.25 -0.39,1.1 0.94,1.1 H 41.4 c 1.64,0 2.19,0.27 1.83,-1.16 L 39.87,22.04 C 39.6,20.63 39.2,20.55 37.62,20.55 H 8.63 c -1.42,0 -1.35,0.08 -1.65,1.34 L 2.73,40.25 Z"
       stroke="url(#h)"
       fill="none"
       id="path14-5"
       style="stroke:url(#h)" /><g
       id="j"><rect
         rx="1.24"
         ry="0.69"
         height="2.1800001"
         width="2.48"
         y="21.99"
         x="30.370001"
         fill="#787843"
         id="rect15" /><rect
         rx="1.24"
         ry="0.69"
         height="2.1800001"
         width="2.48"
         y="22.370001"
         x="30.639999"
         fill="#e7e745"
         id="rect16" /></g><g
       id="b"><g
         id="a"
         transform="matrix(0.233,0,0,1,5.7,-8.21)"><rect
           rx="2.95"
           ry="0.69"
           height="2.9400001"
           width="13.94"
           y="35.099998"
           x="11.19"
           fill="#6d6d6d"
           id="rect17" /><rect
           rx="2.95"
           ry="0.69"
           height="1.88"
           width="13.44"
           y="35.099998"
           x="11.31"
           fill="#e4e4e4"
           id="rect18" /></g><g
         id="c"><use
           xlink:href="#a"
           x="4"
           id="use18" /><use
           xlink:href="#a"
           x="8"
           id="use19" /></g><use
         xlink:href="#c"
         x="8"
         id="use20" /></g><use
       xlink:href="#b"
       x="-0.88"
       y="-3.4100001"
       id="use21" /><use
       xlink:href="#b"
       x="2"
       y="3.1500001"
       id="use22" /><use
       xlink:href="#a"
       x="-2"
       y="3.1500001"
       id="use23" /><use
       xlink:href="#c"
       x="18.93"
       id="use24" /><use
       xlink:href="#a"
       x="-2.9400001"
       y="7.21"
       id="use25" /><use
       xlink:href="#a"
       x="15.38"
       y="7.21"
       id="use26" /><use
       xlink:href="#a"
       x="21.25"
       y="7.21"
       id="use27" /><use
       xlink:href="#a"
       x="28.690001"
       y="7.21"
       id="use28" /><use
       xlink:href="#a"
       x="24.969999"
       y="7.21"
       id="use29" /><use
       xlink:href="#a"
       x="24.75"
       y="4.21"
       id="use30" /><use
       xlink:href="#j"
       x="4"
       id="use31" /></g><g
     id="g40"
     transform="matrix(3.1417621,0,0,3.1417621,104.45991,106.42552)"><g
       color="#000000"
       id="g23"><path
         fill="url(#k)"
         d="M -1559.252,-150.697 H -219.619 V 327.66 h -1339.633 z"
         opacity="0.402"
         style="fill:url(#k);marker:none"
         transform="matrix(0.02354,0,0,0.02087,45.314,40.279)"
         id="path21-0" /><path
         fill="url(#l)"
         d="m -219.61876,-150.68038 c 0,0 0,478.33079 0,478.33079 142.874166,0.90045 345.40022,-107.16966 345.40014,-239.196175 0,-132.026537 -159.436816,-239.134595 -345.40014,-239.134615 z"
         opacity="0.402"
         style="fill:url(#l);marker:none"
         transform="matrix(0.02354,0,0,0.02087,45.314,40.279)"
         id="path22-2" /><path
         fill="url(#m)"
         d="m -1559.2523,-150.68038 c 0,0 0,478.33079 0,478.33079 -142.8742,0.90045 -345.4002,-107.16966 -345.4002,-239.196175 0,-132.026537 159.4368,-239.134595 345.4002,-239.134615 z"
         opacity="0.402"
         style="fill:url(#m);marker:none"
         transform="matrix(0.02354,0,0,0.02087,45.314,40.279)"
         id="path23-3" /></g><path
       fill="none"
       stroke="#535353"
       stroke-linecap="round"
       stroke-linejoin="round"
       stroke-width="2"
       d="m 9.28569,22.018085 c -0.625,0 -1.031249,0.29018 -1.281248,0.843753 -10e-7,0 -4.4687505,11.103564 -4.4687505,11.103564 0,0 -0.25,0.671559 -0.25,1.78125 0,0 0,5.649968 0,5.649968 0,1.082613 0.6577855,1.625002 1.65625,1.625 H 43.50444 c 0.984853,0 1.59375,-0.71818 1.59375,-1.84375 v -5.649968 c 0,0 0.105963,-0.770423 -0.09375,-1.3125 L 40.28569,23.018089 c -0.184525,-0.511907 -0.636905,-0.988098 -1.125,-1.000004 z"
       id="path24-7" /><path
       fill="url(#n)"
       fill-rule="evenodd"
       d="m 3.2735915,35.052276 0.7646021,-0.692215 37.6096894,0.0625 3.462407,0.317298 v 6.438532 c 0,1.125569 -0.607018,1.843331 -1.591871,1.843331 H 4.9354314 c -0.9984647,0 -1.6618399,-0.542051 -1.6618399,-1.624664 z"
       id="path25-5"
       style="fill:url(#n)" /><path
       fill="none"
       stroke="#666666"
       stroke-width="2"
       d="m 24.5625,19.75 c -2.624655,0 -4.709751,1.051914 -4.875,2.375 H 19.625 c 0,0 -1.28125,5.1875 -1.28125,5.1875 -0.21875,1.09375 2.078745,3.03125 6.21875,3.03125 4.171393,0 6.5625,-1.96875 6.15625,-3.4375 0,0 -1.1875,-4.78125 -1.1875,-4.78125 h -0.0625 C 29.30511,20.801122 27.188264,19.750001 24.5625,19.75 Z"
       color="#000000"
       style="marker:none"
       id="path26-9" /><path
       fill="url(#o)"
       fill-rule="evenodd"
       d="m 3.5490842,33.969868 c -0.7142857,1.464286 -6.156e-4,2.392857 1.0357143,2.392857 0,0 38.9999985,0 38.9999985,0 1.119047,-0.02381 1.845238,-1.011905 1.428571,-2.142858 L 40.299082,23.009162 C 40.114558,22.497255 39.64432,22.021063 39.156225,22.009158 H 9.299083 c -0.625,0 -1.035714,0.303573 -1.285713,0.857146 z"
       id="path27-2"
       style="fill:url(#o)" /><path
       fill="url(#p)"
       fill-rule="evenodd"
       d="m 14.18633,32.708817 a 3.8227961,2.3864853 0 1 1 -7.6455921,0 3.8227961,2.3864853 0 1 1 7.6455921,0 z"
       color="#000000"
       style="fill:url(#p);marker:none"
       transform="translate(0.155,0.287)"
       id="path28-2" /><path
       fill="#ffffff"
       fill-rule="evenodd"
       d="m 44.796162,33.684152 c 0.06352,1.249974 -0.414003,2.31584 -1.322116,2.34375 0,0 -38.1187164,-10e-7 -38.1187163,0 -1.2892319,0 -1.867736,-0.324947 -2.0840507,-0.868056 0.091761,0.944332 0.8258174,1.649306 2.0840507,1.649306 -1e-7,-10e-7 38.1187163,0 38.1187163,0 1.076007,-0.03307 1.752805,-1.424024 1.352164,-2.994791 z"
       id="path29-8" /><path
       fill="none"
       stroke="url(#q)"
       stroke-linecap="round"
       stroke-linejoin="round"
       d="m 9.642515,22.47118 c -0.601692,0 -0.992791,0.279359 -1.233466,0.812287 -10e-7,0 -4.4150149,10.590729 -4.4150149,10.590729 0,0 -0.2406768,0.646515 -0.2406768,1.714823 0,0 0,5.290096 0,5.290096 0,1.35474 0.4440561,1.626899 1.5944841,1.626899 H 43.034746 c 1.323126,0 1.534316,-0.316397 1.534316,-1.837492 v -5.290096 c 0,0 0.10201,-0.741691 -0.09025,-1.263553 L 39.885616,23.308891 c -0.177643,-0.492816 -0.550652,-0.82625 -1.020545,-0.837711 z"
       id="path30-9"
       style="stroke:url(#q)" /><path
       fill="#ffffff"
       fill-opacity="0.48"
       fill-rule="evenodd"
       d="m 31.819805,28.377787 a 7.2478447,3.7123106 0 1 1 -14.495689,0 7.2478447,3.7123106 0 1 1 14.495689,0 z"
       color="#000000"
       style="marker:none"
       transform="matrix(1.5813,0,0,1.5813,-14.284,-16.59)"
       id="path31-7" /><path
       fill="#c9c9c9"
       fill-rule="evenodd"
       d="m 31.819805,28.377787 a 7.2478447,3.7123106 0 1 1 -14.495689,0 7.2478447,3.7123106 0 1 1 14.495689,0 z"
       color="#000000"
       style="marker:none"
       transform="matrix(0.85366,0,0,0.85366,3.596,2.933)"
       id="path32-3" /><path
       fill="none"
       stroke="#666666"
       stroke-width="2"
       d="m 24.5625,1.34375 c -3.659278,0 -6.625,2.9657226 -6.625,6.625 0,2.607559 1.559074,4.792747 3.75,5.875 v 8.46875 c 0,0 0,0.03564 0,0.0625 0,0.813967 1.285826,1.468751 2.875,1.46875 1.589174,0 2.875,-0.654783 2.875,-1.46875 V 22.3125 13.875 c 2.210442,-1.075204 3.75,-3.284395 3.75,-5.90625 0,-3.6592776 -2.965722,-6.625 -6.625,-6.625 z"
       color="#000000"
       style="marker:none"
       id="path33-6" /><path
       fill="url(#r)"
       fill-rule="evenodd"
       d="m 29.53125,22.125 c 0,0 1.1875,4.78125 1.1875,4.78125 0.40625,1.46875 -1.984857,3.4375 -6.15625,3.4375 -4.140005,0 -6.4375,-1.9375 -6.21875,-3.03125 0,0 1.28125,-5.1875 1.28125,-5.1875 z"
       color="#000000"
       style="fill:url(#r);marker:none"
       id="path34-1" /><path
       id="t"
       fill="#e4e4e4"
       fill-rule="evenodd"
       d="m 31.819805,28.377787 a 7.2478447,3.7123106 0 1 1 -14.495689,0 7.2478447,3.7123106 0 1 1 14.495689,0 z"
       color="#000000"
       style="marker:none"
       transform="matrix(0.68293,0,0,0.68293,7.791,2.903)" /><path
       fill="none"
       stroke="url(#s)"
       stroke-width="1.078"
       d="m 24.5625,24.65625 c -4.00081,0 -7.25,1.669555 -7.25,3.71875 0,2.049195 3.24919,3.718752 7.25,3.71875 4.00081,0 7.25,-1.669555 7.25,-3.71875 0,-2.049195 -3.24919,-3.71875 -7.25,-3.71875 z"
       color="#000000"
       style="stroke:url(#s);marker:none"
       transform="matrix(0.63363,0,0,0.63363,9.124,4.177)"
       id="path35-2" /><path
       fill="url(#u)"
       fill-rule="evenodd"
       d="m 24.5625,6.28125 c -1.589174,0 -2.874999,0.6547825 -2.875,1.46875 0,0.026864 0.05973,0.035989 0.0625,0.0625 h -0.0625 v 13.875 H 21.75 c -0.0028,0.02651 -0.0625,0.03564 -0.0625,0.0625 0,0.813967 1.285826,1.468751 2.875,1.46875 1.589174,0 2.875,-0.654783 2.875,-1.46875 0,-0.02686 -0.05973,-0.03599 -0.0625,-0.0625 h 0.0625 V 7.8125 H 27.375 c 0.0028,-0.026511 0.0625,-0.035636 0.0625,-0.0625 0,-0.8139671 -1.285826,-1.46875 -2.875,-1.46875 z"
       color="#000000"
       style="fill:url(#u);marker:none"
       id="path36-9" /><path
       fill="url(#v)"
       fill-rule="evenodd"
       d="m 31.02431,8.4020205 a 6.6291265,6.6291265 0 1 1 -13.258253,0 6.6291265,6.6291265 0 1 1 13.258253,0 z"
       color="#000000"
       style="fill:url(#v);marker:none"
       transform="matrix(0.96758,0,0,0.96758,0.968,-0.169)"
       id="path37-3" /><g
       fill-rule="evenodd"
       color="#000000"
       id="g39"><path
         fill="url(#w)"
         d="m 31.02431,8.4020205 a 6.6291265,6.6291265 0 1 1 -13.258253,0 6.6291265,6.6291265 0 1 1 13.258253,0 z"
         style="fill:url(#w);marker:none"
         transform="matrix(0.51033,0,0,0.30142,-2.067,30.219)"
         id="path38-1" /><path
         fill="url(#x)"
         d="m 31.02431,8.4020205 a 6.6291265,6.6291265 0 1 1 -13.258253,0 6.6291265,6.6291265 0 1 1 13.258253,0 z"
         style="fill:url(#x);marker:none"
         transform="matrix(0.4302,0,0,0.25409,-0.112,30.377)"
         id="path39-9" /></g><path
       fill="none"
       stroke="url(#y)"
       d="m 24.563623,2.0718822 c -3.284876,0 -5.943495,2.6876119 -5.943495,5.9724868 0,2.312769 1.660026,4.26294 3.58867,5.247671 v 7.121965 c -0.867236,0.395397 -2.15313,1.043191 -2.16803,1.681574 0,0 -1.246684,5.145245 -1.246684,5.145245 -0.202948,1.014743 1.928587,2.812287 5.769539,2.812287 3.870072,0 6.088458,-1.826537 5.711553,-3.189192 l -1.217691,-4.855318 c -0.01596,-0.683778 -1.225688,-1.111895 -2.201538,-1.507618 V 13.29204 c 1.928645,-0.984731 3.680162,-2.934902 3.680163,-5.247671 0,-3.2848748 -2.687613,-5.9724868 -5.972487,-5.9724868 z"
       color="#000000"
       opacity="0.526"
       style="stroke:url(#y);marker:none"
       id="path40-4" /></g><g
     id="g1"
     transform="matrix(2.1117006,0,0,2.5947426,-10.477825,4.2663666)"
     style="clip-rule:evenodd;fill-rule:evenodd;image-rendering:optimizeQuality;shape-rendering:geometricPrecision;text-rendering:geometricPrecision"><ellipse
       transform="matrix(0.813998,0,0,1.241071,4.528157,-9.19101)"
       id="path11605"
       style="color:#000000;display:inline;overflow:visible;visibility:visible;opacity:1;fill:url(#radialGradient11613);fill-opacity:1;fill-rule:evenodd;stroke:none;stroke-width:1;stroke-linecap:butt;stroke-linejoin:miter;stroke-miterlimit:4;stroke-dasharray:none;stroke-dashoffset:0;stroke-opacity:1;marker:none;marker-start:none;marker-mid:none;marker-end:none"
       cx="24.344677"
       cy="32.342636"
       rx="22.829447"
       ry="14.142136" /><path
       sodipodi:nodetypes="czzc"
       id="path12260"
       d="M 23.497667,10.50056 C 19.496757,3.0935331 21.247155,1.8590285 29.499033,3.8342358 37.577321,5.7678915 46.752961,13.957173 46.00279,5.3156413 45.208046,-3.8393523 42.884073,0.23210153 42.884073,0.23210153"
       style="fill:none;fill-opacity:0.75;fill-rule:evenodd;stroke:url(#linearGradient12278);stroke-width:0.993896;stroke-linecap:butt;stroke-linejoin:miter;stroke-miterlimit:4;stroke-dasharray:none;stroke-opacity:1" /><path
       sodipodi:nodetypes="cccccccc"
       id="path11595"
       d="m 6.8639278,27.131191 c -2.9224029,10.906556 5.5928502,18.410297 18.3780212,18.410297 12.646798,0 18.934379,-8.690604 16.329995,-18.410297 L 37.42025,14.116623 c -0.484363,-1.82299 -1.518742,-2.405887 -2.214236,-2.604272 -6.808707,-2.5695253 -16.40095,-2.6933702 -22.391326,0 -0.761144,0.347238 -1.314704,0.347236 -1.868263,2.083419 z"
       style="fill:url(#radialGradient12258);fill-opacity:1;fill-rule:evenodd;stroke:#4f4f4f;stroke-width:1;stroke-linecap:butt;stroke-linejoin:miter;stroke-miterlimit:4;stroke-dasharray:none;stroke-opacity:1" /><g
       transform="translate(0,1)"
       id="g11960"><path
         sodipodi:nodetypes="ccc"
         id="path11948"
         d="M 8.5736698,22.948218 C 16.805824,17.644917 29.854661,17.038826 38.524694,22.342126 30.832368,18.464709 17.818978,17.99819 8.5736698,22.948218 Z"
         style="fill:#ffffff;fill-opacity:0.79661;fill-rule:evenodd;stroke:none;stroke-width:1px;stroke-linecap:butt;stroke-linejoin:miter;stroke-opacity:1" /><path
         style="fill:#000000;fill-opacity:0.259887;fill-rule:evenodd;stroke:none;stroke-width:1px;stroke-linecap:butt;stroke-linejoin:miter;stroke-opacity:1"
         d="M 8.7504465,22.72725 C 17.380348,16.495871 30.031438,16.42011 38.436306,22.25374 30.655591,17.580828 17.686395,17.291086 8.7504465,22.72725 Z"
         id="path11615"
         sodipodi:nodetypes="ccc" /></g><ellipse
       transform="matrix(1.982494,0,0,1.417807,-23.64815,0.347873)"
       id="path11617"
       style="color:#000000;font-family:'Bitstream Vera Sans';display:inline;overflow:visible;visibility:visible;opacity:1;fill:url(#linearGradient11958);fill-opacity:1;fill-rule:evenodd;stroke:none;stroke-width:1;stroke-linecap:butt;stroke-linejoin:miter;stroke-miterlimit:4;stroke-dasharray:none;stroke-dashoffset:0;stroke-opacity:1;marker:none;marker-start:none;marker-mid:none;marker-end:none"
       cx="23.991123"
       cy="11.331463"
       rx="2.171828"
       ry="4.7477169" /><path
       style="fill:none;fill-opacity:1;fill-rule:evenodd;stroke:url(#linearGradient11641);stroke-width:1;stroke-linecap:butt;stroke-linejoin:miter;stroke-miterlimit:4;stroke-dasharray:none;stroke-opacity:1"
       d="M 7.5149489,28.908148 C 5.8398554,37.36856 13.03297,44.574367 25.327463,44.574367 c 12.294425,0 16.999665,-8.697906 15.602068,-15.666219 L 36.497637,14.950287 c -0.367747,-2.195907 -1.450995,-2.407722 -2.092535,-2.619308 -6.961711,-2.296032 -15.078763,-2.4854501 -20.75047,0 -0.71075,0.311464 -1.299481,0.193088 -1.731355,1.77725 z"
       id="path11633"
       sodipodi:nodetypes="czccsscc" /><path
       style="fill:#ffffff;fill-opacity:0.135593;fill-rule:evenodd;stroke:none;stroke-width:1;stroke-linecap:butt;stroke-linejoin:miter;stroke-miterlimit:4;stroke-dasharray:none;stroke-opacity:1"
       d="m 19.596325,44.466863 c 0,0 1.503551,-0.366851 2.442053,-0.8533 0.928078,-0.481047 0.249081,-3.687785 3.448717,-3.713103 3.168386,-0.02532 2.969981,3.201532 3.890657,3.623694 0.958643,0.43957 2.931981,0.467593 2.931981,0.467593 -3.690214,1.443139 -9.089486,1.335936 -12.713408,0.475116 z"
       id="path12280"
       sodipodi:nodetypes="czzzcc" /><path
       sodipodi:nodetypes="czzzcc"
       id="path11933"
       d="m 19.533825,44.514292 c 0,0 1.691051,-0.238354 2.629553,-0.662914 0.928078,-0.419844 0.552428,-3.491339 3.292467,-3.513436 2.762136,-0.0221 2.813731,3.012403 3.734407,3.380854 0.958643,0.383645 3.181981,0.353554 3.181981,0.353554 -3.690214,1.259533 -9.214486,1.193243 -12.838408,0.441942 z"
       style="fill:url(#radialGradient11943);fill-opacity:1;fill-rule:evenodd;stroke:none;stroke-width:1;stroke-linecap:butt;stroke-linejoin:miter;stroke-miterlimit:4;stroke-dasharray:none;stroke-opacity:1" /><ellipse
       style="color:#000000;font-family:'Bitstream Vera Sans';display:inline;overflow:visible;visibility:visible;opacity:1;fill:url(#linearGradient11627);fill-opacity:1;fill-rule:evenodd;stroke:#595959;stroke-width:0.5;stroke-linecap:butt;stroke-linejoin:miter;stroke-miterlimit:4;stroke-dasharray:none;stroke-dashoffset:0;stroke-opacity:1;marker:none;marker-start:none;marker-mid:none;marker-end:none"
       id="path11619"
       transform="translate(-0.101014,2.742517)"
       cx="23.991123"
       cy="11.331463"
       rx="2.171828"
       ry="4.7477169" /><ellipse
       transform="matrix(0.279069,0,0,0.542553,16.43731,6.360322)"
       id="path11631"
       style="color:#000000;font-family:'Bitstream Vera Sans';display:inline;overflow:visible;visibility:visible;opacity:1;fill:#ffffff;fill-opacity:0.333333;fill-rule:evenodd;stroke:none;stroke-width:1;stroke-linecap:butt;stroke-linejoin:miter;stroke-miterlimit:4;stroke-dasharray:none;stroke-dashoffset:0;stroke-opacity:1;marker:none;marker-start:none;marker-mid:none;marker-end:none"
       cx="23.991123"
       cy="11.331463"
       rx="2.171828"
       ry="4.7477169" /><path
       sodipodi:nodetypes="ccccccccc"
       id="rect11945"
       d="m 19.441629,36.183691 c 3.250706,0.618718 8.643974,0.707106 11.453906,0 0.278318,-0.07004 0.526523,0.188362 0.526523,0.422335 v 0.790514 c 0,0.233974 -0.243843,0.364618 -0.526523,0.422335 -3.03032,0.618718 -7.927717,0.618718 -11.453906,0 -0.284954,-0.05 -0.526523,-0.188361 -0.526523,-0.422335 v -0.790514 c 0,-0.233973 0.242757,-0.476508 0.526523,-0.422335 z"
       style="color:#000000;font-family:'Bitstream Vera Sans';display:inline;overflow:visible;visibility:visible;fill:#000000;fill-opacity:0.0960452;fill-rule:evenodd;stroke:none;stroke-width:1;stroke-linecap:butt;stroke-linejoin:miter;stroke-miterlimit:4;stroke-dashoffset:0;stroke-opacity:1;marker:none;marker-start:none;marker-mid:none;marker-end:none" /></g></svg>
