<?xml version="1.0" encoding="UTF-8" standalone="no"?>
<!-- Created with Inkscape (http://www.inkscape.org/) -->

<svg
   width="256mm"
   height="256mm"
   viewBox="0 0 256 256"
   version="1.1"
   id="svg1"
   inkscape:version="1.4.2 (ebf0e940d0, 2025-05-08)"
   xml:space="preserve"
   sodipodi:docname="network-wireless.svg"
   xmlns:inkscape="http://www.inkscape.org/namespaces/inkscape"
   xmlns:sodipodi="http://sodipodi.sourceforge.net/DTD/sodipodi-0.dtd"
   xmlns="http://www.w3.org/2000/svg"
   xmlns:svg="http://www.w3.org/2000/svg"
   xmlns:rdf="http://www.w3.org/1999/02/22-rdf-syntax-ns#"
   xmlns:cc="http://creativecommons.org/ns#"
   xmlns:dc="http://purl.org/dc/elements/1.1/"><defs
     id="defs1">
		
		
		
		
		
		
		
















</defs><sodipodi:namedview
     id="base"
     pagecolor="#ffffff"
     bordercolor="#000000"
     borderopacity="0.3"
     inkscape:pageopacity="0.0"
     inkscape:pageshadow="2"
     inkscape:zoom="0.98994949"
     inkscape:cx="505.07627"
     inkscape:cy="476.28693"
     inkscape:document-units="mm"
     inkscape:showpageshadow="2"
     inkscape:pagecheckerboard="0"
     inkscape:deskcolor="#d1d1d1"
     inkscape:current-layer="svg1"
     showguides="true" /><metadata
     id="metadata1"><rdf:RDF><cc:Work
         rdf:about=""><dc:format>image/svg+xml</dc:format><dc:type
           rdf:resource="http://purl.org/dc/dcmitype/StillImage" /><cc:license
           rdf:resource="http://creativecommons.org/publicdomain/zero/1.0/" /></cc:Work><cc:License
         rdf:about="http://creativecommons.org/publicdomain/zero/1.0/"><cc:permits
           rdf:resource="http://creativecommons.org/ns#Reproduction" /><cc:permits
           rdf:resource="http://creativecommons.org/ns#Distribution" /><cc:permits
           rdf:resource="http://creativecommons.org/ns#DerivativeWorks" /></cc:License></rdf:RDF></metadata><g
     id="g2"
     transform="matrix(0.96700892,0,0,0.96700892,-1.7048569,-33.38047)"><path
       style="fill:#757575;fill-opacity:1;stroke-width:1.00284"
       d="m 110.23007,195.4029 c 0,-18.91558 12.60433,-25.33524 24.3665,-25.60901 11.36553,-0.26455 25.13072,6.64869 25.46145,25.48118 0.36915,21.02017 -21.1568,25.10975 -25.67366,25.10975 -4.27933,0 -24.15429,-6.07211 -24.15429,-24.98192 z M 76.736958,149.74134 c 10.9515,-10.72711 20.050467,-18.31542 47.312032,-22.6504 9.22897,-1.30662 16.16479,-0.18043 24.69218,0.0909 12.1442,0.38641 31.52394,9.56919 44.32926,22.05739 0.10639,0.10376 -0.0148,0.22987 0.14097,0.22987 -11.83835,12.89356 -17.06337,18.33114 -20.58959,21.77447 -22.07368,-19.61398 -52.63193,-20.95423 -74.865494,0.18035 -7.460674,-6.76689 -15.100037,-14.99301 -21.019358,-21.68258 z M 45.76508,118.15524 c 10.719424,-11.85673 43.925468,-36.90968 91.49504,-36.680391 41.92399,0.46124 64.56422,18.228426 87.31504,35.896391 l -0.62961,0.72566 c -5.30354,6.11282 -8.078,9.28001 -21.42504,22.33498 -27.25436,-22.28755 -43.82925,-26.6312 -67.16508,-27.10866 -24.21818,-0.30617 -50.721685,10.09053 -67.800729,27.47506 C 62.508974,135.67915 50.578773,123.42237 45.76508,118.15524 Z M 15.395868,87.733433 C 64.56401,41.070711 118.58817,38.161823 150.10786,40.22373 c 35.84693,2.344981 81.67855,19.152385 104.94059,45.971752 0,0.62721 -23.29638,23.977908 -23.29638,23.977908 C 211.68591,89.123672 174.9238,71.816772 134.99745,71.729866 84.909134,71.62084 50.944331,98.571032 38.066483,110.46455 30.533039,103.17231 15.395868,87.733433 15.395868,87.733433 Z"
       id="path1"
       sodipodi:nodetypes="sssssccsscccccccccscccsscscc" /><path
       style="fill:#3465a4;fill-opacity:1;stroke-width:1.00284"
       d="m 108.64256,191.16954 c 0,-18.91558 12.60433,-25.33524 24.3665,-25.60901 11.36553,-0.26455 25.13072,6.64869 25.46145,25.48118 0.36915,21.02017 -21.1568,25.10975 -25.67366,25.10975 -4.27933,0 -24.15429,-6.07211 -24.15429,-24.98192 z M 75.149457,145.50798 c 10.9515,-10.72711 20.050467,-18.31542 47.312023,-22.6504 9.22897,-1.30662 16.16479,-0.18043 24.69218,0.0909 12.1442,0.38641 31.52394,9.56919 44.32926,22.05739 0.10639,0.10376 -0.0148,0.22987 0.14097,0.22987 -11.83835,12.89356 -17.06337,18.33114 -20.58959,21.77447 -22.07368,-19.61398 -52.63193,-20.95423 -74.865485,0.18035 -7.460674,-6.76689 -15.100037,-14.99301 -21.019358,-21.68258 z m -30.971878,-31.5861 c 10.719424,-11.85673 43.925468,-36.909656 91.495031,-36.680367 41.92399,0.46124 64.56422,18.228426 87.31504,35.896367 l -0.62961,0.72566 c -5.30354,6.11282 -8.078,9.28001 -21.42504,22.33498 -27.25436,-22.28755 -43.82925,-26.6312 -67.16508,-27.10866 -24.21818,-0.30617 -50.721676,10.09053 -67.80072,27.47506 -5.045727,-5.11913 -16.975928,-17.37591 -21.789621,-22.64304 z M 13.808367,83.500097 C 62.976509,36.837375 117.00066,33.928487 148.52035,35.990394 c 35.84693,2.344981 81.67855,19.152385 104.94059,45.971752 0,0.62721 -23.29638,23.977884 -23.29638,23.977884 C 210.0984,84.890336 173.33629,67.583436 133.40994,67.49653 83.321633,67.387504 49.35683,94.337696 36.478982,106.23119 28.945538,98.938955 13.808367,83.500097 13.808367,83.500097 Z"
       id="path2"
       sodipodi:nodetypes="sssssccsscccccccccscccsscscc" /></g><g
     id="g1"
     transform="matrix(0.23209046,0,0,0.23209046,14.755167,81.40546)"><path
       style="fill:#0066ff;fill-rule:evenodd;stroke:none;stroke-width:6.34;stroke-linecap:butt;stroke-linejoin:miter;stroke-miterlimit:4;stroke-dasharray:none;stroke-dashoffset:0"
       vector-effect="non-scaling-stroke"
       d="m 807.15084,749.78426 c 88.84876,0 161.64464,-72.80856 161.64464,-161.65732 v -96.2412 c 0,-88.84242 -72.79588,-161.65098 -161.64464,-161.65098 H 174.12086 c -88.84242,0 -161.65098,72.80222 -161.65098,161.65098 v 96.24754 c 0,88.84876 72.80856,161.65732 161.65098,161.65732 h 633.02998 z"
       stroke-linecap="round"
       id="path1-5" /><path
       style="fill:#ffffff;fill-rule:evenodd;stroke:none;stroke-width:6.34;stroke-linecap:butt;stroke-linejoin:miter;stroke-miterlimit:4;stroke-dasharray:none;stroke-dashoffset:0"
       vector-effect="non-scaling-stroke"
       d="m 512.24012,588.12694 v -96.2412 c 0,-72.80222 59.22828,-130.7942 130.80054,-130.7942 h 164.12358 c 71.57226,0 129.56424,57.99198 129.56424,130.7942 v 96.24754 c 0,71.57226 -57.98564,130.80054 -129.56424,130.80054 H 445.60672 c 40.72182,-29.61414 66.6334,-76.50478 66.6334,-130.80688 z m -212.24418,50.59954 h -54.28942 l -9.87138,-45.65434 c -6.16882,-32.08674 -12.33764,-71.57226 -13.57394,-86.3825 -1.2363,14.81024 -7.40512,54.29576 -14.81024,86.3825 l -9.87138,45.65434 H 144.52012 L 95.15688,428.9549 h 59.22828 l 6.16882,35.7893 c 4.93252,29.61414 9.87138,65.3971 12.33764,90.07872 2.46626,-24.68162 8.63508,-60.47092 16.0402,-90.07872 l 7.39878,-35.7893 h 53.05946 l 7.40512,35.7893 c 6.16882,29.61414 12.33764,65.3971 14.8039,90.07872 2.4726,-24.68162 8.64142,-60.47092 13.57394,-90.07872 l 4.93252,-35.7893 h 59.23462 z m 102.4227,-169.0561 c -17.2765,0 -30.85044,-9.87138 -30.85044,-25.91158 0,-16.0402 13.57394,-25.91792 30.85044,-25.91792 18.50646,0 32.08674,9.87772 32.08674,25.91792 -0.006,16.0402 -13.58028,25.91158 -32.08674,25.91158 z m -27.14788,17.2765 h 54.29576 v 151.77326 h -54.29576 z"
       stroke-linecap="round"
       id="path2-3" /><path
       style="display:none;visibility:hidden;fill:#000000;fill-rule:evenodd;stroke:none;stroke-width:6.34;stroke-linecap:butt;stroke-linejoin:miter;stroke-miterlimit:4;stroke-dasharray:none;stroke-dashoffset:0"
       vector-effect="non-scaling-stroke"
       d="m 1057.8453,401.71762 v -18.50646 -11.10768 c -1.2363,2.4726 -2.4663,6.17516 -3.7026,8.63508 l -9.8713,22.21536 -9.8841,-22.21536 c -1.2236,-2.46626 -2.4663,-6.16882 -3.6899,-8.63508 v 29.61414 h -8.6414 v -49.36324 h 8.6414 l 9.8714,22.21536 c 1.2236,2.46626 3.7026,6.16882 3.7026,8.63508 1.2236,-2.4726 2.4662,-6.16882 3.7025,-8.63508 l 9.8714,-22.21536 h 9.8714 v 49.36324 z"
       stroke-linecap="round"
       id="path4" /><path
       style="display:none;visibility:hidden;fill:#000000;fill-rule:evenodd;stroke:none;stroke-width:6.34;stroke-linecap:butt;stroke-linejoin:miter;stroke-miterlimit:4;stroke-dasharray:none;stroke-dashoffset:0"
       vector-effect="non-scaling-stroke"
       d="m 998.58116,362.2461 v 39.48552 H 988.6971 V 362.2461 h -14.79756 v -9.87772 h 38.24926 v 9.87772 z"
       stroke-linecap="round"
       id="path5" /><path
       style="fill:#0066ff;fill-rule:evenodd;stroke:none;stroke-width:6.34;stroke-linecap:butt;stroke-linejoin:miter;stroke-miterlimit:4;stroke-dasharray:none;stroke-dashoffset:0"
       vector-effect="non-scaling-stroke"
       d="M 801.11114,486.95288 H 855.4069 V 638.72614 H 801.11114 Z"
       stroke-linecap="round"
       id="path6" /><path
       style="fill:#0066ff;fill-rule:evenodd;stroke:none;stroke-width:6.34;stroke-linecap:butt;stroke-linejoin:miter;stroke-miterlimit:4;stroke-dasharray:none;stroke-dashoffset:0"
       vector-effect="non-scaling-stroke"
       d="m 828.25136,469.62158 c -17.2765,0 -30.8441,-9.87138 -30.8441,-25.91158 0,-16.0402 13.57394,-25.91792 30.8441,-25.91792 18.5128,0 32.08674,9.87772 32.08674,25.91792 0,16.0402 -13.57394,25.91158 -32.08674,25.91158 z"
       stroke-linecap="round"
       id="path9" /><path
       style="fill:#0066ff;fill-rule:evenodd;stroke:none;stroke-width:6.34;stroke-linecap:butt;stroke-linejoin:miter;stroke-miterlimit:4;stroke-dasharray:none;stroke-dashoffset:0"
       vector-effect="non-scaling-stroke"
       d="m 644.33096,478.2816 v 46.89064 H 755.3824 v 49.3569 H 644.33096 v 64.16714 H 586.33264 V 428.91836 h 181.39374 v 49.36324 z"
       stroke-linecap="round"
       id="path10" /></g></svg>
