<?xml version="1.0" encoding="UTF-8" standalone="no"?>
<svg
   version="1.1"
   id="svg11300"
   height="256mm"
   width="256mm"
   sodipodi:docname="preferences-system-search.svg"
   viewBox="0 0 256 256"
   inkscape:version="1.4.2 (ebf0e940d0, 2025-05-08)"
   xml:space="preserve"
   xmlns:inkscape="http://www.inkscape.org/namespaces/inkscape"
   xmlns:sodipodi="http://sodipodi.sourceforge.net/DTD/sodipodi-0.dtd"
   xmlns:xlink="http://www.w3.org/1999/xlink"
   xmlns="http://www.w3.org/2000/svg"
   xmlns:svg="http://www.w3.org/2000/svg"
   xmlns:rdf="http://www.w3.org/1999/02/22-rdf-syntax-ns#"
   xmlns:cc="http://creativecommons.org/ns#"
   xmlns:dc="http://purl.org/dc/elements/1.1/"><title
     id="title1">Emblem-system</title><sodipodi:namedview
     id="namedview1"
     pagecolor="#ffffff"
     bordercolor="#000000"
     borderopacity="0.25"
     inkscape:showpageshadow="2"
     inkscape:pageopacity="0.0"
     inkscape:pagecheckerboard="0"
     inkscape:deskcolor="#d1d1d1"
     inkscape:zoom="0.38530887"
     inkscape:cx="570.9705"
     inkscape:cy="982.32879"
     inkscape:current-layer="svg11300"
     inkscape:document-units="mm" /><defs
     id="defs3"><linearGradient
       id="linearGradient3264"><stop
         id="stop3266"
         offset="0"
         style="stop-color:#c9c9c9;stop-opacity:1;" /><stop
         style="stop-color:#f8f8f8;stop-opacity:1;"
         offset="0.25"
         id="stop3276" /><stop
         style="stop-color:#e2e2e2;stop-opacity:1;"
         offset="0.5"
         id="stop3272" /><stop
         id="stop3274"
         offset="0.75"
         style="stop-color:#b0b0b0;stop-opacity:1;" /><stop
         id="stop3268"
         offset="1"
         style="stop-color:#c9c9c9;stop-opacity:1;" /></linearGradient><linearGradient
       id="linearGradient3256"><stop
         id="stop3258"
         offset="0"
         style="stop-color:#000000;stop-opacity:1;" /><stop
         id="stop3260"
         offset="1"
         style="stop-color:#000000;stop-opacity:0;" /></linearGradient><radialGradient
       gradientUnits="userSpaceOnUse"
       gradientTransform="matrix(1,0,0,0.315315,0,26.81305)"
       r="19.622213"
       fy="39.161163"
       fx="25.455845"
       cy="39.161163"
       cx="25.455845"
       id="radialGradient3262"
       xlink:href="#linearGradient3256" /><linearGradient
       gradientTransform="matrix(1.241935,0,0,1.241935,-5.027508,-7.208988)"
       y2="39.684914"
       x2="34.534348"
       y1="12.284524"
       x1="14.462892"
       gradientUnits="userSpaceOnUse"
       id="linearGradient3281"
       xlink:href="#linearGradient3264" /><linearGradient
       id="k"
       y2="30.6"
       gradientUnits="userSpaceOnUse"
       x2="31.299999"
       y1="23.35"
       x1="27.01"><stop
         stop-color="#8a8a8a"
         offset="0"
         id="stop1" /><stop
         stop-color="#484848"
         offset="1"
         id="stop2" /></linearGradient><linearGradient
       id="SVGID_3_"
       y2="55.650002"
       gradientUnits="userSpaceOnUse"
       x2="-144.3"
       gradientTransform="matrix(1.335,0,0,-1.291,229.6,104.1)"
       y1="52.709999"
       x1="-146.89999"><stop
         stop-color="#7d7d7d"
         offset="0"
         id="stop3" /><stop
         stop-color="#b1b1b1"
         offset=".5"
         id="stop4" /><stop
         stop-color="#686868"
         offset="1"
         id="stop5" /></linearGradient><linearGradient
       id="c"
       y2="25.860001"
       gradientUnits="userSpaceOnUse"
       x2="17.83"
       y1="10.73"
       x1="18.809999"><stop
         stop-color="#fff"
         offset="0"
         id="stop6" /><stop
         stop-color="#fff"
         stop-opacity=".22"
         offset=".5"
         id="stop7" /><stop
         stop-color="#fff"
         offset="1"
         id="stop8" /></linearGradient><radialGradient
       id="r"
       gradientUnits="userSpaceOnUse"
       cy="81.5"
       cx="-171.7"
       gradientTransform="matrix(1.399,0,0,-1.399,259.5,136.2)"
       r="8.3100004"><stop
         stop-color="#729fcf"
         stop-opacity=".21"
         offset="0"
         id="stop9" /><stop
         stop-color="#729fcf"
         stop-opacity=".68"
         offset="1"
         id="stop10" /></radialGradient><radialGradient
       id="b"
       gradientUnits="userSpaceOnUse"
       cy="-511.60001"
       cx="-174.5"
       gradientTransform="matrix(1.446,0,0,-0.362,276.2,-145.1)"
       r="16.530001"><stop
         offset="0"
         id="stop11" /><stop
         stop-opacity="0"
         offset="1"
         id="stop12" /></radialGradient><radialGradient
       id="g"
       gradientUnits="userSpaceOnUse"
       cy="166.39999"
       cx="-296.79999"
       gradientTransform="matrix(2.593,0,0,-2.252,784.6,385.3)"
       r="6.6599998"><stop
         stop-color="#fff"
         offset="0"
         id="stop13" /><stop
         stop-color="#fff"
         stop-opacity=".25"
         offset="1"
         id="stop14" /></radialGradient><radialGradient
       id="s"
       gradientUnits="userSpaceOnUse"
       cy="-1674"
       cx="314.89999"
       gradientTransform="matrix(0.498,0,0,-0.145,-135.8,-204.1)"
       r="16.530001"><stop
         stop-color="#fff"
         offset="0"
         id="stop15" /><stop
         stop-color="#fff"
         stop-opacity="0"
         offset="1"
         id="stop16" /></radialGradient></defs><g
     id="layer1"
     transform="matrix(4.0040276,0,0,4.0040276,0.80089874,1.9947653)"><path
       transform="translate(-0.883885,2.474874)"
       d="m 45.078058,39.161163 a 19.622213,6.1871855 0 1 1 -39.2444265,0 19.622213,6.1871855 0 1 1 39.2444265,0 z"
       id="path3254"
       style="color:#000000;display:inline;overflow:visible;visibility:visible;opacity:0.409091;fill:url(#radialGradient3262);fill-opacity:1;fill-rule:nonzero;stroke:none;stroke-width:1;stroke-linecap:butt;stroke-linejoin:miter;stroke-miterlimit:4;stroke-dasharray:none;stroke-dashoffset:0;stroke-opacity:1;marker:none;marker-start:none;marker-mid:none;marker-end:none" /><path
       id="path3243"
       d="M 23.25,0.46875 C 22.784561,0.50059628 22.332166,0.57268469 21.875,0.625 H 21.84375 L 20.75,6.59375 C 18.967275,6.9997399 17.290091,7.6887415 15.78125,8.625 L 10.875,5.09375 C 9.5487118,6.1234406 8.3418016,7.3243453 7.28125,8.625 l 3.40625,4.96875 c -1.0342329,1.580515 -1.8119683,3.385224 -2.25,5.28125 -7.5e-5,0.009 -6.09e-5,0.02969 0,0.03125 L 2.5,19.84375 c -0.1085533,0.886633 -0.15625,1.802939 -0.15625,2.71875 10e-8,0.7493 0.020689,1.488589 0.09375,2.21875 l 5.9375,1.0625 c 0.422279,2.061892 1.2244587,3.987512 2.34375,5.6875 L 7.1875,36.375 c 1.0113261,1.255518 2.1788917,2.398616 3.4375,3.40625 l 5,-3.4375 c 1.747433,1.114717 3.698083,1.896374 5.8125,2.28125 l 0.9375,5.90625 c 0.666183,0.06064 1.349349,0.0625 2.03125,0.0625 0.962685,-10e-7 1.882237,-0.03648 2.8125,-0.15625 l 1.125,-6.03125 C 30.351311,37.906649 32.237219,37.03996 33.875,35.875 l 4.8125,3.5 c 1.248028,-1.061797 2.389277,-2.282256 3.375,-3.59375 l -3.5,-5.0625 c 0.947853,-1.63699 1.604629,-3.443141 1.9375,-5.375 l 5.90625,-0.9375 c 0.05179,-0.616346 0.0625,-1.214087 0.0625,-1.84375 0,-1.094214 -0.127182,-2.167084 -0.28125,-3.21875 l -6,-1.09375 C 39.717306,16.513776 38.945824,14.893898 37.96875,13.4375 L 41.5,8.59375 C 40.405427,7.2551429 39.156822,6.0185688 37.78125,4.96875 l -5.09375,3.5 C 31.223504,7.6029126 29.648037,6.9385679 27.9375,6.5625 L 27,0.625 C 26.146701,0.52462461 25.286379,0.46875 24.40625,0.46875 c -0.237872,10e-9 -0.482684,-0.007485 -0.71875,0 -0.115083,0.003649 -0.228966,-0.006695 -0.34375,0 -0.03109,0.001813 -0.06272,-0.002123 -0.09375,0 z m 0.8125,15.1875 c 0.114166,-0.0058 0.228152,0 0.34375,0 3.699127,0 6.71875,3.019624 6.71875,6.71875 1e-6,3.699126 -3.019624,6.6875 -6.71875,6.6875 -3.699125,1e-6 -6.6875,-2.988374 -6.6875,-6.6875 1e-6,-3.583527 2.8046,-6.539158 6.34375,-6.71875 z"
       style="color:#000000;display:inline;overflow:visible;visibility:visible;opacity:1;fill:url(#linearGradient3281);fill-opacity:1;fill-rule:nonzero;stroke:#808080;stroke-width:1;stroke-linecap:butt;stroke-linejoin:miter;stroke-miterlimit:4;stroke-dasharray:none;stroke-dashoffset:0;stroke-opacity:1;marker:none;marker-start:none;marker-mid:none;marker-end:none" /><path
       transform="matrix(0.606518,0,0,0.606518,10.15021,7.936835)"
       d="m 36.239223,23.781593 a 12.727922,12.727922 0 1 1 -25.455844,0 12.727922,12.727922 0 1 1 25.455844,0 z"
       id="path3283"
       style="color:#000000;display:inline;overflow:visible;visibility:visible;opacity:0.647727;fill:none;fill-opacity:1;fill-rule:nonzero;stroke:#ffffff;stroke-width:1.64876;stroke-linecap:butt;stroke-linejoin:miter;stroke-miterlimit:4;stroke-dasharray:none;stroke-dashoffset:0;stroke-opacity:1;marker:none;marker-start:none;marker-mid:none;marker-end:none" /><path
       style="color:#000000;display:inline;overflow:visible;visibility:visible;opacity:0.346591;fill:none;fill-opacity:1;fill-rule:nonzero;stroke:#ffffff;stroke-width:1;stroke-linecap:butt;stroke-linejoin:miter;stroke-miterlimit:4;stroke-dasharray:none;stroke-dashoffset:0;stroke-opacity:1;marker:none;marker-start:none;marker-mid:none;marker-end:none"
       d="M 22.557788,1.6501132 21.679599,7.4291233 C 20.008601,7.8096689 16.934874,8.9735344 15.520595,9.8511162 L 10.848562,6.3639293 C 9.6053938,7.3290873 9.5201391,7.3945394 8.5260544,8.6136804 l 3.3780526,5.0099536 c -0.969415,1.481461 -2.1338039,4.121495 -2.5518734,6.008088 0,0 -5.9194088,0.997841 -5.9194088,0.997841 -0.1017499,0.831066 -0.05285,2.609798 0.015632,3.294198 l 5.6542436,1.018588 c 0.395814,1.932669 1.8770306,5.043588 2.9261736,6.637034 l -3.575576,4.724044 c 0.9479445,1.176832 1.1376642,1.284521 2.317393,2.229005 l 4.781168,-3.50282 c 1.637918,1.044855 4.889033,2.315886 6.870935,2.676641 l 0.784687,5.706254 c 0.624432,0.05684 2.349481,0.216281 3.221443,0.10402 l 0.878188,-5.940154 c 1.881743,-0.468289 5.13316,-1.80296 6.668298,-2.89491 l 4.776055,3.450808 c 1.169811,-0.995251 1.180292,-1.145216 2.104238,-2.374516 l -3.539198,-5.030701 c 0.888449,-1.534398 2.037228,-4.535223 2.349237,-6.346009 l 5.794642,-0.961463 c 0.04855,-0.577719 0.05091,-2.188789 -0.0935,-3.174545 L 39.463105,19.226449 C 39.022378,17.599038 37.509894,14.666467 36.594056,13.301345 L 40.346408,8.5773019 C 39.320436,7.3225876 38.938964,7.150431 37.649602,6.1664065 L 32.707289,9.7056032 C 31.335043,8.8940304 28.598675,7.6568558 26.995341,7.3043568 L 26.122266,1.6501132 c -0.799821,-0.094085 -3.107395,-0.052306 -3.564478,0 z"
       id="path3285" /></g><metadata
     id="metadata1"><rdf:RDF><cc:Work
         rdf:about=""><dc:source>https://commons.wikimedia.org/wiki/File:Emblem-system.svg</dc:source><dc:date>17:57, 12 May 2017</dc:date><dc:title>Emblem-system</dc:title><dc:creator><cc:Agent><dc:title>Sasa Stefanovic </dc:title></cc:Agent></dc:creator><cc:license
           rdf:resource="http://creativecommons.org/publicdomain/zero/1.0/" /></cc:Work><cc:License
         rdf:about="http://creativecommons.org/publicdomain/zero/1.0/"><cc:permits
           rdf:resource="http://creativecommons.org/ns#Reproduction" /><cc:permits
           rdf:resource="http://creativecommons.org/ns#Distribution" /><cc:permits
           rdf:resource="http://creativecommons.org/ns#DerivativeWorks" /></cc:License></rdf:RDF></metadata><g
     id="g19"
     transform="matrix(4.4076367,0,0,4.4076367,43.29032,52.011127)"><ellipse
       opacity="0.17"
       rx="23.9"
       ry="5.98"
       cy="39.959999"
       cx="23.92"
       fill="url(#b)"
       id="ellipse16"
       style="fill:url(#b)" /><g
       fill="#dcdcdc"
       id="g17"><path
         d="m 18.63,3.14 c -8.14,0 -14.75,6.61 -14.75,14.75 0,8.14 6.61,14.74 14.75,14.74 3.48,0 6.55,-1.38 9.1,-3.4 -0.2,1 -0.08,2.04 0.76,2.76 l 10.96,9.53 c 1.23,1.07 3.09,0.93 4.16,-0.3 1.07,-1.24 0.93,-3.09 -0.3,-4.16 L 32.34,27.53 c -0.67,-0.58 -1.49,-0.76 -2.3,-0.64 1.98,-2.52 3.36,-5.55 3.36,-9 C 33.4,9.75 26.8,3.14 18.66,3.14 Z m -0.08,1.23 c 7.64,0 13.29,4.79 13.29,13.29 0,8.68 -5.81,13.29 -13.29,13.29 -7.3,0 -13.29,-5.47 -13.29,-13.29 0,-7.98 5.82,-13.29 13.29,-13.29 z"
         stroke="url(#k)"
         stroke-linecap="round"
         stroke-width="2"
         id="path16"
         style="stroke:url(#k)" /><path
         d="m 18.6,3.08 c -8.16,0 -14.79,6.63 -14.79,14.79 0,8.17 6.63,14.8 14.79,14.8 3.49,0 6.58,-1.39 9.11,-3.42 -0.21,1 -0.08,2.04 0.75,2.77 l 11,9.56 c 1.24,1.07 3.1,0.93 4.18,-0.3 1.07,-1.24 0.93,-3.1 -0.31,-4.18 l -11,-9.56 C 31.66,26.96 30.84,26.79 30.02,26.9 32.01,24.38 33.4,21.33 33.4,17.9 33.4,9.74 26.77,3.11 18.6,3.11 M 18.53,6.3 c 6.28,0 11.38,5.09 11.38,11.38 0,6.28 -5.1,11.37 -11.38,11.37 -6.28,0 -11.38,-5.09 -11.38,-11.37 0,-6.29 5.1,-11.38 11.38,-11.38"
         id="path17" /></g><path
       d="M 39.51,41.58 C 39.03,39.3 40.9,36.77 43.09,36.79 L 32.33,27.53 c -2.94,-0.06 -4.27,2.27 -3.78,4.6 l 10.96,9.45"
       fill="url(#SVGID_3_)"
       id="path18"
       style="fill:url(#SVGID_3_)" /><circle
       cy="17.4"
       stroke="url(#c)"
       cx="18.379999"
       r="13.77"
       fill="none"
       id="circle18"
       style="stroke:url(#c)" /><ellipse
       rx="8.2299995"
       ry="2.4000001"
       cy="38.77"
       cx="20.99"
       fill="url(#s)"
       id="ellipse18"
       style="fill:url(#s)" /><circle
       cy="17.549999"
       stroke="#3063a3"
       cx="18.379999"
       r="11.62"
       fill="url(#r)"
       id="circle19"
       style="fill:url(#r)" /><path
       opacity="0.83"
       d="m 18.2,7.4 c -5.21,0 -9.43,4.21 -9.43,9.42 0,1.51 0.42,2.89 1.05,4.15 1.25,0.46 2.58,0.78 3.99,0.78 6.18,0 11.1,-4.86 11.48,-10.94 C 23.56,8.76 21.08,7.4 18.2,7.4"
       fill="url(#g)"
       id="path19"
       style="fill:url(#g)" /><rect
       opacity="0.43"
       rx="2.4679999"
       transform="matrix(0.753,0.658,-0.6489,0.7609,0,0)"
       height="5"
       width="19"
       stroke="#ffffff"
       y="-0.13"
       x="40.5"
       fill="none"
       id="rect19" /></g></svg>
