<?xml version="1.0" encoding="UTF-8" standalone="no"?>
<svg
   height="256"
   width="256"
   version="1.1"
   id="svg6"
   sodipodi:docname="preferences-desktop-feedback.svg"
   viewBox="0 0 256 256"
   inkscape:version="1.4.2 (ebf0e940d0, 2025-05-08)"
   xmlns:inkscape="http://www.inkscape.org/namespaces/inkscape"
   xmlns:sodipodi="http://sodipodi.sourceforge.net/DTD/sodipodi-0.dtd"
   xmlns:xlink="http://www.w3.org/1999/xlink"
   xmlns="http://www.w3.org/2000/svg"
   xmlns:svg="http://www.w3.org/2000/svg"
   xmlns:rdf="http://www.w3.org/1999/02/22-rdf-syntax-ns#"
   xmlns:cc="http://creativecommons.org/ns#"
   xmlns:dc="http://purl.org/dc/elements/1.1/">
  <sodipodi:namedview
     id="namedview6"
     pagecolor="#ffffff"
     bordercolor="#000000"
     borderopacity="0.25"
     inkscape:showpageshadow="2"
     inkscape:pageopacity="0.0"
     inkscape:pagecheckerboard="0"
     inkscape:deskcolor="#d1d1d1"
     inkscape:zoom="0.59234714"
     inkscape:cx="214.40131"
     inkscape:cy="527.56227"
     inkscape:current-layer="svg6" />
  <defs
     id="defs4">
    <linearGradient
       id="linearGradient11">
      <stop
         stop-color="#f5f5f5"
         offset="0"
         id="stop7" />
      <stop
         stop-color="#e9e9e9"
         offset="1"
         id="stop8"
         style="stop-color:#204a87;stop-opacity:1;" />
    </linearGradient>
    <linearGradient
       id="linearGradient6">
      <stop
         stop-color="#f5f5f5"
         offset="0"
         id="stop5" />
      <stop
         stop-color="#e9e9e9"
         offset="1"
         id="stop6"
         style="stop-color:#4e9a06;stop-opacity:1;" />
    </linearGradient>
    <linearGradient
       id="d"
       y2="24.139999"
       xlink:href="#a"
       gradientUnits="userSpaceOnUse"
       x2="27.27"
       gradientTransform="matrix(-0.9772,0,0,0.9959,50.6,9.116)"
       y1="10.96"
       x1="35" />
    <linearGradient
       id="e"
       y2="35.48"
       xlink:href="#a"
       gradientUnits="userSpaceOnUse"
       x2="49.080002"
       gradientTransform="matrix(-1.008,0,0,0.9876,61.88,0.275)"
       y1="19.99"
       x1="36.439999" />
    <linearGradient
       id="a">
      <stop
         stop-color="#f5f5f5"
         offset="0"
         id="stop1" />
      <stop
         stop-color="#e9e9e9"
         offset="1"
         id="stop2" />
    </linearGradient>
    <radialGradient
       id="b"
       gradientUnits="userSpaceOnUse"
       cy="27.639999"
       cx="29.5"
       gradientTransform="matrix(1.373,0,0,0.3785,-21.09,26.47)"
       r="11.52">
      <stop
         offset="0"
         id="stop3" />
      <stop
         stop-opacity="0"
         offset="1"
         id="stop4" />
    </radialGradient>
    <radialGradient
       inkscape:collect="always"
       xlink:href="#b"
       id="radialGradient6"
       gradientUnits="userSpaceOnUse"
       gradientTransform="matrix(1.373,0,0,0.3785,-10.34,19.97)"
       cx="29.5"
       cy="27.639999"
       r="11.52" />
    <radialGradient
       inkscape:collect="always"
       xlink:href="#b"
       id="radialGradient8"
       gradientUnits="userSpaceOnUse"
       gradientTransform="matrix(1.373,0,0,0.3785,-21.09,26.47)"
       cx="29.5"
       cy="27.639999"
       r="11.52" />
    <linearGradient
       inkscape:collect="always"
       xlink:href="#linearGradient11"
       id="linearGradient8"
       gradientUnits="userSpaceOnUse"
       gradientTransform="matrix(-1.008,0,0,0.9876,61.88,0.275)"
       x1="36.439999"
       y1="19.99"
       x2="49.080002"
       y2="35.48" />
    <linearGradient
       inkscape:collect="always"
       xlink:href="#linearGradient6"
       id="linearGradient9"
       gradientUnits="userSpaceOnUse"
       gradientTransform="matrix(-0.9772,0,0,0.9959,50.6,9.116)"
       x1="35"
       y1="10.96"
       x2="27.27"
       y2="24.139999" />
    <linearGradient
       inkscape:collect="always"
       xlink:href="#a"
       id="linearGradient10"
       gradientUnits="userSpaceOnUse"
       gradientTransform="matrix(-0.9772,0,0,0.9959,50.6,9.116)"
       x1="35"
       y1="10.96"
       x2="27.27"
       y2="24.139999" />
    <linearGradient
       inkscape:collect="always"
       xlink:href="#SVGID_XMLID_2__3"
       id="linearGradient122"
       gradientUnits="userSpaceOnUse"
       gradientTransform="matrix(2.06,0,0,2.06,-131.6958,-131.85)"
       x1="63.921398"
       y1="37.0933"
       x2="63.921398"
       y2="139.7455" />
    <linearGradient
       id="SVGID_XMLID_2__3"
       gradientUnits="userSpaceOnUse"
       x1="63.921398"
       y1="37.0933"
       x2="63.921398"
       y2="139.7455"
       gradientTransform="matrix(2.06,0,0,2.06,-131.6958,-131.85)">
      <stop
         offset="0%"
         style="stop-color:rgb(255,167,0);stop-opacity: 1"
         id="stop1-61" />
      <stop
         offset="69.1%"
         style="stop-color:rgb(255,255,0);stop-opacity: 1"
         id="stop2-5" />
      <stop
         offset="79.2%"
         style="stop-color:rgb(255,252,0);stop-opacity: 1"
         id="stop3-54" />
      <stop
         offset="85.46000000000001%"
         style="stop-color:rgb(255,244,0);stop-opacity: 1"
         id="stop4-76" />
      <stop
         offset="90.67%"
         style="stop-color:rgb(255,229,0);stop-opacity: 1"
         id="stop5-56" />
      <stop
         offset="95.3%"
         style="stop-color:rgb(255,209,0);stop-opacity: 1"
         id="stop6-9" />
      <stop
         offset="99.52%"
         style="stop-color:rgb(255,183,0);stop-opacity: 1"
         id="stop7-3-2" />
      <stop
         offset="100%"
         style="stop-color:rgb(255,179,0);stop-opacity: 1"
         id="stop8-7-8" />
    </linearGradient>
    <linearGradient
       inkscape:collect="always"
       xlink:href="#SVGID_XMLID_3__4"
       id="linearGradient123"
       gradientUnits="userSpaceOnUse"
       gradientTransform="matrix(2.06,0,0,2.06,-131.6958,-131.8528)"
       x1="63.921398"
       y1="23.105499"
       x2="63.921398"
       y2="90.603699" />
    <linearGradient
       id="SVGID_XMLID_3__4"
       gradientUnits="userSpaceOnUse"
       x1="63.921398"
       y1="23.105499"
       x2="63.921398"
       y2="90.603699"
       gradientTransform="matrix(2.06,0,0,2.06,-131.6958,-131.8528)">
      <stop
         offset="0.5599999999999999%"
         style="stop-color:rgb(255,255,255);stop-opacity: 1"
         id="stop9-1" />
      <stop
         offset="14.71%"
         style="stop-color:rgb(255,250,225);stop-opacity: 1"
         id="stop10-0" />
      <stop
         offset="45.62%"
         style="stop-color:rgb(255,238,148);stop-opacity: 1"
         id="stop11-6" />
      <stop
         offset="90.69%"
         style="stop-color:rgb(255,219,26);stop-opacity: 1"
         id="stop12-3" />
      <stop
         offset="100%"
         style="stop-color:rgb(255,215,0);stop-opacity: 1"
         id="stop13-20" />
    </linearGradient>
    <linearGradient
       inkscape:collect="always"
       xlink:href="#SVGID_XMLID_6__5"
       id="linearGradient124"
       gradientUnits="userSpaceOnUse"
       gradientTransform="matrix(2.06,0,0,2.06,-131.6958,-131.84)"
       x1="2.9863"
       y1="11.0728"
       x2="147.2142"
       y2="159.6219" />
    <linearGradient
       id="SVGID_XMLID_6__5"
       gradientUnits="userSpaceOnUse"
       x1="2.9863"
       y1="11.0728"
       x2="147.2142"
       y2="159.6219"
       gradientTransform="matrix(2.06,0,0,2.06,-131.6958,-131.84)">
      <stop
         offset="0%"
         style="stop-color:rgb(217,106,0);stop-opacity: 1"
         id="stop14-03" />
      <stop
         offset="100%"
         style="stop-color:rgb(167,66,0);stop-opacity: 1"
         id="stop15-6" />
    </linearGradient>
    <linearGradient
       inkscape:collect="always"
       xlink:href="#SVGID_XMLID_2__3"
       id="linearGradient12"
       gradientUnits="userSpaceOnUse"
       gradientTransform="matrix(2.06,0,0,2.06,-131.6958,-131.85)"
       x1="63.921398"
       y1="37.0933"
       x2="63.921398"
       y2="139.7455" />
    <linearGradient
       inkscape:collect="always"
       xlink:href="#SVGID_XMLID_3__4"
       id="linearGradient13"
       gradientUnits="userSpaceOnUse"
       gradientTransform="matrix(2.06,0,0,2.06,-131.6958,-131.8528)"
       x1="63.921398"
       y1="23.105499"
       x2="63.921398"
       y2="90.603699" />
    <linearGradient
       inkscape:collect="always"
       xlink:href="#SVGID_XMLID_6__5"
       id="linearGradient14"
       gradientUnits="userSpaceOnUse"
       gradientTransform="matrix(2.06,0,0,2.06,-131.6958,-131.84)"
       x1="2.9863"
       y1="11.0728"
       x2="147.2142"
       y2="159.6219" />
    <linearGradient
       inkscape:collect="always"
       xlink:href="#SVGID_XMLID_2__3"
       id="linearGradient15"
       gradientUnits="userSpaceOnUse"
       gradientTransform="matrix(2.06,0,0,2.06,-131.6958,-131.85)"
       x1="63.921398"
       y1="37.0933"
       x2="63.921398"
       y2="139.7455" />
    <linearGradient
       inkscape:collect="always"
       xlink:href="#SVGID_XMLID_3__4"
       id="linearGradient16"
       gradientUnits="userSpaceOnUse"
       gradientTransform="matrix(2.06,0,0,2.06,-131.6958,-131.8528)"
       x1="63.921398"
       y1="23.105499"
       x2="63.921398"
       y2="90.603699" />
    <linearGradient
       inkscape:collect="always"
       xlink:href="#SVGID_XMLID_6__5"
       id="linearGradient17"
       gradientUnits="userSpaceOnUse"
       gradientTransform="matrix(2.06,0,0,2.06,-131.6958,-131.84)"
       x1="2.9863"
       y1="11.0728"
       x2="147.2142"
       y2="159.6219" />
  </defs>
  <g
     id="g8"
     transform="matrix(5.9896217,0,0,5.9896217,-20.562635,-17.83731)">
    <ellipse
       id="use4"
       opacity="0.12"
       rx="15.81"
       ry="4.3590002"
       cy="30.439999"
       cx="30.16"
       fill="url(#b)"
       style="fill:url(#radialGradient6)" />
    <ellipse
       id="c"
       opacity="0.12"
       rx="15.81"
       ry="4.3590002"
       cy="36.939999"
       cx="19.41"
       fill="url(#b)"
       style="fill:url(#radialGradient8)" />
    <g
       fill="url(#d)"
       id="g6"
       style="fill:url(#d)">
      <g
         id="f"
         style="fill:url(#linearGradient10)">
        <path
           stroke="#787878"
           d="m 31.64,17.39 v 15.19 c 0,1.059 -0.823,1.898 -1.862,1.898 h -13.71 c -0.831,1.113 -2.504,2.928 -6.427,4.41 1.725,-2.066 1.827,-3.459 1.632,-4.41 H 8.464 c -1.039,0 -1.893,-0.839 -1.893,-1.898 V 17.39 c 0,-1.059 0.854,-1.93 1.893,-1.93 h 21.32 c 1.039,0 1.862,0.871 1.862,1.93 z"
           id="path5"
           style="fill:url(#linearGradient9)" />
        <path
           stroke="#ffffff"
           fill="none"
           d="m 30.62,17.88 v 14.2 c 0,0.96 -0.242,1.368 -1.184,1.368 h -13.9 c -0.753,1.01 -2.068,2.596 -3.511,3.251 0.403,-1.167 0.248,-2.136 0.173,-3.251 H 8.791 C 7.849,33.448 7.579,33.04 7.579,32.08 V 18 c 0,-0.96 0.27,-1.548 1.212,-1.548 h 20.6 c 0.943,0 1.235,0.461 1.235,1.422 z"
           id="path6" />
      </g>
    </g>
    <g
       id="use5"
       style="fill:url(#e);stroke-width:0.99"
       transform="matrix(-1.03,0,0,0.98980001,49.08,-8.724)">
      <path
         stroke="#787878"
         d="m 31.64,17.39 v 15.19 c 0,1.059 -0.823,1.898 -1.862,1.898 h -13.71 c -0.831,1.113 -2.504,2.928 -6.427,4.41 1.725,-2.066 1.827,-3.459 1.632,-4.41 H 8.464 c -1.039,0 -1.893,-0.839 -1.893,-1.898 V 17.39 c 0,-1.059 0.854,-1.93 1.893,-1.93 h 21.32 c 1.039,0 1.862,0.871 1.862,1.93 z"
         id="path7"
         style="fill:url(#linearGradient8)" />
      <path
         stroke="#ffffff"
         fill="none"
         d="m 30.62,17.88 v 14.2 c 0,0.96 -0.242,1.368 -1.184,1.368 h -13.9 c -0.753,1.01 -2.068,2.596 -3.511,3.251 0.403,-1.167 0.248,-2.136 0.173,-3.251 H 8.791 C 7.849,33.448 7.579,33.04 7.579,32.08 V 18 c 0,-0.96 0.27,-1.548 1.212,-1.548 h 20.6 c 0.943,0 1.235,0.461 1.235,1.422 z"
         id="path8" />
    </g>
  </g>
  <g
     id="g19"
     transform="matrix(0.1562228,0,0,0.1562228,123.29659,32.035153)">
    <g
       transform="matrix(0.88776019,-0.00675962,0.00675962,0.88776019,-54.704768,246.61776)"
       id="g16"
       style="clip-rule:nonzero;display:inline;fill-rule:nonzero;stroke:none;stroke-width:0;stroke-miterlimit:4">
      <path
         style="fill:url(#linearGradient12);fill-rule:nonzero;stroke:none;stroke-width:2.06;stroke-linecap:butt;stroke-linejoin:miter;stroke-miterlimit:4;stroke-dasharray:none;stroke-dashoffset:0"
         vector-effect="non-scaling-stroke"
         d="m 125.3098,-27.91888 c -0.62006,-1.9776 -2.6677,-5.36012 -9.40596,-5.77418 L 44.4754,-37.92842 c -4.08704,-0.24308 -9.1052,-3.96756 -10.53278,-7.828 L 9.1361,-112.87946 c -2.35458,-6.32214 -6.16764,-7.29034 -8.24,-7.31094 -2.06618,-0.0227 -5.89984,0.88992 -8.35742,7.16674 l -26.1002,66.6101 c -1.52646,3.88104 -6.5302,7.44278 -10.69758,7.60758 l -71.48612,2.88812 c -6.72384,0.23278 -8.84358,3.55556 -9.50896,5.51668 -0.66538,1.96112 -0.99498,5.89366 4.23742,10.19288 l 55.27598,45.3921 c 3.2033,2.65946 5.04906,8.53458 3.92224,12.55364 l -19.3846,68.84108 c -1.81692,6.489 0.69422,9.51926 2.3484,10.75114 1.66448,1.23188 5.29832,2.75628 10.99422,-0.87344 L -7.59728,77.93628 c 3.52672,-2.26188 9.67376,-2.21244 13.16134,0.10506 l 59.48662,39.71886 c 5.6135,3.75332 9.28236,2.29278 10.97156,1.08974 1.6892,-1.20304 4.26008,-4.20034 2.53792,-10.72642 L 60.52692,38.8931 c -1.03,-3.96756 0.95378,-9.88182 4.16326,-12.4115 l 56.19062,-44.31678 c 5.29008,-4.17562 5.04906,-8.1061 4.429,-10.0837 z"
         stroke-linecap="round"
         id="path8-4" />
      <path
         style="fill:url(#linearGradient13);fill-rule:nonzero;stroke:none;stroke-width:2.06;stroke-linecap:butt;stroke-linejoin:miter;stroke-miterlimit:4;stroke-dasharray:none;stroke-dashoffset:0"
         vector-effect="non-scaling-stroke"
         d="m 64.36676,14.1085 36.82662,-29.046 c 4.429,-3.49376 4.22506,-6.78564 3.70594,-8.44188 -0.515,-1.65624 -2.22892,-4.48668 -7.87332,-4.83276 L 37.22832,-31.7574 c -3.42372,-0.20188 -7.61994,-3.32072 -8.81474,-6.55286 L 7.64466,-94.50294 c -1.9673,-5.29214 -5.16236,-6.10172 -6.89482,-6.12026 -1.7304,-0.0185 -4.93988,0.74572 -6.99576,5.99872 l -21.85248,55.7642 c -1.2772,3.24862 -5.46518,6.2315 -8.95482,6.36746 l -59.84506,2.41844 c -5.62792,0.19364 -7.40364,2.97464 -7.95984,4.61852 -0.5562,1.64182 -0.8343,4.9337 3.54732,8.53252 l 46.27172,38.00082 c 2.68212,2.2248 4.22712,7.14614 3.28364,10.51012 l -0.51706,1.8437 c 6.43544,0.48204 12.9677,0.76014 19.60502,0.76014 36.24364,0 69.74748,-7.46132 97.03424,-20.08294 z"
         stroke-linecap="round"
         id="path13" />
      <path
         style="opacity:0.3;fill:#e89500;fill-rule:nonzero;stroke:none;stroke-width:2.06;stroke-linecap:butt;stroke-linejoin:miter;stroke-miterlimit:4;stroke-dasharray:none;stroke-dashoffset:0"
         vector-effect="non-scaling-stroke"
         d="M 5.56686,65.13248 C 2.07928,62.55336 -4.06776,62.50186 -7.59448,65.01506 l -60.26324,51.0777 c -5.6959,4.03554 -9.3318,2.34222 -10.99422,0.97026 -1.18244,-0.9785 -2.781,-3.01378 -2.94168,-6.71972 -0.14626,3.9758 1.64594,6.07082 2.94168,7.03696 1.66448,1.23188 5.29832,2.75628 10.99422,-0.87344 L -7.59448,77.98688 C -4.06776,75.725 2.07928,75.77444 5.56686,78.09194 l 59.48662,39.71886 c 2.80366,1.8746 5.12528,2.44934 6.95662,2.40196 -1.83134,0.0515 -4.15296,-0.5871 -6.95662,-2.67182 z"
         stroke-linecap="round"
         id="path14-5" />
      <g
         id="path15">
        <path
           style="color:#000000;vector-effect:non-scaling-stroke;fill:url(#linearGradient14);-inkscape-stroke:none"
           d="m -8.41922,-113.38858 -26.1002,66.60804 c -1.37402,3.4917 -6.0358,6.80624 -9.77882,6.95456 l -71.48818,2.88812 c -7.34184,0.25338 -9.69436,4.00258 -10.44214,6.21708 -0.74778,2.2145 -1.1536,6.62702 4.55878,11.31764 l 55.27392,45.39416 c 2.88606,2.39372 4.59586,7.86508 3.5844,11.47832 l -19.3846,68.84108 c -1.98172,7.07816 0.85696,10.4648 2.72538,11.85324 1.8746,1.39256 5.94722,3.1312 12.16224,-0.82812 0,-0.004 60.26324,-38.51994 60.26324,-38.51994 3.17034,-2.03116 8.90538,-1.9879 12.03452,0.0927 l 59.48662,39.71886 c 6.12438,4.09528 10.23614,2.4308 12.1437,1.07326 1.46878,-1.0506 3.54114,-3.28364 3.54114,-7.53136 0,-1.25042 -0.17716,-2.67594 -0.6077,-4.29716 L 61.5219,38.6456 c -0.16068,-0.6283 -0.2369,-1.32046 -0.2369,-2.0394 0,-3.3681 1.67272,-7.43454 4.04378,-9.30708 l 56.19062,-44.31678 c 4.11176,-3.2445 5.14176,-6.4169 5.14176,-8.77972 0,-0.95584 -0.16892,-1.77984 -0.3708,-2.4205 -0.69628,-2.23098 -2.96434,-6.04198 -10.32884,-6.49312 l -71.42844,-4.23536 c -3.66886,-0.21836 -8.34918,-3.69564 -9.62844,-7.1585 l -24.8024,-67.12098 c -2.56676,-6.89482 -6.86186,-7.95984 -9.19378,-7.9825 -2.32986,-0.0268 -6.63938,0.95584 -9.32768,7.81976 z m -69.82164,229.90012 c -1.44406,-1.0712 -3.61942,-3.75332 -1.96936,-9.64492 l 19.3846,-68.83696 c 1.24424,-4.44136 -0.70452,-10.68316 -4.25596,-13.6269 -0.0062,-0.0041 -55.2801,-45.39622 -55.2801,-45.39622 -4.75448,-3.90576 -4.49492,-7.35626 -3.91606,-9.06606 0.57886,-1.7098 2.45964,-4.60616 8.56754,-4.81834 0.006,0 71.49436,-2.88812 71.49436,-2.88812 4.6041,-0.18128 9.92302,-3.96344 11.61428,-8.25854 l 26.1002,-66.6101 c 2.2351,-5.71238 5.58672,-6.53226 7.38716,-6.51166 1.80456,0.0165 5.14794,0.90228 7.28416,6.63938 l 24.80446,67.11892 c 1.57384,4.26008 6.91542,8.23176 11.43918,8.49956 l 71.42844,4.23536 c 6.12438,0.37698 7.9413,3.3269 8.48102,5.05318 v 0 c 0.53972,1.7201 0.72924,5.17266 -4.0788,8.96718 L 64.05158,25.68202 c -3.54938,2.79542 -5.66088,9.09284 -4.5217,13.4827 l 18.03324,69.23042 c 1.5656,5.93074 -0.66744,8.57372 -2.13622,9.62844 -1.4729,1.04648 -4.7071,2.2969 -9.8056,-1.11034 L 6.13468,77.19438 C 2.28454,74.63586 -4.25802,74.5823 -8.15348,77.08108 l -60.26118,38.51582 c -5.17472,3.296 -8.37802,1.9879 -9.8262,0.91464 z M 126.29036,-28.21788 Z"
           id="path5-1" />
        <path
           style="color:#000000;vector-effect:non-scaling-stroke;fill:#e19600;-inkscape-stroke:none"
           d="m 1.0625,-135.85937 c -6.6593861,-0.0696 -18.675158,5.76037 -23.126953,17.12695 l -25.21875,64.363279 -69.095707,2.789063 0.0879,-0.002 c -12.21373,0.421518 -21.69607,9.88304 -23.82031,16.173828 -2.12119,6.28178 -0.31709,19.563127 9.14063,27.330078 l 53.410153,43.861328 -18.74414,66.566404 -0.002,0.01 c -3.288392,11.74523 2.77423,23.61197 8.095704,27.5664 h 0.002 c 5.343243,3.96927 18.472378,6.32994 28.773437,-0.23242 l 0.06641,-0.041 c 1e-6,0 0.002,-0.002 0.002,-0.002 l 0.01172,-0.008 c 0.02278,-0.0146 0.06563,-0.0407 0.121094,-0.0762 0.04049,-0.0259 0.126117,-0.0817 0.181641,-0.11719 l 6.398437,-4.07422 v -0.0156 c 0.942179,-0.6023 1.555839,-0.99511 2.654297,-1.69727 5.649285,-3.61118 13.182043,-8.42556 20.714844,-13.24023 14.070627,-8.99341 26.3434585,-16.839661 28.1406248,-17.988283 L 56.330078,130.80859 c 0.002,10e-4 0.0039,0.003 0.0059,0.004 l 0.0039,0.002 c 10.167424,6.79185 23.375001,4.66748 28.77539,0.82422 l 0.01563,-0.01 0.01367,-0.01 c 4.155305,-2.97224 9.669922,-10.43546 9.669922,-19.44922 0,-2.63449 -0.378091,-5.34168 -1.099609,-8.05859 l 0.01953,0.0664 -17.40625,-66.830074 c 0.0018,0.05361 -0.501183,0.353057 -1.777344,1.345703 l -0.002,-0.0039 1.740234,-1.373047 c 0.0074,0.0036 0.03284,0.01507 0.03516,0.01953 l -0.0098,-0.03906 54.281249,-42.8105469 c 6.82403,-5.3846911 10.71875,-13.6619011 10.71875,-20.2832031 0,-2.672873 -0.46565,-4.964942 -1.04297,-6.802734 -1.98782,-6.339748 -11.21495,-15.990979 -23.41406,-16.738282 h -0.0137 l -69.02344,-4.09375 -23.978515,-64.890626 -0.0059,-0.0156 C 19.578755,-129.77352 7.6825812,-135.78908 1.0625,-135.85937 Z m -0.042969,2.06054 h 0.033203 c -0.0052,-6e-5 -0.012375,0.004 -0.017578,0.004 -0.00465,-5e-5 -0.010982,-0.004 -0.015625,-0.004 z M 0.625,-90.65625 19.230469,-40.308594 c 2.141542,5.795015 5.658628,9.485785 9.617187,12.427735 3.959145,2.942384 8.511048,5.254763 14.699219,5.621093 l 53.603516,3.177735 -42.171875,33.257812 c -4.862353,3.831934 -7.274159,8.32138 -8.839844,12.990235 -1.566424,4.671056 -2.343373,9.705165 -0.792969,15.679687 l 0.002,0.0059 L 58.877,94.791057 14.25786,64.998088 14.24419,64.990288 C 4.0991827,58.248641 -5.8126664,58.17194 -16.064453,64.748047 l -45.197266,28.884765 14.542969,-51.640625 0.0039,-0.0098 c 3.27845,-11.702544 0.343503,-21.103675 -9.015625,-28.861328 l -0.06836,-0.05664 c -6e-6,-5e-6 -0.0019,-0.0019 -0.002,-0.002 -0.0046,-0.0038 -0.0137,-0.0099 -0.02539,-0.01953 l -0.513672,-0.425781 -0.01563,-0.0098 c -0.02051,-0.01684 -0.02724,-0.02329 -0.04883,-0.04102 -0.404855,-0.332421 -0.999946,-0.818728 -1.755859,-1.439453 -1.511766,-1.2413311 -3.670302,-3.0144514 -6.261659,-5.14246 C -69.604589,1.7283578 -76.51423,-3.9468448 -83.423828,-9.6210938 -90.331833,-15.294034 -92.058623,-16.711561 -97.240234,-20.966797 -76.803855,-21.788935 -43.625,-23.125 -43.625,-23.125 c 12.159104,-0.483008 20.205775,-6.223926 24.658203,-17.53125 l 0.0039,-0.01172 z m -46.623047,38.087891 c 0.03659,0.01733 0.164539,0.01193 0.212891,0.02734 l -0.06836,0.175782 c -0.0055,2.21e-4 -0.181085,0.0076 -0.1875,0.0078 0.0011,-0.05106 0.04776,-0.170566 0.04297,-0.210937 z m 184.302737,20.582031 0.004,0.01367 c -6e-4,-0.0019 -0.003,-0.0039 -0.004,-0.0059 -6.7e-4,-0.0021 6.7e-4,-0.0057 0,-0.0078 z M -75.351562,34.929687 c 0.03896,0.03199 0.10605,0.0872 0.142578,0.117188 l -0.04687,0.173828 c -0.04916,-0.01785 -0.144825,-0.09684 -0.185547,-0.105469 0.0276,-0.02927 0.06067,-0.144744 0.08984,-0.185547 z m 74.2363276,55.042969 0.15625002,0.105469 c -0.0300572,0.03972 -0.13472702,0.105863 -0.15429682,0.140625 -0.019527,-0.03565 -0.1240179,-0.105531 -0.1542969,-0.146484 z"
           id="path10" />
      </g>
    </g>
    <g
       transform="matrix(0.88776019,-0.00675962,0.00675962,0.88776019,199.58095,246.61776)"
       id="g18"
       style="clip-rule:nonzero;display:inline;fill-rule:nonzero;stroke:none;stroke-width:0;stroke-miterlimit:4">
      <path
         style="fill:url(#linearGradient15);fill-rule:nonzero;stroke:none;stroke-width:2.06;stroke-linecap:butt;stroke-linejoin:miter;stroke-miterlimit:4;stroke-dasharray:none;stroke-dashoffset:0"
         vector-effect="non-scaling-stroke"
         d="m 125.3098,-27.91888 c -0.62006,-1.9776 -2.6677,-5.36012 -9.40596,-5.77418 L 44.4754,-37.92842 c -4.08704,-0.24308 -9.1052,-3.96756 -10.53278,-7.828 L 9.1361,-112.87946 c -2.35458,-6.32214 -6.16764,-7.29034 -8.24,-7.31094 -2.06618,-0.0227 -5.89984,0.88992 -8.35742,7.16674 l -26.1002,66.6101 c -1.52646,3.88104 -6.5302,7.44278 -10.69758,7.60758 l -71.48612,2.88812 c -6.72384,0.23278 -8.84358,3.55556 -9.50896,5.51668 -0.66538,1.96112 -0.99498,5.89366 4.23742,10.19288 l 55.27598,45.3921 c 3.2033,2.65946 5.04906,8.53458 3.92224,12.55364 l -19.3846,68.84108 c -1.81692,6.489 0.69422,9.51926 2.3484,10.75114 1.66448,1.23188 5.29832,2.75628 10.99422,-0.87344 L -7.59728,77.93628 c 3.52672,-2.26188 9.67376,-2.21244 13.16134,0.10506 l 59.48662,39.71886 c 5.6135,3.75332 9.28236,2.29278 10.97156,1.08974 1.6892,-1.20304 4.26008,-4.20034 2.53792,-10.72642 L 60.52692,38.8931 c -1.03,-3.96756 0.95378,-9.88182 4.16326,-12.4115 l 56.19062,-44.31678 c 5.29008,-4.17562 5.04906,-8.1061 4.429,-10.0837 z"
         stroke-linecap="round"
         id="path11" />
      <path
         style="fill:url(#linearGradient16);fill-rule:nonzero;stroke:none;stroke-width:2.06;stroke-linecap:butt;stroke-linejoin:miter;stroke-miterlimit:4;stroke-dasharray:none;stroke-dashoffset:0"
         vector-effect="non-scaling-stroke"
         d="m 64.36676,14.1085 36.82662,-29.046 c 4.429,-3.49376 4.22506,-6.78564 3.70594,-8.44188 -0.515,-1.65624 -2.22892,-4.48668 -7.87332,-4.83276 L 37.22832,-31.7574 c -3.42372,-0.20188 -7.61994,-3.32072 -8.81474,-6.55286 L 7.64466,-94.50294 c -1.9673,-5.29214 -5.16236,-6.10172 -6.89482,-6.12026 -1.7304,-0.0185 -4.93988,0.74572 -6.99576,5.99872 l -21.85248,55.7642 c -1.2772,3.24862 -5.46518,6.2315 -8.95482,6.36746 l -59.84506,2.41844 c -5.62792,0.19364 -7.40364,2.97464 -7.95984,4.61852 -0.5562,1.64182 -0.8343,4.9337 3.54732,8.53252 l 46.27172,38.00082 c 2.68212,2.2248 4.22712,7.14614 3.28364,10.51012 l -0.51706,1.8437 c 6.43544,0.48204 12.9677,0.76014 19.60502,0.76014 36.24364,0 69.74748,-7.46132 97.03424,-20.08294 z"
         stroke-linecap="round"
         id="path12" />
      <path
         style="opacity:0.3;fill:#e89500;fill-rule:nonzero;stroke:none;stroke-width:2.06;stroke-linecap:butt;stroke-linejoin:miter;stroke-miterlimit:4;stroke-dasharray:none;stroke-dashoffset:0"
         vector-effect="non-scaling-stroke"
         d="M 5.56686,65.13248 C 2.07928,62.55336 -4.06776,62.50186 -7.59448,65.01506 l -60.26324,51.0777 c -5.6959,4.03554 -9.3318,2.34222 -10.99422,0.97026 -1.18244,-0.9785 -2.781,-3.01378 -2.94168,-6.71972 -0.14626,3.9758 1.64594,6.07082 2.94168,7.03696 1.66448,1.23188 5.29832,2.75628 10.99422,-0.87344 L -7.59448,77.98688 C -4.06776,75.725 2.07928,75.77444 5.56686,78.09194 l 59.48662,39.71886 c 2.80366,1.8746 5.12528,2.44934 6.95662,2.40196 -1.83134,0.0515 -4.15296,-0.5871 -6.95662,-2.67182 z"
         stroke-linecap="round"
         id="path14" />
      <g
         id="g17">
        <path
           style="color:#000000;vector-effect:non-scaling-stroke;fill:url(#linearGradient17);-inkscape-stroke:none"
           d="m -8.41922,-113.38858 -26.1002,66.60804 c -1.37402,3.4917 -6.0358,6.80624 -9.77882,6.95456 l -71.48818,2.88812 c -7.34184,0.25338 -9.69436,4.00258 -10.44214,6.21708 -0.74778,2.2145 -1.1536,6.62702 4.55878,11.31764 l 55.27392,45.39416 c 2.88606,2.39372 4.59586,7.86508 3.5844,11.47832 l -19.3846,68.84108 c -1.98172,7.07816 0.85696,10.4648 2.72538,11.85324 1.8746,1.39256 5.94722,3.1312 12.16224,-0.82812 0,-0.004 60.26324,-38.51994 60.26324,-38.51994 3.17034,-2.03116 8.90538,-1.9879 12.03452,0.0927 l 59.48662,39.71886 c 6.12438,4.09528 10.23614,2.4308 12.1437,1.07326 1.46878,-1.0506 3.54114,-3.28364 3.54114,-7.53136 0,-1.25042 -0.17716,-2.67594 -0.6077,-4.29716 L 61.5219,38.6456 c -0.16068,-0.6283 -0.2369,-1.32046 -0.2369,-2.0394 0,-3.3681 1.67272,-7.43454 4.04378,-9.30708 l 56.19062,-44.31678 c 4.11176,-3.2445 5.14176,-6.4169 5.14176,-8.77972 0,-0.95584 -0.16892,-1.77984 -0.3708,-2.4205 -0.69628,-2.23098 -2.96434,-6.04198 -10.32884,-6.49312 l -71.42844,-4.23536 c -3.66886,-0.21836 -8.34918,-3.69564 -9.62844,-7.1585 l -24.8024,-67.12098 c -2.56676,-6.89482 -6.86186,-7.95984 -9.19378,-7.9825 -2.32986,-0.0268 -6.63938,0.95584 -9.32768,7.81976 z m -69.82164,229.90012 c -1.44406,-1.0712 -3.61942,-3.75332 -1.96936,-9.64492 l 19.3846,-68.83696 c 1.24424,-4.44136 -0.70452,-10.68316 -4.25596,-13.6269 -0.0062,-0.0041 -55.2801,-45.39622 -55.2801,-45.39622 -4.75448,-3.90576 -4.49492,-7.35626 -3.91606,-9.06606 0.57886,-1.7098 2.45964,-4.60616 8.56754,-4.81834 0.006,0 71.49436,-2.88812 71.49436,-2.88812 4.6041,-0.18128 9.92302,-3.96344 11.61428,-8.25854 l 26.1002,-66.6101 c 2.2351,-5.71238 5.58672,-6.53226 7.38716,-6.51166 1.80456,0.0165 5.14794,0.90228 7.28416,6.63938 l 24.80446,67.11892 c 1.57384,4.26008 6.91542,8.23176 11.43918,8.49956 l 71.42844,4.23536 c 6.12438,0.37698 7.9413,3.3269 8.48102,5.05318 v 0 c 0.53972,1.7201 0.72924,5.17266 -4.0788,8.96718 L 64.05158,25.68202 c -3.54938,2.79542 -5.66088,9.09284 -4.5217,13.4827 l 18.03324,69.23042 c 1.5656,5.93074 -0.66744,8.57372 -2.13622,9.62844 -1.4729,1.04648 -4.7071,2.2969 -9.8056,-1.11034 L 6.13468,77.19438 C 2.28454,74.63586 -4.25802,74.5823 -8.15348,77.08108 l -60.26118,38.51582 c -5.17472,3.296 -8.37802,1.9879 -9.8262,0.91464 z M 126.29036,-28.21788 Z"
           id="path16" />
        <path
           style="color:#000000;vector-effect:non-scaling-stroke;fill:#e19600;-inkscape-stroke:none"
           d="m 1.0625,-135.85937 c -6.6593861,-0.0696 -18.675158,5.76037 -23.126953,17.12695 l -25.21875,64.363279 -69.095707,2.789063 0.0879,-0.002 c -12.21373,0.421518 -21.69607,9.88304 -23.82031,16.173828 -2.12119,6.28178 -0.31709,19.563127 9.14063,27.330078 l 53.410153,43.861328 -18.74414,66.566404 -0.002,0.01 c -3.288392,11.74523 2.77423,23.61197 8.095704,27.5664 h 0.002 c 5.343243,3.96927 18.472378,6.32994 28.773437,-0.23242 l 0.06641,-0.041 c 1e-6,0 0.002,-0.002 0.002,-0.002 l 0.01172,-0.008 c 0.02278,-0.0146 0.06563,-0.0407 0.121094,-0.0762 0.04049,-0.0259 0.126117,-0.0817 0.181641,-0.11719 l 6.398437,-4.07422 v -0.0156 c 0.942179,-0.6023 1.555839,-0.99511 2.654297,-1.69727 5.649285,-3.61118 13.182043,-8.42556 20.714844,-13.24023 14.070627,-8.99341 26.3434585,-16.839661 28.1406248,-17.988283 L 56.330078,130.80859 c 0.002,10e-4 0.0039,0.003 0.0059,0.004 l 0.0039,0.002 c 10.167424,6.79185 23.375001,4.66748 28.77539,0.82422 l 0.01563,-0.01 0.01367,-0.01 c 4.155305,-2.97224 9.669922,-10.43546 9.669922,-19.44922 0,-2.63449 -0.378091,-5.34168 -1.099609,-8.05859 l 0.01953,0.0664 -17.40625,-66.830074 c 0.0018,0.05361 -0.501183,0.353057 -1.777344,1.345703 l -0.002,-0.0039 1.740234,-1.373047 c 0.0074,0.0036 0.03284,0.01507 0.03516,0.01953 l -0.0098,-0.03906 54.281249,-42.8105469 c 6.82403,-5.3846911 10.71875,-13.6619011 10.71875,-20.2832031 0,-2.672873 -0.46565,-4.964942 -1.04297,-6.802734 -1.98782,-6.339748 -11.21495,-15.990979 -23.41406,-16.738282 h -0.0137 l -69.02344,-4.09375 -23.978515,-64.890626 -0.0059,-0.0156 C 19.578755,-129.77352 7.6825812,-135.78908 1.0625,-135.85937 Z m -0.042969,2.06054 h 0.033203 c -0.0052,-6e-5 -0.012375,0.004 -0.017578,0.004 -0.00465,-5e-5 -0.010982,-0.004 -0.015625,-0.004 z M 0.625,-90.65625 19.230469,-40.308594 c 2.141542,5.795015 5.658628,9.485785 9.617187,12.427735 3.959145,2.942384 8.511048,5.254763 14.699219,5.621093 l 53.603516,3.177735 -42.171875,33.257812 c -4.862353,3.831934 -7.274159,8.32138 -8.839844,12.990235 -1.566424,4.671056 -2.343373,9.705165 -0.792969,15.679687 l 0.002,0.0059 L 58.877,94.791057 14.25786,64.998088 14.24419,64.990288 C 4.0991827,58.248641 -5.8126664,58.17194 -16.064453,64.748047 l -45.197266,28.884765 14.542969,-51.640625 0.0039,-0.0098 c 3.27845,-11.702544 0.343503,-21.103675 -9.015625,-28.861328 l -0.06836,-0.05664 c -6e-6,-5e-6 -0.0019,-0.0019 -0.002,-0.002 -0.0046,-0.0038 -0.0137,-0.0099 -0.02539,-0.01953 l -0.513672,-0.425781 -0.01563,-0.0098 c -0.02051,-0.01684 -0.02724,-0.02329 -0.04883,-0.04102 -0.404855,-0.332421 -0.999946,-0.818728 -1.755859,-1.439453 -1.511766,-1.2413311 -3.670302,-3.0144514 -6.261659,-5.14246 C -69.604589,1.7283578 -76.51423,-3.9468448 -83.423828,-9.6210938 -90.331833,-15.294034 -92.058623,-16.711561 -97.240234,-20.966797 -76.803855,-21.788935 -43.625,-23.125 -43.625,-23.125 c 12.159104,-0.483008 20.205775,-6.223926 24.658203,-17.53125 l 0.0039,-0.01172 z m -46.623047,38.087891 c 0.03659,0.01733 0.164539,0.01193 0.212891,0.02734 l -0.06836,0.175782 c -0.0055,2.21e-4 -0.181085,0.0076 -0.1875,0.0078 0.0011,-0.05106 0.04776,-0.170566 0.04297,-0.210937 z m 184.302737,20.582031 0.004,0.01367 c -6e-4,-0.0019 -0.003,-0.0039 -0.004,-0.0059 -6.7e-4,-0.0021 6.7e-4,-0.0057 0,-0.0078 z M -75.351562,34.929687 c 0.03896,0.03199 0.10605,0.0872 0.142578,0.117188 l -0.04687,0.173828 c -0.04916,-0.01785 -0.144825,-0.09684 -0.185547,-0.105469 0.0276,-0.02927 0.06067,-0.144744 0.08984,-0.185547 z m 74.2363276,55.042969 0.15625002,0.105469 c -0.0300572,0.03972 -0.13472702,0.105863 -0.15429682,0.140625 -0.019527,-0.03565 -0.1240179,-0.105531 -0.1542969,-0.146484 z"
           id="path17" />
      </g>
    </g>
    <g
       transform="matrix(0.88776019,-0.00675962,0.00675962,0.88776019,451.00953,246.61776)"
       id="g25"
       style="clip-rule:nonzero;display:inline;fill-rule:nonzero;stroke:none;stroke-width:0;stroke-miterlimit:4">
      <path
         style="fill:url(#linearGradient122);fill-rule:nonzero;stroke:none;stroke-width:2.06;stroke-linecap:butt;stroke-linejoin:miter;stroke-miterlimit:4;stroke-dasharray:none;stroke-dashoffset:0"
         vector-effect="non-scaling-stroke"
         d="m 125.3098,-27.91888 c -0.62006,-1.9776 -2.6677,-5.36012 -9.40596,-5.77418 L 44.4754,-37.92842 c -4.08704,-0.24308 -9.1052,-3.96756 -10.53278,-7.828 L 9.1361,-112.87946 c -2.35458,-6.32214 -6.16764,-7.29034 -8.24,-7.31094 -2.06618,-0.0227 -5.89984,0.88992 -8.35742,7.16674 l -26.1002,66.6101 c -1.52646,3.88104 -6.5302,7.44278 -10.69758,7.60758 l -71.48612,2.88812 c -6.72384,0.23278 -8.84358,3.55556 -9.50896,5.51668 -0.66538,1.96112 -0.99498,5.89366 4.23742,10.19288 l 55.27598,45.3921 c 3.2033,2.65946 5.04906,8.53458 3.92224,12.55364 l -19.3846,68.84108 c -1.81692,6.489 0.69422,9.51926 2.3484,10.75114 1.66448,1.23188 5.29832,2.75628 10.99422,-0.87344 L -7.59728,77.93628 c 3.52672,-2.26188 9.67376,-2.21244 13.16134,0.10506 l 59.48662,39.71886 c 5.6135,3.75332 9.28236,2.29278 10.97156,1.08974 1.6892,-1.20304 4.26008,-4.20034 2.53792,-10.72642 L 60.52692,38.8931 c -1.03,-3.96756 0.95378,-9.88182 4.16326,-12.4115 l 56.19062,-44.31678 c 5.29008,-4.17562 5.04906,-8.1061 4.429,-10.0837 z"
         stroke-linecap="round"
         id="path20" />
      <path
         style="fill:url(#linearGradient123);fill-rule:nonzero;stroke:none;stroke-width:2.06;stroke-linecap:butt;stroke-linejoin:miter;stroke-miterlimit:4;stroke-dasharray:none;stroke-dashoffset:0"
         vector-effect="non-scaling-stroke"
         d="m 64.36676,14.1085 36.82662,-29.046 c 4.429,-3.49376 4.22506,-6.78564 3.70594,-8.44188 -0.515,-1.65624 -2.22892,-4.48668 -7.87332,-4.83276 L 37.22832,-31.7574 c -3.42372,-0.20188 -7.61994,-3.32072 -8.81474,-6.55286 L 7.64466,-94.50294 c -1.9673,-5.29214 -5.16236,-6.10172 -6.89482,-6.12026 -1.7304,-0.0185 -4.93988,0.74572 -6.99576,5.99872 l -21.85248,55.7642 c -1.2772,3.24862 -5.46518,6.2315 -8.95482,6.36746 l -59.84506,2.41844 c -5.62792,0.19364 -7.40364,2.97464 -7.95984,4.61852 -0.5562,1.64182 -0.8343,4.9337 3.54732,8.53252 l 46.27172,38.00082 c 2.68212,2.2248 4.22712,7.14614 3.28364,10.51012 l -0.51706,1.8437 c 6.43544,0.48204 12.9677,0.76014 19.60502,0.76014 36.24364,0 69.74748,-7.46132 97.03424,-20.08294 z"
         stroke-linecap="round"
         id="path21" />
      <path
         style="opacity:0.3;fill:#e89500;fill-rule:nonzero;stroke:none;stroke-width:2.06;stroke-linecap:butt;stroke-linejoin:miter;stroke-miterlimit:4;stroke-dasharray:none;stroke-dashoffset:0"
         vector-effect="non-scaling-stroke"
         d="M 5.56686,65.13248 C 2.07928,62.55336 -4.06776,62.50186 -7.59448,65.01506 l -60.26324,51.0777 c -5.6959,4.03554 -9.3318,2.34222 -10.99422,0.97026 -1.18244,-0.9785 -2.781,-3.01378 -2.94168,-6.71972 -0.14626,3.9758 1.64594,6.07082 2.94168,7.03696 1.66448,1.23188 5.29832,2.75628 10.99422,-0.87344 L -7.59448,77.98688 C -4.06776,75.725 2.07928,75.77444 5.56686,78.09194 l 59.48662,39.71886 c 2.80366,1.8746 5.12528,2.44934 6.95662,2.40196 -1.83134,0.0515 -4.15296,-0.5871 -6.95662,-2.67182 z"
         stroke-linecap="round"
         id="path22" />
      <g
         id="g24">
        <path
           style="color:#000000;vector-effect:non-scaling-stroke;fill:url(#linearGradient124);-inkscape-stroke:none"
           d="m -8.41922,-113.38858 -26.1002,66.60804 c -1.37402,3.4917 -6.0358,6.80624 -9.77882,6.95456 l -71.48818,2.88812 c -7.34184,0.25338 -9.69436,4.00258 -10.44214,6.21708 -0.74778,2.2145 -1.1536,6.62702 4.55878,11.31764 l 55.27392,45.39416 c 2.88606,2.39372 4.59586,7.86508 3.5844,11.47832 l -19.3846,68.84108 c -1.98172,7.07816 0.85696,10.4648 2.72538,11.85324 1.8746,1.39256 5.94722,3.1312 12.16224,-0.82812 0,-0.004 60.26324,-38.51994 60.26324,-38.51994 3.17034,-2.03116 8.90538,-1.9879 12.03452,0.0927 l 59.48662,39.71886 c 6.12438,4.09528 10.23614,2.4308 12.1437,1.07326 1.46878,-1.0506 3.54114,-3.28364 3.54114,-7.53136 0,-1.25042 -0.17716,-2.67594 -0.6077,-4.29716 L 61.5219,38.6456 c -0.16068,-0.6283 -0.2369,-1.32046 -0.2369,-2.0394 0,-3.3681 1.67272,-7.43454 4.04378,-9.30708 l 56.19062,-44.31678 c 4.11176,-3.2445 5.14176,-6.4169 5.14176,-8.77972 0,-0.95584 -0.16892,-1.77984 -0.3708,-2.4205 -0.69628,-2.23098 -2.96434,-6.04198 -10.32884,-6.49312 l -71.42844,-4.23536 c -3.66886,-0.21836 -8.34918,-3.69564 -9.62844,-7.1585 l -24.8024,-67.12098 c -2.56676,-6.89482 -6.86186,-7.95984 -9.19378,-7.9825 -2.32986,-0.0268 -6.63938,0.95584 -9.32768,7.81976 z m -69.82164,229.90012 c -1.44406,-1.0712 -3.61942,-3.75332 -1.96936,-9.64492 l 19.3846,-68.83696 c 1.24424,-4.44136 -0.70452,-10.68316 -4.25596,-13.6269 -0.0062,-0.0041 -55.2801,-45.39622 -55.2801,-45.39622 -4.75448,-3.90576 -4.49492,-7.35626 -3.91606,-9.06606 0.57886,-1.7098 2.45964,-4.60616 8.56754,-4.81834 0.006,0 71.49436,-2.88812 71.49436,-2.88812 4.6041,-0.18128 9.92302,-3.96344 11.61428,-8.25854 l 26.1002,-66.6101 c 2.2351,-5.71238 5.58672,-6.53226 7.38716,-6.51166 1.80456,0.0165 5.14794,0.90228 7.28416,6.63938 l 24.80446,67.11892 c 1.57384,4.26008 6.91542,8.23176 11.43918,8.49956 l 71.42844,4.23536 c 6.12438,0.37698 7.9413,3.3269 8.48102,5.05318 v 0 c 0.53972,1.7201 0.72924,5.17266 -4.0788,8.96718 L 64.05158,25.68202 c -3.54938,2.79542 -5.66088,9.09284 -4.5217,13.4827 l 18.03324,69.23042 c 1.5656,5.93074 -0.66744,8.57372 -2.13622,9.62844 -1.4729,1.04648 -4.7071,2.2969 -9.8056,-1.11034 L 6.13468,77.19438 C 2.28454,74.63586 -4.25802,74.5823 -8.15348,77.08108 l -60.26118,38.51582 c -5.17472,3.296 -8.37802,1.9879 -9.8262,0.91464 z M 126.29036,-28.21788 Z"
           id="path23" />
        <path
           style="color:#000000;vector-effect:non-scaling-stroke;fill:#e19600;-inkscape-stroke:none"
           d="m 1.0625,-135.85937 c -6.6593861,-0.0696 -18.675158,5.76037 -23.126953,17.12695 l -25.21875,64.363279 -69.095707,2.789063 0.0879,-0.002 c -12.21373,0.421518 -21.69607,9.88304 -23.82031,16.173828 -2.12119,6.28178 -0.31709,19.563127 9.14063,27.330078 l 53.410153,43.861328 -18.74414,66.566404 -0.002,0.01 c -3.288392,11.74523 2.77423,23.61197 8.095704,27.5664 h 0.002 c 5.343243,3.96927 18.472378,6.32994 28.773437,-0.23242 l 0.06641,-0.041 c 1e-6,0 0.002,-0.002 0.002,-0.002 l 0.01172,-0.008 c 0.02278,-0.0146 0.06563,-0.0407 0.121094,-0.0762 0.04049,-0.0259 0.126117,-0.0817 0.181641,-0.11719 l 6.398437,-4.07422 v -0.0156 c 0.942179,-0.6023 1.555839,-0.99511 2.654297,-1.69727 5.649285,-3.61118 13.182043,-8.42556 20.714844,-13.24023 14.070627,-8.99341 26.3434585,-16.839661 28.1406248,-17.988283 L 56.330078,130.80859 c 0.002,10e-4 0.0039,0.003 0.0059,0.004 l 0.0039,0.002 c 10.167424,6.79185 23.375001,4.66748 28.77539,0.82422 l 0.01563,-0.01 0.01367,-0.01 c 4.155305,-2.97224 9.669922,-10.43546 9.669922,-19.44922 0,-2.63449 -0.378091,-5.34168 -1.099609,-8.05859 l 0.01953,0.0664 -17.40625,-66.830074 c 0.0018,0.05361 -0.501183,0.353057 -1.777344,1.345703 l -0.002,-0.0039 1.740234,-1.373047 c 0.0074,0.0036 0.03284,0.01507 0.03516,0.01953 l -0.0098,-0.03906 54.281249,-42.8105469 c 6.82403,-5.3846911 10.71875,-13.6619011 10.71875,-20.2832031 0,-2.672873 -0.46565,-4.964942 -1.04297,-6.802734 -1.98782,-6.339748 -11.21495,-15.990979 -23.41406,-16.738282 h -0.0137 l -69.02344,-4.09375 -23.978515,-64.890626 -0.0059,-0.0156 C 19.578755,-129.77352 7.6825812,-135.78908 1.0625,-135.85937 Z m -0.042969,2.06054 h 0.033203 c -0.0052,-6e-5 -0.012375,0.004 -0.017578,0.004 -0.00465,-5e-5 -0.010982,-0.004 -0.015625,-0.004 z M 0.625,-90.65625 19.230469,-40.308594 c 2.141542,5.795015 5.658628,9.485785 9.617187,12.427735 3.959145,2.942384 8.511048,5.254763 14.699219,5.621093 l 53.603516,3.177735 -42.171875,33.257812 c -4.862353,3.831934 -7.274159,8.32138 -8.839844,12.990235 -1.566424,4.671056 -2.343373,9.705165 -0.792969,15.679687 l 0.002,0.0059 L 58.877,94.791057 14.25786,64.998088 14.24419,64.990288 C 4.0991827,58.248641 -5.8126664,58.17194 -16.064453,64.748047 l -45.197266,28.884765 14.542969,-51.640625 0.0039,-0.0098 c 3.27845,-11.702544 0.343503,-21.103675 -9.015625,-28.861328 l -0.06836,-0.05664 c -6e-6,-5e-6 -0.0019,-0.0019 -0.002,-0.002 -0.0046,-0.0038 -0.0137,-0.0099 -0.02539,-0.01953 l -0.513672,-0.425781 -0.01563,-0.0098 c -0.02051,-0.01684 -0.02724,-0.02329 -0.04883,-0.04102 -0.404855,-0.332421 -0.999946,-0.818728 -1.755859,-1.439453 -1.511766,-1.2413311 -3.670302,-3.0144514 -6.261659,-5.14246 C -69.604589,1.7283578 -76.51423,-3.9468448 -83.423828,-9.6210938 -90.331833,-15.294034 -92.058623,-16.711561 -97.240234,-20.966797 -76.803855,-21.788935 -43.625,-23.125 -43.625,-23.125 c 12.159104,-0.483008 20.205775,-6.223926 24.658203,-17.53125 l 0.0039,-0.01172 z m -46.623047,38.087891 c 0.03659,0.01733 0.164539,0.01193 0.212891,0.02734 l -0.06836,0.175782 c -0.0055,2.21e-4 -0.181085,0.0076 -0.1875,0.0078 0.0011,-0.05106 0.04776,-0.170566 0.04297,-0.210937 z m 184.302737,20.582031 0.004,0.01367 c -6e-4,-0.0019 -0.003,-0.0039 -0.004,-0.0059 -6.7e-4,-0.0021 6.7e-4,-0.0057 0,-0.0078 z M -75.351562,34.929687 c 0.03896,0.03199 0.10605,0.0872 0.142578,0.117188 l -0.04687,0.173828 c -0.04916,-0.01785 -0.144825,-0.09684 -0.185547,-0.105469 0.0276,-0.02927 0.06067,-0.144744 0.08984,-0.185547 z m 74.2363276,55.042969 0.15625002,0.105469 c -0.0300572,0.03972 -0.13472702,0.105863 -0.15429682,0.140625 -0.019527,-0.03565 -0.1240179,-0.105531 -0.1542969,-0.146484 z"
           id="path24" />
      </g>
    </g>
  </g>
  <metadata
     id="metadata10">
    <rdf:RDF>
      <cc:Work
         rdf:about="">
        <dc:source>https://commons.wikimedia.org/wiki/File:Internet-group-chat.svg</dc:source>
        <cc:license
           rdf:resource="http://creativecommons.org/publicdomain/zero/1.0/" />
      </cc:Work>
      <cc:License
         rdf:about="http://creativecommons.org/publicdomain/zero/1.0/">
        <cc:permits
           rdf:resource="http://creativecommons.org/ns#Reproduction" />
        <cc:permits
           rdf:resource="http://creativecommons.org/ns#Distribution" />
        <cc:permits
           rdf:resource="http://creativecommons.org/ns#DerivativeWorks" />
      </cc:License>
    </rdf:RDF>
  </metadata>
</svg>
