<?xml version="1.0" encoding="UTF-8" standalone="no"?>
<svg
   width="256"
   height="256"
   version="1.1"
   id="svg50"
   sodipodi:docname="preferences-desktop-peripherals.svg"
   viewBox="0 0 256 256"
   inkscape:version="1.4.2 (ebf0e940d0, 2025-05-08)"
   xmlns:inkscape="http://www.inkscape.org/namespaces/inkscape"
   xmlns:sodipodi="http://sodipodi.sourceforge.net/DTD/sodipodi-0.dtd"
   xmlns:xlink="http://www.w3.org/1999/xlink"
   xmlns="http://www.w3.org/2000/svg"
   xmlns:svg="http://www.w3.org/2000/svg"
   xmlns:rdf="http://www.w3.org/1999/02/22-rdf-syntax-ns#"
   xmlns:cc="http://creativecommons.org/ns#"
   xmlns:dc="http://purl.org/dc/elements/1.1/">
  <sodipodi:namedview
     id="namedview50"
     pagecolor="#ffffff"
     bordercolor="#000000"
     borderopacity="0.25"
     inkscape:showpageshadow="2"
     inkscape:pageopacity="0.0"
     inkscape:pagecheckerboard="0"
     inkscape:deskcolor="#d1d1d1"
     inkscape:zoom="2.1672335"
     inkscape:cx="250.31912"
     inkscape:cy="253.54905"
     inkscape:current-layer="svg50" />
  <defs
     id="defs29">
    <linearGradient
       id="d">
      <stop
         offset="0"
         stop-color="#b1b1b1"
         id="stop1" />
      <stop
         offset=".2"
         stop-color="#dfdfdf"
         id="stop2" />
      <stop
         offset="1"
         stop-color="#565656"
         id="stop3" />
    </linearGradient>
    <linearGradient
       id="c">
      <stop
         offset="0"
         stop-color="#fff"
         id="stop4" />
      <stop
         offset="1"
         stop-color="#fff"
         stop-opacity="0"
         id="stop5" />
    </linearGradient>
    <linearGradient
       id="b">
      <stop
         offset="0"
         stop-color="#fff"
         id="stop6" />
      <stop
         offset="1"
         stop-color="#a9a9a9"
         id="stop7" />
    </linearGradient>
    <linearGradient
       id="i">
      <stop
         offset="0"
         stop-color="#fff"
         id="stop8" />
      <stop
         offset=".37333333"
         stop-color="#d9d9d9"
         id="stop9" />
      <stop
         offset=".60311109"
         stop-color="#c5c5c5"
         id="stop10" />
      <stop
         offset="1"
         stop-color="#909090"
         id="stop11" />
    </linearGradient>
    <linearGradient
       id="a">
      <stop
         offset="0"
         stop-color="#acacac"
         id="stop12" />
      <stop
         offset="1"
         stop-color="#8d8d8d"
         stop-opacity="0"
         id="stop13" />
    </linearGradient>
    <linearGradient
       id="h">
      <stop
         offset="0"
         id="stop14" />
      <stop
         offset="1"
         stop-opacity="0"
         id="stop15" />
    </linearGradient>
    <linearGradient
       id="m">
      <stop
         offset="0"
         stop-color="#fff"
         id="stop16" />
      <stop
         offset="1"
         stop-color="#fff"
         stop-opacity="0"
         id="stop17" />
    </linearGradient>
    <linearGradient
       id="l">
      <stop
         offset="0"
         stop-color="#fce94f"
         id="stop18" />
      <stop
         offset="1"
         stop-color="#fce94f"
         stop-opacity="0"
         id="stop19" />
    </linearGradient>
    <linearGradient
       id="k">
      <stop
         offset="0"
         id="stop20" />
      <stop
         offset="1"
         stop-opacity="0"
         id="stop21" />
    </linearGradient>
    <linearGradient
       id="g">
      <stop
         offset="0"
         stop-color="#fbfbfa"
         id="stop22" />
      <stop
         offset="1"
         stop-color="#bba"
         id="stop23" />
    </linearGradient>
    <linearGradient
       id="e">
      <stop
         offset="0"
         stop-color="#adadad"
         id="stop24" />
      <stop
         offset="1"
         stop-color="#adadad"
         stop-opacity="0"
         id="stop25" />
    </linearGradient>
    <linearGradient
       id="f">
      <stop
         offset="0"
         stop-color="#fff"
         id="stop26" />
      <stop
         offset="1"
         stop-color="#fff"
         stop-opacity="0"
         id="stop27" />
    </linearGradient>
    <linearGradient
       id="j">
      <stop
         offset="0"
         stop-color="#e6e5e1"
         id="stop28" />
      <stop
         offset="1"
         stop-color="#d2d0c9"
         id="stop29" />
    </linearGradient>
    <linearGradient
       xlink:href="#a"
       id="w"
       x1="24.441023"
       x2="25.277958"
       y1="-6.8801107"
       y2="-21.403147"
       gradientTransform="matrix(0.84053,0,0,1,27.13209,17.12505)"
       gradientUnits="userSpaceOnUse" />
    <linearGradient
       xlink:href="#b"
       id="y"
       x1="23.991123"
       x2="23.991123"
       y1="12.830256"
       y2="7.1877394"
       gradientUnits="userSpaceOnUse" />
    <linearGradient
       xlink:href="#c"
       id="z"
       x1="10.807498"
       x2="16.002489"
       y1="2.4829133"
       y2="56.399807"
       gradientTransform="matrix(0.75296,0,0,0.97623,29.25675,18.75641)"
       gradientUnits="userSpaceOnUse" />
    <linearGradient
       xlink:href="#d"
       id="A"
       x1="23.991123"
       x2="23.991123"
       y1="6.583746"
       y2="15.069027"
       gradientUnits="userSpaceOnUse" />
    <linearGradient
       xlink:href="#e"
       id="n"
       x1="16.25"
       x2="25.5"
       y1="3.4375"
       y2="0.4375"
       gradientUnits="userSpaceOnUse" />
    <linearGradient
       xlink:href="#f"
       id="q"
       x1="17.644411"
       x2="58.261826"
       y1="13.676611"
       y2="69.426613"
       gradientTransform="matrix(0.98913,0,0,0.98906,0.264462,5.248195)"
       gradientUnits="userSpaceOnUse" />
    <linearGradient
       xlink:href="#g"
       id="r"
       x1="97.501556"
       x2="100.60255"
       y1="20.080032"
       y2="23.080032"
       gradientTransform="translate(-67,-4.534016)"
       gradientUnits="userSpaceOnUse" />
    <radialGradient
       xlink:href="#h"
       id="v"
       cx="24.344677"
       cy="32.342636"
       r="22.829447"
       fx="24.344677"
       fy="32.342636"
       gradientTransform="matrix(1,0,0,0.61947,0,12.30737)"
       gradientUnits="userSpaceOnUse" />
    <radialGradient
       xlink:href="#i"
       id="x"
       cx="20.588579"
       cy="14.245288"
       r="13.261548"
       fx="20.588579"
       fy="14.245288"
       gradientTransform="matrix(1.86637,0,0,2.30513,5.969849,-1.888046)"
       gradientUnits="userSpaceOnUse" />
    <radialGradient
       xlink:href="#j"
       id="o"
       cx="12.812498"
       cy="8.5408306"
       r="19.971418"
       fx="12.812498"
       fy="8.5408306"
       gradientTransform="matrix(2.85729,0,0,2.38126,-23.79647,-4.44816)"
       gradientUnits="userSpaceOnUse" />
    <radialGradient
       xlink:href="#k"
       id="p"
       cx="31.4375"
       cy="27.25"
       r="8.0625"
       fx="31.4375"
       fy="27.25"
       gradientTransform="matrix(1,0,0,0.10853,0,24.29264)"
       gradientUnits="userSpaceOnUse" />
    <radialGradient
       xlink:href="#k"
       id="s"
       cx="31.4375"
       cy="27.25"
       r="8.0625"
       fx="31.4375"
       fy="27.25"
       gradientTransform="matrix(1,0,0,0.10853,0,24.29264)"
       gradientUnits="userSpaceOnUse" />
    <radialGradient
       xlink:href="#l"
       id="t"
       cx="24.019533"
       cy="15.3847"
       r="0.77339804"
       fx="24.019533"
       fy="15.3847"
       gradientTransform="matrix(1,0,0,2.17143,0,-18.02208)"
       gradientUnits="userSpaceOnUse" />
    <radialGradient
       xlink:href="#m"
       id="u"
       cx="24.019533"
       cy="15.3847"
       r="0.77339804"
       fx="24.019533"
       fy="15.3847"
       gradientTransform="matrix(1,0,0,2.17143,0,-18.02208)"
       gradientUnits="userSpaceOnUse" />
  </defs>
  <g
     id="g51"
     transform="matrix(5.0873724,0,0,5.0873724,1.3588568,7.1440172)">
    <g
       color="#000000"
       transform="matrix(0.81647,0,0,0.81647,10.52377,0.197018)"
       id="g41">
      <path
         fill="none"
         stroke="url(#n)"
         stroke-width="2.44956"
         d="M 11.125,13.75 C 11.5,5.375 12.5625,2.9999999 16.5,2.9999999 c 4.0625,0 6.75,-1 12,-3.625"
         overflow="visible"
         style="stroke:url(#n);marker:none"
         id="path29" />
      <rect
         width="4.4637074"
         height="4.125"
         x="9.0806427"
         y="9.375"
         fill="#dddbd6"
         fill-rule="evenodd"
         stroke="#707070"
         stroke-width="1.22478"
         overflow="visible"
         rx="1.6840744"
         ry="1.6840754"
         style="marker:none"
         id="rect29" />
      <path
         fill-rule="evenodd"
         stroke="#000000"
         stroke-linejoin="round"
         stroke-width="1.22478"
         d="m 7.8580395,13.120603 c -0.734375,0.01563 -1.1252009,0.645981 -1.2189509,1.380356 L 4.7160797,42.754396 c 12.8750003,4.25 30.0678383,2.75 38.9428383,0 L 41.178075,14.881402 c -0.09375,-0.8125 -0.56297,-1.745174 -1.53172,-1.760799 z"
         opacity="0.0568182"
         overflow="visible"
         style="marker:none"
         id="path30" />
      <path
         fill="url(#o)"
         fill-rule="evenodd"
         stroke="#707070"
         stroke-linejoin="round"
         stroke-width="1.22478"
         d="m 7.9830395,11.495603 c -0.734375,0.01563 -1.1252009,0.645981 -1.2189509,1.380356 L 4.8410797,41.129396 c 12.8750003,4.25 30.0678383,2.75 38.9428383,0 L 41.303075,13.256402 c -0.09375,-0.8125 -0.56297,-1.745174 -1.53172,-1.760799 z"
         overflow="visible"
         style="fill:url(#o);marker:none"
         id="path31" />
      <path
         fill="none"
         stroke="#707070"
         stroke-width="1.22478"
         d="M 14.530731,20.493334 H 33.21925 V 33.444149 H 14.530731 Z"
         opacity="0.267045"
         overflow="visible"
         style="marker:none"
         id="path32" />
      <path
         fill="none"
         stroke="#ffffff"
         stroke-width="1.22478"
         d="M 15.499481,21.493334 H 34.188 V 34.444149 H 15.499481 Z"
         opacity="0.267045"
         overflow="visible"
         style="marker:none"
         id="path33" />
      <g
         opacity="0.159091"
         transform="matrix(1,0,0,0.66667,0,9.66667)"
         id="g34">
        <path
           fill-rule="evenodd"
           d="m 14,11 h 4 v 3 h -4 z m 5,0 h 4 v 3 h -4 z m 5.03125,0 h 4 v 3 h -4 z M 29,11 h 4 v 3 h -4 z"
           opacity="1"
           overflow="visible"
           style="marker:none"
           id="path34" />
      </g>
      <path
         fill="url(#p)"
         fill-rule="evenodd"
         d="m 39.5,27.25 a 8.0625,0.875 0 1 1 -16.125,0 8.0625,0.875 0 1 1 16.125,0 z"
         opacity="0.159091"
         overflow="visible"
         style="fill:url(#p);marker:none"
         transform="matrix(1,0,0,1.78571,-2.625,-22.50719)"
         id="path35" />
      <path
         fill="none"
         stroke="url(#q)"
         stroke-width="1.22478"
         d="M 8.3554337,12.643877 C 7.8917041,12.627438 7.9625058,13.288435 7.8756843,13.968485 L 6.094794,40.271002 c 11.923483,3.935613 28.247531,2.500212 36.466631,-0.04636 L 40.171196,14.166246 c -0.08682,-0.752397 0.06593,-1.5079 -0.831224,-1.522369 z"
         opacity="0.607955"
         overflow="visible"
         style="stroke:url(#q);marker:none"
         id="path36" />
      <rect
         width="2.2812505"
         height="0.75000024"
         x="-1.755459"
         y="33.924007"
         fill="#dedede"
         fill-rule="evenodd"
         stroke="#adadad"
         stroke-width="0.244956"
         overflow="visible"
         rx="0.45929343"
         ry="0.45929343"
         style="marker:none"
         transform="rotate(-43.095)"
         id="rect36" />
      <path
         fill="#b3b3af"
         fill-rule="evenodd"
         stroke="#888888"
         stroke-width="1.22478"
         d="m 31.34375,13.65625 c -0.149414,0.0278 -0.325692,0.107081 -0.46875,0.1875 -0.132617,0.07826 -0.261706,0.190307 -0.375,0.3125 L 26,19 c -0.161848,0.174561 -0.305868,0.392119 -0.375,0.59375 -0.06766,0.212125 -0.0685,0.457635 -0.03125,0.65625 0.0141,0.06564 0.914575,1.101794 1.125,1.125 0.173209,0.01456 0.384475,6.43e-4 0.5625,-0.0625 0.108482,-0.04116 0.241981,-0.118498 0.34375,-0.1875 0.09169,-0.06499 0.200326,-0.162719 0.28125,-0.25 l 4.5,-4.84375 c 0.129478,-0.139649 0.242215,-0.309435 0.3125,-0.46875 0.09566,-0.229888 0.123478,-0.497812 0.09375,-0.71875 -0.01226,-0.07627 -0.783811,-1.164761 -1.021447,-1.143306 -0.02977,0.0034 -0.41742,-0.04975 -0.447303,-0.04419 z"
         overflow="visible"
         style="marker:none"
         id="path37" />
      <path
         fill="url(#r)"
         fill-rule="evenodd"
         stroke="#888888"
         stroke-width="1.22478"
         d="m 42.375,2.3409839 c 0.875,-0.875 2.375,0.5 1.625,1.625 0,0 -4.21875,6.5625001 -8.625,11.6250001 -4.40625,5.0625 -9,8.53125 -9,8.53125 -0.6875,0.59375 -2.8125,1.40625 -2.8125,1.40625 l -0.560945,-0.635605 c 0,0 0.904695,-2.020645 1.498445,-2.645645 l 2,-2.28125 z"
         overflow="visible"
         style="fill:url(#r);marker:none"
         id="path38" />
      <rect
         width="9.3750086"
         height="2.2500021"
         x="2.27688"
         y="32.411682"
         fill="#b3b3af"
         fill-rule="evenodd"
         overflow="visible"
         rx="1.6840758"
         ry="1.6840767"
         style="marker:none"
         transform="rotate(-47.164)"
         id="rect38" />
      <path
         fill="url(#s)"
         fill-rule="evenodd"
         d="m 39.5,27.25 a 8.0625,0.875 0 1 1 -16.125,0 8.0625,0.875 0 1 1 16.125,0 z"
         opacity="0.159091"
         overflow="visible"
         style="fill:url(#s);marker:none"
         transform="matrix(1.52713,0,0,6.79347,-13.1967,-158.9682)"
         id="path39" />
      <path
         fill="url(#t)"
         fill-rule="evenodd"
         d="m 24.792931,15.3847 a 0.77339804,1.6793786 0 1 1 -1.546796,0 0.77339804,1.6793786 0 1 1 1.546796,0 z"
         opacity="0.6875"
         overflow="visible"
         style="fill:url(#t);marker:none"
         transform="matrix(1.24963,0,0,1.24963,-6.57043,-4.105591)"
         id="path40" />
      <path
         fill="url(#u)"
         fill-rule="evenodd"
         d="m 24.792931,15.3847 a 0.77339804,1.6793786 0 1 1 -1.546796,0 0.77339804,1.6793786 0 1 1 1.546796,0 z"
         opacity="0.6875"
         overflow="visible"
         style="fill:url(#u);marker:none"
         transform="matrix(0.62106,0,0,0.62106,8.527562,5.564792)"
         id="path41" />
      <rect
         width="9.3750019"
         height="2.2500005"
         x="2.3558545"
         y="31.976822"
         fill="#bfbfbb"
         fill-rule="evenodd"
         overflow="visible"
         rx="1.6840748"
         ry="1.6840756"
         style="marker:none"
         transform="rotate(-47.164)"
         id="rect41" />
    </g>
    <g
       transform="matrix(0.68718,0,0,0.65535,-20.51906,5.367542)"
       id="g50">
      <path
         fill="url(#v)"
         fill-rule="evenodd"
         d="m 47.174124,32.342636 a 22.829447,14.142136 0 1 1 -45.6588938,0 22.829447,14.142136 0 1 1 45.6588938,0 z"
         color="#000000"
         overflow="visible"
         style="fill:url(#v);marker:none"
         transform="matrix(0.68419,0,0,1.24107,30.93814,7.934044)"
         id="path42" />
      <path
         fill="none"
         stroke="url(#w)"
         stroke-width="1.49014"
         d="M 46.884523,27.625054 C 48.607899,18.892208 41.086801,17.485878 48.778118,7.0407143 56.415608,-3.3313508 41.162711,-6.7305609 41.162711,-6.7305609"
         id="path43"
         style="stroke:url(#w)" />
      <path
         fill="url(#x)"
         fill-rule="evenodd"
         stroke="#4f4f4f"
         stroke-width="1.49014"
         d="m 32.901422,44.256245 c -2.456364,10.906556 4.700953,18.410297 15.44726,18.410297 10.630001,0 15.914895,-8.690604 13.725835,-18.410297 l -3.48962,-13.014568 c -0.407121,-1.82299 -1.276546,-2.405887 -1.861129,-2.604272 -5.722916,-2.569525 -13.785474,-2.69337 -18.820559,0 -0.639764,0.347238 -1.105047,0.347236 -1.570329,2.083419 z"
         id="path44"
         style="fill:url(#x)" />
      <g
         fill-rule="evenodd"
         transform="matrix(0.84053,0,0,1,27.13209,18.12505)"
         id="g46">
        <path
           fill="#ffffff"
           fill-opacity="0.79661"
           d="M 8.5736698,22.948218 C 16.805824,17.644917 29.854661,17.038826 38.524694,22.342126 30.832368,18.464709 17.818978,17.99819 8.5736698,22.948218 Z"
           id="path45" />
        <path
           fill-opacity="0.259887"
           d="M 8.7504465,22.72725 C 17.380348,16.495871 30.031438,16.42011 38.436306,22.25374 30.655591,17.580828 17.686395,17.291086 8.7504465,22.72725 Z"
           id="path46" />
      </g>
      <path
         fill="url(#y)"
         fill-rule="evenodd"
         d="m 26.162951,11.331463 a 2.171828,4.7477169 0 1 1 -4.343656,0 2.171828,4.7477169 0 1 1 4.343656,0 z"
         color="#000000"
         font-family="'Bitstream Vera Sans'"
         overflow="visible"
         style="fill:url(#y);marker:none"
         transform="matrix(1.66634,0,0,1.4178,7.255149,17.47293)"
         id="path47" />
      <path
         fill="none"
         stroke="url(#z)"
         stroke-width="1.49014"
         d="m 33.784469,46.001045 c -1.37429,8.259265 4.527129,15.293754 14.613851,15.293754 10.086667,0 13.946969,-8.491113 12.800344,-15.293754 L 57.562622,32.375032 c -0.301709,-2.1437 -1.190434,-2.350479 -1.71677,-2.557034 -5.711569,-2.241444 -12.37101,-2.426359 -17.024226,0 -0.583118,0.304059 -1.066128,0.188497 -1.420449,1.734996 z"
         id="path48"
         style="stroke:url(#z)" />
      <path
         fill="url(#A)"
         fill-rule="evenodd"
         stroke="#595959"
         stroke-width="0.812684"
         d="m 26.162951,11.331463 a 2.171828,4.7477169 0 1 1 -4.343656,0 2.171828,4.7477169 0 1 1 4.343656,0 z"
         color="#000000"
         font-family="'Bitstream Vera Sans'"
         overflow="visible"
         style="fill:url(#A);marker:none"
         transform="matrix(0.84053,0,0,1,27.04719,19.86757)"
         id="path49" />
      <path
         fill="#ffffff"
         fill-opacity="0.333333"
         fill-rule="evenodd"
         d="m 26.162951,11.331463 a 2.171828,4.7477169 0 1 1 -4.343656,0 2.171828,4.7477169 0 1 1 4.343656,0 z"
         color="#000000"
         font-family="'Bitstream Vera Sans'"
         overflow="visible"
         style="marker:none"
         transform="matrix(0.23456,0,0,0.54255,40.94812,23.48538)"
         id="path50" />
    </g>
  </g>
  <metadata
     id="metadata50">
    <rdf:RDF>
      <cc:Work
         rdf:about="">
        <dc:source>https://commons.wikimedia.org/wiki/File:Preferences-desktop-peripherals.svg</dc:source>
        <cc:license
           rdf:resource="http://creativecommons.org/publicdomain/zero/1.0/" />
      </cc:Work>
      <cc:License
         rdf:about="http://creativecommons.org/publicdomain/zero/1.0/">
        <cc:permits
           rdf:resource="http://creativecommons.org/ns#Reproduction" />
        <cc:permits
           rdf:resource="http://creativecommons.org/ns#Distribution" />
        <cc:permits
           rdf:resource="http://creativecommons.org/ns#DerivativeWorks" />
      </cc:License>
    </rdf:RDF>
  </metadata>
</svg>
