<?xml version="1.0" encoding="UTF-8" standalone="no"?>
<!-- Created with Inkscape (http://www.inkscape.org/) -->

<svg
   width="256"
   height="256"
   id="svg2327"
   sodipodi:version="0.32"
   inkscape:version="1.4.2 (ebf0e940d0, 2025-05-08)"
   sodipodi:docname="preferences-desktop-touchscreen.svg"
   inkscape:output_extension="org.inkscape.output.svg.inkscape"
   version="1.1"
   viewBox="0 0 256 256"
   xmlns:inkscape="http://www.inkscape.org/namespaces/inkscape"
   xmlns:sodipodi="http://sodipodi.sourceforge.net/DTD/sodipodi-0.dtd"
   xmlns:xlink="http://www.w3.org/1999/xlink"
   xmlns="http://www.w3.org/2000/svg"
   xmlns:svg="http://www.w3.org/2000/svg"
   xmlns:rdf="http://www.w3.org/1999/02/22-rdf-syntax-ns#"
   xmlns:cc="http://creativecommons.org/ns#"
   xmlns:dc="http://purl.org/dc/elements/1.1/">
  <defs
     id="defs3">
    <inkscape:path-effect
       effect="perspective-envelope"
       up_left_point="385.42064,517.798"
       up_right_point="415.66561,517.59037"
       down_left_point="384.17513,545.93642"
       down_right_point="417.42064,545.798"
       id="path-effect1"
       is_visible="true"
       lpeversion="1"
       deform_type="perspective"
       horizontal_mirror="false"
       vertical_mirror="false"
       overflow_perspective="false" />
    <linearGradient
       id="linearGradient16"
       inkscape:collect="always">
      <stop
         style="stop-color:#fafdff;stop-opacity:1;"
         offset="0"
         id="stop16" />
      <stop
         style="stop-color:#b8b8b8;stop-opacity:1;"
         offset="1"
         id="stop17" />
    </linearGradient>
    <linearGradient
       id="linearGradient14"
       inkscape:collect="always">
      <stop
         style="stop-color:#e9eae7;stop-opacity:1;"
         offset="0"
         id="stop14" />
      <stop
         style="stop-color:#cacdc6;stop-opacity:1;"
         offset="1"
         id="stop15" />
    </linearGradient>
    <linearGradient
       id="linearGradient9"
       inkscape:collect="always">
      <stop
         style="stop-color:#898989;stop-opacity:1;"
         offset="0"
         id="stop9" />
      <stop
         style="stop-color:#494949;stop-opacity:1;"
         offset="1"
         id="stop10" />
    </linearGradient>
    <inkscape:perspective
       sodipodi:type="inkscape:persp3d"
       inkscape:vp_x="0 : 232 : 1"
       inkscape:vp_y="0 : 1000 : 0"
       inkscape:vp_z="48 : 232 : 1"
       inkscape:persp3d-origin="24 : 224 : 1"
       id="perspective98" />
    <linearGradient
       id="linearGradient2329">
      <stop
         id="stop2331"
         offset="0.0000000"
         style="stop-color:#ffffff;stop-opacity:1.0000000;" />
      <stop
         id="stop2333"
         offset="1.0000000"
         style="stop-color:#ffffff;stop-opacity:0.0000000;" />
    </linearGradient>
    <linearGradient
       id="linearGradient2321"
       inkscape:collect="always">
      <stop
         id="stop2323"
         offset="0"
         style="stop-color:#7b7f7a;stop-opacity:1;" />
      <stop
         id="stop2325"
         offset="1"
         style="stop-color:#7b7f7a;stop-opacity:0;" />
    </linearGradient>
    <linearGradient
       id="linearGradient2711">
      <stop
         id="stop2713"
         offset="0.0000000"
         style="stop-color:#909090;stop-opacity:1.0000000;" />
      <stop
         id="stop2715"
         offset="1.0000000"
         style="stop-color:#bebebe;stop-opacity:0.0000000;" />
    </linearGradient>
    <linearGradient
       id="linearGradient2701">
      <stop
         id="stop2703"
         offset="0.0000000"
         style="stop-color:#585956;stop-opacity:1.0000000;" />
      <stop
         id="stop2705"
         offset="1.0000000"
         style="stop-color:#bbbeb8;stop-opacity:1.0000000;" />
    </linearGradient>
    <linearGradient
       id="linearGradient2683"
       inkscape:collect="always">
      <stop
         id="stop2685"
         offset="0"
         style="stop-color:#000000;stop-opacity:1;" />
      <stop
         id="stop2687"
         offset="1"
         style="stop-color:#000000;stop-opacity:0;" />
    </linearGradient>
    <linearGradient
       id="linearGradient2675">
      <stop
         id="stop2677"
         offset="0.0000000"
         style="stop-color:#5b5b97;stop-opacity:1.0000000;" />
      <stop
         id="stop2679"
         offset="1.0000000"
         style="stop-color:#1b1b43;stop-opacity:1.0000000;" />
    </linearGradient>
    <linearGradient
       id="linearGradient2667">
      <stop
         id="stop2669"
         offset="0.0000000"
         style="stop-color:#ffffff;stop-opacity:1.0000000;" />
      <stop
         id="stop2671"
         offset="1.0000000"
         style="stop-color:#fcfcff;stop-opacity:0.0000000;" />
    </linearGradient>
    <linearGradient
       inkscape:collect="always"
       id="linearGradient2454">
      <stop
         style="stop-color:#000000;stop-opacity:1;"
         offset="0"
         id="stop2456" />
      <stop
         style="stop-color:#000000;stop-opacity:0;"
         offset="1"
         id="stop2458" />
    </linearGradient>
    <linearGradient
       id="linearGradient2253">
      <stop
         style="stop-color:#8f8f8f;stop-opacity:1.0000000;"
         offset="0.0000000"
         id="stop2255" />
      <stop
         style="stop-color:#494949;stop-opacity:1.0000000;"
         offset="1.0000000"
         id="stop2257" />
    </linearGradient>
    <linearGradient
       id="linearGradient2245">
      <stop
         style="stop-color:#dde1d9;stop-opacity:1.0000000;"
         offset="0.0000000"
         id="stop2247" />
      <stop
         style="stop-color:#cacdc6;stop-opacity:1.0000000;"
         offset="1.0000000"
         id="stop2249" />
    </linearGradient>
    <radialGradient
       inkscape:collect="always"
       xlink:href="#linearGradient2454"
       id="radialGradient2460"
       gradientTransform="scale(1.925808,0.519262)"
       cx="12.57571"
       cy="67.501709"
       fx="12.57571"
       fy="67.501709"
       r="8.7662792"
       gradientUnits="userSpaceOnUse" />
    <linearGradient
       gradientUnits="userSpaceOnUse"
       y2="8.8666229"
       x2="16.315819"
       y1="32.622238"
       x1="19.150396"
       gradientTransform="matrix(1.174139,0,0,0.945431,5.221825,1.543476)"
       id="linearGradient2681"
       xlink:href="#linearGradient2675"
       inkscape:collect="always" />
    <linearGradient
       gradientUnits="userSpaceOnUse"
       y2="162.45061"
       x2="3.7069974"
       y1="171.29134"
       x1="3.7069976"
       gradientTransform="matrix(5.705159,0,0,0.17528,5.5,2.195627)"
       id="linearGradient2689"
       xlink:href="#linearGradient2683"
       inkscape:collect="always" />
    <linearGradient
       gradientUnits="userSpaceOnUse"
       y2="64.892525"
       x2="12.127711"
       y1="53.535141"
       x1="12.206709"
       gradientTransform="matrix(1.816345,0,0,1.278927,2.5,-40.24508)"
       id="linearGradient2707"
       xlink:href="#linearGradient2701"
       inkscape:collect="always" />
    <linearGradient
       gradientUnits="userSpaceOnUse"
       y2="3.8451097"
       x2="35.520542"
       y1="3.9384086"
       x1="34.300991"
       id="linearGradient2717"
       xlink:href="#linearGradient2711"
       inkscape:collect="always" />
    <linearGradient
       y2="3.8451097"
       x2="35.520542"
       y1="3.9384086"
       x1="34.300991"
       gradientUnits="userSpaceOnUse"
       id="linearGradient2721"
       xlink:href="#linearGradient2711"
       inkscape:collect="always" />
    <linearGradient
       y2="3.8451097"
       x2="35.520542"
       y1="3.9384086"
       x1="34.300991"
       gradientUnits="userSpaceOnUse"
       id="linearGradient2725"
       xlink:href="#linearGradient2711"
       inkscape:collect="always" />
    <linearGradient
       y2="3.8451097"
       x2="35.520542"
       y1="3.9384086"
       x1="34.300991"
       gradientUnits="userSpaceOnUse"
       id="linearGradient2729"
       xlink:href="#linearGradient2711"
       inkscape:collect="always" />
    <linearGradient
       y2="3.8451097"
       x2="35.520542"
       y1="3.9384086"
       x1="34.300991"
       gradientUnits="userSpaceOnUse"
       id="linearGradient2733"
       xlink:href="#linearGradient2711"
       inkscape:collect="always" />
    <linearGradient
       gradientUnits="userSpaceOnUse"
       y2="28.205938"
       x2="-35.658386"
       y1="33.416473"
       x1="-35.658386"
       id="linearGradient2327"
       xlink:href="#linearGradient2321"
       inkscape:collect="always" />
    <linearGradient
       gradientUnits="userSpaceOnUse"
       y2="30.962345"
       x2="-35.074745"
       y1="34.242237"
       x1="-35.122688"
       id="linearGradient2337"
       xlink:href="#linearGradient2329"
       inkscape:collect="always" />
    <linearGradient
       inkscape:collect="always"
       xlink:href="#linearGradient2667"
       id="linearGradient2315"
       gradientUnits="userSpaceOnUse"
       gradientTransform="matrix(1.238977,0,0,0.895955,5.267331,1.543476)"
       x1="11.492236"
       y1="1.6537577"
       x2="17.199417"
       y2="26.729263" />
    <linearGradient
       inkscape:collect="always"
       xlink:href="#linearGradient9"
       id="linearGradient10"
       x1="3.515918"
       y1="6.5257916"
       x2="43.625813"
       y2="11.270194"
       gradientUnits="userSpaceOnUse" />
    <linearGradient
       inkscape:collect="always"
       xlink:href="#linearGradient14"
       id="linearGradient15"
       x1="5.4642138"
       y1="8.697197"
       x2="39.66737"
       y2="20.196341"
       gradientUnits="userSpaceOnUse" />
    <linearGradient
       inkscape:collect="always"
       xlink:href="#linearGradient16"
       id="linearGradient17"
       x1="14.878714"
       y1="10.69208"
       x2="37.566891"
       y2="26.215134"
       gradientUnits="userSpaceOnUse" />
    <linearGradient
       id="l"
       gradientTransform="matrix(1.5078887,0.40403789,0.40403755,-1.5078898,15.113751,42.492446)"
       gradientUnits="userSpaceOnUse"
       x1="8"
       x2="24.00001"
       xlink:href="#linearGradient4300"
       y1="24.000031"
       y2="8" />
    <linearGradient
       inkscape:collect="always"
       id="linearGradient4300">
      <stop
         style="stop-color:#e51561"
         id="stop4302" />
      <stop
         offset="0.312499"
         style="stop-color:#e4156c"
         id="stop4304" />
      <stop
         offset="0.562499"
         style="stop-color:#e71e2c"
         id="stop4306" />
      <stop
         offset="0.75"
         style="stop-color:#e8301e"
         id="stop4308" />
      <stop
         offset="1"
         style="stop-color:#e6320e"
         id="stop4310" />
    </linearGradient>
    <linearGradient
       id="m"
       gradientTransform="matrix(-1.5078887,-0.40403789,-0.40403755,1.5078898,106.88621,-10.492446)"
       gradientUnits="userSpaceOnUse"
       x1="8"
       x2="24.00001"
       xlink:href="#linearGradient4328"
       y1="23.999973"
       y2="8" />
    <linearGradient
       inkscape:collect="always"
       id="linearGradient4328">
      <stop
         style="stop-color:#bec900"
         id="stop4330" />
      <stop
         offset="0.312499"
         style="stop-color:#9ec80a"
         id="stop4332" />
      <stop
         offset="0.562499"
         style="stop-color:#71b93d"
         id="stop4334" />
      <stop
         offset="0.75"
         style="stop-color:#35a48f"
         id="stop4336" />
      <stop
         offset="1"
         style="stop-color:#018fca"
         id="stop4338" />
    </linearGradient>
    <linearGradient
       id="n"
       gradientTransform="matrix(-1.5078887,-0.40403789,0.40403755,-1.5078898,87.492393,61.88626)"
       gradientUnits="userSpaceOnUse"
       x1="8"
       x2="24.00001"
       xlink:href="#linearGradient4316"
       y1="24"
       y2="8" />
    <linearGradient
       inkscape:collect="always"
       id="linearGradient4316">
      <stop
         style="stop-color:#c1cc00"
         id="stop4318" />
      <stop
         offset="0.312499"
         style="stop-color:#dfcd00"
         id="stop4320" />
      <stop
         offset="0.562499"
         style="stop-color:#f0cc00"
         id="stop4322" />
      <stop
         offset="0.75"
         style="stop-color:#fd8c08"
         id="stop4324" />
      <stop
         offset="1"
         style="stop-color:#f25c13"
         id="stop4326" />
    </linearGradient>
    <linearGradient
       id="i"
       gradientTransform="matrix(-0.40403755,-1.5078898,-1.5078887,0.40403789,106.88621,42.492466)"
       gradientUnits="userSpaceOnUse"
       x1="8"
       x2="24.00001"
       xlink:href="#linearGradient4328"
       y1="23.999973"
       y2="8" />
    <linearGradient
       id="q"
       gradientTransform="matrix(-1.1038511,-1.103852,-1.1038511,1.103852,113.98484,16.00003)"
       gradientUnits="userSpaceOnUse"
       x1="8"
       x2="24.00001"
       xlink:href="#linearGradient4328"
       y1="23.999973"
       y2="8" />
    <linearGradient
       id="r"
       gradientTransform="matrix(0.40403755,1.5078898,-1.5078887,0.40403789,87.49235,-29.88624)"
       gradientUnits="userSpaceOnUse"
       x1="8"
       x2="24.00001"
       xlink:href="#linearGradient4288"
       y1="23.999973"
       y2="8" />
    <linearGradient
       inkscape:collect="always"
       id="linearGradient4288">
      <stop
         style="stop-color:#e81877"
         id="stop4290" />
      <stop
         offset="0.312499"
         style="stop-color:#dd1d8c"
         id="stop4294-9" />
      <stop
         offset="0.562499"
         style="stop-color:#6d57b1"
         id="stop4296" />
      <stop
         offset="0.75"
         style="stop-color:#2a78c1"
         id="stop4298" />
      <stop
         offset="1"
         style="stop-color:#018dcb"
         id="stop4292-2" />
    </linearGradient>
    <linearGradient
       id="k"
       gradientTransform="matrix(1.5078887,0.40403789,-0.40403755,1.5078898,34.50755,-29.88626)"
       gradientUnits="userSpaceOnUse"
       x1="8"
       x2="24.00001"
       xlink:href="#linearGradient4288"
       y1="23.999973"
       y2="8" />
    <linearGradient
       id="p"
       gradientTransform="matrix(1.1038511,1.103852,1.1038511,-1.103852,8.015131,16.00003)"
       gradientUnits="userSpaceOnUse"
       x1="8"
       x2="24.00001"
       xlink:href="#linearGradient4300"
       y1="24.000031"
       y2="8" />
    <linearGradient
       id="h"
       gradientTransform="matrix(-1.1038511,-1.103852,1.1038511,-1.103852,60.999973,68.984915)"
       gradientUnits="userSpaceOnUse"
       x1="8"
       x2="24.00001"
       xlink:href="#linearGradient4316"
       y1="24"
       y2="8" />
    <linearGradient
       id="e"
       gradientTransform="matrix(-0.40403755,-1.5078898,1.5078887,-0.40403789,34.507553,61.88627)"
       gradientUnits="userSpaceOnUse"
       x1="8"
       x2="24.00001"
       xlink:href="#linearGradient4316"
       y1="24"
       y2="8" />
    <linearGradient
       id="j"
       gradientTransform="matrix(0.40403755,1.5078898,1.5078887,-0.40403789,15.113754,-10.492425)"
       gradientUnits="userSpaceOnUse"
       x1="8"
       x2="24.00001"
       xlink:href="#linearGradient4300"
       y1="24.000031"
       y2="8" />
    <linearGradient
       id="o"
       gradientTransform="matrix(1.1038511,1.103852,-1.1038511,1.103852,60.99999,-36.98486)"
       gradientUnits="userSpaceOnUse"
       x1="8"
       x2="24.00001"
       xlink:href="#linearGradient4288"
       y1="23.999973"
       y2="8" />
    <linearGradient
       inkscape:collect="always"
       xlink:href="#linearGradient1"
       id="linearGradient2"
       x1="149.08337"
       y1="141.95168"
       x2="234.26218"
       y2="243.63069"
       gradientUnits="userSpaceOnUse" />
    <linearGradient
       id="linearGradient1"
       inkscape:collect="always">
      <stop
         style="stop-color:#ffffff;stop-opacity:1;"
         offset="0"
         id="stop1-6-6" />
      <stop
         style="stop-color:#7f7f7f;stop-opacity:1;"
         offset="1"
         id="stop2-1" />
    </linearGradient>
  </defs>
  <sodipodi:namedview
     id="base"
     pagecolor="#ffffff"
     bordercolor="#666666"
     borderopacity="0.12156863"
     inkscape:pageopacity="0.0"
     inkscape:pageshadow="2"
     inkscape:zoom="1.4568848"
     inkscape:cx="130.41525"
     inkscape:cy="33.290209"
     inkscape:current-layer="svg2327"
     showgrid="false"
     inkscape:grid-bbox="true"
     inkscape:document-units="px"
     inkscape:window-width="992"
     inkscape:window-height="755"
     inkscape:window-x="218"
     inkscape:window-y="30"
     inkscape:showpageshadow="false"
     fill="#fce94f"
     stroke="#edd400"
     inkscape:pagecheckerboard="0"
     inkscape:deskcolor="#d1d1d1" />
  <metadata
     id="metadata4">
    <rdf:RDF>
      <cc:Work
         rdf:about="">
        <dc:format>image/svg+xml</dc:format>
        <dc:type
           rdf:resource="http://purl.org/dc/dcmitype/StillImage" />
        <dc:date />
        <dc:creator>
          <cc:Agent>
            <dc:title>Jakub Steiner</dc:title>
          </cc:Agent>
        </dc:creator>
        <dc:subject>
          <rdf:Bag>
            <rdf:li>video</rdf:li>
            <rdf:li>display</rdf:li>
            <rdf:li>screensaver</rdf:li>
            <rdf:li>saver</rdf:li>
          </rdf:Bag>
        </dc:subject>
        <cc:license
           rdf:resource="http://creativecommons.org/publicdomain/zero/1.0/" />
        <dc:source>http://jimmac.musichall.cz/</dc:source>
        <dc:description>https://commons.wikimedia.org/wiki/File:Preferences-desktop-screensaver.svg</dc:description>
      </cc:Work>
      <cc:License
         rdf:about="http://creativecommons.org/publicdomain/zero/1.0/">
        <cc:permits
           rdf:resource="http://creativecommons.org/ns#Reproduction" />
        <cc:permits
           rdf:resource="http://creativecommons.org/ns#Distribution" />
        <cc:permits
           rdf:resource="http://creativecommons.org/ns#DerivativeWorks" />
      </cc:License>
    </rdf:RDF>
  </metadata>
  <g
     id="g1"
     transform="matrix(6.0357372,0,0,6.0357372,-19.98302,-21.385106)">
    <ellipse
       style="color:#000000;display:inline;overflow:visible;visibility:visible;opacity:0.508571;fill:url(#radialGradient2460);fill-opacity:1;fill-rule:evenodd;stroke:none;stroke-width:1;stroke-linecap:round;stroke-linejoin:miter;stroke-miterlimit:4;stroke-dashoffset:0;stroke-opacity:0.700637;marker:none;marker-start:none;marker-mid:none;marker-end:none"
       id="path2452"
       transform="matrix(1.050251,0,0,1.867888,-0.945558,-28.10611)"
       cx="24.218407"
       cy="35.051105"
       rx="16.882174"
       ry="4.552" />
    <ellipse
       style="color:#000000;display:inline;overflow:visible;visibility:visible;fill:#adb0aa;fill-opacity:1;fill-rule:evenodd;stroke:#4b4d4a;stroke-width:1;stroke-linecap:butt;stroke-linejoin:miter;stroke-miterlimit:4;stroke-dashoffset:0;stroke-opacity:1;marker:none;marker-start:none;marker-mid:none;marker-end:none"
       id="path2407"
       transform="translate(60.03339,8.07843)"
       cx="-35.658386"
       cy="29.716238"
       rx="9.3944187"
       ry="3.939595" />
    <ellipse
       transform="matrix(0.902373,0,0,0.82765,56.55215,12.86792)"
       id="path1825"
       style="color:#000000;display:inline;overflow:visible;visibility:visible;fill:none;fill-opacity:1;fill-rule:evenodd;stroke:url(#linearGradient2327);stroke-width:1.15713;stroke-linecap:butt;stroke-linejoin:miter;stroke-miterlimit:4;stroke-dasharray:none;stroke-dashoffset:0;stroke-opacity:1;marker:none;marker-start:none;marker-mid:none;marker-end:none"
       cx="-35.658386"
       cy="29.716238"
       rx="9.3944187"
       ry="3.939595" />
    <ellipse
       style="color:#000000;display:inline;overflow:visible;visibility:visible;fill:none;fill-opacity:1;fill-rule:evenodd;stroke:url(#linearGradient2337);stroke-width:1.18334;stroke-linecap:butt;stroke-linejoin:miter;stroke-miterlimit:4;stroke-dasharray:none;stroke-dashoffset:0;stroke-opacity:1;marker:none;marker-start:none;marker-mid:none;marker-end:none"
       id="path2983"
       transform="matrix(0.837548,0,0,0.852655,54.17811,11.00615)"
       cx="-35.658386"
       cy="29.716238"
       rx="9.3944187"
       ry="3.939595" />
    <rect
       y="31.078613"
       x="19.972397"
       height="6.3650389"
       width="9.0396729"
       id="rect2699"
       style="color:#000000;display:inline;overflow:visible;visibility:visible;fill:url(#linearGradient2707);fill-opacity:1;fill-rule:evenodd;stroke:none;stroke-width:0.608729;stroke-linecap:butt;stroke-linejoin:miter;stroke-miterlimit:4;stroke-dashoffset:0;stroke-opacity:1;marker:none;marker-start:none;marker-mid:none;marker-end:none" />
    <g
       id="g3">
      <path
         sodipodi:nodetypes="ccccc"
         id="path2377"
         d="M 8.9105353,7.180827 7.6683393,29.226144 H 39.318729 L 37.983712,7.274256 Z"
         style="fill:url(#linearGradient2681);fill-opacity:1;fill-rule:evenodd;stroke:#000079;stroke-width:0.5;stroke-linecap:butt;stroke-linejoin:round;stroke-miterlimit:4;stroke-dasharray:none;stroke-opacity:1" />
    </g>
    <path
       sodipodi:nodetypes="ccccc"
       style="display:inline;opacity:0.531429;fill:url(#linearGradient2315);fill-opacity:1;fill-rule:evenodd;stroke:none;stroke-width:0.25pt;stroke-linecap:butt;stroke-linejoin:miter;stroke-opacity:1"
       d="m 9.3883123,7.621363 -0.802529,17.87033 C 19.630421,23.091063 24.007246,14.999494 37.739815,12.344943 L 37.578343,7.687427 Z"
       id="path2443" />
    <g
       id="rect2404"
       style="display:inline;opacity:1">
      <path
         style="baseline-shift:baseline;display:inline;overflow:visible;vector-effect:none;fill:url(#linearGradient15);fill-opacity:1;fill-rule:evenodd;stroke:none;stroke-opacity:1;marker:none;enable-background:accumulate;stop-color:#000000;stop-opacity:1"
         d="m 7.5809228,4.5704902 c -1.119249,0 -1.6265459,0.6282722 -1.6668299,1.4018068 l -1.3319106,25.57812 c -0.058209,1.117735 0.9009448,2.020194 2.0201939,2.020194 H 42.147498 c 1.119249,0 2.078728,-0.902459 2.020518,-2.020194 L 42.835782,5.972297 C 42.793177,5.1541918 42.080294,4.5704902 41.168952,4.5704902 Z m 1.3312634,2.3612614 29.0722828,0.091577 a 0.250025,0.250025 0 0 1 0.247872,0.2365469 l 1.336117,21.9509615 a 0.250025,0.250025 0 0 1 -0.250137,0.26567 H 7.6679694 A 0.250025,0.250025 0 0 1 7.4178317,29.212778 L 8.6601069,7.1660333 A 0.250025,0.250025 0 0 1 8.9121862,6.9317516 Z"
         id="path8" />
      <path
         style="baseline-shift:baseline;display:inline;overflow:visible;vector-effect:none;fill-rule:evenodd;stroke:url(#linearGradient10);marker:none;enable-background:accumulate;stop-color:#000000;stop-opacity:1"
         d="m 7.5800781,4.0703125 c -0.6531801,0 -1.1997378,0.1916049 -1.578125,0.5449219 C 5.6235659,4.9685514 5.439508,5.4586598 5.4140625,5.9472656 L 4.0820312,31.525391 c -0.073772,1.416575 1.131513,2.544921 2.5195313,2.544921 H 42.148437 c 1.388019,0 2.59331,-1.130203 2.519532,-2.546875 L 43.335937,5.9472656 C 43.27891,4.8522123 42.294759,4.0703125 41.169922,4.0703125 Z m 0,1 H 41.169922 c 0.697847,0 1.137754,0.3865814 1.166015,0.9277344 l 1.336909,25.5994481 c 0.04264,0.818798 -0.761453,1.560154 -1.611931,1.558108 L 6.6015625,33.070312 c -0.8504774,-0.002 -1.5621772,-0.675245 -1.5195313,-1.49414 L 6.4140625,5.9980469 C 6.428901,5.7131181 6.5184493,5.501859 6.6835937,5.3476562 6.8487382,5.1934535 7.1140092,5.0703125 7.5800781,5.0703125 Z"
         id="path9"
         sodipodi:nodetypes="ssccssccssssscssccss" />
    </g>
    <path
       sodipodi:nodetypes="cc"
       style="fill:none;fill-opacity:0.75;fill-rule:evenodd;stroke:url(#linearGradient2689);stroke-width:0.996181;stroke-linecap:round;stroke-linejoin:miter;stroke-miterlimit:4;stroke-opacity:0.248408"
       d="M 6.6774331,31.610789 H 42.10591"
       id="path2393" />
    <path
       sodipodi:nodetypes="sssssssss"
       id="path2397"
       d="M 7.0450018,5.2543889 41.629697,5.2023723 c 0.283697,-4.267e-4 0.560608,0.2371802 0.582105,0.6525437 l 1.305031,25.21549 c 0.05472,1.057209 -0.539763,1.780326 -1.598371,1.785871 L 6.6410856,33.041075 C 5.5824773,33.046621 5.0464082,32.312193 5.1052142,31.255204 L 6.5003808,6.1782123 C 6.5402028,5.4624436 6.6667663,5.2549577 7.0450018,5.2543889 Z"
       style="color:#000000;display:inline;overflow:visible;visibility:visible;fill:none;fill-opacity:1;fill-rule:evenodd;stroke:url(#linearGradient17);stroke-width:1;stroke-linecap:butt;stroke-linejoin:miter;stroke-miterlimit:4;stroke-dashoffset:0;marker:none;marker-start:none;marker-mid:none;marker-end:none" />
    <circle
       transform="matrix(1.331237,0,0,0.658449,-5.91933,5.728866)"
       id="path2709"
       style="color:#000000;display:inline;overflow:visible;visibility:visible;fill:url(#linearGradient2717);fill-opacity:1;fill-rule:evenodd;stroke:none;stroke-width:0.5;stroke-linecap:butt;stroke-linejoin:miter;stroke-miterlimit:4;stroke-dashoffset:0;stroke-opacity:1;marker:none;marker-start:none;marker-mid:none;marker-end:none"
       cx="34.780815"
       cy="3.9384086"
       r="0.83968931" />
    <circle
       style="color:#000000;display:inline;overflow:visible;visibility:visible;fill:url(#linearGradient2721);fill-opacity:1;fill-rule:evenodd;stroke:none;stroke-width:0.5;stroke-linecap:butt;stroke-linejoin:miter;stroke-miterlimit:4;stroke-dashoffset:0;stroke-opacity:1;marker:none;marker-start:none;marker-mid:none;marker-end:none"
       id="path2719"
       transform="matrix(1.331237,0,0,0.658449,-5.80573,7.83465)"
       cx="34.780815"
       cy="3.9384086"
       r="0.83968931" />
    <circle
       transform="matrix(1.331237,0,0,0.658449,-5.69213,9.83465)"
       id="path2723"
       style="color:#000000;display:inline;overflow:visible;visibility:visible;fill:url(#linearGradient2725);fill-opacity:1;fill-rule:evenodd;stroke:none;stroke-width:0.5;stroke-linecap:butt;stroke-linejoin:miter;stroke-miterlimit:4;stroke-dashoffset:0;stroke-opacity:1;marker:none;marker-start:none;marker-mid:none;marker-end:none"
       cx="34.780815"
       cy="3.9384086"
       r="0.83968931" />
    <circle
       style="color:#000000;display:inline;overflow:visible;visibility:visible;fill:url(#linearGradient2729);fill-opacity:1;fill-rule:evenodd;stroke:none;stroke-width:0.5;stroke-linecap:butt;stroke-linejoin:miter;stroke-miterlimit:4;stroke-dashoffset:0;stroke-opacity:1;marker:none;marker-start:none;marker-mid:none;marker-end:none"
       id="path2727"
       transform="matrix(1.331237,0,0,0.658449,-5.57853,11.83465)"
       cx="34.780815"
       cy="3.9384086"
       r="0.83968931" />
    <circle
       transform="matrix(1.331237,0,0,0.658449,-5.46493,13.83465)"
       id="path2731"
       style="color:#000000;display:inline;overflow:visible;visibility:visible;fill:url(#linearGradient2733);fill-opacity:1;fill-rule:evenodd;stroke:none;stroke-width:0.5;stroke-linecap:butt;stroke-linejoin:miter;stroke-miterlimit:4;stroke-dashoffset:0;stroke-opacity:1;marker:none;marker-start:none;marker-mid:none;marker-end:none"
       cx="34.780815"
       cy="3.9384086"
       r="0.83968931" />
    <path
       id="text2735"
       d="m 22.5,30.192666 h 0.281716 c 0.08376,1e-6 0.147985,0.01866 0.19266,0.05599 0.04497,0.03703 0.06745,0.08994 0.06745,0.158714 -1e-6,0.06907 -0.02248,0.122268 -0.06745,0.159595 -0.04467,0.03703 -0.108895,0.05555 -0.19266,0.05555 h -0.111981 v 0.22837 H 22.5 v -0.658219 m 0.169735,0.123003 v 0.183843 h 0.0939 c 0.03292,0 0.05834,-0.0079 0.07627,-0.02381 0.01793,-0.01617 0.02689,-0.03894 0.02689,-0.06834 0,-0.02939 -0.009,-0.05202 -0.02689,-0.06789 -0.01793,-0.01587 -0.04335,-0.02381 -0.07627,-0.02381 h -0.0939 m 0.792244,-0.0119 c -0.05173,1e-6 -0.09185,0.01911 -0.120358,0.05731 -0.02851,0.03821 -0.04276,0.092 -0.04276,0.161359 0,0.06907 0.01425,0.122709 0.04276,0.160918 0.02851,0.03821 0.06863,0.05731 0.120358,0.05731 0.05202,0 0.09229,-0.0191 0.120799,-0.05731 0.02851,-0.03821 0.04276,-0.09185 0.04276,-0.160918 -10e-7,-0.06936 -0.01425,-0.123149 -0.04276,-0.161359 -0.02851,-0.03821 -0.06878,-0.05731 -0.120799,-0.05731 m 0,-0.123003 c 0.105808,1e-6 0.188692,0.03027 0.248651,0.09082 0.05996,0.06055 0.08994,0.144165 0.08994,0.250855 -1e-6,0.106397 -0.02998,0.189868 -0.08994,0.250414 -0.05996,0.06055 -0.142843,0.09082 -0.248651,0.09082 -0.105515,0 -0.188399,-0.03027 -0.248651,-0.09082 -0.05996,-0.06055 -0.08994,-0.144017 -0.08994,-0.250414 0,-0.10669 0.02998,-0.190309 0.08994,-0.250855 0.06025,-0.06055 0.143136,-0.09082 0.248651,-0.09082 m 0.466441,0.0119 h 0.189574 l 0.239393,0.451451 v -0.451451 h 0.160918 v 0.658219 H 24.32873 l -0.239392,-0.451451 v 0.451451 H 23.92842 v -0.658219 m 0.663069,0 h 0.185606 l 0.149896,0.234543 0.149896,-0.234543 h 0.186048 l -0.250856,0.380912 v 0.277307 h -0.169735 v -0.277307 l -0.250855,-0.380912"
       style="font-style:normal;font-variant:normal;font-weight:bold;font-stretch:normal;font-size:0.902903px;font-family:'Bitstream Vera Sans';writing-mode:lr-tb;text-anchor:start;fill:#4a4a4a;fill-opacity:1;stroke:none;stroke-width:1pt;stroke-linecap:butt;stroke-linejoin:miter;stroke-opacity:1" />
  </g>
  <g
     style="fill:#000000"
     id="g2"
     transform="matrix(0.35691173,0.15629813,-0.15629813,0.35691173,85.412967,24.31687)">
    <path
       id="rect1"
       style="fill:url(#linearGradient2);fill-opacity:1;stroke-width:2.852;stroke-miterlimit:2.1"
       d="m 105.83873,79.646318 c 27.97711,-12.888721 21.79989,25.657622 37.15046,28.865112 5.94722,1.24267 11.70236,-5.64156 17.66678,-4.48424 4.0099,0.77806 5.86911,6.50785 9.888,7.23805 6.45702,1.1732 12.69474,-7.2439 18.96215,-5.29735 9.14917,2.84157 9.50491,18.57105 18.42956,22.05422 4.73131,1.84656 10.81488,-4.6976 15.10712,-1.98252 25.16366,15.9174 30.80131,80.17969 27.44397,85.00581 -3.96966,5.7063 -80.0923,36.17459 -86.65027,37.13836 -7.94333,1.16736 -67.475855,-56.67805 -64.984179,-61.92947 9.878109,-20.81895 28.270809,-4.20953 28.564829,-14.95278 0.18304,-6.68785 -2.82764,-21.83047 -8.74949,-32.05408 -8.92629,-18.25671 -31.286504,-51.097932 -12.82893,-59.601112 z"
       sodipodi:nodetypes="saaaaaassssas"
       transform="matrix(2.3716535,0,0,2.3716535,-119.18064,-103.65054)" />
    <path
       d="m 461.63,251.914 -15.038,-34.207 c -0.89,-2.026 -1.879,-4.035 -2.938,-5.968 -6.272,-11.469 -16.565,-20.103 -28.981,-24.313 -12.377,-4.196 -25.794,-3.636 -37.784,1.578 l -5.795,2.52 -7.405,-16.845 c -0.001,-0.002 -0.002,-0.005 -0.003,-0.007 l -5.456,-12.41 c -4.662,-10.604 -13.188,-18.74 -24.007,-22.907 -10.766,-4.146 -22.478,-3.845 -32.987,0.846 l -19.228,8.33 c -3.557,-5.06 -7.877,-8.921 -12.914,-11.528 -10.521,-5.445 -23.178,-4.987 -37.621,1.363 l -13.759,6.048 -17.81,-40.514 c -7.25,-16.493 -20.706,-27.81 -36.916,-31.05 -15.239,-3.046 -30.755,1.265 -41.51,11.53 -16.139,15.402 -20.776,38.528 -11.822,58.895 l 67.466,154.435 c -5.649,-1.143 -11.602,-1.666 -17.643,-1.519 -15.691,0.387 -29.8,5.377 -39.247,13.79 -0.62,0.402 -1.203,0.878 -1.737,1.428 -9.494,9.777 -14.174,21.604 -13.537,34.201 0.797,15.743 9.79,31.268 26.006,44.898 0.082,0.069 0.165,0.137 0.25,0.203 l 138.681,109.147 c 1.794,1.413 3.979,2.142 6.186,2.142 1.362,0 2.732,-0.278 4.023,-0.846 l 198.672,-87.337 c 3.425,-1.505 5.723,-4.797 5.956,-8.531 l 1.081,-17.312 c 2.9,-46.426 -5.462,-93.475 -24.183,-136.06 z m 4.223,134.814 -0.702,11.231 L 277.55,480.431 143.715,375.097 c -11.612,-9.796 -18.28,-20.623 -18.78,-30.498 -0.324,-6.402 1.87,-12.364 6.526,-17.748 0.336,-0.267 0.658,-0.558 0.964,-0.873 11.971,-12.329 41.824,-13.181 57.414,-1.748 l 34.447,33.084 c 1.939,1.862 4.434,2.788 6.926,2.788 2.627,0 5.25,-1.029 7.214,-3.073 3.826,-3.983 3.698,-10.314 -0.285,-14.14 L 204.625,310.698 127.977,135.246 c -6.717,-15.28 -0.627,-28.821 7.313,-36.398 5.953,-5.682 15.066,-8.129 23.782,-6.386 9.87,1.973 17.87,8.893 22.527,19.486 l 58.06,132.072 c 1.647,3.747 5.313,5.978 9.16,5.978 1.344,0 2.71,-0.272 4.019,-0.848 5.056,-2.223 7.353,-8.123 5.13,-13.179 l -32.201,-73.249 13.76,-6.049 c 8.636,-3.795 15.493,-4.438 20.379,-1.909 3.458,1.79 6.373,5.338 8.663,10.546 l 34.24,77.888 c 1.647,3.747 5.313,5.978 9.16,5.978 1.344,0 2.71,-0.272 4.019,-0.848 5.056,-2.223 7.353,-8.123 5.13,-13.179 l -30.194,-68.685 18.32,-7.937 c 0.039,-0.017 0.077,-0.033 0.115,-0.051 5.625,-2.521 11.904,-2.685 17.681,-0.46 5.809,2.237 10.385,6.602 12.886,12.292 l 40.687,92.565 c 1.647,3.747 5.313,5.978 9.16,5.978 1.344,0 2.71,-0.272 4.019,-0.848 5.056,-2.222 7.353,-8.123 5.13,-13.179 l -19.779,-44.992 5.722,-2.488 c 15.467,-6.727 33.2,-0.713 41.244,13.994 0.783,1.431 1.514,2.916 2.173,4.416 l 15.039,34.208 c 17.441,39.676 25.233,83.511 22.532,126.766 z"
       id="path1-2" />
    <path
       d="m 426.561,384.075 -9.865,4.327 c -5.058,2.218 -7.359,8.116 -5.141,13.174 1.645,3.751 5.313,5.986 9.163,5.986 1.341,0 2.705,-0.271 4.011,-0.845 l 9.865,-4.327 c 5.058,-2.218 7.359,-8.116 5.141,-13.174 -2.217,-5.058 -8.115,-7.36 -13.174,-5.141 z"
       id="path2-0" />
    <path
       d="m 386.77,401.751 -105.353,46.208 c -5.058,2.218 -7.359,8.116 -5.141,13.174 1.645,3.751 5.313,5.986 9.163,5.986 1.341,0 2.705,-0.271 4.011,-0.844 l 105.353,-46.209 c 5.058,-2.218 7.359,-8.116 5.141,-13.174 -2.217,-5.057 -8.114,-7.359 -13.174,-5.141 z"
       id="path3" />
    <g
       id="g4"
       style="fill:#ffffff;fill-opacity:1;stroke:#fafafa;stroke-opacity:1;stroke-width:5.36400075;stroke-dasharray:none">
      <path
         d="m 127.017,45.197 c 0.976,4.727 5.139,7.98 9.783,7.98 0.67,0 1.351,-0.068 2.032,-0.208 5.409,-1.117 8.888,-6.407 7.771,-11.816 l -6.85,-33.174 c -1.116,-5.408 -6.408,-8.885 -11.815,-7.771 -5.409,1.116 -8.888,6.406 -7.771,11.815 z"
         id="path4-6"
         style="fill:#ffffff;fill-opacity:1;stroke:#fafafa;stroke-opacity:1;stroke-width:5.36400075;stroke-dasharray:none" />
      <path
         d="m 41.035,46.913 c 2.909,-4.696 1.459,-10.859 -3.236,-13.767 l -6.907,-4.277 c -4.696,-2.909 -10.859,-1.46 -13.767,3.236 -2.909,4.696 -1.459,10.859 3.236,13.767 l 6.907,4.277 c 1.64,1.016 3.459,1.5 5.256,1.5 3.347,0 6.619,-1.681 8.511,-4.736 z"
         id="path5-3"
         style="fill:#ffffff;fill-opacity:1;stroke:#fafafa;stroke-opacity:1;stroke-width:5.36400075;stroke-dasharray:none" />
      <path
         d="m 60.454,72.245 21.332,14.031 c 1.694,1.114 3.6,1.646 5.486,1.646 3.253,0 6.443,-1.585 8.365,-4.506 3.035,-4.614 1.754,-10.815 -2.86,-13.85 L 71.444,55.535 c -4.615,-3.035 -10.815,-1.754 -13.85,2.86 -3.035,4.614 -1.754,10.815 2.86,13.85 z"
         id="path6-2"
         style="fill:#ffffff;fill-opacity:1;stroke:#fafafa;stroke-opacity:1;stroke-width:5.36400075;stroke-dasharray:none" />
      <path
         d="m 86.622,135.491 c -1.117,-5.408 -6.405,-8.886 -11.816,-7.771 l -33.174,6.85 c -5.409,1.116 -8.888,6.406 -7.771,11.815 0.976,4.727 5.139,7.98 9.783,7.98 0.67,0 1.351,-0.068 2.033,-0.208 l 33.174,-6.85 c 5.409,-1.117 8.888,-6.407 7.771,-11.816 z"
         id="path7"
         style="fill:#ffffff;fill-opacity:1;stroke:#fafafa;stroke-opacity:1;stroke-width:5.36400075;stroke-dasharray:none" />
      <path
         d="m 111.775,186.982 c -4.615,-3.036 -10.816,-1.754 -13.85,2.86 l -18.614,28.301 c -3.035,4.614 -1.754,10.815 2.86,13.85 1.694,1.114 3.6,1.646 5.486,1.646 3.253,0 6.443,-1.585 8.364,-4.506 l 18.614,-28.301 c 3.035,-4.614 1.754,-10.815 -2.86,-13.85 z"
         id="path8-0"
         style="fill:#ffffff;fill-opacity:1;stroke:#fafafa;stroke-opacity:1;stroke-width:5.36400075;stroke-dasharray:none" />
      <path
         d="m 221.355,105.18 c 0.976,4.726 5.139,7.979 9.783,7.979 0.67,0 1.35,-0.068 2.033,-0.208 l 22.116,-4.567 c 5.409,-1.117 8.888,-6.407 7.771,-11.816 -1.117,-5.409 -6.406,-8.888 -11.816,-7.771 l -22.116,4.567 c -5.409,1.117 -8.888,6.407 -7.771,11.816 z"
         id="path9-6"
         style="fill:#ffffff;fill-opacity:1;stroke:#fafafa;stroke-opacity:1;stroke-width:5.36400075;stroke-dasharray:none" />
      <path
         d="m 293.34,100.315 c 0.67,0 1.351,-0.068 2.033,-0.208 l 6.912,-1.427 c 5.409,-1.117 8.888,-6.407 7.771,-11.816 -1.117,-5.408 -6.404,-8.887 -11.816,-7.771 l -6.912,1.427 c -5.409,1.117 -8.888,6.407 -7.771,11.816 0.976,4.726 5.139,7.979 9.783,7.979 z"
         id="path10-1"
         style="fill:#ffffff;fill-opacity:1;stroke:#fafafa;stroke-opacity:1;stroke-width:5.36400075;stroke-dasharray:none" />
      <path
         d="m 190.907,61.982 c 1.694,1.114 3.6,1.646 5.486,1.646 3.253,0 6.444,-1.585 8.364,-4.506 l 18.614,-28.301 c 3.035,-4.614 1.754,-10.815 -2.86,-13.85 -4.615,-3.036 -10.816,-1.754 -13.85,2.86 l -18.614,28.301 c -3.035,4.614 -1.754,10.815 2.86,13.85 z"
         id="path11-5"
         style="fill:#ffffff;fill-opacity:1;stroke:#fafafa;stroke-opacity:1;stroke-width:5.36400075;stroke-dasharray:none" />
    </g>
  </g>
</svg>
