<?xml version="1.0" encoding="UTF-8" standalone="no"?>
<!-- Created with Inkscape (http://www.inkscape.org/) -->

<svg
   width="256mm"
   height="256mm"
   viewBox="0 0 256 256"
   version="1.1"
   id="svg1"
   inkscape:version="1.4.2 (ebf0e940d0, 2025-05-08)"
   xml:space="preserve"
   sodipodi:docname="system-config-users.svg"
   xmlns:inkscape="http://www.inkscape.org/namespaces/inkscape"
   xmlns:sodipodi="http://sodipodi.sourceforge.net/DTD/sodipodi-0.dtd"
   xmlns:xlink="http://www.w3.org/1999/xlink"
   xmlns="http://www.w3.org/2000/svg"
   xmlns:svg="http://www.w3.org/2000/svg"
   xmlns:rdf="http://www.w3.org/1999/02/22-rdf-syntax-ns#"
   xmlns:cc="http://creativecommons.org/ns#"
   xmlns:dc="http://purl.org/dc/elements/1.1/"><defs
     id="defs1"><linearGradient
       id="linearGradient27"><stop
         style="stop-color:#ffffff;stop-opacity:0;"
         offset="0"
         id="stop1" /><stop
         style="stop-color:#ffffff;stop-opacity:0.3789809;"
         offset="0.48812887"
         id="stop2" /><stop
         style="stop-color:#ffffff;stop-opacity:0.28821656;"
         offset="0.54380649"
         id="stop28" /><stop
         style="stop-color:#ffffff;stop-opacity:0.17197452;"
         offset="0.5895505"
         id="stop3" /><stop
         style="stop-color:#ffffff;stop-opacity:0;"
         offset="1"
         id="stop27" /></linearGradient><linearGradient
       id="linearGradient28"><stop
         style="stop-color:#ffffff;stop-opacity:0.95306861;"
         offset="0"
         id="stop39" /><stop
         style="stop-color:#ffffff;stop-opacity:0.88808662;"
         offset="0.5"
         id="stop40" /><stop
         style="stop-color:#ffffff;stop-opacity:0.23529412;"
         offset="0.75"
         id="stop41" /><stop
         style="stop-color:#ffffff;stop-opacity:0;"
         offset="1"
         id="stop42" /></linearGradient><radialGradient
       id="e"
       cx="23.313"
       cy="40.938"
       r="17.188"
       fx="23.313"
       fy="40.938"
       gradientTransform="matrix(1,0,0,0.31636,0,27.986)"
       gradientUnits="userSpaceOnUse"
       xlink:href="#a" /><linearGradient
       id="a"><stop
         offset="0"
         id="stop3-7" /><stop
         offset="1"
         stop-opacity="0"
         id="stop4" /></linearGradient><radialGradient
       id="f"
       cx="22.75"
       cy="10.25"
       r="19.875"
       fx="22.75"
       fy="10.25"
       gradientTransform="matrix(1.61655,0,0,1.70805,-14.026,-8.008)"
       gradientUnits="userSpaceOnUse"
       xlink:href="#b" /><linearGradient
       id="b"><stop
         offset="0"
         stop-color="#f0f1ee"
         id="stop5"
         style="stop-color:#eef1ee;stop-opacity:1;" /><stop
         offset="1"
         stop-color="#d5d9d1"
         id="stop6"
         style="stop-color:#204a87;stop-opacity:1;" /></linearGradient><radialGradient
       id="g"
       cx="17.620001"
       cy="21.611"
       r="8"
       fx="17.620001"
       fy="21.611"
       gradientTransform="matrix(4.073,0,0,2.8745,-48.885,-43.215)"
       gradientUnits="userSpaceOnUse"
       xlink:href="#c" /><linearGradient
       id="c"><stop
         offset="0"
         stop-color="#edeeec"
         id="stop1-2"
         style="stop-color:#edeeec;stop-opacity:0.64340383;" /><stop
         offset="1"
         stop-color="#babdb6"
         id="stop2-9"
         style="stop-color:#babdb6;stop-opacity:0.30109882;" /></linearGradient><radialGradient
       id="h"
       cx="27.577"
       cy="15.259"
       r="3.8340001"
       fx="27.577"
       fy="15.259"
       gradientTransform="matrix(1.47848,0,0,1.47848,-13.195,-7.33)"
       gradientUnits="userSpaceOnUse"
       xlink:href="#d" /><linearGradient
       id="d"><stop
         offset="0"
         stop-color="#ef2929"
         id="stop7" /><stop
         offset="1"
         stop-color="#ef2929"
         stop-opacity="0"
         id="stop8" /></linearGradient><radialGradient
       id="i"
       cx="27.577"
       cy="15.048"
       r="3.8340001"
       fx="27.577"
       fy="15.048"
       gradientTransform="matrix(1.3418,0,0,1.3418,-9.426,-5.223)"
       gradientUnits="userSpaceOnUse"
       xlink:href="#d" /><linearGradient
       id="k"><stop
         offset="0"
         stop-color="#fff"
         stop-opacity="0"
         id="stop1-3" /><stop
         offset="1"
         stop-color="#fff"
         id="stop2-6" /></linearGradient><linearGradient
       id="g-7"><stop
         offset="0"
         stop-color="#ffec41"
         id="stop3-5" /><stop
         offset="1"
         stop-color="#c3af00"
         id="stop4-3" /></linearGradient><linearGradient
       xlink:href="#a-0"
       id="C"
       x1="19.250618"
       x2="16.198252"
       y1="9.6635771"
       y2="6.0396547"
       gradientTransform="translate(0,-1.926279)"
       gradientUnits="userSpaceOnUse" /><linearGradient
       xlink:href="#b-9"
       id="B"
       x1="10.650842"
       x2="27.192274"
       y1="2.9136841"
       y2="17.470011"
       gradientTransform="translate(0,-1.926279)"
       gradientUnits="userSpaceOnUse" /><linearGradient
       xlink:href="#c-3"
       id="y"
       x1="27.8125"
       x2="27.824219"
       y1="22.739454"
       y2="26.024691"
       gradientTransform="matrix(1.23077,0,0,0.32409,-5.538462,32.89774)"
       gradientUnits="userSpaceOnUse" /><linearGradient
       xlink:href="#c-3"
       id="x"
       x1="27.8125"
       x2="27.824219"
       y1="22.739454"
       y2="26.024691"
       gradientTransform="matrix(1.23077,0,0,0.32409,-5.538462,30.89774)"
       gradientUnits="userSpaceOnUse" /><linearGradient
       xlink:href="#c-3"
       id="w"
       x1="27.8125"
       x2="27.824219"
       y1="22.739454"
       y2="26.024691"
       gradientTransform="matrix(1.23077,0,0,0.32409,-5.538462,28.89774)"
       gradientUnits="userSpaceOnUse" /><linearGradient
       xlink:href="#c-3"
       id="v"
       x1="27.8125"
       x2="27.824219"
       y1="22.739454"
       y2="26.024691"
       gradientTransform="matrix(1.23077,0,0,0.32409,-5.538462,26.89774)"
       gradientUnits="userSpaceOnUse" /><linearGradient
       xlink:href="#c-3"
       id="u"
       x1="27.8125"
       x2="27.824219"
       y1="22.739454"
       y2="26.024691"
       gradientTransform="matrix(1.23077,0,0,0.32409,-5.538462,24.89774)"
       gradientUnits="userSpaceOnUse" /><linearGradient
       xlink:href="#c-3"
       id="t"
       x1="27.8125"
       x2="27.824219"
       y1="22.739454"
       y2="26.024691"
       gradientTransform="matrix(1.23077,0,0,0.32409,-5.538462,22.89774)"
       gradientUnits="userSpaceOnUse" /><linearGradient
       xlink:href="#c-3"
       id="s"
       x1="27.8125"
       x2="27.824219"
       y1="22.739454"
       y2="26.024691"
       gradientTransform="matrix(1.23077,0,0,0.32409,-5.538462,20.89774)"
       gradientUnits="userSpaceOnUse" /><linearGradient
       xlink:href="#c-3"
       id="r"
       x1="27.8125"
       x2="27.824219"
       y1="22.739454"
       y2="26.024691"
       gradientTransform="matrix(1.23077,0,0,0.32409,-5.538462,18.89774)"
       gradientUnits="userSpaceOnUse" /><linearGradient
       xlink:href="#c-3"
       id="q"
       x1="27.8125"
       x2="27.824219"
       y1="22.739454"
       y2="26.024691"
       gradientTransform="matrix(1.23077,0,0,0.32409,-5.538462,16.89774)"
       gradientUnits="userSpaceOnUse" /><linearGradient
       xlink:href="#c-3"
       id="p"
       x1="27.8125"
       x2="27.824219"
       y1="22.739454"
       y2="26.024691"
       gradientTransform="matrix(1.23077,0,0,0.32409,-5.538462,14.89774)"
       gradientUnits="userSpaceOnUse" /><linearGradient
       id="d-5"><stop
         offset="0"
         stop-color="#fff"
         id="stop5-6" /><stop
         offset="1"
         stop-color="#fff"
         stop-opacity=".49484536"
         id="stop6-2" /></linearGradient><linearGradient
       id="b-9"><stop
         offset="0"
         stop-color="#cad0c6"
         id="stop7-1" /><stop
         offset=".5"
         stop-color="#eaece9"
         id="stop8-2" /><stop
         offset="1"
         stop-color="#c5cbc0"
         id="stop9" /></linearGradient><linearGradient
       id="f-7"><stop
         offset="0"
         stop-color="#7d6400"
         id="stop10" /><stop
         offset="1"
         stop-color="#be9700"
         id="stop11" /></linearGradient><linearGradient
       id="a-0"><stop
         offset="0"
         stop-color="#6f716d"
         id="stop12" /><stop
         offset="1"
         stop-color="#9ea09c"
         id="stop13" /></linearGradient><linearGradient
       id="h-9"><stop
         offset="0"
         stop-color="#fff"
         id="stop14" /><stop
         offset="1"
         stop-color="#fff"
         stop-opacity="0"
         id="stop15" /></linearGradient><linearGradient
       id="c-3"><stop
         offset="0"
         stop-color="#896d00"
         id="stop16" /><stop
         offset="1"
         stop-color="#a18000"
         stop-opacity=".26804122"
         id="stop17" /></linearGradient><linearGradient
       id="e-6"><stop
         offset="0"
         stop-color="#ead200"
         stop-opacity=".71341461"
         id="stop18" /><stop
         offset=".20999999"
         stop-color="#ffec41"
         id="stop19" /><stop
         offset=".83999997"
         stop-color="#e2cc00"
         id="stop20" /><stop
         offset="1"
         stop-color="#c3af00"
         id="stop21" /></linearGradient><linearGradient
       xlink:href="#d-5"
       id="o"
       x1="10.907269"
       x2="30.875446"
       y1="25.002281"
       y2="36.127281"
       gradientTransform="matrix(0.99911,0,0,1.0958,0.03642141,-4.139733)"
       gradientUnits="userSpaceOnUse" /><linearGradient
       xlink:href="#e-6"
       id="m"
       x1="6.72682"
       x2="40.938126"
       y1="32.161697"
       y2="32.161697"
       gradientTransform="matrix(1,0,0,1.08988,0,-5.10979)"
       gradientUnits="userSpaceOnUse" /><linearGradient
       xlink:href="#f-7"
       id="n"
       x1="31.630468"
       x2="8.6713638"
       y1="41.791817"
       y2="25.793524"
       gradientTransform="matrix(1,0,0,1.08988,0,-3.986899)"
       gradientUnits="userSpaceOnUse" /><linearGradient
       xlink:href="#g-7"
       id="z"
       x1="24.875"
       x2="24.75"
       y1="21"
       y2="17"
       gradientTransform="translate(0,1)"
       gradientUnits="userSpaceOnUse" /><linearGradient
       xlink:href="#h-9"
       id="F"
       x1="21.941509"
       x2="21.941509"
       y1="21.550869"
       y2="18.037588"
       gradientTransform="matrix(1,0,0,0.95192,0,1.975963)"
       gradientUnits="userSpaceOnUse" /><radialGradient
       xlink:href="#a"
       id="l"
       cx="22.571428"
       cy="30.857143"
       r="15.571428"
       fx="22.571428"
       fy="30.857143"
       gradientTransform="matrix(1,0,0,0.65138,0,10.75754)"
       gradientUnits="userSpaceOnUse" /><radialGradient
       xlink:href="#h-9"
       id="A"
       cx="12.845672"
       cy="13.342374"
       r="17"
       fx="12.845672"
       fy="13.342374"
       gradientTransform="matrix(2.53109,0,0,2.86055,-19.66786,-16.33929)"
       gradientUnits="userSpaceOnUse" /><radialGradient
       xlink:href="#k"
       id="E"
       cx="30.996042"
       cy="13.156409"
       r="1.0001841"
       fx="30.996042"
       fy="13.156409"
       gradientTransform="matrix(0,14.96898,-8.27668,4e-4,143.8949,-454.2723)"
       gradientUnits="userSpaceOnUse" /><radialGradient
       xlink:href="#d-5"
       id="D"
       cx="12.184196"
       cy="8.5463438"
       r="3.6037734"
       fx="12.184196"
       fy="8.5463438"
       gradientTransform="matrix(-0.44134,3.78696,-3.2859,-0.38294,47.91818,-38.4483)"
       gradientUnits="userSpaceOnUse" /><radialGradient
       id="b-2"
       xlink:href="#a"
       gradientUnits="userSpaceOnUse"
       cy="19.01"
       cx="31.110001"
       gradientTransform="matrix(1.776,0,0,0.9592,-37.38,11.77)"
       r="8.6619997" /><radialGradient
       id="j"
       gradientUnits="userSpaceOnUse"
       cy="19.84"
       cx="16.219999"
       gradientTransform="matrix(1,0,0,0.6819,0,8.234)"
       r="13.56"><stop
         stop-color="#727e0a"
         offset="0"
         id="stop11-9" /><stop
         stop-color="#5b6508"
         offset="1"
         id="stop12-3" /></radialGradient><radialGradient
       id="d-3"
       xlink:href="#a"
       gradientUnits="userSpaceOnUse"
       cy="15.51"
       cx="17.860001"
       r="8.6619997" /><radialGradient
       id="e-7"
       gradientUnits="userSpaceOnUse"
       cy="10.06"
       cx="16.219999"
       r="7.2199998"><stop
         stop-color="#e9b15e"
         offset="0"
         id="stop9-6" /><stop
         stop-color="#966416"
         offset="1"
         id="stop10-8" /></radialGradient><linearGradient
       id="n-4"
       xlink:href="#c-5"
       gradientUnits="userSpaceOnUse"
       x2="0"
       y1="22.549999"
       y2="28.799999" /><linearGradient
       id="c-5"><stop
         stop-color="#fff"
         offset="0"
         id="stop5-0" /><stop
         stop-color="#c9c9c9"
         offset="1"
         id="stop6-2-3" /></linearGradient><linearGradient
       id="o-6"
       x1="6.7420001"
       xlink:href="#a"
       gradientUnits="userSpaceOnUse"
       x2="8.6020002"
       y1="29.15"
       y2="29.9" /><linearGradient
       id="p-6"
       x1="27.27"
       xlink:href="#a"
       gradientUnits="userSpaceOnUse"
       x2="28.379999"
       y1="29.219999"
       y2="28.32" /><radialGradient
       id="f-0"
       xlink:href="#a"
       gradientUnits="userSpaceOnUse"
       cy="19.01"
       cx="31.110001"
       gradientTransform="matrix(1.776,0,0,0.584,-24.25,28.28)"
       r="8.6619997" /><radialGradient
       id="h-5"
       gradientUnits="userSpaceOnUse"
       cy="27.200001"
       cx="28.09"
       gradientTransform="matrix(1.298,0,0,0.8848,-8.358,4.941)"
       r="13.56"><stop
         stop-color="#3b74bc"
         offset="0"
         id="stop17-5" /><stop
         stop-color="#2d5990"
         offset="1"
         id="stop18-4" /></radialGradient><linearGradient
       id="m-7"
       xlink:href="#c-5"
       gradientUnits="userSpaceOnUse"
       x2="0"
       y1="29.549999"
       y2="35.799999" /><radialGradient
       id="i-6"
       xlink:href="#a"
       gradientUnits="userSpaceOnUse"
       cy="22.51"
       cx="30.99"
       r="8.6619997" /><radialGradient
       id="g-74"
       gradientUnits="userSpaceOnUse"
       cy="17.059999"
       cx="29.34"
       r="7.2199998"><stop
         stop-color="#f4d9b1"
         offset="0"
         id="stop23" /><stop
         stop-color="#df9725"
         offset="1"
         id="stop24" /></radialGradient><linearGradient
       id="l-5"
       x1="20.049999"
       xlink:href="#a"
       gradientUnits="userSpaceOnUse"
       x2="21.91"
       y1="36.32"
       y2="37.07" /><linearGradient
       id="k-4"
       x1="40.57"
       xlink:href="#a"
       gradientUnits="userSpaceOnUse"
       x2="41.689999"
       y1="36.400002"
       y2="35.490002" /><radialGradient
       id="i-7"
       cx="24.813"
       cy="39.125"
       r="17.688"
       fx="24.813"
       fy="39.125"
       gradientTransform="matrix(0.55874529,0,0,0.21675787,22.191377,33.523789)"
       gradientUnits="userSpaceOnUse"
       xlink:href="#a" /><radialGradient
       id="j-3"
       cx="24.813"
       cy="39.125"
       r="17.688"
       fx="24.813"
       fy="39.125"
       gradientTransform="matrix(0.6591407,0,0,0.25673841,-2.6994671,32.490717)"
       gradientUnits="userSpaceOnUse"
       xlink:href="#a" /><linearGradient
       id="k-5"
       x1="19.648001"
       x2="20.631001"
       y1="42.254002"
       y2="6.776"
       gradientTransform="matrix(0.87827,0,0,0.87827,2.537,4.968)"
       gradientUnits="userSpaceOnUse"
       xlink:href="#b-6" /><linearGradient
       id="b-6"><stop
         offset="0"
         stop-color="#b6b6b6"
         id="stop16-2" /><stop
         offset=".5"
         stop-color="#f2f2f2"
         id="stop17-9" /><stop
         offset=".676"
         stop-color="#fafafa"
         id="stop18-1" /><stop
         offset=".841"
         stop-color="#d8d8d8"
         id="stop19-2" /><stop
         offset=".875"
         stop-color="#f2f2f2"
         id="stop20-7" /><stop
         offset="1"
         stop-color="#dbdbdb"
         id="stop21-0" /></linearGradient><linearGradient
       id="l-9"
       x1="50.153"
       x2="25.291"
       y1="-3.632"
       y2="-4.3000002"
       gradientTransform="matrix(0.87827,0,0,0.87827,5.328,1.65)"
       gradientUnits="userSpaceOnUse"
       xlink:href="#c-36" /><linearGradient
       id="c-36"><stop
         offset="0"
         stop-color="#fff"
         id="stop14-0" /><stop
         offset="1"
         id="stop15-6" /></linearGradient><linearGradient
       id="m-2"
       x1="38.228001"
       x2="37.535"
       y1="13.603"
       y2="6.6290002"
       gradientTransform="matrix(0.87827,0,0,0.87827,2.848,5.589)"
       gradientUnits="userSpaceOnUse"
       xlink:href="#d-6" /><linearGradient
       id="d-6"><stop
         offset="0"
         stop-color="#98a0a9"
         id="stop12-1" /><stop
         offset="1"
         stop-color="#c3d0dd"
         id="stop13-8" /></linearGradient><linearGradient
       id="n-7"
       x1="31.177"
       x2="40.859001"
       y1="19.822001"
       y2="9.6569996"
       gradientUnits="userSpaceOnUse"
       xlink:href="#h-9" /><linearGradient
       id="o-3"
       x1="9.75"
       x2="16.915001"
       y1="32.284"
       y2="39.443001"
       gradientTransform="matrix(0.87827,0,0,0.87827,2.537,4.968)"
       gradientUnits="userSpaceOnUse"
       xlink:href="#e-75" /><linearGradient
       id="e-75"><stop
         offset="0"
         stop-color="#3465a4"
         id="stop7-9" /><stop
         offset="0"
         stop-color="#9fbce1"
         id="stop8-22" /><stop
         offset="0"
         stop-color="#6b95ca"
         id="stop9-8" /><stop
         offset=".75"
         stop-color="#3d6aa5"
         id="stop10-9" /><stop
         offset="1"
         stop-color="#386eb4"
         id="stop11-7" /></linearGradient><linearGradient
       id="p-3"
       x1="12.005"
       x2="10.651"
       y1="35.688"
       y2="33.195"
       gradientTransform="matrix(1.0072538,-0.02641105,0.02641105,1.0072538,1.5961738,0.0793546)"
       gradientUnits="userSpaceOnUse"
       xlink:href="#h-9" /><linearGradient
       id="q-6"
       x1="14.018"
       x2="15.416"
       y1="36.943001"
       y2="38.268002"
       gradientTransform="matrix(0.87809889,-0.01733564,0.01733564,0.87809889,2.1651838,4.0706979)"
       gradientUnits="userSpaceOnUse"
       xlink:href="#a" /></defs><sodipodi:namedview
     id="base"
     pagecolor="#ffffff"
     bordercolor="#000000"
     borderopacity="0.3"
     inkscape:pageopacity="0.0"
     inkscape:pageshadow="2"
     inkscape:zoom="0.24748737"
     inkscape:cx="569.72604"
     inkscape:cy="1347.5435"
     inkscape:document-units="mm"
     inkscape:showpageshadow="2"
     inkscape:pagecheckerboard="0"
     inkscape:deskcolor="#d1d1d1"
     inkscape:current-layer="svg1"
     showguides="true"><sodipodi:guide
       position="45.168549,97.776436"
       orientation="0,-1"
       id="guide1"
       inkscape:locked="false" /></sodipodi:namedview><metadata
     id="metadata1"><rdf:RDF><cc:Work
         rdf:about=""><dc:format>image/svg+xml</dc:format><dc:type
           rdf:resource="http://purl.org/dc/dcmitype/StillImage" /><cc:license
           rdf:resource="http://creativecommons.org/publicdomain/zero/1.0/" /></cc:Work><cc:License
         rdf:about="http://creativecommons.org/publicdomain/zero/1.0/"><cc:permits
           rdf:resource="http://creativecommons.org/ns#Reproduction" /><cc:permits
           rdf:resource="http://creativecommons.org/ns#Distribution" /><cc:permits
           rdf:resource="http://creativecommons.org/ns#DerivativeWorks" /></cc:License></rdf:RDF></metadata><g
     color="#000000"
     id="g14"
     transform="matrix(5.5212253,0,0,5.5212253,-6.2553773,-11.014989)"
     style="display:inline"><path
       fill="url(#e)"
       d="m 40.5,40.9375 a 17.1875,5.4375 0 1 1 -34.375,0 17.1875,5.4375 0 1 1 34.375,0 z"
       display="block"
       opacity="0.369"
       style="fill:url(#e);marker:none"
       transform="translate(-0.125,0.625)"
       id="path8" /><path
       fill="url(#f)"
       stroke="#888a85"
       stroke-linecap="round"
       stroke-linejoin="round"
       stroke-width="0.997"
       d="M 23,3 C 15.599034,8.5765861 4,12 4,12 7,37.75 23.375,44 23.375,44 23.375,44 39.5,37.5 42.75,11.625 42.75,11.625 28.75,6.5 23,3 Z"
       display="block"
       style="fill:url(#f);marker:none"
       transform="matrix(1.00629,0,0,1,0.478,0.5)"
       id="path9" /><path
       fill="none"
       stroke="#ffffff"
       stroke-linecap="round"
       stroke-linejoin="round"
       stroke-width="0.997"
       d="M 23.023587,4.289309 C 16.08809,9.5151669 5.218554,12.723272 5.218554,12.723272 c 2.811321,24.130505 18.11714,29.987424 18.11714,29.987424 0,0 15.150159,-6.091195 18.195756,-30.338839 0,0 -13.119498,-4.8026735 -18.507863,-8.082548 z"
       display="block"
       style="marker:none"
       transform="matrix(1.00629,0,0,1,0.478,0.5)"
       id="path10" /><path
       fill="url(#g)"
       d="m 22.88299,7 v 33 c 0,0 -12.318457,-5.259424 -15.9999995,-26 C 12.13299,13.125 22.88299,7 22.88299,7 Z"
       display="block"
       style="fill:url(#g);marker:none"
       transform="matrix(1.00629,0,0,1,0.478,0.5)"
       id="path11" /><g
       id="g1"><path
         fill="#ef2929"
         fill-rule="evenodd"
         d="m 30.910667,18.604561 a 3.3335035,3.3335035 0 1 1 -6.667007,0 3.3335035,3.3335035 0 1 1 6.667007,0 z"
         style="display:none;marker:none"
         transform="matrix(0,-0.51316,-0.51316,0,33.547,36.4)"
         id="path12" /><path
         fill="none"
         stroke="url(#h)"
         stroke-miterlimit="10"
         stroke-width="1.587"
         d="m 30.910667,18.604561 a 3.3335035,3.3335035 0 1 1 -6.667007,0 3.3335035,3.3335035 0 1 1 6.667007,0 z"
         style="display:none;stroke:url(#h);marker:none"
         transform="matrix(0,-1.77376,-1.77376,0,57,71.164)"
         id="path13" /><path
         fill="none"
         stroke="url(#i)"
         stroke-miterlimit="10"
         stroke-width="0.811"
         d="m 30.910667,18.604561 a 3.3335035,3.3335035 0 1 1 -6.667007,0 3.3335035,3.3335035 0 1 1 6.667007,0 z"
         style="display:none;stroke:url(#i);marker:none"
         transform="matrix(0,-3.46785,-3.46785,0,88.518,117.883)"
         id="path14" /></g></g><g
     id="g27"
     transform="matrix(3.9659139,0,0,3.9659139,-11.279249,82.591209)"><ellipse
       rx="15.38"
       ry="8.309"
       cy="30"
       cx="17.860001"
       fill="url(#b)"
       id="ellipse12"
       style="fill:url(#b-2)" /><path
       stroke-linejoin="round"
       d="m 12.86,34.64 h 10.61 c 3.01,0 5.98,-1.102 7.07,-4.243 1.036,-2.982 0.177,-8.662 -6.541,-13.26 h -12.55 c -6.718,4.243 -7.557,10.05 -6.01,13.44 1.576,3.454 4.243,4.066 7.425,4.066 z"
       stroke="#404604"
       stroke-linecap="round"
       fill="url(#j)"
       id="path12-4"
       style="fill:url(#j)" /><path
       fill="#9db029"
       d="m 17.93,19.79 c 0,0 -2.151,1.66 -1.966,3.66 -2.041,-1.801 -2.1,-5.252 -2.1,-5.252 l 4.066,1.591"
       id="path13-3" /><path
       opacity="0.215"
       stroke-linejoin="round"
       d="m 12.97,33.57 h 10.32 c 2.64,0 5.253,-0.968 6.211,-3.727 0.91,-2.62 -0.095,-7.609 -5.995,-11.65 h -11.52 c -5.916,3.74 -6.903,8.83 -5.544,11.81 1.384,3.034 3.727,3.571 6.522,3.571 z"
       stroke="#ffffff"
       stroke-linecap="round"
       fill="none"
       id="path14-0" /><path
       fill="#9db029"
       d="m 18.91,19.79 c 0,0 2.151,1.66 1.966,3.66 2.041,-1.801 2.1,-5.252 2.1,-5.252 l -4.066,1.591"
       id="path15" /><circle
       cy="15.51"
       cx="17.860001"
       r="8.6619997"
       fill="url(#d)"
       id="circle15"
       style="fill:url(#d-3)" /><circle
       stroke="#6f4709"
       cy="12"
       cx="17.99"
       r="8.6619997"
       fill="url(#e)"
       id="circle16"
       style="fill:url(#e-7)" /><circle
       opacity="0.127"
       stroke="#ffffff"
       cy="12.01"
       cx="17.99"
       r="7.5970001"
       fill="none"
       id="circle17" /><path
       fill="url(#n)"
       d="m 22.58,27.04 h 4.243 l -2.475,-2.298 -0.53,0.707 -0.53,-0.53 -0.707,2.121"
       id="path17"
       style="fill:url(#n-4)" /><path
       opacity="0.228"
       d="M 8.548,33.6 C 7.3,33.06 6.742,31.74 6.742,31.74 c 0.841,-4.069 3.72,-7.05 3.72,-7.05 0,0 -2.279,6.412 -1.914,8.904"
       fill="url(#o)"
       id="path18"
       style="fill:url(#o-6)" /><path
       opacity="0.228"
       d="m 27.45,32.74 c 1.231,-0.581 1.804,-2 1.804,-2 -0.95,-4.04 -3.97,-6.84 -3.97,-6.84 0,0 2.465,6.343 2.172,8.845"
       fill="url(#p)"
       id="path19"
       style="fill:url(#p-6)" /><ellipse
       rx="15.38"
       ry="5.059"
       cy="39.380001"
       cx="30.99"
       fill="url(#f)"
       id="ellipse19"
       style="fill:url(#f-0)" /><path
       stroke-linejoin="round"
       d="M 25.99,41.64 H 36.6 c 3.01,0 5.98,-1.102 7.07,-4.243 1.036,-2.983 0.177,-8.662 -6.541,-13.26 h -12.56 c -6.718,4.243 -7.557,10.04 -6.01,13.44 1.576,3.454 4.243,4.066 7.425,4.066 z"
       stroke="#204a87"
       stroke-linecap="round"
       fill="url(#h)"
       id="path20"
       style="fill:url(#h-5)" /><path
       fill="url(#m)"
       d="m 26.69,25.73 c 3.182,2.828 4.596,13.08 4.596,13.08 0,0 1.414,-10.25 3.889,-13.26 l -8.49,0.17"
       id="path21"
       style="fill:url(#m-7)" /><path
       fill="#729fcf"
       d="m 28.97,26.79 c 0,0 -2.151,1.66 -1.966,3.66 -2.041,-1.801 -2.1,-5.252 -2.1,-5.252 l 4.066,1.591"
       id="path22" /><path
       opacity="0.215"
       stroke-linejoin="round"
       d="M 25.91,40.59 36.4,40.568 c 2.64,0 5.253,-0.968 6.211,-3.727 0.91,-2.62 -0.095,-7.609 -5.995,-11.65 l -11.52,-0.23 c -5.901,3.727 -7.04,8.823 -5.662,12.04 1.381,3.221 3.395,3.571 6.477,3.593 z"
       stroke="#ffffff"
       stroke-linecap="round"
       fill="none"
       id="path23" /><path
       fill="#729fcf"
       d="m 33.41,26.79 c 0,0 2.151,1.66 1.966,3.66 2.041,-1.801 2.1,-5.252 2.1,-5.252 l -4.07,1.59"
       id="path24" /><circle
       cy="22.51"
       cx="30.99"
       r="8.6619997"
       fill="url(#i)"
       id="circle24"
       style="fill:url(#i-6)" /><circle
       stroke="#c17d11"
       cy="19.01"
       cx="31.110001"
       r="8.6619997"
       fill="url(#g)"
       id="circle25"
       style="fill:url(#g-74)" /><circle
       opacity="0.196"
       stroke="#ffffff"
       cy="19.01"
       cx="31.110001"
       r="7.5970001"
       fill="none"
       id="circle26" /><path
       opacity="0.228"
       d="m 21.85,40.78 c -1.248,-0.545 -1.806,-1.858 -1.806,-1.858 0.841,-4.069 3.72,-7.05 3.72,-7.05 0,0 -2.279,6.411 -1.914,8.904"
       fill="url(#l)"
       id="path26-9"
       style="fill:url(#l-5)" /><path
       opacity="0.228"
       d="m 40.76,39.92 c 1.231,-0.581 1.804,-2 1.804,-2 -0.959,-4.04 -3.976,-6.843 -3.976,-6.843 0,0 2.465,6.343 2.172,8.845"
       fill="url(#k)"
       id="path27"
       style="fill:url(#k-4)" /></g><g
     color="#000000"
     id="g34"
     transform="matrix(2.4977724,0,0,2.4977724,135.28983,134.0797)"><path
       fill="url(#i)"
       d="m 45.938052,42.004637 a 9.8830867,3.8338875 0 1 1 -19.765615,0 9.8830867,3.8338875 0 1 1 19.765615,0 z"
       opacity="0.199"
       style="fill:url(#i-7);stroke-width:0.568635;marker:none"
       id="path23-2" /><path
       fill="url(#j)"
       d="m 25.314013,42.53584 a 11.658881,4.54104 0 1 1 -23.3171025,0 11.658881,4.54104 0 1 1 23.3171025,0 z"
       opacity="0.313"
       style="fill:url(#j-3);stroke-width:0.672162;marker:none"
       id="path24-9" /><path
       fill="url(#k)"
       stroke="#888a85"
       d="m 17.907,21.216 18.992,19.431 c 0.769,0.879 3.204,1.557 4.83,0 1.572,-1.503 1.208,-3.622 -0.329,-5.16 L 23.176,15.947 c 2.25,-6.25 -2.304,-11.5 -8.179,-10.376 l -1.262,1.153 3.952,3.733 0.22,3.293 -2.951,2.694 -3.527,-0.388 -3.622,-3.403 -1.27,1.254 c -0.591,5.642 5.307,10.684 11.37,7.309 z"
       style="fill:url(#k-5);marker:none"
       id="path25" /><path
       fill="none"
       stroke="#ffffff"
       d="M 18.117,19.94 37.32,39.968 c 0.595,0.68 2.48,1.205 3.74,0 1.216,-1.164 0.935,-2.805 -0.255,-3.995 L 22.313,16.353 c 1.5,-6.5 -1.859,-10.005 -6.859,-9.88 l -0.27,0.273 3.603,3.236 0.13,4.182 -3.614,3.298 -4.242,-0.458 -3.176,-2.991 -0.353,0.43 c -0.313,5.969 6.492,8.685 10.585,5.497 z"
       opacity="0.426"
       style="marker:none"
       id="path26" /><rect
       width="23.268"
       height="2.0550001"
       x="28.184999"
       y="-2.618"
       fill="none"
       stroke="url(#l)"
       opacity="0.17"
       rx="0.884"
       ry="0.884"
       style="stroke:url(#l-9);marker:none"
       transform="rotate(45.738)"
       id="rect26" /><path
       fill="url(#m)"
       stroke="#878f9d"
       d="M 22.499,30.125 C 23.332,29.411 35.783,16.677 35.783,16.677 l 3.074,-0.22 4.83,-6.697 -4.024,-3.585 -6.258,5.38 v 3.074 L 20.67,27.858 c -0.604,0.603 1.06,2.926 1.829,2.267 z"
       style="fill:url(#m-2);marker:none"
       id="path27-3" /><path
       fill="none"
       stroke="url(#n)"
       d="m 22.402,29.085 c 0.647,-0.554 13.024,-13.23 13.024,-13.23 l 2.929,-0.247 4.214,-5.662 -2.89,-2.55 -5.476,4.718 0.155,2.851 -12.676,13.292 c -0.469,0.469 0.124,1.34 0.72,0.828 z"
       opacity="0.54"
       style="stroke:url(#n-7);marker:none"
       id="path28" /><path
       fill="url(#o)"
       stroke="#204a87"
       d="m 8.465,43.612 c 1.317,1.465 4.974,2.128 6.596,-0.71 0.707,-1.238 2.094,-4.703 8.28,-10.272 1.04,-0.934 2.14,-3.07 1.208,-4.223 l -2.416,-2.416 c -0.988,-1.098 -3.734,-0.585 -4.86,0.951 -3.36,4.596 -8.847,8.255 -10.084,8.697 -2.368,0.846 -2.102,4.336 -0.535,5.996 z"
       style="fill:url(#o-3);marker:none"
       id="path29" /><path
       fill="#ffffff"
       stroke="#a1a1a1"
       d="m 40.412,38.013 a 1.208,1.208 0 1 1 -2.415,0 1.208,1.208 0 1 1 2.415,0 z"
       style="marker:none"
       id="path30" /><path
       fill="#ffffff"
       d="m 21.013,27.35 a 1.01,1.01 0 1 1 -2.019,0 1.01,1.01 0 1 1 2.019,0 z"
       opacity="0.602"
       style="marker:none"
       id="path31" /><path
       fill="none"
       stroke="url(#p)"
       stroke-linecap="round"
       stroke-linejoin="round"
       stroke-width="2.295"
       d="m 18.679,29.625 c 0,0 -7.17,7.3 -10.529,8.537"
       style="stroke:url(#p-3);marker:none"
       id="path32" /><path
       fill="none"
       stroke="#ffffff"
       d="m 8.806,42.487 c 1.441,1.745 4.6,2.16 5.591,-0.37 0.681,-1.74 3.334,-5.667 8.198,-10.044 0.817,-0.735 1.682,-2.415 0.948,-3.32 l -1.898,-1.9 c -0.777,-0.863 -2.936,-0.46 -3.822,0.748 -2.64,3.613 -8.483,8.34 -9.896,8.806 -2.186,0.721 -1.777,3.221 -0.545,4.526 z"
       opacity="0.199"
       style="marker:none"
       id="path33" /><path
       fill="none"
       stroke="url(#q)"
       stroke-linecap="round"
       stroke-linejoin="round"
       stroke-width="2.295"
       d="m 20.825,31.261 c 0,0 -7.323,6.617 -8.914,10.86"
       opacity="0.278"
       style="stroke:url(#q-6);marker:none"
       id="path34" /></g></svg>
