<?xml version="1.0" encoding="UTF-8" standalone="no"?>
<svg
   width="256mm"
   height="256mm"
   version="1.1"
   id="svg50"
   sodipodi:docname="computer.svg"
   viewBox="0 0 256 256"
   inkscape:version="1.4.2 (ebf0e940d0, 2025-05-08)"
   xmlns:inkscape="http://www.inkscape.org/namespaces/inkscape"
   xmlns:sodipodi="http://sodipodi.sourceforge.net/DTD/sodipodi-0.dtd"
   xmlns:xlink="http://www.w3.org/1999/xlink"
   xmlns="http://www.w3.org/2000/svg"
   xmlns:svg="http://www.w3.org/2000/svg"
   xmlns:rdf="http://www.w3.org/1999/02/22-rdf-syntax-ns#"
   xmlns:cc="http://creativecommons.org/ns#"
   xmlns:dc="http://purl.org/dc/elements/1.1/">
  <title
     id="title1">Computer, Workstation</title>
  <sodipodi:namedview
     id="namedview50"
     pagecolor="#ffffff"
     bordercolor="#000000"
     borderopacity="0.25"
     inkscape:showpageshadow="2"
     inkscape:pageopacity="0.0"
     inkscape:pagecheckerboard="0"
     inkscape:deskcolor="#d1d1d1"
     inkscape:zoom="0.43149075"
     inkscape:cx="633.84904"
     inkscape:cy="826.20543"
     inkscape:current-layer="g50"
     inkscape:document-units="mm" />
  <defs
     id="defs24">
    <linearGradient
       id="k">
      <stop
         offset="0"
         stop-color="#d8dfd6"
         id="stop1" />
      <stop
         offset="1"
         stop-color="#d8dfd6"
         stop-opacity="0"
         id="stop2" />
    </linearGradient>
    <linearGradient
       id="i">
      <stop
         offset="0"
         stop-color="#9d9d9d"
         id="stop3" />
      <stop
         offset="1"
         stop-color="#b9b9b9"
         id="stop4" />
    </linearGradient>
    <linearGradient
       id="g">
      <stop
         offset="0"
         stop-color="#909090"
         id="stop5" />
      <stop
         offset="1"
         stop-color="#bebebe"
         stop-opacity="0"
         id="stop6" />
    </linearGradient>
    <linearGradient
       id="f">
      <stop
         offset="0"
         stop-color="#585956"
         id="stop7" />
      <stop
         offset="1"
         stop-color="#bbbeb8"
         id="stop8" />
    </linearGradient>
    <linearGradient
       id="e">
      <stop
         offset="0"
         id="stop9" />
      <stop
         offset="1"
         stop-opacity="0"
         id="stop10" />
    </linearGradient>
    <linearGradient
       id="d">
      <stop
         offset="0"
         stop-color="#5b5b97"
         id="stop11" />
      <stop
         offset="1"
         stop-color="#1b1b43"
         id="stop12" />
    </linearGradient>
    <linearGradient
       id="c">
      <stop
         offset="0"
         stop-color="#fff"
         id="stop13" />
      <stop
         offset="1"
         stop-color="#fcfcff"
         stop-opacity="0"
         id="stop14" />
    </linearGradient>
    <linearGradient
       id="h">
      <stop
         offset="0"
         stop-color="#f9fff5"
         id="stop15" />
      <stop
         offset="1"
         stop-color="#f9fff5"
         stop-opacity="0"
         id="stop16" />
    </linearGradient>
    <linearGradient
       id="l">
      <stop
         offset="0"
         id="stop17" />
      <stop
         offset="1"
         stop-opacity="0"
         id="stop18" />
    </linearGradient>
    <linearGradient
       id="b">
      <stop
         offset="0"
         stop-color="#fff"
         id="stop19" />
      <stop
         offset="1"
         stop-color="#fff"
         stop-opacity="0"
         id="stop20" />
    </linearGradient>
    <linearGradient
       id="j">
      <stop
         offset="0"
         stop-color="#8f8f8f"
         id="stop21" />
      <stop
         offset="1"
         stop-color="#494949"
         id="stop22" />
    </linearGradient>
    <linearGradient
       id="a">
      <stop
         offset="0"
         stop-color="#dde1d9"
         id="stop23" />
      <stop
         offset="1"
         stop-color="#cacdc6"
         id="stop24" />
    </linearGradient>
    <linearGradient
       xlink:href="#a"
       id="q"
       x1="8.6116238"
       x2="34.784473"
       y1="7.2293582"
       y2="33.339787"
       gradientTransform="matrix(1.12986,0,0,0.88506,-1.625,-1.304372)"
       gradientUnits="userSpaceOnUse" />
    <linearGradient
       xlink:href="#b"
       id="u"
       x1="17.698339"
       x2="34.974548"
       y1="13.004725"
       y2="55.200756"
       gradientTransform="matrix(1.10807,0,0,0.90247,1,1)"
       gradientUnits="userSpaceOnUse" />
    <linearGradient
       xlink:href="#c"
       id="v"
       x1="11.492236"
       x2="17.199417"
       y1="1.6537577"
       y2="26.729263"
       gradientTransform="matrix(1.23898,0,0,0.89595,0.590553,-1.331524)"
       gradientUnits="userSpaceOnUse" />
    <linearGradient
       xlink:href="#d"
       id="s"
       x1="19.150396"
       x2="16.315819"
       y1="32.622238"
       y2="8.8666229"
       gradientTransform="matrix(1.17414,0,0,0.94543,0.721825,-1.331524)"
       gradientUnits="userSpaceOnUse" />
    <linearGradient
       xlink:href="#e"
       id="t"
       x1="3.7069976"
       x2="3.7069974"
       y1="171.29134"
       y2="162.45061"
       gradientTransform="matrix(5.70516,0,0,0.17528,1,-0.679373)"
       gradientUnits="userSpaceOnUse" />
    <linearGradient
       xlink:href="#f"
       id="p"
       x1="12.206709"
       x2="12.127711"
       y1="53.535141"
       y2="64.892525"
       gradientTransform="scale(1.81635,0.55056)"
       gradientUnits="userSpaceOnUse" />
    <linearGradient
       xlink:href="#g"
       id="D"
       x1="34.300991"
       x2="35.520542"
       y1="3.9384086"
       y2="3.8451097"
       gradientUnits="userSpaceOnUse" />
    <linearGradient
       xlink:href="#g"
       id="E"
       x1="34.300991"
       x2="35.520542"
       y1="3.9384086"
       y2="3.8451097"
       gradientUnits="userSpaceOnUse" />
    <linearGradient
       xlink:href="#g"
       id="F"
       x1="34.300991"
       x2="35.520542"
       y1="3.9384086"
       y2="3.8451097"
       gradientUnits="userSpaceOnUse" />
    <linearGradient
       xlink:href="#g"
       id="G"
       x1="34.300991"
       x2="35.520542"
       y1="3.9384086"
       y2="3.8451097"
       gradientUnits="userSpaceOnUse" />
    <linearGradient
       xlink:href="#g"
       id="H"
       x1="34.300991"
       x2="35.520542"
       y1="3.9384086"
       y2="3.8451097"
       gradientUnits="userSpaceOnUse" />
    <linearGradient
       xlink:href="#h"
       id="C"
       x1="13.62871"
       x2="8.6485014"
       y1="101.2846"
       y2="74.098007"
       gradientTransform="matrix(2.14363,0,0,0.4665,1,-0.508826)"
       gradientUnits="userSpaceOnUse" />
    <linearGradient
       xlink:href="#i"
       id="z"
       x1="8.1134243"
       x2="8.1134233"
       y1="88.509071"
       y2="100.20015"
       gradientTransform="scale(2.30985,0.43293)"
       gradientUnits="userSpaceOnUse" />
    <linearGradient
       xlink:href="#j"
       id="r"
       x1="10.390738"
       x2="32.536823"
       y1="5.3817744"
       y2="31.246054"
       gradientTransform="scale(1.1044,0.90547)"
       gradientUnits="userSpaceOnUse" />
    <linearGradient
       xlink:href="#a"
       id="x"
       x1="18.316999"
       x2="18.176752"
       y1="48.643234"
       y2="52.536461"
       gradientTransform="scale(1.12986,0.88506)"
       gradientUnits="userSpaceOnUse" />
    <linearGradient
       xlink:href="#k"
       id="n"
       x1="-23.8857"
       x2="-23.8857"
       y1="49.953003"
       y2="44.878883"
       gradientTransform="scale(1.49287,0.66985)"
       gradientUnits="userSpaceOnUse" />
    <linearGradient
       xlink:href="#i"
       id="B"
       x1="8.1134243"
       x2="8.1134233"
       y1="88.509071"
       y2="100.20015"
       gradientTransform="scale(2.30985,0.43293)"
       gradientUnits="userSpaceOnUse" />
    <linearGradient
       xlink:href="#i"
       id="A"
       x1="8.1134243"
       x2="8.1134233"
       y1="88.509071"
       y2="100.20015"
       gradientTransform="scale(2.30985,0.43293)"
       gradientUnits="userSpaceOnUse" />
    <linearGradient
       xlink:href="#j"
       id="y"
       x1="10.390738"
       x2="32.536823"
       y1="5.3817744"
       y2="31.246054"
       gradientTransform="scale(1.1044,0.90547)"
       gradientUnits="userSpaceOnUse" />
    <radialGradient
       xlink:href="#l"
       id="m"
       cx="12.57571"
       cy="67.501709"
       r="8.7662792"
       fx="12.57571"
       fy="67.501709"
       gradientTransform="scale(1.9258,0.51926)"
       gradientUnits="userSpaceOnUse" />
    <radialGradient
       xlink:href="#l"
       id="o"
       cx="12.57571"
       cy="67.501709"
       r="8.7662792"
       fx="12.57571"
       fy="67.501709"
       gradientTransform="scale(1.9258,0.51926)"
       gradientUnits="userSpaceOnUse" />
    <radialGradient
       xlink:href="#l"
       id="w"
       cx="12.57571"
       cy="67.501709"
       r="8.7662792"
       fx="12.57571"
       fy="67.501709"
       gradientTransform="scale(1.9258,0.51926)"
       gradientUnits="userSpaceOnUse" />
  </defs>
  <g
     id="g50"
     transform="matrix(5.2408274,0,0,5.2408274,7.656851,0.30441065)">
    <g
       id="g3">
      <path
         fill="url(#m)"
         fill-rule="evenodd"
         d="m 41.10058,35.051105 a 16.882174,4.552 0 1 1 -33.7643469,0 16.882174,4.552 0 1 1 33.7643469,0 z"
         color="#000000"
         overflow="visible"
         style="display:inline;fill:url(#m);marker:none"
         transform="matrix(1,0,0,1.36893,-1.978553,-13.61713)"
         id="path24" />
      <path
         fill="#adb0aa"
         fill-rule="evenodd"
         stroke="#4b4d4a"
         d="m -26.263968,29.716238 a 9.3944187,3.939595 0 1 1 -18.788837,0 9.3944187,3.939595 0 1 1 18.788837,0 z"
         color="#000000"
         overflow="visible"
         style="marker:none"
         transform="translate(57.53339,3.203427)"
         id="path25" />
      <path
         fill="none"
         stroke="#7b7f7a"
         d="m -26.263968,29.716238 a 9.3944187,3.939595 0 1 1 -18.788837,0 9.3944187,3.939595 0 1 1 18.788837,0 z"
         color="#000000"
         overflow="visible"
         style="marker:none"
         transform="matrix(0.94027,0,0,0.94027,55.40361,4.271194)"
         id="path26" />
      <path
         fill="none"
         stroke="url(#n)"
         stroke-width="0.680653"
         d="m -26.263968,29.716238 a 9.3944187,3.939595 0 1 1 -18.788837,0 9.3944187,3.939595 0 1 1 18.788837,0 z"
         color="#000000"
         overflow="visible"
         style="stroke:url(#n);marker:none"
         transform="matrix(0.94027,0,0,0.94027,55.40361,3.521194)"
         id="path27" />
      <path
         fill="url(#o)"
         fill-rule="evenodd"
         d="m 41.10058,35.051105 a 16.882174,4.552 0 1 1 -33.7643469,0 16.882174,4.552 0 1 1 33.7643469,0 z"
         color="#000000"
         overflow="visible"
         style="display:inline;fill:url(#o);marker:none"
         transform="matrix(1,0,0,1.36893,-1.978553,-19.02126)"
         id="path29" />
      <path
         fill="url(#p)"
         fill-rule="evenodd"
         d="M 17.472397,30.703611 H 26.51207 V 33.44365 H 17.472397 Z"
         color="#000000"
         overflow="visible"
         style="display:inline;fill:url(#p);marker:none"
         id="path30" />
    </g>
    <g
       id="g2">
      <path
         fill="#d0d0d0"
         fill-rule="evenodd"
         stroke="#979797"
         stroke-linejoin="round"
         stroke-width="0.4"
         d="m 25.6875,28.766243 -0.0625,1 c 0,0 4.324108,3.599166 9,4.202507 2.337946,0.30167 4.753675,0.702412 6.75,1.1875 1.996325,0.485088 3.588356,1.119606 4.125,1.65625 0.310411,0.310411 0.451063,0.573639 0.5,0.78125 0.04894,0.207611 0.03822,0.354815 -0.09375,0.5625 -0.263933,0.41537 -1.079857,0.967652 -2.46875,1.40625 C 40.659715,40.439695 35.717076,41 28.875,41 v 1 c 6.895998,0 11.863665,-0.527671 14.84375,-1.46875 1.490042,-0.47054 2.524942,-1.015687 3.03125,-1.8125 C 47.003154,38.320344 47.107321,37.830301 47,37.375 46.892679,36.919699 46.615445,36.490445 46.21875,36.09375 45.34118,35.21618 43.681912,34.68731 41.625,34.1875 39.568088,33.68769 37.109264,33.273171 34.75,32.96875 30.031473,32.359908 25.6875,28.766243 25.6875,28.766243 Z"
         id="path28" />
    </g>
    <g
       id="g1"
       style="display:inline">
      <path
         fill="url(#q)"
         fill-rule="evenodd"
         stroke="url(#r)"
         d="M 7.0809024,1.6956221 H 36.669097 c 0.911342,0 1.624147,0.5834818 1.666752,1.401587 l 1.332044,25.5781139 c 0.05821,1.117735 -0.901056,2.020305 -2.020305,2.020305 H 6.102412 c -1.1192491,0 -2.078514,-0.90257 -2.0203052,-2.020305 L 5.4141506,3.0972091 c 0.040284,-0.7735346 0.5475027,-1.401587 1.6667518,-1.401587 z"
         color="#000000"
         overflow="visible"
         style="fill:url(#q);stroke:url(#r);marker:none"
         id="path31" />
      <path
         fill="url(#s)"
         fill-rule="evenodd"
         stroke="#000079"
         stroke-linejoin="round"
         stroke-width="0.5"
         d="M 8.4105348,4.3058272 7.1683398,26.351144 H 34.818729 L 33.483712,4.3992558 Z"
         id="path32"
         style="fill:url(#s)" />
      <path
         fill="none"
         stroke="url(#t)"
         stroke-linecap="round"
         stroke-opacity="0.248408"
         stroke-width="0.996181"
         d="M 6.1774331,28.735789 H 37.60591"
         id="path33"
         style="stroke:url(#t)" />
      <path
         fill="none"
         stroke="url(#u)"
         stroke-opacity="0.700637"
         stroke-width="1"
         d="M 6.9145985,2.7063396 36.760101,2.6685383 c 0.283697,-3.593e-4 0.559302,0.2372498 0.582105,0.6525438 L 38.704098,28.12433 c 0.05804,1.057031 -0.539749,1.785871 -1.598371,1.785871 H 6.5817583 c -1.0586228,0 -1.5930144,-0.728791 -1.5358714,-1.785871 L 6.3699773,3.6301633 C 6.4086732,2.9143326 6.5363627,2.7068187 6.9145985,2.7063396 Z"
         color="#000000"
         overflow="visible"
         style="stroke:url(#u);marker:none"
         id="path34" />
      <path
         fill="url(#v)"
         fill-rule="evenodd"
         d="M 8.7115364,4.7463626 7.9090069,22.616693 C 18.953645,20.216063 19.33047,12.124494 33.063039,9.4699426 L 32.901567,4.8124267 Z"
         opacity="0.531429"
         id="path35"
         style="fill:url(#v)" />
      <path
         fill="url(#D)"
         fill-rule="evenodd"
         d="m 35.620504,3.9384086 a 0.83968931,0.83968931 0 1 1 -1.679378,0 0.83968931,0.83968931 0 1 1 1.679378,0 z"
         color="#000000"
         overflow="visible"
         style="fill:url(#D);marker:none"
         transform="matrix(1.33124,0,0,0.65845,-10.41933,2.853866)"
         id="path45" />
      <path
         fill="url(#E)"
         fill-rule="evenodd"
         d="m 35.620504,3.9384086 a 0.83968931,0.83968931 0 1 1 -1.679378,0 0.83968931,0.83968931 0 1 1 1.679378,0 z"
         color="#000000"
         overflow="visible"
         style="fill:url(#E);marker:none"
         transform="matrix(1.33124,0,0,0.65845,-10.30573,4.959651)"
         id="path46" />
      <path
         fill="url(#F)"
         fill-rule="evenodd"
         d="m 35.620504,3.9384086 a 0.83968931,0.83968931 0 1 1 -1.679378,0 0.83968931,0.83968931 0 1 1 1.679378,0 z"
         color="#000000"
         overflow="visible"
         style="fill:url(#F);marker:none"
         transform="matrix(1.33124,0,0,0.65845,-10.19213,6.959651)"
         id="path47" />
      <path
         fill="url(#G)"
         fill-rule="evenodd"
         d="m 35.620504,3.9384086 a 0.83968931,0.83968931 0 1 1 -1.679378,0 0.83968931,0.83968931 0 1 1 1.679378,0 z"
         color="#000000"
         overflow="visible"
         style="fill:url(#G);marker:none"
         transform="matrix(1.33124,0,0,0.65845,-10.07853,8.959651)"
         id="path48" />
      <path
         fill="url(#H)"
         fill-rule="evenodd"
         d="m 35.620504,3.9384086 a 0.83968931,0.83968931 0 1 1 -1.679378,0 0.83968931,0.83968931 0 1 1 1.679378,0 z"
         color="#000000"
         overflow="visible"
         style="fill:url(#H);marker:none"
         transform="matrix(1.33124,0,0,0.65845,-9.96493,10.95965)"
         id="path49" />
      <path
         fill="#4a4a4a"
         d="m 20,27.317666 h 0.281716 c 0.08376,1e-6 0.147985,0.01866 0.19266,0.05599 0.04497,0.03703 0.06745,0.08994 0.06745,0.158714 -1e-6,0.06907 -0.02248,0.122268 -0.06745,0.159595 -0.04467,0.03703 -0.108895,0.05555 -0.19266,0.05555 h -0.111981 v 0.22837 H 20 v -0.658219 m 0.169735,0.123003 v 0.183843 h 0.0939 c 0.03292,0 0.05834,-0.0079 0.07627,-0.02381 0.01793,-0.01617 0.02689,-0.03894 0.02689,-0.06834 0,-0.02939 -0.009,-0.05202 -0.02689,-0.06789 -0.01793,-0.01587 -0.04335,-0.02381 -0.07627,-0.02381 h -0.0939 m 0.792244,-0.0119 c -0.05173,1e-6 -0.09185,0.01911 -0.120358,0.05731 -0.02851,0.03821 -0.04276,0.092 -0.04276,0.161359 0,0.06907 0.01425,0.122709 0.04276,0.160918 0.02851,0.03821 0.06863,0.05731 0.120358,0.05731 0.05202,0 0.09229,-0.0191 0.120799,-0.05731 0.02851,-0.03821 0.04276,-0.09185 0.04276,-0.160918 -10e-7,-0.06936 -0.01425,-0.123149 -0.04276,-0.161359 -0.02851,-0.03821 -0.06878,-0.05731 -0.120799,-0.05731 m 0,-0.123003 c 0.105808,1e-6 0.188692,0.03027 0.248651,0.09082 0.05996,0.06055 0.08994,0.144165 0.08994,0.250855 -1e-6,0.106397 -0.02998,0.189868 -0.08994,0.250414 -0.05996,0.06055 -0.142843,0.09082 -0.248651,0.09082 -0.105515,0 -0.188399,-0.03027 -0.248651,-0.09082 -0.05996,-0.06055 -0.08994,-0.144017 -0.08994,-0.250414 0,-0.10669 0.02998,-0.190309 0.08994,-0.250855 0.06025,-0.06055 0.143136,-0.09082 0.248651,-0.09082 m 0.466441,0.0119 h 0.189574 l 0.239393,0.451451 v -0.451451 h 0.160918 v 0.658219 H 21.82873 l -0.239392,-0.451451 v 0.451451 H 21.42842 v -0.658219 m 0.663069,0 h 0.185606 l 0.149896,0.234543 0.149896,-0.234543 h 0.186048 l -0.250856,0.380912 v 0.277307 h -0.169735 v -0.277307 l -0.250855,-0.380912"
         font-family="'Bitstream Vera Sans'"
         font-size="0.902903px"
         font-weight="700"
         id="path50" />
    </g>
    <g
       id="g4">
      <path
         fill="url(#w)"
         fill-rule="evenodd"
         d="m 41.10058,35.051105 a 16.882174,4.552 0 1 1 -33.7643469,0 16.882174,4.552 0 1 1 33.7643469,0 z"
         color="#000000"
         overflow="visible"
         style="fill:url(#w);marker:none"
         transform="matrix(1.2644,0,0,1.29126,-6.216332,-4.000423)"
         id="path36" />
      <path
         fill="url(#x)"
         fill-rule="evenodd"
         stroke="url(#y)"
         d="M 6.4621839,36.817452 H 37.46459 c 1.119249,0 0.977355,0.271438 1.092227,0.612846 l 2.834646,8.42481 c 0.114872,0.341409 0.02702,0.612846 -1.092227,0.612846 H 3.6275382 c -1.1192491,0 -1.2070995,-0.271437 -1.0922275,-0.612846 l 2.8346457,-8.42481 c 0.114872,-0.341409 -0.027022,-0.612846 1.0922275,-0.612846 z"
         color="#000000"
         overflow="visible"
         style="fill:url(#x);stroke:url(#y);marker:none"
         id="path37" />
      <path
         fill="#7a7d77"
         fill-rule="evenodd"
         d="M 6.3916892,38.829113 4.6239223,43.955638 H 10.104 l 0.53033,-2.032932 h 14.849242 l 0.549679,2.075114 h 6.167835 l -1.679378,-5.168707 z"
         id="path38" />
      <path
         fill="#777874"
         fill-rule="evenodd"
         d="M 11.076272,42.27626 10.63433,43.955639 H 25.395184 L 24.953242,42.187872 Z"
         id="path39" />
      <path
         fill="#777a75"
         fill-rule="evenodd"
         d="m 37.592776,38.829114 1.679379,5.038136 -5.480078,-0.08839 -1.502602,-4.861359 z"
         color="#000000"
         overflow="visible"
         style="marker:none"
         id="path40" />
      <path
         fill="url(#z)"
         fill-rule="evenodd"
         d="m 37.592776,38.298786 1.679379,5.038136 -5.480078,-0.08839 -1.502602,-4.861359 z"
         color="#000000"
         overflow="visible"
         style="fill:url(#z);marker:none"
         id="path41" />
      <path
         fill="url(#A)"
         fill-rule="evenodd"
         d="M 6.3916892,38.210397 4.6239223,43.336922 H 10.104 l 0.53033,-2.032932 h 14.849242 l 0.549679,2.075114 h 6.167835 l -1.679378,-5.168707 z"
         id="path42"
         style="fill:url(#A)" />
      <path
         fill="url(#B)"
         fill-rule="evenodd"
         d="M 11.076272,41.745932 10.63433,43.425311 H 25.395184 L 24.953242,41.657544 Z"
         color="#000000"
         overflow="visible"
         style="fill:url(#B);marker:none"
         id="path43" />
      <path
         fill="none"
         stroke="url(#C)"
         stroke-linejoin="round"
         stroke-width="0.5"
         d="M 6.1278189,37.578116 H 37.953634 l 2.637179,8.092563 H 3.3297429 Z"
         color="#000000"
         overflow="visible"
         style="stroke:url(#C);marker:none"
         id="path44" />
    </g>
  </g>
  <metadata
     id="metadata50">
    <rdf:RDF>
      <cc:Work
         rdf:about="">
        <dc:source>https://commons.wikimedia.org/wiki/File:Computer.svg</dc:source>
        <cc:license
           rdf:resource="http://creativecommons.org/publicdomain/zero/1.0/" />
        <dc:title>Computer, Workstation</dc:title>
      </cc:Work>
      <cc:License
         rdf:about="http://creativecommons.org/publicdomain/zero/1.0/">
        <cc:permits
           rdf:resource="http://creativecommons.org/ns#Reproduction" />
        <cc:permits
           rdf:resource="http://creativecommons.org/ns#Distribution" />
        <cc:permits
           rdf:resource="http://creativecommons.org/ns#DerivativeWorks" />
      </cc:License>
    </rdf:RDF>
  </metadata>
</svg>
