<?xml version="1.0" encoding="UTF-8" standalone="no"?>
<!-- Uploaded to: SVG Repo, www.svgrepo.com, Generator: SVG Repo Mixer Tools -->

<svg
   version="1.1"
   id="Layer_1"
   viewBox="0 0 255.99999 255.99999"
   xml:space="preserve"
   sodipodi:docname="preferences-device-cpu.svg"
   width="256"
   height="256"
   inkscape:version="1.3.2 (091e20ef0f, 2023-11-25)"
   xmlns:inkscape="http://www.inkscape.org/namespaces/inkscape"
   xmlns:sodipodi="http://sodipodi.sourceforge.net/DTD/sodipodi-0.dtd"
   xmlns="http://www.w3.org/2000/svg"
   xmlns:svg="http://www.w3.org/2000/svg"
   xmlns:rdf="http://www.w3.org/1999/02/22-rdf-syntax-ns#"
   xmlns:cc="http://creativecommons.org/ns#"><defs
   id="defs33" /><sodipodi:namedview
   id="namedview33"
   pagecolor="#ffffff"
   bordercolor="#000000"
   borderopacity="0.25"
   inkscape:showpageshadow="2"
   inkscape:pageopacity="0.0"
   inkscape:pagecheckerboard="0"
   inkscape:deskcolor="#d1d1d1"
   inkscape:current-layer="Layer_1" />
<g
   id="g33"
   transform="matrix(0.75894987,0,0,0.75894987,1,1.4021529)">
	<g
   id="g7">
		<path
   style="fill:#333e48"
   d="m 176.102,59.459 c -2.764,0 -5.005,-2.241 -5.005,-5.005 V 15.017 c 0,-2.765 2.241,-5.006 5.005,-5.006 2.765,0 5.006,2.241 5.006,5.006 v 39.437 c -0.001,2.764 -2.242,5.005 -5.006,5.005 z"
   id="path1" />
		<path
   style="fill:#333e48"
   d="m 150.316,59.459 c -2.764,0 -5.006,-2.241 -5.006,-5.005 V 15.017 c 0,-2.765 2.242,-5.006 5.006,-5.006 2.764,0 5.005,2.241 5.005,5.006 v 39.437 c 0,2.764 -2.241,5.005 -5.005,5.005 z"
   id="path2" />
		<path
   style="fill:#333e48"
   d="m 124.531,59.459 c -2.765,0 -5.006,-2.241 -5.006,-5.005 V 15.017 c 0,-2.765 2.241,-5.006 5.006,-5.006 2.764,0 5.005,2.241 5.005,5.006 v 39.437 c 0,2.764 -2.241,5.005 -5.005,5.005 z"
   id="path3" />
		<path
   style="fill:#333e48"
   d="m 98.745,59.459 c -2.764,0 -5.005,-2.241 -5.005,-5.005 V 15.017 c 0,-2.765 2.241,-5.006 5.005,-5.006 2.765,0 5.006,2.241 5.006,5.006 v 39.437 c 0,2.764 -2.241,5.005 -5.006,5.005 z"
   id="path4" />
		<path
   style="fill:#333e48"
   d="m 201.888,59.459 c -2.765,0 -5.006,-2.241 -5.006,-5.005 V 15.017 c 0,-2.765 2.241,-5.006 5.006,-5.006 2.764,0 5.005,2.241 5.005,5.006 v 39.437 c 0,2.764 -2.242,5.005 -5.005,5.005 z"
   id="path5" />
		<path
   style="fill:#333e48"
   d="m 227.673,59.459 c -2.764,0 -5.006,-2.241 -5.006,-5.005 V 15.017 c 0,-2.765 2.242,-5.006 5.006,-5.006 2.764,0 5.006,2.241 5.006,5.006 v 39.437 c 0,2.764 -2.243,5.005 -5.006,5.005 z"
   id="path6" />
		<path
   style="fill:#333e48"
   d="m 253.458,59.459 c -2.764,0 -5.005,-2.241 -5.005,-5.005 V 15.017 c 0,-2.765 2.241,-5.006 5.005,-5.006 2.765,0 5.006,2.241 5.006,5.006 v 39.437 c 0,2.764 -2.241,5.005 -5.006,5.005 z"
   id="path7" />
	</g>
	<g
   id="g14">
		<path
   style="fill:#333e48"
   d="m 176.102,323.991 c -2.764,0 -5.005,-2.241 -5.005,-5.006 v -39.438 c 0,-2.765 2.241,-5.005 5.005,-5.005 2.765,0 5.006,2.241 5.006,5.005 v 39.438 c -0.001,2.765 -2.242,5.006 -5.006,5.006 z"
   id="path8" />
		<path
   style="fill:#333e48"
   d="m 201.888,323.991 c -2.765,0 -5.006,-2.241 -5.006,-5.006 v -39.438 c 0,-2.765 2.241,-5.005 5.006,-5.005 2.764,0 5.005,2.241 5.005,5.005 v 39.438 c 0,2.765 -2.242,5.006 -5.005,5.006 z"
   id="path9" />
		<path
   style="fill:#333e48"
   d="m 227.673,323.991 c -2.764,0 -5.006,-2.241 -5.006,-5.006 v -39.438 c 0,-2.765 2.242,-5.005 5.006,-5.005 2.764,0 5.006,2.241 5.006,5.005 v 39.438 c 0,2.765 -2.243,5.006 -5.006,5.006 z"
   id="path10" />
		<path
   style="fill:#333e48"
   d="m 253.458,323.991 c -2.764,0 -5.005,-2.241 -5.005,-5.006 v -39.438 c 0,-2.765 2.241,-5.005 5.005,-5.005 2.765,0 5.006,2.241 5.006,5.005 v 39.438 c 0,2.765 -2.241,5.006 -5.006,5.006 z"
   id="path11" />
		<path
   style="fill:#333e48"
   d="m 150.316,323.991 c -2.764,0 -5.006,-2.241 -5.006,-5.006 v -39.438 c 0,-2.765 2.242,-5.005 5.006,-5.005 2.764,0 5.005,2.241 5.005,5.005 v 39.438 c 0,2.765 -2.241,5.006 -5.005,5.006 z"
   id="path12" />
		<path
   style="fill:#333e48"
   d="m 124.531,323.991 c -2.765,0 -5.006,-2.241 -5.006,-5.006 v -39.438 c 0,-2.765 2.241,-5.005 5.006,-5.005 2.764,0 5.005,2.241 5.005,5.005 v 39.438 c 0,2.765 -2.241,5.006 -5.005,5.006 z"
   id="path13" />
		<path
   style="fill:#333e48"
   d="m 98.745,323.991 c -2.764,0 -5.005,-2.241 -5.005,-5.006 v -39.438 c 0,-2.765 2.241,-5.005 5.005,-5.005 2.765,0 5.006,2.241 5.006,5.005 v 39.438 c 0,2.765 -2.241,5.006 -5.006,5.006 z"
   id="path14" />
	</g>
	<g
   id="g21">
		<path
   style="fill:#333e48"
   d="m 328.996,172.006 h -39.438 c -2.764,0 -5.005,-2.241 -5.005,-5.005 0,-2.765 2.241,-5.005 5.005,-5.005 h 39.438 c 2.765,0 5.006,2.241 5.006,5.005 0,2.765 -2.241,5.005 -5.006,5.005 z"
   id="path15" />
		<path
   style="fill:#333e48"
   d="m 328.996,146.221 h -39.438 c -2.764,0 -5.005,-2.241 -5.005,-5.005 0,-2.764 2.241,-5.005 5.005,-5.005 h 39.438 c 2.765,0 5.006,2.241 5.006,5.005 0,2.764 -2.241,5.005 -5.006,5.005 z"
   id="path16" />
		<path
   style="fill:#333e48"
   d="m 328.996,120.436 h -39.438 c -2.764,0 -5.005,-2.241 -5.005,-5.006 0,-2.764 2.241,-5.005 5.005,-5.005 h 39.438 c 2.765,0 5.006,2.241 5.006,5.005 0,2.764 -2.241,5.006 -5.006,5.006 z"
   id="path17" />
		<path
   style="fill:#333e48"
   d="m 328.996,94.65 h -39.438 c -2.764,0 -5.005,-2.241 -5.005,-5.005 0,-2.765 2.241,-5.005 5.005,-5.005 h 39.438 c 2.765,0 5.006,2.241 5.006,5.005 0,2.764 -2.241,5.005 -5.006,5.005 z"
   id="path18" />
		<path
   style="fill:#333e48"
   d="m 328.996,197.792 h -39.438 c -2.764,0 -5.005,-2.241 -5.005,-5.005 0,-2.765 2.241,-5.005 5.005,-5.005 h 39.438 c 2.765,0 5.006,2.241 5.006,5.005 0,2.764 -2.241,5.005 -5.006,5.005 z"
   id="path19" />
		<path
   style="fill:#333e48"
   d="m 328.996,223.578 h -39.438 c -2.764,0 -5.005,-2.242 -5.005,-5.006 0,-2.765 2.241,-5.006 5.005,-5.006 h 39.438 c 2.765,0 5.006,2.241 5.006,5.006 0,2.764 -2.241,5.006 -5.006,5.006 z"
   id="path20" />
		<path
   style="fill:#333e48"
   d="m 328.996,249.363 h -39.438 c -2.764,0 -5.005,-2.241 -5.005,-5.005 0,-2.765 2.241,-5.005 5.005,-5.005 h 39.438 c 2.765,0 5.006,2.241 5.006,5.005 0,2.764 -2.241,5.005 -5.006,5.005 z"
   id="path21" />
	</g>
	<path
   style="fill:#009638"
   d="m 285.711,57.439 c 0,-7.508 -6.143,-13.651 -13.651,-13.651 H 52.937 c -7.508,0 -13.65,6.143 -13.65,13.651 v 219.123 c 0,7.508 6.142,13.651 13.65,13.651 H 272.06 c 7.509,0 13.651,-6.143 13.651,-13.651 z"
   id="path22" />
	<g
   id="g29">
		<path
   style="fill:#333e48"
   d="M 44.443,172.006 H 5.006 C 2.241,172.006 0,169.765 0,167.001 c 0,-2.765 2.241,-5.005 5.006,-5.005 h 39.438 c 2.764,0 5.005,2.241 5.005,5.005 -10e-4,2.765 -2.242,5.005 -5.006,5.005 z"
   id="path23" />
		<path
   style="fill:#333e48"
   d="M 44.443,197.792 H 5.006 C 2.241,197.792 0,195.551 0,192.787 c 0,-2.765 2.241,-5.005 5.006,-5.005 h 39.438 c 2.764,0 5.005,2.241 5.005,5.005 -10e-4,2.764 -2.242,5.005 -5.006,5.005 z"
   id="path24" />
		<path
   style="fill:#333e48"
   d="M 44.443,223.578 H 5.006 C 2.241,223.578 0,221.336 0,218.572 c 0,-2.765 2.241,-5.006 5.006,-5.006 h 39.438 c 2.764,0 5.005,2.241 5.005,5.006 -10e-4,2.764 -2.242,5.006 -5.006,5.006 z"
   id="path25" />
		<path
   style="fill:#333e48"
   d="M 44.443,249.363 H 5.006 C 2.241,249.363 0,247.122 0,244.358 c 0,-2.765 2.241,-5.005 5.006,-5.005 h 39.438 c 2.764,0 5.005,2.241 5.005,5.005 -10e-4,2.764 -2.242,5.005 -5.006,5.005 z"
   id="path26" />
		<path
   style="fill:#333e48"
   d="M 44.443,146.221 H 5.006 C 2.241,146.221 0,143.98 0,141.216 c 0,-2.764 2.241,-5.005 5.006,-5.005 h 39.438 c 2.764,0 5.005,2.241 5.005,5.005 -10e-4,2.764 -2.242,5.005 -5.006,5.005 z"
   id="path27" />
		<path
   style="fill:#333e48"
   d="M 44.443,120.436 H 5.006 C 2.241,120.436 0,118.195 0,115.43 c 0,-2.764 2.241,-5.005 5.006,-5.005 h 39.438 c 2.764,0 5.005,2.241 5.005,5.005 -10e-4,2.764 -2.242,5.006 -5.006,5.006 z"
   id="path28" />
		<path
   style="fill:#333e48"
   d="M 44.443,94.65 H 5.006 C 2.241,94.65 0,92.409 0,89.645 0,86.88 2.241,84.64 5.006,84.64 h 39.438 c 2.764,0 5.005,2.241 5.005,5.005 -10e-4,2.764 -2.242,5.005 -5.006,5.005 z"
   id="path29" />
	</g>
	<path
   style="fill:#00af41"
   d="m 302.955,57.439 c 0,-7.508 -6.144,-13.651 -13.651,-13.651 H 70.181 c -7.508,0 -13.651,6.143 -13.651,13.651 v 219.123 c 0,7.508 6.144,13.651 13.651,13.651 h 219.123 c 7.508,0 13.651,-6.143 13.651,-13.651 z"
   id="path30" />
	<path
   style="fill:#c3c6c8"
   d="m 265.595,90.501 c 0,-10.011 -8.191,-18.202 -18.202,-18.202 H 103.241 c -10.011,0 -18.201,8.19 -18.201,18.202 v 136.442 c 0,10.011 8.19,18.202 18.201,18.202 h 144.151 c 10.011,0 18.202,-8.191 18.202,-18.202 V 90.501 Z"
   id="path31" />
	<rect
   x="284.55399"
   y="72.299004"
   style="fill:#ffc843"
   width="18.400999"
   height="116.848"
   id="rect31" />
	<rect
   x="108.693"
   y="115.68"
   style="fill:#333e48"
   width="133.24699"
   height="19.593"
   id="rect32" />
	<rect
   x="121.618"
   y="145.588"
   style="fill:#333e48"
   width="107.397"
   height="9.7959995"
   id="rect33" />
</g>
<metadata
   id="metadata33"><rdf:RDF><cc:License
       rdf:about="http://creativecommons.org/publicdomain/zero/1.0/"><cc:permits
         rdf:resource="http://creativecommons.org/ns#Reproduction" /><cc:permits
         rdf:resource="http://creativecommons.org/ns#Distribution" /><cc:permits
         rdf:resource="http://creativecommons.org/ns#DerivativeWorks" /></cc:License><cc:Work
       rdf:about=""><cc:license
         rdf:resource="http://creativecommons.org/publicdomain/zero/1.0/" /></cc:Work></rdf:RDF></metadata></svg>
