<?xml version="1.0" encoding="UTF-8" standalone="no"?>
<!-- Created with Inkscape (http://www.inkscape.org/) -->

<svg
   width="256"
   height="256"
   id="svg7429"
   sodipodi:version="0.32"
   inkscape:version="1.4.2 (ebf0e940d0, 2025-05-08)"
   sodipodi:docname="drive-removable-media-00.svg"
   inkscape:output_extension="org.inkscape.output.svg.inkscape"
   inkscape:export-filename="/home/bellaich/usb-storage.png"
   inkscape:export-xdpi="90"
   inkscape:export-ydpi="90"
   version="1.1"
   viewBox="0 0 256 256"
   xmlns:inkscape="http://www.inkscape.org/namespaces/inkscape"
   xmlns:sodipodi="http://sodipodi.sourceforge.net/DTD/sodipodi-0.dtd"
   xmlns:xlink="http://www.w3.org/1999/xlink"
   xmlns="http://www.w3.org/2000/svg"
   xmlns:svg="http://www.w3.org/2000/svg"
   xmlns:rdf="http://www.w3.org/1999/02/22-rdf-syntax-ns#"
   xmlns:cc="http://creativecommons.org/ns#"
   xmlns:dc="http://purl.org/dc/elements/1.1/">
  <defs
     id="defs7431">
    <linearGradient
       inkscape:collect="always"
       id="linearGradient6545">
      <stop
         style="stop-color:#555753;stop-opacity:1"
         offset="0"
         id="stop6547" />
      <stop
         style="stop-color:#d3d7cf;stop-opacity:1"
         offset="1"
         id="stop6549" />
    </linearGradient>
    <linearGradient
       inkscape:collect="always"
       id="linearGradient5571">
      <stop
         style="stop-color: rgb(255, 255, 255); stop-opacity: 1;"
         offset="0"
         id="stop5573" />
      <stop
         style="stop-color: rgb(255, 255, 255); stop-opacity: 0;"
         offset="1"
         id="stop5575" />
    </linearGradient>
    <linearGradient
       id="linearGradient5509">
      <stop
         style="stop-color: rgb(249, 0, 0); stop-opacity: 1;"
         offset="0"
         id="stop5511" />
      <stop
         id="stop5517"
         offset="0.8771072"
         style="stop-color: rgb(148, 0, 0); stop-opacity: 1;" />
      <stop
         style="stop-color: rgb(252, 0, 0); stop-opacity: 1;"
         offset="1"
         id="stop5513" />
    </linearGradient>
    <linearGradient
       inkscape:collect="always"
       id="linearGradient5401">
      <stop
         style="stop-color: rgb(0, 0, 0); stop-opacity: 1;"
         offset="0"
         id="stop5403" />
      <stop
         style="stop-color: rgb(0, 0, 0); stop-opacity: 0;"
         offset="1"
         id="stop5405" />
    </linearGradient>
    <inkscape:perspective
       sodipodi:type="inkscape:persp3d"
       id="perspective41"
       inkscape:vp_x="-50 : 808 : 1"
       inkscape:vp_y="0 : 1000 : 0"
       inkscape:vp_z="700 : 808 : 1"
       inkscape:persp3d-origin="300 : 608 : 1" />
    <linearGradient
       inkscape:collect="always"
       id="linearGradient4862">
      <stop
         style="stop-color: rgb(255, 255, 255); stop-opacity: 1;"
         offset="0"
         id="stop4864" />
      <stop
         style="stop-color: rgb(255, 255, 255); stop-opacity: 0;"
         offset="1"
         id="stop4866" />
    </linearGradient>
    <linearGradient
       id="linearGradient3494">
      <stop
         id="stop3496"
         offset="0"
         style="stop-color: rgb(46, 52, 54); stop-opacity: 0.824742;" />
      <stop
         id="stop3498"
         offset="1"
         style="stop-color: rgb(46, 52, 54); stop-opacity: 0;" />
    </linearGradient>
    <linearGradient
       id="linearGradient3506">
      <stop
         id="stop3508"
         offset="0"
         style="stop-color: rgb(85, 87, 83); stop-opacity: 1;" />
      <stop
         id="stop3510"
         offset="1"
         style="stop-color: rgb(85, 87, 83); stop-opacity: 0.226804;" />
    </linearGradient>
    <linearGradient
       id="linearGradient3161">
      <stop
         style="stop-color: rgb(211, 215, 207); stop-opacity: 1;"
         offset="0"
         id="stop3163" />
      <stop
         style="stop-color: rgb(187, 193, 181); stop-opacity: 1;"
         offset="1"
         id="stop3165" />
    </linearGradient>
    <linearGradient
       inkscape:collect="always"
       xlink:href="#linearGradient3494"
       id="linearGradient3868"
       gradientUnits="userSpaceOnUse"
       gradientTransform="matrix(1.32468,0,0,1.32468,0.0448452,-52.9286)"
       x1="20.405081"
       y1="6.9878068"
       x2="20.405081"
       y2="9.1187258" />
    <linearGradient
       inkscape:collect="always"
       xlink:href="#linearGradient3506"
       id="linearGradient3870"
       gradientUnits="userSpaceOnUse"
       gradientTransform="matrix(1.32468,0,0,1.32468,0.0448452,-52.9286)"
       x1="21.718279"
       y1="6.1796846"
       x2="21.718279"
       y2="10.010373" />
    <linearGradient
       inkscape:collect="always"
       xlink:href="#linearGradient3494"
       id="linearGradient3874"
       gradientUnits="userSpaceOnUse"
       gradientTransform="matrix(1.32468,0,0,1.32468,-4.95515,-52.9286)"
       x1="20.405081"
       y1="6.9878068"
       x2="20.405081"
       y2="9.1187258" />
    <linearGradient
       inkscape:collect="always"
       xlink:href="#linearGradient3506"
       id="linearGradient3876"
       gradientUnits="userSpaceOnUse"
       gradientTransform="matrix(1.32468,0,0,1.32468,-4.95515,-52.9286)"
       x1="21.718279"
       y1="6.1796846"
       x2="21.718279"
       y2="10.010373" />
    <linearGradient
       inkscape:collect="always"
       xlink:href="#linearGradient3161"
       id="linearGradient3880"
       gradientUnits="userSpaceOnUse"
       gradientTransform="matrix(1,0,0,0.9375,3.03962,-28.1497)"
       x1="23.334524"
       y1="-18.569054"
       x2="23.334524"
       y2="-4.1229234" />
    <linearGradient
       inkscape:collect="always"
       xlink:href="#linearGradient4862"
       id="linearGradient4868"
       x1="19.003906"
       y1="19.002398"
       x2="29.019531"
       y2="32.576614"
       gradientUnits="userSpaceOnUse"
       gradientTransform="matrix(1,0,0,1.00014,0,-0.00507673)" />
    <radialGradient
       inkscape:collect="always"
       xlink:href="#linearGradient5401"
       id="radialGradient5407"
       cx="13.75"
       cy="6.0151653"
       fx="13.75"
       fy="6.0151653"
       r="7.7424641"
       gradientTransform="matrix(1,0,0,7.24347,0,-37.5555)"
       gradientUnits="userSpaceOnUse" />
    <linearGradient
       inkscape:collect="always"
       xlink:href="#linearGradient5509"
       id="linearGradient5515"
       x1="24.530645"
       y1="1"
       x2="25.382771"
       y2="36.991688"
       gradientUnits="userSpaceOnUse" />
    <radialGradient
       inkscape:collect="always"
       xlink:href="#linearGradient5571"
       id="radialGradient5577"
       cx="28.875"
       cy="4"
       fx="28.875"
       fy="4"
       r="9.5"
       gradientTransform="matrix(2.88233,0,0,4.29821,-54.3523,-13.1928)"
       gradientUnits="userSpaceOnUse" />
    <inkscape:perspective
       id="perspective5730"
       inkscape:persp3d-origin="372.04724 : 558.78739 : 1"
       inkscape:vp_z="744.09448 : 734.18109 : 1"
       inkscape:vp_y="0 : 1000 : 0"
       inkscape:vp_x="0 : 734.18109 : 1"
       sodipodi:type="inkscape:persp3d" />
    <inkscape:perspective
       id="perspective5744"
       inkscape:persp3d-origin="372.04724 : 558.78739 : 1"
       inkscape:vp_z="744.09448 : 734.18109 : 1"
       inkscape:vp_y="0 : 1000 : 0"
       inkscape:vp_x="0 : 734.18109 : 1"
       sodipodi:type="inkscape:persp3d" />
    <linearGradient
       inkscape:collect="always"
       xlink:href="#linearGradient6545"
       id="linearGradient6551"
       x1="25.055912"
       y1="34.029926"
       x2="25.026901"
       y2="16.031618"
       gradientUnits="userSpaceOnUse"
       spreadMethod="pad" />
    <inkscape:perspective
       id="perspective6661"
       inkscape:persp3d-origin="88.5 : 220 : 1"
       inkscape:vp_z="177 : 226 : 1"
       inkscape:vp_y="0 : 1000 : 0"
       inkscape:vp_x="0 : 226 : 1"
       sodipodi:type="inkscape:persp3d" />
    <filter
       inkscape:collect="always"
       id="filter6832"
       x="-0.058172305"
       width="1.1163446"
       y="-0.64941446"
       height="2.2988289">
      <feGaussianBlur
         inkscape:collect="always"
         stdDeviation="0.93015095"
         id="feGaussianBlur6834" />
    </filter>
  </defs>
  <sodipodi:namedview
     id="base"
     pagecolor="#ffffff"
     bordercolor="#666666"
     borderopacity="1.0"
     inkscape:pageopacity="0.0"
     inkscape:pageshadow="2"
     inkscape:zoom="1.5461285"
     inkscape:cx="158.13692"
     inkscape:cy="289.43261"
     inkscape:current-layer="svg7429"
     showgrid="false"
     inkscape:grid-bbox="true"
     inkscape:document-units="px"
     showguides="true"
     inkscape:guide-bbox="true"
     inkscape:showpageshadow="false"
     inkscape:window-width="1280"
     inkscape:window-height="977"
     inkscape:window-x="-4"
     inkscape:window-y="-4"
     inkscape:pagecheckerboard="0"
     inkscape:deskcolor="#d1d1d1">
    <inkscape:grid
       type="xygrid"
       id="grid4816"
       originx="0"
       originy="0"
       spacingy="1"
       spacingx="1"
       units="px"
       visible="false" />
  </sodipodi:namedview>
  <metadata
     id="metadata7434">
    <rdf:RDF>
      <cc:Work
         rdf:about="">
        <dc:format>image/svg+xml</dc:format>
        <dc:type
           rdf:resource="http://purl.org/dc/dcmitype/StillImage" />
        <dc:title>Verbatim store'n'go</dc:title>
        <dc:date>May 2007</dc:date>
        <dc:creator>
          <cc:Agent>
            <dc:title>F.bellaiche &lt;frederic.bellaiche@gmail.com&gt;</dc:title>
          </cc:Agent>
        </dc:creator>
        <dc:publisher>
          <cc:Agent>
            <dc:title />
          </cc:Agent>
        </dc:publisher>
        <dc:source>https://commons.wikimedia.org/wiki/File:Media-flash-usb-kingstone-8gb.svg</dc:source>
        <dc:subject>
          <rdf:Bag />
        </dc:subject>
        <dc:rights>
          <cc:Agent>
            <dc:title />
          </cc:Agent>
        </dc:rights>
        <dc:identifier />
        <dc:relation />
        <dc:language />
        <dc:coverage />
        <dc:description>change the Size-name to XX : blackcrack</dc:description>
        <dc:contributor>
          <cc:Agent>
            <dc:title>20220704 blackcrack</dc:title>
          </cc:Agent>
        </dc:contributor>
        <cc:license
           rdf:resource="http://creativecommons.org/publicdomain/zero/1.0/" />
      </cc:Work>
      <cc:License
         rdf:about="http://creativecommons.org/publicdomain/zero/1.0/">
        <cc:permits
           rdf:resource="http://creativecommons.org/ns#Reproduction" />
        <cc:permits
           rdf:resource="http://creativecommons.org/ns#Distribution" />
        <cc:permits
           rdf:resource="http://creativecommons.org/ns#DerivativeWorks" />
      </cc:License>
    </rdf:RDF>
  </metadata>
  <g
     id="g1"
     style="display:inline"
     transform="matrix(5.3128224,0,0,5.3128224,-4.3155155,-15.546189)">
    <rect
       style="opacity:0.4;fill:#555753;fill-opacity:1;fill-rule:evenodd;stroke:none;stroke-width:1;stroke-linecap:butt;stroke-linejoin:miter;stroke-miterlimit:4;stroke-dasharray:none;stroke-opacity:1;filter:url(#filter6832)"
       id="rect6754"
       width="38.375"
       height="3.4375"
       x="5.0625"
       y="32.125"
       transform="matrix(1.0032573,0,0,1,3.1710098,-0.1446065)" />
    <path
       style="opacity:1;fill:#555753;fill-opacity:1;fill-rule:evenodd;stroke:#2e3436;stroke-width:1;stroke-linecap:butt;stroke-linejoin:miter;stroke-miterlimit:4;stroke-opacity:1"
       d="M 19.5625,32 H 29.5 v 2.5 h -9.9375 z"
       id="rect6751"
       sodipodi:nodetypes="ccccc" />
    <path
       style="fill:#d3d7cf;fill-opacity:1;fill-rule:evenodd;stroke:#2e3436;stroke-width:1;stroke-linecap:butt;stroke-linejoin:miter;stroke-miterlimit:4;stroke-opacity:1"
       d="M 1.5005069,19.501375 H 11.55888 v 9.998064 H 1.5005069 Z"
       id="rect5751"
       sodipodi:nodetypes="ccccc" />
    <path
       sodipodi:nodetypes="ccccc"
       id="path6836"
       d="M 2.5005069,20.470125 H 11.55888 v 8.029314 H 2.5005069 Z"
       style="fill:none;fill-opacity:1;fill-rule:evenodd;stroke:#eeeeec;stroke-width:1;stroke-linecap:butt;stroke-linejoin:miter;stroke-miterlimit:4;stroke-opacity:1" />
    <path
       style="fill:url(#linearGradient6551);fill-opacity:1;fill-rule:evenodd;stroke:#2e3436;stroke-width:1;stroke-linecap:butt;stroke-linejoin:miter;stroke-miterlimit:4;stroke-opacity:1"
       d="m 11.003184,15.502061 h 34.001145 c 0.829654,0 1.49757,0.646637 1.49757,1.449858 v 15.096899 c 0,0.803221 -0.667916,1.449858 -1.49757,1.449858 H 11.003184 c -0.829654,0 -1.4975698,-0.646637 -1.4975698,-1.449858 V 16.951919 c 0,-0.803221 0.6679158,-1.449858 1.4975698,-1.449858 z"
       id="rect5753"
       sodipodi:nodetypes="ccccccccc" />
    <path
       sodipodi:nodetypes="ccccccccc"
       id="path6553"
       d="m 11.003184,16.502061 h 33.993332 c 0.222234,0.0078 0.505382,0.09976 0.505382,0.496733 v 15.003149 c 0,0.287596 -0.199166,0.496733 -0.505382,0.496733 H 11.003184 c -0.290591,-0.0078 -0.49757,-0.201324 -0.49757,-0.496733 V 16.998794 c 0,-0.311034 0.175729,-0.496733 0.49757,-0.496733 z"
       style="fill:none;fill-opacity:1;fill-rule:evenodd;stroke:#d3d7cf;stroke-width:1;stroke-linecap:butt;stroke-linejoin:miter;stroke-miterlimit:4;stroke-opacity:1" />
    <path
       style="opacity:0.845833;fill:#555753;fill-opacity:1;fill-rule:evenodd;stroke:#2e3436;stroke-width:1;stroke-linecap:butt;stroke-linejoin:miter;stroke-miterlimit:4;stroke-opacity:1"
       d="m 21.199142,21.499829 h 25.302984 v 6.00598 H 21.199142 c -0.941988,0 -1.692528,-0.734914 -1.692528,-1.676903 v -2.6053 c 0,-0.941989 0.75054,-1.723777 1.692528,-1.723777 z"
       id="rect5759"
       sodipodi:nodetypes="ccccccc" />
    <path
       style="opacity:0.270833;fill:#eeeeec;fill-opacity:1;fill-rule:evenodd;stroke:none;stroke-width:1px;stroke-linecap:butt;stroke-linejoin:miter;stroke-opacity:1"
       d="m 10.625,16.375 h 35 v 4.578125 l 0.34375,0.0078 V 28.03125 L 45.625,28.015625 V 32.4375 c -3.576772,-2.600311 -7.064973,-4.376015 -9.493522,-5.443978 l 1.680659,-0.0039 -9.924705,-4.99131 -1.431508,-0.01673 C 23.506998,20.395283 17.303109,18.176057 10.625,16.375 Z"
       id="path6555"
       sodipodi:nodetypes="cccccccccccc" />
    <path
       style="fill:#d3d7cf;fill-opacity:1;fill-rule:evenodd;stroke:#555753;stroke-width:1;stroke-linecap:butt;stroke-linejoin:miter;stroke-miterlimit:4;stroke-opacity:1"
       d="m 3.5,21.5 h 3 v 2 h -3 z"
       id="rect6582"
       sodipodi:nodetypes="ccccc" />
    <path
       style="fill:#d3d7cf;fill-opacity:1;fill-rule:evenodd;stroke:#555753;stroke-width:1;stroke-linecap:butt;stroke-linejoin:miter;stroke-miterlimit:4;stroke-opacity:1"
       d="m 3.5,25.46875 h 3 V 27.5 h -3 z"
       id="rect6584"
       sodipodi:nodetypes="ccccc" />
    <g
       id="g6732"
       transform="matrix(0.2887186,0,0,0.2887186,31.373903,10.985865)"
       style="opacity:0.637931">
      <path
         id="path6630"
         d="m -67.6055,32.6915 c -0.264,-0.264 -0.527,-1.581 -0.527,-1.581 0,-0.791 0.264,-1.054 0.264,-1.054 0,0 4.479,-2.371 12.384,-2.371 2.634,-0.264 6.587,-0.264 10.803,1.054 0.263,0.263 0.527,0.527 0.527,0.79 0.263,0.527 0.263,1.054 0.263,1.317 0.264,1.054 0.264,1.845 0.264,2.372 0,0.264 -0.527,1.054 -0.527,1.317 -0.264,0.791 0.263,3.425 0,4.743 0,1.318 -0.527,6.061 -1.845,8.959 -1.054,3.162 -3.162,2.635 -4.215,2.635 l 5.006,10.54 h -23.978 l 3.689,-18.444 c 0,0 0,-0.527 -0.527,-0.791 -0.79,-0.527 -1.581,-1.581 -1.581,-1.581 0,0 -0.527,-0.528 -1.054,-3.425 0,0 -0.527,-2.898 0,-3.426 0.264,-0.263 0.791,-0.791 1.054,-0.791 z"
         clip-rule="evenodd"
         style="fill-rule:evenodd" />
      <path
         id="path6632"
         d="m -48.6345,37.6975 -1.58,-0.526 c 0,0 -0.264,0 -0.527,0.263 0,0.264 -0.264,1.317 -0.264,1.317 0,0 0,0 0,0.264 l 3.689,2.635 c 0,0 -2.898,-0.264 -3.952,-0.264 -1.054,0.264 -2.898,1.318 -4.216,1.582 -1.054,0.263 -5.797,0.527 -6.06,0.527 l -1.845,-7.379 c 0,0 -0.264,-1.844 -2.108,-1.844 -1.581,0 -1.844,0.263 -1.844,0.527 -0.264,0.264 0,0.527 0,0.527 l 5.006,8.168 c 0,0 -3.425,-1.581 -4.743,-3.162 -0.791,-1.054 -1.317,-5.533 -0.791,-6.324 0.264,-0.526 3.162,-1.317 4.216,-1.054 0.527,0 1.054,0.527 1.317,1.054 0.264,0 0.264,0 0.264,0 0,0 -0.263,-1.581 -1.317,-1.581 -1.845,-0.263 -3.425,0.264 -3.425,0.264 h -0.264 c 0,-0.264 -0.263,-1.845 -0.263,-1.845 0,0 0,-0.263 0.263,-0.527 0,0 4.743,-2.108 11.857,-2.108 0.791,0 7.378,0 10.54,1.317 0.263,0.264 0,1.054 0,1.845 -0.264,0.263 -0.791,0.527 -0.791,0.527 -0.263,0 -0.527,0.527 -0.527,0.527 0,0 0.527,6.06 0.791,6.324 0,0.264 -0.264,0.264 -1.054,0.264 -0.264,0 -3.425,0 -3.425,0 0,0 -0.791,0 -0.791,-0.527 0,-0.263 0.264,-0.79 0.264,-0.79 0.263,0 0.79,0 0.79,0 0,0 1.317,-0.001 0.79,-0.001 z"
         clip-rule="evenodd"
         style="fill:#ed1c2e;fill-rule:evenodd" />
      <path
         id="path6634"
         d="m -53.6405,42.9675 c 0,0 3.162,-0.527 6.587,0.263 0,0 0.791,0.527 0.791,1.054 0,0 -5.27,0.264 -7.378,-1.317 z"
         clip-rule="evenodd"
         style="fill:#ed1c2e;fill-rule:evenodd" />
      <path
         id="path6636"
         d="m -53.3765,48.2375 c 0,0 0.791,-3.689 6.851,-3.162 0,0 0.527,0.264 -0.791,1.581 -1.318,1.317 -3.953,2.108 -6.06,1.581 z"
         clip-rule="evenodd"
         style="fill:#ed1c2e;fill-rule:evenodd" />
      <path
         id="path6638"
         d="m -54.6945,30.0565 c 0,0 0.791,0 3.426,0.527 1.317,0.263 2.108,0.527 2.371,0.791 0.264,0 0.264,0.263 0,0.263 0,0.264 -3.425,-1.054 -5.533,-0.791 0,0 -2.108,0.791 -4.743,3.162 0,0 -0.791,0 -1.054,0 -10e-4,0 2.635,-2.634 5.533,-3.952 z"
         clip-rule="evenodd"
         style="fill-rule:evenodd" />
      <path
         id="path6640"
         d="m -57.0655,33.7455 c 0,0 2.108,-1.054 3.425,-1.317 1.054,-0.263 1.844,-0.263 2.372,0 0.527,0 1.054,1.317 1.054,1.581 0,0 -1.582,0.791 -3.162,0.527 -1.318,-0.264 -2.899,-0.264 -3.689,-0.791 z"
         clip-rule="evenodd"
         style="fill-rule:evenodd" />
      <path
         id="path6642"
         d="m -44.6815,32.1645 c 0.263,0 0.263,0 0.527,0.263 0.263,0 0,0.527 0,0.527 0,0.264 -0.264,0 -1.318,0 0,0 0.527,-0.79 0.791,-0.79 z"
         clip-rule="evenodd"
         style="fill:#ed1c2e;fill-rule:evenodd" />
      <polygon
         transform="translate(-69.1865,27.4215)"
         id="polygon6644"
         points="10.276,33.2 1.054,33.2 4.479,15.546 6.587,17.127 "
         clip-rule="evenodd"
         style="fill:#ed1c2e;fill-rule:evenodd" />
      <path
         id="path6646"
         d="m -59.4375,50.8725 c 0,0 4.479,2.899 5.27,3.953 l 0.527,6.061 h -3.425 z"
         clip-rule="evenodd"
         style="fill:#ed1c2e;fill-rule:evenodd" />
      <path
         id="path6648"
         d="m -51.5325,56.4055 c 0,0 2.635,2.635 3.425,4.479 h -4.479 z"
         clip-rule="evenodd"
         style="fill:#ed1c2e;fill-rule:evenodd" />
      <path
         id="path6650"
         d="m -47.8435,32.6915 c 0,0 0.264,-0.264 0.264,0.263 0.263,1.318 0.79,4.479 0.79,4.743 0,0.527 -0.527,0.263 -0.527,0.263 z"
         clip-rule="evenodd"
         style="fill:#ffffff;fill-rule:evenodd" />
      <path
         id="path6652"
         d="m -57.3295,28.2125 c 0,0 0,0 0.264,0 l 1.317,2.372 -0.527,0.263 z"
         clip-rule="evenodd"
         style="fill:#ffffff;fill-rule:evenodd" />
      <path
         id="path6654"
         d="m -63.3895,36.1165 c 0,0 -0.527,-1.581 0.527,-1.844 1.054,-0.264 2.372,-0.264 4.216,-0.264 0,0 -2.635,0.527 -3.425,0.791 -1.055,0.264 -1.318,1.317 -1.318,1.317 z"
         clip-rule="evenodd"
         style="fill:#ffffff;fill-rule:evenodd" />
    </g>
    <text
       xml:space="preserve"
       style="font-style:normal;font-weight:normal;line-height:0%;font-family:'Bitstream Vera Sans';fill:#000000;fill-opacity:1;stroke:none;stroke-width:1px;stroke-linecap:butt;stroke-linejoin:miter;stroke-opacity:1"
       x="29.255447"
       y="26.6875"
       id="text6747"><tspan
         sodipodi:role="line"
         id="tspan6749"
         x="29.255447"
         y="26.6875"
         style="font-style:normal;font-variant:normal;font-weight:normal;font-stretch:normal;font-size:6px;line-height:125%;font-family:Arial;-inkscape-font-specification:Arial;text-align:start;writing-mode:lr-tb;text-anchor:start">XXPb</tspan></text>
  </g>
</svg>
