<?xml version="1.0" encoding="UTF-8" standalone="no"?>
<svg
   width="256"
   height="256"
   version="1.1"
   id="svg36"
   sodipodi:docname="drive-harddisk-system.svg"
   viewBox="0 0 256 256"
   inkscape:version="1.4.2 (ebf0e940d0, 2025-05-08)"
   xml:space="preserve"
   xmlns:inkscape="http://www.inkscape.org/namespaces/inkscape"
   xmlns:sodipodi="http://sodipodi.sourceforge.net/DTD/sodipodi-0.dtd"
   xmlns:xlink="http://www.w3.org/1999/xlink"
   xmlns="http://www.w3.org/2000/svg"
   xmlns:svg="http://www.w3.org/2000/svg"
   xmlns:rdf="http://www.w3.org/1999/02/22-rdf-syntax-ns#"
   xmlns:cc="http://creativecommons.org/ns#"
   xmlns:dc="http://purl.org/dc/elements/1.1/"><sodipodi:namedview
     id="namedview36"
     pagecolor="#ffffff"
     bordercolor="#000000"
     borderopacity="0.25"
     inkscape:showpageshadow="2"
     inkscape:pageopacity="0.0"
     inkscape:pagecheckerboard="0"
     inkscape:deskcolor="#d1d1d1"
     inkscape:zoom="2.2326256"
     inkscape:cx="213.20189"
     inkscape:cy="28.441849"
     inkscape:current-layer="svg36" /><defs
     id="defs1"><inkscape:path-effect
       effect="perspective-envelope"
       up_left_point="7.1424348,0.46542334"
       up_right_point="41.28617,0.46542334"
       down_left_point="2.34375,44.59375"
       down_right_point="46.46875,44.59375"
       id="path-effect1"
       is_visible="true"
       lpeversion="1"
       deform_type="perspective"
       horizontal_mirror="false"
       vertical_mirror="false"
       overflow_perspective="false" /><path
       id="r"
       fill="#ffffff"
       fill-opacity="0.457627"
       fill-rule="evenodd"
       d="m 8.5736699,25.593554 a 1.3700194,1.016466 0 1 1 -2.7400389,0 1.3700194,1.016466 0 1 1 2.7400389,0 z"
       color="#000000"
       overflow="visible"
       style="marker:none" /><linearGradient
       id="linearGradient3264"><stop
         id="stop3266"
         offset="0"
         style="stop-color:#ea4343;stop-opacity:1;" /><stop
         style="stop-color:#f8f8f8;stop-opacity:1;"
         offset="0.25"
         id="stop3276" /><stop
         style="stop-color:#f2d2d2;stop-opacity:1;"
         offset="0.5"
         id="stop3272" /><stop
         id="stop3274"
         offset="0.75"
         style="stop-color:#d84a4a;stop-opacity:1;" /><stop
         id="stop3268"
         offset="1"
         style="stop-color:#e6c8ac;stop-opacity:1;" /></linearGradient><linearGradient
       id="linearGradient3256"><stop
         id="stop3258"
         offset="0"
         style="stop-color:#000000;stop-opacity:1;" /><stop
         id="stop3260"
         offset="1"
         style="stop-color:#000000;stop-opacity:0;" /></linearGradient><radialGradient
       gradientUnits="userSpaceOnUse"
       gradientTransform="matrix(1,0,0,0.315315,0,26.81305)"
       r="19.622213"
       fy="39.161163"
       fx="25.455845"
       cy="39.161163"
       cx="25.455845"
       id="radialGradient3262"
       xlink:href="#linearGradient3256" /><linearGradient
       gradientTransform="matrix(1.241935,0,0,1.241935,-5.027508,-7.208988)"
       y2="39.684914"
       x2="34.534348"
       y1="12.284524"
       x1="14.462892"
       gradientUnits="userSpaceOnUse"
       id="linearGradient3281"
       xlink:href="#linearGradient3264" /></defs><defs
     id="defs22"><linearGradient
       id="h"><stop
         offset="0"
         id="stop1" /><stop
         offset="1"
         stop-opacity="0"
         id="stop2" /></linearGradient><linearGradient
       id="a"><stop
         offset="0"
         stop-opacity="0"
         id="stop3" /><stop
         offset=".5"
         id="stop4" /><stop
         offset="1"
         stop-opacity="0"
         id="stop5" /></linearGradient><linearGradient
       xlink:href="#a"
       id="j"
       x1="302.85715"
       x2="302.85715"
       y1="366.64789"
       y2="609.50507"
       gradientTransform="matrix(2.77439,0,0,1.9697,-1892.179,-872.8854)"
       gradientUnits="userSpaceOnUse" /><linearGradient
       id="g"><stop
         offset="0"
         stop-color="#fff"
         id="stop6" /><stop
         offset=".5"
         stop-color="#e6e6e6"
         id="stop7" /><stop
         offset=".75"
         stop-color="#fff"
         id="stop8" /><stop
         offset=".84166664"
         stop-color="#e1e1e1"
         id="stop9" /><stop
         offset="1"
         stop-color="#fff"
         id="stop10" /></linearGradient><linearGradient
       id="f"><stop
         offset="0"
         stop-color="#fff"
         stop-opacity=".25490198"
         id="stop11" /><stop
         offset="1"
         stop-color="#fff"
         id="stop12" /></linearGradient><linearGradient
       id="e"><stop
         offset="0"
         stop-color="#fff"
         id="stop13" /><stop
         offset="1"
         stop-color="#fff"
         stop-opacity="0"
         id="stop14" /></linearGradient><linearGradient
       id="i"><stop
         offset="0"
         stop-color="#e4e4e4"
         id="stop15" /><stop
         offset="1"
         stop-color="#d3d3d3"
         id="stop16" /></linearGradient><linearGradient
       id="d"><stop
         offset="0"
         stop-color="#eee"
         id="stop17" /><stop
         offset="1"
         stop-color="#eee"
         stop-opacity="0"
         id="stop18" /></linearGradient><linearGradient
       id="c"><stop
         offset="0"
         stop-color="#bbb"
         id="stop19" /><stop
         offset="1"
         stop-color="#9f9f9f"
         id="stop20" /></linearGradient><linearGradient
       id="b"><stop
         offset="0"
         stop-color="#838383"
         id="stop21" /><stop
         offset="1"
         stop-color="#bbb"
         stop-opacity="0"
         id="stop22" /></linearGradient><linearGradient
       xlink:href="#b"
       id="o"
       x1="7.0625"
       x2="24.6875"
       y1="35.28125"
       y2="35.28125"
       gradientTransform="matrix(1.0846944,0,0,1.0846944,-1.4442764,-5.9232547)"
       gradientUnits="userSpaceOnUse" /><linearGradient
       xlink:href="#c"
       id="m"
       x1="7.6046205"
       x2="36.183067"
       y1="28.481176"
       y2="40.943935"
       gradientUnits="userSpaceOnUse"
       gradientTransform="matrix(1.0846944,0,0,1.0846944,-2.3071432,-4.4851441)" /><linearGradient
       xlink:href="#d"
       id="p"
       x1="12.277412"
       x2="12.221823"
       y1="37.205811"
       y2="33.758667"
       gradientUnits="userSpaceOnUse"
       gradientTransform="matrix(1.0846944,0,0,1.0846944,-2.3071432,-4.4851441)" /><linearGradient
       xlink:href="#e"
       id="s"
       x1="12.378357"
       x2="44.0961"
       y1="4.433136"
       y2="47.620636"
       gradientUnits="userSpaceOnUse"
       gradientTransform="matrix(1.0846944,0,0,1.0846944,-2.3071432,-4.4851441)" /><linearGradient
       xlink:href="#f"
       id="q"
       x1="23.688078"
       x2="23.688078"
       y1="11.318835"
       y2="26.357183"
       gradientUnits="userSpaceOnUse"
       gradientTransform="matrix(1.0846944,0,0,1.0846944,-2.3071432,-4.4851441)" /><linearGradient
       xlink:href="#g"
       id="t"
       x1="33.431175"
       x2="21.747974"
       y1="31.964777"
       y2="11.780679"
       gradientUnits="userSpaceOnUse"
       gradientTransform="matrix(1.1257067,0,0,1.1505896,-4.0783168,-6.7571733)" /><radialGradient
       xlink:href="#h"
       id="l"
       cx="605.71429"
       cy="486.64789"
       r="117.14286"
       fx="605.71429"
       fy="486.64789"
       gradientTransform="matrix(-2.77439,0,0,1.9697,112.7623,-872.8854)"
       gradientUnits="userSpaceOnUse" /><radialGradient
       xlink:href="#h"
       id="k"
       cx="605.71429"
       cy="486.64789"
       r="117.14286"
       fx="605.71429"
       fy="486.64789"
       gradientTransform="matrix(2.77439,0,0,1.9697,-1891.633,-872.8854)"
       gradientUnits="userSpaceOnUse" /><radialGradient
       xlink:href="#i"
       id="n"
       cx="15.571491"
       cy="2.958519"
       r="20.935818"
       fx="15.571491"
       fy="2.958519"
       gradientTransform="matrix(1.3951773,0.84790561,-0.77097909,1.2686043,-4.8608913,-9.775049)"
       gradientUnits="userSpaceOnUse" /></defs><g
     id="g36"
     transform="matrix(5.0942363,0,0,5.0942363,6.2500477,15.124013)"><g
       color="#000000"
       transform="matrix(0.02453,0,0,0.02087,45.69054,36.1536)"
       id="g24"><path
         fill="url(#j)"
         d="M -1559.2523,-150.69685 H -219.6188 V 327.66033 H -1559.2523 Z"
         opacity="0.402062"
         overflow="visible"
         style="fill:url(#j);marker:none"
         id="path22" /><path
         fill="url(#k)"
         d="m -219.61876,-150.68038 v 478.33079 c 142.874166,0.90045 345.40022,-107.16966 345.40014,-239.196175 0,-132.026537 -159.436816,-239.134595 -345.40014,-239.134615 z"
         opacity="0.402062"
         overflow="visible"
         style="fill:url(#k);marker:none"
         id="path23" /><path
         fill="url(#l)"
         d="m -1559.2523,-150.68038 v 478.33079 c -142.8742,0.90045 -345.4002,-107.16966 -345.4002,-239.196175 0,-132.026537 159.4368,-239.134595 345.4002,-239.134615 z"
         opacity="0.402062"
         overflow="visible"
         style="fill:url(#l);marker:none"
         id="path24" /></g><path
       fill="none"
       stroke="#535353"
       stroke-linecap="round"
       stroke-linejoin="round"
       stroke-width="2.16939"
       d="m 9.9343822,4.1518738 c -0.6779344,0 -1.1185904,0.3147568 -1.389763,0.9152142 -10e-7,0 -7.0166175,18.552133 -7.0166175,18.552133 0,0 -0.2711736,0.728436 -0.2711736,1.932112 v 10.467266 c 0,1.174305 0.7134962,1.762631 1.7965251,1.762629 H 44.88188 c 1.068264,0 1.728732,-0.779006 1.728732,-1.999905 V 25.314056 c 0,0 0.114937,-0.835673 -0.10169,-1.423661 L 39.221131,5.2365721 C 39.020978,4.6813097 38.530284,4.1647874 38.00085,4.1518738 Z"
       id="path25" /><path
       fill="url(#m)"
       fill-rule="evenodd"
       d="m 1.2437033,24.798147 0.8293596,-0.750841 40.7950201,0.06779 3.755653,0.344171 v 11.322618 c 0,1.220898 -0.658429,1.999451 -1.726693,1.999451 H 3.0462917 c -1.0830291,0 -1.8025884,-0.58796 -1.8025884,-1.762264 z"
       id="path26"
       style="fill:url(#m);stroke-width:1.08469" /><path
       fill="url(#n)"
       fill-rule="evenodd"
       d="m 1.5425287,23.624065 c -0.77478173,1.588303 -6.678e-4,2.595519 1.1234335,2.595519 H 44.969043 c 1.213824,-0.02583 2.001519,-1.097608 1.549563,-2.324346 L 39.235657,5.226889 C 39.035505,4.6716266 38.52544,4.155104 37.996007,4.1421907 H 9.9489092 c -0.6779341,0 -1.1234333,0.3292842 -1.3946058,0.9297415 z"
       id="path27"
       style="fill:url(#n);stroke-width:1.08469" /><path
       fill="url(#o)"
       fill-rule="evenodd"
       d="M 6.2163812,29.329318 H 25.33412 v 6.033613 H 6.2163812 Z"
       color="#000000"
       overflow="visible"
       style="fill:url(#o);stroke-width:1.08469;marker:none"
       id="path28" /><path
       fill="url(#p)"
       fill-rule="evenodd"
       d="m 6.2163798,35.362928 v -4.351236 c 1.9909864,3.448489 8.9991562,4.351236 14.0332312,4.351236 z"
       opacity="0.811429"
       id="path29"
       style="fill:url(#p);stroke-width:1.08469" /><path
       fill="#ffffff"
       fill-rule="evenodd"
       d="m 46.283004,23.314151 c 0.0689,1.35584 -0.449067,2.511979 -1.434092,2.542252 0,0 -41.347159,-1e-6 -41.3471589,0 -1.3984227,0 -2.0259228,-0.352468 -2.2605582,-0.941575 0.099533,1.024311 0.8957595,1.788993 2.2605582,1.788993 -1e-7,-1e-6 41.3471589,0 41.3471589,0 1.167139,-0.03587 1.901258,-1.544631 1.466684,-3.248433 z"
       id="path30"
       style="stroke-width:1.08469" /><path
       fill="url(#q)"
       fill-rule="evenodd"
       d="m 9.5905988,6.5312835 c -0.049983,0.2172871 -0.2033803,0.4195566 -0.2033803,0.6440374 0,1.028947 0.6410325,1.941032 1.4575575,2.813426 0.260618,-0.167124 0.396041,-0.384424 0.677934,-0.542347 C 10.502763,8.5612849 9.8377512,7.5844329 9.5905988,6.5312835 Z m 28.9138852,0 c -0.248099,1.0517374 -0.913326,2.0310104 -1.932112,2.9151164 0.297363,0.166589 0.438204,0.399428 0.711831,0.5762441 0.821398,-0.8749751 1.423661,-1.8147421 1.423661,-2.8473231 0,-0.2244808 -0.153586,-0.4267503 -0.20338,-0.6440374 z m 2.372769,9.1521095 c -0.665775,4.382286 -7.916765,7.864034 -16.84666,7.864034 -8.907786,1e-6 -16.1187215,-3.463197 -16.8127633,-7.830137 -0.035097,0.213827 -0.1355868,0.425072 -0.1355868,0.644037 3e-7,4.683653 7.5810421,8.508073 16.9483501,8.508072 9.367308,0 16.982246,-3.824418 16.982247,-8.508072 0,-0.230958 -0.09659,-0.452704 -0.135587,-0.677934 z"
       color="#000000"
       opacity="0.691429"
       overflow="visible"
       style="fill:url(#q);stroke-width:1.08469;marker:none"
       id="path31" /><use
       xlink:href="#r"
       fill-opacity="0.457627"
       fill-rule="evenodd"
       color="#000000"
       overflow="visible"
       style="marker:none"
       transform="matrix(1.0846944,0,0,1.0846944,-2.2112687,-4.2933962)"
       id="use31" /><use
       xlink:href="#r"
       fill-opacity="0.457627"
       fill-rule="evenodd"
       color="#000000"
       overflow="visible"
       style="marker:none"
       transform="matrix(1.0846944,0,0,1.0846944,34.536726,-4.3892701)"
       id="use32" /><path
       fill="none"
       stroke="url(#s)"
       stroke-linecap="round"
       stroke-linejoin="round"
       stroke-width="1.08469"
       d="m 10.321428,4.6433433 c -0.6526521,0 -1.076875,0.3030187 -1.3379338,0.8810835 -1.1e-6,0 -6.9583309,17.9958632 -6.9583309,17.9958632 0,0 -0.2610607,0.701272 -0.2610607,1.860059 v 10.076916 c 0,1.469479 0.4816651,1.764688 1.729528,1.764688 H 44.372405 c 1.435188,0 1.664264,-0.343194 1.664264,-1.993117 V 25.15192 c 0,0 0.11065,-0.804508 -0.09789,-1.370569 L 38.787173,5.5520036 C 38.594485,5.0174483 38.189884,4.6557753 37.680193,4.6433433 Z"
       id="path32"
       style="stroke:url(#s)" /><path
       fill="none"
       stroke="#ffffff"
       stroke-linecap="square"
       stroke-opacity="0.423729"
       stroke-width="1.08469"
       d="m 41.622981,29.605897 v 5.44618 m -2.169389,-5.38134 v 5.44618 m -2.169389,-5.44618 v 5.44618 m -2.169389,-5.44618 v 5.44618 m -2.169389,-5.44618 v 5.44618 m -2.169389,-5.44618 v 5.44618"
       id="path33" /><path
       fill="none"
       stroke="#000000"
       stroke-linecap="square"
       stroke-width="1.08469"
       d="m 40.538286,29.660022 v 5.44618 m -2.169389,-5.38134 v 5.44618 m -2.169388,-5.44618 v 5.44618 m -2.169389,-5.44618 v 5.44618 m -2.169389,-5.44618 v 5.44618"
       opacity="0.0971428"
       id="path34" /><path
       fill="#ffffff"
       fill-rule="evenodd"
       d="m 6.2348254,29.343763 v 5.999716 H 19.861299 L 6.6076891,34.970615 Z"
       opacity="0.44"
       id="path35"
       style="stroke-width:1.08469" /><path
       fill="url(#t)"
       fill-rule="evenodd"
       d="m 40.809238,15.751236 a 16.744887,7.6945684 0 1 1 -33.4897743,0 16.744887,7.6945684 0 1 1 33.4897743,0 z"
       color="#000000"
       opacity="0.205714"
       overflow="visible"
       style="fill:url(#t);stroke-width:1.13808;marker:none"
       id="path36" /></g><metadata
     id="metadata36"><rdf:RDF><cc:Work
         rdf:about=""><dc:source>https://commons.wikimedia.org/wiki/File:Drive-harddisk.svg</dc:source><cc:license
           rdf:resource="http://creativecommons.org/publicdomain/zero/1.0/" /></cc:Work><cc:License
         rdf:about="http://creativecommons.org/publicdomain/zero/1.0/"><cc:permits
           rdf:resource="http://creativecommons.org/ns#Reproduction" /><cc:permits
           rdf:resource="http://creativecommons.org/ns#Distribution" /><cc:permits
           rdf:resource="http://creativecommons.org/ns#DerivativeWorks" /></cc:License></rdf:RDF></metadata><g
     id="layer1"
     transform="matrix(2.7870886,0,0,1.7988279,59.128003,49.229247)"><path
       transform="translate(-0.883885,2.474874)"
       d="m 44.681486,38.369987 c 0.459564,4.344369 -8.129505,8.013673 -19.203468,8.013673 -11.073963,0 -19.7011866,-3.669304 -19.2867973,-8.013673 0.3963887,-4.155655 8.9886573,-7.394279 19.2066883,-7.394279 10.218031,0 18.843977,3.238624 19.283577,7.394279 z"
       id="path3254"
       style="color:#000000;display:none;overflow:visible;visibility:visible;opacity:0.409091;fill:url(#radialGradient3262);fill-opacity:1;fill-rule:nonzero;stroke:none;stroke-width:1;stroke-linecap:butt;stroke-linejoin:miter;stroke-miterlimit:4;stroke-dasharray:none;stroke-dashoffset:0;stroke-opacity:1;marker:none;marker-start:none;marker-mid:none;marker-end:none" /><path
       id="path3243"
       d="m 23.319597,0.46799754 c -0.360258,0.0246474 -0.710733,0.0804698 -1.065031,0.12100663 h -0.0242 L 21.314649,5.3612959 c -1.432102,0.3355826 -2.79328,0.9084162 -4.037007,1.6935865 L 13.505388,4.133836 c -1.111574,0.8405105 -2.150736,1.8323959 -3.092122,2.9210464 l 2.466971,4.3021516 c -0.959107,1.418165 -1.734174,3.068193 -2.241641,4.838023 -7.22e-4,0.0085 -0.0022,0.02802 -0.0023,0.02949 l -5.1700744,0.889528 c -0.1854912,0.850041 -0.3231979,1.737639 -0.4206883,2.634153 -0.080536,0.740603 -0.142475,1.477654 -0.157654,2.211868 l 5.1645937,1.079684 c 0.214137,2.134289 0.790414,4.175484 1.688777,6.017338 l -3.7085009,5.463717 c 0.8433012,1.470914 1.860472,2.830612 2.9918009,4.045726 l 5.011511,-4.082042 c 1.615527,1.304281 3.458043,2.229888 5.482068,2.689031 l 0.857345,7.339465 c 0.6657,0.07833 1.34886,0.08074 2.030761,0.08074 0.962685,-1e-6 1.881577,-0.04713 2.808714,-0.201718 l 0.940333,-7.479721 c 1.907829,-0.593917 3.668292,-1.61534 5.156336,-2.970818 l 4.87028,4.133279 c 1.099419,-1.273359 2.065536,-2.715913 2.859884,-4.241502 l -3.742378,-5.661198 c 0.724394,-1.75691 1.158303,-3.655709 1.284407,-5.64206 l 5.127246,-0.947782 c -0.0268,-0.61747 -0.08722,-1.212081 -0.160264,-1.834004 C 43.425136,18.678166 43.19383,17.64196 42.944642,16.63848 L 37.716555,15.607474 C 37.182798,13.996719 36.415976,12.52182 35.503233,11.218171 L 38.045005,7.0285485 C 37.064494,5.9087307 35.981896,4.8883246 34.823893,4.0324198 l -3.899367,2.890881 C 29.714733,6.1981253 28.432117,5.6462226 27.056108,5.3355251 L 26.223516,0.58900417 c -0.661852,-0.0777572 -1.328151,-0.12100663 -2.009202,-0.12100663 -0.184068,10e-9 -0.373516,-0.005792 -0.556175,0 -0.08905,0.002824 -0.177174,-0.005181 -0.265997,0 -0.02406,0.001403 -0.04853,-0.001643 -0.07254,0 z M 23.981296,13.212633 c 0.09578,-0.0053 0.191451,0 0.288454,0 3.10408,0 5.746373,2.794768 5.884331,6.351272 0.143982,3.711761 -2.472956,6.830792 -5.826992,6.830792 -3.354036,1e-6 -5.970273,-3.119031 -5.859177,-6.830792 0.103191,-3.447615 2.541002,-6.18768 5.513384,-6.351272 z"
       style="color:#000000;display:inline;overflow:visible;visibility:visible;opacity:1;fill:url(#linearGradient3281);fill-opacity:1;fill-rule:nonzero;stroke:#808080;stroke-width:1;stroke-linecap:butt;stroke-linejoin:miter;stroke-miterlimit:4;stroke-dasharray:none;stroke-dashoffset:0;stroke-opacity:1;marker:none;marker-start:none;marker-mid:none;marker-end:none" /><path
       transform="matrix(0.606518,0,0,0.606518,10.15021,7.936835)"
       d="m 34.424815,19.147208 c 0.310926,7.075844 -4.623926,13.079547 -11.036804,13.079547 -6.412878,0 -11.400204,-6.003703 -11.151124,-13.079547 0.237111,-6.73583 5.176111,-11.9632736 11.041682,-11.9632736 5.865572,0 10.850261,5.2274436 11.146246,11.9632736 z"
       id="path3283"
       style="color:#000000;display:inline;overflow:visible;visibility:visible;opacity:0.647727;fill:none;fill-opacity:1;fill-rule:nonzero;stroke:#ffffff;stroke-width:1.64876;stroke-linecap:butt;stroke-linejoin:miter;stroke-miterlimit:4;stroke-dasharray:none;stroke-dashoffset:0;stroke-opacity:1;marker:none;marker-start:none;marker-mid:none;marker-end:none" /><path
       style="color:#000000;display:inline;overflow:visible;visibility:visible;opacity:0.346591;fill:none;fill-opacity:1;fill-rule:nonzero;stroke:#ffffff;stroke-width:1;stroke-linecap:butt;stroke-linejoin:miter;stroke-miterlimit:4;stroke-dasharray:none;stroke-dashoffset:0;stroke-opacity:1;marker:none;marker-start:none;marker-mid:none;marker-end:none"
       d="M 22.779243,1.3877323 22.050635,6.0533737 C 20.703987,6.3706845 18.199288,7.3491851 17.024288,8.0951085 L 13.416801,5.1719694 c -1.049039,0.7982042 -1.12133,0.8526308 -1.997528,1.8733731 l 2.468705,4.3382775 c -0.890378,1.328994 -2.035739,3.752223 -2.52002,5.528445 l -5.1779716,0.954956 c -0.1711402,0.803704 -0.3093539,2.549928 -0.3196123,3.231463 l 4.8973489,1.024449 c 0.207685,1.9778 1.321788,5.258347 2.17621,6.986889 l -3.7042913,5.327857 c 0.7986843,1.3768 0.9707723,1.503812 2.0246723,2.625233 l 4.764558,-4.092743 c 1.501089,1.202007 4.554821,2.685612 6.443444,3.111055 l 0.737884,6.997822 c 0.619686,0.07235 2.334063,0.275575 3.19838,0.13244 l 0.731975,-7.283655 c 1.782248,-0.550978 4.809353,-2.103602 6.192932,-3.354706 l 4.794312,4.013018 c 1.023205,-1.175339 1.018436,-1.351161 1.771363,-2.779975 l -3.740218,-5.625095 c 0.689967,-1.647983 1.478413,-4.784638 1.604627,-6.624182 l 5.002467,-0.961001 c -0.02182,-0.572295 -0.197101,-2.1482 -0.428357,-3.098156 L 37.17479,16.527296 C 36.676387,14.99987 35.201458,12.316859 34.355655,11.097361 L 37.112358,7.0146915 C 36.199187,5.9647708 35.88198,5.8218046 34.790206,5.0096172 L 30.98963,7.9709387 C 29.847529,7.2819551 27.607681,6.2431097 26.31437,5.9496188 L 25.554273,1.3877323 c -0.623346,-0.073659 -2.419066,-0.040959 -2.77503,0 z"
       id="path3285" /></g></svg>
