<?xml version="1.0" encoding="UTF-8" standalone="no"?>
<!-- Created with Inkscape (http://www.inkscape.org/) -->

<svg
   width="256mm"
   height="256mm"
   viewBox="0 0 256 256"
   version="1.1"
   id="svg1"
   inkscape:version="1.4.2 (ebf0e940d0, 2025-05-08)"
   xml:space="preserve"
   sodipodi:docname="ebook-reader.svg"
   xmlns:inkscape="http://www.inkscape.org/namespaces/inkscape"
   xmlns:sodipodi="http://sodipodi.sourceforge.net/DTD/sodipodi-0.dtd"
   xmlns:xlink="http://www.w3.org/1999/xlink"
   xmlns="http://www.w3.org/2000/svg"
   xmlns:svg="http://www.w3.org/2000/svg"
   xmlns:rdf="http://www.w3.org/1999/02/22-rdf-syntax-ns#"
   xmlns:cc="http://creativecommons.org/ns#"
   xmlns:dc="http://purl.org/dc/elements/1.1/"><title
     id="title18">Reader</title><defs
     id="defs1"><linearGradient
       id="linearGradient17"
       inkscape:collect="always"><stop
         style="stop-color:#f9f9f9;stop-opacity:1;"
         offset="0"
         id="stop3" /><stop
         style="stop-color:#3d3d3d;stop-opacity:0;"
         offset="1"
         id="stop17" /></linearGradient><linearGradient
       id="linearGradient1"
       inkscape:collect="always"><stop
         style="stop-color:#949494;stop-opacity:1;"
         offset="0"
         id="stop1" /><stop
         style="stop-color:#000000;stop-opacity:1;"
         offset="1"
         id="stop2" /></linearGradient><linearGradient
       id="linearGradient83"
       inkscape:collect="always"><stop
         style="stop-color:#99c4e1;stop-opacity:1;"
         offset="0"
         id="stop84" /><stop
         style="stop-color:#3c73a7;stop-opacity:1;"
         offset="0.5"
         id="stop18" /><stop
         style="stop-color:#2c5084;stop-opacity:1;"
         offset="1"
         id="stop85" /></linearGradient><linearGradient
       id="linearGradient79"
       inkscape:collect="always"><stop
         style="stop-color:#000000;stop-opacity:0;"
         offset="0"
         id="stop80" /><stop
         style="stop-color:#dddddd;stop-opacity:0.29411766;"
         offset="0.05258811"
         id="stop82" /><stop
         style="stop-color:#dcdcdc;stop-opacity:0.18685123;"
         offset="0.38978568"
         id="stop83" /><stop
         style="stop-color:#000000;stop-opacity:0.89411664;"
         offset="1"
         id="stop81" /></linearGradient><linearGradient
       id="linearGradient75"
       inkscape:collect="always"><stop
         style="stop-color:#e7e7e7;stop-opacity:1;"
         offset="0"
         id="stop74" /><stop
         style="stop-color:#ffffff;stop-opacity:0;"
         offset="1"
         id="stop75" /></linearGradient><linearGradient
       id="linearGradient72"
       inkscape:collect="always"><stop
         style="stop-color:#ffffff;stop-opacity:1;"
         offset="0"
         id="stop72" /><stop
         style="stop-color:#acacac;stop-opacity:0;"
         offset="1"
         id="stop73" /></linearGradient><linearGradient
       id="linearGradient64"
       inkscape:collect="always"><stop
         style="stop-color:#000000;stop-opacity:0.42214534;"
         offset="0"
         id="stop64" /><stop
         style="stop-color:#000000;stop-opacity:0.21176471;"
         offset="0.47247705"
         id="stop66" /><stop
         style="stop-color:#bfbfbf;stop-opacity:0.10588235;"
         offset="0.82339448"
         id="stop67" /><stop
         style="stop-color:#ffffff;stop-opacity:0;"
         offset="1"
         id="stop65" /></linearGradient><linearGradient
       id="linearGradient61"
       inkscape:collect="always"><stop
         style="stop-color:#838383;stop-opacity:0.99716699;"
         offset="0"
         id="stop62" /><stop
         style="stop-color:#2d2d2d;stop-opacity:1;"
         offset="1"
         id="stop63" /></linearGradient><linearGradient
       id="linearGradient56"
       inkscape:collect="always"><stop
         style="stop-color:#ffffff;stop-opacity:0;"
         offset="0"
         id="stop56" /><stop
         style="stop-color:#929292;stop-opacity:0.51211071;"
         offset="0.31877059"
         id="stop78" /><stop
         style="stop-color:#c6c7c8;stop-opacity:0.43921569;"
         offset="0.82796377"
         id="stop79" /><stop
         style="stop-color:#fbfcff;stop-opacity:0;"
         offset="1"
         id="stop57" /></linearGradient><linearGradient
       id="linearGradient54"
       inkscape:collect="always"><stop
         style="stop-color:#6a6a6a;stop-opacity:1;"
         offset="0"
         id="stop54" /><stop
         style="stop-color:#cbcbcb;stop-opacity:0.59861594;"
         offset="1"
         id="stop55" /></linearGradient><linearGradient
       id="linearGradient52"
       inkscape:collect="always"><stop
         style="stop-color:#171717;stop-opacity:1;"
         offset="0"
         id="stop52" /><stop
         style="stop-color:#6a6a6a;stop-opacity:0;"
         offset="1"
         id="stop53" /></linearGradient><linearGradient
       id="linearGradient42"
       inkscape:collect="always"><stop
         style="stop-color:#ffffff;stop-opacity:0;"
         offset="0"
         id="stop42" /><stop
         style="stop-color:#c8c8c8;stop-opacity:0.20415226;"
         offset="0.28818765"
         id="stop44" /><stop
         style="stop-color:#1b1b1b;stop-opacity:0.32179931;"
         offset="0.56432658"
         id="stop45" /><stop
         style="stop-color:#000000;stop-opacity:0.9930796;"
         offset="1"
         id="stop43" /></linearGradient><linearGradient
       id="linearGradient12"
       inkscape:collect="always"><stop
         style="stop-color:#545454;stop-opacity:0.41359773;"
         offset="0"
         id="stop13" /><stop
         style="stop-color:#565656;stop-opacity:0.41176471;"
         offset="0.43750289"
         id="stop16" /><stop
         style="stop-color:#d0d0d0;stop-opacity:0.41176471;"
         offset="0.58333462"
         id="stop15" /><stop
         style="stop-color:#adadad;stop-opacity:0.41176471;"
         offset="1"
         id="stop14" /></linearGradient><linearGradient
       id="linearGradient9"
       inkscape:collect="always"><stop
         style="stop-color:#c8c8c8;stop-opacity:0;"
         offset="0"
         id="stop10" /><stop
         style="stop-color:#000000;stop-opacity:0.43944636;"
         offset="0.44553795"
         id="stop12" /><stop
         style="stop-color:#000000;stop-opacity:0.69896191;"
         offset="1"
         id="stop11" /></linearGradient><linearGradient
       id="linearGradient4"
       inkscape:collect="always"><stop
         style="stop-color:#c8c8c8;stop-opacity:1;"
         offset="0"
         id="stop4" /><stop
         style="stop-color:#c8c8c8;stop-opacity:1;"
         offset="0.19892532"
         id="stop6" /><stop
         style="stop-color:#787878;stop-opacity:1;"
         offset="0.45967799"
         id="stop7" /><stop
         style="stop-color:#6c6c6c;stop-opacity:0.53633219;"
         offset="0.61155969"
         id="stop8" /><stop
         style="stop-color:#8c8c8c;stop-opacity:0.47750866;"
         offset="0.80577987"
         id="stop9" /><stop
         style="stop-color:#fefefe;stop-opacity:0.28027681;"
         offset="1"
         id="stop5" /></linearGradient><linearGradient
       inkscape:collect="always"
       xlink:href="#linearGradient4"
       id="linearGradient5"
       x1="161.03395"
       y1="139.82756"
       x2="161.03395"
       y2="142.02455"
       gradientUnits="userSpaceOnUse" /><linearGradient
       inkscape:collect="always"
       xlink:href="#linearGradient9"
       id="linearGradient11"
       x1="161.63959"
       y1="140.51265"
       x2="161.97888"
       y2="142.48521"
       gradientUnits="userSpaceOnUse" /><linearGradient
       inkscape:collect="always"
       xlink:href="#linearGradient12"
       id="linearGradient14"
       x1="157.24991"
       y1="140.86109"
       x2="157.39165"
       y2="140.86109"
       gradientUnits="userSpaceOnUse" /><linearGradient
       inkscape:collect="always"
       xlink:href="#linearGradient12"
       id="linearGradient16"
       gradientUnits="userSpaceOnUse"
       x1="157.24991"
       y1="140.86109"
       x2="157.39165"
       y2="140.86109"
       gradientTransform="translate(7.4083337)" /><linearGradient
       inkscape:collect="always"
       xlink:href="#linearGradient4"
       id="linearGradient24"
       gradientUnits="userSpaceOnUse"
       x1="161.03395"
       y1="139.82756"
       x2="161.03395"
       y2="142.02455" /><linearGradient
       inkscape:collect="always"
       xlink:href="#linearGradient12"
       id="linearGradient25"
       gradientUnits="userSpaceOnUse"
       gradientTransform="translate(7.4083337)"
       x1="157.24991"
       y1="140.86109"
       x2="157.39165"
       y2="140.86109" /><linearGradient
       inkscape:collect="always"
       xlink:href="#linearGradient12"
       id="linearGradient26"
       gradientUnits="userSpaceOnUse"
       x1="157.24991"
       y1="140.86109"
       x2="157.39165"
       y2="140.86109" /><linearGradient
       inkscape:collect="always"
       xlink:href="#linearGradient9"
       id="linearGradient27"
       gradientUnits="userSpaceOnUse"
       x1="161.63959"
       y1="140.51265"
       x2="161.97888"
       y2="142.48521" /><linearGradient
       inkscape:collect="always"
       xlink:href="#linearGradient4"
       id="linearGradient31"
       gradientUnits="userSpaceOnUse"
       x1="161.03395"
       y1="139.82756"
       x2="161.03395"
       y2="142.02455" /><linearGradient
       inkscape:collect="always"
       xlink:href="#linearGradient12"
       id="linearGradient32"
       gradientUnits="userSpaceOnUse"
       gradientTransform="translate(7.4083337)"
       x1="157.24991"
       y1="140.86109"
       x2="157.39165"
       y2="140.86109" /><linearGradient
       inkscape:collect="always"
       xlink:href="#linearGradient12"
       id="linearGradient33"
       gradientUnits="userSpaceOnUse"
       x1="157.24991"
       y1="140.86109"
       x2="157.39165"
       y2="140.86109" /><linearGradient
       inkscape:collect="always"
       xlink:href="#linearGradient9"
       id="linearGradient34"
       gradientUnits="userSpaceOnUse"
       x1="161.63959"
       y1="140.51265"
       x2="161.97888"
       y2="142.48521" /><linearGradient
       inkscape:collect="always"
       xlink:href="#linearGradient4"
       id="linearGradient38"
       gradientUnits="userSpaceOnUse"
       x1="161.03395"
       y1="139.82756"
       x2="161.03395"
       y2="142.02455" /><linearGradient
       inkscape:collect="always"
       xlink:href="#linearGradient12"
       id="linearGradient39"
       gradientUnits="userSpaceOnUse"
       gradientTransform="translate(7.4083337)"
       x1="157.24991"
       y1="140.86109"
       x2="157.39165"
       y2="140.86109" /><linearGradient
       inkscape:collect="always"
       xlink:href="#linearGradient12"
       id="linearGradient40"
       gradientUnits="userSpaceOnUse"
       x1="157.24991"
       y1="140.86109"
       x2="157.39165"
       y2="140.86109" /><linearGradient
       inkscape:collect="always"
       xlink:href="#linearGradient9"
       id="linearGradient41"
       gradientUnits="userSpaceOnUse"
       x1="161.63959"
       y1="140.51265"
       x2="161.97888"
       y2="142.48521" /><radialGradient
       inkscape:collect="always"
       xlink:href="#linearGradient42"
       id="radialGradient43"
       cx="190.44463"
       cy="151.6826"
       fx="190.44463"
       fy="151.6826"
       r="8.2209816"
       gradientUnits="userSpaceOnUse"
       gradientTransform="matrix(-0.02618262,1.7584693,-1.7080756,-0.02471693,451.18779,-182.21929)" /><linearGradient
       inkscape:collect="always"
       xlink:href="#linearGradient52"
       id="linearGradient53"
       x1="153.61795"
       y1="55.424503"
       x2="215.41618"
       y2="92.655159"
       gradientUnits="userSpaceOnUse"
       gradientTransform="matrix(1.0187933,0,0,1.0187933,-3.7128677,-1.9833579)" /><linearGradient
       inkscape:collect="always"
       xlink:href="#linearGradient54"
       id="linearGradient55"
       x1="179.51323"
       y1="74.184433"
       x2="224.60244"
       y2="97.429969"
       gradientUnits="userSpaceOnUse"
       gradientTransform="matrix(1.0187933,0,0,1.0187933,-3.7128677,-1.9833579)" /><linearGradient
       inkscape:collect="always"
       xlink:href="#linearGradient56"
       id="linearGradient57"
       x1="255.81699"
       y1="177.93205"
       x2="210.97842"
       y2="92.710701"
       gradientUnits="userSpaceOnUse" /><radialGradient
       inkscape:collect="always"
       xlink:href="#linearGradient61"
       id="radialGradient63"
       cx="190.78347"
       cy="149.53684"
       fx="190.78347"
       fy="149.53684"
       r="5.149925"
       gradientUnits="userSpaceOnUse" /><linearGradient
       inkscape:collect="always"
       xlink:href="#linearGradient64"
       id="linearGradient65"
       x1="185.63355"
       y1="149.53684"
       x2="195.9334"
       y2="149.53684"
       gradientUnits="userSpaceOnUse" /><radialGradient
       inkscape:collect="always"
       xlink:href="#linearGradient72"
       id="radialGradient73"
       cx="160.5825"
       cy="143.62656"
       fx="160.5825"
       fy="143.62656"
       r="7.7508163"
       gradientTransform="matrix(1,0,0,0.50862068,0,73.28254)"
       gradientUnits="userSpaceOnUse" /><linearGradient
       inkscape:collect="always"
       xlink:href="#linearGradient75"
       id="linearGradient73"
       x1="156.22856"
       y1="140.30455"
       x2="164.17218"
       y2="151.34433"
       gradientUnits="userSpaceOnUse" /><linearGradient
       inkscape:collect="always"
       xlink:href="#linearGradient75"
       id="linearGradient76"
       gradientUnits="userSpaceOnUse"
       x1="155.97061"
       y1="142.89484"
       x2="166.51102"
       y2="150.49672" /><radialGradient
       inkscape:collect="always"
       xlink:href="#linearGradient17"
       id="radialGradient76"
       gradientUnits="userSpaceOnUse"
       gradientTransform="matrix(1,0,0,0.50862068,0,73.28254)"
       cx="161.66232"
       cy="146.6151"
       fx="161.66232"
       fy="146.6151"
       r="7.7508163" /><radialGradient
       inkscape:collect="always"
       xlink:href="#linearGradient61"
       id="radialGradient78"
       gradientUnits="userSpaceOnUse"
       cx="190.78347"
       cy="149.53684"
       fx="190.78347"
       fy="149.53684"
       r="5.149925" /><linearGradient
       inkscape:collect="always"
       xlink:href="#linearGradient79"
       id="linearGradient81"
       x1="199.05115"
       y1="48.187077"
       x2="199.94034"
       y2="158.51065"
       gradientUnits="userSpaceOnUse" /><linearGradient
       id="linearGradient24-6"
       inkscape:collect="always"><stop
         style="stop-color:#ffffff;stop-opacity:0.48725215;"
         offset="0"
         id="stop25" /><stop
         style="stop-color:#ffffff;stop-opacity:0.66435987;"
         offset="0.05080691"
         id="stop27" /><stop
         style="stop-color:#ffffff;stop-opacity:0.84083045;"
         offset="0.09359188"
         id="stop28" /><stop
         style="stop-color:#ffffff;stop-opacity:0.54325259;"
         offset="0.43150637"
         id="stop29" /><stop
         style="stop-color:#ffffff;stop-opacity:0;"
         offset="1"
         id="stop26" /></linearGradient><linearGradient
       inkscape:collect="always"
       xlink:href="#linearGradient24-6"
       id="linearGradient26-9"
       x1="29.028606"
       y1="0.41157967"
       x2="29.028606"
       y2="29.6684"
       gradientUnits="userSpaceOnUse"
       gradientTransform="matrix(0.9072054,0,0,1.9153353,161.51082,53.88454)" /><radialGradient
       inkscape:collect="always"
       xlink:href="#linearGradient83"
       id="radialGradient85"
       cx="177.9642"
       cy="104.7443"
       fx="177.9642"
       fy="104.7443"
       r="34.27731"
       gradientTransform="matrix(1.3831332,1.4459913,-1.2765848,1.2210909,92.789046,-310.22698)"
       gradientUnits="userSpaceOnUse" /><linearGradient
       inkscape:collect="always"
       xlink:href="#linearGradient1"
       id="linearGradient2"
       x1="179.35822"
       y1="77.569992"
       x2="239.6317"
       y2="118.33233"
       gradientUnits="userSpaceOnUse" /><linearGradient
       inkscape:collect="always"
       xlink:href="#linearGradient4437"
       id="linearGradient3654"
       gradientUnits="userSpaceOnUse"
       x1="9"
       y1="1008.3622"
       x2="39"
       y2="1051.3622"
       gradientTransform="matrix(2.5735744,0,0,2.5735744,129.03054,-2544.6002)" /><linearGradient
       id="linearGradient4437"
       inkscape:collect="always"><stop
         id="stop4439"
         offset="0"
         style="stop-color:#ffffff;stop-opacity:1" /><stop
         id="stop4441"
         offset="1"
         style="stop-color:#babdb6;stop-opacity:0.12554113" /></linearGradient></defs><sodipodi:namedview
     id="base"
     pagecolor="#ffffff"
     bordercolor="#000000"
     borderopacity="0.3"
     inkscape:pageopacity="0.0"
     inkscape:pageshadow="2"
     inkscape:zoom="1.4857592"
     inkscape:cx="602.38565"
     inkscape:cy="881.36761"
     inkscape:document-units="mm"
     inkscape:showpageshadow="2"
     inkscape:pagecheckerboard="0"
     inkscape:deskcolor="#d1d1d1"
     inkscape:current-layer="g78"
     showguides="true"><sodipodi:guide
       position="190.85435,115.51097"
       orientation="1,0"
       id="guide45"
       inkscape:locked="false" /><sodipodi:guide
       position="194.84672,106.51041"
       orientation="0,-1"
       id="guide46"
       inkscape:locked="false" /></sodipodi:namedview><metadata
     id="metadata1"><rdf:RDF><cc:Work
         rdf:about=""><dc:format>image/svg+xml</dc:format><dc:type
           rdf:resource="http://purl.org/dc/dcmitype/StillImage" /><cc:license
           rdf:resource="http://creativecommons.org/publicdomain/zero/1.0/" /><dc:title>Reader</dc:title><dc:creator><cc:Agent><dc:title>Blackcrack</dc:title></cc:Agent></dc:creator><dc:publisher><cc:Agent><dc:title>blackcrack</dc:title></cc:Agent></dc:publisher><dc:date>202507</dc:date><dc:description>Reader for Iconset Tango!</dc:description></cc:Work><cc:License
         rdf:about="http://creativecommons.org/publicdomain/zero/1.0/"><cc:permits
           rdf:resource="http://creativecommons.org/ns#Reproduction" /><cc:permits
           rdf:resource="http://creativecommons.org/ns#Distribution" /><cc:permits
           rdf:resource="http://creativecommons.org/ns#DerivativeWorks" /></cc:License></rdf:RDF></metadata><g
     id="g78"
     transform="matrix(2.2254437,0,0,2.2254437,-302.79246,-103.6803)"><path
       style="color:#000000;display:inline;fill:#000000;fill-opacity:1;stroke-miterlimit:2.1;-inkscape-stroke:none"
       d="m 153.33316,48.029199 c -2.41232,0 -3.83429,1.594575 -3.8754,3.781521 v 52.42457 51.3555 c -0.0371,2.39752 1.24033,3.96731 3.60814,4.8506 h 74.46041 c 2.49999,-0.36974 4.35346,-1.63899 4.81085,-4.8506 v -51.3555 -52.42457 c 0,-2.318926 -1.7313,-3.729678 -4.40994,-3.781521 z m 3.90121,7.910254 h 67.32618 v 82.960937 h -67.32618 z"
       id="path49"
       inkscape:label="colorhead" /><g
       id="g55"><path
         style="color:#000000;display:inline;fill:url(#linearGradient57);fill-opacity:1;stroke-miterlimit:2.1;-inkscape-stroke:none"
         d="m 153.33316,48.029199 c -2.41232,0 -3.83429,1.594575 -3.8754,3.781521 v 52.42457 51.3555 c -0.0371,2.39752 1.24033,3.96731 3.60814,4.8506 h 74.46041 c 2.49999,-0.36974 4.35346,-1.63899 4.81085,-4.8506 v -51.3555 -52.42457 c 0,-2.318926 -1.7313,-3.729678 -4.40994,-3.781521 z m 3.90121,7.910254 h 67.32618 v 82.960937 h -67.32618 z"
         id="path55"
         inkscape:label="shadow1" /><path
         style="color:#000000;display:inline;fill:url(#linearGradient81);stroke-miterlimit:2.1;-inkscape-stroke:none"
         d="m 153.33316,48.029199 c -2.41232,0 -3.83429,1.594575 -3.8754,3.781521 v 52.42457 51.3555 c -0.0371,2.39752 1.24033,3.96731 3.60814,4.8506 h 74.46041 c 2.49999,-0.36974 4.35346,-1.63899 4.81085,-4.8506 v -51.3555 -52.42457 c 0,-2.318926 -1.7313,-3.729678 -4.40994,-3.781521 z m 3.90121,7.910254 h 67.32618 v 82.960937 h -67.32618 z"
         id="path57"
         inkscape:label="shadow2"
         transform="translate(5.6168575e-6)" /></g><g
       id="g85"
       inkscape:label="display"><path
         style="color:#000000;fill:url(#radialGradient85);fill-opacity:1;stroke-miterlimit:2.1;-inkscape-stroke:none"
         d="m 156.61993,55.324791 h 68.55462 v 84.189899 h -68.55462 z"
         id="path51"
         inkscape:label="display"
         transform="translate(5.6168575e-6)" /><path
         id="path85"
         style="fill:url(#linearGradient26-9);stroke-width:1.31819"
         d="m 157.80732,56.122236 h 32.68408 32.56632 l 0,11.342245 c -18.66131,59.630659 -36.57983,-2.747841 -65.2504,45.232889 z"
         sodipodi:nodetypes="cccccc"
         inkscape:label="shadowwhite" /><path
         style="color:#000000;fill:url(#linearGradient53);stroke-width:1.01879;stroke-miterlimit:2.1;-inkscape-stroke:none"
         d="m 156.45031,54.997666 v 84.559954 l 0.94503,-0.69775 V 55.94269 l 66.5816,0.10211 1.20921,-1.149244 z"
         id="rect51"
         sodipodi:nodetypes="ccccccc"
         inkscape:label="frame" /><path
         style="color:#000000;fill:url(#linearGradient55);stroke-width:1.01879;stroke-miterlimit:2.1;-inkscape-stroke:none"
         d="m 223.99537,55.980372 0.27229,82.611688 -66.84241,0.20421 -0.97095,0.74133 h 68.65628 V 55.017673 Z"
         id="path52"
         sodipodi:nodetypes="ccccccc" /></g><path
       style="color:#000000;display:inline;fill:url(#linearGradient2);stroke-miterlimit:2.1;-inkscape-stroke:none"
       d="m 153.33398,47.529297 c -1.31632,0 -2.42148,0.445316 -3.18359,1.21875 -0.76211,0.773433 -1.17081,1.853235 -1.19336,3.052734 v 0.0059 52.427739 51.35546 c -0.0188,1.28661 0.32543,2.40269 1.00586,3.29688 0.68152,0.89562 1.68054,1.55818 2.92773,2.02344 l 0.0859,0.0312 h 74.58594 l 0.0371,-0.006 c 1.31422,-0.19437 2.50822,-0.63477 3.43555,-1.48633 0.92732,-0.85157 1.55618,-2.09708 1.79687,-3.78711 l 0.006,-0.0352 V 104.23438 51.810547 c 0,-1.283894 -0.50171,-2.381402 -1.37891,-3.123047 -0.87719,-0.741645 -2.09652,-1.130624 -3.52148,-1.158203 h -0.006 z m 0,1 h 74.58789 c 1.25164,0.02496 2.23522,0.366087 2.89258,0.921875 0.65812,0.556422 1.02344,1.324346 1.02344,2.359375 v 52.423833 51.29882 c -0.21813,1.51238 -0.7424,2.50372 -1.47852,3.17969 -0.73384,0.67389 -1.70956,1.05161 -2.88476,1.22852 h -74.2793 c -1.08953,-0.41565 -1.90746,-0.96361 -2.4375,-1.66016 -0.53987,-0.70947 -0.81793,-1.57529 -0.80078,-2.68359 v -0.004 -51.35937 -52.414068 c 0.0186,-0.987444 0.34402,-1.798551 0.90625,-2.36914 0.56223,-0.570589 1.37471,-0.921875 2.4707,-0.921875 z"
       id="path50"
       sodipodi:nodetypes="ssccccsccccscccssccsccssccsccsccccscc"
       inkscape:label="frame" /><g
       id="g17"><g
         id="rect2"><path
           style="color:#000000;fill:#000000;stroke-miterlimit:2.1;-inkscape-stroke:none"
           d="m 156.79297,139.73633 v 2.35547 h 8.54297 v -2.35547 z m 0.19531,0.19726 h 8.15234 v 1.96094 h -8.15234 z"
           id="path4" /><path
           style="color:#000000;fill:url(#linearGradient5);stroke-miterlimit:2.1;-inkscape-stroke:none"
           d="m 156.89127,139.83508 h 8.34767 v 2.15832 h -8.34767 z"
           id="path3" /><g
           id="g16"><path
             id="rect12"
             style="fill:url(#linearGradient16);stroke-width:0.228;stroke-miterlimit:2.1"
             d="m 164.65829,139.83937 h 0.14174 v 2.05525 h -0.14174 z"
             sodipodi:nodetypes="ccccc" /><path
             id="path16"
             style="fill:url(#linearGradient14);stroke-width:0.228;stroke-miterlimit:2.1"
             d="m 157.24991,139.83937 h 0.14174 v 2.05525 h -0.14174 z"
             sodipodi:nodetypes="ccccc" /></g><path
           style="color:#000000;display:inline;fill:url(#linearGradient11);fill-opacity:1;stroke-miterlimit:2.1;-inkscape-stroke:none"
           d="m 156.89127,139.83508 h 8.34767 v 2.15832 h -8.34767 z"
           id="path9" /></g><g
         id="g21"
         transform="translate(9.3549108)"><path
           style="color:#000000;fill:#000000;stroke-miterlimit:2.1;-inkscape-stroke:none"
           d="m 156.79297,139.73633 v 2.35547 h 8.54297 v -2.35547 z m 0.19531,0.19726 h 8.15234 v 1.96094 h -8.15234 z"
           id="path17" /><path
           style="color:#000000;fill:url(#linearGradient24);stroke-miterlimit:2.1;-inkscape-stroke:none"
           d="m 156.89127,139.83508 h 8.34767 v 2.15832 h -8.34767 z"
           id="path18" /><g
           id="g20"><path
             id="path19"
             style="fill:url(#linearGradient25);stroke-width:0.228;stroke-miterlimit:2.1"
             d="m 164.65829,139.83937 h 0.14174 v 2.05525 h -0.14174 z"
             sodipodi:nodetypes="ccccc" /><path
             id="path20"
             style="fill:url(#linearGradient26);stroke-width:0.228;stroke-miterlimit:2.1"
             d="m 157.24991,139.83937 h 0.14174 v 2.05525 h -0.14174 z"
             sodipodi:nodetypes="ccccc" /></g><path
           style="color:#000000;display:inline;fill:url(#linearGradient27);fill-opacity:1;stroke-miterlimit:2.1;-inkscape-stroke:none"
           d="m 156.89127,139.83508 h 8.34767 v 2.15832 h -8.34767 z"
           id="path21" /></g><g
         id="g31"
         transform="translate(49.798363)"><path
           style="color:#000000;fill:#000000;stroke-miterlimit:2.1;-inkscape-stroke:none"
           d="m 156.79297,139.73633 v 2.35547 h 8.54297 v -2.35547 z m 0.19531,0.19726 h 8.15234 v 1.96094 h -8.15234 z"
           id="path27" /><path
           style="color:#000000;fill:url(#linearGradient31);stroke-miterlimit:2.1;-inkscape-stroke:none"
           d="m 156.89127,139.83508 h 8.34767 v 2.15832 h -8.34767 z"
           id="path28" /><g
           id="g30"><path
             id="path29"
             style="fill:url(#linearGradient32);stroke-width:0.228;stroke-miterlimit:2.1"
             d="m 164.65829,139.83937 h 0.14174 v 2.05525 h -0.14174 z"
             sodipodi:nodetypes="ccccc" /><path
             id="path30"
             style="fill:url(#linearGradient33);stroke-width:0.228;stroke-miterlimit:2.1"
             d="m 157.24991,139.83937 h 0.14174 v 2.05525 h -0.14174 z"
             sodipodi:nodetypes="ccccc" /></g><path
           style="color:#000000;display:inline;fill:url(#linearGradient34);fill-opacity:1;stroke-miterlimit:2.1;-inkscape-stroke:none"
           d="m 156.89127,139.83508 h 8.34767 v 2.15832 h -8.34767 z"
           id="path31" /></g><g
         id="g38"
         transform="translate(59.436756)"><path
           style="color:#000000;fill:#000000;stroke-miterlimit:2.1;-inkscape-stroke:none"
           d="m 156.79297,139.73633 v 2.35547 h 8.54297 v -2.35547 z m 0.19531,0.19726 h 8.15234 v 1.96094 h -8.15234 z"
           id="path34" /><path
           style="color:#000000;fill:url(#linearGradient38);stroke-miterlimit:2.1;-inkscape-stroke:none"
           d="m 156.89127,139.83508 h 8.34767 v 2.15832 h -8.34767 z"
           id="path35" /><g
           id="g37"><path
             id="path36"
             style="fill:url(#linearGradient39);stroke-width:0.228;stroke-miterlimit:2.1"
             d="m 164.65829,139.83937 h 0.14174 v 2.05525 h -0.14174 z"
             sodipodi:nodetypes="ccccc" /><path
             id="path37"
             style="fill:url(#linearGradient40);stroke-width:0.228;stroke-miterlimit:2.1"
             d="m 157.24991,139.83937 h 0.14174 v 2.05525 h -0.14174 z"
             sodipodi:nodetypes="ccccc" /></g><path
           style="color:#000000;display:inline;fill:url(#linearGradient41);fill-opacity:1;stroke-miterlimit:2.1;-inkscape-stroke:none"
           d="m 156.89127,139.83508 h 8.34767 v 2.15832 h -8.34767 z"
           id="path38" /></g><path
         id="ellipse45"
         style="fill:#c8c8c8;stroke-width:0.229632;stroke-miterlimit:2.1"
         d="m 199.19344,149.48958 a 8.3390989,8.2209816 0 0 1 -8.3391,8.22098 8.3390989,8.2209816 0 0 1 -8.3391,-8.22098 8.3390989,8.2209816 0 0 1 8.3391,-8.22098 8.3390989,8.2209816 0 0 1 8.3391,8.22098 z" /><g
         id="g45"
         style="fill:#fefefe;fill-opacity:1;stroke:#888888;stroke-opacity:1"><path
           id="rect45"
           style="fill:#fefefe;fill-opacity:1;stroke:#888888;stroke-width:0.228;stroke-miterlimit:2.1;stroke-opacity:1"
           d="m 190.9016,142.07181 h -0.0236 l 0.8032,1.65364 h -1.65365 z"
           sodipodi:nodetypes="ccccc" /><path
           id="path46"
           style="fill:#fefefe;fill-opacity:1;stroke:#888888;stroke-width:0.228;stroke-miterlimit:2.1;stroke-opacity:1"
           d="m 198.50839,149.48956 v -0.0236 l -1.65364,0.8032 v -1.65364 z"
           sodipodi:nodetypes="ccccc" /><path
           id="path47"
           style="fill:#fefefe;fill-opacity:1;stroke:#888888;stroke-width:0.228;stroke-miterlimit:2.1;stroke-opacity:1"
           d="m 190.83078,157.19085 h 0.0236 l -0.8032,-1.65364 h 1.65364 z"
           sodipodi:nodetypes="ccccc" /><path
           id="path48"
           style="fill:#fefefe;fill-opacity:1;stroke:#888888;stroke-width:0.228;stroke-miterlimit:2.1;stroke-opacity:1"
           d="m 183.17674,149.46599 v 0.0236 l 1.65364,-0.8032 v 1.65364 z"
           sodipodi:nodetypes="ccccc" /></g><g
         id="g64"><path
           id="path41"
           style="fill:url(#radialGradient43);fill-opacity:0.988669;stroke-width:0.229632;stroke-miterlimit:2.1"
           d="m 199.19344,149.48958 a 8.3390989,8.2209816 0 0 1 -8.3391,8.22098 8.3390989,8.2209816 0 0 1 -8.3391,-8.22098 8.3390989,8.2209816 0 0 1 8.3391,-8.22098 8.3390989,8.2209816 0 0 1 8.3391,8.22098 z" /><g
           id="g63"><path
             id="path42"
             style="fill:url(#radialGradient78);fill-opacity:0.997167;stroke-width:0.228;stroke-miterlimit:2.1"
             d="m 195.9334,149.53683 a 5.1499252,5.1499252 0 0 1 -5.14992,5.14993 5.1499252,5.1499252 0 0 1 -5.14993,-5.14993 5.1499252,5.1499252 0 0 1 5.14993,-5.14992 5.1499252,5.1499252 0 0 1 5.14992,5.14992 z" /><path
             id="path63"
             style="fill:url(#radialGradient63);fill-opacity:0.997167;stroke-width:0.228;stroke-miterlimit:2.1"
             d="m 195.9334,149.53683 a 5.1499252,5.1499252 0 0 1 -5.14992,5.14993 5.1499252,5.1499252 0 0 1 -5.14993,-5.14993 5.1499252,5.1499252 0 0 1 5.14993,-5.14992 5.1499252,5.1499252 0 0 1 5.14992,5.14992 z" /><path
             id="path64"
             style="fill:url(#linearGradient65);fill-opacity:0.997167;stroke-width:0.228;stroke-miterlimit:2.1"
             d="m 195.9334,149.53683 a 5.1499252,5.1499252 0 0 1 -5.14992,5.14993 5.1499252,5.1499252 0 0 1 -5.14993,-5.14993 5.1499252,5.1499252 0 0 1 5.14993,-5.14992 5.1499252,5.1499252 0 0 1 5.14992,5.14992 z" /></g></g></g><g
       id="rect67"
       inkscape:label="homebutton"><path
         id="path69"
         style="color:#000000;display:inline;fill:#ffffff;stroke-miterlimit:2.1;-inkscape-stroke:none"
         d="m 188.82413,149.27926 v 2.35655 h 4.01371 v -2.35655 h -0.32977 l 0.002,0.32608 v 1.70439 h -3.35742 c 0.002,-0.91347 -0.004,-1.11703 0.002,-2.03047 z"
         sodipodi:nodetypes="cccccccccc" /><path
         id="path68"
         style="color:#000000;display:inline;fill:#ffffff;stroke-width:1.31852;stroke-miterlimit:2.1;-inkscape-stroke:none"
         d="m 190.84136,146.51405 -2.497,2.50291 0.3178,0.28349 2.17765,-2.17713 2.17713,2.17713 0.36328,-0.30711 -0.75873,-0.74975 0.0281,-0.98023 -0.27899,-0.0235 -0.0736,0.75031 z"
         sodipodi:nodetypes="ccccccccccc" /></g><g
       id="g72"><g
         id="g77"><path
           id="rect73"
           style="fill:url(#linearGradient73);stroke:#5a5a5a;stroke-width:0.328001;stroke-miterlimit:2.1;stroke-opacity:0.524079"
           d="m 162.56669,145.19417 h 7.75082 c 2.14697,0 3.87541,1.72843 3.87541,3.87541 v 0.13363 c 0,2.14698 -1.72844,3.87541 -3.87541,3.87541 h -7.75082 c -2.14697,0 -3.87541,-1.72843 -3.87541,-3.87541 v -0.13363 c 0,-2.14698 1.72844,-3.87541 3.87541,-3.87541 z" /><path
           id="rect72"
           style="fill:url(#radialGradient73);stroke-width:0.328001;stroke-miterlimit:2.1"
           d="m 162.56669,145.19417 h 7.75082 c 2.14697,0 3.87541,1.72843 3.87541,3.87541 v 0.13363 c 0,2.14698 -1.72844,3.87541 -3.87541,3.87541 h -7.75082 c -2.14697,0 -3.87541,-1.72843 -3.87541,-3.87541 v -0.13363 c 0,-2.14698 1.72844,-3.87541 3.87541,-3.87541 z" /></g><path
         id="rect69"
         style="fill:#ffffff;fill-opacity:0.99716699;stroke-width:0.145995;stroke-miterlimit:2.1"
         d="m 165.46162,150.53538 h 2.82327 c 1.0526,0 1.12996,-1.77177 0.0368,-1.77177 l -5.49933,-0.12092 1.08304,1.21974 -0.67295,0.0105 -1.21974,-1.41952 1.21974,-1.3354 0.54678,0.0316 -0.95687,1.05149 5.60448,0.0841 c 1.53808,0 1.54878,2.69183 -0.0946,2.69183 h -2.87059 z"
         sodipodi:nodetypes="cccccccccccccc" /><g
         id="g71"
         transform="translate(3.6081386)"><g
           id="g76"
           transform="translate(46.133551)"><path
             id="path75"
             style="fill:url(#linearGradient76);stroke:#5a5a5a;stroke-width:0.328001;stroke-miterlimit:2.1;stroke-opacity:0.524079"
             d="m 162.56669,145.19417 h 7.75082 c 2.14697,0 3.87541,1.72843 3.87541,3.87541 v 0.13363 c 0,2.14698 -1.72844,3.87541 -3.87541,3.87541 h -7.75082 c -2.14697,0 -3.87541,-1.72843 -3.87541,-3.87541 v -0.13363 c 0,-2.14698 1.72844,-3.87541 3.87541,-3.87541 z" /><path
             id="path76"
             style="fill:url(#radialGradient76);stroke-width:0.328001;stroke-miterlimit:2.1"
             d="m 162.56669,145.19417 h 7.75082 c 2.14697,0 3.87541,1.72843 3.87541,3.87541 v 0.13363 c 0,2.14698 -1.72844,3.87541 -3.87541,3.87541 h -7.75082 c -2.14697,0 -3.87541,-1.72843 -3.87541,-3.87541 v -0.13363 c 0,-2.14698 1.72844,-3.87541 3.87541,-3.87541 z" /></g><path
           style="color:#000000;fill:#ffffff;stroke-width:0.783987;stroke-miterlimit:2.1;-inkscape-stroke:none;fill-opacity:1"
           d="m 207.80928,148.05122 v 3.14666 h 7.96083 v -3.14666 z m 0.25572,0.25724 h 7.44787 v 2.63218 H 208.065 Z"
           id="rect70" /><path
           id="path70"
           style="color:#000000;fill:#ffffff;stroke-width:0.783987;stroke-miterlimit:2.1;-inkscape-stroke:none;fill-opacity:1"
           d="m 208.69987,147.31783 0.25564,0.25726 h 7.44803 v 2.63217 l 0.25726,0.25726 v -3.14669 z"
           sodipodi:nodetypes="ccccccc" /></g></g><rect
       ry="4.4932313"
       y="49.208271"
       x="150.90594"
       height="110.66371"
       width="79.780807"
       id="rect4718"
       style="fill:none;stroke:url(#linearGradient3654);stroke-width:2.57356;stroke-linecap:round;stroke-linejoin:round;stroke-miterlimit:4;stroke-dasharray:none;stroke-dashoffset:0;stroke-opacity:1"
       rx="4.4932313" /></g></svg>
