<?xml version="1.0" encoding="UTF-8" standalone="no"?>
<!-- Created with Inkscape (http://www.inkscape.org/) -->

<svg
   width="256"
   height="256"
   id="svg3077"
   sodipodi:version="0.32"
   inkscape:version="1.4.2 (ebf0e940d0, 2025-05-08)"
   sodipodi:docname="media-optical-dvd.svg"
   inkscape:output_extension="org.inkscape.output.svg.inkscape"
   version="1.1"
   viewBox="0 0 256 256"
   xmlns:inkscape="http://www.inkscape.org/namespaces/inkscape"
   xmlns:sodipodi="http://sodipodi.sourceforge.net/DTD/sodipodi-0.dtd"
   xmlns:xlink="http://www.w3.org/1999/xlink"
   xmlns="http://www.w3.org/2000/svg"
   xmlns:svg="http://www.w3.org/2000/svg"
   xmlns:rdf="http://www.w3.org/1999/02/22-rdf-syntax-ns#"
   xmlns:cc="http://creativecommons.org/ns#"
   xmlns:dc="http://purl.org/dc/elements/1.1/">
  <defs
     id="defs3">
    <inkscape:perspective
       sodipodi:type="inkscape:persp3d"
       inkscape:vp_x="0 : 232 : 1"
       inkscape:vp_y="0 : 1000 : 0"
       inkscape:vp_z="48 : 232 : 1"
       inkscape:persp3d-origin="24 : 224 : 1"
       id="perspective91" />
    <linearGradient
       inkscape:collect="always"
       id="linearGradient23419">
      <stop
         style="stop-color:#000000;stop-opacity:1;"
         offset="0"
         id="stop23421" />
      <stop
         style="stop-color:#000000;stop-opacity:0;"
         offset="1"
         id="stop23423" />
    </linearGradient>
    <linearGradient
       id="linearGradient3435"
       gradientUnits="userSpaceOnUse"
       x1="12.2744"
       y1="32.4165"
       x2="35.391201"
       y2="14.2033">
      <stop
         offset="0.0000000"
         style="stop-color:#ffffc8;stop-opacity:1.0000000;"
         id="stop3437" />
      <stop
         offset="1.0000000"
         style="stop-color:#9a91ef;stop-opacity:0.0000000;"
         id="stop3439" />
    </linearGradient>
    <linearGradient
       y2="14.2033"
       x2="35.391201"
       y1="32.4165"
       x1="12.2744"
       gradientUnits="userSpaceOnUse"
       id="linearGradient3421">
      <stop
         id="stop3423"
         style="stop-color:#ffffff;stop-opacity:1.0000000;"
         offset="0.0000000" />
      <stop
         id="stop3427"
         style="stop-color:#b8c04c;stop-opacity:0.0000000;"
         offset="1.0000000" />
    </linearGradient>
    <linearGradient
       id="linearGradient3406"
       gradientUnits="userSpaceOnUse"
       x1="12.2744"
       y1="32.4165"
       x2="35.391201"
       y2="14.2033">
      <stop
         offset="0.0000000"
         style="stop-color:#b307ff;stop-opacity:0.82178217;"
         id="stop3408" />
      <stop
         offset="1.0000000"
         style="stop-color:#f0ff8b;stop-opacity:0.64356434;"
         id="stop3410" />
      <stop
         offset="1.0000000"
         style="stop-color:#ffffff;stop-opacity:0.0000000;"
         id="stop3412" />
    </linearGradient>
    <linearGradient
       y2="14.2033"
       x2="35.391201"
       y1="32.4165"
       x1="12.2744"
       gradientUnits="userSpaceOnUse"
       id="linearGradient3394">
      <stop
         id="stop3396"
         style="stop-color:#fff307;stop-opacity:1.0000000;"
         offset="0.0000000" />
      <stop
         id="stop3398"
         style="stop-color:#166eff;stop-opacity:1.0000000;"
         offset="0.50000000" />
      <stop
         id="stop3400"
         style="stop-color:#ffffff;stop-opacity:0.0000000;"
         offset="1.0000000" />
    </linearGradient>
    <linearGradient
       inkscape:collect="always"
       id="linearGradient6036">
      <stop
         style="stop-color:#ffffff;stop-opacity:1;"
         offset="0"
         id="stop6038" />
      <stop
         style="stop-color:#ffffff;stop-opacity:0;"
         offset="1"
         id="stop6040" />
    </linearGradient>
    <linearGradient
       inkscape:collect="always"
       id="linearGradient6028">
      <stop
         style="stop-color:#ffffff;stop-opacity:1;"
         offset="0"
         id="stop6030" />
      <stop
         style="stop-color:#ffffff;stop-opacity:0;"
         offset="1"
         id="stop6032" />
    </linearGradient>
    <linearGradient
       id="linearGradient4236">
      <stop
         style="stop-color:#ffffff;stop-opacity:0.32673267;"
         offset="0.0000000"
         id="stop4238" />
      <stop
         style="stop-color:#ffffff;stop-opacity:0.60396039;"
         offset="1.0000000"
         id="stop4240" />
    </linearGradient>
    <linearGradient
       id="aigrd2"
       gradientUnits="userSpaceOnUse"
       x1="12.2744"
       y1="32.4165"
       x2="35.391201"
       y2="14.2033">
      <stop
         offset="0"
         style="stop-color:#FBFBFB"
         id="stop3043" />
      <stop
         offset="0.5"
         style="stop-color:#B6B6B6"
         id="stop3045" />
      <stop
         offset="1"
         style="stop-color:#E4E4E4"
         id="stop3047" />
    </linearGradient>
    <linearGradient
       id="aigrd1"
       gradientUnits="userSpaceOnUse"
       x1="14.9966"
       y1="11.1885"
       x2="32.511002"
       y2="34.307499">
      <stop
         offset="0"
         style="stop-color:#EBEBEB"
         id="stop3034" />
      <stop
         offset="0.5"
         style="stop-color:#FFFFFF"
         id="stop3036" />
      <stop
         offset="1"
         style="stop-color:#EBEBEB"
         id="stop3038" />
    </linearGradient>
    <linearGradient
       inkscape:collect="always"
       xlink:href="#aigrd1"
       id="linearGradient3912"
       gradientUnits="userSpaceOnUse"
       x1="14.9966"
       y1="11.1885"
       x2="32.511002"
       y2="34.307499"
       gradientTransform="matrix(1.190476,0,0,1.190476,-4.224424,-2.5)" />
    <linearGradient
       inkscape:collect="always"
       xlink:href="#linearGradient4236"
       id="linearGradient4222"
       x1="21.125"
       y1="14.625"
       x2="29"
       y2="28"
       gradientUnits="userSpaceOnUse"
       gradientTransform="matrix(1.25,0,0,1.25,-5.652995,-2.604165)" />
    <linearGradient
       inkscape:collect="always"
       xlink:href="#linearGradient4236"
       id="linearGradient4224"
       x1="21.125"
       y1="14.625"
       x2="29"
       y2="28"
       gradientUnits="userSpaceOnUse"
       gradientTransform="matrix(1.25,0,0,1.25,-5.652995,-2.604165)" />
    <linearGradient
       inkscape:collect="always"
       xlink:href="#aigrd2"
       id="linearGradient4242"
       gradientUnits="userSpaceOnUse"
       gradientTransform="matrix(1.190476,0,0,1.190476,-4.224424,-2.500001)"
       x1="12.2744"
       y1="32.4165"
       x2="35.391201"
       y2="14.2033" />
    <linearGradient
       inkscape:collect="always"
       xlink:href="#linearGradient6028"
       id="linearGradient6034"
       x1="28.702885"
       y1="31.494707"
       x2="17.742729"
       y2="18.366575"
       gradientUnits="userSpaceOnUse" />
    <linearGradient
       inkscape:collect="always"
       xlink:href="#linearGradient6036"
       id="linearGradient6042"
       x1="10.50172"
       y1="3.6100161"
       x2="48.798885"
       y2="54.698483"
       gradientUnits="userSpaceOnUse" />
    <radialGradient
       gradientTransform="matrix(0.848684,0.95802,-0.782119,0.692834,18.69147,-20.52578)"
       gradientUnits="userSpaceOnUse"
       r="21.333334"
       fy="27.569166"
       fx="37.751469"
       cy="27.569166"
       cx="37.751469"
       id="radialGradient3392"
       xlink:href="#linearGradient3394"
       inkscape:collect="always" />
    <radialGradient
       r="21.333334"
       fy="48.23827"
       fx="53.556889"
       cy="48.23827"
       cx="53.556889"
       gradientTransform="matrix(0.15845,-0.158988,0.432907,0.431441,-2.723645,15.00107)"
       gradientUnits="userSpaceOnUse"
       id="radialGradient3429"
       xlink:href="#linearGradient3421"
       inkscape:collect="always" />
    <radialGradient
       r="21.333334"
       fy="33.377594"
       fx="16.885271"
       cy="33.377594"
       cx="16.885271"
       gradientTransform="matrix(0.00518427,-0.12286,0.544548,0.02297824,0.957234,26.30756)"
       gradientUnits="userSpaceOnUse"
       id="radialGradient3433"
       xlink:href="#linearGradient3435"
       inkscape:collect="always" />
    <radialGradient
       r="21.333334"
       fy="21.618015"
       fx="35.511295"
       cy="21.618015"
       cx="35.511295"
       gradientTransform="matrix(0.105916,-0.0191424,0.104789,0.579807,17.13693,7.115158)"
       gradientUnits="userSpaceOnUse"
       id="radialGradient3443"
       xlink:href="#linearGradient3435"
       inkscape:collect="always" />
    <radialGradient
       gradientTransform="matrix(-0.0504822,0.01387847,-0.12844,-0.467196,35.41257,39.44172)"
       r="21.333334"
       fy="23.914305"
       fx="133.84108"
       cy="23.914305"
       cx="133.84108"
       gradientUnits="userSpaceOnUse"
       id="radialGradient3447"
       xlink:href="#linearGradient3435"
       inkscape:collect="always" />
    <radialGradient
       r="21.333334"
       fy="38.807304"
       fx="26.137741"
       cy="38.807304"
       cx="26.137741"
       gradientTransform="matrix(0.769501,-1.2425,0.6703,0.415141,-21.77857,41.36563)"
       gradientUnits="userSpaceOnUse"
       id="radialGradient3449"
       xlink:href="#linearGradient3406"
       inkscape:collect="always" />
    <linearGradient
       inkscape:collect="always"
       xlink:href="#aigrd1"
       id="linearGradient23343"
       gradientUnits="userSpaceOnUse"
       gradientTransform="matrix(1.190476,0,0,1.190476,-4.224424,-2.5)"
       x1="14.9966"
       y1="11.1885"
       x2="32.511002"
       y2="34.307499" />
    <linearGradient
       inkscape:collect="always"
       xlink:href="#aigrd2"
       id="linearGradient23345"
       gradientUnits="userSpaceOnUse"
       gradientTransform="matrix(1.190476,0,0,1.190476,-4.224424,-2.500001)"
       x1="12.2744"
       y1="32.4165"
       x2="35.391201"
       y2="14.2033" />
    <linearGradient
       inkscape:collect="always"
       xlink:href="#linearGradient4236"
       id="linearGradient23347"
       gradientUnits="userSpaceOnUse"
       gradientTransform="matrix(1.25,0,0,1.25,-5.652995,-2.604165)"
       x1="21.125"
       y1="14.625"
       x2="29"
       y2="28" />
    <linearGradient
       inkscape:collect="always"
       xlink:href="#linearGradient4236"
       id="linearGradient23349"
       gradientUnits="userSpaceOnUse"
       gradientTransform="matrix(1.25,0,0,1.25,-5.652995,-2.604165)"
       x1="21.125"
       y1="14.625"
       x2="29"
       y2="28" />
    <linearGradient
       inkscape:collect="always"
       xlink:href="#linearGradient6036"
       id="linearGradient23351"
       gradientUnits="userSpaceOnUse"
       x1="10.50172"
       y1="3.6100161"
       x2="48.798885"
       y2="54.698483" />
    <linearGradient
       inkscape:collect="always"
       xlink:href="#linearGradient6028"
       id="linearGradient23353"
       gradientUnits="userSpaceOnUse"
       x1="28.702885"
       y1="31.494707"
       x2="17.742729"
       y2="18.366575" />
    <radialGradient
       inkscape:collect="always"
       xlink:href="#linearGradient3394"
       id="radialGradient23355"
       gradientUnits="userSpaceOnUse"
       gradientTransform="matrix(0.848684,0.95802,-0.782119,0.692834,18.69147,-20.52578)"
       cx="37.751469"
       cy="27.569166"
       fx="37.751469"
       fy="27.569166"
       r="21.333334" />
    <radialGradient
       inkscape:collect="always"
       xlink:href="#linearGradient3406"
       id="radialGradient23357"
       gradientUnits="userSpaceOnUse"
       gradientTransform="matrix(0.769501,-1.2425,0.6703,0.415141,-21.77857,41.36563)"
       cx="26.137741"
       cy="38.807304"
       fx="26.137741"
       fy="38.807304"
       r="21.333334" />
    <radialGradient
       inkscape:collect="always"
       xlink:href="#linearGradient3421"
       id="radialGradient23359"
       gradientUnits="userSpaceOnUse"
       gradientTransform="matrix(0.15845,-0.158988,0.432907,0.431441,-2.723645,15.00107)"
       cx="53.556889"
       cy="48.23827"
       fx="53.556889"
       fy="48.23827"
       r="21.333334" />
    <radialGradient
       inkscape:collect="always"
       xlink:href="#linearGradient3435"
       id="radialGradient23361"
       gradientUnits="userSpaceOnUse"
       gradientTransform="matrix(0.00518427,-0.12286,0.544548,0.02297824,0.957234,26.30756)"
       cx="16.885271"
       cy="33.377594"
       fx="16.885271"
       fy="33.377594"
       r="21.333334" />
    <radialGradient
       inkscape:collect="always"
       xlink:href="#linearGradient3435"
       id="radialGradient23363"
       gradientUnits="userSpaceOnUse"
       gradientTransform="matrix(0.105916,-0.0191424,0.104789,0.579807,17.13693,7.115158)"
       cx="35.511295"
       cy="21.618015"
       fx="35.511295"
       fy="21.618015"
       r="21.333334" />
    <radialGradient
       inkscape:collect="always"
       xlink:href="#linearGradient3435"
       id="radialGradient23365"
       gradientUnits="userSpaceOnUse"
       gradientTransform="matrix(-0.0504822,0.01387847,-0.12844,-0.467196,35.41257,39.44172)"
       cx="133.84108"
       cy="23.914305"
       fx="133.84108"
       fy="23.914305"
       r="21.333334" />
    <radialGradient
       inkscape:collect="always"
       xlink:href="#linearGradient3435"
       id="radialGradient23371"
       gradientUnits="userSpaceOnUse"
       gradientTransform="matrix(0.105916,-0.0191424,0.104789,0.579807,17.13693,7.115158)"
       cx="35.511295"
       cy="21.618015"
       fx="35.511295"
       fy="21.618015"
       r="21.333334" />
    <radialGradient
       inkscape:collect="always"
       xlink:href="#linearGradient3435"
       id="radialGradient23374"
       gradientUnits="userSpaceOnUse"
       gradientTransform="matrix(0.00518427,-0.12286,0.544548,0.02297824,0.957234,26.30756)"
       cx="16.885271"
       cy="33.377594"
       fx="16.885271"
       fy="33.377594"
       r="21.333334" />
    <radialGradient
       inkscape:collect="always"
       xlink:href="#linearGradient3421"
       id="radialGradient23377"
       gradientUnits="userSpaceOnUse"
       gradientTransform="matrix(0.15845,-0.158988,0.432907,0.431441,-2.723645,15.00107)"
       cx="53.556889"
       cy="48.23827"
       fx="53.556889"
       fy="48.23827"
       r="21.333334" />
    <radialGradient
       inkscape:collect="always"
       xlink:href="#linearGradient3406"
       id="radialGradient23380"
       gradientUnits="userSpaceOnUse"
       gradientTransform="matrix(0.769501,-1.2425,0.6703,0.415141,-21.77857,41.36563)"
       cx="26.137741"
       cy="38.807304"
       fx="26.137741"
       fy="38.807304"
       r="21.333334" />
    <radialGradient
       inkscape:collect="always"
       xlink:href="#linearGradient3394"
       id="radialGradient23383"
       gradientUnits="userSpaceOnUse"
       gradientTransform="matrix(0.848684,0.95802,-0.782119,0.692834,18.69147,-20.52578)"
       cx="37.751469"
       cy="27.569166"
       fx="37.751469"
       fy="27.569166"
       r="21.333334" />
    <linearGradient
       inkscape:collect="always"
       xlink:href="#linearGradient6036"
       id="linearGradient23387"
       gradientUnits="userSpaceOnUse"
       x1="10.50172"
       y1="3.6100161"
       x2="48.798885"
       y2="54.698483" />
    <linearGradient
       inkscape:collect="always"
       xlink:href="#linearGradient4236"
       id="linearGradient23390"
       gradientUnits="userSpaceOnUse"
       gradientTransform="matrix(1.25,0,0,1.25,-5.652995,-2.604165)"
       x1="21.125"
       y1="14.625"
       x2="29"
       y2="28" />
    <linearGradient
       inkscape:collect="always"
       xlink:href="#linearGradient4236"
       id="linearGradient23393"
       gradientUnits="userSpaceOnUse"
       gradientTransform="matrix(1.25,0,0,1.25,-5.652995,-2.604165)"
       x1="21.125"
       y1="14.625"
       x2="29"
       y2="28" />
    <linearGradient
       inkscape:collect="always"
       xlink:href="#aigrd2"
       id="linearGradient23397"
       gradientUnits="userSpaceOnUse"
       gradientTransform="matrix(1.190476,0,0,1.190476,-4.224424,-2.500001)"
       x1="12.2744"
       y1="32.4165"
       x2="35.391201"
       y2="14.2033" />
    <linearGradient
       inkscape:collect="always"
       xlink:href="#aigrd1"
       id="linearGradient23400"
       gradientUnits="userSpaceOnUse"
       gradientTransform="matrix(1.190476,0,0,1.190476,-4.224424,-2.5)"
       x1="14.9966"
       y1="11.1885"
       x2="32.511002"
       y2="34.307499" />
    <radialGradient
       inkscape:collect="always"
       xlink:href="#linearGradient23419"
       id="radialGradient23425"
       cx="23.334524"
       cy="41.63604"
       fx="23.334524"
       fy="41.63604"
       r="22.627417"
       gradientTransform="matrix(1,0,0,0.26657275,1,31.588186)"
       gradientUnits="userSpaceOnUse" />
    <linearGradient
       id="aigrd9"
       gradientUnits="userSpaceOnUse"
       x1="37.6465"
       y1="69.497597"
       x2="114.547"
       y2="126.4194">
				<stop
   offset="0"
   style="stop-color:#cbccce;stop-opacity:1;"
   id="stop49" />

				<stop
   offset="1"
   style="stop-color:#808189;stop-opacity:1;"
   id="stop50" />

			</linearGradient>
  </defs>
  <sodipodi:namedview
     id="base"
     pagecolor="#ffffff"
     bordercolor="#666666"
     borderopacity="0.25490196"
     inkscape:pageopacity="0.0"
     inkscape:pageshadow="2"
     inkscape:zoom="1.9414213"
     inkscape:cx="153.23824"
     inkscape:cy="257.80081"
     inkscape:current-layer="g1"
     showgrid="false"
     inkscape:grid-bbox="true"
     inkscape:document-units="px"
     inkscape:window-width="872"
     inkscape:window-height="804"
     inkscape:window-x="176"
     inkscape:window-y="44"
     inkscape:showpageshadow="false"
     inkscape:pagecheckerboard="0"
     inkscape:deskcolor="#d1d1d1" />
  <metadata
     id="metadata4">
    <rdf:RDF>
      <cc:Work
         rdf:about="">
        <dc:format>image/svg+xml</dc:format>
        <dc:type
           rdf:resource="http://purl.org/dc/dcmitype/StillImage" />
        <dc:creator>
          <cc:Agent>
            <dc:title>Jakub Steiner</dc:title>
          </cc:Agent>
        </dc:creator>
        <dc:source>http://jimmac.musichall.cz</dc:source>
        <dc:subject>
          <rdf:Bag>
            <rdf:li>cdrom</rdf:li>
            <rdf:li>media</rdf:li>
            <rdf:li>optical</rdf:li>
            <rdf:li>removable</rdf:li>
            <rdf:li>cd</rdf:li>
            <rdf:li>audio</rdf:li>
          </rdf:Bag>
        </dc:subject>
        <cc:license
           rdf:resource="http://creativecommons.org/publicdomain/zero/1.0/" />
        <dc:description>https://commons.wikimedia.org/wiki/File:Media-cdrom.svg</dc:description>
      </cc:Work>
      <cc:License
         rdf:about="http://creativecommons.org/publicdomain/zero/1.0/">
        <cc:permits
           rdf:resource="http://creativecommons.org/ns#Reproduction" />
        <cc:permits
           rdf:resource="http://creativecommons.org/ns#Distribution" />
        <cc:permits
           rdf:resource="http://creativecommons.org/ns#DerivativeWorks" />
      </cc:License>
    </rdf:RDF>
  </metadata>
  <g
     id="g1"
     transform="matrix(5.5739103,0,0,5.5739103,-8.5152644,-16.523901)">
    <ellipse
       style="color:#000000;display:inline;overflow:visible;visibility:visible;opacity:0.55;fill:url(#radialGradient23425);fill-opacity:1;fill-rule:evenodd;stroke:none;stroke-width:2.06523;stroke-linecap:butt;stroke-linejoin:miter;stroke-miterlimit:4;stroke-dasharray:none;stroke-dashoffset:0;stroke-opacity:1;marker:none;marker-start:none;marker-mid:none;marker-end:none"
       id="path23417"
       inkscape:r_cx="true"
       inkscape:r_cy="true"
       cx="24.334524"
       cy="42.687218"
       rx="22.627417"
       ry="6.0318527" />
    <path
       inkscape:r_cy="true"
       inkscape:r_cx="true"
       id="path3040"
       d="M 24.347006,4.1666669 C 12.799386,4.1666669 3.5136719,13.452381 3.5136719,25 c 0,11.54762 9.2857141,20.833335 20.8333341,20.833335 11.54762,0 20.833335,-9.285715 20.833335,-20.833335 0,-11.547619 -9.285715,-20.8333331 -20.833335,-20.8333331 z m 0,25.8333341 c -2.738095,0 -5,-2.261905 -5,-5.000001 0,-2.738095 2.261905,-5 5,-5 2.738095,0 5,2.261905 5,5 0,2.738096 -2.261905,5.000001 -5,5.000001 z"
       style="fill:url(#linearGradient23400);fill-rule:nonzero;stroke:none;stroke-miterlimit:4" />
    <path
       inkscape:r_cy="true"
       inkscape:r_cx="true"
       id="path3049"
       d="M 24.347006,4.1666665 C 12.799386,4.1666665 3.513672,13.452381 3.513672,25 c 0,11.54762 9.285714,20.833335 20.833334,20.833335 11.54762,0 20.833335,-9.285715 20.833335,-20.833335 0,-11.547619 -9.285715,-20.8333335 -20.833335,-20.8333335 z m 0,25.8333345 c -2.738095,0 -5,-2.261905 -5,-5.000001 0,-2.738095 2.261905,-5 5,-5 2.738095,0 5,2.261905 5,5 0,2.738096 -2.261905,5.000001 -5,5.000001 z"
       style="fill:url(#linearGradient23397);fill-rule:nonzero;stroke:#808080;stroke-miterlimit:4;stroke-opacity:1" />
    <path
       inkscape:r_cy="true"
       inkscape:r_cx="true"
       id="path3051"
       d="M 24.347006,14.895835 C 18.70442,14.895835 14.24284,19.488638 14.24284,25 c 0,5.642588 4.592804,10.104166 10.104166,10.104166 5.642586,0 10.104166,-4.592802 10.104166,-10.104166 0,-5.642586 -4.592804,-10.104165 -10.104166,-10.104165 z m 0,15.615529 c -3.018127,0 -5.511362,-2.493235 -5.511362,-5.511364 0,-3.018127 2.493235,-5.511362 5.511362,-5.511362 3.018127,0 5.511362,2.493235 5.511362,5.511362 0,3.018129 -2.493235,5.511364 -5.511362,5.511364 z"
       style="opacity:0.11;fill-rule:nonzero;stroke:none;stroke-miterlimit:4" />
    <path
       inkscape:r_cy="true"
       inkscape:r_cx="true"
       style="fill:url(#linearGradient23393);fill-opacity:1;fill-rule:nonzero;stroke:none;stroke-miterlimit:4;stroke-opacity:1"
       d="M 29.922111,5.6692337 26.325518,19.663896 c 1.124704,0.299517 2.024143,0.99547 2.635128,1.958542 l 12.39222,-7.549285 C 38.817618,9.9434382 34.748656,6.9050853 29.922111,5.6692337 Z"
       id="path3916" />
    <path
       inkscape:r_cy="true"
       inkscape:r_cx="true"
       id="path4214"
       d="M 17.307824,43.766057 22.043079,30.114558 C 20.946815,29.723566 20.107654,28.956005 19.577936,27.945951 L 6.6068752,34.450599 c 2.1870573,4.324212 5.9923798,7.686883 10.7009488,9.315458 z"
       style="fill:url(#linearGradient23390);fill-opacity:1;fill-rule:nonzero;stroke:none;stroke-miterlimit:4;stroke-opacity:1" />
    <path
       inkscape:r_cy="true"
       inkscape:r_cx="true"
       style="opacity:0.546448;fill:none;fill-rule:nonzero;stroke:url(#linearGradient23387);stroke-miterlimit:4;stroke-opacity:1"
       d="m 24.347002,5.2023655 c -10.973544,0 -19.7976309,8.8240885 -19.7976309,19.7976315 0,10.973544 8.8240869,19.797631 19.7976309,19.797631 10.973544,0 19.797631,-8.824087 19.797631,-19.797631 0,-10.973543 -8.824087,-19.7976315 -19.797631,-19.7976315 z"
       id="path5264"
       sodipodi:nodetypes="cccccc" />
    <circle
       inkscape:r_cy="true"
       inkscape:r_cx="true"
       style="color:#000000;display:inline;overflow:visible;visibility:visible;opacity:0.672131;fill:none;fill-opacity:0.316384;fill-rule:nonzero;stroke:url(#linearGradient23353);stroke-width:0.930539;stroke-linecap:butt;stroke-linejoin:miter;stroke-miterlimit:4;stroke-dashoffset:0;stroke-opacity:1;marker:none;marker-start:none;marker-mid:none;marker-end:none"
       id="path6026"
       transform="translate(0.08838835,0.08838865)"
       cx="24.306795"
       cy="24.930641"
       r="6.0987959" />
    <path
       inkscape:r_cy="true"
       inkscape:r_cx="true"
       style="opacity:0.114286;fill:url(#radialGradient23383);fill-opacity:1;fill-rule:nonzero;stroke:none;stroke-miterlimit:4;stroke-opacity:1"
       d="M 24.347006,4.1666665 C 12.799386,4.1666665 3.513672,13.452381 3.513672,25 c 0,11.54762 9.285714,20.833335 20.833334,20.833335 11.54762,0 20.833335,-9.285715 20.833335,-20.833335 0,-11.547619 -9.285715,-20.8333335 -20.833335,-20.8333335 z m 0,25.8333345 c -2.738095,0 -5,-2.261905 -5,-5.000001 0,-2.738095 2.261905,-5 5,-5 2.738095,0 5,2.261905 5,5 0,2.738096 -2.261905,5.000001 -5,5.000001 z"
       id="path3390" />
    <path
       inkscape:r_cy="true"
       inkscape:r_cx="true"
       id="path3404"
       d="M 24.347006,4.1666665 C 12.799386,4.1666665 3.513672,13.452381 3.513672,25 c 0,11.54762 9.285714,20.833335 20.833334,20.833335 11.54762,0 20.833335,-9.285715 20.833335,-20.833335 0,-11.547619 -9.285715,-20.8333335 -20.833335,-20.8333335 z m 0,25.8333345 c -2.738095,0 -5,-2.261905 -5,-5.000001 0,-2.738095 2.261905,-5 5,-5 2.738095,0 5,2.261905 5,5 0,2.738096 -2.261905,5.000001 -5,5.000001 z"
       style="opacity:0.0971428;fill:url(#radialGradient23380);fill-opacity:1;fill-rule:nonzero;stroke:none;stroke-miterlimit:4;stroke-opacity:1" />
    <path
       inkscape:r_cy="true"
       inkscape:r_cx="true"
       style="opacity:0.714286;fill:url(#radialGradient23377);fill-opacity:1;fill-rule:nonzero;stroke:none;stroke-miterlimit:4;stroke-opacity:1"
       d="M 24.347006,4.1666665 C 12.799386,4.1666665 3.513672,13.452381 3.513672,25 c 0,11.54762 9.285714,20.833335 20.833334,20.833335 11.54762,0 20.833335,-9.285715 20.833335,-20.833335 0,-11.547619 -9.285715,-20.8333335 -20.833335,-20.8333335 z m 0,25.8333345 c -2.738095,0 -5,-2.261905 -5,-5.000001 0,-2.738095 2.261905,-5 5,-5 2.738095,0 5,2.261905 5,5 0,2.738096 -2.261905,5.000001 -5,5.000001 z"
       id="path3419" />
    <path
       inkscape:r_cy="true"
       inkscape:r_cx="true"
       id="path3431"
       d="M 24.347006,4.1666665 C 12.799386,4.1666665 3.513672,13.452381 3.513672,25 c 0,11.54762 9.285714,20.833335 20.833334,20.833335 11.54762,0 20.833335,-9.285715 20.833335,-20.833335 0,-11.547619 -9.285715,-20.8333335 -20.833335,-20.8333335 z m 0,25.8333345 c -2.738095,0 -5,-2.261905 -5,-5.000001 0,-2.738095 2.261905,-5 5,-5 2.738095,0 5,2.261905 5,5 0,2.738096 -2.261905,5.000001 -5,5.000001 z"
       style="opacity:0.622857;fill:url(#radialGradient23374);fill-opacity:1;fill-rule:nonzero;stroke:none;stroke-miterlimit:4;stroke-opacity:1" />
    <path
       inkscape:r_cy="true"
       inkscape:r_cx="true"
       style="opacity:0.371429;fill:url(#radialGradient23371);fill-opacity:1;fill-rule:nonzero;stroke:none;stroke-miterlimit:4;stroke-opacity:1"
       d="M 24.347006,4.1666665 C 12.799386,4.1666665 3.513672,13.452381 3.513672,25 c 0,11.54762 9.285714,20.833335 20.833334,20.833335 11.54762,0 20.833335,-9.285715 20.833335,-20.833335 0,-11.547619 -9.285715,-20.8333335 -20.833335,-20.8333335 z m 0,25.8333345 c -2.738095,0 -5,-2.261905 -5,-5.000001 0,-2.738095 2.261905,-5 5,-5 2.738095,0 5,2.261905 5,5 0,2.738096 -2.261905,5.000001 -5,5.000001 z"
       id="path3441" />
    <path
       inkscape:r_cy="true"
       inkscape:r_cx="true"
       id="path3445"
       d="M 24.347006,4.1666665 C 12.799386,4.1666665 3.513672,13.452381 3.513672,25 c 0,11.54762 9.285714,20.833335 20.833334,20.833335 11.54762,0 20.833335,-9.285715 20.833335,-20.833335 0,-11.547619 -9.285715,-20.8333335 -20.833335,-20.8333335 z m 0,25.8333345 c -2.738095,0 -5,-2.261905 -5,-5.000001 0,-2.738095 2.261905,-5 5,-5 2.738095,0 5,2.261905 5,5 0,2.738096 -2.261905,5.000001 -5,5.000001 z"
       style="opacity:0.234286;fill:#c3d1da;fill-opacity:1;fill-rule:nonzero;stroke:none;stroke-miterlimit:4;stroke-opacity:1" />
    <g
       id="g51"
       style="clip-rule:nonzero;fill:#ffffff;fill-rule:nonzero;stroke:#ffffff;stroke-width:0;stroke-miterlimit:4"
       transform="matrix(0.32272094,0,0,0.32272094,1.2886385,7.9735187)">
			<linearGradient
   id="linearGradient2"
   gradientUnits="userSpaceOnUse"
   x1="37.6465"
   y1="69.497597"
   x2="114.547"
   y2="126.4194">
				<stop
   offset="0"
   style="stop-color:#9AB1FF"
   id="stop1" />

				<stop
   offset="1"
   style="stop-color:#444973"
   id="stop2" />

			</linearGradient>

			<path
   style="fill:url(#aigrd9);stroke:none"
   d="m 102.445,90.494 c -1.2,0.375 -1.834,1.225 -2.141,1.633 0,0 -0.044,0.059 -0.044,0.061 l -0.464,0.561 -0.244,0.285 -3.732,4.438 -1.025,1.211 c -0.875,1.031 -1.779,2.095 -2.65,3.19 0,0 -0.197,0.256 -0.367,0.481 -0.239,-0.75 -0.478,-1.503 -0.742,-2.255 L 90.439,98.448 C 90.011,97.279 89.607,96.176 89.27,95.06 l -0.137,-0.461 c -0.174,-0.595 -0.371,-1.272 -0.669,-1.962 l 0.011,0.026 -0.012,-0.033 C 87.755,90.802 86.399,90.396 85.65,90.317 l -0.867,-0.016 -0.099,0.005 c -0.006,0 -35.153,0 -35.153,0 0,0 0,1.467 0,2.934 -1.425,-0.35 -2.849,-0.7 -2.849,-0.7 l -1.046,4.244 -0.048,0.167 c -0.113,0.374 -0.284,0.939 -0.284,1.617 0,0 0.104,0.239 0.139,0.317 -0.309,0.409 -0.525,0.901 -0.604,1.459 l 0.035,-0.183 -0.299,1.242 -2.031,8.492 -0.681,2.863 -0.206,0.876 -0.437,1.806 -0.071,0.236 c -0.133,0.43 -0.334,1.078 -0.334,1.838 v 2.934 h 10.142 l 4.937,0.013 0.768,0.001 c 2.14,0.009 4.032,-0.124 5.784,-0.405 3.839,-0.614 7.32,-1.839 10.349,-3.637 2.928,-1.741 5.148,-3.724 6.638,-5.916 0.039,0.106 2.214,6.256 2.214,6.256 l 0.556,1.594 c 0.439,1.264 0.891,2.572 1.392,3.861 l 0.028,0.07 0.364,1.005 0.094,0.361 c 0.331,1.548 1.646,2.544 3.208,2.422 l -0.164,0.006 1.95,-0.478 c 0,0 0.251,-0.452 0.483,-0.869 l 0.188,-0.219 c 0.787,-0.957 1.628,-1.874 2.517,-2.844 0,0 1.117,-1.227 1.119,-1.227 l 4.013,-4.527 2.119,-2.4 2.411,-2.727 c 0,0 0.4,-0.45 0.972,-1.095 -0.212,0.894 -0.413,1.742 -0.413,1.742 l -0.667,2.814 -0.172,0.667 c -0.185,0.686 -0.393,1.461 -0.472,2.333 l -0.284,3.197 h 11.883 l 1.459,0.005 c 3.328,0.017 6.769,0.034 10.242,-0.716 1.922,-0.416 3.8,-1.016 5.581,-1.78 1.975,-0.85 3.692,-1.94 5.111,-2.896 3.116,-2.094 5.45,-5.17 6.408,-8.438 0.581,-1.981 0.621,-4.01 0.118,-5.864 -0.513,-1.881 -1.622,-3.692 -3.211,-5.237 -2.492,-2.422 -5.965,-4.033 -10.33,-4.791 -0.906,-0.156 -1.869,-0.278 -2.862,-0.357 -0.854,-0.07 -1.663,-0.066 -2.445,-0.063 l -0.63,0.001 -5.791,-0.008 h -5.784 l -1.688,0.012 c -1.251,0.013 -2.435,0.025 -3.605,-0.025 l -0.276,-0.016 c -0.683,-0.042 -1.617,-0.097 -2.619,0.216 h -0.001 z m -43.494,5.208 m -7.209,7.855 c 0,0 0.994,0 1.763,0 -0.241,1.019 -1.884,7.956 -1.884,7.956 0,0 -0.535,2.31 -0.711,3.069 -0.051,0 -1.793,0 -3.448,0 0.053,-0.229 0.108,-0.461 0.108,-0.461 l 0.682,-2.864 c 0,0 1.341,-5.607 1.842,-7.7 0.798,0 1.648,0 1.648,0 z m 6.961,3.525 c 0,0 1.177,-4.974 1.301,-5.494 0.668,0.014 1.326,0.039 1.963,0.108 0.627,0.068 3.766,0.49 3.942,2.134 0.009,0.095 0.014,0.19 0.014,0.286 0,1.552 -1.327,3.005 -2.631,3.734 -0.43,0.241 -0.936,0.433 -1.566,0.646 -0.874,0.297 -1.577,0.484 -2.212,0.589 -0.424,0.07 -0.866,0.109 -1.317,0.138 0.236,-0.999 0.507,-2.141 0.507,-2.141 z M 73.004,96.175 c 0,0 1.457,0 2.052,0 0,0.772 0,2.315 0,2.315 0,0.958 0.236,1.717 0.431,2.349 0.13,0.416 0.214,0.869 0.266,1.428 0.03,0.309 0.044,0.614 0.044,0.908 0,1.014 -0.17,1.931 -0.51,2.737 -0.809,1.92 -2.709,3.808 -5.494,5.463 -1.317,0.784 -2.768,1.417 -4.316,1.923 0.228,-0.108 0.452,-0.199 0.681,-0.327 3.498,-1.959 5.634,-5.362 5.634,-8.859 0,-0.302 -0.016,-0.604 -0.047,-0.906 -0.378,-3.523 -3.042,-6.065 -7.251,-7.031 3.934,0 8.51,0 8.51,0 z m 20.814,13.158 0.814,-1.056 0.542,-0.689 0.681,-0.905 0.881,-1.158 c 0.813,-1.019 1.686,-2.048 2.531,-3.044 l 1.045,-1.234 3.728,-4.434 0.211,-0.244 c 0,0 0.181,-0.223 0.359,-0.439 0.033,0.001 0.472,0.027 0.472,0.027 0.75,0.033 1.497,0.042 2.234,0.042 -0.72,0.406 -1.176,0.974 -1.411,1.271 0,0 -0.064,0.081 -0.069,0.086 -0.017,0.02 -2.956,3.306 -2.956,3.306 l -5.363,6.043 -2.405,2.721 -2.129,2.414 -3.972,4.478 c 0,0 -0.641,0.703 -0.895,0.984 -0.124,-0.355 -0.249,-0.702 -0.374,-1.067 l -0.569,-1.631 -3.916,-11.064 -0.853,-2.386 c 0,0 -0.917,-2.56 -0.947,-2.639 -0.006,-0.022 -0.018,-0.065 -0.018,-0.065 -0.362,-1.275 -0.942,-2.025 -1.553,-2.474 1.737,0 2.922,0 3.589,0 0.006,0.023 0.173,0.589 0.173,0.589 0.386,1.273 0.837,2.506 1.275,3.7 l 0.572,1.584 c 0.597,1.692 1.122,3.465 1.631,5.18 0.175,0.594 0.344,1.227 0.391,1.836 0.122,1.647 1.484,2.939 3.102,2.939 l 1.984,-0.217 0.828,-1.84 c 0.083,-0.166 0.205,-0.359 0.385,-0.613 h -0.002 z m 14.37,3.462 1.352,-5.683 0.526,-2.297 0.219,-0.977 c 0,0 0.031,-0.126 0.073,-0.298 0.508,0.008 1.175,0.016 1.175,0.016 0,0 1.202,0 2.275,0 -0.125,0.53 -0.251,1.065 -0.251,1.065 l -0.227,0.97 -0.306,1.286 c -0.367,1.534 -0.747,3.122 -1.077,4.716 0,0 -0.453,2.225 -0.608,2.987 -0.981,0 -1.828,0 -3.573,0 0.195,-0.828 0.422,-1.786 0.422,-1.786 z m 10.543,-4.552 0.31,-1.3 0.231,-0.986 0.453,-1.908 0.155,-0.617 c 0.15,-0.574 0.3,-1.224 0.42,-1.902 1.281,0.047 2.508,0.182 3.656,0.506 0.979,0.277 1.638,0.622 1.956,1.027 0.211,0.267 0.325,0.639 0.325,1.056 0,0.031 -10e-4,0.063 -0.003,0.095 -0.055,1.362 -1.018,2.702 -2.577,3.583 -0.513,0.291 -1.1,0.545 -1.747,0.756 -0.847,0.278 -1.583,0.463 -2.186,0.547 -0.396,0.057 -0.808,0.083 -1.222,0.108 0.077,-0.322 0.151,-0.648 0.228,-0.965 z m 7.817,4.662 c 3.337,-1.887 5.412,-5.047 5.551,-8.453 0.003,-0.109 0.006,-0.22 0.006,-0.331 0,-1.734 -0.556,-3.389 -1.584,-4.692 -1.117,-1.417 -2.742,-2.411 -4.967,-3.041 -0.229,-0.064 -0.453,-0.103 -0.68,-0.156 0.792,0.067 1.555,0.161 2.269,0.286 3.175,0.55 5.611,1.633 7.239,3.214 0.838,0.813 1.403,1.702 1.639,2.569 0.097,0.356 0.146,0.737 0.146,1.131 0,0.499 -0.078,1.017 -0.233,1.542 -0.578,1.975 -2.055,3.878 -4.05,5.22 -1.195,0.803 -2.624,1.714 -4.153,2.372 -0.651,0.28 -1.322,0.522 -2,0.745 0.273,-0.133 0.558,-0.259 0.817,-0.406 z"
   id="path50" />

			<path
   style="fill:#eeeeee;fill-opacity:1;stroke:none"
   d="m 48.944,92.947 c 7.824,0 15.649,0 23.473,0 3.896,0 7.788,0 11.683,0 0.219,0 0.436,-0.028 0.655,-0.005 0.259,0.027 0.337,0.353 0.428,0.566 0.295,0.68 0.477,1.403 0.69,2.111 0.53,1.742 1.202,3.445 1.808,5.163 0.619,1.756 1.147,3.534 1.676,5.318 0.241,0.811 0.439,1.611 0.503,2.455 0.008,0.106 0.102,0.22 0.175,0.22 0.053,-0.152 0.119,-0.3 0.191,-0.444 0.175,-0.345 0.387,-0.672 0.612,-0.989 0.448,-0.633 0.95,-1.223 1.425,-1.839 0.535,-0.695 1.044,-1.409 1.589,-2.099 1.175,-1.475 2.414,-2.896 3.626,-4.339 1.244,-1.479 2.487,-2.958 3.731,-4.436 0.269,-0.319 0.55,-0.631 0.801,-0.964 0.197,-0.258 0.397,-0.564 0.722,-0.666 0.59,-0.185 1.283,-0.096 1.891,-0.069 1.801,0.08 3.617,0.016 5.422,0.016 1.926,0 3.854,0 5.783,0 1.929,0 3.856,0.001 5.784,0.008 0.947,0.003 1.9,-0.027 2.845,0.05 0.871,0.072 1.738,0.177 2.599,0.327 3.178,0.552 6.431,1.716 8.784,4.001 1.106,1.077 2.016,2.402 2.423,3.903 0.381,1.401 0.307,2.884 -0.1,4.27 -0.82,2.797 -2.838,5.217 -5.231,6.83 -1.486,1 -2.981,1.922 -4.631,2.633 -1.623,0.697 -3.315,1.234 -5.042,1.606 -3.644,0.789 -7.378,0.647 -11.083,0.647 -2.891,0 -5.783,0 -8.673,0 0.077,-0.875 0.374,-1.734 0.575,-2.587 0.222,-0.936 0.444,-1.874 0.666,-2.81 0.45,-1.895 0.901,-3.791 1.352,-5.686 0.256,-1.08 0.494,-2.162 0.739,-3.245 0.117,-0.516 0.237,-1.028 0.376,-1.538 0.075,-0.273 0.136,-0.667 0.323,-0.892 0.094,-0.111 0.313,-0.125 0.445,-0.141 0.292,-0.034 0.591,-0.031 0.886,-0.026 0.693,0.014 1.386,0.031 2.078,0.031 1.982,0 3.967,0 5.951,0 -0.12,0.926 -0.389,1.823 -0.611,2.729 -0.237,0.969 -0.459,1.944 -0.689,2.916 -0.466,1.97 -0.953,3.938 -1.364,5.92 1.78,0 3.553,0.065 5.313,-0.181 0.897,-0.126 1.832,-0.381 2.694,-0.666 0.788,-0.258 1.555,-0.583 2.277,-0.991 2.198,-1.244 3.959,-3.408 4.065,-6.017 0.043,-1.106 -0.261,-2.213 -0.952,-3.088 -0.852,-1.081 -2.167,-1.667 -3.461,-2.034 -3.237,-0.916 -6.729,-0.58 -10.05,-0.567 -0.964,0.003 -1.927,0.008 -2.891,0.013 -0.461,10e-4 -0.925,0.005 -1.388,0.006 -0.475,10e-4 -1.004,-0.063 -1.472,0.017 -0.396,0.065 -0.669,0.539 -0.919,0.82 -0.339,0.378 -0.676,0.756 -1.014,1.136 -0.651,0.729 -1.301,1.457 -1.951,2.183 -2.6,2.906 -5.175,5.834 -7.761,8.754 -2.038,2.302 -4.059,4.622 -6.116,6.908 -1.245,1.383 -2.537,2.732 -3.72,4.168 -0.114,0.141 -0.283,0.302 -0.348,0.475 -0.002,0.008 -0.005,0.014 -0.005,0.021 -0.128,0 -0.142,0.039 -0.172,-0.104 -0.044,-0.206 -0.099,-0.409 -0.161,-0.609 -0.131,-0.433 -0.297,-0.856 -0.461,-1.278 -0.689,-1.771 -1.284,-3.582 -1.918,-5.372 -1.306,-3.688 -2.609,-7.376 -3.914,-11.064 -0.403,-1.139 -0.814,-2.273 -1.22,-3.409 -0.199,-0.55 -0.394,-1.1 -0.592,-1.648 -0.105,-0.295 -0.255,-1.17 -0.692,-1.17 0,0.519 0.147,0.983 0.302,1.478 0.206,0.666 0.319,1.331 0.383,2.025 0.161,1.712 -0.011,3.462 -0.685,5.058 -1.249,2.965 -3.991,5.239 -6.697,6.845 -2.849,1.694 -6.05,2.741 -9.314,3.264 -1.763,0.283 -3.526,0.375 -5.31,0.367 -1.905,-0.005 -3.81,-0.014 -5.715,-0.014 -1.938,0 -3.875,0 -5.812,0 -0.464,0 -0.93,0 -1.395,0 0,-0.436 0.199,-0.908 0.31,-1.33 0.239,-0.91 0.44,-1.832 0.658,-2.746 0.902,-3.783 1.798,-7.567 2.712,-11.347 0.101,-0.416 0.199,-0.83 0.299,-1.244 0.037,-0.153 -0.003,-0.227 0.172,-0.227 0.117,0 0.232,0 0.349,0 0.233,0 0.466,0 0.699,0 0.932,0 1.865,0 2.796,0 1.825,0 3.649,0 5.474,0 -0.913,3.854 -1.826,7.711 -2.739,11.565 1.842,0 3.7,0.094 5.516,-0.209 0.91,-0.15 1.803,-0.408 2.675,-0.705 0.708,-0.241 1.402,-0.497 2.055,-0.862 2.427,-1.358 4.414,-3.992 4.103,-6.893 -0.345,-3.225 -3.754,-4.439 -6.543,-4.74 -1.688,-0.183 -3.39,-0.138 -5.084,-0.136 -1.937,0.005 -3.874,0 -5.811,0 -0.739,0 -1.478,0 -2.217,0 -0.156,0 -0.311,0 -0.467,0 -0.126,0 -0.467,0.066 -0.467,-0.075 0,-0.347 0.164,-0.744 0.248,-1.082 0.348,-1.416 0.698,-2.83 1.046,-4.245"
   id="path51" />

		</g>
  </g>
</svg>
