<?xml version="1.0" encoding="UTF-8" standalone="no"?>
<!-- Generator: Adobe Illustrator 9.0, SVG Export Plug-In  -->

<svg
   width="256pt"
   height="256pt"
   viewBox="0 0 256 256"
   xml:space="preserve"
   version="1.1"
   id="svg34"
   sodipodi:docname="media-zip.svg"
   inkscape:version="1.4.2 (ebf0e940d0, 2025-05-08)"
   xmlns:inkscape="http://www.inkscape.org/namespaces/inkscape"
   xmlns:sodipodi="http://sodipodi.sourceforge.net/DTD/sodipodi-0.dtd"
   xmlns:xlink="http://www.w3.org/1999/xlink"
   xmlns="http://www.w3.org/2000/svg"
   xmlns:svg="http://www.w3.org/2000/svg"
   xmlns:rdf="http://www.w3.org/1999/02/22-rdf-syntax-ns#"
   xmlns:cc="http://creativecommons.org/ns#"><defs
   id="defs34"><linearGradient
     inkscape:collect="always"
     xlink:href="#aigrd7"
     id="linearGradient34"
     gradientUnits="userSpaceOnUse"
     x1="6.0229001"
     y1="-2.8633001"
     x2="130.0265"
     y2="122.1403" /><linearGradient
     inkscape:collect="always"
     xlink:href="#aigrd7"
     id="linearGradient35"
     gradientUnits="userSpaceOnUse"
     x1="6.0229001"
     y1="-2.8633001"
     x2="130.0265"
     y2="122.1403" /></defs><sodipodi:namedview
   id="namedview34"
   pagecolor="#ffffff"
   bordercolor="#000000"
   borderopacity="0.25"
   inkscape:showpageshadow="2"
   inkscape:pageopacity="0.0"
   inkscape:pagecheckerboard="0"
   inkscape:deskcolor="#d1d1d1"
   inkscape:document-units="pt"
   inkscape:zoom="2.1747216"
   inkscape:cx="98.633313"
   inkscape:cy="224.62645"
   inkscape:current-layer="svg34" />
	<g
   id="Layer_x0020_1"
   style="clip-rule:nonzero;fill:#ffffff;fill-rule:nonzero;stroke:#ffffff;stroke-width:0;stroke-miterlimit:4"
   transform="matrix(1.7639867,0,0,1.7639867,1,1)">
		<path
   style="fill:none;stroke:none"
   d="M 144,144 H 0 V 0 h 144 z"
   id="path1" />
		<path
   style="opacity:0.2;fill:#000000;stroke:none"
   d="m 67.407,138.917 -63.338,-16.09 9.71,-11.251 42.501,-23.58 11.126,50.922 z"
   id="path2" />
		<path
   style="stroke:none"
   d="m 133.559,89.837 c -0.337,-0.849 -28.51,-72.694 -28.51,-72.694 l -0.38,-0.038 -0.5,-1.375 -3.5,-1 -16.689,0.81 -45.642,21.589 -10.736,13.667 32.776,79.811 0.052,0.018 c 0.671,1.646 1.069,2.623 1.113,2.73 0.601,0.201 2.893,0.796 3.5,1 0.601,0.201 1.52,0.395 2.127,0.599 0.684,-0.416 5.38,-3.32 11.946,-7.383 l 0.489,1.191 42.438,-26.344 1.563,-1 c -0.141,-0.344 -0.295,-0.72 -0.456,-1.112 4.957,-3.069 8.205,-5.08 8.358,-5.172 0.272,-0.723 1.746,-4.49 2.05,-5.296 z"
   id="path3" />
		<path
   style="stroke:none"
   d="m 132.059,89.337 c -0.337,-0.849 -29.01,-73.194 -29.01,-73.194 l 2.62,-0.413 -3.5,-1 -16.689,0.81 -45.642,21.589 -10.736,13.667 32.776,79.811 0.052,0.018 c 0.671,1.646 1.069,2.623 1.113,2.73 0.601,0.201 2.893,0.796 3.5,1 0.683,-0.415 4.021,-3.676 10.617,-7.679 l 0.446,1.085 1.594,-1 c -0.134,-0.326 -0.281,-0.686 -0.435,-1.06 0,0 0.001,-10e-4 0.001,-10e-4 l 0.433,1.061 40.844,-25.344 1.563,-1 c -0.074,-0.182 -0.155,-0.377 -0.235,-0.573 5.159,-3.13 8.555,-5.191 8.711,-5.285 0.272,-0.723 1.672,-4.416 1.977,-5.223 z"
   id="path4" />
		<linearGradient
   id="aigrd1"
   gradientUnits="userSpaceOnUse"
   x1="31.507299"
   y1="37.737801"
   x2="108.5092"
   y2="90.1745">
			<stop
   offset="0"
   style="stop-color:#FFFFFF"
   id="stop4" />
			<stop
   offset="1"
   style="stop-color:#8C8CA4"
   id="stop5" />
		</linearGradient>
		<path
   style="fill:url(#aigrd1);stroke:none"
   d="M 106.064,15.751 88.98,16.54 43.338,38.129 32.602,51.796 c 0,0 33.521,81.534 33.941,82.559 0.601,0.201 1.83,0.858 2.438,1.063 2.613,-1.589 63.957,-39.07 64.635,-39.479 0.272,-0.723 1.139,-5.295 1.443,-6.102 -0.337,-0.849 -28.994,-74.086 -28.994,-74.086 z"
   id="path5" />
		<linearGradient
   id="aigrd2"
   gradientUnits="userSpaceOnUse"
   x1="2.9198999"
   y1="5.3188"
   x2="129.4231"
   y2="59.820202">
			<stop
   offset="0"
   style="stop-color:#FFFFFF"
   id="stop6" />
			<stop
   offset="1"
   style="stop-color:#000000"
   id="stop7" />
		</linearGradient>
		<path
   style="opacity:0.8;fill:url(#aigrd2);stroke:none"
   d="m 45.937,38.385 4.469,10.785 c 1.001,2.126 3.775,2.621 6.193,1.102 L 89.884,33.73 c 2.419,-1.524 3.717,-4.283 2.716,-6.416 l -3.71,-9.163 z"
   id="path7" />
		<linearGradient
   id="aigrd3"
   gradientUnits="userSpaceOnUse"
   x1="70.839798"
   y1="28.1343"
   x2="204.9017"
   y2="162.1962">
			<stop
   offset="0"
   style="stop-color:#FFFFFF"
   id="stop8" />
			<stop
   offset="1"
   style="stop-color:#8C8CA4"
   id="stop9" />
		</linearGradient>
		<path
   style="fill:url(#aigrd3);stroke:none"
   d="M 88.235,32.524 65.637,44.038 c -2.515,1.421 -4.59,1.089 -5.629,-1.004 l -4.048,-9.269 31.479,-14.764 3.13,7.504 c 0.91,1.938 -0.138,4.632 -2.334,6.02 z"
   id="path9" />
		<path
   style="opacity:0.2;stroke:none"
   d="M 34.425,52.047 68.606,135.459 80.898,128.251 44.231,39.417 34.425,52.046 Z"
   id="path10" />
		<path
   style="opacity:0.15;fill:#000000;stroke:none"
   d="m 90.703,17.799 14.175,34.352 20.229,49.267 8.51,-5.479 1.443,-6.102 -28.89,-72.732 -15.466,0.694 z"
   id="path11" />
		<linearGradient
   id="aigrd4"
   gradientUnits="userSpaceOnUse"
   x1="60.003399"
   y1="71.259804"
   x2="116.4356"
   y2="103.0753">
			<stop
   offset="0.0106"
   style="stop-color:#FFFFFF"
   id="stop11" />
			<stop
   offset="0.5213"
   style="stop-color:#FFFF62"
   id="stop12" />
			<stop
   offset="1"
   style="stop-color:#FFAC00"
   id="stop13" />
		</linearGradient>
		<path
   style="fill:url(#aigrd4);stroke:none"
   d="m 100.42,54.956 c 0,0 -36.648,20.022 -36.648,20.022 -1.341,0.729 -1.92,2.345 -1.255,3.728 l 18.163,44.093 c 0.236,0.847 0.902,1.475 1.736,1.753 0.828,0.279 1.739,0.181 2.493,-0.27 l 36.276,-21.707 c 1.283,-0.766 1.487,-2.116 0.919,-3.5 L 104.63,56.453 c -0.323,-0.788 -0.968,-1.404 -1.77,-1.689 -0.803,-0.286 -1.693,-0.216 -2.44,0.192 z"
   id="path13" />
		<linearGradient
   id="aigrd5"
   gradientUnits="userSpaceOnUse"
   x1="76.3545"
   y1="79.1138"
   x2="98.164902"
   y2="95.124001">
			<stop
   offset="0"
   style="stop-color:#FFFF62"
   id="stop14" />
			<stop
   offset="1"
   style="stop-color:#FFAC00"
   id="stop15" />
		</linearGradient>
		<path
   style="opacity:0.51;fill:url(#aigrd5);stroke:none"
   d="m 91.357,85.87 c -14.532,8.996 -14.214,28.426 -14.214,28.426 l 3.546,8.538 c 0.33,0.816 0.892,1.44 1.725,1.719 0.828,0.279 1.739,0.181 2.493,-0.27 l 36.032,-21.47 c 0.42,-0.251 1.823,-2.28 1.236,-3.711 L 105.99,59.878 c 0,0 -0.101,16.997 -14.633,25.992 z"
   id="path15" />
		<linearGradient
   id="aigrd6"
   gradientUnits="userSpaceOnUse"
   x1="96.043503"
   y1="101.9551"
   x2="99.734299"
   y2="108.2652">
			<stop
   offset="0"
   style="stop-color:#FFFFFF"
   id="stop16" />
			<stop
   offset="1"
   style="stop-color:#8C8CA4"
   id="stop17" />
		</linearGradient>
		<path
   style="fill:url(#aigrd6);stroke:none"
   d="m 123.543,102.417 -2.813,-6.875 -40.958,25.049 2.927,7.17 z"
   id="path17" />
		<path
   style="opacity:0.3;fill:#000000;stroke:none"
   d="m 123.543,102.417 -2.813,-6.875 -40.958,25.049 2.927,7.17 z"
   id="path18" />
		<linearGradient
   id="aigrd7"
   gradientUnits="userSpaceOnUse"
   x1="6.0229001"
   y1="-2.8633001"
   x2="130.0265"
   y2="122.1403">
			<stop
   offset="0"
   style="stop-color:#FFFFFF"
   id="stop18" />
			<stop
   offset="1"
   style="stop-color:#000000"
   id="stop19" />
		</linearGradient>
		<path
   style="fill:url(#linearGradient34);stroke:none"
   d="m 101.767,10.884 3.5,1 c 1.233,0.353 2.222,1.274 2.661,2.479 0,0 0.027,0.076 0.031,0.086 0.334,0.36 0.628,0.761 0.814,1.234 l 28.503,72.677 c 0.189,0.481 0.286,0.986 0.286,1.491 0,0.473 -0.085,0.945 -0.26,1.398 l -2.05,5.296 c -0.314,0.812 -0.927,1.55 -1.667,2.008 0,0 -3.695,2.287 -6.089,3.768 -0.23,0.988 -0.825,1.885 -1.732,2.466 l -1.61,1.03 c 0,0 -40.819,25.329 -40.835,25.338 -0.018,0.011 -1.585,0.995 -1.585,0.995 -0.941,0.591 -2.08,0.735 -3.147,0.452 -3.207,1.982 -9.335,5.77 -9.335,5.77 -0.948,0.586 -2.279,0.671 -3.353,0.374 l -0.811,-0.224 -2.882,-0.818 -1.927,-0.554 c -1.178,-0.338 -1.97,-1.139 -2.433,-2.273 0,0 -1.118,-2.741 -1.166,-2.749 L 23.902,52.316 c -0.547,-1.333 -0.335,-2.857 0.555,-3.99 L 35.193,34.659 c 0.383,-0.488 0.875,-0.88 1.435,-1.145 L 82.27,11.924 c 0.476,-0.225 0.991,-0.354 1.517,-0.379 l 16.688,-0.81 c 0.436,-0.021 0.873,0.029 1.292,0.149 z m 31.792,78.953 c -0.337,-0.849 -28.51,-72.694 -28.51,-72.694 l -0.38,-0.038 -0.5,-1.375 -3.5,-1 -16.689,0.81 -45.642,21.589 -10.736,13.667 32.776,79.811 0.052,0.018 c 0.671,1.646 1.069,2.623 1.113,2.73 0.601,0.201 2.893,0.796 3.5,1 0.601,0.201 1.52,0.395 2.127,0.599 0.684,-0.416 5.38,-3.32 11.946,-7.383 l 0.489,1.191 1.594,-1 c -0.148,-0.36 0,0 0,0 l 40.844,-25.344 1.563,-1 c -0.141,-0.344 -0.295,-0.72 -0.456,-1.112 4.957,-3.069 8.205,-5.08 8.358,-5.172 0.272,-0.723 1.746,-4.49 2.05,-5.296 z"
   id="path19" />
		<linearGradient
   id="aigrd8"
   gradientUnits="userSpaceOnUse"
   x1="59.826698"
   y1="74.420898"
   x2="80.178101"
   y2="87.988701">
			<stop
   offset="0"
   style="stop-color:#FFFFFF"
   id="stop20" />
			<stop
   offset="1"
   style="stop-color:#4B4B73"
   id="stop21" />
		</linearGradient>
		<path
   style="fill:url(#aigrd8);stroke:none"
   d="m 67.019,89.532 -3.341,-7.957 12.385,-6.647 3.093,8.042 z"
   id="path21" />
		<radialGradient
   id="aigrd9"
   cx="68.403801"
   cy="74.890099"
   r="12.1792"
   fx="68.403801"
   fy="74.890099"
   gradientUnits="userSpaceOnUse">
			<stop
   offset="0"
   style="stop-color:#FFFF00"
   id="stop22" />
			<stop
   offset="0.0333"
   style="stop-color:#FFF300"
   id="stop23" />
			<stop
   offset="0.2447"
   style="stop-color:#FFAA00"
   id="stop24" />
			<stop
   offset="0.4437"
   style="stop-color:#FF6E00"
   id="stop25" />
			<stop
   offset="0.6242"
   style="stop-color:#FF3E00"
   id="stop26" />
			<stop
   offset="0.7828"
   style="stop-color:#FF1C00"
   id="stop27" />
			<stop
   offset="0.9135"
   style="stop-color:#FF0800"
   id="stop28" />
			<stop
   offset="1"
   style="stop-color:#FF0000"
   id="stop29" />
			<stop
   offset="1"
   style="stop-color:#4A1486"
   id="stop30" />
		</radialGradient>
		<path
   style="opacity:0.7;fill:url(#aigrd9);stroke:none"
   d="m 77.907,82.508 c -0.435,-1.131 -1.829,-4.756 -2.371,-6.164 -0.535,0.287 -1.807,0.968 -3.298,1.767 l 2.486,6.112 c 1.499,-0.808 2.747,-1.48 3.182,-1.715 z"
   id="path30" />
		<path
   style="stroke:none"
   d="m 64.746,82.125 c 0.465,1.145 1.931,4.754 2.492,6.134 0.906,-0.488 3.963,-2.136 6.601,-3.558 l -2.487,-6.114 c -2.733,1.464 -5.848,3.132 -6.605,3.538 z"
   id="path31" />
		<path
   style="fill:none;stroke-linecap:round;stroke-linejoin:round"
   d="M 75.043,85.105"
   id="path32" />
		<path
   style="opacity:0.29;fill:#000000;stroke:none"
   d="m 123.755,102.825 1.351,-1.407 C 118.967,86.447 90.703,17.799 90.703,17.799 l 15.466,-0.694 -0.5,-1.375 -16.689,0.81 -45.642,21.589 -10.736,13.667 32.776,79.811 1.805,0.608 C 61.611,118.628 34.425,52.047 34.425,52.047 l 9.925,-12.757 36.756,89.472 1.594,-1 C 67.319,90.253 40.454,25.063 45.937,38.385 l 42.953,-20.234 34.865,84.673 z"
   id="path33" />
		<path
   style="fill:url(#linearGradient35);stroke:none"
   d="m 101.767,10.884 3.5,1 c 1.233,0.353 2.222,1.274 2.661,2.479 0,0 0.027,0.076 0.031,0.086 0.334,0.36 0.628,0.761 0.814,1.234 l 28.503,72.677 c 0.189,0.481 0.286,0.986 0.286,1.491 0,0.473 -0.085,0.945 -0.26,1.398 l -2.05,5.296 c -0.314,0.812 -0.927,1.55 -1.667,2.008 0,0 -3.695,2.287 -6.089,3.768 -0.23,0.988 -0.825,1.885 -1.732,2.466 l -1.61,1.03 c 0,0 -40.819,25.329 -40.835,25.338 -0.018,0.011 -1.585,0.995 -1.585,0.995 -0.941,0.591 -2.08,0.735 -3.147,0.452 -3.207,1.982 -9.335,5.77 -9.335,5.77 -0.948,0.586 -2.279,0.671 -3.353,0.374 l -0.811,-0.224 -2.882,-0.818 -1.927,-0.554 c -1.178,-0.338 -1.97,-1.139 -2.433,-2.273 0,0 -1.118,-2.741 -1.166,-2.749 L 23.902,52.316 c -0.547,-1.333 -0.335,-2.857 0.555,-3.99 L 35.193,34.659 c 0.383,-0.488 0.875,-0.88 1.435,-1.145 L 82.27,11.924 c 0.476,-0.225 0.991,-0.354 1.517,-0.379 l 16.688,-0.81 c 0.436,-0.021 0.873,0.029 1.292,0.149 z m 31.792,78.953 c -0.337,-0.849 -28.51,-72.694 -28.51,-72.694 l -0.38,-0.038 -0.5,-1.375 -3.5,-1 -16.689,0.81 -45.642,21.589 -10.736,13.667 32.776,79.811 0.052,0.018 c 0.671,1.646 1.069,2.623 1.113,2.73 0.601,0.201 2.893,0.796 3.5,1 0.601,0.201 1.52,0.395 2.127,0.599 0.684,-0.416 5.38,-3.32 11.946,-7.383 l 0.489,1.191 42.438,-26.344 1.563,-1 c -0.141,-0.344 -0.295,-0.72 -0.456,-1.112 4.957,-3.069 8.205,-5.08 8.358,-5.172 0.272,-0.723 1.746,-4.49 2.05,-5.296 z"
   id="path34" />
	</g>
<metadata
   id="metadata35"><rdf:RDF><cc:License
       rdf:about="http://creativecommons.org/publicdomain/zero/1.0/"><cc:permits
         rdf:resource="http://creativecommons.org/ns#Reproduction" /><cc:permits
         rdf:resource="http://creativecommons.org/ns#Distribution" /><cc:permits
         rdf:resource="http://creativecommons.org/ns#DerivativeWorks" /></cc:License><cc:Work
       rdf:about=""><cc:license
         rdf:resource="http://creativecommons.org/publicdomain/zero/1.0/" /></cc:Work></rdf:RDF></metadata></svg>
