<?xml version="1.0" encoding="UTF-8" standalone="no"?>
<svg
   width="256"
   height="256"
   version="1.1"
   id="svg18"
   sodipodi:docname="media-flash-01.svg"
   viewBox="0 0 256 256"
   inkscape:version="1.4.2 (ebf0e940d0, 2025-05-08)"
   xmlns:inkscape="http://www.inkscape.org/namespaces/inkscape"
   xmlns:sodipodi="http://sodipodi.sourceforge.net/DTD/sodipodi-0.dtd"
   xmlns:xlink="http://www.w3.org/1999/xlink"
   xmlns="http://www.w3.org/2000/svg"
   xmlns:svg="http://www.w3.org/2000/svg"
   xmlns:rdf="http://www.w3.org/1999/02/22-rdf-syntax-ns#"
   xmlns:cc="http://creativecommons.org/ns#"
   xmlns:dc="http://purl.org/dc/elements/1.1/">
  <sodipodi:namedview
     id="namedview18"
     pagecolor="#ffffff"
     bordercolor="#000000"
     borderopacity="0.25"
     inkscape:showpageshadow="2"
     inkscape:pageopacity="0.0"
     inkscape:pagecheckerboard="0"
     inkscape:deskcolor="#d1d1d1"
     inkscape:zoom="3.064931"
     inkscape:cx="174.39218"
     inkscape:cy="180.26507"
     inkscape:current-layer="svg18" />
  <defs
     id="defs10">
    <linearGradient
       id="d">
      <stop
         offset="0"
         stop-color="#fff"
         id="stop1" />
      <stop
         offset="1"
         stop-color="#fff"
         stop-opacity="0"
         id="stop2" />
    </linearGradient>
    <linearGradient
       id="b">
      <stop
         offset="0"
         stop-color="#edd400"
         id="stop3" />
      <stop
         offset=".5"
         stop-color="#c3af07"
         id="stop4" />
      <stop
         offset="1"
         stop-color="#ffeb3e"
         id="stop5" />
    </linearGradient>
    <linearGradient
       id="c">
      <stop
         offset="0"
         stop-color="#555753"
         id="stop6" />
      <stop
         offset="1"
         stop-color="#3e3f3c"
         id="stop7" />
    </linearGradient>
    <linearGradient
       id="a">
      <stop
         offset="0"
         stop-color="#eeeeec"
         id="stop8" />
      <stop
         offset=".892"
         stop-color="#dededa"
         id="stop9" />
      <stop
         offset="1"
         stop-color="#838375"
         id="stop10" />
    </linearGradient>
    <linearGradient
       xlink:href="#a"
       id="h"
       x1="22.797001"
       x2="22.797001"
       y1="39.68"
       y2="46.636002"
       gradientTransform="matrix(1,0,0,0.934,0,1.558)"
       gradientUnits="userSpaceOnUse" />
    <linearGradient
       xlink:href="#b"
       id="g"
       x1="29.375"
       x2="22.101999"
       y1="21.740999"
       y2="7.6789999"
       gradientUnits="userSpaceOnUse" />
    <linearGradient
       xlink:href="#c"
       id="f"
       x1="21.617001"
       x2="26.444"
       y1="4.6079998"
       y2="47.007"
       gradientTransform="matrix(1,0,0,0.98252,0,-0.07)"
       gradientUnits="userSpaceOnUse" />
    <linearGradient
       xlink:href="#d"
       id="i"
       x1="16.846001"
       x2="30.507999"
       y1="8.6780005"
       y2="78.504997"
       gradientUnits="userSpaceOnUse" />
    <filter
       id="e"
       width="1.1379684"
       height="2.2417754"
       x="-0.068984189"
       y="-0.62088771">
      <feGaussianBlur
         stdDeviation="1.189"
         id="feGaussianBlur10" />
    </filter>
  </defs>
  <g
     color="#000000"
     id="g18"
     transform="matrix(5.2501874,0,0,5.2501874,0.64705508,-4.2501844)">
    <rect
       width="41.366001"
       height="4.5960002"
       x="3.359"
       y="41.990002"
       filter="url(#e)"
       opacity="0.434"
       rx="2.3789999"
       ry="2.2980001"
       style="marker:none"
       transform="matrix(0.96581,0,0,1,0.822,0)"
       id="rect10" />
    <path
       fill="url(#f)"
       fill-rule="evenodd"
       stroke="#2e3436"
       stroke-dashoffset="0.8"
       d="M 5.4999978,3.2368595 V 43.618858 c 0.069706,1.050208 0.9987371,2.102352 2.3834236,1.997388 H 39.735278 c 0.893566,-0.04311 1.777774,-0.786202 1.764706,-2.257918 V 6.4283398 c 0,-0.716537 -0.231247,-1.1979035 -0.756256,-1.7137337 L 37.994733,1.8791213 C 37.707471,1.6077368 37.530774,1.4999993 36.735279,1.4999993 H 6.7352914 c -0.9375,0.061407 -1.2977936,0.9999729 -1.2352936,1.7368602 z"
       style="fill:url(#f);marker:none"
       id="path10" />
    <rect
       width="27.976999"
       height="17"
       x="9.5"
       y="5.6160002"
       fill="#edd400"
       fill-rule="evenodd"
       stroke="#2e3436"
       stroke-dashoffset="0.8"
       stroke-width="3"
       rx="1.897"
       ry="1.897"
       style="marker:none"
       id="rect11" />
    <rect
       width="27.976999"
       height="17"
       x="9.5"
       y="5.6160002"
       fill="url(#g)"
       fill-rule="evenodd"
       stroke="#c4a000"
       stroke-dashoffset="0.8"
       rx="1.897"
       ry="1.897"
       style="fill:url(#g);marker:none"
       id="rect12" />
    <rect
       width="26"
       height="15"
       x="10.578"
       y="6.6160002"
       fill="none"
       stroke="#ffffff"
       stroke-dashoffset="0.8"
       opacity="0.449"
       rx="1.146"
       ry="1.146"
       style="marker:none"
       transform="matrix(1,0,-0.00553269,0.99999,0,0)"
       id="rect13" />
    <path
       fill="#ffffff"
       fill-rule="evenodd"
       d="m 12,6.116117 v 6.000003 c 7.204912,-2.8602727 15.058025,3.977999 23,2 V 6.1880393 h 1 V 22.11612 h -1 v -6 c -8.662984,1.940742 -15.554304,-5.045644 -23,-2 v 8 H 11 V 6.116117 Z"
       opacity="0.449"
       style="marker:none"
       id="path13" />
    <path
       fill="#ffffff"
       fill-rule="evenodd"
       d="m 13,6.116117 v 4.734838 l 1,-0.239222 V 6.116117 Z m 2,4.495615 V 6.116117 h 1 v 4.407227 z m 2,-0.08839 V 6.116117 h 1 v 4.558061 z m 2,0.371805 v -4.77903 h 1 v 5.000003 z m 2,0.379496 V 6.116117 h 1 v 5.335305 z m 2,0.53033 V 6.116117 h 1 v 5.821441 z m 2,0.53033 V 6.116117 h 1 v 6.395965 z m 2,0.397748 V 6.116117 h 1 v 6.793713 z m 2,0.486136 v -7.10307 h 1 v 7.19146 z m 2,0.176776 V 6.116117 h 1 v 7.279849 z m 2,0 V 6.116117 h 1 v 7.147266 z m -20,8.674174 v -7.43068 l 1,-0.114331 v 7.545011 z m 2,-7.589204 v 7.589204 h 1 V 14.34835 Z m 2,-0.132583 v 7.721787 h 1 v -7.607456 z m 2,0.42369 v 7.298097 h 1 v -7.077126 z m 2,0.460193 v 6.837904 h 1 V 15.4974 Z m 2,0.618719 v 6.219185 h 1 v -5.865632 z m 2,0.53033 v 5.688855 h 1 v -5.42369 z m 2,0.441942 v 5.246913 h 1 V 17 Z m 2,0.353553 v 4.89336 h 1 v -4.849166 z m 2,0.220971 v 4.672389 h 1 v -4.804972 z m 2,-0.04419 v 4.716583 h 1 v -4.89336 z"
       opacity="0.449"
       style="marker:none"
       id="path14" />
    <rect
       width="31"
       height="11"
       x="8"
       y="35.116001"
       fill="#2e3436"
       fill-rule="evenodd"
       rx="0.81699997"
       ry="0.81699997"
       style="marker:none"
       id="rect14" />
    <rect
       width="29"
       height="9"
       x="9"
       y="36.116001"
       fill="url(#h)"
       fill-rule="evenodd"
       rx="0.13"
       ry="0.13"
       style="fill:url(#h);marker:none"
       id="rect15" />
    <rect
       width="29"
       height="3"
       x="9"
       y="36.116001"
       fill="#8f5902"
       fill-rule="evenodd"
       rx="0.13"
       ry="0.13"
       style="marker:none"
       id="rect16" />
    <rect
       width="10.036"
       height="2"
       x="11"
       y="37.116001"
       fill="#e9b96e"
       fill-rule="evenodd"
       rx="0.13"
       ry="0.13"
       style="marker:none"
       id="rect17" />
    <rect
       width="4.0359998"
       height="2"
       x="22.964001"
       y="37.116001"
       fill="#e9b96e"
       fill-rule="evenodd"
       rx="0.13"
       ry="0.13"
       style="marker:none"
       id="rect18" />
    <path
       fill="none"
       stroke="url(#i)"
       stroke-dashoffset="0.8"
       d="M 6.8125,2.5 C 6.6714126,2.5092414 6.665484,2.505736 6.59375,2.625 6.522016,2.744264 6.486054,2.9918242 6.5,3.15625 A 1.0004427,1.0004427 0 0 1 6.5,3.25 v 40.3125 c 0.03409,0.513601 0.4647984,1.126759 1.3125,1.0625 a 1.0003081,1.0003081 0 0 1 0.0625,0 H 39.6875 C 40.042231,44.60789 40.509542,44.418409 40.5,43.34375 V 6.4375 c -10e-7,-0.5071289 -0.03482,-0.6043596 -0.4375,-1 -0.01064,-0.010185 -0.02107,-0.020605 -0.03125,-0.03125 0,0 -2.65868,-2.7503817 -2.71875,-2.8125 C 37.252809,2.537358 37.283219,2.5655737 37.28125,2.5625 37.279281,2.5594263 37.249931,2.5312266 37.25,2.53125 37.250138,2.5312967 37.104314,2.5 36.75,2.5 Z"
       opacity="0.18"
       style="stroke:url(#i);marker:none"
       id="path18" />
  </g>
  <metadata
     id="metadata18">
    <rdf:RDF>
      <cc:Work
         rdf:about="">
        <dc:source>https://commons.wikimedia.org/wiki/File:Media-flash-2.svg</dc:source>
        <cc:license
           rdf:resource="http://creativecommons.org/publicdomain/zero/1.0/" />
      </cc:Work>
      <cc:License
         rdf:about="http://creativecommons.org/publicdomain/zero/1.0/">
        <cc:permits
           rdf:resource="http://creativecommons.org/ns#Reproduction" />
        <cc:permits
           rdf:resource="http://creativecommons.org/ns#Distribution" />
        <cc:permits
           rdf:resource="http://creativecommons.org/ns#DerivativeWorks" />
      </cc:License>
    </rdf:RDF>
  </metadata>
</svg>
