<?xml version="1.0" encoding="UTF-8" standalone="no"?>
<svg
   width="256"
   height="256"
   version="1.1"
   id="svg30"
   sodipodi:docname="multimedia-player-ipod-mini.svg"
   viewBox="0 0 256 256"
   inkscape:version="1.4.2 (ebf0e940d0, 2025-05-08)"
   xmlns:inkscape="http://www.inkscape.org/namespaces/inkscape"
   xmlns:sodipodi="http://sodipodi.sourceforge.net/DTD/sodipodi-0.dtd"
   xmlns:xlink="http://www.w3.org/1999/xlink"
   xmlns="http://www.w3.org/2000/svg"
   xmlns:svg="http://www.w3.org/2000/svg"
   xmlns:rdf="http://www.w3.org/1999/02/22-rdf-syntax-ns#"
   xmlns:cc="http://creativecommons.org/ns#"
   xmlns:dc="http://purl.org/dc/elements/1.1/">
  <sodipodi:namedview
     id="namedview30"
     pagecolor="#ffffff"
     bordercolor="#000000"
     borderopacity="0.25"
     inkscape:showpageshadow="2"
     inkscape:pageopacity="0.0"
     inkscape:pagecheckerboard="0"
     inkscape:deskcolor="#d1d1d1"
     inkscape:zoom="1.1499954"
     inkscape:cx="277.8272"
     inkscape:cy="461.3062"
     inkscape:current-layer="svg30" />
  <defs
     id="defs1">
    <path
       id="h"
       d="m 29.454122,29.18813 -0.26639,0.149809 -0.26639,0.149809 -2.31e-4,-0.300244 -2.32e-4,-0.300244 0.266622,0.150435 z" />
    <path
       id="i"
       d="m 28.954122,29.18813 -0.26639,0.149809 -0.26639,0.149809 -2.31e-4,-0.300244 -2.32e-4,-0.300244 0.266622,0.150435 z" />
  </defs>
  <defs
     id="defs8">
    <linearGradient
       id="b">
      <stop
         offset="0"
         stop-color="#ddd"
         id="stop1" />
      <stop
         offset="1"
         stop-color="#ddd"
         stop-opacity="0"
         id="stop2" />
    </linearGradient>
    <linearGradient
       id="d">
      <stop
         offset="0"
         stop-color="#fff"
         id="stop3" />
      <stop
         offset="1"
         stop-color="#fff"
         stop-opacity="0"
         id="stop4" />
    </linearGradient>
    <linearGradient
       id="c">
      <stop
         offset="0"
         id="stop5" />
      <stop
         offset="1"
         stop-opacity="0"
         id="stop6" />
    </linearGradient>
    <linearGradient
       id="a">
      <stop
         offset="0"
         stop-color="#f9f9f9"
         id="stop7" />
      <stop
         offset="1"
         stop-color="#f2f2f2"
         id="stop8" />
    </linearGradient>
    <linearGradient
       xlink:href="#a"
       id="g"
       x1="23.505463"
       x2="28.011971"
       y1="4.9350243"
       y2="42.185024"
       gradientTransform="matrix(1.38733,0,0,1.02465,-8.609854,-1.093458)"
       gradientUnits="userSpaceOnUse" />
    <linearGradient
       xlink:href="#b"
       id="j"
       x1="-210.7164"
       x2="-215.08304"
       y1="16.861975"
       y2="8.6301003"
       gradientUnits="userSpaceOnUse" />
    <radialGradient
       xlink:href="#c"
       id="e"
       cx="30.428225"
       cy="45.153286"
       r="13.474453"
       fx="30.428225"
       fy="45.153286"
       gradientTransform="matrix(1,0,0,0.20188,0,36.03783)"
       gradientUnits="userSpaceOnUse" />
    <radialGradient
       xlink:href="#d"
       id="f"
       cx="10.268794"
       cy="37.354755"
       r="2.1875"
       fx="10.268794"
       fy="37.354755"
       gradientTransform="matrix(3.49507,0.04547,-0.013,0.99991,-25.42067,-0.463789)"
       gradientUnits="userSpaceOnUse" />
  </defs>
  <g
     id="g30"
     transform="matrix(5.5973305,0,0,5.5973305,-14.964193,-10.194662)">
    <path
       fill="url(#e)"
       d="m 43.902678,45.153286 a 13.474453,2.7201946 0 1 1 -26.948906,0 13.474453,2.7201946 0 1 1 26.948906,0 z"
       opacity="0.45"
       transform="matrix(0.96479,0,0,1.82752,-5.356812,-40.47289)"
       id="path8"
       style="fill:url(#e)" />
    <g
       transform="translate(-55.99997,-56.00447)"
       id="g12">
      <rect
         width="13.589136"
         height="3.1126587"
         x="-0.94968754"
         y="112.90335"
         fill="#eeeeec"
         stroke="#c2c2c2"
         stroke-linecap="round"
         stroke-linejoin="round"
         stroke-width="0.5"
         rx="1.5137454"
         ry="1.3993458"
         transform="matrix(0.85333,-0.52137,0.54466,0.83866,0,0)"
         id="rect8" />
      <rect
         width="9.5848627"
         height="2.5390387"
         x="-5.2611275"
         y="113.35451"
         fill="#ffffff"
         stroke="#c2c2c2"
         stroke-linecap="round"
         stroke-linejoin="round"
         stroke-width="0.553359"
         rx="1.1134398"
         ry="1.2146336"
         transform="matrix(0.8443,-0.53587,0.57734,0.8165,0,0)"
         id="rect9" />
      <path
         fill="#c2c2c2"
         d="m 73.000003,92.500001 a 5.5000008,5.5000008 0 1 1 -11.000001,0 5.5000008,5.5000008 0 1 1 11.000001,0 z"
         id="path9" />
      <path
         fill="#ffffff"
         d="m 72.149766,92.526575 a 4.7294696,4.7294696 0 1 1 -9.458939,0 4.7294696,4.7294696 0 1 1 9.458939,0 z"
         id="path10" />
      <path
         fill="#8d8d8d"
         d="m 71.964874,92.13772 a 3.9993295,3.8623197 0 1 1 -7.998659,0 3.9993295,3.8623197 0 1 1 7.998659,0 z"
         id="path11" />
      <path
         fill="url(#f)"
         d="m 13.000001,38.25 a 2.1875,2.1875 0 1 1 -4.375,0 2.1875,2.1875 0 1 1 4.375,0 z"
         opacity="0.467033"
         transform="matrix(1.76293,0,0,1.70254,49.081842,27.076903)"
         id="path12"
         style="fill:url(#f)" />
    </g>
    <rect
       width="24.990034"
       height="41.991062"
       x="11.504977"
       y="2.5000002"
       fill="url(#g)"
       stroke="#c2c2c2"
       stroke-linecap="round"
       stroke-linejoin="round"
       stroke-width="1"
       rx="1.6250007"
       ry="1.6250018"
       id="rect12"
       style="fill:url(#g)" />
    <rect
       width="22.978622"
       height="39.984226"
       x="12.510715"
       y="3.5034068"
       fill="none"
       stroke="#ffffff"
       stroke-linecap="round"
       stroke-linejoin="round"
       stroke-width="1"
       rx="0.62500024"
       ry="0.62500048"
       id="rect13" />
    <rect
       width="17.002926"
       height="13.999763"
       x="15.499224"
       y="5.4959641"
       fill="#eaeef9"
       stroke="#69818f"
       stroke-linecap="round"
       stroke-linejoin="round"
       stroke-width="1"
       rx="0.52014637"
       ry="0.56434143"
       id="rect14" />
    <path
       fill="#3e4b8f"
       d="m 16.999987,7.995533 h 14 v 2 h -14 z m 0,4 h 5 v 1 h -5 z m 0,2 h 3 v 1 h -3 z m 12.98942,-2 h 1.010582 v 1 h -1.010582 z m 0.02209,2 h 0.988487 v 1 h -0.988487 z m -1.011512,-8 h 2.000002 v 1 h -2.000002 z m -9,0 h 7 v 1 h -7 z m -3.000002,10 h 6 v 1 h -6 z m 13.033609,0 h 0.96639 v 1 h -0.96639 z"
       opacity="0.835165"
       id="path14" />
    <path
       fill="#ffffff"
       d="m 12.000155,4.2010452 c -0.01239,-0.539199 0.666974,-1.182341 1.306177,-1.199504 0.733078,-0.020966 21.570615,0.019678 21.570615,0.019678 0,0 1.27905,0.198411 1.107145,1.585516 -5.392124,3.110926 -15.32535,14.0624058 -13.501458,17.7075878 5.783263,11.558339 -10.470876,20.059521 -10.470876,20.059521 0,0 0.01506,-36.3461688 -0.0116,-38.1727988 z"
       opacity="0.379121"
       id="path15" />
    <path
       fill="#d7d7d7"
       d="m 32.999979,31.995531 a 8.999996,8.999996 0 1 1 -17.999992,0 8.999996,8.999996 0 1 1 17.999992,0 z"
       id="path16" />
    <text
       xml:space="preserve"
       x="22.40181"
       y="24.398485"
       fill="#ffffff"
       stroke-width="1pt"
       font-family="'Bitstream Vera Sans'"
       font-size="1.30158px"
       font-weight="700"
       style="line-height:125%;text-align:start"
       transform="scale(0.97685,1.0237)"
       id="text16"><tspan
         x="22.40181"
         y="24.398485"
         id="tspan16">MENU</tspan></text>
    <g
       fill="#ffffff"
       transform="matrix(-1.75519,0,0,1.56,67.88399,-14.01448)"
       id="g17">
      <use
         xlink:href="#h"
         id="use16" />
      <use
         xlink:href="#i"
         id="use17" />
      <rect
         width="0.10496103"
         height="0.60214609"
         x="29.455418"
         y="28.891544"
         ry="0"
         id="rect17" />
    </g>
    <g
       fill="#ffffff"
       transform="matrix(1.75516,0,0,1.6693,-19.88318,-17.23855)"
       id="g19">
      <use
         xlink:href="#h"
         id="use18" />
      <use
         xlink:href="#i"
         id="use19" />
      <rect
         width="0.10496103"
         height="0.60214609"
         x="29.455418"
         y="28.891544"
         ry="0"
         id="rect19" />
    </g>
    <g
       fill="#ffffff"
       transform="matrix(1.38984,0,0,1.12466,-9.519134,0.06217218)"
       id="g21">
      <path
         d="m 24.179572,35.059061 -0.390585,0.219652 -0.390585,0.219653 -3.39e-4,-0.440223 -3.39e-4,-0.440222 0.390924,0.22057 z"
         id="path19" />
      <rect
         width="0.15389533"
         height="0.88287503"
         x="24.306477"
         y="34.624207"
         ry="0"
         id="rect20" />
      <rect
         width="0.15389533"
         height="0.88287503"
         x="24.682838"
         y="34.620716"
         ry="0"
         id="rect21" />
    </g>
    <path
       fill="#ffffff"
       d="m 26.999996,31.996904 a 3.000002,2.998629 0 1 1 -6.000004,0 3.000002,2.998629 0 1 1 6.000004,0 z"
       id="path21" />
    <path
       fill="url(#j)"
       stroke="#c2c2c2"
       stroke-linecap="round"
       stroke-linejoin="round"
       stroke-width="0.262736"
       d="m -211.24815,9.3521948 a 3.2040777,3.2040777 0 1 1 -6.40815,0 3.2040777,3.2040777 0 1 1 6.40815,0 z"
       opacity="0.835165"
       transform="matrix(0.90095,0,0,0.89937,217.2159,23.58458)"
       id="path22"
       style="fill:url(#j)" />
    <path
       fill="none"
       stroke="#c2c2c2"
       stroke-linejoin="round"
       stroke-width="1.9125"
       d="M 42.8827,40.935684 C 49.58995,39.380011 37.027598,38.620993 36.340389,38.70254"
       id="path23" />
    <path
       fill="none"
       stroke="#ffffff"
       stroke-width="0.784836"
       d="M 42.875428,40.895073 C 49.58268,39.3394 37.020327,38.580383 36.333108,38.661929"
       id="path24" />
    <g
       fill="#c2c2c2"
       id="g26">
      <path
         d="m 37.982025,40.486551 a 5.4910143,5.4910143 0 1 1 -10.982028,0 5.4910143,5.4910143 0 1 1 10.982028,0 z"
         id="path25" />
      <path
         d="m 38.358843,40.737755 a 5.257734,5.257734 0 1 1 -10.515468,0 5.257734,5.257734 0 1 1 10.515468,0 z"
         id="path26" />
    </g>
    <path
       fill="#eeeeec"
       d="m 37.2373,40.380329 a 4.707274,4.707274 0 1 1 -9.414548,0 4.707274,4.707274 0 1 1 9.414548,0 z"
       id="path27" />
    <path
       fill="#ffffff"
       d="m 37.56031,40.59567 a 4.507297,4.507297 0 1 1 -9.014594,0 4.507297,4.507297 0 1 1 9.014594,0 z"
       id="path28" />
    <g
       stroke="#c2c2c2"
       stroke-linecap="round"
       stroke-linejoin="round"
       transform="matrix(1.0078,0,0,1.0047,1.1942,-1.68837)"
       id="g29">
      <rect
         width="13.480978"
         height="3.0878816"
         x="20.703314"
         y="47.136684"
         fill="#eeeeec"
         stroke-width="0.496899"
         rx="1.6140188"
         ry="1.5439408"
         transform="matrix(0.9859,-0.16735,0.19442,0.98092,0,0)"
         id="rect28" />
      <rect
         width="9.4694977"
         height="3.0802486"
         x="21.659946"
         y="47.28104"
         fill="#ffffff"
         stroke-width="0.549585"
         rx="1.3586608"
         ry="1.4996823"
         transform="matrix(0.98463451,-0.17462782,0.17739463,0.98414381,0,0)"
         id="rect29" />
    </g>
    <path
       fill="#cacaca"
       d="m 33.877928,37.477734 a 0.9278205,0.9278205 0 1 1 -1.855641,0 0.9278205,0.9278205 0 1 1 1.855641,0 z"
       id="path29" />
    <text
       xml:space="preserve"
       x="-40.349224"
       y="29.42164"
       fill="#ffffff"
       stroke-width="1pt"
       font-family="'Bitstream Vera Sans'"
       font-size="1.31751px"
       font-weight="700"
       style="line-height:125%;text-align:start"
       transform="matrix(0,-1.21185,1.21185,0,-2.09878,-10.78786)"
       id="text29"><tspan
         x="-40.349224"
         y="29.42164"
         id="tspan29">R</tspan></text>
    <path
       fill="#8d8d8d"
       d="m 29.370944,39.383076 a 0.24613172,0.24613172 0 1 1 0,0.492263 0.24613172,0.24613172 0 1 1 0,-0.492263 z m 0.50764,-1.0434 a 0.24613172,0.24613172 0 1 1 0,0.492263 0.24613172,0.24613172 0 1 1 0,-0.492263 z m 0.70764,-0.7655 a 0.24613172,0.24613172 0 1 1 0,0.492263 0.24613172,0.24613172 0 1 1 0,-0.492263 z m -1.30654,2.9191 a 0.24613172,0.24613172 0 1 1 0,0.492263 0.24613172,0.24613172 0 1 1 0,-0.492263 z m 0.27013,1.0874 a 0.24613172,0.24613172 0 1 1 0,0.492263 0.24613172,0.24613172 0 1 1 0,-0.492263 z m 0.53576,1.0115 a 0.24613172,0.24613172 0 1 1 0,0.492263 0.24613172,0.24613172 0 1 1 0,-0.492263 z"
       id="path30" />
  </g>
  <metadata
     id="metadata30">
    <rdf:RDF>
      <cc:Work
         rdf:about="">
        <dc:source>https://commons.wikimedia.org/wiki/File:Multimedia-player-ipod-standard-monochrome.svg</dc:source>
        <cc:license
           rdf:resource="http://creativecommons.org/publicdomain/zero/1.0/" />
      </cc:Work>
      <cc:License
         rdf:about="http://creativecommons.org/publicdomain/zero/1.0/">
        <cc:permits
           rdf:resource="http://creativecommons.org/ns#Reproduction" />
        <cc:permits
           rdf:resource="http://creativecommons.org/ns#Distribution" />
        <cc:permits
           rdf:resource="http://creativecommons.org/ns#DerivativeWorks" />
      </cc:License>
    </rdf:RDF>
  </metadata>
</svg>
