<?xml version="1.0" encoding="UTF-8" standalone="no"?>
<!-- Created with Inkscape (http://www.inkscape.org/) -->

<svg
   width="256mm"
   height="256mm"
   id="hx4700"
   sodipodi:version="0.32"
   inkscape:version="1.4.2 (ebf0e940d0, 2025-05-08)"
   sodipodi:docname="pda-blue.svg"
   inkscape:output_extension="org.inkscape.output.svg.inkscape"
   inkscape:export-filename=""
   inkscape:export-xdpi="96"
   inkscape:export-ydpi="96"
   version="1.0"
   viewBox="0 0 256 256"
   xmlns:inkscape="http://www.inkscape.org/namespaces/inkscape"
   xmlns:sodipodi="http://sodipodi.sourceforge.net/DTD/sodipodi-0.dtd"
   xmlns:xlink="http://www.w3.org/1999/xlink"
   xmlns="http://www.w3.org/2000/svg"
   xmlns:svg="http://www.w3.org/2000/svg"
   xmlns:rdf="http://www.w3.org/1999/02/22-rdf-syntax-ns#"
   xmlns:cc="http://creativecommons.org/ns#"
   xmlns:dc="http://purl.org/dc/elements/1.1/">
  <defs
     id="defs3722">
    <linearGradient
       inkscape:collect="always"
       id="linearGradient19278">
      <stop
         style="stop-color:#000000;stop-opacity:1;"
         offset="0"
         id="stop19280" />
      <stop
         style="stop-color:#000000;stop-opacity:0;"
         offset="1"
         id="stop19282" />
    </linearGradient>
    <radialGradient
       inkscape:collect="always"
       xlink:href="#linearGradient19278"
       id="radialGradient19284"
       gradientTransform="scale(1.357519,0.736638)"
       cx="17.579762"
       cy="47.402554"
       fx="17.579762"
       fy="47.402554"
       r="16.798437"
       gradientUnits="userSpaceOnUse" />
    <linearGradient
       inkscape:collect="always"
       id="linearGradient3243">
      <stop
         style="stop-color:#d3d7cf;stop-opacity:1"
         offset="0"
         id="stop3245" />
      <stop
         style="stop-color:#555753;stop-opacity:1"
         offset="1"
         id="stop3247" />
    </linearGradient>
    <linearGradient
       id="linearGradient10668"
       inkscape:collect="always">
      <stop
         id="stop10670"
         offset="0"
         style="stop-color:#ffffff;stop-opacity:1" />
      <stop
         id="stop10672"
         offset="1"
         style="stop-color:#ffffff;stop-opacity:0" />
    </linearGradient>
    <linearGradient
       inkscape:collect="always"
       id="linearGradient2729">
      <stop
         style="stop-color:#ffffff;stop-opacity:1;"
         offset="0"
         id="stop2731" />
      <stop
         style="stop-color:#ffffff;stop-opacity:0;"
         offset="1"
         id="stop2733" />
    </linearGradient>
    <radialGradient
       inkscape:collect="always"
       xlink:href="#linearGradient3243"
       id="radialGradient3249"
       cx="53.5"
       cy="5.1382136"
       fx="53.5"
       fy="5.1382136"
       r="1.5"
       gradientTransform="matrix(-2.9008359,-2.7141853e-6,2.6835559e-6,-2.3253869,179.6947,17.586695)"
       gradientUnits="userSpaceOnUse" />
    <linearGradient
       inkscape:collect="always"
       xlink:href="#linearGradient10668"
       id="linearGradient3315"
       gradientUnits="userSpaceOnUse"
       gradientTransform="translate(-29)"
       x1="44.006805"
       y1="1.9999999"
       x2="56.889801"
       y2="10.476215" />
    <linearGradient
       inkscape:collect="always"
       xlink:href="#linearGradient10668"
       id="linearGradient3319"
       gradientUnits="userSpaceOnUse"
       gradientTransform="translate(-29)"
       x1="48.256805"
       y1="5.1875"
       x2="65.327301"
       y2="15.476215" />
    <linearGradient
       inkscape:collect="always"
       xlink:href="#linearGradient2729"
       id="linearGradient2355"
       gradientUnits="userSpaceOnUse"
       gradientTransform="translate(-57.00186)"
       x1="69.998138"
       y1="2.204505"
       x2="88.981941"
       y2="47.987698" />
  </defs>
  <sodipodi:namedview
     id="namedview10679"
     pagecolor="#ffffff"
     bordercolor="#6e6e6e"
     borderopacity="1"
     inkscape:pageopacity="0.0"
     inkscape:pageshadow="2"
     inkscape:zoom="0.35355339"
     inkscape:cx="533.15851"
     inkscape:cy="750.9474"
     inkscape:current-layer="hx4700"
     showgrid="true"
     inkscape:grid-bbox="true"
     inkscape:document-units="px"
     inkscape:window-width="872"
     inkscape:window-height="968"
     inkscape:window-x="722"
     inkscape:window-y="87"
     inkscape:showpageshadow="true"
     inkscape:pagecheckerboard="0"
     inkscape:deskcolor="#d1d1d1" />
  <metadata
     id="metadata3725">
    <rdf:RDF>
      <cc:Work
         rdf:about="">
        <dc:format>image/svg+xml</dc:format>
        <dc:type
           rdf:resource="http://purl.org/dc/dcmitype/StillImage" />
        <dc:title>HP iPAQ hx4700</dc:title>
        <dc:date>December 2007</dc:date>
        <dc:creator>
          <cc:Agent>
            <dc:title>Philipp Zabel</dc:title>
          </cc:Agent>
        </dc:creator>
        <dc:subject>
          <rdf:Bag>
            <rdf:li>device</rdf:li>
            <rdf:li>pda</rdf:li>
            <rdf:li>hx4700</rdf:li>
          </rdf:Bag>
        </dc:subject>
        <dc:description>https://commons.wikimedia.org/wiki/File:Pda-hp-ipaq-hx4700.svg</dc:description>
        <cc:license
           rdf:resource="http://creativecommons.org/publicdomain/zero/1.0/" />
      </cc:Work>
      <cc:License
         rdf:about="http://creativecommons.org/publicdomain/zero/1.0/">
        <cc:permits
           rdf:resource="http://creativecommons.org/ns#Reproduction" />
        <cc:permits
           rdf:resource="http://creativecommons.org/ns#Distribution" />
        <cc:permits
           rdf:resource="http://creativecommons.org/ns#DerivativeWorks" />
      </cc:License>
    </rdf:RDF>
  </metadata>
  <g
     id="g1"
     style="display:inline"
     transform="matrix(5.5599639,0,0,5.5599639,-9.8588535,-9.3586347)">
    <ellipse
       style="color:#000000;display:inline;overflow:visible;visibility:visible;opacity:0.5;fill:url(#radialGradient19284);fill-opacity:1;fill-rule:evenodd;stroke:none;stroke-width:4;stroke-linecap:butt;stroke-linejoin:miter;stroke-miterlimit:4;stroke-dashoffset:0;stroke-opacity:1;marker:none;marker-start:none;marker-mid:none;marker-end:none"
       id="path19276"
       transform="matrix(0.7112179,0,0,0.3080455,7.8081375,33.055374)"
       cx="23.864855"
       cy="34.918526"
       rx="22.804193"
       ry="12.374369" />
    <rect
       style="fill:#333036;fill-opacity:1;fill-rule:nonzero;stroke:none;stroke-width:1;stroke-linecap:butt;stroke-linejoin:miter;stroke-miterlimit:4;stroke-dasharray:none;stroke-dashoffset:0;stroke-opacity:1"
       id="bodycolor"
       width="24"
       height="42"
       x="12.5"
       y="2.5"
       rx="11"
       ry="1.6412427" />
    <path
       style="opacity:1;fill:#000000;fill-opacity:1;fill-rule:evenodd;stroke:none;stroke-width:0.25pt;stroke-linecap:butt;stroke-linejoin:miter;stroke-opacity:1"
       d="M 15,3 12.5,4 V 5 H 16 l 2,4 h 13 l 3,-6 z"
       id="upperplastic"
       sodipodi:nodetypes="ccccccccc" />
    <path
       style="opacity:0.5;fill:url(#linearGradient3315);fill-opacity:1;fill-rule:evenodd;stroke:none;stroke-width:0.25pt;stroke-linecap:butt;stroke-linejoin:miter;stroke-opacity:0.6"
       d="m 23.5,3 c -3.026982,0 -5.767371,0.1775967 -7.71875,0.46875 -0.975691,0.1455767 -1.749023,0.3226882 -2.25,0.5 -0.25049,0.088656 -0.419472,0.190985 -0.5,0.25 C 12.990984,4.2482575 12.997747,4.2591065 13,4.25 V 5 h 3 l 2,4 h 8.28125 C 25.582656,6.8758897 24.630556,4.8262586 23.6875,3 Z"
       id="upperplasticreflection" />
    <rect
       y="11.5"
       x="15.5"
       height="24"
       width="18"
       id="screen"
       style="fill:#3465a4;fill-opacity:1;fill-rule:nonzero;stroke:#204a87;stroke-width:1;stroke-linecap:butt;stroke-linejoin:miter;stroke-miterlimit:4;stroke-dasharray:none;stroke-dashoffset:0;stroke-opacity:1" />
    <path
       sodipodi:nodetypes="ccccc"
       id="lowerplastic"
       d="m 14.5,44 3,-6 h 14 l 3,6 z"
       style="opacity:1;fill:#000000;fill-opacity:1;fill-rule:evenodd;stroke:none;stroke-width:0.25pt;stroke-linecap:butt;stroke-linejoin:miter;stroke-opacity:1" />
    <path
       style="opacity:0.7;fill:url(#linearGradient3319);fill-opacity:1;fill-rule:evenodd;stroke:none;stroke-width:0.25pt;stroke-linecap:butt;stroke-linejoin:miter;stroke-opacity:0.6"
       d="m 17.5,38 -2.6875,5.34375 c 0.301573,0.06078 0.608471,0.133745 0.96875,0.1875 1.260975,0.188142 2.871907,0.330223 4.65625,0.40625 C 19.875754,41.987237 19.561122,40.000689 19.5,38 Z"
       id="lowerplasticreflection" />
    <path
       style="fill:#221f25;fill-opacity:1;fill-rule:evenodd;stroke:none;stroke-width:0.25pt;stroke-linecap:butt;stroke-linejoin:miter;stroke-opacity:1"
       d="M 12.5,5 V 43 L 13.142,43.5 15,37 14,36.5 v -26 L 15,10 13.5714,5 Z"
       id="leftbody"
       sodipodi:nodetypes="ccccccccc" />
    <rect
       style="opacity:1;fill:url(#radialGradient3249);fill-opacity:1;stroke:none;stroke-width:2;stroke-linecap:butt;stroke-linejoin:round;stroke-miterlimit:4;stroke-dasharray:none;stroke-dashoffset:0;stroke-opacity:1"
       id="hplogo"
       width="5"
       height="3"
       x="22"
       y="5"
       ry="0.30000001"
       rx="0.33333334" />
    <path
       style="fill:#333036;fill-opacity:1;fill-rule:evenodd;stroke:none;stroke-width:0.25pt;stroke-linecap:butt;stroke-linejoin:miter;stroke-opacity:1"
       d="M 34,3 31,9 H 18 L 16,5 H 13.572 L 15,10 h 19 l 1.857,-6.5 z"
       id="upperbody"
       sodipodi:nodetypes="cccccccccc" />
    <path
       id="rightbody"
       d="M 35.857,3.5 36.5,4 V 43 L 35.857,43.5 34,37 35,36.5 v -26 L 34,10 Z"
       style="fill:#221f25;fill-opacity:1;fill-rule:evenodd;stroke:none;stroke-width:0.25pt;stroke-linecap:butt;stroke-linejoin:miter;stroke-opacity:1" />
    <path
       style="opacity:1;fill:#2e3436;fill-opacity:1;fill-rule:evenodd;stroke:none;stroke-width:0.25pt;stroke-linecap:butt;stroke-linejoin:miter;stroke-opacity:1"
       d="m 31,8 0.375,-0.75 h -0.5 L 30.5,8 Z"
       id="speaker"
       sodipodi:nodetypes="ccccc" />
    <path
       style="fill:#333036;fill-opacity:1;fill-rule:evenodd;stroke:none;stroke-width:0.25pt;stroke-linecap:butt;stroke-linejoin:miter;stroke-opacity:1"
       d="m 15,37 -1.857,6.5 1.357,0.5 3,-6 h 14 l 3,6 1.357,-0.5 L 34,37 Z"
       id="lowerbody" />
    <path
       style="opacity:1;fill:#2e3436;fill-opacity:1;fill-rule:evenodd;stroke:none;stroke-width:0.1;stroke-linecap:butt;stroke-linejoin:miter;stroke-miterlimit:4;stroke-dasharray:none;stroke-opacity:1"
       d="m 21,39 h 7 c 0.629767,0.0098 0.812174,0.02375 1,0.437103 l 0.84375,2.199103 C 30.439721,42.951663 29.010835,43.000207 27,43.000207 h -5 c -2.010835,0.0098 -3.252776,0.02035 -2.8125,-1.336164 L 20,39.437103 C 20.187825,39.03359 20.458621,39 21,39 Z"
       id="navpoint"
       sodipodi:nodetypes="ccccccccc" />
    <rect
       style="opacity:1;fill:#555753;fill-opacity:1;stroke:none;stroke-width:0.1;stroke-linecap:butt;stroke-linejoin:round;stroke-miterlimit:4;stroke-dasharray:none;stroke-dashoffset:0;stroke-opacity:1"
       id="contacts"
       width="1"
       height="1"
       x="18"
       y="39" />
    <rect
       y="39"
       x="30"
       height="1"
       width="1"
       id="mail"
       style="opacity:1;fill:#555753;fill-opacity:1;stroke:none;stroke-width:0.1;stroke-linecap:butt;stroke-linejoin:round;stroke-miterlimit:4;stroke-dasharray:none;stroke-dashoffset:0;stroke-opacity:1" />
    <rect
       style="opacity:1;fill:#555753;fill-opacity:1;stroke:none;stroke-width:0.1;stroke-linecap:butt;stroke-linejoin:round;stroke-miterlimit:4;stroke-dasharray:none;stroke-dashoffset:0;stroke-opacity:1"
       id="calendar"
       width="1"
       height="1"
       x="17"
       y="41" />
    <rect
       y="41"
       x="31"
       height="1"
       width="1"
       id="itask"
       style="opacity:1;fill:#555753;fill-opacity:1;stroke:none;stroke-width:0.1;stroke-linecap:butt;stroke-linejoin:round;stroke-miterlimit:4;stroke-dasharray:none;stroke-dashoffset:0;stroke-opacity:1" />
    <rect
       ry="1.6412427"
       rx="11"
       y="2.5"
       x="12.5"
       height="42"
       width="24"
       id="frame"
       style="fill:none;fill-opacity:1;fill-rule:nonzero;stroke:#111012;stroke-width:1;stroke-linecap:butt;stroke-linejoin:miter;stroke-miterlimit:4;stroke-dasharray:none;stroke-dashoffset:0;stroke-opacity:1" />
    <path
       style="fill:#444047;fill-opacity:1;fill-rule:evenodd;stroke:none;stroke-width:0.25pt;stroke-linecap:butt;stroke-linejoin:miter;stroke-opacity:1"
       d="m 15,36 -1,0.5 1,0.5 H 34 L 35,36.5 34,36 Z"
       id="lowerbezel" />
    <path
       id="upperbezel"
       d="m 15,10 -1,0.5 1,0.5 H 34 L 35,10.5 34,10 Z"
       style="fill:#141116;fill-opacity:1;fill-rule:evenodd;stroke:none;stroke-width:0.25pt;stroke-linecap:butt;stroke-linejoin:miter;stroke-opacity:1" />
    <path
       style="fill:#000000;fill-opacity:1;fill-rule:evenodd;stroke:none;stroke-width:0.25pt;stroke-linecap:butt;stroke-linejoin:miter;stroke-opacity:1"
       d="m 34.443147,41.519531 -0.287623,-1 h 0.525904 l 0.318572,1 z"
       id="mic"
       sodipodi:nodetypes="ccccc" />
    <path
       sodipodi:nodetypes="ccccc"
       id="blueled"
       d="M 17,6 16.625,5.25 h 0.5 L 17.5,6 Z"
       style="fill:#007ef3;fill-opacity:1;fill-rule:evenodd;stroke:none;stroke-width:0.25pt;stroke-linecap:butt;stroke-linejoin:miter;stroke-opacity:1" />
    <path
       style="fill:#ffb808;fill-opacity:1;fill-rule:evenodd;stroke:none;stroke-width:0.25pt;stroke-linecap:butt;stroke-linejoin:miter;stroke-opacity:1"
       d="M 17.5,7 17.125,6.25 h 0.5 L 18,7 Z"
       id="redgreenled"
       sodipodi:nodetypes="ccccc" />
    <path
       sodipodi:nodetypes="ccccc"
       id="lightsensor"
       d="M 18,8 17.625,7.25 h 0.5 L 18.5,8 Z"
       style="fill:#2e3436;fill-opacity:1;fill-rule:evenodd;stroke:none;stroke-width:0.25pt;stroke-linecap:butt;stroke-linejoin:miter;stroke-opacity:1" />
    <path
       style="fill:#333036;fill-opacity:1;fill-rule:evenodd;stroke:none;stroke-width:0.25pt;stroke-linecap:butt;stroke-linejoin:miter;stroke-opacity:1"
       d="m 34,11 1,-0.5 v 26 L 34,36 Z"
       id="rightbezel" />
    <path
       id="leftbezel"
       d="m 15,11 -1,-0.5 v 26 L 15,36 Z"
       style="fill:#333036;fill-opacity:1;fill-rule:evenodd;stroke:none;stroke-width:0.25pt;stroke-linecap:butt;stroke-linejoin:miter;stroke-opacity:1" />
    <circle
       style="opacity:1;fill:#2e3436;fill-opacity:1;stroke:none;stroke-width:1;stroke-linecap:butt;stroke-linejoin:miter;stroke-miterlimit:4;stroke-dasharray:none;stroke-dashoffset:0;stroke-opacity:0.6"
       id="hplogo1"
       transform="matrix(1.1842849,0,0,1.2204636,-73.815751,1.8902985)"
       cx="83.03125"
       cy="3.8437498"
       r="0.90625" />
    <rect
       style="opacity:1;fill:#888a85;fill-opacity:1;stroke:none;stroke-width:0.1;stroke-linecap:butt;stroke-linejoin:round;stroke-miterlimit:4;stroke-dasharray:none;stroke-dashoffset:0;stroke-opacity:1"
       id="wirelesssymbol"
       width="1"
       height="1"
       x="18"
       y="5" />
    <path
       sodipodi:nodetypes="ccccc"
       id="path3333"
       d="m 31.5,7 0.375,-0.75 h -0.5 L 31,7 Z"
       style="opacity:1;fill:#2e3436;fill-opacity:1;fill-rule:evenodd;stroke:none;stroke-width:0.25pt;stroke-linecap:butt;stroke-linejoin:miter;stroke-opacity:1" />
    <path
       style="opacity:1;fill:#2e3436;fill-opacity:1;fill-rule:evenodd;stroke:none;stroke-width:0.25pt;stroke-linecap:butt;stroke-linejoin:miter;stroke-opacity:1"
       d="m 32,6 0.375,-0.75 h -0.5 L 31.5,6 Z"
       id="path3335"
       sodipodi:nodetypes="ccccc" />
    <path
       sodipodi:nodetypes="ccccc"
       id="path3337"
       d="m 29.5,8 0.375,-0.75 h -0.5 L 29,8 Z"
       style="opacity:1;fill:#2e3436;fill-opacity:1;fill-rule:evenodd;stroke:none;stroke-width:0.25pt;stroke-linecap:butt;stroke-linejoin:miter;stroke-opacity:1" />
    <path
       style="opacity:1;fill:#2e3436;fill-opacity:1;fill-rule:evenodd;stroke:none;stroke-width:0.25pt;stroke-linecap:butt;stroke-linejoin:miter;stroke-opacity:1"
       d="m 30,7 0.375,-0.75 h -0.5 L 29.5,7 Z"
       id="path3339"
       sodipodi:nodetypes="ccccc" />
    <path
       sodipodi:nodetypes="ccccc"
       id="path3341"
       d="m 30.5,6 0.375,-0.75 h -0.5 L 30,6 Z"
       style="opacity:1;fill:#2e3436;fill-opacity:1;fill-rule:evenodd;stroke:none;stroke-width:0.25pt;stroke-linecap:butt;stroke-linejoin:miter;stroke-opacity:1" />
    <path
       style="opacity:1;fill:#2e3436;fill-opacity:1;fill-rule:evenodd;stroke:none;stroke-width:0.25pt;stroke-linecap:butt;stroke-linejoin:miter;stroke-opacity:1"
       d="M 30.25,8 30.6,7.25 H 30.125 L 29.75,8 Z"
       id="path3343"
       sodipodi:nodetypes="ccccc" />
    <path
       sodipodi:nodetypes="ccccc"
       id="path3345"
       d="M 30.75,7 31.125,6.25 H 30.6 L 30.25,7 Z"
       style="opacity:1;fill:#2e3436;fill-opacity:1;fill-rule:evenodd;stroke:none;stroke-width:0.25pt;stroke-linecap:butt;stroke-linejoin:miter;stroke-opacity:1" />
    <path
       style="opacity:1;fill:#2e3436;fill-opacity:1;fill-rule:evenodd;stroke:none;stroke-width:0.25pt;stroke-linecap:butt;stroke-linejoin:miter;stroke-opacity:1"
       d="M 31.25,6 31.6,5.25 H 31.125 L 30.75,6 Z"
       id="path3347"
       sodipodi:nodetypes="ccccc" />
    <path
       sodipodi:nodetypes="ccccc"
       id="path2285"
       d="M 17.5,7 17.125,6.25 h 0.5 L 18,7 Z"
       style="fill:#ffffff;fill-opacity:1;fill-rule:evenodd;stroke:#ffb808;stroke-width:0.25pt;stroke-linecap:butt;stroke-linejoin:miter;stroke-opacity:1" />
    <path
       style="color:#000000;display:inline;overflow:visible;visibility:visible;fill:#eeeeec;fill-opacity:0.169935;fill-rule:evenodd;stroke:none;stroke-width:1;stroke-linecap:round;stroke-linejoin:miter;stroke-miterlimit:4;stroke-dashoffset:0;stroke-opacity:1;marker:none;marker-start:none;marker-mid:none;marker-end:none"
       d="m 16,12 h 16.979002 c 0,0 7.44e-4,3.435731 0.021,5.259146 -0.93407,2.037113 -3.757274,2.889305 -7.178422,2.138665 C 19.054333,17.912999 16,25 16,25 Z"
       id="rect3198"
       sodipodi:nodetypes="ccczcc" />
    <path
       style="display:inline;opacity:0.4;fill:url(#linearGradient2355);fill-opacity:1;fill-rule:nonzero;stroke:none;stroke-width:1;stroke-linecap:butt;stroke-linejoin:miter;stroke-miterlimit:4;stroke-dasharray:none;stroke-dashoffset:0;stroke-opacity:1"
       d="m 23.49814,3 c -3.02698,0 -5.767371,0.1775967 -7.71875,0.46875 -0.975689,0.1455767 -1.749023,0.3226882 -2.25,0.5 -0.250488,0.088656 -0.419472,0.190985 -0.5,0.25 -0.04026,0.029508 -0.0335,0.040356 -0.03125,0.03125 v 38.5 c -0.0023,-0.0091 -0.009,0.0017 0.03125,0.03125 0.08053,0.05902 0.249512,0.161344 0.5,0.25 0.500977,0.177312 1.274311,0.354423 2.25,0.5 C 17.730769,43.822403 20.47116,44 23.49814,44 h 2 c 3.02698,0 5.767371,-0.177597 7.71875,-0.46875 0.975689,-0.145577 1.749023,-0.322688 2.25,-0.5 0.250488,-0.08866 0.419472,-0.190985 0.5,-0.25 0.04026,-0.02951 0.0335,-0.04036 0.03125,-0.03125 V 4.25 c 0.0023,0.00911 0.009,-0.00174 -0.03125,-0.03125 -0.08053,-0.059015 -0.249512,-0.1613441 -0.5,-0.25 -0.500977,-0.1773118 -1.274311,-0.3544233 -2.25,-0.5 C 31.265511,3.1775967 28.52512,3 25.49814,3 Z m 0,1 h 2 c 2.753118,0 5.223889,0.1515249 7,0.375 0.888056,0.1117376 1.605797,0.2386886 2.0625,0.375 0.215228,0.064239 0.363059,0.1447158 0.4375,0.1875 v 37.125 c -0.07444,0.04278 -0.222272,0.123261 -0.4375,0.1875 -0.456703,0.136312 -1.174444,0.263262 -2.0625,0.375 -1.776111,0.223475 -4.246882,0.375 -7,0.375 h -2 c -2.753118,0 -5.223889,-0.151525 -7,-0.375 -0.888056,-0.111738 -1.605797,-0.238689 -2.0625,-0.375 -0.215228,-0.06424 -0.363059,-0.144716 -0.4375,-0.1875 V 4.9375 C 14.07258,4.894716 14.220412,4.8142387 14.43564,4.75 14.892343,4.6136886 15.610084,4.4867376 16.49814,4.375 18.274251,4.1515249 20.745022,4 23.49814,4 Z"
       id="tangohighlight" />
  </g>
</svg>
