<?xml version="1.0" encoding="UTF-8" standalone="no"?>
<!-- Created with Inkscape (http://www.inkscape.org/) -->

<svg
   width="256mm"
   height="256mm"
   viewBox="0 0 256 256"
   version="1.1"
   id="svg1"
   inkscape:version="1.4.2 (ebf0e940d0, 2025-05-08)"
   sodipodi:docname="scsi.svg"
   xml:space="preserve"
   xmlns:inkscape="http://www.inkscape.org/namespaces/inkscape"
   xmlns:sodipodi="http://sodipodi.sourceforge.net/DTD/sodipodi-0.dtd"
   xmlns="http://www.w3.org/2000/svg"
   xmlns:svg="http://www.w3.org/2000/svg"
   xmlns:rdf="http://www.w3.org/1999/02/22-rdf-syntax-ns#"
   xmlns:cc="http://creativecommons.org/ns#"><sodipodi:namedview
     id="namedview1"
     pagecolor="#ffffff"
     bordercolor="#000000"
     borderopacity="0.25"
     inkscape:showpageshadow="2"
     inkscape:pageopacity="0.0"
     inkscape:pagecheckerboard="0"
     inkscape:deskcolor="#d1d1d1"
     inkscape:document-units="mm"
     inkscape:zoom="0.32137521"
     inkscape:cx="791.90925"
     inkscape:cy="1177.7511"
     inkscape:current-layer="svg1" /><defs
     id="defs1" /><metadata
     id="metadata1"><rdf:RDF><cc:License
         rdf:about="http://creativecommons.org/publicdomain/zero/1.0/"><cc:permits
           rdf:resource="http://creativecommons.org/ns#Reproduction" /><cc:permits
           rdf:resource="http://creativecommons.org/ns#Distribution" /><cc:permits
           rdf:resource="http://creativecommons.org/ns#DerivativeWorks" /></cc:License><cc:Work
         rdf:about=""><cc:license
           rdf:resource="http://creativecommons.org/publicdomain/zero/1.0/" /></cc:Work></rdf:RDF></metadata><g
     id="g7"
     transform="matrix(2.0938254,0,0,2.0938254,-163.5354,-12.849777)"><path
       id="path24"
       style="fill:#ffffff;stroke-width:3.444;stroke-linecap:round;stroke-linejoin:round"
       d="m 163.58423,84.848403 5.96704,3.492902 -24.0137,23.868165 -2.47414,-6.9858 z"
       sodipodi:nodetypes="ccccc" /><path
       id="rect22"
       style="fill:#ffffff;stroke-width:3.444;stroke-linecap:round;stroke-linejoin:round"
       d="M 136.22317,8.2956412 145.68311,8.004566 83.975177,70.585723 79.900126,64.327608 Z"
       sodipodi:nodetypes="ccccc" /><path
       id="path22"
       style="fill:#ffffff;stroke-width:3.444;stroke-linecap:round;stroke-linejoin:round"
       d="m 197.9311,60.543629 -0.14554,4.511665 -56.61412,0.291077 0.14554,-4.657202 z"
       sodipodi:nodetypes="ccccc" /><path
       style="fill:#e9e7e7"
       d="m 144.72708,126.47084 v -1.32292 h 1.32292 1.32291 v -1.45521 -1.45521 h 1.45521 1.45521 v -1.32291 -1.32292 h 1.32292 1.32291 v -1.45521 -1.45521 h 1.32292 1.32292 v -1.32291 -1.32292 h 1.45521 1.4552 v -1.32292 -1.32291 h 1.32292 1.32292 v -1.45521 -1.45521 h 1.45521 1.4552 v -1.32292 -1.32292 h 1.32292 1.32292 v 1.32292 1.32292 h -1.32292 -1.32292 v 1.45521 1.45521 h -1.4552 -1.45521 v 1.32291 1.32292 h -1.32292 -1.32292 v 1.32292 1.32291 h -1.4552 -1.45521 v 1.45521 1.45521 h -1.32292 -1.32292 v 1.32292 1.32291 h -1.32291 -1.32292 v 1.45521 1.45521 h -1.45521 -1.45521 v 1.32292 1.32291 H 146.05 144.72708 Z M 166.6875,87.841667 v -1.322916 h 2.77812 2.77813 v 1.322916 1.322917 h -2.77813 -2.77812 z m -60.58959,-5.55625 v -1.322916 h -1.32291 -1.32292 v -1.322917 -1.322917 h -1.45521 -1.45521 V 76.861459 75.40625 h 1.45521 1.45521 v 1.455209 1.455208 h 1.32292 1.32291 v 1.322917 1.322917 h 1.32292 1.32292 v 1.322916 1.322917 h -1.32292 -1.32292 z m 33.07292,-5.423958 V 75.40625 H 137.84791 136.525 V 74.083334 61.671799 h 1.32291 1.32292 v 12.411535 1.322916 h 30.29479 30.2948 v 1.455209 1.455208 h -30.2948 -30.29479 z M 81.227078,65.88125 v -1.322917 h 1.455208 1.455208 v 1.322917 1.322917 h -1.455208 -1.455208 z m 5.55625,0 v -1.322917 h 1.322916 1.322917 v -1.455208 -1.455209 h 1.455209 1.455208 V 60.325 59.002083 h 1.322917 1.322916 v -1.455208 -1.455209 h 1.455209 1.455208 V 54.76875 53.445833 h 1.322917 1.322915 v -1.455209 -1.455208 h 1.45521 1.45521 v -1.322917 -1.322916 h 1.32292 1.32291 v -1.322917 -1.322917 h 1.32292 1.32292 v -1.455208 -1.455209 h 1.4552 1.45521 v -1.322916 -1.322917 h 1.32292 1.32292 v -1.455208 -1.455209 h 1.4552 1.45521 v -1.322917 -1.322916 h 1.32292 1.32292 v -1.322917 -1.322917 h 1.32291 1.32292 v -1.455208 -1.455209 h 1.45521 1.45521 v -1.322916 -1.322917 h 1.32291 1.32292 v -1.455208 -1.455209 h 1.45521 1.45521 v -1.322916 -1.322917 h 1.32291 1.32292 v -1.455209 -1.455208 h 1.45521 1.45521 v -1.322917 -1.322916 h 1.32291 1.32292 V 13.493748 12.170831 H 137.84791 136.525 V 10.715623 9.2604144 h 1.32291 1.32292 v 1.4552086 1.455208 h 2.77812 2.77813 v 1.322917 1.322917 h 1.32292 1.32291 v 1.322916 1.322917 h 1.45521 1.45521 v 1.455208 1.455209 h 1.32292 1.32291 v 1.322917 1.322916 h 1.32292 1.32292 v 1.455209 1.455208 h 1.45521 1.4552 v 1.322917 1.322916 h 1.32292 1.32292 v 1.455209 1.455208 h -1.32292 -1.32292 v -1.455208 -1.455209 h -1.4552 -1.45521 v -1.322916 -1.322917 h -2.64584 -2.64583 v -1.455208 -1.455209 h -1.45521 -1.45521 V 21.695832 20.372915 H 146.05 144.72708 v -1.455209 -1.455208 h -4.10104 -4.10104 v 1.455208 1.455209 h -1.45521 -1.45521 v 1.322917 1.322916 h -1.32292 -1.32291 v 1.455209 1.455208 h -1.45521 -1.45521 v 1.322917 1.322916 h -1.32292 -1.32291 v 1.455209 1.455208 h -1.45521 -1.45521 v 1.322917 1.322917 h -1.32292 -1.32291 v 1.322916 1.322917 h -1.32292 -1.32292 v 1.455209 1.455208 H 115.7552 114.3 v 1.322917 1.322916 h -1.32292 -1.32292 v 1.455209 1.455208 h -1.45521 -1.4552 v 1.322917 1.322917 h -1.32292 -1.32292 v 1.322916 1.322917 h -1.32291 -1.32292 v 1.455208 1.455209 h -1.45521 -1.45521 v 1.322917 1.322916 h -1.322915 -1.322917 v 1.455209 1.455208 H 96.44062 94.985411 V 60.325 61.647916 h -1.322916 -1.322917 v 1.455209 1.455208 H 90.88437 89.429161 v 1.322917 1.322917 h -1.322917 -1.322916 z m 55.033332,0 v -1.322917 h 1.45521 1.45521 v 1.322917 1.322917 h -1.45521 -1.45521 z m -38.36458,-2.778125 v -1.455209 h 1.32292 1.32291 V 60.325 59.002083 h 1.32292 1.32292 v -1.455208 -1.455209 h 1.4552 1.45521 V 54.76875 53.445833 h 1.32292 1.32292 v -1.455209 -1.455208 h 1.4552 1.45521 v -1.322917 -1.322916 h 1.32292 1.32292 v -1.322917 -1.322917 h 1.32291 1.32292 v -1.455208 -1.455209 h 1.45521 1.45521 v -1.322916 -1.322917 h 1.32291 1.32292 v -1.455208 -1.455209 h 1.45521 1.45521 v -1.322917 -1.322916 h 1.32291 1.32292 v -1.322917 -1.322917 h 1.45521 1.45521 v 1.322917 1.322917 h -1.45521 -1.45521 v 1.322916 1.322917 h -1.32292 -1.32291 v 1.455209 1.455208 h -1.45521 -1.45521 v 1.322917 1.322916 h -1.32292 -1.32291 v 1.455209 1.455208 h -1.45521 -1.45521 v 1.322917 1.322917 h -1.32292 -1.32291 v 1.322916 1.322917 h -1.32292 -1.32292 v 1.455208 1.455209 H 115.7552 114.3 v 1.322917 1.322916 h -1.32292 -1.32292 v 1.455209 1.455208 h -1.45521 -1.4552 V 60.325 61.647916 h -1.32292 -1.32292 v 1.455209 1.455208 h -1.32291 -1.32292 z m 85.19584,0 v -1.455209 h 2.77812 2.77813 v 1.455209 1.455208 h -2.77813 -2.77812 z m -2.64584,-13.890626 v -1.322916 h -1.32292 -1.32291 v -1.322917 -1.322917 h -1.45521 -1.45521 V 43.788541 42.333332 H 179.12291 177.8 v -1.322916 -1.322917 h -1.45521 -1.45521 v -1.455208 -1.455209 h -1.32292 -1.32291 v -1.322917 -1.322916 h -1.32292 -1.32292 v -1.322917 -1.322917 h -1.4552 -1.45521 v -1.455208 -1.455209 h -1.32292 -1.32292 v -1.322916 -1.322917 h -1.4552 -1.45521 v -1.455208 -1.455209 h -1.32292 -1.32292 v -1.322916 -1.322917 h -1.4552 -1.45521 v -1.455209 -1.455208 h -1.32292 -1.32292 v -1.322917 -1.322916 h -1.32291 -1.32292 v -1.322917 -1.322917 h -1.45521 -1.45521 V 10.715623 9.2604144 H 146.05 144.72708 V 7.9374977 6.614581 h 1.32292 1.32291 v 1.3229167 1.3229167 h 1.45521 1.45521 v 1.4552086 1.455208 h 1.32292 1.32291 v 1.322917 1.322917 h 1.32292 1.32292 v 1.322916 1.322917 h 1.45521 1.4552 v 1.455208 1.455209 h 1.32292 1.32292 v 1.322917 1.322916 h 1.45521 1.4552 v 1.455209 1.455208 h 1.32292 1.32292 v 1.322917 1.322916 h 1.45521 1.4552 v 1.455209 1.455208 h 1.32292 1.32292 v 1.322917 1.322917 h 1.32291 1.32292 v 1.322916 1.322917 h 1.45521 1.45521 v 1.455209 1.455208 h 1.32291 1.32292 v 1.322917 1.322916 h 1.45521 1.45521 v 1.455209 1.455208 h 1.32291 1.32292 v 1.322917 1.322917 h 1.32292 1.32292 v 1.322916 1.322917 h -1.32292 -1.32292 z"
       id="path21"
       sodipodi:nodetypes="cccccccccccccccccccccccccccccccccccccccccccccccccccccccccccccccccccccccccccccccccccccccccccccccccccccccccccccccccccccccccccccccccccccccccccccccccccccccccccccccccccccccccccccccccccccccccccccccccccccccccccccccccccccccccccccccccccccccccccccccccccccccccccccccccccccccccccccccccccccccccccccccccccccccccccccccccccccccccccccccccccccccccccccccccccccccccccccccccccccccccccccccccccccccccccccccccccccccccccccccccccccccccccccccccccccccccccccccccccccccccccccccccccccccccccccccccccccccccccccccccccccccccccccccccccccccccccccccccccccccccccccccccccccccccccccccccccccccccccccccccccccccccccccccccc" /><path
       style="fill:#e4dbda"
       d="m 136.525,109.93438 v -1.45521 h 2.64583 2.64583 v -1.32292 -1.32292 h 1.45521 1.45521 v 1.32292 1.32292 h -1.45521 -1.45521 v 1.45521 1.45521 h -2.64583 -2.64583 z m 30.1625,-5.55625 v -1.45521 h 1.45521 1.4552 V 101.6 100.27708 h 1.32292 1.32292 v -1.322912 -1.322917 h 1.32291 1.32292 v -1.455208 -1.455209 h 1.45521 1.45521 v -1.322916 -1.322917 h 1.32291 1.32292 v -1.455208 -1.455209 h 1.45521 1.45521 v -1.322917 -1.322916 h 1.32291 1.32292 v -2.778125 -2.778125 h 1.32292 1.32292 v 2.778125 2.778125 h -1.32292 -1.32292 v 1.322916 1.322917 h -1.32292 -1.32291 v 1.455209 1.455208 h -1.45521 -1.45521 v 1.322917 1.322916 H 179.12291 177.8 v 1.455209 1.455208 h -1.45521 -1.45521 v 1.322917 1.322912 h -1.32292 -1.32291 v 1.32292 1.32292 h -1.32292 -1.32292 v 1.45521 1.4552 h -1.4552 -1.45521 z M 119.85625,96.176043 V 94.720834 H 117.07812 114.3 v -1.322916 -1.322917 h -1.32292 -1.32292 v -1.455208 -1.455209 h -1.45521 -1.4552 v -1.322917 -1.322916 h -2.64584 -2.64583 v -1.455209 -1.455208 h -2.77813 -2.778122 V 82.285417 80.962501 H 96.44062 94.985411 V 79.639584 78.316667 H 93.662495 92.339578 V 76.861459 75.40625 H 90.88437 89.429161 V 74.083334 72.760417 H 88.106244 86.783328 V 71.305208 69.85 h -2.778125 -2.778125 v -1.322917 -1.322916 h 4.101041 4.101042 V 65.88125 64.558333 h 1.455209 1.455208 v -1.455208 -1.455209 h 1.322917 1.322916 V 60.325 59.002083 h 1.455209 1.455208 V 60.325 61.647916 H 96.44062 94.985411 v 2.778126 2.778125 h 1.455209 1.455208 v 2.778125 2.778125 h 1.322917 1.322915 v 2.778125 2.778125 h 1.45521 1.45521 v 1.322917 1.322917 h 1.32292 1.32291 v 1.322916 1.322917 h 2.77813 2.77812 v 1.455208 1.455209 h 1.32292 1.32292 v 1.322916 1.322917 h 1.4552 1.45521 v 1.455209 1.455208 h 1.32292 1.32292 v 1.322917 1.322916 h 1.32291 1.32292 v 1.455209 1.455208 h -1.32292 -1.32291 z m 44.18541,-13.890626 v -1.322916 h 1.32292 1.32292 v 1.322916 1.322917 h -1.32292 -1.32292 z m -22.225,-13.758334 v -1.322916 h 1.45521 1.45521 V 65.88125 64.558333 h 1.32292 1.32291 v 1.322917 1.322917 H 146.05 144.72708 V 68.527083 69.85 h -1.45521 -1.45521 z m 30.42709,-24.738542 v -1.455209 h -2.77813 -2.77812 v -1.322916 -1.322917 h -1.32292 -1.32292 v -1.455208 -1.455209 h -1.4552 -1.45521 v -1.322917 -1.322916 h -2.77813 -2.77812 v -1.322917 -1.322917 h -1.32292 -1.32292 v -1.455208 -1.455209 h -2.77812 -2.77813 v -1.322916 -1.322917 h -2.77812 -2.77813 v -1.455208 -1.455209 h -4.10104 -4.10104 v 1.455209 1.455208 h -1.32292 -1.32291 v -1.455208 -1.455209 h 1.32291 1.32292 v -1.322916 -1.322917 h 1.45521 1.45521 v -1.455209 -1.455208 h 4.10104 4.10104 v 1.455208 1.455209 h 1.32292 1.32291 v 1.322917 1.322916 h 1.45521 1.45521 v 1.455209 1.455208 h 2.64583 2.64584 v 1.322917 1.322916 h 1.45521 1.4552 v 1.455209 1.455208 h 2.77813 2.77812 v 1.322917 1.322917 h 1.32292 1.32292 v 1.322916 1.322917 h 1.45521 1.4552 v 1.455209 1.455208 h 1.32292 1.32292 v 1.322917 1.322916 h 1.32291 1.32292 v 1.455209 1.455208 h -1.32292 -1.32291 z"
       id="path20" /><path
       style="fill:#d4cdcc"
       d="m 133.61458,109.93438 v -1.45521 h -2.77813 -2.77812 v -1.32292 -1.32292 h -2.77813 -2.77812 v -1.4552 -1.45521 h -1.32292 -1.32291 V 101.6 100.27708 H 117.07812 114.3 v -1.322912 -1.322917 h -1.32292 -1.32292 v -1.455208 -1.455209 h -1.45521 -1.4552 v -1.322916 -1.322917 h -1.32292 -1.32292 v -1.455208 -1.455209 h -1.32291 -1.32292 v -1.322917 -1.322916 h -1.45521 -1.45521 v -1.455209 -1.455208 h 1.45521 1.45521 v 1.455208 1.455209 h 2.64583 2.64584 v 1.322916 1.322917 h 1.4552 1.45521 v 1.455209 1.455208 h 1.32292 1.32292 v 1.322917 1.322916 h 2.77812 2.77813 v 1.455209 1.455208 h 2.77812 2.77813 v 1.322917 1.322912 h 1.32291 1.32292 v 1.32292 1.32292 h 1.45521 1.45521 v 1.45521 1.4552 h 2.77812 2.77813 v 2.77813 2.77813 h -1.45521 -1.45521 z m 8.20208,0 v -1.45521 h 1.45521 1.45521 v 1.45521 1.45521 h -1.45521 -1.45521 z m 5.55625,-2.77813 v -1.32292 h 1.45521 1.45521 v -1.4552 -1.45521 h 1.32292 1.32291 V 101.6 100.27708 h 1.32292 1.32292 v -1.322912 -1.322917 h 1.45521 1.4552 v -1.455208 -1.455209 h 1.32292 1.32292 v -1.322916 -1.322917 h 1.45521 1.4552 v -1.455208 -1.455209 h 1.32292 1.32292 v 1.455209 1.455208 h -1.32292 -1.32292 v 1.322917 1.322916 h -1.4552 -1.45521 v 1.455209 1.455208 h -1.32292 -1.32292 v 1.322917 1.322912 h -1.4552 -1.45521 v 1.32292 1.32292 h -1.32292 -1.32292 v 1.45521 1.4552 h -1.32291 -1.32292 v 1.32292 1.32292 h -1.45521 -1.45521 z m 24.87084,-19.314583 v -1.322916 h 1.32291 1.32292 v 1.322916 1.322917 h -1.32292 -1.32291 z m -5.55625,-5.55625 v -1.322916 h 8.33437 8.33438 v 1.322916 1.322917 h -8.33438 -8.33437 z M 92.339578,79.639584 V 78.316667 H 90.88437 89.429161 V 76.861459 75.40625 H 88.106244 86.783328 V 74.083334 72.760417 H 85.460411 84.137494 V 71.305208 69.85 h 1.322917 1.322917 v 1.455208 1.455209 h 1.322916 1.322917 v 1.322917 1.322916 h 1.455209 1.455208 v 1.455209 1.455208 h 1.322917 1.322916 v 1.322917 1.322917 H 93.662495 92.339578 Z M 144.72708,68.527083 v -1.322916 h 1.32292 1.32291 V 65.88125 64.558333 H 162.58646 177.8 v 1.322917 1.322917 H 165.36458 152.92916 V 68.527083 69.85 h -4.10104 -4.10104 z M 94.985411,64.426042 v -2.778126 h 1.455209 1.455208 v 2.778126 2.778125 H 96.44062 94.985411 Z M 84.137494,60.325 v -1.322917 h 1.322917 1.322917 v -1.455208 -1.455209 h 1.322916 1.322917 V 54.76875 53.445833 h 1.455209 1.455208 v -1.455209 -1.455208 h 1.322917 1.322916 v -1.322917 -1.322916 h 1.455209 1.455208 v -1.322917 -1.322917 h 1.322917 1.322915 v -1.455208 -1.455209 h 1.45521 1.45521 v -1.322916 -1.322917 h 1.32292 1.32291 v -1.455208 -1.455209 h 1.32292 1.32292 v -1.322917 -1.322916 h 1.4552 1.45521 v -1.322917 -1.322917 h 1.32292 1.32292 v -1.455208 -1.455209 h 1.4552 1.45521 v -1.322916 -1.322917 h 1.32292 1.32292 v -1.455208 -1.455209 h 1.32291 1.32292 v -1.322916 -1.322917 h 1.45521 1.45521 v -1.455209 -1.455208 h 1.32291 1.32292 v -1.322917 -1.322916 h 1.45521 1.45521 v -1.322917 -1.322917 h 1.32291 1.32292 v 1.322917 1.322917 h -1.32292 -1.32291 v 1.322916 1.322917 h -1.45521 -1.45521 v 1.455208 1.455209 h -1.32292 -1.32291 v 1.322917 1.322916 h -1.45521 -1.45521 v 1.455209 1.455208 h -1.32292 -1.32291 v 1.322917 1.322916 h -1.32292 -1.32292 v 1.455209 1.455208 H 115.7552 114.3 v 1.322917 1.322917 h -1.32292 -1.32292 v 1.322916 1.322917 h -1.45521 -1.4552 v 1.455209 1.455208 h -1.32292 -1.32292 v 1.322917 1.322916 h -1.32291 -1.32292 v 1.455209 1.455208 h -1.45521 -1.45521 v 1.322917 1.322917 h -1.322915 -1.322917 v 1.322916 1.322917 H 96.44062 94.985411 v 1.455208 1.455209 h -1.322916 -1.322917 v 1.322917 1.322916 H 90.88437 89.429161 v 1.455209 1.455208 H 88.106244 86.783328 V 60.325 61.647916 h -1.322917 -1.322917 z m 13.758334,-2.778125 v -1.455209 h 1.322917 1.322915 V 54.76875 53.445833 h 1.45521 1.45521 v -1.455209 -1.455208 h 1.32292 1.32291 v -1.322917 -1.322916 h 1.32292 1.32292 v -1.322917 -1.322917 h 1.4552 1.45521 v -1.455208 -1.455209 h 1.32292 1.32292 v -1.322916 -1.322917 h 1.4552 1.45521 v -1.455208 -1.455209 h 1.32292 1.32292 v -1.322917 -1.322916 h 1.32291 1.32292 v -1.322917 -1.322917 h 1.45521 1.45521 v -1.455208 -1.455209 h 1.32291 1.32292 v -1.322916 -1.322917 h 1.45521 1.45521 v 1.322917 1.322916 h -1.45521 -1.45521 v 1.455209 1.455208 h -1.32292 -1.32291 v 1.322917 1.322917 h -1.45521 -1.45521 v 1.322916 1.322917 h -1.32292 -1.32291 v 1.455209 1.455208 h -1.32292 -1.32292 v 1.322917 1.322916 H 115.7552 114.3 v 1.455209 1.455208 h -1.32292 -1.32292 v 1.322917 1.322917 h -1.45521 -1.4552 v 1.322916 1.322917 h -1.32292 -1.32292 v 1.455208 1.455209 h -1.32291 -1.32292 v 1.322917 1.322916 h -1.45521 -1.45521 v 1.455209 1.455208 h -1.322915 -1.322917 z m 88.106252,-5.556251 v -1.455208 h 1.32292 1.32292 v 1.455208 1.455209 h -1.32292 -1.32292 z m -21.96042,-8.202083 v -1.455209 h -1.4552 -1.45521 v -1.322916 -1.322917 h -1.32292 -1.32292 v -1.455208 -1.455209 h -1.4552 -1.45521 v -1.322917 -1.322916 h -1.32292 -1.32292 v -1.322917 -1.322917 h -1.32291 -1.32292 v -1.455208 -1.455209 h 1.32292 1.32291 v 1.455209 1.455208 h 1.32292 1.32292 v 1.322917 1.322917 h 2.77812 2.77813 v 1.322916 1.322917 h 1.45521 1.4552 v 1.455209 1.455208 h 1.32292 1.32292 v 1.322917 1.322916 h 2.77812 2.77813 v 1.455209 1.455208 h -4.10104 -4.10105 z M 144.72708,27.252082 v -1.322917 h 1.32292 1.32291 v 1.322917 1.322916 H 146.05 144.72708 Z m -11.1125,-2.778125 v -1.455209 h 4.10104 4.10104 v 1.455209 1.455208 h -4.10104 -4.10104 z m 8.20208,-13.758334 V 9.2604144 h 1.45521 1.45521 v 1.4552086 1.455208 h -1.45521 -1.45521 z"
       id="path19" /><path
       style="fill:#c6bfc0"
       d="m 125.4125,109.93438 v -1.45521 h -1.45521 -1.45521 v -1.32292 -1.32292 h -1.32292 -1.32291 v -1.4552 -1.45521 h -1.32292 -1.32292 V 101.6 100.27708 h 1.32292 1.32292 v 1.32292 1.32292 h 1.32291 1.32292 v 1.45521 1.4552 h 2.77812 2.77813 v 1.32292 1.32292 h 2.77812 2.77813 v 1.45521 1.45521 h -4.10104 -4.10104 z m 19.31458,0 v -1.45521 h 1.32292 1.32291 v 1.45521 1.45521 H 146.05 144.72708 Z m -5.55625,-5.55625 v -1.45521 h 1.32292 1.32291 v 1.45521 1.4552 h -1.32291 -1.32292 z m 5.55625,0 v -1.45521 h 1.32292 1.32291 V 101.6 100.27708 h 1.45521 1.45521 v -1.322912 -1.322917 h 1.32292 1.32291 v -1.455208 -1.455209 h 1.32292 1.32292 v -1.322916 -1.322917 h 1.45521 1.4552 v -1.455208 -1.455209 h 1.32292 1.32292 v -1.322917 -1.322916 h 1.45521 1.4552 v 1.322916 1.322917 h -1.4552 -1.45521 v 1.455209 1.455208 h -1.32292 -1.32292 v 1.322917 1.322916 h -1.4552 -1.45521 v 1.455209 1.455208 h -1.32292 -1.32292 v 1.322917 1.322912 h -1.32291 -1.32292 v 1.32292 1.32292 h -1.45521 -1.45521 v 1.45521 1.4552 H 146.05 144.72708 Z m -41.275,-13.758337 v -1.455209 h -1.45521 -1.45521 V 87.841667 86.518751 H 99.218745 97.895828 V 85.063542 83.608334 H 96.44062 94.985411 v -1.322917 -1.322916 h 1.455209 1.455208 v 1.322916 1.322917 h 1.322917 1.322915 v 1.455208 1.455209 h 1.45521 1.45521 v 1.322916 1.322917 h 1.32292 1.32291 v 1.455209 1.455208 h -1.32291 -1.32292 z m 49.47708,-22.09271 v -1.322916 h 9.6573 9.65729 V 68.527083 69.85 h -9.65729 -9.6573 z M 177.8,65.88125 v -1.322917 h 4.10104 4.10104 v 1.322917 1.322917 H 181.90104 177.8 Z M 81.227078,63.103125 v -1.455209 h 1.455208 1.455208 v 1.455209 1.455208 h -1.455208 -1.455208 z m 71.702082,-27.64896 v -1.322916 h -1.32291 -1.32292 v -1.322917 -1.322917 h -1.45521 -1.45521 v -1.455208 -1.455209 h 1.45521 1.45521 v 1.455209 1.455208 h 1.32292 1.32291 v 1.322917 1.322917 h 1.32292 1.32292 v 1.322916 1.322917 h -1.32292 -1.32292 z m 0,-13.758333 v -1.322917 h -1.32291 -1.32292 v -1.455209 -1.455208 h -1.45521 -1.45521 V 16.139581 14.816665 H 146.05 144.72708 v -1.322917 -1.322917 h 1.32292 1.32291 v 1.322917 1.322917 h 1.45521 1.45521 v 1.322916 1.322917 h 1.32292 1.32291 v 1.455208 1.455209 h 1.32292 1.32292 v 1.322917 1.322916 h -1.32292 -1.32292 z"
       id="path18" /><path
       style="fill:#c3bdbe"
       d="m 130.96875,115.35834 v -1.32292 h -1.45521 -1.45521 v -1.32292 -1.32291 h 6.87917 6.87916 v 1.32291 1.32292 h -1.32291 -1.32292 v 1.32292 1.32291 h -4.10104 -4.10104 z m 5.55625,-10.98021 v -1.45521 h 1.32291 1.32292 v 1.45521 1.4552 H 137.84791 136.525 Z M 114.3,101.6 v -1.32292 h -1.32292 -1.32292 v -1.322912 -1.322917 h -1.45521 -1.4552 v -1.455208 -1.455209 h -1.32292 -1.32292 v -1.322916 -1.322917 h 1.32292 1.32292 v 1.322917 1.322916 h 1.4552 1.45521 v 1.455209 1.455208 h 1.32292 1.32292 v 1.322917 1.322912 h 1.4552 1.45521 V 101.6 102.92292 H 115.7552 114.3 Z m 69.05625,-19.314583 v -1.322916 h 1.32291 1.32292 v 1.322916 1.322917 h -1.32292 -1.32291 z M 172.24375,68.527083 V 67.204167 H 177.8 183.35625 V 68.527083 69.85 H 177.8 172.24375 Z m 13.75833,-2.645833 v -1.322917 h 2.77813 2.77812 v 1.322917 1.322917 h -2.77812 -2.77813 z M 97.895828,60.325 v -1.322917 h 1.322917 1.322915 V 60.325 61.647916 H 99.218745 97.895828 Z M 161.13125,43.788541 v -1.455209 h -1.32292 -1.32292 v -1.322916 -1.322917 h -1.4552 -1.45521 v -1.455208 -1.455209 h 1.45521 1.4552 v 1.455209 1.455208 h 1.32292 1.32292 v 1.322917 1.322916 h 1.45521 1.4552 v 1.455209 1.455208 h -1.4552 -1.45521 z m 5.55625,-8.334376 v -1.322916 h -1.32292 -1.32292 v -1.322917 -1.322917 h -1.4552 -1.45521 v -1.455208 -1.455209 h -1.32292 -1.32292 v -1.322916 -1.322917 h -1.4552 -1.45521 v -1.455208 -1.455209 h 1.45521 1.4552 v 1.455209 1.455208 h 1.32292 1.32292 v 1.322917 1.322916 h 1.45521 1.4552 v 1.455209 1.455208 h 1.32292 1.32292 v 1.322917 1.322917 h 1.45521 1.4552 v 1.322916 1.322917 h -1.4552 -1.45521 z M 133.61458,10.715623 V 9.2604144 h 1.45521 1.45521 v 1.4552086 1.455208 h -1.45521 -1.45521 z"
       id="path17" /><path
       style="fill:#aeaeb0"
       d="m 136.525,120.91459 v -1.32292 h -2.77813 -2.77812 v -1.45521 -1.45521 h -1.45521 -1.45521 v -1.32291 -1.32292 h -1.32292 -1.32291 v -1.32292 -1.32291 h -1.45521 -1.45521 v -1.45521 -1.45521 h -1.32292 -1.32291 v -1.32292 -1.32292 h -1.32292 -1.32292 v -1.4552 -1.45521 h 1.32292 1.32292 v 1.45521 1.4552 h 1.32291 1.32292 v 1.32292 1.32292 h 1.45521 1.45521 v 1.45521 1.45521 h 1.32291 1.32292 v 1.32291 1.32292 h 1.45521 1.45521 v 1.32292 1.32291 h 4.10104 4.10104 v -1.32291 -1.32292 h 1.32292 1.32291 v -1.32292 -1.32291 h 2.77813 2.77812 v -1.45521 -1.45521 h 1.45521 1.45521 v -1.32292 -1.32292 h 1.32292 1.32291 v -1.4552 -1.45521 h 1.32292 1.32292 V 101.6 100.27708 h 1.45521 1.4552 v -1.322912 -1.322917 h 1.32292 1.32292 v -1.455208 -1.455209 h 1.45521 1.4552 v -1.322916 -1.322917 h 1.32292 1.32292 v -1.455208 -1.455209 h 1.45521 1.4552 v 1.455209 1.455208 h -1.4552 -1.45521 v 1.322917 1.322916 h -1.32292 -1.32292 v 1.455209 1.455208 h -1.4552 -1.45521 v 1.322917 1.322912 h -1.32292 -1.32292 v 1.32292 1.32292 h -1.4552 -1.45521 v 1.45521 1.4552 h -1.32292 -1.32292 v 1.32292 1.32292 h -1.32291 -1.32292 v 1.45521 1.45521 h -1.45521 -1.45521 v 1.32291 1.32292 H 146.05 144.72708 v 1.32292 1.32291 h -1.45521 -1.45521 v 1.45521 1.45521 h -1.32291 -1.32292 v 1.32292 1.32291 h -1.32292 -1.32291 z m 0,-13.75834 v -1.32292 h 2.64583 2.64583 v 1.32292 1.32292 h -2.64583 -2.64583 z m -5.55625,-2.77812 v -1.45521 h 1.32291 1.32292 v 1.45521 1.4552 h -1.32292 -1.32291 z M 144.72708,101.6 v -1.32292 h 1.32292 1.32291 v -1.322912 -1.322917 h 1.45521 1.45521 v -1.455208 -1.455209 h 1.32292 1.32291 v -1.322916 -1.322917 h 1.32292 1.32292 v -1.455208 -1.455209 h 1.45521 1.4552 v -1.322917 -1.322916 h 1.32292 1.32292 v -1.455209 -1.455208 h 1.45521 1.4552 v 1.455208 1.455209 h -1.4552 -1.45521 v 1.322916 1.322917 h -1.32292 -1.32292 v 1.455209 1.455208 h -1.4552 -1.45521 v 1.322917 1.322916 h -1.32292 -1.32292 v 1.455209 1.455208 h -1.32291 -1.32292 v 1.322917 1.322912 h -1.45521 -1.45521 V 101.6 102.92292 H 146.05 144.72708 Z m -24.87083,-8.202082 v -1.322917 h -1.32292 -1.32292 V 90.619793 89.164584 H 115.7552 114.3 v -1.322917 -1.322916 h -1.32292 -1.32292 v -1.455209 -1.455208 h -1.45521 -1.4552 v -1.322917 -1.322916 h -1.32292 -1.32292 V 79.639584 78.316667 H 104.775 103.45208 V 76.861459 75.40625 h -1.45521 -1.45521 V 74.083334 72.760417 H 99.218745 97.895828 V 71.305208 69.85 h 1.322917 1.322915 v 1.455208 1.455209 h 1.45521 1.45521 v 1.322917 1.322916 h 1.32292 1.32291 v 1.455209 1.455208 h 1.32292 1.32292 v 1.322917 1.322917 h 1.4552 1.45521 v 1.322916 1.322917 h 1.32292 1.32292 v 1.455208 1.455209 h 1.4552 1.45521 v 1.322916 1.322917 h 1.32292 1.32292 v 1.455209 1.455208 h 1.32291 1.32292 v 1.322917 1.322916 h -1.32292 -1.32291 z m 21.96041,-22.09271 V 69.85 h 1.45521 1.45521 v 1.455208 1.455209 h -1.45521 -1.45521 z m 41.53959,-2.778125 v -1.322916 h 4.10104 4.10104 V 65.88125 64.558333 h 1.32292 1.32292 v -1.455208 -1.455209 h 1.4552 1.45521 v 1.455209 1.455208 h -1.45521 -1.4552 V 67.204167 69.85 h -5.42396 -5.42396 z M 78.581244,63.103125 v -1.455209 h 1.322917 1.322917 v 1.455209 1.455208 h -1.322917 -1.322917 z m 21.960416,-5.55625 v -1.455209 h 1.45521 1.45521 V 54.76875 53.445833 h 1.32292 1.32291 v -1.455209 -1.455208 h 1.32292 1.32292 v -1.322917 -1.322916 h 1.4552 1.45521 v -1.322917 -1.322917 h 1.32292 1.32292 v -1.455208 -1.455209 h 1.4552 1.45521 v -1.322916 -1.322917 h 1.32292 1.32292 v -1.455208 -1.455209 h 1.32291 1.32292 v -1.322917 -1.322916 h 1.45521 1.45521 v -1.322917 -1.322917 h 1.32291 1.32292 v -1.455208 -1.455209 h 1.45521 1.45521 v -1.322916 -1.322917 h 1.32291 1.32292 v 1.322917 1.322916 h -1.32292 -1.32291 v 1.455209 1.455208 h -1.45521 -1.45521 v 1.322917 1.322917 h -1.32292 -1.32291 v 1.322916 1.322917 h -1.45521 -1.45521 v 1.455209 1.455208 h -1.32292 -1.32291 v 1.322917 1.322916 h -1.32292 -1.32292 v 1.455209 1.455208 H 115.7552 114.3 v 1.322917 1.322917 h -1.32292 -1.32292 v 1.322916 1.322917 h -1.45521 -1.4552 v 1.455208 1.455209 h -1.32292 -1.32292 v 1.322917 1.322916 h -1.32291 -1.32292 v 1.455209 1.455208 h -1.45521 -1.45521 z m 63.5,-5.556251 v -1.455208 h 9.6573 9.65729 v 1.455208 1.455209 h -9.65729 -9.6573 z m 0,-5.423958 v -1.322917 h 5.42396 5.42396 v -1.455208 -1.455209 h -1.32292 -1.32291 v -1.322916 -1.322917 h -1.32292 -1.32292 v -1.455208 -1.455209 h 1.32292 1.32292 v 1.455209 1.455208 h 1.32291 1.32292 v 1.322917 1.322916 h 1.45521 1.45521 v 2.778125 2.778126 h -6.87917 -6.87917 z M 133.61458,7.9374977 V 6.614581 h 1.45521 1.45521 v 1.3229167 1.3229167 h -1.45521 -1.45521 z"
       id="path16" /><path
       style="fill:#959da3"
       d="m 133.61458,120.91459 v -1.32292 h 1.45521 1.45521 v 1.32292 1.32291 h -1.45521 -1.45521 z m 5.55625,0 v -1.32292 h 1.32292 1.32291 v -1.45521 -1.45521 h 1.45521 1.45521 v -1.32291 -1.32292 h 1.32292 1.32291 v -1.32292 -1.32291 h 1.45521 1.45521 v -1.45521 -1.45521 h 1.32292 1.32291 v -1.32292 -1.32292 h 1.32292 1.32292 v -1.4552 -1.45521 h 1.45521 1.4552 V 101.6 100.27708 h 1.32292 1.32292 v -1.322912 -1.322917 h 1.45521 1.4552 v -1.455208 -1.455209 h 1.32292 1.32292 v -1.322916 -1.322917 h 1.45521 1.4552 v -1.455208 -1.455209 h 1.32292 1.32292 v 1.455209 1.455208 h -1.32292 -1.32292 v 1.322917 1.322916 h -1.4552 -1.45521 v 1.455209 1.455208 h -1.32292 -1.32292 v 1.322917 1.322912 h -1.4552 -1.45521 v 1.32292 1.32292 h -1.32292 -1.32292 v 1.45521 1.4552 h -1.4552 -1.45521 v 1.32292 1.32292 h -1.32292 -1.32292 v 1.45521 1.45521 h -1.32291 -1.32292 v 1.32291 1.32292 h -1.45521 -1.45521 v 1.32292 1.32291 H 146.05 144.72708 v 1.45521 1.45521 h -1.45521 -1.45521 v 1.32292 1.32291 h -1.32291 -1.32292 z M 128.05833,101.6 v -1.32292 h -1.32292 -1.32291 v -1.322912 -1.322917 h -1.45521 -1.45521 v -1.455208 -1.455209 h 1.45521 1.45521 v 1.455209 1.455208 h 1.32291 1.32292 v 1.322917 1.322912 h 1.45521 1.45521 v 1.32292 1.32292 h -1.45521 -1.45521 z m 46.83125,-13.758333 v -1.322916 h 1.45521 1.45521 v 1.322916 1.322917 h -1.45521 -1.45521 z m -8.20208,-2.778125 v -1.455208 h 1.45521 1.4552 v 1.455208 1.455209 h -1.4552 -1.45521 z M 144.72708,71.305208 V 69.85 h 1.32292 1.32291 v 1.455208 1.455209 H 146.05 144.72708 Z M 81.227078,60.325 v -1.322917 h 1.455208 1.455208 v -1.455208 -1.455209 h 1.322917 1.322917 V 54.76875 53.445833 h 1.322916 1.322917 v -1.455209 -1.455208 h 1.455209 1.455208 v -1.322917 -1.322916 h 1.322917 1.322916 v -1.322917 -1.322917 h 1.455209 1.455208 v -1.455208 -1.455209 h 1.322917 1.322915 v -1.322916 -1.322917 h 1.45521 1.45521 v -1.455208 -1.455209 h 1.32292 1.32291 v -1.322917 -1.322916 h 1.32292 1.32292 v -1.322917 -1.322917 h 1.4552 1.45521 v -1.455208 -1.455209 h 1.32292 1.32292 v -1.322916 -1.322917 h 1.4552 1.45521 v -1.455208 -1.455209 h 1.32292 1.32292 v -1.322916 -1.322917 h 1.32291 1.32292 v -1.455209 -1.455208 h 1.45521 1.45521 v -1.322917 -1.322916 h 1.32291 1.32292 v -1.322917 -1.322917 h 1.45521 1.45521 V 10.715623 9.2604144 h 1.32291 1.32292 v 1.4552086 1.455208 h -1.32292 -1.32291 v 1.322917 1.322917 h -1.45521 -1.45521 v 1.322916 1.322917 h -1.32292 -1.32291 v 1.455208 1.455209 h -1.45521 -1.45521 v 1.322917 1.322916 h -1.32292 -1.32291 v 1.455209 1.455208 h -1.32292 -1.32292 v 1.322917 1.322916 H 115.7552 114.3 v 1.455209 1.455208 h -1.32292 -1.32292 v 1.322917 1.322917 h -1.45521 -1.4552 v 1.322916 1.322917 h -1.32292 -1.32292 v 1.455209 1.455208 h -1.32291 -1.32292 v 1.322917 1.322916 h -1.45521 -1.45521 v 1.455209 1.455208 h -1.322915 -1.322917 v 1.322917 1.322917 H 96.44062 94.985411 v 1.322916 1.322917 h -1.322916 -1.322917 v 1.455208 1.455209 H 90.88437 89.429161 v 1.322917 1.322916 h -1.322917 -1.322916 v 1.455209 1.455208 H 85.460411 84.137494 V 60.325 61.647916 H 82.682286 81.227078 Z M 183.35625,51.990624 v -1.455208 h 1.32291 1.32292 v 1.455208 1.455209 h -1.32292 -1.32291 z M 177.8,46.566666 v -1.322917 h 1.32291 1.32292 v 1.322917 1.322917 H 179.12291 177.8 Z M 139.17083,30.030207 v -1.455209 h 1.32292 1.32291 v 1.455209 1.455208 h -1.32291 -1.32292 z M 141.81666,7.9374977 V 6.614581 h 1.45521 1.45521 v 1.3229167 1.3229167 h -1.45521 -1.45521 z"
       id="path15" /><path
       style="fill:#869096"
       d="m 141.81666,104.37813 v -1.45521 h 1.45521 1.45521 v 1.45521 1.4552 h -1.45521 -1.45521 z M 97.895828,87.841667 V 86.518751 H 96.44062 94.985411 V 85.063542 83.608334 H 93.662495 92.339578 V 82.285417 80.962501 H 90.88437 89.429161 V 79.639584 78.316667 H 88.106244 86.783328 V 76.861459 75.40625 H 85.460411 84.137494 V 74.083334 72.760417 H 81.359369 78.581244 V 71.305208 69.85 h 2.778125 2.778125 v 1.455208 1.455209 h 1.322917 1.322917 v 1.322917 1.322916 h 1.322916 1.322917 v 1.455209 1.455208 h 1.455209 1.455208 v 1.322917 1.322917 h 1.322917 1.322916 v 1.322916 1.322917 h 1.455209 1.455208 v 1.455208 1.455209 h 1.322917 1.322915 v 1.322916 1.322917 h -1.322915 -1.322917 z m 66.145832,-2.778125 v -1.455208 h 1.32292 1.32292 v 1.455208 1.455209 h -1.32292 -1.32292 z m 5.55625,0 v -1.455208 h 4.10105 4.10104 v 1.455208 1.455209 h -4.10104 -4.10105 z m -22.225,-13.758334 V 69.85 h 12.43542 12.43542 v 1.455208 1.455209 h -12.43542 -12.43542 z m -46.83125,-4.101041 v -2.645834 h -1.322915 -1.322917 v -1.455208 -1.455209 h 1.322917 1.322915 v 1.455209 1.455208 h 1.45521 1.45521 V 67.204167 69.85 h -1.45521 -1.45521 z m 93.66251,-1.322917 v -1.322917 h 1.4552 1.45521 v 1.322917 1.322917 h -1.45521 -1.4552 z M 136.525,30.030207 v -1.455209 h -1.45521 -1.45521 v -1.322916 -1.322917 h 1.45521 1.45521 v 1.322917 1.322916 h 1.32291 1.32292 v 1.455209 1.455208 h -1.32292 -1.32291 z m 5.29166,-2.778125 v -1.322917 h 1.45521 1.45521 v 1.322917 1.322916 h -1.45521 -1.45521 z"
       id="path14" /><path
       style="fill:#74828a"
       d="m 141.81666,120.91459 v -1.32292 h 1.45521 1.45521 v -1.45521 -1.45521 h 1.32292 1.32291 v -1.32291 -1.32292 h 1.45521 1.45521 v -1.32292 -1.32291 h 1.32292 1.32291 v -1.45521 -1.45521 h 1.32292 1.32292 v -1.32292 -1.32292 h 1.45521 1.4552 v -1.4552 -1.45521 h 1.32292 1.32292 V 101.6 100.27708 h 1.45521 1.4552 v -1.322912 -1.322917 h 1.32292 1.32292 v -1.455208 -1.455209 h 1.45521 1.4552 v -1.322916 -1.322917 h 1.32292 1.32292 v -1.455208 -1.455209 h 1.32291 1.32292 v 1.455209 1.455208 h -1.32292 -1.32291 v 1.322917 1.322916 h -1.32292 -1.32292 v 1.455209 1.455208 h -1.4552 -1.45521 v 1.322917 1.322912 h -1.32292 -1.32292 v 1.32292 1.32292 h -1.4552 -1.45521 v 1.45521 1.4552 h -1.32292 -1.32292 v 1.32292 1.32292 h -1.4552 -1.45521 v 1.45521 1.45521 h -1.32292 -1.32292 v 1.32291 1.32292 h -1.32291 -1.32292 v 1.32292 1.32291 h -1.45521 -1.45521 v 1.45521 1.45521 H 146.05 144.72708 v 1.32292 1.32291 h -1.45521 -1.45521 z M 108.74375,98.954168 v -1.322917 h -1.32292 -1.32292 v -1.455208 -1.455209 h -1.32291 -1.32292 v -1.322916 -1.322917 h -1.45521 -1.45521 v -1.455208 -1.455209 h 1.45521 1.45521 v 1.455209 1.455208 h 1.32292 1.32291 v 1.322917 1.322916 h 1.32292 1.32292 v 1.455209 1.455208 h 1.4552 1.45521 v 1.322917 1.322912 h -1.45521 -1.4552 z M 114.3,85.063542 v -1.455208 h 1.4552 1.45521 v 1.455208 1.455209 H 115.7552 114.3 Z m 63.5,0 v -1.455208 h 1.32291 1.32292 v 1.455208 1.455209 H 179.12291 177.8 Z m -69.05625,-5.423958 v -1.322917 h -1.32292 -1.32292 V 76.861459 75.40625 h -1.32291 -1.32292 v -1.322916 -1.322917 h 1.32292 1.32291 v 1.322917 1.322916 h 1.32292 1.32292 v 1.455209 1.455208 h 1.4552 1.45521 v 1.322917 1.322917 h -1.45521 -1.4552 z m 63.5,-8.334376 V 69.85 h 8.20208 8.20209 v 1.455208 1.455209 h -8.20209 -8.20208 z m 21.96042,-2.778125 v -1.322916 h 1.4552 1.45521 V 68.527083 69.85 h -1.45521 -1.4552 z M 100.54166,60.325 v -1.322917 h 1.45521 1.45521 V 60.325 61.647916 h -1.45521 -1.45521 z m 38.62917,0 v -1.322917 h 1.32292 1.32291 V 60.325 61.647916 h -1.32291 -1.32292 z M 111.65416,49.212499 v -1.322916 h 1.32292 1.32292 v -1.322917 -1.322917 h 1.4552 1.45521 v -1.455208 -1.455209 h 1.32292 1.32292 v -1.322916 -1.322917 h 1.32291 1.32292 v -1.455208 -1.455209 h 1.45521 1.45521 v -1.322917 -1.322916 h 1.32291 1.32292 v -1.322917 -1.322917 h 1.45521 1.45521 v -1.455208 -1.455209 h 1.32291 1.32292 v 1.455209 1.455208 h -1.32292 -1.32291 v 1.322917 1.322917 h -1.45521 -1.45521 v 1.322916 1.322917 h -1.32292 -1.32291 v 1.455209 1.455208 h -1.45521 -1.45521 v 1.322917 1.322916 h -1.32292 -1.32291 v 1.455209 1.455208 h -1.32292 -1.32292 v 1.322917 1.322917 H 115.7552 114.3 v 1.322916 1.322917 h -1.32292 -1.32292 z M 155.575,43.788541 v -1.455209 h -1.32292 -1.32292 v -1.322916 -1.322917 h -1.32291 -1.32292 v -1.455208 -1.455209 h -1.45521 -1.45521 v -1.322917 -1.322916 h 1.45521 1.45521 v 1.322916 1.322917 h 1.32292 1.32291 v 1.455209 1.455208 h 1.32292 1.32292 v 1.322917 1.322916 h 1.45521 1.4552 v 1.455209 1.455208 h -1.4552 -1.45521 z M 144.72708,10.715623 V 9.2604144 h 1.32292 1.32291 v 1.4552086 1.455208 H 146.05 144.72708 Z"
       id="path13" /><path
       style="fill:#6b7b84"
       d="m 133.61458,126.47084 v -1.32292 h 1.45521 1.45521 v 1.32292 1.32291 h -1.45521 -1.45521 z m -13.75833,-16.53646 v -1.45521 h -1.32292 -1.32292 v -1.32292 -1.32292 H 115.7552 114.3 v -1.4552 -1.45521 h -1.32292 -1.32292 V 101.6 100.27708 h 1.32292 1.32292 v 1.32292 1.32292 h 1.4552 1.45521 v 1.45521 1.4552 h 1.32292 1.32292 v 1.32292 1.32292 h 1.32291 1.32292 v 1.45521 1.45521 h -1.32292 -1.32291 z m 13.75833,-5.55625 v -1.45521 h -1.32292 -1.32291 V 101.6 100.27708 h -1.45521 -1.45521 v -1.322912 -1.322917 h -1.32292 -1.32291 v -1.455208 -1.455209 h -1.45521 -1.45521 v -1.322916 -1.322917 h -1.32292 -1.32291 v -1.455208 -1.455209 h -1.32292 -1.32292 v -1.322917 -1.322916 h 1.32292 1.32292 v 1.322916 1.322917 h 1.32291 1.32292 v 1.455209 1.455208 h 1.45521 1.45521 v 1.322917 1.322916 h 1.32291 1.32292 v 1.455209 1.455208 h 1.45521 1.45521 v 1.322917 1.322912 h 1.32291 1.32292 v 1.32292 1.32292 h 1.45521 1.45521 v 1.45521 1.4552 h -1.45521 -1.45521 z M 111.65416,82.285417 v -1.322916 h 1.32292 1.32292 v 1.322916 1.322917 h -1.32292 -1.32292 z M 188.64792,71.305208 V 69.85 h 2.77812 2.77813 v 1.455208 1.455209 h -2.77813 -2.77812 z M 103.45208,57.546875 v -1.455209 h 1.32292 1.32291 V 54.76875 53.445833 h 1.32292 1.32292 v -1.455209 -1.455208 h 1.4552 1.45521 v 1.455208 1.455209 h -1.45521 -1.4552 v 1.322917 1.322916 h -1.32292 -1.32292 v 1.455209 1.455208 h -1.32291 -1.32292 z m 57.67917,-8.334376 v -1.322916 h -1.32292 -1.32292 v -1.322917 -1.322917 h 1.32292 1.32292 v 1.322917 1.322917 h 1.45521 1.4552 v 1.322916 1.322917 h -1.4552 -1.45521 z M 155.575,41.010416 v -1.322917 h -1.32292 -1.32292 v -1.455208 -1.455209 h -1.32291 -1.32292 v -1.322917 -1.322916 h -2.77812 -2.77813 v -2.778125 -2.778126 h 1.32292 1.32291 v 1.455209 1.455208 h 1.45521 1.45521 v 1.322917 1.322917 h 1.32292 1.32291 v 1.322916 1.322917 h 1.32292 1.32292 v 1.455209 1.455208 h 1.45521 1.4552 v 1.322917 1.322916 h -1.4552 -1.45521 z m 0,-19.314584 v -1.322917 h -1.32292 -1.32292 v -1.455209 -1.455208 h -1.32291 -1.32292 v -1.322917 -1.322916 h -1.45521 -1.45521 v -1.322917 -1.322917 h 1.45521 1.45521 v 1.322917 1.322917 h 1.32292 1.32291 v 1.322916 1.322917 h 1.32292 1.32292 v 1.455208 1.455209 h 1.45521 1.4552 v 1.322917 1.322916 h -1.4552 -1.45521 z"
       id="path12" /><path
       style="fill:#62737d"
       d="m 136.525,123.69271 v -1.45521 h 2.64583 2.64583 v 1.45521 1.45521 h -2.64583 -2.64583 z m -8.46667,-5.55625 v -1.45521 h -1.32292 -1.32291 v -1.32291 -1.32292 h -2.77813 -2.77812 v -1.32292 -1.32291 h -1.32292 -1.32292 v -1.45521 -1.45521 h 1.32292 1.32292 v 1.45521 1.45521 h 2.77812 2.77813 v 1.32291 1.32292 h 1.32291 1.32292 v 1.32292 1.32291 h 1.45521 1.45521 v 1.45521 1.45521 h -1.45521 -1.45521 z m -16.40417,-13.75833 v -1.45521 h 1.32292 1.32292 v 1.45521 1.4552 h -1.32292 -1.32292 z m -8.20208,-8.202087 v -1.455209 h -1.45521 -1.45521 V 93.397918 92.075001 H 99.218745 97.895828 V 90.619793 89.164584 H 96.44062 94.985411 v -1.322917 -1.322916 h 1.455209 1.455208 v 1.322916 1.322917 h 1.322917 1.322915 v 1.455209 1.455208 h 1.45521 1.45521 v 1.322917 1.322916 h 1.32292 1.32291 v 1.455209 1.455208 H 104.775 103.45208 Z M 89.429161,82.285417 V 80.962501 H 88.106244 86.783328 V 79.639584 78.316667 H 85.460411 84.137494 V 76.861459 75.40625 h -1.455208 -1.455208 v -1.322916 -1.322917 h 1.455208 1.455208 v 1.322917 1.322916 h 1.322917 1.322917 v 1.455209 1.455208 h 1.322916 1.322917 v 1.322917 1.322917 h 1.455209 1.455208 v 1.322916 1.322917 H 90.88437 89.429161 Z M 194.20417,71.305208 V 69.85 h 1.4552 1.45521 v 1.455208 1.455209 h -1.45521 -1.4552 z M 97.895828,68.527083 v -1.322916 h 1.322917 1.322915 V 68.527083 69.85 H 99.218745 97.895828 Z M 78.581244,65.88125 v -1.322917 h 1.322917 1.322917 v 1.322917 1.322917 h -1.322917 -1.322917 z m 60.589586,-2.778125 v -1.455209 h 1.32292 1.32291 V 60.325 59.002083 h 26.19375 26.19376 V 60.325 61.647916 h -26.19376 -26.19375 v 1.455209 1.455208 h -1.32291 -1.32292 z m 21.96042,-16.536459 v -1.322917 h -1.32292 -1.32292 v -1.455208 -1.455209 h 1.32292 1.32292 v 1.455209 1.455208 h 1.45521 1.4552 v 1.322917 1.322917 h -1.4552 -1.45521 z m 8.46666,-11.112501 v -1.322916 h -1.4552 -1.45521 v -1.322917 -1.322917 h -1.32292 -1.32292 v -1.455208 -1.455209 h -1.4552 -1.45521 v -1.322916 -1.322917 h -1.32292 -1.32292 v -1.455208 -1.455209 h 1.32292 1.32292 v 1.455209 1.455208 h 1.45521 1.4552 v 1.322917 1.322916 h 1.32292 1.32292 v 1.455209 1.455208 h 1.45521 1.4552 v 1.322917 1.322917 h 1.32292 1.32292 v 1.322916 1.322917 h -1.32292 -1.32292 z M 136.525,7.9374977 V 6.614581 h 2.64583 2.64583 v 1.3229167 1.3229167 h -2.64583 -2.64583 z"
       id="path11" /><path
       style="fill:#566973"
       d="m 141.81666,126.47084 v -1.32292 h 1.45521 1.45521 v 1.32292 1.32291 h -1.45521 -1.45521 z m -10.84791,-2.77813 v -1.45521 h -1.45521 -1.45521 v -1.32291 -1.32292 h -1.32292 -1.32291 v -1.45521 -1.45521 h -1.45521 -1.45521 v -1.32291 -1.32292 h 1.45521 1.45521 v 1.32292 1.32291 h 1.32291 1.32292 v 1.45521 1.45521 h 2.77812 2.77813 v 2.77812 2.77813 h -1.32292 -1.32291 z m 13.75833,-2.77812 v -1.32292 h 1.32292 1.32291 v -1.45521 -1.45521 h 1.45521 1.45521 v -1.32291 -1.32292 h 1.32292 1.32291 v -1.32292 -1.32291 h 1.32292 1.32292 v -1.45521 -1.45521 h 1.45521 1.4552 v -1.32292 -1.32292 h 1.32292 1.32292 v -1.4552 -1.45521 h 1.45521 1.4552 V 101.6 100.27708 h 1.32292 1.32292 v -1.322912 -1.322917 h 1.45521 1.4552 v -1.455208 -1.455209 h 1.32292 1.32292 v -1.322916 -1.322917 h 1.32291 1.32292 v -1.455208 -1.455209 h 1.45521 1.45521 v -1.322917 -1.322916 h 1.32291 1.32292 v 1.322916 1.322917 H 179.12291 177.8 v 1.455209 1.455208 h -1.45521 -1.45521 v 1.322917 1.322916 h -1.32292 -1.32291 v 1.455209 1.455208 h -1.32292 -1.32292 v 1.322917 1.322912 h -1.4552 -1.45521 v 1.32292 1.32292 h -1.32292 -1.32292 v 1.45521 1.4552 h -1.4552 -1.45521 v 1.32292 1.32292 h -1.32292 -1.32292 v 1.45521 1.45521 h -1.4552 -1.45521 v 1.32291 1.32292 h -1.32292 -1.32292 v 1.32292 1.32291 h -1.32291 -1.32292 v 1.45521 1.45521 h -1.45521 -1.45521 v 1.32292 1.32291 H 146.05 144.72708 Z M 114.3,107.15625 v -1.32292 h 1.4552 1.45521 v 1.32292 1.32292 H 115.7552 114.3 Z M 108.74375,101.6 v -1.32292 h -1.32292 -1.32292 v -1.322912 -1.322917 h 1.32292 1.32292 v 1.322917 1.322912 h 1.4552 1.45521 v 1.32292 1.32292 h -1.45521 -1.4552 z M 92.339578,85.063542 v -1.455208 h 1.322917 1.322916 v 1.455208 1.455209 H 93.662495 92.339578 Z M 100.54166,71.305208 V 69.85 h 1.45521 1.45521 v 1.455208 1.455209 h -1.45521 -1.45521 z M 78.581244,68.527083 v -1.322916 h 1.322917 1.322917 V 68.527083 69.85 h -1.322917 -1.322917 z m 60.589586,-1.322916 v -2.645834 h 1.32292 1.32291 V 67.204167 69.85 h -1.32291 -1.32292 z M 97.895828,65.88125 v -1.322917 h 1.322917 1.322915 v 1.322917 1.322917 H 99.218745 97.895828 Z M 103.45208,60.325 v -1.322917 h 1.32292 1.32291 v -1.455208 -1.455209 h 1.32292 1.32292 V 54.76875 53.445833 h 1.4552 1.45521 v -1.455209 -1.455208 h 1.32292 1.32292 v -1.322917 -1.322916 h 1.4552 1.45521 v -1.322917 -1.322917 h 1.32292 1.32292 v -1.455208 -1.455209 h 1.32291 1.32292 v -1.322916 -1.322917 h 1.45521 1.45521 v -1.455208 -1.455209 h 1.32291 1.32292 v -1.322917 -1.322916 h 1.45521 1.45521 v -1.322917 -1.322917 h 1.32291 1.32292 v 1.322917 1.322917 h -1.32292 -1.32291 v 1.322916 1.322917 h -1.45521 -1.45521 v 1.455209 1.455208 h -1.32292 -1.32291 v 1.322917 1.322916 h -1.45521 -1.45521 v 1.455209 1.455208 h -1.32292 -1.32291 v 1.322917 1.322917 h -1.32292 -1.32292 v 1.322916 1.322917 H 115.7552 114.3 v 1.455208 1.455209 h -1.32292 -1.32292 v 1.322917 1.322916 h -1.45521 -1.4552 v 1.455209 1.455208 h -1.32292 -1.32292 V 60.325 61.647916 h -1.32291 -1.32292 z m 90.75209,0 v -1.322917 h 1.4552 1.45521 V 60.325 61.647916 h -1.45521 -1.4552 z M 180.44583,46.566666 V 45.243749 H 179.12291 177.8 v -1.455208 -1.455209 h -1.45521 -1.45521 v -1.322916 -1.322917 h -1.32292 -1.32291 v -1.455208 -1.455209 h 1.32291 1.32292 v 1.455209 1.455208 h 1.45521 1.45521 v 1.322917 1.322916 h 1.32291 1.32292 v 1.455209 1.455208 h 1.45521 1.45521 v 1.322917 1.322917 h -1.45521 -1.45521 z M 141.81666,30.030207 v -1.455209 h -2.64583 -2.64583 v -1.322916 -1.322917 h 2.64583 2.64583 v 1.322917 1.322916 h 1.45521 1.45521 v 1.455209 1.455208 h -1.45521 -1.45521 z"
       id="path10" /><path
       style="fill:#354a53"
       d="m 133.61458,123.69271 v -1.45521 h 1.45521 1.45521 v 1.45521 1.45521 h -1.45521 -1.45521 z m 8.20208,0 v -1.45521 h 2.77813 2.77812 v -1.32291 -1.32292 h 1.45521 1.45521 v -1.45521 -1.45521 h 1.32292 1.32291 v -1.32291 -1.32292 h 1.32292 1.32292 v -1.32292 -1.32291 h 1.45521 1.4552 v -1.45521 -1.45521 h 1.32292 1.32292 v -1.32292 -1.32292 h 1.45521 1.4552 v -1.4552 -1.45521 h 1.32292 1.32292 V 101.6 100.27708 h 1.45521 1.4552 v -1.322912 -1.322917 h 1.32292 1.32292 v -1.455208 -1.455209 h 1.32291 1.32292 v -1.322916 -1.322917 h 1.45521 1.45521 v -1.455208 -1.455209 h 1.32291 1.32292 v -2.778125 -2.778125 h 2.77813 2.77812 v 1.455208 1.455209 h -1.32292 -1.32291 v 1.322916 1.322917 h -1.45521 -1.45521 v 1.455209 1.455208 H 179.12291 177.8 v 1.322917 1.322916 h -1.45521 -1.45521 v 1.455209 1.455208 h -1.32292 -1.32291 v 1.322917 1.322912 h -1.32292 -1.32292 v 1.32292 1.32292 h -1.4552 -1.45521 v 1.45521 1.4552 h -1.32292 -1.32292 v 1.32292 1.32292 h -1.4552 -1.45521 v 1.45521 1.45521 h -1.32292 -1.32292 v 1.32291 1.32292 h -1.4552 -1.45521 v 1.32292 1.32291 h -1.32292 -1.32292 v 1.45521 1.45521 h -1.32291 -1.32292 v 1.32292 1.32291 h -1.45521 -1.45521 v 1.45521 1.45521 h -2.77812 -2.77813 z M 139.17083,72.628125 V 69.85 h 1.32292 1.32291 v 2.778125 2.778125 h -1.32291 -1.32292 z m -38.62917,-9.525 v -1.455209 h 1.45521 1.45521 v 1.455209 1.455208 h -1.45521 -1.45521 z M 197.11458,60.325 v -1.322917 h 1.32292 1.32292 V 60.325 61.647916 h -1.32292 -1.32292 z M 164.04166,49.212499 v -1.322916 h 10.98021 10.98021 v 1.322916 1.322917 H 175.02187 164.04166 Z M 133.61458,30.030207 v -1.455209 h 1.45521 1.45521 v 1.455209 1.455208 h -1.45521 -1.45521 z"
       id="path9" /><path
       style="fill:#233741"
       d="m 136.525,126.47084 v -1.32292 h 1.32291 1.32292 v 1.32292 1.32291 h -1.32292 -1.32291 z m 5.29166,-52.387506 v -1.322917 h 16.53646 16.53646 v 1.322917 1.322916 h -16.53646 -16.53646 z m 55.29792,0 v -1.322917 h 1.32292 1.32292 v 1.322917 1.322916 h -1.32292 -1.32292 z m 0,-10.980209 v -1.455209 h 1.32292 1.32292 v 1.455209 1.455208 h -1.32292 -1.32292 z"
       id="path8" /><path
       style="fill:#1f313b"
       d="m 139.17083,126.47084 v -1.32292 h 1.32292 1.32291 v 1.32292 1.32291 h -1.32291 -1.32292 z m 35.71875,-52.387506 v -1.322917 h 11.1125 11.1125 v -4.101042 -4.101042 h 1.32292 1.32292 v 4.101042 4.101042 h -1.32292 -1.32292 v 1.322917 1.322916 h -11.1125 -11.1125 z"
       id="path7" /></g></svg>
