<?xml version="1.0" encoding="UTF-8" standalone="no"?>
<!-- Created with Inkscape (http://www.inkscape.org/) -->

<svg
   width="256mm"
   height="256mm"
   viewBox="0 0 256 256"
   version="1.1"
   id="svg1"
   inkscape:version="1.4.2 (ebf0e940d0, 2025-05-08)"
   xml:space="preserve"
   sodipodi:docname="database.svg"
   xmlns:inkscape="http://www.inkscape.org/namespaces/inkscape"
   xmlns:sodipodi="http://sodipodi.sourceforge.net/DTD/sodipodi-0.dtd"
   xmlns:xlink="http://www.w3.org/1999/xlink"
   xmlns="http://www.w3.org/2000/svg"
   xmlns:svg="http://www.w3.org/2000/svg"
   xmlns:rdf="http://www.w3.org/1999/02/22-rdf-syntax-ns#"
   xmlns:cc="http://creativecommons.org/ns#"
   xmlns:dc="http://purl.org/dc/elements/1.1/"><defs
     id="defs1"><clipPath
       clipPathUnits="userSpaceOnUse"
       id="clipPath6054"><rect
         style="display:inline;fill:#a40000;fill-opacity:1;stroke:none"
         id="rect6056"
         width="48"
         height="22"
         x="-126"
         y="-6"
         transform="matrix(0.9545455,0,0,0.89256196,-4.6363639,-1.3719273)" /></clipPath><filter
       inkscape:collect="always"
       id="filter4938"
       x="-0.065465369"
       width="1.1309307"
       y="-0.34369318"
       height="1.6873864"
       color-interpolation-filters="sRGB"><feGaussianBlur
         inkscape:collect="always"
         stdDeviation="1.1456439"
         id="feGaussianBlur4940" /></filter><linearGradient
       inkscape:collect="always"
       xlink:href="#linearGradient_SkyBlue"
       id="linearGradient1"
       gradientUnits="userSpaceOnUse"
       gradientTransform="matrix(2.7333333,0,0,2.5714286,-128.40563,984.0051)"
       x1="0.5"
       y1="12"
       x2="15.5"
       y2="12" /><linearGradient
       id="linearGradient_SkyBlue"><stop
         id="stop3832"
         offset="0"
         style="stop-color:#e7e7e7;stop-opacity:1;" /><stop
         id="stop3834"
         offset="1"
         style="stop-color:#c0c0c0;stop-opacity:1;" /></linearGradient><linearGradient
       inkscape:collect="always"
       xlink:href="#linearGradient3820"
       id="linearGradient6"
       gradientUnits="userSpaceOnUse"
       gradientTransform="translate(-4.5378515,990.3622)"
       x1="-122.5"
       y1="27"
       x2="-81.5"
       y2="27" /><linearGradient
       id="linearGradient3820"><stop
         style="stop-color:#dcdcdc;stop-opacity:1;"
         offset="0"
         id="stop3823" /><stop
         style="stop-color:#545454;stop-opacity:1;"
         offset="1"
         id="stop3825" /></linearGradient><linearGradient
       inkscape:collect="always"
       xlink:href="#linearGradient3829"
       id="linearGradient7"
       gradientUnits="userSpaceOnUse"
       gradientTransform="translate(-4.5378515,991.3622)"
       x1="-122"
       y1="23.5"
       x2="-82"
       y2="23.5" /><linearGradient
       id="linearGradient3829"><stop
         style="stop-color:#ffffff;stop-opacity:0.60000002;"
         offset="0"
         id="stop3831" /><stop
         style="stop-color:#ffffff;stop-opacity:0.20784314;"
         offset="1"
         id="stop3833" /></linearGradient><linearGradient
       inkscape:collect="always"
       xlink:href="#linearGradient4365"
       id="linearGradient8"
       gradientUnits="userSpaceOnUse"
       gradientTransform="translate(-4.5378515,983.3622)"
       x1="-121"
       y1="30"
       x2="-102"
       y2="30" /><linearGradient
       id="linearGradient4365"><stop
         id="stop4367"
         offset="0"
         style="stop-color:#000000;stop-opacity:0.80000001;" /><stop
         id="stop4369"
         offset="1"
         style="stop-color:#000000;stop-opacity:0.15384616;" /></linearGradient><linearGradient
       id="linearGradient3785"><stop
         id="stop3787"
         offset="0"
         style="stop-color:#8c8c8c;stop-opacity:1;" /><stop
         style="stop-color:#7b7b7b;stop-opacity:1;"
         offset="0.1"
         id="stop3147" /><stop
         id="stop3149"
         offset="0.89999998"
         style="stop-color:#7b7b7b;stop-opacity:1;" /><stop
         id="stop3789"
         offset="1"
         style="stop-color:#606060;stop-opacity:1;" /></linearGradient><linearGradient
       id="linearGradient5270"><stop
         style="stop-color:#ffffff;stop-opacity:1;"
         offset="0"
         id="stop5272" /><stop
         style="stop-color:#ffffff;stop-opacity:0.39215687;"
         offset="1"
         id="stop5274" /></linearGradient><linearGradient
       id="linearGradient5262"><stop
         style="stop-color:#606060;stop-opacity:1;"
         offset="0"
         id="stop5264" /><stop
         id="stop5278"
         offset="0.1"
         style="stop-color:#6e6e6e;stop-opacity:1;" /><stop
         style="stop-color:#6e6e6e;stop-opacity:1;"
         offset="0.89999998"
         id="stop5280" /><stop
         style="stop-color:#a8a8a8;stop-opacity:1;"
         offset="1"
         id="stop5266" /></linearGradient></defs><sodipodi:namedview
     id="base"
     pagecolor="#ffffff"
     bordercolor="#000000"
     borderopacity="0.3"
     inkscape:pageopacity="0.0"
     inkscape:pageshadow="2"
     inkscape:zoom="0.12374369"
     inkscape:cx="1446.5384"
     inkscape:cy="-400.02041"
     inkscape:document-units="mm"
     inkscape:showpageshadow="2"
     inkscape:pagecheckerboard="0"
     inkscape:deskcolor="#d1d1d1"
     inkscape:current-layer="g13"
     showguides="true" /><metadata
     id="metadata1"><rdf:RDF><cc:Work
         rdf:about=""><dc:format>image/svg+xml</dc:format><dc:type
           rdf:resource="http://purl.org/dc/dcmitype/StillImage" /><cc:license
           rdf:resource="http://creativecommons.org/publicdomain/zero/1.0/" /></cc:Work><cc:License
         rdf:about="http://creativecommons.org/publicdomain/zero/1.0/"><cc:permits
           rdf:resource="http://creativecommons.org/ns#Reproduction" /><cc:permits
           rdf:resource="http://creativecommons.org/ns#Distribution" /><cc:permits
           rdf:resource="http://creativecommons.org/ns#DerivativeWorks" /></cc:License></rdf:RDF></metadata><g
     id="g13"
     transform="matrix(15.532649,0,0,19.408799,-1904.6223,-4278.1846)"><ellipse
       style="display:inline;fill:#2e3436;fill-opacity:0.8;stroke:none;filter:url(#filter4938)"
       id="path4932"
       transform="matrix(0.27718252,0,0,0.36380208,160.03512,229.69141)"
       clip-path="url(#clipPath6054)"
       cx="-102"
       cy="6"
       rx="21"
       ry="4" /><g
       id="g5008"
       transform="matrix(0.26458333,0,0,0.26458333,158.75001,-37.931199)"
       style="display:inline"><path
         id="path5010"
         d="m -106.53896,977.18193 c -11.32184,0 -20.5,2.3026 -20.5,5.1429 v 36.39457 c 0,2.8403 9.17816,5.1428 20.5,5.1428 11.321833,0 20.499994,-2.3025 20.499994,-5.1428 v -36.39457 c 0,-2.8403 -9.178161,-5.1429 -20.499994,-5.1429 z"
         style="fill:url(#linearGradient1);fill-opacity:1;stroke:none"
         inkscape:connector-curvature="0"
         sodipodi:nodetypes="sssssss" /><path
         style="fill:url(#linearGradient6);fill-opacity:1;stroke:none"
         d="m -126.8816,981.18193 c -0.10465,0.2106 -0.15625,0.4386 -0.15625,0.6563 v 36.86777 c 0,2.8403 9.17816,5.1562 20.5,5.1562 11.321836,0 20.499998,-2.3159 20.499998,-5.1562 v -36.86777 c 0,-0.2177 -0.0516,-0.4457 -0.15625,-0.6563 -1.26084,2.537 -9.889604,4.5 -20.343748,4.5 -10.45415,0 -19.08291,-1.963 -20.34375,-4.5 z"
         id="path5012"
         sodipodi:nodetypes="cccscccsc"
         inkscape:connector-curvature="0" /><path
         style="color:#000000;font-style:normal;font-variant:normal;font-weight:normal;font-stretch:normal;font-size:medium;line-height:normal;font-family:'Bitstream Vera Sans';-inkscape-font-specification:'Bitstream Vera Sans';text-indent:0;text-align:start;text-decoration:none;text-decoration-line:none;letter-spacing:normal;word-spacing:normal;text-transform:none;writing-mode:lr-tb;direction:ltr;text-anchor:start;display:inline;overflow:visible;visibility:visible;fill:url(#linearGradient7);fill-opacity:1;stroke:none;stroke-width:1.13159;marker:none;enable-background:accumulate"
         d="m -106.53785,977.68193 c -5.62377,0 -10.69706,0.5852 -14.34375,1.5 -1.82335,0.4574 -3.31556,0.9585 -4.28125,1.5313 -0.96569,0.5727 -1.375,1.1606 -1.375,1.625 v 36.36777 c 0,0.4643 0.40931,1.0522 1.375,1.625 0.96569,0.5727 2.4579,1.0738 4.28125,1.5312 3.64669,0.9149 8.71998,1.5 14.34375,1.5 5.62377,0 10.697055,-0.5851 14.343748,-1.5 1.823347,-0.4574 3.315563,-0.9585 4.28125,-1.5312 0.965687,-0.5728 1.375,-1.1607 1.375,-1.625 v -36.36777 c 0,-0.4644 -0.409313,-1.0523 -1.375,-1.625 -0.965687,-0.5728 -2.457903,-1.0739 -4.28125,-1.5313 -3.646693,-0.9148 -8.719978,-1.5 -14.343748,-1.5 z m 0,1 c 5.54004,0 10.547947,0.4873 14.062498,1.375 1.757277,0.4439 3.116554,0.9472 3.9375,1.4375 0.820946,0.4903 1,0.8397 1,0.8125 v 36.43027 c 0,-0.027 -0.179049,0.3222 -1,0.8125 -0.820946,0.4903 -2.180223,0.9936 -3.9375,1.4375 -3.514548,0.8877 -8.522458,1.375 -14.062498,1.375 -5.54004,0 -10.54795,-0.4873 -14.0625,-1.375 -1.75728,-0.4439 -3.11655,-0.9472 -3.9375,-1.4375 -0.82095,-0.4903 -1,-0.8397 -1,-0.8125 v -36.43027 c 0,0.027 0.17905,-0.3222 1,-0.8125 0.82095,-0.4903 2.18022,-0.9936 3.9375,-1.4375 3.51455,-0.8877 8.52246,-1.375 14.0625,-1.375 z"
         id="path5014"
         sodipodi:nodetypes="cssccsssssccssccssccsssssccssc"
         inkscape:connector-curvature="0" /><path
         style="fill:none;stroke:#3f3f3f;stroke-width:1;stroke-opacity:1"
         d="m -106.53896,977.18193 c -11.32184,0 -20.5,2.3026 -20.5,5.1429 v 36.39457 c 0,2.8403 9.17816,5.1428 20.5,5.1428 11.321833,0 20.499994,-2.3025 20.499994,-5.1428 v -36.39457 c 0,-2.8403 -9.178161,-5.1429 -20.499994,-5.1429 z"
         id="path5016"
         inkscape:connector-curvature="0"
         sodipodi:nodetypes="sssssss" /><path
         style="fill:url(#linearGradient8);fill-opacity:1;stroke:none"
         d="m -125.53785,982.46323 v 1 c 3.04999,1.8802 10.40953,3.2187 19,3.2187 8.590464,0 15.950006,-1.3385 18.999998,-3.2187 v -1 c -3.049992,1.8802 -10.409534,3.2187 -18.999998,3.2187 -8.59047,0 -15.95001,-1.3385 -19,-3.2187 z"
         id="path5018"
         sodipodi:nodetypes="ccsccsc"
         inkscape:connector-curvature="0" /></g><path
       id="path2"
       style="display:inline;fill:#ffffff;fill-opacity:0.478211;fill-rule:evenodd;stroke:none;stroke-width:3.051;stroke-linejoin:round;stroke-dasharray:none;stroke-opacity:1"
       d="M 45.532518,160.96139 C 109.16732,82.412138 155.05327,189.12147 205.32408,50.004608 c 0.31116,-7.419361 0.15626,-15.468586 0.0724,-18.606515 C 190.62232,47.322733 145.49657,55.86861 118.06866,53.98735 90.640748,52.10609 60.142503,47.810819 45.63038,36.213126 46.355023,77.674084 44.807875,120.09135 45.532518,160.96139 Z"
       sodipodi:nodetypes="ccczcc"
       inkscape:label="whitetango"
       transform="matrix(0.06438052,0,0,0.05152302,122.62057,220.425)" /></g></svg>
