<?xml version="1.0" encoding="UTF-8" standalone="no"?>
<!-- Created with Inkscape (http://www.inkscape.org/) -->

<svg
   id="svg97"
   height="256"
   width="256"
   version="1.0"
   sodipodi:docname="folder-incoming-01.svg"
   inkscape:version="1.4.2 (ebf0e940d0, 2025-05-08)"
   xml:space="preserve"
   viewBox="0 0 256 256"
   xmlns:inkscape="http://www.inkscape.org/namespaces/inkscape"
   xmlns:sodipodi="http://sodipodi.sourceforge.net/DTD/sodipodi-0.dtd"
   xmlns:xlink="http://www.w3.org/1999/xlink"
   xmlns="http://www.w3.org/2000/svg"
   xmlns:svg="http://www.w3.org/2000/svg"
   xmlns:rdf="http://www.w3.org/1999/02/22-rdf-syntax-ns#"
   xmlns:cc="http://creativecommons.org/ns#"
   xmlns:dc="http://purl.org/dc/elements/1.1/"><title
     id="title4">Folder open/close recreated</title><sodipodi:namedview
     id="namedview1"
     pagecolor="#ffffff"
     bordercolor="#000000"
     borderopacity="0.25"
     inkscape:showpageshadow="2"
     inkscape:pageopacity="0.0"
     inkscape:pagecheckerboard="0"
     inkscape:deskcolor="#d1d1d1"
     inkscape:zoom="1.4587392"
     inkscape:cx="105.91338"
     inkscape:cy="272.49559"
     inkscape:current-layer="svg97" /><defs
     id="defs3"><radialGradient
       id="radialGradient6719"
       xlink:href="#linearGradient5060"
       gradientUnits="userSpaceOnUse"
       cy="486.64999"
       cx="605.71002"
       gradientTransform="matrix(-2.0913748,0,0,1.9697,-298.69145,-872.89)"
       r="117.14" /><linearGradient
       id="linearGradient5060"><stop
         id="stop5062"
         offset="0" /><stop
         id="stop5064"
         stop-opacity="0"
         offset="1" /></linearGradient><radialGradient
       id="radialGradient6717"
       xlink:href="#linearGradient5060"
       gradientUnits="userSpaceOnUse"
       cy="486.64999"
       cx="605.71002"
       gradientTransform="matrix(2.7744,0,0,1.9697,-1891.6,-872.89)"
       r="117.14" /><linearGradient
       id="linearGradient6715"
       y2="609.51001"
       gradientUnits="userSpaceOnUse"
       x2="302.85999"
       gradientTransform="matrix(2.7744,0,0,1.9697,-1892.2,-872.89)"
       y1="366.64999"
       x1="302.85999"><stop
         id="stop5050"
         stop-opacity="0"
         offset="0" /><stop
         id="stop5056"
         offset=".5" /><stop
         id="stop5052"
         stop-opacity="0"
         offset="1" /></linearGradient><radialGradient
       id="radialGradient238"
       gradientUnits="userSpaceOnUse"
       cy="37.518002"
       cx="20.705999"
       gradientTransform="matrix(1.055,-0.027345,0.1777,1.1909,-3.5722,-7.1253)"
       r="30.905001"><stop
         id="stop1790"
         stop-color="#202020"
         offset="0" /><stop
         id="stop1791"
         stop-color="#b9b9b9"
         offset="1" /></radialGradient><linearGradient
       id="linearGradient491"
       y2="66.834"
       gradientUnits="userSpaceOnUse"
       x2="9.8980999"
       gradientTransform="matrix(1.5168,0,0,0.70898,-0.87957,-1.3182)"
       y1="13.773"
       x1="6.2298002"><stop
         id="stop3984"
         stop-color="#fff"
         stop-opacity=".87629"
         offset="0" /><stop
         id="stop3985"
         stop-color="#fffffe"
         stop-opacity="0"
         offset="1" /></linearGradient><linearGradient
       id="linearGradient322"
       y2="46.688999"
       gradientUnits="userSpaceOnUse"
       x2="12.854"
       gradientTransform="matrix(1.3175,0,0,0.81626,-0.87957,-1.3182)"
       y1="32.567001"
       x1="13.036"><stop
         id="stop320"
         stop-color="#fff"
         offset="0" /><stop
         id="stop321"
         stop-color="#fff"
         stop-opacity="0"
         offset="1" /></linearGradient><linearGradient
       id="linearGradient3104"
       y2="6.1803002"
       gradientUnits="userSpaceOnUse"
       x2="15.515"
       y1="31.368"
       x1="18.113001"><stop
         id="stop3098"
         stop-color="#424242"
         offset="0" /><stop
         id="stop3100"
         stop-color="#777"
         offset="1" /></linearGradient><linearGradient
       id="linearGradient9772"
       y2="32.049999"
       gradientUnits="userSpaceOnUse"
       x2="22.065001"
       y1="36.987999"
       x1="22.176001"><stop
         id="stop9768"
         stop-color="#6194cb"
         offset="0" /><stop
         id="stop9770"
         stop-color="#729fcf"
         offset="1" /></linearGradient><linearGradient
       id="e"><stop
         offset="0"
         stop-color="#6194cb"
         id="stop8" /><stop
         offset="1"
         stop-color="#729fcf"
         id="stop9" /></linearGradient><linearGradient
       id="c"><stop
         offset="0"
         stop-color="#fff"
         stop-opacity=".13402061"
         id="stop10" /><stop
         offset="1"
         stop-color="#fff"
         stop-opacity=".05154639"
         id="stop11" /></linearGradient><linearGradient
       id="b"><stop
         offset="0"
         stop-color="#fff"
         id="stop12" /><stop
         offset="1"
         stop-color="#fff"
         stop-opacity="0"
         id="stop13" /></linearGradient><linearGradient
       xlink:href="#b"
       id="q"
       x1="19.116116"
       x2="19.426924"
       y1="28.946041"
       y2="51.912693"
       gradientTransform="scale(1.42154,0.70346)"
       gradientUnits="userSpaceOnUse" /><linearGradient
       xlink:href="#c"
       id="p"
       x1="14.899379"
       x2="22.715446"
       y1="27.059643"
       y2="41.836895"
       gradientTransform="matrix(1.5353,0,0,0.65134,3.451418,2.448)"
       gradientUnits="userSpaceOnUse" /><linearGradient
       xlink:href="#e"
       id="o"
       x1="-22.89403"
       x2="-19.799696"
       y1="38.945435"
       y2="20.305889"
       gradientTransform="matrix(1,0,0,1.02212,52.05694,-1.323026)"
       gradientUnits="userSpaceOnUse" /><linearGradient
       id="swatch1"
       inkscape:swatch="solid"><stop
         style="stop-color:#ff0707;stop-opacity:1;"
         offset="0"
         id="stop1-3" /></linearGradient><radialGradient
       xlink:href="#linearGradient5060"
       id="f-5"
       cx="15.115514"
       cy="63.965389"
       r="12.289036"
       fx="15.115514"
       fy="63.965389"
       gradientTransform="matrix(1.64399,0,0,0.75623803,0,-10.27241)"
       gradientUnits="userSpaceOnUse" /><radialGradient
       xlink:href="#b-6"
       id="g-7"
       cx="18.247644"
       cy="15.716079"
       r="29.993349"
       fx="18.247644"
       fy="15.716079"
       gradientTransform="scale(0.99999,1.00001)"
       gradientUnits="userSpaceOnUse" /><linearGradient
       id="b-6"><stop
         offset="0"
         stop-color="#d3e9ff"
         id="stop9-26" /><stop
         offset=".15517241"
         stop-color="#d3e9ff"
         id="stop10-1" /><stop
         offset=".75"
         stop-color="#4074ae"
         id="stop11-8-0" /><stop
         offset="1"
         stop-color="#36486c"
         id="stop12-7-6" /></linearGradient><radialGradient
       xlink:href="#d-27"
       id="h-9"
       cx="15.601279"
       cy="12.142302"
       r="43.526714"
       fx="15.601279"
       fy="12.142302"
       gradientTransform="scale(0.99999,1.00001)"
       gradientUnits="userSpaceOnUse" /><linearGradient
       id="d-27"><stop
         offset="0"
         stop-color="#fff"
         id="stop5-0-1" /><stop
         offset="1"
         stop-color="#fff"
         stop-opacity=".16494845"
         id="stop6-9" /></linearGradient><linearGradient
       xlink:href="#b"
       id="i-9"
       x1="-25.176178"
       x2="-22.252472"
       y1="30.057165"
       y2="21.041553"
       gradientUnits="userSpaceOnUse"
       gradientTransform="matrix(1.13103,0.6131,-0.47656,0.87914,54.09058,16.04435)" /><linearGradient
       xlink:href="#b"
       id="j-20"
       x1="-25.176178"
       x2="-22.113543"
       y1="30.057165"
       y2="22.661524"
       gradientUnits="userSpaceOnUse"
       gradientTransform="matrix(0.93933,-0.87909,0.6833,0.73013,32.31406,-4.451561)" /><radialGradient
       xlink:href="#b"
       id="k-8"
       cx="12.071323"
       cy="12.493138"
       r="6.7175145"
       fx="12.071323"
       fy="12.493138"
       gradientUnits="userSpaceOnUse" /><linearGradient
       xlink:href="#b"
       id="m-2"
       x1="-22.822565"
       x2="-22.113543"
       y1="28.337734"
       y2="22.661524"
       gradientUnits="userSpaceOnUse"
       gradientTransform="matrix(-1.28032,-0.12616,0.09806,-0.99518,-2.405125,40.52387)" /><linearGradient
       xlink:href="#b"
       id="n-3"
       x1="-21.658581"
       x2="-21.962101"
       y1="15.649428"
       y2="21.336346"
       gradientUnits="userSpaceOnUse"
       gradientTransform="matrix(0.91787,-0.85898,0.6677,0.71343,27.63317,-6.909069)" /><radialGradient
       xlink:href="#b"
       id="o-2"
       cx="12.071323"
       cy="12.493138"
       r="6.7175145"
       fx="12.071323"
       fy="12.493138"
       gradientUnits="userSpaceOnUse" /><radialGradient
       xlink:href="#b"
       id="p-2"
       cx="12.071323"
       cy="12.493138"
       r="6.7175145"
       fx="12.071323"
       fy="12.493138"
       gradientUnits="userSpaceOnUse" /><radialGradient
       xlink:href="#b"
       id="q-9"
       cx="12.071323"
       cy="12.493138"
       r="6.7175145"
       fx="12.071323"
       fy="12.493138"
       gradientUnits="userSpaceOnUse" /><radialGradient
       inkscape:collect="always"
       xlink:href="#linearGradient7-9"
       id="radialGradient37"
       gradientUnits="userSpaceOnUse"
       gradientTransform="matrix(0.70312255,0.55964498,-1.4426422,1.5762292,286.35684,-196.53668)"
       cx="205.24886"
       cy="184.05646"
       fx="205.24886"
       fy="184.05646"
       r="73.580811" /><linearGradient
       id="linearGradient7-9"
       inkscape:collect="always"><stop
         style="stop-color:#789e2d;stop-opacity:1;"
         offset="0"
         id="stop18-4" /><stop
         style="stop-color:#a7cc5c;stop-opacity:1;"
         offset="1"
         id="stop19-7" /></linearGradient></defs><g
     id="layer1"
     transform="matrix(5.5668514,0,0,5.5668514,-11.854349,0.53914632)"
     style="display:inline"><g
       id="g2"
       inkscape:label="back"
       style="display:inline"><g
         id="g6707"
         transform="matrix(0.022624,0,0,0.020868,43.383,36.37)"><rect
           id="rect6709"
           opacity="0.40206"
           height="478.35999"
           width="1339.6"
           y="-150.7"
           x="-1559.3"
           fill="url(#linearGradient6715)"
           style="fill:url(#linearGradient6715)" /><path
           id="path6711"
           opacity="0.40206"
           d="m -219.62,-150.68 v 478.33 c 142.88,0.9 345.4,-107.17 345.4,-239.2 0,-132.02 -159.44,-239.13 -345.4,-239.13 z"
           fill="url(#radialGradient6717)"
           style="fill:url(#radialGradient6717)" /><path
           id="path6713"
           opacity="0.40206"
           d="m -1559.1096,-150.68 v 478.33 c -107.6443,0.9 -260.3665,-107.17 -260.3665,-239.2 0,-132.02 120.233,-239.13 260.3665,-239.13 z"
           fill="url(#radialGradient6719)"
           style="fill:url(#radialGradient6719);stroke-width:0.868223" /></g><path
         id="path216"
         stroke-linejoin="round"
         d="m 4.5218,38.687 c 0.0218,0.417 0.4599,0.833 0.8762,0.833 h 31.327 c 0.416,0 0.811,-0.416 0.789,-0.833 L 36.578,11.461 c -0.022,-0.417 -0.46,-0.833 -0.877,-0.833 h -13.27 c -0.486,0 -1.235,-0.316 -1.402,-1.1066 L 20.417,6.6284 C 20.262,5.8927 19.535,5.5905 19.119,5.5905 H 4.34 c -0.4162,0 -0.8107,0.4163 -0.7889,0.8326 l 0.9707,32.264 z"
         stroke="url(#linearGradient3104)"
         stroke-linecap="round"
         fill="url(#radialGradient238)"
         style="fill:url(#radialGradient238);stroke:url(#linearGradient3104)" /><path
         id="path9788"
         opacity="0.11364"
         stroke-linejoin="round"
         d="m 5.2266,22.562 h 30.265"
         stroke="#000000"
         stroke-linecap="round"
         fill="#729fcf" /><path
         id="path9784"
         opacity="0.11364"
         stroke-linejoin="round"
         d="m 5.0422,18.562 h 30.447"
         stroke="#000000"
         stroke-linecap="round"
         fill="#729fcf" /><path
         id="path9778"
         opacity="0.11364"
         stroke-linejoin="round"
         d="m 4.9807,12.562 h 30.507"
         stroke="#000000"
         stroke-linecap="round"
         fill="#729fcf" /><path
         id="path9798"
         opacity="0.11364"
         stroke-linejoin="round"
         d="m 5.3862,32.562 h 30.109"
         stroke="#000000"
         stroke-linecap="round"
         fill="#729fcf" /><path
         id="path9800"
         opacity="0.11364"
         stroke-linejoin="round"
         d="m 5.5091,34.562 h 29.988"
         stroke="#000000"
         stroke-linecap="round"
         fill="#729fcf" /><path
         id="path9782"
         opacity="0.11364"
         stroke-linejoin="round"
         d="m 5.0422,16.562 h 30.447"
         stroke="#000000"
         stroke-linecap="round"
         fill="#729fcf" /><path
         id="path9780"
         opacity="0.11364"
         stroke-linejoin="round"
         d="m 5.0114,14.562 h 30.478"
         stroke="#000000"
         stroke-linecap="round"
         fill="#729fcf" /><path
         id="path9776"
         opacity="0.11364"
         stroke-linejoin="round"
         d="m 4.9221,10.562 h 15.281"
         stroke="#000000"
         stroke-linecap="round"
         fill="#729fcf" /><path
         id="path9774"
         opacity="0.11364"
         stroke-linejoin="round"
         d="m 4.8738,8.5625 h 14.783"
         stroke="#000000"
         stroke-linecap="round"
         fill="#729fcf" /><path
         id="path9794"
         opacity="0.11364"
         stroke-linejoin="round"
         d="m 5.3247,28.562 h 30.169"
         stroke="#000000"
         stroke-linecap="round"
         fill="#729fcf" /><path
         id="path9792"
         opacity="0.11364"
         stroke-linejoin="round"
         d="m 5.2881,26.562 h 30.205"
         stroke="#000000"
         stroke-linecap="round"
         fill="#729fcf" /><path
         id="path9790"
         opacity="0.11364"
         stroke-linejoin="round"
         d="m 5.2266,24.562 h 30.265"
         stroke="#000000"
         stroke-linecap="round"
         fill="#729fcf" /><path
         id="path9786"
         opacity="0.11364"
         stroke-linejoin="round"
         d="m 5.1959,20.562 h 30.296"
         stroke="#000000"
         stroke-linecap="round"
         fill="#729fcf" /><path
         id="path9796"
         opacity="0.11364"
         stroke-linejoin="round"
         d="m 5.3247,30.562 h 30.169"
         stroke="#000000"
         stroke-linecap="round"
         fill="#729fcf" /><path
         id="path9802"
         opacity="0.11364"
         stroke-linejoin="round"
         d="m 5.5091,36.562 h 29.988"
         stroke="#000000"
         stroke-linecap="round"
         fill="#729fcf" /><path
         id="path219"
         opacity="0.45143"
         d="M 6.0683,38.864 C 6.0847,39.176 5.8874,39.384 5.5698,39.28 5.2521,39.176 5.033,38.968 5.0167,38.656 L 4.069,6.591 C 4.0526,6.2792 4.2341,6.0906 4.5464,6.0906 l 14.422,-0.0477 c 0.313,0 0.932,0.3005 1.133,1.3222 l 0.574,2.8159 c -0.427,-0.4656 -0.419,-0.48 -0.638,-1.1571 l -0.406,-1.2592 c -0.219,-0.7276 -0.698,-0.8319 -1.01,-0.8319 H 5.7334 c -0.3122,0 -0.5095,0.2082 -0.4931,0.5204 l 0.938,31.515 -0.1096,-0.104 z"
         display="block"
         fill="url(#linearGradient491)"
         style="fill:url(#linearGradient491)" /><g
         id="g220"
         fill-opacity="0.75706"
         transform="matrix(1.0408,0,0.054493,1.0408,-8.6702,2.6706)"
         fill="#ffffff"><path
           id="path221"
           fill-opacity="0.50847"
           fill="#ffffff"
           d="M 42.417,8.5152 C 42.422,8.4181 42.289,8.2682 42.182,8.2682 L 29.151,8.2661 c 0,0 0.911,0.5879 2.201,0.5962 l 11.054,0.071 c 0.011,-0.2117 0.003,-0.256 0.011,-0.4181 z" /></g></g><g
       id="g26"
       transform="matrix(0.89633133,0,0,0.89633133,7.5527479,-1.9339597)"
       style="display:inline"><path
         fill="url(#f)"
         d="m 45.052803,38.100351 a 20.203051,9.293379 0 1 1 -40.4061012,0 20.203051,9.293379 0 1 1 40.4061012,0 z"
         id="path12"
         style="fill:url(#f-5);stroke-width:1.11501" /><path
         fill="url(#g)"
         stroke="#39396c"
         d="m 43.959853,23.485499 c 0,10.709718 -8.682103,19.391723 -19.390348,19.391723 -10.709226,0 -19.3908387,-8.682103 -19.3908387,-19.391723 0,-10.709227 8.6816127,-19.3903473 19.3908387,-19.3903473 10.708245,0 19.390348,8.6811203 19.390348,19.3903473 z"
         id="path13"
         style="fill:url(#g-7)" /><g
         fill="#204a87"
         fill-opacity="0.71345"
         transform="matrix(0.98237,0,0,0.98237,0.121079,0.232914)"
         id="g16"><path
           d="m 44.0713,20.7144 c 0,0.2627 0,0 0,0 l -0.5449,0.6172 c -0.334,-0.3936 -0.709,-0.7246 -1.0898,-1.0703 l -0.8359,0.123 -0.7637,-0.8633 v 1.0684 l 0.6543,0.4951 0.4355,0.4932 0.582,-0.6582 c 0.1465,0.2744 0.291,0.5488 0.4365,0.8232 v 0.8223 l -0.6553,0.7402 -1.1992,0.8232 -0.9082,0.9063 -0.582,-0.6602 0.291,-0.7402 -0.5811,-0.6582 -0.9814,-2.0977 -0.8359,-0.9453 -0.2188,0.2461 0.3281,1.1934 0.6172,0.6992 c 0.3525,1.0176 0.7012,1.9902 1.1641,2.9629 0.7178,0 1.3945,-0.0762 2.1074,-0.166 v 0.5762 l -0.8721,2.1392 -0.7998,0.9043 -0.6543,1.4004 v 2.3027 l 0.2188,0.9063 -0.3633,0.4102 -0.8008,0.4941 -0.8359,0.6992 0.6914,0.7813 -0.9453,0.8242 0.1816,0.5332 -1.418,1.6055 h -0.9443 l -0.7998,0.4941 H 33.6396 V 38.2814 L 33.4228,36.963 c -0.2813,-0.8262 -0.5742,-1.6465 -0.8721,-2.4668 0,-0.6055 0.0361,-1.2051 0.0723,-1.8105 l 0.3643,-0.8223 -0.5098,-0.9883 0.0371,-1.3574 -0.6914,-0.7813 0.3457,-1.1309 -0.5625,-0.6382 H 30.624 l -0.3271,-0.3701 -0.9814,0.6177 -0.3994,-0.4536 -0.9092,0.7817 c -0.6172,-0.6997 -1.2354,-1.3989 -1.8535,-2.0981 l -0.7266,-1.7285 0.6543,-0.9863 -0.3633,-0.4111 0.7988,-1.8936 c 0.6563,-0.8164 1.3418,-1.5996 2.0352,-2.3857 l 1.2363,-0.3291 1.3809,-0.1641 0.9453,0.2471 1.3447,1.3564 0.4727,-0.5342 0.6533,-0.082 1.2363,0.4111 h 0.9453 l 0.6543,-0.5762 0.291,-0.4111 -0.6553,-0.4111 -1.0908,-0.082 c -0.3027,-0.4199 -0.584,-0.8613 -0.9434,-1.2344 l -0.3643,0.1641 -0.1455,1.0703 -0.6543,-0.7402 -0.1445,-0.8242 -0.7266,-0.5742 h -0.292 l 0.7275,0.8223 -0.291,0.7402 -0.5811,0.1641 0.3633,-0.7402 -0.6553,-0.3281 -0.5801,-0.6582 -1.0918,0.2461 -0.1445,0.3281 -0.6543,0.4121 -0.3633,0.9053 -0.9082,0.4521 -0.4004,-0.4521 h -0.4355 v -1.4814 l 0.9453,-0.4941 h 0.7266 l -0.1465,-0.5752 -0.5801,-0.5762 0.9805,-0.2061 0.5449,-0.6162 0.4355,-0.7412 h 0.8008 l -0.2188,-0.5752 0.5098,-0.3291 v 0.6582 l 1.0898,0.2461 1.0898,-0.9043 0.0732,-0.4121 0.9443,-0.6577 c -0.3418,0.0425 -0.6836,0.0737 -1.0176,0.1646 V 9.9766 L 34.2213,9.1538 H 33.858 l -0.7984,0.7402 -0.2188,0.4116 0.2188,0.5767 -0.3643,0.9863 -0.5811,-0.3291 -0.5078,-0.5752 -0.8008,0.5752 -0.291,-1.3159 1.3809,-0.9048 V 8.8247 l 0.873,-0.5757 1.3809,-0.3296 0.9453,0.3296 1.7441,0.3291 -0.4355,0.4932 H 35.458 l 0.9453,0.9873 0.7266,-0.8223 0.2207,-0.3618 c 0,0 2.7871,2.498 4.3799,5.2305 1.5928,2.7334 2.3408,5.9551 2.3408,6.6094 z m -18.001,-11.4781 -0.0732,0.4932 0.5098,0.3291 0.8711,-0.5757 -0.4355,-0.4937 -0.582,0.3296 -0.29,-0.0825 m 0.7996,-3.373 -1.8906,-0.7407 -2.1797,0.2466 -2.6904,0.7402 -0.5088,0.4941 1.6719,1.1514 v 0.6582 l -0.6543,0.6582 0.873,1.729 0.5801,-0.3301 0.7285,-1.1514 c 1.123,-0.3472 2.1299,-0.7407 3.1973,-1.2344 l 0.873,-2.2212 m 1.9629,6.9117 -0.291,-0.7412 -0.5098,0.165 0.1465,0.9043 0.6543,-0.3281"
           id="path14" /><path
           d="m 29.123,12.6089 -0.1455,0.9883 0.7998,-0.165 0.5811,-0.5752 -0.5088,-0.4941 C 29.6787,11.9078 29.4824,11.483 29.2685,11.0465 H 28.833 v 0.4932 l 0.29,0.3291 v 0.7402 m -10.7578,15.6332 -0.582,-1.1523 -1.0903,-0.2466 -0.5815,-1.5625 -1.4536,0.1641 -1.2354,-0.9043 -1.3091,1.1514 v 0.1816 c -0.396,-0.1143 -0.8828,-0.1299 -1.2354,-0.3467 l -0.291,-0.8223 v -0.9053 l -0.8721,0.082 c 0.0728,-0.5762 0.145,-1.1514 0.2183,-1.7275 H 9.4238 L 8.9155,22.812 8.4062,23.0581 7.6791,22.6479 7.6063,21.7426 7.7518,20.7553 8.8426,19.933 h 0.8721 l 0.145,-0.4941 1.0903,0.2461 0.7998,0.9883 0.1455,-1.6465 1.3813,-1.1514 0.5088,-1.2344 1.0176,-0.4111 0.5815,-0.8223 1.3081,-0.248 0.6548,-0.9863 h -1.9629 l 1.2358,-0.5762 h 0.8716 l 1.2363,-0.4121 0.1455,-0.4922 -0.4365,-0.4121 -0.5088,-0.165 0.1455,-0.4932 -0.3633,-0.7402 -0.8726,0.3281 0.1455,-0.6577 -1.0176,-0.5762 -0.7993,1.3979 0.0723,0.4941 -0.7993,0.3301 -0.5093,1.0693 -0.2178,-0.9873 -1.3813,-0.5762 -0.2183,-0.7402 1.8174,-1.0703 0.7998,-0.7402 0.0728,-0.9048 -0.436,-0.2471 -0.5815,-0.0825 -0.3633,0.9053 c 0,0 -0.6079,0.1191 -0.7642,0.1577 -1.9961,1.8394 -6.0293,5.8101 -6.9663,13.3062 0.0371,0.1738 0.6792,1.1816 0.6792,1.1816 l 1.5264,0.9043 1.5264,0.4121 0.6548,0.8232 1.0171,0.7402 0.5815,-0.082 0.436,0.1963 v 0.1328 l -0.5811,1.563 -0.4365,0.6582 0.1455,0.3301 -0.3633,1.2324 1.3086,2.3867 1.3081,1.1523 0.582,0.8223 -0.0732,1.7285 0.4365,0.9863 -0.4365,1.8926 c 0,0 -0.0342,-0.0117 0.0215,0.1777 0.0562,0.1895 2.3291,1.4512 2.4736,1.3438 0.144,-0.1094 0.2671,-0.2051 0.2671,-0.2051 l -0.145,-0.4102 0.5811,-0.5762 0.2183,-0.5762 0.9453,-0.3301 0.7266,-1.8105 -0.2178,-0.4922 0.5078,-0.7402 1.0908,-0.248 0.582,-1.3164 -0.1455,-1.6445 0.8721,-1.2344 0.1455,-1.2344 C 20.7331,29.4607 19.5495,28.8513 18.365,28.242 m -1.5994,-18.6771 0.7266,0.4937 h 0.582 V 9.4829 l -0.7266,-0.3291 -0.582,0.4111"
           id="path15" /><path
           d="M 14.876,8.9072 14.5122,9.812 h 0.7271 L 15.6031,8.9892 C 15.9166,8.7675 16.2286,8.5444 16.5479,8.331 l 0.7271,0.2471 c 0.4844,0.3291 0.9688,0.6582 1.4536,0.9868 L 19.4561,8.9072 18.6558,8.5781 18.292,7.8374 16.9111,7.6728 16.8383,7.2612 16.184,7.4262 15.8936,8.002 15.5298,7.2613 15.3848,7.5904 15.4576,8.4132 14.876,8.9072 M 17.4922,6.8496 17.856,6.521 18.5831,6.3564 c 0.498,-0.2422 0.998,-0.4053 1.5264,-0.5762 l -0.29,-0.4937 -0.9385,0.1348 -0.4434,0.4419 -0.731,0.106 -0.6499,0.3052 -0.3159,0.1528 -0.1929,0.2583 0.9443,0.1641 m 1.2363,7.8169 0.4365,-0.6582 -0.6548,-0.4932 0.2183,1.1514"
           id="path16" /></g><path
         fill="none"
         stroke="url(#h)"
         d="m 42.975093,23.485534 c 0,10.16582 -8.241178,18.406906 -18.4056,18.406906 -10.165354,0 -18.4060669,-8.241179 -18.4060669,-18.406906 0,-10.165354 8.2407129,-18.4056 18.4060669,-18.4056 10.164422,0 18.4056,8.240246 18.4056,18.4056 z"
         opacity="0.395604"
         id="path17"
         style="stroke:url(#h-9)" /><path
         fill="none"
         stroke="url(#i)"
         stroke-linecap="round"
         stroke-linejoin="round"
         stroke-width="0.999998"
         d="M 40.86398,32.808712 A 20.2409,9.4575367 28.460857 1 1 5.2747056,13.516753 20.2409,9.4575367 28.460857 1 1 40.86398,32.808712 Z"
         color="#000000"
         overflow="visible"
         style="stroke:url(#i-9);marker:none"
         id="path18" /><path
         fill="none"
         stroke="url(#j)"
         stroke-linecap="round"
         stroke-linejoin="round"
         stroke-width="0.999999"
         d="M 44.034926,13.397951 A 9.4575033,20.24102 46.897309 1 1 14.477731,41.059618 9.4575033,20.24102 46.897309 1 1 44.034926,13.397951 Z"
         color="#000000"
         overflow="visible"
         style="stroke:url(#j-20);marker:none"
         id="path19" /><g
         fill-rule="evenodd"
         color="#000000"
         transform="matrix(-1.04577,0.76725,0.76725,1.04577,35.61651,-22.14396)"
         id="g20"><path
           fill="url(#k)"
           d="m 18.788838,12.493138 a 6.7175145,6.7175145 0 1 1 -13.4350291,0 6.7175145,6.7175145 0 1 1 13.4350291,0 z"
           overflow="visible"
           style="fill:url(#k-8);marker:none"
           transform="translate(14.95026,22.93047)"
           id="path20" /><path
           id="use20"
           fill="#ffffff"
           d="m 29.092385,35.4236 a 2.0708082,2.0708082 0 1 1 -4.141616,0 2.0708082,2.0708082 0 1 1 4.141616,0 z"
           overflow="visible"
           style="stroke-width:0.30827;marker:none" /></g><path
         fill="none"
         stroke="url(#m)"
         stroke-linecap="round"
         stroke-linejoin="round"
         stroke-width="1"
         d="M 3.279503,19.940572 A 20.240993,9.4575482 5.6276829 1 1 43.566374,23.910354 20.240993,9.4575482 5.6276829 1 1 3.279503,19.940572 Z"
         color="#000000"
         overflow="visible"
         style="stroke:url(#m-2);marker:none"
         id="path21" /><path
         fill="none"
         stroke="url(#n)"
         stroke-linecap="round"
         stroke-linejoin="round"
         stroke-width="0.999995"
         d="M 39.086485,10.532169 A 9.2413681,19.77831 46.898772 1 1 10.204557,37.56105 9.2413681,19.77831 46.898772 1 1 39.086485,10.532169 Z"
         color="#000000"
         overflow="visible"
         style="stroke:url(#n-3);marker:none"
         id="path22" /><g
         fill-rule="evenodd"
         color="#000000"
         transform="matrix(-0.80627945,0.59153483,0.59153483,0.80627945,12.385575,-18.028996)"
         id="g23"><path
           fill="url(#o)"
           d="m 18.788838,12.493138 a 6.7175145,6.7175145 0 1 1 -13.4350291,0 6.7175145,6.7175145 0 1 1 13.4350291,0 z"
           overflow="visible"
           style="fill:url(#o-2);marker:none"
           transform="translate(14.95026,22.93047)"
           id="path23" /><path
           id="use23"
           fill="#ffffff"
           d="m 29.092385,35.4236 a 2.0708082,2.0708082 0 1 1 -4.141616,0 2.0708082,2.0708082 0 1 1 4.141616,0 z"
           overflow="visible"
           style="stroke-width:0.30827;marker:none" /></g><g
         fill-rule="evenodd"
         color="#000000"
         transform="matrix(-0.80627945,0.59153483,0.59153483,0.80627945,13.499066,-31.499871)"
         id="g24"><path
           fill="url(#p)"
           d="m 18.788838,12.493138 a 6.7175145,6.7175145 0 1 1 -13.4350291,0 6.7175145,6.7175145 0 1 1 13.4350291,0 z"
           overflow="visible"
           style="fill:url(#p-2);marker:none"
           transform="translate(14.95026,22.93047)"
           id="path24-5" /><path
           id="use24"
           fill="#ffffff"
           d="m 29.092385,35.4236 a 2.0708082,2.0708082 0 1 1 -4.141616,0 2.0708082,2.0708082 0 1 1 4.141616,0 z"
           overflow="visible"
           style="stroke-width:0.30827;marker:none" /></g><g
         fill-rule="evenodd"
         color="#000000"
         transform="matrix(-0.87023,0.63857,0.63846,0.87038,25.20503,-35.31278)"
         id="g25"><path
           fill="url(#q)"
           d="m 18.788838,12.493138 a 6.7175145,6.7175145 0 1 1 -13.4350291,0 6.7175145,6.7175145 0 1 1 13.4350291,0 z"
           overflow="visible"
           style="fill:url(#q-9);marker:none"
           transform="translate(14.95026,22.93047)"
           id="path25" /><path
           id="use25"
           fill="#ffffff"
           d="m 29.092385,35.4236 a 2.0708082,2.0708082 0 1 1 -4.141616,0 2.0708082,2.0708082 0 1 1 4.141616,0 z"
           overflow="visible"
           style="stroke-width:0.30827;marker:none" /></g></g><g
       id="g37"
       inkscape:label="arrowgreen-down"
       transform="matrix(0.13058456,0,0,0.14002987,-11.132816,-15.839234)"
       style="display:inline"><g
         id="g31"
         inkscape:label="shadow"
         transform="matrix(-0.9871547,0,0,-0.98715473,307.60942,372.35719)"><path
           id="path26"
           style="display:inline;opacity:0.774005;fill:#000000;fill-opacity:0.0936374;stroke:none;stroke-width:3.7202;stroke-linecap:square;stroke-linejoin:miter;stroke-dasharray:none;stroke-opacity:1"
           d="m 127.31463,115.14821 75.81131,82.31335 -37.7134,0.0537 -0.12278,61.04501 -76.425807,0.0627 -0.0517,-60.9257 -37.761632,-0.1332 z"
           sodipodi:nodetypes="cccccccc" /><path
           id="path27"
           style="display:inline;opacity:0.774005;fill:#000000;fill-opacity:0.0936374;stroke:none;stroke-width:3.7202;stroke-linecap:square;stroke-linejoin:miter;stroke-dasharray:none;stroke-opacity:1"
           d="m 126.4506,114.55294 75.81131,82.31335 -37.7134,0.0537 -0.12278,61.04501 -76.425795,0.0627 -0.0517,-60.9257 -37.761632,-0.1332 z"
           sodipodi:nodetypes="cccccccc" /><path
           id="path28"
           style="display:inline;opacity:0.774005;fill:#000000;fill-opacity:0.0936374;stroke:none;stroke-width:3.7202;stroke-linecap:square;stroke-linejoin:miter;stroke-dasharray:none;stroke-opacity:1"
           d="m 125.76004,113.98412 75.81131,82.31335 -37.7134,0.0537 -0.12278,61.04501 -76.425812,0.0627 -0.0517,-60.9257 -37.761632,-0.1332 z"
           sodipodi:nodetypes="cccccccc" /><path
           id="path29"
           style="display:inline;opacity:0.774005;fill:#000000;fill-opacity:0.0936374;stroke:none;stroke-width:3.7202;stroke-linecap:square;stroke-linejoin:miter;stroke-dasharray:none;stroke-opacity:1"
           d="m 125.10447,113.4635 75.81131,82.31335 -37.7134,0.0537 -0.12278,61.04501 -76.425808,0.0627 -0.0517,-60.9257 -37.761632,-0.1332 z"
           sodipodi:nodetypes="cccccccc" /><path
           id="path30"
           style="display:inline;opacity:0.774005;fill:#000000;fill-opacity:0.0936374;stroke:none;stroke-width:3.7202;stroke-linecap:square;stroke-linejoin:miter;stroke-dasharray:none;stroke-opacity:1"
           d="m 124.29466,112.80389 75.81131,82.31335 -37.7134,0.0537 -0.12278,61.04501 -76.425807,0.0627 -0.0517,-60.9257 -37.761632,-0.1332 z"
           sodipodi:nodetypes="cccccccc" /><path
           id="path31"
           style="display:inline;opacity:0.774005;fill:#000000;fill-opacity:0.158463;stroke:none;stroke-width:3.7202;stroke-linecap:square;stroke-linejoin:miter;stroke-dasharray:none;stroke-opacity:1"
           d="m 123.45093,112.18246 75.81131,82.31335 -37.7134,0.0537 -0.12278,61.04501 -76.425808,0.0627 -0.0517,-60.9257 -37.761632,-0.1332 z"
           sodipodi:nodetypes="cccccccc" /></g><g
         id="g36"
         style="opacity:1"
         transform="matrix(1,0,0,-1,58.122872,369.76689)"><path
           style="baseline-shift:baseline;display:inline;overflow:visible;fill:url(#radialGradient37);stroke:#42770c;stroke-width:3.19897;stroke-linecap:square;stroke-dasharray:none;stroke-opacity:1;enable-background:accumulate;stop-color:#000000;stop-opacity:1"
           d="m 121.51934,115.47172 73.36178,79.65373 -36.49485,0.052 -0.11881,58.15158 -73.956418,0.0607 -0.05003,-58.03613 -36.54152,-0.12889 z"
           id="path35" /><path
           style="baseline-shift:baseline;display:inline;overflow:visible;vector-effect:none;fill:#ffffff;fill-opacity:0.527415;stroke-width:0.872459;stroke-linecap:square;enable-background:accumulate;stop-color:#000000;stop-opacity:1"
           d="m 121.68969,119.5156 -69.516487,75.23296 34.96274,0.11927 0.0426,55.74803 67.864987,-0.0563 0.10225,-55.84176 35.9395,-0.25372 z m 0.94701,17.19723 42.07373,48.64635 -21.9781,0.0426 -0.10394,56.25209 -41.49312,0.0494 -0.0443,-56.14473 -20.226231,-0.10736 z"
           id="path36"
           sodipodi:nodetypes="cccccccccccccccc" /></g></g><g
       id="g1"
       inkscape:label="close"
       style="display:none"><path
         id="path233"
         stroke-linejoin="round"
         d="M 39.784,39.511 C 40.927,39.467 41.747,38.414 41.831,37.19 42.622,25.641 43.49,15.958 43.49,15.958 43.562,15.71 43.322,15.463 43.01,15.463 H 8.639 c 0,0 -1.7473477,20.980607 -1.8507,21.867 -0.1145,0.982 -0.466,1.804 -1.5498,2.183 l 34.546,-0.002 z"
         display="block"
         stroke="#3465a4"
         fill="url(#linearGradient9772)"
         sodipodi:nodetypes="cccscsccc"
         style="fill:url(#linearGradient9772)" /><path
         id="path304"
         opacity="0.46591"
         d="M 9.5391916,16.464 42.4112,16.529 40.8372,36.531 c -0.084,1.071 -0.45,1.428 -1.872,1.428 -1.872,0 -28.678,-0.032 -31.395,-0.032 0.2335,-0.321 0.3337,-0.989 0.335,-1.005 L 9.4786353,17.172824 Z"
         stroke="url(#linearGradient322)"
         stroke-linecap="round"
         stroke-width="1px"
         fill="none"
         style="stroke:url(#linearGradient322)"
         sodipodi:nodetypes="cccscccc" /><path
         id="path323"
         d="M 9.2556622,16.223 8.4536,31.866 c 0,0 8.2964,-4.148 18.666,-4.148 10.3696,0 15.555,-11.495 15.555,-11.495 L 10.206911,16.101487 Z"
         fill-opacity="0.089286"
         fill-rule="evenodd"
         fill="#ffffff"
         sodipodi:nodetypes="ccsccc" /></g><g
       id="g4"
       style="display:inline"
       transform="matrix(1.0271502,0,0,0.9124211,-0.42849272,3.2161654)"
       inkscape:label="open"><path
         fill="url(#o)"
         stroke="#3465a4"
         stroke-linejoin="round"
         stroke-width="1.00417"
         d="m 5.8559486,39.409514 c 0.103442,0.211469 0.3103265,0.423576 0.6206519,0.422928 l 33.5195985,-0.06999 c 0.4136,-8.63e-4 1.234708,-0.509959 1.575817,-1.337364 3.406971,-8.264057 5.547169,-12.983254 5.651187,-19.734262 C 47.326645,18.479366 47.010326,18.551293 46.7,18.551293 H 11.776358 c -0.310326,0 -1.330823,17.026248 -4.8403645,20.420419 l -1.1834868,0.437801 z"
         display="block"
         overflow="visible"
         style="fill:url(#o);marker:none"
         transform="matrix(0.98877,0,0,1.00298,-0.111407,-0.106563)"
         id="path32"
         sodipodi:nodetypes="cssscssccc" /><path
         fill="url(#p)"
         fill-rule="evenodd"
         d="m 13.134476,20.138641 c -0.772747,4.990757 -1.829795,10.224442 -3.044484,14.729063 2.386485,-0.707107 7.44461,-4.419704 17.44461,-4.419704 10,0 16.723573,-9.248699 17.651651,-10.353553 z"
         transform="matrix(0.98877,0,0,1.00298,-0.111407,-0.106563)"
         id="path33"
         style="fill:url(#p)"
         sodipodi:nodetypes="ccscc" /><path
         fill="none"
         stroke="url(#q)"
         stroke-linecap="round"
         stroke-width="1.00417"
         d="m 12.661612,19.598984 c -0.0893,1.007402 -1.052587,14.120135 -4.7222722,18.329098 8.1210772,0 30.0726182,0.98898 31.8627612,0.992045 2.988036,-6.899129 6.06594,-12.171148 6.353309,-19.361446 -8.269015,0.131065 -22.343098,0.03125 -33.493798,0.0403 z"
         opacity="0.522727"
         overflow="visible"
         style="stroke:url(#q);marker:none"
         transform="matrix(0.98877,0,0,1.00298,-0.111407,-0.106563)"
         id="path34"
         sodipodi:nodetypes="cccccc" /></g></g><metadata
     id="metadata2"><rdf:RDF><cc:Work
         rdf:about=""><dc:source>https://commons.wikimedia.org/wiki/Tango_icons#</dc:source><cc:license
           rdf:resource="http://creativecommons.org/publicdomain/zero/1.0/" /><dc:title>Folder open/close recreated</dc:title><dc:publisher><cc:Agent><dc:title>Blackcrack</dc:title></cc:Agent></dc:publisher><dc:relation>Folder and Folder Open</dc:relation><dc:description>20250701 Recreated Folder open and close in one</dc:description><dc:contributor><cc:Agent><dc:title>Blackcrack</dc:title></cc:Agent></dc:contributor></cc:Work><cc:License
         rdf:about="http://creativecommons.org/publicdomain/zero/1.0/"><cc:permits
           rdf:resource="http://creativecommons.org/ns#Reproduction" /><cc:permits
           rdf:resource="http://creativecommons.org/ns#Distribution" /><cc:permits
           rdf:resource="http://creativecommons.org/ns#DerivativeWorks" /></cc:License></rdf:RDF></metadata></svg>
