<?xml version="1.0" encoding="UTF-8" standalone="no"?>
<!-- Created with Inkscape (http://www.inkscape.org/) -->

<svg
   width="256mm"
   height="256mm"
   viewBox="0 0 256 256"
   version="1.1"
   id="svg1"
   inkscape:version="1.4.2 (ebf0e940d0, 2025-05-08)"
   sodipodi:docname="folder-unlocked-symbolic.svg"
   xml:space="preserve"
   xmlns:inkscape="http://www.inkscape.org/namespaces/inkscape"
   xmlns:sodipodi="http://sodipodi.sourceforge.net/DTD/sodipodi-0.dtd"
   xmlns:xlink="http://www.w3.org/1999/xlink"
   xmlns="http://www.w3.org/2000/svg"
   xmlns:svg="http://www.w3.org/2000/svg"
   xmlns:rdf="http://www.w3.org/1999/02/22-rdf-syntax-ns#"
   xmlns:cc="http://creativecommons.org/ns#"
   xmlns:dc="http://purl.org/dc/elements/1.1/"><title
     id="title1">Folder Symbolic Open/Close</title><defs
     id="defs1"><linearGradient
       id="linearGradient4"
       inkscape:collect="always"><stop
         style="stop-color:#888a85;stop-opacity:1;"
         offset="0"
         id="stop27" /><stop
         style="stop-color:#262625;stop-opacity:1;"
         offset="1"
         id="stop28" /></linearGradient><linearGradient
       id="linearGradient3"
       inkscape:collect="always"><stop
         style="stop-color:#babdb6;stop-opacity:1;"
         offset="0"
         id="stop5" /><stop
         style="stop-color:#202020;stop-opacity:1;"
         offset="1"
         id="stop6" /></linearGradient><linearGradient
       id="linearGradient1"
       inkscape:collect="always"><stop
         style="stop-color:#7a7a7a;stop-opacity:1;"
         offset="0"
         id="stop1" /><stop
         style="stop-color:#707070;stop-opacity:1;"
         offset="0.38631266"
         id="stop3" /><stop
         style="stop-color:#595959;stop-opacity:1;"
         offset="0.65277058"
         id="stop4" /><stop
         style="stop-color:#4b4b4b;stop-opacity:1;"
         offset="1"
         id="stop2" /></linearGradient><linearGradient
       id="linearGradient32"
       inkscape:collect="always"><stop
         style="stop-color:#f4f4f4;stop-opacity:0.42167604;"
         offset="0"
         id="stop32" /><stop
         style="stop-color:#f4f4f4;stop-opacity:0;"
         offset="1"
         id="stop33" /></linearGradient><linearGradient
       id="linearGradient20"
       inkscape:collect="always"><stop
         style="stop-color:#f3f7fb;stop-opacity:1;"
         offset="0"
         id="stop21" /><stop
         style="stop-color:#f3f7fb;stop-opacity:0;"
         offset="1"
         id="stop22" /></linearGradient><linearGradient
       id="linearGradient15"
       inkscape:collect="always"><stop
         style="stop-color:#719ecf;stop-opacity:1;"
         offset="0"
         id="stop16" /><stop
         style="stop-color:#8aafd7;stop-opacity:1;"
         offset="0.25390714"
         id="stop18" /><stop
         style="stop-color:#719ecf;stop-opacity:1;"
         offset="0.4463878"
         id="stop19" /><stop
         style="stop-color:#4f87c3;stop-opacity:1;"
         offset="0.7372098"
         id="stop20" /><stop
         style="stop-color:#2c5681;stop-opacity:1;"
         offset="1"
         id="stop17" /></linearGradient><linearGradient
       id="linearGradient11"
       inkscape:collect="always"><stop
         style="stop-color:#dce6f3;stop-opacity:1;"
         offset="0"
         id="stop11" /><stop
         style="stop-color:#bdd0ea;stop-opacity:1;"
         offset="0.21857853"
         id="stop13" /><stop
         style="stop-color:#9bb8de;stop-opacity:1;"
         offset="0.51587749"
         id="stop14" /><stop
         style="stop-color:#77a0d1;stop-opacity:1;"
         offset="0.8174454"
         id="stop15" /><stop
         style="stop-color:#9ebbe0;stop-opacity:1;"
         offset="1"
         id="stop12" /></linearGradient><linearGradient
       inkscape:collect="always"
       xlink:href="#linearGradient11"
       id="linearGradient12"
       x1="123.00126"
       y1="92.722893"
       x2="148.01651"
       y2="200.25244"
       gradientUnits="userSpaceOnUse" /><linearGradient
       inkscape:collect="always"
       xlink:href="#linearGradient15"
       id="linearGradient17"
       x1="119.17952"
       y1="81.366829"
       x2="129.61365"
       y2="228.20688"
       gradientUnits="userSpaceOnUse" /><linearGradient
       inkscape:collect="always"
       xlink:href="#linearGradient32"
       id="linearGradient33"
       x1="138.21974"
       y1="89.349197"
       x2="152.51729"
       y2="168.33191"
       gradientUnits="userSpaceOnUse" /><linearGradient
       inkscape:collect="always"
       xlink:href="#linearGradient32"
       id="linearGradient36"
       gradientUnits="userSpaceOnUse"
       x1="138.21974"
       y1="89.349197"
       x2="144.36659"
       y2="191.34566" /><linearGradient
       inkscape:collect="always"
       xlink:href="#linearGradient15"
       id="linearGradient37"
       gradientUnits="userSpaceOnUse"
       x1="119.17952"
       y1="81.366829"
       x2="125.66673"
       y2="211.10358" /><linearGradient
       inkscape:collect="always"
       xlink:href="#linearGradient11"
       id="linearGradient38"
       gradientUnits="userSpaceOnUse"
       x1="123.00126"
       y1="92.722893"
       x2="148.01651"
       y2="200.25244" /><linearGradient
       inkscape:collect="always"
       xlink:href="#linearGradient1"
       id="linearGradient2"
       x1="49.730732"
       y1="20.606987"
       x2="84.292465"
       y2="218.6758"
       gradientUnits="userSpaceOnUse" /><radialGradient
       inkscape:collect="always"
       xlink:href="#linearGradient20"
       id="radialGradient1"
       cx="58.297417"
       cy="74.405579"
       fx="58.297417"
       fy="74.405579"
       r="86.628471"
       gradientTransform="matrix(1.6487439,0,0,1.7618185,-37.820092,-59.834146)"
       gradientUnits="userSpaceOnUse" /><linearGradient
       inkscape:collect="always"
       xlink:href="#linearGradient3"
       id="linearGradient6"
       x1="53.15662"
       y1="40.153225"
       x2="69.586563"
       y2="199.66118"
       gradientUnits="userSpaceOnUse" /><linearGradient
       inkscape:collect="always"
       xlink:href="#linearGradient4"
       id="linearGradient28"
       x1="84.947708"
       y1="42.598267"
       x2="134.37337"
       y2="183.92395"
       gradientUnits="userSpaceOnUse" /><radialGradient
       xlink:href="#linearGradient5060"
       id="n-6"
       cx="22.571428"
       cy="30.857143"
       r="15.571428"
       fx="22.571428"
       fy="30.857143"
       gradientTransform="matrix(1,0,0,0.65138,0,10.75754)"
       gradientUnits="userSpaceOnUse" /><linearGradient
       id="linearGradient5060"><stop
         id="stop5062"
         offset="0" /><stop
         id="stop5064"
         stop-opacity="0"
         offset="1" /></linearGradient><linearGradient
       xlink:href="#e-9"
       id="o-2"
       x1="6.72682"
       x2="40.938126"
       y1="32.161697"
       y2="32.161697"
       gradientTransform="matrix(1,0,0,1.08988,0,-5.10979)"
       gradientUnits="userSpaceOnUse" /><linearGradient
       id="e-9"><stop
         offset="0"
         stop-color="#ead200"
         stop-opacity=".71341461"
         id="stop22-2" /><stop
         offset=".20999999"
         stop-color="#ffec41"
         id="stop23-6" /><stop
         offset=".83999997"
         stop-color="#e2cc00"
         id="stop24-6" /><stop
         offset="1"
         stop-color="#c3af00"
         id="stop25-49" /></linearGradient><linearGradient
       xlink:href="#f-74"
       id="p-7"
       x1="31.630468"
       x2="8.6713638"
       y1="41.791817"
       y2="25.793524"
       gradientTransform="matrix(1,0,0,1.08988,0,-3.986899)"
       gradientUnits="userSpaceOnUse" /><linearGradient
       id="f-74"><stop
         offset="0"
         stop-color="#7d6400"
         id="stop14-4" /><stop
         offset="1"
         stop-color="#be9700"
         id="stop15-3" /></linearGradient><linearGradient
       xlink:href="#d-5"
       id="q-7"
       x1="10.907269"
       x2="30.875446"
       y1="25.002281"
       y2="36.127281"
       gradientTransform="matrix(0.99911,0,0,1.0958,0.03642141,-4.139733)"
       gradientUnits="userSpaceOnUse" /><linearGradient
       id="d-5"><stop
         offset="0"
         stop-color="#fff"
         id="stop9-69" /><stop
         offset="1"
         stop-color="#fff"
         stop-opacity=".49484536"
         id="stop10-3" /></linearGradient><linearGradient
       xlink:href="#c-49"
       id="r-6"
       x1="27.8125"
       x2="27.824219"
       y1="22.739454"
       y2="26.024691"
       gradientTransform="matrix(1.23077,0,0,0.32409,-5.538462,14.89774)"
       gradientUnits="userSpaceOnUse" /><linearGradient
       id="c-49"><stop
         offset="0"
         stop-color="#896d00"
         id="stop20-20" /><stop
         offset="1"
         stop-color="#a18000"
         stop-opacity=".26804122"
         id="stop21-68" /></linearGradient><linearGradient
       xlink:href="#c-49"
       id="s-47"
       x1="27.8125"
       x2="27.824219"
       y1="22.739454"
       y2="26.024691"
       gradientTransform="matrix(1.23077,0,0,0.32409,-5.538462,16.89774)"
       gradientUnits="userSpaceOnUse" /><linearGradient
       xlink:href="#c-49"
       id="t-5"
       x1="27.8125"
       x2="27.824219"
       y1="22.739454"
       y2="26.024691"
       gradientTransform="matrix(1.23077,0,0,0.32409,-5.538462,18.89774)"
       gradientUnits="userSpaceOnUse" /><linearGradient
       xlink:href="#c-49"
       id="u-5"
       x1="27.8125"
       x2="27.824219"
       y1="22.739454"
       y2="26.024691"
       gradientTransform="matrix(1.23077,0,0,0.32409,-5.538462,20.89774)"
       gradientUnits="userSpaceOnUse" /><linearGradient
       xlink:href="#c-49"
       id="v-1"
       x1="27.8125"
       x2="27.824219"
       y1="22.739454"
       y2="26.024691"
       gradientTransform="matrix(1.23077,0,0,0.32409,-5.538462,22.89774)"
       gradientUnits="userSpaceOnUse" /><linearGradient
       xlink:href="#c-49"
       id="w-6"
       x1="27.8125"
       x2="27.824219"
       y1="22.739454"
       y2="26.024691"
       gradientTransform="matrix(1.23077,0,0,0.32409,-5.538462,24.89774)"
       gradientUnits="userSpaceOnUse" /><linearGradient
       xlink:href="#c-49"
       id="x-0"
       x1="27.8125"
       x2="27.824219"
       y1="22.739454"
       y2="26.024691"
       gradientTransform="matrix(1.23077,0,0,0.32409,-5.538462,26.89774)"
       gradientUnits="userSpaceOnUse" /><linearGradient
       xlink:href="#c-49"
       id="y-2"
       x1="27.8125"
       x2="27.824219"
       y1="22.739454"
       y2="26.024691"
       gradientTransform="matrix(1.23077,0,0,0.32409,-5.538462,28.89774)"
       gradientUnits="userSpaceOnUse" /><linearGradient
       xlink:href="#c-49"
       id="z-3"
       x1="27.8125"
       x2="27.824219"
       y1="22.739454"
       y2="26.024691"
       gradientTransform="matrix(1.23077,0,0,0.32409,-5.538462,30.89774)"
       gradientUnits="userSpaceOnUse" /><linearGradient
       xlink:href="#c-49"
       id="A-6"
       x1="27.8125"
       x2="27.824219"
       y1="22.739454"
       y2="26.024691"
       gradientTransform="matrix(1.23077,0,0,0.32409,-5.538462,32.89774)"
       gradientUnits="userSpaceOnUse" /><linearGradient
       xlink:href="#g-36"
       id="B-22"
       x1="24.875"
       x2="24.75"
       y1="21"
       y2="17"
       gradientTransform="translate(0,1)"
       gradientUnits="userSpaceOnUse" /><linearGradient
       id="g-36"><stop
         offset="0"
         stop-color="#ffec41"
         id="stop7-1" /><stop
         offset="1"
         stop-color="#c3af00"
         id="stop8-0" /></linearGradient><radialGradient
       xlink:href="#b"
       id="C-1"
       cx="12.845672"
       cy="13.342374"
       r="17"
       fx="12.845672"
       fy="13.342374"
       gradientTransform="matrix(2.53109,0,0,2.86055,-19.66786,-16.33929)"
       gradientUnits="userSpaceOnUse" /><linearGradient
       id="b"><stop
         offset="0"
         stop-color="#fff"
         id="stop19-3" /><stop
         offset="1"
         stop-color="#fff"
         stop-opacity="0"
         id="stop20-3" /></linearGradient><linearGradient
       xlink:href="#linearGradient5060"
       id="D-0"
       x1="25.178555"
       x2="31.640839"
       y1="21.294252"
       y2="19.060417"
       gradientUnits="userSpaceOnUse" /><linearGradient
       xlink:href="#b"
       id="E-61"
       x1="21.941509"
       x2="21.941509"
       y1="21.550869"
       y2="18.037588"
       gradientTransform="matrix(1,0,0,0.95192,0,1.975963)"
       gradientUnits="userSpaceOnUse" /><linearGradient
       xlink:href="#b-74"
       id="F"
       x1="10.650842"
       x2="27.192274"
       y1="2.9136841"
       y2="17.470011"
       gradientTransform="translate(0,-1.926279)"
       gradientUnits="userSpaceOnUse" /><linearGradient
       id="b-74"><stop
         offset="0"
         stop-color="#cad0c6"
         id="stop11-5" /><stop
         offset=".5"
         stop-color="#eaece9"
         id="stop12-25" /><stop
         offset="1"
         stop-color="#c5cbc0"
         id="stop13-4" /></linearGradient><linearGradient
       xlink:href="#a-0"
       id="G"
       x1="19.250618"
       x2="16.198252"
       y1="9.6635771"
       y2="6.0396547"
       gradientTransform="translate(0,-1.926279)"
       gradientUnits="userSpaceOnUse" /><linearGradient
       id="a-0"><stop
         offset="0"
         stop-color="#6f716d"
         id="stop16-7" /><stop
         offset="1"
         stop-color="#9ea09c"
         id="stop17-86" /></linearGradient><radialGradient
       xlink:href="#d-5"
       id="H"
       cx="12.184196"
       cy="8.5463438"
       r="3.6037734"
       fx="12.184196"
       fy="8.5463438"
       gradientTransform="matrix(-0.44134,3.78696,-3.2859,-0.38294,51.92133,-44.11008)"
       gradientUnits="userSpaceOnUse" /><radialGradient
       xlink:href="#m"
       id="I"
       cx="30.996042"
       cy="13.156409"
       r="1.0001841"
       fx="30.996042"
       fy="13.156409"
       gradientTransform="matrix(0,14.96898,-8.27668,4e-4,143.8949,-454.2723)"
       gradientUnits="userSpaceOnUse" /><linearGradient
       id="m"><stop
         offset="0"
         stop-color="#fff"
         stop-opacity="0"
         id="stop27-2" /><stop
         offset="1"
         stop-color="#fff"
         id="stop28-4" /></linearGradient><linearGradient
       xlink:href="#linearGradient5060"
       id="J"
       x1="36.5625"
       x2="36.5625"
       y1="20.625"
       y2="17"
       gradientUnits="userSpaceOnUse" /></defs><sodipodi:namedview
     id="base"
     pagecolor="#ffffff"
     bordercolor="#000000"
     borderopacity="0.3"
     inkscape:pageopacity="0.0"
     inkscape:pageshadow="2"
     inkscape:zoom="0.64027637"
     inkscape:cx="457.61489"
     inkscape:cy="617.70201"
     inkscape:document-units="mm"
     inkscape:showpageshadow="2"
     inkscape:pagecheckerboard="0"
     inkscape:deskcolor="#d1d1d1"
     inkscape:current-layer="svg1"
     showguides="true" /><metadata
     id="metadata1"><rdf:RDF><cc:Work
         rdf:about=""><dc:format>image/svg+xml</dc:format><dc:type
           rdf:resource="http://purl.org/dc/dcmitype/StillImage" /><cc:license
           rdf:resource="http://creativecommons.org/publicdomain/zero/1.0/" /><dc:description>202507 - Folder symbolic open/close rebuild in SVG
https://commons.wikimedia.org/wiki/File:Tango_-_folder-open_22px.png
https://commons.wikimedia.org/wiki/File:Tango_-_folder_22px.png
https://web.archive.org/web/20080906080620/http://tango.freedesktop.org/Tango_Icon_Theme_Guidelines</dc:description><dc:contributor><cc:Agent><dc:title>Blackcrack</dc:title></cc:Agent></dc:contributor><dc:title>Folder Symbolic Open/Close</dc:title><dc:date>202507</dc:date><dc:creator><cc:Agent><dc:title>blackcrack</dc:title></cc:Agent></dc:creator><dc:publisher><cc:Agent><dc:title>blackcrack</dc:title></cc:Agent></dc:publisher><dc:source>https://commons.wikimedia.org/wiki/File:Tango_-_folder_22px.png</dc:source><dc:subject><rdf:Bag><rdf:li>Tango folder open close symbolic</rdf:li></rdf:Bag></dc:subject></cc:Work><cc:License
         rdf:about="http://creativecommons.org/publicdomain/zero/1.0/"><cc:permits
           rdf:resource="http://creativecommons.org/ns#Reproduction" /><cc:permits
           rdf:resource="http://creativecommons.org/ns#Distribution" /><cc:permits
           rdf:resource="http://creativecommons.org/ns#DerivativeWorks" /></cc:License></rdf:RDF></metadata><g
     id="g38"
     style="display:inline"><g
       id="g20"
       style="display:inline"
       inkscape:label="back"><path
         style="baseline-shift:baseline;display:inline;overflow:visible;opacity:1;vector-effect:none;fill:url(#linearGradient6);stroke-linecap:round;stroke-linejoin:round;paint-order:stroke fill markers;enable-background:accumulate;stop-color:#000000;stop-opacity:1"
         d="m 16.792115,27.533384 89.486765,0 12.66536,30.107111 80.39749,0.275334 -0.55067,156.844591 H 22.577377 Z"
         id="path24"
         sodipodi:nodetypes="ccccccc" /><g
         id="g6"
         style="fill:url(#linearGradient28);fill-opacity:1"
         transform="translate(1.6529321)"><rect
           style="fill:url(#linearGradient28);fill-opacity:1;fill-rule:evenodd;stroke-width:10;stroke-linecap:square;paint-order:stroke fill markers"
           id="rect1"
           width="95.257156"
           height="12.856794"
           x="23.37599"
           y="47.920776" /><rect
           style="fill:url(#linearGradient28);fill-opacity:1;fill-rule:evenodd;stroke-width:10;stroke-linecap:square;paint-order:stroke fill markers"
           id="rect2"
           width="172.98233"
           height="12.856796"
           x="23.37599"
           y="71.881165" /><rect
           style="fill:url(#linearGradient28);fill-opacity:1;fill-rule:evenodd;stroke-width:10;stroke-linecap:square;paint-order:stroke fill markers"
           id="rect3"
           width="172.98233"
           height="12.856796"
           x="23.37599"
           y="97.594749" /><rect
           style="fill:url(#linearGradient28);fill-opacity:1;fill-rule:evenodd;stroke-width:10;stroke-linecap:square;paint-order:stroke fill markers"
           id="rect4"
           width="172.98233"
           height="12.856796"
           x="23.37599"
           y="123.89274" /><rect
           style="fill:url(#linearGradient28);fill-opacity:1;fill-rule:evenodd;stroke-width:10;stroke-linecap:square;paint-order:stroke fill markers"
           id="rect5"
           width="172.98233"
           height="12.856796"
           x="23.37599"
           y="150.77512" /><rect
           style="fill:url(#linearGradient28);fill-opacity:1;fill-rule:evenodd;stroke-width:10;stroke-linecap:square;paint-order:stroke fill markers"
           id="rect6"
           width="172.98233"
           height="12.856796"
           x="23.37599"
           y="176.48871" /></g><path
         id="rect20"
         style="display:inline;fill:url(#radialGradient1);stroke-width:14;stroke-linecap:round;stroke-linejoin:round;paint-order:stroke fill markers"
         d="m 16.142053,27.774909 87.404017,0 13.32652,27.322993 78.31167,0.877092 v 12.502363 h -80.07991 l -24.287085,-25.499825 -59.764638,0 5.127442,169.607768 -14.252754,0.32891 z"
         sodipodi:nodetypes="ccccccccccc" /><path
         style="baseline-shift:baseline;display:inline;overflow:visible;opacity:1;vector-effect:none;fill:url(#linearGradient2);fill-opacity:1;stroke-linecap:round;stroke-linejoin:round;paint-order:stroke fill markers;enable-background:accumulate;stop-color:#000000;stop-opacity:1"
         d="m 16.792863,19.024807 c -7.2809322,4e-4 -9.6767952,1.227464 -9.6771952,8.508396 L 12.90093,214.75977 c 4.02e-4,7.28093 2.396264,8.50799 9.677195,8.50839 H 198.79102 c 7.26342,-3.6e-4 7.89884,-1.20009 7.92399,-8.46347 l 0.55078,-156.845043 c 0.0234,-7.280189 -0.59889,-8.526196 -7.87907,-8.551365 L 126.29631,49.160236 105.65519,25.991604 c -3.23513,-3.631269 -7.10742,-6.966797 -11.625002,-6.966797 z m 4.61014,13.798157 71.133859,0 c 6.457111,7.218992 21.262858,20.332689 26.405268,27.775824 l 74.18984,0.230469 -0.46289,146.449963 H 27.865933 Z"
         id="path23"
         sodipodi:nodetypes="cccccccccsscccccccc" /></g><g
       id="rect8"
       style="display:inline;opacity:1"
       inkscape:label="close"><path
         style="baseline-shift:baseline;display:inline;overflow:visible;opacity:1;vector-effect:none;fill:url(#linearGradient17);stroke-linecap:round;stroke-linejoin:round;paint-order:stroke fill markers;enable-background:accumulate;stop-color:#000000;stop-opacity:1"
         d="M 45.949906,84.177349 H 228.45033 c 0,0 3.59389,85.323731 -4.48161,106.128751 -8.0755,20.80503 -15.05417,29.55296 -15.05417,29.55296 H 29.623165 c 0,0 3.607513,-7.34582 10.494315,-28.16958 6.886802,-20.82376 5.832426,-107.512131 5.832426,-107.512131 z"
         id="path11"
         sodipodi:nodetypes="ccsccsc" /><path
         style="baseline-shift:baseline;display:inline;overflow:visible;opacity:1;vector-effect:none;fill:url(#linearGradient12);stroke-linecap:round;stroke-linejoin:round;paint-order:stroke fill markers;enable-background:accumulate;stop-color:#000000;stop-opacity:1"
         d="m 57.018334,82.4929 c -3.825772,-4.2e-5 -9.735509,13.93263 -9.792461,17.75798 -0.555168,34.47665 0.194869,47.58898 -1.096149,66.26718 -0.71413,10.3319 -1.017665,11.65384 -0.903098,15.27287 0.114567,3.61904 0.390989,22.78313 1.638145,29.45541 1.247154,6.67228 12.173526,6.44685 19.994403,6.33456 7.820878,-0.11228 137.721976,6.34778 137.721976,6.34778 19.41496,0.9302 20.2335,-8.92464 22.2532,-14.65195 1.82319,-5.17007 8.59397,-101.26118 8.40442,-115.804191 -0.057,-3.82535 -3.45631,-11.508767 -7.28208,-11.508725 z M 67.355575,97.836951 216.03865,97.474155 c 0.75055,19.622145 -1.1089,69.653235 -2.1153,85.148415 -1.00646,15.49518 -7.77315,15.25548 -15.33842,16.24321 -7.56526,0.98774 -136.939842,0.71776 -136.939842,0.71776 4.536268,-36.26855 4.817316,-66.37185 3.440951,-96.74066 -0.128382,-2.8327 2.269536,-5.005929 2.269536,-5.005929 z"
         id="path10"
         sodipodi:nodetypes="ccszzzcsccccczzcsc" /><path
         id="rect32"
         style="fill:url(#linearGradient33);stroke-width:14;stroke-linecap:round;stroke-linejoin:round;paint-order:stroke fill markers"
         d="m 54.629707,92.1465 160.598173,1.316379 c 0,0 -1.6758,36.635821 -22.22646,46.541481 -20.55067,9.90566 -31.62979,11.41481 -73.57855,13.67001 -41.948756,2.25519 -64.793163,38.28846 -64.793163,38.28846 z"
         sodipodi:nodetypes="cczzcc" /><path
         style="baseline-shift:baseline;display:inline;overflow:visible;opacity:1;vector-effect:none;fill:#3666a6;stroke:none;stroke-linecap:round;stroke-linejoin:round;stroke-opacity:1;paint-order:stroke fill markers;enable-background:accumulate;stop-color:#000000;stop-opacity:1"
         d="m 55.126031,75.044922 c -12.367332,-0.07765 -14.909778,5.971171 -14.909778,13.250479 0,12.757309 0.33695,14.960119 -0.148027,35.378999 -0.484977,20.41888 -0.299705,44.78837 -3.000444,74.55242 -0.919094,10.12906 2.85487,5.08223 -7.706188,15.01611 -10.561058,9.93388 -11.079851,0.51211 -15.275107,5.17087 -2.694002,2.99164 6.823467,10.75206 15.540144,10.50619 l -0.0039,0.0723 c 57.789333,-0.008 173.159919,-0.364 179.321119,-0.17793 6.1612,0.18604 30.22082,1.77093 31.40355,-29.10956 1.18274,-30.8805 2.87439,-72.6766 2.87439,-110.083125 0,-8.311539 -4.55453,-14.576642 -9.54604,-14.576693 0,0 -153.815054,0.155241 -178.549719,-6e-5 z m 25.425085,12.195967 c 24.572354,0 149.304214,-1.016201 149.304214,-1.016201 1.24517,8.017923 -0.73667,41.313932 -0.89681,59.396982 -0.1567,17.69506 -1.35025,52.20807 -4.07445,59.74364 -2.7242,7.53557 -5.98064,8.31207 -20.70359,8.31207 -51.45839,0 -103.12962,-0.18086 -154.547732,-0.18086 0,0 1.998631,-10.77695 3.622636,-25.46778 1.624005,-14.69084 2.780351,-45.36515 3.267145,-62.23599 0.486793,-16.87084 -0.118427,-38.979083 -0.118427,-38.979083 0,0 11.860817,0.427202 24.146991,0.427202 z"
         id="path8"
         sodipodi:nodetypes="sszszscczzscsscszsczzcss" /></g><g
       id="g36"
       style="display:none;opacity:1"
       inkscape:label="open"
       transform="matrix(1.0002491,0.01640645,-0.05846776,1.0339087,5.6628172,-10.034201)"><path
         style="baseline-shift:baseline;display:inline;overflow:visible;opacity:1;vector-effect:none;fill:url(#linearGradient37);stroke-linecap:round;stroke-linejoin:round;paint-order:stroke fill markers;enable-background:accumulate;stop-color:#000000;stop-opacity:1"
         d="m 65.385965,117.40699 178.474275,-1.61982 c 0,0 2.02094,62.82192 -6.64444,79.11995 -8.86649,16.67629 -16.39804,23.85385 -16.39804,23.85385 l -188.679043,2.49555 c 0,0 5.648126,-5.59656 14.720655,-22.91534 13.951879,-26.6331 18.526593,-80.93419 18.526593,-80.93419 z"
         id="path33"
         sodipodi:nodetypes="ccsccsc" /><path
         style="baseline-shift:baseline;display:inline;overflow:visible;opacity:1;vector-effect:none;fill:url(#linearGradient38);stroke-linecap:round;stroke-linejoin:round;paint-order:stroke fill markers;enable-background:accumulate;stop-color:#000000;stop-opacity:1"
         d="m 75.326556,123.85892 c -3.783485,0.0353 -7.200347,2.27089 -7.673373,5.02987 -4.391151,25.36537 -5.124647,35.24404 -8.613093,49.581 -1.959771,8.05435 -2.431654,9.09397 -2.74653,11.93599 -0.3161,2.85307 -15.21051,20.66546 -14.729039,26.05208 0.484935,5.4254 19.358982,1.57331 27.627532,1.37337 8.262059,-0.19978 141.103417,-3.10509 141.103417,-3.10509 20.19627,0.48859 14.96294,6.78282 25.94131,-13.92372 8.62834,-16.27407 11.55646,-67.94935 11.66027,-78.38387 0.0201,-2.71901 -9.8986,-4.30657 -13.62154,-4.27241 z m 14.208737,11.89034 144.009497,-2.20764 c 0.90067,20.85922 -3.19181,37.55712 -7.49403,46.4717 -4.30221,8.91458 -7.27852,20.2662 -15.13939,21.15195 -7.87421,0.88726 -137.107827,3.31584 -137.107827,3.31584 8.454225,-13.71964 16.121655,-41.53602 15.7318,-68.73185 z"
         id="path34"
         sodipodi:nodetypes="ccszzzcsccccczzccc" /><path
         id="path35"
         style="fill:url(#linearGradient36);stroke-width:14;stroke-linecap:round;stroke-linejoin:round;paint-order:stroke fill markers"
         d="m 73.327567,118.83785 172.036613,-0.40714 c 0,0 -2.48966,31.74094 -30.79399,43.47345 -28.82994,11.95038 -51.54075,7.24752 -94.13874,9.41551 -42.845471,2.18058 -51.535363,19.00884 -51.535363,19.00884 z"
         sodipodi:nodetypes="cczzcc" /><path
         style="baseline-shift:baseline;display:inline;overflow:visible;opacity:1;vector-effect:none;fill:#3666a6;stroke:none;stroke-linecap:round;stroke-linejoin:round;stroke-opacity:1;paint-order:stroke fill markers;enable-background:accumulate;stop-color:#000000;stop-opacity:1"
         d="m 81.849011,110.80891 c -17.449053,0.27695 -20.73295,7.23777 -20.458225,11.9377 0.274726,4.69992 0.406384,3.25083 -0.173317,12.64836 -1.072573,17.38748 -3.476389,33.84684 -7.901812,47.54948 -4.425423,13.70264 -13.282935,23.73208 -17.705275,27.28893 -4.422339,3.55684 -12.537275,4.61711 -17.660234,8.49466 -3.304531,2.5012 3.118715,11.71527 17.253617,11.28926 l 4.220887,0.0957 c 61.439308,-0.83775 176.035128,-3.65879 182.497838,-3.5934 6.46066,0.0653 22.69822,-16.48438 31.1978,-44.26324 8.49958,-27.77886 4.50994,-48.13178 3.23151,-69.38606 -0.009,-3.5065 -5.40022,-5.65098 -10.22249,-5.6085 0,0 -140.09804,3.44289 -164.280302,3.54704 0,0 34.891572,-0.66101 13.717253,-0.21765 z M 242.66117,121.2525 c 0,0 2.97087,24.4458 -0.93311,41.73673 -4.25398,18.84109 -6.76917,27.57858 -17.96622,44.18543 -3.46777,5.14321 -8.04226,5.31735 -11.73687,5.62664 -6.64995,0.55669 -117.966719,1.15391 -140.41633,1.78568 -11.224806,0.31588 -22.60528,0.27204 -22.60528,0.27204 0,0 11.546404,-9.06777 16.711091,-19.66081 5.164687,-10.59304 8.331391,-32.68861 10.331107,-44.81039 1.999716,-12.12179 1.122083,-26.49548 1.122083,-26.49548 55.890619,-0.90271 165.493529,-2.63984 165.493529,-2.63984 z"
         id="path36"
         sodipodi:nodetypes="szszzscczzcczzscszscszzcc" /></g></g><g
     id="g46"
     transform="matrix(3.9904536,0,0,3.9904536,69.794575,67.595499)"
     style="display:inline"><path
       fill="url(#n)"
       d="m 38.142857,30.857143 a 15.571429,10.142858 0 1 1 -31.142857,0 15.571429,10.142858 0 1 1 31.142857,0 z"
       color="#000000"
       opacity="0.473684"
       overflow="visible"
       style="fill:url(#n-6);marker:none"
       transform="matrix(1.44023,0,0,0.41901,-8.581573,29.82043)"
       id="path29" /><rect
       width="34.993771"
       height="27.009277"
       x="6.5"
       y="17.5"
       fill="url(#o)"
       fill-rule="evenodd"
       stroke="url(#p)"
       stroke-linecap="round"
       stroke-linejoin="round"
       stroke-width="0.999999"
       rx="2.2349751"
       ry="2.2570534"
       id="rect29"
       style="fill:url(#o-2);stroke:url(#p-7)" /><rect
       width="33.000904"
       height="25.006882"
       x="7.5"
       y="18.5"
       fill="none"
       stroke="url(#q)"
       stroke-linecap="round"
       stroke-linejoin="round"
       stroke-opacity="0.601093"
       stroke-width="1"
       rx="1.288511"
       ry="1.288511"
       id="rect30"
       style="stroke:url(#q-7)" /><g
       fill-rule="evenodd"
       transform="matrix(1.0663,0,0,1,-1.59099,0)"
       id="g40"><rect
         width="32"
         height="0.97227097"
         x="8"
         y="23"
         fill="url(#r)"
         opacity="0.5"
         rx="0"
         ry="0"
         id="rect31"
         style="fill:url(#r-6)" /><rect
         width="32"
         height="0.97227097"
         x="8"
         y="25"
         fill="url(#s)"
         opacity="0.5"
         rx="0"
         ry="0"
         id="rect32-8"
         style="fill:url(#s-47)" /><rect
         width="32"
         height="0.97227097"
         x="8"
         y="27"
         fill="url(#t)"
         opacity="0.5"
         rx="0"
         ry="0"
         id="rect33"
         style="fill:url(#t-5)" /><rect
         width="32"
         height="0.97227097"
         x="8"
         y="29"
         fill="url(#u)"
         opacity="0.5"
         rx="0"
         ry="0"
         id="rect34"
         style="fill:url(#u-5)" /><rect
         width="32"
         height="0.97227097"
         x="8"
         y="31"
         fill="url(#v)"
         opacity="0.5"
         rx="0"
         ry="0"
         id="rect35"
         style="fill:url(#v-1)" /><rect
         width="32"
         height="0.97227097"
         x="8"
         y="33"
         fill="url(#w)"
         opacity="0.5"
         rx="0"
         ry="0"
         id="rect36"
         style="fill:url(#w-6)" /><rect
         width="32"
         height="0.97227097"
         x="8"
         y="35"
         fill="url(#x)"
         opacity="0.5"
         rx="0"
         ry="0"
         id="rect37"
         style="fill:url(#x-0)" /><rect
         width="32"
         height="0.97227097"
         x="8"
         y="37"
         fill="url(#y)"
         opacity="0.5"
         rx="0"
         ry="0"
         id="rect38"
         style="fill:url(#y-2)" /><rect
         width="32"
         height="0.97227097"
         x="8"
         y="39"
         fill="url(#z)"
         opacity="0.5"
         rx="0"
         ry="0"
         id="rect39"
         style="fill:url(#z-3)" /><rect
         width="32"
         height="0.97227097"
         x="8"
         y="41"
         fill="url(#A)"
         opacity="0.5"
         rx="0"
         ry="0"
         id="rect40"
         style="fill:url(#A-6)" /></g><rect
       width="34"
       height="4"
       x="7"
       y="18"
       fill="url(#B)"
       fill-rule="evenodd"
       color="#000000"
       overflow="visible"
       rx="1.7146454"
       ry="1.6610726"
       style="fill:url(#B-22);marker:none"
       id="rect41" /><path
       fill="url(#C)"
       fill-rule="evenodd"
       d="M 39.022894,21.954401 H 8.9789228 c -1.518102,0.0081 -1.980695,0.640186 -1.99632,2.380825 v 10.845656 c 5.3481802,4.75668 17.7926802,-4.969999 34.0000002,0 V 24.314186 c -0.01261,-1.780269 -0.540848,-2.346047 -1.959709,-2.359785 z"
       opacity="0.406593"
       id="path41"
       style="fill:url(#C-1)" /><path
       fill="url(#D)"
       d="m 25.102292,22.013826 v 9.63433 c 0.08839,1.237436 -1.524699,2.253902 -3.093592,2.12132 -1.568894,-0.132583 -3.358758,-1.06066 -3.181981,-2.032932 v -9.811107 c 2.757312,-2.743559 8.539722,-3.447176 14.316721,-2.407679 -3.213009,0.709109 -7.655917,1.134395 -8.041148,2.496068 z"
       color="#000000"
       display="block"
       opacity="0.0888889"
       overflow="visible"
       style="fill:url(#D-0);marker:none"
       id="path42" /><rect
       width="33"
       height="2.8557696"
       x="7.5"
       y="18.634619"
       fill="none"
       stroke="url(#E)"
       stroke-linecap="round"
       stroke-linejoin="round"
       color="#000000"
       overflow="visible"
       rx="1.2001942"
       ry="1.0968477"
       style="stroke:url(#E-61);marker:none"
       id="rect42" /><g
       fill-rule="evenodd"
       id="g45"><path
         fill="url(#F)"
         stroke="url(#G)"
         stroke-width="1"
         d="M 14.625,19.194666 14.5,17.773114 c 1.582652,0.930501 2.901837,0.831392 3.5,0.249998 L 14.5,15.523113 V 6.892856 C 14.378104,-1.0416346 18.139338,-3.204022 24.395027,-1.9348152 30.571757,-0.6816282 37.5,7.6479326 37.5,13.625 v 8.234846 c -0.08395,1.703585 -4.963388,-0.927697 -5,-2.625 V 11.375 C 32.5,9.497501 29.9793,4.8322283 25.452241,4.0147537 20.953737,3.2024354 20.52268,6.1233627 20.52268,9.2955955 l 0.0625,13.0599805 C 20.875,24.589755 14.625,21.644953 14.625,19.194666 Z"
         transform="matrix(1,-0.53571,0,1,1,17.36974)"
         id="path43"
         style="fill:url(#F);stroke:url(#G)" /><path
         fill="url(#H)"
         d="m 15.375,6.4312763 c 0,-6.79282959 4.166201,-8.2082401 8.834268,-7.3317725 -2.544456,0.23961135 -6.6483,1.17076275 -6.622669,7.4124321 l -0.10334,8.0405471 C 17.435924,16.116317 15.5625,14.784048 15.5,13.377798 Z"
         transform="matrix(1,-0.53571,0,1,1,17.36974)"
         id="path44"
         style="fill:url(#H)" /><path
         fill="url(#I)"
         d="m 33.500368,9.7120694 h 2 v 9.6354126 c -0.0625,1.125 -2.03125,0.53125 -2,0 z"
         transform="matrix(1,-0.53571,0,1,1,17.36974)"
         id="path45"
         style="fill:url(#I)" /></g><path
       fill="url(#J)"
       d="m 39.375,19.375 a 2.8125,1.25 0 1 1 -5.625,0 2.8125,1.25 0 1 1 5.625,0 z"
       color="#000000"
       display="block"
       overflow="visible"
       style="fill:url(#J);marker:none"
       transform="translate(-24.25,-0.125)"
       id="path46" /></g></svg>
