<?xml version="1.0" encoding="UTF-8" standalone="no"?>
<svg
   width="256"
   height="256"
   version="1.1"
   id="svg30"
   sodipodi:docname="folder-saved-search.svg"
   viewBox="0 0 256 256"
   inkscape:version="1.4.2 (ebf0e940d0, 2025-05-08)"
   xmlns:inkscape="http://www.inkscape.org/namespaces/inkscape"
   xmlns:sodipodi="http://sodipodi.sourceforge.net/DTD/sodipodi-0.dtd"
   xmlns:xlink="http://www.w3.org/1999/xlink"
   xmlns="http://www.w3.org/2000/svg"
   xmlns:svg="http://www.w3.org/2000/svg"
   xmlns:rdf="http://www.w3.org/1999/02/22-rdf-syntax-ns#"
   xmlns:cc="http://creativecommons.org/ns#"
   xmlns:dc="http://purl.org/dc/elements/1.1/">
  <sodipodi:namedview
     id="namedview30"
     pagecolor="#ffffff"
     bordercolor="#000000"
     borderopacity="0.25"
     inkscape:showpageshadow="2"
     inkscape:pageopacity="0.0"
     inkscape:pagecheckerboard="0"
     inkscape:deskcolor="#d1d1d1"
     inkscape:zoom="2.4408803"
     inkscape:cx="200.95209"
     inkscape:cy="211.60399"
     inkscape:current-layer="svg30" />
  <defs
     id="defs18">
    <radialGradient
       id="k"
       cx="605.71399"
       cy="486.64801"
       r="117.143"
       fx="605.71399"
       fy="486.64801"
       gradientTransform="matrix(-2.77439,0,0,1.9697,112.762,-872.885)"
       gradientUnits="userSpaceOnUse"
       xlink:href="#a" />
    <linearGradient
       id="a">
      <stop
         offset="0"
         id="stop1" />
      <stop
         offset="1"
         stop-opacity="0"
         id="stop2" />
    </linearGradient>
    <radialGradient
       id="j"
       cx="605.71399"
       cy="486.64801"
       r="117.143"
       fx="605.71399"
       fy="486.64801"
       gradientTransform="matrix(2.77439,0,0,1.9697,-1891.633,-872.885)"
       gradientUnits="userSpaceOnUse"
       xlink:href="#a" />
    <linearGradient
       id="b">
      <stop
         offset="0"
         stop-opacity="0"
         id="stop3" />
      <stop
         offset=".5"
         id="stop4" />
      <stop
         offset="1"
         stop-opacity="0"
         id="stop5" />
    </linearGradient>
    <linearGradient
       id="i"
       x1="302.85699"
       x2="302.85699"
       y1="366.64801"
       y2="609.505"
       gradientTransform="matrix(2.77439,0,0,1.9697,-1892.179,-872.885)"
       gradientUnits="userSpaceOnUse"
       xlink:href="#b" />
    <linearGradient
       id="h">
      <stop
         offset="0"
         stop-color="#fecf8c"
         id="stop6" />
      <stop
         offset=".184"
         stop-color="#fcba58"
         id="stop7" />
      <stop
         offset="1"
         stop-color="#fdc572"
         id="stop8" />
    </linearGradient>
    <linearGradient
       id="g">
      <stop
         offset="0"
         stop-color="#fff"
         id="stop9" />
      <stop
         offset="1"
         stop-color="#fff"
         stop-opacity="0"
         id="stop10" />
    </linearGradient>
    <linearGradient
       id="f">
      <stop
         offset="0"
         stop-color="#424242"
         id="stop11" />
      <stop
         offset="1"
         stop-color="#777"
         id="stop12" />
    </linearGradient>
    <linearGradient
       id="e">
      <stop
         offset="0"
         stop-color="#fff"
         id="stop13" />
      <stop
         offset="1"
         stop-color="#fff"
         stop-opacity="0"
         id="stop14" />
    </linearGradient>
    <linearGradient
       id="c">
      <stop
         offset="0"
         stop-color="#202020"
         id="stop15" />
      <stop
         offset="1"
         stop-color="#b9b9b9"
         id="stop16" />
    </linearGradient>
    <radialGradient
       id="l"
       cx="20.705999"
       cy="37.518002"
       r="30.905001"
       fx="20.705999"
       fy="37.518002"
       gradientTransform="matrix(1.056,0.01513,0.14262,1.2516,-2.276,-10.281)"
       gradientUnits="userSpaceOnUse"
       xlink:href="#c" />
    <linearGradient
       id="d">
      <stop
         offset="0"
         stop-color="#fff"
         stop-opacity=".876"
         id="stop17" />
      <stop
         offset="1"
         stop-color="#fffffe"
         stop-opacity="0"
         id="stop18" />
    </linearGradient>
    <linearGradient
       id="n"
       x1="6.23"
       x2="9.8979998"
       y1="13.773"
       y2="66.834"
       gradientTransform="matrix(1.51684,0,0,0.70898,-0.88,-1.318)"
       gradientUnits="userSpaceOnUse"
       xlink:href="#d" />
    <linearGradient
       id="p"
       x1="13.036"
       x2="12.854"
       y1="32.567001"
       y2="46.688999"
       gradientTransform="matrix(1.31749,0,0,0.81626,-0.88,-1.318)"
       gradientUnits="userSpaceOnUse"
       xlink:href="#e" />
    <linearGradient
       id="m"
       x1="18.113001"
       x2="15.515"
       y1="31.368"
       y2="6.1799998"
       gradientUnits="userSpaceOnUse"
       xlink:href="#f" />
    <linearGradient
       id="q"
       x1="20.132999"
       x2="20.796"
       y1="33.646999"
       y2="50.771"
       gradientTransform="matrix(1.20787,0,-0.04031,0.8279,-29.596,-0.118)"
       gradientUnits="userSpaceOnUse"
       xlink:href="#g" />
    <linearGradient
       id="o"
       x1="28.238001"
       x2="28.753"
       y1="40.013"
       y2="17.488001"
       gradientUnits="userSpaceOnUse"
       xlink:href="#h" />
  </defs>
  <g
     id="g30"
     transform="matrix(5.5403554,0,0,5.5403554,-0.66077942,1.8792155)">
    <g
       color="#000000"
       id="g20">
      <path
         fill="url(#i)"
         d="M -1559.252,-150.697 H -219.619 V 327.66 h -1339.633 z"
         opacity="0.402"
         style="fill:url(#i);marker:none"
         transform="matrix(0.02262,0,0,0.02087,43.383,36.37)"
         id="path18" />
      <path
         fill="url(#j)"
         d="m -219.61876,-150.68038 c 0,0 0,478.33079 0,478.33079 142.874166,0.90045 345.40022,-107.16966 345.40014,-239.196175 0,-132.026537 -159.436816,-239.134595 -345.40014,-239.134615 z"
         opacity="0.402"
         style="fill:url(#j);marker:none"
         transform="matrix(0.02262,0,0,0.02087,43.383,36.37)"
         id="path19" />
      <path
         fill="url(#k)"
         d="m -1559.2523,-150.68038 c 0,0 0,478.33079 0,478.33079 -142.8742,0.90045 -345.4002,-107.16966 -345.4002,-239.196175 0,-132.026537 159.4368,-239.134595 345.4002,-239.134615 z"
         opacity="0.402"
         style="fill:url(#k);marker:none"
         transform="matrix(0.02262,0,0,0.02087,43.383,36.37)"
         id="path20" />
    </g>
    <path
       fill="url(#l)"
       stroke="url(#m)"
       stroke-linecap="round"
       stroke-linejoin="round"
       stroke-width="0.998"
       d="m 4.5217805,38.687417 c 0.021796,0.416304 0.4599049,0.832609 0.8762095,0.832609 h 31.327021 c 0.416302,0 0.810812,-0.416305 0.789016,-0.832609 L 36.577584,11.460682 c -0.0218,-0.416303 -0.459897,-0.832616 -0.876201,-0.832616 H 22.43051 c -0.485057,0 -1.234473,-0.315589 -1.401644,-1.1066322 L 20.417475,6.6283628 C 20.262006,5.8926895 19.535261,5.5904766 19.118957,5.5904766 H 4.3400975 c -0.4163128,0 -0.8108208,0.4163041 -0.7890249,0.8326083 z"
       transform="matrix(1.00104,0,0,1.00208,-0.054,-0.102)"
       id="path21"
       style="fill:url(#l);stroke:url(#m)" />
    <path
       fill="#729fcf"
       stroke="#000000"
       stroke-linecap="round"
       stroke-linejoin="round"
       d="M 5.0421736,18.5625 H 35.489104 m -30.5084075,-6 H 35.488057 m -30.2614643,10 H 35.492173 m -30.1060153,10 H 35.494881 m -29.9857412,2 H 35.496893 m -30.4547194,-18 H 35.489104 m -30.2932503,4 H 35.491649 m -30.4802145,-6 H 35.48858"
       color="#000000"
       opacity="0.114"
       style="marker:none"
       id="path22" />
    <path
       fill="#ffffff"
       fill-opacity="0.508"
       d="m 42.417183,8.5151772 c 0.0051,-0.097113 -0.128161,-0.2469882 -0.235117,-0.2470056 l -13.031401,-0.00212 c 0,0 0.911714,0.5879545 2.201812,0.5962436 l 11.053497,0.07102 c 0.01109,-0.2117278 0.0027,-0.2560322 0.01121,-0.4181395 z"
       transform="matrix(1.04076,0,0.0545,1.04076,-8.54,2.453)"
       id="path23" />
    <path
       fill="#729fcf"
       stroke="#000000"
       stroke-linecap="round"
       stroke-linejoin="round"
       d="M 5.2265927,24.5625 H 35.492173 m -30.1675064,6 H 35.493876 m -30.1692094,-2 H 35.493876 m -29.9847362,8 H 35.496893"
       color="#000000"
       opacity="0.114"
       style="marker:none"
       id="path24" />
    <path
       fill="url(#n)"
       d="m 6.068343,38.864023 c 0.016343,0.312228 -0.1809113,0.520379 -0.4985848,0.416303 v 0 C 5.2520766,39.176251 5.033027,38.968099 5.0166756,38.65587 L 4.068956,6.5913839 C 4.0526131,6.2791558 4.2341418,6.0906134 4.5463699,6.0906134 L 18.96842,6.0429196 c 0.312228,0 0.931943,0.3004727 1.132936,1.3221818 l 0.573489,2.8155346 C 20.247791,9.715379 20.255652,9.7010175 20.037287,9.0239299 L 19.631192,7.7647478 C 19.412142,7.0371009 18.932991,6.9328477 18.620763,6.9328477 H 5.7329889 c -0.3122276,0 -0.5094814,0.2081522 -0.4931306,0.5203887 L 6.1778636,38.968099 Z"
       color="#000000"
       display="block"
       opacity="0.451"
       style="fill:url(#n);marker:none"
       id="path25" />
    <path
       fill="#729fcf"
       stroke="#000000"
       stroke-linecap="round"
       stroke-linejoin="round"
       d="M 5.2880638,26.5625 H 35.493184 M 4.8737534,8.5624999 H 19.657487 M 4.9220969,10.5625 H 20.202912"
       color="#000000"
       opacity="0.114"
       style="marker:none"
       id="path26" />
    <path
       fill="url(#o)"
       stroke="#ce5c00"
       stroke-linejoin="round"
       stroke-width="1.005"
       d="m 39.783532,39.51062 c 1.143894,-0.04406 1.963076,-1.096299 2.047035,-2.321005 0.791787,-11.548687 1.65936,-21.231949 1.65936,-21.231949 0.07215,-0.247484 -0.167911,-0.494967 -0.48014,-0.494967 H 8.6386304 c 0,0 -1.8503191,21.866892 -1.8503191,21.866892 -0.1145551,0.982066 -0.4660075,1.804718 -1.5498358,2.183713 z"
       color="#000000"
       display="block"
       style="fill:url(#o);marker:none"
       transform="matrix(0.9931,0,0,0.9979,0.298,0.07)"
       id="path27" />
    <path
       fill="none"
       stroke="url(#p)"
       stroke-linecap="round"
       stroke-width="1.005"
       d="m 9.6202444,16.463921 32.7910986,0.06481 -1.574046,20.001979 c -0.08432,1.071511 -0.450678,1.428215 -1.872656,1.428215 -1.871502,0 -28.677968,-0.03241 -31.394742,-0.03241 0.2335983,-0.320811 0.3337557,-0.988623 0.3350963,-1.004612 z"
       opacity="0.466"
       transform="matrix(0.9931,0,0,0.9979,0.298,0.07)"
       id="path28"
       style="stroke:url(#p)" />
    <path
       fill="#ffffff"
       fill-opacity="0.089"
       fill-rule="evenodd"
       d="M 9.6202481,16.223182 8.4536014,31.866453 c 0,0 8.2961546,-4.148078 18.6663476,-4.148078 10.370193,0 15.55529,-11.495193 15.55529,-11.495193 z"
       transform="matrix(0.9931,0,0,0.9979,0.298,0.07)"
       id="path29" />
    <path
       fill="url(#q)"
       fill-rule="evenodd"
       d="m 23.216296,20.483131 c -3.276561,0.251278 -6.009643,3.011517 -6.171528,6.336257 -0.169847,3.488253 2.564497,6.362549 6.052751,6.362549 1.710061,0 3.303557,-0.674942 4.504026,-1.787824 0.06174,0.179965 0.169997,0.35274 0.291175,0.499539 0.110474,0.128425 0.251889,0.252489 0.404022,0.34179 l 4.083749,2.523986 c 0.775291,0.479174 1.823758,0.220209 2.341818,-0.578413 0.518059,-0.798622 0.309531,-1.834481 -0.46576,-2.313654 l -4.083748,-2.523987 c -0.275834,-0.177003 -0.60107,-0.274169 -0.933694,-0.262915 0.30212,-0.700223 0.465986,-1.470764 0.504467,-2.261071 0.169846,-3.488252 -2.539486,-6.336257 -6.027739,-6.336257 -0.163513,0 -0.338397,-0.01236 -0.499539,0 z m 0.218894,2.523986 c 0.04935,-0.0018 0.108001,0 0.15775,0 2.122617,10e-7 3.73,1.689653 3.626648,3.812271 -0.103353,2.122619 -1.875277,3.812271 -3.997894,3.812271 -2.122619,0 -3.73,-1.689652 -3.626648,-3.812271 0.100929,-2.072869 1.784062,-3.735623 3.840144,-3.812271 z"
       color="#000000"
       style="fill:url(#q);marker:none"
       transform="matrix(1.00168,0,0,0.96403,-0.066,1.259)"
       id="path30" />
  </g>
  <metadata
     id="metadata30">
    <rdf:RDF>
      <cc:Work
         rdf:about="">
        <dc:source>https://commons.wikimedia.org/wiki/File:Folder-saved-search.svg</dc:source>
        <cc:license
           rdf:resource="http://creativecommons.org/publicdomain/zero/1.0/" />
      </cc:Work>
      <cc:License
         rdf:about="http://creativecommons.org/publicdomain/zero/1.0/">
        <cc:permits
           rdf:resource="http://creativecommons.org/ns#Reproduction" />
        <cc:permits
           rdf:resource="http://creativecommons.org/ns#Distribution" />
        <cc:permits
           rdf:resource="http://creativecommons.org/ns#DerivativeWorks" />
      </cc:License>
    </rdf:RDF>
  </metadata>
</svg>
