<?xml version="1.0" encoding="UTF-8" standalone="no"?>
<!-- Created with Inkscape (http://www.inkscape.org/) -->

<svg
   id="svg97"
   height="256"
   width="256"
   version="1.0"
   sodipodi:docname="folder_image.svg"
   inkscape:version="1.4.2 (ebf0e940d0, 2025-05-08)"
   xml:space="preserve"
   viewBox="0 0 256 256"
   xmlns:inkscape="http://www.inkscape.org/namespaces/inkscape"
   xmlns:sodipodi="http://sodipodi.sourceforge.net/DTD/sodipodi-0.dtd"
   xmlns:xlink="http://www.w3.org/1999/xlink"
   xmlns="http://www.w3.org/2000/svg"
   xmlns:svg="http://www.w3.org/2000/svg"
   xmlns:rdf="http://www.w3.org/1999/02/22-rdf-syntax-ns#"
   xmlns:cc="http://creativecommons.org/ns#"
   xmlns:dc="http://purl.org/dc/elements/1.1/"><title
     id="title4">Folder open/close recreated</title><sodipodi:namedview
     id="namedview1"
     pagecolor="#ffffff"
     bordercolor="#000000"
     borderopacity="0.25"
     inkscape:showpageshadow="2"
     inkscape:pageopacity="0.0"
     inkscape:pagecheckerboard="0"
     inkscape:deskcolor="#d1d1d1"
     inkscape:zoom="2.4408803"
     inkscape:cx="128.43727"
     inkscape:cy="113.2788"
     inkscape:current-layer="svg97" /><defs
     id="defs3"><radialGradient
       id="radialGradient6719"
       xlink:href="#linearGradient5060"
       gradientUnits="userSpaceOnUse"
       cy="486.64999"
       cx="605.71002"
       gradientTransform="matrix(-2.0913748,0,0,1.9697,-298.69145,-872.89)"
       r="117.14" /><linearGradient
       id="linearGradient5060"><stop
         id="stop5062"
         offset="0" /><stop
         id="stop5064"
         stop-opacity="0"
         offset="1" /></linearGradient><radialGradient
       id="radialGradient6717"
       xlink:href="#linearGradient5060"
       gradientUnits="userSpaceOnUse"
       cy="486.64999"
       cx="605.71002"
       gradientTransform="matrix(2.7744,0,0,1.9697,-1891.6,-872.89)"
       r="117.14" /><linearGradient
       id="linearGradient6715"
       y2="609.51001"
       gradientUnits="userSpaceOnUse"
       x2="302.85999"
       gradientTransform="matrix(2.7744,0,0,1.9697,-1892.2,-872.89)"
       y1="366.64999"
       x1="302.85999"><stop
         id="stop5050"
         stop-opacity="0"
         offset="0" /><stop
         id="stop5056"
         offset=".5" /><stop
         id="stop5052"
         stop-opacity="0"
         offset="1" /></linearGradient><radialGradient
       id="radialGradient238"
       gradientUnits="userSpaceOnUse"
       cy="37.518002"
       cx="20.705999"
       gradientTransform="matrix(1.055,-0.027345,0.1777,1.1909,-3.5722,-7.1253)"
       r="30.905001"><stop
         id="stop1790"
         stop-color="#202020"
         offset="0" /><stop
         id="stop1791"
         stop-color="#b9b9b9"
         offset="1" /></radialGradient><linearGradient
       id="linearGradient491"
       y2="66.834"
       gradientUnits="userSpaceOnUse"
       x2="9.8980999"
       gradientTransform="matrix(1.5168,0,0,0.70898,-0.87957,-1.3182)"
       y1="13.773"
       x1="6.2298002"><stop
         id="stop3984"
         stop-color="#fff"
         stop-opacity=".87629"
         offset="0" /><stop
         id="stop3985"
         stop-color="#fffffe"
         stop-opacity="0"
         offset="1" /></linearGradient><linearGradient
       id="linearGradient322"
       y2="46.688999"
       gradientUnits="userSpaceOnUse"
       x2="12.854"
       gradientTransform="matrix(1.3175,0,0,0.81626,-0.87957,-1.3182)"
       y1="32.567001"
       x1="13.036"><stop
         id="stop320"
         stop-color="#fff"
         offset="0" /><stop
         id="stop321"
         stop-color="#fff"
         stop-opacity="0"
         offset="1" /></linearGradient><linearGradient
       id="linearGradient3104"
       y2="6.1803002"
       gradientUnits="userSpaceOnUse"
       x2="15.515"
       y1="31.368"
       x1="18.113001"><stop
         id="stop3098"
         stop-color="#424242"
         offset="0" /><stop
         id="stop3100"
         stop-color="#777"
         offset="1" /></linearGradient><linearGradient
       id="linearGradient9772"
       y2="32.049999"
       gradientUnits="userSpaceOnUse"
       x2="22.065001"
       y1="36.987999"
       x1="22.176001"><stop
         id="stop9768"
         stop-color="#6194cb"
         offset="0" /><stop
         id="stop9770"
         stop-color="#729fcf"
         offset="1" /></linearGradient><linearGradient
       id="a"><stop
         offset="0"
         stop-opacity="0"
         id="stop3" /><stop
         offset=".5"
         id="stop4" /><stop
         offset="1"
         stop-opacity="0"
         id="stop5" /></linearGradient><linearGradient
       xlink:href="#a"
       id="i"
       x1="302.85715"
       x2="302.85715"
       y1="366.64789"
       y2="609.50507"
       gradientTransform="matrix(2.77439,0,0,1.9697,-1892.179,-872.8854)"
       gradientUnits="userSpaceOnUse" /><linearGradient
       id="e"><stop
         offset="0"
         stop-color="#6194cb"
         id="stop8" /><stop
         offset="1"
         stop-color="#729fcf"
         id="stop9" /></linearGradient><linearGradient
       id="c"><stop
         offset="0"
         stop-color="#fff"
         stop-opacity=".13402061"
         id="stop10" /><stop
         offset="1"
         stop-color="#fff"
         stop-opacity=".05154639"
         id="stop11" /></linearGradient><linearGradient
       id="b"><stop
         offset="0"
         stop-color="#fff"
         id="stop12" /><stop
         offset="1"
         stop-color="#fff"
         stop-opacity="0"
         id="stop13" /></linearGradient><linearGradient
       id="h"><stop
         offset="0"
         stop-color="#a0a0a0"
         id="stop14" /><stop
         offset="1"
         stop-color="#a8a8a8"
         id="stop15" /></linearGradient><linearGradient
       id="d"><stop
         offset="0"
         stop-color="#fff"
         stop-opacity=".70059878"
         id="stop16" /><stop
         offset="1"
         stop-color="#fff"
         stop-opacity="0"
         id="stop17" /></linearGradient><linearGradient
       xlink:href="#b"
       id="q"
       x1="19.116116"
       x2="19.426924"
       y1="28.946041"
       y2="51.912693"
       gradientTransform="scale(1.42154,0.70346)"
       gradientUnits="userSpaceOnUse" /><linearGradient
       xlink:href="#c"
       id="p"
       x1="14.899379"
       x2="22.715446"
       y1="27.059643"
       y2="41.836895"
       gradientTransform="matrix(1.5353,0,0,0.65134,3.451418,2.448)"
       gradientUnits="userSpaceOnUse" /><linearGradient
       xlink:href="#d"
       id="m"
       x1="5.2657914"
       x2="8.212224"
       y1="18.725863"
       y2="52.625851"
       gradientTransform="matrix(1.4627,0,0.06908302,0.68367,0,0)"
       gradientUnits="userSpaceOnUse" /><linearGradient
       xlink:href="#e"
       id="o"
       x1="-22.89403"
       x2="-19.799696"
       y1="38.945435"
       y2="20.305889"
       gradientTransform="matrix(1,0,0,1.02212,52.05694,-1.323026)"
       gradientUnits="userSpaceOnUse" /><linearGradient
       xlink:href="#linearGradient5060"
       id="n"
       x1="22.25"
       x2="19.75"
       y1="37.625"
       y2="14.875"
       gradientUnits="userSpaceOnUse" /><radialGradient
       xlink:href="#linearGradient5060"
       id="k"
       cx="605.71429"
       cy="486.64789"
       r="117.14286"
       fx="605.71429"
       fy="486.64789"
       gradientTransform="matrix(-2.77439,0,0,1.9697,112.7623,-872.8854)"
       gradientUnits="userSpaceOnUse" /><radialGradient
       xlink:href="#linearGradient5060"
       id="j"
       cx="605.71429"
       cy="486.64789"
       r="117.14286"
       fx="605.71429"
       fy="486.64789"
       gradientTransform="matrix(2.77439,0,0,1.9697,-1891.633,-872.8854)"
       gradientUnits="userSpaceOnUse" /><radialGradient
       xlink:href="#h"
       id="l"
       cx="26.106777"
       cy="38.195114"
       r="32.259769"
       fx="26.106777"
       fy="38.195114"
       gradientTransform="matrix(1.01564,0,0.1031,1.00051,0,-0.08369458)"
       gradientUnits="userSpaceOnUse" /><linearGradient
       id="linearGradient2290"><stop
         id="stop2292"
         stop-color="#555753"
         offset="0" /><stop
         id="stop2294"
         stop-color="#313330"
         offset="1" /></linearGradient><linearGradient
       id="linearGradient3301"><stop
         id="stop3303"
         stop-color="#fff"
         offset="0" /><stop
         id="stop3305"
         stop-color="#cbcbcb"
         offset="1" /></linearGradient><radialGradient
       id="radialGradient3214"
       xlink:href="#linearGradient5060"
       gradientUnits="userSpaceOnUse"
       cy="36.812"
       cx="25.375"
       gradientTransform="matrix(1,0,0,0.45357,0,20.115)"
       r="17.5" /><linearGradient
       id="linearGradient3222"
       y2="30.566"
       gradientUnits="userSpaceOnUse"
       x2="38.416"
       y1="39.051998"
       x1="22.549999"><stop
         id="stop2617"
         stop-color="#363d40"
         offset="0" /><stop
         id="stop2623"
         stop-color="#818f95"
         offset=".5" /><stop
         id="stop2619"
         stop-color="#31383b"
         offset="1" /></linearGradient><linearGradient
       id="linearGradient3224"
       y2="30.917"
       gradientUnits="userSpaceOnUse"
       x2="33.903999"
       y1="35.303001"
       x1="23.660999"><stop
         id="stop2675"
         stop-color="#8b8b8b"
         offset="0" /><stop
         id="stop2681"
         stop-color="#d3d9da"
         offset=".5" /><stop
         id="stop2677"
         stop-color="#828282"
         offset="1" /></linearGradient><radialGradient
       id="radialGradient3230"
       gradientUnits="userSpaceOnUse"
       cy="23.672001"
       cx="16.875"
       gradientTransform="matrix(1,0,0,1.0135,0,-0.3049)"
       r="4.625"><stop
         id="stop2593"
         stop-color="#7a7a7a"
         offset="0" /><stop
         id="stop2595"
         offset="1" /></radialGradient><linearGradient
       id="linearGradient3232"
       y2="27.073"
       gradientUnits="userSpaceOnUse"
       x2="18.422001"
       y1="18.849001"
       x1="12.836"><stop
         id="stop2633"
         stop-color="#010101"
         offset="0" /><stop
         id="stop2635"
         stop-color="#959595"
         offset="1" /></linearGradient><radialGradient
       id="radialGradient3234"
       gradientUnits="userSpaceOnUse"
       cy="22.688"
       cx="14.75"
       gradientTransform="matrix(1,0,0,1.0357,0,-0.81027)"
       r="1.75"><stop
         id="stop2820"
         stop-color="#fff"
         offset="0" /><stop
         id="stop2822"
         stop-color="#fff"
         stop-opacity="0"
         offset="1" /></radialGradient><linearGradient
       id="linearGradient3479"
       y2="30.191"
       xlink:href="#linearGradient3301"
       gradientUnits="userSpaceOnUse"
       x2="6.5595999"
       gradientTransform="matrix(0.65524,0,0,1.8985,15.689,-36.745)"
       y1="29.374001"
       x1="6.5595999" /><linearGradient
       id="linearGradient3484"
       y2="30.191"
       xlink:href="#linearGradient3301"
       gradientUnits="userSpaceOnUse"
       x2="6.5595999"
       gradientTransform="matrix(1.4778,0,0,1.9822,19.315,-52.801)"
       y1="29.374001"
       x1="6.5595999" /><linearGradient
       id="linearGradient3486"
       y2="24.701"
       gradientUnits="userSpaceOnUse"
       x2="7.9151001"
       gradientTransform="matrix(1.3184,0,0,0.77319,19.455,-15.414)"
       y1="30.816999"
       x1="7.9151001"><stop
         id="stop2232"
         stop-color="#eee"
         offset="0" /><stop
         id="stop2234"
         stop-color="#a2a2a2"
         offset="1" /></linearGradient><linearGradient
       id="linearGradient3489"
       y2="12.847"
       gradientUnits="userSpaceOnUse"
       x2="29.395"
       gradientTransform="translate(0.74746,-1.1933)"
       y1="9.4122"
       x1="29.395"><stop
         id="stop2270"
         stop-color="#555753"
         offset="0" /><stop
         id="stop2272"
         stop-color="#141514"
         offset="1" /></linearGradient><linearGradient
       id="linearGradient3497"
       y2="57.125"
       gradientUnits="userSpaceOnUse"
       x2="35.888"
       gradientTransform="translate(0.74746,-1.1933)"
       y1="16.125"
       x1="16.667"><stop
         id="stop2692"
         stop-color="#fff"
         offset="0" /><stop
         id="stop2694"
         stop-color="#fff"
         stop-opacity="0"
         offset="1" /></linearGradient><linearGradient
       id="linearGradient3503"
       y2="29.719"
       xlink:href="#linearGradient2290"
       gradientUnits="userSpaceOnUse"
       x2="14.844"
       gradientTransform="matrix(1.025,0,0,1,0.67951,-1.1933)"
       y1="29.719"
       x1="7.8705001" /><linearGradient
       id="linearGradient3510"
       y2="26.093"
       gradientUnits="userSpaceOnUse"
       x2="30.129999"
       gradientTransform="translate(0.74746,-1.1933)"
       y1="26.093"
       x1="16.353001"><stop
         id="stop2306"
         stop-color="#353633"
         offset="0" /><stop
         id="stop2308"
         stop-color="#676964"
         offset="1" /></linearGradient><linearGradient
       id="linearGradient3513"
       y2="29.719"
       xlink:href="#linearGradient2290"
       gradientUnits="userSpaceOnUse"
       x2="14.844"
       gradientTransform="matrix(1.0358,0,0,1,0.58499,-0.99129)"
       y1="29.719"
       x1="7.8705001" /><radialGradient
       inkscape:collect="always"
       xlink:href="#linearGradient5060"
       id="radialGradient1"
       gradientUnits="userSpaceOnUse"
       gradientTransform="matrix(1,0,0,0.45357,0,20.115)"
       cx="25.375"
       cy="36.812"
       r="17.5" /></defs><g
     id="layer1"
     transform="matrix(5.5668514,0,0,5.5668514,-11.854349,0.53914632)"
     style="display:inline"><g
       id="g2"
       inkscape:label="back"
       style="display:inline"><g
         id="g6707"
         transform="matrix(0.022624,0,0,0.020868,43.383,36.37)"><rect
           id="rect6709"
           opacity="0.40206"
           height="478.35999"
           width="1339.6"
           y="-150.7"
           x="-1559.3"
           fill="url(#linearGradient6715)"
           style="fill:url(#linearGradient6715)" /><path
           id="path6711"
           opacity="0.40206"
           d="m -219.62,-150.68 v 478.33 c 142.88,0.9 345.4,-107.17 345.4,-239.2 0,-132.02 -159.44,-239.13 -345.4,-239.13 z"
           fill="url(#radialGradient6717)"
           style="fill:url(#radialGradient6717)" /><path
           id="path6713"
           opacity="0.40206"
           d="m -1559.1096,-150.68 v 478.33 c -107.6443,0.9 -260.3665,-107.17 -260.3665,-239.2 0,-132.02 120.233,-239.13 260.3665,-239.13 z"
           fill="url(#radialGradient6719)"
           style="fill:url(#radialGradient6719);stroke-width:0.868223" /></g><path
         id="path216"
         stroke-linejoin="round"
         d="m 4.5218,38.687 c 0.0218,0.417 0.4599,0.833 0.8762,0.833 h 31.327 c 0.416,0 0.811,-0.416 0.789,-0.833 L 36.578,11.461 c -0.022,-0.417 -0.46,-0.833 -0.877,-0.833 h -13.27 c -0.486,0 -1.235,-0.316 -1.402,-1.1066 L 20.417,6.6284 C 20.262,5.8927 19.535,5.5905 19.119,5.5905 H 4.34 c -0.4162,0 -0.8107,0.4163 -0.7889,0.8326 l 0.9707,32.264 z"
         stroke="url(#linearGradient3104)"
         stroke-linecap="round"
         fill="url(#radialGradient238)"
         style="fill:url(#radialGradient238);stroke:url(#linearGradient3104)" /><path
         id="path9788"
         opacity="0.11364"
         stroke-linejoin="round"
         d="m 5.2266,22.562 h 30.265"
         stroke="#000000"
         stroke-linecap="round"
         fill="#729fcf" /><path
         id="path9784"
         opacity="0.11364"
         stroke-linejoin="round"
         d="m 5.0422,18.562 h 30.447"
         stroke="#000000"
         stroke-linecap="round"
         fill="#729fcf" /><path
         id="path9778"
         opacity="0.11364"
         stroke-linejoin="round"
         d="m 4.9807,12.562 h 30.507"
         stroke="#000000"
         stroke-linecap="round"
         fill="#729fcf" /><path
         id="path9798"
         opacity="0.11364"
         stroke-linejoin="round"
         d="m 5.3862,32.562 h 30.109"
         stroke="#000000"
         stroke-linecap="round"
         fill="#729fcf" /><path
         id="path9800"
         opacity="0.11364"
         stroke-linejoin="round"
         d="m 5.5091,34.562 h 29.988"
         stroke="#000000"
         stroke-linecap="round"
         fill="#729fcf" /><path
         id="path9782"
         opacity="0.11364"
         stroke-linejoin="round"
         d="m 5.0422,16.562 h 30.447"
         stroke="#000000"
         stroke-linecap="round"
         fill="#729fcf" /><path
         id="path9780"
         opacity="0.11364"
         stroke-linejoin="round"
         d="m 5.0114,14.562 h 30.478"
         stroke="#000000"
         stroke-linecap="round"
         fill="#729fcf" /><path
         id="path9776"
         opacity="0.11364"
         stroke-linejoin="round"
         d="m 4.9221,10.562 h 15.281"
         stroke="#000000"
         stroke-linecap="round"
         fill="#729fcf" /><path
         id="path9774"
         opacity="0.11364"
         stroke-linejoin="round"
         d="m 4.8738,8.5625 h 14.783"
         stroke="#000000"
         stroke-linecap="round"
         fill="#729fcf" /><path
         id="path9794"
         opacity="0.11364"
         stroke-linejoin="round"
         d="m 5.3247,28.562 h 30.169"
         stroke="#000000"
         stroke-linecap="round"
         fill="#729fcf" /><path
         id="path9792"
         opacity="0.11364"
         stroke-linejoin="round"
         d="m 5.2881,26.562 h 30.205"
         stroke="#000000"
         stroke-linecap="round"
         fill="#729fcf" /><path
         id="path9790"
         opacity="0.11364"
         stroke-linejoin="round"
         d="m 5.2266,24.562 h 30.265"
         stroke="#000000"
         stroke-linecap="round"
         fill="#729fcf" /><path
         id="path9786"
         opacity="0.11364"
         stroke-linejoin="round"
         d="m 5.1959,20.562 h 30.296"
         stroke="#000000"
         stroke-linecap="round"
         fill="#729fcf" /><path
         id="path9796"
         opacity="0.11364"
         stroke-linejoin="round"
         d="m 5.3247,30.562 h 30.169"
         stroke="#000000"
         stroke-linecap="round"
         fill="#729fcf" /><path
         id="path9802"
         opacity="0.11364"
         stroke-linejoin="round"
         d="m 5.5091,36.562 h 29.988"
         stroke="#000000"
         stroke-linecap="round"
         fill="#729fcf" /><path
         id="path219"
         opacity="0.45143"
         d="M 6.0683,38.864 C 6.0847,39.176 5.8874,39.384 5.5698,39.28 5.2521,39.176 5.033,38.968 5.0167,38.656 L 4.069,6.591 C 4.0526,6.2792 4.2341,6.0906 4.5464,6.0906 l 14.422,-0.0477 c 0.313,0 0.932,0.3005 1.133,1.3222 l 0.574,2.8159 c -0.427,-0.4656 -0.419,-0.48 -0.638,-1.1571 l -0.406,-1.2592 c -0.219,-0.7276 -0.698,-0.8319 -1.01,-0.8319 H 5.7334 c -0.3122,0 -0.5095,0.2082 -0.4931,0.5204 l 0.938,31.515 -0.1096,-0.104 z"
         display="block"
         fill="url(#linearGradient491)"
         style="fill:url(#linearGradient491)" /><g
         id="g220"
         fill-opacity="0.75706"
         transform="matrix(1.0408,0,0.054493,1.0408,-8.6702,2.6706)"
         fill="#ffffff"><path
           id="path221"
           fill-opacity="0.50847"
           fill="#ffffff"
           d="M 42.417,8.5152 C 42.422,8.4181 42.289,8.2682 42.182,8.2682 L 29.151,8.2661 c 0,0 0.911,0.5879 2.201,0.5962 l 11.054,0.071 c 0.011,-0.2117 0.003,-0.256 0.011,-0.4181 z" /></g></g><g
       id="g1"
       inkscape:label="close"
       style="display:inline"><path
         id="path233"
         stroke-linejoin="round"
         d="M 39.784,39.511 C 40.927,39.467 41.747,38.414 41.831,37.19 42.622,25.641 43.49,15.958 43.49,15.958 43.562,15.71 43.322,15.463 43.01,15.463 H 8.639 c 0,0 -1.7473477,20.980607 -1.8507,21.867 -0.1145,0.982 -0.466,1.804 -1.5498,2.183 l 34.546,-0.002 z"
         display="block"
         stroke="#3465a4"
         fill="url(#linearGradient9772)"
         sodipodi:nodetypes="cccscsccc"
         style="fill:url(#linearGradient9772)" /><path
         id="path304"
         opacity="0.46591"
         d="M 9.5391916,16.464 42.4112,16.529 40.8372,36.531 c -0.084,1.071 -0.45,1.428 -1.872,1.428 -1.872,0 -28.678,-0.032 -31.395,-0.032 0.2335,-0.321 0.3337,-0.989 0.335,-1.005 L 9.4786353,17.172824 Z"
         stroke="url(#linearGradient322)"
         stroke-linecap="round"
         stroke-width="1px"
         fill="none"
         style="stroke:url(#linearGradient322)"
         sodipodi:nodetypes="cccscccc" /><path
         id="path323"
         d="M 9.2556622,16.223 8.4536,31.866 c 0,0 8.2964,-4.148 18.666,-4.148 10.3696,0 15.555,-11.495 15.555,-11.495 L 10.206911,16.101487 Z"
         fill-opacity="0.089286"
         fill-rule="evenodd"
         fill="#ffffff"
         sodipodi:nodetypes="ccsccc" /></g><g
       id="g4"
       style="display:none"
       transform="matrix(1.0271502,0,0,0.9124211,-0.42849272,3.2161654)"
       inkscape:label="open"><path
         fill="url(#o)"
         stroke="#3465a4"
         stroke-linejoin="round"
         stroke-width="1.00417"
         d="m 5.8559486,39.409514 c 0.103442,0.211469 0.3103265,0.423576 0.6206519,0.422928 l 33.5195985,-0.06999 c 0.4136,-8.63e-4 1.234708,-0.509959 1.575817,-1.337364 3.406971,-8.264057 5.547169,-12.983254 5.651187,-19.734262 C 47.326645,18.479366 47.010326,18.551293 46.7,18.551293 H 11.776358 c -0.310326,0 -1.330823,17.026248 -4.8403645,20.420419 l -1.1834868,0.437801 z"
         display="block"
         overflow="visible"
         style="fill:url(#o);marker:none"
         transform="matrix(0.98877,0,0,1.00298,-0.111407,-0.106563)"
         id="path32"
         sodipodi:nodetypes="cssscssccc" /><path
         fill="url(#p)"
         fill-rule="evenodd"
         d="m 13.134476,20.138641 c -0.772747,4.990757 -1.829795,10.224442 -3.044484,14.729063 2.386485,-0.707107 7.44461,-4.419704 17.44461,-4.419704 10,0 16.723573,-9.248699 17.651651,-10.353553 z"
         transform="matrix(0.98877,0,0,1.00298,-0.111407,-0.106563)"
         id="path33"
         style="fill:url(#p)"
         sodipodi:nodetypes="ccscc" /><path
         fill="none"
         stroke="url(#q)"
         stroke-linecap="round"
         stroke-width="1.00417"
         d="m 12.661612,19.598984 c -0.0893,1.007402 -1.052587,14.120135 -4.7222722,18.329098 8.1210772,0 30.0726182,0.98898 31.8627612,0.992045 2.988036,-6.899129 6.06594,-12.171148 6.353309,-19.361446 -8.269015,0.131065 -22.343098,0.03125 -33.493798,0.0403 z"
         opacity="0.522727"
         overflow="visible"
         style="stroke:url(#q);marker:none"
         transform="matrix(0.98877,0,0,1.00298,-0.111407,-0.106563)"
         id="path34"
         sodipodi:nodetypes="cccccc" /></g></g><metadata
     id="metadata2"><rdf:RDF><cc:Work
         rdf:about=""><dc:source>https://commons.wikimedia.org/wiki/Tango_icons#</dc:source><cc:license
           rdf:resource="http://creativecommons.org/publicdomain/zero/1.0/" /><dc:title>Folder open/close recreated</dc:title><dc:publisher><cc:Agent><dc:title>Blackcrack</dc:title></cc:Agent></dc:publisher><dc:relation>Folder and Folder Open</dc:relation><dc:description>20250701 Recreated Folder open and close in one</dc:description><dc:contributor><cc:Agent><dc:title>Blackcrack</dc:title></cc:Agent></dc:contributor></cc:Work><cc:License
         rdf:about="http://creativecommons.org/publicdomain/zero/1.0/"><cc:permits
           rdf:resource="http://creativecommons.org/ns#Reproduction" /><cc:permits
           rdf:resource="http://creativecommons.org/ns#Distribution" /><cc:permits
           rdf:resource="http://creativecommons.org/ns#DerivativeWorks" /></cc:License></rdf:RDF></metadata><g
     id="layer1-2"
     transform="matrix(3.601874,0,0,3.601874,89.974116,93.458358)"><path
       id="path2664"
       opacity="0.39873"
       d="m 42.875,36.812 a 17.5,7.9375 0 1 1 -35,0 17.5,7.9375 0 1 1 35,0 z"
       transform="matrix(0.69319,0,0,0.81102,14.658,8.7634)"
       display="block"
       fill="url(#radialGradient3214)"
       style="fill:url(#radialGradient1)" /><path
       id="path2654"
       opacity="0.58228"
       d="m 42.875,36.812 a 17.5,7.9375 0 1 1 -35,0 17.5,7.9375 0 1 1 35,0 z"
       transform="matrix(1.1575,0,0,0.81102,-5.1236,5.7634)"
       display="block"
       fill="url(#radialGradient3214)"
       style="fill:url(#radialGradient3214)" /><path
       id="path2608"
       d="m 9.6802,17.727 c -3.4712,0 -6.2792,1.12 -6.2792,2.5 0,0.157 0.157,0.289 0.2265,0.438 -0.0102,0.049 -0.0971,0.041 -0.0971,0.094 0,0 -0.1294,16.312 -0.1294,16.468 0,1.38 2.808,2.5 6.2792,2.5 3.4718,0 6.2798,-1.12 6.2798,-2.5 L 15.83,20.759 c 0,-0.053 -0.087,-0.045 -0.097,-0.094 0.07,-0.149 0.227,-0.281 0.227,-0.438 0,-1.38 -2.808,-2.5 -6.2798,-2.5 z"
       display="block"
       stroke="#282828"
       stroke-width="2"
       fill="url(#linearGradient3513)"
       style="fill:url(#linearGradient3513)" /><path
       id="path8417"
       d="m 2.8903,37.455 h 40.143 c 1.111,0.101 2.22,-1.15 2.22,-1.858 V 17.95 c -0.101,-1.112 -3.969,-2.424 -4.879,-2.525 h -2.432 l -2.923,-3.085 h -10.557 l -3.436,3.031 c 0,0 -6.727,0.212 -11.941,1.167 -5.2141,0.956 -6.3375,2.588 -6.3375,3.8 l 0.1428,17.117 z"
       display="block"
       stroke="#282828"
       fill="url(#linearGradient3510)"
       style="fill:url(#linearGradient3510)" /><path
       id="path2300"
       d="m 34.638,12.714 1.364,3.788 1.869,-0.454 z"
       display="block"
       fill="#3f413e" /><path
       id="path2302"
       d="m 43.134,33.908 a 1.97,1.97 0 1 1 -3.94,0 1.97,1.97 0 1 1 3.94,0 z"
       transform="matrix(1.2569,0,0,1.2569,-10.939,-11.218)"
       stroke="#a7a7a7"
       display="block"
       stroke-width="0.7956"
       fill="#585b57" /><path
       id="path2280"
       d="m 40.714,33.571 a 10.143,10.143 0 1 1 -20.285,0 10.143,10.143 0 1 1 20.285,0 z"
       transform="matrix(1.0829,0,0,1.0829,-2.573,-5.579)"
       display="block"
       fill="url(#linearGradient3222)"
       style="fill:url(#linearGradient3222)" /><path
       id="path2278"
       d="m 40.714,33.571 a 10.143,10.143 0 1 1 -20.285,0 10.143,10.143 0 1 1 20.285,0 z"
       transform="matrix(1.0829,0,0,1.0829,-2.4076,-3.6893)"
       display="block"
       fill="url(#linearGradient3224)"
       style="fill:url(#linearGradient3224)" /><path
       id="path7949"
       d="m 9.6802,17.525 c -3.4352,0 -6.214,1.12 -6.214,2.5 0,0.157 0.1554,0.289 0.2242,0.438 -0.0101,0.049 -0.0961,0.041 -0.0961,0.094 0,0 -0.1281,16.312 -0.1281,16.468 0,1.38 2.7788,2.5 6.214,2.5 3.4348,0 6.2138,-1.12 6.2138,-2.5 L 15.766,20.557 c 0,-0.053 -0.086,-0.045 -0.096,-0.094 0.069,-0.149 0.224,-0.281 0.224,-0.438 0,-1.38 -2.779,-2.5 -6.2138,-2.5 z"
       display="block"
       fill="url(#linearGradient3503)"
       style="fill:url(#linearGradient3503)" /><path
       id="path2298"
       d="m 24.991,12.967 -0.757,3.636 -0.354,1.212 -2.778,-2.071 z"
       display="block"
       fill="#7b7e79" /><path
       id="path2276"
       d="m 19.778,26.802 4.91,-8.583 h 11.213 l 4.838,7.116 -4.737,-8.732 H 24.183 Z"
       display="block"
       fill="#a7aba7" /><path
       id="path7953"
       d="m 21.06,15.682 c 0,0 -12.146,0.638 -16.156,2.75 -0.8523,0.448 -1.4883,0.84 -1.4883,1.442 0,1.38 2.8241,3.026 6.1755,3.026 3.3518,0 5.9998,-1.495 5.9998,-2.875 0,-0.314 -0.18,-0.629 -0.437,-0.906 l 8.625,-1.812 z"
       display="block"
       fill="#888a85" /><path
       id="path2683"
       opacity="0.41772"
       d="m 25.301,13.289 -3.918,2.793 c 0,0 -6.444,0.435 -11.249,1.315 -4.8042,0.88 -6.2199,1.834 -6.3449,3.013 l 0.2261,16.591 c 0.296,1.161 3.2301,2.074 6.2288,2.074 2.998,0 5.501,-1.6 5.797,-2.761 l 26.488,0.125 c 1.461,0.03 1.732,-0.701 1.732,-1.353 V 18.409 c 0,-0.712 -2.842,-1.864 -3.679,-1.957 l -2.934,0.062 -3.24,-3.225 z"
       display="block"
       stroke="url(#linearGradient3497)"
       fill="none"
       style="stroke:url(#linearGradient3497)" /><path
       id="path8415"
       d="m 40.714,33.571 a 10.143,10.143 0 1 1 -20.285,0 10.143,10.143 0 1 1 20.285,0 z"
       transform="matrix(1.0829,0,0,1.0829,-2.3034,-2.7622)"
       display="block"
       fill="#2e3436" /><path
       id="path2589"
       d="m 19.875,22.562 a 4.125,4.1875 0 1 1 -8.25,0 4.125,4.1875 0 1 1 8.25,0 z"
       transform="matrix(1.677,0,0,1.677,4.2359,-4.2438)"
       stroke="url(#linearGradient3232)"
       stroke-width="0.59631"
       fill="url(#radialGradient3230)"
       style="fill:url(#radialGradient3230);stroke:url(#linearGradient3232)" /><path
       id="path2599"
       opacity="0.60759"
       d="m 16.5,22.688 a 1.75,1.8125 0 1 1 -3.5,0 1.75,1.8125 0 1 1 3.5,0 z"
       fill-opacity="0.52866"
       transform="matrix(1.677,0,0,1.677,6.2474,-4.3885)"
       fill="#ffffff" /><path
       id="path2601"
       opacity="0.37342"
       d="m 16.5,22.688 a 1.75,1.8125 0 1 1 -3.5,0 1.75,1.8125 0 1 1 3.5,0 z"
       transform="matrix(1.6732,0,0,1.6732,4.0814,-6.1939)"
       fill="#ffffff" /><path
       id="path8405"
       d="m 16.5,22.688 a 1.75,1.8125 0 1 1 -3.5,0 1.75,1.8125 0 1 1 3.5,0 z"
       transform="matrix(0.41273,0,0,0.41273,28.199,27.789)"
       fill="url(#radialGradient3234)"
       style="fill:url(#radialGradient3234)" /><path
       id="path1507"
       d="M 22.971,14.381 25.9,12.259 26.809,9.8351 h 6.364 l 1.314,2.9299 2.828,2.424 -2.525,-10.91 -9.9,3e-4 -1.919,10.102 z"
       display="block"
       fill="url(#linearGradient3489)"
       style="fill:url(#linearGradient3489)" /><rect
       id="rect3297"
       height="4.5837998"
       stroke="url(#linearGradient3486)"
       fill="url(#linearGradient3484)"
       rx="1.5035"
       ry="1.5035"
       width="9.3284998"
       y="3.4433999"
       x="25.226"
       style="fill:url(#linearGradient3484);stroke:url(#linearGradient3486)" /><path
       id="path2288"
       d="m 14.857,38.214 a 6.0715,2.5000412 0 1 1 -12.143,0 6.0715,2.5000412 0 1 1 12.143,0 z"
       transform="matrix(0.35944,0,0,0.55434,8.446,-1.1203)"
       display="block"
       fill="#2f302e" /><path
       id="path2312"
       d="m 3.4509,20.057 c -0.1356,1.786 2.4438,3.88 6.1954,3.882 3.8137,0.001 5.8497,-2.184 6.0517,-4.103 l 4.545,-1.718 -5.151,1.01 C 15.193,21.048 13.39,22.959 9.6513,22.9 5.565,22.834 4.0759,21.245 3.4509,20.057 Z"
       display="block"
       fill="#c4c6c3" /><rect
       id="rect2282"
       height="4.3902001"
       stroke="#464646"
       fill="url(#linearGradient3479)"
       rx="0.69542003"
       ry="0.69542003"
       width="4.1362"
       y="17.124001"
       x="18.309999"
       style="fill:url(#linearGradient3479)" /><path
       id="path2612"
       opacity="0.43038"
       d="m 16.5,22.688 a 1.75,1.8125 0 1 1 -3.5,0 1.75,1.8125 0 1 1 3.5,0 z"
       transform="matrix(0.38984,0,0,0.38984,5.1999,11.193)"
       fill="#ffffff" /><path
       id="path2629"
       d="m 16.5,22.688 a 1.75,1.8125 0 1 1 -3.5,0 1.75,1.8125 0 1 1 3.5,0 z"
       transform="matrix(0.45611,0,0,0.45611,21.05,20.2)"
       fill="#ffffff" /><path
       id="path2641"
       d="m 42.25,20.562 a 1.625,0.6875 0 1 1 -3.25,0 1.625,0.6875 0 1 1 3.25,0 z"
       fill-opacity="0.52866"
       transform="matrix(1.0385,0,0,1.6364,-0.44004,-13.904)"
       display="block"
       fill="#c5c5c5" /><path
       id="path2639"
       d="m 42.25,20.562 a 1.625,0.6875 0 1 1 -3.25,0 1.625,0.6875 0 1 1 3.25,0 z"
       transform="matrix(1.0385,0,0,1.6364,-0.37754,-13.529)"
       display="block"
       fill="#565656" /><path
       id="path2650"
       d="m 24.019,27.229 c 2.603,-3.368 8.755,-4.193 12.275,-1.041"
       display="block"
       stroke="#777777"
       fill="none" /><path
       id="path2668"
       opacity="0.67089"
       d="m 30.967,30.625 c -1.62,0 -2.91,1.368 -2.91,3.045 0,0.384 0.247,0.644 0.372,0.982 0.127,0.017 0.208,0.135 0.339,0.135 1.616,0 2.91,-1.338 2.91,-3.012 0,-0.393 -0.274,-0.67 -0.406,-1.015 -0.115,-0.014 -0.186,-0.135 -0.305,-0.135 z"
       fill="#ffffff" /></g></svg>
