<?xml version="1.0" encoding="UTF-8" standalone="no"?>
<!-- Created with Inkscape (http://www.inkscape.org/) -->

<svg
   id="svg97"
   height="256"
   width="256"
   version="1.0"
   sodipodi:docname="folder-home.svg"
   inkscape:version="1.4.2 (ebf0e940d0, 2025-05-08)"
   xml:space="preserve"
   viewBox="0 0 256 256"
   xmlns:inkscape="http://www.inkscape.org/namespaces/inkscape"
   xmlns:sodipodi="http://sodipodi.sourceforge.net/DTD/sodipodi-0.dtd"
   xmlns:xlink="http://www.w3.org/1999/xlink"
   xmlns="http://www.w3.org/2000/svg"
   xmlns:svg="http://www.w3.org/2000/svg"
   xmlns:rdf="http://www.w3.org/1999/02/22-rdf-syntax-ns#"
   xmlns:cc="http://creativecommons.org/ns#"
   xmlns:dc="http://purl.org/dc/elements/1.1/"><title
     id="title4">Folder open/close recreated</title><sodipodi:namedview
     id="namedview1"
     pagecolor="#ffffff"
     bordercolor="#000000"
     borderopacity="0.25"
     inkscape:showpageshadow="2"
     inkscape:pageopacity="0.0"
     inkscape:pagecheckerboard="0"
     inkscape:deskcolor="#d1d1d1"
     inkscape:zoom="0.51574218"
     inkscape:cx="352.8895"
     inkscape:cy="481.8299"
     inkscape:current-layer="svg97" /><defs
     id="defs3"><radialGradient
       id="radialGradient6719"
       xlink:href="#linearGradient5060"
       gradientUnits="userSpaceOnUse"
       cy="486.64999"
       cx="605.71002"
       gradientTransform="matrix(-2.0913748,0,0,1.9697,-298.69145,-872.89)"
       r="117.14" /><linearGradient
       id="linearGradient5060"><stop
         id="stop5062"
         offset="0" /><stop
         id="stop5064"
         stop-opacity="0"
         offset="1" /></linearGradient><radialGradient
       id="radialGradient6717"
       xlink:href="#linearGradient5060"
       gradientUnits="userSpaceOnUse"
       cy="486.64999"
       cx="605.71002"
       gradientTransform="matrix(2.7744,0,0,1.9697,-1891.6,-872.89)"
       r="117.14" /><linearGradient
       id="linearGradient6715"
       y2="609.51001"
       gradientUnits="userSpaceOnUse"
       x2="302.85999"
       gradientTransform="matrix(2.7744,0,0,1.9697,-1892.2,-872.89)"
       y1="366.64999"
       x1="302.85999"><stop
         id="stop5050"
         stop-opacity="0"
         offset="0" /><stop
         id="stop5056"
         offset=".5" /><stop
         id="stop5052"
         stop-opacity="0"
         offset="1" /></linearGradient><radialGradient
       id="radialGradient238"
       gradientUnits="userSpaceOnUse"
       cy="37.518002"
       cx="20.705999"
       gradientTransform="matrix(1.055,-0.027345,0.1777,1.1909,-3.5722,-7.1253)"
       r="30.905001"><stop
         id="stop1790"
         stop-color="#202020"
         offset="0" /><stop
         id="stop1791"
         stop-color="#b9b9b9"
         offset="1" /></radialGradient><linearGradient
       id="linearGradient491"
       y2="66.834"
       gradientUnits="userSpaceOnUse"
       x2="9.8980999"
       gradientTransform="matrix(1.5168,0,0,0.70898,-0.87957,-1.3182)"
       y1="13.773"
       x1="6.2298002"><stop
         id="stop3984"
         stop-color="#fff"
         stop-opacity=".87629"
         offset="0" /><stop
         id="stop3985"
         stop-color="#fffffe"
         stop-opacity="0"
         offset="1" /></linearGradient><linearGradient
       id="linearGradient322"
       y2="46.688999"
       gradientUnits="userSpaceOnUse"
       x2="12.854"
       gradientTransform="matrix(1.3175,0,0,0.81626,-0.87957,-1.3182)"
       y1="32.567001"
       x1="13.036"><stop
         id="stop320"
         stop-color="#fff"
         offset="0" /><stop
         id="stop321"
         stop-color="#fff"
         stop-opacity="0"
         offset="1" /></linearGradient><linearGradient
       id="linearGradient3104"
       y2="6.1803002"
       gradientUnits="userSpaceOnUse"
       x2="15.515"
       y1="31.368"
       x1="18.113001"><stop
         id="stop3098"
         stop-color="#424242"
         offset="0" /><stop
         id="stop3100"
         stop-color="#777"
         offset="1" /></linearGradient><linearGradient
       id="linearGradient9772"
       y2="32.049999"
       gradientUnits="userSpaceOnUse"
       x2="22.065001"
       y1="36.987999"
       x1="22.176001"><stop
         id="stop9768"
         stop-color="#6194cb"
         offset="0" /><stop
         id="stop9770"
         stop-color="#729fcf"
         offset="1" /></linearGradient><linearGradient
       id="e"><stop
         offset="0"
         stop-color="#6194cb"
         id="stop8" /><stop
         offset="1"
         stop-color="#729fcf"
         id="stop9" /></linearGradient><linearGradient
       id="c"><stop
         offset="0"
         stop-color="#fff"
         stop-opacity=".13402061"
         id="stop10" /><stop
         offset="1"
         stop-color="#fff"
         stop-opacity=".05154639"
         id="stop11" /></linearGradient><linearGradient
       id="b"><stop
         offset="0"
         stop-color="#fff"
         id="stop12" /><stop
         offset="1"
         stop-color="#fff"
         stop-opacity="0"
         id="stop13" /></linearGradient><linearGradient
       xlink:href="#b"
       id="q"
       x1="19.116116"
       x2="19.426924"
       y1="28.946041"
       y2="51.912693"
       gradientTransform="scale(1.42154,0.70346)"
       gradientUnits="userSpaceOnUse" /><linearGradient
       xlink:href="#c"
       id="p"
       x1="14.899379"
       x2="22.715446"
       y1="27.059643"
       y2="41.836895"
       gradientTransform="matrix(1.5353,0,0,0.65134,3.451418,2.448)"
       gradientUnits="userSpaceOnUse" /><linearGradient
       xlink:href="#e"
       id="o"
       x1="-22.89403"
       x2="-19.799696"
       y1="38.945435"
       y2="20.305889"
       gradientTransform="matrix(1,0,0,1.02212,52.05694,-1.323026)"
       gradientUnits="userSpaceOnUse" /><linearGradient
       id="o-2"
       y2="26.52"
       xlink:href="#c-0"
       gradientUnits="userSpaceOnUse"
       x2="49.400002"
       gradientTransform="matrix(1.208,0,0,1.208,-15.4,-12.01)"
       y1="16.209999"
       x1="14.27" /><linearGradient
       id="c-0"><stop
         stop-color="#fce94f"
         offset="0"
         id="stop3" /><stop
         stop-color="#8f5902"
         offset=".5"
         id="stop4" /><stop
         stop-color="#c4a000"
         offset="1"
         id="stop5" /></linearGradient><radialGradient
       id="i"
       xlink:href="#linearGradient5060"
       gradientUnits="userSpaceOnUse"
       cy="19"
       cx="31.1"
       gradientTransform="matrix(1.776,0,0,0.959,-37.8,12.93)"
       r="8.6599998" /><radialGradient
       id="h"
       gradientUnits="userSpaceOnUse"
       cy="27.200001"
       cx="28.1"
       gradientTransform="matrix(1.298,0,0,0.885,-21.91,-0.9014)"
       r="13.57"><stop
         stop-color="#be0000"
         offset="0"
         id="stop6" /><stop
         stop-color="#780000"
         offset="1"
         id="stop7" /></radialGradient><linearGradient
       id="s"
       y2="39.759998"
       xlink:href="#linearGradient5060"
       gradientUnits="userSpaceOnUse"
       x2="23.540001"
       gradientTransform="translate(-15.18,-8.531)"
       y1="39"
       x1="21.68" /><linearGradient
       id="r"
       y2="38.200001"
       xlink:href="#linearGradient5060"
       gradientUnits="userSpaceOnUse"
       x2="43.299999"
       gradientTransform="translate(-15.18,-8.531)"
       y1="39.099998"
       x1="42.200001" /><radialGradient
       id="g"
       xlink:href="#linearGradient5060"
       gradientUnits="userSpaceOnUse"
       cy="23.790001"
       cx="32.75"
       gradientTransform="translate(-15.18,-8.531)"
       r="8.5100002" /><radialGradient
       id="f"
       gradientUnits="userSpaceOnUse"
       cy="20.23"
       cx="32.299999"
       gradientTransform="translate(-15.18,-8.531)"
       r="6.6399999"><stop
         stop-color="#f5e2c3"
         offset="0"
         id="stop8-2" /><stop
         stop-color="#df9929"
         offset="1"
         id="stop9-1" /></radialGradient><linearGradient
       id="q-7"
       gradientUnits="userSpaceOnUse"
       y1="29.790001"
       gradientTransform="translate(-15.18,-8.531)"
       x2="0"
       y2="21.809999"><stop
         stop-color="#8f5902"
         stop-opacity="0"
         offset="0"
         id="stop10-5" /><stop
         stop-color="#653f01"
         offset="1"
         id="stop11-1" /></linearGradient><linearGradient
       id="n"
       y2="15"
       xlink:href="#c-0"
       gradientUnits="userSpaceOnUse"
       x2="40.700001"
       gradientTransform="matrix(1.097,0,0,1.178,-11.84,-11.5)"
       y1="19.84"
       x1="35.299999" /><linearGradient
       id="m"
       x1="27.709999"
       xlink:href="#c-0"
       gradientUnits="userSpaceOnUse"
       x2="33.66"
       gradientTransform="matrix(1.097,0,0,1.178,-11.84,-11.5)"
       y1="13.53"
       y2="23.32" /><radialGradient
       id="b-7"
       gradientUnits="userSpaceOnUse"
       cy="17.860001"
       cx="29.200001"
       gradientTransform="matrix(0.6817,0.142,-0.08398,0.4298,10.58,19.72)"
       r="8.6599998"><stop
         stop-color="#f9adad"
         stop-opacity=".3"
         offset="0"
         id="stop12-4" /><stop
         stop-color="#868686"
         stop-opacity="0"
         offset="1"
         id="stop13-1" /></radialGradient><linearGradient
       id="swatch1"
       inkscape:swatch="solid"><stop
         style="stop-color:#ff0707;stop-opacity:1;"
         offset="0"
         id="stop1-3" /></linearGradient><radialGradient
       id="f-6"
       xlink:href="#linearGradient5060"
       gradientUnits="userSpaceOnUse"
       cy="19.01"
       cx="31.110001"
       gradientTransform="matrix(1.776,0,0,0.584,-24.25,28.28)"
       r="8.6619997" /><radialGradient
       id="h-5"
       gradientUnits="userSpaceOnUse"
       cy="27.200001"
       cx="28.09"
       gradientTransform="matrix(1.298,0,0,0.8848,-8.358,4.941)"
       r="13.56"><stop
         stop-color="#3b74bc"
         offset="0"
         id="stop7-3" /><stop
         stop-color="#2d5990"
         offset="1"
         id="stop8-5" /></radialGradient><linearGradient
       id="m-6"
       xlink:href="#c-2"
       gradientUnits="userSpaceOnUse"
       x2="0"
       y1="29.549999"
       y2="35.799999" /><linearGradient
       id="c-2"><stop
         stop-color="#fff"
         offset="0"
         id="stop5-9" /><stop
         stop-color="#c9c9c9"
         offset="1"
         id="stop6-1" /></linearGradient><radialGradient
       id="i-2"
       xlink:href="#linearGradient5060"
       gradientUnits="userSpaceOnUse"
       cy="22.51"
       cx="30.99"
       r="8.6619997" /><linearGradient
       id="l-7"
       x1="20.049999"
       xlink:href="#linearGradient5060"
       gradientUnits="userSpaceOnUse"
       x2="21.91"
       y1="36.32"
       y2="37.07" /><linearGradient
       id="k"
       x1="40.57"
       xlink:href="#linearGradient5060"
       gradientUnits="userSpaceOnUse"
       x2="41.689999"
       y1="36.400002"
       y2="35.490002" /><radialGradient
       id="g-0"
       gradientUnits="userSpaceOnUse"
       cy="17.059999"
       cx="29.34"
       r="7.2199998"><stop
         stop-color="#f4d9b1"
         offset="0"
         id="stop13-9" /><stop
         stop-color="#df9725"
         offset="1"
         id="stop14" /></radialGradient><linearGradient
       id="linearGradient3800"><stop
         style="stop-color:#f4d9b1;stop-opacity:1.0000000;"
         offset="0.0000000"
         id="stop3802" /><stop
         style="stop-color:#df9725;stop-opacity:1.0000000;"
         offset="1.0000000"
         id="stop3804" /></linearGradient><radialGradient
       id="f-7"
       xlink:href="#linearGradient5060"
       gradientUnits="userSpaceOnUse"
       cy="19.01"
       cx="31.110001"
       gradientTransform="matrix(1.776,0,0,0.584,-24.25,28.28)"
       r="8.6619997" /><radialGradient
       id="h-1"
       gradientUnits="userSpaceOnUse"
       cy="27.200001"
       cx="28.09"
       gradientTransform="matrix(1.298,0,0,0.8848,-8.358,4.941)"
       r="13.56"><stop
         stop-color="#3b74bc"
         offset="0"
         id="stop7-1" /><stop
         stop-color="#2d5990"
         offset="1"
         id="stop8-1" /></radialGradient><linearGradient
       id="m-7"
       xlink:href="#c-2"
       gradientUnits="userSpaceOnUse"
       x2="0"
       y1="29.549999"
       y2="35.799999" /><radialGradient
       id="i-5"
       xlink:href="#linearGradient5060"
       gradientUnits="userSpaceOnUse"
       cy="22.51"
       cx="30.99"
       r="8.6619997" /><linearGradient
       id="l"
       x1="20.049999"
       xlink:href="#linearGradient5060"
       gradientUnits="userSpaceOnUse"
       x2="21.91"
       y1="36.32"
       y2="37.07" /><linearGradient
       id="k-1"
       x1="40.57"
       xlink:href="#linearGradient5060"
       gradientUnits="userSpaceOnUse"
       x2="41.689999"
       y1="36.400002"
       y2="35.490002" /><radialGradient
       id="g-6"
       gradientUnits="userSpaceOnUse"
       cy="17.059999"
       cx="29.34"
       r="7.2199998"><stop
         stop-color="#f4d9b1"
         offset="0"
         id="stop13-6" /><stop
         stop-color="#df9725"
         offset="1"
         id="stop14-2" /></radialGradient></defs><g
     id="layer1"
     transform="matrix(5.5668514,0,0,5.5668514,-11.854349,0.53914632)"
     style="display:inline"><g
       id="g2"
       inkscape:label="back"
       style="display:inline"><g
         id="g6707"
         transform="matrix(0.022624,0,0,0.020868,43.383,36.37)"><rect
           id="rect6709"
           opacity="0.40206"
           height="478.35999"
           width="1339.6"
           y="-150.7"
           x="-1559.3"
           fill="url(#linearGradient6715)"
           style="fill:url(#linearGradient6715)" /><path
           id="path6711"
           opacity="0.40206"
           d="m -219.62,-150.68 v 478.33 c 142.88,0.9 345.4,-107.17 345.4,-239.2 0,-132.02 -159.44,-239.13 -345.4,-239.13 z"
           fill="url(#radialGradient6717)"
           style="fill:url(#radialGradient6717)" /><path
           id="path6713"
           opacity="0.40206"
           d="m -1559.1096,-150.68 v 478.33 c -107.6443,0.9 -260.3665,-107.17 -260.3665,-239.2 0,-132.02 120.233,-239.13 260.3665,-239.13 z"
           fill="url(#radialGradient6719)"
           style="fill:url(#radialGradient6719);stroke-width:0.868223" /></g><path
         id="path216"
         stroke-linejoin="round"
         d="m 4.5218,38.687 c 0.0218,0.417 0.4599,0.833 0.8762,0.833 h 31.327 c 0.416,0 0.811,-0.416 0.789,-0.833 L 36.578,11.461 c -0.022,-0.417 -0.46,-0.833 -0.877,-0.833 h -13.27 c -0.486,0 -1.235,-0.316 -1.402,-1.1066 L 20.417,6.6284 C 20.262,5.8927 19.535,5.5905 19.119,5.5905 H 4.34 c -0.4162,0 -0.8107,0.4163 -0.7889,0.8326 l 0.9707,32.264 z"
         stroke="url(#linearGradient3104)"
         stroke-linecap="round"
         fill="url(#radialGradient238)"
         style="fill:url(#radialGradient238);stroke:url(#linearGradient3104)" /><path
         id="path9788"
         opacity="0.11364"
         stroke-linejoin="round"
         d="m 5.2266,22.562 h 30.265"
         stroke="#000000"
         stroke-linecap="round"
         fill="#729fcf" /><path
         id="path9784"
         opacity="0.11364"
         stroke-linejoin="round"
         d="m 5.0422,18.562 h 30.447"
         stroke="#000000"
         stroke-linecap="round"
         fill="#729fcf" /><path
         id="path9778"
         opacity="0.11364"
         stroke-linejoin="round"
         d="m 4.9807,12.562 h 30.507"
         stroke="#000000"
         stroke-linecap="round"
         fill="#729fcf" /><path
         id="path9798"
         opacity="0.11364"
         stroke-linejoin="round"
         d="m 5.3862,32.562 h 30.109"
         stroke="#000000"
         stroke-linecap="round"
         fill="#729fcf" /><path
         id="path9800"
         opacity="0.11364"
         stroke-linejoin="round"
         d="m 5.5091,34.562 h 29.988"
         stroke="#000000"
         stroke-linecap="round"
         fill="#729fcf" /><path
         id="path9782"
         opacity="0.11364"
         stroke-linejoin="round"
         d="m 5.0422,16.562 h 30.447"
         stroke="#000000"
         stroke-linecap="round"
         fill="#729fcf" /><path
         id="path9780"
         opacity="0.11364"
         stroke-linejoin="round"
         d="m 5.0114,14.562 h 30.478"
         stroke="#000000"
         stroke-linecap="round"
         fill="#729fcf" /><path
         id="path9776"
         opacity="0.11364"
         stroke-linejoin="round"
         d="m 4.9221,10.562 h 15.281"
         stroke="#000000"
         stroke-linecap="round"
         fill="#729fcf" /><path
         id="path9774"
         opacity="0.11364"
         stroke-linejoin="round"
         d="m 4.8738,8.5625 h 14.783"
         stroke="#000000"
         stroke-linecap="round"
         fill="#729fcf" /><path
         id="path9794"
         opacity="0.11364"
         stroke-linejoin="round"
         d="m 5.3247,28.562 h 30.169"
         stroke="#000000"
         stroke-linecap="round"
         fill="#729fcf" /><path
         id="path9792"
         opacity="0.11364"
         stroke-linejoin="round"
         d="m 5.2881,26.562 h 30.205"
         stroke="#000000"
         stroke-linecap="round"
         fill="#729fcf" /><path
         id="path9790"
         opacity="0.11364"
         stroke-linejoin="round"
         d="m 5.2266,24.562 h 30.265"
         stroke="#000000"
         stroke-linecap="round"
         fill="#729fcf" /><path
         id="path9786"
         opacity="0.11364"
         stroke-linejoin="round"
         d="m 5.1959,20.562 h 30.296"
         stroke="#000000"
         stroke-linecap="round"
         fill="#729fcf" /><path
         id="path9796"
         opacity="0.11364"
         stroke-linejoin="round"
         d="m 5.3247,30.562 h 30.169"
         stroke="#000000"
         stroke-linecap="round"
         fill="#729fcf" /><path
         id="path9802"
         opacity="0.11364"
         stroke-linejoin="round"
         d="m 5.5091,36.562 h 29.988"
         stroke="#000000"
         stroke-linecap="round"
         fill="#729fcf" /><path
         id="path219"
         opacity="0.45143"
         d="M 6.0683,38.864 C 6.0847,39.176 5.8874,39.384 5.5698,39.28 5.2521,39.176 5.033,38.968 5.0167,38.656 L 4.069,6.591 C 4.0526,6.2792 4.2341,6.0906 4.5464,6.0906 l 14.422,-0.0477 c 0.313,0 0.932,0.3005 1.133,1.3222 l 0.574,2.8159 c -0.427,-0.4656 -0.419,-0.48 -0.638,-1.1571 l -0.406,-1.2592 c -0.219,-0.7276 -0.698,-0.8319 -1.01,-0.8319 H 5.7334 c -0.3122,0 -0.5095,0.2082 -0.4931,0.5204 l 0.938,31.515 -0.1096,-0.104 z"
         display="block"
         fill="url(#linearGradient491)"
         style="fill:url(#linearGradient491)" /><g
         id="g220"
         fill-opacity="0.75706"
         transform="matrix(1.0408,0,0.054493,1.0408,-8.6702,2.6706)"
         fill="#ffffff"><path
           id="path221"
           fill-opacity="0.50847"
           fill="#ffffff"
           d="M 42.417,8.5152 C 42.422,8.4181 42.289,8.2682 42.182,8.2682 L 29.151,8.2661 c 0,0 0.911,0.5879 2.201,0.5962 l 11.054,0.071 c 0.011,-0.2117 0.003,-0.256 0.011,-0.4181 z" /></g></g><g
       id="g1"
       inkscape:label="close"
       style="display:inline"><path
         id="path233"
         stroke-linejoin="round"
         d="M 39.784,39.511 C 40.927,39.467 41.747,38.414 41.831,37.19 42.622,25.641 43.49,15.958 43.49,15.958 43.562,15.71 43.322,15.463 43.01,15.463 H 8.639 c 0,0 -1.7473477,20.980607 -1.8507,21.867 -0.1145,0.982 -0.466,1.804 -1.5498,2.183 l 34.546,-0.002 z"
         display="block"
         stroke="#3465a4"
         fill="url(#linearGradient9772)"
         sodipodi:nodetypes="cccscsccc"
         style="fill:url(#linearGradient9772)" /><path
         id="path304"
         opacity="0.46591"
         d="M 9.5391916,16.464 42.4112,16.529 40.8372,36.531 c -0.084,1.071 -0.45,1.428 -1.872,1.428 -1.872,0 -28.678,-0.032 -31.395,-0.032 0.2335,-0.321 0.3337,-0.989 0.335,-1.005 L 9.4786353,17.172824 Z"
         stroke="url(#linearGradient322)"
         stroke-linecap="round"
         stroke-width="1px"
         fill="none"
         style="stroke:url(#linearGradient322)"
         sodipodi:nodetypes="cccscccc" /><path
         id="path323"
         d="M 9.2556622,16.223 8.4536,31.866 c 0,0 8.2964,-4.148 18.666,-4.148 10.3696,0 15.555,-11.495 15.555,-11.495 L 10.206911,16.101487 Z"
         fill-opacity="0.089286"
         fill-rule="evenodd"
         fill="#ffffff"
         sodipodi:nodetypes="ccsccc" /></g><g
       id="g4"
       style="display:none"
       transform="matrix(1.0271502,0,0,0.9124211,-0.42849272,3.2161654)"
       inkscape:label="open"><path
         fill="url(#o)"
         stroke="#3465a4"
         stroke-linejoin="round"
         stroke-width="1.00417"
         d="m 5.8559486,39.409514 c 0.103442,0.211469 0.3103265,0.423576 0.6206519,0.422928 l 33.5195985,-0.06999 c 0.4136,-8.63e-4 1.234708,-0.509959 1.575817,-1.337364 3.406971,-8.264057 5.547169,-12.983254 5.651187,-19.734262 C 47.326645,18.479366 47.010326,18.551293 46.7,18.551293 H 11.776358 c -0.310326,0 -1.330823,17.026248 -4.8403645,20.420419 l -1.1834868,0.437801 z"
         display="block"
         overflow="visible"
         style="fill:url(#o);marker:none"
         transform="matrix(0.98877,0,0,1.00298,-0.111407,-0.106563)"
         id="path32"
         sodipodi:nodetypes="cssscssccc" /><path
         fill="url(#p)"
         fill-rule="evenodd"
         d="m 13.134476,20.138641 c -0.772747,4.990757 -1.829795,10.224442 -3.044484,14.729063 2.386485,-0.707107 7.44461,-4.419704 17.44461,-4.419704 10,0 16.723573,-9.248699 17.651651,-10.353553 z"
         transform="matrix(0.98877,0,0,1.00298,-0.111407,-0.106563)"
         id="path33"
         style="fill:url(#p)"
         sodipodi:nodetypes="ccscc" /><path
         fill="none"
         stroke="url(#q)"
         stroke-linecap="round"
         stroke-width="1.00417"
         d="m 12.661612,19.598984 c -0.0893,1.007402 -1.052587,14.120135 -4.7222722,18.329098 8.1210772,0 30.0726182,0.98898 31.8627612,0.992045 2.988036,-6.899129 6.06594,-12.171148 6.353309,-19.361446 -8.269015,0.131065 -22.343098,0.03125 -33.493798,0.0403 z"
         opacity="0.522727"
         overflow="visible"
         style="stroke:url(#q);marker:none"
         transform="matrix(0.98877,0,0,1.00298,-0.111407,-0.106563)"
         id="path34"
         sodipodi:nodetypes="cccccc" /></g></g><metadata
     id="metadata2"><rdf:RDF><cc:Work
         rdf:about=""><dc:source>https://commons.wikimedia.org/wiki/Tango_icons#</dc:source><cc:license
           rdf:resource="http://creativecommons.org/publicdomain/zero/1.0/" /><dc:title>Folder open/close recreated</dc:title><dc:publisher><cc:Agent><dc:title>Blackcrack</dc:title></cc:Agent></dc:publisher><dc:relation>Folder and Folder Open</dc:relation><dc:description>20250701 Recreated Folder open and close in one</dc:description><dc:contributor><cc:Agent><dc:title>Blackcrack</dc:title></cc:Agent></dc:contributor></cc:Work><cc:License
         rdf:about="http://creativecommons.org/publicdomain/zero/1.0/"><cc:permits
           rdf:resource="http://creativecommons.org/ns#Reproduction" /><cc:permits
           rdf:resource="http://creativecommons.org/ns#Distribution" /><cc:permits
           rdf:resource="http://creativecommons.org/ns#DerivativeWorks" /></cc:License></rdf:RDF></metadata><g
     id="g28"
     style="display:inline"
     inkscape:label="u1"
     transform="matrix(4.3390072,0,0,4.3390072,53.407638,61.485326)"><ellipse
       rx="15.38"
       ry="5.059"
       cy="39.380001"
       cx="30.99"
       fill="url(#f)"
       id="ellipse19"
       style="fill:url(#f-7)" /><path
       stroke-linejoin="round"
       d="M 25.99,41.64 H 36.6 c 3.01,0 5.98,-1.102 7.07,-4.243 1.036,-2.983 0.177,-8.662 -6.541,-13.26 h -12.56 c -6.718,4.243 -7.557,10.04 -6.01,13.44 1.576,3.454 4.243,4.066 7.425,4.066 z"
       stroke="#204a87"
       stroke-linecap="round"
       fill="url(#h)"
       id="path20"
       style="fill:url(#h-1)" /><path
       fill="url(#m)"
       d="m 26.69,25.73 c 3.182,2.828 4.596,13.08 4.596,13.08 0,0 1.414,-10.25 3.889,-13.26 l -8.49,0.17"
       id="path21"
       style="fill:url(#m-7)" /><path
       fill="#729fcf"
       d="m 28.97,26.79 c 0,0 -2.151,1.66 -1.966,3.66 -2.041,-1.801 -2.1,-5.252 -2.1,-5.252 l 4.066,1.591"
       id="path22" /><path
       opacity="0.215"
       stroke-linejoin="round"
       d="M 25.91,40.59 36.4,40.568 c 2.64,0 5.253,-0.968 6.211,-3.727 0.91,-2.62 -0.095,-7.609 -5.995,-11.65 l -11.52,-0.23 c -5.901,3.727 -7.04,8.823 -5.662,12.04 1.381,3.221 3.395,3.571 6.477,3.593 z"
       stroke="#ffffff"
       stroke-linecap="round"
       fill="none"
       id="path23" /><path
       fill="#729fcf"
       d="m 33.41,26.79 c 0,0 2.151,1.66 1.966,3.66 2.041,-1.801 2.1,-5.252 2.1,-5.252 l -4.07,1.59"
       id="path24" /><circle
       cy="22.51"
       cx="30.99"
       r="8.6619997"
       fill="url(#i)"
       id="circle24"
       style="fill:url(#i-5)" /><path
       opacity="0.228"
       d="m 21.85,40.78 c -1.248,-0.545 -1.806,-1.858 -1.806,-1.858 0.841,-4.069 3.72,-7.05 3.72,-7.05 0,0 -2.279,6.411 -1.914,8.904"
       fill="url(#l)"
       id="path26"
       style="fill:url(#l)" /><path
       opacity="0.228"
       d="m 40.76,39.92 c 1.231,-0.581 1.804,-2 1.804,-2 -0.959,-4.04 -3.976,-6.843 -3.976,-6.843 0,0 2.465,6.343 2.172,8.845"
       fill="url(#k)"
       id="path27"
       style="fill:url(#k-1)" /><circle
       stroke="#c17d11"
       cy="19.01"
       cx="31.110001"
       r="8.6619997"
       fill="url(#g)"
       id="circle25"
       style="fill:url(#g-6)" /><circle
       opacity="0.196"
       stroke="#ffffff"
       cy="19.01"
       cx="31.110001"
       r="7.5970001"
       fill="none"
       id="circle26" /></g></svg>
