<?xml version="1.0" encoding="UTF-8" standalone="no"?>
<!-- Created with Inkscape (http://www.inkscape.org/) -->

<svg
   width="256mm"
   height="256mm"
   viewBox="0 0 256 256"
   version="1.1"
   id="svg1"
   inkscape:version="1.4.2 (ebf0e940d0, 2025-05-08)"
   sodipodi:docname="folder-network-nextcloud-symbolic.svg"
   xml:space="preserve"
   xmlns:inkscape="http://www.inkscape.org/namespaces/inkscape"
   xmlns:sodipodi="http://sodipodi.sourceforge.net/DTD/sodipodi-0.dtd"
   xmlns:xlink="http://www.w3.org/1999/xlink"
   xmlns="http://www.w3.org/2000/svg"
   xmlns:svg="http://www.w3.org/2000/svg"
   xmlns:rdf="http://www.w3.org/1999/02/22-rdf-syntax-ns#"
   xmlns:cc="http://creativecommons.org/ns#"
   xmlns:dc="http://purl.org/dc/elements/1.1/"><title
     id="title1">Folder Symbolic Open/Close</title><defs
     id="defs1"><linearGradient
       id="linearGradient4"
       inkscape:collect="always"><stop
         style="stop-color:#888a85;stop-opacity:1;"
         offset="0"
         id="stop27" /><stop
         style="stop-color:#262625;stop-opacity:1;"
         offset="1"
         id="stop28" /></linearGradient><linearGradient
       id="linearGradient3"
       inkscape:collect="always"><stop
         style="stop-color:#babdb6;stop-opacity:1;"
         offset="0"
         id="stop5" /><stop
         style="stop-color:#202020;stop-opacity:1;"
         offset="1"
         id="stop6" /></linearGradient><linearGradient
       id="linearGradient1"
       inkscape:collect="always"><stop
         style="stop-color:#7a7a7a;stop-opacity:1;"
         offset="0"
         id="stop1" /><stop
         style="stop-color:#707070;stop-opacity:1;"
         offset="0.38631266"
         id="stop3" /><stop
         style="stop-color:#595959;stop-opacity:1;"
         offset="0.65277058"
         id="stop4" /><stop
         style="stop-color:#4b4b4b;stop-opacity:1;"
         offset="1"
         id="stop2" /></linearGradient><linearGradient
       id="linearGradient32"
       inkscape:collect="always"><stop
         style="stop-color:#f4f4f4;stop-opacity:0.42167604;"
         offset="0"
         id="stop32" /><stop
         style="stop-color:#f4f4f4;stop-opacity:0;"
         offset="1"
         id="stop33" /></linearGradient><linearGradient
       id="linearGradient20"
       inkscape:collect="always"><stop
         style="stop-color:#f3f7fb;stop-opacity:1;"
         offset="0"
         id="stop21" /><stop
         style="stop-color:#f3f7fb;stop-opacity:0;"
         offset="1"
         id="stop22" /></linearGradient><linearGradient
       id="linearGradient15"
       inkscape:collect="always"><stop
         style="stop-color:#719ecf;stop-opacity:1;"
         offset="0"
         id="stop16" /><stop
         style="stop-color:#8aafd7;stop-opacity:1;"
         offset="0.25390714"
         id="stop18" /><stop
         style="stop-color:#719ecf;stop-opacity:1;"
         offset="0.4463878"
         id="stop19" /><stop
         style="stop-color:#4f87c3;stop-opacity:1;"
         offset="0.7372098"
         id="stop20" /><stop
         style="stop-color:#2c5681;stop-opacity:1;"
         offset="1"
         id="stop17" /></linearGradient><linearGradient
       id="linearGradient11"
       inkscape:collect="always"><stop
         style="stop-color:#dce6f3;stop-opacity:1;"
         offset="0"
         id="stop11" /><stop
         style="stop-color:#bdd0ea;stop-opacity:1;"
         offset="0.21857853"
         id="stop13" /><stop
         style="stop-color:#9bb8de;stop-opacity:1;"
         offset="0.51587749"
         id="stop14" /><stop
         style="stop-color:#77a0d1;stop-opacity:1;"
         offset="0.8174454"
         id="stop15" /><stop
         style="stop-color:#9ebbe0;stop-opacity:1;"
         offset="1"
         id="stop12" /></linearGradient><linearGradient
       inkscape:collect="always"
       xlink:href="#linearGradient11"
       id="linearGradient12"
       x1="123.00126"
       y1="92.722893"
       x2="148.01651"
       y2="200.25244"
       gradientUnits="userSpaceOnUse" /><linearGradient
       inkscape:collect="always"
       xlink:href="#linearGradient15"
       id="linearGradient17"
       x1="119.17952"
       y1="81.366829"
       x2="129.61365"
       y2="228.20688"
       gradientUnits="userSpaceOnUse" /><linearGradient
       inkscape:collect="always"
       xlink:href="#linearGradient32"
       id="linearGradient33"
       x1="138.21974"
       y1="89.349197"
       x2="152.51729"
       y2="168.33191"
       gradientUnits="userSpaceOnUse" /><linearGradient
       inkscape:collect="always"
       xlink:href="#linearGradient32"
       id="linearGradient36"
       gradientUnits="userSpaceOnUse"
       x1="138.21974"
       y1="89.349197"
       x2="144.36659"
       y2="191.34566" /><linearGradient
       inkscape:collect="always"
       xlink:href="#linearGradient15"
       id="linearGradient37"
       gradientUnits="userSpaceOnUse"
       x1="119.17952"
       y1="81.366829"
       x2="125.66673"
       y2="211.10358" /><linearGradient
       inkscape:collect="always"
       xlink:href="#linearGradient11"
       id="linearGradient38"
       gradientUnits="userSpaceOnUse"
       x1="123.00126"
       y1="92.722893"
       x2="148.01651"
       y2="200.25244" /><linearGradient
       inkscape:collect="always"
       xlink:href="#linearGradient1"
       id="linearGradient2"
       x1="49.730732"
       y1="20.606987"
       x2="84.292465"
       y2="218.6758"
       gradientUnits="userSpaceOnUse" /><radialGradient
       inkscape:collect="always"
       xlink:href="#linearGradient20"
       id="radialGradient1"
       cx="58.297417"
       cy="74.405579"
       fx="58.297417"
       fy="74.405579"
       r="86.628471"
       gradientTransform="matrix(1.6487439,0,0,1.7618185,-37.820092,-59.834146)"
       gradientUnits="userSpaceOnUse" /><linearGradient
       inkscape:collect="always"
       xlink:href="#linearGradient3"
       id="linearGradient6"
       x1="53.15662"
       y1="40.153225"
       x2="69.586563"
       y2="199.66118"
       gradientUnits="userSpaceOnUse" /><linearGradient
       inkscape:collect="always"
       xlink:href="#linearGradient4"
       id="linearGradient28"
       x1="84.947708"
       y1="42.598267"
       x2="134.37337"
       y2="183.92395"
       gradientUnits="userSpaceOnUse" /><linearGradient
       inkscape:collect="always"
       xlink:href="#linearGradient4"
       id="linearGradient5"
       gradientUnits="userSpaceOnUse"
       x1="84.947708"
       y1="42.598267"
       x2="134.37337"
       y2="183.92395" /><linearGradient
       inkscape:collect="always"
       xlink:href="#linearGradient4"
       id="linearGradient7"
       gradientUnits="userSpaceOnUse"
       x1="84.947708"
       y1="42.598267"
       x2="134.37337"
       y2="183.92395" /><linearGradient
       inkscape:collect="always"
       xlink:href="#linearGradient4"
       id="linearGradient8"
       gradientUnits="userSpaceOnUse"
       x1="84.947708"
       y1="42.598267"
       x2="134.37337"
       y2="183.92395" /><linearGradient
       inkscape:collect="always"
       xlink:href="#linearGradient4"
       id="linearGradient9"
       gradientUnits="userSpaceOnUse"
       x1="84.947708"
       y1="42.598267"
       x2="134.37337"
       y2="183.92395" /><linearGradient
       inkscape:collect="always"
       xlink:href="#linearGradient4"
       id="linearGradient10"
       gradientUnits="userSpaceOnUse"
       x1="84.947708"
       y1="42.598267"
       x2="134.37337"
       y2="183.92395" /><linearGradient
       inkscape:collect="always"
       xlink:href="#linearGradient4"
       id="linearGradient13"
       gradientUnits="userSpaceOnUse"
       x1="84.947708"
       y1="42.598267"
       x2="134.37337"
       y2="183.92395" /><linearGradient
       inkscape:collect="always"
       xlink:href="#linearGradient158"
       id="linearGradient1447"
       gradientUnits="userSpaceOnUse"
       gradientTransform="matrix(2.740165,0,0,0.364942,0.457491,-0.477254)"
       x1="1.6422368"
       y1="117.8271"
       x2="15.343062"
       y2="117.8271" /><linearGradient
       id="linearGradient158"><stop
         id="stop159"
         offset="0.0000000"
         style="stop-color:#686868;stop-opacity:0.0000000;" /><stop
         id="stop162"
         offset="0.23762377"
         style="stop-color:#686868;stop-opacity:1.0000000;" /><stop
         id="stop163"
         offset="0.78109992"
         style="stop-color:#686868;stop-opacity:1.0000000;" /><stop
         id="stop160"
         offset="1.0000000"
         style="stop-color:#686868;stop-opacity:0.0000000;" /></linearGradient><linearGradient
       inkscape:collect="always"
       xlink:href="#linearGradient272"
       id="linearGradient1445"
       gradientUnits="userSpaceOnUse"
       gradientTransform="matrix(8.168597,0,0,0.22121,0.457491,-37.86827)"
       x1="0.61210024"
       y1="372.57819"
       x2="5.0856376"
       y2="372.57819" /><linearGradient
       id="linearGradient272"><stop
         id="stop273"
         offset="0.0000000"
         style="stop-color:#474747;stop-opacity:0.0000000;" /><stop
         id="stop275"
         offset="0.10000000"
         style="stop-color:#474747;stop-opacity:1.0000000;" /><stop
         id="stop276"
         offset="0.89999998"
         style="stop-color:#474747;stop-opacity:1.0000000;" /><stop
         id="stop274"
         offset="1.0000000"
         style="stop-color:#474747;stop-opacity:0.0000000;" /></linearGradient><linearGradient
       inkscape:collect="always"
       xlink:href="#linearGradient272"
       id="linearGradient1443"
       gradientUnits="userSpaceOnUse"
       gradientTransform="matrix(8.168597,0,0,0.228621,0.457491,-36.56817)"
       x1="0.61210024"
       y1="372.57819"
       x2="5.0856376"
       y2="372.57819" /><linearGradient
       inkscape:collect="always"
       xlink:href="#linearGradient178"
       id="linearGradient1441"
       gradientUnits="userSpaceOnUse"
       gradientTransform="matrix(2.740165,0,0,0.131557,0.457491,26.77817)"
       x1="1.6422368"
       y1="117.8271"
       x2="15.343062"
       y2="117.8271" /><linearGradient
       id="linearGradient178"><stop
         id="stop179"
         offset="0.0000000"
         style="stop-color:#ffffff;stop-opacity:0.0000000;" /><stop
         id="stop180"
         offset="0.10827128"
         style="stop-color:#ffffff;stop-opacity:0.70658684;" /><stop
         id="stop181"
         offset="0.92053902"
         style="stop-color:#ffffff;stop-opacity:0.70658684;" /><stop
         id="stop182"
         offset="1.0000000"
         style="stop-color:#ffffff;stop-opacity:0.0000000;" /></linearGradient><linearGradient
       gradientUnits="userSpaceOnUse"
       y2="43.915466"
       x2="23.100046"
       y1="38.296745"
       x1="23.100046"
       gradientTransform="matrix(0.983801,0,0,1.016466,0.457491,0.522745)"
       id="linearGradient203"
       xlink:href="#linearGradient204"
       inkscape:collect="always" /><linearGradient
       id="linearGradient204"><stop
         id="stop205"
         offset="0.0000000"
         style="stop-color:#7a7a7a;stop-opacity:1.0000000;" /><stop
         id="stop207"
         offset="0.19801980"
         style="stop-color:#c5c5c5;stop-opacity:1.0000000;" /><stop
         id="stop208"
         offset="0.59900987"
         style="stop-color:#626262;stop-opacity:1.0000000;" /><stop
         id="stop206"
         offset="1.0000000"
         style="stop-color:#888888;stop-opacity:1.0000000;" /></linearGradient><linearGradient
       inkscape:collect="always"
       xlink:href="#linearGradient218"
       id="linearGradient1439"
       gradientUnits="userSpaceOnUse"
       gradientTransform="matrix(1.138691,0,0,1.732051,-19.96021,-0.977254)"
       x1="36.373066"
       y1="22.227985"
       x2="38.105118"
       y2="22.227985" /><linearGradient
       id="linearGradient218"><stop
         id="stop219"
         offset="0.0000000"
         style="stop-color:#ffffff;stop-opacity:0.44910181;" /><stop
         id="stop222"
         offset="1.0000000"
         style="stop-color:#ffffff;stop-opacity:0.0000000;" /></linearGradient><linearGradient
       inkscape:collect="always"
       xlink:href="#linearGradient264"
       id="linearGradient1437"
       gradientUnits="userSpaceOnUse"
       gradientTransform="matrix(0.810817,0,0,1.233324,0.457491,-0.852254)"
       x1="28.632685"
       y1="29.943159"
       x2="28.783722"
       y2="31.490198" /><linearGradient
       id="linearGradient264"><stop
         id="stop265"
         offset="0.0000000"
         style="stop-color:#000000;stop-opacity:0.50299400;" /><stop
         id="stop266"
         offset="1.0000000"
         style="stop-color:#000000;stop-opacity:0.0000000;" /></linearGradient><linearGradient
       id="linearGradient5060"><stop
         id="stop5062"
         offset="0" /><stop
         id="stop5064"
         stop-opacity="0"
         offset="1" /></linearGradient><radialGradient
       id="f-7"
       xlink:href="#linearGradient5060"
       gradientUnits="userSpaceOnUse"
       cy="19.01"
       cx="31.110001"
       gradientTransform="matrix(1.776,0,0,0.584,-24.25,28.28)"
       r="8.6619997" /><radialGradient
       id="h-1"
       gradientUnits="userSpaceOnUse"
       cy="27.200001"
       cx="28.09"
       gradientTransform="matrix(1.298,0,0,0.8848,-8.358,4.941)"
       r="13.56"><stop
         stop-color="#3b74bc"
         offset="0"
         id="stop7-1" /><stop
         stop-color="#2d5990"
         offset="1"
         id="stop8-1" /></radialGradient><linearGradient
       id="m-7"
       xlink:href="#c-2-5"
       gradientUnits="userSpaceOnUse"
       x2="0"
       y1="29.549999"
       y2="35.799999" /><linearGradient
       id="c-2-5"><stop
         stop-color="#fff"
         offset="0"
         id="stop5-9" /><stop
         stop-color="#c9c9c9"
         offset="1"
         id="stop6-1" /></linearGradient><radialGradient
       id="i-5"
       xlink:href="#linearGradient5060"
       gradientUnits="userSpaceOnUse"
       cy="22.51"
       cx="30.99"
       r="8.6619997" /><linearGradient
       id="l"
       x1="20.049999"
       xlink:href="#linearGradient5060"
       gradientUnits="userSpaceOnUse"
       x2="21.91"
       y1="36.32"
       y2="37.07" /><linearGradient
       id="k-1"
       x1="40.57"
       xlink:href="#linearGradient5060"
       gradientUnits="userSpaceOnUse"
       x2="41.689999"
       y1="36.400002"
       y2="35.490002" /><radialGradient
       id="g-6"
       gradientUnits="userSpaceOnUse"
       cy="17.059999"
       cx="29.34"
       r="7.2199998"><stop
         stop-color="#f4d9b1"
         offset="0"
         id="stop13-6" /><stop
         stop-color="#df9725"
         offset="1"
         id="stop14-2-0" /></radialGradient></defs><sodipodi:namedview
     id="base"
     pagecolor="#ffffff"
     bordercolor="#000000"
     borderopacity="0.3"
     inkscape:pageopacity="0.0"
     inkscape:pageshadow="2"
     inkscape:zoom="0.45274376"
     inkscape:cx="596.36382"
     inkscape:cy="418.55905"
     inkscape:document-units="mm"
     inkscape:showpageshadow="2"
     inkscape:pagecheckerboard="0"
     inkscape:deskcolor="#d1d1d1"
     inkscape:current-layer="svg1"
     showguides="true" /><metadata
     id="metadata1"><rdf:RDF><cc:Work
         rdf:about=""><dc:format>image/svg+xml</dc:format><dc:type
           rdf:resource="http://purl.org/dc/dcmitype/StillImage" /><cc:license
           rdf:resource="http://creativecommons.org/publicdomain/zero/1.0/" /><dc:description>202507 - Folder symbolic open/close rebuild in SVG
https://commons.wikimedia.org/wiki/File:Tango_-_folder-open_22px.png
https://commons.wikimedia.org/wiki/File:Tango_-_folder_22px.png
https://web.archive.org/web/20080906080620/http://tango.freedesktop.org/Tango_Icon_Theme_Guidelines</dc:description><dc:contributor><cc:Agent><dc:title>Blackcrack</dc:title></cc:Agent></dc:contributor><dc:title>Folder Symbolic Open/Close</dc:title><dc:date>202507</dc:date><dc:creator><cc:Agent><dc:title>blackcrack</dc:title></cc:Agent></dc:creator><dc:publisher><cc:Agent><dc:title>blackcrack</dc:title></cc:Agent></dc:publisher><dc:source>https://commons.wikimedia.org/wiki/File:Tango_-_folder_22px.png</dc:source><dc:subject><rdf:Bag><rdf:li>Tango folder open close symbolic</rdf:li></rdf:Bag></dc:subject></cc:Work><cc:License
         rdf:about="http://creativecommons.org/publicdomain/zero/1.0/"><cc:permits
           rdf:resource="http://creativecommons.org/ns#Reproduction" /><cc:permits
           rdf:resource="http://creativecommons.org/ns#Distribution" /><cc:permits
           rdf:resource="http://creativecommons.org/ns#DerivativeWorks" /></cc:License></rdf:RDF></metadata><g
     id="g2"
     style="display:inline"
     transform="matrix(5.6548057,0,0,5.6548057,-6.8122062,-5.6574056)"><rect
       y="40.522766"
       x="5.4574776"
       height="4"
       width="36.542522"
       id="rect69"
       style="color:#000000;display:block;overflow:visible;visibility:visible;fill:url(#linearGradient1447);fill-opacity:1;fill-rule:nonzero;stroke:none;stroke-width:1;stroke-linecap:butt;stroke-linejoin:miter;stroke-miterlimit:4;stroke-dashoffset:0;stroke-opacity:1;marker:none;marker-start:none;marker-mid:none;marker-end:none" /><rect
       y="44.055054"
       x="5.4574776"
       height="0.98959237"
       width="36.542522"
       id="rect255"
       style="color:#000000;display:block;overflow:visible;visibility:visible;fill:url(#linearGradient1445);fill-opacity:1;fill-rule:nonzero;stroke:none;stroke-width:1;stroke-linecap:butt;stroke-linejoin:miter;stroke-miterlimit:4;stroke-dashoffset:0;stroke-opacity:1;marker:none;marker-start:none;marker-mid:none;marker-end:none" /><rect
       y="40"
       x="5.4574776"
       height="1.022747"
       width="36.542522"
       id="rect250"
       style="color:#000000;display:block;overflow:visible;visibility:visible;fill:url(#linearGradient1443);fill-opacity:1;fill-rule:nonzero;stroke:none;stroke-width:1;stroke-linecap:butt;stroke-linejoin:miter;stroke-miterlimit:4;stroke-dashoffset:0;stroke-opacity:1;marker:none;marker-start:none;marker-mid:none;marker-end:none" /><rect
       y="41.55806"
       x="5.4574776"
       height="1.4419417"
       width="36.542522"
       id="rect176"
       style="color:#000000;display:block;overflow:visible;visibility:visible;opacity:0.837079;fill:url(#linearGradient1441);fill-opacity:1;fill-rule:nonzero;stroke:none;stroke-width:1;stroke-linecap:butt;stroke-linejoin:miter;stroke-miterlimit:4;stroke-dashoffset:0;stroke-opacity:1;marker:none;marker-start:none;marker-mid:none;marker-end:none" /><path
       id="rect183"
       d="m 21.923478,29.991506 c -0.78348,0 -1.40625,0.62277 -1.40625,1.40625 v 7.09375 h -3.625 c -0.78348,0 -1.40625,0.62277 -1.40625,1.40625 v 4.21875 c 0,0.78347 0.62277,1.40625 1.40625,1.40625 h 13.1875 c 0.78347,0 1.40625,-0.62278 1.40625,-1.40625 v -4.21875 c 0,-0.78348 -0.62278,-1.40625 -1.40625,-1.40625 h -3.03125 v -7.09375 c 0,-0.78348 -0.62278,-1.40625 -1.40625,-1.40625 z"
       style="color:#000000;display:block;overflow:visible;visibility:visible;fill:url(#linearGradient203);fill-opacity:1;fill-rule:nonzero;stroke:#434343;stroke-width:1;stroke-linecap:butt;stroke-linejoin:miter;stroke-miterlimit:4;stroke-dashoffset:0;stroke-opacity:1;marker:none;marker-start:none;marker-mid:none;marker-end:none"
       sodipodi:nodetypes="ccccccccccccccc" /><rect
       ry="0.29955584"
       rx="0.29955584"
       y="36.022766"
       x="21.457478"
       height="3"
       width="1.9722718"
       id="rect209"
       style="color:#000000;display:block;overflow:visible;visibility:visible;fill:url(#linearGradient1439);fill-opacity:1;fill-rule:nonzero;stroke:none;stroke-width:1;stroke-linecap:butt;stroke-linejoin:miter;stroke-miterlimit:4;stroke-dashoffset:0;stroke-opacity:1;marker:none;marker-start:none;marker-mid:none;marker-end:none" /><path
       sodipodi:nodetypes="cccc"
       id="path258"
       d="m 26.551238,35.975876 h -5.53125 c 0,0 0,1.6875 0,2.17188 0.54687,-1.78125 5.53125,-2.17188 5.53125,-2.17188 z"
       style="color:#000000;display:block;overflow:visible;visibility:visible;fill:url(#linearGradient1437);fill-opacity:1;fill-rule:nonzero;stroke:none;stroke-width:1;stroke-linecap:butt;stroke-linejoin:miter;stroke-miterlimit:4;stroke-dashoffset:0;stroke-opacity:1;marker:none;marker-start:none;marker-mid:none;marker-end:none" /><g
       style="fill:#ffffff;fill-opacity:0.720238"
       id="g236"
       transform="translate(-0.570309,0.900845)"><rect
         ry="0.49999997"
         rx="0.5"
         y="39.099155"
         x="19.007809"
         height="0.99999994"
         width="11.5625"
         id="rect226"
         style="color:#000000;display:block;overflow:visible;visibility:visible;fill-rule:nonzero;stroke:none;stroke-width:1.14;stroke-linecap:round;stroke-linejoin:round;stroke-miterlimit:4;stroke-dashoffset:0;stroke-opacity:1;marker:none;marker-start:none;marker-mid:none;marker-end:none" /><circle
         transform="matrix(0.94118,0,0,0.94118,0.687895,1.413727)"
         id="path235"
         style="color:#000000;display:block;overflow:visible;visibility:visible;fill-rule:nonzero;stroke:none;stroke-width:1.14;stroke-linecap:round;stroke-linejoin:round;stroke-miterlimit:4;stroke-dashoffset:0;stroke-opacity:1;marker:none;marker-start:none;marker-mid:none;marker-end:none"
         cx="18.46875"
         cy="40.625"
         r="0.53125" /></g></g><g
     id="g38"
     style="display:inline"
     transform="matrix(0.88978746,0,0,0.88978746,-1.293755,-4.3316249)"><g
       id="g20"
       style="display:inline"
       inkscape:label="back"><path
         style="baseline-shift:baseline;display:inline;overflow:visible;opacity:1;vector-effect:none;fill:url(#linearGradient6);stroke-linecap:round;stroke-linejoin:round;paint-order:stroke fill markers;enable-background:accumulate;stop-color:#000000;stop-opacity:1"
         d="m 16.792115,27.533384 h 89.486765 l 12.66536,30.107111 80.39749,0.275334 -0.55067,156.844591 H 22.577377 Z"
         id="path24"
         sodipodi:nodetypes="ccccccc" /><g
         id="g6"
         style="fill:url(#linearGradient28);fill-opacity:1"
         transform="translate(1.6529321)"><rect
           style="fill:url(#linearGradient5);fill-opacity:1;fill-rule:evenodd;stroke-width:10;stroke-linecap:square;paint-order:stroke fill markers"
           id="rect1"
           width="95.257156"
           height="12.856794"
           x="23.37599"
           y="47.920776" /><rect
           style="fill:url(#linearGradient7);fill-opacity:1;fill-rule:evenodd;stroke-width:10;stroke-linecap:square;paint-order:stroke fill markers"
           id="rect2"
           width="172.98233"
           height="12.856796"
           x="23.37599"
           y="71.881165" /><rect
           style="fill:url(#linearGradient8);fill-opacity:1;fill-rule:evenodd;stroke-width:10;stroke-linecap:square;paint-order:stroke fill markers"
           id="rect3"
           width="172.98233"
           height="12.856796"
           x="23.37599"
           y="97.594749" /><rect
           style="fill:url(#linearGradient9);fill-opacity:1;fill-rule:evenodd;stroke-width:10;stroke-linecap:square;paint-order:stroke fill markers"
           id="rect4"
           width="172.98233"
           height="12.856796"
           x="23.37599"
           y="123.89274" /><rect
           style="fill:url(#linearGradient10);fill-opacity:1;fill-rule:evenodd;stroke-width:10;stroke-linecap:square;paint-order:stroke fill markers"
           id="rect5"
           width="172.98233"
           height="12.856796"
           x="23.37599"
           y="150.77512" /><rect
           style="fill:url(#linearGradient13);fill-opacity:1;fill-rule:evenodd;stroke-width:10;stroke-linecap:square;paint-order:stroke fill markers"
           id="rect6"
           width="172.98233"
           height="12.856796"
           x="23.37599"
           y="176.48871" /></g><path
         id="rect20"
         style="display:inline;fill:url(#radialGradient1);stroke-width:14;stroke-linecap:round;stroke-linejoin:round;paint-order:stroke fill markers"
         d="m 16.142053,27.774909 h 87.404017 l 13.32652,27.322993 78.31167,0.877092 V 68.477357 H 115.10435 L 90.817265,42.977532 H 31.052627 l 5.127442,169.607768 -14.252754,0.32891 z"
         sodipodi:nodetypes="ccccccccccc" /><path
         style="baseline-shift:baseline;display:inline;overflow:visible;opacity:1;vector-effect:none;fill:url(#linearGradient2);fill-opacity:1;stroke-linecap:round;stroke-linejoin:round;paint-order:stroke fill markers;enable-background:accumulate;stop-color:#000000;stop-opacity:1"
         d="M 24.09786,19.024807 C 13.894929,19.025368 7.1156678,24.619472 7.1156678,35.422599 L 12.90093,214.75977 c 4.02e-4,7.28093 2.396264,8.50799 9.677195,8.50839 H 198.79102 c 7.26342,-3.6e-4 7.89884,-1.20009 7.92399,-8.46347 l 0.55078,-156.845043 c 0.0234,-7.280189 -0.59889,-8.526196 -7.87907,-8.551365 L 126.29631,49.160236 105.65519,25.991604 C 102.42006,22.360335 98.54777,19.024807 94.030188,19.024807 Z M 21.403003,41.88116 c 0,-6.643999 1.427147,-9.058196 8.979783,-9.058196 h 62.154076 c 6.457111,7.218992 21.262858,20.332689 26.405268,27.775824 l 74.18984,0.230469 -0.46289,146.449963 H 27.865933 Z"
         id="path23"
         sodipodi:nodetypes="cccccccccssccccccccc" /></g><g
       id="rect8"
       style="display:inline;opacity:1"
       inkscape:label="close"><path
         style="baseline-shift:baseline;display:inline;overflow:visible;opacity:1;vector-effect:none;fill:url(#linearGradient17);stroke-linecap:round;stroke-linejoin:round;paint-order:stroke fill markers;enable-background:accumulate;stop-color:#000000;stop-opacity:1"
         d="M 45.949906,84.177349 H 228.45033 c 0,0 3.59389,85.323731 -4.48161,106.128751 -8.0755,20.80503 -15.05417,29.55296 -15.05417,29.55296 H 29.623165 c 0,0 3.607513,-7.34582 10.494315,-28.16958 6.886802,-20.82376 5.832426,-107.512131 5.832426,-107.512131 z"
         id="path11"
         sodipodi:nodetypes="ccsccsc" /><path
         style="baseline-shift:baseline;display:inline;overflow:visible;opacity:1;vector-effect:none;fill:url(#linearGradient12);stroke-linecap:round;stroke-linejoin:round;paint-order:stroke fill markers;enable-background:accumulate;stop-color:#000000;stop-opacity:1"
         d="m 57.018334,82.4929 c -3.825772,-4.2e-5 -9.735509,13.93263 -9.792461,17.75798 -0.555168,34.47665 0.194869,47.58898 -1.096149,66.26718 -0.71413,10.3319 -1.017665,11.65384 -0.903098,15.27287 0.114567,3.61904 0.390989,22.78313 1.638145,29.45541 1.247154,6.67228 12.173526,6.44685 19.994403,6.33456 7.820878,-0.11228 137.721976,6.34778 137.721976,6.34778 19.41496,0.9302 20.2335,-8.92464 22.2532,-14.65195 1.82319,-5.17007 8.59397,-101.26118 8.40442,-115.804191 -0.057,-3.82535 -3.45631,-11.508767 -7.28208,-11.508725 z M 67.355575,97.836951 216.03865,97.474155 c 0.75055,19.622145 -1.1089,69.653235 -2.1153,85.148415 -1.00646,15.49518 -7.77315,15.25548 -15.33842,16.24321 -7.56526,0.98774 -136.939842,0.71776 -136.939842,0.71776 4.536268,-36.26855 4.817316,-66.37185 3.440951,-96.74066 -0.128382,-2.8327 2.269536,-5.005929 2.269536,-5.005929 z"
         id="path10"
         sodipodi:nodetypes="ccszzzcsccccczzcsc" /><path
         id="rect32"
         style="fill:url(#linearGradient33);stroke-width:14;stroke-linecap:round;stroke-linejoin:round;paint-order:stroke fill markers"
         d="m 54.629707,92.1465 160.598173,1.316379 c 0,0 -1.6758,36.635821 -22.22646,46.541481 -20.55067,9.90566 -31.62979,11.41481 -73.57855,13.67001 -41.948756,2.25519 -64.793163,38.28846 -64.793163,38.28846 z"
         sodipodi:nodetypes="cczzcc" /><path
         style="baseline-shift:baseline;display:inline;overflow:visible;opacity:1;vector-effect:none;fill:#3666a6;stroke:none;stroke-linecap:round;stroke-linejoin:round;stroke-opacity:1;paint-order:stroke fill markers;enable-background:accumulate;stop-color:#000000;stop-opacity:1"
         d="m 55.126031,75.044922 c -12.367332,-0.07765 -14.909778,5.971171 -14.909778,13.250479 0,12.757309 0.33695,14.960119 -0.148027,35.378999 -0.484977,20.41888 -0.299705,44.78837 -3.000444,74.55242 -0.919094,10.12906 2.85487,5.08223 -7.706188,15.01611 -10.561058,9.93388 -11.079851,0.51211 -15.275107,5.17087 -2.694002,2.99164 6.823467,10.75206 15.540144,10.50619 l -0.0039,0.0723 c 57.789333,-0.008 173.159919,-0.364 179.321119,-0.17793 6.1612,0.18604 30.22082,1.77093 31.40355,-29.10956 1.18274,-30.8805 2.87439,-72.6766 2.87439,-110.083125 0,-8.311539 -4.55453,-14.576642 -9.54604,-14.576693 0,0 -153.815054,0.155241 -178.549719,-6e-5 z m 25.425085,12.195967 c 24.572354,0 149.304214,-1.016201 149.304214,-1.016201 1.24517,8.017923 -0.73667,41.313932 -0.89681,59.396982 -0.1567,17.69506 -1.35025,52.20807 -4.07445,59.74364 -2.7242,7.53557 -5.98064,8.31207 -20.70359,8.31207 -51.45839,0 -103.12962,-0.18086 -154.547732,-0.18086 0,0 1.998631,-10.77695 3.622636,-25.46778 1.624005,-14.69084 2.780351,-45.36515 3.267145,-62.23599 0.486793,-16.87084 -0.118427,-38.979083 -0.118427,-38.979083 0,0 11.860817,0.427202 24.146991,0.427202 z"
         id="path8"
         sodipodi:nodetypes="sszszscczzscsscszsczzcss" /></g><g
       id="g36"
       style="display:none;opacity:1"
       inkscape:label="open"
       transform="matrix(1.0002491,0.01640645,-0.05846776,1.0339087,5.6628172,-10.034201)"><path
         style="baseline-shift:baseline;display:inline;overflow:visible;opacity:1;vector-effect:none;fill:url(#linearGradient37);stroke-linecap:round;stroke-linejoin:round;paint-order:stroke fill markers;enable-background:accumulate;stop-color:#000000;stop-opacity:1"
         d="m 65.385965,117.40699 178.474275,-1.61982 c 0,0 2.02094,62.82192 -6.64444,79.11995 -8.86649,16.67629 -16.39804,23.85385 -16.39804,23.85385 l -188.679043,2.49555 c 0,0 5.648126,-5.59656 14.720655,-22.91534 13.951879,-26.6331 18.526593,-80.93419 18.526593,-80.93419 z"
         id="path33"
         sodipodi:nodetypes="ccsccsc" /><path
         style="baseline-shift:baseline;display:inline;overflow:visible;opacity:1;vector-effect:none;fill:url(#linearGradient38);stroke-linecap:round;stroke-linejoin:round;paint-order:stroke fill markers;enable-background:accumulate;stop-color:#000000;stop-opacity:1"
         d="m 75.326556,123.85892 c -3.783485,0.0353 -7.200347,2.27089 -7.673373,5.02987 -4.391151,25.36537 -5.124647,35.24404 -8.613093,49.581 -1.959771,8.05435 -2.431654,9.09397 -2.74653,11.93599 -0.3161,2.85307 -15.21051,20.66546 -14.729039,26.05208 0.484935,5.4254 19.358982,1.57331 27.627532,1.37337 8.262059,-0.19978 141.103417,-3.10509 141.103417,-3.10509 20.19627,0.48859 14.96294,6.78282 25.94131,-13.92372 8.62834,-16.27407 11.55646,-67.94935 11.66027,-78.38387 0.0201,-2.71901 -9.8986,-4.30657 -13.62154,-4.27241 z m 14.208737,11.89034 144.009497,-2.20764 c 0.90067,20.85922 -3.19181,37.55712 -7.49403,46.4717 -4.30221,8.91458 -7.27852,20.2662 -15.13939,21.15195 -7.87421,0.88726 -137.107827,3.31584 -137.107827,3.31584 8.454225,-13.71964 16.121655,-41.53602 15.7318,-68.73185 z"
         id="path34"
         sodipodi:nodetypes="ccszzzcsccccczzccc" /><path
         id="path35"
         style="fill:url(#linearGradient36);stroke-width:14;stroke-linecap:round;stroke-linejoin:round;paint-order:stroke fill markers"
         d="m 73.327567,118.83785 172.036613,-0.40714 c 0,0 -2.48966,31.74094 -30.79399,43.47345 -28.82994,11.95038 -51.54075,7.24752 -94.13874,9.41551 -42.845471,2.18058 -51.535363,19.00884 -51.535363,19.00884 z"
         sodipodi:nodetypes="cczzcc" /><path
         style="baseline-shift:baseline;display:inline;overflow:visible;opacity:1;vector-effect:none;fill:#3666a6;stroke:none;stroke-linecap:round;stroke-linejoin:round;stroke-opacity:1;paint-order:stroke fill markers;enable-background:accumulate;stop-color:#000000;stop-opacity:1"
         d="m 81.849011,110.80891 c -17.449053,0.27695 -20.73295,7.23777 -20.458225,11.9377 0.274726,4.69992 0.406384,3.25083 -0.173317,12.64836 -1.072573,17.38748 -3.476389,33.84684 -7.901812,47.54948 -4.425423,13.70264 -13.282935,23.73208 -17.705275,27.28893 -4.422339,3.55684 -12.537275,4.61711 -17.660234,8.49466 -3.304531,2.5012 3.118715,11.71527 17.253617,11.28926 l 4.220887,0.0957 c 61.439308,-0.83775 176.035128,-3.65879 182.497838,-3.5934 6.46066,0.0653 22.69822,-16.48438 31.1978,-44.26324 8.49958,-27.77886 4.50994,-48.13178 3.23151,-69.38606 -0.009,-3.5065 -5.40022,-5.65098 -10.22249,-5.6085 0,0 -140.09804,3.44289 -164.280302,3.54704 0,0 34.891572,-0.66101 13.717253,-0.21765 z M 242.66117,121.2525 c 0,0 2.97087,24.4458 -0.93311,41.73673 -4.25398,18.84109 -6.76917,27.57858 -17.96622,44.18543 -3.46777,5.14321 -8.04226,5.31735 -11.73687,5.62664 -6.64995,0.55669 -117.966719,1.15391 -140.41633,1.78568 -11.224806,0.31588 -22.60528,0.27204 -22.60528,0.27204 0,0 11.546404,-9.06777 16.711091,-19.66081 5.164687,-10.59304 8.331391,-32.68861 10.331107,-44.81039 1.999716,-12.12179 1.122083,-26.49548 1.122083,-26.49548 55.890619,-0.90271 165.493529,-2.63984 165.493529,-2.63984 z"
         id="path36"
         sodipodi:nodetypes="szszzscczzcczzscszscszzcc" /></g></g><g
     id="g4"
     transform="matrix(0.31765475,0,0,0.31765475,64.238211,31.789781)"><rect
       width="512"
       height="512"
       rx="15.000001%"
       fill="#0082c9"
       id="rect1-6"
       x="0"
       y="0"
       style="display:none" /><circle
       style="fill:#0082c9;fill-opacity:1;stroke:#58d2ff;stroke-width:11.6409;stroke-linecap:round;stroke-linejoin:round;stroke-miterlimit:2.1;stroke-opacity:1"
       id="path4"
       cx="358.53049"
       cy="144.88321"
       r="233.34525" /><g
       stroke="#ffffff"
       stroke-width="33"
       fill="none"
       id="g3"
       transform="translate(102.02541,-107.07617)"><circle
         r="40"
         cy="256"
         cx="120"
         id="circle1" /><circle
         r="71"
         cy="256"
         cx="256"
         id="circle2" /><circle
         r="40"
         cy="256"
         cx="392"
         id="circle3" /></g></g></svg>
