<?xml version="1.0" encoding="UTF-8" standalone="no"?>
<!-- Created with Inkscape (http://www.inkscape.org/) -->

<svg
   width="256mm"
   height="256mm"
   viewBox="0 0 256 256"
   version="1.1"
   id="svg1"
   inkscape:version="1.4.2 (ebf0e940d0, 2025-05-08)"
   sodipodi:docname="folder-blender-symbolic.svg"
   xml:space="preserve"
   xmlns:inkscape="http://www.inkscape.org/namespaces/inkscape"
   xmlns:sodipodi="http://sodipodi.sourceforge.net/DTD/sodipodi-0.dtd"
   xmlns:xlink="http://www.w3.org/1999/xlink"
   xmlns="http://www.w3.org/2000/svg"
   xmlns:svg="http://www.w3.org/2000/svg"
   xmlns:rdf="http://www.w3.org/1999/02/22-rdf-syntax-ns#"
   xmlns:cc="http://creativecommons.org/ns#"
   xmlns:dc="http://purl.org/dc/elements/1.1/"><title
     id="title1">Folder Symbolic Open/Close</title><defs
     id="defs1"><linearGradient
       id="linearGradient3"
       inkscape:collect="always"><stop
         style="stop-color:#babdb6;stop-opacity:1;"
         offset="0"
         id="stop5" /><stop
         style="stop-color:#202020;stop-opacity:1;"
         offset="1"
         id="stop6" /></linearGradient><linearGradient
       id="linearGradient1"
       inkscape:collect="always"><stop
         style="stop-color:#7a7a7a;stop-opacity:1;"
         offset="0"
         id="stop1" /><stop
         style="stop-color:#707070;stop-opacity:1;"
         offset="0.38631266"
         id="stop3" /><stop
         style="stop-color:#595959;stop-opacity:1;"
         offset="0.65277058"
         id="stop4" /><stop
         style="stop-color:#4b4b4b;stop-opacity:1;"
         offset="1"
         id="stop2" /></linearGradient><linearGradient
       id="linearGradient32"
       inkscape:collect="always"><stop
         style="stop-color:#f4f4f4;stop-opacity:0.42167604;"
         offset="0"
         id="stop32" /><stop
         style="stop-color:#f4f4f4;stop-opacity:0;"
         offset="1"
         id="stop33" /></linearGradient><linearGradient
       id="linearGradient20"
       inkscape:collect="always"><stop
         style="stop-color:#f3f7fb;stop-opacity:1;"
         offset="0"
         id="stop21" /><stop
         style="stop-color:#f3f7fb;stop-opacity:0;"
         offset="1"
         id="stop22" /></linearGradient><linearGradient
       id="linearGradient15"
       inkscape:collect="always"><stop
         style="stop-color:#719ecf;stop-opacity:1;"
         offset="0"
         id="stop16" /><stop
         style="stop-color:#8aafd7;stop-opacity:1;"
         offset="0.25390714"
         id="stop18" /><stop
         style="stop-color:#719ecf;stop-opacity:1;"
         offset="0.4463878"
         id="stop19" /><stop
         style="stop-color:#4f87c3;stop-opacity:1;"
         offset="0.7372098"
         id="stop20" /><stop
         style="stop-color:#2c5681;stop-opacity:1;"
         offset="1"
         id="stop17" /></linearGradient><linearGradient
       id="linearGradient11"
       inkscape:collect="always"><stop
         style="stop-color:#dce6f3;stop-opacity:1;"
         offset="0"
         id="stop11" /><stop
         style="stop-color:#bdd0ea;stop-opacity:1;"
         offset="0.21857853"
         id="stop13" /><stop
         style="stop-color:#9bb8de;stop-opacity:1;"
         offset="0.51587749"
         id="stop14" /><stop
         style="stop-color:#77a0d1;stop-opacity:1;"
         offset="0.8174454"
         id="stop15" /><stop
         style="stop-color:#9ebbe0;stop-opacity:1;"
         offset="1"
         id="stop12" /></linearGradient><linearGradient
       inkscape:collect="always"
       xlink:href="#linearGradient11"
       id="linearGradient12"
       x1="123.00126"
       y1="92.722893"
       x2="148.01651"
       y2="200.25244"
       gradientUnits="userSpaceOnUse" /><linearGradient
       inkscape:collect="always"
       xlink:href="#linearGradient15"
       id="linearGradient17"
       x1="119.17952"
       y1="81.366829"
       x2="129.61365"
       y2="228.20688"
       gradientUnits="userSpaceOnUse" /><linearGradient
       inkscape:collect="always"
       xlink:href="#linearGradient32"
       id="linearGradient33"
       x1="138.21974"
       y1="89.349197"
       x2="152.51729"
       y2="168.33191"
       gradientUnits="userSpaceOnUse" /><linearGradient
       inkscape:collect="always"
       xlink:href="#linearGradient32"
       id="linearGradient36"
       gradientUnits="userSpaceOnUse"
       x1="138.21974"
       y1="89.349197"
       x2="144.36659"
       y2="191.34566" /><linearGradient
       inkscape:collect="always"
       xlink:href="#linearGradient15"
       id="linearGradient37"
       gradientUnits="userSpaceOnUse"
       x1="119.17952"
       y1="81.366829"
       x2="125.66673"
       y2="211.10358" /><linearGradient
       inkscape:collect="always"
       xlink:href="#linearGradient11"
       id="linearGradient38"
       gradientUnits="userSpaceOnUse"
       x1="123.00126"
       y1="92.722893"
       x2="148.01651"
       y2="200.25244" /><linearGradient
       inkscape:collect="always"
       xlink:href="#linearGradient1"
       id="linearGradient2"
       x1="49.730732"
       y1="20.606987"
       x2="84.292465"
       y2="218.6758"
       gradientUnits="userSpaceOnUse" /><radialGradient
       inkscape:collect="always"
       xlink:href="#linearGradient20"
       id="radialGradient1"
       cx="58.297417"
       cy="74.405579"
       fx="58.297417"
       fy="74.405579"
       r="86.628471"
       gradientTransform="matrix(1.6487439,0,0,1.7618185,-37.820092,-59.834146)"
       gradientUnits="userSpaceOnUse" /><linearGradient
       inkscape:collect="always"
       xlink:href="#linearGradient3"
       id="linearGradient6"
       x1="53.15662"
       y1="40.153225"
       x2="69.586563"
       y2="199.66118"
       gradientUnits="userSpaceOnUse" /><linearGradient
       inkscape:collect="always"
       xlink:href="#b"
       id="linearGradient40"
       x1="126.82656"
       y1="96.665436"
       x2="137.82387"
       y2="198.76239"
       gradientUnits="userSpaceOnUse" /><linearGradient
       id="b"><stop
         offset="0"
         stop-color="#fff"
         id="stop12-9" /><stop
         offset="1"
         stop-color="#fff"
         stop-opacity="0"
         id="stop13-2" /></linearGradient></defs><sodipodi:namedview
     id="base"
     pagecolor="#ffffff"
     bordercolor="#000000"
     borderopacity="0.3"
     inkscape:pageopacity="0.0"
     inkscape:pageshadow="2"
     inkscape:zoom="0.32013818"
     inkscape:cx="531.0207"
     inkscape:cy="860.5659"
     inkscape:document-units="mm"
     inkscape:showpageshadow="2"
     inkscape:pagecheckerboard="0"
     inkscape:deskcolor="#d1d1d1"
     inkscape:current-layer="svg1"
     showguides="true" /><metadata
     id="metadata1"><rdf:RDF><cc:Work
         rdf:about=""><dc:format>image/svg+xml</dc:format><dc:type
           rdf:resource="http://purl.org/dc/dcmitype/StillImage" /><cc:license
           rdf:resource="http://creativecommons.org/publicdomain/zero/1.0/" /><dc:description>202507 - Folder symbolic open/close rebuild in SVG
https://commons.wikimedia.org/wiki/File:Tango_-_folder-open_22px.png
https://commons.wikimedia.org/wiki/File:Tango_-_folder_22px.png
https://web.archive.org/web/20080906080620/http://tango.freedesktop.org/Tango_Icon_Theme_Guidelines</dc:description><dc:contributor><cc:Agent><dc:title>Blackcrack</dc:title></cc:Agent></dc:contributor><dc:title>Folder Symbolic Open/Close</dc:title><dc:date>202507</dc:date><dc:creator><cc:Agent><dc:title>blackcrack</dc:title></cc:Agent></dc:creator><dc:publisher><cc:Agent><dc:title>blackcrack</dc:title></cc:Agent></dc:publisher><dc:source>https://commons.wikimedia.org/wiki/File:Tango_-_folder_22px.png</dc:source><dc:subject><rdf:Bag><rdf:li>Tango folder open close symbolic</rdf:li></rdf:Bag></dc:subject></cc:Work><cc:License
         rdf:about="http://creativecommons.org/publicdomain/zero/1.0/"><cc:permits
           rdf:resource="http://creativecommons.org/ns#Reproduction" /><cc:permits
           rdf:resource="http://creativecommons.org/ns#Distribution" /><cc:permits
           rdf:resource="http://creativecommons.org/ns#DerivativeWorks" /></cc:License></rdf:RDF></metadata><g
     id="g38"
     style="display:inline"><g
       id="g20"
       style="display:inline"
       inkscape:label="back"><path
         style="baseline-shift:baseline;display:inline;overflow:visible;opacity:1;vector-effect:none;fill:url(#linearGradient6);stroke-linecap:round;stroke-linejoin:round;paint-order:stroke fill markers;enable-background:accumulate;stop-color:#000000;stop-opacity:1"
         d="m 16.792115,27.533384 89.486765,0 12.66536,30.107111 80.39749,0.275334 -0.55067,156.844591 H 22.577377 Z"
         id="path24"
         sodipodi:nodetypes="ccccccc" /><g
         id="g6"
         style="fill:#888a85;fill-opacity:1"
         transform="translate(1.6529321)"><rect
           style="fill:#888a85;fill-opacity:1;fill-rule:evenodd;stroke-width:10;stroke-linecap:square;paint-order:stroke fill markers"
           id="rect1"
           width="95.257156"
           height="12.856794"
           x="23.37599"
           y="47.920776" /><rect
           style="fill:#888a85;fill-opacity:1;fill-rule:evenodd;stroke-width:10;stroke-linecap:square;paint-order:stroke fill markers"
           id="rect2"
           width="172.98233"
           height="12.856796"
           x="23.37599"
           y="71.881165" /><rect
           style="fill:#888a85;fill-opacity:1;fill-rule:evenodd;stroke-width:10;stroke-linecap:square;paint-order:stroke fill markers"
           id="rect3"
           width="172.98233"
           height="12.856796"
           x="23.37599"
           y="97.594749" /><rect
           style="fill:#888a85;fill-opacity:1;fill-rule:evenodd;stroke-width:10;stroke-linecap:square;paint-order:stroke fill markers"
           id="rect4"
           width="172.98233"
           height="12.856796"
           x="23.37599"
           y="123.89274" /><rect
           style="fill:#888a85;fill-opacity:1;fill-rule:evenodd;stroke-width:10;stroke-linecap:square;paint-order:stroke fill markers"
           id="rect5"
           width="172.98233"
           height="12.856796"
           x="23.37599"
           y="150.77512" /><rect
           style="fill:#888a85;fill-opacity:1;fill-rule:evenodd;stroke-width:10;stroke-linecap:square;paint-order:stroke fill markers"
           id="rect6"
           width="172.98233"
           height="12.856796"
           x="23.37599"
           y="176.48871" /></g><path
         id="rect20"
         style="display:inline;fill:url(#radialGradient1);stroke-width:14;stroke-linecap:round;stroke-linejoin:round;paint-order:stroke fill markers"
         d="m 16.142053,27.774909 87.404017,0 13.32652,27.322993 78.31167,0.877092 v 12.502363 h -80.07991 l -24.287085,-25.499825 -59.764638,0 5.127442,169.607768 -14.252754,0.32891 z"
         sodipodi:nodetypes="ccccccccccc" /><path
         style="baseline-shift:baseline;display:inline;overflow:visible;opacity:1;vector-effect:none;fill:url(#linearGradient2);fill-opacity:1;stroke-linecap:round;stroke-linejoin:round;paint-order:stroke fill markers;enable-background:accumulate;stop-color:#000000;stop-opacity:1"
         d="m 16.792863,19.024807 c -7.2809322,4e-4 -9.6767952,1.227464 -9.6771952,8.508396 L 12.90093,214.75977 c 4.02e-4,7.28093 2.396264,8.50799 9.677195,8.50839 H 198.79102 c 7.26342,-3.6e-4 7.89884,-1.20009 7.92399,-8.46347 l 0.55078,-156.845043 c 0.0234,-7.280189 -0.59889,-8.526196 -7.87907,-8.551365 L 126.29631,49.160236 105.65519,25.991604 c -3.23513,-3.631269 -7.10742,-6.966797 -11.625002,-6.966797 z m 4.61014,13.798157 71.133859,0 c 6.457111,7.218992 21.262858,20.332689 26.405268,27.775824 l 74.18984,0.230469 -0.46289,146.449963 H 27.865933 Z"
         id="path23"
         sodipodi:nodetypes="cccccccccsscccccccc" /></g><g
       id="rect8"
       style="display:inline;opacity:1"
       inkscape:label="close"><path
         style="baseline-shift:baseline;display:inline;overflow:visible;opacity:1;vector-effect:none;fill:url(#linearGradient17);stroke-linecap:round;stroke-linejoin:round;paint-order:stroke fill markers;enable-background:accumulate;stop-color:#000000;stop-opacity:1"
         d="M 45.949906,84.177349 H 228.45033 c 0,0 3.59389,85.323731 -4.48161,106.128751 -8.0755,20.80503 -15.05417,29.55296 -15.05417,29.55296 H 29.623165 c 0,0 3.607513,-7.34582 10.494315,-28.16958 6.886802,-20.82376 5.832426,-107.512131 5.832426,-107.512131 z"
         id="path11"
         sodipodi:nodetypes="ccsccsc" /><path
         style="baseline-shift:baseline;display:inline;overflow:visible;opacity:1;vector-effect:none;fill:url(#linearGradient12);stroke-linecap:round;stroke-linejoin:round;paint-order:stroke fill markers;enable-background:accumulate;stop-color:#000000;stop-opacity:1"
         d="m 57.018334,82.4929 c -3.825772,-4.2e-5 -9.735509,13.93263 -9.792461,17.75798 -0.555168,34.47665 0.194869,47.58898 -1.096149,66.26718 -0.71413,10.3319 -1.017665,11.65384 -0.903098,15.27287 0.114567,3.61904 0.390989,22.78313 1.638145,29.45541 1.247154,6.67228 12.173526,6.44685 19.994403,6.33456 7.820878,-0.11228 137.721976,6.34778 137.721976,6.34778 19.41496,0.9302 20.2335,-8.92464 22.2532,-14.65195 1.82319,-5.17007 8.59397,-101.26118 8.40442,-115.804191 -0.057,-3.82535 -3.45631,-11.508767 -7.28208,-11.508725 z M 67.355575,97.836951 216.03865,97.474155 c 0.75055,19.622145 -1.1089,69.653235 -2.1153,85.148415 -1.00646,15.49518 -7.77315,15.25548 -15.33842,16.24321 -7.56526,0.98774 -136.939842,0.71776 -136.939842,0.71776 4.536268,-36.26855 4.817316,-66.37185 3.440951,-96.74066 -0.128382,-2.8327 2.269536,-5.005929 2.269536,-5.005929 z"
         id="path10"
         sodipodi:nodetypes="ccszzzcsccccczzcsc" /><path
         id="rect32"
         style="fill:url(#linearGradient33);stroke-width:14;stroke-linecap:round;stroke-linejoin:round;paint-order:stroke fill markers"
         d="m 54.629707,92.1465 160.598173,1.316379 c 0,0 -1.6758,36.635821 -22.22646,46.541481 -20.55067,9.90566 -31.62979,11.41481 -73.57855,13.67001 -41.948756,2.25519 -64.793163,38.28846 -64.793163,38.28846 z"
         sodipodi:nodetypes="cczzcc" /><path
         style="baseline-shift:baseline;display:inline;overflow:visible;opacity:1;vector-effect:none;fill:#3666a6;stroke:none;stroke-linecap:round;stroke-linejoin:round;stroke-opacity:1;paint-order:stroke fill markers;enable-background:accumulate;stop-color:#000000;stop-opacity:1"
         d="m 55.126031,75.044922 c -12.367332,-0.07765 -14.909778,5.971171 -14.909778,13.250479 0,12.757309 0.33695,14.960119 -0.148027,35.378999 -0.484977,20.41888 -0.299705,44.78837 -3.000444,74.55242 -0.919094,10.12906 2.85487,5.08223 -7.706188,15.01611 -10.561058,9.93388 -11.079851,0.51211 -15.275107,5.17087 -2.694002,2.99164 6.823467,10.75206 15.540144,10.50619 l -0.0039,0.0723 c 57.789333,-0.008 173.159919,-0.364 179.321119,-0.17793 6.1612,0.18604 30.22082,1.77093 31.40355,-29.10956 1.18274,-30.8805 2.87439,-72.6766 2.87439,-110.083125 0,-8.311539 -4.55453,-14.576642 -9.54604,-14.576693 0,0 -153.815054,0.155241 -178.549719,-6e-5 z m 25.425085,12.195967 c 24.572354,0 149.304214,-1.016201 149.304214,-1.016201 1.24517,8.017923 -0.73667,41.313932 -0.89681,59.396982 -0.1567,17.69506 -1.35025,52.20807 -4.07445,59.74364 -2.7242,7.53557 -5.98064,8.31207 -20.70359,8.31207 -51.45839,0 -103.12962,-0.18086 -154.547732,-0.18086 0,0 1.998631,-10.77695 3.622636,-25.46778 1.624005,-14.69084 2.780351,-45.36515 3.267145,-62.23599 0.486793,-16.87084 -0.118427,-38.979083 -0.118427,-38.979083 0,0 11.860817,0.427202 24.146991,0.427202 z"
         id="path8"
         sodipodi:nodetypes="sszszscczzscsscszsczzcss" /></g><g
       id="g36"
       style="display:none;opacity:1"
       inkscape:label="open"
       transform="matrix(1.0002491,0.01640645,-0.05846776,1.0339087,5.6628172,-10.034201)"><path
         style="baseline-shift:baseline;display:inline;overflow:visible;opacity:1;vector-effect:none;fill:url(#linearGradient37);stroke-linecap:round;stroke-linejoin:round;paint-order:stroke fill markers;enable-background:accumulate;stop-color:#000000;stop-opacity:1"
         d="m 65.385965,117.40699 178.474275,-1.61982 c 0,0 2.02094,62.82192 -6.64444,79.11995 -8.86649,16.67629 -16.39804,23.85385 -16.39804,23.85385 l -188.679043,2.49555 c 0,0 5.648126,-5.59656 14.720655,-22.91534 13.951879,-26.6331 18.526593,-80.93419 18.526593,-80.93419 z"
         id="path33"
         sodipodi:nodetypes="ccsccsc" /><path
         style="baseline-shift:baseline;display:inline;overflow:visible;opacity:1;vector-effect:none;fill:url(#linearGradient38);stroke-linecap:round;stroke-linejoin:round;paint-order:stroke fill markers;enable-background:accumulate;stop-color:#000000;stop-opacity:1"
         d="m 75.326556,123.85892 c -3.783485,0.0353 -7.200347,2.27089 -7.673373,5.02987 -4.391151,25.36537 -5.124647,35.24404 -8.613093,49.581 -1.959771,8.05435 -2.431654,9.09397 -2.74653,11.93599 -0.3161,2.85307 -15.21051,20.66546 -14.729039,26.05208 0.484935,5.4254 19.358982,1.57331 27.627532,1.37337 8.262059,-0.19978 141.103417,-3.10509 141.103417,-3.10509 20.19627,0.48859 14.96294,6.78282 25.94131,-13.92372 8.62834,-16.27407 11.55646,-67.94935 11.66027,-78.38387 0.0201,-2.71901 -9.8986,-4.30657 -13.62154,-4.27241 z m 14.208737,11.89034 144.009497,-2.20764 c 0.90067,20.85922 -3.19181,37.55712 -7.49403,46.4717 -4.30221,8.91458 -7.27852,20.2662 -15.13939,21.15195 -7.87421,0.88726 -137.107827,3.31584 -137.107827,3.31584 8.454225,-13.71964 16.121655,-41.53602 15.7318,-68.73185 z"
         id="path34"
         sodipodi:nodetypes="ccszzzcsccccczzccc" /><path
         id="path35"
         style="fill:url(#linearGradient36);stroke-width:14;stroke-linecap:round;stroke-linejoin:round;paint-order:stroke fill markers"
         d="m 73.327567,118.83785 172.036613,-0.40714 c 0,0 -2.48966,31.74094 -30.79399,43.47345 -28.82994,11.95038 -51.54075,7.24752 -94.13874,9.41551 -42.845471,2.18058 -51.535363,19.00884 -51.535363,19.00884 z"
         sodipodi:nodetypes="cczzcc" /><path
         style="baseline-shift:baseline;display:inline;overflow:visible;opacity:1;vector-effect:none;fill:#3666a6;stroke:none;stroke-linecap:round;stroke-linejoin:round;stroke-opacity:1;paint-order:stroke fill markers;enable-background:accumulate;stop-color:#000000;stop-opacity:1"
         d="m 81.849011,110.80891 c -17.449053,0.27695 -20.73295,7.23777 -20.458225,11.9377 0.274726,4.69992 0.406384,3.25083 -0.173317,12.64836 -1.072573,17.38748 -3.476389,33.84684 -7.901812,47.54948 -4.425423,13.70264 -13.282935,23.73208 -17.705275,27.28893 -4.422339,3.55684 -12.537275,4.61711 -17.660234,8.49466 -3.304531,2.5012 3.118715,11.71527 17.253617,11.28926 l 4.220887,0.0957 c 61.439308,-0.83775 176.035128,-3.65879 182.497838,-3.5934 6.46066,0.0653 22.69822,-16.48438 31.1978,-44.26324 8.49958,-27.77886 4.50994,-48.13178 3.23151,-69.38606 -0.009,-3.5065 -5.40022,-5.65098 -10.22249,-5.6085 0,0 -140.09804,3.44289 -164.280302,3.54704 0,0 34.891572,-0.66101 13.717253,-0.21765 z M 242.66117,121.2525 c 0,0 2.97087,24.4458 -0.93311,41.73673 -4.25398,18.84109 -6.76917,27.57858 -17.96622,44.18543 -3.46777,5.14321 -8.04226,5.31735 -11.73687,5.62664 -6.64995,0.55669 -117.966719,1.15391 -140.41633,1.78568 -11.224806,0.31588 -22.60528,0.27204 -22.60528,0.27204 0,0 11.546404,-9.06777 16.711091,-19.66081 5.164687,-10.59304 8.331391,-32.68861 10.331107,-44.81039 1.999716,-12.12179 1.122083,-26.49548 1.122083,-26.49548 55.890619,-0.90271 165.493529,-2.63984 165.493529,-2.63984 z"
         id="path36"
         sodipodi:nodetypes="szszzscczzcczzscszscszzcc" /></g></g><g
     id="g75"
     transform="matrix(1.3711862,0,0,1.3711862,-23.976262,-46.446596)"><path
       style="fill:#757575;fill-opacity:0.729965"
       d="m 143.9423,218.6755 c -19.50919,-2.20031 -36.07639,-13.97743 -43.06211,-30.61154 -2.27661,-5.42099 -3.494358,-11.74184 -3.045159,-15.80621 0.128489,-1.16257 0.20838,-2.14536 0.177537,-2.18397 -0.03084,-0.0386 -6.830896,5.48338 -15.111227,12.27109 -8.280331,6.7877 -15.531397,12.64498 -16.11348,13.01617 -0.582083,0.3712 -1.887092,0.964 -2.90002,1.31735 -1.584234,0.55264 -2.194512,0.62695 -4.365625,0.53155 -3.032831,-0.13326 -4.634887,-0.82681 -6.312607,-2.7328 -2.961584,-3.36453 -2.420044,-8.8626 1.270688,-12.90085 0.741096,-0.81087 13.242969,-10.55843 28.946724,-22.5694 l 27.642289,-21.14208 -16.452215,-0.13229 c -12.372359,-0.0995 -16.637546,-0.21457 -17.199774,-0.46408 -1.734633,-0.76982 -3.046886,-1.92797 -3.723919,-3.2866 -1.266733,-2.542 -0.737805,-5.09742 1.571322,-7.59155 0.771627,-0.83345 1.98688,-1.83317 2.700563,-2.22161 2.89126,-1.57362 1.588035,-1.51741 35.180303,-1.51741 16.9226,0 30.76102,-0.0893 30.75204,-0.19843 -0.009,-0.10915 -4.06988,-3.47266 -9.02423,-7.47448 -12.79989,-10.33903 -12.45491,-9.99173 -12.47705,-12.5609 -0.0439,-5.100069 7.62483,-8.424897 13.1508,-5.701604 0.59992,0.295652 2.51952,1.645427 4.26577,2.9995 1.74625,1.354074 12.46187,9.591314 23.8125,18.304924 11.35062,8.7136 21.76058,16.80203 23.13325,17.97428 7.7247,6.5969 13.22872,15.91114 15.36978,26.00971 0.71922,3.3923 0.98645,10.38093 0.53486,13.988 -2.20941,17.64775 -14.84609,32.83497 -32.8561,39.48766 -6.24485,2.30678 -11.27795,3.21931 -18.48492,3.35143 -2.83765,0.052 -6.15865,-0.0181 -7.37999,-0.15586 z m 14.65603,-23.6212 c 7.39842,-1.9024 13.33608,-5.61535 17.70948,-11.07413 2.02142,-2.52309 4.3726,-7.06095 5.15795,-9.955 2.59774,-9.57283 -0.1235,-19.42809 -7.3893,-26.76113 -4.37494,-4.41542 -10.09146,-7.46821 -16.66875,-8.90159 -3.18153,-0.69335 -10.84139,-0.69335 -14.02292,0 -10.23528,2.23057 -18.41692,8.39586 -22.51318,16.96486 -2.05558,4.30008 -2.47493,6.3002 -2.46851,11.77396 0.005,4.27457 0.0604,4.80873 0.72105,6.95433 1.50645,4.8924 3.83576,8.81959 7.3131,12.3298 5.00716,5.05449 10.88681,7.95271 19.06421,9.3972 0.3638,0.0643 2.86411,0.0798 5.55625,0.0344 4.22278,-0.0711 5.25804,-0.17581 7.54062,-0.76274 z"
       id="path78" /><ellipse
       style="fill:#ffffff;fill-opacity:1;stroke-width:3.6;stroke-linecap:round;stroke-linejoin:round;stroke-miterlimit:2.1"
       id="path77"
       cx="143.25647"
       cy="160.09444"
       rx="37.417732"
       ry="36.615925" /><path
       style="fill:#e97500"
       d="m 133.3589,207.03376 c -19.50919,-2.20031 -36.076371,-13.97743 -43.062056,-30.61154 -2.276604,-5.42099 -3.494352,-11.74184 -3.045153,-15.80621 0.128489,-1.16257 0.20838,-2.14536 0.177537,-2.18397 -0.03084,-0.0386 -6.830896,5.48338 -15.111227,12.27109 -8.280331,6.7877 -15.531397,12.64498 -16.11348,13.01617 -0.582083,0.3712 -1.887092,0.964 -2.90002,1.31735 -1.584234,0.55264 -2.194512,0.62695 -4.365625,0.53155 -3.032831,-0.13326 -4.634887,-0.82681 -6.312607,-2.7328 -2.961584,-3.36453 -2.420044,-8.8626 1.270688,-12.90085 0.741096,-0.81087 13.242969,-10.55843 28.946724,-22.5694 l 27.642229,-21.14208 -16.452155,-0.13229 c -12.372359,-0.0995 -16.637546,-0.21457 -17.199774,-0.46408 -1.734633,-0.76982 -3.046886,-1.92797 -3.723919,-3.2866 -1.266733,-2.542 -0.737805,-5.09742 1.571322,-7.59155 0.771627,-0.83345 1.98688,-1.83317 2.700563,-2.22161 2.89126,-1.57362 1.588035,-1.51741 35.180243,-1.51741 16.9226,0 30.76102,-0.0893 30.75204,-0.19843 -0.009,-0.10915 -4.06988,-3.47266 -9.02423,-7.47448 -12.79989,-10.33899 -12.45491,-9.991694 -12.47705,-12.560848 -0.0439,-5.100055 7.62483,-8.424883 13.1508,-5.70159 0.59992,0.295652 2.51952,1.645427 4.26577,2.9995 1.74625,1.354073 12.46187,9.591259 23.8125,18.304858 11.35062,8.7136 21.76058,16.80203 23.13325,17.97428 7.7247,6.5969 13.22872,15.91114 15.36978,26.00971 0.71922,3.3923 0.98645,10.38093 0.53486,13.988 -2.20941,17.64775 -14.84609,32.83497 -32.8561,39.48766 -6.24485,2.30678 -11.27795,3.21931 -18.48492,3.35143 -2.83765,0.052 -6.15865,-0.0181 -7.37999,-0.15586 z m 14.65603,-23.6212 c 7.39842,-1.9024 13.33608,-5.61535 17.70948,-11.07413 2.02142,-2.52309 4.3726,-7.06095 5.15795,-9.955 2.59774,-9.57283 -0.1235,-19.42809 -7.3893,-26.76113 -4.37494,-4.41542 -10.09146,-7.46821 -16.66875,-8.90159 -3.18153,-0.69335 -10.84139,-0.69335 -14.02292,0 -10.23528,2.23057 -18.41692,8.39586 -22.51318,16.96486 -2.05558,4.30008 -2.47493,6.3002 -2.46851,11.77396 0.005,4.27457 0.0604,4.80873 0.72105,6.95433 1.50645,4.8924 3.83576,8.81959 7.3131,12.3298 5.00716,5.05449 10.88681,7.95271 19.06421,9.3972 0.3638,0.0643 2.86411,0.0798 5.55625,0.0344 4.22278,-0.0711 5.25804,-0.17581 7.54062,-0.76274 z"
       id="path76" /><path
       style="fill:#255686"
       d="m 135.18264,171.99789 c -9.76053,-2.18687 -16.26695,-10.0311 -15.80265,-19.0519 0.42622,-8.28125 6.63875,-15.09196 15.70914,-17.22173 2.62774,-0.61701 8.52224,-0.39654 11.07372,0.41419 7.26233,2.30758 12.50057,7.80922 13.77443,14.46706 0.48987,2.56034 0.48053,4.12784 -0.0396,6.65111 -1.39056,6.74557 -7.05392,12.49424 -14.26398,14.47884 -2.23605,0.61548 -8.20618,0.76539 -10.45104,0.26243 z"
       id="path75" /><path
       style="fill:url(#linearGradient40);fill-opacity:1"
       d="M 74.714568,147.63242 103.96041,125.15399 87.508259,125.0217 c -12.372359,-0.0995 -16.637546,-0.21457 -17.199774,-0.46408 -1.734633,-0.76982 -3.046886,-1.92797 -3.723919,-3.2866 -1.266733,-2.542 -1.539614,-1.89018 0.769513,-4.38431 0.771627,-0.83345 0.650533,-2.36771 1.364216,-2.75615 2.89126,-1.57362 1.588035,-1.51741 35.180245,-1.51741 16.9226,0 29.42467,-1.69292 29.41569,-1.80205 -0.009,-0.10915 -0.32811,-2.93812 -5.28246,-6.93994 -12.79989,-10.338991 -12.45491,-9.991695 -12.47705,-12.560849 -0.0439,-5.100055 3.88306,-6.553996 9.40903,-3.830703 0.59992,0.295652 2.51952,1.645427 4.26577,2.9995 1.74625,1.354073 11.39279,8.522181 22.74342,17.235782 11.35062,8.7136 21.76058,16.80203 23.13325,17.97428 7.7247,6.5969 11.09057,13.77298 13.23163,23.87155 -27.27273,-30.1315 -96.408026,26.40789 -113.623252,-1.9283 z"
       id="path79"
       sodipodi:nodetypes="ccsssssssscsssccc" /></g></svg>
