<?xml version="1.0" encoding="UTF-8" standalone="no"?>
<!-- Created with Inkscape (http://www.inkscape.org/) -->

<svg
   width="256mm"
   height="256mm"
   viewBox="0 0 256 256"
   version="1.1"
   id="svg1"
   inkscape:version="1.4.2 (ebf0e940d0, 2025-05-08)"
   sodipodi:docname="folder-satellite-symbolic.svg"
   xml:space="preserve"
   xmlns:inkscape="http://www.inkscape.org/namespaces/inkscape"
   xmlns:sodipodi="http://sodipodi.sourceforge.net/DTD/sodipodi-0.dtd"
   xmlns:xlink="http://www.w3.org/1999/xlink"
   xmlns="http://www.w3.org/2000/svg"
   xmlns:svg="http://www.w3.org/2000/svg"
   xmlns:rdf="http://www.w3.org/1999/02/22-rdf-syntax-ns#"
   xmlns:cc="http://creativecommons.org/ns#"
   xmlns:dc="http://purl.org/dc/elements/1.1/"><title
     id="title1">Folder Symbolic Open/Close</title><defs
     id="defs1"><linearGradient
       id="linearGradient4"
       inkscape:collect="always"><stop
         style="stop-color:#888a85;stop-opacity:1;"
         offset="0"
         id="stop27" /><stop
         style="stop-color:#262625;stop-opacity:1;"
         offset="1"
         id="stop28" /></linearGradient><linearGradient
       id="linearGradient3"
       inkscape:collect="always"><stop
         style="stop-color:#babdb6;stop-opacity:1;"
         offset="0"
         id="stop5" /><stop
         style="stop-color:#202020;stop-opacity:1;"
         offset="1"
         id="stop6" /></linearGradient><linearGradient
       id="linearGradient1"
       inkscape:collect="always"><stop
         style="stop-color:#7a7a7a;stop-opacity:1;"
         offset="0"
         id="stop1" /><stop
         style="stop-color:#707070;stop-opacity:1;"
         offset="0.38631266"
         id="stop3" /><stop
         style="stop-color:#595959;stop-opacity:1;"
         offset="0.65277058"
         id="stop4" /><stop
         style="stop-color:#4b4b4b;stop-opacity:1;"
         offset="1"
         id="stop2" /></linearGradient><linearGradient
       id="linearGradient32"
       inkscape:collect="always"><stop
         style="stop-color:#f4f4f4;stop-opacity:0.42167604;"
         offset="0"
         id="stop32" /><stop
         style="stop-color:#f4f4f4;stop-opacity:0;"
         offset="1"
         id="stop33" /></linearGradient><linearGradient
       id="linearGradient20"
       inkscape:collect="always"><stop
         style="stop-color:#f3f7fb;stop-opacity:1;"
         offset="0"
         id="stop21" /><stop
         style="stop-color:#f3f7fb;stop-opacity:0;"
         offset="1"
         id="stop22" /></linearGradient><linearGradient
       id="linearGradient15"
       inkscape:collect="always"><stop
         style="stop-color:#719ecf;stop-opacity:1;"
         offset="0"
         id="stop16" /><stop
         style="stop-color:#8aafd7;stop-opacity:1;"
         offset="0.25390714"
         id="stop18" /><stop
         style="stop-color:#719ecf;stop-opacity:1;"
         offset="0.4463878"
         id="stop19" /><stop
         style="stop-color:#4f87c3;stop-opacity:1;"
         offset="0.7372098"
         id="stop20" /><stop
         style="stop-color:#2c5681;stop-opacity:1;"
         offset="1"
         id="stop17" /></linearGradient><linearGradient
       id="linearGradient11"
       inkscape:collect="always"><stop
         style="stop-color:#dce6f3;stop-opacity:1;"
         offset="0"
         id="stop11" /><stop
         style="stop-color:#bdd0ea;stop-opacity:1;"
         offset="0.21857853"
         id="stop13" /><stop
         style="stop-color:#9bb8de;stop-opacity:1;"
         offset="0.51587749"
         id="stop14" /><stop
         style="stop-color:#77a0d1;stop-opacity:1;"
         offset="0.8174454"
         id="stop15" /><stop
         style="stop-color:#9ebbe0;stop-opacity:1;"
         offset="1"
         id="stop12" /></linearGradient><linearGradient
       inkscape:collect="always"
       xlink:href="#linearGradient11"
       id="linearGradient12"
       x1="123.00126"
       y1="92.722893"
       x2="148.01651"
       y2="200.25244"
       gradientUnits="userSpaceOnUse" /><linearGradient
       inkscape:collect="always"
       xlink:href="#linearGradient15"
       id="linearGradient17"
       x1="119.17952"
       y1="81.366829"
       x2="129.61365"
       y2="228.20688"
       gradientUnits="userSpaceOnUse" /><linearGradient
       inkscape:collect="always"
       xlink:href="#linearGradient32"
       id="linearGradient33"
       x1="138.21974"
       y1="89.349197"
       x2="152.51729"
       y2="168.33191"
       gradientUnits="userSpaceOnUse" /><linearGradient
       inkscape:collect="always"
       xlink:href="#linearGradient32"
       id="linearGradient36"
       gradientUnits="userSpaceOnUse"
       x1="138.21974"
       y1="89.349197"
       x2="144.36659"
       y2="191.34566" /><linearGradient
       inkscape:collect="always"
       xlink:href="#linearGradient15"
       id="linearGradient37"
       gradientUnits="userSpaceOnUse"
       x1="119.17952"
       y1="81.366829"
       x2="125.66673"
       y2="211.10358" /><linearGradient
       inkscape:collect="always"
       xlink:href="#linearGradient11"
       id="linearGradient38"
       gradientUnits="userSpaceOnUse"
       x1="123.00126"
       y1="92.722893"
       x2="148.01651"
       y2="200.25244" /><linearGradient
       inkscape:collect="always"
       xlink:href="#linearGradient1"
       id="linearGradient2"
       x1="49.730732"
       y1="20.606987"
       x2="84.292465"
       y2="218.6758"
       gradientUnits="userSpaceOnUse" /><radialGradient
       inkscape:collect="always"
       xlink:href="#linearGradient20"
       id="radialGradient1"
       cx="58.297417"
       cy="74.405579"
       fx="58.297417"
       fy="74.405579"
       r="86.628471"
       gradientTransform="matrix(1.6487439,0,0,1.7618185,-37.820092,-59.834146)"
       gradientUnits="userSpaceOnUse" /><linearGradient
       inkscape:collect="always"
       xlink:href="#linearGradient3"
       id="linearGradient6"
       x1="53.15662"
       y1="40.153225"
       x2="69.586563"
       y2="199.66118"
       gradientUnits="userSpaceOnUse" /><linearGradient
       inkscape:collect="always"
       xlink:href="#linearGradient4"
       id="linearGradient28"
       x1="84.947708"
       y1="42.598267"
       x2="134.37337"
       y2="183.92395"
       gradientUnits="userSpaceOnUse" /><linearGradient
       inkscape:collect="always"
       xlink:href="#linearGradient114"
       id="linearGradient121"
       x1="170.51614"
       y1="223.29697"
       x2="172.75783"
       y2="239.6004"
       gradientUnits="userSpaceOnUse" /><linearGradient
       id="linearGradient114"
       inkscape:collect="always"><stop
         style="stop-color:#d4d8da;stop-opacity:1;"
         offset="0"
         id="stop120" /><stop
         style="stop-color:#d1d3d4;stop-opacity:1;"
         offset="0.3968277"
         id="stop123" /><stop
         style="stop-color:#acaeae;stop-opacity:1;"
         offset="0.5739466"
         id="stop125" /><stop
         style="stop-color:#7f8181;stop-opacity:1;"
         offset="0.78429675"
         id="stop126" /><stop
         style="stop-color:#848484;stop-opacity:1;"
         offset="1"
         id="stop121" /></linearGradient><radialGradient
       inkscape:collect="always"
       xlink:href="#linearGradient109"
       id="radialGradient114"
       cx="153.66995"
       cy="233.6917"
       fx="153.66995"
       fy="233.6917"
       r="38.191525"
       gradientTransform="matrix(2.1761814,-0.10191843,0.08038566,1.7164082,-204.81469,-160.73342)"
       gradientUnits="userSpaceOnUse" /><linearGradient
       id="linearGradient109"
       inkscape:collect="always"><stop
         style="stop-color:#ffffff;stop-opacity:1;"
         offset="0"
         id="stop110" /><stop
         style="stop-color:#ffffff;stop-opacity:1;"
         offset="0.5"
         id="stop112" /><stop
         style="stop-color:#b9b9b9;stop-opacity:1;"
         offset="0.63742322"
         id="stop113" /><stop
         style="stop-color:#969696;stop-opacity:1;"
         offset="0.875"
         id="stop114" /><stop
         style="stop-color:#6c6c6c;stop-opacity:1;"
         offset="1"
         id="stop111" /></linearGradient><linearGradient
       inkscape:collect="always"
       xlink:href="#linearGradient103"
       id="linearGradient106"
       x1="175.06334"
       y1="191.62769"
       x2="200.45033"
       y2="191.62769"
       gradientUnits="userSpaceOnUse" /><linearGradient
       id="linearGradient103"
       inkscape:collect="always"><stop
         style="stop-color:#ffffff;stop-opacity:1;"
         offset="0"
         id="stop104" /><stop
         style="stop-color:#ffffff;stop-opacity:1;"
         offset="0.5"
         id="stop107" /><stop
         style="stop-color:#bdbdbd;stop-opacity:1;"
         offset="0.59553105"
         id="stop108" /><stop
         style="stop-color:#8f8f8f;stop-opacity:1;"
         offset="0.79683495"
         id="stop109" /><stop
         style="stop-color:#616161;stop-opacity:1;"
         offset="1"
         id="stop106" /></linearGradient><linearGradient
       inkscape:collect="always"
       xlink:href="#linearGradient100"
       id="linearGradient102"
       x1="175.14792"
       y1="178.21577"
       x2="200.37143"
       y2="178.21577"
       gradientUnits="userSpaceOnUse" /><linearGradient
       id="linearGradient100"
       inkscape:collect="always"><stop
         style="stop-color:#d4d8da;stop-opacity:1;"
         offset="0"
         id="stop101" /><stop
         style="stop-color:#595959;stop-opacity:1;"
         offset="1"
         id="stop102" /></linearGradient><linearGradient
       inkscape:collect="always"
       xlink:href="#linearGradient80"
       id="linearGradient96"
       x1="178.80511"
       y1="172.52249"
       x2="194.16949"
       y2="172.52249"
       gradientUnits="userSpaceOnUse" /><linearGradient
       id="linearGradient80"
       inkscape:collect="always"><stop
         style="stop-color:#f7f8f8;stop-opacity:1;"
         offset="0"
         id="stop81" /><stop
         style="stop-color:#ffffff;stop-opacity:1;"
         offset="0.39237145"
         id="stop99" /><stop
         style="stop-color:#808080;stop-opacity:1;"
         offset="0.75"
         id="stop100" /><stop
         style="stop-color:#535353;stop-opacity:1;"
         offset="1"
         id="stop96" /></linearGradient><linearGradient
       inkscape:collect="always"
       xlink:href="#linearGradient30"
       id="linearGradient32-9"
       x1="239.66895"
       y1="-54.079819"
       x2="240.55296"
       y2="-61.181499"
       gradientUnits="userSpaceOnUse" /><linearGradient
       id="linearGradient30"
       inkscape:collect="always"><stop
         style="stop-color:#ffffff;stop-opacity:1;"
         offset="0"
         id="stop31-3" /><stop
         style="stop-color:#666666;stop-opacity:1;"
         offset="1"
         id="stop32-6" /></linearGradient><radialGradient
       inkscape:collect="always"
       xlink:href="#linearGradient33-0"
       id="radialGradient34"
       cx="186.4873"
       cy="168.04572"
       fx="186.4873"
       fy="168.04572"
       r="7.5485554"
       gradientUnits="userSpaceOnUse" /><linearGradient
       id="linearGradient33-0"
       inkscape:collect="always"><stop
         style="stop-color:#ffffff;stop-opacity:1;"
         offset="0"
         id="stop33-6" /><stop
         style="stop-color:#fefefe;stop-opacity:1;"
         offset="0.43740916"
         id="stop57" /><stop
         style="stop-color:#4a4a4a;stop-opacity:1;"
         offset="0.49963665"
         id="stop58" /><stop
         style="stop-color:#fdfdfd;stop-opacity:1;"
         offset="0.54952765"
         id="stop74" /><stop
         style="stop-color:#979797;stop-opacity:1;"
         offset="0.76224566"
         id="stop80" /><stop
         style="stop-color:#fdfdfd;stop-opacity:1;"
         offset="1"
         id="stop34" /></linearGradient><radialGradient
       inkscape:collect="always"
       xlink:href="#linearGradient93"
       id="radialGradient2"
       cx="61.600838"
       cy="226.71872"
       fx="61.600838"
       fy="226.71872"
       r="17.14747"
       gradientTransform="matrix(1.8202178,-0.21654433,0.09274442,0.77958655,-71.755966,63.670506)"
       gradientUnits="userSpaceOnUse" /><linearGradient
       id="linearGradient93"
       inkscape:collect="always"><stop
         style="stop-color:#000000;stop-opacity:1;"
         offset="0"
         id="stop94" /><stop
         style="stop-color:#7d858b;stop-opacity:1;"
         offset="0.46738154"
         id="stop28-2" /><stop
         style="stop-color:#d0d3d5;stop-opacity:1;"
         offset="0.65862715"
         id="stop29-6" /><stop
         style="stop-color:#e4e6e7;stop-opacity:1;"
         offset="0.74277949"
         id="stop30-1" /><stop
         style="stop-color:#f8f9f9;stop-opacity:1"
         offset="1"
         id="stop95" /></linearGradient><linearGradient
       inkscape:collect="always"
       xlink:href="#linearGradient128"
       id="linearGradient134"
       x1="213.70151"
       y1="23.430801"
       x2="107.7863"
       y2="242.20232"
       gradientUnits="userSpaceOnUse" /><linearGradient
       id="linearGradient128"
       inkscape:collect="always"><stop
         style="stop-color:#f3f3f4;stop-opacity:1;"
         offset="0"
         id="stop128" /><stop
         style="stop-color:#f3f3f4;stop-opacity:1;"
         offset="0.35464844"
         id="stop130" /><stop
         style="stop-color:#74747e;stop-opacity:1;"
         offset="0.75"
         id="stop131" /><stop
         style="stop-color:#39393e;stop-opacity:1;"
         offset="1"
         id="stop129" /></linearGradient><linearGradient
       inkscape:collect="always"
       xlink:href="#linearGradient1-8"
       id="linearGradient127"
       x1="153.40321"
       y1="112.2445"
       x2="201.7688"
       y2="161.38545"
       gradientUnits="userSpaceOnUse" /><linearGradient
       id="linearGradient1-8"
       inkscape:collect="always"><stop
         style="stop-color:#ababab;stop-opacity:1;"
         offset="0"
         id="stop1-7" /><stop
         style="stop-color:#b2b2b2;stop-opacity:1;"
         offset="0.32586661"
         id="stop133" /><stop
         style="stop-color:#4e4e4e;stop-opacity:1;"
         offset="0.62084776"
         id="stop134" /><stop
         style="stop-color:#1e1e1e;stop-opacity:1;"
         offset="1"
         id="stop127" /></linearGradient><linearGradient
       inkscape:collect="always"
       xlink:href="#linearGradient35"
       id="linearGradient36-9"
       x1="-100.91963"
       y1="151.94643"
       x2="-99.785706"
       y2="43.278267"
       gradientUnits="userSpaceOnUse"
       gradientTransform="translate(294.75519,-130.39752)" /><linearGradient
       id="linearGradient35"
       inkscape:collect="always"><stop
         style="stop-color:#dddddf;stop-opacity:1;"
         offset="0"
         id="stop35" /><stop
         style="stop-color:#c1c1c7;stop-opacity:1;"
         offset="1"
         id="stop36" /></linearGradient><linearGradient
       inkscape:collect="always"
       xlink:href="#linearGradient37-0"
       id="linearGradient38-2"
       x1="-95.94976"
       y1="60.00201"
       x2="-96.217026"
       y2="127.6212"
       gradientUnits="userSpaceOnUse"
       gradientTransform="translate(295.01181,-138.28814)" /><linearGradient
       id="linearGradient37-0"
       inkscape:collect="always"><stop
         style="stop-color:#9999a1;stop-opacity:1;"
         offset="0"
         id="stop37" /><stop
         style="stop-color:#c6c6ca;stop-opacity:0.49803922;"
         offset="0.66246283"
         id="stop39" /><stop
         style="stop-color:#f3f3f4;stop-opacity:0;"
         offset="1"
         id="stop38" /></linearGradient><linearGradient
       inkscape:collect="always"
       xlink:href="#linearGradient39"
       id="linearGradient48"
       x1="202.7469"
       y1="-34.26453"
       x2="206.10323"
       y2="-25.421913"
       gradientUnits="userSpaceOnUse"
       gradientTransform="translate(-6.0577464,1.2111109)" /><linearGradient
       id="linearGradient39"
       inkscape:collect="always"><stop
         style="stop-color:#f3f3f4;stop-opacity:1;"
         offset="0"
         id="stop40" /><stop
         style="stop-color:#d8d8dd;stop-opacity:1;"
         offset="0.35143781"
         id="stop49" /><stop
         style="stop-color:#cacad2;stop-opacity:1;"
         offset="0.56759733"
         id="stop50" /><stop
         style="stop-color:#9090a1;stop-opacity:1;"
         offset="1"
         id="stop48" /></linearGradient><linearGradient
       inkscape:collect="always"
       xlink:href="#linearGradient59"
       id="linearGradient60"
       x1="112.54338"
       y1="124.60819"
       x2="134.53679"
       y2="117.39191"
       gradientUnits="userSpaceOnUse" /><linearGradient
       id="linearGradient59"
       inkscape:collect="always"><stop
         style="stop-color:#f3f3f4;stop-opacity:1;"
         offset="0"
         id="stop59" /><stop
         style="stop-color:#f3f3f4;stop-opacity:1;"
         offset="0.5"
         id="stop62" /><stop
         style="stop-color:#909099;stop-opacity:1;"
         offset="0.56316501"
         id="stop63" /><stop
         style="stop-color:#595968;stop-opacity:1;"
         offset="0.63899595"
         id="stop64" /><stop
         style="stop-color:#f3f3f4;stop-opacity:1;"
         offset="0.76403224"
         id="stop66" /><stop
         style="stop-color:#f3f3f4;stop-opacity:1;"
         offset="1"
         id="stop60" /></linearGradient><linearGradient
       inkscape:collect="always"
       xlink:href="#linearGradient66"
       id="linearGradient70"
       x1="119.73673"
       y1="112.93454"
       x2="145.12733"
       y2="96.363831"
       gradientUnits="userSpaceOnUse" /><linearGradient
       id="linearGradient66"
       inkscape:collect="always"><stop
         style="stop-color:#9a9aa2;stop-opacity:1;"
         offset="0"
         id="stop68" /><stop
         style="stop-color:#9a9aa2;stop-opacity:1;"
         offset="0.40786538"
         id="stop71" /><stop
         style="stop-color:#53535a;stop-opacity:1;"
         offset="0.46913314"
         id="stop72" /><stop
         style="stop-color:#53535a;stop-opacity:1;"
         offset="0.5334692"
         id="stop73" /><stop
         style="stop-color:#9a9aa2;stop-opacity:1;"
         offset="1"
         id="stop70" /></linearGradient><linearGradient
       inkscape:collect="always"
       xlink:href="#linearGradient75"
       id="linearGradient76"
       x1="145.23833"
       y1="105.74329"
       x2="150.22704"
       y2="75.396118"
       gradientUnits="userSpaceOnUse" /><linearGradient
       id="linearGradient75"
       inkscape:collect="always"><stop
         style="stop-color:#f3f3f4;stop-opacity:1;"
         offset="0"
         id="stop75" /><stop
         style="stop-color:#f3f3f4;stop-opacity:1;"
         offset="0.5"
         id="stop77" /><stop
         style="stop-color:#6b6b75;stop-opacity:1;"
         offset="0.55433846"
         id="stop78" /><stop
         style="stop-color:#3d3d43;stop-opacity:1;"
         offset="0.61177379"
         id="stop79" /><stop
         style="stop-color:#f3f3f4;stop-opacity:1;"
         offset="1"
         id="stop76" /></linearGradient><radialGradient
       inkscape:collect="always"
       xlink:href="#linearGradient82"
       id="radialGradient83"
       cx="117.61149"
       cy="-24.508476"
       fx="117.61149"
       fy="-24.508476"
       r="16.18601"
       gradientTransform="matrix(2.5893726,-0.13762743,0.11482562,2.1603715,-184.15205,45.618776)"
       gradientUnits="userSpaceOnUse" /><linearGradient
       id="linearGradient82"
       inkscape:collect="always"><stop
         style="stop-color:#f5f5f5;stop-opacity:1;"
         offset="0"
         id="stop82" /><stop
         style="stop-color:#ffffff;stop-opacity:1;"
         offset="0.1599247"
         id="stop92" /><stop
         style="stop-color:#f2f2f2;stop-opacity:1;"
         offset="0.29738134"
         id="stop89" /><stop
         style="stop-color:#bdbdbd;stop-opacity:1;"
         offset="0.50982821"
         id="stop93" /><stop
         style="stop-color:#e8e8e8;stop-opacity:1;"
         offset="0.62448084"
         id="stop91" /><stop
         style="stop-color:#4b4b4b;stop-opacity:1;"
         offset="1"
         id="stop83" /></linearGradient></defs><sodipodi:namedview
     id="base"
     pagecolor="#ffffff"
     bordercolor="#000000"
     borderopacity="0.3"
     inkscape:pageopacity="0.0"
     inkscape:pageshadow="2"
     inkscape:zoom="0.64027637"
     inkscape:cx="457.61489"
     inkscape:cy="617.70201"
     inkscape:document-units="mm"
     inkscape:showpageshadow="2"
     inkscape:pagecheckerboard="0"
     inkscape:deskcolor="#d1d1d1"
     inkscape:current-layer="svg1"
     showguides="true" /><metadata
     id="metadata1"><rdf:RDF><cc:Work
         rdf:about=""><dc:format>image/svg+xml</dc:format><dc:type
           rdf:resource="http://purl.org/dc/dcmitype/StillImage" /><cc:license
           rdf:resource="http://creativecommons.org/publicdomain/zero/1.0/" /><dc:description>202507 - Folder symbolic open/close rebuild in SVG
https://commons.wikimedia.org/wiki/File:Tango_-_folder-open_22px.png
https://commons.wikimedia.org/wiki/File:Tango_-_folder_22px.png
https://web.archive.org/web/20080906080620/http://tango.freedesktop.org/Tango_Icon_Theme_Guidelines</dc:description><dc:contributor><cc:Agent><dc:title>Blackcrack</dc:title></cc:Agent></dc:contributor><dc:title>Folder Symbolic Open/Close</dc:title><dc:date>202507</dc:date><dc:creator><cc:Agent><dc:title>blackcrack</dc:title></cc:Agent></dc:creator><dc:publisher><cc:Agent><dc:title>blackcrack</dc:title></cc:Agent></dc:publisher><dc:source>https://commons.wikimedia.org/wiki/File:Tango_-_folder_22px.png</dc:source><dc:subject><rdf:Bag><rdf:li>Tango folder open close symbolic</rdf:li></rdf:Bag></dc:subject></cc:Work><cc:License
         rdf:about="http://creativecommons.org/publicdomain/zero/1.0/"><cc:permits
           rdf:resource="http://creativecommons.org/ns#Reproduction" /><cc:permits
           rdf:resource="http://creativecommons.org/ns#Distribution" /><cc:permits
           rdf:resource="http://creativecommons.org/ns#DerivativeWorks" /></cc:License></rdf:RDF></metadata><g
     id="g38"
     style="display:inline"><g
       id="g20"
       style="display:inline"
       inkscape:label="back"><path
         style="baseline-shift:baseline;display:inline;overflow:visible;opacity:1;vector-effect:none;fill:url(#linearGradient6);stroke-linecap:round;stroke-linejoin:round;paint-order:stroke fill markers;enable-background:accumulate;stop-color:#000000;stop-opacity:1"
         d="m 16.792115,27.533384 89.486765,0 12.66536,30.107111 80.39749,0.275334 -0.55067,156.844591 H 22.577377 Z"
         id="path24"
         sodipodi:nodetypes="ccccccc" /><g
         id="g6"
         style="fill:url(#linearGradient28);fill-opacity:1"
         transform="translate(1.6529321)"><rect
           style="fill:url(#linearGradient28);fill-opacity:1;fill-rule:evenodd;stroke-width:10;stroke-linecap:square;paint-order:stroke fill markers"
           id="rect1"
           width="95.257156"
           height="12.856794"
           x="23.37599"
           y="47.920776" /><rect
           style="fill:url(#linearGradient28);fill-opacity:1;fill-rule:evenodd;stroke-width:10;stroke-linecap:square;paint-order:stroke fill markers"
           id="rect2"
           width="172.98233"
           height="12.856796"
           x="23.37599"
           y="71.881165" /><rect
           style="fill:url(#linearGradient28);fill-opacity:1;fill-rule:evenodd;stroke-width:10;stroke-linecap:square;paint-order:stroke fill markers"
           id="rect3"
           width="172.98233"
           height="12.856796"
           x="23.37599"
           y="97.594749" /><rect
           style="fill:url(#linearGradient28);fill-opacity:1;fill-rule:evenodd;stroke-width:10;stroke-linecap:square;paint-order:stroke fill markers"
           id="rect4"
           width="172.98233"
           height="12.856796"
           x="23.37599"
           y="123.89274" /><rect
           style="fill:url(#linearGradient28);fill-opacity:1;fill-rule:evenodd;stroke-width:10;stroke-linecap:square;paint-order:stroke fill markers"
           id="rect5"
           width="172.98233"
           height="12.856796"
           x="23.37599"
           y="150.77512" /><rect
           style="fill:url(#linearGradient28);fill-opacity:1;fill-rule:evenodd;stroke-width:10;stroke-linecap:square;paint-order:stroke fill markers"
           id="rect6"
           width="172.98233"
           height="12.856796"
           x="23.37599"
           y="176.48871" /></g><path
         id="rect20"
         style="display:inline;fill:url(#radialGradient1);stroke-width:14;stroke-linecap:round;stroke-linejoin:round;paint-order:stroke fill markers"
         d="m 16.142053,27.774909 87.404017,0 13.32652,27.322993 78.31167,0.877092 v 12.502363 h -80.07991 l -24.287085,-25.499825 -59.764638,0 5.127442,169.607768 -14.252754,0.32891 z"
         sodipodi:nodetypes="ccccccccccc" /><path
         style="baseline-shift:baseline;display:inline;overflow:visible;opacity:1;vector-effect:none;fill:url(#linearGradient2);fill-opacity:1;stroke-linecap:round;stroke-linejoin:round;paint-order:stroke fill markers;enable-background:accumulate;stop-color:#000000;stop-opacity:1"
         d="m 16.792863,19.024807 c -7.2809322,4e-4 -9.6767952,1.227464 -9.6771952,8.508396 L 12.90093,214.75977 c 4.02e-4,7.28093 2.396264,8.50799 9.677195,8.50839 H 198.79102 c 7.26342,-3.6e-4 7.89884,-1.20009 7.92399,-8.46347 l 0.55078,-156.845043 c 0.0234,-7.280189 -0.59889,-8.526196 -7.87907,-8.551365 L 126.29631,49.160236 105.65519,25.991604 c -3.23513,-3.631269 -7.10742,-6.966797 -11.625002,-6.966797 z m 4.61014,13.798157 71.133859,0 c 6.457111,7.218992 21.262858,20.332689 26.405268,27.775824 l 74.18984,0.230469 -0.46289,146.449963 H 27.865933 Z"
         id="path23"
         sodipodi:nodetypes="cccccccccsscccccccc" /></g><g
       id="rect8"
       style="display:inline;opacity:1"
       inkscape:label="close"><path
         style="baseline-shift:baseline;display:inline;overflow:visible;opacity:1;vector-effect:none;fill:url(#linearGradient17);stroke-linecap:round;stroke-linejoin:round;paint-order:stroke fill markers;enable-background:accumulate;stop-color:#000000;stop-opacity:1"
         d="M 45.949906,84.177349 H 228.45033 c 0,0 3.59389,85.323731 -4.48161,106.128751 -8.0755,20.80503 -15.05417,29.55296 -15.05417,29.55296 H 29.623165 c 0,0 3.607513,-7.34582 10.494315,-28.16958 6.886802,-20.82376 5.832426,-107.512131 5.832426,-107.512131 z"
         id="path11"
         sodipodi:nodetypes="ccsccsc" /><path
         style="baseline-shift:baseline;display:inline;overflow:visible;opacity:1;vector-effect:none;fill:url(#linearGradient12);stroke-linecap:round;stroke-linejoin:round;paint-order:stroke fill markers;enable-background:accumulate;stop-color:#000000;stop-opacity:1"
         d="m 57.018334,82.4929 c -3.825772,-4.2e-5 -9.735509,13.93263 -9.792461,17.75798 -0.555168,34.47665 0.194869,47.58898 -1.096149,66.26718 -0.71413,10.3319 -1.017665,11.65384 -0.903098,15.27287 0.114567,3.61904 0.390989,22.78313 1.638145,29.45541 1.247154,6.67228 12.173526,6.44685 19.994403,6.33456 7.820878,-0.11228 137.721976,6.34778 137.721976,6.34778 19.41496,0.9302 20.2335,-8.92464 22.2532,-14.65195 1.82319,-5.17007 8.59397,-101.26118 8.40442,-115.804191 -0.057,-3.82535 -3.45631,-11.508767 -7.28208,-11.508725 z M 67.355575,97.836951 216.03865,97.474155 c 0.75055,19.622145 -1.1089,69.653235 -2.1153,85.148415 -1.00646,15.49518 -7.77315,15.25548 -15.33842,16.24321 -7.56526,0.98774 -136.939842,0.71776 -136.939842,0.71776 4.536268,-36.26855 4.817316,-66.37185 3.440951,-96.74066 -0.128382,-2.8327 2.269536,-5.005929 2.269536,-5.005929 z"
         id="path10"
         sodipodi:nodetypes="ccszzzcsccccczzcsc" /><path
         id="rect32"
         style="fill:url(#linearGradient33);stroke-width:14;stroke-linecap:round;stroke-linejoin:round;paint-order:stroke fill markers"
         d="m 54.629707,92.1465 160.598173,1.316379 c 0,0 -1.6758,36.635821 -22.22646,46.541481 -20.55067,9.90566 -31.62979,11.41481 -73.57855,13.67001 -41.948756,2.25519 -64.793163,38.28846 -64.793163,38.28846 z"
         sodipodi:nodetypes="cczzcc" /><path
         style="baseline-shift:baseline;display:inline;overflow:visible;opacity:1;vector-effect:none;fill:#3666a6;stroke:none;stroke-linecap:round;stroke-linejoin:round;stroke-opacity:1;paint-order:stroke fill markers;enable-background:accumulate;stop-color:#000000;stop-opacity:1"
         d="m 55.126031,75.044922 c -12.367332,-0.07765 -14.909778,5.971171 -14.909778,13.250479 0,12.757309 0.33695,14.960119 -0.148027,35.378999 -0.484977,20.41888 -0.299705,44.78837 -3.000444,74.55242 -0.919094,10.12906 2.85487,5.08223 -7.706188,15.01611 -10.561058,9.93388 -11.079851,0.51211 -15.275107,5.17087 -2.694002,2.99164 6.823467,10.75206 15.540144,10.50619 l -0.0039,0.0723 c 57.789333,-0.008 173.159919,-0.364 179.321119,-0.17793 6.1612,0.18604 30.22082,1.77093 31.40355,-29.10956 1.18274,-30.8805 2.87439,-72.6766 2.87439,-110.083125 0,-8.311539 -4.55453,-14.576642 -9.54604,-14.576693 0,0 -153.815054,0.155241 -178.549719,-6e-5 z m 25.425085,12.195967 c 24.572354,0 149.304214,-1.016201 149.304214,-1.016201 1.24517,8.017923 -0.73667,41.313932 -0.89681,59.396982 -0.1567,17.69506 -1.35025,52.20807 -4.07445,59.74364 -2.7242,7.53557 -5.98064,8.31207 -20.70359,8.31207 -51.45839,0 -103.12962,-0.18086 -154.547732,-0.18086 0,0 1.998631,-10.77695 3.622636,-25.46778 1.624005,-14.69084 2.780351,-45.36515 3.267145,-62.23599 0.486793,-16.87084 -0.118427,-38.979083 -0.118427,-38.979083 0,0 11.860817,0.427202 24.146991,0.427202 z"
         id="path8"
         sodipodi:nodetypes="sszszscczzscsscszsczzcss" /></g><g
       id="g36"
       style="display:none;opacity:1"
       inkscape:label="open"
       transform="matrix(1.0002491,0.01640645,-0.05846776,1.0339087,5.6628172,-10.034201)"><path
         style="baseline-shift:baseline;display:inline;overflow:visible;opacity:1;vector-effect:none;fill:url(#linearGradient37);stroke-linecap:round;stroke-linejoin:round;paint-order:stroke fill markers;enable-background:accumulate;stop-color:#000000;stop-opacity:1"
         d="m 65.385965,117.40699 178.474275,-1.61982 c 0,0 2.02094,62.82192 -6.64444,79.11995 -8.86649,16.67629 -16.39804,23.85385 -16.39804,23.85385 l -188.679043,2.49555 c 0,0 5.648126,-5.59656 14.720655,-22.91534 13.951879,-26.6331 18.526593,-80.93419 18.526593,-80.93419 z"
         id="path33"
         sodipodi:nodetypes="ccsccsc" /><path
         style="baseline-shift:baseline;display:inline;overflow:visible;opacity:1;vector-effect:none;fill:url(#linearGradient38);stroke-linecap:round;stroke-linejoin:round;paint-order:stroke fill markers;enable-background:accumulate;stop-color:#000000;stop-opacity:1"
         d="m 75.326556,123.85892 c -3.783485,0.0353 -7.200347,2.27089 -7.673373,5.02987 -4.391151,25.36537 -5.124647,35.24404 -8.613093,49.581 -1.959771,8.05435 -2.431654,9.09397 -2.74653,11.93599 -0.3161,2.85307 -15.21051,20.66546 -14.729039,26.05208 0.484935,5.4254 19.358982,1.57331 27.627532,1.37337 8.262059,-0.19978 141.103417,-3.10509 141.103417,-3.10509 20.19627,0.48859 14.96294,6.78282 25.94131,-13.92372 8.62834,-16.27407 11.55646,-67.94935 11.66027,-78.38387 0.0201,-2.71901 -9.8986,-4.30657 -13.62154,-4.27241 z m 14.208737,11.89034 144.009497,-2.20764 c 0.90067,20.85922 -3.19181,37.55712 -7.49403,46.4717 -4.30221,8.91458 -7.27852,20.2662 -15.13939,21.15195 -7.87421,0.88726 -137.107827,3.31584 -137.107827,3.31584 8.454225,-13.71964 16.121655,-41.53602 15.7318,-68.73185 z"
         id="path34"
         sodipodi:nodetypes="ccszzzcsccccczzccc" /><path
         id="path35"
         style="fill:url(#linearGradient36);stroke-width:14;stroke-linecap:round;stroke-linejoin:round;paint-order:stroke fill markers"
         d="m 73.327567,118.83785 172.036613,-0.40714 c 0,0 -2.48966,31.74094 -30.79399,43.47345 -28.82994,11.95038 -51.54075,7.24752 -94.13874,9.41551 -42.845471,2.18058 -51.535363,19.00884 -51.535363,19.00884 z"
         sodipodi:nodetypes="cczzcc" /><path
         style="baseline-shift:baseline;display:inline;overflow:visible;opacity:1;vector-effect:none;fill:#3666a6;stroke:none;stroke-linecap:round;stroke-linejoin:round;stroke-opacity:1;paint-order:stroke fill markers;enable-background:accumulate;stop-color:#000000;stop-opacity:1"
         d="m 81.849011,110.80891 c -17.449053,0.27695 -20.73295,7.23777 -20.458225,11.9377 0.274726,4.69992 0.406384,3.25083 -0.173317,12.64836 -1.072573,17.38748 -3.476389,33.84684 -7.901812,47.54948 -4.425423,13.70264 -13.282935,23.73208 -17.705275,27.28893 -4.422339,3.55684 -12.537275,4.61711 -17.660234,8.49466 -3.304531,2.5012 3.118715,11.71527 17.253617,11.28926 l 4.220887,0.0957 c 61.439308,-0.83775 176.035128,-3.65879 182.497838,-3.5934 6.46066,0.0653 22.69822,-16.48438 31.1978,-44.26324 8.49958,-27.77886 4.50994,-48.13178 3.23151,-69.38606 -0.009,-3.5065 -5.40022,-5.65098 -10.22249,-5.6085 0,0 -140.09804,3.44289 -164.280302,3.54704 0,0 34.891572,-0.66101 13.717253,-0.21765 z M 242.66117,121.2525 c 0,0 2.97087,24.4458 -0.93311,41.73673 -4.25398,18.84109 -6.76917,27.57858 -17.96622,44.18543 -3.46777,5.14321 -8.04226,5.31735 -11.73687,5.62664 -6.64995,0.55669 -117.966719,1.15391 -140.41633,1.78568 -11.224806,0.31588 -22.60528,0.27204 -22.60528,0.27204 0,0 11.546404,-9.06777 16.711091,-19.66081 5.164687,-10.59304 8.331391,-32.68861 10.331107,-44.81039 1.999716,-12.12179 1.122083,-26.49548 1.122083,-26.49548 55.890619,-0.90271 165.493529,-2.63984 165.493529,-2.63984 z"
         id="path36"
         sodipodi:nodetypes="szszzscczzcczzscszscszzcc" /></g></g><g
     id="g26"
     style="display:inline"
     transform="matrix(1.429461,0,0,1.429461,-77.057518,-99.665801)"
     inkscape:label="satbowl2"><g
       id="path26"
       transform="translate(4.0090429,1.8708867)"><g
         id="g126"
         transform="rotate(1.4385745,-129.26738,301.33519)"><path
           style="color:#000000;fill:url(#linearGradient121);stroke-linecap:round;stroke-linejoin:round;stroke-miterlimit:2.1;-inkscape-stroke:none"
           d="m 223.67267,228.27579 c -25.2915,1.93772 -50.58295,2.66475 -75.87444,0.0119 0.19998,2.7973 0.61445,4.76897 1.5043,4.99763 6.97148,1.79143 12.8522,2.66892 32.76337,2.33578 24.35151,-0.40744 36.69271,-0.85905 38.20387,-2.4598 2.01241,-2.1317 2.96697,-3.52486 3.4029,-4.88549 z"
           id="path109" /><path
           style="color:#000000;fill:url(#radialGradient114);stroke-linecap:round;stroke-linejoin:round;stroke-miterlimit:2.1;-inkscape-stroke:none"
           d="m 187.53327,192.82524 c -24.67144,-0.37798 -39.92263,13.3333 -39.92263,26.87019 0,2.70555 0.0104,5.33091 0.12248,7.55975 25.68264,3.30207 50.98693,2.25336 76.18398,-0.0289 0.24023,-1.66769 -0.16909,-3.54561 -0.0848,-6.85281 0.35099,-13.77089 -17.92118,-28.00252 -36.29908,-27.54819 z"
           id="path27"
           sodipodi:nodetypes="csccscc" /><path
           id="rect28"
           style="color:#000000;fill:#ababab;stroke-linecap:round;stroke-linejoin:round;stroke-miterlimit:2.1;-inkscape-stroke:none"
           d="m 187.54464,192.02529 c -24.97246,-0.3824 -40.73395,13.53251 -40.73395,27.67014 0,3.38548 0.006,6.68547 0.22634,9.24182 0.11023,1.27818 0.27005,2.36729 0.53744,3.23287 0.13369,0.4328 0.29171,0.81271 0.52296,1.14412 0.23125,0.33141 0.56561,0.633 1.00615,0.74621 7.01551,1.80274 13.039,3.35664 32.97628,3.02307 23.78103,-0.39789 33.91405,-1.53039 37.35379,-2.61069 0.59056,-0.18548 1.04899,-0.37083 1.418,-0.76171 2.5098,-2.65857 3.53708,-4.34755 3.84163,-6.24045 0.30455,-1.89289 -0.0605,-3.76786 -0.0605,-7.09776 0,-7.14273 -4.18601,-14.70081 -11.22834,-19.95957 -7.04219,-5.25868 -17.00271,-8.25223 -25.85932,-8.38805 z m -0.0232,1.5999 c 8.4421,0.12933 18.14358,3.00656 24.92605,8.07127 6.78246,5.06473 10.58392,12.2823 10.58392,18.67645 0,2.79205 0.20876,4.56439 0.15968,5.93814 -0.1242,-0.0791 -0.26349,-0.13708 -0.42168,-0.13694 -25.09571,1.4548 -49.18787,2.27363 -74.27918,0.0563 -0.0701,-1.98077 -0.0801,-4.22386 -0.0801,-6.53501 0,-12.93602 14.74124,-26.4436 39.11131,-26.07024 z m 34.91621,35.50171 c -0.50897,0.9281 -1.34288,1.99378 -2.75022,3.48454 -0.009,0.009 -0.2656,0.18869 -0.73432,0.3359 -2.88477,0.90603 -14.75102,2.16568 -36.90007,2.53628 -19.88503,0.33272 -25.62356,-1.19387 -32.55099,-2.97398 0.0256,0.007 -0.004,0.0153 -0.092,-0.11111 -0.0882,-0.1264 -0.2058,-0.36877 -0.30851,-0.70124 -0.18157,-0.58777 -0.32064,-1.47805 -0.42478,-2.512 24.45633,3.32157 48.57173,2.30645 73.76087,-0.0584 z"
           sodipodi:nodetypes="ssssscssssssssssscccssccssccscc" /></g><g
         id="g30"
         transform="translate(-0.66817382,0.53453906)"><path
           id="rect29"
           style="fill:url(#linearGradient106);stroke:#ababab;stroke-width:1.6;stroke-linecap:round;stroke-linejoin:round;stroke-miterlimit:2.1"
           d="m 175.86334,178.80331 c 4.79662,1.64468 19.19455,1.18987 23.78699,0 v 22.98518 c -8.66893,3.69967 -16.54306,3.42534 -23.78699,0 z"
           sodipodi:nodetypes="ccccc" /><ellipse
           style="fill:url(#linearGradient102);stroke:#ababab;stroke-width:1.6;stroke-linecap:round;stroke-linejoin:round;stroke-miterlimit:2.1;stroke-dasharray:none;stroke-opacity:1"
           id="path29"
           cx="187.75967"
           cy="178.21577"
           rx="11.811756"
           ry="1.7953868" /></g><rect
         style="display:inline;fill:url(#linearGradient96);stroke:#ababab;stroke-width:1.6;stroke-linecap:round;stroke-linejoin:round;stroke-miterlimit:2.1;stroke-dasharray:none;stroke-opacity:1"
         id="rect30"
         width="13.76438"
         height="11.759859"
         x="179.60512"
         y="166.64256" /><rect
         style="display:inline;fill:url(#linearGradient32-9);stroke:#ababab;stroke-width:1.6;stroke-linecap:round;stroke-linejoin:round;stroke-miterlimit:2.1;stroke-dasharray:none;stroke-opacity:1"
         id="rect31"
         width="12.027128"
         height="6.1471992"
         x="237.94717"
         y="-60.788425"
         transform="rotate(54.734022,-0.19732234,-4.8080129)"
         inkscape:transform-center-x="2.3165386"
         inkscape:transform-center-y="-3.3153851" /><circle
         style="fill:url(#radialGradient34);stroke:#ababab;stroke-width:1.6;stroke-linecap:round;stroke-linejoin:round;stroke-miterlimit:2.1;stroke-dasharray:none;stroke-opacity:1"
         id="path30"
         cx="186.4873"
         cy="168.04572"
         r="6.7485552" /><circle
         style="fill:#d4d8da;fill-opacity:1;stroke:#ababab;stroke-width:1.6;stroke-linecap:round;stroke-linejoin:round;stroke-miterlimit:2.1;stroke-dasharray:none;stroke-opacity:1"
         id="path31"
         cx="186.4124"
         cy="168.17871"
         r="1.7372519" /><ellipse
         style="display:inline;fill:url(#radialGradient2);stroke:#ababab;stroke-width:1.35599;stroke-linecap:round;stroke-linejoin:round;stroke-miterlimit:2.1;stroke-dasharray:none;stroke-opacity:1"
         id="path32"
         cx="61.671833"
         cy="228.27927"
         rx="16.469475"
         ry="12.784207"
         transform="rotate(-36.551067,-1.2193356,21.0854)" /></g><g
       id="g3"
       transform="translate(-7.7331136,5.7037582)"><g
         id="g2"><ellipse
           style="fill:#f3f3f4;fill-opacity:1;stroke:#ababab;stroke-width:1.44211;stroke-linecap:round;stroke-linejoin:round;stroke-miterlimit:2.1;stroke-dasharray:none;stroke-opacity:1"
           id="path33-2"
           cx="194.67114"
           cy="-15.872675"
           rx="21.15661"
           ry="73.217201"
           transform="matrix(0.73007053,0.68337181,-0.70280713,0.71138045,0,0)" /><path
           id="path34-3"
           style="fill:url(#linearGradient134);stroke:url(#linearGradient127);stroke-width:1.63132;stroke-linecap:round;stroke-linejoin:round;stroke-miterlimit:2.1"
           d="m 183.05119,148.9376 c -30.8391,28.00172 -69.21214,37.68485 -78.85478,26.5215 20.37202,-3.70324 40.60657,-16.90237 62.66278,-38.63303 23.02986,-22.68993 43.54245,-48.512178 38.34587,-66.767622 14.3285,11.775649 14.53352,45.567262 -22.15387,78.879152 z"
           sodipodi:nodetypes="scscs" /><path
           id="path35-7"
           style="display:inline;fill:url(#linearGradient36-9);stroke-width:1.5835;stroke-linecap:round;stroke-linejoin:round;stroke-miterlimit:2.1"
           transform="rotate(46.360003)"
           d="m 209.52158,-27.210037 c 0,34.8613314 -5.48315,65.889014 -14.25067,65.889014 -8.76752,0 -17.49933,-31.0276826 -17.49933,-65.889014 0,-34.861332 4.93186,-64.674443 13.69939,-64.674443 8.76752,0 18.05061,29.813111 18.05061,64.674443 z"
           sodipodi:nodetypes="sssss" /><path
           id="path36-5"
           style="display:inline;fill:url(#linearGradient38-2);stroke-width:1.6;stroke-linecap:round;stroke-linejoin:round;stroke-miterlimit:2.1"
           transform="rotate(47.964089)"
           d="m 206.78776,-40.2364 c 0,21.919918 -2.89041,40.12660333 -8.79476,40.12660538 -5.90435,-2.05e-6 -9.3424,-17.57179738 -9.3424,-39.49171638 0,-21.919918 3.43805,-39.887333 9.3424,-39.887335 5.90435,2e-6 8.79476,17.332527 8.79476,39.252446 z"
           sodipodi:nodetypes="sssss" /><ellipse
           style="fill:url(#linearGradient48);stroke:none;stroke-width:1.6;stroke-linecap:round;stroke-linejoin:round;stroke-miterlimit:2.1;stroke-dasharray:none;stroke-opacity:1"
           id="path39"
           cx="198.71828"
           cy="-28.948433"
           rx="3.9296143"
           ry="6.4144688"
           transform="rotate(50.15932)" /></g><g
         id="g93"><g
           id="g51"><g
             id="rect50"><path
               style="color:#000000;fill:url(#linearGradient60);stroke-linecap:round;stroke-linejoin:round;stroke-miterlimit:2.1;-inkscape-stroke:none"
               d="m 112.54338,91.079617 4.0644,-1.322917 21.56768,65.11848 -3.70836,3.20723 z"
               id="path56"
               sodipodi:nodetypes="ccccc" /><path
               id="path57"
               style="color:#000000;fill:#797979;stroke-linecap:round;stroke-linejoin:round;stroke-miterlimit:2.1;-inkscape-stroke:none"
               inkscape:label="frame"
               d="m 116.45336,89.281372 -4.06487,1.3224 c -0.26345,0.08581 -0.4069,0.36947 -0.31988,0.63252 l 22.10016,67.081938 0.80967,-0.44998 -21.8024,-66.469694 3.11299,-1.011825 21.64072,64.867699 0.61885,-0.70159 -21.46634,-64.953141 c -0.0865,-0.260938 -0.3674,-0.403124 -0.6289,-0.318327 z"
               sodipodi:nodetypes="ccccccccccc" /></g><g
             id="path50"><path
               style="color:#000000;fill:url(#linearGradient70);fill-opacity:1;stroke-linecap:round;stroke-linejoin:round;stroke-miterlimit:2.1;-inkscape-stroke:none"
               d="m 119.73673,91.406174 2.13816,-1.737252 29.26601,43.698578 c -0.10412,2.47347 -1.62574,2.96244 -3.60814,2.80633 z"
               id="path54" /><path
               id="path55"
               style="color:#000000;fill:#797979;stroke-linecap:round;stroke-linejoin:round;stroke-miterlimit:2.1;-inkscape-stroke:none"
               inkscape:label="frame"
               d="m 121.94915,89.173885 c -0.13888,-0.0203 -0.2799,0.01871 -0.38861,0.107487 l -2.13889,1.736328 c -0.19539,0.158908 -0.24211,0.43833 -0.10904,0.652157 l 27.79469,44.767813 c 0.16786,-0.0652 0.24481,-0.22045 0.40376,-0.20858 0.0574,0.009 0.12688,-0.009 0.11908,-0.15058 l 0.16084,-0.43614 -27.39626,-44.124959 1.35221,-1.248812 29.13575,43.182301 0.73478,-0.30068 c -0.0119,-0.0693 -0.0383,-0.13536 -0.0775,-0.19378 l -29.2654,-43.699666 c -0.0784,-0.117172 -0.18593,-0.06217 -0.32539,-0.08289 z"
               sodipodi:nodetypes="cccccccccccccccc" /></g><g
             id="path51"><path
               style="color:#000000;fill:url(#linearGradient76);stroke-linecap:round;stroke-linejoin:round;stroke-miterlimit:2.1;-inkscape-stroke:none"
               d="m 122.74874,87.488843 0.8516,-3.96875 71.50926,11.590943 -2.85218,4.129247 z"
               id="path52" /><path
               id="path53"
               style="color:#000000;fill:#797979;fill-opacity:1;stroke-linecap:round;stroke-linejoin:round;stroke-miterlimit:2.1;-inkscape-stroke:none"
               inkscape:label="frame"
               d="m 123.67979,83.02749 c -0.26269,-0.04233 -0.51253,0.128466 -0.56844,0.388607 l -0.85163,3.96875 c -0.0593,0.278447 0.12542,0.550191 0.40618,0.59738 l 69.17717,11.608446 c 0.19091,0.03241 0.6196,-0.615285 0.73027,-0.774187 l -0.54578,-0.123285 -68.68005,-11.609111 0.64285,-2.994132 70.65726,11.530193 0.23114,-0.133842 0.19379,-0.280603 c 0.20875,-0.302396 0.47984,-0.530133 0.11709,-0.588742 z"
               sodipodi:nodetypes="cccccccccccccc" /></g></g><rect
           style="display:inline;fill:url(#radialGradient83);fill-opacity:1;stroke:#797979;stroke-width:1;stroke-linecap:round;stroke-linejoin:round;stroke-miterlimit:2.1;stroke-dasharray:none;stroke-opacity:1"
           id="rect79"
           width="31.372023"
           height="22.489584"
           x="120.06378"
           y="-34.846062"
           ry="10.961309"
           transform="rotate(45.761962)" /></g></g></g></svg>
