<?xml version="1.0" encoding="UTF-8" standalone="no"?>
<!-- Created with Inkscape (http://www.inkscape.org/) -->

<svg
   id="svg97"
   height="256"
   width="256"
   version="1.0"
   sodipodi:docname="folder-emule.svg"
   inkscape:version="1.4.2 (ebf0e940d0, 2025-05-08)"
   xml:space="preserve"
   viewBox="0 0 256 256"
   xmlns:inkscape="http://www.inkscape.org/namespaces/inkscape"
   xmlns:sodipodi="http://sodipodi.sourceforge.net/DTD/sodipodi-0.dtd"
   xmlns:xlink="http://www.w3.org/1999/xlink"
   xmlns="http://www.w3.org/2000/svg"
   xmlns:svg="http://www.w3.org/2000/svg"
   xmlns:rdf="http://www.w3.org/1999/02/22-rdf-syntax-ns#"
   xmlns:cc="http://creativecommons.org/ns#"
   xmlns:dc="http://purl.org/dc/elements/1.1/"><title
     id="title4">Folder open/close recreated</title><sodipodi:namedview
     id="namedview1"
     pagecolor="#ffffff"
     bordercolor="#000000"
     borderopacity="0.25"
     inkscape:showpageshadow="2"
     inkscape:pageopacity="0.0"
     inkscape:pagecheckerboard="0"
     inkscape:deskcolor="#d1d1d1"
     inkscape:zoom="1.0012729"
     inkscape:cx="211.73049"
     inkscape:cy="178.27308"
     inkscape:current-layer="svg97" /><defs
     id="defs3"><radialGradient
       id="radialGradient6719"
       xlink:href="#linearGradient5060"
       gradientUnits="userSpaceOnUse"
       cy="486.64999"
       cx="605.71002"
       gradientTransform="matrix(-2.0913748,0,0,1.9697,-298.69145,-872.89)"
       r="117.14" /><linearGradient
       id="linearGradient5060"><stop
         id="stop5062"
         offset="0" /><stop
         id="stop5064"
         stop-opacity="0"
         offset="1" /></linearGradient><radialGradient
       id="radialGradient6717"
       xlink:href="#linearGradient5060"
       gradientUnits="userSpaceOnUse"
       cy="486.64999"
       cx="605.71002"
       gradientTransform="matrix(2.7744,0,0,1.9697,-1891.6,-872.89)"
       r="117.14" /><linearGradient
       id="linearGradient6715"
       y2="609.51001"
       gradientUnits="userSpaceOnUse"
       x2="302.85999"
       gradientTransform="matrix(2.7744,0,0,1.9697,-1892.2,-872.89)"
       y1="366.64999"
       x1="302.85999"><stop
         id="stop5050"
         stop-opacity="0"
         offset="0" /><stop
         id="stop5056"
         offset=".5" /><stop
         id="stop5052"
         stop-opacity="0"
         offset="1" /></linearGradient><radialGradient
       id="radialGradient238"
       gradientUnits="userSpaceOnUse"
       cy="37.518002"
       cx="20.705999"
       gradientTransform="matrix(1.055,-0.027345,0.1777,1.1909,-3.5722,-7.1253)"
       r="30.905001"><stop
         id="stop1790"
         stop-color="#202020"
         offset="0" /><stop
         id="stop1791"
         stop-color="#b9b9b9"
         offset="1" /></radialGradient><linearGradient
       id="linearGradient491"
       y2="66.834"
       gradientUnits="userSpaceOnUse"
       x2="9.8980999"
       gradientTransform="matrix(1.5168,0,0,0.70898,-0.87957,-1.3182)"
       y1="13.773"
       x1="6.2298002"><stop
         id="stop3984"
         stop-color="#fff"
         stop-opacity=".87629"
         offset="0" /><stop
         id="stop3985"
         stop-color="#fffffe"
         stop-opacity="0"
         offset="1" /></linearGradient><linearGradient
       id="linearGradient322"
       y2="46.688999"
       gradientUnits="userSpaceOnUse"
       x2="12.854"
       gradientTransform="matrix(1.3175,0,0,0.81626,-0.87957,-1.3182)"
       y1="32.567001"
       x1="13.036"><stop
         id="stop320"
         stop-color="#fff"
         offset="0" /><stop
         id="stop321"
         stop-color="#fff"
         stop-opacity="0"
         offset="1" /></linearGradient><linearGradient
       id="linearGradient3104"
       y2="6.1803002"
       gradientUnits="userSpaceOnUse"
       x2="15.515"
       y1="31.368"
       x1="18.113001"><stop
         id="stop3098"
         stop-color="#424242"
         offset="0" /><stop
         id="stop3100"
         stop-color="#777"
         offset="1" /></linearGradient><linearGradient
       id="linearGradient9772"
       y2="32.049999"
       gradientUnits="userSpaceOnUse"
       x2="22.065001"
       y1="36.987999"
       x1="22.176001"><stop
         id="stop9768"
         stop-color="#6194cb"
         offset="0" /><stop
         id="stop9770"
         stop-color="#729fcf"
         offset="1" /></linearGradient><linearGradient
       id="e"><stop
         offset="0"
         stop-color="#6194cb"
         id="stop8" /><stop
         offset="1"
         stop-color="#729fcf"
         id="stop9" /></linearGradient><linearGradient
       id="c"><stop
         offset="0"
         stop-color="#fff"
         stop-opacity=".13402061"
         id="stop10" /><stop
         offset="1"
         stop-color="#fff"
         stop-opacity=".05154639"
         id="stop11" /></linearGradient><linearGradient
       id="b"><stop
         offset="0"
         stop-color="#fff"
         id="stop12" /><stop
         offset="1"
         stop-color="#fff"
         stop-opacity="0"
         id="stop13" /></linearGradient><linearGradient
       xlink:href="#b"
       id="q"
       x1="19.116116"
       x2="19.426924"
       y1="28.946041"
       y2="51.912693"
       gradientTransform="scale(1.42154,0.70346)"
       gradientUnits="userSpaceOnUse" /><linearGradient
       xlink:href="#c"
       id="p"
       x1="14.899379"
       x2="22.715446"
       y1="27.059643"
       y2="41.836895"
       gradientTransform="matrix(1.5353,0,0,0.65134,3.451418,2.448)"
       gradientUnits="userSpaceOnUse" /><linearGradient
       xlink:href="#e"
       id="o"
       x1="-22.89403"
       x2="-19.799696"
       y1="38.945435"
       y2="20.305889"
       gradientTransform="matrix(1,0,0,1.02212,52.05694,-1.323026)"
       gradientUnits="userSpaceOnUse" /><clipPath
       id="clipPath8"><path
         d="M 76,2 V 48 H 54 V 71 H 35.580737 c -0.07818,0.665694 -0.141485,1.332869 -0.205737,2 -1.151162,12.530963 1.036422,24.087546 6.0625,33.96875 L 43.125,110 c 1.011403,1.81678 2.191241,3.52297 3.4375,5.1875 1.244725,1.66248 1.685716,2.58262 2.46875,3.6875 C 62.319911,133.81083 82.129473,141 105,141 155.64836,141 198.63299,118.56201 217.65625,68.15625 231.15302,69.54122 244.09968,66.080358 250,54.5625 240.60137,49.138835 228.52163,50.877226 221.5625,54.375 L 240,2 168,48 H 145 V 2 Z"
         id="path10" /></clipPath><clipPath
       id="clipPath1"><path
         d="M 76,2 V 48 H 54 V 71 H 35.580737 c -0.07818,0.665694 -0.141485,1.332869 -0.205737,2 -1.151162,12.530963 1.036422,24.087546 6.0625,33.96875 L 43.125,110 c 1.011403,1.81678 2.191241,3.52297 3.4375,5.1875 1.244725,1.66248 1.685716,2.58262 2.46875,3.6875 C 62.319911,133.81083 82.129473,141 105,141 155.64836,141 198.63299,118.56201 217.65625,68.15625 231.15302,69.54122 244.09968,66.080358 250,54.5625 240.60137,49.138835 228.52163,50.877226 221.5625,54.375 L 240,2 168,48 H 145 V 2 Z"
         id="path1" /></clipPath><clipPath
       id="clipPath2"><path
         d="M 76,2 V 48 H 54 V 71 H 35.580737 c -0.07818,0.665694 -0.141485,1.332869 -0.205737,2 -1.151162,12.530963 1.036422,24.087546 6.0625,33.96875 L 43.125,110 c 1.011403,1.81678 2.191241,3.52297 3.4375,5.1875 1.244725,1.66248 1.685716,2.58262 2.46875,3.6875 C 62.319911,133.81083 82.129473,141 105,141 155.64836,141 198.63299,118.56201 217.65625,68.15625 231.15302,69.54122 244.09968,66.080358 250,54.5625 240.60137,49.138835 228.52163,50.877226 221.5625,54.375 L 240,2 168,48 H 145 V 2 Z"
         id="path2" /></clipPath><clipPath
       id="clipPath3"><path
         d="M 76,2 V 48 H 54 V 71 H 35.580737 c -0.07818,0.665694 -0.141485,1.332869 -0.205737,2 -1.151162,12.530963 1.036422,24.087546 6.0625,33.96875 L 43.125,110 c 1.011403,1.81678 2.191241,3.52297 3.4375,5.1875 1.244725,1.66248 1.685716,2.58262 2.46875,3.6875 C 62.319911,133.81083 82.129473,141 105,141 155.64836,141 198.63299,118.56201 217.65625,68.15625 231.15302,69.54122 244.09968,66.080358 250,54.5625 240.60137,49.138835 228.52163,50.877226 221.5625,54.375 L 240,2 168,48 H 145 V 2 Z"
         id="path3" /></clipPath><radialGradient
       id="b-6"
       gradientUnits="userSpaceOnUse"
       cy="42.099998"
       cx="24.309999"
       gradientTransform="matrix(1.076,0,0,0.285,-6.9499999,28.65)"
       r="15.82"><stop
         offset="0"
         id="stop1" /><stop
         stop-opacity="0"
         offset="1"
         id="stop2" /></radialGradient><radialGradient
       id="f"
       gradientUnits="userSpaceOnUse"
       cy="35.740002"
       cx="33.970001"
       gradientTransform="matrix(0.961,0,0,1.041,-5.0999999,-2.1500001)"
       r="86.699997"><stop
         stop-color="#fafafa"
         offset="0"
         id="stop3" /><stop
         stop-color="#bbb"
         offset="1"
         id="stop4" /></radialGradient><radialGradient
       id="g"
       gradientUnits="userSpaceOnUse"
       cy="3.76"
       cx="8.8199997"
       gradientTransform="matrix(0.968,0,0,1.033,-1.7499999,-1.5000001)"
       r="37.75"><stop
         stop-color="#a3a3a3"
         offset="0"
         id="stop5" /><stop
         stop-color="#4c4c4c"
         offset="1"
         id="stop6" /></radialGradient><radialGradient
       id="e-8"
       gradientUnits="userSpaceOnUse"
       cy="7.27"
       cx="8.1400003"
       gradientTransform="matrix(0.968,0,0,1.033,-1.7499999,-1.5000001)"
       r="38.200001"><stop
         stop-color="#fff"
         offset="0"
         id="stop7" /><stop
         stop-color="#f8f8f8"
         offset="1"
         id="stop8-9" /></radialGradient><radialGradient
       id="c-0"
       gradientUnits="userSpaceOnUse"
       cy="18.82"
       cx="10.1"
       r="1.21"><stop
         stop-color="#f0f0f0"
         offset="0"
         id="stop9-6" /><stop
         stop-color="#9a9a9a"
         offset="1"
         id="stop10-8" /></radialGradient><radialGradient
       id="radialGradient12"
       gradientUnits="userSpaceOnUse"
       cy="18.82"
       cx="10.1"
       r="1.21"><stop
         stop-color="#f0f0f0"
         offset="0"
         id="stop11-7" /><stop
         stop-color="#9a9a9a"
         offset="1"
         id="stop12-9" /></radialGradient><linearGradient
       xlink:href="#g-7"
       id="B"
       x1="12.8125"
       x2="12.8125"
       y1="3.9999673"
       y2="25.985226"
       gradientTransform="matrix(0.75862,0,0,0.68,0.362069,-38.200002)"
       gradientUnits="userSpaceOnUse" /><linearGradient
       id="g-7"><stop
         offset="0"
         stop-color="#ececea"
         id="stop17" /><stop
         offset="1"
         stop-color="#d6d9d2"
         id="stop18" /></linearGradient><linearGradient
       xlink:href="#h"
       id="C"
       x1="-11.986486"
       x2="-11.986486"
       y1="13.122552"
       y2="29.726542"
       gradientTransform="matrix(0.45679,0,0,0.45833,17.975301,-38.725495)"
       gradientUnits="userSpaceOnUse" /><linearGradient
       id="h"><stop
         offset="0"
         stop-color="#555753"
         id="stop23" /><stop
         offset="1"
         stop-color="#fcaf3e"
         id="stop24" /></linearGradient><radialGradient
       xlink:href="#l"
       id="D"
       cx="-6.0070167"
       cy="32.837029"
       r="9.90625"
       fx="-6.0070167"
       fy="32.837029"
       gradientTransform="matrix(0.4987,0,0,0.44848,12.828345,-37.694358)"
       gradientUnits="userSpaceOnUse" /><linearGradient
       id="l"><stop
         offset="0"
         stop-color="#fce94f"
         id="stop21" /><stop
         offset="1"
         stop-color="#fce94f"
         stop-opacity="0"
         id="stop22" /></linearGradient><linearGradient
       xlink:href="#i"
       id="E"
       x1="25.355263"
       x2="25.355263"
       y1="34.006802"
       y2="32.409008"
       gradientTransform="matrix(0.44118,0,0,0.5,1.911766,-40.45466)"
       gradientUnits="userSpaceOnUse" /><linearGradient
       id="i"><stop
         offset="0"
         stop-color="#2e3436"
         id="stop19" /><stop
         offset="1"
         stop-color="#2e3436"
         stop-opacity="0"
         id="stop20" /></linearGradient><path
       id="p-6"
       fill="#ffffff"
       d="m 8.8749989,37.75 a 1.2499999,1.2499999 0 1 1 -2.4999997,0 1.2499999,1.2499999 0 1 1 2.4999997,0 z"
       opacity="0.527778"
       overflow="visible"
       style="marker:none" /><linearGradient
       id="f-1"><stop
         offset="0"
         stop-color="#729fcf"
         id="stop3-0" /><stop
         offset="1"
         stop-color="#2b5582"
         id="stop4-4" /></linearGradient><linearGradient
       id="h-8"><stop
         offset="0"
         stop-color="#729fcf"
         id="stop5-7" /><stop
         offset="1"
         stop-color="#3c74b1"
         id="stop6-0" /></linearGradient><linearGradient
       id="e-86"><stop
         offset="0"
         stop-color="#f2f2f2"
         id="stop7-2" /><stop
         offset="1"
         stop-color="#c3c3c3"
         id="stop8-4" /></linearGradient><linearGradient
       id="g-79"><stop
         offset="0"
         stop-color="#aeaeae"
         id="stop9-3" /><stop
         offset="1"
         stop-color="#c4c4c4"
         stop-opacity="0"
         id="stop10-9" /></linearGradient><linearGradient
       id="i-1"><stop
         offset="0"
         stop-color="#696969"
         id="stop15" /><stop
         offset="1"
         id="stop16" /></linearGradient><linearGradient
       id="b-7"><stop
         offset="0"
         stop-color="#6e3d09"
         id="stop17-8" /><stop
         offset=".24242425"
         stop-color="#ea8113"
         id="stop18-9" /><stop
         offset=".62121212"
         stop-color="#5c3307"
         id="stop19-1" /><stop
         offset="1"
         stop-color="#e07c12"
         id="stop20-5" /></linearGradient><linearGradient
       id="a"><stop
         offset="0"
         stop-color="#bdbdbd"
         id="stop21-4" /><stop
         offset=".33333334"
         stop-color="#e2e2e2"
         id="stop22-9" /><stop
         offset=".66666669"
         stop-color="#a3a3a3"
         id="stop23-2" /><stop
         offset="1"
         stop-color="#ddd"
         id="stop24-5" /></linearGradient><linearGradient
       xlink:href="#a"
       id="m"
       x1="19.394735"
       x2="23.109331"
       y1="30.001331"
       y2="33.438831"
       gradientTransform="translate(-3.90695,-1.802856)"
       gradientUnits="userSpaceOnUse" /><linearGradient
       xlink:href="#b-7"
       id="l-7"
       x1="28.058632"
       x2="33.436985"
       y1="18.867767"
       y2="23.742767"
       gradientTransform="translate(-3.90695,-1.802856)"
       gradientUnits="userSpaceOnUse" /><linearGradient
       xlink:href="#b"
       id="q-4"
       x1="13.236155"
       x2="7.7521091"
       y1="37.752247"
       y2="42.282146"
       gradientTransform="matrix(0.8523,0,0,0.8523,-1.675107,3.753977)"
       gradientUnits="userSpaceOnUse" /><linearGradient
       xlink:href="#b"
       id="w"
       x1="48.25"
       x2="48.25"
       y1="54.75"
       y2="71.25"
       gradientTransform="matrix(0.71891,0,0,0.71891,-1.897103,-20.68606)"
       gradientUnits="userSpaceOnUse" /><linearGradient
       xlink:href="#e-86"
       id="v"
       x1="60.168766"
       x2="60.440994"
       y1="40.119797"
       y2="43.869797"
       gradientTransform="matrix(0.7373,0,0,0.77085,-8.532023,7.121636)"
       gradientUnits="userSpaceOnUse" /><linearGradient
       xlink:href="#f-1"
       id="u"
       x1="49.853039"
       x2="62.768223"
       y1="64.259621"
       y2="64.259621"
       gradientTransform="matrix(0.71891,0,0,0.71891,-1.897103,-22.42481)"
       gradientUnits="userSpaceOnUse" /><linearGradient
       xlink:href="#g-79"
       id="t"
       x1="61.871845"
       x2="61.871845"
       y1="29.615223"
       y2="41.459263"
       gradientTransform="matrix(0.88862,0,0,0.71891,-18.29768,9.471728)"
       gradientUnits="userSpaceOnUse" /><linearGradient
       xlink:href="#e-86"
       id="s"
       x1="53.168766"
       x2="69.690994"
       y1="24.244797"
       y2="24.244797"
       gradientTransform="matrix(0.71944,0,0,0.71891,-7.696252,9.471728)"
       gradientUnits="userSpaceOnUse" /><linearGradient
       xlink:href="#h-8"
       id="r"
       x1="52.717937"
       x2="67.465988"
       y1="2.3161638"
       y2="2.3161638"
       gradientTransform="matrix(0.86248,0,0,0.58072,-16.25697,11.01348)"
       gradientUnits="userSpaceOnUse" /><radialGradient
       xlink:href="#i-1"
       id="o-9"
       cx="15.415101"
       cy="35.356506"
       r="7.5791559"
       fx="15.415101"
       fy="35.356506"
       gradientTransform="matrix(0.99465,0,0,0.96932,-4.583017,0.165919)"
       gradientUnits="userSpaceOnUse" /><radialGradient
       xlink:href="#linearGradient5060"
       id="n"
       cx="26.78167"
       cy="42.343147"
       r="14.407301"
       fx="26.78167"
       fy="42.343147"
       gradientTransform="matrix(1.33837,0,0,0.2822,-15.816494,29.064152)"
       gradientUnits="userSpaceOnUse" /><radialGradient
       xlink:href="#linearGradient5060"
       id="k"
       cx="26.78167"
       cy="42.343147"
       r="14.407301"
       fx="26.78167"
       fy="42.343147"
       gradientTransform="matrix(0.80527598,0,0,0.31690496,14.679833,28.678879)"
       gradientUnits="userSpaceOnUse" /><linearGradient
       x1="509.95471"
       y1="631.03595"
       x2="758.1145"
       y2="631.03595"
       id="linearGradient3865"
       xlink:href="#linearGradient3801"
       gradientUnits="userSpaceOnUse"
       gradientTransform="matrix(-1,0.02197802,0,1,1019.9094,-135.01605)" /><linearGradient
       id="linearGradient3801"><stop
         id="stop3803"
         style="stop-color:#ffffff;stop-opacity:1"
         offset="0" /><stop
         id="stop3805"
         style="stop-color:#e1e1ff;stop-opacity:1"
         offset="1" /></linearGradient><linearGradient
       x1="509.95471"
       y1="631.03595"
       x2="758.1145"
       y2="631.03595"
       id="linearGradient3862"
       xlink:href="#linearGradient3789"
       gradientUnits="userSpaceOnUse"
       gradientTransform="matrix(1,0.02197802,0,1,0,-135.01605)" /><linearGradient
       id="linearGradient3789"><stop
         id="stop3791"
         style="stop-color:#e1e1ff;stop-opacity:1"
         offset="0" /><stop
         id="stop3793"
         style="stop-color:#ffffff;stop-opacity:1"
         offset="1" /></linearGradient><linearGradient
       x1="509.95471"
       y1="631.03595"
       x2="758.1145"
       y2="631.03595"
       id="linearGradient3859"
       xlink:href="#linearGradient3811"
       gradientUnits="userSpaceOnUse"
       gradientTransform="rotate(180,509.9547,646.1704)" /><linearGradient
       id="linearGradient3811"><stop
         id="stop3813"
         style="stop-color:#b4c8ff;stop-opacity:1"
         offset="0" /><stop
         id="stop3815"
         style="stop-color:#80b4ff;stop-opacity:1"
         offset="1" /></linearGradient><linearGradient
       x1="509.95471"
       y1="631.03595"
       x2="758.1145"
       y2="631.03595"
       id="linearGradient3856"
       xlink:href="#linearGradient3823"
       gradientUnits="userSpaceOnUse"
       gradientTransform="matrix(1,0,0,-1,4.6950732e-5,1293.7043)" /><linearGradient
       id="linearGradient3823"><stop
         id="stop3825"
         style="stop-color:#80b4ff;stop-opacity:1"
         offset="0" /><stop
         id="stop3827"
         style="stop-color:#b4c8ff;stop-opacity:1"
         offset="1" /></linearGradient><linearGradient
       x1="101.76365"
       y1="293.15579"
       x2="507.72769"
       y2="293.15579"
       id="linearGradient3857"
       xlink:href="#linearGradient3843"
       gradientUnits="userSpaceOnUse" /><linearGradient
       id="linearGradient3843"><stop
         id="stop3845"
         style="stop-color:#00b4ff;stop-opacity:0.58823532"
         offset="0" /><stop
         id="stop3847"
         style="stop-color:#00b4ff;stop-opacity:0.78431374"
         offset="1" /></linearGradient><linearGradient
       x1="101.76365"
       y1="293.15579"
       x2="507.72769"
       y2="293.15579"
       id="linearGradient3850"
       xlink:href="#linearGradient3831"
       gradientUnits="userSpaceOnUse"
       gradientTransform="matrix(-1,0,0,1,1019.9095,0)" /><linearGradient
       id="linearGradient3831"><stop
         id="stop3833"
         style="stop-color:#00b4ff;stop-opacity:0.78431374"
         offset="0" /><stop
         id="stop3835"
         style="stop-color:#00b4ff;stop-opacity:0.58823532"
         offset="1" /></linearGradient><linearGradient
       x1="509.45474"
       y1="586.31158"
       x2="919.50934"
       y2="586.31158"
       id="linearGradient3847"
       xlink:href="#linearGradient3831"
       gradientUnits="userSpaceOnUse"
       gradientTransform="matrix(1,0,-0.00934579,1,5.4795477,0)" /><linearGradient
       x1="509.45474"
       y1="586.31158"
       x2="919.50934"
       y2="586.31158"
       id="linearGradient3844"
       xlink:href="#linearGradient3843"
       gradientUnits="userSpaceOnUse"
       gradientTransform="matrix(-1,0,-0.00934579,1,1022.662,0)" /><radialGradient
       cx="2.7847881"
       cy="3.8941741"
       r="1.2807455"
       fx="2.7847881"
       fy="3.8941741"
       id="radialGradient2314"
       xlink:href="#linearGradient4241"
       gradientUnits="userSpaceOnUse"
       gradientTransform="matrix(65.029071,-16.25233,40.210302,160.8901,-14.376943,-128.99928)" /><linearGradient
       id="linearGradient4241"><stop
         style="stop-color:#e1a56e;stop-opacity:1"
         offset="0"
         id="stop4243" /><stop
         style="stop-color:#a66a33;stop-opacity:1"
         offset="1"
         id="stop4245" /></linearGradient><linearGradient
       x1="2.7847881"
       y1="5.56534"
       x2="2.7847881"
       y2="2.9390848"
       id="linearGradient2316"
       xlink:href="#linearGradient10104"
       gradientUnits="userSpaceOnUse"
       gradientTransform="matrix(116.25157,0,0,116.25157,-0.4348338,-0.4283132)" /><linearGradient
       id="linearGradient10104"><stop
         style="stop-color:#b0b2af;stop-opacity:1"
         offset="0"
         id="stop10106" /><stop
         style="stop-color:#d4d6d3;stop-opacity:1"
         offset="1"
         id="stop10108" /></linearGradient><linearGradient
       x1="2.7751212"
       y1="5.5686064"
       x2="2.7751212"
       y2="4.6131067"
       id="linearGradient2318"
       xlink:href="#linearGradient8154"
       gradientUnits="userSpaceOnUse"
       gradientTransform="matrix(116.25157,0,0,116.25157,-0.4348338,-0.4283132)" /><linearGradient
       id="linearGradient8154"><stop
         style="stop-color:#625e5c;stop-opacity:1"
         offset="0"
         id="stop8156" /><stop
         style="stop-color:#a6a8a5;stop-opacity:1"
         offset="1"
         id="stop8158" /></linearGradient><radialGradient
       cx="3.1514964"
       cy="6.1444077"
       r="1.1824991"
       fx="3.1514964"
       fy="6.1444077"
       id="radialGradient2320"
       xlink:href="#linearGradient4241"
       gradientUnits="userSpaceOnUse"
       gradientTransform="matrix(116.25157,0,0,82.513993,-0.4348338,214.29596)" /><radialGradient
       cx="3.7747288"
       cy="5.7653866"
       r="0.34648392"
       fx="3.7747288"
       fy="5.7653866"
       id="radialGradient2322"
       xlink:href="#linearGradient3264"
       gradientUnits="userSpaceOnUse"
       gradientTransform="matrix(79.193871,-30.312074,49.803498,130.11752,-153.79953,27.547534)" /><linearGradient
       id="linearGradient3264"><stop
         style="stop-color:#ec7b74;stop-opacity:1"
         offset="0"
         id="stop3266" /><stop
         style="stop-color:#d63a45;stop-opacity:1"
         offset="1"
         id="stop3268" /></linearGradient><linearGradient
       x1="4.8165002"
       y1="5.4751501"
       x2="3.6824317"
       y2="5.4751501"
       id="linearGradient2324"
       xlink:href="#linearGradient4241"
       gradientUnits="userSpaceOnUse"
       gradientTransform="matrix(116.25157,0,0,116.25157,-0.4348338,-0.4283132)" /><linearGradient
       x1="5.3441901"
       y1="6.85675"
       x2="3.4426501"
       y2="6.85675"
       id="linearGradient2326"
       xlink:href="#linearGradient4241"
       gradientUnits="userSpaceOnUse"
       gradientTransform="matrix(116.25157,0,0,116.25157,-0.4348338,-0.4283132)" /><linearGradient
       x1="0.45398"
       y1="6.77776"
       x2="2.1632199"
       y2="6.77776"
       id="linearGradient2328"
       xlink:href="#linearGradient4241"
       gradientUnits="userSpaceOnUse"
       gradientTransform="matrix(116.25157,0,0,116.25157,-0.4348338,-0.4283132)" /><linearGradient
       x1="0.86579001"
       y1="5.5388651"
       x2="2.0256701"
       y2="5.5388651"
       id="linearGradient2330"
       xlink:href="#linearGradient4241"
       gradientUnits="userSpaceOnUse"
       gradientTransform="matrix(116.25157,0,0,116.25157,-0.4348338,-0.4283132)" /><radialGradient
       cx="3.3883746"
       cy="1.2456843"
       r="0.46976188"
       fx="3.3883746"
       fy="1.2456843"
       id="radialGradient2332"
       xlink:href="#linearGradient4241"
       gradientUnits="userSpaceOnUse"
       gradientTransform="matrix(56.431186,16.902757,-89.184694,297.75011,296.00926,-276.05045)" /><radialGradient
       cx="1.5118316"
       cy="1.5863022"
       r="0.77457374"
       fx="1.5118316"
       fy="1.5863022"
       id="radialGradient2334"
       xlink:href="#linearGradient4241"
       gradientUnits="userSpaceOnUse"
       gradientTransform="matrix(116.25156,128.93341,-23.78506,21.445567,44.308907,-10.684272)" /><linearGradient
       x1="0.56385255"
       y1="7.43191"
       x2="0.56385255"
       y2="6.24089"
       id="linearGradient2336"
       xlink:href="#linearGradient8154"
       gradientUnits="userSpaceOnUse"
       gradientTransform="matrix(116.25157,0,0,116.25157,-0.4348338,-0.4283132)" /><linearGradient
       x1="0.91182125"
       y1="6.1099501"
       x2="0.91182125"
       y2="5.0079598"
       id="linearGradient2338"
       xlink:href="#linearGradient8154"
       gradientUnits="userSpaceOnUse"
       gradientTransform="matrix(116.25157,0,0,116.25157,-0.4348338,-0.4283132)" /><linearGradient
       x1="5.3147106"
       y1="7.4951501"
       x2="5.3147106"
       y2="6.3150902"
       id="linearGradient2340"
       xlink:href="#linearGradient8154"
       gradientUnits="userSpaceOnUse"
       gradientTransform="matrix(116.25157,0,0,116.25157,-0.4348338,-0.4283132)" /><linearGradient
       x1="4.7428908"
       y1="6.0564399"
       x2="4.7428908"
       y2="5.0079598"
       id="linearGradient2342"
       xlink:href="#linearGradient8154"
       gradientUnits="userSpaceOnUse"
       gradientTransform="matrix(116.25157,0,0,116.25157,-0.4348338,-0.4283132)" /></defs><g
     id="layer1"
     transform="matrix(5.5668514,0,0,5.5668514,-11.854349,0.53914632)"
     style="display:inline"><g
       id="g2"
       inkscape:label="back"
       style="display:inline"><g
         id="g6707"
         transform="matrix(0.022624,0,0,0.020868,43.383,36.37)"><rect
           id="rect6709"
           opacity="0.40206"
           height="478.35999"
           width="1339.6"
           y="-150.7"
           x="-1559.3"
           fill="url(#linearGradient6715)"
           style="fill:url(#linearGradient6715)" /><path
           id="path6711"
           opacity="0.40206"
           d="m -219.62,-150.68 v 478.33 c 142.88,0.9 345.4,-107.17 345.4,-239.2 0,-132.02 -159.44,-239.13 -345.4,-239.13 z"
           fill="url(#radialGradient6717)"
           style="fill:url(#radialGradient6717)" /><path
           id="path6713"
           opacity="0.40206"
           d="m -1559.1096,-150.68 v 478.33 c -107.6443,0.9 -260.3665,-107.17 -260.3665,-239.2 0,-132.02 120.233,-239.13 260.3665,-239.13 z"
           fill="url(#radialGradient6719)"
           style="fill:url(#radialGradient6719);stroke-width:0.868223" /></g><path
         id="path216"
         stroke-linejoin="round"
         d="m 4.5218,38.687 c 0.0218,0.417 0.4599,0.833 0.8762,0.833 h 31.327 c 0.416,0 0.811,-0.416 0.789,-0.833 L 36.578,11.461 c -0.022,-0.417 -0.46,-0.833 -0.877,-0.833 h -13.27 c -0.486,0 -1.235,-0.316 -1.402,-1.1066 L 20.417,6.6284 C 20.262,5.8927 19.535,5.5905 19.119,5.5905 H 4.34 c -0.4162,0 -0.8107,0.4163 -0.7889,0.8326 l 0.9707,32.264 z"
         stroke="url(#linearGradient3104)"
         stroke-linecap="round"
         fill="url(#radialGradient238)"
         style="fill:url(#radialGradient238);stroke:url(#linearGradient3104)" /><path
         id="path9788"
         opacity="0.11364"
         stroke-linejoin="round"
         d="m 5.2266,22.562 h 30.265"
         stroke="#000000"
         stroke-linecap="round"
         fill="#729fcf" /><path
         id="path9784"
         opacity="0.11364"
         stroke-linejoin="round"
         d="m 5.0422,18.562 h 30.447"
         stroke="#000000"
         stroke-linecap="round"
         fill="#729fcf" /><path
         id="path9778"
         opacity="0.11364"
         stroke-linejoin="round"
         d="m 4.9807,12.562 h 30.507"
         stroke="#000000"
         stroke-linecap="round"
         fill="#729fcf" /><path
         id="path9798"
         opacity="0.11364"
         stroke-linejoin="round"
         d="m 5.3862,32.562 h 30.109"
         stroke="#000000"
         stroke-linecap="round"
         fill="#729fcf" /><path
         id="path9800"
         opacity="0.11364"
         stroke-linejoin="round"
         d="m 5.5091,34.562 h 29.988"
         stroke="#000000"
         stroke-linecap="round"
         fill="#729fcf" /><path
         id="path9782"
         opacity="0.11364"
         stroke-linejoin="round"
         d="m 5.0422,16.562 h 30.447"
         stroke="#000000"
         stroke-linecap="round"
         fill="#729fcf" /><path
         id="path9780"
         opacity="0.11364"
         stroke-linejoin="round"
         d="m 5.0114,14.562 h 30.478"
         stroke="#000000"
         stroke-linecap="round"
         fill="#729fcf" /><path
         id="path9776"
         opacity="0.11364"
         stroke-linejoin="round"
         d="m 4.9221,10.562 h 15.281"
         stroke="#000000"
         stroke-linecap="round"
         fill="#729fcf" /><path
         id="path9774"
         opacity="0.11364"
         stroke-linejoin="round"
         d="m 4.8738,8.5625 h 14.783"
         stroke="#000000"
         stroke-linecap="round"
         fill="#729fcf" /><path
         id="path9794"
         opacity="0.11364"
         stroke-linejoin="round"
         d="m 5.3247,28.562 h 30.169"
         stroke="#000000"
         stroke-linecap="round"
         fill="#729fcf" /><path
         id="path9792"
         opacity="0.11364"
         stroke-linejoin="round"
         d="m 5.2881,26.562 h 30.205"
         stroke="#000000"
         stroke-linecap="round"
         fill="#729fcf" /><path
         id="path9790"
         opacity="0.11364"
         stroke-linejoin="round"
         d="m 5.2266,24.562 h 30.265"
         stroke="#000000"
         stroke-linecap="round"
         fill="#729fcf" /><path
         id="path9786"
         opacity="0.11364"
         stroke-linejoin="round"
         d="m 5.1959,20.562 h 30.296"
         stroke="#000000"
         stroke-linecap="round"
         fill="#729fcf" /><path
         id="path9796"
         opacity="0.11364"
         stroke-linejoin="round"
         d="m 5.3247,30.562 h 30.169"
         stroke="#000000"
         stroke-linecap="round"
         fill="#729fcf" /><path
         id="path9802"
         opacity="0.11364"
         stroke-linejoin="round"
         d="m 5.5091,36.562 h 29.988"
         stroke="#000000"
         stroke-linecap="round"
         fill="#729fcf" /><path
         id="path219"
         opacity="0.45143"
         d="M 6.0683,38.864 C 6.0847,39.176 5.8874,39.384 5.5698,39.28 5.2521,39.176 5.033,38.968 5.0167,38.656 L 4.069,6.591 C 4.0526,6.2792 4.2341,6.0906 4.5464,6.0906 l 14.422,-0.0477 c 0.313,0 0.932,0.3005 1.133,1.3222 l 0.574,2.8159 c -0.427,-0.4656 -0.419,-0.48 -0.638,-1.1571 l -0.406,-1.2592 c -0.219,-0.7276 -0.698,-0.8319 -1.01,-0.8319 H 5.7334 c -0.3122,0 -0.5095,0.2082 -0.4931,0.5204 l 0.938,31.515 -0.1096,-0.104 z"
         display="block"
         fill="url(#linearGradient491)"
         style="fill:url(#linearGradient491)" /><g
         id="g220"
         fill-opacity="0.75706"
         transform="matrix(1.0408,0,0.054493,1.0408,-8.6702,2.6706)"
         fill="#ffffff"><path
           id="path221"
           fill-opacity="0.50847"
           fill="#ffffff"
           d="M 42.417,8.5152 C 42.422,8.4181 42.289,8.2682 42.182,8.2682 L 29.151,8.2661 c 0,0 0.911,0.5879 2.201,0.5962 l 11.054,0.071 c 0.011,-0.2117 0.003,-0.256 0.011,-0.4181 z" /></g></g><g
       id="g1"
       inkscape:label="close"
       style="display:none"><path
         id="path233"
         stroke-linejoin="round"
         d="M 39.784,39.511 C 40.927,39.467 41.747,38.414 41.831,37.19 42.622,25.641 43.49,15.958 43.49,15.958 43.562,15.71 43.322,15.463 43.01,15.463 H 8.639 c 0,0 -1.7473477,20.980607 -1.8507,21.867 -0.1145,0.982 -0.466,1.804 -1.5498,2.183 l 34.546,-0.002 z"
         display="block"
         stroke="#3465a4"
         fill="url(#linearGradient9772)"
         sodipodi:nodetypes="cccscsccc"
         style="fill:url(#linearGradient9772)" /><path
         id="path304"
         opacity="0.46591"
         d="M 9.5391916,16.464 42.4112,16.529 40.8372,36.531 c -0.084,1.071 -0.45,1.428 -1.872,1.428 -1.872,0 -28.678,-0.032 -31.395,-0.032 0.2335,-0.321 0.3337,-0.989 0.335,-1.005 L 9.4786353,17.172824 Z"
         stroke="url(#linearGradient322)"
         stroke-linecap="round"
         stroke-width="1px"
         fill="none"
         style="stroke:url(#linearGradient322)"
         sodipodi:nodetypes="cccscccc" /><path
         id="path323"
         d="M 9.2556622,16.223 8.4536,31.866 c 0,0 8.2964,-4.148 18.666,-4.148 10.3696,0 15.555,-11.495 15.555,-11.495 L 10.206911,16.101487 Z"
         fill-opacity="0.089286"
         fill-rule="evenodd"
         fill="#ffffff"
         sodipodi:nodetypes="ccsccc" /></g><g
       id="g4"
       style="display:inline"
       transform="matrix(1.0271502,0,0,0.9124211,-0.42849272,3.2161654)"
       inkscape:label="open"><path
         fill="url(#o)"
         stroke="#3465a4"
         stroke-linejoin="round"
         stroke-width="1.00417"
         d="m 5.8559486,39.409514 c 0.103442,0.211469 0.3103265,0.423576 0.6206519,0.422928 l 33.5195985,-0.06999 c 0.4136,-8.63e-4 1.234708,-0.509959 1.575817,-1.337364 3.406971,-8.264057 5.547169,-12.983254 5.651187,-19.734262 C 47.326645,18.479366 47.010326,18.551293 46.7,18.551293 H 11.776358 c -0.310326,0 -1.330823,17.026248 -4.8403645,20.420419 l -1.1834868,0.437801 z"
         display="block"
         overflow="visible"
         style="fill:url(#o);marker:none"
         transform="matrix(0.98877,0,0,1.00298,-0.111407,-0.106563)"
         id="path32"
         sodipodi:nodetypes="cssscssccc" /><path
         fill="url(#p)"
         fill-rule="evenodd"
         d="m 13.134476,20.138641 c -0.772747,4.990757 -1.829795,10.224442 -3.044484,14.729063 2.386485,-0.707107 7.44461,-4.419704 17.44461,-4.419704 10,0 16.723573,-9.248699 17.651651,-10.353553 z"
         transform="matrix(0.98877,0,0,1.00298,-0.111407,-0.106563)"
         id="path33"
         style="fill:url(#p)"
         sodipodi:nodetypes="ccscc" /><path
         fill="none"
         stroke="url(#q)"
         stroke-linecap="round"
         stroke-width="1.00417"
         d="m 12.661612,19.598984 c -0.0893,1.007402 -1.052587,14.120135 -4.7222722,18.329098 8.1210772,0 30.0726182,0.98898 31.8627612,0.992045 2.988036,-6.899129 6.06594,-12.171148 6.353309,-19.361446 -8.269015,0.131065 -22.343098,0.03125 -33.493798,0.0403 z"
         opacity="0.522727"
         overflow="visible"
         style="stroke:url(#q);marker:none"
         transform="matrix(0.98877,0,0,1.00298,-0.111407,-0.106563)"
         id="path34"
         sodipodi:nodetypes="cccccc" /></g></g><g
     transform="matrix(0.14800387,0,0,0.14800387,154.10076,0.08208232)"
     id="g2265"
     inkscape:label="emule"
     style="display:inline"><path
       d="m 104.13113,717.02521 92.55949,-23.91295 -6.17296,24.01757 z M 54.898587,679.30157 c 1.534521,10.19527 13.985063,37.30513 23.285189,37.68876 l -60.427565,-0.0814 C 7.5376987,725.65107 1.4228663,741.71704 0.70210656,749.6919 -0.84403928,766.653 -0.65803677,775.04636 10.176609,782.59109 -2.5064367,794.64638 -1.1579185,844.29742 26.95171,872.40705 l 221.64524,-41.73431 c 47.00051,21.91342 118.26272,25.80785 161.6478,8.67236 l 231.515,39.88592 c 10.97414,-10.66027 40.15329,-45.52412 20.5649,-88.32794 10.11388,-14.47332 11.14852,-48.38391 -8.32361,-68.98368 l -165.29811,-0.94164 -8.26548,-29.88828 86.32841,20.98341 c 11.02065,-8.68399 49.59292,-51.73195 18.7165,-86.35166 19.50702,-19.69302 22.21568,-24.74996 2.52266,-55.41713 l -107.27694,-1.9879 c 6.95184,-22.56443 4.55706,-48.00027 -11.95066,-74.15687 -35.35211,-55.33575 -70.51821,-112.7524 -72.50611,-186.73489 l 18.90251,0.0349 -16.94948,-19.92552 34.48021,0.0581 -29.6674,-15.18246 27.48187,-19.69301 -41.4553,-0.22088 C 415.87133,181.02411 419.603,110.49428 428.10099,33.931 434.86683,-27.042947 390.29598,4.4612277 364.68576,48.009065 339.06392,91.556902 293.1678,145.021 289.18037,225.79259 l -42.33882,-39.94404 7.2076,49.19766 C 216.93002,187.8597 171.77791,153.08886 99.60894,112.56356 c -59.113922,-33.189823 -14.054815,70.86695 4.45243,99.08121 13.14806,20.0534 42.78058,57.60265 69.53007,87.07242 l -12.62492,23.38982 9.3815,-1.13927 -4.11531,12.36917 19.61164,3.58055 c 0,40.72292 12.54355,74.029 8.95137,115.40293 -4.37106,50.31368 -35.80548,85.56115 -29.44652,128.30685 l -98.418576,-0.558 c -19.634889,21.12291 -19.495388,56.21925 -1.790274,60.12531 -12.136664,8.77699 -12.996925,20.77415 -10.241763,39.10702 z"
       style="fill:#858683;fill-opacity:1;stroke:none;stroke-width:0.00762"
       id="_42184048" /><path
       d="m 387.61987,314.84129 c -8.27595,-83.29425 -191.26638,-78.83484 -191.26638,38.62109 0,37.58878 11.59145,66.63889 8.27595,104.82869 -5.5173,63.55473 -62.1632,96.14004 -4.59775,164.59943 29.07219,34.57438 118.72657,22.32728 156.32348,20.2301 72.09574,-4.02231 148.58229,-71.96786 101.15049,-146.20844 -32.6353,-51.07861 -68.04669,-113.79052 -69.88579,-182.07087 z"
       style="fill:none;stroke:#1f1a17;stroke-width:4.10019"
       id="path13-1" /><path
       d="m 337.96418,428.86547 c 9.67096,7.73189 56.21228,17.19245 56.32504,-0.92303 0.11044,-17.83881 -0.50453,-32.98871 -2.75865,-43.01773 -2.25411,-10.02903 -6.84373,-29.03267 -16.09386,-37.21562 -5.81258,-5.14181 -21.0427,-8.0946 -29.65113,-5.51381 -8.60843,2.58078 -22.51909,42.38648 -22.5342,55.4055 -0.0209,17.00993 5.04183,23.5328 14.7128,31.26469 z"
       style="fill:none;stroke:#1f1a17;stroke-width:4.10019"
       id="path15-9" /><path
       d="m 248.41676,462.85627 c 23.43631,-11.42753 42.61782,-24.09663 38.11307,-58.77679 -1.75423,-13.51309 -18.96644,-36.37279 -29.84759,-43.6234 -27.48187,-18.31311 -45.91936,13.49564 -43.6234,39.94985 1.70541,19.66046 11.9216,73.87787 35.35792,62.45034 z"
       style="fill:none;stroke:#1f1a17;stroke-width:4.10019"
       id="path17-4" /><path
       d="m 260.71734,645.92691 c 8.50729,2.5122 13.3573,9.22572 25.75204,12.82604 31.47744,9.14086 61.11694,5.45568 85.12986,-2.72029"
       style="fill:none;stroke:#1f1a17;stroke-width:4.10019"
       id="path23-7" /><path
       d="m 370.19841,641.58143 c -0.15694,17.74812 6.48103,32.07148 14.66281,47.51666 13.86416,26.17521 61.40175,27.29471 65.28804,-6.43685 2.7075,-23.49909 -3.47708,-44.81498 -22.47607,-64.4394 m 21.37401,38.00612 c 11.44845,19.88367 62.75376,101.81894 -15.44983,159.76802 -51.0263,37.81198 -205.78388,24.2989 -224.37018,-37.70155 -20.67534,-68.96973 2.55172,-85.76227 25.82529,-136.40726"
       style="fill:none;stroke:#1f1a17;stroke-width:4.10019"
       id="path25-84" /><path
       d="M 259.66177,265.72151 C 225.34896,212.52247 168.24968,163.82353 98.420849,123.11106 c -47.567817,-27.732969 8.102731,74.82184 22.993401,98.38952 14.89066,23.56768 57.64334,71.58771 81.35633,96.6283"
       style="fill:none;stroke:#1f1a17;stroke-width:4.10019"
       id="path27-5" /><path
       d="m 309.76503,258.1268 c -2.42384,-84.42073 -1.62403,-79.03828 18.38984,-118.83701 20.01387,-39.798719 38.25607,-71.415658 57.82702,-100.301847 15.26266,-22.527229 37.5353,-49.720795 30.80085,6.687953 -8.94556,74.931114 -20.65558,170.703804 -54.7324,228.156484"
       style="fill:none;stroke:#1f1a17;stroke-width:4.10019"
       id="path29-0" /><polyline
       transform="matrix(116.25157,0,0,116.25157,-0.4348338,-0.4283132)"
       class="fil1 str1"
       points="3.17115,2.26223 3.38424,2.25963 3.28167,2.36483 3.45525,2.38061 3.26063,2.43058 3.34742,2.48318 3.25348,2.48791 "
       id="polyline31"
       style="fill:none;stroke:#1f1a17;stroke-width:0.03527" /><polyline
       transform="matrix(116.25157,0,0,116.25157,-0.4348338,-0.4283132)"
       class="fil1 str1"
       points="2.55778,2.22466 2.55254,2.01962 2.48403,2.11975 2.3375,1.9677 2.34802,2.13602 2.21915,2.1255 2.33474,2.25913 "
       id="polyline33"
       style="fill:none;stroke:#1f1a17;stroke-width:0.03527" /><polyline
       transform="matrix(116.25157,0,0,116.25157,-0.4348338,-0.4283132)"
       class="fil1 str1"
       points="1.60432,2.58522 1.51694,2.69884 1.64055,2.6778 1.55376,2.78826 1.73077,2.78852 "
       id="polyline35"
       style="fill:none;stroke:#1f1a17;stroke-width:0.03527" /><path
       d="m 269.96399,646.55118 c -0.0442,-30.81829 4.46289,-61.39943 -7.97021,-86.26796 -12.46449,-24.93131 -26.25542,-46.50528 -43.80708,-69.92183"
       style="fill:none;stroke:#1f1a17;stroke-width:4.10019"
       id="path37-3" /><path
       d="m 411.57234,627.8556 c -13.15851,-23.50839 -21.5356,-56.29714 -21.5356,-86.5644 0,-23.46887 8.49799,-64.69516 19.18965,-88.65809"
       style="fill:none;stroke:#1f1a17;stroke-width:4.10019"
       id="path39-6" /><path
       d="m 270.66731,602.80107 c 1.09392,-35.67412 -60.74842,-40.6369 -60.74842,-87.85364 0,-56.38433 107.57222,-66.16574 154.99938,-66.16574 35.2312,0 64.94045,-1.60195 64.94045,39.82198 0,19.66511 -29.54767,48.50712 -38.33396,75.46935"
       style="fill:none;stroke:#1f1a17;stroke-width:4.10019"
       id="path41-1" /><path
       d="m 462.21501,581.0504 120.1925,1.28807 c 17.09828,26.37515 4.38617,30.53347 -12.55285,47.47249 35.23469,23.61185 14.8244,53.05837 -7.66446,73.83137 L 461.10481,678.52385"
       style="fill:none;stroke:#1f1a17;stroke-width:4.10019"
       id="path43-0" /><path
       d="m 476.09196,734.29089 172.80215,-0.5801 c 19.47097,17.84811 1.97743,45.82056 -15.89857,51.67034 4.66053,2.35758 23.69323,8.59796 26.91805,22.01107 3.22482,13.41311 6.96579,39.15353 -18.07944,63.50242 L 399.77862,830.83898"
       style="fill:none;stroke:#1f1a17;stroke-width:4.10019"
       id="path45-6" /><path
       d="m 179.73417,590.68533 -105.940053,-0.6731 c -17.956217,17.95622 -4.987193,42.11329 11.196188,45.43576 -11.086912,7.46219 -17.99923,23.35611 -15.476571,38.94893 1.412457,8.72584 14.095502,35.46603 22.62488,35.46603 L 215.98955,679.30157"
       style="fill:none;stroke:#1f1a17;stroke-width:4.10019"
       id="path47-3" /><path
       d="m 201.44182,725.0919 -177.154596,-0.007 c -5.889304,6.69144 -10.939272,14.93135 -11.640269,22.66789 -1.491508,16.43448 13.344517,25.45328 23.846684,32.75737 -24.551168,8.29222 -29.6371745,55.79959 -2.404082,83.03268 L 251.04288,818.65233"
       style="fill:none;stroke:#1f1a17;stroke-width:4.10019"
       id="path49-2" /><path
       d="m 131.79202,590.37959 c -3.10159,17.32381 -18.37937,20.05455 -31.57741,22.61209 21.84948,8.20038 5.71609,16.7658 0.32318,20.86134 18.10967,0 26.57511,5.84048 9.92905,17.56213 13.16084,0.2697 32.62135,2.79817 35.55089,45.15211"
       style="fill:none;stroke:#1f1a17;stroke-width:0.885837"
       id="path51" /><path
       d="m 87.239773,725.08725 c 0,19.15594 -21.597216,21.96806 -34.89872,26.14265 12.594694,5.55915 22.078497,13.11551 3.673549,22.0413 -1.815849,0.88003 33.847806,3.64681 9.695381,21.73672 17.886466,0.97651 42.782897,26.97618 34.282587,54.89864"
       style="fill:none;stroke:#1f1a17;stroke-width:0.885837"
       id="path53" /><path
       d="m 585.00573,733.9247 c 0,16.87507 20.60792,19.53956 33.18982,24.4663 -24.37097,9.88255 -0.54057,21.84135 2.64008,24.58488 -14.40008,0 -34.47906,1.26714 -12.41102,15.55097 -30.20099,11.94253 -34.57554,27.95967 -35.84036,60.90769"
       style="fill:none;stroke:#1f1a17;stroke-width:0.885837"
       id="path55" /><path
       d="m 511.64751,691.08251 c -2.40176,-26.91805 9.85697,-47.9189 33.56182,-48.74312 -17.86321,-20.73463 1.75773,-16.02761 11.86464,-16.02761 -3.65146,-3.69796 -25.60441,-18.45493 2.41687,-20.72649 -13.21316,-3.30271 -31.11241,-10.73932 -31.48209,-23.83041"
       style="fill:none;stroke:#1f1a17;stroke-width:0.885837"
       id="path57" /><path
       d="m 323.25138,397.60078 c 0.0151,-13.01902 13.92577,-52.82472 22.5342,-55.4055 8.60843,-2.58079 23.83855,0.372 29.65113,5.51381 9.25013,8.18295 13.83975,27.18659 16.09386,37.21562 2.25412,10.02902 2.86909,25.17892 2.75865,43.01773 -0.11276,18.11548 -46.65408,8.65492 -56.32504,0.92303 -9.67097,-7.73189 -14.73373,-14.25476 -14.7128,-31.26469 z m 41.66689,51.18091 c 16.94366,0 32.60856,-0.37084 44.30812,3.85258 12.62724,4.55706 20.63233,14.46634 20.63233,35.9694 0,19.66511 -29.54767,48.50712 -38.33396,75.46935 2.95628,23.16312 10.14876,46.0984 20.04758,63.78258 5.60682,-2.86676 11.00089,-6.08925 16.10085,-9.63376 14.49773,-10.07436 26.62509,-22.73997 34.54182,-37.17144 13.35498,-24.34424 14.72908,-53.71288 -4.70935,-84.13824 -32.6353,-51.07861 -68.04669,-113.79052 -69.88579,-182.07087 -0.98814,-9.94765 -4.46871,-18.64443 -9.83256,-26.04617 -4.19203,-5.78584 -9.53495,-10.78001 -15.73697,-14.96274 -14.11992,-9.52216 -32.69227,-14.83835 -52.28531,-15.70558 -4.24783,-0.18833 -8.54449,-0.16741 -12.85393,0.0651 -8.68632,0.46965 -17.42379,1.79841 -25.92875,4.00719 -3.82933,0.99511 -7.61215,2.16809 -11.32058,3.52242 -24.9627,9.11064 -46.58781,26.39259 -56.89119,52.40737 -0.72308,1.82747 -1.39153,3.69913 -2.00069,5.61263 -2.84933,8.95253 -4.4164,18.85367 -4.4164,29.72087 0,37.58878 11.59145,66.63889 8.27595,104.82869 -4.57682,52.72357 -44.34183,84.13475 -24.89527,132.39426 3.9944,9.91393 10.48705,20.53816 20.29752,32.20517 7.92952,9.42916 20.36379,15.37659 35.02079,18.99667 8.01554,1.97976 16.69489,3.26318 25.66486,4.03974 3.05392,0.26389 6.1404,0.46966 9.24665,0.62427 -0.0209,-14.84184 1.01255,-29.62904 0.70332,-43.75011 -0.0279,-1.22762 -0.0651,-2.45059 -0.11393,-3.66774 -3.08299,-32.40977 -60.63449,-38.63621 -60.63449,-84.1859 0,-9.44544 3.01905,-17.58305 8.26781,-24.58604 26.08569,-34.80107 107.24905,-41.5797 146.73157,-41.5797 z M 256.68224,360.45608 c 10.88115,7.25061 28.09336,30.11031 29.84759,43.6234 4.50475,34.68016 -14.67676,47.34926 -38.11307,58.77679 -23.43632,11.42753 -33.65251,-42.78988 -35.35792,-62.45034 -2.29596,-26.45421 16.14153,-58.26296 43.6234,-39.94985 z"
       style="fill:url(#radialGradient2314);fill-opacity:1;stroke:#1f1a17;stroke-width:0.885837"
       id="path59" /><path
       d="m 323.25138,397.60078 c 0.0151,-13.01902 13.92577,-52.82472 22.5342,-55.4055 8.60843,-2.58079 23.83855,0.372 29.65113,5.51381 9.25013,8.18295 13.83975,27.18659 16.09386,37.21562 2.25412,10.02902 2.86909,25.17892 2.75865,43.01773 -0.11276,18.11548 -46.65408,8.65492 -56.32504,0.92303 -9.67097,-7.73189 -14.73373,-14.25476 -14.7128,-31.26469 z m 41.66689,51.18091 c 16.94366,0 32.60856,-0.37084 44.30812,3.85258 12.62724,4.55706 20.63233,14.46634 20.63233,35.9694 0,19.66511 -29.54767,48.50712 -38.33396,75.46935 2.95628,23.16312 10.14876,46.0984 20.04758,63.78258 5.60682,-2.86676 11.00089,-6.08925 16.10085,-9.63376 14.49773,-10.07436 26.62509,-22.73997 34.54182,-37.17144 13.35498,-24.34424 14.72908,-53.71288 -4.70935,-84.13824 -47.11244,-95.037 -232.98589,-27.03796 -268.31588,13.14719 -1.82354,12.77028 -23.40365,40.4896 -9.45561,80.62598 3.50855,10.09611 10.48705,20.53816 20.29752,32.20517 7.92952,9.42916 20.36379,15.37659 35.02079,18.99667 8.01554,1.97976 16.69489,3.26318 25.66486,4.03974 3.05392,0.26389 6.1404,0.46966 9.24665,0.62427 -0.0209,-14.84184 1.01255,-29.62904 0.70332,-43.75011 -0.0279,-1.22762 -0.0651,-2.45059 -0.11393,-3.66774 -3.08299,-32.40977 -60.63449,-38.63621 -60.63449,-84.1859 0,-9.44544 3.01905,-17.58305 8.26781,-24.58604 26.08569,-34.80107 107.24905,-41.5797 146.73157,-41.5797 z M 256.68224,360.45608 c 10.88115,7.25061 28.09336,30.11031 29.84759,43.6234 4.50475,34.68016 -14.67676,47.34926 -38.11307,58.77679 -23.43632,11.42753 -33.65251,-42.78988 -35.35792,-62.45034 -2.29596,-26.45421 16.14153,-58.26296 43.6234,-39.94985 z"
       style="fill:url(#linearGradient2316);fill-opacity:1;stroke:#1f1a17;stroke-width:0.885837"
       id="path8164" /><circle
       cx="2.25913"
       cy="3.6178401"
       r="0.12639999"
       transform="matrix(116.25157,0,0,116.25157,-0.4348338,-0.4283132)"
       style="fill:#000000;stroke:#1f1a17;stroke-width:0.03527"
       id="circle19" /><path
       d="m 286.52983,404.07948 c -1.75423,-13.51309 -18.96644,-36.37279 -29.84759,-43.6234 -27.48187,-18.31311 -45.91936,13.49564 -43.6234,39.94985 1.70541,19.66046 11.9216,73.87787 35.35792,62.45034 23.43631,-11.42753 42.61782,-24.09663 38.11307,-58.77679 z m -24.33726,1.37758 c 8.11436,0 14.6942,6.57984 14.6942,14.6942 0,8.11435 -6.57984,14.69419 -14.6942,14.69419 -8.11436,0 -14.6942,-6.57984 -14.6942,-14.69419 0,-8.11436 6.57984,-14.6942 14.6942,-14.6942 z"
       style="fill:#ffffff;fill-opacity:1;stroke:#1f1a17;stroke-width:0.885837"
       id="path61" /><circle
       cx="2.96223"
       cy="3.5032899"
       r="0.12639999"
       transform="matrix(116.25157,0,0,116.25157,-0.4348338,-0.4283132)"
       style="fill:#000000;stroke:#1f1a17;stroke-width:0.03527"
       id="circle21" /><path
       d="m 345.78558,342.19528 c -8.60843,2.58078 -22.51909,42.38648 -22.5342,55.4055 -0.0209,17.00993 5.04183,23.5328 14.7128,31.26469 9.67096,7.73189 56.21228,17.19245 56.32504,-0.92303 0.11044,-17.83881 -0.50453,-32.98871 -2.75865,-43.01773 -2.25411,-10.02903 -6.84373,-29.03267 -16.09386,-37.21562 -5.81258,-5.14181 -21.0427,-8.0946 -29.65113,-5.51381 z m -1.85654,49.94516 c 8.11436,0 14.6942,6.57984 14.6942,14.6942 0,8.11436 -6.57984,14.6942 -14.6942,14.6942 -8.11435,0 -14.69419,-6.57984 -14.69419,-14.6942 0,-8.11436 6.57984,-14.6942 14.69419,-14.6942 z"
       style="fill:#ffffff;fill-opacity:1;stroke:#1f1a17;stroke-width:0.885837"
       id="path63" /><path
       d="m 364.91827,448.78169 c -39.48252,0 -120.64588,6.77863 -146.73157,41.5797 17.55166,23.41655 31.34259,44.99052 43.80708,69.92183 5.92418,11.85068 8.00276,24.99757 8.5596,38.85011 0.11277,1.18693 0.15229,2.40757 0.11393,3.66774 0.30923,14.12107 -0.72425,28.90827 -0.70332,43.75011 32.26097,1.60427 66.56448,-2.32503 86.39118,-3.43058 4.60705,-0.25692 9.2327,-0.7754 13.84324,-1.53917 14.27221,-2.36572 28.39445,-7.09019 41.37393,-13.72583 -9.89882,-17.68418 -17.0913,-40.61946 -20.04758,-63.78258 -0.97419,-7.62959 -1.48802,-15.28243 -1.48802,-22.78182 0,-23.46887 8.49799,-64.69516 19.18965,-88.65809 -11.69956,-4.22226 -27.36446,-3.85142 -44.30812,-3.85142 z"
       style="fill:url(#linearGradient2318);fill-opacity:1;stroke:#1f1a17;stroke-width:0.885837"
       id="path65" /><path
       d="m 261.99378,560.28322 c -12.46449,-24.93131 -26.25542,-46.50528 -43.80708,-69.92183 -5.24876,7.00299 -8.26781,15.1406 -8.26781,24.58604 0,45.54969 57.5515,51.77613 60.63449,84.1859 -0.55684,-13.85254 -2.63542,-26.99943 -8.5596,-38.85011 z"
       style="fill:#5b5857;fill-opacity:1;stroke:#1f1a17;stroke-width:0.885837"
       id="path67" /><path
       d="m 409.22639,452.63311 c -10.69166,23.96293 -19.18965,65.18922 -19.18965,88.65809 0,7.49939 0.51383,15.15223 1.48802,22.78182 8.78629,-26.96223 38.33396,-55.80424 38.33396,-75.46935 0,-21.50306 -8.00509,-31.41234 -20.63233,-35.97056 z"
       style="fill:#5b5857;fill-opacity:1;stroke:#1f1a17;stroke-width:0.885837"
       id="path69" /><path
       d="m 356.35517,643.1206 c -19.8267,1.10555 -54.13021,5.03485 -86.39118,3.43058 -3.10625,-0.15461 -6.19273,-0.36038 -9.24665,-0.62427 8.50729,2.5122 13.3573,9.22572 25.75204,12.82604 31.47744,9.14086 61.11694,5.45568 85.12986,-2.72029 -0.93815,-4.60938 -1.445,-9.3908 -1.40083,-14.45123 -4.61054,0.76377 -9.23619,1.28225 -13.84324,1.53917 z"
       style="fill:#a66a33;fill-opacity:1;stroke:#1f1a17;stroke-width:0.885837"
       id="path71" /><path
       d="m 371.59924,656.03266 c -24.01292,8.17597 -53.65242,11.86115 -85.12986,2.72029 -12.39474,-3.60032 -17.24475,-10.31384 -25.75204,-12.82604 -8.96997,-0.77656 -17.64932,-2.05998 -25.66486,-4.03974 -6.70772,14.59771 -13.41195,26.38213 -19.06293,37.4144 -7.65052,14.93833 -13.36777,28.49791 -14.54773,45.79033 -0.9707,14.24663 1.13811,31.02755 7.78537,53.20253 5.15808,17.20756 20.80671,30.68112 41.81569,40.3579 41.82383,19.26521 104.89146,23.48746 148.73574,12.18665 13.48286,-3.47476 25.1487,-8.41778 33.81875,-14.843 33.83036,-25.06849 43.42461,-54.62429 42.49459,-81.70509 -0.73006,-21.2287 -7.92719,-40.93683 -14.98715,-55.76704 -4.75352,-9.98368 -9.44428,-17.75626 -12.05761,-22.29589 1.86351,8.50032 2.15414,17.30172 1.10206,26.43328 -3.88629,33.73156 -51.42388,32.61206 -65.28804,6.43685 -5.84861,-11.04157 -10.90905,-21.51002 -13.26198,-33.06543 z"
       style="fill:url(#radialGradient2320);fill-opacity:1;stroke:#1f1a17;stroke-width:0.885837"
       id="path73" /><path
       d="m 371.59924,656.03266 c 2.35293,11.55541 7.41337,22.02386 13.26198,33.06543 13.86416,26.17521 61.40175,27.29471 65.28804,-6.43685 1.05208,-9.13156 0.76145,-17.93296 -1.10206,-26.43328 -2.93187,-13.3759 -9.75699,-26.0078 -21.37401,-38.00612 -5.09996,3.54451 -10.49403,6.767 -16.10085,9.63376 -12.97948,6.63564 -27.10172,11.36011 -41.37393,13.72583 -0.0442,5.06043 0.46268,9.84185 1.40083,14.45123 z"
       style="fill:url(#radialGradient2322);fill-opacity:1;stroke:#1f1a17;stroke-width:0.885837"
       id="path75" /><path
       d="m 427.67319,618.22184 c 11.61702,11.99832 18.44214,24.63022 21.37401,38.00612 2.61333,4.53963 7.30409,12.31221 12.05761,22.29589 l 50.5427,12.55866 c -2.40176,-26.91805 9.85697,-47.9189 33.56182,-48.74312 -17.86321,-20.73463 1.75773,-16.02761 11.86464,-16.02761 -3.65146,-3.69796 -25.60441,-18.45493 2.41687,-20.72649 -13.21316,-3.30271 -31.11241,-10.73932 -31.48209,-23.83041 l -65.79374,-0.70448 c -7.91673,14.43147 -20.04409,27.09708 -34.54182,37.17144 z"
       style="fill:url(#linearGradient2324);fill-opacity:1;stroke:#1f1a17;stroke-width:0.885837"
       id="path77" /><path
       d="m 585.00573,733.9247 -108.91377,0.36619 c 0.93002,27.0808 -8.66423,56.6366 -42.49459,81.70509 -8.67005,6.42522 -20.33589,11.36824 -33.81875,14.843 l 172.80563,28.59556 c 1.26482,-32.94802 5.63937,-48.96516 35.84036,-60.90769 -22.06804,-14.28383 -1.98906,-15.55097 12.41102,-15.55097 -3.18065,-2.74353 -27.01105,-14.70233 -2.64008,-24.58488 -12.5819,-4.92674 -33.18982,-7.59123 -33.18982,-24.4663 z"
       style="fill:url(#linearGradient2326);fill-opacity:1;stroke:#1f1a17;stroke-width:0.885837"
       id="path79" /><path
       d="m 251.04288,818.65233 c -21.00898,-9.67678 -36.65761,-23.15034 -41.81569,-40.3579 -6.64726,-22.17498 -8.75607,-38.9559 -7.78537,-53.20253 l -114.202047,-0.005 c 0,19.15594 -21.597216,21.96806 -34.89872,26.14265 12.594694,5.55915 22.078497,13.11551 3.673549,22.0413 -1.815849,0.88003 33.847806,3.64681 9.695381,21.73672 17.886466,0.97651 42.782897,26.97618 34.282587,54.89864 l 151.05031,-31.25423 z"
       style="fill:url(#linearGradient2328);fill-opacity:1;stroke:#1f1a17;stroke-width:0.885837"
       id="path81" /><path
       d="m 146.01773,696.56726 69.97182,-17.26569 c 5.65098,-11.03227 12.35521,-22.81669 19.06293,-37.4144 -14.657,-3.62008 -27.09127,-9.56751 -35.02079,-18.99667 -9.81047,-11.66701 -16.30312,-22.29124 -20.29752,-32.20517 l -47.94215,-0.30574 c -3.10159,17.32381 -18.37937,20.05455 -31.57741,22.61209 21.84948,8.20038 5.71609,16.7658 0.32318,20.86134 18.10967,0 26.57511,5.84048 9.92905,17.56213 13.16084,0.2697 32.62135,2.79817 35.55089,45.15211 z"
       style="fill:url(#linearGradient2330);fill-opacity:1;stroke:#1f1a17;stroke-width:0.885837"
       id="path83" /><path
       d="m 309.76503,258.1268 c 19.59304,0.86723 38.16539,6.18342 52.28531,15.70558 2.14135,-3.61077 4.19552,-7.37383 6.16598,-11.27291 29.37212,-58.13741 40.18352,-146.66182 48.56642,-216.883574 6.73445,-56.408748 -15.53819,-29.215182 -30.80085,-6.687953 -19.57095,28.886189 -37.81315,60.503128 -57.82702,100.301847 -20.01387,39.79873 -20.81368,34.41628 -18.38984,118.83701 z"
       style="fill:url(#radialGradient2332);fill-opacity:1;stroke:#1f1a17;stroke-width:0.885837"
       id="path85" /><path
       d="M 259.66177,265.72151 C 225.34896,212.52247 168.24968,163.82353 98.420849,123.11106 c -47.567817,-27.732969 8.102731,74.82184 22.993401,98.38952 11.81813,18.70371 41.18444,52.8096 64.65563,78.60698 6.10321,6.70772 11.80767,12.85394 16.7007,18.02132 10.30338,-26.01478 31.92849,-43.29673 56.89119,-52.40737 z"
       style="fill:url(#radialGradient2334);fill-opacity:1;stroke:#1f1a17;stroke-width:0.885837"
       id="path87" /><path
       d="m 65.709983,795.00792 c 24.152425,-18.08991 -11.51123,-20.85669 -9.695381,-21.73672 18.404948,-8.92579 8.921145,-16.48215 -3.673549,-22.0413 13.301504,-4.17459 34.89872,-6.98671 34.89872,-26.14265 l -62.952549,-0.002 c -5.889304,6.69144 -10.939272,14.93135 -11.640269,22.66789 -1.491508,16.43448 13.344517,25.45328 23.846684,32.75737 -24.551168,8.29222 -29.6371745,55.79959 -2.404082,83.03268 L 99.99257,849.90656 C 108.49288,821.9841 83.596449,795.98443 65.709983,795.00792 Z"
       style="fill:url(#linearGradient2336);fill-opacity:1;stroke:#1f1a17;stroke-width:0.885837"
       id="path89" /><path
       d="m 92.138614,709.86295 53.879116,-13.29569 c -2.92954,-42.35394 -22.39005,-44.88241 -35.55089,-45.15211 16.64606,-11.72165 8.18062,-17.56213 -9.92905,-17.56213 5.39291,-4.09554 21.5263,-12.66096 -0.32318,-20.86134 13.19804,-2.55754 28.47582,-5.28828 31.57741,-22.61209 l -57.997903,-0.36736 c -17.956217,17.95622 -4.987193,42.11329 11.196188,45.43576 -11.086912,7.46219 -17.99923,23.35611 -15.476571,38.94893 1.412457,8.72584 14.095502,35.46603 22.62488,35.46603 z"
       style="fill:url(#linearGradient2338);fill-opacity:1;stroke:#1f1a17;stroke-width:0.885837"
       id="path91" /><path
       d="m 608.42461,798.52685 c -30.20099,11.94253 -34.57554,27.95967 -35.84036,60.90769 l 69.2499,11.46008 c 25.04523,-24.34889 21.30426,-50.08931 18.07944,-63.50242 -3.22482,-13.41311 -22.25752,-19.65349 -26.91805,-22.01107 17.876,-5.84978 35.36954,-33.82223 15.89857,-51.67034 l -63.88838,0.21391 c 0,16.87507 20.60792,19.53956 33.18982,24.4663 -24.37097,9.88255 -0.54057,21.84135 2.64008,24.58488 -14.40008,0 -34.47906,1.26714 -12.41102,15.55097 z"
       style="fill:url(#linearGradient2340);fill-opacity:1;stroke:#1f1a17;stroke-width:0.885837"
       id="path93" /><path
       d="m 511.64751,691.08251 50.54269,12.55982 c 22.48886,-20.773 42.89915,-50.21952 7.66446,-73.83137 16.93902,-16.93902 29.65113,-21.09734 12.55285,-47.47249 l -54.39876,-0.58359 c 0.36968,13.09109 18.26893,20.5277 31.48209,23.83041 -28.02128,2.27156 -6.06833,17.02853 -2.41687,20.72649 -10.10691,0 -29.72785,-4.70702 -11.86464,16.02761 -23.70485,0.82422 -35.96358,21.82507 -33.56182,48.74312 z"
       style="fill:url(#linearGradient2342);fill-opacity:1;stroke:#1f1a17;stroke-width:0.885837"
       id="path95" /><path
       d="m 270.98235,262.19909 c 8.50496,-2.20878 17.24243,-3.53754 25.92875,-4.00719 l -0.60916,-23.83622 -7.96439,11.64027 -17.03435,-17.67606 1.22297,19.56747 -14.98134,-1.22297 z"
       style="fill:#a66a33;fill-opacity:1;stroke:#1f1a17;stroke-width:0.885837"
       id="path97" /><path
       d="m 202.77058,318.12888 c -4.89303,-5.16738 -10.59749,-11.3136 -16.7007,-18.02132 l -10.15806,13.20851 14.36985,-2.44594 -10.08947,12.84115 20.57769,0.0302 c 0.60916,-1.9135 1.27761,-3.78516 2.00069,-5.61263 z"
       style="fill:#a66a33;fill-opacity:1;stroke:#1f1a17;stroke-width:0.885837"
       id="path99" /><path
       d="m 368.21632,262.55947 c -1.97046,3.89908 -4.02463,7.66214 -6.16598,11.27291 6.20202,4.18273 11.54494,9.1769 15.73697,14.96274 l 10.92068,-0.54987 -10.08948,-6.11483 22.62488,-5.80909 -20.17894,-1.83445 11.92392,-12.22967 z"
       style="fill:#a66a33;fill-opacity:1;stroke:#1f1a17;stroke-width:0.885837"
       id="path101" /></g><metadata
     id="metadata2"><rdf:RDF><cc:Work
         rdf:about=""><dc:source>https://commons.wikimedia.org/wiki/Tango_icons#</dc:source><cc:license
           rdf:resource="http://creativecommons.org/publicdomain/zero/1.0/" /><dc:title>Folder open/close recreated</dc:title><dc:publisher><cc:Agent><dc:title>Blackcrack</dc:title></cc:Agent></dc:publisher><dc:relation>Folder and Folder Open</dc:relation><dc:description>20250701 Recreated Folder open and close in one</dc:description><dc:contributor><cc:Agent><dc:title>Blackcrack</dc:title></cc:Agent></dc:contributor></cc:Work><cc:License
         rdf:about="http://creativecommons.org/publicdomain/zero/1.0/"><cc:permits
           rdf:resource="http://creativecommons.org/ns#Reproduction" /><cc:permits
           rdf:resource="http://creativecommons.org/ns#Distribution" /><cc:permits
           rdf:resource="http://creativecommons.org/ns#DerivativeWorks" /></cc:License></rdf:RDF></metadata></svg>
