<?xml version="1.0" encoding="UTF-8" standalone="no"?>
<!-- Created with Inkscape (http://www.inkscape.org/) -->

<svg
   width="256mm"
   height="256mm"
   viewBox="0 0 256 256"
   version="1.1"
   id="svg1"
   inkscape:version="1.4.2 (ebf0e940d0, 2025-05-08)"
   sodipodi:docname="folder-applications-symbolic.svg"
   xml:space="preserve"
   xmlns:inkscape="http://www.inkscape.org/namespaces/inkscape"
   xmlns:sodipodi="http://sodipodi.sourceforge.net/DTD/sodipodi-0.dtd"
   xmlns:xlink="http://www.w3.org/1999/xlink"
   xmlns="http://www.w3.org/2000/svg"
   xmlns:svg="http://www.w3.org/2000/svg"
   xmlns:rdf="http://www.w3.org/1999/02/22-rdf-syntax-ns#"
   xmlns:cc="http://creativecommons.org/ns#"
   xmlns:dc="http://purl.org/dc/elements/1.1/"><title
     id="title1">Folder Symbolic Open/Close</title><defs
     id="defs1"><linearGradient
       id="linearGradient3"
       inkscape:collect="always"><stop
         style="stop-color:#babdb6;stop-opacity:1;"
         offset="0"
         id="stop5" /><stop
         style="stop-color:#202020;stop-opacity:1;"
         offset="1"
         id="stop6" /></linearGradient><linearGradient
       id="linearGradient1"
       inkscape:collect="always"><stop
         style="stop-color:#7a7a7a;stop-opacity:1;"
         offset="0"
         id="stop1" /><stop
         style="stop-color:#707070;stop-opacity:1;"
         offset="0.38631266"
         id="stop3" /><stop
         style="stop-color:#595959;stop-opacity:1;"
         offset="0.65277058"
         id="stop4" /><stop
         style="stop-color:#4b4b4b;stop-opacity:1;"
         offset="1"
         id="stop2" /></linearGradient><linearGradient
       id="linearGradient32"
       inkscape:collect="always"><stop
         style="stop-color:#f4f4f4;stop-opacity:0.42167604;"
         offset="0"
         id="stop32" /><stop
         style="stop-color:#f4f4f4;stop-opacity:0;"
         offset="1"
         id="stop33" /></linearGradient><linearGradient
       id="linearGradient20"
       inkscape:collect="always"><stop
         style="stop-color:#f3f7fb;stop-opacity:1;"
         offset="0"
         id="stop21" /><stop
         style="stop-color:#f3f7fb;stop-opacity:0;"
         offset="1"
         id="stop22" /></linearGradient><linearGradient
       id="linearGradient15"
       inkscape:collect="always"><stop
         style="stop-color:#719ecf;stop-opacity:1;"
         offset="0"
         id="stop16" /><stop
         style="stop-color:#8aafd7;stop-opacity:1;"
         offset="0.25390714"
         id="stop18" /><stop
         style="stop-color:#719ecf;stop-opacity:1;"
         offset="0.4463878"
         id="stop19" /><stop
         style="stop-color:#4f87c3;stop-opacity:1;"
         offset="0.7372098"
         id="stop20" /><stop
         style="stop-color:#2c5681;stop-opacity:1;"
         offset="1"
         id="stop17" /></linearGradient><linearGradient
       id="linearGradient11"
       inkscape:collect="always"><stop
         style="stop-color:#dce6f3;stop-opacity:1;"
         offset="0"
         id="stop11" /><stop
         style="stop-color:#bdd0ea;stop-opacity:1;"
         offset="0.21857853"
         id="stop13" /><stop
         style="stop-color:#9bb8de;stop-opacity:1;"
         offset="0.51587749"
         id="stop14" /><stop
         style="stop-color:#77a0d1;stop-opacity:1;"
         offset="0.8174454"
         id="stop15" /><stop
         style="stop-color:#9ebbe0;stop-opacity:1;"
         offset="1"
         id="stop12" /></linearGradient><linearGradient
       inkscape:collect="always"
       xlink:href="#linearGradient11"
       id="linearGradient12"
       x1="123.00126"
       y1="92.722893"
       x2="148.01651"
       y2="200.25244"
       gradientUnits="userSpaceOnUse" /><linearGradient
       inkscape:collect="always"
       xlink:href="#linearGradient15"
       id="linearGradient17"
       x1="119.17952"
       y1="81.366829"
       x2="129.61365"
       y2="228.20688"
       gradientUnits="userSpaceOnUse" /><linearGradient
       inkscape:collect="always"
       xlink:href="#linearGradient32"
       id="linearGradient33"
       x1="138.21974"
       y1="89.349197"
       x2="152.51729"
       y2="168.33191"
       gradientUnits="userSpaceOnUse" /><linearGradient
       inkscape:collect="always"
       xlink:href="#linearGradient32"
       id="linearGradient36"
       gradientUnits="userSpaceOnUse"
       x1="138.21974"
       y1="89.349197"
       x2="144.36659"
       y2="191.34566" /><linearGradient
       inkscape:collect="always"
       xlink:href="#linearGradient15"
       id="linearGradient37"
       gradientUnits="userSpaceOnUse"
       x1="119.17952"
       y1="81.366829"
       x2="125.66673"
       y2="211.10358" /><linearGradient
       inkscape:collect="always"
       xlink:href="#linearGradient11"
       id="linearGradient38"
       gradientUnits="userSpaceOnUse"
       x1="123.00126"
       y1="92.722893"
       x2="148.01651"
       y2="200.25244" /><linearGradient
       inkscape:collect="always"
       xlink:href="#linearGradient1"
       id="linearGradient2"
       x1="49.730732"
       y1="20.606987"
       x2="84.292465"
       y2="218.6758"
       gradientUnits="userSpaceOnUse" /><radialGradient
       inkscape:collect="always"
       xlink:href="#linearGradient20"
       id="radialGradient1"
       cx="58.297417"
       cy="74.405579"
       fx="58.297417"
       fy="74.405579"
       r="86.628471"
       gradientTransform="matrix(1.6487439,0,0,1.7618185,-37.820092,-59.834146)"
       gradientUnits="userSpaceOnUse" /><linearGradient
       inkscape:collect="always"
       xlink:href="#linearGradient3"
       id="linearGradient6"
       x1="53.15662"
       y1="40.153225"
       x2="69.586563"
       y2="199.66118"
       gradientUnits="userSpaceOnUse" /><radialGradient
       xlink:href="#linearGradient980"
       id="radialGradient699"
       cx="25.139208"
       cy="227.04512"
       r="34.293636"
       fx="25.139208"
       fy="227.04512"
       gradientTransform="scale(1.8575459,0.5383447)"
       gradientUnits="userSpaceOnUse" /><linearGradient
       id="linearGradient980"><stop
         style="stop-color:#190019;stop-opacity:1;"
         offset="0"
         id="stop981" /><stop
         style="stop-color:#196f19;stop-opacity:1;"
         offset="1"
         id="stop982" /></linearGradient><radialGradient
       xlink:href="#linearGradient676"
       id="radialGradient697"
       cx="60.208889"
       cy="138.07115"
       r="10.553431"
       fx="60.208889"
       fy="138.07115"
       gradientTransform="scale(1.4374398,0.69568133)"
       gradientUnits="userSpaceOnUse" /><linearGradient
       id="linearGradient676"><stop
         style="stop-color:#b07a3a;stop-opacity:1;"
         offset="0"
         id="stop677" /><stop
         style="stop-color:#573e25;stop-opacity:1;"
         offset="1"
         id="stop678" /></linearGradient><linearGradient
       id="linearGradient703"><stop
         style="stop-color:#707070;stop-opacity:1;"
         offset="0"
         id="stop704" /><stop
         style="stop-color:#dddddf;stop-opacity:1;"
         offset="1"
         id="stop705" /></linearGradient><radialGradient
       xlink:href="#linearGradient676"
       id="radialGradient698"
       cx="25.241104"
       cy="137.9843"
       r="12.182159"
       fx="25.241104"
       fy="137.9843"
       gradientTransform="scale(1.4374394,0.69568152)"
       gradientUnits="userSpaceOnUse" /><linearGradient
       xlink:href="#linearGradient703"
       id="linearGradient694"
       x1="18.273685"
       y1="95.546097"
       x2="18.940052"
       y2="83.566681"
       gradientTransform="scale(0.88098094,1.1350983)"
       gradientUnits="userSpaceOnUse" /><linearGradient
       id="linearGradient2-3"
       gradientTransform="scale(0.92025742,1.0866525)"
       x1="18.313948"
       y1="64.925941"
       x2="36.905769"
       y2="64.925941"
       gradientUnits="userSpaceOnUse"><stop
         style="stop-color:#b07a3a;stop-opacity:1;"
         offset="0"
         id="stop1-6" /><stop
         style="stop-color:#573e25;stop-opacity:1;"
         offset="1"
         id="stop2-7" /></linearGradient><radialGradient
       xlink:href="#linearGradient676"
       id="radialGradient696"
       cx="73.204811"
       cy="75.68222"
       r="12.711828"
       fx="73.204811"
       fy="75.68222"
       gradientTransform="scale(1.0582811,0.94492856)"
       gradientUnits="userSpaceOnUse" /><linearGradient
       id="linearGradient812"><stop
         style="stop-color:#ffffff;stop-opacity:0.5529;"
         offset="0"
         id="stop813" /><stop
         style="stop-color:#ffffff;stop-opacity:0;"
         offset="1"
         id="stop814" /></linearGradient><linearGradient
       xlink:href="#linearGradient703"
       id="linearGradient675"
       x1="101.3718"
       y1="82.268143"
       x2="105.63546"
       y2="62.224236"
       gradientTransform="scale(0.92025535,1.0866549)"
       gradientUnits="userSpaceOnUse" /><linearGradient
       id="linearGradient4-5"
       gradientTransform="scale(1.9199938,0.52083502)"
       x1="8.1229324"
       y1="180.87456"
       x2="22.420769"
       y2="180.87456"
       gradientUnits="userSpaceOnUse"><stop
         style="stop-color:#707070;stop-opacity:1;"
         offset="0"
         id="stop3-3" /><stop
         style="stop-color:#dddddf;stop-opacity:1;"
         offset="1"
         id="stop4-5" /></linearGradient><radialGradient
       xlink:href="#linearGradient676"
       id="radialGradient695"
       cx="308.71594"
       cy="295.01953"
       r="38.10957"
       fx="308.71594"
       fy="295.01953"
       gradientTransform="scale(0.81476651,1.2273455)"
       gradientUnits="userSpaceOnUse" /><linearGradient
       xlink:href="#linearGradient676"
       id="linearGradient680"
       gradientTransform="scale(0.93368968,1.0710197)"
       x1="24.477604"
       y1="17.096983"
       x2="53.134998"
       y2="17.096983"
       gradientUnits="userSpaceOnUse" /><linearGradient
       xlink:href="#linearGradient676"
       id="linearGradient679"
       gradientTransform="scale(0.51218964,1.9524018)"
       x1="112.58018"
       y1="1.5734881"
       x2="131.31755"
       y2="1.5734881"
       gradientUnits="userSpaceOnUse" /><linearGradient
       xlink:href="#linearGradient676"
       id="linearGradient649"
       x1="72.467018"
       y1="48.528385"
       x2="72.467033"
       y2="29.314993"
       gradientTransform="scale(0.85998803,1.1628069)"
       gradientUnits="userSpaceOnUse" /><linearGradient
       xlink:href="#linearGradient812"
       id="linearGradient848"
       x1="51.151138"
       y1="118.59911"
       x2="51.198723"
       y2="128.64972"
       gradientTransform="scale(1.7047892,0.5865828)"
       gradientUnits="userSpaceOnUse" /><linearGradient
       xlink:href="#linearGradient812"
       id="linearGradient816"
       x1="45.169682"
       y1="94.73996"
       x2="49.41716"
       y2="118.30567"
       gradientTransform="scale(1.2923332,0.77379427)"
       gradientUnits="userSpaceOnUse" /><linearGradient
       xlink:href="#linearGradient703"
       id="linearGradient681"
       x1="54.121799"
       y1="99.151703"
       x2="53.696484"
       y2="66.149193"
       gradientTransform="scale(1.1679421,0.85620682)"
       gradientUnits="userSpaceOnUse" /><linearGradient
       xlink:href="#linearGradient660"
       id="linearGradient659"
       x1="64.442101"
       y1="76.155396"
       x2="63.012356"
       y2="53.064438"
       gradientTransform="scale(0.90631582,1.1033681)"
       gradientUnits="userSpaceOnUse" /><linearGradient
       id="linearGradient660"><stop
         style="stop-color:#4c4c4c;stop-opacity:1;"
         offset="0"
         id="stop661" /><stop
         style="stop-color:#dddddf;stop-opacity:1;"
         offset="1"
         id="stop662" /></linearGradient><linearGradient
       xlink:href="#linearGradient812"
       id="linearGradient695"
       x1="272.71365"
       y1="489.5177"
       x2="274.315"
       y2="497.94843"
       gradientTransform="scale(1.3269772,0.75359247)"
       gradientUnits="userSpaceOnUse" /><linearGradient
       xlink:href="#linearGradient820"
       id="linearGradient819"
       x1="56.595409"
       y1="97.991722"
       x2="52.86974"
       y2="77.346329"
       gradientTransform="scale(1.162984,0.85985708)"
       gradientUnits="userSpaceOnUse" /><linearGradient
       id="linearGradient820"><stop
         style="stop-color:#3f3f3f;stop-opacity:1;"
         offset="0"
         id="stop821" /><stop
         style="stop-color:#3f3f3f;stop-opacity:0;"
         offset="1"
         id="stop822" /></linearGradient><linearGradient
       xlink:href="#linearGradient812"
       id="linearGradient853"
       x1="498.81085"
       y1="255.80345"
       x2="494.49777"
       y2="256.70004"
       gradientTransform="scale(0.70710373,1.4142197)"
       gradientUnits="userSpaceOnUse" /><linearGradient
       xlink:href="#linearGradient812"
       id="linearGradient811"
       x1="273.93744"
       y1="525.12439"
       x2="273.66449"
       y2="532.89966"
       gradientTransform="scale(1.3351417,0.74898415)"
       gradientUnits="userSpaceOnUse" /><radialGradient
       cx="4.9929786"
       cy="43.5"
       r="2.5"
       fx="4.9929786"
       fy="43.5"
       id="radialGradient2873-966-168"
       xlink:href="#linearGradient3688-166-749"
       gradientUnits="userSpaceOnUse"
       gradientTransform="matrix(2.003784,0,0,1.4,27.98813,-17.4)" /><linearGradient
       id="linearGradient3688-166-749"><stop
         id="stop2883"
         style="stop-color:#181818;stop-opacity:1"
         offset="0" /><stop
         id="stop2885-7"
         style="stop-color:#181818;stop-opacity:0"
         offset="1" /></linearGradient><radialGradient
       cx="4.9929786"
       cy="43.5"
       r="2.5"
       fx="4.9929786"
       fy="43.5"
       id="radialGradient2875-742-326"
       xlink:href="#linearGradient3688-166-749"
       gradientUnits="userSpaceOnUse"
       gradientTransform="matrix(2.003784,0,0,1.4,-20.01187,-104.4)" /><linearGradient
       x1="25.058096"
       y1="47.027729"
       x2="25.058096"
       y2="39.999443"
       id="linearGradient2877-634-617"
       xlink:href="#linearGradient3702-501-757"
       gradientUnits="userSpaceOnUse" /><linearGradient
       id="linearGradient3702-501-757"><stop
         id="stop2895"
         style="stop-color:#181818;stop-opacity:0"
         offset="0" /><stop
         id="stop2897"
         style="stop-color:#181818;stop-opacity:1"
         offset="0.5" /><stop
         id="stop2899"
         style="stop-color:#181818;stop-opacity:0"
         offset="1" /></linearGradient><linearGradient
       id="linearGradient3993"><stop
         offset="0"
         style="stop-color:#a3c0d0;stop-opacity:1"
         id="stop3995" /><stop
         offset="1"
         style="stop-color:#427da1;stop-opacity:1;"
         id="stop4001" /></linearGradient><linearGradient
       id="linearGradient2508"><stop
         offset="0"
         style="stop-color:#2e4a5a;stop-opacity:0.76353276;"
         id="stop2510" /><stop
         offset="1"
         style="stop-color:#6e8796;stop-opacity:0.80911678;"
         id="stop2512" /></linearGradient><linearGradient
       id="linearGradient3575"><stop
         id="stop3577"
         style="stop-color:#fafafa;stop-opacity:0.76353276;"
         offset="0" /><stop
         id="stop3579"
         style="stop-color:#e6e6e6;stop-opacity:0.64672363;"
         offset="1" /></linearGradient><linearGradient
       id="linearGradient3308-4-6-931-761"><stop
         id="stop2919"
         style="stop-color:#ffffff;stop-opacity:0.7962963;"
         offset="0" /><stop
         id="stop2921-1"
         style="stop-color:#ffffff;stop-opacity:0"
         offset="1" /></linearGradient><linearGradient
       id="linearGradient121"><stop
         id="stop120"
         style="stop-color:#ffffff;stop-opacity:0.81908834;"
         offset="0" /><stop
         id="stop121"
         style="stop-color:#ffffff;stop-opacity:0"
         offset="1" /></linearGradient><linearGradient
       id="linearGradient56"><stop
         id="stop44-7"
         style="stop-color:#ffffff;stop-opacity:0.81481481;"
         offset="0" /><stop
         id="stop45-1"
         style="stop-color:#ffffff;stop-opacity:0"
         offset="1" /></linearGradient><radialGradient
       xlink:href="#b-6"
       id="c-5"
       cx="14.287618"
       cy="68.872971"
       r="11.68987"
       fx="14.287618"
       fy="72.568001"
       gradientTransform="matrix(1.6600541,0,0,0.34069411,0.63894949,19.305701)"
       gradientUnits="userSpaceOnUse" /><linearGradient
       id="b-6"><stop
         offset="0"
         stop-opacity=".32673267"
         id="stop1-9" /><stop
         offset="1"
         stop-opacity="0"
         id="stop2-3" /></linearGradient><linearGradient
       xlink:href="#a"
       id="d"
       x1="99.777298"
       x2="153.0005"
       y1="15.4238"
       y2="248.6311"
       gradientTransform="matrix(0.20069,0,0,0.20069,-0.585758,-1.050787)"
       gradientUnits="userSpaceOnUse" /><linearGradient
       id="a"
       x1="99.777298"
       x2="153.0005"
       y1="15.4238"
       y2="248.6311"
       gradientUnits="userSpaceOnUse"><stop
         offset="0"
         stop-color="#184375"
         id="stop3-6" /><stop
         offset="1"
         stop-color="#c8bddc"
         id="stop4-0" /></linearGradient></defs><sodipodi:namedview
     id="base"
     pagecolor="#ffffff"
     bordercolor="#000000"
     borderopacity="0.3"
     inkscape:pageopacity="0.0"
     inkscape:pageshadow="2"
     inkscape:zoom="0.32013818"
     inkscape:cx="529.45887"
     inkscape:cy="860.56589"
     inkscape:document-units="mm"
     inkscape:showpageshadow="2"
     inkscape:pagecheckerboard="0"
     inkscape:deskcolor="#d1d1d1"
     inkscape:current-layer="svg1"
     showguides="true" /><metadata
     id="metadata1"><rdf:RDF><cc:Work
         rdf:about=""><dc:format>image/svg+xml</dc:format><dc:type
           rdf:resource="http://purl.org/dc/dcmitype/StillImage" /><cc:license
           rdf:resource="http://creativecommons.org/publicdomain/zero/1.0/" /><dc:description>202507 - Folder symbolic open/close rebuild in SVG
https://commons.wikimedia.org/wiki/File:Tango_-_folder-open_22px.png
https://commons.wikimedia.org/wiki/File:Tango_-_folder_22px.png
https://web.archive.org/web/20080906080620/http://tango.freedesktop.org/Tango_Icon_Theme_Guidelines</dc:description><dc:contributor><cc:Agent><dc:title>Blackcrack</dc:title></cc:Agent></dc:contributor><dc:title>Folder Symbolic Open/Close</dc:title><dc:date>202507</dc:date><dc:creator><cc:Agent><dc:title>blackcrack</dc:title></cc:Agent></dc:creator><dc:publisher><cc:Agent><dc:title>blackcrack</dc:title></cc:Agent></dc:publisher><dc:source>https://commons.wikimedia.org/wiki/File:Tango_-_folder_22px.png</dc:source><dc:subject><rdf:Bag><rdf:li>Tango folder open close symbolic</rdf:li></rdf:Bag></dc:subject></cc:Work><cc:License
         rdf:about="http://creativecommons.org/publicdomain/zero/1.0/"><cc:permits
           rdf:resource="http://creativecommons.org/ns#Reproduction" /><cc:permits
           rdf:resource="http://creativecommons.org/ns#Distribution" /><cc:permits
           rdf:resource="http://creativecommons.org/ns#DerivativeWorks" /></cc:License></rdf:RDF></metadata><g
     id="g38"
     style="display:inline"><g
       id="g20"
       style="display:inline"
       inkscape:label="back"><path
         style="baseline-shift:baseline;display:inline;overflow:visible;opacity:1;vector-effect:none;fill:url(#linearGradient6);stroke-linecap:round;stroke-linejoin:round;paint-order:stroke fill markers;enable-background:accumulate;stop-color:#000000;stop-opacity:1"
         d="m 16.792115,27.533384 89.486765,0 12.66536,30.107111 80.39749,0.275334 -0.55067,156.844591 H 22.577377 Z"
         id="path24"
         sodipodi:nodetypes="ccccccc" /><g
         id="g6"
         style="fill:#888a85;fill-opacity:1"
         transform="translate(1.6529321)"><rect
           style="fill:#888a85;fill-opacity:1;fill-rule:evenodd;stroke-width:10;stroke-linecap:square;paint-order:stroke fill markers"
           id="rect1"
           width="95.257156"
           height="12.856794"
           x="23.37599"
           y="47.920776" /><rect
           style="fill:#888a85;fill-opacity:1;fill-rule:evenodd;stroke-width:10;stroke-linecap:square;paint-order:stroke fill markers"
           id="rect2"
           width="172.98233"
           height="12.856796"
           x="23.37599"
           y="71.881165" /><rect
           style="fill:#888a85;fill-opacity:1;fill-rule:evenodd;stroke-width:10;stroke-linecap:square;paint-order:stroke fill markers"
           id="rect3"
           width="172.98233"
           height="12.856796"
           x="23.37599"
           y="97.594749" /><rect
           style="fill:#888a85;fill-opacity:1;fill-rule:evenodd;stroke-width:10;stroke-linecap:square;paint-order:stroke fill markers"
           id="rect4"
           width="172.98233"
           height="12.856796"
           x="23.37599"
           y="123.89274" /><rect
           style="fill:#888a85;fill-opacity:1;fill-rule:evenodd;stroke-width:10;stroke-linecap:square;paint-order:stroke fill markers"
           id="rect5"
           width="172.98233"
           height="12.856796"
           x="23.37599"
           y="150.77512" /><rect
           style="fill:#888a85;fill-opacity:1;fill-rule:evenodd;stroke-width:10;stroke-linecap:square;paint-order:stroke fill markers"
           id="rect6"
           width="172.98233"
           height="12.856796"
           x="23.37599"
           y="176.48871" /></g><path
         id="rect20"
         style="display:inline;fill:url(#radialGradient1);stroke-width:14;stroke-linecap:round;stroke-linejoin:round;paint-order:stroke fill markers"
         d="m 16.142053,27.774909 87.404017,0 13.32652,27.322993 78.31167,0.877092 v 12.502363 h -80.07991 l -24.287085,-25.499825 -59.764638,0 5.127442,169.607768 -14.252754,0.32891 z"
         sodipodi:nodetypes="ccccccccccc" /><path
         style="baseline-shift:baseline;display:inline;overflow:visible;opacity:1;vector-effect:none;fill:url(#linearGradient2);fill-opacity:1;stroke-linecap:round;stroke-linejoin:round;paint-order:stroke fill markers;enable-background:accumulate;stop-color:#000000;stop-opacity:1"
         d="m 16.792863,19.024807 c -7.2809322,4e-4 -9.6767952,1.227464 -9.6771952,8.508396 L 12.90093,214.75977 c 4.02e-4,7.28093 2.396264,8.50799 9.677195,8.50839 H 198.79102 c 7.26342,-3.6e-4 7.89884,-1.20009 7.92399,-8.46347 l 0.55078,-156.845043 c 0.0234,-7.280189 -0.59889,-8.526196 -7.87907,-8.551365 L 126.29631,49.160236 105.65519,25.991604 c -3.23513,-3.631269 -7.10742,-6.966797 -11.625002,-6.966797 z m 4.61014,13.798157 71.133859,0 c 6.457111,7.218992 21.262858,20.332689 26.405268,27.775824 l 74.18984,0.230469 -0.46289,146.449963 H 27.865933 Z"
         id="path23"
         sodipodi:nodetypes="cccccccccsscccccccc" /></g><g
       id="rect8"
       style="display:inline;opacity:1"
       inkscape:label="close"><path
         style="baseline-shift:baseline;display:inline;overflow:visible;opacity:1;vector-effect:none;fill:url(#linearGradient17);stroke-linecap:round;stroke-linejoin:round;paint-order:stroke fill markers;enable-background:accumulate;stop-color:#000000;stop-opacity:1"
         d="M 45.949906,84.177349 H 228.45033 c 0,0 3.59389,85.323731 -4.48161,106.128751 -8.0755,20.80503 -15.05417,29.55296 -15.05417,29.55296 H 29.623165 c 0,0 3.607513,-7.34582 10.494315,-28.16958 6.886802,-20.82376 5.832426,-107.512131 5.832426,-107.512131 z"
         id="path11"
         sodipodi:nodetypes="ccsccsc" /><path
         style="baseline-shift:baseline;display:inline;overflow:visible;opacity:1;vector-effect:none;fill:url(#linearGradient12);stroke-linecap:round;stroke-linejoin:round;paint-order:stroke fill markers;enable-background:accumulate;stop-color:#000000;stop-opacity:1"
         d="m 57.018334,82.4929 c -3.825772,-4.2e-5 -9.735509,13.93263 -9.792461,17.75798 -0.555168,34.47665 0.194869,47.58898 -1.096149,66.26718 -0.71413,10.3319 -1.017665,11.65384 -0.903098,15.27287 0.114567,3.61904 0.390989,22.78313 1.638145,29.45541 1.247154,6.67228 12.173526,6.44685 19.994403,6.33456 7.820878,-0.11228 137.721976,6.34778 137.721976,6.34778 19.41496,0.9302 20.2335,-8.92464 22.2532,-14.65195 1.82319,-5.17007 8.59397,-101.26118 8.40442,-115.804191 -0.057,-3.82535 -3.45631,-11.508767 -7.28208,-11.508725 z M 67.355575,97.836951 216.03865,97.474155 c 0.75055,19.622145 -1.1089,69.653235 -2.1153,85.148415 -1.00646,15.49518 -7.77315,15.25548 -15.33842,16.24321 -7.56526,0.98774 -136.939842,0.71776 -136.939842,0.71776 4.536268,-36.26855 4.817316,-66.37185 3.440951,-96.74066 -0.128382,-2.8327 2.269536,-5.005929 2.269536,-5.005929 z"
         id="path10"
         sodipodi:nodetypes="ccszzzcsccccczzcsc" /><path
         id="rect32"
         style="fill:url(#linearGradient33);stroke-width:14;stroke-linecap:round;stroke-linejoin:round;paint-order:stroke fill markers"
         d="m 54.629707,92.1465 160.598173,1.316379 c 0,0 -1.6758,36.635821 -22.22646,46.541481 -20.55067,9.90566 -31.62979,11.41481 -73.57855,13.67001 -41.948756,2.25519 -64.793163,38.28846 -64.793163,38.28846 z"
         sodipodi:nodetypes="cczzcc" /><path
         style="baseline-shift:baseline;display:inline;overflow:visible;opacity:1;vector-effect:none;fill:#3666a6;stroke:none;stroke-linecap:round;stroke-linejoin:round;stroke-opacity:1;paint-order:stroke fill markers;enable-background:accumulate;stop-color:#000000;stop-opacity:1"
         d="m 55.126031,75.044922 c -12.367332,-0.07765 -14.909778,5.971171 -14.909778,13.250479 0,12.757309 0.33695,14.960119 -0.148027,35.378999 -0.484977,20.41888 -0.299705,44.78837 -3.000444,74.55242 -0.919094,10.12906 2.85487,5.08223 -7.706188,15.01611 -10.561058,9.93388 -11.079851,0.51211 -15.275107,5.17087 -2.694002,2.99164 6.823467,10.75206 15.540144,10.50619 l -0.0039,0.0723 c 57.789333,-0.008 173.159919,-0.364 179.321119,-0.17793 6.1612,0.18604 30.22082,1.77093 31.40355,-29.10956 1.18274,-30.8805 2.87439,-72.6766 2.87439,-110.083125 0,-8.311539 -4.55453,-14.576642 -9.54604,-14.576693 0,0 -153.815054,0.155241 -178.549719,-6e-5 z m 25.425085,12.195967 c 24.572354,0 149.304214,-1.016201 149.304214,-1.016201 1.24517,8.017923 -0.73667,41.313932 -0.89681,59.396982 -0.1567,17.69506 -1.35025,52.20807 -4.07445,59.74364 -2.7242,7.53557 -5.98064,8.31207 -20.70359,8.31207 -51.45839,0 -103.12962,-0.18086 -154.547732,-0.18086 0,0 1.998631,-10.77695 3.622636,-25.46778 1.624005,-14.69084 2.780351,-45.36515 3.267145,-62.23599 0.486793,-16.87084 -0.118427,-38.979083 -0.118427,-38.979083 0,0 11.860817,0.427202 24.146991,0.427202 z"
         id="path8"
         sodipodi:nodetypes="sszszscczzscsscszsczzcss" /></g><g
       id="g36"
       style="display:none;opacity:1"
       inkscape:label="open"
       transform="matrix(1.0002491,0.01640645,-0.05846776,1.0339087,5.6628172,-10.034201)"><path
         style="baseline-shift:baseline;display:inline;overflow:visible;opacity:1;vector-effect:none;fill:url(#linearGradient37);stroke-linecap:round;stroke-linejoin:round;paint-order:stroke fill markers;enable-background:accumulate;stop-color:#000000;stop-opacity:1"
         d="m 65.385965,117.40699 178.474275,-1.61982 c 0,0 2.02094,62.82192 -6.64444,79.11995 -8.86649,16.67629 -16.39804,23.85385 -16.39804,23.85385 l -188.679043,2.49555 c 0,0 5.648126,-5.59656 14.720655,-22.91534 13.951879,-26.6331 18.526593,-80.93419 18.526593,-80.93419 z"
         id="path33"
         sodipodi:nodetypes="ccsccsc" /><path
         style="baseline-shift:baseline;display:inline;overflow:visible;opacity:1;vector-effect:none;fill:url(#linearGradient38);stroke-linecap:round;stroke-linejoin:round;paint-order:stroke fill markers;enable-background:accumulate;stop-color:#000000;stop-opacity:1"
         d="m 75.326556,123.85892 c -3.783485,0.0353 -7.200347,2.27089 -7.673373,5.02987 -4.391151,25.36537 -5.124647,35.24404 -8.613093,49.581 -1.959771,8.05435 -2.431654,9.09397 -2.74653,11.93599 -0.3161,2.85307 -15.21051,20.66546 -14.729039,26.05208 0.484935,5.4254 19.358982,1.57331 27.627532,1.37337 8.262059,-0.19978 141.103417,-3.10509 141.103417,-3.10509 20.19627,0.48859 14.96294,6.78282 25.94131,-13.92372 8.62834,-16.27407 11.55646,-67.94935 11.66027,-78.38387 0.0201,-2.71901 -9.8986,-4.30657 -13.62154,-4.27241 z m 14.208737,11.89034 144.009497,-2.20764 c 0.90067,20.85922 -3.19181,37.55712 -7.49403,46.4717 -4.30221,8.91458 -7.27852,20.2662 -15.13939,21.15195 -7.87421,0.88726 -137.107827,3.31584 -137.107827,3.31584 8.454225,-13.71964 16.121655,-41.53602 15.7318,-68.73185 z"
         id="path34"
         sodipodi:nodetypes="ccszzzcsccccczzccc" /><path
         id="path35"
         style="fill:url(#linearGradient36);stroke-width:14;stroke-linecap:round;stroke-linejoin:round;paint-order:stroke fill markers"
         d="m 73.327567,118.83785 172.036613,-0.40714 c 0,0 -2.48966,31.74094 -30.79399,43.47345 -28.82994,11.95038 -51.54075,7.24752 -94.13874,9.41551 -42.845471,2.18058 -51.535363,19.00884 -51.535363,19.00884 z"
         sodipodi:nodetypes="cczzcc" /><path
         style="baseline-shift:baseline;display:inline;overflow:visible;opacity:1;vector-effect:none;fill:#3666a6;stroke:none;stroke-linecap:round;stroke-linejoin:round;stroke-opacity:1;paint-order:stroke fill markers;enable-background:accumulate;stop-color:#000000;stop-opacity:1"
         d="m 81.849011,110.80891 c -17.449053,0.27695 -20.73295,7.23777 -20.458225,11.9377 0.274726,4.69992 0.406384,3.25083 -0.173317,12.64836 -1.072573,17.38748 -3.476389,33.84684 -7.901812,47.54948 -4.425423,13.70264 -13.282935,23.73208 -17.705275,27.28893 -4.422339,3.55684 -12.537275,4.61711 -17.660234,8.49466 -3.304531,2.5012 3.118715,11.71527 17.253617,11.28926 l 4.220887,0.0957 c 61.439308,-0.83775 176.035128,-3.65879 182.497838,-3.5934 6.46066,0.0653 22.69822,-16.48438 31.1978,-44.26324 8.49958,-27.77886 4.50994,-48.13178 3.23151,-69.38606 -0.009,-3.5065 -5.40022,-5.65098 -10.22249,-5.6085 0,0 -140.09804,3.44289 -164.280302,3.54704 0,0 34.891572,-0.66101 13.717253,-0.21765 z M 242.66117,121.2525 c 0,0 2.97087,24.4458 -0.93311,41.73673 -4.25398,18.84109 -6.76917,27.57858 -17.96622,44.18543 -3.46777,5.14321 -8.04226,5.31735 -11.73687,5.62664 -6.64995,0.55669 -117.966719,1.15391 -140.41633,1.78568 -11.224806,0.31588 -22.60528,0.27204 -22.60528,0.27204 0,0 11.546404,-9.06777 16.711091,-19.66081 5.164687,-10.59304 8.331391,-32.68861 10.331107,-44.81039 1.999716,-12.12179 1.122083,-26.49548 1.122083,-26.49548 55.890619,-0.90271 165.493529,-2.63984 165.493529,-2.63984 z"
         id="path36"
         sodipodi:nodetypes="szszzscczzcczzscszscszzcc" /></g></g><g
     id="g8"
     transform="matrix(4.3184763,0,0,4.3184763,59.335762,57.096698)"
     style="display:inline"><path
       fill="url(#c)"
       fill-rule="evenodd"
       d="m 48,41.791407 a 23.642859,6.5298121 0 1 1 -47.28571811,0 23.642859,6.5298121 0 1 1 47.28571811,0 z"
       color="#000000"
       overflow="visible"
       style="fill:url(#c-5);stroke-width:0.887412;marker:none"
       id="path4" /><path
       fill="url(#d)"
       stroke="#3f4561"
       stroke-linecap="round"
       stroke-linejoin="round"
       d="M 24.285801,43.196358 4.3751874,23.285744 24.285801,3.3751291 44.196415,23.285744 Z"
       id="path5"
       style="fill:url(#d)" /><path
       fill="#ffffff"
       d="M 43.505062,23.285744 24.285801,4.0664819 5.0665401,23.285744 5.8476076,23.910676 24.45724,5.4825431 43.505256,23.285744 Z"
       opacity="0.72"
       id="path6" /><path
       fill="#ffffff"
       d="m 8.9257729,27.145172 0.7384498,-1.024184 c 0.6367493,0.268492 1.3006183,0.485069 1.9861833,0.644885 l -0.0058,1.576858 c 0.427728,0.08834 0.86301,0.156136 1.304105,0.204371 l 0.481774,-1.501889 c 0.344041,0.02848 0.691764,0.04417 1.043361,0.04417 0.351209,0 0.699124,-0.0155 1.043166,-0.04417 l 0.481775,1.501889 c 0.441288,-0.04823 0.876376,-0.116036 1.304104,-0.204371 l -0.006,-1.577051 c 0.685758,-0.159623 1.349433,-0.3762 1.986182,-0.644692 l 0.92248,1.279502 c 0.402351,-0.182094 0.794241,-0.382591 1.174895,-0.600522 l -0.492817,-1.498016 c 0.59723,-0.36225 1.161723,-0.773319 1.687471,-1.227972 l 1.272141,0.931779 c 0.325638,-0.296581 0.637329,-0.608272 0.933716,-0.93391 l -0.931585,-1.271947 c 0.454847,-0.525748 0.865916,-1.090047 1.228166,-1.687665 l 1.498015,0.493011 C 26.79347,21.2244 26.994161,20.832316 27.175867,20.43016 l -1.279308,-0.922287 c 0.268492,-0.636749 0.485068,-1.300618 0.645079,-1.986376 l 1.576663,0.0058 c 0.08834,-0.427727 0.156137,-0.86301 0.204178,-1.304298 l -1.501695,-0.481774 c 0.02886,-0.343848 0.04417,-0.691764 0.04417,-1.043167 0,-0.351403 -0.01569,-0.699125 -0.04417,-1.043361 l 1.501695,-0.481774 C 28.274632,12.73184 28.206442,12.296751 28.118495,11.86883 l -1.577051,0.006 C 26.381627,11.189076 26.165051,10.525208 25.896753,9.8886539 L 27.176061,8.9663652 C 26.994354,8.5640139 26.79347,8.1721237 26.575926,7.7912754 L 25.077717,8.2842867 C 24.715466,7.6868623 24.304398,7.1225635 23.849744,6.5970095 L 24.78133,5.3248686 C 24.502958,5.0189892 24.210252,4.7268638 23.905922,4.4467488 L 5.0669275,23.285938 6.0738693,24.29288 6.3725811,24.074174 c 0.5257484,0.454653 1.0900465,0.865722 1.6874698,1.227972 l -0.2419526,0.735157 1.1080622,1.108062 z m 19.5232031,5.045944 c 0,-6.484682 4.233883,-11.979469 10.08724,-13.874023 l -2.226972,-2.227167 c -0.01685,0.007 -0.0339,0.01298 -0.05056,0.02015 L 36.077171,15.858244 34.665167,14.44624 c -0.463178,0.2189 -0.91667,0.45446 -1.359314,0.707648 l 0.694089,2.109193 c -0.841314,0.509669 -1.635748,1.08869 -2.375747,1.728732 l -1.79111,-1.311659 c -0.458721,0.41746 -0.897297,0.856036 -1.314564,1.314565 l 1.311465,1.790914 c -0.640041,0.740195 -1.218868,1.534628 -1.728731,2.375748 l -2.109387,-0.694089 c -0.306654,0.536403 -0.589093,1.088304 -0.844994,1.654732 l 1.801182,1.298293 c -0.377942,0.896329 -0.682852,1.831014 -0.907758,2.796501 l -2.219999,-0.0085 c -0.124172,0.602266 -0.219869,1.215188 -0.287476,1.836051 l 2.114423,0.678398 c -0.04029,0.484293 -0.06199,0.97401 -0.06199,1.46857 0,0.494753 0.0217,0.98447 0.06199,1.468763 l -2.114423,0.677816 c 0.06761,0.621251 0.163304,1.233979 0.28767,1.836245 l 2.219805,-0.0083 c 0.224906,0.965487 0.529816,1.900172 0.907758,2.796502 l -1.801182,1.298486 c 0.142382,0.31479 0.293869,0.624931 0.452136,0.930423 l 3.804023,-3.803636 c -0.61602,-1.614245 -0.95425,-3.365836 -0.95425,-5.196269 z"
       opacity="0.5"
       id="path7" /><path
       d="M 5.2050478,23.424252 24.285801,42.505005 43.505062,23.285744 42.789963,22.603525 24.310314,41.041677 5.2050478,23.424059 Z"
       opacity="0.35"
       id="path8-6" /></g></svg>
