<?xml version="1.0" encoding="UTF-8" standalone="no"?>
<!-- Created with Inkscape (http://www.inkscape.org/) -->

<svg
   id="svg97"
   height="256"
   width="256"
   version="1.0"
   sodipodi:docname="folder-drawing.svg"
   inkscape:version="1.4.2 (ebf0e940d0, 2025-05-08)"
   xml:space="preserve"
   viewBox="0 0 256 256"
   xmlns:inkscape="http://www.inkscape.org/namespaces/inkscape"
   xmlns:sodipodi="http://sodipodi.sourceforge.net/DTD/sodipodi-0.dtd"
   xmlns:xlink="http://www.w3.org/1999/xlink"
   xmlns="http://www.w3.org/2000/svg"
   xmlns:svg="http://www.w3.org/2000/svg"
   xmlns:rdf="http://www.w3.org/1999/02/22-rdf-syntax-ns#"
   xmlns:cc="http://creativecommons.org/ns#"
   xmlns:dc="http://purl.org/dc/elements/1.1/"><title
     id="title4">Folder open/close recreated</title><sodipodi:namedview
     id="namedview1"
     pagecolor="#ffffff"
     bordercolor="#000000"
     borderopacity="0.25"
     inkscape:showpageshadow="2"
     inkscape:pageopacity="0.0"
     inkscape:pagecheckerboard="0"
     inkscape:deskcolor="#d1d1d1"
     inkscape:zoom="1.0012729"
     inkscape:cx="211.73049"
     inkscape:cy="178.27308"
     inkscape:current-layer="layer1" /><defs
     id="defs3"><radialGradient
       id="radialGradient6719"
       xlink:href="#linearGradient5060"
       gradientUnits="userSpaceOnUse"
       cy="486.64999"
       cx="605.71002"
       gradientTransform="matrix(-2.0913748,0,0,1.9697,-298.69145,-872.89)"
       r="117.14" /><linearGradient
       id="linearGradient5060"><stop
         id="stop5062"
         offset="0" /><stop
         id="stop5064"
         stop-opacity="0"
         offset="1" /></linearGradient><radialGradient
       id="radialGradient6717"
       xlink:href="#linearGradient5060"
       gradientUnits="userSpaceOnUse"
       cy="486.64999"
       cx="605.71002"
       gradientTransform="matrix(2.7744,0,0,1.9697,-1891.6,-872.89)"
       r="117.14" /><linearGradient
       id="linearGradient6715"
       y2="609.51001"
       gradientUnits="userSpaceOnUse"
       x2="302.85999"
       gradientTransform="matrix(2.7744,0,0,1.9697,-1892.2,-872.89)"
       y1="366.64999"
       x1="302.85999"><stop
         id="stop5050"
         stop-opacity="0"
         offset="0" /><stop
         id="stop5056"
         offset=".5" /><stop
         id="stop5052"
         stop-opacity="0"
         offset="1" /></linearGradient><radialGradient
       id="radialGradient238"
       gradientUnits="userSpaceOnUse"
       cy="37.518002"
       cx="20.705999"
       gradientTransform="matrix(1.055,-0.027345,0.1777,1.1909,-3.5722,-7.1253)"
       r="30.905001"><stop
         id="stop1790"
         stop-color="#202020"
         offset="0" /><stop
         id="stop1791"
         stop-color="#b9b9b9"
         offset="1" /></radialGradient><linearGradient
       id="linearGradient491"
       y2="66.834"
       gradientUnits="userSpaceOnUse"
       x2="9.8980999"
       gradientTransform="matrix(1.5168,0,0,0.70898,-0.87957,-1.3182)"
       y1="13.773"
       x1="6.2298002"><stop
         id="stop3984"
         stop-color="#fff"
         stop-opacity=".87629"
         offset="0" /><stop
         id="stop3985"
         stop-color="#fffffe"
         stop-opacity="0"
         offset="1" /></linearGradient><linearGradient
       id="linearGradient322"
       y2="46.688999"
       gradientUnits="userSpaceOnUse"
       x2="12.854"
       gradientTransform="matrix(1.3175,0,0,0.81626,-0.87957,-1.3182)"
       y1="32.567001"
       x1="13.036"><stop
         id="stop320"
         stop-color="#fff"
         offset="0" /><stop
         id="stop321"
         stop-color="#fff"
         stop-opacity="0"
         offset="1" /></linearGradient><linearGradient
       id="linearGradient3104"
       y2="6.1803002"
       gradientUnits="userSpaceOnUse"
       x2="15.515"
       y1="31.368"
       x1="18.113001"><stop
         id="stop3098"
         stop-color="#424242"
         offset="0" /><stop
         id="stop3100"
         stop-color="#777"
         offset="1" /></linearGradient><linearGradient
       id="linearGradient9772"
       y2="32.049999"
       gradientUnits="userSpaceOnUse"
       x2="22.065001"
       y1="36.987999"
       x1="22.176001"><stop
         id="stop9768"
         stop-color="#6194cb"
         offset="0" /><stop
         id="stop9770"
         stop-color="#729fcf"
         offset="1" /></linearGradient><linearGradient
       id="e"><stop
         offset="0"
         stop-color="#6194cb"
         id="stop8" /><stop
         offset="1"
         stop-color="#729fcf"
         id="stop9" /></linearGradient><linearGradient
       id="c"><stop
         offset="0"
         stop-color="#fff"
         stop-opacity=".13402061"
         id="stop10" /><stop
         offset="1"
         stop-color="#fff"
         stop-opacity=".05154639"
         id="stop11" /></linearGradient><linearGradient
       id="b"><stop
         offset="0"
         stop-color="#fff"
         id="stop12" /><stop
         offset="1"
         stop-color="#fff"
         stop-opacity="0"
         id="stop13" /></linearGradient><linearGradient
       xlink:href="#b"
       id="q"
       x1="19.116116"
       x2="19.426924"
       y1="28.946041"
       y2="51.912693"
       gradientTransform="scale(1.42154,0.70346)"
       gradientUnits="userSpaceOnUse" /><linearGradient
       xlink:href="#c"
       id="p"
       x1="14.899379"
       x2="22.715446"
       y1="27.059643"
       y2="41.836895"
       gradientTransform="matrix(1.5353,0,0,0.65134,3.451418,2.448)"
       gradientUnits="userSpaceOnUse" /><linearGradient
       xlink:href="#e"
       id="o"
       x1="-22.89403"
       x2="-19.799696"
       y1="38.945435"
       y2="20.305889"
       gradientTransform="matrix(1,0,0,1.02212,52.05694,-1.323026)"
       gradientUnits="userSpaceOnUse" /><clipPath
       id="clipPath8"><path
         d="M 76,2 V 48 H 54 V 71 H 35.580737 c -0.07818,0.665694 -0.141485,1.332869 -0.205737,2 -1.151162,12.530963 1.036422,24.087546 6.0625,33.96875 L 43.125,110 c 1.011403,1.81678 2.191241,3.52297 3.4375,5.1875 1.244725,1.66248 1.685716,2.58262 2.46875,3.6875 C 62.319911,133.81083 82.129473,141 105,141 155.64836,141 198.63299,118.56201 217.65625,68.15625 231.15302,69.54122 244.09968,66.080358 250,54.5625 240.60137,49.138835 228.52163,50.877226 221.5625,54.375 L 240,2 168,48 H 145 V 2 Z"
         id="path10" /></clipPath><clipPath
       id="clipPath1"><path
         d="M 76,2 V 48 H 54 V 71 H 35.580737 c -0.07818,0.665694 -0.141485,1.332869 -0.205737,2 -1.151162,12.530963 1.036422,24.087546 6.0625,33.96875 L 43.125,110 c 1.011403,1.81678 2.191241,3.52297 3.4375,5.1875 1.244725,1.66248 1.685716,2.58262 2.46875,3.6875 C 62.319911,133.81083 82.129473,141 105,141 155.64836,141 198.63299,118.56201 217.65625,68.15625 231.15302,69.54122 244.09968,66.080358 250,54.5625 240.60137,49.138835 228.52163,50.877226 221.5625,54.375 L 240,2 168,48 H 145 V 2 Z"
         id="path1" /></clipPath><clipPath
       id="clipPath2"><path
         d="M 76,2 V 48 H 54 V 71 H 35.580737 c -0.07818,0.665694 -0.141485,1.332869 -0.205737,2 -1.151162,12.530963 1.036422,24.087546 6.0625,33.96875 L 43.125,110 c 1.011403,1.81678 2.191241,3.52297 3.4375,5.1875 1.244725,1.66248 1.685716,2.58262 2.46875,3.6875 C 62.319911,133.81083 82.129473,141 105,141 155.64836,141 198.63299,118.56201 217.65625,68.15625 231.15302,69.54122 244.09968,66.080358 250,54.5625 240.60137,49.138835 228.52163,50.877226 221.5625,54.375 L 240,2 168,48 H 145 V 2 Z"
         id="path2" /></clipPath><clipPath
       id="clipPath3"><path
         d="M 76,2 V 48 H 54 V 71 H 35.580737 c -0.07818,0.665694 -0.141485,1.332869 -0.205737,2 -1.151162,12.530963 1.036422,24.087546 6.0625,33.96875 L 43.125,110 c 1.011403,1.81678 2.191241,3.52297 3.4375,5.1875 1.244725,1.66248 1.685716,2.58262 2.46875,3.6875 C 62.319911,133.81083 82.129473,141 105,141 155.64836,141 198.63299,118.56201 217.65625,68.15625 231.15302,69.54122 244.09968,66.080358 250,54.5625 240.60137,49.138835 228.52163,50.877226 221.5625,54.375 L 240,2 168,48 H 145 V 2 Z"
         id="path3" /></clipPath><radialGradient
       id="b-6"
       gradientUnits="userSpaceOnUse"
       cy="42.099998"
       cx="24.309999"
       gradientTransform="matrix(1.076,0,0,0.285,-6.9499999,28.65)"
       r="15.82"><stop
         offset="0"
         id="stop1" /><stop
         stop-opacity="0"
         offset="1"
         id="stop2" /></radialGradient><radialGradient
       id="f"
       gradientUnits="userSpaceOnUse"
       cy="35.740002"
       cx="33.970001"
       gradientTransform="matrix(0.961,0,0,1.041,-5.0999999,-2.1500001)"
       r="86.699997"><stop
         stop-color="#fafafa"
         offset="0"
         id="stop3" /><stop
         stop-color="#bbb"
         offset="1"
         id="stop4" /></radialGradient><radialGradient
       id="g"
       gradientUnits="userSpaceOnUse"
       cy="3.76"
       cx="8.8199997"
       gradientTransform="matrix(0.968,0,0,1.033,-1.7499999,-1.5000001)"
       r="37.75"><stop
         stop-color="#a3a3a3"
         offset="0"
         id="stop5" /><stop
         stop-color="#4c4c4c"
         offset="1"
         id="stop6" /></radialGradient><radialGradient
       id="e-8"
       gradientUnits="userSpaceOnUse"
       cy="7.27"
       cx="8.1400003"
       gradientTransform="matrix(0.968,0,0,1.033,-1.7499999,-1.5000001)"
       r="38.200001"><stop
         stop-color="#fff"
         offset="0"
         id="stop7" /><stop
         stop-color="#f8f8f8"
         offset="1"
         id="stop8-9" /></radialGradient><radialGradient
       id="c-0"
       gradientUnits="userSpaceOnUse"
       cy="18.82"
       cx="10.1"
       r="1.21"><stop
         stop-color="#f0f0f0"
         offset="0"
         id="stop9-6" /><stop
         stop-color="#9a9a9a"
         offset="1"
         id="stop10-8" /></radialGradient><radialGradient
       id="radialGradient12"
       gradientUnits="userSpaceOnUse"
       cy="18.82"
       cx="10.1"
       r="1.21"><stop
         stop-color="#f0f0f0"
         offset="0"
         id="stop11-7" /><stop
         stop-color="#9a9a9a"
         offset="1"
         id="stop12-9" /></radialGradient><linearGradient
       xlink:href="#g-7"
       id="B"
       x1="12.8125"
       x2="12.8125"
       y1="3.9999673"
       y2="25.985226"
       gradientTransform="matrix(0.75862,0,0,0.68,0.362069,-38.200002)"
       gradientUnits="userSpaceOnUse" /><linearGradient
       id="g-7"><stop
         offset="0"
         stop-color="#ececea"
         id="stop17" /><stop
         offset="1"
         stop-color="#d6d9d2"
         id="stop18" /></linearGradient><linearGradient
       xlink:href="#h"
       id="C"
       x1="-11.986486"
       x2="-11.986486"
       y1="13.122552"
       y2="29.726542"
       gradientTransform="matrix(0.45679,0,0,0.45833,17.975301,-38.725495)"
       gradientUnits="userSpaceOnUse" /><linearGradient
       id="h"><stop
         offset="0"
         stop-color="#555753"
         id="stop23" /><stop
         offset="1"
         stop-color="#fcaf3e"
         id="stop24" /></linearGradient><radialGradient
       xlink:href="#l"
       id="D"
       cx="-6.0070167"
       cy="32.837029"
       r="9.90625"
       fx="-6.0070167"
       fy="32.837029"
       gradientTransform="matrix(0.4987,0,0,0.44848,12.828345,-37.694358)"
       gradientUnits="userSpaceOnUse" /><linearGradient
       id="l"><stop
         offset="0"
         stop-color="#fce94f"
         id="stop21" /><stop
         offset="1"
         stop-color="#fce94f"
         stop-opacity="0"
         id="stop22" /></linearGradient><linearGradient
       xlink:href="#i"
       id="E"
       x1="25.355263"
       x2="25.355263"
       y1="34.006802"
       y2="32.409008"
       gradientTransform="matrix(0.44118,0,0,0.5,1.911766,-40.45466)"
       gradientUnits="userSpaceOnUse" /><linearGradient
       id="i"><stop
         offset="0"
         stop-color="#2e3436"
         id="stop19" /><stop
         offset="1"
         stop-color="#2e3436"
         stop-opacity="0"
         id="stop20" /></linearGradient><path
       id="p-6"
       fill="#ffffff"
       d="m 8.8749989,37.75 a 1.2499999,1.2499999 0 1 1 -2.4999997,0 1.2499999,1.2499999 0 1 1 2.4999997,0 z"
       opacity="0.527778"
       overflow="visible"
       style="marker:none" /><linearGradient
       id="f-1"><stop
         offset="0"
         stop-color="#729fcf"
         id="stop3-0" /><stop
         offset="1"
         stop-color="#2b5582"
         id="stop4-4" /></linearGradient><linearGradient
       id="h-8"><stop
         offset="0"
         stop-color="#729fcf"
         id="stop5-7" /><stop
         offset="1"
         stop-color="#3c74b1"
         id="stop6-0" /></linearGradient><linearGradient
       id="e-86"><stop
         offset="0"
         stop-color="#f2f2f2"
         id="stop7-2" /><stop
         offset="1"
         stop-color="#c3c3c3"
         id="stop8-4" /></linearGradient><linearGradient
       id="g-79"><stop
         offset="0"
         stop-color="#aeaeae"
         id="stop9-3" /><stop
         offset="1"
         stop-color="#c4c4c4"
         stop-opacity="0"
         id="stop10-9" /></linearGradient><linearGradient
       id="i-1"><stop
         offset="0"
         stop-color="#696969"
         id="stop15" /><stop
         offset="1"
         id="stop16" /></linearGradient><linearGradient
       id="b-7"><stop
         offset="0"
         stop-color="#6e3d09"
         id="stop17-8" /><stop
         offset=".24242425"
         stop-color="#ea8113"
         id="stop18-9" /><stop
         offset=".62121212"
         stop-color="#5c3307"
         id="stop19-1" /><stop
         offset="1"
         stop-color="#e07c12"
         id="stop20-5" /></linearGradient><linearGradient
       id="a"><stop
         offset="0"
         stop-color="#bdbdbd"
         id="stop21-4" /><stop
         offset=".33333334"
         stop-color="#e2e2e2"
         id="stop22-9" /><stop
         offset=".66666669"
         stop-color="#a3a3a3"
         id="stop23-2" /><stop
         offset="1"
         stop-color="#ddd"
         id="stop24-5" /></linearGradient><linearGradient
       xlink:href="#a"
       id="m"
       x1="19.394735"
       x2="23.109331"
       y1="30.001331"
       y2="33.438831"
       gradientTransform="translate(-3.90695,-1.802856)"
       gradientUnits="userSpaceOnUse" /><linearGradient
       xlink:href="#b-7"
       id="l-7"
       x1="28.058632"
       x2="33.436985"
       y1="18.867767"
       y2="23.742767"
       gradientTransform="translate(-3.90695,-1.802856)"
       gradientUnits="userSpaceOnUse" /><linearGradient
       xlink:href="#b"
       id="q-4"
       x1="13.236155"
       x2="7.7521091"
       y1="37.752247"
       y2="42.282146"
       gradientTransform="matrix(0.8523,0,0,0.8523,-1.675107,3.753977)"
       gradientUnits="userSpaceOnUse" /><linearGradient
       xlink:href="#b"
       id="w"
       x1="48.25"
       x2="48.25"
       y1="54.75"
       y2="71.25"
       gradientTransform="matrix(0.71891,0,0,0.71891,-1.897103,-20.68606)"
       gradientUnits="userSpaceOnUse" /><linearGradient
       xlink:href="#e-86"
       id="v"
       x1="60.168766"
       x2="60.440994"
       y1="40.119797"
       y2="43.869797"
       gradientTransform="matrix(0.7373,0,0,0.77085,-8.532023,7.121636)"
       gradientUnits="userSpaceOnUse" /><linearGradient
       xlink:href="#f-1"
       id="u"
       x1="49.853039"
       x2="62.768223"
       y1="64.259621"
       y2="64.259621"
       gradientTransform="matrix(0.71891,0,0,0.71891,-1.897103,-22.42481)"
       gradientUnits="userSpaceOnUse" /><linearGradient
       xlink:href="#g-79"
       id="t"
       x1="61.871845"
       x2="61.871845"
       y1="29.615223"
       y2="41.459263"
       gradientTransform="matrix(0.88862,0,0,0.71891,-18.29768,9.471728)"
       gradientUnits="userSpaceOnUse" /><linearGradient
       xlink:href="#e-86"
       id="s"
       x1="53.168766"
       x2="69.690994"
       y1="24.244797"
       y2="24.244797"
       gradientTransform="matrix(0.71944,0,0,0.71891,-7.696252,9.471728)"
       gradientUnits="userSpaceOnUse" /><linearGradient
       xlink:href="#h-8"
       id="r"
       x1="52.717937"
       x2="67.465988"
       y1="2.3161638"
       y2="2.3161638"
       gradientTransform="matrix(0.86248,0,0,0.58072,-16.25697,11.01348)"
       gradientUnits="userSpaceOnUse" /><radialGradient
       xlink:href="#i-1"
       id="o-9"
       cx="15.415101"
       cy="35.356506"
       r="7.5791559"
       fx="15.415101"
       fy="35.356506"
       gradientTransform="matrix(0.99465,0,0,0.96932,-4.583017,0.165919)"
       gradientUnits="userSpaceOnUse" /><radialGradient
       xlink:href="#linearGradient5060"
       id="n"
       cx="26.78167"
       cy="42.343147"
       r="14.407301"
       fx="26.78167"
       fy="42.343147"
       gradientTransform="matrix(1.33837,0,0,0.2822,-15.816494,29.064152)"
       gradientUnits="userSpaceOnUse" /><radialGradient
       xlink:href="#linearGradient5060"
       id="k"
       cx="26.78167"
       cy="42.343147"
       r="14.407301"
       fx="26.78167"
       fy="42.343147"
       gradientTransform="matrix(0.80527598,0,0,0.31690496,14.679833,28.678879)"
       gradientUnits="userSpaceOnUse" /></defs><g
     id="layer1"
     transform="matrix(5.5668514,0,0,5.5668514,-11.854349,0.53914632)"
     style="display:inline"><g
       id="g2"
       inkscape:label="back"
       style="display:inline"><g
         id="g6707"
         transform="matrix(0.022624,0,0,0.020868,43.383,36.37)"><rect
           id="rect6709"
           opacity="0.40206"
           height="478.35999"
           width="1339.6"
           y="-150.7"
           x="-1559.3"
           fill="url(#linearGradient6715)"
           style="fill:url(#linearGradient6715)" /><path
           id="path6711"
           opacity="0.40206"
           d="m -219.62,-150.68 v 478.33 c 142.88,0.9 345.4,-107.17 345.4,-239.2 0,-132.02 -159.44,-239.13 -345.4,-239.13 z"
           fill="url(#radialGradient6717)"
           style="fill:url(#radialGradient6717)" /><path
           id="path6713"
           opacity="0.40206"
           d="m -1559.1096,-150.68 v 478.33 c -107.6443,0.9 -260.3665,-107.17 -260.3665,-239.2 0,-132.02 120.233,-239.13 260.3665,-239.13 z"
           fill="url(#radialGradient6719)"
           style="fill:url(#radialGradient6719);stroke-width:0.868223" /></g><path
         id="path216"
         stroke-linejoin="round"
         d="m 4.5218,38.687 c 0.0218,0.417 0.4599,0.833 0.8762,0.833 h 31.327 c 0.416,0 0.811,-0.416 0.789,-0.833 L 36.578,11.461 c -0.022,-0.417 -0.46,-0.833 -0.877,-0.833 h -13.27 c -0.486,0 -1.235,-0.316 -1.402,-1.1066 L 20.417,6.6284 C 20.262,5.8927 19.535,5.5905 19.119,5.5905 H 4.34 c -0.4162,0 -0.8107,0.4163 -0.7889,0.8326 l 0.9707,32.264 z"
         stroke="url(#linearGradient3104)"
         stroke-linecap="round"
         fill="url(#radialGradient238)"
         style="fill:url(#radialGradient238);stroke:url(#linearGradient3104)" /><path
         id="path9788"
         opacity="0.11364"
         stroke-linejoin="round"
         d="m 5.2266,22.562 h 30.265"
         stroke="#000000"
         stroke-linecap="round"
         fill="#729fcf" /><path
         id="path9784"
         opacity="0.11364"
         stroke-linejoin="round"
         d="m 5.0422,18.562 h 30.447"
         stroke="#000000"
         stroke-linecap="round"
         fill="#729fcf" /><path
         id="path9778"
         opacity="0.11364"
         stroke-linejoin="round"
         d="m 4.9807,12.562 h 30.507"
         stroke="#000000"
         stroke-linecap="round"
         fill="#729fcf" /><path
         id="path9798"
         opacity="0.11364"
         stroke-linejoin="round"
         d="m 5.3862,32.562 h 30.109"
         stroke="#000000"
         stroke-linecap="round"
         fill="#729fcf" /><path
         id="path9800"
         opacity="0.11364"
         stroke-linejoin="round"
         d="m 5.5091,34.562 h 29.988"
         stroke="#000000"
         stroke-linecap="round"
         fill="#729fcf" /><path
         id="path9782"
         opacity="0.11364"
         stroke-linejoin="round"
         d="m 5.0422,16.562 h 30.447"
         stroke="#000000"
         stroke-linecap="round"
         fill="#729fcf" /><path
         id="path9780"
         opacity="0.11364"
         stroke-linejoin="round"
         d="m 5.0114,14.562 h 30.478"
         stroke="#000000"
         stroke-linecap="round"
         fill="#729fcf" /><path
         id="path9776"
         opacity="0.11364"
         stroke-linejoin="round"
         d="m 4.9221,10.562 h 15.281"
         stroke="#000000"
         stroke-linecap="round"
         fill="#729fcf" /><path
         id="path9774"
         opacity="0.11364"
         stroke-linejoin="round"
         d="m 4.8738,8.5625 h 14.783"
         stroke="#000000"
         stroke-linecap="round"
         fill="#729fcf" /><path
         id="path9794"
         opacity="0.11364"
         stroke-linejoin="round"
         d="m 5.3247,28.562 h 30.169"
         stroke="#000000"
         stroke-linecap="round"
         fill="#729fcf" /><path
         id="path9792"
         opacity="0.11364"
         stroke-linejoin="round"
         d="m 5.2881,26.562 h 30.205"
         stroke="#000000"
         stroke-linecap="round"
         fill="#729fcf" /><path
         id="path9790"
         opacity="0.11364"
         stroke-linejoin="round"
         d="m 5.2266,24.562 h 30.265"
         stroke="#000000"
         stroke-linecap="round"
         fill="#729fcf" /><path
         id="path9786"
         opacity="0.11364"
         stroke-linejoin="round"
         d="m 5.1959,20.562 h 30.296"
         stroke="#000000"
         stroke-linecap="round"
         fill="#729fcf" /><path
         id="path9796"
         opacity="0.11364"
         stroke-linejoin="round"
         d="m 5.3247,30.562 h 30.169"
         stroke="#000000"
         stroke-linecap="round"
         fill="#729fcf" /><path
         id="path9802"
         opacity="0.11364"
         stroke-linejoin="round"
         d="m 5.5091,36.562 h 29.988"
         stroke="#000000"
         stroke-linecap="round"
         fill="#729fcf" /><path
         id="path219"
         opacity="0.45143"
         d="M 6.0683,38.864 C 6.0847,39.176 5.8874,39.384 5.5698,39.28 5.2521,39.176 5.033,38.968 5.0167,38.656 L 4.069,6.591 C 4.0526,6.2792 4.2341,6.0906 4.5464,6.0906 l 14.422,-0.0477 c 0.313,0 0.932,0.3005 1.133,1.3222 l 0.574,2.8159 c -0.427,-0.4656 -0.419,-0.48 -0.638,-1.1571 l -0.406,-1.2592 c -0.219,-0.7276 -0.698,-0.8319 -1.01,-0.8319 H 5.7334 c -0.3122,0 -0.5095,0.2082 -0.4931,0.5204 l 0.938,31.515 -0.1096,-0.104 z"
         display="block"
         fill="url(#linearGradient491)"
         style="fill:url(#linearGradient491)" /><g
         id="g220"
         fill-opacity="0.75706"
         transform="matrix(1.0408,0,0.054493,1.0408,-8.6702,2.6706)"
         fill="#ffffff"><path
           id="path221"
           fill-opacity="0.50847"
           fill="#ffffff"
           d="M 42.417,8.5152 C 42.422,8.4181 42.289,8.2682 42.182,8.2682 L 29.151,8.2661 c 0,0 0.911,0.5879 2.201,0.5962 l 11.054,0.071 c 0.011,-0.2117 0.003,-0.256 0.011,-0.4181 z" /></g></g><g
       color="#000000"
       id="g42"
       transform="matrix(0.461853,0,0,0.461853,25.281048,0.80481835)"
       style="display:inline"><path
         fill="url(#k)"
         d="m 47.848321,42.098038 a 11.601853,4.5658841 0 1 1 -23.203706,0 11.601853,4.5658841 0 1 1 23.203706,0 z"
         opacity="0.3"
         overflow="visible"
         style="fill:url(#k);stroke-width:0.95095;marker:none"
         id="path24" /><path
         fill="url(#l)"
         stroke="#673907"
         stroke-linecap="round"
         d="m 19.651682,22.586735 4.065864,3.800698 c 7.187499,-7.062499 17.78306,-23.9772875 17.78306,-23.9772875 0.42949,-1.2244462 -1.087245,-1.99589286 -1.846352,-1.170495 0,0 -13.690073,14.0970855 -20.002572,21.3470845 z"
         overflow="visible"
         style="display:inline;fill:url(#l-7);marker:none"
         id="path25" /><path
         fill="url(#m)"
         stroke="#888a85"
         stroke-linecap="round"
         d="m 12.050285,32.813894 2.24632,1.93382 8.492766,-7.367031 0.275061,-0.705828 1.094405,-0.01782 c -0.4375,-1.5625 -2.941514,-4.383455 -4.816514,-4.383455 l 0.08202,1.090075 -0.669991,0.380027 z"
         overflow="visible"
         style="fill:url(#m);marker:none"
         id="path26" /><path
         fill="url(#n)"
         d="m 39.30959,41.013749 a 19.2823,4.0658642 0 1 1 -38.56459934,0 19.2823,4.0658642 0 1 1 38.56459934,0 z"
         opacity="0.3"
         overflow="visible"
         style="fill:url(#n);stroke-width:1.15688;marker:none"
         id="path27" /><path
         fill="url(#o)"
         d="m 1.757709,40.723915 c 6.6053126,0 11.618187,0.786601 12.567225,-4.019073 C 15.089727,32.832133 9.7646096,30.976482 7.1258026,34.433791 4.583799,37.76427 1.757709,40.723915 1.757709,40.723915 Z"
         overflow="visible"
         style="fill:url(#o-9);marker:none"
         id="path28" /><use
         xlink:href="#p-6"
         opacity="0.527778"
         overflow="visible"
         style="marker:none"
         transform="matrix(0.8523,0,0,0.8523,3.733554,2.575604)"
         id="use28" /><use
         xlink:href="#p-6"
         overflow="visible"
         style="marker:none"
         transform="matrix(0.78787,0,0,0.78787,14.26538,-4.723366)"
         id="use29" /><path
         fill="none"
         stroke="#ffffff"
         stroke-linecap="round"
         stroke-linejoin="round"
         d="m 18.941438,26.398154 -5.303301,6.14299"
         overflow="visible"
         style="marker:none"
         id="path29" /><path
         fill="url(#q)"
         d="m 3.0708872,40.068976 c 0,0 3.3411114,-1.641821 4.7648284,-4.086829 0.503707,-0.865037 1.644373,-0.126836 0.941666,0.734499 -1.517828,1.860458 -5.7064944,3.35233 -5.7064944,3.35233 z"
         opacity="0.427778"
         overflow="visible"
         style="fill:url(#q-4);marker:none"
         id="path30" /><use
         xlink:href="#p-6"
         opacity="0.533333"
         overflow="visible"
         style="marker:none"
         transform="matrix(0.23787,0,0,0.23787,38.43389,-7.101028)"
         id="use30" /><path
         fill="url(#r)"
         stroke="#204a87"
         stroke-linecap="round"
         stroke-width="1"
         d="m 35.12694,7.3500759 c -3.057856,0.087289 -5.484389,1.0560825 -5.484389,2.2243336 v 3.5701185 c 0,1.225706 2.670932,2.224333 5.94142,2.224333 3.270486,0 5.916029,-0.998627 5.916029,-2.224333 V 9.5744095 c 0,-1.2257062 -2.645543,-2.2243336 -5.916029,-2.2243336 -0.153305,0 -0.306646,-0.00429 -0.457031,0 z"
         overflow="visible"
         style="fill:url(#r);marker:none"
         id="path31" /><path
         fill="#3465a4"
         d="m 57.375,49.75 a 5.375,1.5 0 1 1 -10.75,0 5.375,1.5 0 1 1 10.75,0 z"
         overflow="visible"
         style="marker:none"
         transform="matrix(0.88628,0,0,0.46891,-10.44392,-9.718859)"
         id="path32-9" /><path
         fill="url(#s)"
         stroke="#5a5a5a"
         stroke-linecap="round"
         stroke-width="1"
         d="m 27.926447,39.155467 1.047009,-21.349435 2.486646,-3.663512 c 1.971292,-0.635437 6.726427,-0.635437 8.506948,0 l 2.486647,3.031873 2.617523,22.486387 z"
         overflow="visible"
         style="fill:url(#s);marker:none"
         id="path33-4" /><path
         fill="url(#t)"
         d="m 28.828495,38.896108 c 0,0 2.590673,-9.531543 7.540188,-9.531543 5.106601,0 8.168535,9.912805 8.168535,9.912805 z"
         overflow="visible"
         style="fill:url(#t);marker:none"
         id="path34-5" /><path
         fill="url(#u)"
         d="m 29.180138,20.498708 -0.295913,6.474742 c 1.662489,-1.078371 11.992511,-1.264486 14.343625,0.387648 L 42.526302,20.763785 C 41.128342,19.810631 31.943464,19.28554 29.180138,20.498708 Z"
         overflow="visible"
         style="fill:url(#u);marker:none"
         id="path35" /><path
         fill="none"
         stroke="#ffffff"
         stroke-linecap="round"
         stroke-width="1"
         d="m 29.048762,38.222096 0.877497,-20.194312 1.839967,-3.032835 c 1.818556,-0.592175 6.205258,-0.592175 7.847823,0 l 1.960481,2.532586 2.452224,21.248365 z"
         opacity="0.594444"
         overflow="visible"
         style="marker:none"
         id="path36" /><rect
         width="19.974413"
         height="3.9277525"
         x="26.512789"
         y="37.536133"
         fill="url(#v)"
         stroke="#5a5a5a"
         stroke-linecap="round"
         stroke-width="1"
         overflow="visible"
         rx="0.88388413"
         ry="0.88388366"
         style="fill:url(#v);marker:none"
         id="rect36" /><path
         fill="#ffffff"
         d="m 29.395219,17.996451 c 1.874537,-1.366188 9.097934,-1.655174 12.71992,-0.606704 l -2.337406,-2.885623 c -2.478201,-0.667208 -5.924347,-0.375766 -8.275461,0.06904 z"
         overflow="visible"
         style="marker:none"
         id="path37" /><path
         fill="url(#w)"
         d="m 31.172941,17.416382 v 15.456651 l 3.235113,-3.59457 -0.359457,-12.580995 z"
         opacity="0.861111"
         overflow="visible"
         style="fill:url(#w);marker:none"
         id="path38" /><g
         fill="#e6e7e6"
         opacity="0.577778"
         id="g41"><path
           d="m 31.009391,9.3809738 v 3.2400352 c 0,0 0.611189,-0.347686 0.990609,-0.361321 V 9 c -0.481572,0.069463 -0.990609,0.3809738 -0.990609,0.3809738 z"
           opacity="0.411111"
           overflow="visible"
           style="marker:none"
           id="path39" /><path
           d="M 33.009391,8.7599648 V 12 c 0,0 0.611189,-0.08252 0.990609,-0.09616 V 8.5889133 c -0.511601,0.025805 -0.990609,0.1710515 -0.990609,0.1710515 z"
           overflow="visible"
           style="marker:none"
           id="path40" /><path
           d="m 35.009391,8.561091 v 3.295278 c 0,0 0.555946,-0.0052 0.990609,0.01433 V 8.5336706 c -0.500552,-0.051535 -0.990609,0.02742 -0.990609,0.02742 z"
           opacity="0.444444"
           overflow="visible"
           style="marker:none"
           id="path41" /></g></g><g
       id="g1"
       inkscape:label="close"
       style="display:none"><path
         id="path233"
         stroke-linejoin="round"
         d="M 39.784,39.511 C 40.927,39.467 41.747,38.414 41.831,37.19 42.622,25.641 43.49,15.958 43.49,15.958 43.562,15.71 43.322,15.463 43.01,15.463 H 8.639 c 0,0 -1.7473477,20.980607 -1.8507,21.867 -0.1145,0.982 -0.466,1.804 -1.5498,2.183 l 34.546,-0.002 z"
         display="block"
         stroke="#3465a4"
         fill="url(#linearGradient9772)"
         sodipodi:nodetypes="cccscsccc"
         style="fill:url(#linearGradient9772)" /><path
         id="path304"
         opacity="0.46591"
         d="M 9.5391916,16.464 42.4112,16.529 40.8372,36.531 c -0.084,1.071 -0.45,1.428 -1.872,1.428 -1.872,0 -28.678,-0.032 -31.395,-0.032 0.2335,-0.321 0.3337,-0.989 0.335,-1.005 L 9.4786353,17.172824 Z"
         stroke="url(#linearGradient322)"
         stroke-linecap="round"
         stroke-width="1px"
         fill="none"
         style="stroke:url(#linearGradient322)"
         sodipodi:nodetypes="cccscccc" /><path
         id="path323"
         d="M 9.2556622,16.223 8.4536,31.866 c 0,0 8.2964,-4.148 18.666,-4.148 10.3696,0 15.555,-11.495 15.555,-11.495 L 10.206911,16.101487 Z"
         fill-opacity="0.089286"
         fill-rule="evenodd"
         fill="#ffffff"
         sodipodi:nodetypes="ccsccc" /></g><g
       id="g4"
       style="display:inline"
       transform="matrix(1.0271502,0,0,0.9124211,-0.42849272,3.2161654)"
       inkscape:label="open"><path
         fill="url(#o)"
         stroke="#3465a4"
         stroke-linejoin="round"
         stroke-width="1.00417"
         d="m 5.8559486,39.409514 c 0.103442,0.211469 0.3103265,0.423576 0.6206519,0.422928 l 33.5195985,-0.06999 c 0.4136,-8.63e-4 1.234708,-0.509959 1.575817,-1.337364 3.406971,-8.264057 5.547169,-12.983254 5.651187,-19.734262 C 47.326645,18.479366 47.010326,18.551293 46.7,18.551293 H 11.776358 c -0.310326,0 -1.330823,17.026248 -4.8403645,20.420419 l -1.1834868,0.437801 z"
         display="block"
         overflow="visible"
         style="fill:url(#o);marker:none"
         transform="matrix(0.98877,0,0,1.00298,-0.111407,-0.106563)"
         id="path32"
         sodipodi:nodetypes="cssscssccc" /><path
         fill="url(#p)"
         fill-rule="evenodd"
         d="m 13.134476,20.138641 c -0.772747,4.990757 -1.829795,10.224442 -3.044484,14.729063 2.386485,-0.707107 7.44461,-4.419704 17.44461,-4.419704 10,0 16.723573,-9.248699 17.651651,-10.353553 z"
         transform="matrix(0.98877,0,0,1.00298,-0.111407,-0.106563)"
         id="path33"
         style="fill:url(#p)"
         sodipodi:nodetypes="ccscc" /><path
         fill="none"
         stroke="url(#q)"
         stroke-linecap="round"
         stroke-width="1.00417"
         d="m 12.661612,19.598984 c -0.0893,1.007402 -1.052587,14.120135 -4.7222722,18.329098 8.1210772,0 30.0726182,0.98898 31.8627612,0.992045 2.988036,-6.899129 6.06594,-12.171148 6.353309,-19.361446 -8.269015,0.131065 -22.343098,0.03125 -33.493798,0.0403 z"
         opacity="0.522727"
         overflow="visible"
         style="stroke:url(#q);marker:none"
         transform="matrix(0.98877,0,0,1.00298,-0.111407,-0.106563)"
         id="path34"
         sodipodi:nodetypes="cccccc" /></g></g><metadata
     id="metadata2"><rdf:RDF><cc:Work
         rdf:about=""><dc:source>https://commons.wikimedia.org/wiki/Tango_icons#</dc:source><cc:license
           rdf:resource="http://creativecommons.org/publicdomain/zero/1.0/" /><dc:title>Folder open/close recreated</dc:title><dc:publisher><cc:Agent><dc:title>Blackcrack</dc:title></cc:Agent></dc:publisher><dc:relation>Folder and Folder Open</dc:relation><dc:description>20250701 Recreated Folder open and close in one</dc:description><dc:contributor><cc:Agent><dc:title>Blackcrack</dc:title></cc:Agent></dc:contributor></cc:Work><cc:License
         rdf:about="http://creativecommons.org/publicdomain/zero/1.0/"><cc:permits
           rdf:resource="http://creativecommons.org/ns#Reproduction" /><cc:permits
           rdf:resource="http://creativecommons.org/ns#Distribution" /><cc:permits
           rdf:resource="http://creativecommons.org/ns#DerivativeWorks" /></cc:License></rdf:RDF></metadata></svg>
