<?xml version="1.0" encoding="UTF-8" standalone="no"?>
<svg
   id="svg2"
   xml:space="preserve"
   overflow="visible"
   height="256"
   width="256"
   version="1.0"
   sodipodi:docname="home-00.svg"
   sodipodi:version="0.32"
   enable-background="new 0 0 128 129.396"
   viewBox="0 0 256 256"
   inkscape:version="1.4.2 (ebf0e940d0, 2025-05-08)"
   xmlns:inkscape="http://www.inkscape.org/namespaces/inkscape"
   xmlns:sodipodi="http://sodipodi.sourceforge.net/DTD/sodipodi-0.dtd"
   xmlns="http://www.w3.org/2000/svg"
   xmlns:svg="http://www.w3.org/2000/svg"
   xmlns:rdf="http://www.w3.org/1999/02/22-rdf-syntax-ns#"
   xmlns:cc="http://creativecommons.org/ns#"
   xmlns:dc="http://purl.org/dc/elements/1.1/"><metadata
   id="metadata367"><rdf:RDF><cc:Work
       rdf:about=""><dc:format>image/svg+xml</dc:format><dc:type
         rdf:resource="http://purl.org/dc/dcmitype/StillImage" /><dc:title>Go Home</dc:title><dc:creator><cc:Agent><dc:title>Jakub Steiner</dc:title></cc:Agent></dc:creator><dc:source>http://jimmac.musichall.cz</dc:source><dc:subject><rdf:Bag><rdf:li>home</rdf:li><rdf:li>return</rdf:li><rdf:li>go</rdf:li><rdf:li>default</rdf:li><rdf:li>user</rdf:li><rdf:li>directory</rdf:li></rdf:Bag></dc:subject><dc:contributor><cc:Agent><dc:title>Tuomas Kuosmanen</dc:title></cc:Agent></dc:contributor><dc:description>https://commons.wikimedia.org/wiki/File:Go-home.svg</dc:description><cc:license
         rdf:resource="http://creativecommons.org/publicdomain/zero/1.0/" /></cc:Work><cc:License
       rdf:about="http://creativecommons.org/publicdomain/zero/1.0/"><cc:permits
         rdf:resource="http://creativecommons.org/ns#Reproduction" /><cc:permits
         rdf:resource="http://creativecommons.org/ns#Distribution" /><cc:permits
         rdf:resource="http://creativecommons.org/ns#DerivativeWorks" /></cc:License></rdf:RDF></metadata><defs
   id="defs365"><linearGradient
     id="linearGradient1514"
     y2="-42.219002"
     gradientUnits="userSpaceOnUse"
     x2="14.049"
     gradientTransform="matrix(0.33692,0,0,0.16689,17.983,15.462)"
     y1="166.13"
     x1="52.006001"><stop
       id="stop17"
       stop-color="#ccc"
       offset="0" /><stop
       id="stop19"
       stop-color="#fff"
       offset=".9831" /></linearGradient><linearGradient
     id="XMLID_39_"
     y2="35.569"
     gradientUnits="userSpaceOnUse"
     x2="64.388"
     gradientTransform="matrix(0.3541,0,0,0.3541,1.6387,-0.083649)"
     y1="65.124001"
     x1="64.388">
						<stop
   id="stop336"
   stop-color="#fff"
   offset="0" />
						<stop
   id="stop338"
   stop-color="#FF6200"
   offset=".8539" />
						<stop
   id="stop340"
   stop-color="#F25D00"
   offset="1" />
						<midPointStop
   id="midPointStop335"
   stop-color="#FFFFFF"
   offset="0" />
						<midPointStop
   id="midPointStop337"
   stop-color="#FFFFFF"
   offset="0.5" />
						<midPointStop
   id="midPointStop339"
   stop-color="#FF6200"
   offset="0.8539" />
						<midPointStop
   id="midPointStop341"
   stop-color="#FF6200"
   offset="0.5" />
						<midPointStop
   id="midPointStop343"
   stop-color="#F25D00"
   offset="1" />
					</linearGradient><radialGradient
     id="radialGradient2305"
     gradientUnits="userSpaceOnUse"
     cy="24.202999"
     cx="7.5327001"
     gradientTransform="matrix(4.1001,0,0,4.2013,-25.415,-78.54)"
     r="8.2452002"><stop
       id="stop2301"
       stop-color="#fff"
       offset="0" /><stop
       id="stop2303"
       stop-color="#fff"
       stop-opacity="0"
       offset="1" /></radialGradient><radialGradient
     id="radialGradient2313"
     gradientUnits="userSpaceOnUse"
     cy="36.778"
     cx="19.986"
     gradientTransform="matrix(1.1253,0,0,0.98274,-3.4287,0.56579)"
     r="1.0821"><stop
       id="stop2309"
       stop-color="#edd400"
       offset="0" /><stop
       id="stop2311"
       stop-color="#980"
       offset="1" /></radialGradient><radialGradient
     id="radialGradient2325"
     gradientUnits="userSpaceOnUse"
     cy="37.425999"
     cx="20.444"
     gradientTransform="matrix(1.1253,0,0,0.98274,-3.4287,0.73111)"
     r="1.0821"><stop
       id="stop2321"
       offset="0" /><stop
       id="stop2323"
       stop-opacity="0"
       offset="1" /></radialGradient><linearGradient
     id="linearGradient2335"
     y2="36.035"
     gradientUnits="userSpaceOnUse"
     x2="25.058001"
     gradientTransform="matrix(0.93711,0,0,1.1193,-0.54235,-4.1235)"
     y1="36.035"
     x1="12.98"><stop
       id="stop2331"
       stop-opacity=".18557"
       offset="0" /><stop
       id="stop2333"
       stop-color="#fff"
       offset="1" /></linearGradient><radialGradient
     id="radialGradient2339"
     gradientUnits="userSpaceOnUse"
     cy="19.554001"
     cx="11.681"
     gradientTransform="matrix(4.1001,0,0,-4.2013,-5.1981,105.35)"
     r="8.2452002"><stop
       id="stop2343"
       offset="0" /><stop
       id="stop2345"
       stop-opacity="0"
       offset="1" /></radialGradient><radialGradient
     id="radialGradient2355"
     gradientUnits="userSpaceOnUse"
     cy="40.569"
     cx="24.023001"
     gradientTransform="matrix(1,0,0,0.43125,0,23.074)"
     r="16.287001"><stop
       id="stop2351"
       offset="0" /><stop
       id="stop2353"
       stop-opacity="0"
       offset="1" /></radialGradient><radialGradient
     id="radialGradient2374"
     gradientUnits="userSpaceOnUse"
     cy="30.443001"
     cx="29.913"
     gradientTransform="matrix(3.7722,0,0,3.1478,-82.185,-65.246)"
     r="4.0019002"><stop
       id="stop2370"
       stop-color="#fff"
       offset="0" /><stop
       id="stop2372"
       stop-color="#fff"
       stop-opacity="0"
       offset="1" /></radialGradient><radialGradient
     id="radialGradient2384"
     gradientUnits="userSpaceOnUse"
     cy="10.578"
     cx="24.195"
     gradientTransform="matrix(1.1253,-3.5854e-8,4.2698e-8,1.3401,-3.0067,1.3554)"
     r="15.243"><stop
       id="stop2380"
       stop-color="#575757"
       offset="0" /><stop
       id="stop2382"
       stop-color="#575757"
       stop-opacity="0"
       offset="1" /></radialGradient><linearGradient
     id="linearGradient2396"
     y2="36.112"
     gradientUnits="userSpaceOnUse"
     x2="30.604"
     gradientTransform="matrix(1.1742,0,0,1.1253,-4.2401,-2.0448)"
     y1="37.338001"
     x1="30.604"><stop
       id="stop2392"
       stop-color="#919191"
       offset="0" /><stop
       id="stop2394"
       stop-color="#919191"
       stop-opacity="0"
       offset="1" /></linearGradient><linearGradient
     id="linearGradient2412"
     y2="41.032001"
     gradientUnits="userSpaceOnUse"
     x2="19.040001"
     gradientTransform="matrix(0.91019,0,0,1.1253,1.7335,-3.0294)"
     y1="28.938999"
     x1="17.85"><stop
       id="stop2408"
       stop-color="#7c7e79"
       offset="0" /><stop
       id="stop2414"
       stop-color="#848681"
       offset=".17241" /><stop
       id="stop2410"
       stop-color="#898c86"
       offset="1" /></linearGradient></defs><sodipodi:namedview
   id="base"
   bordercolor="#666666"
   pagecolor="#ffffff"
   stroke="#a40000"
   borderopacity="0.21568627"
   showgrid="false"
   showguides="true"
   fill="#555753"
   inkscape:showpageshadow="2"
   inkscape:pageopacity="0.0"
   inkscape:pagecheckerboard="0"
   inkscape:deskcolor="#d1d1d1"
   inkscape:zoom="3.2526782"
   inkscape:cx="140.34589"
   inkscape:cy="143.72771"
   inkscape:current-layer="svg2" />
	
<g
   id="g1"
   transform="matrix(5.2286591,0,0,5.2286591,2.2125603,4.7195925)"><ellipse
     id="path2347"
     style="color:#000000;fill:url(#radialGradient2355)"
     opacity="0.61364"
     transform="matrix(1.2659,0,0,0.81541,-6.2712,9.1512)"
     fill="url(#radialGradient2355)"
     cx="24.023088"
     cy="40.56913"
     rx="16.28684"
     ry="7.0236998" /><path
     id="rect1512"
     style="color:#000000;fill:url(#linearGradient1514)"
     d="m 21.62,8.1834 h 5.957 c 0.84,0 13.887,15.436 13.887,16.341 l -1.194,18.497 c 0,0.905 -0.676,1.634 -1.516,1.634 H 9.297 c -0.8398,0 -1.5158,-0.729 -1.5158,-1.634 L 6.5877,24.5244 c 0,-0.905 14.192,-16.341 15.032,-16.341 z"
     sodipodi:nodetypes="ccccccccc"
     stroke="#757575"
     fill="url(#linearGradient1514)" /><path
     id="path2327"
     d="M 22.94,28.332 22.892,44.091 H 11.669 L 10.428,28.332 Z"
     fill-rule="evenodd"
     sodipodi:nodetypes="ccccc"
     clip-rule="evenodd"
     fill="url(#linearGradient2335)"
     style="fill:url(#linearGradient2335)" /><path
     id="path5"
     fill="none"
     d="M 46.964,45.736 H 1.639 l -3e-4,-45.325 45.325,-3.2e-4 v 45.325 z" /><path
     id="path2357"
     opacity="0.3125"
     style="color:#000000"
     d="m 21.78,9.4056 h 5.56 c 0.783,0 13,14.399 13,15.244 l -1.222,18.212 c 0,0.459 -0.143,0.654 -0.512,0.654 l -29.075,0.014 c -0.3684,0 -0.5838,-0.08 -0.5838,-0.454 L 7.7251,24.6496 c 0,-0.845 13.272,-15.244 14.055,-15.244 z"
     sodipodi:nodetypes="ccccccccc"
     stroke="#ffffff"
     fill="none" /><path
     id="path23"
     opacity="0.2"
     d="m 7.2075,27.943 -0.0542,2.595 18.368,-13.179 15.287,11.154 0.071,-0.311 -16.37,-15.904 -17.302,15.645 z"
     fill-rule="evenodd"
     sodipodi:nodetypes="ccccccc"
     clip-rule="evenodd"
     fill="url(#radialGradient2384)"
     style="fill:url(#radialGradient2384)" /><path
     id="path188"
     d="M 21.794,29.535 V 44.091 H 12.747 L 11.553,29.535 Z"
     fill-rule="evenodd"
     sodipodi:nodetypes="ccccc"
     clip-rule="evenodd"
     fill="url(#linearGradient2412)"
     style="fill:url(#linearGradient2412)" /><path
     id="path2315"
     opacity="0.40909"
     d="m 19.577,36.448 c 0.673,0 1.216,0.474 1.216,1.058 0,0.59 -0.543,1.069 -1.216,1.069 -0.672,0 -1.219,-0.479 -1.219,-1.069 0.001,-0.584 0.547,-1.058 1.219,-1.058 z"
     fill-rule="evenodd"
     clip-rule="evenodd"
     fill="url(#radialGradient2325)"
     style="fill:url(#radialGradient2325)" /><path
     id="path217"
     d="m 19.462,35.932 c 0.673,0 1.217,0.475 1.217,1.059 0,0.59 -0.544,1.068 -1.217,1.068 -0.672,0 -1.218,-0.478 -1.218,-1.068 0,-0.584 0.546,-1.059 1.218,-1.059 z"
     fill-rule="evenodd"
     clip-rule="evenodd"
     fill="url(#radialGradient2313)"
     style="fill:url(#radialGradient2313)" /><path
     id="path342"
     sodipodi:nodetypes="ccccccccccccc"
     fill="url(#XMLID_39_)"
     d="m 24.448,11.559 18.927,17.17 0.494,0.392 L 44.273,28.95 43.9,28.188 43.623,27.965 24.448,12.392 5.058,28.136 4.8206,28.28 4.6039,28.987 5.0373,29.116 5.4219,28.807 24.4479,11.559 Z"
     style="fill:url(#XMLID_39_)" /><path
     id="path362"
     d="m 24.33,2.2713 -17.727,15.362 -4.7793,9.906 1.9999,2.064 c 0,0 20.407,-17.157 20.624,-17.328 l 19.632,17.543 1.899,-2.324 -4.445,-9.851 -17.086,-15.476 -0.118,0.1043 z"
     sodipodi:nodetypes="cccccccccc"
     stroke="#a40000"
     fill="#ef2929" /><path
     id="path1536"
     opacity="0.40909"
     style="color:#000000;fill:url(#radialGradient2305)"
     d="M 6.9956,17.961 2.5498,27.236 24.3688,8.98 24.2988,3.0867 6.9958,17.9607 Z"
     sodipodi:nodetypes="ccccc"
     fill="url(#radialGradient2305)" /><path
     id="path2337"
     opacity="0.13636"
     style="color:#000000;fill:url(#radialGradient2339)"
     d="m 24.484,8.751 0.099,-5.8411 16.589,15.089 4.232,9.064 -20.92,-18.312 z"
     sodipodi:nodetypes="ccccc"
     fill="url(#radialGradient2339)" /><path
     id="rect2359"
     style="color:#000000"
     d="m 27.097,28.898 h 9.699 c 0.137,0 0.248,0.11 0.248,0.247 l -0.563,9.677 c 0,0.137 -0.11,0.247 -0.247,0.247 h -9.137 c -0.137,0 -0.247,-0.11 -0.247,-0.247 v -9.677 c 0,-0.137 0.11,-0.247 0.247,-0.247 z"
     sodipodi:nodetypes="ccccccccc"
     stroke="#757575"
     fill="#3465a4" /><path
     id="rect2361"
     opacity="0.31818"
     style="color:#000000"
     d="m 27.102,27.72 h 9.689 c 0.771,0 1.391,0.62 1.391,1.391 l -0.633,9.705 c 0,0.771 -0.62,1.391 -1.391,1.391 h -9.056 c -0.77,0 -1.391,-0.62 -1.391,-1.391 v -9.705 c 0,-0.771 0.621,-1.391 1.391,-1.391 z"
     sodipodi:nodetypes="ccccccccc"
     stroke="#ffffff"
     fill="none" /><path
     id="rect2363"
     opacity="0.39773"
     style="color:#000000;fill:url(#radialGradient2374)"
     d="m 27.444,34.87 c 3.638,0.331 5.647,-1.446 9.006,-1.553 l 0.025,-3.85 -9.05,-0.006 z"
     sodipodi:nodetypes="ccccc"
     fill="url(#radialGradient2374)" /><path
     id="rect2376"
     style="color:#000000"
     d="m 30.962,28.915 h 2.321 l -0.07,10.097 h -2.532 z"
     sodipodi:nodetypes="ccccc"
     fill="#757575" /><path
     id="path2386"
     sodipodi:nodetypes="ccccccc"
     stroke="url(#linearGradient2396)"
     fill="#aaaaaa"
     style="color:#000000;stroke:url(#linearGradient2396)"
     d="m 27.052,38.515 -1.194,0.871 v 2.039 h 11.674 v -1.89 l -1.349,-1.02 z" /><path
     id="path2388"
     style="color:#000000"
     d="m 27.424,38.88 -1.09,0.854 H 36.96 l -0.753,-0.89 z"
     sodipodi:nodetypes="ccccc"
     fill="#dddddd" /></g></svg>
