<?xml version="1.0" encoding="UTF-8" standalone="no"?>
<svg
   width="256"
   height="256"
   version="1.1"
   id="svg7"
   sodipodi:docname="Start-here.svg"
   viewBox="0 0 256 256"
   inkscape:version="1.4.2 (ebf0e940d0, 2025-05-08)"
   xmlns:inkscape="http://www.inkscape.org/namespaces/inkscape"
   xmlns:sodipodi="http://sodipodi.sourceforge.net/DTD/sodipodi-0.dtd"
   xmlns:xlink="http://www.w3.org/1999/xlink"
   xmlns="http://www.w3.org/2000/svg"
   xmlns:svg="http://www.w3.org/2000/svg"
   xmlns:rdf="http://www.w3.org/1999/02/22-rdf-syntax-ns#"
   xmlns:cc="http://creativecommons.org/ns#">
  <sodipodi:namedview
     id="namedview7"
     pagecolor="#ffffff"
     bordercolor="#000000"
     borderopacity="0.25"
     inkscape:showpageshadow="2"
     inkscape:pageopacity="0.0"
     inkscape:pagecheckerboard="0"
     inkscape:deskcolor="#d1d1d1"
     inkscape:zoom="1.5707346"
     inkscape:cx="151.20314"
     inkscape:cy="132.10379"
     inkscape:current-layer="svg7" />
  <defs
     id="defs2">
    <linearGradient
       id="a">
      <stop
         offset="0"
         stop-color="#fff"
         id="stop1" />
      <stop
         offset="1"
         stop-color="#fff"
         stop-opacity="0"
         id="stop2" />
    </linearGradient>
    <linearGradient
       id="b"
       x1="10.872"
       x2="10.872"
       y1="15.555"
       y2="54.633999"
       gradientUnits="userSpaceOnUse"
       xlink:href="#a"
       gradientTransform="matrix(5.97928,0,0,6.0474466,-21.084168,-11.293023)" />
    <linearGradient
       id="c"
       x1="10.872"
       x2="10.872"
       y1="15.555"
       y2="54.633999"
       gradientTransform="matrix(-5.97916,0,0,6.0473866,277.89389,-71.095696)"
       gradientUnits="userSpaceOnUse"
       xlink:href="#a" />
  </defs>
  <g
     fill="#3465a4"
     stroke="#204a87"
     stroke-width="2.13"
     id="g3"
     transform="matrix(6.0005821,0,0,6.0005821,-15.737649,-12.475138)">
    <path
       d="m 148.52832,163.19141 c -0.26074,-0.66602 -0.60742,-1.42383 -1.0293,-2.22657 l -2.63281,1.125 c -1.87012,-3.08398 -1.9834,-9.53125 -1.63379,-11.61474 0.83887,-5 3.1377,-9.4209 1.5625,-14.53028 -1.81152,-5.87597 -5.67676,-15.04003 -11.89453,-17.44628 -3.58789,-1.38868 -6.32324,1.74023 -8.08789,4.4873 -2.70508,4.21191 -4.19043,9.32031 -4.66113,14.27832 -0.53418,5.61328 0.8164,11.36328 3.46093,16.32178 2.54004,4.76562 6.80176,8.75976 8.50391,13.95312 l -2.29785,0.98242 c 0.16406,0.53321 0.3418,1.04883 0.53223,1.53321 1.84961,4.7207 8.06738,14.13672 14.51269,10.94531 6.55957,-3.25 5.81836,-12.31055 3.66504,-17.80859 z"
       transform="matrix(0.46633,0,0,0.47252,-46.476,-42.332)"
       id="path2" />
    <path
       d="m 148.52832,163.19141 c -0.26074,-0.66602 -0.60742,-1.42383 -1.0293,-2.22657 l -2.63281,1.125 c -1.87012,-3.08398 -1.9834,-9.53125 -1.63379,-11.61474 0.83887,-5 3.1377,-9.4209 1.5625,-14.53028 -1.81152,-5.87597 -5.67676,-15.04003 -11.89453,-17.44628 -3.58789,-1.38868 -6.32324,1.74023 -8.08789,4.4873 -2.70508,4.21191 -4.19043,9.32031 -4.66113,14.27832 -0.53418,5.61328 0.8164,11.36328 3.46093,16.32178 2.54004,4.76562 6.80176,8.75976 8.50391,13.95312 -0.65886,0.21404 -1.5319,0.65495 -2.29785,0.98242 0.16406,0.53321 0.3418,1.04883 0.53223,1.53321 1.84961,4.7207 8.06738,14.13672 14.51269,10.94531 6.55957,-3.25 5.81836,-12.31055 3.66504,-17.80859 z"
       transform="matrix(0.46633,0,0,0.47252,-46.476,-42.332)"
       id="path3" />
  </g>
  <path
     fill="none"
     stroke="url(#b)"
     stroke-width="6.00124"
     d="m 117.35195,202.80068 c -0.5868,-1.53179 -1.36703,-3.2747 -2.3165,-5.12093 l -7.24652,4.19098 c -4.2088,-7.09292 -8.759062,-27.65212 -7.41397,-39.87695 1.33737,-12.15467 8.11856,-30.21972 4.57349,-41.97091 C 100.87152,106.5086 89.530094,80.621258 75.536683,75.087071 67.461946,71.893213 61.835638,81.948407 55.484712,93.959892 c -5.958644,11.269558 -8.638048,25.712178 -8.376135,36.313438 0.320251,12.9632 4.479849,25.33288 10.431502,36.73705 5.716497,10.96055 20.630265,32.77619 24.461043,44.72051 l -5.699929,2.52676 c 0.369216,1.22634 1.297734,2.14496 1.726307,3.259 4.162646,10.85724 18.976493,30.17222 30.28334,23.56979 11.51285,-6.72272 13.88728,-25.64069 9.04111,-38.28576 z"
     opacity="0.538"
     id="path4"
     style="stroke:url(#b)" />
  <g
     fill="#729fcf"
     stroke="#3465a4"
     stroke-width="2.13"
     id="g6"
     transform="matrix(6.0005821,0,0,6.0005821,-15.737649,-12.475138)">
    <path
       d="m 148.52832,163.19141 c -0.26074,-0.66602 -0.60742,-1.42383 -1.0293,-2.22657 l -2.63281,1.125 c -1.87012,-3.08398 -1.9834,-9.53125 -1.63379,-11.61474 0.83887,-5 3.1377,-9.4209 1.5625,-14.53028 -1.81152,-5.87597 -5.67676,-15.04003 -11.89453,-17.44628 -3.58789,-1.38868 -6.32324,1.74023 -8.08789,4.4873 -2.70508,4.21191 -4.19043,9.32031 -4.66113,14.27832 -0.53418,5.61328 0.8164,11.36328 3.46093,16.32178 2.54004,4.76562 6.80176,8.75976 8.50391,13.95312 l -2.29785,0.98242 c 0.16406,0.53321 0.3418,1.04883 0.53223,1.53321 1.84961,4.7207 8.06738,14.13672 14.51269,10.94531 6.55957,-3.25 5.81836,-12.31055 3.66504,-17.80859 z"
       transform="matrix(-0.46632,0,0,0.47252,94.475,-52.332)"
       id="path5" />
    <path
       d="m 148.52832,163.19141 c -0.26074,-0.66602 -0.60742,-1.42383 -1.0293,-2.22657 l -2.63281,1.125 c -1.87012,-3.08398 -1.9834,-9.53125 -1.63379,-11.61474 0.83887,-5 3.1377,-9.4209 1.5625,-14.53028 -1.81152,-5.87597 -5.67676,-15.04003 -11.89453,-17.44628 -3.58789,-1.38868 -6.32324,1.74023 -8.08789,4.4873 -2.70508,4.21191 -4.19043,9.32031 -4.66113,14.27832 -0.53418,5.61328 0.8164,11.36328 3.46093,16.32178 2.54004,4.76562 6.80176,8.75976 8.50391,13.95312 l -2.29785,0.98242 c 0.16406,0.53321 0.3418,1.04883 0.53223,1.53321 1.84961,4.7207 8.06738,14.13672 14.51269,10.94531 6.55957,-3.25 5.81836,-12.31055 3.66504,-17.80859 z"
       transform="matrix(-0.46632,0,0,0.47252,94.475,-52.332)"
       id="path6" />
  </g>
  <path
     fill="none"
     stroke="url(#c)"
     stroke-width="6.00112"
     d="m 139.45833,142.99389 c 0.58679,-1.53178 1.367,-3.27466 2.31644,-5.12089 l 7.24638,4.19095 c 4.20872,-7.09285 8.75889,-27.65185 7.41383,-39.87656 -1.33734,-12.154543 -8.1184,-30.219421 -4.5734,-41.970481 4.07684,-13.51414 15.41804,-39.40123 29.41117,-44.935363 8.07458,-3.193824 13.70077,6.861269 20.05157,18.872636 5.95853,11.269444 8.63788,25.711927 8.37597,36.313077 -0.32025,12.963069 -4.47976,25.332627 -10.4313,36.736681 -5.71638,10.96045 -20.62984,32.77587 -24.46054,44.72008 l 5.69981,2.52673 c -0.36921,1.22632 -1.29771,2.14493 -1.72628,3.25896 -4.16256,10.85714 -18.97611,30.17192 -30.28273,23.56955 -11.51261,-6.72265 -13.88699,-25.64043 -9.04092,-38.28537 z"
     opacity="0.538"
     id="path7"
     style="stroke:url(#c)" />
  <metadata
     id="metadata7">
    <rdf:RDF>
      <cc:License
         rdf:about="http://creativecommons.org/publicdomain/zero/1.0/">
        <cc:permits
           rdf:resource="http://creativecommons.org/ns#Reproduction" />
        <cc:permits
           rdf:resource="http://creativecommons.org/ns#Distribution" />
        <cc:permits
           rdf:resource="http://creativecommons.org/ns#DerivativeWorks" />
      </cc:License>
      <cc:Work
         rdf:about="">
        <cc:license
           rdf:resource="http://creativecommons.org/publicdomain/zero/1.0/" />
      </cc:Work>
    </rdf:RDF>
  </metadata>
</svg>
