<?xml version="1.0" encoding="UTF-8" standalone="no"?>
<!-- Created with Inkscape (http://www.inkscape.org/) -->

<svg
   width="256mm"
   height="256mm"
   viewBox="0 0 256 256"
   version="1.1"
   id="svg1"
   inkscape:version="1.4 (e7c3feb100, 2024-10-09)"
   xml:space="preserve"
   sodipodi:docname="stock_folder.svg"
   xmlns:inkscape="http://www.inkscape.org/namespaces/inkscape"
   xmlns:sodipodi="http://sodipodi.sourceforge.net/DTD/sodipodi-0.dtd"
   xmlns:xlink="http://www.w3.org/1999/xlink"
   xmlns="http://www.w3.org/2000/svg"
   xmlns:svg="http://www.w3.org/2000/svg"
   xmlns:rdf="http://www.w3.org/1999/02/22-rdf-syntax-ns#"
   xmlns:cc="http://creativecommons.org/ns#"
   xmlns:dc="http://purl.org/dc/elements/1.1/"><defs
     id="defs1"><linearGradient
       id="linearGradient4"
       inkscape:collect="always"><stop
         style="stop-color:#9cefff;stop-opacity:1;"
         offset="0"
         id="stop4" /><stop
         style="stop-color:#94e8ff;stop-opacity:1;"
         offset="0.12507087"
         id="stop6" /><stop
         style="stop-color:#94c8ff;stop-opacity:1;"
         offset="0.30027211"
         id="stop7" /><stop
         style="stop-color:#8cb2ff;stop-opacity:1;"
         offset="0.45453432"
         id="stop13" /><stop
         style="stop-color:#3b60ff;stop-opacity:1;"
         offset="0.72262317"
         id="stop10" /><stop
         style="stop-color:#3c4dce;stop-opacity:1;"
         offset="0.87057084"
         id="stop11" /><stop
         style="stop-color:#2948ff;stop-opacity:1;"
         offset="1"
         id="stop5" /></linearGradient><linearGradient
       inkscape:collect="always"
       xlink:href="#linearGradient4"
       id="linearGradient5"
       x1="156.4379"
       y1="34.895657"
       x2="156.4379"
       y2="251.38397"
       gradientUnits="userSpaceOnUse" /></defs><sodipodi:namedview
     id="base"
     pagecolor="#ffffff"
     bordercolor="#000000"
     borderopacity="0.3"
     inkscape:pageopacity="0.0"
     inkscape:pageshadow="2"
     inkscape:zoom="0.98994949"
     inkscape:cx="505.07627"
     inkscape:cy="476.792"
     inkscape:document-units="mm"
     inkscape:showpageshadow="2"
     inkscape:pagecheckerboard="0"
     inkscape:deskcolor="#d1d1d1"
     inkscape:current-layer="rect1" /><metadata
     id="metadata1"><rdf:RDF><cc:Work
         rdf:about=""><dc:format>image/svg+xml</dc:format><dc:type
           rdf:resource="http://purl.org/dc/dcmitype/StillImage" /><cc:license
           rdf:resource="http://creativecommons.org/publicdomain/zero/1.0/" /></cc:Work><cc:License
         rdf:about="http://creativecommons.org/publicdomain/zero/1.0/"><cc:permits
           rdf:resource="http://creativecommons.org/ns#Reproduction" /><cc:permits
           rdf:resource="http://creativecommons.org/ns#Distribution" /><cc:permits
           rdf:resource="http://creativecommons.org/ns#DerivativeWorks" /></cc:License></rdf:RDF></metadata><g
     id="rect1"
     style="display:inline"><path
       style="color:#000000;display:inline;fill:#9cd0ff;stroke-linecap:round;stroke-linejoin:round;-inkscape-stroke:none;fill-opacity:1"
       d="M 7.1824215,30.467295 C 7.4779824,27.302853 7.7604671,24.125335 9.530436,22.435301 L 23.406724,7.0327711 91.239114,6.6547949 c 3.121283,0.1149569 3.714099,1.3438087 4.849395,2.4517592 l 6.250281,5.8846779 134.75612,-0.398937 c 4.11438,0.639408 6.89006,2.716149 9.08002,6.06858 1.99317,3.051166 2.84872,6.669706 2.72125,9.940055 0,4.96751 -0.11345,202.64103 -0.0182,214.46489 -0.0763,3.09582 -2.7335,6.68833 -6.59817,6.56988 H 13.362026 c -4.0097835,0.22491 -6.302103,-3.66666 -6.1471993,-6.88363 z"
       id="path2" /><path
       id="rect2"
       style="fill:#ffffff;stroke-width:2.462;stroke-linecap:round;stroke-linejoin:round"
       d="m 24.379465,6.6145835 h 68.035713 l 10.156242,8.6708615 134.69204,-0.0949 c 5.92835,2.790516 6.95957,4.764845 8.5183,6.827093 l -0.93802,2.704841 c 0.40384,-2.499617 -3.43145,-5.244857 -7.74159,-5.516141 l -136.87687,0.04704 -7.810102,-7.725107 -67.07456,0.26727 -13.389186,13.204131 -4.009043,-0.627066 z"
       sodipodi:nodetypes="ccccccccccccc" /><path
       style="color:#000000;display:inline;fill:#122cc5;stroke-linecap:round;stroke-linejoin:round;-inkscape-stroke:none;fill-opacity:1"
       d="M 91.232422,5.4238281 23.400391,5.8027344 a 1.231123,1.231123 0 0 0 -0.908204,0.40625 L 8.6152344,21.611328 8.6796875,21.544922 C 6.3996516,23.721987 6.25225,27.192737 5.9570312,30.353516 a 1.231123,1.231123 0 0 0 -0.00586,0.113281 L 5.984375,244.69336 c -0.092629,1.92368 0.5188107,3.94893 1.7734375,5.55078 1.2546268,1.60185 3.2594785,2.75652 5.6738285,2.62109 l -0.07031,0.002 H 242.2793 l -0.0371,-0.002 c 2.32186,0.0712 4.31144,-0.991 5.66797,-2.48046 1.35652,-1.48947 2.15268,-3.40101 2.19921,-5.28907 a 1.231123,1.231123 0 0 0 0,-0.0391 c -0.0943,-11.7029 0.0175,-209.338808 0.0176,-214.408203 0.1372,-3.519862 -0.7732,-7.370947 -2.92187,-10.660156 -2.32312,-3.55627 -5.49085,-5.924663 -9.92188,-6.613281 a 1.231123,1.231123 0 0 0 -0.1914,-0.01367 l -134.26563,0.396485 -5.894529,-5.5468755 0.01758,0.013672 C 96.467729,7.7547174 95.978159,7.0837726 95.097656,6.4882812 94.217153,5.8927899 93.004152,5.4871388 91.285156,5.4238281 a 1.231123,1.231123 0 0 0 -0.05273,0 z m -0.03125,2.4628906 c 1.393277,0.05281 2.039013,0.3169679 2.517578,0.6406251 0.480048,0.3246604 0.85596,0.8228801 1.509766,1.4609375 a 1.231123,1.231123 0 0 0 0.01563,0.013672 l 6.250004,5.884766 a 1.231123,1.231123 0 0 0 0.84766,0.335937 l 134.62694,-0.398437 c 3.75812,0.600931 6.13132,2.380069 8.17578,5.509765 1.83767,2.813117 2.63923,6.197922 2.52149,9.21875 a 1.231123,1.231123 0 0 0 0,0.04883 c 0,4.947816 -0.11564,202.422666 -0.0195,214.433596 -0.0298,1.20775 -0.59932,2.64027 -1.55664,3.6914 -0.95731,1.05113 -2.22868,1.72698 -3.77147,1.67969 a 1.231123,1.231123 0 0 0 -0.0391,-0.002 H 13.361328 a 1.231123,1.231123 0 0 0 -0.06836,0.002 c -1.59543,0.0895 -2.742406,-0.58969 -3.5976565,-1.68164 -0.8552508,-1.09195 -1.3122744,-2.62078 -1.25,-3.91406 a 1.231123,1.231123 0 0 0 0,-0.0586 L 8.4140625,30.541016 C 8.70972,27.390478 9.1268798,24.52352 10.380859,23.326172 a 1.231123,1.231123 0 0 0 0.06445,-0.06641 L 23.957031,8.2597656 Z"
       id="path3" /><path
       style="fill:url(#linearGradient5);stroke-linecap:round;stroke-linejoin:round"
       d="m 7.1824215,30.467295 c 0.2955609,-3.164442 0.1055754,-4.263091 1.8755443,-5.953125 0,0 2.8594992,-2.196094 4.6158712,-2.173363 22.003877,0.284772 207.914603,0.138596 226.761943,0.0023 2.23821,-0.01619 4.57329,0.74969 5.73915,2.193172 1.16586,1.443483 2.48122,2.760889 2.35375,6.031238 0,4.96751 0.25405,202.674443 0.3493,214.498303 -0.0763,3.09582 -2.7335,6.68833 -6.59817,6.56988 H 13.362026 c -4.0097835,0.22491 -6.302103,-3.66666 -6.1471993,-6.88363 z"
       id="path1" /><path
       id="rect3"
       style="fill:#f4fbff;stroke-width:4.503;stroke-linecap:square"
       d="m 6.6817379,222.10098 242.4088621,0 0.13363,24.05426 -4.00674,5.87993 H 11.290986 l -4.6092481,-7.88445 z"
       sodipodi:nodetypes="ccccccc" /></g><g
     id="path4"><path
       style="fill:#1251c5;stroke-linecap:round;stroke-linejoin:round"
       d="m 13.685547,21.390625 c -1.280704,-0.01657 -2.465402,0.629363 -3.457031,1.208984 -0.9916301,0.579622 -1.7500004,1.160157 -1.7500004,1.160157 a 0.95009499,0.95009499 0 0 0 -0.076172,0.06641 c -0.9716268,0.927746 -1.5129895,1.858202 -1.7597657,2.890625 -0.2467762,1.032423 -0.2611689,2.10879 -0.40625,3.662109 a 0.95009499,0.95009499 0 0 0 -0.00391,0.08789 L 6.265625,244.70703 c -0.089165,1.85173 0.5038453,3.81963 1.7128906,5.36328 1.2090453,1.54366 3.1166154,2.64385 5.4375004,2.51367 l -0.05469,0.002 H 242.25 c 2.23295,0.0684 4.14021,-0.95119 5.45117,-2.39063 1.31097,-1.43944 2.08234,-3.29505 2.12695,-5.10547 a 0.95009499,0.95009499 0 0 0 0,-0.0312 c -0.0947,-11.75013 -0.34952,-209.452141 -0.3496,-214.453121 0.13776,-3.534423 -1.44053,-5.274451 -2.56446,-6.666016 -1.45224,-1.798065 -4.02468,-2.564667 -6.48437,-2.546875 -18.80708,0.136005 -204.813708,0.281869 -226.744143,-0.002 z m -0.02344,1.900391 c 22.077319,0.285722 207.893651,0.13854 226.781251,0.002 2.01673,-0.01459 4.11271,0.750945 4.99219,1.839843 1.20779,1.495401 2.26171,2.392163 2.14453,5.398438 a 0.95009499,0.95009499 0 0 0 -0.002,0.03711 c 0,4.999172 0.25375,202.526691 0.34961,214.474611 -0.0317,1.2854 -0.62798,2.77189 -1.63086,3.87305 -1.00287,1.10115 -2.35656,1.81954 -3.98828,1.76953 a 0.95009499,0.95009499 0 0 0 -0.0293,0 H 13.361328 a 0.95009499,0.95009499 0 0 0 -0.05273,0.002 c -1.688899,0.0947 -2.93315,-0.63892 -3.8339846,-1.78906 -0.9008344,-1.15015 -1.3762859,-2.73633 -1.3105469,-4.10157 a 0.95009499,0.95009499 0 0 0 0,-0.0449 L 8.1328125,30.517578 c 0.146432,-1.58154 0.186669,-2.636835 0.359375,-3.359375 0.1723576,-0.721082 0.4329157,-1.1867 1.2070313,-1.931641 0.051151,-0.03896 0.6463002,-0.496131 1.4882812,-0.988281 0.877213,-0.512743 1.998941,-0.953421 2.474609,-0.947265 z"
       id="path5" /></g></svg>
