<?xml version="1.0" encoding="UTF-8" standalone="no"?>
<!-- Created with Inkscape (http://www.inkscape.org/) -->

<svg
   width="256mm"
   height="256mm"
   viewBox="0 0 256 256"
   version="1.1"
   id="svg1"
   inkscape:version="1.4.2 (ebf0e940d0, 2025-05-08)"
   sodipodi:docname="animal.svg"
   xml:space="preserve"
   xmlns:inkscape="http://www.inkscape.org/namespaces/inkscape"
   xmlns:sodipodi="http://sodipodi.sourceforge.net/DTD/sodipodi-0.dtd"
   xmlns="http://www.w3.org/2000/svg"
   xmlns:svg="http://www.w3.org/2000/svg"
   xmlns:rdf="http://www.w3.org/1999/02/22-rdf-syntax-ns#"
   xmlns:cc="http://creativecommons.org/ns#"
   xmlns:dc="http://purl.org/dc/elements/1.1/"><title
     id="title1">Lion Animal</title><sodipodi:namedview
     id="namedview1"
     pagecolor="#ffffff"
     bordercolor="#000000"
     borderopacity="0.25"
     inkscape:showpageshadow="2"
     inkscape:pageopacity="0.0"
     inkscape:pagecheckerboard="0"
     inkscape:deskcolor="#d1d1d1"
     inkscape:document-units="mm"
     inkscape:zoom="0.22724659"
     inkscape:cx="576.4663"
     inkscape:cy="1234.342"
     inkscape:current-layer="svg1" /><defs
     id="defs1" /><metadata
     id="metadata1"><rdf:RDF><cc:Work
         rdf:about=""><cc:license
           rdf:resource="http://creativecommons.org/publicdomain/zero/1.0/" /><dc:title>Lion Animal</dc:title></cc:Work><cc:License
         rdf:about="http://creativecommons.org/publicdomain/zero/1.0/"><cc:permits
           rdf:resource="http://creativecommons.org/ns#Reproduction" /><cc:permits
           rdf:resource="http://creativecommons.org/ns#Distribution" /><cc:permits
           rdf:resource="http://creativecommons.org/ns#DerivativeWorks" /></cc:License></rdf:RDF></metadata><g
     id="g8"
     style="display:inline"
     transform="matrix(4.5587629,0,0,4.5587629,-477.20103,-581.73193)"><path
       style="display:inline;fill:#865d4f"
       d="m 132.42108,181.80661 c -1.48905,-1.45318 -4.63146,-3.34729 -5.22264,-3.14797 -0.1819,0.0613 -0.33073,0.3397 -0.33073,0.61861 0,1.39409 -2.58783,-0.50737 -4.08458,-3.00122 -1.09119,-1.81812 -1.67687,-2.19986 -1.92417,-1.25416 -0.204,0.78008 -0.50463,0.6692 -2.22383,-0.82016 -1.21582,-1.05329 -1.80252,-1.84371 -2.6741,-3.60263 -0.6141,-1.23931 -1.27326,-2.31342 -1.46479,-2.38692 -0.19153,-0.0735 -0.56154,0.0594 -0.82224,0.29533 -0.72741,0.6583 -1.09284,0.51555 -1.10321,-0.43093 -0.005,-0.47294 -0.18192,-1.57427 -0.39275,-2.4474 -0.21082,-0.87312 -0.38517,-2.62929 -0.38745,-3.9026 -0.005,-2.61529 -0.2081,-2.82737 -1.45934,-1.52135 -0.41825,0.43656 -0.87254,0.79375 -1.00953,0.79375 -0.3884,0 -0.0269,-5.45976 0.49049,-7.40834 0.25116,-0.94588 0.67906,-2.16153 0.95087,-2.70144 0.74701,-1.48377 0.67317,-1.62835 -0.73316,-1.43559 l -1.22737,0.16823 0.14762,-1.52133 c 0.38063,-3.92278 1.60032,-6.50147 3.34775,-7.07784 1.36804,-0.45124 1.52777,-0.916 0.73389,-2.13533 -0.66463,-1.02082 -1.39943,-3.22248 -1.15654,-3.46536 0.068,-0.068 0.75225,0.0631 1.52062,0.29129 1.56754,0.46551 3.83144,0.55103 4.07682,0.15399 0.0887,-0.14348 -0.128,-0.76856 -0.48151,-1.38906 -0.72634,-1.27492 -1.07679,-2.75161 -0.70723,-2.98001 0.13576,-0.0839 0.74719,0.1027 1.35873,0.41468 1.30438,0.66544 5.25626,1.07022 5.25626,0.53837 0,-0.17211 -0.23812,-0.77969 -0.52917,-1.35018 -0.58051,-1.13791 -0.70043,-2.38125 -0.22966,-2.38125 0.16472,0 0.71364,0.25596 1.21982,0.56879 0.70922,0.43832 1.5357,0.60936 3.60311,0.74566 2.96262,0.19531 4.04123,0.59949 4.9768,1.86492 0.32099,0.43416 0.71005,0.78932 0.86459,0.78925 0.15453,-7e-5 0.79159,-0.59307 1.41569,-1.31777 1.11148,-1.29064 3.36921,-2.86533 3.67285,-2.56168 0.0844,0.0844 -0.04,0.63706 -0.27653,1.22812 -0.72309,1.80717 -0.46584,2.05101 0.99128,0.93961 1.61469,-1.23159 3.23491,-1.76792 5.46996,-1.81072 2.61619,-0.0501 3.00003,0.23386 1.96834,1.45608 -1.23404,1.46196 -2.21924,4.18316 -1.51449,4.18316 0.11074,0 1.45019,-0.53345 2.97656,-1.18543 3.9694,-1.69552 4.32697,-1.60979 2.90752,0.69712 -0.43656,0.7095 -0.79375,1.42216 -0.79375,1.58369 0,0.45734 1.46825,0.0631 2.58106,-0.69311 1.50307,-1.02137 1.73811,-0.91176 1.6006,0.74645 -0.0726,0.87487 -0.33704,1.72203 -0.69423,2.22366 -0.78728,1.10563 -0.73906,1.29669 0.48486,1.92109 1.79619,0.91635 3.38872,3.69071 3.8379,6.68607 0.27441,1.82991 0.12342,2.0457 -1.22015,1.74382 -1.53711,-0.34537 -1.82733,0.003 -1.0926,1.30982 0.59039,1.05046 2.17547,5.32692 2.17547,5.8693 0,0.18292 -0.37488,0.0756 -0.92606,-0.265 -1.21956,-0.75372 -1.30504,-0.50106 -0.93952,2.77695 0.29002,2.60088 -0.003,6.86477 -0.50588,7.37166 -0.1245,0.1254 -0.42708,-0.0815 -0.67704,-0.46302 -0.7345,-1.12099 -1.10611,-0.84936 -1.55837,1.13907 -0.22877,1.00585 -0.93938,3.22723 -1.57913,4.93639 l -1.16317,3.10758 -0.69436,-1.09993 c -0.38189,-0.60497 -0.8007,-1.09993 -0.93068,-1.09993 -0.12998,0 -0.58887,0.75336 -1.01975,1.67414 -0.61821,1.32109 -1.23247,2.06983 -2.91273,3.55045 -1.17111,1.03198 -2.37761,2.00921 -2.68109,2.17163 -0.51634,0.27633 -0.5518,0.2277 -0.5518,-0.75672 0,-0.57861 -0.10761,-1.11853 -0.23913,-1.19982 -0.37239,-0.23014 -5.50896,3.77287 -6.12938,4.77672 -0.3046,0.49285 -0.63469,0.8961 -0.73355,0.8961 -0.0988,0 -0.83328,-0.63781 -1.63207,-1.41735 z m 3.02922,-8.22178 c 2.95935,-0.89064 4.63721,-2.95883 5.22152,-6.43625 l 0.32295,-1.92199 1.73387,-1.12163 c 2.29431,-1.48418 5.59981,-4.78452 6.32948,-6.3196 0.80551,-1.69463 1.17254,-4.19234 0.98818,-6.72473 l -0.15529,-2.13312 0.94629,-0.90959 c 0.52045,-0.50027 1.24841,-1.42123 1.61768,-2.04656 0.55625,-0.94197 0.649,-1.37011 0.5408,-2.49623 -0.11253,-1.17113 -0.2804,-1.49899 -1.21284,-2.36876 -0.97789,-0.91216 -1.22042,-1.0095 -2.51538,-1.0095 -1.54146,0 -2.812,0.43031 -4.42786,1.49964 -1.00298,0.66374 -1.0367,0.66744 -2.26615,0.24852 -1.53826,-0.52414 -4.04703,-0.55006 -5.23408,-0.0541 -0.48857,0.20415 -1.36238,0.79946 -1.94179,1.32292 -0.57942,0.52346 -1.23065,0.95175 -1.4472,0.95175 -0.21654,0 -0.91649,-0.41567 -1.55543,-0.92372 -2.33801,-1.85905 -4.98573,-2.14771 -8.30578,-0.90552 l -1.51316,0.56615 -0.69847,-0.56155 c -1.49234,-1.19978 -2.69383,-1.87467 -3.86034,-2.1684 -1.10012,-0.27701 -1.33046,-0.24654 -2.43496,0.32219 -1.54755,0.79686 -2.29947,2.06069 -2.08244,3.50019 0.20542,1.3625 0.71024,2.28411 2.12151,3.87313 1.05047,1.18278 1.15765,1.42014 0.98686,2.18564 -0.10538,0.47232 -0.18755,1.94105 -0.18261,3.26385 0.008,2.18438 0.0904,2.57046 0.89622,4.20729 1.06513,2.16359 4.27057,5.49543 6.96838,7.24318 0.98103,0.63556 1.7837,1.17924 1.7837,1.20818 0,0.0289 0.12972,0.75431 0.28825,1.61193 0.57723,3.12248 2.10334,5.13658 4.52612,5.9734 1.70712,0.58963 2.90484,0.62199 4.56197,0.12327 z m 0.16241,-7.80928 c 0.0383,-0.29078 0.25071,-0.67132 1.01206,-0.57389 0.64728,0.0828 1.69948,1.11239 1.76011,1.16513 0.24818,0.21587 -2.91771,0.51494 -2.86313,0.10009 z m -7.30274,-1.53501 c 1.61301,-0.80053 1.56142,0.16254 2.13347,0.16989 0.19017,0.002 -0.95497,0.13951 -1.19452,0.29674 -0.35278,0.23159 -0.35278,0.28948 0,0.52107 0.70145,0.46047 2.6741,0.17822 3.63193,-0.41376 0.84211,-0.52045 0.92068,-0.40096 1.5344,0.001 0.35998,0.23587 1.39128,0.77221 1.39128,0.85835 0,0.0861 0.0152,0.99496 -0.35524,0.75221 -0.6374,-0.41764 -1.44857,-1.21262 -2.28028,-0.6986 -1.01805,0.6292 -3.85753,0.76482 -4.59737,0.22383 z m 9.90013,1.16618 c 0.16208,-0.19529 0.20642,-0.4525 0.0985,-0.57158 -0.10787,-0.11909 0.28596,-0.65487 0.4749,-0.54577 1.40984,0.32892 1.27874,2.02204 -0.29366,2.12702 -0.28576,0.0191 -0.88407,-0.34501 -1.1971,-0.84556 -0.0386,-0.0617 0.7553,0.0312 0.91737,-0.16406 z m -2.16222,-0.96658 c -1.47104,-0.75093 -1.99418,-1.15839 -0.46328,-2.53887 0.54337,-0.48998 1.04921,-2.00797 1.39245,-2.74509 0.34324,-0.73712 1.44208,-0.64637 1.4435,-0.45867 0.004,0.56543 -1.00477,2.36038 -1.90028,3.38032 -1.04295,1.18785 -0.16722,0.89325 1.67434,1.5325 0.71528,0.24829 0.23463,1.72082 -0.0564,1.72696 -0.29105,0.006 -1.59189,-0.64271 -2.09032,-0.89715 z m -4.73122,-1.05292 c 0.25743,-0.0671 0.23513,0.69627 0.41426,0.76897 0.17913,0.0725 -0.7583,0.42966 -1.19485,0.42427 -0.43657,-0.005 -1.50933,-0.49564 -1.2519,-0.56271 z m -0.0503,-0.16865 0.33537,-0.0366 -0.86853,-1.20292 c -1.13633,-1.57383 -2.73723,-3.71701 -2.61826,-4.74874 0.0822,-0.71262 6.59368,-3.72219 5.94283,-1.72452 l 0.25142,1.64343 -2.9124,0.20868 c -2.04052,0.0924 -1.8833,-0.30228 -1.8833,0.4252 0,1.0531 1.53832,3.16103 2.70539,4.06095 1.34159,1.03449 1.04012,1.97004 -0.15852,2.22165 l -0.82704,0.17361 z m 6.19691,-5.72577 c 0.18004,-0.67113 -1.48606,0.16932 -3.21879,0.0795 0,0 -0.07,-0.44379 -0.10078,-0.96734 -0.0428,-0.72818 -0.0967,-0.978 -0.0967,-0.978 1.72163,-0.76433 5.58039,0.004 4.67598,2.91081 -0.0977,0.31391 -1.67324,0.49673 -1.54983,0.0367 z m 1.79244,-6.81891 c -0.64071,-0.64071 -0.76663,-0.94426 -0.63114,-1.52136 0.20614,-0.878 1.30727,-1.91157 2.03653,-1.91157 0.708,0 2.08156,1.39673 2.08156,2.11667 0,0.73651 -1.38015,2.11667 -2.11667,2.11667 -0.31343,0 -0.93005,-0.36019 -1.37028,-0.80041 z m 2.01926,0.27598 c 1.38679,-0.52725 1.39831,-2.65285 0.0172,-3.17794 -0.9267,-0.35233 -1.86923,0.0674 -2.18489,0.97286 -0.4185,1.20049 0.0307,1.96662 1.43531,2.44815 0.0269,0.009 0.35647,-0.10015 0.73235,-0.24307 z m -16.13913,-0.38959 c -0.40937,-0.40937 -0.64943,-0.95173 -0.64943,-1.46723 0,-1.00442 1.02866,-2.11667 1.9576,-2.11667 0.82515,0 1.94016,0.97234 2.15165,1.87634 0.11911,0.50913 -0.0206,0.90089 -0.54273,1.52135 -0.88232,1.04858 -1.98437,1.11893 -2.91709,0.18621 z m 2.4667,-0.027 c 0.40269,-0.28205 0.58804,-0.6831 0.58804,-1.27235 0,-1.69737 -1.44954,-2.48857 -2.72343,-1.48652 -0.90146,0.70908 -0.92666,1.66138 -0.0667,2.52132 0.75083,0.75083 1.37341,0.81799 2.20211,0.23755 z"
       id="path9"
       sodipodi:nodetypes="ssssssssscscssssscsssssssssssssssssscsssssssscsssscscsccsscsssssssssssscssscsssssssssssscsssssscssscssssssssccsssssssccsccssssssscsscscccccccsssccsssccscsssssssssssssscsssssscsssssss" /><path
       style="fill:#fad497"
       d="m 130.63852,174.13933 c -1.70323,-0.40185 -3.57092,-2.31501 -4.09969,-4.19949 -1.15315,-4.10965 -0.54134,-6.31731 0.11767,-9.51067 1.20699,-5.84871 5.13264,-8.78876 8.88481,-7.22139 2.6324,1.09962 4.65439,3.75217 5.34268,8.77913 0.44429,3.24496 0.68419,7.41085 -0.80698,9.21989 -1.4702,1.78361 -6.82928,3.54814 -9.43849,2.93253 z m 2.30641,-8.54741 c 0.6517,-0.38497 0.77544,-0.37487 1.74004,0.14213 1.11687,0.59861 2.99348,0.73669 3.8418,0.28268 0.28934,-0.15485 0.51177,-0.55193 0.51177,-0.91361 0,-0.51384 -0.19521,-0.69392 -0.99218,-0.91525 -0.54571,-0.15155 -1.11453,-0.27621 -1.26405,-0.27702 -0.14952,-8.1e-4 -0.54044,-0.1896 -0.86871,-0.41953 l -0.59685,-0.41805 0.84196,-0.95894 c 1.66963,-1.9016 2.73632,-5.31249 1.83549,-5.86923 -0.50275,-0.31071 -7.68145,-0.0102 -8.47742,0.35493 -0.36202,0.16605 -0.69464,0.49101 -0.73915,0.72213 -0.15338,0.79642 1.02068,3.36064 2.10026,4.5871 0.59516,0.67614 1.03767,1.26758 0.98336,1.31431 -0.39258,0.33776 -1.36281,0.6858 -1.9118,0.6858 -1.06313,0 -1.31415,0.61349 -1.31415,1.30158 0,1.31817 2.55222,1.4191 4.30963,0.38097 z"
       id="path14"
       sodipodi:nodetypes="sssssssssssssscsssssssss" /><path
       style="display:inline;fill:#f9b902"
       d="m 124.16311,164.90081 c -3.01131,0 -6.26471,-5.3178 -7.13829,-7.04171 -0.97886,-1.93169 -1.34742,-4.46585 -0.97632,-6.71296 l 0.30337,-1.83697 -1.09115,-1.23766 c -2.73767,-3.10526 -2.68366,-7.04089 -0.0873,-8.38351 1.60494,-0.82995 3.98981,0.0509 6.08163,1.76502 l 1.17498,0.96281 1.85604,-0.59778 c 3.32689,-1.0715 5.76382,-0.7876 8.01957,0.93426 0.6497,0.49592 1.39077,0.90167 1.64684,0.90167 0.25607,0 1.03825,-0.47322 1.73817,-1.0516 1.99444,-1.64811 3.68059,-1.9407 6.6398,-1.15219 1.63338,0.43524 2.90853,-0.25817 3.70868,-0.82792 3.14055,-2.23627 5.54123,-0.65701 7.00917,1.7506 1.00362,1.64607 0.43584,3.63897 -1.64876,5.78684 l -1.1844,1.22035 0.20614,1.51903 c 0.11338,0.83547 0.10297,2.51897 -0.0231,3.74112 -0.27877,2.70193 -1.07415,4.32233 -3.17212,6.46245 -1.50965,1.53997 -6.05786,4.3796 -6.6254,4.3796 -0.20631,0 -0.39093,-0.65069 -0.50672,-1.78594 -0.23677,-2.32139 -0.41374,-5.40958 -1.0228,-6.78644 -1.012,-2.2878 -3.28031,-4.09287 -5.16122,-4.1072 -2.34071,-0.0178 -4.76093,1.78317 -6.04435,4.49788 -0.82057,1.73566 -1.32116,5.53748 -1.32116,7.56054 0,0.8065 -0.0893,1.46258 -0.19843,1.45796 -0.10914,-0.005 -0.844,-1.41825 -2.18282,-1.41825 z m 17.8062,-14.20025 c 0.42537,-0.42537 0.7734,-1.02984 0.7734,-1.34327 0,-0.71994 -1.37356,-2.11667 -2.08156,-2.11667 -0.72926,0 -1.83039,1.03357 -2.03653,1.91157 -0.13549,0.5771 -0.01,0.88065 0.63114,1.52136 1.0048,1.00479 1.72857,1.012 2.71355,0.027 z m -13.91633,-0.32683 c 0.83344,-0.99048 0.74281,-1.88495 -0.28394,-2.80238 -0.86719,-0.77485 -1.82383,-0.75519 -2.63315,0.0541 -1.29686,1.29687 -0.38324,3.5839 1.43169,3.5839 0.55308,0 0.98826,-0.24482 1.4854,-0.83564 z"
       id="path11"
       sodipodi:nodetypes="ssscssscsssssssscscssssssscsssssscsssscsss" /><path
       style="fill:#3a3831"
       d="m 135.59896,165.54442 c -0.21828,-0.0989 -0.72117,-0.39984 -1.11753,-0.66874 -0.70561,-0.47869 -0.73939,-0.47731 -1.61873,0.0662 -0.95783,0.59198 -2.91229,0.74688 -3.61374,0.28641 -0.35278,-0.23159 -0.35278,-0.28948 0,-0.52107 0.21828,-0.14329 0.69453,-0.2628 1.05833,-0.26557 0.74128,-0.006 2.38125,-0.91176 2.38125,-1.31567 0,-0.14413 -0.41467,-0.6394 -0.9215,-1.10061 -1.08122,-0.98389 -2.2535,-3.19647 -2.2535,-4.25331 0,-0.69613 0.0692,-0.74188 1.12448,-0.74301 0.61847,-6.6e-4 2.46394,-0.0784 4.10105,-0.17271 l 2.97656,-0.17152 -0.003,0.76803 c -0.003,1.0142 -1.04476,3.21389 -2.07928,4.39214 -0.4557,0.51901 -0.82855,1.06813 -0.82855,1.22026 0,0.4776 1.33546,1.35202 2.34195,1.53343 1.28612,0.23181 1.44461,0.34787 1.07809,0.78951 -0.31764,0.38273 -1.91659,0.47788 -2.62629,0.15628 z m 4.29326,-14.61018 c -1.25342,-0.50339 -1.18133,-2.6878 0.10484,-3.1768 1.41523,-0.53807 2.75832,0.83617 2.21468,2.26605 -0.19346,0.50883 -1.31123,1.29178 -1.66907,1.16911 -0.0269,-0.009 -0.31961,-0.12548 -0.65045,-0.25836 z m -14.49174,-0.63888 c -0.85994,-0.85994 -0.83474,-1.81224 0.0667,-2.52132 1.27389,-1.00205 2.72343,-0.21085 2.72343,1.48652 0,0.58925 -0.18535,0.9903 -0.58804,1.27235 -0.8287,0.58044 -1.45128,0.51328 -2.20211,-0.23755 z"
       id="path8" /><path
       id="rect15"
       style="fill:#ff8e06;fill-rule:evenodd;stroke-width:1;stroke-linecap:round;stroke-linejoin:round;paint-order:stroke fill markers"
       d="m 145.88864,143.68893 c 0,0 3.37917,-2.92206 4.82135,-0.72791 1.33671,2.03367 -2.08135,4.12396 -2.08135,4.12396 -0.7541,-1.29582 -1.71228,-2.51065 -2.74,-3.39605 z"
       sodipodi:nodetypes="cscc" /><path
       id="rect15-1"
       style="fill:#ff8e06;fill-rule:evenodd;stroke-linecap:round;stroke-linejoin:round;paint-order:stroke fill markers"
       d="m 116.06997,142.91534 c 1.88203,-1.59018 4.65671,1.13202 4.65671,1.13202 -1.31035,0.94583 -2.28095,2.13434 -3.11305,3.42178 0,0 -3.25827,-3.10508 -1.54366,-4.5538 z"
       sodipodi:nodetypes="sccs" /></g></svg>
