<?xml version="1.0" encoding="UTF-8" standalone="no"?>
<svg
   xml:space="preserve"
   width="256mm"
   height="256mm"
   version="1.1"
   id="svg24"
   sodipodi:docname="approved.svg"
   viewBox="0 0 256 256"
   inkscape:version="1.4.2 (ebf0e940d0, 2025-05-08)"
   xmlns:inkscape="http://www.inkscape.org/namespaces/inkscape"
   xmlns:sodipodi="http://sodipodi.sourceforge.net/DTD/sodipodi-0.dtd"
   xmlns:xlink="http://www.w3.org/1999/xlink"
   xmlns="http://www.w3.org/2000/svg"
   xmlns:svg="http://www.w3.org/2000/svg"
   xmlns:rdf="http://www.w3.org/1999/02/22-rdf-syntax-ns#"
   xmlns:cc="http://creativecommons.org/ns#"
   xmlns:dc="http://purl.org/dc/elements/1.1/"><sodipodi:namedview
   id="namedview24"
   pagecolor="#ffffff"
   bordercolor="#000000"
   borderopacity="0.25"
   inkscape:showpageshadow="2"
   inkscape:pageopacity="0.0"
   inkscape:pagecheckerboard="0"
   inkscape:deskcolor="#d1d1d1"
   inkscape:zoom="0.20329239"
   inkscape:cx="518.95696"
   inkscape:cy="1374.867"
   inkscape:current-layer="svg24"
   inkscape:document-units="mm" />
  <defs
   id="defs17">
    <linearGradient
   id="d">
      <stop
   offset="0"
   stop-color="#d5dbff"
   id="stop1" />
      <stop
   offset="1"
   stop-color="#6579ff"
   stop-opacity="0"
   id="stop2" />
    </linearGradient>
    <linearGradient
   id="f">
      <stop
   offset="0"
   id="stop3" />
      <stop
   offset="1"
   stop-opacity="0"
   id="stop4" />
    </linearGradient>
    <linearGradient
   id="c">
      <stop
   offset="0"
   stop-color="#1d2349"
   id="stop5" />
      <stop
   offset=".35315102"
   stop-color="#4c5279"
   id="stop6" />
      <stop
   offset=".46551725"
   stop-color="#b3bdff"
   id="stop7" />
      <stop
   offset=".64982164"
   stop-color="#727cbe"
   id="stop8" />
      <stop
   offset="1"
   stop-color="#323c7e"
   id="stop9" />
    </linearGradient>
    <linearGradient
   id="b">
      <stop
   offset="0"
   stop-color="#fff"
   stop-opacity=".24742268"
   id="stop10" />
      <stop
   offset="1"
   stop-color="#fff"
   stop-opacity="0"
   id="stop11" />
    </linearGradient>
    <linearGradient
   id="a">
      <stop
   offset="0"
   stop-color="#ffa196"
   id="stop12" />
      <stop
   offset="1"
   stop-color="#ff1f06"
   stop-opacity="0"
   id="stop13" />
    </linearGradient>
    <linearGradient
   xlink:href="#a"
   id="n"
   x1="15.338736"
   x2="43.14098"
   y1="5.9244628"
   y2="49.895073"
   gradientTransform="matrix(0.97573,0,0,0.93103,-0.132002,1.978392)"
   gradientUnits="userSpaceOnUse" />
    <linearGradient
   xlink:href="#b"
   id="o"
   x1="18.570419"
   x2="29.957399"
   y1="9.4436626"
   y2="22.783224"
   gradientTransform="matrix(1.02867,0,0,0.97213,-1.28033,1.18934)"
   gradientUnits="userSpaceOnUse" />
    <linearGradient
   xlink:href="#c"
   id="j"
   x1="38.506161"
   x2="38.250904"
   y1="22.886259"
   y2="35.01786"
   gradientTransform="matrix(0.84394,0,0,1.18492,-1.28033,1.68934)"
   gradientUnits="userSpaceOnUse" />
    <linearGradient
   xlink:href="#d"
   id="k"
   x1="37.502811"
   x2="36.499001"
   y1="35.458244"
   y2="27.403761"
   gradientTransform="scale(0.84394,1.18492)"
   gradientUnits="userSpaceOnUse" />
    <radialGradient
   id="e"
   cx="28.789101"
   cy="20.971201"
   r="13.2807"
   fx="28.789101"
   fy="20.971201"
   gradientUnits="userSpaceOnUse">
      <stop
   offset="0"
   stop-color="#e41e08"
   id="stop14" />
      <stop
   offset="1"
   stop-color="#901505"
   id="stop15" />
    </radialGradient>
    <radialGradient
   id="g"
   cx="19.292"
   cy="13.5444"
   r="14.6944"
   fx="19.292"
   fy="13.5444"
   gradientUnits="userSpaceOnUse">
      <stop
   offset="0"
   stop-color="#e41e08"
   id="stop16" />
      <stop
   offset="1"
   stop-color="#901505"
   id="stop17" />
    </radialGradient>
    <radialGradient
   xlink:href="#e"
   id="l"
   cx="28.789101"
   cy="20.971201"
   r="13.2807"
   fx="28.789101"
   fy="20.971201"
   gradientTransform="matrix(1.31039,0,0,1.31039,-8.642682,-4.375977)"
   gradientUnits="userSpaceOnUse" />
    <radialGradient
   xlink:href="#f"
   id="i"
   cx="24.452202"
   cy="19.818913"
   r="33.156136"
   fx="24.452202"
   fy="19.818913"
   gradientTransform="matrix(1.02448,0,0,0.9761,0.939339,-0.530329)"
   gradientUnits="userSpaceOnUse" />
    <radialGradient
   xlink:href="#f"
   id="h"
   cx="24.452202"
   cy="19.818913"
   r="33.156136"
   fx="24.452202"
   fy="19.818913"
   gradientTransform="matrix(1.02448,0,0,0.9761,1.646447,-0.353552)"
   gradientUnits="userSpaceOnUse" />
    <radialGradient
   xlink:href="#g"
   id="m"
   cx="26.887432"
   cy="20.479359"
   r="14.6944"
   fx="26.887432"
   fy="20.479359"
   gradientTransform="matrix(1.13555,0,0,1.13555,-4.540325,-2.077433)"
   gradientUnits="userSpaceOnUse" />
  </defs>
  
  
  
  
  
  
  
  <g
   id="g24"
   transform="matrix(5.5413213,0,0,5.5413213,-1.249182,-7.0254549)"><path
     fill="url(#h)"
     d="m 25.38911,19.305038 c 0,0 -5.904865,8.175967 -5.904865,11.923286 0,3.747318 6.813306,1.703326 9.538628,4.428649 2.725322,2.725322 -6.359086,9.765738 -6.359086,9.765738 l 9.084408,-2.498212 3.633764,3.860873 c 0,-4.655759 5.337089,-8.403077 2.611767,-11.241954 -2.838878,-2.838878 -10.90129,-2.498213 -11.35551,-6.245531 -0.454221,-3.747318 -1.135551,-9.879294 -1.135551,-9.879294 z"
     color="#000000"
     opacity="0.480447"
     overflow="visible"
     style="fill:url(#h);marker:none"
     id="path17" /><path
     fill="url(#i)"
     d="m 36.91616,9.3946518 c 1.321528,3.0573762 3.643133,2.9018182 3.700549,6.9825152 0.03274,2.275762 1.832456,3.470743 1.832456,5.795517 0,2.324773 -4.015015,3.473472 -5.382529,4.840984 -1.367515,1.367516 0.107885,4.874427 -3.60203,5.904959 -3.674662,1.02074 -5.470058,-0.410252 -7.794832,-0.410252 -2.324776,0 -7.887818,4.482688 -9.939091,2.431415 -2.051272,-2.051271 -2.095036,-6.533959 -3.872804,-8.311727 -1.9145211,-1.914521 -4.9394355,-4.5894 -4.9394355,-8.008186 0,-3.418785 1.9742054,-5.223586 4.8026845,-8.401985 2.918275,-3.2793047 3.008531,-8.2050874 6.427317,-8.2050874 3.418785,0 4.729182,0.9378099 7.638964,0.864272 4.638337,-0.1172232 5.20674,-2.32332197 8.618072,-0.5935 3.007702,1.5251494 1.476157,4.7176933 2.510679,7.1110752 z"
     opacity="0.480447"
     id="path18"
     style="fill:url(#i)" /><path
     fill="url(#j)"
     stroke="#1f254f"
     stroke-miterlimit="6.6"
     d="m 23.62134,18.067599 c 0,0 -5.904865,8.175967 -5.904865,11.923286 0,3.747318 6.813306,1.703326 9.538628,4.428649 2.725322,2.725322 -6.359086,9.765738 -6.359086,9.765738 l 9.084408,-2.498212 3.633764,3.860873 c 0,-4.655759 5.337089,-8.403077 2.611767,-11.241954 -2.838878,-2.838878 -10.90129,-2.498213 -11.35551,-6.245531 -0.454221,-3.747318 -1.135551,-9.879294 -1.135551,-9.879294 z"
     id="path19"
     style="fill:url(#j)" /><path
     fill="none"
     stroke="url(#k)"
     stroke-miterlimit="6.6"
     stroke-width="0.721125"
     d="m 20.803213,31.602421 c 4.552,0.448384 7.429014,1.235525 7.806622,3.989107 0.330114,2.407239 -4.232143,6.732959 -4.232143,6.732959 l 5.843888,-1.624746 2.84137,2.96095 c 0.662912,-3.71094 4.364808,-6.222004 2.678906,-8.504604 -2.114688,-2.863148 -8.966049,-2.243467 -9.293599,-4.945752 -0.32755,-2.702286 -8.334061,1.124615 -5.645044,1.392086 z"
     id="path20"
     style="stroke:url(#k)" /><path
     fill="url(#l)"
     stroke="#4c0901"
     stroke-linecap="round"
     stroke-linejoin="round"
     d="m 34.935485,9.2468088 c 1.266321,2.9296542 3.490941,2.7805952 3.545959,6.6908212 0.03138,2.180692 1.755905,3.325753 1.755905,5.553409 0,2.227656 -3.847288,3.328368 -5.157674,4.638753 -1.310387,1.310388 0.103378,4.670798 -3.451556,5.658279 -3.521153,0.978099 -5.241546,-0.393114 -7.469203,-0.393114 -2.227658,0 -7.558305,4.295424 -9.523886,2.329843 -1.96558,-1.965579 -2.007516,-6.261003 -3.711018,-7.964505 -1.8345421,-1.834542 -4.7330913,-4.397678 -4.7330913,-7.673644 0,-3.275966 1.8917331,-5.005371 4.6020533,-8.050993 2.796364,-3.1423108 2.88285,-7.8623191 6.158816,-7.8623191 3.275966,0 4.531621,0.8986329 7.319847,0.828167 4.444571,-0.1123262 4.989229,-2.22626527 8.258052,-0.5687065 2.882056,1.4614363 1.414491,4.5206119 2.405796,6.8140094 z"
     id="path21"
     style="fill:url(#l)" /><path
     fill="url(#m)"
     d="m 34.97685,17.567599 c 0,6.245531 -5.10998,11.35551 -11.35551,11.35551 -6.245531,0 -11.35551,-5.109979 -11.35551,-11.35551 0,-6.24553 5.109979,-11.3555099 11.35551,-11.3555099 6.24553,0 11.35551,5.1099799 11.35551,11.3555099 z"
     id="path22"
     style="fill:url(#m)" /><path
     fill="none"
     stroke="url(#n)"
     stroke-linecap="round"
     stroke-linejoin="round"
     d="m 33.888971,10.030124 c 1.153261,2.668087 3.179261,2.532336 3.229367,6.093447 0.02857,1.985994 1.599132,3.028821 1.599132,5.057586 0,2.028765 -3.503791,3.031202 -4.697182,4.224592 -1.193393,1.193394 0.09415,4.253777 -3.143392,5.153093 -3.206775,0.890771 -4.773567,-0.358015 -6.802333,-0.358015 -2.028766,0 -6.883479,3.911917 -8.673568,2.121828 -1.790087,-1.790087 -1.828279,-5.702004 -3.379688,-7.253413 -1.670749,-1.670749 -4.3105081,-4.005041 -4.3105081,-6.98852 0,-2.983479 1.7228345,-4.558479 4.1911691,-7.332179 2.546698,-2.8617569 2.625462,-7.1603502 5.608941,-7.1603502 2.983479,0 4.127026,0.8184006 6.666312,0.754226 4.047747,-0.1022974 4.543777,-2.0274984 7.52075,-0.5179309 2.624739,1.3309554 1.288202,4.1169996 2.191,6.2056361 z"
     id="path23"
     style="stroke:url(#n)" /><path
     fill="url(#o)"
     d="m 23.66325,7.0524597 c -5.867816,0 -10.646262,4.7422323 -10.646262,10.6100503 0,3.670993 1.983705,6.780628 4.816166,8.690826 C 25.073625,22.456374 23.786958,15.548148 33.44043,13.606789 31.841424,9.7576868 28.088842,7.0524597 23.66325,7.0524597 Z"
     color="#000000"
     overflow="visible"
     style="fill:url(#o);marker:none"
     id="path24" /></g>
<metadata
   id="metadata24"><rdf:RDF><cc:Work
       rdf:about=""><dc:source>https://commons.wikimedia.org/wiki/File:Application-certificate.svg</dc:source><cc:license
         rdf:resource="http://creativecommons.org/publicdomain/zero/1.0/" /></cc:Work><cc:License
       rdf:about="http://creativecommons.org/publicdomain/zero/1.0/"><cc:permits
         rdf:resource="http://creativecommons.org/ns#Reproduction" /><cc:permits
         rdf:resource="http://creativecommons.org/ns#Distribution" /><cc:permits
         rdf:resource="http://creativecommons.org/ns#DerivativeWorks" /></cc:License></rdf:RDF></metadata></svg>
