<?xml version="1.0" encoding="UTF-8" standalone="no"?>
<!-- Created with Inkscape (http://www.inkscape.org/) -->

<svg
   width="256mm"
   height="256mm"
   viewBox="0 0 256 256"
   version="1.1"
   id="svg1"
   inkscape:version="1.3.2 (091e20ef0f, 2023-11-25)"
   xml:space="preserve"
   sodipodi:docname="arrow-left-double.svg"
   xmlns:inkscape="http://www.inkscape.org/namespaces/inkscape"
   xmlns:sodipodi="http://sodipodi.sourceforge.net/DTD/sodipodi-0.dtd"
   xmlns:xlink="http://www.w3.org/1999/xlink"
   xmlns="http://www.w3.org/2000/svg"
   xmlns:svg="http://www.w3.org/2000/svg"
   xmlns:rdf="http://www.w3.org/1999/02/22-rdf-syntax-ns#"
   xmlns:cc="http://creativecommons.org/ns#"
   xmlns:dc="http://purl.org/dc/elements/1.1/"><defs
     id="defs1"><linearGradient
       id="linearGradient12"
       inkscape:collect="always"><stop
         style="stop-color:#003100;stop-opacity:1;"
         offset="0"
         id="stop12" /><stop
         style="stop-color:#000000;stop-opacity:0;"
         offset="1"
         id="stop13" /></linearGradient><linearGradient
       id="linearGradient10"
       inkscape:collect="always"><stop
         style="stop-color:#ffffff;stop-opacity:1;"
         offset="0"
         id="stop10" /><stop
         style="stop-color:#ffffff;stop-opacity:0;"
         offset="1"
         id="stop11" /></linearGradient><linearGradient
       id="linearGradient5"
       inkscape:collect="always"><stop
         style="stop-color:#1e5a00;stop-opacity:1;"
         offset="0"
         id="stop6" /><stop
         style="stop-color:#31b200;stop-opacity:1;"
         offset="1"
         id="stop7" /></linearGradient><linearGradient
       inkscape:collect="always"
       xlink:href="#linearGradient5"
       id="linearGradient7"
       x1="122.3633"
       y1="1.0528997"
       x2="176.88676"
       y2="130.96419"
       gradientUnits="userSpaceOnUse" /><linearGradient
       inkscape:collect="always"
       xlink:href="#linearGradient10"
       id="linearGradient11"
       x1="88.615112"
       y1="217.14244"
       x2="203.43016"
       y2="91.830444"
       gradientUnits="userSpaceOnUse"
       gradientTransform="matrix(1,0,0,-1,-0.69632795,236.20236)" /><radialGradient
       inkscape:collect="always"
       xlink:href="#linearGradient12"
       id="radialGradient13"
       cx="105.72485"
       cy="100.91542"
       fx="105.72485"
       fy="100.91542"
       r="69.554939"
       gradientTransform="matrix(-0.21066673,-1.6916007,1.5173242,-0.18896292,-25.991764,319.36142)"
       gradientUnits="userSpaceOnUse" /></defs><sodipodi:namedview
     id="base"
     pagecolor="#ffffff"
     bordercolor="#000000"
     borderopacity="0.3"
     inkscape:pageopacity="0.0"
     inkscape:pageshadow="2"
     inkscape:zoom="0.98994949"
     inkscape:cx="505.07627"
     inkscape:cy="476.792"
     inkscape:document-units="mm"
     inkscape:showpageshadow="2"
     inkscape:pagecheckerboard="0"
     inkscape:deskcolor="#d1d1d1"
     inkscape:current-layer="svg1" /><metadata
     id="metadata1"><rdf:RDF><cc:Work
         rdf:about=""><dc:format>image/svg+xml</dc:format><dc:type
           rdf:resource="http://purl.org/dc/dcmitype/StillImage" /><cc:license
           rdf:resource="http://creativecommons.org/publicdomain/zero/1.0/" /></cc:Work><cc:License
         rdf:about="http://creativecommons.org/publicdomain/zero/1.0/"><cc:permits
           rdf:resource="http://creativecommons.org/ns#Reproduction" /><cc:permits
           rdf:resource="http://creativecommons.org/ns#Distribution" /><cc:permits
           rdf:resource="http://creativecommons.org/ns#DerivativeWorks" /></cc:License></rdf:RDF></metadata><g
     id="rect1"
     transform="matrix(1.5353236,0,0,1.5353236,-90.853115,-53.16295)"><path
       style="color:#000000;fill:#009f00;stroke-linecap:round;stroke-linejoin:round;stroke-miterlimit:2.1;-inkscape-stroke:none"
       d="m 212.34163,196.5917 -43.46301,-35.8818 0.0357,35.8818 -95.682563,-78.99308 95.526053,-79.122995 0.0357,35.940704 43.39131,-35.940704 z"
       id="path8" /><path
       style="color:#000000;fill:url(#radialGradient13);stroke-linecap:round;stroke-linejoin:round;stroke-miterlimit:2.1;-inkscape-stroke:none"
       d="m 212.34163,196.5917 -43.46301,-35.8818 0.0357,35.8818 -95.682563,-78.99308 95.526053,-79.122995 0.0357,35.940704 43.39131,-35.940704 z"
       id="path11"
       transform="translate(-6.9203651e-6)" /><path
       style="color:#000000;fill:url(#linearGradient7);stroke-linecap:round;stroke-linejoin:round;stroke-miterlimit:2.1;-inkscape-stroke:none"
       d="m 170.03516,35.753906 a 3.0078102,3.0078102 0 0 0 -3.19532,0.40625 L 71.3125,115.2832 a 3.0078102,3.0078102 0 0 0 0.0039,4.63477 L 167,198.91016 a 3.0078102,3.0078102 0 0 0 4.92187,-2.32227 l -0.0293,-29.49023 38.53515,31.8125 a 3.0078102,3.0078102 0 0 0 4.92188,-2.32227 L 215.1914,38.472656 a 3.0078102,3.0078102 0 0 0 -4.92579,-2.3125 l -38.4707,31.865235 -0.0293,-29.552735 a 3.0078102,3.0078102 0 0 0 -1.73046,-2.71875 z m -4.2793,9.111328 0.0293,29.554688 a 3.0078102,3.0078102 0 0 0 4.92773,2.3125 l 38.4707,-31.867188 0.14453,145.337886 -38.53515,-31.8125 a 3.0078102,3.0078102 0 0 0 -4.92188,2.32227 l 0.0293,29.49023 -87.949218,-72.60937 z"
       id="path9"
       transform="translate(-6.9203651e-6)"
       inkscape:label="frame" /><path
       style="color:#000000;fill:url(#linearGradient11);stroke-linecap:round;stroke-linejoin:round;stroke-miterlimit:2.1;-inkscape-stroke:none"
       d="M 168.07026,38.379731 75.616105,117.59038 C 124.87632,160.71487 181.71537,81.114404 213.12594,108.98172 l 0.22293,-70.531467 c 27.5522,-31.4489005 -26.44422,22.622204 -44.69686,34.741755 z"
       id="path10"
       sodipodi:nodetypes="cccccc" /></g></svg>
