<?xml version="1.0" encoding="UTF-8" standalone="no"?>
<!-- Created with Inkscape (http://www.inkscape.org/) -->

<svg
   xml:space="preserve"
   id="svg1"
   viewBox="0 0 256 256"
   height="256pt"
   width="256pt"
   y="0.0000000"
   x="0.0000000"
   version="1.0"
   sodipodi:version="0.32"
   inkscape:version="1.3 (0e150ed6c4, 2023-07-21)"
   sodipodi:docname="back.svg"
   inkscape:export-filename="/home/diau/graphics/kde/icons/arrows/cr22-action-back.png"
   inkscape:export-xdpi="15.719650"
   inkscape:export-ydpi="15.719650"
   xmlns:inkscape="http://www.inkscape.org/namespaces/inkscape"
   xmlns:sodipodi="http://sodipodi.sourceforge.net/DTD/sodipodi-0.dtd"
   xmlns:xlink="http://www.w3.org/1999/xlink"
   xmlns="http://www.w3.org/2000/svg"
   xmlns:svg="http://www.w3.org/2000/svg"
   xmlns:rdf="http://www.w3.org/1999/02/22-rdf-syntax-ns#"
   xmlns:cc="http://creativecommons.org/ns#"
   xmlns:dc="http://purl.org/dc/elements/1.1/"
   xmlns:a="http://ns.adobe.com/AdobeSVGViewerExtensions/3.0/"><metadata
   id="metadata47">&#10;  <rdf:RDF>&#10;    <cc:Work
   rdf:about="">&#10;      <dc:format>image/svg+xml</dc:format>&#10;&#10;      <dc:type
   rdf:resource="http://purl.org/dc/dcmitype/StillImage" />&#10;&#10;    <cc:license
   rdf:resource="http://creativecommons.org/publicdomain/zero/1.0/" /></cc:Work>&#10;&#10;  <cc:License
   rdf:about="http://creativecommons.org/publicdomain/zero/1.0/"><cc:permits
     rdf:resource="http://creativecommons.org/ns#Reproduction" /><cc:permits
     rdf:resource="http://creativecommons.org/ns#Distribution" /><cc:permits
     rdf:resource="http://creativecommons.org/ns#DerivativeWorks" /></cc:License></rdf:RDF>&#10;&#10;</metadata>&#10;&#10;<sodipodi:namedview
   inkscape:current-layer="svg1"
   inkscape:window-y="0"
   inkscape:window-x="0"
   id="base"
   pagecolor="#ffffff"
   bordercolor="#666666"
   borderopacity="1.0"
   inkscape:pageopacity="0.0"
   inkscape:pageshadow="2"
   inkscape:window-width="1020"
   inkscape:window-height="691"
   inkscape:cy="151.87478"
   inkscape:cx="212.33968"
   inkscape:zoom="2.4559706"
   inkscape:showpageshadow="2"
   inkscape:pagecheckerboard="0"
   inkscape:deskcolor="#d1d1d1"
   inkscape:document-units="pt" />&#10;&#10;<defs
   id="defs106">&#10;  <linearGradient
   id="linearGradient1865">&#10;    <stop
   id="stop2120"
   offset="0.0000000"
   style="stop-color:#418bde;stop-opacity:1.0000000;" />&#10;&#10;&#10;&#10;&#10;    <stop
   id="stop1866"
   offset="1.0000000"
   style="stop-color:#001b7b;stop-opacity:1.0000000;" />&#10;&#10;&#10;&#10;&#10;  </linearGradient>&#10;&#10;&#10;&#10;  <linearGradient
   id="linearGradient1862">&#10;    <stop
   id="stop1864"
   offset="0.0000000"
   style="stop-color:#a4cdec;stop-opacity:1.0000000;" />&#10;&#10;&#10;&#10;&#10;    <stop
   id="stop1863"
   offset="1.0000000"
   style="stop-color:#0068c6;stop-opacity:1.0000000;" />&#10;&#10;&#10;&#10;&#10;  </linearGradient>&#10;&#10;&#10;&#10;  <linearGradient
   gradientUnits="userSpaceOnUse"
   id="XMLID_3_"
   y2="87.9981"
   x2="63.957001"
   y1="-17"
   x1="63.957001">&#10;			<stop
   id="stop49"
   offset="0.0000000"
   style="stop-color:#ffffff;stop-opacity:1.0000000;" />&#10;&#10;&#10;&#10;&#10;&#10;&#10;&#10;			<stop
   id="stop51"
   offset="1.0000000"
   style="stop-color:#ffffff;stop-opacity:0.0000000;" />&#10;&#10;&#10;&#10;&#10;&#10;&#10;&#10;		</linearGradient>&#10;&#10;&#10;&#10;  <linearGradient
   gradientUnits="userSpaceOnUse"
   id="XMLID_4_"
   y2="73.889198"
   x2="73.836899"
   y1="10.3921"
   x1="10.3398">&#10;			<stop
   id="stop58"
   offset="0.0000000"
   style="stop-color:#ffffff;stop-opacity:1.0000000;" />&#10;&#10;&#10;&#10;&#10;&#10;&#10;&#10;			<stop
   id="stop60"
   offset="1.0000000"
   style="stop-color:#ffffff;stop-opacity:0.0000000;" />&#10;&#10;&#10;&#10;&#10;&#10;&#10;&#10;		</linearGradient>&#10;&#10;&#10;&#10;  <linearGradient
   gradientUnits="userSpaceOnUse"
   id="XMLID_5_"
   y2="65.001404"
   x2="62.997101"
   y1="168.5029"
   x1="62.997101">&#10;			<stop
   id="stop67"
   offset="0.0000000"
   style="stop-color:#ffffff;stop-opacity:1.0000000;" />&#10;&#10;&#10;&#10;&#10;&#10;&#10;&#10;			<stop
   id="stop69"
   offset="1.0000000"
   style="stop-color:#ffffff;stop-opacity:0.0000000;" />&#10;&#10;&#10;&#10;&#10;&#10;&#10;&#10;		</linearGradient>&#10;&#10;&#10;&#10;  <linearGradient
   gradientTransform="matrix(0.9999,-0.0101,0.0101,0.9999,-1.1444,0.3543)"
   gradientUnits="userSpaceOnUse"
   id="XMLID_7_"
   y2="164.3085"
   x2="33.1147"
   y1="-141.0146"
   x1="33.1147">&#10;			<stop
   id="stop96"
   offset="0.0000000"
   style="stop-color:#ffffff;stop-opacity:1.0000000;" />&#10;&#10;&#10;&#10;&#10;&#10;&#10;&#10;			<stop
   id="stop98"
   offset="1.0000000"
   style="stop-color:#ffffff;stop-opacity:0.0000000;" />&#10;&#10;&#10;&#10;&#10;&#10;&#10;&#10;		</linearGradient>&#10;&#10;&#10;&#10;  <linearGradient
   gradientTransform="matrix(-1,0,0,1,122.4541,0)"
   gradientUnits="userSpaceOnUse"
   id="XMLID_6_"
   y2="141.4189"
   x2="61.226601"
   y1="51.561001"
   x1="61.226601">&#10;				<stop
   id="stop78"
   offset="0.0000000"
   style="stop-color:#000072;stop-opacity:1.0000000;" />&#10;&#10;&#10;&#10;&#10;&#10;&#10;&#10;				<stop
   id="stop80"
   offset="1.0000000"
   style="stop-color:#3995e5;stop-opacity:1.0000000;" />&#10;&#10;&#10;&#10;&#10;&#10;&#10;&#10;				<a:midPointStop
   offset="0"
   style="stop-color:#000072"
   id="midPointStop82" />&#10;&#10;&#10;&#10;&#10;&#10;&#10;&#10;				<a:midPointStop
   offset="0.5"
   style="stop-color:#000072"
   id="midPointStop84" />&#10;&#10;&#10;&#10;&#10;&#10;&#10;&#10;				<a:midPointStop
   offset="1"
   style="stop-color:#3995E5"
   id="midPointStop86" />&#10;&#10;&#10;&#10;&#10;&#10;&#10;&#10;			</linearGradient>&#10;&#10;&#10;&#10;  <linearGradient
   gradientUnits="userSpaceOnUse"
   xlink:href="#linearGradient1862"
   id="linearGradient1344"
   y2="61.8965"
   x2="62.977501"
   y1="182.5674"
   x1="62.977501" />&#10;&#10;&#10;&#10;  <linearGradient
   gradientUnits="userSpaceOnUse"
   xlink:href="#XMLID_3_"
   id="linearGradient1346"
   y2="77.436874"
   x2="65.109993"
   y1="13.567519"
   x1="65.109993" />&#10;&#10;&#10;&#10;  <linearGradient
   gradientUnits="userSpaceOnUse"
   xlink:href="#XMLID_4_"
   id="linearGradient1348"
   y2="73.889198"
   x2="73.836899"
   y1="25.929346"
   x1="26.564838" />&#10;&#10;&#10;&#10;  <linearGradient
   gradientUnits="userSpaceOnUse"
   xlink:href="#XMLID_5_"
   id="linearGradient1350"
   y2="65.001404"
   x2="62.997101"
   y1="168.5029"
   x1="62.997101" />&#10;&#10;&#10;&#10;  <linearGradient
   gradientTransform="matrix(-1,0,0,1,122.4541,0)"
   gradientUnits="userSpaceOnUse"
   xlink:href="#XMLID_6_"
   id="linearGradient1352"
   y2="141.4189"
   x2="61.226601"
   y1="51.561001"
   x1="61.226601" />&#10;&#10;&#10;&#10;  <linearGradient
   gradientTransform="rotate(-0.57872528)"
   gradientUnits="userSpaceOnUse"
   xlink:href="#XMLID_7_"
   id="linearGradient1354"
   y2="60.985329"
   x2="53.820477"
   y1="21.61375"
   x1="31.052742" />&#10;&#10;&#10;&#10;  <linearGradient
   gradientUnits="userSpaceOnUse"
   xlink:href="#linearGradient1865"
   id="linearGradient2118"
   y2="25.958462"
   x2="54.390072"
   y1="177.8828"
   x1="54.390072" />&#10;&#10;&#10;&#10;<linearGradient
   gradientTransform="scale(1.000004)"
   gradientUnits="userSpaceOnUse"
   xlink:href="#linearGradient1865"
   id="linearGradient2089"
   y2="41.343369"
   x2="55.34412"
   y1="154.8063"
   x1="55.34412" />&#10;&#10;&#10;<linearGradient
   gradientTransform="scale(1.000004)"
   gradientUnits="userSpaceOnUse"
   xlink:href="#linearGradient1865"
   id="linearGradient2092"
   y2="41.343369"
   x2="55.34412"
   y1="154.8063"
   x1="55.34412" />&#10;&#10;&#10;</defs>&#10;&#10;&#10;&#10;&#10;&#10;&#10;&#10;&#10;&#10;&#10;&#10;&#10;&#10;&#10;&#10;	&#10;&#10;&#10;&#10;&#10;&#10;&#10;&#10;&#10;&#10;&#10;&#10;&#10;&#10;&#10;&#10;&#10;&#10;&#10;&#10;&#10;&#10;<g
   id="g1332"
   transform="matrix(2.0109049,0,0,2.0109049,1.5334955,1.5334832)">&#10;  <path
   id="path18"
   style="fill:url(#linearGradient2092);fill-opacity:1"
   d="M 125.957,62.34 C 126.309,97.122 98.396,125.604 63.615,125.956 28.833,126.308 0.352,98.396 0,63.614 -0.352,28.833 27.559,0.352 62.34,0 c 34.783,-0.352 63.264,27.559 63.617,62.34 z" />&#10;&#10;&#10;&#10;  <path
   id="path45"
   style="fill:url(#linearGradient1344);fill-opacity:1"
   d="m 119.287,62.407 c 0.314,31.1 -24.641,56.565 -55.74,56.88 C 32.449,119.601 6.983,94.646 6.668,63.547 6.354,32.449 31.31,6.982 62.408,6.668 c 31.1,-0.314 56.565,24.642 56.879,55.739 z" />&#10;&#10;&#10;&#10;  <path
   id="path54"
   style="fill:url(#linearGradient1346);fill-opacity:1"
   d="m 63.455,11.256 c -27.407,0.277 -49.401,22.721 -49.124,50.127 0.015,1.511 0.109,3.002 0.257,4.477 13.702,5.72 30.114,8.971 47.731,8.793 19.229,-0.194 36.944,-4.443 51.206,-11.462 0.043,-0.931 0.064,-1.868 0.057,-2.812 -0.277,-27.406 -22.719,-49.4 -50.127,-49.123 z" />&#10;&#10;&#10;&#10;  <path
   id="path63"
   style="fill:url(#linearGradient1348);fill-opacity:1"
   d="m 64.967,16.641 c 24.732,-0.25 45.555,17.014 50.695,40.237 C 112.609,30.233 89.85,9.668 62.441,9.945 33.152,10.241 9.649,34.226 9.945,63.514 10.095,78.342 16.322,91.678 26.228,101.202 18.767,92.381 14.219,81.008 14.093,68.554 13.806,40.17 36.583,16.928 64.967,16.641 Z" />&#10;&#10;&#10;&#10;  <path
   id="path72"
   style="opacity:0.5;fill:url(#linearGradient1350)"
   d="M 63.441,110.722 C 36.996,110.99 15.177,90.542 13.387,64.495 c -0.047,0.977 -0.075,1.958 -0.064,2.948 0.277,27.437 22.743,49.451 50.177,49.173 27.436,-0.277 49.449,-22.741 49.172,-50.178 -0.01,-0.989 -0.057,-1.971 -0.125,-2.946 -1.262,26.078 -22.662,46.962 -49.106,47.23 z" />&#10;&#10;&#10;&#10;  <path
   id="path89"
   style="opacity:0.2;fill:url(#linearGradient1352)"
   d="m 89.263,73.47 c 0,0 -21.054,-0.213 -37.713,-0.382 6.984,7.128 13.988,14.275 13.988,14.275 1.482,1.513 2.211,3.485 2.191,5.447 -0.02,1.963 -0.789,3.919 -2.301,5.4 -3.026,2.965 -7.885,2.916 -10.848,-0.109 L 27.63,70.599 c -0.162,-0.166 -0.316,-0.343 -0.463,-0.521 -0.047,-0.059 -0.09,-0.117 -0.137,-0.177 -0.098,-0.126 -0.189,-0.258 -0.281,-0.39 -0.043,-0.065 -0.088,-0.132 -0.131,-0.197 -0.111,-0.18 -0.217,-0.359 -0.314,-0.547 -0.033,-0.062 -0.062,-0.129 -0.092,-0.191 -0.068,-0.14 -0.133,-0.28 -0.191,-0.423 -0.035,-0.086 -0.066,-0.171 -0.1,-0.258 -0.049,-0.131 -0.09,-0.261 -0.133,-0.393 -0.023,-0.08 -0.051,-0.16 -0.072,-0.243 -0.059,-0.202 -0.107,-0.411 -0.145,-0.619 -0.01,-0.039 -0.014,-0.085 -0.021,-0.129 -0.031,-0.178 -0.053,-0.355 -0.072,-0.536 -0.006,-0.07 -0.012,-0.139 -0.016,-0.21 -0.01,-0.162 -0.018,-0.325 -0.018,-0.489 -0.002,-0.062 -0.004,-0.125 -0.002,-0.186 0.004,-0.225 0.016,-0.447 0.037,-0.67 0,-0.004 0.002,-0.009 0.002,-0.009 0.023,-0.218 0.061,-0.431 0.1,-0.643 0.016,-0.073 0.031,-0.149 0.049,-0.226 0.033,-0.139 0.066,-0.281 0.107,-0.418 0.023,-0.088 0.049,-0.176 0.078,-0.26 0.043,-0.135 0.09,-0.268 0.143,-0.398 0.031,-0.079 0.059,-0.159 0.092,-0.239 0,-0.003 0,-0.003 0.002,-0.005 0.082,-0.191 0.172,-0.376 0.266,-0.557 0.041,-0.08 0.088,-0.158 0.135,-0.234 0.068,-0.125 0.143,-0.247 0.219,-0.365 0.049,-0.072 0.094,-0.146 0.145,-0.216 0.105,-0.149 0.213,-0.294 0.326,-0.435 0.029,-0.035 0.055,-0.072 0.082,-0.107 0.152,-0.178 0.309,-0.348 0.473,-0.51 0.016,-0.016 0.027,-0.031 0.043,-0.049 l 27.5,-26.948 c 3.027,-2.967 7.884,-2.917 10.849,0.11 2.966,3.025 2.916,7.881 -0.109,10.846 l -14.274,13.99 37.714,0.381 c 4.236,0.043 7.637,3.513 7.594,7.748 -0.043,4.235 -3.516,7.637 -7.752,7.594 z" />&#10;&#10;&#10;&#10;  <path
   id="path91"
   style="fill:#ffffff;fill-opacity:1"
   d="m 89.263,71.47 c 0,0 -21.054,-0.213 -37.713,-0.382 6.984,7.128 13.988,14.275 13.988,14.275 1.482,1.513 2.211,3.485 2.191,5.447 -0.02,1.963 -0.789,3.919 -2.301,5.4 -3.026,2.965 -7.885,2.916 -10.848,-0.109 L 27.63,68.599 c -0.162,-0.166 -0.316,-0.343 -0.463,-0.521 -0.047,-0.059 -0.09,-0.117 -0.137,-0.177 -0.098,-0.126 -0.189,-0.258 -0.281,-0.39 -0.043,-0.065 -0.088,-0.132 -0.131,-0.197 -0.111,-0.18 -0.217,-0.359 -0.314,-0.547 -0.033,-0.062 -0.062,-0.129 -0.092,-0.191 -0.068,-0.14 -0.133,-0.28 -0.191,-0.423 -0.035,-0.086 -0.066,-0.171 -0.1,-0.258 -0.049,-0.131 -0.09,-0.261 -0.133,-0.393 -0.023,-0.08 -0.051,-0.16 -0.072,-0.243 -0.059,-0.202 -0.107,-0.411 -0.145,-0.619 -0.01,-0.039 -0.014,-0.085 -0.021,-0.129 -0.031,-0.178 -0.053,-0.355 -0.072,-0.536 -0.006,-0.07 -0.012,-0.139 -0.016,-0.21 -0.01,-0.162 -0.018,-0.325 -0.018,-0.489 -0.002,-0.062 -0.004,-0.125 -0.002,-0.186 0.004,-0.225 0.016,-0.447 0.037,-0.67 0,-0.004 0.002,-0.009 0.002,-0.009 0.023,-0.218 0.061,-0.431 0.1,-0.643 0.016,-0.073 0.031,-0.149 0.049,-0.226 0.033,-0.139 0.066,-0.281 0.107,-0.418 0.023,-0.088 0.049,-0.176 0.078,-0.26 0.043,-0.135 0.09,-0.268 0.143,-0.398 0.031,-0.079 0.059,-0.159 0.092,-0.239 0,-0.003 0,-0.003 0.002,-0.005 0.082,-0.191 0.172,-0.376 0.266,-0.557 0.041,-0.08 0.088,-0.158 0.135,-0.234 0.068,-0.125 0.143,-0.247 0.219,-0.365 0.049,-0.072 0.094,-0.146 0.145,-0.216 0.105,-0.149 0.213,-0.294 0.326,-0.435 0.029,-0.035 0.055,-0.072 0.082,-0.107 0.152,-0.178 0.309,-0.348 0.473,-0.51 0.016,-0.016 0.027,-0.031 0.043,-0.049 l 27.5,-26.948 c 3.027,-2.967 7.884,-2.917 10.849,0.11 2.966,3.025 2.916,7.881 -0.109,10.846 l -14.274,13.99 37.714,0.381 c 4.236,0.043 7.637,3.513 7.594,7.748 -0.043,4.235 -3.516,7.637 -7.752,7.594 z" />&#10;&#10;&#10;&#10;  <path
   id="path101"
   style="opacity:0.6;fill:url(#linearGradient1354);fill-opacity:1"
   d="M 52.923,30.04 C 47.866,25.93 42.025,22.906 35.685,21.299 24.433,29.069 15.86,41.424 11.882,56.118 c 5.74,-2.847 12.104,-4.473 18.823,-4.541 1.703,-0.017 3.382,0.075 5.038,0.257 4.138,-8.752 10.045,-16.23 17.18,-21.794 z" />&#10;&#10;&#10;&#10;</g>&#10;&#10;&#10;&#10;&#10;&#10;&#10;&#10;&#10;&#10;</svg>
