<?xml version="1.0" encoding="UTF-8" standalone="no"?>
<svg
   width="256mm"
   height="256mm"
   version="1.1"
   id="svg39"
   sodipodi:docname="chronometer.svg"
   inkscape:version="1.4.2 (ebf0e940d0, 2025-05-08)"
   viewBox="0 0 256 256"
   xmlns:inkscape="http://www.inkscape.org/namespaces/inkscape"
   xmlns:sodipodi="http://sodipodi.sourceforge.net/DTD/sodipodi-0.dtd"
   xmlns:xlink="http://www.w3.org/1999/xlink"
   xmlns="http://www.w3.org/2000/svg"
   xmlns:svg="http://www.w3.org/2000/svg"
   xmlns:rdf="http://www.w3.org/1999/02/22-rdf-syntax-ns#"
   xmlns:cc="http://creativecommons.org/ns#"
   xmlns:dc="http://purl.org/dc/elements/1.1/">
  <sodipodi:namedview
     id="namedview39"
     pagecolor="#ffffff"
     bordercolor="#000000"
     borderopacity="0.25"
     inkscape:showpageshadow="2"
     inkscape:pageopacity="0.0"
     inkscape:pagecheckerboard="0"
     inkscape:deskcolor="#d1d1d1"
     inkscape:zoom="0.2790782"
     inkscape:cx="421.02894"
     inkscape:cy="1255.9204"
     inkscape:current-layer="g39"
     inkscape:document-units="mm" />
  <defs
     id="defs23">
    <linearGradient
       id="g">
      <stop
         offset="0"
         stop-color="#c6c6c6"
         id="stop6" />
      <stop
         offset="1"
         stop-color="#c6c6c6"
         stop-opacity="0"
         id="stop7" />
    </linearGradient>
    <linearGradient
       id="h">
      <stop
         offset="0"
         id="stop8" />
      <stop
         offset="1"
         stop-opacity="0"
         id="stop9" />
    </linearGradient>
    <linearGradient
       id="f">
      <stop
         offset="0"
         stop-color="#838383"
         id="stop10" />
      <stop
         offset="1"
         id="stop11" />
    </linearGradient>
    <linearGradient
       id="e">
      <stop
         offset="0"
         stop-color="#a0a0a0"
         id="stop12" />
      <stop
         offset="1"
         stop-color="#fff"
         id="stop13" />
    </linearGradient>
    <linearGradient
       id="d">
      <stop
         offset="0"
         stop-color="#fffffd"
         id="stop14" />
      <stop
         offset="1"
         stop-color="#cbcbc9"
         id="stop15" />
    </linearGradient>
    <linearGradient
       id="c">
      <stop
         offset="0"
         stop-color="#9aa29a"
         id="stop16" />
      <stop
         offset="1"
         stop-color="#b5beb5"
         id="stop17" />
    </linearGradient>
    <linearGradient
       id="s"
       x1="8.9160004"
       x2="9.8859997"
       y1="37.196999"
       y2="52.091"
       gradientTransform="matrix(1.90964,0,0,0.59278,-10.062,-1.766)"
       gradientUnits="userSpaceOnUse"
       xlink:href="#c" />
    <radialGradient
       id="t"
       cx="11.902"
       cy="10.045"
       r="29.292999"
       fx="11.902"
       fy="10.045"
       gradientUnits="userSpaceOnUse"
       xlink:href="#d" />
    <linearGradient
       id="u"
       x1="6.342"
       x2="22.218"
       y1="7.789"
       y2="25.884001"
       gradientUnits="userSpaceOnUse"
       xlink:href="#e" />
    <linearGradient
       id="v"
       x1="13.037"
       x2="19.358999"
       y1="8.3120003"
       y2="17.323"
       gradientUnits="userSpaceOnUse"
       xlink:href="#f" />
    <linearGradient
       id="w"
       x1="13.037"
       x2="19.358999"
       y1="-1.5880001"
       y2="7.4229999"
       gradientUnits="userSpaceOnUse"
       xlink:href="#f" />
    <linearGradient
       id="x"
       x1="17.987"
       x2="24.309"
       y1="3.362"
       y2="12.373"
       gradientUnits="userSpaceOnUse"
       xlink:href="#f" />
    <linearGradient
       id="y"
       x1="8.0880003"
       x2="14.409"
       y1="3.362"
       y2="12.373"
       gradientUnits="userSpaceOnUse"
       xlink:href="#f" />
    <linearGradient
       id="z"
       x1="6.526"
       x2="29.940001"
       y1="1.39"
       y2="37.964001"
       gradientUnits="userSpaceOnUse"
       xlink:href="#g" />
    <radialGradient
       id="r"
       cx="23.75"
       cy="31"
       r="11.5"
       fx="23.75"
       fy="31"
       gradientUnits="userSpaceOnUse"
       xlink:href="#h" />
  </defs>
  <g
     id="g2"
     transform="matrix(1.1317717,0,0,1.1317717,-15.166943,6.8326041)">
    <g
       id="g39"
       transform="matrix(6.5583618,0,0,6.5583618,-35.087732,-28.219862)">
      <path
         fill="url(#r)"
         fill-rule="evenodd"
         d="m 35.25,31 a 11.5,11.5 0 1 1 -23,0 11.5,11.5 0 1 1 23,0 z"
         color="#000000"
         style="fill:url(#r);marker:none"
         transform="matrix(1.04348,0,0,1.04348,-0.783,-6.348)"
         id="path27" />
      <path
         fill="url(#s)"
         fill-rule="evenodd"
         d="m 20.794154,11.070839 -8.778956,10.204598 0.769469,0.75997 z"
         color="#000000"
         style="fill:url(#s);marker:none"
         transform="matrix(0.8581,0,0,0.8581,3.406,3.406)"
         id="path28" />
      <path
         fill="#fefefe"
         fill-rule="evenodd"
         d="M 20.720542,11.015867 12.891707,21.872046 14.010119,22.8595 Z"
         transform="matrix(0.8581,0,0,0.8581,3.406,3.406)"
         id="path29" />
      <path
         fill="#868686"
         fill-rule="evenodd"
         stroke="#747474"
         stroke-linecap="round"
         stroke-linejoin="round"
         stroke-width="1.59"
         d="m 31.160714,16.910715 a 14.910714,14.910714 0 1 1 -29.8214281,0 14.910714,14.910714 0 1 1 29.8214281,0 z"
         transform="matrix(0.76403,0,0,0.76403,11.584,11.08)"
         id="path30" />
      <path
         fill="url(#t)"
         fill-rule="evenodd"
         stroke="url(#u)"
         stroke-linecap="round"
         stroke-linejoin="round"
         stroke-width="1.489"
         d="m 31.160714,16.910715 a 14.910714,14.910714 0 1 1 -29.8214281,0 14.910714,14.910714 0 1 1 29.8214281,0 z"
         transform="matrix(0.55596,0,0,0.55596,14.916,14.549)"
         id="path31"
         style="fill:url(#t);stroke:url(#u)" />
      <g
         stroke="#000000"
         stroke-linecap="round"
         id="g34"
         inkscape:transform-center-x="-2.9929414"
         inkscape:transform-center-y="-19.196027"
         transform="rotate(139.6349,23.950865,23.684686)">
        <path
           fill="#f3f3f3"
           fill-rule="evenodd"
           stroke-linejoin="round"
           stroke-width="0.87"
           d="m 16.40625,17.28125 a 1.21875,1.21875 0 1 1 -2.4375,0 1.21875,1.21875 0 1 1 2.4375,0 z"
           transform="matrix(-0.14647267,-0.94007754,0.94007754,-0.14647267,9.9409822,40.454029)"
           id="path32" />
        <path
           fill="none"
           stroke-width="0.806"
           d="M 25.559726,22.971323 23.41133,18.168206"
           transform="matrix(-0.15818531,-1.0152505,1.0152505,-0.15818531,3.5988024,53.917497)"
           id="path33" />
        <path
           fill="none"
           stroke-width="1.209"
           d="m 23.258264,28.150282 1.993084,-2.875229"
           transform="matrix(-0.15818531,-1.0152505,1.0152505,-0.15818531,3.5988024,53.917497)"
           id="path34"
           style="display:none" />
      </g>
      <path
         fill="url(#v)"
         fill-rule="evenodd"
         d="m 17.324117,7.6932044 a 0.6187185,0.6187185 0 1 1 -1.237437,0 0.6187185,0.6187185 0 1 1 1.237437,0 z"
         transform="matrix(1.26743,0,0,1.26743,2.721,7.87)"
         id="path35"
         style="fill:url(#v)" />
      <path
         fill="url(#w)"
         fill-rule="evenodd"
         d="m 17.324117,7.6932044 a 0.6187185,0.6187185 0 1 1 -1.237437,0 0.6187185,0.6187185 0 1 1 1.237437,0 z"
         transform="matrix(1.26743,0,0,1.26743,2.721,20.418)"
         id="path36"
         style="fill:url(#w)" />
      <path
         fill="url(#x)"
         fill-rule="evenodd"
         d="m 17.324117,7.6932044 a 0.6187185,0.6187185 0 1 1 -1.237437,0 0.6187185,0.6187185 0 1 1 1.237437,0 z"
         transform="matrix(1.26743,0,0,1.26743,-3.552,14.144)"
         id="path37"
         style="fill:url(#x)" />
      <path
         fill="url(#y)"
         fill-rule="evenodd"
         d="m 17.324117,7.6932044 a 0.6187185,0.6187185 0 1 1 -1.237437,0 0.6187185,0.6187185 0 1 1 1.237437,0 z"
         transform="matrix(1.26743,0,0,1.26743,8.995,14.144)"
         id="path38"
         style="fill:url(#y)" />
      <path
         fill="none"
         stroke="url(#z)"
         stroke-linecap="round"
         stroke-linejoin="round"
         stroke-width="1.422"
         d="m 31.160714,16.910715 a 14.910714,14.910714 0 1 1 -29.8214281,0 14.910714,14.910714 0 1 1 29.8214281,0 z"
         transform="matrix(0.70307,0,0,0.70307,12.575,12.11)"
         id="path39"
         style="stroke:url(#z)" />
    </g>
    <g
       id="g1"
       transform="matrix(0.22028705,0,0,0.22028705,80.516543,-3.6543186)">
      <path
         id="Path_121"
         data-name="Path 121"
         d="M 187.79138,0.99998604 A 122.94374,122.94374 0 1 0 310.68985,123.93241 123.01165,123.01165 0 0 0 187.79138,0.99998604 Z m 0,223.79540396 A 100.86299,100.86299 0 1 1 288.63173,123.93241 100.84035,100.84035 0 0 1 187.79138,224.79539 Z"
         fill="#163844"
         style="stroke-width:11.3177" />
      <path
         id="Path_124"
         data-name="Path 124"
         d="m -96.791178,239.38386 -43.097652,43.00711 a 20.835812,20.835812 0 0 0 0,29.4825 l 59.530894,59.54221 A 357.921,357.921 0 0 1 -2.2660818,304.44909 L -67.353944,239.34991 a 20.835812,20.835812 0 0 0 -29.437234,0.034 z M 515.415,282.39097 472.4079,239.38386 a 20.8924,20.8924 0 0 0 -29.52778,0 l -65.09918,65.09918 a 358.97354,358.97354 0 0 1 78.09185,66.96659 l 59.5309,-59.49694 a 20.926353,20.926353 0 0 0 0.0113,-29.52777 z"
         fill="#576d78"
         style="stroke-width:11.3177" />
      <path
         id="Path_127"
         data-name="Path 127"
         d="m 230.71927,177.71393 h -85.84445 a 20.835812,20.835812 0 0 0 -20.85845,20.88108 v 56.93915 a 340.14095,340.14095 0 0 1 127.55003,0 v -56.93915 a 20.915036,20.915036 0 0 0 -20.84713,-20.88108 z"
         fill="#576d78"
         style="stroke-width:11.3177" />
    </g>
  </g>
  <metadata
     id="metadata39">
    <rdf:RDF>
      <cc:Work
         rdf:about="">
        <dc:source>https://commons.wikimedia.org/wiki/File:Image-loading.svg</dc:source>
        <cc:license
           rdf:resource="http://creativecommons.org/publicdomain/zero/1.0/" />
      </cc:Work>
      <cc:License
         rdf:about="http://creativecommons.org/publicdomain/zero/1.0/">
        <cc:permits
           rdf:resource="http://creativecommons.org/ns#Reproduction" />
        <cc:permits
           rdf:resource="http://creativecommons.org/ns#Distribution" />
        <cc:permits
           rdf:resource="http://creativecommons.org/ns#DerivativeWorks" />
      </cc:License>
    </rdf:RDF>
  </metadata>
</svg>
