<?xml version="1.0" encoding="UTF-8" standalone="no"?>
<!-- Created with Inkscape (http://www.inkscape.org/) -->

<svg
   inkscape:export-ydpi="240.00000"
   inkscape:export-xdpi="240.00000"
   inkscape:export-filename="/home/jimmac/gfx/novell/pdes/trunk/docs/BIGmime-text.png"
   sodipodi:docname="document-edit-decrypt-verify.svg"
   inkscape:version="1.4.2 (ebf0e940d0, 2025-05-08)"
   sodipodi:version="0.32"
   id="svg249"
   height="256mm"
   width="256mm"
   inkscape:output_extension="org.inkscape.output.svg.inkscape"
   version="1.1"
   viewBox="0 0 256 256"
   xml:space="preserve"
   xmlns:inkscape="http://www.inkscape.org/namespaces/inkscape"
   xmlns:sodipodi="http://sodipodi.sourceforge.net/DTD/sodipodi-0.dtd"
   xmlns:xlink="http://www.w3.org/1999/xlink"
   xmlns="http://www.w3.org/2000/svg"
   xmlns:svg="http://www.w3.org/2000/svg"
   xmlns:rdf="http://www.w3.org/1999/02/22-rdf-syntax-ns#"
   xmlns:cc="http://creativecommons.org/ns#"
   xmlns:dc="http://purl.org/dc/elements/1.1/"><defs
     id="defs3"><inkscape:perspective
       sodipodi:type="inkscape:persp3d"
       inkscape:vp_x="0 : 249.64999 : 1"
       inkscape:vp_y="0 : 264.58333 : 0"
       inkscape:vp_z="12.7 : 249.64999 : 1"
       inkscape:persp3d-origin="6.3499996 : 247.53333 : 1"
       id="perspective83" /><radialGradient
       inkscape:collect="always"
       xlink:href="#linearGradient5060"
       id="radialGradient5031"
       gradientUnits="userSpaceOnUse"
       gradientTransform="matrix(-2.774389,0,0,1.969706,112.7623,-872.8854)"
       cx="605.71429"
       cy="486.64789"
       fx="605.71429"
       fy="486.64789"
       r="117.14286" /><linearGradient
       inkscape:collect="always"
       id="linearGradient5060"><stop
         style="stop-color:black;stop-opacity:1;"
         offset="0"
         id="stop5062" /><stop
         style="stop-color:black;stop-opacity:0;"
         offset="1"
         id="stop5064" /></linearGradient><radialGradient
       inkscape:collect="always"
       xlink:href="#linearGradient5060"
       id="radialGradient5029"
       gradientUnits="userSpaceOnUse"
       gradientTransform="matrix(2.774389,0,0,1.969706,-1891.633,-872.8854)"
       cx="605.71429"
       cy="486.64789"
       fx="605.71429"
       fy="486.64789"
       r="117.14286" /><linearGradient
       id="linearGradient5048"><stop
         style="stop-color:black;stop-opacity:0;"
         offset="0"
         id="stop5050" /><stop
         id="stop5056"
         offset="0.5"
         style="stop-color:black;stop-opacity:1;" /><stop
         style="stop-color:black;stop-opacity:0;"
         offset="1"
         id="stop5052" /></linearGradient><linearGradient
       inkscape:collect="always"
       xlink:href="#linearGradient5048"
       id="linearGradient5027"
       gradientUnits="userSpaceOnUse"
       gradientTransform="matrix(2.774389,0,0,1.969706,-1892.179,-872.8854)"
       x1="302.85715"
       y1="366.64789"
       x2="302.85715"
       y2="609.50507" /><linearGradient
       inkscape:collect="always"
       id="linearGradient2616"><stop
         style="stop-color:#000000;stop-opacity:1;"
         offset="0"
         id="stop2618" /><stop
         style="stop-color:#000000;stop-opacity:0;"
         offset="1"
         id="stop2620" /></linearGradient><linearGradient
       inkscape:collect="always"
       id="linearGradient4542"><stop
         style="stop-color:#000000;stop-opacity:1;"
         offset="0"
         id="stop4544" /><stop
         style="stop-color:#000000;stop-opacity:0;"
         offset="1"
         id="stop4546" /></linearGradient><linearGradient
       id="linearGradient15662"><stop
         id="stop15664"
         offset="0.0000000"
         style="stop-color:#ffffff;stop-opacity:1.0000000;" /><stop
         id="stop15666"
         offset="1.0000000"
         style="stop-color:#f8f8f8;stop-opacity:1.0000000;" /></linearGradient><radialGradient
       id="aigrd3"
       cx="20.892099"
       cy="64.567902"
       r="5.257"
       fx="20.892099"
       fy="64.567902"
       gradientUnits="userSpaceOnUse"><stop
         offset="0"
         style="stop-color:#F0F0F0"
         id="stop15573" /><stop
         offset="1.0000000"
         style="stop-color:#9a9a9a;stop-opacity:1.0000000;"
         id="stop15575" /></radialGradient><radialGradient
       id="aigrd2"
       cx="20.892099"
       cy="114.5684"
       r="5.256"
       fx="20.892099"
       fy="114.5684"
       gradientUnits="userSpaceOnUse"><stop
         offset="0"
         style="stop-color:#F0F0F0"
         id="stop15566" /><stop
         offset="1.0000000"
         style="stop-color:#9a9a9a;stop-opacity:1.0000000;"
         id="stop15568" /></radialGradient><linearGradient
       id="linearGradient269"><stop
         id="stop270"
         offset="0.0000000"
         style="stop-color:#a3a3a3;stop-opacity:1.0000000;" /><stop
         id="stop271"
         offset="1.0000000"
         style="stop-color:#4c4c4c;stop-opacity:1.0000000;" /></linearGradient><linearGradient
       id="linearGradient259"><stop
         id="stop260"
         offset="0.0000000"
         style="stop-color:#fafafa;stop-opacity:1.0000000;" /><stop
         id="stop261"
         offset="1.0000000"
         style="stop-color:#bbbbbb;stop-opacity:1.0000000;" /></linearGradient><radialGradient
       inkscape:collect="always"
       xlink:href="#linearGradient269"
       id="radialGradient15656"
       gradientUnits="userSpaceOnUse"
       gradientTransform="matrix(0.968273,0,0,1.032767,3.353553,0.646447)"
       cx="8.824419"
       cy="3.7561285"
       fx="8.824419"
       fy="3.7561285"
       r="37.751713" /><radialGradient
       inkscape:collect="always"
       xlink:href="#linearGradient259"
       id="radialGradient15658"
       gradientUnits="userSpaceOnUse"
       gradientTransform="scale(0.960493,1.041132)"
       cx="33.966679"
       cy="35.736916"
       fx="33.966679"
       fy="35.736916"
       r="86.70845" /><radialGradient
       inkscape:collect="always"
       xlink:href="#linearGradient15662"
       id="radialGradient15668"
       gradientUnits="userSpaceOnUse"
       gradientTransform="matrix(0.968273,0,0,1.032767,3.353553,0.646447)"
       cx="8.1435566"
       cy="7.2678967"
       fx="8.1435566"
       fy="7.2678967"
       r="38.158695" /><radialGradient
       r="5.256"
       fy="114.5684"
       fx="20.892099"
       cy="114.5684"
       cx="20.892099"
       gradientTransform="matrix(0.229703,0,0,0.229703,4.613529,3.979808)"
       gradientUnits="userSpaceOnUse"
       id="radialGradient2283"
       xlink:href="#aigrd2"
       inkscape:collect="always" /><radialGradient
       r="5.257"
       fy="64.567902"
       fx="20.892099"
       cy="64.567902"
       cx="20.892099"
       gradientTransform="matrix(0.229703,0,0,0.229703,4.613529,3.979808)"
       gradientUnits="userSpaceOnUse"
       id="radialGradient2285"
       xlink:href="#aigrd3"
       inkscape:collect="always" /><radialGradient
       inkscape:collect="always"
       xlink:href="#linearGradient4542"
       id="radialGradient4548"
       cx="24.306795"
       cy="42.07798"
       fx="24.306795"
       fy="42.07798"
       r="15.821514"
       gradientTransform="matrix(1,0,0,0.284916,0,30.08928)"
       gradientUnits="userSpaceOnUse" /><radialGradient
       inkscape:collect="always"
       xlink:href="#linearGradient2616"
       id="radialGradient2622"
       cx="26.030092"
       cy="24.22681"
       fx="26.030092"
       fy="24.22681"
       r="11.629837"
       gradientTransform="matrix(2.110988,0,0,2.53493,-28.91913,-38.04383)"
       gradientUnits="userSpaceOnUse" /><linearGradient
       inkscape:collect="always"
       xlink:href="#linearGradient57"
       id="linearGradient58"
       x1="82.61499"
       y1="82.30162"
       x2="82.61499"
       y2="100.74422"
       gradientUnits="userSpaceOnUse" /><linearGradient
       id="linearGradient57"
       inkscape:collect="always"><stop
         style="stop-color:#303030;stop-opacity:0.44954104;"
         offset="0"
         id="stop57" /><stop
         style="stop-color:#303030;stop-opacity:0;"
         offset="1"
         id="stop58" /></linearGradient><linearGradient
       inkscape:collect="always"
       xlink:href="#linearGradient349"
       id="linearGradient350"
       x1="124.19822"
       y1="216.3055"
       x2="124.19822"
       y2="153.75531"
       gradientUnits="userSpaceOnUse" /><linearGradient
       id="linearGradient349"
       inkscape:collect="always"><stop
         style="stop-color:#338ce5;stop-opacity:1;"
         offset="0"
         id="stop349" /><stop
         style="stop-color:#ac56a0;stop-opacity:0.88627452;"
         offset="0.40564111"
         id="stop352" /><stop
         style="stop-color:#ef0000;stop-opacity:1;"
         offset="0.40564111"
         id="stop351" /><stop
         style="stop-color:#2afe00;stop-opacity:0.77254903;"
         offset="0.56015062"
         id="stop353" /><stop
         style="stop-color:#129800;stop-opacity:1;"
         offset="0.71710175"
         id="stop354" /><stop
         style="stop-color:#0cd600;stop-opacity:0.71365637;"
         offset="0.9375"
         id="stop355" /><stop
         style="stop-color:#10b213;stop-opacity:0.38766521;"
         offset="1"
         id="stop350" /></linearGradient><linearGradient
       id="k"
       y2="30.6"
       gradientUnits="userSpaceOnUse"
       x2="31.299999"
       y1="23.35"
       x1="27.01"><stop
         stop-color="#8a8a8a"
         offset="0"
         id="stop1" /><stop
         stop-color="#484848"
         offset="1"
         id="stop2" /></linearGradient><linearGradient
       id="SVGID_3_"
       y2="55.650002"
       gradientUnits="userSpaceOnUse"
       x2="-144.3"
       gradientTransform="matrix(1.335,0,0,-1.291,229.6,104.1)"
       y1="52.709999"
       x1="-146.89999"><stop
         stop-color="#7d7d7d"
         offset="0"
         id="stop3" /><stop
         stop-color="#b1b1b1"
         offset=".5"
         id="stop4" /><stop
         stop-color="#686868"
         offset="1"
         id="stop5" /></linearGradient><linearGradient
       id="c"
       y2="25.860001"
       gradientUnits="userSpaceOnUse"
       x2="17.83"
       y1="10.73"
       x1="18.809999"><stop
         stop-color="#fff"
         offset="0"
         id="stop6" /><stop
         stop-color="#fff"
         stop-opacity=".22"
         offset=".5"
         id="stop7" /><stop
         stop-color="#fff"
         offset="1"
         id="stop8" /></linearGradient><radialGradient
       id="r"
       gradientUnits="userSpaceOnUse"
       cy="81.5"
       cx="-171.7"
       gradientTransform="matrix(1.399,0,0,-1.399,259.5,136.2)"
       r="8.3100004"><stop
         stop-color="#729fcf"
         stop-opacity=".21"
         offset="0"
         id="stop9" /><stop
         stop-color="#729fcf"
         stop-opacity=".68"
         offset="1"
         id="stop10" /></radialGradient><radialGradient
       id="b"
       gradientUnits="userSpaceOnUse"
       cy="-511.60001"
       cx="-174.5"
       gradientTransform="matrix(1.446,0,0,-0.362,276.2,-145.1)"
       r="16.530001"><stop
         offset="0"
         id="stop11" /><stop
         stop-opacity="0"
         offset="1"
         id="stop12" /></radialGradient><radialGradient
       id="g"
       gradientUnits="userSpaceOnUse"
       cy="166.39999"
       cx="-296.79999"
       gradientTransform="matrix(2.593,0,0,-2.252,784.6,385.3)"
       r="6.6599998"><stop
         stop-color="#fff"
         offset="0"
         id="stop13" /><stop
         stop-color="#fff"
         stop-opacity=".25"
         offset="1"
         id="stop14" /></radialGradient><radialGradient
       id="s"
       gradientUnits="userSpaceOnUse"
       cy="-1674"
       cx="314.89999"
       gradientTransform="matrix(0.498,0,0,-0.145,-135.8,-204.1)"
       r="16.530001"><stop
         stop-color="#fff"
         offset="0"
         id="stop15" /><stop
         stop-color="#fff"
         stop-opacity="0"
         offset="1"
         id="stop16" /></radialGradient></defs><sodipodi:namedview
     inkscape:window-y="160"
     inkscape:window-x="562"
     inkscape:window-height="688"
     inkscape:window-width="872"
     inkscape:document-units="px"
     inkscape:grid-bbox="true"
     showgrid="false"
     inkscape:current-layer="svg249"
     inkscape:cy="791.12922"
     inkscape:cx="545.53941"
     inkscape:zoom="0.51508653"
     inkscape:pageshadow="2"
     inkscape:pageopacity="0.0"
     borderopacity="0.25490196"
     bordercolor="#666666"
     pagecolor="#ffffff"
     id="base"
     inkscape:showpageshadow="false"
     inkscape:pagecheckerboard="0"
     inkscape:deskcolor="#d1d1d1" /><metadata
     id="metadata4"><rdf:RDF><cc:Work
         rdf:about=""><dc:format>image/svg+xml</dc:format><dc:type
           rdf:resource="http://purl.org/dc/dcmitype/StillImage" /><dc:subject><rdf:Bag><rdf:li>document</rdf:li><rdf:li>settings</rdf:li><rdf:li>preferences</rdf:li><rdf:li>properties</rdf:li><rdf:li>tweak</rdf:li></rdf:Bag></dc:subject><cc:license
           rdf:resource="http://creativecommons.org/publicdomain/zero/1.0/" /><dc:creator><cc:Agent><dc:title>Jakub Steiner</dc:title></cc:Agent></dc:creator><dc:source>http://jimmac.musichall.cz</dc:source><dc:description>https://commons.wikimedia.org/wiki/File:Document-properties.svg</dc:description></cc:Work><cc:License
         rdf:about="http://creativecommons.org/publicdomain/zero/1.0/"><cc:permits
           rdf:resource="http://creativecommons.org/ns#Reproduction" /><cc:permits
           rdf:resource="http://creativecommons.org/ns#Distribution" /><cc:permits
           rdf:resource="http://creativecommons.org/ns#DerivativeWorks" /></cc:License></rdf:RDF></metadata><g
     id="g2"
     transform="matrix(4.7068525,0,0,4.7068525,9.7152511,14.773955)"><g
       style="display:inline"
       id="g5022"
       transform="matrix(0.02165152,0,0,0.01485743,43.0076,42.68539)"
       inkscape:label="Shadow"><rect
         y="-150.69685"
         x="-1559.2523"
         height="478.35718"
         width="1339.6335"
         id="rect4173"
         style="color:#000000;display:inline;overflow:visible;visibility:visible;opacity:0.402062;fill:url(#linearGradient5027);fill-opacity:1;fill-rule:nonzero;stroke:none;stroke-width:1;stroke-linecap:round;stroke-linejoin:miter;stroke-miterlimit:4;stroke-dasharray:none;stroke-dashoffset:0;stroke-opacity:1;marker:none;marker-start:none;marker-mid:none;marker-end:none" /><path
         sodipodi:nodetypes="cccc"
         id="path5058"
         d="m -219.61876,-150.68038 c 0,0 0,478.33079 0,478.33079 142.874166,0.90045 345.40022,-107.16966 345.40014,-239.196175 0,-132.026537 -159.436816,-239.134595 -345.40014,-239.134615 z"
         style="color:#000000;display:inline;overflow:visible;visibility:visible;opacity:0.402062;fill:url(#radialGradient5029);fill-opacity:1;fill-rule:nonzero;stroke:none;stroke-width:1;stroke-linecap:round;stroke-linejoin:miter;stroke-miterlimit:4;stroke-dasharray:none;stroke-dashoffset:0;stroke-opacity:1;marker:none;marker-start:none;marker-mid:none;marker-end:none" /><path
         style="color:#000000;display:inline;overflow:visible;visibility:visible;opacity:0.402062;fill:url(#radialGradient5031);fill-opacity:1;fill-rule:nonzero;stroke:none;stroke-width:1;stroke-linecap:round;stroke-linejoin:miter;stroke-miterlimit:4;stroke-dasharray:none;stroke-dashoffset:0;stroke-opacity:1;marker:none;marker-start:none;marker-mid:none;marker-end:none"
         d="m -1559.2523,-150.68038 c 0,0 0,478.33079 0,478.33079 -142.8742,0.90045 -345.4002,-107.16966 -345.4002,-239.196175 0,-132.026537 159.4368,-239.134595 345.4002,-239.134615 z"
         id="path5018"
         sodipodi:nodetypes="cccc" /></g><g
       id="g1"
       inkscape:label="Base"
       style="display:inline"><rect
         style="color:#000000;display:block;overflow:visible;visibility:visible;fill:url(#radialGradient15658);fill-opacity:1;fill-rule:nonzero;stroke:url(#radialGradient15656);stroke-width:1;stroke-linecap:round;stroke-linejoin:round;stroke-miterlimit:4;stroke-dashoffset:0;stroke-opacity:1;marker:none;marker-start:none;marker-mid:none;marker-end:none"
         id="rect15391"
         width="34.875"
         height="40.920494"
         x="6.6035528"
         y="3.6464462"
         ry="1.1490486" /><rect
         style="color:#000000;display:block;overflow:visible;visibility:visible;fill:none;fill-opacity:1;fill-rule:nonzero;stroke:url(#radialGradient15668);stroke-width:1;stroke-linecap:round;stroke-linejoin:round;stroke-miterlimit:4;stroke-dashoffset:0;stroke-opacity:1;marker:none;marker-start:none;marker-mid:none;marker-end:none"
         id="rect15660"
         width="32.775887"
         height="38.946384"
         x="7.6660538"
         y="4.5839462"
         ry="0.14904857"
         rx="0.14904857" /><g
         transform="translate(0.646447,-0.03798933)"
         id="g2270"><g
           id="g1440"
           style="fill:#ffffff;fill-opacity:1;fill-rule:nonzero;stroke:#000000;stroke-miterlimit:4"
           transform="matrix(0.229703,0,0,0.229703,4.967081,4.244972)"><radialGradient
             id="radialGradient1442"
             cx="20.892099"
             cy="114.5684"
             r="5.256"
             fx="20.892099"
             fy="114.5684"
             gradientUnits="userSpaceOnUse"><stop
               offset="0"
               style="stop-color:#F0F0F0"
               id="stop1444" /><stop
               offset="1"
               style="stop-color:#474747"
               id="stop1446" /></radialGradient><path
             style="stroke:none"
             d="m 23.428,113.07 c 0,1.973 -1.6,3.572 -3.573,3.572 -1.974,0 -3.573,-1.6 -3.573,-3.572 0,-1.974 1.6,-3.573 3.573,-3.573 1.973,0 3.573,1.6 3.573,3.573 z"
             id="path1448" /><radialGradient
             id="radialGradient1450"
             cx="20.892099"
             cy="64.567902"
             r="5.257"
             fx="20.892099"
             fy="64.567902"
             gradientUnits="userSpaceOnUse"><stop
               offset="0"
               style="stop-color:#F0F0F0"
               id="stop1452" /><stop
               offset="1"
               style="stop-color:#474747"
               id="stop1454" /></radialGradient><path
             style="stroke:none"
             d="m 23.428,63.07 c 0,1.973 -1.6,3.573 -3.573,3.573 -1.974,0 -3.573,-1.6 -3.573,-3.573 0,-1.974 1.6,-3.573 3.573,-3.573 1.973,0 3.573,1.6 3.573,3.573 z"
             id="path1456" /></g><path
           style="fill:url(#radialGradient2283);fill-rule:nonzero;stroke:none;stroke-miterlimit:4"
           d="m 9.9950109,29.952326 c 0,0.453204 -0.3675248,0.820499 -0.8207288,0.820499 -0.4534338,0 -0.8207289,-0.367524 -0.8207289,-0.820499 0,-0.453434 0.3675248,-0.820729 0.8207289,-0.820729 0.453204,0 0.8207288,0.367525 0.8207288,0.820729 z"
           id="path15570" /><path
           style="fill:url(#radialGradient2285);fill-rule:nonzero;stroke:none;stroke-miterlimit:4"
           d="m 9.9950109,18.467176 c 0,0.453204 -0.3675248,0.820729 -0.8207288,0.820729 -0.4534338,0 -0.8207289,-0.367525 -0.8207289,-0.820729 0,-0.453434 0.3675248,-0.820729 0.8207289,-0.820729 0.453204,0 0.8207288,0.367525 0.8207288,0.820729 z"
           id="path15577" /></g><path
         style="fill:none;fill-opacity:0.75;fill-rule:evenodd;stroke:#000000;stroke-width:0.988553;stroke-linecap:butt;stroke-linejoin:miter;stroke-miterlimit:4;stroke-opacity:0.0175438"
         d="M 11.505723,5.4942766 V 43.400869"
         id="path15672"
         sodipodi:nodetypes="cc" /><path
         style="fill:none;fill-opacity:0.75;fill-rule:evenodd;stroke:#ffffff;stroke-width:1;stroke-linecap:butt;stroke-linejoin:miter;stroke-miterlimit:4;stroke-opacity:0.204678"
         d="M 12.5,5.0205154 V 43.038228"
         id="path15674"
         sodipodi:nodetypes="cc" /></g><g
       transform="matrix(0.909091,0,0,1,2.363628,0)"
       id="g2253"
       inkscape:label="Text"
       style="display:inline"><rect
         style="color:#000000;display:block;overflow:visible;visibility:visible;fill:#9b9b9b;fill-opacity:0.549708;fill-rule:nonzero;stroke:none;stroke-width:1;stroke-linecap:round;stroke-linejoin:round;stroke-miterlimit:4;stroke-dashoffset:0;stroke-opacity:0.0818714;marker:none;marker-start:none;marker-mid:none;marker-end:none"
         id="rect15686"
         width="22.000004"
         height="1"
         x="15.000002"
         y="9"
         rx="0.15156493"
         ry="0.065390877" /><rect
         style="color:#000000;display:block;overflow:visible;visibility:visible;fill:#9b9b9b;fill-opacity:0.549708;fill-rule:nonzero;stroke:none;stroke-width:1;stroke-linecap:round;stroke-linejoin:round;stroke-miterlimit:4;stroke-dashoffset:0;stroke-opacity:0.0818714;marker:none;marker-start:none;marker-mid:none;marker-end:none"
         id="rect15688"
         width="22.000004"
         height="1"
         x="15.000002"
         y="11"
         rx="0.15156493"
         ry="0.065390877" /><rect
         style="color:#000000;display:block;overflow:visible;visibility:visible;fill:#9b9b9b;fill-opacity:0.549708;fill-rule:nonzero;stroke:none;stroke-width:1;stroke-linecap:round;stroke-linejoin:round;stroke-miterlimit:4;stroke-dashoffset:0;stroke-opacity:0.0818714;marker:none;marker-start:none;marker-mid:none;marker-end:none"
         id="rect15690"
         width="22.000004"
         height="1"
         x="15.000002"
         y="13"
         rx="0.15156493"
         ry="0.065390877" /><rect
         style="color:#000000;display:block;overflow:visible;visibility:visible;fill:#9b9b9b;fill-opacity:0.549708;fill-rule:nonzero;stroke:none;stroke-width:1;stroke-linecap:round;stroke-linejoin:round;stroke-miterlimit:4;stroke-dashoffset:0;stroke-opacity:0.0818714;marker:none;marker-start:none;marker-mid:none;marker-end:none"
         id="rect15692"
         width="22.000004"
         height="1"
         x="15.000002"
         y="15"
         rx="0.15156493"
         ry="0.065390877" /><rect
         style="color:#000000;display:block;overflow:visible;visibility:visible;fill:#9b9b9b;fill-opacity:0.549708;fill-rule:nonzero;stroke:none;stroke-width:1;stroke-linecap:round;stroke-linejoin:round;stroke-miterlimit:4;stroke-dashoffset:0;stroke-opacity:0.0818714;marker:none;marker-start:none;marker-mid:none;marker-end:none"
         id="rect15694"
         width="22.000004"
         height="1"
         x="15.000002"
         y="17"
         rx="0.15156493"
         ry="0.065390877" /><rect
         style="color:#000000;display:block;overflow:visible;visibility:visible;fill:#9b9b9b;fill-opacity:0.549708;fill-rule:nonzero;stroke:none;stroke-width:1;stroke-linecap:round;stroke-linejoin:round;stroke-miterlimit:4;stroke-dashoffset:0;stroke-opacity:0.0818714;marker:none;marker-start:none;marker-mid:none;marker-end:none"
         id="rect15696"
         width="22.000004"
         height="1"
         x="15.000002"
         y="19"
         rx="0.15156493"
         ry="0.065390877" /><rect
         style="color:#000000;display:block;overflow:visible;visibility:visible;fill:#9b9b9b;fill-opacity:0.549708;fill-rule:nonzero;stroke:none;stroke-width:1;stroke-linecap:round;stroke-linejoin:round;stroke-miterlimit:4;stroke-dashoffset:0;stroke-opacity:0.0818714;marker:none;marker-start:none;marker-mid:none;marker-end:none"
         id="rect15698"
         width="22.000004"
         height="1"
         x="15.000002"
         y="21"
         rx="0.15156493"
         ry="0.065390877" /><rect
         style="color:#000000;display:block;overflow:visible;visibility:visible;fill:#9b9b9b;fill-opacity:0.549708;fill-rule:nonzero;stroke:none;stroke-width:1;stroke-linecap:round;stroke-linejoin:round;stroke-miterlimit:4;stroke-dashoffset:0;stroke-opacity:0.0818714;marker:none;marker-start:none;marker-mid:none;marker-end:none"
         id="rect15700"
         width="22.000004"
         height="1"
         x="15.000002"
         y="23"
         rx="0.15156493"
         ry="0.065390877" /><rect
         style="color:#000000;display:block;overflow:visible;visibility:visible;fill:#9b9b9b;fill-opacity:0.549708;fill-rule:nonzero;stroke:none;stroke-width:1;stroke-linecap:round;stroke-linejoin:round;stroke-miterlimit:4;stroke-dashoffset:0;stroke-opacity:0.0818714;marker:none;marker-start:none;marker-mid:none;marker-end:none"
         id="rect15732"
         width="9.9000053"
         height="1"
         x="14.999992"
         y="25"
         rx="0.068204239"
         ry="0.065390877" /><rect
         style="color:#000000;display:block;overflow:visible;visibility:visible;fill:#9b9b9b;fill-opacity:0.549708;fill-rule:nonzero;stroke:none;stroke-width:1;stroke-linecap:round;stroke-linejoin:round;stroke-miterlimit:4;stroke-dashoffset:0;stroke-opacity:0.0818714;marker:none;marker-start:none;marker-mid:none;marker-end:none"
         id="rect15736"
         width="22.000004"
         height="1"
         x="14.999992"
         y="29"
         rx="0.15156493"
         ry="0.065390877" /><rect
         style="color:#000000;display:block;overflow:visible;visibility:visible;fill:#9b9b9b;fill-opacity:0.549708;fill-rule:nonzero;stroke:none;stroke-width:1;stroke-linecap:round;stroke-linejoin:round;stroke-miterlimit:4;stroke-dashoffset:0;stroke-opacity:0.0818714;marker:none;marker-start:none;marker-mid:none;marker-end:none"
         id="rect15738"
         width="22.000004"
         height="1"
         x="14.999992"
         y="31"
         rx="0.15156493"
         ry="0.065390877" /><rect
         style="color:#000000;display:block;overflow:visible;visibility:visible;fill:#9b9b9b;fill-opacity:0.549708;fill-rule:nonzero;stroke:none;stroke-width:1;stroke-linecap:round;stroke-linejoin:round;stroke-miterlimit:4;stroke-dashoffset:0;stroke-opacity:0.0818714;marker:none;marker-start:none;marker-mid:none;marker-end:none"
         id="rect15740"
         width="22.000004"
         height="1"
         x="14.999992"
         y="33"
         rx="0.15156493"
         ry="0.065390877" /><rect
         style="color:#000000;display:block;overflow:visible;visibility:visible;fill:#9b9b9b;fill-opacity:0.549708;fill-rule:nonzero;stroke:none;stroke-width:1;stroke-linecap:round;stroke-linejoin:round;stroke-miterlimit:4;stroke-dashoffset:0;stroke-opacity:0.0818714;marker:none;marker-start:none;marker-mid:none;marker-end:none"
         id="rect15742"
         width="22.000004"
         height="1"
         x="14.999992"
         y="35"
         rx="0.15156493"
         ry="0.065390877" /><rect
         style="color:#000000;display:block;overflow:visible;visibility:visible;fill:#9b9b9b;fill-opacity:0.549708;fill-rule:nonzero;stroke:none;stroke-width:1;stroke-linecap:round;stroke-linejoin:round;stroke-miterlimit:4;stroke-dashoffset:0;stroke-opacity:0.0818714;marker:none;marker-start:none;marker-mid:none;marker-end:none"
         id="rect15744"
         width="15.400014"
         height="1"
         x="14.999992"
         y="37"
         rx="0.10609552"
         ry="0.065390877" /></g><path
       style="color:#000000;display:none;overflow:visible;visibility:visible;opacity:0.409091;fill:url(#radialGradient2622);fill-opacity:1;fill-rule:nonzero;stroke:none;stroke-width:1;stroke-linecap:butt;stroke-linejoin:miter;stroke-miterlimit:4;stroke-dasharray:none;stroke-dashoffset:0;stroke-opacity:1;marker:none;marker-start:none;marker-mid:none;marker-end:none"
       d="m 25.96875,14.555141 c -0.31249,0.02427 -0.616211,0.06348 -0.9375,0.125 l -1.28125,1.15625 3.96875,3.75 0.21875,3.28125 -2.96875,2.6875 -3.5,-0.375 -3.625,-3.40625 c -1e-6,0 -1.28125,1.25 -1.28125,1.25 -0.590763,5.641318 5.3125,10.6875 11.375,7.3125 l 11.84375,12.125 v -10.375 l -6.5625,-7.03125 c 2.126952,-5.908203 -1.848384,-10.919581 -7.25,-10.5 z"
       id="path2140"
       inkscape:label="wrench" /></g><g
     id="g312"
     transform="matrix(1.1189215,0,0,-1.5307475,-46.367847,365.45993)"
     style="clip-rule:nonzero;display:inline;fill:#00009f;fill-rule:nonzero;stroke:#ffffff;stroke-width:0;stroke-miterlimit:4"><rect
       style="clip-rule:nonzero;display:inline;fill:url(#linearGradient58);fill-opacity:0.449541;fill-rule:evenodd;stroke:none;stroke-width:3.09507;stroke-linejoin:round;stroke-miterlimit:4;stroke-opacity:0.905882"
       id="rect54"
       width="101.69501"
       height="21.05685"
       x="31.009546"
       y="80.402298"
       transform="matrix(1.4282653,0,0,1.4282653,34.081863,44.487478)" /><path
       id="rect228-7"
       style="fill:url(#linearGradient350);fill-opacity:1;fill-rule:evenodd;stroke:none;stroke-width:8.07101;stroke-linejoin:round;stroke-opacity:0.905882"
       d="m 77.81447,157.32054 v 6.76651 h 8.216036 v -6.76651 z m 15.004769,0.24133 v 6.76651 h 6.625435 v 6.76651 h 6.640426 v 6.46266 h -6.640426 v 6.76651 h 6.766516 v -6.76651 h 6.64042 v -6.46266 h 6.73085 v -6.76651 h -6.73085 v -6.76651 h -6.76651 v 6.76651 h -6.499349 v -6.76651 z m 27.073801,0 v 6.76651 h 6.76444 v 6.46265 h -6.76444 v 6.76652 h 6.76444 v 6.76651 h 6.766 v -6.76651 h -6.76393 v -6.46266 h 6.76393 v -6.76651 h -6.76393 v -6.76651 z m 13.54077,0 v 6.76651 h 6.76652 v -6.76651 z m 13.56352,0 v 6.76651 h -6.75515 v 6.76651 h 6.75515 v 6.46266 h 6.76651 v -6.76652 h -6.75514 v -6.46265 h 6.75514 v -6.76651 z m 13.59038,0 v 6.76651 h -6.76083 v 6.76651 h 6.76083 v 6.46266 h -6.76083 v 6.76651 h 6.76652 v -6.76651 h 6.76082 v -6.76652 h -6.76082 v -6.46265 h 6.76082 v -6.76651 z m 13.52217,0 v 6.76651 h -6.74067 v 6.76651 h 6.74067 v 6.46266 h -6.74067 v 6.76651 h 6.76651 v -6.76651 h 6.74016 v -6.76652 h -6.74016 v -6.46265 h 6.74016 v -6.76651 z m 13.56455,0 v 6.76651 h -6.76289 v 6.76651 h 6.76289 v 6.46266 h -6.76289 v 6.76651 h 6.76651 v -6.76651 h 6.76289 v -6.76652 h -6.76289 v -6.46265 h 6.76289 v -6.76651 z m 13.69064,0 v 6.76651 h 6.76651 v -6.76651 z m 13.64103,0 v 6.76651 h -6.66626 v 6.76651 h 6.66626 v 6.46266 h -6.66626 v 6.76651 h 6.76651 v -6.76651 h 6.66626 v -6.76652 h -6.66626 v -6.46265 h 6.66626 v -6.76651 z m -128.975594,6.76651 v 6.22133 H 77.81447 v 6.76651 h 8.216036 v -6.22133 h 6.766512 v -6.76651 z m 20.180684,0 h 6.60476 v 6.46265 h -6.60476 z m 88.37083,0 v 6.76651 h 6.76651 v -6.76651 z m -61.14821,6.46265 v 6.76652 h 6.76652 v -6.76652 z m 67.93126,0 v 6.76652 h 6.76651 v -6.76652 z m -115.334564,6.76652 v 6.75049 H 77.81447 v 6.76651 h 8.216036 v -6.75049 h 6.766512 v -6.76651 z m 108.551514,0 v 6.76651 h 6.76651 v -6.76651 z m -101.762781,6.99182 v 6.76651 h 6.625435 v 6.76651 h 6.766516 v -6.76651 h 6.64042 v -6.76651 h -6.76651 v 6.76651 h -6.499349 v -6.76651 z m 27.073801,0 v 6.76651 h 6.76444 v 6.76651 h 6.766 v -6.76651 h -6.76393 v -6.76651 z m 13.54077,0 v 6.76651 h 6.76652 v -6.76651 z m 13.56352,0 v 6.76651 h -6.75515 v 6.76651 h 6.76652 v -6.76651 h 6.75514 v -6.76651 z m 27.11255,0 v 6.76651 h -6.74067 v 6.76651 h 6.76651 v -6.76651 h 6.74016 v -6.76651 z m 13.56455,0 v 6.76651 h 6.76651 v -6.76651 z m 27.33167,0 v 6.76651 h -6.66626 v 6.76651 h 6.76651 v -6.76651 h 6.66626 v -6.76651 z m -20.42408,6.76651 v 6.76651 h 6.76651 v -6.76651 z M 92.819239,198.3077 v 6.76651 h 6.766512 v -6.76651 z m 13.265861,0 v 6.76651 h 6.73085 v 6.46266 h -6.73085 v 6.76651 h -6.499349 v -6.76651 h -6.766512 v 6.76651 h 6.625435 v 6.76651 h 6.640426 v 6.46266 h 6.73085 v 6.76651 h 6.76651 v -6.76651 h -6.73085 v -6.76652 h -6.64042 v -6.46265 h 6.64042 v -6.46265 h 6.73085 v -6.76652 h -6.73085 v -6.76651 z m 13.80794,0 v 6.76651 h 6.76651 v -6.76651 z m 13.54077,0 v 6.76651 h 6.76652 v -6.76651 z m 13.56352,0 v 6.76651 h -6.75515 v 6.76652 h 6.75515 v 6.46265 h 6.76651 v -6.76651 h -6.75514 v -6.46266 h 6.75514 v -6.76651 z m 13.59038,0 v 6.76651 h 6.76651 v -6.76651 z m 13.52217,0 v 6.76651 h -6.74067 v 6.76652 h 6.76651 v -6.76652 h 6.74016 v -6.76651 z m 13.56455,0 v 6.76651 h 6.76651 v -6.76651 z m 13.69064,0 v 6.76651 h 6.76651 v -6.76651 z m 13.64103,0 v 6.76651 h -6.66626 v 6.76652 h 6.66626 v 6.46265 h 6.76651 v -6.76651 h -6.66626 v -6.46266 h 6.66626 v -6.76651 z m -20.42408,6.76651 v 6.76652 h 6.76651 v -6.76652 z m -74.68898,6.46266 v 6.76651 h 6.76444 v 6.46265 h -6.76444 v 6.76652 h 6.76651 v -6.46266 h 6.76393 v -6.76651 h -6.76393 v -6.76651 z m 40.69467,0 v 6.76651 h -6.76083 v 6.76651 h 6.76652 v -6.76651 h 6.76082 v -6.76651 z m 19.34301,5.29166 v 6.76652 h -7.79901 v 6.76651 h 6.76651 l 1.05834,-6.76651 h 6.74015 v -6.76652 z m 14.6513,1.47485 v 6.76651 h 6.76651 v -6.76651 z m -61.14821,6.46265 v 6.76652 h 6.76652 v -6.76652 z m 13.56352,0 v 6.76652 h 6.76651 v -6.76652 z m 59.22636,1.47485 v 6.76651 h 6.76651 v -6.76651 z m -52.39681,5.29167 v 6.76651 h 6.76652 v -6.76651 z" /></g><g
     id="g19"
     transform="matrix(3.8984786,0,0,3.8984786,61.282755,71.584259)"><ellipse
       opacity="0.17"
       rx="23.9"
       ry="5.98"
       cy="39.959999"
       cx="23.92"
       fill="url(#b)"
       id="ellipse16"
       style="fill:url(#b)" /><g
       fill="#dcdcdc"
       id="g17"><path
         d="m 18.63,3.14 c -8.14,0 -14.75,6.61 -14.75,14.75 0,8.14 6.61,14.74 14.75,14.74 3.48,0 6.55,-1.38 9.1,-3.4 -0.2,1 -0.08,2.04 0.76,2.76 l 10.96,9.53 c 1.23,1.07 3.09,0.93 4.16,-0.3 1.07,-1.24 0.93,-3.09 -0.3,-4.16 L 32.34,27.53 c -0.67,-0.58 -1.49,-0.76 -2.3,-0.64 1.98,-2.52 3.36,-5.55 3.36,-9 C 33.4,9.75 26.8,3.14 18.66,3.14 Z m -0.08,1.23 c 7.64,0 13.29,4.79 13.29,13.29 0,8.68 -5.81,13.29 -13.29,13.29 -7.3,0 -13.29,-5.47 -13.29,-13.29 0,-7.98 5.82,-13.29 13.29,-13.29 z"
         stroke="url(#k)"
         stroke-linecap="round"
         stroke-width="2"
         id="path16"
         style="stroke:url(#k)" /><path
         d="m 18.6,3.08 c -8.16,0 -14.79,6.63 -14.79,14.79 0,8.17 6.63,14.8 14.79,14.8 3.49,0 6.58,-1.39 9.11,-3.42 -0.21,1 -0.08,2.04 0.75,2.77 l 11,9.56 c 1.24,1.07 3.1,0.93 4.18,-0.3 1.07,-1.24 0.93,-3.1 -0.31,-4.18 l -11,-9.56 C 31.66,26.96 30.84,26.79 30.02,26.9 32.01,24.38 33.4,21.33 33.4,17.9 33.4,9.74 26.77,3.11 18.6,3.11 M 18.53,6.3 c 6.28,0 11.38,5.09 11.38,11.38 0,6.28 -5.1,11.37 -11.38,11.37 -6.28,0 -11.38,-5.09 -11.38,-11.37 0,-6.29 5.1,-11.38 11.38,-11.38"
         id="path17" /></g><path
       d="M 39.51,41.58 C 39.03,39.3 40.9,36.77 43.09,36.79 L 32.33,27.53 c -2.94,-0.06 -4.27,2.27 -3.78,4.6 l 10.96,9.45"
       fill="url(#SVGID_3_)"
       id="path18"
       style="fill:url(#SVGID_3_)" /><circle
       cy="17.4"
       stroke="url(#c)"
       cx="18.379999"
       r="13.77"
       fill="none"
       id="circle18"
       style="stroke:url(#c)" /><ellipse
       rx="8.2299995"
       ry="2.4000001"
       cy="38.77"
       cx="20.99"
       fill="url(#s)"
       id="ellipse18"
       style="fill:url(#s)" /><circle
       cy="17.549999"
       stroke="#3063a3"
       cx="18.379999"
       r="11.62"
       fill="url(#r)"
       id="circle19"
       style="fill:url(#r)" /><path
       opacity="0.83"
       d="m 18.2,7.4 c -5.21,0 -9.43,4.21 -9.43,9.42 0,1.51 0.42,2.89 1.05,4.15 1.25,0.46 2.58,0.78 3.99,0.78 6.18,0 11.1,-4.86 11.48,-10.94 C 23.56,8.76 21.08,7.4 18.2,7.4"
       fill="url(#g)"
       id="path19"
       style="fill:url(#g)" /><rect
       opacity="0.43"
       rx="2.4679999"
       transform="matrix(0.753,0.658,-0.6489,0.7609,0,0)"
       height="5"
       width="19"
       stroke="#ffffff"
       y="-0.13"
       x="40.5"
       fill="none"
       id="rect19" /></g></svg>
