<?xml version="1.0" encoding="UTF-8" standalone="no"?>
<!-- Created with Inkscape (http://www.inkscape.org/) -->

<svg
   inkscape:export-ydpi="240.00000"
   inkscape:export-xdpi="240.00000"
   inkscape:export-filename="/home/jimmac/gfx/novell/pdes/trunk/docs/BIGmime-text.png"
   sodipodi:docname="document-edit-sign-encrypt.svg"
   inkscape:version="1.4.2 (ebf0e940d0, 2025-05-08)"
   sodipodi:version="0.32"
   id="svg249"
   height="256mm"
   width="256mm"
   inkscape:output_extension="org.inkscape.output.svg.inkscape"
   version="1.1"
   viewBox="0 0 256 256"
   xml:space="preserve"
   xmlns:inkscape="http://www.inkscape.org/namespaces/inkscape"
   xmlns:sodipodi="http://sodipodi.sourceforge.net/DTD/sodipodi-0.dtd"
   xmlns:xlink="http://www.w3.org/1999/xlink"
   xmlns="http://www.w3.org/2000/svg"
   xmlns:svg="http://www.w3.org/2000/svg"
   xmlns:rdf="http://www.w3.org/1999/02/22-rdf-syntax-ns#"
   xmlns:cc="http://creativecommons.org/ns#"
   xmlns:dc="http://purl.org/dc/elements/1.1/"><defs
     id="defs3"><inkscape:perspective
       sodipodi:type="inkscape:persp3d"
       inkscape:vp_x="0 : 249.64999 : 1"
       inkscape:vp_y="0 : 264.58333 : 0"
       inkscape:vp_z="12.7 : 249.64999 : 1"
       inkscape:persp3d-origin="6.3499996 : 247.53333 : 1"
       id="perspective83" /><radialGradient
       inkscape:collect="always"
       xlink:href="#linearGradient5060"
       id="radialGradient5031"
       gradientUnits="userSpaceOnUse"
       gradientTransform="matrix(-2.774389,0,0,1.969706,112.7623,-872.8854)"
       cx="605.71429"
       cy="486.64789"
       fx="605.71429"
       fy="486.64789"
       r="117.14286" /><linearGradient
       inkscape:collect="always"
       id="linearGradient5060"><stop
         style="stop-color:black;stop-opacity:1;"
         offset="0"
         id="stop5062" /><stop
         style="stop-color:black;stop-opacity:0;"
         offset="1"
         id="stop5064" /></linearGradient><radialGradient
       inkscape:collect="always"
       xlink:href="#linearGradient5060"
       id="radialGradient5029"
       gradientUnits="userSpaceOnUse"
       gradientTransform="matrix(2.774389,0,0,1.969706,-1891.633,-872.8854)"
       cx="605.71429"
       cy="486.64789"
       fx="605.71429"
       fy="486.64789"
       r="117.14286" /><linearGradient
       id="linearGradient5048"><stop
         style="stop-color:black;stop-opacity:0;"
         offset="0"
         id="stop5050" /><stop
         id="stop5056"
         offset="0.5"
         style="stop-color:black;stop-opacity:1;" /><stop
         style="stop-color:black;stop-opacity:0;"
         offset="1"
         id="stop5052" /></linearGradient><linearGradient
       inkscape:collect="always"
       xlink:href="#linearGradient5048"
       id="linearGradient5027"
       gradientUnits="userSpaceOnUse"
       gradientTransform="matrix(2.774389,0,0,1.969706,-1892.179,-872.8854)"
       x1="302.85715"
       y1="366.64789"
       x2="302.85715"
       y2="609.50507" /><linearGradient
       inkscape:collect="always"
       id="linearGradient2616"><stop
         style="stop-color:#000000;stop-opacity:1;"
         offset="0"
         id="stop2618" /><stop
         style="stop-color:#000000;stop-opacity:0;"
         offset="1"
         id="stop2620" /></linearGradient><linearGradient
       inkscape:collect="always"
       id="linearGradient4542"><stop
         style="stop-color:#000000;stop-opacity:1;"
         offset="0"
         id="stop4544" /><stop
         style="stop-color:#000000;stop-opacity:0;"
         offset="1"
         id="stop4546" /></linearGradient><linearGradient
       id="linearGradient15662"><stop
         id="stop15664"
         offset="0.0000000"
         style="stop-color:#ffffff;stop-opacity:1.0000000;" /><stop
         id="stop15666"
         offset="1.0000000"
         style="stop-color:#f8f8f8;stop-opacity:1.0000000;" /></linearGradient><radialGradient
       id="aigrd3"
       cx="20.892099"
       cy="64.567902"
       r="5.257"
       fx="20.892099"
       fy="64.567902"
       gradientUnits="userSpaceOnUse"><stop
         offset="0"
         style="stop-color:#F0F0F0"
         id="stop15573" /><stop
         offset="1.0000000"
         style="stop-color:#9a9a9a;stop-opacity:1.0000000;"
         id="stop15575" /></radialGradient><radialGradient
       id="aigrd2"
       cx="20.892099"
       cy="114.5684"
       r="5.256"
       fx="20.892099"
       fy="114.5684"
       gradientUnits="userSpaceOnUse"><stop
         offset="0"
         style="stop-color:#F0F0F0"
         id="stop15566" /><stop
         offset="1.0000000"
         style="stop-color:#9a9a9a;stop-opacity:1.0000000;"
         id="stop15568" /></radialGradient><linearGradient
       id="linearGradient269"><stop
         id="stop270"
         offset="0.0000000"
         style="stop-color:#a3a3a3;stop-opacity:1.0000000;" /><stop
         id="stop271"
         offset="1.0000000"
         style="stop-color:#4c4c4c;stop-opacity:1.0000000;" /></linearGradient><linearGradient
       id="linearGradient259"><stop
         id="stop260"
         offset="0.0000000"
         style="stop-color:#fafafa;stop-opacity:1.0000000;" /><stop
         id="stop261"
         offset="1.0000000"
         style="stop-color:#bbbbbb;stop-opacity:1.0000000;" /></linearGradient><radialGradient
       inkscape:collect="always"
       xlink:href="#linearGradient269"
       id="radialGradient15656"
       gradientUnits="userSpaceOnUse"
       gradientTransform="matrix(0.968273,0,0,1.032767,3.353553,0.646447)"
       cx="8.824419"
       cy="3.7561285"
       fx="8.824419"
       fy="3.7561285"
       r="37.751713" /><radialGradient
       inkscape:collect="always"
       xlink:href="#linearGradient259"
       id="radialGradient15658"
       gradientUnits="userSpaceOnUse"
       gradientTransform="scale(0.960493,1.041132)"
       cx="33.966679"
       cy="35.736916"
       fx="33.966679"
       fy="35.736916"
       r="86.70845" /><radialGradient
       inkscape:collect="always"
       xlink:href="#linearGradient15662"
       id="radialGradient15668"
       gradientUnits="userSpaceOnUse"
       gradientTransform="matrix(0.968273,0,0,1.032767,3.353553,0.646447)"
       cx="8.1435566"
       cy="7.2678967"
       fx="8.1435566"
       fy="7.2678967"
       r="38.158695" /><radialGradient
       r="5.256"
       fy="114.5684"
       fx="20.892099"
       cy="114.5684"
       cx="20.892099"
       gradientTransform="matrix(0.229703,0,0,0.229703,4.613529,3.979808)"
       gradientUnits="userSpaceOnUse"
       id="radialGradient2283"
       xlink:href="#aigrd2"
       inkscape:collect="always" /><radialGradient
       r="5.257"
       fy="64.567902"
       fx="20.892099"
       cy="64.567902"
       cx="20.892099"
       gradientTransform="matrix(0.229703,0,0,0.229703,4.613529,3.979808)"
       gradientUnits="userSpaceOnUse"
       id="radialGradient2285"
       xlink:href="#aigrd3"
       inkscape:collect="always" /><radialGradient
       inkscape:collect="always"
       xlink:href="#linearGradient4542"
       id="radialGradient4548"
       cx="24.306795"
       cy="42.07798"
       fx="24.306795"
       fy="42.07798"
       r="15.821514"
       gradientTransform="matrix(1,0,0,0.284916,0,30.08928)"
       gradientUnits="userSpaceOnUse" /><radialGradient
       inkscape:collect="always"
       xlink:href="#linearGradient2616"
       id="radialGradient2622"
       cx="26.030092"
       cy="24.22681"
       fx="26.030092"
       fy="24.22681"
       r="11.629837"
       gradientTransform="matrix(2.110988,0,0,2.53493,-28.91913,-38.04383)"
       gradientUnits="userSpaceOnUse" /><linearGradient
       inkscape:collect="always"
       xlink:href="#linearGradient57"
       id="linearGradient58"
       x1="82.61499"
       y1="82.30162"
       x2="82.61499"
       y2="100.74422"
       gradientUnits="userSpaceOnUse" /><linearGradient
       id="linearGradient57"
       inkscape:collect="always"><stop
         style="stop-color:#303030;stop-opacity:0.44954104;"
         offset="0"
         id="stop57" /><stop
         style="stop-color:#303030;stop-opacity:0;"
         offset="1"
         id="stop58" /></linearGradient><linearGradient
       inkscape:collect="always"
       xlink:href="#linearGradient349"
       id="linearGradient350"
       x1="143.7739"
       y1="162.95041"
       x2="147.61099"
       y2="229.59335"
       gradientUnits="userSpaceOnUse" /><linearGradient
       id="linearGradient349"
       inkscape:collect="always"><stop
         style="stop-color:#338ce5;stop-opacity:1;"
         offset="0"
         id="stop349" /><stop
         style="stop-color:#ac56a0;stop-opacity:0.88627452;"
         offset="0.09475172"
         id="stop352" /><stop
         style="stop-color:#ef0000;stop-opacity:1;"
         offset="0.40564111"
         id="stop351" /><stop
         style="stop-color:#2afe00;stop-opacity:0.77254903;"
         offset="0.56015062"
         id="stop353" /><stop
         style="stop-color:#129800;stop-opacity:1;"
         offset="0.71710175"
         id="stop354" /><stop
         style="stop-color:#0cd600;stop-opacity:0.71365637;"
         offset="0.9375"
         id="stop355" /><stop
         style="stop-color:#10b213;stop-opacity:0.38766521;"
         offset="1"
         id="stop350" /></linearGradient><linearGradient
       id="k"><stop
         offset="0"
         stop-color="#fff"
         stop-opacity="0"
         id="stop1" /><stop
         offset="1"
         stop-color="#fff"
         id="stop2" /></linearGradient><linearGradient
       id="g"><stop
         offset="0"
         stop-color="#ffec41"
         id="stop3" /><stop
         offset="1"
         stop-color="#c3af00"
         id="stop4" /></linearGradient><linearGradient
       xlink:href="#a"
       id="C"
       x1="19.250618"
       x2="16.198252"
       y1="9.6635771"
       y2="6.0396547"
       gradientTransform="translate(0,-1.926279)"
       gradientUnits="userSpaceOnUse" /><linearGradient
       xlink:href="#b"
       id="B"
       x1="10.650842"
       x2="27.192274"
       y1="2.9136841"
       y2="17.470011"
       gradientTransform="translate(0,-1.926279)"
       gradientUnits="userSpaceOnUse" /><linearGradient
       xlink:href="#c"
       id="y"
       x1="27.8125"
       x2="27.824219"
       y1="22.739454"
       y2="26.024691"
       gradientTransform="matrix(1.23077,0,0,0.32409,-5.538462,32.89774)"
       gradientUnits="userSpaceOnUse" /><linearGradient
       xlink:href="#c"
       id="x"
       x1="27.8125"
       x2="27.824219"
       y1="22.739454"
       y2="26.024691"
       gradientTransform="matrix(1.23077,0,0,0.32409,-5.538462,30.89774)"
       gradientUnits="userSpaceOnUse" /><linearGradient
       xlink:href="#c"
       id="w"
       x1="27.8125"
       x2="27.824219"
       y1="22.739454"
       y2="26.024691"
       gradientTransform="matrix(1.23077,0,0,0.32409,-5.538462,28.89774)"
       gradientUnits="userSpaceOnUse" /><linearGradient
       xlink:href="#c"
       id="v"
       x1="27.8125"
       x2="27.824219"
       y1="22.739454"
       y2="26.024691"
       gradientTransform="matrix(1.23077,0,0,0.32409,-5.538462,26.89774)"
       gradientUnits="userSpaceOnUse" /><linearGradient
       xlink:href="#c"
       id="u"
       x1="27.8125"
       x2="27.824219"
       y1="22.739454"
       y2="26.024691"
       gradientTransform="matrix(1.23077,0,0,0.32409,-5.538462,24.89774)"
       gradientUnits="userSpaceOnUse" /><linearGradient
       xlink:href="#c"
       id="t"
       x1="27.8125"
       x2="27.824219"
       y1="22.739454"
       y2="26.024691"
       gradientTransform="matrix(1.23077,0,0,0.32409,-5.538462,22.89774)"
       gradientUnits="userSpaceOnUse" /><linearGradient
       xlink:href="#c"
       id="s"
       x1="27.8125"
       x2="27.824219"
       y1="22.739454"
       y2="26.024691"
       gradientTransform="matrix(1.23077,0,0,0.32409,-5.538462,20.89774)"
       gradientUnits="userSpaceOnUse" /><linearGradient
       xlink:href="#c"
       id="r"
       x1="27.8125"
       x2="27.824219"
       y1="22.739454"
       y2="26.024691"
       gradientTransform="matrix(1.23077,0,0,0.32409,-5.538462,18.89774)"
       gradientUnits="userSpaceOnUse" /><linearGradient
       xlink:href="#c"
       id="q"
       x1="27.8125"
       x2="27.824219"
       y1="22.739454"
       y2="26.024691"
       gradientTransform="matrix(1.23077,0,0,0.32409,-5.538462,16.89774)"
       gradientUnits="userSpaceOnUse" /><linearGradient
       xlink:href="#c"
       id="p"
       x1="27.8125"
       x2="27.824219"
       y1="22.739454"
       y2="26.024691"
       gradientTransform="matrix(1.23077,0,0,0.32409,-5.538462,14.89774)"
       gradientUnits="userSpaceOnUse" /><linearGradient
       id="d"><stop
         offset="0"
         stop-color="#fff"
         id="stop5" /><stop
         offset="1"
         stop-color="#fff"
         stop-opacity=".49484536"
         id="stop6" /></linearGradient><linearGradient
       id="b"><stop
         offset="0"
         stop-color="#cad0c6"
         id="stop7" /><stop
         offset=".5"
         stop-color="#eaece9"
         id="stop8" /><stop
         offset="1"
         stop-color="#c5cbc0"
         id="stop9" /></linearGradient><linearGradient
       id="f"><stop
         offset="0"
         stop-color="#7d6400"
         id="stop10" /><stop
         offset="1"
         stop-color="#be9700"
         id="stop11" /></linearGradient><linearGradient
       id="a"><stop
         offset="0"
         stop-color="#6f716d"
         id="stop12" /><stop
         offset="1"
         stop-color="#9ea09c"
         id="stop13" /></linearGradient><linearGradient
       id="h"><stop
         offset="0"
         stop-color="#fff"
         id="stop14" /><stop
         offset="1"
         stop-color="#fff"
         stop-opacity="0"
         id="stop15" /></linearGradient><linearGradient
       id="c"><stop
         offset="0"
         stop-color="#896d00"
         id="stop16" /><stop
         offset="1"
         stop-color="#a18000"
         stop-opacity=".26804122"
         id="stop17" /></linearGradient><linearGradient
       id="e"><stop
         offset="0"
         stop-color="#ead200"
         stop-opacity=".71341461"
         id="stop18" /><stop
         offset=".20999999"
         stop-color="#ffec41"
         id="stop19" /><stop
         offset=".83999997"
         stop-color="#e2cc00"
         id="stop20" /><stop
         offset="1"
         stop-color="#c3af00"
         id="stop21" /></linearGradient><linearGradient
       xlink:href="#d"
       id="o"
       x1="10.907269"
       x2="30.875446"
       y1="25.002281"
       y2="36.127281"
       gradientTransform="matrix(0.99911,0,0,1.0958,0.03642141,-4.139733)"
       gradientUnits="userSpaceOnUse" /><linearGradient
       xlink:href="#e"
       id="m"
       x1="6.72682"
       x2="40.938126"
       y1="32.161697"
       y2="32.161697"
       gradientTransform="matrix(1,0,0,1.08988,0,-5.10979)"
       gradientUnits="userSpaceOnUse" /><linearGradient
       xlink:href="#f"
       id="n"
       x1="31.630468"
       x2="8.6713638"
       y1="41.791817"
       y2="25.793524"
       gradientTransform="matrix(1,0,0,1.08988,0,-3.986899)"
       gradientUnits="userSpaceOnUse" /><linearGradient
       xlink:href="#g"
       id="z"
       x1="24.875"
       x2="24.75"
       y1="21"
       y2="17"
       gradientTransform="translate(0,1)"
       gradientUnits="userSpaceOnUse" /><linearGradient
       xlink:href="#h"
       id="F"
       x1="21.941509"
       x2="21.941509"
       y1="21.550869"
       y2="18.037588"
       gradientTransform="matrix(1,0,0,0.95192,0,1.975963)"
       gradientUnits="userSpaceOnUse" /><radialGradient
       xlink:href="#linearGradient5060"
       id="l"
       cx="22.571428"
       cy="30.857143"
       r="15.571428"
       fx="22.571428"
       fy="30.857143"
       gradientTransform="matrix(1,0,0,0.65138,0,10.75754)"
       gradientUnits="userSpaceOnUse" /><radialGradient
       xlink:href="#h"
       id="A"
       cx="12.845672"
       cy="13.342374"
       r="17"
       fx="12.845672"
       fy="13.342374"
       gradientTransform="matrix(2.53109,0,0,2.86055,-19.66786,-16.33929)"
       gradientUnits="userSpaceOnUse" /><radialGradient
       xlink:href="#k"
       id="E"
       cx="30.996042"
       cy="13.156409"
       r="1.0001841"
       fx="30.996042"
       fy="13.156409"
       gradientTransform="matrix(0,14.96898,-8.27668,4e-4,143.8949,-454.2723)"
       gradientUnits="userSpaceOnUse" /><radialGradient
       xlink:href="#d"
       id="D"
       cx="12.184196"
       cy="8.5463438"
       r="3.6037734"
       fx="12.184196"
       fy="8.5463438"
       gradientTransform="matrix(-0.44134,3.78696,-3.2859,-0.38294,47.91818,-38.4483)"
       gradientUnits="userSpaceOnUse" /></defs><sodipodi:namedview
     inkscape:window-y="160"
     inkscape:window-x="562"
     inkscape:window-height="688"
     inkscape:window-width="872"
     inkscape:document-units="px"
     inkscape:grid-bbox="true"
     showgrid="false"
     inkscape:current-layer="svg249"
     inkscape:cy="791.12921"
     inkscape:cx="547.48083"
     inkscape:zoom="0.51508653"
     inkscape:pageshadow="2"
     inkscape:pageopacity="0.0"
     borderopacity="0.25490196"
     bordercolor="#666666"
     pagecolor="#ffffff"
     id="base"
     inkscape:showpageshadow="false"
     inkscape:pagecheckerboard="0"
     inkscape:deskcolor="#d1d1d1" /><metadata
     id="metadata4"><rdf:RDF><cc:Work
         rdf:about=""><dc:format>image/svg+xml</dc:format><dc:type
           rdf:resource="http://purl.org/dc/dcmitype/StillImage" /><dc:subject><rdf:Bag><rdf:li>document</rdf:li><rdf:li>settings</rdf:li><rdf:li>preferences</rdf:li><rdf:li>properties</rdf:li><rdf:li>tweak</rdf:li></rdf:Bag></dc:subject><cc:license
           rdf:resource="http://creativecommons.org/publicdomain/zero/1.0/" /><dc:creator><cc:Agent><dc:title>Jakub Steiner</dc:title></cc:Agent></dc:creator><dc:source>http://jimmac.musichall.cz</dc:source><dc:description>https://commons.wikimedia.org/wiki/File:Document-properties.svg</dc:description></cc:Work><cc:License
         rdf:about="http://creativecommons.org/publicdomain/zero/1.0/"><cc:permits
           rdf:resource="http://creativecommons.org/ns#Reproduction" /><cc:permits
           rdf:resource="http://creativecommons.org/ns#Distribution" /><cc:permits
           rdf:resource="http://creativecommons.org/ns#DerivativeWorks" /></cc:License></rdf:RDF></metadata><g
     id="g2"
     transform="matrix(4.7068525,0,0,4.7068525,9.7152511,14.773955)"><g
       style="display:inline"
       id="g5022"
       transform="matrix(0.02165152,0,0,0.01485743,43.0076,42.68539)"
       inkscape:label="Shadow"><rect
         y="-150.69685"
         x="-1559.2523"
         height="478.35718"
         width="1339.6335"
         id="rect4173"
         style="color:#000000;display:inline;overflow:visible;visibility:visible;opacity:0.402062;fill:url(#linearGradient5027);fill-opacity:1;fill-rule:nonzero;stroke:none;stroke-width:1;stroke-linecap:round;stroke-linejoin:miter;stroke-miterlimit:4;stroke-dasharray:none;stroke-dashoffset:0;stroke-opacity:1;marker:none;marker-start:none;marker-mid:none;marker-end:none" /><path
         sodipodi:nodetypes="cccc"
         id="path5058"
         d="m -219.61876,-150.68038 c 0,0 0,478.33079 0,478.33079 142.874166,0.90045 345.40022,-107.16966 345.40014,-239.196175 0,-132.026537 -159.436816,-239.134595 -345.40014,-239.134615 z"
         style="color:#000000;display:inline;overflow:visible;visibility:visible;opacity:0.402062;fill:url(#radialGradient5029);fill-opacity:1;fill-rule:nonzero;stroke:none;stroke-width:1;stroke-linecap:round;stroke-linejoin:miter;stroke-miterlimit:4;stroke-dasharray:none;stroke-dashoffset:0;stroke-opacity:1;marker:none;marker-start:none;marker-mid:none;marker-end:none" /><path
         style="color:#000000;display:inline;overflow:visible;visibility:visible;opacity:0.402062;fill:url(#radialGradient5031);fill-opacity:1;fill-rule:nonzero;stroke:none;stroke-width:1;stroke-linecap:round;stroke-linejoin:miter;stroke-miterlimit:4;stroke-dasharray:none;stroke-dashoffset:0;stroke-opacity:1;marker:none;marker-start:none;marker-mid:none;marker-end:none"
         d="m -1559.2523,-150.68038 c 0,0 0,478.33079 0,478.33079 -142.8742,0.90045 -345.4002,-107.16966 -345.4002,-239.196175 0,-132.026537 159.4368,-239.134595 345.4002,-239.134615 z"
         id="path5018"
         sodipodi:nodetypes="cccc" /></g><g
       id="g1"
       inkscape:label="Base"
       style="display:inline"><rect
         style="color:#000000;display:block;overflow:visible;visibility:visible;fill:url(#radialGradient15658);fill-opacity:1;fill-rule:nonzero;stroke:url(#radialGradient15656);stroke-width:1;stroke-linecap:round;stroke-linejoin:round;stroke-miterlimit:4;stroke-dashoffset:0;stroke-opacity:1;marker:none;marker-start:none;marker-mid:none;marker-end:none"
         id="rect15391"
         width="34.875"
         height="40.920494"
         x="6.6035528"
         y="3.6464462"
         ry="1.1490486" /><rect
         style="color:#000000;display:block;overflow:visible;visibility:visible;fill:none;fill-opacity:1;fill-rule:nonzero;stroke:url(#radialGradient15668);stroke-width:1;stroke-linecap:round;stroke-linejoin:round;stroke-miterlimit:4;stroke-dashoffset:0;stroke-opacity:1;marker:none;marker-start:none;marker-mid:none;marker-end:none"
         id="rect15660"
         width="32.775887"
         height="38.946384"
         x="7.6660538"
         y="4.5839462"
         ry="0.14904857"
         rx="0.14904857" /><g
         transform="translate(0.646447,-0.03798933)"
         id="g2270"><g
           id="g1440"
           style="fill:#ffffff;fill-opacity:1;fill-rule:nonzero;stroke:#000000;stroke-miterlimit:4"
           transform="matrix(0.229703,0,0,0.229703,4.967081,4.244972)"><radialGradient
             id="radialGradient1442"
             cx="20.892099"
             cy="114.5684"
             r="5.256"
             fx="20.892099"
             fy="114.5684"
             gradientUnits="userSpaceOnUse"><stop
               offset="0"
               style="stop-color:#F0F0F0"
               id="stop1444" /><stop
               offset="1"
               style="stop-color:#474747"
               id="stop1446" /></radialGradient><path
             style="stroke:none"
             d="m 23.428,113.07 c 0,1.973 -1.6,3.572 -3.573,3.572 -1.974,0 -3.573,-1.6 -3.573,-3.572 0,-1.974 1.6,-3.573 3.573,-3.573 1.973,0 3.573,1.6 3.573,3.573 z"
             id="path1448" /><radialGradient
             id="radialGradient1450"
             cx="20.892099"
             cy="64.567902"
             r="5.257"
             fx="20.892099"
             fy="64.567902"
             gradientUnits="userSpaceOnUse"><stop
               offset="0"
               style="stop-color:#F0F0F0"
               id="stop1452" /><stop
               offset="1"
               style="stop-color:#474747"
               id="stop1454" /></radialGradient><path
             style="stroke:none"
             d="m 23.428,63.07 c 0,1.973 -1.6,3.573 -3.573,3.573 -1.974,0 -3.573,-1.6 -3.573,-3.573 0,-1.974 1.6,-3.573 3.573,-3.573 1.973,0 3.573,1.6 3.573,3.573 z"
             id="path1456" /></g><path
           style="fill:url(#radialGradient2283);fill-rule:nonzero;stroke:none;stroke-miterlimit:4"
           d="m 9.9950109,29.952326 c 0,0.453204 -0.3675248,0.820499 -0.8207288,0.820499 -0.4534338,0 -0.8207289,-0.367524 -0.8207289,-0.820499 0,-0.453434 0.3675248,-0.820729 0.8207289,-0.820729 0.453204,0 0.8207288,0.367525 0.8207288,0.820729 z"
           id="path15570" /><path
           style="fill:url(#radialGradient2285);fill-rule:nonzero;stroke:none;stroke-miterlimit:4"
           d="m 9.9950109,18.467176 c 0,0.453204 -0.3675248,0.820729 -0.8207288,0.820729 -0.4534338,0 -0.8207289,-0.367525 -0.8207289,-0.820729 0,-0.453434 0.3675248,-0.820729 0.8207289,-0.820729 0.453204,0 0.8207288,0.367525 0.8207288,0.820729 z"
           id="path15577" /></g><path
         style="fill:none;fill-opacity:0.75;fill-rule:evenodd;stroke:#000000;stroke-width:0.988553;stroke-linecap:butt;stroke-linejoin:miter;stroke-miterlimit:4;stroke-opacity:0.0175438"
         d="M 11.505723,5.4942766 V 43.400869"
         id="path15672"
         sodipodi:nodetypes="cc" /><path
         style="fill:none;fill-opacity:0.75;fill-rule:evenodd;stroke:#ffffff;stroke-width:1;stroke-linecap:butt;stroke-linejoin:miter;stroke-miterlimit:4;stroke-opacity:0.204678"
         d="M 12.5,5.0205154 V 43.038228"
         id="path15674"
         sodipodi:nodetypes="cc" /></g><g
       transform="matrix(0.909091,0,0,1,2.363628,0)"
       id="g2253"
       inkscape:label="Text"
       style="display:inline"><rect
         style="color:#000000;display:block;overflow:visible;visibility:visible;fill:#9b9b9b;fill-opacity:0.549708;fill-rule:nonzero;stroke:none;stroke-width:1;stroke-linecap:round;stroke-linejoin:round;stroke-miterlimit:4;stroke-dashoffset:0;stroke-opacity:0.0818714;marker:none;marker-start:none;marker-mid:none;marker-end:none"
         id="rect15686"
         width="22.000004"
         height="1"
         x="15.000002"
         y="9"
         rx="0.15156493"
         ry="0.065390877" /><rect
         style="color:#000000;display:block;overflow:visible;visibility:visible;fill:#9b9b9b;fill-opacity:0.549708;fill-rule:nonzero;stroke:none;stroke-width:1;stroke-linecap:round;stroke-linejoin:round;stroke-miterlimit:4;stroke-dashoffset:0;stroke-opacity:0.0818714;marker:none;marker-start:none;marker-mid:none;marker-end:none"
         id="rect15688"
         width="22.000004"
         height="1"
         x="15.000002"
         y="11"
         rx="0.15156493"
         ry="0.065390877" /><rect
         style="color:#000000;display:block;overflow:visible;visibility:visible;fill:#9b9b9b;fill-opacity:0.549708;fill-rule:nonzero;stroke:none;stroke-width:1;stroke-linecap:round;stroke-linejoin:round;stroke-miterlimit:4;stroke-dashoffset:0;stroke-opacity:0.0818714;marker:none;marker-start:none;marker-mid:none;marker-end:none"
         id="rect15690"
         width="22.000004"
         height="1"
         x="15.000002"
         y="13"
         rx="0.15156493"
         ry="0.065390877" /><rect
         style="color:#000000;display:block;overflow:visible;visibility:visible;fill:#9b9b9b;fill-opacity:0.549708;fill-rule:nonzero;stroke:none;stroke-width:1;stroke-linecap:round;stroke-linejoin:round;stroke-miterlimit:4;stroke-dashoffset:0;stroke-opacity:0.0818714;marker:none;marker-start:none;marker-mid:none;marker-end:none"
         id="rect15692"
         width="22.000004"
         height="1"
         x="15.000002"
         y="15"
         rx="0.15156493"
         ry="0.065390877" /><rect
         style="color:#000000;display:block;overflow:visible;visibility:visible;fill:#9b9b9b;fill-opacity:0.549708;fill-rule:nonzero;stroke:none;stroke-width:1;stroke-linecap:round;stroke-linejoin:round;stroke-miterlimit:4;stroke-dashoffset:0;stroke-opacity:0.0818714;marker:none;marker-start:none;marker-mid:none;marker-end:none"
         id="rect15694"
         width="22.000004"
         height="1"
         x="15.000002"
         y="17"
         rx="0.15156493"
         ry="0.065390877" /><rect
         style="color:#000000;display:block;overflow:visible;visibility:visible;fill:#9b9b9b;fill-opacity:0.549708;fill-rule:nonzero;stroke:none;stroke-width:1;stroke-linecap:round;stroke-linejoin:round;stroke-miterlimit:4;stroke-dashoffset:0;stroke-opacity:0.0818714;marker:none;marker-start:none;marker-mid:none;marker-end:none"
         id="rect15696"
         width="22.000004"
         height="1"
         x="15.000002"
         y="19"
         rx="0.15156493"
         ry="0.065390877" /><rect
         style="color:#000000;display:block;overflow:visible;visibility:visible;fill:#9b9b9b;fill-opacity:0.549708;fill-rule:nonzero;stroke:none;stroke-width:1;stroke-linecap:round;stroke-linejoin:round;stroke-miterlimit:4;stroke-dashoffset:0;stroke-opacity:0.0818714;marker:none;marker-start:none;marker-mid:none;marker-end:none"
         id="rect15698"
         width="22.000004"
         height="1"
         x="15.000002"
         y="21"
         rx="0.15156493"
         ry="0.065390877" /><rect
         style="color:#000000;display:block;overflow:visible;visibility:visible;fill:#9b9b9b;fill-opacity:0.549708;fill-rule:nonzero;stroke:none;stroke-width:1;stroke-linecap:round;stroke-linejoin:round;stroke-miterlimit:4;stroke-dashoffset:0;stroke-opacity:0.0818714;marker:none;marker-start:none;marker-mid:none;marker-end:none"
         id="rect15700"
         width="22.000004"
         height="1"
         x="15.000002"
         y="23"
         rx="0.15156493"
         ry="0.065390877" /><rect
         style="color:#000000;display:block;overflow:visible;visibility:visible;fill:#9b9b9b;fill-opacity:0.549708;fill-rule:nonzero;stroke:none;stroke-width:1;stroke-linecap:round;stroke-linejoin:round;stroke-miterlimit:4;stroke-dashoffset:0;stroke-opacity:0.0818714;marker:none;marker-start:none;marker-mid:none;marker-end:none"
         id="rect15732"
         width="9.9000053"
         height="1"
         x="14.999992"
         y="25"
         rx="0.068204239"
         ry="0.065390877" /><rect
         style="color:#000000;display:block;overflow:visible;visibility:visible;fill:#9b9b9b;fill-opacity:0.549708;fill-rule:nonzero;stroke:none;stroke-width:1;stroke-linecap:round;stroke-linejoin:round;stroke-miterlimit:4;stroke-dashoffset:0;stroke-opacity:0.0818714;marker:none;marker-start:none;marker-mid:none;marker-end:none"
         id="rect15736"
         width="22.000004"
         height="1"
         x="14.999992"
         y="29"
         rx="0.15156493"
         ry="0.065390877" /><rect
         style="color:#000000;display:block;overflow:visible;visibility:visible;fill:#9b9b9b;fill-opacity:0.549708;fill-rule:nonzero;stroke:none;stroke-width:1;stroke-linecap:round;stroke-linejoin:round;stroke-miterlimit:4;stroke-dashoffset:0;stroke-opacity:0.0818714;marker:none;marker-start:none;marker-mid:none;marker-end:none"
         id="rect15738"
         width="22.000004"
         height="1"
         x="14.999992"
         y="31"
         rx="0.15156493"
         ry="0.065390877" /><rect
         style="color:#000000;display:block;overflow:visible;visibility:visible;fill:#9b9b9b;fill-opacity:0.549708;fill-rule:nonzero;stroke:none;stroke-width:1;stroke-linecap:round;stroke-linejoin:round;stroke-miterlimit:4;stroke-dashoffset:0;stroke-opacity:0.0818714;marker:none;marker-start:none;marker-mid:none;marker-end:none"
         id="rect15740"
         width="22.000004"
         height="1"
         x="14.999992"
         y="33"
         rx="0.15156493"
         ry="0.065390877" /><rect
         style="color:#000000;display:block;overflow:visible;visibility:visible;fill:#9b9b9b;fill-opacity:0.549708;fill-rule:nonzero;stroke:none;stroke-width:1;stroke-linecap:round;stroke-linejoin:round;stroke-miterlimit:4;stroke-dashoffset:0;stroke-opacity:0.0818714;marker:none;marker-start:none;marker-mid:none;marker-end:none"
         id="rect15742"
         width="22.000004"
         height="1"
         x="14.999992"
         y="35"
         rx="0.15156493"
         ry="0.065390877" /><rect
         style="color:#000000;display:block;overflow:visible;visibility:visible;fill:#9b9b9b;fill-opacity:0.549708;fill-rule:nonzero;stroke:none;stroke-width:1;stroke-linecap:round;stroke-linejoin:round;stroke-miterlimit:4;stroke-dashoffset:0;stroke-opacity:0.0818714;marker:none;marker-start:none;marker-mid:none;marker-end:none"
         id="rect15744"
         width="15.400014"
         height="1"
         x="14.999992"
         y="37"
         rx="0.10609552"
         ry="0.065390877" /></g><path
       style="color:#000000;display:none;overflow:visible;visibility:visible;opacity:0.409091;fill:url(#radialGradient2622);fill-opacity:1;fill-rule:nonzero;stroke:none;stroke-width:1;stroke-linecap:butt;stroke-linejoin:miter;stroke-miterlimit:4;stroke-dasharray:none;stroke-dashoffset:0;stroke-opacity:1;marker:none;marker-start:none;marker-mid:none;marker-end:none"
       d="m 25.96875,14.555141 c -0.31249,0.02427 -0.616211,0.06348 -0.9375,0.125 l -1.28125,1.15625 3.96875,3.75 0.21875,3.28125 -2.96875,2.6875 -3.5,-0.375 -3.625,-3.40625 c -1e-6,0 -1.28125,1.25 -1.28125,1.25 -0.590763,5.641318 5.3125,10.6875 11.375,7.3125 l 11.84375,12.125 v -10.375 l -6.5625,-7.03125 c 2.126952,-5.908203 -1.848384,-10.919581 -7.25,-10.5 z"
       id="path2140"
       inkscape:label="wrench" /></g><g
     id="g312"
     transform="matrix(1.1189215,0,0,1.5307475,-46.367847,-115.82619)"
     style="clip-rule:nonzero;display:inline;fill:#00009f;fill-rule:nonzero;stroke:#ffffff;stroke-width:0;stroke-miterlimit:4"><rect
       style="clip-rule:nonzero;display:inline;fill:url(#linearGradient58);fill-opacity:0.449541;fill-rule:evenodd;stroke:none;stroke-width:3.09507;stroke-linejoin:round;stroke-miterlimit:4;stroke-opacity:0.905882"
       id="rect54"
       width="101.69501"
       height="21.05685"
       x="31.009546"
       y="80.402298"
       transform="matrix(1.4282653,0,0,1.4282653,34.081863,44.487478)" /><path
       id="rect228-7"
       style="fill:url(#linearGradient350);fill-opacity:1;fill-rule:evenodd;stroke:none;stroke-width:8.07101;stroke-linejoin:round;stroke-opacity:0.905882"
       d="m 77.81447,157.32054 v 6.76651 h 8.216036 v -6.76651 z m 15.004769,0.24133 v 6.76651 h 6.625435 v 6.76651 h 6.640426 v 6.46266 h -6.640426 v 6.76651 h 6.766516 v -6.76651 h 6.64042 v -6.46266 h 6.73085 v -6.76651 h -6.73085 v -6.76651 h -6.76651 v 6.76651 h -6.499349 v -6.76651 z m 27.073801,0 v 6.76651 h 6.76444 v 6.46265 h -6.76444 v 6.76652 h 6.76444 v 6.76651 h 6.766 v -6.76651 h -6.76393 v -6.46266 h 6.76393 v -6.76651 h -6.76393 v -6.76651 z m 13.54077,0 v 6.76651 h 6.76652 v -6.76651 z m 13.56352,0 v 6.76651 h -6.75515 v 6.76651 h 6.75515 v 6.46266 h 6.76651 v -6.76652 h -6.75514 v -6.46265 h 6.75514 v -6.76651 z m 13.59038,0 v 6.76651 h -6.76083 v 6.76651 h 6.76083 v 6.46266 h -6.76083 v 6.76651 h 6.76652 v -6.76651 h 6.76082 v -6.76652 h -6.76082 v -6.46265 h 6.76082 v -6.76651 z m 13.52217,0 v 6.76651 h -6.74067 v 6.76651 h 6.74067 v 6.46266 h -6.74067 v 6.76651 h 6.76651 v -6.76651 h 6.74016 v -6.76652 h -6.74016 v -6.46265 h 6.74016 v -6.76651 z m 13.56455,0 v 6.76651 h -6.76289 v 6.76651 h 6.76289 v 6.46266 h -6.76289 v 6.76651 h 6.76651 v -6.76651 h 6.76289 v -6.76652 h -6.76289 v -6.46265 h 6.76289 v -6.76651 z m 13.69064,0 v 6.76651 h 6.76651 v -6.76651 z m 13.64103,0 v 6.76651 h -6.66626 v 6.76651 h 6.66626 v 6.46266 h -6.66626 v 6.76651 h 6.76651 v -6.76651 h 6.66626 v -6.76652 h -6.66626 v -6.46265 h 6.66626 v -6.76651 z m -128.975594,6.76651 v 6.22133 H 77.81447 v 6.76651 h 8.216036 v -6.22133 h 6.766512 v -6.76651 z m 20.180684,0 h 6.60476 v 6.46265 h -6.60476 z m 88.37083,0 v 6.76651 h 6.76651 v -6.76651 z m -61.14821,6.46265 v 6.76652 h 6.76652 v -6.76652 z m 67.93126,0 v 6.76652 h 6.76651 v -6.76652 z m -115.334564,6.76652 v 6.75049 H 77.81447 v 6.76651 h 8.216036 v -6.75049 h 6.766512 v -6.76651 z m 108.551514,0 v 6.76651 h 6.76651 v -6.76651 z m -101.762781,6.99182 v 6.76651 h 6.625435 v 6.76651 h 6.766516 v -6.76651 h 6.64042 v -6.76651 h -6.76651 v 6.76651 h -6.499349 v -6.76651 z m 27.073801,0 v 6.76651 h 6.76444 v 6.76651 h 6.766 v -6.76651 h -6.76393 v -6.76651 z m 13.54077,0 v 6.76651 h 6.76652 v -6.76651 z m 13.56352,0 v 6.76651 h -6.75515 v 6.76651 h 6.76652 v -6.76651 h 6.75514 v -6.76651 z m 27.11255,0 v 6.76651 h -6.74067 v 6.76651 h 6.76651 v -6.76651 h 6.74016 v -6.76651 z m 13.56455,0 v 6.76651 h 6.76651 v -6.76651 z m 27.33167,0 v 6.76651 h -6.66626 v 6.76651 h 6.76651 v -6.76651 h 6.66626 v -6.76651 z m -20.42408,6.76651 v 6.76651 h 6.76651 v -6.76651 z M 92.819239,198.3077 v 6.76651 h 6.766512 v -6.76651 z m 13.265861,0 v 6.76651 h 6.73085 v 6.46266 h -6.73085 v 6.76651 h -6.499349 v -6.76651 h -6.766512 v 6.76651 h 6.625435 v 6.76651 h 6.640426 v 6.46266 h 6.73085 v 6.76651 h 6.76651 v -6.76651 h -6.73085 v -6.76652 h -6.64042 v -6.46265 h 6.64042 v -6.46265 h 6.73085 v -6.76652 h -6.73085 v -6.76651 z m 13.80794,0 v 6.76651 h 6.76651 v -6.76651 z m 13.54077,0 v 6.76651 h 6.76652 v -6.76651 z m 13.56352,0 v 6.76651 h -6.75515 v 6.76652 h 6.75515 v 6.46265 h 6.76651 v -6.76651 h -6.75514 v -6.46266 h 6.75514 v -6.76651 z m 13.59038,0 v 6.76651 h 6.76651 v -6.76651 z m 13.52217,0 v 6.76651 h -6.74067 v 6.76652 h 6.76651 v -6.76652 h 6.74016 v -6.76651 z m 13.56455,0 v 6.76651 h 6.76651 v -6.76651 z m 13.69064,0 v 6.76651 h 6.76651 v -6.76651 z m 13.64103,0 v 6.76651 h -6.66626 v 6.76652 h 6.66626 v 6.46265 h 6.76651 v -6.76651 h -6.66626 v -6.46266 h 6.66626 v -6.76651 z m -20.42408,6.76651 v 6.76652 h 6.76651 v -6.76652 z m -74.68898,6.46266 v 6.76651 h 6.76444 v 6.46265 h -6.76444 v 6.76652 h 6.76651 v -6.46266 h 6.76393 v -6.76651 h -6.76393 v -6.76651 z m 40.69467,0 v 6.76651 h -6.76083 v 6.76651 h 6.76652 v -6.76651 h 6.76082 v -6.76651 z m 19.34301,5.29166 v 6.76652 h -7.79901 v 6.76651 h 6.76651 l 1.05834,-6.76651 h 6.74015 v -6.76652 z m 14.6513,1.47485 v 6.76651 h 6.76651 v -6.76651 z m -61.14821,6.46265 v 6.76652 h 6.76652 v -6.76652 z m 13.56352,0 v 6.76652 h 6.76651 v -6.76652 z m 59.22636,1.47485 v 6.76651 h 6.76651 v -6.76651 z m -52.39681,5.29167 v 6.76651 h 6.76652 v -6.76651 z" /></g><g
     id="g41"
     transform="matrix(3.1545474,0,0,3.1545474,109.32485,106.42578)"><path
       fill="url(#l)"
       d="m 38.142857,30.857143 a 15.571429,10.142858 0 1 1 -31.142857,0 15.571429,10.142858 0 1 1 31.142857,0 z"
       color="#000000"
       opacity="0.473684"
       overflow="visible"
       style="fill:url(#l);marker:none"
       transform="matrix(1.44023,0,0,0.41901,-8.581573,29.82043)"
       id="path25" /><rect
       width="34.993771"
       height="27.009277"
       x="6.5"
       y="17.5"
       fill="url(#m)"
       fill-rule="evenodd"
       stroke="url(#n)"
       stroke-linecap="round"
       stroke-linejoin="round"
       stroke-width="0.999999"
       rx="2.2349751"
       ry="2.2570534"
       id="rect25"
       style="fill:url(#m);stroke:url(#n)" /><rect
       width="33.000904"
       height="25.006882"
       x="7.5"
       y="18.5"
       fill="none"
       stroke="url(#o)"
       stroke-linecap="round"
       stroke-linejoin="round"
       stroke-opacity="0.601093"
       stroke-width="1"
       rx="1.288511"
       ry="1.288511"
       id="rect26"
       style="stroke:url(#o)" /><g
       fill-rule="evenodd"
       transform="matrix(1.0663,0,0,1,-1.59099,0)"
       id="g36"><rect
         width="32"
         height="0.97227097"
         x="8"
         y="23"
         fill="url(#p)"
         opacity="0.5"
         rx="0"
         ry="0"
         id="rect27"
         style="fill:url(#p)" /><rect
         width="32"
         height="0.97227097"
         x="8"
         y="25"
         fill="url(#q)"
         opacity="0.5"
         rx="0"
         ry="0"
         id="rect28"
         style="fill:url(#q)" /><rect
         width="32"
         height="0.97227097"
         x="8"
         y="27"
         fill="url(#r)"
         opacity="0.5"
         rx="0"
         ry="0"
         id="rect29"
         style="fill:url(#r)" /><rect
         width="32"
         height="0.97227097"
         x="8"
         y="29"
         fill="url(#s)"
         opacity="0.5"
         rx="0"
         ry="0"
         id="rect30"
         style="fill:url(#s)" /><rect
         width="32"
         height="0.97227097"
         x="8"
         y="31"
         fill="url(#t)"
         opacity="0.5"
         rx="0"
         ry="0"
         id="rect31"
         style="fill:url(#t)" /><rect
         width="32"
         height="0.97227097"
         x="8"
         y="33"
         fill="url(#u)"
         opacity="0.5"
         rx="0"
         ry="0"
         id="rect32"
         style="fill:url(#u)" /><rect
         width="32"
         height="0.97227097"
         x="8"
         y="35"
         fill="url(#v)"
         opacity="0.5"
         rx="0"
         ry="0"
         id="rect33"
         style="fill:url(#v)" /><rect
         width="32"
         height="0.97227097"
         x="8"
         y="37"
         fill="url(#w)"
         opacity="0.5"
         rx="0"
         ry="0"
         id="rect34"
         style="fill:url(#w)" /><rect
         width="32"
         height="0.97227097"
         x="8"
         y="39"
         fill="url(#x)"
         opacity="0.5"
         rx="0"
         ry="0"
         id="rect35"
         style="fill:url(#x)" /><rect
         width="32"
         height="0.97227097"
         x="8"
         y="41"
         fill="url(#y)"
         opacity="0.5"
         rx="0"
         ry="0"
         id="rect36"
         style="fill:url(#y)" /></g><rect
       width="34"
       height="4"
       x="7"
       y="18"
       fill="url(#z)"
       fill-rule="evenodd"
       color="#000000"
       overflow="visible"
       rx="1.7146454"
       ry="1.6610726"
       style="fill:url(#z);marker:none"
       id="rect37" /><path
       fill="url(#A)"
       fill-rule="evenodd"
       d="M 39.022894,21.954401 H 8.9789228 c -1.518102,0.0081 -1.980695,0.640186 -1.99632,2.380825 v 10.845656 c 5.3481802,4.75668 17.7926802,-4.969999 34.0000002,0 V 24.314186 c -0.01261,-1.780269 -0.540848,-2.346047 -1.959709,-2.359785 z"
       opacity="0.406593"
       id="path37"
       style="fill:url(#A)" /><g
       fill-rule="evenodd"
       id="g40"><path
         fill="url(#B)"
         stroke="url(#C)"
         stroke-width="1"
         d="M 10.5,20.234846 V 13 C 10.5,5.1298666 15.897609,1.3910066 24.020027,1.4892921 32.18664,1.5875777 37.5,5.0372782 37.5,13 v 7.234846 c -0.08395,1.703585 -4.963388,1.697303 -5,0 V 15 c 0,-2 0.638264,-8.471853 -8.422759,-8.471853 -9.123523,0 -8.587252,6.511738 -8.554561,8.463879 v 5.276498 C 15.3125,21.859846 10.5,21.797346 10.5,20.234846 Z"
         transform="translate(-2e-7,-0.987405)"
         id="path38"
         style="fill:url(#B);stroke:url(#C)" /><path
         fill="url(#D)"
         d="m 11.496849,13.160018 c 0.248424,-4.3978382 1.416201,-8.4519615 6.959268,-9.9612363 1.580544,1.8244316 -4.8983,1.9207621 -4.997669,8.2829673 l 0.02166,7.982511 c -0.234835,0.588388 -1.920759,0.606565 -1.983259,-0.04969 z"
         transform="translate(-2e-7,-0.987405)"
         id="path39"
         style="fill:url(#D)" /><path
         fill="url(#E)"
         d="m 33.500368,9.7120694 h 2 v 9.6354126 c -0.0625,1.125 -2.03125,0.53125 -2,0 z"
         transform="translate(-2e-7,-0.987405)"
         id="path40"
         style="fill:url(#E)" /></g><rect
       width="33"
       height="2.8557696"
       x="7.5"
       y="18.634619"
       fill="none"
       stroke="url(#F)"
       stroke-linecap="round"
       stroke-linejoin="round"
       color="#000000"
       overflow="visible"
       rx="1.2001942"
       ry="1.0968477"
       style="stroke:url(#F);marker:none"
       id="rect40" /></g></svg>
