<?xml version="1.0" encoding="UTF-8" standalone="no"?>
<svg
   width="256"
   height="256"
   version="1.1"
   id="svg26"
   sodipodi:docname="document-edit-sign.svg"
   viewBox="0 0 256 256"
   inkscape:version="1.4.2 (ebf0e940d0, 2025-05-08)"
   xml:space="preserve"
   xmlns:inkscape="http://www.inkscape.org/namespaces/inkscape"
   xmlns:sodipodi="http://sodipodi.sourceforge.net/DTD/sodipodi-0.dtd"
   xmlns:xlink="http://www.w3.org/1999/xlink"
   xmlns="http://www.w3.org/2000/svg"
   xmlns:svg="http://www.w3.org/2000/svg"
   xmlns:rdf="http://www.w3.org/1999/02/22-rdf-syntax-ns#"
   xmlns:cc="http://creativecommons.org/ns#"
   xmlns:dc="http://purl.org/dc/elements/1.1/"><sodipodi:namedview
     id="namedview26"
     pagecolor="#ffffff"
     bordercolor="#000000"
     borderopacity="0.25"
     inkscape:showpageshadow="2"
     inkscape:pageopacity="0.0"
     inkscape:pagecheckerboard="0"
     inkscape:deskcolor="#d1d1d1"
     inkscape:zoom="2.8880208"
     inkscape:cx="148.02525"
     inkscape:cy="166.72318"
     inkscape:current-layer="svg26" /><defs
     id="defs18"><radialGradient
       xlink:href="#a"
       id="k"
       cx="605.71429"
       cy="486.64789"
       r="117.14286"
       fx="605.71429"
       fy="486.64789"
       gradientTransform="matrix(-2.77439,0,0,1.9697,112.7623,-872.8854)"
       gradientUnits="userSpaceOnUse" /><radialGradient
       xlink:href="#a"
       id="j"
       cx="605.71429"
       cy="486.64789"
       r="117.14286"
       fx="605.71429"
       fy="486.64789"
       gradientTransform="matrix(2.77439,0,0,1.9697,-1891.633,-872.8854)"
       gradientUnits="userSpaceOnUse" /><radialGradient
       id="g"
       cx="20.892099"
       cy="64.567902"
       r="5.257"
       fx="20.892099"
       fy="64.567902"
       gradientUnits="userSpaceOnUse"><stop
         offset="0"
         stop-color="#F0F0F0"
         id="stop1" /><stop
         offset="1"
         stop-color="#9a9a9a"
         id="stop2" /></radialGradient><radialGradient
       id="f"
       cx="20.892099"
       cy="114.5684"
       r="5.256"
       fx="20.892099"
       fy="114.5684"
       gradientUnits="userSpaceOnUse"><stop
         offset="0"
         stop-color="#F0F0F0"
         id="stop3" /><stop
         offset="1"
         stop-color="#9a9a9a"
         id="stop4" /></radialGradient><radialGradient
       xlink:href="#b"
       id="q"
       cx="55"
       cy="125"
       r="14.375"
       fx="55"
       fy="125"
       gradientUnits="userSpaceOnUse"
       gradientTransform="matrix(0.7833,0,0,0.7833,-6.340883,-86.65168)" /><radialGradient
       xlink:href="#c"
       id="m"
       cx="8.824419"
       cy="3.7561285"
       r="37.751713"
       fx="8.824419"
       fy="3.7561285"
       gradientTransform="matrix(0.96827,0,0,1.03277,3.353553,0.646447)"
       gradientUnits="userSpaceOnUse" /><radialGradient
       xlink:href="#d"
       id="l"
       cx="33.966679"
       cy="35.736916"
       r="86.70845"
       fx="33.966679"
       fy="35.736916"
       gradientTransform="scale(0.9605,1.04113)"
       gradientUnits="userSpaceOnUse" /><radialGradient
       xlink:href="#e"
       id="n"
       cx="8.1435566"
       cy="7.2678967"
       r="38.158695"
       fx="8.1435566"
       fy="7.2678967"
       gradientTransform="matrix(0.96827,0,0,1.03277,3.353553,0.646447)"
       gradientUnits="userSpaceOnUse" /><radialGradient
       xlink:href="#f"
       id="o"
       cx="20.892099"
       cy="114.5684"
       r="5.256"
       fx="20.892099"
       fy="114.5684"
       gradientTransform="matrix(0.2297,0,0,0.2297,4.613529,3.979808)"
       gradientUnits="userSpaceOnUse" /><radialGradient
       xlink:href="#g"
       id="p"
       cx="20.892099"
       cy="64.567902"
       r="5.257"
       fx="20.892099"
       fy="64.567902"
       gradientTransform="matrix(0.2297,0,0,0.2297,4.613529,3.979808)"
       gradientUnits="userSpaceOnUse" /><linearGradient
       id="a"><stop
         offset="0"
         id="stop5" /><stop
         offset="1"
         stop-opacity="0"
         id="stop6" /></linearGradient><linearGradient
       id="h"><stop
         offset="0"
         stop-opacity="0"
         id="stop7" /><stop
         offset=".5"
         id="stop8" /><stop
         offset="1"
         stop-opacity="0"
         id="stop9" /></linearGradient><linearGradient
       xlink:href="#h"
       id="i"
       x1="302.85715"
       x2="302.85715"
       y1="366.64789"
       y2="609.50507"
       gradientTransform="matrix(2.77439,0,0,1.9697,-1892.179,-872.8854)"
       gradientUnits="userSpaceOnUse" /><linearGradient
       id="e"><stop
         offset="0"
         stop-color="#fff"
         id="stop10" /><stop
         offset="1"
         stop-color="#f8f8f8"
         id="stop11" /></linearGradient><linearGradient
       id="c"><stop
         offset="0"
         stop-color="#a3a3a3"
         id="stop12" /><stop
         offset="1"
         stop-color="#4c4c4c"
         id="stop13" /></linearGradient><linearGradient
       id="d"><stop
         offset="0"
         stop-color="#fafafa"
         id="stop14" /><stop
         offset="1"
         stop-color="#bbb"
         id="stop15" /></linearGradient><linearGradient
       id="b"><stop
         offset="0"
         stop-color="#fff"
         id="stop16" /><stop
         offset=".5"
         stop-color="#fff520"
         stop-opacity=".89108908"
         id="stop17" /><stop
         offset="1"
         stop-color="#fff300"
         stop-opacity="0"
         id="stop18" /></linearGradient><linearGradient
       id="linearGradient2"
       inkscape:collect="always"><stop
         style="stop-color:#47320c;stop-opacity:0.4834699;"
         offset="0"
         id="stop2-3" /><stop
         style="stop-color:#47320c;stop-opacity:0;"
         offset="1"
         id="stop3-6" /></linearGradient><linearGradient
       xlink:href="#a-7"
       id="s"
       x1="48.90625"
       x2="50.988335"
       y1="17.376184"
       y2="22.250591"
       gradientTransform="translate(-5.669292)"
       gradientUnits="userSpaceOnUse" /><linearGradient
       id="a-7"><stop
         offset="0"
         stop-color="#ffd1d1"
         id="stop11-5" /><stop
         offset=".5"
         stop-color="#ff1d1d"
         id="stop12-3" /><stop
         offset="1"
         stop-color="#6f0000"
         id="stop13-5" /></linearGradient><linearGradient
       xlink:href="#b-6"
       id="t"
       x1="46"
       x2="47.6875"
       y1="19.8125"
       y2="22.625"
       gradientTransform="translate(-5.669292)"
       gradientUnits="userSpaceOnUse" /><linearGradient
       id="b-6"><stop
         offset="0"
         stop-color="#c1c1c1"
         id="stop14-2" /><stop
         offset="1"
         stop-color="#acacac"
         id="stop15-9" /></linearGradient><radialGradient
       xlink:href="#k-1"
       id="u"
       cx="29.053354"
       cy="27.640751"
       r="3.2408545"
       fx="29.053354"
       fy="27.640751"
       gradientTransform="matrix(2.92356,0,0,2.02972,-61.55532,-27.88417)"
       gradientUnits="userSpaceOnUse" /><linearGradient
       id="k-1"><stop
         offset="0"
         stop-color="#e7e2b8"
         id="stop16-2" /><stop
         offset="1"
         stop-color="#e7e2b8"
         stop-opacity="0"
         id="stop17-7" /></linearGradient><linearGradient
       xlink:href="#c-0"
       id="v"
       x1="25.71875"
       x2="25.514589"
       y1="31.046875"
       y2="30.703125"
       gradientTransform="translate(-5.825542,0.125)"
       gradientUnits="userSpaceOnUse" /><linearGradient
       id="c-0"><stop
         offset="0"
         id="stop18-9" /><stop
         offset="1"
         stop-color="#c9c9c9"
         id="stop19" /></linearGradient><radialGradient
       inkscape:collect="always"
       xlink:href="#linearGradient2"
       id="radialGradient3"
       cx="127.20227"
       cy="220.6994"
       fx="127.20227"
       fy="220.6994"
       r="126.74055"
       gradientTransform="matrix(1,0,0,0.22222224,0,171.65509)"
       gradientUnits="userSpaceOnUse" /></defs><g
     color="#000000"
     transform="matrix(0.11575624,0,0,0.07945209,225.47541,229.23956)"
     id="g20"><path
       fill="url(#i)"
       d="M -1559.2523,-150.69685 H -219.6188 V 327.66033 H -1559.2523 Z"
       opacity="0.402062"
       overflow="visible"
       style="fill:url(#i);marker:none"
       id="path18" /><path
       fill="url(#j)"
       d="m -219.61876,-150.68038 v 478.33079 c 142.874166,0.90045 345.40022,-107.16966 345.40014,-239.196175 0,-132.026537 -159.436816,-239.134595 -345.40014,-239.134615 z"
       opacity="0.402062"
       overflow="visible"
       style="fill:url(#j);marker:none"
       id="path19" /><path
       fill="url(#k)"
       d="m -1559.2523,-150.68038 v 478.33079 c -142.8742,0.90045 -345.4002,-107.16966 -345.4002,-239.196175 0,-132.026537 159.4368,-239.134595 345.4002,-239.134615 z"
       opacity="0.402062"
       overflow="visible"
       style="fill:url(#k);marker:none"
       id="path20" /></g><g
     id="g26"
     transform="matrix(5.3467084,0,0,5.3467084,-4.4736902,1.0132255)"><rect
       width="34.875"
       height="40.920494"
       x="6.6035528"
       y="3.6464462"
       fill="url(#l)"
       stroke="url(#m)"
       stroke-linecap="round"
       stroke-linejoin="round"
       color="#000000"
       display="block"
       overflow="visible"
       ry="1.1490486"
       style="fill:url(#l);stroke:url(#m);marker:none"
       id="rect20" /><rect
       width="32.775887"
       height="38.946384"
       x="7.6660538"
       y="4.5839462"
       fill="none"
       stroke="url(#n)"
       stroke-linecap="round"
       stroke-linejoin="round"
       color="#000000"
       display="block"
       overflow="visible"
       rx="0.14904857"
       ry="0.14904857"
       style="stroke:url(#n);marker:none"
       id="rect21" /><g
       transform="translate(0.646447,-0.03798933)"
       id="g23"><path
         fill="#ffffff"
         d="m 10.348493,30.217151 c 0,0.453198 -0.3675204,0.820488 -0.8207185,0.820488 -0.4534278,0 -0.8207181,-0.36752 -0.8207181,-0.820488 0,-0.453428 0.36752,-0.820718 0.8207181,-0.820718 0.4531981,0 0.8207185,0.36752 0.8207185,0.820718 z m 0,-11.485 c 0,0.453198 -0.3675204,0.820718 -0.8207185,0.820718 -0.4534278,0 -0.8207181,-0.36752 -0.8207181,-0.820718 0,-0.453428 0.36752,-0.820718 0.8207181,-0.820718 0.4531981,0 0.8207185,0.36752 0.8207185,0.820718 z"
         id="path21" /><path
         fill="url(#o)"
         d="m 9.9950109,29.952326 c 0,0.453204 -0.3675248,0.820499 -0.8207288,0.820499 -0.4534338,0 -0.8207289,-0.367524 -0.8207289,-0.820499 0,-0.453434 0.3675248,-0.820729 0.8207289,-0.820729 0.453204,0 0.8207288,0.367525 0.8207288,0.820729 z"
         id="path22"
         style="fill:url(#o)" /><path
         fill="url(#p)"
         d="m 9.9950109,18.467176 c 0,0.453204 -0.3675248,0.820729 -0.8207288,0.820729 -0.4534338,0 -0.8207289,-0.367525 -0.8207289,-0.820729 0,-0.453434 0.3675248,-0.820729 0.8207289,-0.820729 0.453204,0 0.8207288,0.367525 0.8207288,0.820729 z"
         id="path23"
         style="fill:url(#p)" /></g><path
       fill="none"
       stroke="#000000"
       stroke-opacity="0.0175438"
       stroke-width="0.988553"
       d="M 11.505723,5.4942766 V 43.400869"
       id="path24" /><path
       fill="none"
       stroke="#ffffff"
       stroke-opacity="0.204678"
       d="M 12.5,5.0205154 V 43.038228"
       id="path25" /></g><path
     fill="url(#q)"
     d="m 48.000554,11.26082 a 11.259938,11.259938 0 1 1 -22.519875,0 11.259938,11.259938 0 1 1 22.519875,0 z"
     color="#000000"
     display="none"
     style="fill:url(#q);stroke-width:0.7833;marker:none"
     id="path26"
     transform="matrix(5.3467084,0,0,5.3467084,-4.4736902,1.0132255)" /><metadata
     id="metadata26"><rdf:RDF><cc:Work
         rdf:about=""><dc:source>https://commons.wikimedia.org/wiki/File:Document-new.svg</dc:source><cc:license
           rdf:resource="http://creativecommons.org/publicdomain/zero/1.0/" /></cc:Work><cc:License
         rdf:about="http://creativecommons.org/publicdomain/zero/1.0/"><cc:permits
           rdf:resource="http://creativecommons.org/ns#Reproduction" /><cc:permits
           rdf:resource="http://creativecommons.org/ns#Distribution" /><cc:permits
           rdf:resource="http://creativecommons.org/ns#DerivativeWorks" /></cc:License></rdf:RDF></metadata><g
     id="g1"
     transform="matrix(0.68611595,0,0,0.68611595,78.920729,-3.8487283)"><g
       transform="matrix(9.9223412,-2.6586922,2.6586922,9.9223412,-15.873583,-308.45922)"
       id="g48"><path
         fill="#cb9022"
         fill-rule="evenodd"
         stroke="#5c410c"
         d="M 22.10543,205.46668 54.98378,148.51958 210.26074,13.829975 c 23.27528,-16.9338006 48.64016,15.84927 29.16136,34.974957 L 83.841863,180.36665 Z"
         overflow="visible"
         style="stroke-width:3.1905;stroke-dasharray:none;marker:none"
         id="path42"
         sodipodi:nodetypes="cccccc"
         transform="matrix(0.10405211,0.02788077,-0.02788077,0.10405211,-8.1079292,29.066566)" /><path
         fill="url(#s)"
         d="m 38.330708,20 c 0,0 1.4375,0.09375 2,1.34375 0.579493,1.287761 0,2.65625 0,2.65625 l 5.03125,-2.46875 c 0,0 1.452032,-0.881367 0.65625,-2.84375 -0.784912,-1.935577 -2.6875,-1.15625 -2.6875,-1.15625 z"
         transform="translate(-29.75546,19)"
         id="path43"
         style="fill:url(#s)" /><path
         fill="url(#t)"
         d="m 38.330708,20 c 0,0 1.4375,0.09375 2,1.34375 0.579493,1.287761 0,2.65625 0,2.65625 l 2,-1 c 0,0 0.827032,-1.318867 0.21875,-2.6875 C 41.924458,18.90625 40.330708,19 40.330708,19 Z"
         transform="translate(-29.75546,19)"
         id="path44"
         style="fill:url(#t)" /><path
         fill="url(#u)"
         d="m 18.768208,31.78125 4.5,-4.5 c 1.5,0.8125 2.28125,2.15625 1.875,3.71875 z"
         transform="translate(-29.75546,19)"
         id="path45"
         style="fill:url(#u)" /><path
         fill="url(#v)"
         d="m 20.111958,30.375 -1.625,1.59375 2.34375,-0.3125 c 0.21875,-0.71875 -0.1875,-1.0625 -0.71875,-1.28125 z"
         transform="translate(-29.75546,19)"
         id="path46"
         style="fill:url(#v)" /><path
         fill="#ffffff"
         fill-opacity="0.363636"
         d="m -6.487252,46.25 1.5625,1.25 15.38734,-7.31867 C 10.018156,39.325286 9.220821,39.096733 8.559209,39.019068 Z"
         id="path47" /><path
         fill-opacity="0.363636"
         d="m -4.612252,50.0625 0.1875,-0.75 15.23109,-7.1296 c 0,0 -0.11016,0.613627 -0.215879,0.74935 z"
         id="path48" /></g><ellipse
       style="fill:url(#radialGradient3);fill-opacity:1;stroke:none;stroke-width:3.583;stroke-linecap:square;stroke-dasharray:none"
       id="path1"
       cx="127.20227"
       cy="220.6994"
       rx="126.74055"
       ry="28.164568" /></g></svg>
