<?xml version="1.0" encoding="UTF-8" standalone="no"?>
<svg
   width="256"
   height="256"
   version="1.1"
   id="svg31"
   sodipodi:docname="edit-clear-history.svg"
   viewBox="0 0 256 256"
   inkscape:version="1.4.2 (ebf0e940d0, 2025-05-08)"
   xmlns:inkscape="http://www.inkscape.org/namespaces/inkscape"
   xmlns:sodipodi="http://sodipodi.sourceforge.net/DTD/sodipodi-0.dtd"
   xmlns:xlink="http://www.w3.org/1999/xlink"
   xmlns="http://www.w3.org/2000/svg"
   xmlns:svg="http://www.w3.org/2000/svg"
   xmlns:rdf="http://www.w3.org/1999/02/22-rdf-syntax-ns#"
   xmlns:cc="http://creativecommons.org/ns#"
   xmlns:dc="http://purl.org/dc/elements/1.1/">
  <sodipodi:namedview
     id="namedview31"
     pagecolor="#ffffff"
     bordercolor="#000000"
     borderopacity="0.25"
     inkscape:showpageshadow="2"
     inkscape:pageopacity="0.0"
     inkscape:pagecheckerboard="0"
     inkscape:deskcolor="#d1d1d1"
     inkscape:zoom="1.0984094"
     inkscape:cx="156.13487"
     inkscape:cy="260.83172"
     inkscape:current-layer="g32" />
  <defs
     id="defs17">
    <linearGradient
       id="e">
      <stop
         offset="0"
         stop-color="#fff"
         id="stop1" />
      <stop
         offset="1"
         stop-color="#fff"
         stop-opacity="0"
         id="stop2" />
    </linearGradient>
    <linearGradient
       id="g">
      <stop
         offset="0"
         stop-color="#fef088"
         id="stop3" />
      <stop
         offset=".5"
         stop-color="#fde63a"
         id="stop4" />
      <stop
         offset="1"
         stop-color="#dac203"
         id="stop5" />
    </linearGradient>
    <linearGradient
       id="d">
      <stop
         offset="0"
         stop-color="#dac203"
         id="stop6" />
      <stop
         offset=".5"
         stop-color="#fdec69"
         id="stop7" />
      <stop
         offset="1"
         stop-color="#fdef7e"
         id="stop8" />
    </linearGradient>
    <linearGradient
       id="f">
      <stop
         offset="0"
         id="stop9" />
      <stop
         offset="1"
         stop-opacity="0"
         id="stop10" />
    </linearGradient>
    <linearGradient
       id="c">
      <stop
         offset="0"
         stop-color="#b30000"
         id="stop11" />
      <stop
         offset=".5"
         stop-color="#ff5c5c"
         id="stop12" />
      <stop
         offset="1"
         stop-color="#c30000"
         id="stop13" />
    </linearGradient>
    <linearGradient
       id="b">
      <stop
         offset="0"
         stop-color="#c17d10"
         id="stop14" />
      <stop
         offset="1"
         stop-color="#9b650c"
         id="stop15" />
    </linearGradient>
    <linearGradient
       id="a">
      <stop
         offset="0"
         stop-color="#c4a000"
         id="stop16" />
      <stop
         offset="1"
         stop-color="#c4a000"
         stop-opacity="0"
         id="stop17" />
    </linearGradient>
    <linearGradient
       xlink:href="#a"
       id="l"
       x1="9.1053896"
       x2="10.146956"
       y1="38.828144"
       y2="30.140831"
       gradientTransform="matrix(0.86603,-0.5,0.7975,1.3813,-15.69909,-9.225099)"
       gradientUnits="userSpaceOnUse" />
    <linearGradient
       xlink:href="#a"
       id="m"
       x1="19.616243"
       x2="18.485983"
       y1="39.252983"
       y2="29.909071"
       gradientTransform="matrix(0.86603,-0.5,0.79796,1.38211,-15.72934,-9.277499)"
       gradientUnits="userSpaceOnUse" />
    <linearGradient
       xlink:href="#a"
       id="n"
       x1="15.096997"
       x2="14.045431"
       y1="36.96777"
       y2="29"
       gradientTransform="matrix(0.86603,-0.5,0.84348,1.46095,-19.74053,-11.13423)"
       gradientUnits="userSpaceOnUse" />
    <linearGradient
       xlink:href="#a"
       id="o"
       x1="14.045431"
       x2="14.045431"
       y1="37.57589"
       y2="29"
       gradientTransform="matrix(0.86603,-0.5,0.8013,1.3879,-12.8183,-11.14456)"
       gradientUnits="userSpaceOnUse" />
    <linearGradient
       xlink:href="#a"
       id="p"
       x1="16.92873"
       x2="14.045431"
       y1="34.010502"
       y2="29"
       gradientTransform="matrix(0.86603,-0.5,0.86149,1.49214,-17.87951,-13.91085)"
       gradientUnits="userSpaceOnUse" />
    <linearGradient
       xlink:href="#b"
       id="i"
       x1="12.233433"
       x2="16.870909"
       y1="12.363223"
       y2="17.110941"
       gradientTransform="matrix(0.96593,0.2621,-0.25882,0.97818,2.957072,-5.939741)"
       gradientUnits="userSpaceOnUse" />
    <linearGradient
       xlink:href="#c"
       id="r"
       x1="10.615304"
       x2="2.0069747"
       y1="28.122555"
       y2="27.234833"
       gradientTransform="matrix(1.1767,0,0,1.1767,-0.819769,-5.307055)"
       gradientUnits="userSpaceOnUse" />
    <linearGradient
       xlink:href="#d"
       id="q"
       x1="11.996646"
       x2="17.774033"
       y1="19.591736"
       y2="16.234594"
       gradientTransform="matrix(1.0149,0,0,1.00592,-0.331699,-0.140188)"
       gradientUnits="userSpaceOnUse" />
    <linearGradient
       xlink:href="#e"
       id="j"
       x1="9.5621576"
       x2="14.766725"
       y1="6.952559"
       y2="14.200403"
       gradientUnits="userSpaceOnUse" />
    <radialGradient
       xlink:href="#f"
       id="h"
       cx="22.571428"
       cy="30.857143"
       r="15.571428"
       fx="22.571428"
       fy="30.857143"
       gradientTransform="matrix(1.43578,0,0,0.53784447,-5.05046,22.314321)"
       gradientUnits="userSpaceOnUse" />
    <radialGradient
       xlink:href="#g"
       id="k"
       cx="20.764477"
       cy="19.540945"
       r="14.799585"
       fx="20.764477"
       fy="19.540945"
       gradientTransform="matrix(0.4494,-0.2165,0.56442,1.17162,-1.432288,2.546108)"
       gradientUnits="userSpaceOnUse" />
    <radialGradient
       xlink:href="#f"
       id="j-3"
       cx="31.112698"
       cy="19.008621"
       r="8.6620579"
       fx="31.112698"
       fy="19.008621"
       gradientUnits="userSpaceOnUse" />
    <linearGradient
       xlink:href="#a-5"
       id="k-7"
       x1="8.9156475"
       x2="9.8855038"
       y1="37.197018"
       y2="52.090679"
       gradientTransform="matrix(3.12384,0,0,0.9697,-31.88758,-19.59492)"
       gradientUnits="userSpaceOnUse" />
    <linearGradient
       id="a-5">
      <stop
         offset="0"
         stop-color="#9aa29a"
         id="stop16-3" />
      <stop
         offset="1"
         stop-color="#b5beb5"
         id="stop17-5" />
    </linearGradient>
    <radialGradient
       xlink:href="#i-2"
       id="l-6"
       cx="8.7468252"
       cy="6.8283234"
       r="29.889715"
       fx="8.7468252"
       fy="6.8283234"
       gradientUnits="userSpaceOnUse" />
    <linearGradient
       id="i-2">
      <stop
         offset="0"
         stop-color="#9497b3"
         id="stop14-9" />
      <stop
         offset="1"
         stop-color="#4c4059"
         id="stop15-1" />
    </linearGradient>
    <radialGradient
       xlink:href="#g-7"
       id="m-2"
       cx="11.901996"
       cy="10.045444"
       r="29.292715"
       fx="11.901996"
       fy="10.045444"
       gradientUnits="userSpaceOnUse" />
    <linearGradient
       id="g-7">
      <stop
         offset="0"
         stop-color="#fffffd"
         id="stop12-0" />
      <stop
         offset="1"
         stop-color="#cbcbc9"
         id="stop13-9" />
    </linearGradient>
    <linearGradient
       xlink:href="#b-6"
       id="n-3"
       x1="6.342216"
       x2="22.218424"
       y1="7.7893324"
       y2="25.884274"
       gradientUnits="userSpaceOnUse" />
    <linearGradient
       id="b-6">
      <stop
         offset="0"
         stop-color="#a0a0a0"
         id="stop10-0" />
      <stop
         offset="1"
         stop-color="#fff"
         id="stop11-6" />
    </linearGradient>
    <radialGradient
       xlink:href="#a"
       id="o-2"
       cx="23.375"
       cy="10.972863"
       r="3.3478093"
       fx="23.375"
       fy="10.972863"
       gradientTransform="matrix(3.63042,0,0,3.74207,-61.48607,-29.18618)"
       gradientUnits="userSpaceOnUse" />
    <linearGradient
       xlink:href="#a"
       id="p-7"
       x1="19.667364"
       x2="20.329933"
       y1="4.2570662"
       y2="5.2845874"
       gradientUnits="userSpaceOnUse" />
    <radialGradient
       xlink:href="#f-3"
       id="q-2"
       cx="11.3292"
       cy="10.58397"
       r="15.532059"
       fx="11.3292"
       fy="10.58397"
       gradientUnits="userSpaceOnUse" />
    <linearGradient
       id="f-3">
      <stop
         offset="0"
         stop-color="#f3f4ff"
         id="stop8-7" />
      <stop
         offset="1"
         stop-color="#9193af"
         id="stop9-5" />
    </linearGradient>
    <radialGradient
       xlink:href="#d-2"
       id="r-9"
       cx="55"
       cy="125"
       r="14.375"
       fx="55"
       fy="125"
       gradientUnits="userSpaceOnUse" />
    <linearGradient
       id="d-2">
      <stop
         offset="0"
         stop-color="#fff"
         id="stop5-2" />
      <stop
         offset=".5"
         stop-color="#fff520"
         stop-opacity=".89108908"
         id="stop6-8" />
      <stop
         offset="1"
         stop-color="#fff300"
         stop-opacity="0"
         id="stop7-9" />
    </linearGradient>
  </defs>
  <g
     id="g32"
     transform="matrix(5.2203971,0,0,5.2203971,-20.449316,3.2703066)">
    <g
       id="g31">
      <path
         fill="url(#h)"
         d="m 49.714291,38.910563 a 22.357146,8.3749579 0 1 1 -44.714291,0 22.357146,8.3749579 0 1 1 44.714291,0 z"
         color="#000000"
         opacity="0.473684"
         style="fill:url(#h);stroke-width:1.08882;marker:none"
         id="path17" />
      <path
         fill="url(#i)"
         fill-rule="evenodd"
         stroke="#8f5902"
         stroke-linecap="round"
         stroke-width="1.00632"
         d="m 6.9163118,1.7780186 c 1.7297758,-0.8780595 4.1259252,0.0035 5.0117902,1.5573199 l 4.170239,9.4847145 c 0.885865,1.55382 0.633416,3.369304 -0.566029,4.070586 -1.199445,0.701283 -2.878233,0.01494 -3.764099,-1.538881 L 5.8497502,6.9960305 C 4.9638854,5.4422066 5.2207536,2.6387087 6.9163118,1.7780186 Z"
         id="path18"
         style="fill:url(#i)" />
      <path
         fill="none"
         stroke="url(#j)"
         stroke-linecap="round"
         stroke-width="1.00569"
         d="M 7.4462701,2.7359104 C 8.8682231,1.9500906 10.266975,2.5431693 11.141568,4.0752981 L 15.589706,14.162023 13.158185,15.581885 6.8615741,6.7615491 C 5.9869811,5.2294205 5.9853271,3.5432766 7.4462701,2.7359104 Z"
         opacity="0.423077"
         id="path19"
         style="stroke:url(#j)" />
      <path
         fill="url(#k)"
         fill-rule="evenodd"
         stroke="#c4a000"
         stroke-width="1"
         d="m 14.780848,22.793567 c -0.795495,4.286835 0.633966,13.952501 6.259233,19.693997 4.346754,0.141291 13.990091,-3.417681 20.531095,-10.197038 C 32.335,27.773816 26.034647,16.567549 21.135869,19.007852 Z"
         id="path20"
         style="fill:url(#k)" />
      <path
         fill="none"
         stroke="url(#l)"
         stroke-linecap="round"
         stroke-width="1"
         d="m 16.338359,24.367274 c 2.349016,6.270271 2.489443,12.788302 7.183783,17.919884"
         id="path21"
         style="stroke:url(#l)" />
      <path
         fill="none"
         stroke="#ffffff"
         stroke-width="1"
         d="M 15.91878,23.414124 C 15.006687,23.922228 15.758401,35.934338 21.503034,41.414491 28.88902,41.227594 37.02675,35.018304 39.895986,32.576645 30.39657,26.592523 24.971183,17.814876 21.415196,20.003061 Z"
         opacity="0.461538"
         id="path22" />
      <path
         fill="none"
         stroke="url(#m)"
         stroke-linecap="round"
         stroke-width="1"
         d="m 23.848485,22.273332 c 0.866361,-0.749 5.75002,6.087667 14.998501,12.381801"
         id="path23"
         style="stroke:url(#m)" />
      <path
         fill="none"
         stroke="url(#n)"
         stroke-linecap="round"
         stroke-width="1"
         d="m 18.012893,22.863921 c 3.71231,5.347495 2.96299,12.424255 8.840816,18.08111"
         id="path24"
         style="stroke:url(#n)" />
      <path
         fill="none"
         stroke="url(#o)"
         stroke-linecap="round"
         stroke-width="1"
         d="m 22.983898,22.775821 c 0,0 8.17673,13.071629 11.181934,15.104561"
         id="path25"
         style="stroke:url(#o)" />
      <path
         fill="none"
         stroke="url(#p)"
         stroke-linecap="round"
         stroke-width="1"
         d="m 19.300308,22.200695 c 3.447146,2.916815 8.702557,14.163188 11.310014,17.47775"
         id="path26"
         style="stroke:url(#p)" />
      <path
         fill="url(#q)"
         fill-rule="evenodd"
         stroke="#c4a000"
         stroke-linecap="round"
         stroke-linejoin="round"
         stroke-width="1.0104"
         d="M 8.5089452,18.061866 19.970616,11.50296 c 0.59865,2.382571 -0.34184,3.240585 1.79595,7.147713 l -7.910292,4.52664 c -1.453428,-3.47742 -3.564886,-3.410298 -5.3473288,-5.115447 z"
         id="path27"
         style="fill:url(#q)" />
      <path
         fill="none"
         stroke="#ffffff"
         d="M 14.043449,21.245689 C 13.229488,19.824472 11.481136,19.009347 10.36413,18.11846 l 8.757422,-4.933738 c -0.01959,1.480968 0.566905,3.088206 0.875611,4.518667 z"
         opacity="0.247253"
         id="path28" />
      <rect
         width="13.015023"
         height="3.4598906"
         x="-1.4127867"
         y="24.174778"
         fill="url(#r)"
         fill-rule="evenodd"
         stroke="#690000"
         stroke-linecap="round"
         stroke-width="0.999998"
         rx="0.99999738"
         ry="0.99999803"
         transform="rotate(-30)"
         id="rect28"
         style="fill:url(#r)" />
      <path
         fill="#ffffff"
         fill-rule="evenodd"
         stroke="#8f5902"
         stroke-linecap="round"
         stroke-linejoin="round"
         stroke-width="0.999998"
         d="M 9.7981017,4.8566305 A 1.2968373,1.2968373 0 1 1 7.2928051,4.1853367 1.2968373,1.2968373 0 1 1 9.7981017,4.8566305 Z"
         id="path29" />
      <path
         fill="#ffffff"
         fill-rule="evenodd"
         d="m 27.734834,40.555239 c 0,0 1.506584,-0.500648 2.176098,-0.941755 -1.237437,-1.944544 -3.403341,-5.895665 -5.403126,-8.87592 1.193243,6.540738 3.227028,9.817675 3.227028,9.817675 z M 31.141805,39.05827 33.167803,37.9731 C 31.223259,36.116945 25.699306,27.857202 25.699306,27.857202 Z m 4.516717,-2.670461 2.436371,-1.743752 c -3.181981,-1.325825 -11.58654,-9.880449 -11.58654,-9.880449 2.382935,3.011895 6.767234,8.612306 9.150169,11.624201 z m 3.495167,-2.470601 1.692313,-1.409508 c -3.314563,-1.502602 -12.495677,-9.912017 -12.495677,-9.912017 0,0 6.074587,9.200205 10.803364,11.321525 z"
         opacity="0.317308"
         id="path30" />
      <path
         fill="#ffffff"
         fill-rule="evenodd"
         d="m 24.376076,41.571705 c 0,0 1.197225,-0.279677 2.043516,-0.455619 -1.458408,-1.237437 -3.801089,-4.437257 -5.093767,-8.610755 0.530331,6.894292 3.050251,9.066374 3.050251,9.066374 z m -3.005204,0.397747 1.24802,-0.01368 c -2.298097,-2.519069 -3.138175,-5.365335 -4.430854,-9.40625 -0.132581,4.684583 3.182834,9.419926 3.182834,9.419926 z"
         opacity="0.317308"
         id="path31" />
    </g>
    <g
       id="g30"
       transform="matrix(0.68251417,0,0,0.68251417,21.37134,-0.91842018)">
      <path
         fill="url(#j)"
         fill-rule="evenodd"
         d="m 39.774755,19.008621 a 8.6620579,8.6620579 0 1 1 -17.324115,0 8.6620579,8.6620579 0 1 1 17.324115,0 z"
         color="#000000"
         overflow="visible"
         style="fill:url(#j-3);marker:none"
         transform="matrix(2.56316,0,0,1.2196,-55.98414,14.04144)"
         id="path19-7" />
      <path
         fill="url(#k)"
         fill-rule="evenodd"
         d="M 18.587591,1.403729 4.226755,18.096665 5.4854717,19.339844 Z"
         color="#000000"
         overflow="visible"
         style="fill:url(#k-7);marker:none"
         id="path20-3" />
      <path
         fill="#fefefe"
         fill-rule="evenodd"
         d="M 18.467176,1.3138035 5.6605716,19.072612 7.4900985,20.687913 Z"
         id="path21-6" />
      <path
         fill="url(#l)"
         fill-rule="evenodd"
         stroke="#605773"
         stroke-linecap="round"
         stroke-linejoin="round"
         stroke-width="0.698554"
         d="m 31.160714,16.910715 a 14.910714,14.910714 0 1 1 -29.8214281,0 14.910714,14.910714 0 1 1 29.8214281,0 z"
         transform="matrix(1.43153,0,0,1.43153,0.569459,-1.654618)"
         id="path22-1"
         style="fill:url(#l-6)" />
      <path
         fill="url(#m)"
         fill-rule="evenodd"
         stroke="url(#n)"
         stroke-linecap="round"
         stroke-linejoin="round"
         stroke-width="0.711396"
         d="m 31.160714,16.910715 a 14.910714,14.910714 0 1 1 -29.8214281,0 14.910714,14.910714 0 1 1 29.8214281,0 z"
         transform="matrix(1.16384,0,0,1.16384,4.824801,2.777556)"
         id="path23-2"
         style="fill:url(#m-2);stroke:url(#n-3)" />
      <path
         fill="url(#o)"
         fill-rule="evenodd"
         stroke="url(#p)"
         stroke-width="0.564987"
         d="M 16.679382,6.6387137 A 8.5,8.5 0 0 1 23.332691,3.3751053 L 23.375,11.875 Z"
         color="#000000"
         overflow="visible"
         style="display:none;fill:url(#o-2);stroke:url(#p-7);marker:none"
         transform="matrix(1.76995,0,0,1.76995,-17.02424,1.610741)"
         id="path24-9" />
      <path
         style="fill:#ff7591;fill-opacity:0.662807;stroke:#e0584e;stroke-width:13.424;stroke-linecap:round;stroke-linejoin:round;stroke-dasharray:none;stroke-opacity:0.833582;paint-order:stroke markers fill"
         id="path1"
         sodipodi:type="arc"
         sodipodi:cx="124.06918"
         sodipodi:cy="119.14224"
         sodipodi:rx="77.487244"
         sodipodi:ry="77.487244"
         sodipodi:start="4.712389"
         sodipodi:end="8.2693028e-05"
         sodipodi:arc-type="slice"
         d="m 124.06918,41.654999 a 77.487244,77.487244 0 0 1 54.79402,22.697754 77.487244,77.487244 0 0 1 22.69323,54.795897 l -77.48725,-0.006 z"
         transform="matrix(0.1854543,0,0,0.1854543,1.0040785,0.49262194)" />
      <path
         fill="#b6b9b1"
         fill-rule="evenodd"
         d="m 25.331808,8.7430216 a 1.7011622,1.7011622 0 1 1 -3.402324,0 1.7011622,1.7011622 0 1 1 3.402324,0 z m 0,27.2186104 a 1.7011622,1.7011622 0 1 1 -3.402324,0 1.7011622,1.7011622 0 1 1 3.402324,0 z m -13.60931,-13.60933 a 1.7011622,1.7011622 0 1 1 -3.4023239,0 1.7011622,1.7011622 0 1 1 3.4023239,0 z m 27.218592,0 a 1.7011622,1.7011622 0 1 1 -3.402324,0 1.7011622,1.7011622 0 1 1 3.402324,0 z"
         id="path28-3" />
      <path
         fill="none"
         stroke="url(#q)"
         stroke-linecap="round"
         stroke-linejoin="round"
         stroke-width="0.736565"
         d="m 31.160714,16.910715 a 14.910714,14.910714 0 1 1 -29.8214281,0 14.910714,14.910714 0 1 1 29.8214281,0 z"
         transform="matrix(1.35765,0,0,1.35765,1.769896,-0.493735)"
         id="path29-1"
         style="stroke:url(#q-2)" />
      <path
         fill="url(#r)"
         d="m 69.375,125 a 14.375,14.375 0 1 1 -28.75,0 14.375,14.375 0 1 1 28.75,0 z"
         color="#000000"
         display="none"
         style="fill:url(#r-9);marker:none"
         transform="matrix(0.61113,0,0,0.61113,5.544052,-66.92818)"
         id="path30-9" />
      <g
         id="g1">
        <path
           fill="#f3f3f3"
           fill-rule="evenodd"
           stroke="#000000"
           stroke-linecap="round"
           stroke-linejoin="round"
           stroke-width="0.999998"
           d="m 26.704772,22.692309 a 2.5268283,2.5268283 0 1 1 -5.053656,0 2.5268283,2.5268283 0 1 1 5.053656,0 z"
           id="path25-4" />
        <path
           fill="none"
           stroke="#000000"
           stroke-linecap="round"
           d="M 26.852232,22.655509 38.628408,22.308306"
           id="path26-7"
           inkscape:transform-center-x="-46.345909"
           inkscape:transform-center-y="-0.51602317" />
        <path
           fill="none"
           stroke="#000000"
           stroke-linecap="round"
           stroke-width="2"
           d="m 19.408614,29.776506 2.960041,-4.493278"
           id="path27-8" />
      </g>
    </g>
  </g>
  <metadata
     id="metadata32">
    <rdf:RDF>
      <cc:Work
         rdf:about="">
        <dc:source>https://commons.wikimedia.org/wiki/File:Edit-clear.svg</dc:source>
        <cc:license
           rdf:resource="http://creativecommons.org/publicdomain/zero/1.0/" />
      </cc:Work>
      <cc:License
         rdf:about="http://creativecommons.org/publicdomain/zero/1.0/">
        <cc:permits
           rdf:resource="http://creativecommons.org/ns#Reproduction" />
        <cc:permits
           rdf:resource="http://creativecommons.org/ns#Distribution" />
        <cc:permits
           rdf:resource="http://creativecommons.org/ns#DerivativeWorks" />
      </cc:License>
    </rdf:RDF>
  </metadata>
</svg>
