<?xml version="1.0" encoding="UTF-8" standalone="no"?>
<!-- Generator: Adobe Illustrator 10.0.3, SVG Export Plug-In . SVG Version: 3.0.0 Build 77)  -->

<svg
   width="256"
   height="256"
   viewBox="0 0 256 256.00001"
   overflow="visible"
   enable-background="new 0 0 128 128.443"
   xml:space="preserve"
   version="1.1"
   id="svg83"
   sodipodi:docname="edit-find-user.svg"
   inkscape:version="1.4.2 (ebf0e940d0, 2025-05-08)"
   xmlns:inkscape="http://www.inkscape.org/namespaces/inkscape"
   xmlns:sodipodi="http://sodipodi.sourceforge.net/DTD/sodipodi-0.dtd"
   xmlns:xlink="http://www.w3.org/1999/xlink"
   xmlns="http://www.w3.org/2000/svg"
   xmlns:svg="http://www.w3.org/2000/svg"
   xmlns:rdf="http://www.w3.org/1999/02/22-rdf-syntax-ns#"
   xmlns:cc="http://creativecommons.org/ns#"><defs
   id="defs83"><radialGradient
     id="f"
     xlink:href="#a"
     gradientUnits="userSpaceOnUse"
     cy="19.01"
     cx="31.110001"
     gradientTransform="matrix(1.776,0,0,0.584,-24.25,28.28)"
     r="8.6619997" /><linearGradient
     id="a"><stop
       offset="0"
       id="stop1" /><stop
       stop-opacity="0"
       offset="1"
       id="stop2" /></linearGradient><radialGradient
     id="h"
     gradientUnits="userSpaceOnUse"
     cy="27.200001"
     cx="28.09"
     gradientTransform="matrix(1.298,0,0,0.8848,-8.358,4.941)"
     r="13.56"><stop
       stop-color="#3b74bc"
       offset="0"
       id="stop7" /><stop
       stop-color="#2d5990"
       offset="1"
       id="stop8-3" /></radialGradient><linearGradient
     id="m"
     xlink:href="#c"
     gradientUnits="userSpaceOnUse"
     x2="0"
     y1="29.549999"
     y2="35.799999" /><linearGradient
     id="c"><stop
       stop-color="#fff"
       offset="0"
       id="stop5" /><stop
       stop-color="#c9c9c9"
       offset="1"
       id="stop6" /></linearGradient><radialGradient
     id="i"
     xlink:href="#a"
     gradientUnits="userSpaceOnUse"
     cy="22.51"
     cx="30.99"
     r="8.6619997" /><linearGradient
     id="l"
     x1="20.049999"
     xlink:href="#a"
     gradientUnits="userSpaceOnUse"
     x2="21.91"
     y1="36.32"
     y2="37.07" /><linearGradient
     id="k"
     x1="40.57"
     xlink:href="#a"
     gradientUnits="userSpaceOnUse"
     x2="41.689999"
     y1="36.400002"
     y2="35.490002" /><radialGradient
     id="g"
     gradientUnits="userSpaceOnUse"
     cy="17.059999"
     cx="29.34"
     r="7.2199998"><stop
       stop-color="#f4d9b1"
       offset="0"
       id="stop13-7" /><stop
       stop-color="#df9725"
       offset="1"
       id="stop14" /></radialGradient><linearGradient
     id="k-1"
     y2="30.6"
     gradientUnits="userSpaceOnUse"
     x2="31.299999"
     y1="23.35"
     x1="27.01"><stop
       stop-color="#8a8a8a"
       offset="0"
       id="stop1-2" /><stop
       stop-color="#484848"
       offset="1"
       id="stop2-7" /></linearGradient><linearGradient
     id="SVGID_3_"
     y2="55.650002"
     gradientUnits="userSpaceOnUse"
     x2="-144.3"
     gradientTransform="matrix(1.335,0,0,-1.291,229.6,104.1)"
     y1="52.709999"
     x1="-146.89999"><stop
       stop-color="#7d7d7d"
       offset="0"
       id="stop3" /><stop
       stop-color="#b1b1b1"
       offset=".5"
       id="stop4" /><stop
       stop-color="#686868"
       offset="1"
       id="stop5-0" /></linearGradient><linearGradient
     id="c-9"
     y2="25.860001"
     gradientUnits="userSpaceOnUse"
     x2="17.83"
     y1="10.73"
     x1="18.809999"><stop
       stop-color="#fff"
       offset="0"
       id="stop6-3" /><stop
       stop-color="#fff"
       stop-opacity=".22"
       offset=".5"
       id="stop7-6" /><stop
       stop-color="#fff"
       offset="1"
       id="stop8" /></linearGradient><radialGradient
     id="r"
     gradientUnits="userSpaceOnUse"
     cy="81.5"
     cx="-171.7"
     gradientTransform="matrix(1.399,0,0,-1.399,259.5,136.2)"
     r="8.3100004"><stop
       stop-color="#729fcf"
       stop-opacity=".21"
       offset="0"
       id="stop9" /><stop
       stop-color="#729fcf"
       stop-opacity=".68"
       offset="1"
       id="stop10" /></radialGradient><radialGradient
     id="b"
     gradientUnits="userSpaceOnUse"
     cy="-511.60001"
     cx="-174.5"
     gradientTransform="matrix(1.446,0,0,-0.362,276.2,-145.1)"
     r="16.530001"><stop
       offset="0"
       id="stop11" /><stop
       stop-opacity="0"
       offset="1"
       id="stop12" /></radialGradient><radialGradient
     id="g-0"
     gradientUnits="userSpaceOnUse"
     cy="166.39999"
     cx="-296.79999"
     gradientTransform="matrix(2.593,0,0,-2.252,784.6,385.3)"
     r="6.6599998"><stop
       stop-color="#fff"
       offset="0"
       id="stop13" /><stop
       stop-color="#fff"
       stop-opacity=".25"
       offset="1"
       id="stop14-6" /></radialGradient><radialGradient
     id="s"
     gradientUnits="userSpaceOnUse"
     cy="-1674"
     cx="314.89999"
     gradientTransform="matrix(0.498,0,0,-0.145,-135.8,-204.1)"
     r="16.530001"><stop
       stop-color="#fff"
       offset="0"
       id="stop15" /><stop
       stop-color="#fff"
       stop-opacity="0"
       offset="1"
       id="stop16" /></radialGradient></defs><sodipodi:namedview
   id="namedview83"
   pagecolor="#ffffff"
   bordercolor="#000000"
   borderopacity="0.25"
   inkscape:showpageshadow="2"
   inkscape:pageopacity="0.0"
   inkscape:pagecheckerboard="0"
   inkscape:deskcolor="#d1d1d1"
   inkscape:zoom="1.7203809"
   inkscape:cx="204.60585"
   inkscape:cy="250.23528"
   inkscape:current-layer="Layer_1" />
	<g
   id="Layer_1"
   transform="matrix(2.4923928,-0.0478564,0.0478564,2.4923928,-63.216372,-64.217542)">
		<g
   id="g28"
   style="display:inline"
   inkscape:label="u1"
   transform="matrix(2.5498381,0.0489594,-0.0489594,2.5498381,-13.470764,7.6297304)"><ellipse
     rx="15.38"
     ry="5.059"
     cy="39.380001"
     cx="30.99"
     fill="url(#f)"
     id="ellipse19"
     style="fill:url(#f)" /><path
     stroke-linejoin="round"
     d="M 25.99,41.64 H 36.6 c 3.01,0 5.98,-1.102 7.07,-4.243 1.036,-2.983 0.177,-8.662 -6.541,-13.26 h -12.56 c -6.718,4.243 -7.557,10.04 -6.01,13.44 1.576,3.454 4.243,4.066 7.425,4.066 z"
     stroke="#204a87"
     stroke-linecap="round"
     fill="url(#h)"
     id="path20"
     style="fill:url(#h)" /><path
     fill="url(#m)"
     d="m 26.69,25.73 c 3.182,2.828 4.596,13.08 4.596,13.08 0,0 1.414,-10.25 3.889,-13.26 l -8.49,0.17"
     id="path21"
     style="fill:url(#m)" /><path
     fill="#729fcf"
     d="m 28.97,26.79 c 0,0 -2.151,1.66 -1.966,3.66 -2.041,-1.801 -2.1,-5.252 -2.1,-5.252 l 4.066,1.591"
     id="path22" /><path
     opacity="0.215"
     stroke-linejoin="round"
     d="M 25.91,40.59 36.4,40.568 c 2.64,0 5.253,-0.968 6.211,-3.727 0.91,-2.62 -0.095,-7.609 -5.995,-11.65 l -11.52,-0.23 c -5.901,3.727 -7.04,8.823 -5.662,12.04 1.381,3.221 3.395,3.571 6.477,3.593 z"
     stroke="#ffffff"
     stroke-linecap="round"
     fill="none"
     id="path23" /><path
     fill="#729fcf"
     d="m 33.41,26.79 c 0,0 2.151,1.66 1.966,3.66 2.041,-1.801 2.1,-5.252 2.1,-5.252 l -4.07,1.59"
     id="path24" /><circle
     cy="22.51"
     cx="30.99"
     r="8.6619997"
     fill="url(#i)"
     id="circle24"
     style="fill:url(#i)" /><path
     opacity="0.228"
     d="m 21.85,40.78 c -1.248,-0.545 -1.806,-1.858 -1.806,-1.858 0.841,-4.069 3.72,-7.05 3.72,-7.05 0,0 -2.279,6.411 -1.914,8.904"
     fill="url(#l)"
     id="path26"
     style="fill:url(#l)" /><path
     opacity="0.228"
     d="m 40.76,39.92 c 1.231,-0.581 1.804,-2 1.804,-2 -0.959,-4.04 -3.976,-6.843 -3.976,-6.843 0,0 2.465,6.343 2.172,8.845"
     fill="url(#k)"
     id="path27-8"
     style="fill:url(#k)" /><circle
     stroke="#c17d11"
     cy="19.01"
     cx="31.110001"
     r="8.6619997"
     fill="url(#g)"
     id="circle25"
     style="fill:url(#g)" /><circle
     opacity="0.196"
     stroke="#ffffff"
     cy="19.01"
     cx="31.110001"
     r="7.5970001"
     fill="none"
     id="circle26" /></g>
		
	<g
   id="g19"
   transform="matrix(1.9206232,0.03687786,-0.03687786,1.9206232,34.814143,40.191736)"><ellipse
     opacity="0.17"
     rx="23.9"
     ry="5.98"
     cy="39.959999"
     cx="23.92"
     fill="url(#b)"
     id="ellipse16"
     style="fill:url(#b)" /><g
     fill="#dcdcdc"
     id="g17"><path
       d="m 18.63,3.14 c -8.14,0 -14.75,6.61 -14.75,14.75 0,8.14 6.61,14.74 14.75,14.74 3.48,0 6.55,-1.38 9.1,-3.4 -0.2,1 -0.08,2.04 0.76,2.76 l 10.96,9.53 c 1.23,1.07 3.09,0.93 4.16,-0.3 1.07,-1.24 0.93,-3.09 -0.3,-4.16 L 32.34,27.53 c -0.67,-0.58 -1.49,-0.76 -2.3,-0.64 1.98,-2.52 3.36,-5.55 3.36,-9 C 33.4,9.75 26.8,3.14 18.66,3.14 Z m -0.08,1.23 c 7.64,0 13.29,4.79 13.29,13.29 0,8.68 -5.81,13.29 -13.29,13.29 -7.3,0 -13.29,-5.47 -13.29,-13.29 0,-7.98 5.82,-13.29 13.29,-13.29 z"
       stroke="url(#k)"
       stroke-linecap="round"
       stroke-width="2"
       id="path16"
       style="stroke:url(#k-1)" /><path
       d="m 18.6,3.08 c -8.16,0 -14.79,6.63 -14.79,14.79 0,8.17 6.63,14.8 14.79,14.8 3.49,0 6.58,-1.39 9.11,-3.42 -0.21,1 -0.08,2.04 0.75,2.77 l 11,9.56 c 1.24,1.07 3.1,0.93 4.18,-0.3 1.07,-1.24 0.93,-3.1 -0.31,-4.18 l -11,-9.56 C 31.66,26.96 30.84,26.79 30.02,26.9 32.01,24.38 33.4,21.33 33.4,17.9 33.4,9.74 26.77,3.11 18.6,3.11 M 18.53,6.3 c 6.28,0 11.38,5.09 11.38,11.38 0,6.28 -5.1,11.37 -11.38,11.37 -6.28,0 -11.38,-5.09 -11.38,-11.37 0,-6.29 5.1,-11.38 11.38,-11.38"
       id="path17" /></g><path
     d="M 39.51,41.58 C 39.03,39.3 40.9,36.77 43.09,36.79 L 32.33,27.53 c -2.94,-0.06 -4.27,2.27 -3.78,4.6 l 10.96,9.45"
     fill="url(#SVGID_3_)"
     id="path18"
     style="fill:url(#SVGID_3_)" /><circle
     cy="17.4"
     stroke="url(#c)"
     cx="18.379999"
     r="13.77"
     fill="none"
     id="circle18"
     style="stroke:url(#c-9)" /><ellipse
     rx="8.2299995"
     ry="2.4000001"
     cy="38.77"
     cx="20.99"
     fill="url(#s)"
     id="ellipse18"
     style="fill:url(#s)" /><circle
     cy="17.549999"
     stroke="#3063a3"
     cx="18.379999"
     r="11.62"
     fill="url(#r)"
     id="circle19"
     style="fill:url(#r)" /><path
     opacity="0.83"
     d="m 18.2,7.4 c -5.21,0 -9.43,4.21 -9.43,9.42 0,1.51 0.42,2.89 1.05,4.15 1.25,0.46 2.58,0.78 3.99,0.78 6.18,0 11.1,-4.86 11.48,-10.94 C 23.56,8.76 21.08,7.4 18.2,7.4"
     fill="url(#g)"
     id="path19"
     style="fill:url(#g-0)" /><rect
     opacity="0.43"
     rx="2.4679999"
     transform="matrix(0.753,0.658,-0.6489,0.7609,0,0)"
     height="5"
     width="19"
     stroke="#ffffff"
     y="-0.13"
     x="40.5"
     fill="none"
     id="rect19" /></g></g>
<metadata
   id="metadata1"><rdf:RDF><cc:License
       rdf:about="http://creativecommons.org/publicdomain/zero/1.0/"><cc:permits
         rdf:resource="http://creativecommons.org/ns#Reproduction" /><cc:permits
         rdf:resource="http://creativecommons.org/ns#Distribution" /><cc:permits
         rdf:resource="http://creativecommons.org/ns#DerivativeWorks" /></cc:License><cc:Work
       rdf:about=""><cc:license
         rdf:resource="http://creativecommons.org/publicdomain/zero/1.0/" /></cc:Work></rdf:RDF></metadata></svg>
