<?xml version="1.0" encoding="UTF-8" standalone="no"?>
<svg
   height="256"
   width="256"
   version="1.1"
   id="svg6"
   sodipodi:docname="filetypes.svg"
   viewBox="0 0 256 256"
   inkscape:version="1.4.2 (ebf0e940d0, 2025-05-08)"
   xmlns:inkscape="http://www.inkscape.org/namespaces/inkscape"
   xmlns:sodipodi="http://sodipodi.sourceforge.net/DTD/sodipodi-0.dtd"
   xmlns:xlink="http://www.w3.org/1999/xlink"
   xmlns="http://www.w3.org/2000/svg"
   xmlns:svg="http://www.w3.org/2000/svg"
   xmlns:rdf="http://www.w3.org/1999/02/22-rdf-syntax-ns#"
   xmlns:cc="http://creativecommons.org/ns#"
   xmlns:dc="http://purl.org/dc/elements/1.1/">
  <sodipodi:namedview
     id="namedview6"
     pagecolor="#ffffff"
     bordercolor="#000000"
     borderopacity="0.25"
     inkscape:showpageshadow="2"
     inkscape:pageopacity="0.0"
     inkscape:pagecheckerboard="0"
     inkscape:deskcolor="#d1d1d1"
     inkscape:zoom="3.1574094"
     inkscape:cx="141.09669"
     inkscape:cy="183.85326"
     inkscape:current-layer="svg6" />
  <defs
     id="defs4">
    <linearGradient
       id="linearGradient20">
      <stop
         stop-color="#f5f5f5"
         offset="0"
         id="stop19" />
      <stop
         stop-color="#e9e9e9"
         offset="1"
         id="stop20"
         style="stop-color:#4d8dc1;stop-opacity:1;" />
    </linearGradient>
    <linearGradient
       id="d"
       y2="24.139999"
       xlink:href="#a"
       gradientUnits="userSpaceOnUse"
       x2="27.27"
       gradientTransform="matrix(-0.9772,0,0,0.9959,50.6,9.116)"
       y1="10.96"
       x1="35" />
    <linearGradient
       id="e"
       y2="35.48"
       xlink:href="#a"
       gradientUnits="userSpaceOnUse"
       x2="49.080002"
       gradientTransform="matrix(-1.008,0,0,0.9876,61.88,0.275)"
       y1="19.99"
       x1="36.439999" />
    <linearGradient
       id="a">
      <stop
         stop-color="#f5f5f5"
         offset="0"
         id="stop1" />
      <stop
         stop-color="#e9e9e9"
         offset="1"
         id="stop2" />
    </linearGradient>
    <radialGradient
       id="b"
       gradientUnits="userSpaceOnUse"
       cy="27.639999"
       cx="29.5"
       gradientTransform="matrix(1.373,0,0,0.3785,-21.09,26.47)"
       r="11.52">
      <stop
         offset="0"
         id="stop3" />
      <stop
         stop-opacity="0"
         offset="1"
         id="stop4" />
    </radialGradient>
    <radialGradient
       inkscape:collect="always"
       xlink:href="#b"
       id="radialGradient6"
       gradientUnits="userSpaceOnUse"
       gradientTransform="matrix(1.373,0,0,0.3785,-10.34,19.97)"
       cx="29.5"
       cy="27.639999"
       r="11.52" />
    <radialGradient
       inkscape:collect="always"
       xlink:href="#b"
       id="radialGradient8"
       gradientUnits="userSpaceOnUse"
       gradientTransform="matrix(1.373,0,0,0.3785,-21.09,26.47)"
       cx="29.5"
       cy="27.639999"
       r="11.52" />
    <linearGradient
       inkscape:collect="always"
       xlink:href="#a"
       id="linearGradient8"
       gradientUnits="userSpaceOnUse"
       gradientTransform="matrix(-1.008,0,0,0.9876,61.88,0.275)"
       x1="36.439999"
       y1="19.99"
       x2="49.080002"
       y2="35.48" />
    <linearGradient
       inkscape:collect="always"
       xlink:href="#linearGradient20"
       id="linearGradient9"
       gradientUnits="userSpaceOnUse"
       gradientTransform="matrix(-0.9772,0,0,0.9959,50.6,9.116)"
       x1="31.517347"
       y1="10.819082"
       x2="27.27"
       y2="24.139999" />
    <linearGradient
       inkscape:collect="always"
       xlink:href="#a"
       id="linearGradient10"
       gradientUnits="userSpaceOnUse"
       gradientTransform="matrix(-0.9772,0,0,0.9959,50.6,9.116)"
       x1="35"
       y1="10.96"
       x2="27.27"
       y2="24.139999" />
    <linearGradient
       xlink:href="#h"
       id="i"
       x1="302.85715"
       x2="302.85715"
       y1="366.64789"
       y2="609.50507"
       gradientTransform="matrix(2.77439,0,0,1.9697,-1892.179,-872.8854)"
       gradientUnits="userSpaceOnUse" />
    <linearGradient
       id="h">
      <stop
         offset="0"
         stop-opacity="0"
         id="stop7" />
      <stop
         offset=".5"
         id="stop8" />
      <stop
         offset="1"
         stop-opacity="0"
         id="stop9" />
    </linearGradient>
    <radialGradient
       xlink:href="#a-3"
       id="j"
       cx="605.71429"
       cy="486.64789"
       r="117.14286"
       fx="605.71429"
       fy="486.64789"
       gradientTransform="matrix(2.77439,0,0,1.9697,-1891.633,-872.8854)"
       gradientUnits="userSpaceOnUse" />
    <linearGradient
       id="a-3">
      <stop
         offset="0"
         id="stop5" />
      <stop
         offset="1"
         stop-opacity="0"
         id="stop6" />
    </linearGradient>
    <radialGradient
       xlink:href="#a-3"
       id="k"
       cx="605.71429"
       cy="486.64789"
       r="117.14286"
       fx="605.71429"
       fy="486.64789"
       gradientTransform="matrix(-2.77439,0,0,1.9697,112.7623,-872.8854)"
       gradientUnits="userSpaceOnUse" />
    <radialGradient
       xlink:href="#d-5"
       id="l"
       cx="33.966679"
       cy="35.736916"
       r="86.70845"
       fx="33.966679"
       fy="35.736916"
       gradientTransform="scale(0.9605,1.04113)"
       gradientUnits="userSpaceOnUse" />
    <linearGradient
       id="d-5">
      <stop
         offset="0"
         stop-color="#fafafa"
         id="stop14" />
      <stop
         offset="1"
         stop-color="#bbb"
         id="stop15" />
    </linearGradient>
    <radialGradient
       xlink:href="#c-3"
       id="m"
       cx="8.824419"
       cy="3.7561285"
       r="37.751713"
       fx="8.824419"
       fy="3.7561285"
       gradientTransform="matrix(0.96827,0,0,1.03277,3.353553,0.646447)"
       gradientUnits="userSpaceOnUse" />
    <linearGradient
       id="c-3">
      <stop
         offset="0"
         stop-color="#a3a3a3"
         id="stop12" />
      <stop
         offset="1"
         stop-color="#4c4c4c"
         id="stop13" />
    </linearGradient>
    <radialGradient
       xlink:href="#e-5"
       id="n"
       cx="8.1435566"
       cy="7.2678967"
       r="38.158695"
       fx="8.1435566"
       fy="7.2678967"
       gradientTransform="matrix(0.96827,0,0,1.03277,3.353553,0.646447)"
       gradientUnits="userSpaceOnUse" />
    <linearGradient
       id="e-5">
      <stop
         offset="0"
         stop-color="#fff"
         id="stop10" />
      <stop
         offset="1"
         stop-color="#f8f8f8"
         id="stop11" />
    </linearGradient>
    <radialGradient
       xlink:href="#f-6"
       id="o"
       cx="20.892099"
       cy="114.5684"
       r="5.256"
       fx="20.892099"
       fy="114.5684"
       gradientTransform="matrix(0.2297,0,0,0.2297,4.613529,3.979808)"
       gradientUnits="userSpaceOnUse" />
    <radialGradient
       id="f-6"
       cx="20.892099"
       cy="114.5684"
       r="5.256"
       fx="20.892099"
       fy="114.5684"
       gradientUnits="userSpaceOnUse">
      <stop
         offset="0"
         stop-color="#F0F0F0"
         id="stop3-2" />
      <stop
         offset="1"
         stop-color="#9a9a9a"
         id="stop4-9" />
    </radialGradient>
    <radialGradient
       xlink:href="#g"
       id="p"
       cx="20.892099"
       cy="64.567902"
       r="5.257"
       fx="20.892099"
       fy="64.567902"
       gradientTransform="matrix(0.2297,0,0,0.2297,4.613529,3.979808)"
       gradientUnits="userSpaceOnUse" />
    <radialGradient
       id="g"
       cx="20.892099"
       cy="64.567902"
       r="5.257"
       fx="20.892099"
       fy="64.567902"
       gradientUnits="userSpaceOnUse">
      <stop
         offset="0"
         stop-color="#F0F0F0"
         id="stop16" />
      <stop
         offset="1"
         stop-color="#9a9a9a"
         id="stop17" />
    </radialGradient>
  </defs>
  <g
     id="g8"
     transform="matrix(5.9896217,0,0,5.9896217,-20.562635,-17.83731)">
    <ellipse
       id="use4"
       opacity="0.12"
       rx="15.81"
       ry="4.3590002"
       cy="30.439999"
       cx="30.16"
       fill="url(#b)"
       style="fill:url(#radialGradient6)" />
    <ellipse
       id="c"
       opacity="0.12"
       rx="15.81"
       ry="4.3590002"
       cy="36.939999"
       cx="19.41"
       fill="url(#b)"
       style="fill:url(#radialGradient8)" />
    <g
       id="use5"
       style="display:none;fill:url(#e);stroke-width:0.99"
       transform="matrix(-1.03,0,0,0.9898,49.08,-8.724)">
      <path
         stroke="#787878"
         d="m 31.64,17.39 v 15.19 c 0,1.059 -0.823,1.898 -1.862,1.898 h -13.71 c -0.831,1.113 -2.504,2.928 -6.427,4.41 1.725,-2.066 1.827,-3.459 1.632,-4.41 H 8.464 c -1.039,0 -1.893,-0.839 -1.893,-1.898 V 17.39 c 0,-1.059 0.854,-1.93 1.893,-1.93 h 21.32 c 1.039,0 1.862,0.871 1.862,1.93 z"
         id="path7"
         style="fill:url(#linearGradient8)" />
      <path
         stroke="#ffffff"
         fill="none"
         d="m 30.62,17.88 v 14.2 c 0,0.96 -0.242,1.368 -1.184,1.368 h -13.9 c -0.753,1.01 -2.068,2.596 -3.511,3.251 0.403,-1.167 0.248,-2.136 0.173,-3.251 H 8.791 C 7.849,33.448 7.579,33.04 7.579,32.08 V 18 c 0,-0.96 0.27,-1.548 1.212,-1.548 h 20.6 c 0.943,0 1.235,0.461 1.235,1.422 z"
         id="path8" />
    </g>
    <g
       fill="url(#d)"
       id="g6"
       style="fill:url(#d)"
       transform="matrix(1.5071197,0,0,1.5071197,-3.7680333,-16.057894)">
      <g
         id="f"
         style="fill:url(#linearGradient10)">
        <path
           stroke="#787878"
           d="m 31.64,17.39 v 15.19 c 0,1.059 -0.823,1.898 -1.862,1.898 h -13.71 c -0.831,1.113 -2.504,2.928 -6.427,4.41 1.725,-2.066 1.827,-3.459 1.632,-4.41 H 8.464 c -1.039,0 -1.893,-0.839 -1.893,-1.898 V 17.39 c 0,-1.059 0.854,-1.93 1.893,-1.93 h 21.32 c 1.039,0 1.862,0.871 1.862,1.93 z"
           id="path5"
           style="fill:url(#linearGradient9)" />
        <path
           stroke="#ffffff"
           fill="none"
           d="m 30.62,17.88 v 14.2 c 0,0.96 -0.242,1.368 -1.184,1.368 h -13.9 c -0.753,1.01 -2.068,2.596 -3.511,3.251 0.403,-1.167 0.248,-2.136 0.173,-3.251 H 8.791 C 7.849,33.448 7.579,33.04 7.579,32.08 V 18 c 0,-0.96 0.27,-1.548 1.212,-1.548 h 20.6 c 0.943,0 1.235,0.461 1.235,1.422 z"
           id="path6" />
      </g>
    </g>
  </g>
  <g
     id="g1"
     transform="matrix(0.47311152,0,0,0.47311152,73.921116,44.491524)">
    <g
       color="#000000"
       transform="matrix(0.11575624,0,0,0.07945209,225.47541,229.23956)"
       id="g20">
      <path
         fill="url(#i)"
         d="M -1559.2523,-150.69685 H -219.6188 V 327.66033 H -1559.2523 Z"
         opacity="0.402062"
         overflow="visible"
         style="fill:url(#i);marker:none"
         id="path18" />
      <path
         fill="url(#j)"
         d="m -219.61876,-150.68038 v 478.33079 c 142.874166,0.90045 345.40022,-107.16966 345.40014,-239.196175 0,-132.026537 -159.436816,-239.134595 -345.40014,-239.134615 z"
         opacity="0.402062"
         overflow="visible"
         style="fill:url(#j);marker:none"
         id="path19" />
      <path
         fill="url(#k)"
         d="m -1559.2523,-150.68038 v 478.33079 c -142.8742,0.90045 -345.4002,-107.16966 -345.4002,-239.196175 0,-132.026537 159.4368,-239.134595 345.4002,-239.134615 z"
         opacity="0.402062"
         overflow="visible"
         style="fill:url(#k);marker:none"
         id="path20" />
    </g>
    <g
       id="g26"
       transform="matrix(5.3467084,0,0,5.3467084,-4.4736902,1.0132255)">
      <rect
         width="34.875"
         height="40.920494"
         x="6.6035528"
         y="3.6464462"
         fill="url(#l)"
         stroke="url(#m)"
         stroke-linecap="round"
         stroke-linejoin="round"
         color="#000000"
         display="block"
         overflow="visible"
         ry="1.1490486"
         style="fill:url(#l);stroke:url(#m);marker:none"
         id="rect20" />
      <rect
         width="32.775887"
         height="38.946384"
         x="7.6660538"
         y="4.5839462"
         fill="none"
         stroke="url(#n)"
         stroke-linecap="round"
         stroke-linejoin="round"
         color="#000000"
         display="block"
         overflow="visible"
         rx="0.14904857"
         ry="0.14904857"
         style="stroke:url(#n);marker:none"
         id="rect21" />
      <g
         transform="translate(0.646447,-0.03798933)"
         id="g23">
        <path
           fill="#ffffff"
           d="m 10.348493,30.217151 c 0,0.453198 -0.3675204,0.820488 -0.8207185,0.820488 -0.4534278,0 -0.8207181,-0.36752 -0.8207181,-0.820488 0,-0.453428 0.36752,-0.820718 0.8207181,-0.820718 0.4531981,0 0.8207185,0.36752 0.8207185,0.820718 z m 0,-11.485 c 0,0.453198 -0.3675204,0.820718 -0.8207185,0.820718 -0.4534278,0 -0.8207181,-0.36752 -0.8207181,-0.820718 0,-0.453428 0.36752,-0.820718 0.8207181,-0.820718 0.4531981,0 0.8207185,0.36752 0.8207185,0.820718 z"
           id="path21" />
        <path
           fill="url(#o)"
           d="m 9.9950109,29.952326 c 0,0.453204 -0.3675248,0.820499 -0.8207288,0.820499 -0.4534338,0 -0.8207289,-0.367524 -0.8207289,-0.820499 0,-0.453434 0.3675248,-0.820729 0.8207289,-0.820729 0.453204,0 0.8207288,0.367525 0.8207288,0.820729 z"
           id="path22"
           style="fill:url(#o)" />
        <path
           fill="url(#p)"
           d="m 9.9950109,18.467176 c 0,0.453204 -0.3675248,0.820729 -0.8207288,0.820729 -0.4534338,0 -0.8207289,-0.367525 -0.8207289,-0.820729 0,-0.453434 0.3675248,-0.820729 0.8207289,-0.820729 0.453204,0 0.8207288,0.367525 0.8207288,0.820729 z"
           id="path23"
           style="fill:url(#p)" />
      </g>
      <path
         fill="none"
         stroke="#000000"
         stroke-opacity="0.0175438"
         stroke-width="0.988553"
         d="M 11.505723,5.4942766 V 43.400869"
         id="path24" />
      <path
         fill="none"
         stroke="#ffffff"
         stroke-opacity="0.204678"
         d="M 12.5,5.0205154 V 43.038228"
         id="path25" />
    </g>
  </g>
  <metadata
     id="metadata10">
    <rdf:RDF>
      <cc:Work
         rdf:about="">
        <dc:source>https://commons.wikimedia.org/wiki/File:Internet-group-chat.svg</dc:source>
        <cc:license
           rdf:resource="http://creativecommons.org/publicdomain/zero/1.0/" />
      </cc:Work>
      <cc:License
         rdf:about="http://creativecommons.org/publicdomain/zero/1.0/">
        <cc:permits
           rdf:resource="http://creativecommons.org/ns#Reproduction" />
        <cc:permits
           rdf:resource="http://creativecommons.org/ns#Distribution" />
        <cc:permits
           rdf:resource="http://creativecommons.org/ns#DerivativeWorks" />
      </cc:License>
    </rdf:RDF>
  </metadata>
</svg>
