<?xml version="1.0" encoding="UTF-8" standalone="no"?>
<svg
   width="256"
   height="256"
   version="1.1"
   id="svg26"
   sodipodi:docname="filefind.svg"
   viewBox="0 0 256 256"
   inkscape:version="1.4.2 (ebf0e940d0, 2025-05-08)"
   xml:space="preserve"
   xmlns:inkscape="http://www.inkscape.org/namespaces/inkscape"
   xmlns:sodipodi="http://sodipodi.sourceforge.net/DTD/sodipodi-0.dtd"
   xmlns:xlink="http://www.w3.org/1999/xlink"
   xmlns="http://www.w3.org/2000/svg"
   xmlns:svg="http://www.w3.org/2000/svg"
   xmlns:rdf="http://www.w3.org/1999/02/22-rdf-syntax-ns#"
   xmlns:cc="http://creativecommons.org/ns#"
   xmlns:dc="http://purl.org/dc/elements/1.1/"><sodipodi:namedview
     id="namedview26"
     pagecolor="#ffffff"
     bordercolor="#000000"
     borderopacity="0.25"
     inkscape:showpageshadow="2"
     inkscape:pageopacity="0.0"
     inkscape:pagecheckerboard="0"
     inkscape:deskcolor="#d1d1d1"
     inkscape:zoom="2.8880208"
     inkscape:cx="148.19838"
     inkscape:cy="166.72318"
     inkscape:current-layer="svg26" /><defs
     id="defs18"><radialGradient
       xlink:href="#a"
       id="k"
       cx="605.71429"
       cy="486.64789"
       r="117.14286"
       fx="605.71429"
       fy="486.64789"
       gradientTransform="matrix(-2.77439,0,0,1.9697,112.7623,-872.8854)"
       gradientUnits="userSpaceOnUse" /><radialGradient
       xlink:href="#a"
       id="j"
       cx="605.71429"
       cy="486.64789"
       r="117.14286"
       fx="605.71429"
       fy="486.64789"
       gradientTransform="matrix(2.77439,0,0,1.9697,-1891.633,-872.8854)"
       gradientUnits="userSpaceOnUse" /><radialGradient
       id="g"
       cx="20.892099"
       cy="64.567902"
       r="5.257"
       fx="20.892099"
       fy="64.567902"
       gradientUnits="userSpaceOnUse"><stop
         offset="0"
         stop-color="#F0F0F0"
         id="stop1" /><stop
         offset="1"
         stop-color="#9a9a9a"
         id="stop2" /></radialGradient><radialGradient
       id="f"
       cx="20.892099"
       cy="114.5684"
       r="5.256"
       fx="20.892099"
       fy="114.5684"
       gradientUnits="userSpaceOnUse"><stop
         offset="0"
         stop-color="#F0F0F0"
         id="stop3" /><stop
         offset="1"
         stop-color="#9a9a9a"
         id="stop4" /></radialGradient><radialGradient
       xlink:href="#b"
       id="q"
       cx="55"
       cy="125"
       r="14.375"
       fx="55"
       fy="125"
       gradientUnits="userSpaceOnUse"
       gradientTransform="matrix(0.7833,0,0,0.7833,-6.340883,-86.65168)" /><radialGradient
       xlink:href="#c"
       id="m"
       cx="8.824419"
       cy="3.7561285"
       r="37.751713"
       fx="8.824419"
       fy="3.7561285"
       gradientTransform="matrix(0.96827,0,0,1.03277,3.353553,0.646447)"
       gradientUnits="userSpaceOnUse" /><radialGradient
       xlink:href="#d"
       id="l"
       cx="33.966679"
       cy="35.736916"
       r="86.70845"
       fx="33.966679"
       fy="35.736916"
       gradientTransform="scale(0.9605,1.04113)"
       gradientUnits="userSpaceOnUse" /><radialGradient
       xlink:href="#e"
       id="n"
       cx="8.1435566"
       cy="7.2678967"
       r="38.158695"
       fx="8.1435566"
       fy="7.2678967"
       gradientTransform="matrix(0.96827,0,0,1.03277,3.353553,0.646447)"
       gradientUnits="userSpaceOnUse" /><radialGradient
       xlink:href="#f"
       id="o"
       cx="20.892099"
       cy="114.5684"
       r="5.256"
       fx="20.892099"
       fy="114.5684"
       gradientTransform="matrix(0.2297,0,0,0.2297,4.613529,3.979808)"
       gradientUnits="userSpaceOnUse" /><radialGradient
       xlink:href="#g"
       id="p"
       cx="20.892099"
       cy="64.567902"
       r="5.257"
       fx="20.892099"
       fy="64.567902"
       gradientTransform="matrix(0.2297,0,0,0.2297,4.613529,3.979808)"
       gradientUnits="userSpaceOnUse" /><linearGradient
       id="a"><stop
         offset="0"
         id="stop5" /><stop
         offset="1"
         stop-opacity="0"
         id="stop6" /></linearGradient><linearGradient
       id="h"><stop
         offset="0"
         stop-opacity="0"
         id="stop7" /><stop
         offset=".5"
         id="stop8" /><stop
         offset="1"
         stop-opacity="0"
         id="stop9" /></linearGradient><linearGradient
       xlink:href="#h"
       id="i"
       x1="302.85715"
       x2="302.85715"
       y1="366.64789"
       y2="609.50507"
       gradientTransform="matrix(2.77439,0,0,1.9697,-1892.179,-872.8854)"
       gradientUnits="userSpaceOnUse" /><linearGradient
       id="e"><stop
         offset="0"
         stop-color="#fff"
         id="stop10" /><stop
         offset="1"
         stop-color="#f8f8f8"
         id="stop11" /></linearGradient><linearGradient
       id="c"><stop
         offset="0"
         stop-color="#a3a3a3"
         id="stop12" /><stop
         offset="1"
         stop-color="#4c4c4c"
         id="stop13" /></linearGradient><linearGradient
       id="d"><stop
         offset="0"
         stop-color="#fafafa"
         id="stop14" /><stop
         offset="1"
         stop-color="#bbb"
         id="stop15" /></linearGradient><linearGradient
       id="b"><stop
         offset="0"
         stop-color="#fff"
         id="stop16" /><stop
         offset=".5"
         stop-color="#fff520"
         stop-opacity=".89108908"
         id="stop17" /><stop
         offset="1"
         stop-color="#fff300"
         stop-opacity="0"
         id="stop18" /></linearGradient><linearGradient
       id="k-3"
       y2="30.6"
       gradientUnits="userSpaceOnUse"
       x2="31.299999"
       y1="23.35"
       x1="27.01"><stop
         stop-color="#8a8a8a"
         offset="0"
         id="stop1-6" /><stop
         stop-color="#484848"
         offset="1"
         id="stop2-7" /></linearGradient><linearGradient
       id="SVGID_3_"
       y2="55.650002"
       gradientUnits="userSpaceOnUse"
       x2="-144.3"
       gradientTransform="matrix(1.335,0,0,-1.291,229.6,104.1)"
       y1="52.709999"
       x1="-146.89999"><stop
         stop-color="#7d7d7d"
         offset="0"
         id="stop3-5" /><stop
         stop-color="#b1b1b1"
         offset=".5"
         id="stop4-3" /><stop
         stop-color="#686868"
         offset="1"
         id="stop5-5" /></linearGradient><linearGradient
       id="c-6"
       y2="25.860001"
       gradientUnits="userSpaceOnUse"
       x2="17.83"
       y1="10.73"
       x1="18.809999"><stop
         stop-color="#fff"
         offset="0"
         id="stop6-2" /><stop
         stop-color="#fff"
         stop-opacity=".22"
         offset=".5"
         id="stop7-9" /><stop
         stop-color="#fff"
         offset="1"
         id="stop8-1" /></linearGradient><radialGradient
       id="r"
       gradientUnits="userSpaceOnUse"
       cy="81.5"
       cx="-171.7"
       gradientTransform="matrix(1.399,0,0,-1.399,259.5,136.2)"
       r="8.3100004"><stop
         stop-color="#729fcf"
         stop-opacity=".21"
         offset="0"
         id="stop9-2" /><stop
         stop-color="#729fcf"
         stop-opacity=".68"
         offset="1"
         id="stop10-7" /></radialGradient><radialGradient
       id="b-0"
       gradientUnits="userSpaceOnUse"
       cy="-511.60001"
       cx="-174.5"
       gradientTransform="matrix(1.446,0,0,-0.362,276.2,-145.1)"
       r="16.530001"><stop
         offset="0"
         id="stop11-9" /><stop
         stop-opacity="0"
         offset="1"
         id="stop12-3" /></radialGradient><radialGradient
       id="g-6"
       gradientUnits="userSpaceOnUse"
       cy="166.39999"
       cx="-296.79999"
       gradientTransform="matrix(2.593,0,0,-2.252,784.6,385.3)"
       r="6.6599998"><stop
         stop-color="#fff"
         offset="0"
         id="stop13-0" /><stop
         stop-color="#fff"
         stop-opacity=".25"
         offset="1"
         id="stop14-6" /></radialGradient><radialGradient
       id="s"
       gradientUnits="userSpaceOnUse"
       cy="-1674"
       cx="314.89999"
       gradientTransform="matrix(0.498,0,0,-0.145,-135.8,-204.1)"
       r="16.530001"><stop
         stop-color="#fff"
         offset="0"
         id="stop15-2" /><stop
         stop-color="#fff"
         stop-opacity="0"
         offset="1"
         id="stop16-6" /></radialGradient></defs><g
     color="#000000"
     transform="matrix(0.11575624,0,0,0.07945209,225.47541,229.23956)"
     id="g20"><path
       fill="url(#i)"
       d="M -1559.2523,-150.69685 H -219.6188 V 327.66033 H -1559.2523 Z"
       opacity="0.402062"
       overflow="visible"
       style="fill:url(#i);marker:none"
       id="path18" /><path
       fill="url(#j)"
       d="m -219.61876,-150.68038 v 478.33079 c 142.874166,0.90045 345.40022,-107.16966 345.40014,-239.196175 0,-132.026537 -159.436816,-239.134595 -345.40014,-239.134615 z"
       opacity="0.402062"
       overflow="visible"
       style="fill:url(#j);marker:none"
       id="path19" /><path
       fill="url(#k)"
       d="m -1559.2523,-150.68038 v 478.33079 c -142.8742,0.90045 -345.4002,-107.16966 -345.4002,-239.196175 0,-132.026537 159.4368,-239.134595 345.4002,-239.134615 z"
       opacity="0.402062"
       overflow="visible"
       style="fill:url(#k);marker:none"
       id="path20" /></g><g
     id="g26"
     transform="matrix(5.3467084,0,0,5.3467084,-4.4736902,1.0132255)"><rect
       width="34.875"
       height="40.920494"
       x="6.6035528"
       y="3.6464462"
       fill="url(#l)"
       stroke="url(#m)"
       stroke-linecap="round"
       stroke-linejoin="round"
       color="#000000"
       display="block"
       overflow="visible"
       ry="1.1490486"
       style="fill:url(#l);stroke:url(#m);marker:none"
       id="rect20" /><rect
       width="32.775887"
       height="38.946384"
       x="7.6660538"
       y="4.5839462"
       fill="none"
       stroke="url(#n)"
       stroke-linecap="round"
       stroke-linejoin="round"
       color="#000000"
       display="block"
       overflow="visible"
       rx="0.14904857"
       ry="0.14904857"
       style="stroke:url(#n);marker:none"
       id="rect21" /><g
       transform="translate(0.646447,-0.03798933)"
       id="g23"><path
         fill="#ffffff"
         d="m 10.348493,30.217151 c 0,0.453198 -0.3675204,0.820488 -0.8207185,0.820488 -0.4534278,0 -0.8207181,-0.36752 -0.8207181,-0.820488 0,-0.453428 0.36752,-0.820718 0.8207181,-0.820718 0.4531981,0 0.8207185,0.36752 0.8207185,0.820718 z m 0,-11.485 c 0,0.453198 -0.3675204,0.820718 -0.8207185,0.820718 -0.4534278,0 -0.8207181,-0.36752 -0.8207181,-0.820718 0,-0.453428 0.36752,-0.820718 0.8207181,-0.820718 0.4531981,0 0.8207185,0.36752 0.8207185,0.820718 z"
         id="path21" /><path
         fill="url(#o)"
         d="m 9.9950109,29.952326 c 0,0.453204 -0.3675248,0.820499 -0.8207288,0.820499 -0.4534338,0 -0.8207289,-0.367524 -0.8207289,-0.820499 0,-0.453434 0.3675248,-0.820729 0.8207289,-0.820729 0.453204,0 0.8207288,0.367525 0.8207288,0.820729 z"
         id="path22"
         style="fill:url(#o)" /><path
         fill="url(#p)"
         d="m 9.9950109,18.467176 c 0,0.453204 -0.3675248,0.820729 -0.8207288,0.820729 -0.4534338,0 -0.8207289,-0.367525 -0.8207289,-0.820729 0,-0.453434 0.3675248,-0.820729 0.8207289,-0.820729 0.453204,0 0.8207288,0.367525 0.8207288,0.820729 z"
         id="path23"
         style="fill:url(#p)" /></g><path
       fill="none"
       stroke="#000000"
       stroke-opacity="0.0175438"
       stroke-width="0.988553"
       d="M 11.505723,5.4942766 V 43.400869"
       id="path24" /><path
       fill="none"
       stroke="#ffffff"
       stroke-opacity="0.204678"
       d="M 12.5,5.0205154 V 43.038228"
       id="path25" /></g><path
     fill="url(#q)"
     d="m 48.000554,11.26082 a 11.259938,11.259938 0 1 1 -22.519875,0 11.259938,11.259938 0 1 1 22.519875,0 z"
     color="#000000"
     display="none"
     style="fill:url(#q);stroke-width:0.7833;marker:none"
     id="path26"
     transform="matrix(5.3467084,0,0,5.3467084,-4.4736902,1.0132255)" /><metadata
     id="metadata26"><rdf:RDF><cc:Work
         rdf:about=""><dc:source>https://commons.wikimedia.org/wiki/File:Document-new.svg</dc:source><cc:license
           rdf:resource="http://creativecommons.org/publicdomain/zero/1.0/" /></cc:Work><cc:License
         rdf:about="http://creativecommons.org/publicdomain/zero/1.0/"><cc:permits
           rdf:resource="http://creativecommons.org/ns#Reproduction" /><cc:permits
           rdf:resource="http://creativecommons.org/ns#Distribution" /><cc:permits
           rdf:resource="http://creativecommons.org/ns#DerivativeWorks" /></cc:License></rdf:RDF></metadata><g
     id="g19"
     transform="matrix(5.3116092,0,0,5.3116092,1.9517185,0.09340664)"><ellipse
       opacity="0.17"
       rx="23.9"
       ry="5.98"
       cy="39.959999"
       cx="23.92"
       fill="url(#b)"
       id="ellipse16"
       style="fill:url(#b-0)" /><g
       fill="#dcdcdc"
       id="g17"><path
         d="m 18.63,3.14 c -8.14,0 -14.75,6.61 -14.75,14.75 0,8.14 6.61,14.74 14.75,14.74 3.48,0 6.55,-1.38 9.1,-3.4 -0.2,1 -0.08,2.04 0.76,2.76 l 10.96,9.53 c 1.23,1.07 3.09,0.93 4.16,-0.3 1.07,-1.24 0.93,-3.09 -0.3,-4.16 L 32.34,27.53 c -0.67,-0.58 -1.49,-0.76 -2.3,-0.64 1.98,-2.52 3.36,-5.55 3.36,-9 C 33.4,9.75 26.8,3.14 18.66,3.14 Z m -0.08,1.23 c 7.64,0 13.29,4.79 13.29,13.29 0,8.68 -5.81,13.29 -13.29,13.29 -7.3,0 -13.29,-5.47 -13.29,-13.29 0,-7.98 5.82,-13.29 13.29,-13.29 z"
         stroke="url(#k)"
         stroke-linecap="round"
         stroke-width="2"
         id="path16"
         style="stroke:url(#k-3)" /><path
         d="m 18.6,3.08 c -8.16,0 -14.79,6.63 -14.79,14.79 0,8.17 6.63,14.8 14.79,14.8 3.49,0 6.58,-1.39 9.11,-3.42 -0.21,1 -0.08,2.04 0.75,2.77 l 11,9.56 c 1.24,1.07 3.1,0.93 4.18,-0.3 1.07,-1.24 0.93,-3.1 -0.31,-4.18 l -11,-9.56 C 31.66,26.96 30.84,26.79 30.02,26.9 32.01,24.38 33.4,21.33 33.4,17.9 33.4,9.74 26.77,3.11 18.6,3.11 M 18.53,6.3 c 6.28,0 11.38,5.09 11.38,11.38 0,6.28 -5.1,11.37 -11.38,11.37 -6.28,0 -11.38,-5.09 -11.38,-11.37 0,-6.29 5.1,-11.38 11.38,-11.38"
         id="path17" /></g><path
       d="M 39.51,41.58 C 39.03,39.3 40.9,36.77 43.09,36.79 L 32.33,27.53 c -2.94,-0.06 -4.27,2.27 -3.78,4.6 l 10.96,9.45"
       fill="url(#SVGID_3_)"
       id="path18-1"
       style="fill:url(#SVGID_3_)" /><circle
       cy="17.4"
       stroke="url(#c)"
       cx="18.379999"
       r="13.77"
       fill="none"
       id="circle18"
       style="stroke:url(#c-6)" /><ellipse
       rx="8.2299995"
       ry="2.4000001"
       cy="38.77"
       cx="20.99"
       fill="url(#s)"
       id="ellipse18"
       style="fill:url(#s)" /><circle
       cy="17.549999"
       stroke="#3063a3"
       cx="18.379999"
       r="11.62"
       fill="url(#r)"
       id="circle19"
       style="fill:url(#r)" /><path
       opacity="0.83"
       d="m 18.2,7.4 c -5.21,0 -9.43,4.21 -9.43,9.42 0,1.51 0.42,2.89 1.05,4.15 1.25,0.46 2.58,0.78 3.99,0.78 6.18,0 11.1,-4.86 11.48,-10.94 C 23.56,8.76 21.08,7.4 18.2,7.4"
       fill="url(#g)"
       id="path19-8"
       style="fill:url(#g-6)" /><rect
       opacity="0.43"
       rx="2.4679999"
       transform="matrix(0.753,0.658,-0.6489,0.7609,0,0)"
       height="5"
       width="19"
       stroke="#ffffff"
       y="-0.13"
       x="40.5"
       fill="none"
       id="rect19" /></g></svg>
