<?xml version="1.0" encoding="UTF-8" standalone="no"?>
<!-- Created with Inkscape (http://www.inkscape.org/) -->

<svg
   width="256mm"
   height="256mm"
   viewBox="0 0 256 256"
   version="1.1"
   id="svg1"
   inkscape:version="1.3 (0e150ed6c4, 2023-07-21)"
   sodipodi:docname="fingerprint.svg"
   xml:space="preserve"
   xmlns:inkscape="http://www.inkscape.org/namespaces/inkscape"
   xmlns:sodipodi="http://sodipodi.sourceforge.net/DTD/sodipodi-0.dtd"
   xmlns:xlink="http://www.w3.org/1999/xlink"
   xmlns="http://www.w3.org/2000/svg"
   xmlns:svg="http://www.w3.org/2000/svg"
   xmlns:rdf="http://www.w3.org/1999/02/22-rdf-syntax-ns#"
   xmlns:cc="http://creativecommons.org/ns#"><sodipodi:namedview
     id="namedview1"
     pagecolor="#ffffff"
     bordercolor="#000000"
     borderopacity="0.25"
     inkscape:showpageshadow="2"
     inkscape:pageopacity="0.0"
     inkscape:pagecheckerboard="0"
     inkscape:deskcolor="#d1d1d1"
     inkscape:document-units="mm"
     inkscape:zoom="0.84410376"
     inkscape:cx="572.20454"
     inkscape:cy="308.019"
     inkscape:current-layer="layer1"
     showguides="true"><sodipodi:guide
       position="213.7735,220.64813"
       orientation="0,-1"
       id="guide2"
       inkscape:locked="false" /><sodipodi:guide
       position="215.8791,229.73544"
       orientation="0,-1"
       id="guide3"
       inkscape:locked="false" /><sodipodi:guide
       position="211.6679,48.986566"
       orientation="0,-1"
       id="guide4"
       inkscape:locked="false" /><sodipodi:guide
       position="206.12686,38.680223"
       orientation="0,-1"
       id="guide5"
       inkscape:locked="false" /><sodipodi:guide
       position="31.658331,184.22021"
       orientation="1,0"
       id="guide12"
       inkscape:locked="false" /></sodipodi:namedview><defs
     id="defs1"><linearGradient
       id="linearGradient14"
       inkscape:collect="always"><stop
         style="stop-color:#d8e8fc;stop-opacity:1;"
         offset="0"
         id="stop13" /><stop
         style="stop-color:#e5f1fd;stop-opacity:0.58039216;"
         offset="0.38560358"
         id="stop15" /><stop
         style="stop-color:#ecf6fe;stop-opacity:0.36862745;"
         offset="0.70534778"
         id="stop16" /><stop
         style="stop-color:#eff8fe;stop-opacity:0.2627451;"
         offset="0.91485381"
         id="stop17" /><stop
         style="stop-color:#f3fbff;stop-opacity:0.16145308;"
         offset="1"
         id="stop14" /></linearGradient><linearGradient
       id="linearGradient8"
       inkscape:collect="always"><stop
         style="stop-color:#2c87e8;stop-opacity:0.85166496;"
         offset="0"
         id="stop9" /><stop
         style="stop-color:#1192ff;stop-opacity:0.05146317;"
         offset="1"
         id="stop10" /></linearGradient><linearGradient
       id="linearGradient5"
       inkscape:collect="always"><stop
         style="stop-color:#106cfe;stop-opacity:0.45307773;"
         offset="0"
         id="stop5" /><stop
         style="stop-color:#0181fe;stop-opacity:0.34901962;"
         offset="0.375"
         id="stop11" /><stop
         style="stop-color:#1087fe;stop-opacity:0.29803923;"
         offset="0.5625"
         id="stop12" /><stop
         style="stop-color:#65abfe;stop-opacity:0.24705882;"
         offset="0.75"
         id="stop8" /><stop
         style="stop-color:#73bdff;stop-opacity:0;"
         offset="1"
         id="stop6" /></linearGradient><linearGradient
       inkscape:collect="always"
       xlink:href="#linearGradient5"
       id="linearGradient6"
       x1="209.54834"
       y1="124.2431"
       x2="239.14394"
       y2="124.2431"
       gradientUnits="userSpaceOnUse" /><linearGradient
       inkscape:collect="always"
       xlink:href="#linearGradient8"
       id="linearGradient10"
       x1="33.474136"
       y1="27.503958"
       x2="232.9093"
       y2="228.95338"
       gradientUnits="userSpaceOnUse"
       gradientTransform="matrix(0.88083163,0,0,1,26.491927,0)" /><radialGradient
       inkscape:collect="always"
       xlink:href="#linearGradient14"
       id="radialGradient14"
       cx="110.04903"
       cy="15.549088"
       fx="110.04903"
       fy="15.549088"
       r="76.77639"
       gradientTransform="matrix(1.8198829,-0.55039856,0.58556188,1.9361494,-136.05589,76.772841)"
       gradientUnits="userSpaceOnUse" /><filter
       inkscape:collect="always"
       style="color-interpolation-filters:sRGB"
       id="filter17"
       x="-0.045121374"
       y="-0.05667383"
       width="1.0902427"
       height="1.1133477"><feGaussianBlur
         inkscape:collect="always"
         stdDeviation="2.8868802"
         id="feGaussianBlur17" /></filter><linearGradient
       inkscape:collect="always"
       xlink:href="#linearGradient5"
       id="linearGradient17"
       gradientUnits="userSpaceOnUse"
       x1="241.59177"
       y1="125.65678"
       x2="228.77695"
       y2="125.65678" /></defs><g
     inkscape:label="Ebene 1"
     inkscape:groupmode="layer"
     id="layer1"
     transform="matrix(1.3303525,0,0,1.3303525,-75.233566,-37.563408)"><g
       id="g12"><path
         id="rect2"
         style="fill:url(#linearGradient6);stroke-width:0.687123;stroke-linecap:round;stroke-linejoin:round;stroke-miterlimit:1.8;stroke-dashoffset:20.7632;paint-order:stroke fill markers"
         d="m 213.08253,28.758575 h 14.1052 c 9.19426,0.02384 9.12882,8.996042 9.12882,8.996042 V 209.34079 c 0,0 0.0691,9.56391 -7.9375,10.38684 h -14.1052 c 8.81849,-6.12263 7.9375,-10.38684 7.9375,-10.38684 V 37.754617 c 0,0 -0.64716,-8.279574 -9.12882,-8.996042 z"
         sodipodi:nodetypes="ccccccccc"
         inkscape:label="side" /><path
         id="rect1"
         style="display:inline;fill:url(#linearGradient10);stroke-width:0.642858;stroke-linecap:round;stroke-linejoin:round;stroke-miterlimit:1.8;stroke-dashoffset:20.7632;paint-order:stroke fill markers"
         d="m 73.75783,38.406308 c 46.36322,-3.726162 58.46274,-4.971181 140.12368,-9.592873 4.95842,0 8.42519,4.64638 8.42519,10.192973 V 208.61735 c -0.0371,5.93318 -4.05364,11.25131 -9.62878,11.25131 -85.71416,-9.9286 -92.17904,-12.02466 -138.811671,-18.22671 -4.827979,-1.05789 -4.814393,-3.44086 -4.814393,-9.07917 L 68.943437,48.014642 c 0,-5.690496 -0.08638,-8.727467 4.814393,-9.608334 z"
         sodipodi:nodetypes="ccccccccc"
         inkscape:label="Front" /><path
         style="fill:#000000;stroke-width:1.71953"
         d="m 139.74138,198.04154 c -0.16872,-0.4884 0.19248,-1.98365 0.80273,-3.32276 1.96547,-4.31305 4.05104,-11.46949 5.2555,-18.03367 l 1.17451,-6.40106 -0.007,-9.25303 c -0.007,-8.95285 -1.04025,-18.61228 -2.39198,-22.35494 -0.69813,-1.93299 -2.77801,-3.67007 -4.39434,-3.67007 -0.59561,0 -1.78153,0.6103 -2.63535,1.35622 l -1.5524,1.35622 0.2861,2.59946 c 0.15736,1.42967 0.71353,5.73231 1.23593,9.5614 l 0.94981,6.96196 -0.34102,6.81617 c -0.35598,7.11532 -1.28062,12.62651 -3.2336,19.27321 -1.38735,4.72166 -4.18597,11.2824 -5.07227,11.89076 -1.42951,0.9812 -1.19,-0.56469 0.85704,-5.53176 2.99639,-7.2706 3.8034,-10.23065 5.13673,-18.84089 1.1588,-7.4834 1.05839,-14.15703 -0.35481,-23.5747 l -1.21073,-8.06853 0.66352,-1.77915 c 0.76588,-2.0536 3.29839,-3.91909 5.32028,-3.91909 0.76719,0 2.26625,0.64958 3.33122,1.4435 l 1.93634,1.44353 0.92661,3.46151 c 1.75052,6.53929 2.39285,12.33858 2.38125,21.49934 l -0.0118,9.17713 -1.23703,6.82835 c -1.32567,7.31772 -2.60529,11.7265 -5.22824,18.01322 -1.72004,4.12266 -2.07667,4.54548 -2.58726,3.06767 z m 6.22251,-0.8525 c 0.17282,-0.60917 1.13649,-3.67086 2.14146,-6.80374 2.35121,-7.32948 3.13356,-11.13493 3.96856,-19.30363 0.80333,-7.85879 0.88165,-8.22778 1.74695,-8.22778 h 0.66582 l -0.39988,6.05038 c -0.58613,8.86852 -1.96641,15.64129 -4.96494,24.36238 l -1.72945,5.02998 h -0.87135 -0.87138 z m -12.1484,-0.72544 c 0,-0.31196 0.89459,-2.66163 1.98796,-5.22148 2.08051,-4.87099 4.81794,-14.39722 4.83843,-16.83772 0.007,-0.83796 0.36375,-1.42403 0.86675,-1.42403 0.50734,0 0.8548,0.58067 0.8548,1.4285 0,1.74032 -2.36327,11.33894 -3.54398,14.39417 -2.23675,5.78785 -3.48579,8.22778 -4.21192,8.22778 -0.43561,0 -0.79204,-0.25524 -0.79204,-0.56722 z m 18.80546,-0.28307 c 0,-0.46766 0.50586,-2.48326 1.12414,-4.47911 1.162,-3.75108 2.29302,-8.66552 3.50739,-15.24007 0.39443,-2.13537 0.6938,-8.36811 0.68396,-14.24038 l -0.0174,-10.44295 -0.95352,-6.01261 c -1.60811,-10.14024 -2.66108,-13.09371 -6.02839,-16.90894 -1.42738,-1.6172 -3.57277,-3.15233 -5.58777,-3.99829 l -3.27082,-1.37317 -3.53505,0.35424 -3.53508,0.35422 -2.21079,1.55001 c -2.69224,1.88757 -4.99662,4.84321 -6.17081,7.91489 l -0.87807,2.297 0.32667,4.11389 c 0.17966,2.26264 0.4819,5.46672 0.67163,7.12019 0.21731,1.89403 0.12712,3.0063 -0.24391,3.0063 -0.67025,0 -0.88879,-0.71503 -1.83365,-5.9995 -1.62729,-9.10119 1.05106,-16.34515 7.48029,-20.23151 l 2.97694,-1.7995 3.76085,-0.28786 3.76086,-0.28791 3.39927,1.42497 3.39926,1.42497 2.89313,3.26493 c 3.30047,3.72463 4.24668,6.15591 6.04425,15.52944 l 1.27441,6.64553 0.0378,11.70877 0.0377,11.70874 -0.77564,4.43036 c -1.35163,7.72041 -3.75145,16.9812 -4.79728,18.5125 -0.71123,1.04139 -1.54049,1.00955 -1.54049,-0.0592 z m 7.30146,-2.64374 c -0.17623,-0.19575 0.17127,-2.40894 0.77219,-4.91822 0.60095,-2.50927 1.48913,-6.98321 1.97376,-9.94204 l 0.88115,-5.37971 0.0106,-10.75939 c 0.007,-10.36671 -0.37624,-14.41894 -2.18029,-22.95723 -1.3007,-6.15617 -2.30967,-8.88053 -4.53692,-12.25031 -2.49855,-3.78029 -5.62262,-6.24015 -10.34298,-8.14407 l -3.55834,-1.43522 -4.13481,0.30004 -4.13479,0.30003 -3.18922,1.68217 c -1.75408,0.92517 -3.48503,1.68214 -3.84658,1.68214 -1.23789,0 -0.6576,-1.14061 1.1994,-2.35747 10.28202,-6.73771 23.95864,-2.87955 30.58646,8.62841 2.11257,3.66806 3.06547,6.83802 4.67867,15.56433 l 1.28701,6.96195 9.5e-4,11.70877 9.4e-4,11.70879 -1.25892,6.96195 c -1.96796,10.88291 -3.00045,13.98581 -4.20763,12.64508 z m -35.79456,-2.42968 c 0,-0.53126 0.52357,-1.95144 1.16347,-3.15599 1.29754,-2.44247 3.13719,-7.95412 4.2575,-12.75555 2.29757,-9.84714 2.44943,-18.0616 0.54989,-29.74662 -1.10732,-6.81177 -0.86198,-9.70737 1.10174,-13.00305 4.72305,-7.9266 16.45084,-5.90849 19.91895,3.42766 1.07017,2.8808 2.54153,11.8933 2.98403,18.27786 l 0.38382,5.53793 h -0.93315 -0.93315 l -0.0106,-3.0063 c -0.0106,-2.7543 -1.05854,-11.04694 -1.98229,-15.66443 -1.1518,-5.75736 -2.86636,-8.59919 -6.25572,-10.36863 -3.20856,-1.67508 -5.54794,-1.69536 -8.56308,-0.0743 l -2.35446,1.26587 -1.31081,2.5903 -1.3108,2.59027 0.30123,3.26405 c 0.16567,1.79521 0.6175,5.11528 1.00408,7.37791 0.90442,5.29375 0.91443,18.83997 0.0177,23.73398 -1.0392,5.67047 -3.19986,12.88871 -5.00989,16.73685 -1.60279,3.40745 -3.01896,4.80169 -3.01896,2.97217 z m -4.5589,-2.95801 c 0,-0.35965 0.62438,-2.02247 1.38755,-3.69509 3.282,-7.19323 5.44447,-17.71268 5.44862,-26.50517 9.4e-4,-4.60457 0.77833,-6.10135 1.50235,-2.89734 0.4747,2.10052 -0.69447,15.23874 -1.73628,19.51114 -0.94111,3.85944 -3.44365,10.77382 -4.62276,12.77243 -0.89471,1.51655 -1.97948,1.96265 -1.97948,0.81403 z m 47.51509,-0.26511 c 0.4823,0 -0.16438,-1.19428 0.0227,-1.53066 0.63542,-1.14192 1.92458,-11.13085 2.25683,-17.48683 0.315,-6.02611 -0.26502,-18.16766 -1.11117,-23.25931 l -0.39443,-2.37341 h 0.88215 0.88213 l 0.64639,3.32276 c 0.35552,1.82753 0.79078,7.59488 0.96726,12.81635 l 0.32086,9.49361 -0.91677,7.59485 c -0.50422,4.17721 -1.18671,8.66292 -1.51669,9.96828 -0.61871,2.44782 -3.57544,1.45436 -2.03937,1.45436 z m -51.20943,-3.49382 c -0.18835,-0.33848 0.33578,-2.26093 1.16474,-4.2721 0.82896,-2.01118 2.0317,-5.79275 2.67271,-8.40349 l 1.1655,-4.74681 0.058,-7.91133 0.0579,-7.91132 -1.06049,-5.63969 -1.0605,-5.6397 0.39025,-3.83096 c 0.4086,-4.01103 2.58799,-9.75585 4.38701,-11.56407 1.49428,-1.50189 2.04514,-0.49896 0.84694,1.54198 -3.60616,6.14254 -4.43396,11.61647 -2.93929,19.43627 2.51209,13.14263 1.28369,26.09779 -3.46048,36.4957 -1.46846,3.2185 -1.66931,3.43951 -2.22243,2.44552 z m 58.79455,-4.31723 c -0.11709,-0.24589 0.0164,-3.43752 0.2963,-7.09257 1.20605,-15.74085 -1.33461,-36.30553 -5.7339,-46.41137 -5.12884,-11.78174 -17.08001,-20.04378 -28.99365,-20.04378 h -4.14296 v -0.94935 -0.94935 l 4.13148,0.008 c 7.91883,0.0179 14.10617,2.45061 21.12129,8.30421 7.27543,6.07086 11.17143,13.6499 13.45779,26.17983 0.31758,1.74049 0.85558,4.56457 1.19553,6.27577 0.85899,4.32371 1.36965,20.96027 0.86959,28.32946 l -0.41559,6.12445 -0.78648,0.33521 c -0.43258,0.18434 -0.88231,0.13402 -0.9994,-0.1118 z M 112.3283,178.5183 c 0.1652,-0.7832 0.96439,-3.51617 1.77601,-6.07323 0.81159,-2.55707 1.47955,-5.40512 1.48436,-6.32905 0.005,-0.92394 0.25056,-2.1047 0.54614,-2.62394 l 0.53739,-0.94407 0.53964,0.62763 c 0.82671,0.9615 -1.50222,11.60752 -3.42562,15.65912 -0.76004,1.60101 -1.81409,1.37221 -1.45792,-0.31646 z m -3.39352,-5.37971 c -0.86964,0 0.73777,-3.59171 1.24539,-5.85437 1.23014,-5.48319 1.22391,-14.2715 -0.0148,-20.86366 l -1.00671,-5.35744 0.31619,-5.4203 c 0.33356,-5.71805 0.60893,-6.76963 3.45869,-13.20777 3.28477,-7.42092 12.03155,-15.21594 18.35201,-16.3551 2.5063,-0.45172 2.57942,0.67663 0.10814,1.66613 -7.05752,2.82571 -12.578,7.49729 -16.11353,13.63572 -2.78652,4.838 -3.83334,8.8085 -4.12636,15.65104 l -0.26297,6.14078 0.69637,2.08704 c 0.383,1.14785 0.82848,5.64711 0.98996,9.99836 l 0.29359,7.91131 -0.93288,4.11389 c -1.18687,5.2339 -2.04487,7.59488 -2.76004,7.59488 -0.31506,0 0.63819,-1.74051 -0.24293,-1.74051 z m 32.83427,-12.0252 -0.0245,-8.70245 -1.05423,-6.32907 c -1.03563,-6.2173 -0.72522,-9.3564 0.55778,-5.64099 1.73011,5.01017 3.07511,24.99931 1.90914,28.37385 -0.92442,2.67558 -1.36586,0.22669 -1.38818,-7.70134 z m 39.67798,7.33105 c -0.13052,-0.46408 -0.38911,-5.06945 -0.57442,-10.23418 -0.18534,-5.16471 -0.57085,-10.57606 -0.85669,-12.02521 -0.28584,-1.44915 -0.81546,-4.34365 -1.17694,-6.43225 -1.21327,-7.01011 -3.35748,-13.89261 -5.61958,-18.03782 -2.0891,-3.82822 -2.39893,-5.06328 -1.27019,-5.06328 0.74868,0 4.29864,6.38995 5.62583,10.12653 2.47388,6.96507 4.11562,15.96353 5.2539,28.79724 0.76014,8.57013 0.61552,13.06998 -0.43241,13.45269 -0.39162,0.14298 -0.81888,-0.11968 -0.9495,-0.58372 z m -75.75861,-0.38183 c -0.18294,-0.32877 -0.0851,-2.27602 0.21731,-4.32726 0.81454,-5.52427 0.68735,-9.00928 -0.64961,-17.79812 l -1.20612,-7.92878 0.67243,-4.82399 c 1.62435,-11.65303 6.48993,-20.66827 14.53253,-26.92666 4.37063,-3.401 6.62023,-4.53462 12.07166,-6.08307 12.27378,-3.486396 26.43818,0.60643 35.96827,10.39306 1.63108,1.67499 2.44238,3.55231 1.53514,3.55231 -0.1743,0 -1.90144,-1.42396 -3.8381,-3.16434 -4.78549,-4.3005 -10.21362,-7.35435 -15.89073,-8.94007 l -4.74326,-1.32492 -5.98355,0.30887 -5.98355,0.30885 -4.68785,2.01566 c -10.40099,4.47219 -17.71091,13.52157 -20.73533,25.66924 -1.04659,4.20363 -0.92113,13.99999 0.25701,20.06808 1.11398,5.73759 1.20251,10.50329 0.2818,15.16817 -0.70997,3.59723 -1.28022,4.79947 -1.81805,3.83297 z m 10.46327,-11.37956 c 0.001,-1.65347 -0.53516,-6.49931 -1.19156,-10.76855 l -1.19345,-7.76227 0.84398,-4.59648 c 1.13786,-6.19703 2.86508,-10.04447 6.41694,-14.29382 9.72476,-11.63445 26.98871,-11.92738 38.10225,-0.64655 5.02749,5.10319 8.48242,12.05103 9.66773,19.44204 l 0.3371,2.10203 -0.92071,-0.20334 -0.92067,-0.20331 -0.96989,-4.14508 c -3.44656,-14.72992 -15.10763,-24.24107 -28.47334,-23.22363 l -4.35392,0.33143 -3.68688,1.86894 c -7.5269,3.81548 -12.46378,10.98793 -13.71701,19.92833 l -0.58934,4.20422 1.17823,7.58176 c 0.64802,4.16998 1.17822,8.88878 1.17822,10.48619 v 2.90439 h -0.85478 -0.85478 z m -14.70633,-3.16454 c -0.36208,-3.04584 -0.93923,-7.38917 -1.28256,-9.65181 -1.264091,-8.33067 0.17831,-17.63329 4.12038,-26.57424 l 2.36845,-5.37184 4.60662,-5.11242 c 5.14483,-5.70972 9.65062,-8.797764 16.56015,-11.349597 l 4.54533,-1.678682 5.73609,-0.360773 c 7.72158,-0.485651 17.94031,1.448823 17.94031,3.396214 0,1.094729 -0.16043,1.082835 -5.48401,-0.40691 -11.3061,-3.163923 -23.69621,-0.650663 -33.06943,6.707928 -9.32979,7.32455 -15.15955,18.74718 -15.96055,31.27248 l -0.34505,5.39548 1.25861,8.73962 c 0.69225,4.8068 1.11925,9.14303 0.9489,9.63606 -0.70775,2.04844 -1.32253,0.58004 -1.94324,-4.64151 z m 84.90044,-4.43034 c -1.31474,-11.39988 -3.72762,-21.00657 -7.11351,-28.32254 l -2.34331,-5.06326 -5.15321,-5.72605 -5.1532,-5.72604 -3.98905,-2.43654 c -4.85086,-2.962942 -4.62334,-2.748563 -3.84016,-3.618339 l 0.64275,-0.713832 4.27689,2.717761 c 7.37421,4.68594 14.63903,13.41479 18.43385,22.14853 2.72609,6.27408 5.64339,19.47267 6.26014,28.32257 l 0.31977,4.58859 h -0.81463 -0.81464 z m 4.11082,-12.02522 c -3.37666,-16.02289 -7.62405,-24.65413 -16.5206,-33.57188 -16.12875,-16.167214 -41.13097,-18.69178 -58.07114,-5.863655 -2.0135,1.524771 -2.56436,1.6166 -2.56436,0.427561 0,-1.748347 9.19761,-6.912654 15.99572,-8.981333 4.41243,-1.342694 14.2513,-1.836442 19.25498,-0.966269 16.33975,2.841603 30.07044,13.738246 38.38239,30.460196 1.97102,3.96528 4.61354,12.71851 5.29702,17.54603 l 0.38083,2.68984 h -0.89402 c -0.50649,0 -1.05304,-0.75449 -1.26082,-1.74049 z M 96.546484,126.24732 c -0.519201,-0.93305 1.062073,-5.98945 3.732856,-11.93651 l 2.33032,-5.18899 3.80776,-4.57775 3.80777,-4.577783 0.71727,0.492353 0.71727,0.49233 -3.0562,3.57826 c -4.90634,5.74442 -8.06893,11.61788 -10.10568,18.76801 -0.834891,2.93091 -1.447043,3.85636 -1.951366,2.95008 z m 95.321906,-6.58927 c -0.63813,-1.33064 -1.59815,-3.25211 -3.43502,-6.8753 -1.10188,-2.1734 -4.33384,-6.72274 -7.3064,-10.28453 C 172.25431,91.866802 156.0176,83.741112 143.64561,83.740705 l -2.99176,-9.8e-5 v -1.043374 -1.04336 l 4.71044,0.369195 c 17.46698,1.369034 33.79319,11.781964 43.65896,27.845912 2.66697,4.34254 5.24904,9.97574 4.87807,10.64238 -0.53722,0.96539 -1.31776,0.63777 -2.03293,-0.85331 z M 97.344519,109.49993 c 0,-2.50484 8.398431,-12.69782 14.246431,-17.290589 6.79969,-5.340167 16.06662,-9.259274 23.36427,-9.88106 2.7264,-0.2323 2.86058,0.977701 0.17714,1.597239 -10.87115,2.509878 -14.53737,4.023914 -21.35242,8.817954 -4.50664,3.170178 -11.31776,10.555426 -13.860114,15.028336 -1.442364,2.53763 -2.575307,3.29787 -2.575307,1.72812 z m 90.105451,-8.70269 c -4.45018,-5.359354 -11.48541,-11.798806 -14.62761,-13.388878 -1.41443,-0.715755 -1.9386,-2.401949 -0.74667,-2.401949 2.17468,0 12.51734,8.835317 17.01641,14.536446 3.75851,4.762681 4.26521,5.662991 3.60181,6.399791 -0.2939,0.3264 -2.48822,-1.82671 -5.24394,-5.14541 z M 99.054104,97.764854 c 0,-1.065965 7.282376,-8.263257 11.232656,-11.101421 4.29779,-3.087851 10.71502,-6.59696 13.55615,-7.412893 0.94029,-0.270039 3.24821,-0.933829 5.12876,-1.475106 4.93984,-1.421817 15.02392,-1.931712 21.0849,-1.066169 5.77375,0.82455 17.92457,4.953634 18.36987,6.242455 0.53884,1.559526 -0.36716,1.602537 -3.38488,0.160733 -3.2534,-1.554409 -8.35725,-3.17408 -14.00364,-4.443908 l -3.57756,-0.804562 -7.24981,0.352162 c -15.21849,0.739242 -26.38683,5.785351 -36.31265,16.40683 -3.1513,3.372156 -4.843796,4.469963 -4.843796,3.141879 z m 88.187606,-6.271147 c -1.33297,-1.305381 -2.55178,-2.550605 -2.70848,-2.767195 -0.15669,-0.216589 -2.52838,-2.014308 -5.27038,-3.994935 -8.25132,-5.960168 -16.25307,-9.463871 -26.294,-11.513285 l -5.13389,-1.047859 -7.72208,0.400147 c -4.24711,0.220079 -8.46071,0.585219 -9.36352,0.811407 l -1.64151,0.41126 0.25944,-0.880707 c 0.59718,-2.027306 13.10401,-3.047311 22.06431,-1.799487 4.37886,0.609808 6.51191,1.133136 12.87152,3.157949 8.40449,2.675885 26.49857,15.493246 26.49857,18.770893 0,1.382215 -1.02107,0.938177 -3.55998,-1.548188 z m -85.00955,-3.876909 c -0.41709,-0.749521 3.53226,-4.280378 8.4664,-7.569254 3.74386,-2.495505 10.65743,-5.795503 14.22511,-6.790008 l 1.63221,-0.454987 -0.25983,0.865771 c -0.14291,0.476176 -1.90731,1.518144 -3.92088,2.315495 -5.54566,2.196013 -8.32776,3.761042 -13.6335,7.669311 -2.66408,1.96239 -5.14722,3.78521 -5.51811,4.050729 -0.37088,0.265519 -0.81701,0.226344 -0.9914,-0.08713 z m 80.80568,-7.568635 c -3.13841,-2.2521 -10.48298,-6.591932 -13.03611,-7.702933 -1.11451,-0.484982 -4.26997,-1.641095 -8.26298,-3.027436 -1.09698,-0.38086 -4.55892,-1.173159 -7.69313,-1.760648 l -5.69862,-1.068171 -7.69315,0.363307 c -7.68782,0.363055 -12.00161,1.183263 -18.67369,3.550535 -4.22144,1.497788 -10.50269,4.662889 -12.69601,6.397465 -1.76862,1.398707 -3.60725,1.65465 -3.25447,0.453033 0.292,-0.994543 10.49537,-6.773149 14.679,-8.313337 13.35756,-4.917516 27.59534,-5.479105 40.80024,-1.609314 2.47708,0.725924 5.08454,1.473845 5.79439,1.662049 0.70984,0.188201 1.43017,0.592987 1.60075,0.899521 0.1706,0.306536 0.68279,0.557337 1.13821,0.557337 2.25873,0 17.34026,9.314302 17.34026,10.709291 0,1.44784 -1.2104,1.138412 -4.34469,-1.110699 z m -5.91283,-10.720121 c -7.4977,-3.9317 -10.21726,-4.872716 -21.83189,-7.554234 -1.1944,-0.275758 -2.09195,-0.786187 -1.99452,-1.134285 0.39729,-1.419502 8.77935,0.220011 16.98806,3.322825 5.09866,1.927235 11.96712,5.633677 11.96712,6.457827 0,1.277821 -1.02588,1.059372 -5.12877,-1.092133 z m -65.97147,-0.935417 c 0.64489,-2.243356 14.27427,-7.29229 23.51674,-8.711648 5.47706,-0.841104 14.63613,-0.603722 14.93132,0.386992 l 0.20687,0.694259 -8.42389,0.376151 -8.42387,0.376149 -5.68848,1.620265 c -5.86207,1.669706 -13.27353,4.535306 -14.22814,5.5012 -0.81798,0.827654 -2.14916,0.656292 -1.89055,-0.243368 z m 57.9934,-9.066404 c -6.1212,-2.219754 -16.37683,-4.066402 -22.58337,-4.066402 h -5.33986 v -0.94936 -0.949357 h 3.64371 c 11.33979,0 30.54799,4.357296 30.54799,6.929673 0,0.990683 -1.52291,0.756343 -6.26847,-0.964554 z m -51.28757,0.194158 c 0,-1.340199 4.65054,-2.943404 14.09681,-4.859664 2.89516,-0.587313 5.58778,-0.835191 5.98356,-0.550822 l 0.71958,0.517021 -0.81768,0.584342 c -0.44972,0.321391 -2.373,0.775976 -4.27396,1.010196 -2.84163,0.350118 -10.08417,2.269281 -14.71106,3.898165 l -0.99725,0.351086 z m 10.25751,-8.888165 c 0,-2.150051 16.3062,-3.608698 26.75637,-2.393454 8.43054,0.980387 9.71478,1.300643 9.71478,2.42262 v 0.939489 L 162.736,51.267168 c -7.43335,-1.339353 -10.66235,-1.664595 -16.70628,-1.682797 -3.78187,-0.01135 -8.26955,0.240741 -9.97259,0.560287 -1.70303,0.319549 -4.1863,0.750129 -5.51834,0.956841 l -2.42191,0.375843 z"
         id="path1"
         sodipodi:nodetypes="cssccssscsscsssssscssscsccssccscsscsscccssscssssscssscssccccsscssssscccccsscccsscccssccsssccccscsscccscccscssssccccssccccsccsccscccsssscsscccsscsssscsscccccsssssccccssccccssssccccsscscsssssccssscsscsscssssccssccccsssssssscssscsscsssccccssssscscsssscccsscsscssccccssscsscssssscssssscccsscssscccscssssssscscsscccccssscssscccssscssssssssssssssssssssscssssssscsscssssscsscssssccsssscsssssssssssssssssssscccssssscccsssssscssscsssscsssscs"
         inkscape:label="Fingerprint" /></g><path
       id="path17"
       style="fill:url(#linearGradient17);stroke-width:0.687123;stroke-linecap:round;stroke-linejoin:round;stroke-miterlimit:1.8;stroke-dashoffset:20.7632;paint-order:stroke fill markers"
       d="m 213.08253,28.758575 h 14.1052 c 9.19426,0.02384 9.12882,8.996042 9.12882,8.996042 V 209.34079 c 0,0 0.0691,9.56391 -7.9375,10.38684 h -14.1052 c 8.81849,-6.12263 7.9375,-10.38684 7.9375,-10.38684 V 37.754617 c 0,0 -0.64716,-8.279574 -9.12882,-8.996042 z"
       sodipodi:nodetypes="ccccccccc"
       inkscape:label="side-other-side-shadow" /><path
       id="path12"
       style="mix-blend-mode:normal;fill:url(#radialGradient14);stroke-width:0.642858;stroke-linecap:round;stroke-linejoin:round;stroke-miterlimit:1.8;stroke-dashoffset:20.7632;paint-order:stroke fill markers;filter:url(#filter17)"
       d="m 73.696804,38.82297 c 46.363466,-3.726162 58.462986,-4.971181 140.123926,-9.592873 4.95842,0 8.42519,4.64638 8.42519,10.192973 0,0 0.42563,58.214846 0,84.80555 -108.41976,90.38951 -90.23699,-77.930334 -153.309299,-20.22927 0.354975,-19.815169 -0.05421,-55.568046 -0.05421,-55.568046 0,-5.690496 -0.08638,-8.727467 4.814393,-9.608334 z"
       sodipodi:nodetypes="ccccccc"
       inkscape:label="Front-white-shadow" /></g><metadata
     id="metadata1"><rdf:RDF><cc:License
         rdf:about="http://creativecommons.org/publicdomain/zero/1.0/"><cc:permits
           rdf:resource="http://creativecommons.org/ns#Reproduction" /><cc:permits
           rdf:resource="http://creativecommons.org/ns#Distribution" /><cc:permits
           rdf:resource="http://creativecommons.org/ns#DerivativeWorks" /></cc:License><cc:Work
         rdf:about=""><cc:license
           rdf:resource="http://creativecommons.org/publicdomain/zero/1.0/" /></cc:Work></rdf:RDF></metadata></svg>
