<?xml version="1.0" encoding="UTF-8" standalone="no"?>
<svg
   width="256"
   height="256"
   viewBox="0 0 256 256"
   aria-hidden="true"
   role="img"
   class="iconify iconify--emojione"
   preserveAspectRatio="xMidYMid"
   version="1.1"
   id="svg58"
   sodipodi:docname="food.svg"
   inkscape:version="1.4.2 (ebf0e940d0, 2025-05-08)"
   xmlns:inkscape="http://www.inkscape.org/namespaces/inkscape"
   xmlns:sodipodi="http://sodipodi.sourceforge.net/DTD/sodipodi-0.dtd"
   xmlns="http://www.w3.org/2000/svg"
   xmlns:svg="http://www.w3.org/2000/svg"
   xmlns:rdf="http://www.w3.org/1999/02/22-rdf-syntax-ns#"
   xmlns:cc="http://creativecommons.org/ns#">
  <defs
     id="defs58" />
  <sodipodi:namedview
     id="namedview58"
     pagecolor="#ffffff"
     bordercolor="#000000"
     borderopacity="0.25"
     inkscape:showpageshadow="2"
     inkscape:pageopacity="0.0"
     inkscape:pagecheckerboard="0"
     inkscape:deskcolor="#d1d1d1"
     inkscape:zoom="0.99316406"
     inkscape:cx="235.61062"
     inkscape:cy="359.96067"
     inkscape:current-layer="svg58" />
  <g
     id="g59"
     transform="matrix(4.1200372,0,0,4.1200372,-3.1347178,-3.2194256)">
    <path
       d="m 16.4,61.9 c -6.1,0 -12,0 -14.3,-30.8 -3.1,-42 52.1,-26.7 52.1,-2.5 0,13.3 -37.8,33.3 -37.8,33.3"
       fill="#d3976e"
       id="path1" />
    <path
       d="M 3.6,31.1 C 2.3,13.1 11.6,5.7 22.8,4.9 V 4.8 C 11,5 0.7,12.3 2.1,31.1 4.2,59.6 9.5,61.9 15,61.9 9.9,61 5.5,57.1 3.6,31.1"
       opacity="0.5"
       fill="#ffffff"
       id="path2" />
    <path
       d="m 19.3,25.5 -15,6.6 -2.1,4.9 2.7,1.6 -1.9,4.3 1.5,0.9 -2.1,4.5 3.3,2 -1.9,4.3 3.9,2.4 -0.7,1.6 4.5,2.7 0.9,-2 2.2,2.5 3.6,-0.9 L 29.9,38.4 19.3,25.5"
       fill="#594640"
       id="path3" />
    <path
       d="m 23,39 3,-4 -22.3,-2.9 -1.6,3.6 3.3,2 1,-2.2 1.7,1 -1.3,2.8 -2.3,-1.4 -1.6,3.6 3.3,1.9 1.3,-3 2.2,1.3 -0.1,0.3 2,1.2 L 11,43.8 7.9,42 6.5,45 3.8,43.4 2.2,47 5.5,48.9 6.8,46 l 2.7,1.6 0.8,-1.9 0.7,0.8 -1,2.3 -1.6,-0.9 -1.3,2.8 -1.9,-1.2 -1.6,3.6 3.3,2 1.3,-2.8 1.9,1.2 0.3,-0.7 1,1.2 -0.6,1 -2.3,-1.4 -1.6,3.6 3.3,1.9 1.4,-3.1 2.4,3.4 2.2,-2.5 1.8,2 2.6,-2.9 -2.6,-2.8 -2.2,2.5 -0.8,-0.8 0.5,-1 2.3,-2.7 1.2,1.4 2.6,-2.9 -2.6,-3 -2.4,2.8 -1.2,-1.4 -2,2.2 1.3,-2.9 -1.2,-0.7 0.7,-0.8 0.6,0.3 1.7,1.9 2.6,-2.9 -2.6,-2.9 -0.2,0.2 -0.9,-0.5 1.2,-1.3 1.7,1.9 -0.3,0.3 2.3,2.6 -0.5,0.6 L 22.4,49 25,46.1 23,39"
       fill="#89664c"
       id="path4" />
    <g
       fill="#d3976e"
       id="g23">
      <path
         d="M 9.6,38.1 7.4,36.7 6.2,39.2 8.5,40.6 Z"
         id="path5" />
      <path
         d="M 14,36.8 14.7,35.3 13.3,34.4 12.5,36 Z"
         id="path6" />
      <path
         d="m 10.6,42.2 -0.7,1.6 1.4,0.9 0.7,-1.6 z"
         id="path7" />
      <path
         d="m 11.1,45.7 -0.7,1.5 1.4,0.9 0.7,-1.6 z"
         id="path8" />
      <path
         d="m 13.2,41.5 1.4,0.8 0.7,-1.5 -1.4,-0.9 z"
         id="path9" />
      <path
         d="M 4.5,44.7 3.1,43.9 2.4,45.4 3.8,46.3 Z"
         id="path10" />
      <path
         d="M 4.7,50.7 4,52.3 5.4,53.1 6.1,51.6 Z"
         id="path11" />
      <path
         d="M 7.4,56.4 8.8,57.2 9.5,55.6 8.1,54.8 Z"
         id="path12" />
      <path
         d="M 7.3,46.3 8,44.7 6.6,43.9 5.9,45.4 Z"
         id="path13" />
      <path
         d="m 7.6,47.4 -1.2,2.5 2.3,1.4 1.1,-2.5 z"
         id="path14" />
      <path
         d="m 10.8,53 1.4,0.8 0.7,-1.5 -1.4,-0.9 z"
         id="path15" />
      <path
         d="m 12.1,56.7 1.4,0.8 0.7,-1.5 -1.4,-0.9 z"
         id="path16" />
      <path
         d="m 18.2,35.2 -1.1,-1.3 -1.1,1.3 1.1,1.2 z"
         id="path17" />
      <path
         d="m 19.3,39.1 -1.7,-2 -1.8,2 1.8,2 z"
         id="path18" />
      <path
         d="m 19.8,40.9 -1.1,1.3 1.1,1.2 1.1,-1.2 z"
         id="path19" />
      <path
         d="m 20.4,45.4 1.1,1.3 1.1,-1.3 -1.1,-1.3 z"
         id="path20" />
      <path
         d="m 16.5,47.1 1.1,1.3 1.1,-1.3 -1.1,-1.3 z"
         id="path21" />
      <path
         d="m 16.8,53.4 1.1,1.2 1.1,-1.2 -1.1,-1.3 z"
         id="path22" />
      <path
         d="M 14.9,57.2 16,58.5 17.1,57.2 16,55.9 Z"
         id="path23" />
    </g>
    <path
       fill="#ffec40"
       d="M 45.7,8.8 36.2,2.5 34.9,2 35.3,5.9 24,3.6 22.8,3.9 11,12 6.3,24 3,25 v 2 l 7,-2 -3.3,3.2 1,4.4 18,1.2 z"
       id="path24" />
    <g
       fill="#83bf4f"
       id="g28">
      <path
         d="m 22.5,4.6 c -2.2,-0.4 -4,2 -6.1,2.7 -2.2,0.8 1.8,3.8 3,3.8 3.4,0 9.8,-5.2 3.1,-6.5"
         id="path25" />
      <path
         d="M 11.5,17.1 C 12.3,14.8 12,12 8.9,14 c -2.6,1.7 0.2,4.3 -3,5.8 -3.1,1.4 -1,5.4 1.7,4.2 2.4,-0.9 3.2,-4.6 3.9,-6.9"
         id="path26" />
      <path
         d="m 11.5,17.1 c 0,0.1 0,0.1 0,0"
         id="path27" />
      <path
         d="m 24.7,31.3 c 0.2,0.3 0.5,0.5 0,0 -3.7,-3.6 -9.1,5 -7.9,6.6 4.7,6.2 10.1,-4.3 7.9,-6.6"
         id="path28" />
    </g>
    <g
       fill="#ed4c5c"
       id="g34">
      <path
         d="M 13.3,25.5 10.7,31.6 17.3,34 21,27.3 Z"
         id="path29" />
      <path
         d="m 9.7,24.3 3.4,2.7 5.7,-4 -3.7,-3 z"
         id="path30" />
      <path
         d="m 20.9,19.5 4.6,3.5 6,-3.6 -3.1,-4.2 z"
         id="path31" />
      <path
         d="m 15.9,11.5 0.4,4.8 6.5,-3 -0.3,-3.4 -3,-1.7 z"
         id="path32" />
      <path
         d="M 29.4,3.2 27.7,8.3 35,9 34.6,4.1 Z"
         id="path33" />
      <path
         d="m 37,3 0.4,5 6.7,-0.7 0.8,-3.1 z"
         id="path34" />
    </g>
    <g
       fill="#83bf4f"
       id="g41">
      <path
         d="m 35.2,11.7 c 2.7,0.7 -1.1,-0.2 0,0"
         id="path35" />
      <path
         d="m 36,12 c -0.9,-0.7 -2.7,2.2 -3.7,2.8 -1.2,0.8 -10.7,3.1 -2.5,5.2 2.6,0.7 8.2,-6.4 6.2,-8"
         id="path36" />
      <path
         d="m 40.3,9.7 c -0.8,-0.5 0.8,0.5 0,0"
         id="path37" />
      <path
         d="M 43.3,5.7 C 41.6,8 41.9,3.1 39.4,5.3 c -1.5,1.3 -0.7,3.5 0.9,4.4 1.4,0.9 6.3,0.4 6.6,-1.9 0.2,-1.5 -2.4,-3.7 -3.6,-2.1"
         id="path38" />
      <path
         d="m 7,26 c -1.4,0 -4.3,3.7 -4.3,3.7 -2.6,2.8 2.8,2.8 2.9,3.3 -0.8,0.6 -1.6,1.2 -2.5,1.7 0,2 4.2,-0.2 3.9,0 C 4.6,38.8 14.5,34 15.1,33.6 18.5,31.5 13,26 7,26"
         id="path39" />
      <path
         d="m 18,21.9 c -1.4,-0.1 0.8,0 0,0"
         id="path40" />
      <path
         d="M 20.4,16.3 C 17,10 16.6,16.3 16,17 c -0.4,0.4 -5,0 -2.9,2.5 0.9,1.1 3.6,2.7 5,2.3 2.9,-0.8 3,-4.2 2.3,-5.5"
         id="path41" />
    </g>
    <g
       fill="#ffffd4"
       id="g47">
      <path
         d="M 20.7,24 9.8,25.4 7,27.5 8.2,28.5 19,25 21.7,24.8 Z"
         id="path42" />
      <path
         d="m 29,12.7 -4.7,-0.4 -10.3,3.4 1.6,1.3 8.5,-2.7 5,-0.5 z"
         id="path43" />
      <path
         d="M 23.1,21.2 22,21.3 24.1,26.4 27.2,27 28,25.2 26.2,24.5 Z"
         id="path44" />
      <path
         d="m 21.5,27.7 2.2,6.2 -1.6,1.1 -1.8,-5.5 z"
         id="path45" />
      <path
         d="M 38.6,7.3 36.5,6.7 34.9,2 l -1.3,0.1 1.6,5.5 2.7,1.1 z"
         id="path46" />
      <path
         d="M 29.6,5.3 22.8,3.9 22.1,5 29.3,6.9 Z"
         id="path47" />
    </g>
    <path
       d="m 16.4,61.9 c 0,0 4.2,0 6.6,-16.2 2.5,-16.4 13.5,-38.5 30.6,-38.5 5.9,0 10,3.9 7.7,25.2 C 61,36.1 21.6,61.9 16.4,61.9"
       fill="#fbbf67"
       id="path48" />
    <path
       d="M 53.7,6.2 C 32,6.2 25.3,30.8 23,45.7 c -2.5,16.2 -9.1,16.2 -9.1,16.2 0,0 4.2,0.5 5.4,-0.5 1.8,-1.5 3.9,-5.4 5.2,-14 2.3,-15 10.3,-39.7 29.7,-39.7 5.5,0 7.3,7.9 7.3,7.9 0,0 -0.9,-9.4 -7.8,-9.4"
       fill="#fddfb3"
       id="path49" />
    <g
       fill="#d3976e"
       id="g53">
      <path
         d="m 39.2,40.8 1,-1 1,1 -1,1.1 z"
         id="path50" />
      <path
         d="m 40.5,26.8 1,-1.1 1,1.1 -1,1.1 z"
         id="path51" />
      <path
         d="m 56.1,26.8 1,-1.1 1,1.1 -1,1.1 z"
         id="path52" />
      <path
         d="m 54.2,15.8 1,-1.1 1,1.1 -1,1 z"
         id="path53" />
    </g>
    <g
       fill="#fddfb3"
       id="g58">
      <path
         d="m 48.3,33.4 -1,1 1,1.1 1,-1.1 -1,-1"
         id="path54" />
      <path
         d="m 50.7,20.8 -1,1 1,1.1 1,-1.1 -1,-1"
         id="path55" />
      <path
         d="m 43,17 -1,1.1 1,1.1 1,-1.1 -1,-1.1"
         id="path56" />
      <path
         d="m 33.5,32.8 -1,1.1 1,1 1,-1 -1,-1.1"
         id="path57" />
      <path
         d="m 31.2,46.4 -1,1.1 1,1 1,-1 -1,-1.1"
         id="path58" />
    </g>
  </g>
  <metadata
     id="metadata59">
    <rdf:RDF>
      <cc:License
         rdf:about="http://creativecommons.org/publicdomain/zero/1.0/">
        <cc:permits
           rdf:resource="http://creativecommons.org/ns#Reproduction" />
        <cc:permits
           rdf:resource="http://creativecommons.org/ns#Distribution" />
        <cc:permits
           rdf:resource="http://creativecommons.org/ns#DerivativeWorks" />
      </cc:License>
      <cc:Work
         rdf:about="">
        <cc:license
           rdf:resource="http://creativecommons.org/publicdomain/zero/1.0/" />
      </cc:Work>
    </rdf:RDF>
  </metadata>
</svg>
