<?xml version="1.0" encoding="UTF-8" standalone="no"?>
<!-- Created with Inkscape (http://www.inkscape.org/) -->

<svg
   width="256mm"
   height="256mm"
   viewBox="0 0 256 256"
   version="1.1"
   id="svg1"
   inkscape:version="1.3.2 (091e20ef0f, 2023-11-25)"
   sodipodi:docname="help-contextual.svg"
   xmlns:inkscape="http://www.inkscape.org/namespaces/inkscape"
   xmlns:sodipodi="http://sodipodi.sourceforge.net/DTD/sodipodi-0.dtd"
   xmlns:xlink="http://www.w3.org/1999/xlink"
   xmlns="http://www.w3.org/2000/svg"
   xmlns:svg="http://www.w3.org/2000/svg"
   xmlns:rdf="http://www.w3.org/1999/02/22-rdf-syntax-ns#"
   xmlns:cc="http://creativecommons.org/ns#"
   xmlns:dc="http://purl.org/dc/elements/1.1/">
  <defs
     id="defs1">
    <linearGradient
       id="linearGradient14"
       inkscape:collect="always">
      <stop
         style="stop-color:#383838;stop-opacity:0.71287131;"
         offset="0"
         id="stop14" />
      <stop
         style="stop-color:#383838;stop-opacity:0.54702967;"
         offset="1"
         id="stop15" />
    </linearGradient>
    <linearGradient
       id="linearGradient12"
       inkscape:collect="always">
      <stop
         style="stop-color:#383838;stop-opacity:0.55445546;"
         offset="0"
         id="stop12" />
      <stop
         style="stop-color:#383838;stop-opacity:0;"
         offset="1"
         id="stop13" />
    </linearGradient>
    <linearGradient
       inkscape:collect="always"
       xlink:href="#linearGradient12"
       id="linearGradient13"
       x1="195.82674"
       y1="51.843925"
       x2="202.4605"
       y2="67.151959"
       gradientUnits="userSpaceOnUse" />
    <linearGradient
       inkscape:collect="always"
       xlink:href="#linearGradient14"
       id="linearGradient15"
       x1="207.78288"
       y1="67.284424"
       x2="188.4969"
       y2="22.494244"
       gradientUnits="userSpaceOnUse" />
  </defs>
  <sodipodi:namedview
     id="base"
     pagecolor="#ffffff"
     bordercolor="#000000"
     borderopacity="0.3"
     inkscape:pageopacity="0.0"
     inkscape:pageshadow="2"
     inkscape:zoom="0.70000001"
     inkscape:cx="150.71428"
     inkscape:cy="206.42857"
     inkscape:document-units="mm"
     inkscape:showpageshadow="2"
     inkscape:pagecheckerboard="0"
     inkscape:deskcolor="#d1d1d1"
     inkscape:current-layer="svg1"
     showguides="true" />
  <metadata
     id="metadata1">
    <rdf:RDF>
      <cc:Work
         rdf:about="">
        <dc:format>image/svg+xml</dc:format>
        <dc:type
           rdf:resource="http://purl.org/dc/dcmitype/StillImage" />
        <cc:license
           rdf:resource="http://creativecommons.org/publicdomain/zero/1.0/" />
      </cc:Work>
      <cc:License
         rdf:about="http://creativecommons.org/publicdomain/zero/1.0/">
        <cc:permits
           rdf:resource="http://creativecommons.org/ns#Reproduction" />
        <cc:permits
           rdf:resource="http://creativecommons.org/ns#Distribution" />
        <cc:permits
           rdf:resource="http://creativecommons.org/ns#DerivativeWorks" />
      </cc:License>
    </rdf:RDF>
  </metadata>
  <g
     id="g20"
     transform="matrix(1.118752,0,0,1.118752,-4.5240133,-20.87977)">
    <g
       id="path8"
       style="display:inline"
       transform="translate(1.8708867,-13.096207)"
       inkscape:label="point">
      <path
         style="color:#000000;display:inline;fill:#252323;fill-opacity:0.684633;fill-rule:evenodd;-inkscape-stroke:none"
         d="m 106.05064,182.83903 c -5.56905,10.85253 -18.660438,39.56065 -20.574314,45.55524 -1.646626,5.15752 -1.09591,10.60507 3.768066,17.89203 2.906429,4.35426 19.790778,17.75564 44.201828,6.92828 6.56663,-2.91259 9.84724,-8.22275 14.31481,-15.06578 3.95278,-6.05453 19.21485,-37.22657 18.76258,-47.96682 -0.13068,12.72474 -9.69346,18.97777 -14.50487,21.32593 -7.25015,3.53836 -16.80979,5.22539 -25.56189,3.02602 -12.03179,-3.02355 -18.52776,-9.3555 -20.9162,-14.72831 -4.51809,-10.1635 1.40282,-18.70648 0.50999,-16.96659 z"
         id="path17"
         sodipodi:nodetypes="ssssscssss" />
      <path
         style="color:#000000;display:inline;fill:#d0d000;fill-opacity:0.375;fill-rule:evenodd;-inkscape-stroke:none"
         d="m 166.24165,191.76587 a 31.270535,23.653353 0 0 1 -31.27054,23.65336 31.270535,23.653353 0 0 1 -31.27053,-23.65336 31.270535,23.653353 0 0 1 31.27053,-23.65335 31.270535,23.653353 0 0 1 31.27054,23.65335 z"
         id="path16" />
      <path
         style="color:#000000;display:inline;fill:#ffff19;fill-opacity:0.783257;fill-rule:evenodd;stroke:#7a7575;stroke-width:3.1;stroke-dasharray:none;stroke-opacity:0.816514"
         d="m 147.21735,233.74339 a 31.270535,23.653353 0 0 1 -31.27054,23.65336 31.270535,23.653353 0 0 1 -31.27053,-23.65336 31.270535,23.653353 0 0 1 31.27053,-23.65335 31.270535,23.653353 0 0 1 31.27054,23.65335 z"
         id="path18" />
      <path
         style="color:#000000;display:inline;fill:#252323;fill-opacity:0.684633;fill-rule:evenodd;-inkscape-stroke:none"
         d="m 144.93361,242.94185 c 5.56905,-10.85253 19.2274,-39.56065 21.14128,-45.55524 1.64662,-5.15752 1.09591,-10.60507 -3.76807,-17.89203 -2.90643,-4.35426 -20.12487,-18.357 -44.53592,-7.52964 -6.56663,2.91259 -10.64905,8.75729 -13.98072,15.66714 -3.14036,6.51306 -19.781818,37.22657 -19.329548,47.96682 0.13068,-12.72474 9.69346,-18.97777 14.50487,-21.32593 7.250158,-3.53836 16.809798,-5.22539 25.561898,-3.02602 12.03179,3.02355 18.52776,9.3555 20.9162,14.72831 4.51809,10.1635 -1.40282,18.70648 -0.50999,16.96659 z"
         id="path19"
         sodipodi:nodetypes="ssssscssss" />
    </g>
    <g
       id="g15"
       style="display:inline">
      <path
         style="color:#000000;display:inline;fill:#c9c900;fill-opacity:0.873853;fill-rule:evenodd;-inkscape-stroke:none"
         d="m 160.14044,153.48896 c -9.04377,0 -43.71154,1.35928 -58.54045,1.35928 0,-13.63736 -0.1897,2.56091 0.37797,-9.80459 0.8232,-17.93151 26.42764,-28.52375 32.29241,-46.444289 2.82729,-8.639144 0.94892,-18.2871 0.68165,-27.261528 -3.34459,-5.816541 -3.65359,-5.118227 -7.02725,-7.230277 -5.46475,-1.911197 -14.24981,-1.820248 -19.89919,-1.820248 -4.27046,0.848373 -6.74271,2.967408 -8.315467,5.767311 0,8.284929 -0.18899,17.522053 -0.18899,29.997772 H 48.683331 c 0,0 0.377976,-10.39551 0.377976,-30.375748 0,-19.980236 5.569226,-46.018602 42.144344,-46.018602 l 66.807289,-1e-6 c 32.38209,0 40.25446,18.535558 40.25446,33.946986 0,15.411429 2.39134,33.926205 -10.11086,45.380764 -13.77543,12.6211 -25.46242,26.01845 -25.81112,45.02736 -0.24338,13.26755 -2.20498,-3.27789 -2.20498,7.47581 z"
         id="path20"
         sodipodi:nodetypes="ccsaccccccssssssc" />
      <path
         style="color:#000000;fill:#ffff38;fill-opacity:0.833716;fill-rule:evenodd;stroke:#252323;stroke-width:2.4;stroke-dasharray:none;stroke-opacity:0.684633"
         d="M 96.753176,21.068058 C 77.695872,20.83079 56.661499,32.23969 48.98818,43.771949 41.314861,55.304208 39.296308,72.1059 39.296308,82.397972 c 0,19.939228 0.173799,27.216068 0.173799,27.216068 l -0.06445,3.31446 52.364807,0.66146 c 9.399206,-14.611512 17.280026,-18.477303 33.756846,-42.514616 4.76316,3.533253 6.43605,32.269256 -2.27451,45.607716 -3.32267,5.08801 -11.51099,12.10759 -17.519,18.61559 -7.618051,8.25202 -12.613919,11.66207 -13.069128,21.57775 -0.571877,12.45702 -0.38086,17.93845 -0.38086,31.54566 v 3.25 l 2.210223,0.0353 c 0,0 37.752085,-0.0717 55.320735,-0.0717 10.72913,-17.69613 15.48201,-33.24817 18.22946,-38.44844 0.42767,-5.37164 1.14623,-10.25702 1.71571,-12.4501 1.94658,-7.49638 6.41693,-18.88999 13.31082,-24.80553 7.17428,-6.15614 16.44017,-14.79527 17.45715,-23.212887 1.01697,-8.417623 0.92516,-17.026843 0.92516,-24.564453 0,-8.259087 -0.126,-19.544579 -5.09807,-28.156453 C 190.2907,29.494175 177.96427,22.079157 161.15444,21.86987 Z M 149.96149,35.56715 c 15.57093,0 25.41461,4.821593 30.72545,10.613095 5.31085,5.791502 7.79232,13.404315 7.79232,20.556641 0,7.873803 0.66365,17.549874 -0.24926,25.10612 -0.9129,7.556246 -1.3453,16.499104 -6.87721,21.567454 -14.1841,12.99552 -28.16145,23.49405 -29.47224,48.49919 -0.61488,11.7296 -1.24451,20.03772 -1.20271,28.21288 -10.43707,-0.0348 -42.78853,1.32344 -57.92661,1.28863 -0.02471,-11.36282 -0.525538,-22.59339 -0.01528,-33.70811 0.36799,-8.01581 4.319127,-12.74791 14.18387,-23.06705 5.68682,-5.94877 12.62564,-13.3783 16.02335,-18.10889 4.05754,-5.64925 6.04801,-16.39982 6.69326,-30.844431 0,-6.78228 -1.76718,-12.875139 -6.01078,-14.982254 l -0.68164,-0.339844 h -0.76367 c -5.78794,0 -15.66912,-0.471726 -21.35473,-0.471726 h -0.67578 l -0.619136,0.269531 c -2.559999,1.112045 -4.196469,1.367482 -5.953125,3.080078 -1.756655,1.712597 -2.433772,3.685635 -4.070312,7.632813 l -0.248047,0.597656 v 0.646485 c 0,7.550517 0.327012,25.843362 0.300595,30.171712 L 41.17234,111.43668 c 0.05354,-2.85372 0.347656,-10.70593 0.347656,-29.038711 0,-9.688144 1.804982,-23.686269 7.194383,-31.825334 5.3894,-8.139065 15.163586,-15.052735 32.679889,-15.052735 33.214702,0 45.843292,0.04725 68.567222,0.04725 z"
         id="path10"
         sodipodi:nodetypes="szsccccsssscsccsssssssssssssccssscccssccsccsccssss" />
      <path
         style="color:#000000;fill:#fff207;fill-opacity:0.57568806;fill-rule:evenodd;-inkscape-stroke:none"
         d="m 151.52259,189.5187 c -9.04377,0 -43.71154,1.35928 -58.540451,1.35928 0,-13.63736 -0.1897,-20.92003 0.377976,-33.28553 0.8232,-17.93151 25.382805,-28.90009 32.292405,-46.44428 3.26502,-8.29022 4.0716,-17.483451 3.80433,-26.457879 0,-6.174891 -1.44554,-10.482921 -3.8636,-13.19222 -5.8231,0 -20.53614,0.128422 -26.185516,0.128422 -5.452948,2.368721 -5.053434,1.109204 -8.315476,8.976935 0,8.284929 -0.188988,19.194351 -0.188988,31.670062 H 40.065475 c 0,0 0.377976,-12.0678 0.377976,-32.048038 0,-19.980236 5.569226,-46.018602 42.144346,-46.018602 l 66.807293,-1e-6 c 32.38209,0 40.25446,18.535558 40.25446,33.946986 0,15.411429 2.39134,33.926205 -10.11086,45.380765 -13.77543,12.62109 -25.46242,26.01844 -25.81112,45.02735 -0.24338,13.26755 -2.20498,20.20305 -2.20498,30.95675 z"
         id="path9"
         sodipodi:nodetypes="ccsaccccccssssssc" />
      <path
         id="rect11"
         style="fill:#fefef0;fill-opacity:0.848624;fill-rule:evenodd;stroke-width:2.4;stroke-opacity:0.519495"
         d="m 62.006533,32.623094 c 5.406344,-4.202283 12.576805,-6.864583 19.443859,-8.635655 8.204717,-2.116067 25.323788,-2.204973 25.323788,-2.204973 32.98435,0.704812 44.28558,0.924169 56.05978,0.935438 3.62952,0.319689 6.77165,0.506194 10.1515,1.825031 9.66317,10.289256 16.69101,23.151512 -1.0722,14.354273 -11.92111,-6.445785 -61.12698,-4.15217 -74.493514,-4.15217 -8.265004,0 -17.337861,-0.792784 -24.789249,0.534539 -3.672248,0.654141 -28.401564,-1.563315 -29.661049,54.901217 -0.263183,2.662315 0.332676,18.067906 0.220557,22.671856 -0.82085,-0.0263 -2.102146,0.45904 -2.978694,0.58459 0.448817,-28.634774 -1.381738,-46.411134 4.374148,-57.2871 2.242572,-4.237426 0.242312,-10.174212 17.421074,-23.527046 z"
         sodipodi:nodetypes="saccccsscccss" />
      <path
         id="rect12"
         style="fill:url(#linearGradient13);fill-rule:evenodd;stroke-width:2.4;stroke-opacity:0.684633"
         d="m 172.12157,39.55589 c -19.28506,-17.200204 -15.6237,-19.758728 1.44706,-17.215957 18.67357,6.841052 21.75634,13.597013 26.99422,25.159695 2.17236,6.464301 1.6775,15.853399 1.80882,22.94882 0.1278,6.905579 0.36936,14.411124 -1.38499,21.091365 -1.88289,7.169697 -5.86652,14.595287 -12.21891,18.415887 -2.82477,1.69894 -6.28771,3.98606 -8.09358,1.22842 2.50674,-3.4227 4.98666,-11.68281 6.21599,-17.867915 1.21413,-6.10868 0.90409,-12.359245 1.07579,-18.653513 0.14942,-5.477712 -0.10372,-14.663907 -1.4012,-16.720558 -3.74382,-13.7186 -9.88097,-14.563739 -14.4432,-18.386244 z"
         sodipodi:nodetypes="cccccccaccc" />
      <path
         id="path12"
         style="fill:url(#linearGradient15);fill-rule:evenodd;stroke-width:2.4;stroke-opacity:0.684633"
         d="m 187.89447,63.469434 c -2.59217,-11.693806 9.15564,-18.821769 4.65259,-29.554021 9.56512,10.706963 9.96382,44.371457 8.95123,58.485496 -0.80379,11.203631 -16.30969,22.229441 -21.57251,28.341461 -6.10992,7.09579 -9.09996,20.66115 -9.85598,25.36292 -0.26118,2.02649 -0.57567,3.85648 -0.87149,7.46877 -1.8488,4.10232 -10.64876,25.28883 -18.92644,39.10336 -0.29315,-46.21064 3.71115,-48.37516 8.24188,-56.56567 5.74697,-10.38919 10.57165,-13.26029 16.22238,-18.28503 3.49028,-3.47319 10.90378,-4.28731 12.19614,-23.903422 1.01673,-15.432568 0.79446,-19.541179 0.9622,-30.453864 z"
         sodipodi:nodetypes="ccsscccscsc" />
      <path
         id="rect15"
         style="fill:#504c06;fill-opacity:0.84862399;fill-rule:evenodd;stroke-width:2.4;stroke-opacity:0.684633"
         d="m 88.204697,84.284444 c 0.02063,-9.858245 5.673316,-15.67004 14.456773,-15.535041 8.09999,-0.247538 23.05927,-0.50767 23.17644,1.937704 -8.63401,12.749197 -29.456269,38.217313 -33.523944,43.651873 -1.288009,-0.10926 -2.473931,-0.23161 -3.662787,-0.23161 0,-8.17994 -0.446482,-23.055381 -0.446482,-29.822926 z"
         sodipodi:nodetypes="cccccc" />
      <path
         id="rect20"
         style="fill:#ffffff;fill-opacity:0.473624;fill-rule:evenodd;stroke-width:3.09999;stroke-opacity:0.816514"
         transform="matrix(0.89385316,0,0,0.89385316,4.0438035,18.663448)"
         d="m 63.251167,27.040078 c 7.039253,-4.170167 13.02371,-5.036424 21.272822,-5.059126 28.298361,-0.07788 59.933291,-1.234725 91.096991,1.290491 4.33349,0.351146 18.61999,6.072551 22.56331,14.478411 4.45682,9.500473 4.19278,31.353447 4.13875,46.953763 1.27336,18.978313 -13.59293,19.017893 -30.53616,41.842323 -55.3809,74.60426 2.22749,-33.703123 -18.14802,-65.052085 C 108.16547,-8.46973 42.629263,110.75831 49.070821,60.669506 50.358547,49.450093 57.018348,30.7325 63.251167,27.040078 Z"
         sodipodi:nodetypes="sssscsscs" />
    </g>
  </g>
</svg>
