<?xml version="1.0" encoding="UTF-8" standalone="no"?>
<!-- Created with Inkscape (http://www.inkscape.org/) -->

<svg
   width="256mm"
   height="256mm"
   viewBox="0 0 256 256"
   version="1.1"
   id="svg1"
   inkscape:version="1.4.4 (dcaf3e7d9e, 2026-05-05)"
   sodipodi:docname="invertimage-01.svg"
   xmlns:inkscape="http://www.inkscape.org/namespaces/inkscape"
   xmlns:sodipodi="http://sodipodi.sourceforge.net/DTD/sodipodi-0.dtd"
   xmlns:xlink="http://www.w3.org/1999/xlink"
   xmlns="http://www.w3.org/2000/svg"
   xmlns:svg="http://www.w3.org/2000/svg"
   xmlns:rdf="http://www.w3.org/1999/02/22-rdf-syntax-ns#"
   xmlns:cc="http://creativecommons.org/ns#"
   xmlns:dc="http://purl.org/dc/elements/1.1/">
  <defs
     id="defs1">
    <linearGradient
       inkscape:collect="always"
       xlink:href="#linearGradient365"
       id="linearGradient366"
       x1="77.034889"
       y1="114.083"
       x2="106.46627"
       y2="159.06216"
       gradientUnits="userSpaceOnUse" />
    <linearGradient
       id="linearGradient365"
       inkscape:collect="always">
      <stop
         style="stop-color:#4292ff;stop-opacity:1;"
         offset="0"
         id="stop365" />
      <stop
         style="stop-color:#dae7ff;stop-opacity:1;"
         offset="1"
         id="stop366" />
    </linearGradient>
    <linearGradient
       inkscape:collect="always"
       xlink:href="#linearGradient4"
       id="linearGradient8"
       x1="111.24173"
       y1="114.93345"
       x2="103.34796"
       y2="155.18791"
       gradientUnits="userSpaceOnUse" />
    <linearGradient
       id="linearGradient4"
       inkscape:collect="always">
      <stop
         style="stop-color:#cef4ff;stop-opacity:0;"
         offset="0"
         id="stop4" />
      <stop
         style="stop-color:#cef4ff;stop-opacity:0.56576198;"
         offset="0.24425335"
         id="stop8" />
      <stop
         style="stop-color:#d9f8ff;stop-opacity:1;"
         offset="0.44283766"
         id="stop9" />
      <stop
         style="stop-color:#cef4ff;stop-opacity:0;"
         offset="0.64017344"
         id="stop10" />
      <stop
         style="stop-color:#cef4ff;stop-opacity:0;"
         offset="1"
         id="stop5" />
    </linearGradient>
    <linearGradient
       inkscape:collect="always"
       xlink:href="#linearGradient413"
       id="linearGradient371"
       gradientUnits="userSpaceOnUse"
       gradientTransform="matrix(1.1237673,0,0,1.2280893,-29.425363,-26.067071)"
       x1="117.7989"
       y1="114.71003"
       x2="122.55878"
       y2="126.52753" />
    <linearGradient
       id="linearGradient413"
       inkscape:collect="always">
      <stop
         style="stop-color:#c7d7ed;stop-opacity:1;"
         offset="0"
         id="stop412" />
      <stop
         style="stop-color:#4292ff;stop-opacity:0.44585988;"
         offset="1"
         id="stop413" />
    </linearGradient>
    <linearGradient
       inkscape:collect="always"
       xlink:href="#linearGradient414"
       id="linearGradient415"
       x1="98.088142"
       y1="116.42467"
       x2="99.041435"
       y2="119.231"
       gradientUnits="userSpaceOnUse" />
    <linearGradient
       id="linearGradient414"
       inkscape:collect="always">
      <stop
         style="stop-color:#f3f9ff;stop-opacity:0.477707;"
         offset="0"
         id="stop414" />
      <stop
         style="stop-color:#f9f9f9;stop-opacity:0.24203822;"
         offset="1"
         id="stop415" />
    </linearGradient>
    <linearGradient
       inkscape:collect="always"
       xlink:href="#linearGradient367"
       id="linearGradient370"
       gradientUnits="userSpaceOnUse"
       gradientTransform="matrix(0.81536103,0,0,0.89105296,16.053933,17.342502)"
       x1="123.03124"
       y1="115.47173"
       x2="122.55878"
       y2="126.52753" />
    <linearGradient
       id="linearGradient367"
       inkscape:collect="always">
      <stop
         style="stop-color:#a9c1e3;stop-opacity:1;"
         offset="0"
         id="stop367" />
      <stop
         style="stop-color:#4292ff;stop-opacity:0.84554142;"
         offset="1"
         id="stop368" />
    </linearGradient>
    <linearGradient
       inkscape:collect="always"
       xlink:href="#linearGradient391"
       id="linearGradient375"
       gradientUnits="userSpaceOnUse"
       gradientTransform="matrix(1.648578,0,0,1.7117747,-80.63873,-69.495994)"
       x1="121.44936"
       y1="115.22806"
       x2="120.37013"
       y2="119.73561" />
    <linearGradient
       id="linearGradient391"
       inkscape:collect="always">
      <stop
         style="stop-color:#e3e9f5;stop-opacity:0.79617834;"
         offset="0"
         id="stop390" />
      <stop
         style="stop-color:#aaaaaa;stop-opacity:0.00955414;"
         offset="1"
         id="stop391" />
    </linearGradient>
    <linearGradient
       inkscape:collect="always"
       xlink:href="#linearGradient388"
       id="linearGradient389"
       x1="112.69837"
       y1="119.88837"
       x2="106.48794"
       y2="140.11009"
       gradientUnits="userSpaceOnUse"
       gradientTransform="translate(0.26726953,4.2763125)" />
    <linearGradient
       id="linearGradient388"
       inkscape:collect="always">
      <stop
         style="stop-color:#f9f9f9;stop-opacity:0.41329501;"
         offset="0"
         id="stop388" />
      <stop
         style="stop-color:#f9f9f9;stop-opacity:0;"
         offset="1"
         id="stop389" />
    </linearGradient>
    <linearGradient
       inkscape:collect="always"
       xlink:href="#linearGradient411"
       id="linearGradient369"
       gradientUnits="userSpaceOnUse"
       gradientTransform="matrix(1.2090605,0,0,1.3213005,-27.443427,-39.942425)"
       x1="123.03124"
       y1="115.47173"
       x2="122.55878"
       y2="126.52753" />
    <linearGradient
       id="linearGradient411"
       inkscape:collect="always">
      <stop
         style="stop-color:#94caff;stop-opacity:0.71815288;"
         offset="0"
         id="stop410" />
      <stop
         style="stop-color:#4292ff;stop-opacity:0.13216561;"
         offset="1"
         id="stop411" />
    </linearGradient>
    <linearGradient
       inkscape:collect="always"
       xlink:href="#linearGradient408"
       id="linearGradient409"
       x1="111.08641"
       y1="112.43726"
       x2="114.51997"
       y2="124.86529"
       gradientUnits="userSpaceOnUse" />
    <linearGradient
       id="linearGradient408"
       inkscape:collect="always">
      <stop
         style="stop-color:#f9f9f9;stop-opacity:0.83757961;"
         offset="0"
         id="stop408" />
      <stop
         style="stop-color:#f9f9f9;stop-opacity:0;"
         offset="1"
         id="stop409" />
    </linearGradient>
    <linearGradient
       inkscape:collect="always"
       xlink:href="#linearGradient405"
       id="linearGradient368"
       x1="123.03124"
       y1="115.47173"
       x2="122.55878"
       y2="126.52753"
       gradientUnits="userSpaceOnUse"
       gradientTransform="matrix(1.2090605,0,0,1.3213005,-23.380183,-36.446145)" />
    <linearGradient
       id="linearGradient405"
       inkscape:collect="always">
      <stop
         style="stop-color:#eef3f9;stop-opacity:1;"
         offset="0"
         id="stop404" />
      <stop
         style="stop-color:#4292ff;stop-opacity:0.47452229;"
         offset="1"
         id="stop405" />
    </linearGradient>
    <linearGradient
       inkscape:collect="always"
       xlink:href="#linearGradient406"
       id="linearGradient407"
       x1="118.89142"
       y1="114.32992"
       x2="120.98865"
       y2="119.80894"
       gradientUnits="userSpaceOnUse" />
    <linearGradient
       id="linearGradient406"
       inkscape:collect="always">
      <stop
         style="stop-color:#f9f9f9;stop-opacity:0.79936308;"
         offset="0"
         id="stop406" />
      <stop
         style="stop-color:#f9f9f9;stop-opacity:0;"
         offset="1"
         id="stop407" />
    </linearGradient>
    <linearGradient
       inkscape:collect="always"
       xlink:href="#linearGradient379"
       id="linearGradient374"
       gradientUnits="userSpaceOnUse"
       gradientTransform="matrix(0.93819743,0,0,1.0252925,-13.856791,9.0705481)"
       x1="121.52046"
       y1="115.37957"
       x2="122.55878"
       y2="126.52753" />
    <linearGradient
       id="linearGradient379"
       inkscape:collect="always">
      <stop
         style="stop-color:#a9c1e3;stop-opacity:0.55891722;"
         offset="0"
         id="stop378" />
      <stop
         style="stop-color:#dce8ff;stop-opacity:0;"
         offset="1"
         id="stop379" />
    </linearGradient>
    <linearGradient
       inkscape:collect="always"
       xlink:href="#linearGradient380"
       id="linearGradient381"
       x1="98.429756"
       y1="121.31519"
       x2="100.62888"
       y2="140.49747"
       gradientUnits="userSpaceOnUse"
       gradientTransform="translate(-2.271791,-1.7372519)" />
    <linearGradient
       id="linearGradient380"
       inkscape:collect="always">
      <stop
         style="stop-color:#f9f9f9;stop-opacity:0.20953758;"
         offset="0"
         id="stop380" />
      <stop
         style="stop-color:#f9f9f9;stop-opacity:0;"
         offset="1"
         id="stop381" />
    </linearGradient>
    <linearGradient
       inkscape:collect="always"
       xlink:href="#linearGradient383"
       id="linearGradient373"
       gradientUnits="userSpaceOnUse"
       gradientTransform="matrix(1.0843907,0,0,0.73793577,-46.327493,37.398575)"
       x1="120.30726"
       y1="119.10629"
       x2="118.86852"
       y2="112.99985" />
    <linearGradient
       id="linearGradient383"
       inkscape:collect="always">
      <stop
         style="stop-color:#cddaee;stop-opacity:0.20222934;"
         offset="0"
         id="stop382" />
      <stop
         style="stop-color:#e5efff;stop-opacity:0.94904459;"
         offset="1"
         id="stop383" />
    </linearGradient>
    <linearGradient
       inkscape:collect="always"
       xlink:href="#linearGradient387"
       id="linearGradient372"
       gradientUnits="userSpaceOnUse"
       gradientTransform="matrix(1.6123076,0,0,1.2043103,-110.77748,-11.932545)"
       x1="123.03124"
       y1="115.47173"
       x2="122.55878"
       y2="126.52753" />
    <linearGradient
       id="linearGradient387"
       inkscape:collect="always">
      <stop
         style="stop-color:#c6d5ee;stop-opacity:1;"
         offset="0"
         id="stop386" />
      <stop
         style="stop-color:#77b0ff;stop-opacity:0.01433121;"
         offset="1"
         id="stop387" />
    </linearGradient>
    <linearGradient
       inkscape:collect="always"
       xlink:href="#linearGradient388"
       id="linearGradient385"
       x1="81.231834"
       y1="150.896"
       x2="82.060043"
       y2="119.05151"
       gradientUnits="userSpaceOnUse" />
    <linearGradient
       inkscape:collect="always"
       xlink:href="#linearGradient376"
       id="linearGradient377"
       x1="106.50691"
       y1="140.06593"
       x2="106.77418"
       y2="151.94272"
       gradientUnits="userSpaceOnUse" />
    <linearGradient
       id="linearGradient376"
       inkscape:collect="always">
      <stop
         style="stop-color:#d4e6ff;stop-opacity:1;"
         offset="0"
         id="stop376" />
      <stop
         style="stop-color:#d4e6ff;stop-opacity:0;"
         offset="1"
         id="stop377" />
    </linearGradient>
    <linearGradient
       inkscape:collect="always"
       xlink:href="#linearGradient399"
       id="linearGradient393"
       x1="80.689018"
       y1="143.74333"
       x2="86.531158"
       y2="132.12056"
       gradientUnits="userSpaceOnUse"
       gradientTransform="matrix(1.2147341,0,0,1,-15.011459,0)" />
    <linearGradient
       id="linearGradient399"
       inkscape:collect="always">
      <stop
         style="stop-color:#1a641b;stop-opacity:1;"
         offset="0"
         id="stop398" />
      <stop
         style="stop-color:#afffb2;stop-opacity:1;"
         offset="1"
         id="stop399" />
    </linearGradient>
    <linearGradient
       inkscape:collect="always"
       xlink:href="#linearGradient392"
       id="linearGradient397"
       gradientUnits="userSpaceOnUse"
       gradientTransform="matrix(1.2147341,0,0,1,-15.011459,0)"
       x1="76.177208"
       y1="142.79839"
       x2="82.408295"
       y2="133.72696" />
    <linearGradient
       id="linearGradient392"
       inkscape:collect="always">
      <stop
         style="stop-color:#1a641b;stop-opacity:0.60350317;"
         offset="0"
         id="stop392" />
      <stop
         style="stop-color:#afffb2;stop-opacity:1;"
         offset="1"
         id="stop393" />
    </linearGradient>
    <linearGradient
       inkscape:collect="always"
       xlink:href="#linearGradient394"
       id="linearGradient395"
       x1="98.179314"
       y1="145.61533"
       x2="96.100449"
       y2="155.06473"
       gradientUnits="userSpaceOnUse" />
    <linearGradient
       id="linearGradient394"
       inkscape:collect="always">
      <stop
         style="stop-color:#00a205;stop-opacity:1;"
         offset="0"
         id="stop394" />
      <stop
         style="stop-color:#006103;stop-opacity:0.9824841;"
         offset="1"
         id="stop395" />
    </linearGradient>
    <linearGradient
       inkscape:collect="always"
       xlink:href="#linearGradient401"
       id="linearGradient400"
       gradientUnits="userSpaceOnUse"
       x1="98.179314"
       y1="145.61533"
       x2="96.853615"
       y2="151.94377" />
    <linearGradient
       id="linearGradient401"
       inkscape:collect="always">
      <stop
         style="stop-color:#00df06;stop-opacity:0.26751593;"
         offset="0"
         id="stop400" />
      <stop
         style="stop-color:#009e04;stop-opacity:0.43949044;"
         offset="1"
         id="stop401" />
    </linearGradient>
    <radialGradient
       inkscape:collect="always"
       xlink:href="#linearGradient422"
       id="radialGradient423"
       cx="119.79928"
       cy="140.99489"
       fx="119.79928"
       fy="140.99489"
       r="28.867928"
       gradientTransform="matrix(2.028855,-0.19933614,0.07841714,0.48900823,-124.90879,103.65337)"
       gradientUnits="userSpaceOnUse" />
    <linearGradient
       id="linearGradient422"
       inkscape:collect="always">
      <stop
         style="stop-color:#adebfe;stop-opacity:1;"
         offset="0"
         id="stop422" />
      <stop
         style="stop-color:#3c8bff;stop-opacity:1;"
         offset="0.5"
         id="stop424" />
      <stop
         style="stop-color:#1865b4;stop-opacity:1;"
         offset="0.75"
         id="stop425" />
      <stop
         style="stop-color:#1155af;stop-opacity:1;"
         offset="0.875"
         id="stop426" />
      <stop
         style="stop-color:#0a4495;stop-opacity:1;"
         offset="1"
         id="stop423" />
    </linearGradient>
    <linearGradient
       inkscape:collect="always"
       xlink:href="#linearGradient402"
       id="linearGradient403"
       x1="125.52593"
       y1="152.9062"
       x2="85.30378"
       y2="148.94107"
       gradientUnits="userSpaceOnUse"
       gradientTransform="matrix(1.2381673,-0.08844847,0.06153218,0.99780464,-37.252713,9.7363778)" />
    <linearGradient
       id="linearGradient402"
       inkscape:collect="always">
      <stop
         style="stop-color:#0039a2;stop-opacity:1;"
         offset="0"
         id="stop402" />
      <stop
         style="stop-color:#5f98ff;stop-opacity:1;"
         offset="1"
         id="stop403" />
    </linearGradient>
    <linearGradient
       inkscape:collect="always"
       xlink:href="#linearGradient365"
       id="linearGradient17"
       gradientUnits="userSpaceOnUse"
       x1="77.034889"
       y1="114.083"
       x2="106.46627"
       y2="159.06216" />
    <linearGradient
       inkscape:collect="always"
       xlink:href="#linearGradient4"
       id="linearGradient18"
       gradientUnits="userSpaceOnUse"
       x1="111.24173"
       y1="114.93345"
       x2="103.34796"
       y2="155.18791" />
    <linearGradient
       inkscape:collect="always"
       xlink:href="#linearGradient413"
       id="linearGradient19"
       gradientUnits="userSpaceOnUse"
       gradientTransform="matrix(1.1237673,0,0,1.2280893,-29.425363,-26.067071)"
       x1="117.7989"
       y1="114.71003"
       x2="122.55878"
       y2="126.52753" />
    <linearGradient
       inkscape:collect="always"
       xlink:href="#linearGradient414"
       id="linearGradient20"
       gradientUnits="userSpaceOnUse"
       x1="98.088142"
       y1="116.42467"
       x2="99.041435"
       y2="119.231" />
    <linearGradient
       inkscape:collect="always"
       xlink:href="#linearGradient379"
       id="linearGradient28"
       gradientUnits="userSpaceOnUse"
       gradientTransform="matrix(0.93819743,0,0,1.0252925,-13.856791,9.0705481)"
       x1="121.52046"
       y1="115.37957"
       x2="122.55878"
       y2="126.52753" />
    <linearGradient
       inkscape:collect="always"
       xlink:href="#linearGradient380"
       id="linearGradient29"
       gradientUnits="userSpaceOnUse"
       gradientTransform="translate(-2.271791,-1.7372519)"
       x1="98.429756"
       y1="121.31519"
       x2="100.62888"
       y2="140.49747" />
    <linearGradient
       inkscape:collect="always"
       xlink:href="#linearGradient383"
       id="linearGradient30"
       gradientUnits="userSpaceOnUse"
       gradientTransform="matrix(1.0843907,0,0,0.73793577,-46.327493,37.398575)"
       x1="120.30726"
       y1="119.10629"
       x2="118.86852"
       y2="112.99985" />
    <linearGradient
       inkscape:collect="always"
       xlink:href="#linearGradient387"
       id="linearGradient31"
       gradientUnits="userSpaceOnUse"
       gradientTransform="matrix(1.6123076,0,0,1.2043103,-110.77748,-11.932545)"
       x1="123.03124"
       y1="115.47173"
       x2="122.55878"
       y2="126.52753" />
    <linearGradient
       inkscape:collect="always"
       xlink:href="#linearGradient388"
       id="linearGradient32"
       gradientUnits="userSpaceOnUse"
       x1="81.231834"
       y1="150.896"
       x2="82.060043"
       y2="119.05151" />
    <linearGradient
       inkscape:collect="always"
       xlink:href="#linearGradient376"
       id="linearGradient33"
       gradientUnits="userSpaceOnUse"
       x1="106.50691"
       y1="140.06593"
       x2="106.77418"
       y2="151.94272" />
    <linearGradient
       inkscape:collect="always"
       xlink:href="#linearGradient399"
       id="linearGradient34"
       gradientUnits="userSpaceOnUse"
       gradientTransform="matrix(1.2147341,0,0,1,-15.011459,0)"
       x1="80.689018"
       y1="143.74333"
       x2="86.531158"
       y2="132.12056" />
    <linearGradient
       inkscape:collect="always"
       xlink:href="#linearGradient392"
       id="linearGradient35"
       gradientUnits="userSpaceOnUse"
       gradientTransform="matrix(1.2147341,0,0,1,-15.011459,0)"
       x1="76.177208"
       y1="142.79839"
       x2="82.408295"
       y2="133.72696" />
    <linearGradient
       inkscape:collect="always"
       xlink:href="#linearGradient394"
       id="linearGradient36"
       gradientUnits="userSpaceOnUse"
       x1="98.179314"
       y1="145.61533"
       x2="96.100449"
       y2="155.06473" />
    <linearGradient
       inkscape:collect="always"
       xlink:href="#linearGradient401"
       id="linearGradient37"
       gradientUnits="userSpaceOnUse"
       x1="98.179314"
       y1="145.61533"
       x2="96.853615"
       y2="151.94377" />
    <radialGradient
       inkscape:collect="always"
       xlink:href="#linearGradient422"
       id="radialGradient37"
       gradientUnits="userSpaceOnUse"
       gradientTransform="matrix(2.028855,-0.19933614,0.07841714,0.48900823,-124.90879,103.65337)"
       cx="119.79928"
       cy="140.99489"
       fx="119.79928"
       fy="140.99489"
       r="28.867928" />
    <linearGradient
       inkscape:collect="always"
       xlink:href="#linearGradient402"
       id="linearGradient38"
       gradientUnits="userSpaceOnUse"
       gradientTransform="matrix(1.2381673,-0.08844847,0.06153218,0.99780464,-37.252713,9.7363778)"
       x1="125.52593"
       y1="152.9062"
       x2="85.30378"
       y2="148.94107" />
    <filter
       style="color-interpolation-filters:sRGB;"
       inkscape:label="Invert"
       id="filter59"
       x="-0.0079117096"
       y="-0.0048183668"
       width="1.0231917"
       height="1.0096367">
      <feColorMatrix
         values="-1 0 0 0 1 0 -1 0 0 1 0 0 -1 0 1 -0.21 -0.72 -0.07 2 0 "
         result="fbSourceGraphic"
         id="feColorMatrix59" />
      <feColorMatrix
         result="fbSourceGraphicAlpha"
         in="fbSourceGraphic"
         values="0 0 0 -1 0 0 0 0 -1 0 0 0 0 -1 0 0 0 0 1 0"
         id="feColorMatrix60" />
      <feColorMatrix
         id="feColorMatrix61"
         values="-1 0 0 0 1 0 -1 0 0 1 0 0 -1 0 1 -0.21 -0.72 -0.07 2 0 "
         result="fbSourceGraphic"
         in="fbSourceGraphic" />
      <feColorMatrix
         result="fbSourceGraphicAlpha"
         in="fbSourceGraphic"
         values="0 0 0 -1 0 0 0 0 -1 0 0 0 0 -1 0 0 0 0 1 0"
         id="feColorMatrix62" />
      <feColorMatrix
         id="feColorMatrix63"
         values="-1 0 0 0 1 0 -1 0 0 1 0 0 -1 0 1 -0.21 -0.72 -0.07 2 0 "
         result="color2"
         in="fbSourceGraphic" />
    </filter>
  </defs>
  <sodipodi:namedview
     id="base"
     pagecolor="#ffffff"
     bordercolor="#000000"
     borderopacity="0.3"
     inkscape:pageopacity="0.0"
     inkscape:pageshadow="2"
     inkscape:zoom="0.98994949"
     inkscape:cx="504.5712"
     inkscape:cy="476.28693"
     inkscape:document-units="mm"
     inkscape:showpageshadow="2"
     inkscape:pagecheckerboard="0"
     inkscape:deskcolor="#d1d1d1"
     inkscape:current-layer="svg1"
     showguides="true">
    <sodipodi:guide
       position="126.46024,229.51212"
       orientation="1,0"
       id="guide38"
       inkscape:locked="false" />
  </sodipodi:namedview>
  <metadata
     id="metadata1">
    <rdf:RDF>
      <cc:Work
         rdf:about="">
        <dc:format>image/svg+xml</dc:format>
        <dc:type
           rdf:resource="http://purl.org/dc/dcmitype/StillImage" />
        <cc:license
           rdf:resource="http://creativecommons.org/publicdomain/zero/1.0/" />
      </cc:Work>
      <cc:License
         rdf:about="http://creativecommons.org/publicdomain/zero/1.0/">
        <cc:permits
           rdf:resource="http://creativecommons.org/ns#Reproduction" />
        <cc:permits
           rdf:resource="http://creativecommons.org/ns#Distribution" />
        <cc:permits
           rdf:resource="http://creativecommons.org/ns#DerivativeWorks" />
      </cc:License>
    </rdf:RDF>
  </metadata>
  <g
     id="g7"
     inkscape:label="mountains"
     transform="matrix(3.9004025,0,0,3.9004025,-264.06122,-396.73882)">
    <path
       style="color:#000000;fill:url(#linearGradient366);fill-opacity:1;-inkscape-stroke:none"
       d="m 70.420303,110.24346 h 60.330937 v 47.93356 H 70.420303 Z"
       id="path364"
       inkscape:label="background" />
    <path
       style="color:#000000;fill:url(#linearGradient8);fill-opacity:1;-inkscape-stroke:none"
       d="m 70.420303,110.24346 h 60.330937 v 47.93356 H 70.420303 Z"
       id="path4"
       inkscape:label="background2" />
    <g
       id="g371"
       inkscape:label="clouds">
      <ellipse
         style="fill:url(#linearGradient371);fill-opacity:1;stroke:url(#linearGradient415);stroke-width:0.965658;stroke-dasharray:none;stroke-opacity:0.413295"
         id="ellipse370"
         cx="105.64743"
         cy="118.29556"
         rx="8.8137131"
         ry="4.6418848" />
      <ellipse
         style="fill:url(#linearGradient370);fill-opacity:1;stroke:#f9f9f9;stroke-width:0.700643;stroke-dasharray:none;stroke-opacity:0.413295"
         id="ellipse369"
         cx="114.0574"
         cy="122.0863"
         rx="6.3948808"
         ry="3.3679678" />
      <ellipse
         style="fill:url(#linearGradient375);fill-opacity:1;stroke:url(#linearGradient389);stroke-width:1.38085;stroke-dasharray:none;stroke-opacity:0.413295"
         id="ellipse374"
         cx="117.51444"
         cy="131.7242"
         rx="12.929808"
         ry="6.4701004" />
      <ellipse
         style="fill:url(#linearGradient369);fill-opacity:1;stroke:url(#linearGradient409);stroke-width:1.03895;stroke-dasharray:none;stroke-opacity:0.413295"
         id="ellipse368"
         cx="117.88131"
         cy="115.37722"
         rx="9.4826679"
         ry="4.9942012" />
      <ellipse
         style="fill:url(#linearGradient368);fill-opacity:1;stroke:url(#linearGradient407);stroke-width:1.03895;stroke-dasharray:none;stroke-opacity:0.413295"
         id="path366"
         cx="121.94456"
         cy="118.8735"
         rx="9.4826679"
         ry="4.9942012" />
      <ellipse
         style="fill:url(#linearGradient374);fill-opacity:1;stroke:url(#linearGradient381);stroke-width:0.806197;stroke-dasharray:none"
         id="ellipse373"
         cx="98.911171"
         cy="129.59428"
         rx="8.58671"
         ry="3.8753612" />
      <ellipse
         style="fill:url(#linearGradient373);fill-opacity:1;stroke:none;stroke-width:0.735308;stroke-dasharray:none;stroke-opacity:0.413295"
         id="ellipse372"
         cx="84.012383"
         cy="124.14337"
         rx="8.5048828"
         ry="2.789221" />
      <ellipse
         style="fill:url(#linearGradient372);fill-opacity:1;stroke:url(#linearGradient385);stroke-width:1.14542;stroke-dasharray:none;stroke-opacity:0.413295"
         id="ellipse371"
         cx="83.016106"
         cy="129.63484"
         rx="12.645337"
         ry="4.5520058" />
    </g>
    <g
       id="g377"
       inkscape:label="mountain-snowy"
       transform="matrix(0.57342693,-0.04804533,0,0.70005035,45.170344,42.12599)">
      <path
         id="rect375"
         style="fill:#4292ff;stroke-width:0.822;stroke-opacity:0.413295"
         d="m 91.270536,146.16141 2.374339,-1.94175 1.616941,-3.23453 5.397974,1.13393 2.65764,-1.98438 c 0,0 4.26221,2.66381 6.6264,2.55134 1.69197,-0.0805 4.54753,-2.26786 4.54753,-2.26786 0,0 4.04077,2.61744 6.34291,3.11831 1.08151,0.2353 3.3191,-0.0945 3.3191,-0.0945 l 2.33267,1.50648 c 0,0 2.80297,1.83754 4.39446,2.26548 0.68997,0.18553 2.14083,0.10577 2.14083,0.10577 0,0 1.09678,2.57393 2.32864,3.39229 0.93824,0.6233 3.39113,0.84736 3.39113,0.84736 l 3.34323,2.9645 2.86023,0.80663 2.86024,0.80663 2.86024,0.80662 -69.967119,-2.4459 z"
         sodipodi:nodetypes="cccccacaccacaccccccc" />
      <path
         id="rect376"
         style="fill:url(#linearGradient377);stroke-width:0.822;stroke-opacity:0.413295"
         d="m 95.317696,141.25335 5.342694,1.05097 2.64042,-1.95872 c 0,0 3.84037,2.32684 6.02014,2.5068 1.17763,0.0972 3.29748,-0.81357 3.29748,-0.81357 l 1.85645,-1.50517 c 0,0 4.05575,2.68674 6.38106,3.17066 1.05346,0.21924 3.22394,-0.16388 3.22394,-0.16388 l 3.36308,2.14869 3.45697,1.91394 c 0,0 1.92925,-0.37213 2.14237,0.31763 0.24487,0.79249 1.43811,2.57124 1.43811,2.57124 l -4.51701,-1.72397 -4.32921,-2.80383 -2.3573,0.52965 -3.43716,-1.01971 -2.00327,-1.30875 -2.03392,0.97568 -1.03166,-1.89746 -1.83346,0.64159 -1.69984,1.84431 -0.83121,-1.83064 -1.69983,0.97568 -0.96484,-1.49656 -4.97389,-0.16021 -1.29893,-0.29384 -2.16755,2.84657 -0.831208,-2.49882 -2.167555,0.37433 -1.900285,2.11158 -3.370268,1.30977 1.217723,-1.44354 1.796157,-1.21275 z"
         sodipodi:nodetypes="cccaccacccsccccccccccccccccccccccc" />
    </g>
    <g
       id="g391"
       inkscape:label="mountain-middle"
       transform="matrix(1,0,0,1.0903762,0.1889881,-19.498581)">
      <path
         id="rect391"
         style="display:inline;fill:url(#linearGradient393);fill-opacity:1;stroke-width:0.905967;stroke-opacity:0.413295"
         d="m 70.441731,138.4579 3.358216,-1.67045 2.357782,1.0481 c 0,0 2.272476,0.49619 3.397444,0.33311 1.450886,-0.21032 4.023628,-1.6481 4.023628,-1.6481 l 2.886113,0.30856 1.843614,3.72253 c 0,0 0.843172,0.1973 1.466084,0.22347 0.891878,0.14499 2.639871,1.86765 3.595365,1.68854 1.195349,-0.22406 1.680445,-0.13495 2.477053,-0.12545 1.345663,2.24686 6.85575,6.63487 6.85575,6.63487 l 7.82987,5.50589 -40.625457,-0.22141 z"
         sodipodi:nodetypes="cccaccccsccccc" />
      <path
         id="path397"
         style="fill:url(#linearGradient397);fill-opacity:1;stroke-width:0.905967;stroke-opacity:0.413295"
         d="m 70.441731,138.4579 3.358216,-1.67045 2.357782,1.0481 3.49767,0.60887 3.956811,-1.74002 2.785887,0.27792 1.793501,3.66125 c 0,0 1.074167,0.24699 1.697079,0.27316 0.390748,0.099 2.768236,2.00756 3.894974,1.66938 1.031786,-0.30967 1.524459,-0.0488 1.929744,0.0279 1.345663,2.24686 6.989385,6.35911 6.989385,6.35911 l -4.54885,0.30872 -1.688208,-2.77982 -2.444161,0.055 c 0,0 -4.792398,-0.23043 -6.412911,-1.74039 -0.620355,-0.57803 -0.399941,-1.6757 -0.837761,-2.40184 -0.498096,-0.82611 -1.97169,-2.11835 -1.97169,-2.11835 0,0 -1.447141,-0.90312 -2.255173,-0.88995 -1.711243,0.0279 -3.004155,2.15044 -4.712018,2.03938 -1.313031,-0.0854 -3.389101,-2.02387 -3.389101,-2.02387 z"
         sodipodi:nodetypes="ccccccccscccccaacaacc" />
    </g>
    <g
       id="g395"
       inkscape:label="mountain-front"
       transform="matrix(1,-0.04709,0,1.0174807,0,-4.8845513)"
       style="display:inline">
      <path
         id="rect393"
         style="fill:url(#linearGradient395);stroke-width:0.499999;stroke-opacity:0.413295"
         d="m 72.193451,147.78868 0.07678,-3.48222 c 0,0 2.681583,1.99113 4.234515,2.16024 2.303954,0.25091 4.288691,-1.94593 6.596866,-1.80242 1.731509,0.10767 4.895973,1.96423 4.895973,1.96423 0,0 2.153524,1.59205 3.384068,1.63264 6.809635,0.22464 4.610796,-1.01518 6.957124,-1.32292 1.368467,-0.17949 2.758413,-0.51871 4.140013,-0.30363 1.03609,0.1613 3.32566,1.48733 4.97275,2.26786 1.19893,0.56815 3.57306,1.75774 3.57306,1.75774 2.30512,-0.93133 4.25563,-1.35473 6.48466,-1.37273 1.51947,-0.0123 4.51799,0.86356 4.51799,0.86356 l 3.38407,0.75595 3.85654,0.28349 0.0945,3.77976 H 72.193451 Z"
         sodipodi:nodetypes="ccaacaaaacacccccc" />
      <path
         id="path399"
         style="fill:url(#linearGradient400);stroke-width:0.499999;stroke-opacity:0.413295"
         d="m 72.193451,147.78868 0.07678,-3.48222 c 0,0 2.681583,1.99113 4.234515,2.16024 2.303954,0.25091 4.288691,-1.94593 6.596866,-1.80242 1.731509,0.10767 4.895973,1.96423 4.895973,1.96423 0,0 2.153524,1.59205 3.384068,1.63264 6.809635,0.22464 4.610796,-1.01518 6.957124,-1.32292 1.368467,-0.17949 2.758413,-0.51871 4.140013,-0.30363 1.03609,0.1613 3.32566,1.48733 4.97275,2.26786 1.19893,0.56815 3.57306,1.75774 3.57306,1.75774 2.30512,-0.93133 4.25563,-1.35473 6.48466,-1.37273 1.51947,-0.0123 4.51799,0.86356 4.51799,0.86356 l 3.38407,0.75595 3.85654,0.28349 -0.28347,1.96688 -5.51076,-0.49058 -3.77351,-0.94472 -4.97622,-1.26766 -3.50624,0.87172 -0.90037,1.79413 -1.76898,-1.38649 -1.10082,-1.42238 -3.97396,-2.15671 -2.83806,-0.90143 -3.885373,1.15224 -3.809292,1.8317 -3.951033,0.31324 -0.549248,-2.22241 -5.415691,-2.30589 -5.179456,2.52424 -2.817105,0.41297 z"
         sodipodi:nodetypes="ccaacaaaacaccccccccccccccccccccc" />
    </g>
    <g
       id="g401"
       inkscape:label="whater"
       transform="matrix(1,0,0,1.2775557,0,-43.668567)">
      <path
         id="rect395"
         style="fill:url(#radialGradient423);fill-opacity:1;stroke-width:0.651614;stroke-opacity:0.413295"
         d="m 72.098957,148.98712 57.641363,-1.76539 -0.0945,10.11087 H 72.004463 Z"
         sodipodi:nodetypes="ccccc"
         inkscape:label="whater" />
      <path
         id="rect401"
         style="fill:url(#linearGradient403);stroke-width:0.556975;stroke-opacity:0.413295"
         d="m 100.60612,149.24806 c 0,0 5.40733,1.4687 8.91391,0.87914 3.14515,-0.52881 6.85086,-1.1855 10.70316,-1.36017 4.15162,-0.18824 9.5434,0.40482 9.5434,0.40482 0,0 -8.18218,-1.28765 -12.29048,-0.92122 -2.70866,0.2416 -5.09258,0.92816 -8.60758,1.12864 -3.51498,0.20048 -8.26241,-0.13121 -8.26241,-0.13121 z m -20.387676,2.877 c 0,0 5.407322,1.4687 8.913915,0.87913 3.14515,-0.52881 6.850849,-1.1855 10.703152,-1.36017 4.151619,-0.18824 10.164549,-0.96537 10.164549,-0.96537 0,0 -8.80333,0.0825 -12.911618,0.44898 -2.708675,0.2416 -5.092599,0.92816 -8.60759,1.12865 -3.514991,0.20048 -8.262408,-0.13122 -8.262408,-0.13122 z m 18.110927,0.22111 c 0,0 5.407349,1.46922 8.913939,0.87965 3.14515,-0.52881 6.85085,-1.1855 10.70317,-1.36017 4.1516,-0.18824 9.98847,-0.006 9.98847,-0.006 0,0 -8.62726,-0.87676 -12.73555,-0.51032 -2.70867,0.24159 -5.0926,0.92815 -8.60759,1.12864 -3.515,0.20048 -8.262439,-0.13173 -8.262439,-0.13173 z" />
    </g>
    <path
       style="color:#000000;fill:#ffffff;stroke:#cecece;stroke-width:0.5;stroke-dasharray:none;stroke-opacity:1"
       d="m 68.445312,108.26758 v 51.88476 h 64.281248 v -51.88476 z m 3.949219,3.95117 h 56.380859 v 43.98242 H 72.394531 Z"
       id="path365"
       inkscape:label="frame" />
  </g>
  <g
     id="g17"
     inkscape:label="mountains2"
     transform="matrix(3.9004025,0,0,3.9004025,-264.06122,-396.73882)"
     style="filter:url(#filter59)">
    <path
       id="path1"
       style="color:#000000;fill:url(#linearGradient17);fill-opacity:1;-inkscape-stroke:none"
       inkscape:label="background"
       d="M 70.420243 110.2434 L 70.420243 158.17696 L 100.04408 158.17696 L 100.04408 110.2434 L 70.420243 110.2434 z " />
    <path
       id="path2"
       style="color:#000000;fill:url(#linearGradient18);fill-opacity:1;-inkscape-stroke:none"
       inkscape:label="background2"
       d="M 70.420243 110.2434 L 70.420243 158.17696 L 100.04408 158.17696 L 100.04408 110.2434 L 70.420243 110.2434 z " />
    <g
       id="g9"
       inkscape:label="clouds">
      <path
         id="ellipse2"
         style="fill:url(#linearGradient19);fill-opacity:1;stroke:url(#linearGradient20);stroke-width:0.965658;stroke-dasharray:none;stroke-opacity:0.413295"
         d="M 100.04408 114.71255 A 8.8137131 4.6418848 0 0 0 96.833714 118.29561 A 8.8137131 4.6418848 0 0 0 100.04408 121.87867 L 100.04408 114.71255 z " />
      <path
         id="ellipse7"
         style="fill:url(#linearGradient28);fill-opacity:1;stroke:url(#linearGradient29);stroke-width:0.806197;stroke-dasharray:none"
         d="M 98.911157 125.7189 A 8.58671 3.8753612 0 0 0 90.32448 129.59423 A 8.58671 3.8753612 0 0 0 98.911157 133.46969 A 8.58671 3.8753612 0 0 0 100.04408 133.43578 L 100.04408 125.75281 A 8.58671 3.8753612 0 0 0 98.911157 125.7189 z " />
      <path
         id="ellipse8"
         style="fill:url(#linearGradient30);fill-opacity:1;stroke:none;stroke-width:0.735308;stroke-dasharray:none;stroke-opacity:0.413295"
         d="M 84.012392 121.35415 A 8.5048828 2.789221 0 0 0 75.507461 124.14332 A 8.5048828 2.789221 0 0 0 84.012392 126.93264 A 8.5048828 2.789221 0 0 0 92.517322 124.14332 A 8.5048828 2.789221 0 0 0 84.012392 121.35415 z " />
      <path
         id="ellipse9"
         style="fill:url(#linearGradient31);fill-opacity:1;stroke:url(#linearGradient32);stroke-width:1.14542;stroke-dasharray:none;stroke-opacity:0.413295"
         d="M 83.016067 125.08281 A 12.645337 4.5520058 0 0 0 70.370824 129.6349 A 12.645337 4.5520058 0 0 0 83.016067 134.18686 A 12.645337 4.5520058 0 0 0 95.661442 129.6349 A 12.645337 4.5520058 0 0 0 83.016067 125.08281 z " />
    </g>
    <g
       id="g10"
       inkscape:label="mountain-snowy"
       transform="matrix(0.57342693,-0.04804533,0,0.70005035,45.170344,42.12599)">
      <path
         id="path9"
         style="fill:#4292ff;stroke-width:0.822;stroke-opacity:0.413295"
         d="M 95.261856 140.98508 L 93.644972 144.21962 L 91.270476 146.16139 L 80.697883 154.49782 L 95.694381 155.02211 L 95.694381 141.07589 L 95.261856 140.98508 z " />
      <path
         id="path10"
         style="fill:url(#linearGradient33);stroke-width:0.822;stroke-opacity:0.413295"
         d="M 95.31777 141.25331 L 94.045843 144.41103 L 92.249664 145.62373 L 91.032033 147.06728 L 94.402352 145.75746 L 95.694381 144.32166 L 95.694381 141.32742 L 95.31777 141.25331 z " />
    </g>
    <g
       id="g12"
       inkscape:label="mountain-middle"
       transform="matrix(1,0,0,1.0903762,0.1889881,-19.498581)">
      <path
         id="path11"
         style="display:inline;fill:url(#linearGradient34);fill-opacity:1;stroke-width:0.905967;stroke-opacity:0.413295"
         d="M 83.578827 136.52062 C 83.578827 136.52062 81.006124 137.95832 79.555238 138.16864 C 78.43027 138.33172 76.157665 137.83558 76.157665 137.83558 L 73.800005 136.78745 L 70.441781 138.45795 L 69.907184 154.25758 L 99.855091 154.42077 L 99.855091 146.56548 C 98.29002 145.17466 96.530828 143.47999 95.847004 142.3382 C 95.050396 142.3287 94.56532 142.23966 93.369971 142.46372 C 92.414477 142.64283 90.666467 140.92011 89.774589 140.77512 C 89.151677 140.74895 88.308588 140.55166 88.308588 140.55166 L 86.464857 136.82913 L 83.578827 136.52062 z " />
      <path
         id="path12"
         style="fill:url(#linearGradient35);fill-opacity:1;stroke-width:0.905967;stroke-opacity:0.413295"
         d="M 83.612215 136.70446 L 79.655401 138.44446 L 76.157665 137.83558 L 73.800005 136.78745 L 70.441781 138.45795 L 74.442847 139.422 C 74.442847 139.422 76.519042 141.36044 77.832073 141.44584 C 79.539936 141.5569 80.832837 139.43434 82.54408 139.40644 C 83.352112 139.39327 84.799193 140.29649 84.799193 140.29649 C 84.799193 140.29649 86.272813 141.58864 86.770909 142.41475 C 87.208729 143.14089 86.988288 144.23858 87.608643 144.81661 C 89.229156 146.32657 94.021556 146.55698 94.021556 146.55698 L 96.465732 146.50206 L 98.153919 149.28181 L 99.855091 149.16637 L 99.855091 146.75382 C 98.239929 145.42357 96.406586 143.77135 95.713454 142.61403 C 95.308169 142.53733 94.81539 142.27641 93.783604 142.58608 C 92.656866 142.92426 90.279411 141.01567 89.888663 140.91667 C 89.265751 140.8905 88.191599 140.64352 88.191599 140.64352 L 86.398082 136.98235 L 83.612215 136.70446 z " />
    </g>
    <g
       id="g14"
       inkscape:label="mountain-front"
       transform="matrix(1,-0.04709,0,1.0174807,0,-4.8845513)"
       style="display:inline">
      <path
         id="path13"
         style="fill:url(#linearGradient36);stroke-width:0.499999;stroke-opacity:0.413295"
         d="M 83.101656 144.66425 C 80.793481 144.52074 78.808667 146.71762 76.504713 146.46671 C 74.951781 146.2976 72.270201 144.30645 72.270201 144.30645 L 72.193489 147.78873 L 72.193489 154.97028 L 100.04408 154.97024 L 100.04408 146.68422 C 99.473359 146.76256 98.90429 146.86408 98.3388 146.93826 C 95.992472 147.246 98.191253 148.48577 91.381618 148.26113 C 90.151074 148.22054 87.997558 146.62854 87.997558 146.62854 C 87.997558 146.62854 84.833165 144.77192 83.101656 144.66425 z " />
      <path
         id="path14"
         style="fill:url(#linearGradient37);stroke-width:0.499999;stroke-opacity:0.413295"
         d="M 83.101656 144.66425 C 80.793481 144.52074 78.808667 146.71762 76.504713 146.46671 C 74.951781 146.2976 72.270201 144.30645 72.270201 144.30645 L 72.193489 147.78873 L 75.028245 148.95929 L 77.84538 148.54629 L 83.024811 146.02208 L 88.440473 148.32801 L 88.989776 150.5504 L 92.94076 150.23714 L 96.750113 148.40542 L 100.04408 147.42865 L 100.04408 146.68422 C 99.473359 146.76256 98.90429 146.86408 98.3388 146.93826 C 95.992472 147.246 98.191253 148.48577 91.381618 148.26113 C 90.151074 148.22054 87.997558 146.62854 87.997558 146.62854 C 87.997558 146.62854 84.833165 144.77192 83.101656 144.66425 z " />
    </g>
    <g
       id="g16"
       inkscape:label="whater"
       transform="matrix(1,0,0,1.2775557,0,-43.668567)">
      <path
         id="path15"
         style="fill:url(#radialGradient37);fill-opacity:1;stroke-width:0.651614;stroke-opacity:0.413295"
         inkscape:label="whater"
         d="M 100.04408 148.1312 L 72.098891 148.98708 L 72.004426 157.3326 L 100.04408 157.3326 L 100.04408 148.1312 z " />
      <path
         id="path16"
         style="fill:url(#linearGradient38);stroke-width:0.556975;stroke-opacity:0.413295"
         d="M 100.04408 150.93852 C 98.941315 150.99106 97.919021 151.05359 97.088492 151.12768 C 94.379817 151.36928 91.995873 152.05582 88.480882 152.25631 C 84.965891 152.45679 80.218408 152.12502 80.218408 152.12502 C 80.218408 152.12502 85.625742 153.5938 89.132335 153.00423 C 92.277485 152.47542 95.983237 151.8187 99.83554 151.64403 C 99.904581 151.6409 99.974044 151.63763 100.04408 151.63418 L 100.04408 150.93852 z M 98.329659 152.34622 C 98.347144 152.35096 99.023116 152.53383 100.04408 152.74331 L 100.04408 152.44204 C 99.022372 152.39441 98.347134 152.34744 98.329659 152.34622 z " />
    </g>
    <path
       id="path17"
       style="color:#000000;fill:#ffffff;stroke:#cecece;stroke-width:0.5;stroke-dasharray:none;stroke-opacity:1"
       inkscape:label="frame"
       d="M 68.445347 108.26758 L 68.445347 160.15238 L 100.04408 160.15238 L 100.04408 156.20113 L 72.394476 156.20113 L 72.394476 112.21869 L 100.04408 112.21869 L 100.04408 108.26758 L 68.445347 108.26758 z " />
  </g>
  <rect
     style="display:none;fill:#c3c3c3;fill-rule:evenodd;stroke-width:2.5;stroke-linecap:square;paint-order:stroke fill markers"
     id="rect54"
     width="130.96207"
     height="225.30821"
     x="126.15121"
     y="13.630746" />
  <rect
     style="display:none;fill:#c3c3c3;fill-rule:evenodd;stroke-width:2.5;stroke-linecap:square;paint-order:stroke fill markers"
     id="rect55"
     width="130.96207"
     height="225.30821"
     x="126.15121"
     y="13.630746" />
</svg>
