<?xml version="1.0" encoding="UTF-8" standalone="no"?>
<!-- Generator: Adobe Illustrator 10.0, SVG Export Plug-In . SVG Version: 3.0.0 Build 76)  -->

<svg
   width="256"
   height="256"
   viewBox="1 1 256 256"
   overflow="visible"
   enable-background="new 0.277 -0.028 121 114"
   xml:space="preserve"
   version="1.1"
   id="svg19"
   sodipodi:docname="kdenlive-hide-audio.svg"
   inkscape:version="1.3.2 (091e20ef0f, 2023-11-25)"
   inkscape:export-filename="../arts.png"
   inkscape:export-xdpi="96"
   inkscape:export-ydpi="96"
   xmlns:inkscape="http://www.inkscape.org/namespaces/inkscape"
   xmlns:sodipodi="http://sodipodi.sourceforge.net/DTD/sodipodi-0.dtd"
   xmlns:xlink="http://www.w3.org/1999/xlink"
   xmlns="http://www.w3.org/2000/svg"
   xmlns:svg="http://www.w3.org/2000/svg"
   xmlns:rdf="http://www.w3.org/1999/02/22-rdf-syntax-ns#"
   xmlns:cc="http://creativecommons.org/ns#"><defs
   id="defs19"><linearGradient
     id="linearGradient7"
     inkscape:collect="always"><stop
       style="stop-color:#b0b0b0;stop-opacity:1;"
       offset="0"
       id="stop7" /><stop
       style="stop-color:#2b2b2b;stop-opacity:1;"
       offset="1"
       id="stop8" /></linearGradient><linearGradient
     id="linearGradient1"
     inkscape:collect="always"><stop
       style="stop-color:#000000;stop-opacity:1;"
       offset="0"
       id="stop1" /><stop
       style="stop-color:#808080;stop-opacity:1;"
       offset="0.25"
       id="stop5" /><stop
       style="stop-color:#c4c4c4;stop-opacity:1;"
       offset="0.375"
       id="stop6" /><stop
       style="stop-color:#d8d8d8;stop-opacity:1;"
       offset="0.5"
       id="stop3" /><stop
       style="stop-color:#eaeaea;stop-opacity:1"
       offset="0.75"
       id="stop4" /><stop
       style="stop-color:#7d7d7d;stop-opacity:1;"
       offset="1"
       id="stop2" /></linearGradient><linearGradient
     id="linearGradient67"
     inkscape:collect="always"><stop
       style="stop-color:#ffffff;stop-opacity:1;"
       offset="0"
       id="stop67" /><stop
       style="stop-color:#f8f8f8;stop-opacity:0.65142858;"
       offset="0.48525026"
       id="stop69" /><stop
       style="stop-color:#ffffff;stop-opacity:0;"
       offset="0.59242409"
       id="stop72" /><stop
       style="stop-color:#000000;stop-opacity:0;"
       offset="0.64229733"
       id="stop71" /><stop
       style="stop-color:#000000;stop-opacity:0.32285714;"
       offset="0.77932638"
       id="stop70" /><stop
       style="stop-color:#000000;stop-opacity:1;"
       offset="1"
       id="stop68" /></linearGradient><linearGradient
     id="linearGradient64"
     inkscape:collect="always"><stop
       style="stop-color:#6f6f6f;stop-opacity:1;"
       offset="0"
       id="stop64" /><stop
       style="stop-color:#7e7e7e;stop-opacity:1;"
       offset="1"
       id="stop65" /></linearGradient><linearGradient
     id="linearGradient55"
     inkscape:collect="always"><stop
       style="stop-color:#c5c5c5;stop-opacity:1;"
       offset="0"
       id="stop56" /><stop
       style="stop-color:#909090;stop-opacity:1;"
       offset="1"
       id="stop57" /></linearGradient><linearGradient
     id="linearGradient50"
     inkscape:collect="always"><stop
       style="stop-color:#777777;stop-opacity:1;"
       offset="0"
       id="stop51" /><stop
       style="stop-color:#dfdfdf;stop-opacity:1;"
       offset="0.51526284"
       id="stop53" /><stop
       style="stop-color:#505050;stop-opacity:1;"
       offset="0.64672428"
       id="stop54" /><stop
       style="stop-color:#838383;stop-opacity:1;"
       offset="0.77179641"
       id="stop55" /><stop
       style="stop-color:#505050;stop-opacity:1;"
       offset="1"
       id="stop52" /></linearGradient><linearGradient
     id="linearGradient46"
     inkscape:collect="always"><stop
       style="stop-color:#c1c1c1;stop-opacity:1;"
       offset="0"
       id="stop47" /><stop
       style="stop-color:#373737;stop-opacity:1;"
       offset="0.20954956"
       id="stop49" /><stop
       style="stop-color:#8c8c8c;stop-opacity:1;"
       offset="0.65844262"
       id="stop50" /><stop
       style="stop-color:#242424;stop-opacity:1;"
       offset="1"
       id="stop48" /></linearGradient><linearGradient
     id="linearGradient43"
     inkscape:collect="always"><stop
       style="stop-color:#a2a2a2;stop-opacity:1;"
       offset="0"
       id="stop43" /><stop
       style="stop-color:#8d8d8d;stop-opacity:1;"
       offset="0.61425292"
       id="stop45" /><stop
       style="stop-color:#585858;stop-opacity:1;"
       offset="0.87520468"
       id="stop46" /><stop
       style="stop-color:#646464;stop-opacity:1;"
       offset="1"
       id="stop44" /></linearGradient><linearGradient
     id="linearGradient41"
     inkscape:collect="always"><stop
       style="stop-color:#c5c5c5;stop-opacity:1;"
       offset="0"
       id="stop41" /><stop
       style="stop-color:#a8a8a8;stop-opacity:1;"
       offset="0.17713282"
       id="stop60" /><stop
       style="stop-color:#dedede;stop-opacity:1;"
       offset="0.2649934"
       id="stop61" /><stop
       style="stop-color:#898989;stop-opacity:1;"
       offset="0.58994538"
       id="stop62" /><stop
       style="stop-color:#444444;stop-opacity:1;"
       offset="0.762761"
       id="stop63" /><stop
       style="stop-color:#a3a3a3;stop-opacity:1;"
       offset="1"
       id="stop42" /></linearGradient><linearGradient
     id="linearGradient39"
     inkscape:collect="always"><stop
       style="stop-color:#939393;stop-opacity:1;"
       offset="0"
       id="stop39" /><stop
       style="stop-color:#444444;stop-opacity:1;"
       offset="1"
       id="stop40" /></linearGradient><linearGradient
     id="linearGradient35"
     inkscape:collect="always"><stop
       style="stop-color:#909090;stop-opacity:1;"
       offset="0"
       id="stop35" /><stop
       style="stop-color:#505050;stop-opacity:1;"
       offset="1"
       id="stop36" /></linearGradient><linearGradient
     id="linearGradient33"
     inkscape:collect="always"><stop
       style="stop-color:#b6b6b6;stop-opacity:1;"
       offset="0"
       id="stop33" /><stop
       style="stop-color:#838383;stop-opacity:1;"
       offset="0.3755708"
       id="stop32" /><stop
       style="stop-color:#000000;stop-opacity:1;"
       offset="0.59416389"
       id="stop37" /><stop
       style="stop-color:#3e3e3e;stop-opacity:1;"
       offset="0.88812399"
       id="stop38" /><stop
       style="stop-color:#acacac;stop-opacity:1;"
       offset="1"
       id="stop34" /></linearGradient><linearGradient
     id="linearGradient30"
     inkscape:collect="always"><stop
       style="stop-color:#795300;stop-opacity:1;"
       offset="0"
       id="stop27" /><stop
       style="stop-color:#ffca39;stop-opacity:1;"
       offset="0.56904089"
       id="stop28" /><stop
       style="stop-color:#ffc513;stop-opacity:1;"
       offset="0.83452082"
       id="stop29" /><stop
       style="stop-color:#ffefc5;stop-opacity:1;"
       offset="1"
       id="stop30" /></linearGradient><linearGradient
     id="linearGradient3"
     inkscape:collect="always"><stop
       style="stop-color:#515151;stop-opacity:1;"
       offset="0"
       id="stop10" /><stop
       style="stop-color:#000000;stop-opacity:1;"
       offset="0.21246083"
       id="stop58" /><stop
       style="stop-color:#b4b4b4;stop-opacity:1;"
       offset="0.66048306"
       id="stop59" /><stop
       style="stop-color:#d6d6d6;stop-opacity:1;"
       offset="0.75324428"
       id="stop20" /><stop
       style="stop-color:#ffffff;stop-opacity:1;"
       offset="0.83452082"
       id="stop26" /><stop
       style="stop-color:#f0f0f0;stop-opacity:1;"
       offset="0.91726041"
       id="stop31" /><stop
       style="stop-color:#525252;stop-opacity:1;"
       offset="1"
       id="stop19" /></linearGradient><linearGradient
     inkscape:collect="always"
     xlink:href="#linearGradient3"
     id="linearGradient19"
     x1="47.467163"
     y1="188.23257"
     x2="23.573383"
     y2="90.629616"
     gradientUnits="userSpaceOnUse"
     gradientTransform="translate(4.6474621,-14.274348)" /><linearGradient
     inkscape:collect="always"
     xlink:href="#linearGradient30"
     id="linearGradient26"
     gradientUnits="userSpaceOnUse"
     gradientTransform="matrix(0.84692997,0,0,0.84692997,0.7822539,6.3932441)"
     x1="38.84362"
     y1="177.60356"
     x2="23.573383"
     y2="90.629616" /><linearGradient
     inkscape:collect="always"
     xlink:href="#linearGradient33"
     id="linearGradient34"
     x1="30.53635"
     y1="89.965698"
     x2="60.740757"
     y2="171.80461"
     gradientUnits="userSpaceOnUse" /><linearGradient
     inkscape:collect="always"
     xlink:href="#linearGradient35"
     id="linearGradient36"
     x1="19.709373"
     y1="106.07172"
     x2="52.714104"
     y2="126.72816"
     gradientUnits="userSpaceOnUse" /><linearGradient
     inkscape:collect="always"
     xlink:href="#linearGradient39"
     id="linearGradient40"
     x1="73.204712"
     y1="76.724335"
     x2="140.76407"
     y2="173.12207"
     gradientUnits="userSpaceOnUse" /><linearGradient
     inkscape:collect="always"
     xlink:href="#linearGradient41"
     id="linearGradient42"
     x1="23.004433"
     y1="81.558784"
     x2="129.80983"
     y2="211.39981"
     gradientUnits="userSpaceOnUse" /><linearGradient
     inkscape:collect="always"
     xlink:href="#linearGradient46"
     id="linearGradient48"
     x1="68.18956"
     y1="77.107162"
     x2="68.453392"
     y2="162.78444"
     gradientUnits="userSpaceOnUse" /><linearGradient
     inkscape:collect="always"
     xlink:href="#linearGradient55"
     id="linearGradient57"
     x1="127.94761"
     y1="101.80588"
     x2="155.48715"
     y2="103.21426"
     gradientUnits="userSpaceOnUse" /><linearGradient
     inkscape:collect="always"
     xlink:href="#linearGradient64"
     id="linearGradient65"
     x1="136.4321"
     y1="127.80933"
     x2="153.82693"
     y2="132.47026"
     gradientUnits="userSpaceOnUse" /><radialGradient
     inkscape:collect="always"
     xlink:href="#linearGradient67"
     id="radialGradient68"
     cx="186.14536"
     cy="130.57004"
     fx="186.14536"
     fy="130.57004"
     r="16.498605"
     gradientTransform="matrix(2.3080176,-0.07488717,0.19089583,5.883396,-279.26242,-625.11827)"
     gradientUnits="userSpaceOnUse" /><radialGradient
     inkscape:collect="always"
     xlink:href="#linearGradient67"
     id="radialGradient74"
     gradientUnits="userSpaceOnUse"
     gradientTransform="matrix(2.6670328,0,2.9496958e-8,5.8864921,-321.16615,-639.46243)"
     cx="186.14536"
     cy="130.57004"
     fx="186.14536"
     fy="130.57004"
     r="16.498605" /><radialGradient
     inkscape:collect="always"
     xlink:href="#linearGradient1"
     id="radialGradient2"
     cx="158.50037"
     cy="128.78226"
     fx="158.50037"
     fy="128.78226"
     r="26.524748"
     gradientTransform="matrix(1.761062,-0.01769912,0.05318361,5.2917688,-135.92308,-551.39465)"
     gradientUnits="userSpaceOnUse" /><linearGradient
     inkscape:collect="always"
     xlink:href="#linearGradient7"
     id="linearGradient8"
     x1="141.29384"
     y1="138.31725"
     x2="169.21657"
     y2="107.77679"
     gradientUnits="userSpaceOnUse" /><radialGradient
     inkscape:collect="always"
     xlink:href="#linearGradient43"
     id="radialGradient8"
     cx="140.22519"
     cy="126.57844"
     fx="140.22519"
     fy="126.57844"
     r="20.812632"
     gradientTransform="matrix(1.4629714,0.042132,-0.17827795,6.1904382,-40.384244,-666.60091)"
     gradientUnits="userSpaceOnUse" /><radialGradient
     inkscape:collect="always"
     xlink:href="#linearGradient50"
     id="radialGradient9"
     cx="123.91525"
     cy="129.0649"
     fx="123.91525"
     fy="129.0649"
     r="20.812632"
     gradientTransform="matrix(2.2809458,0.02335068,-0.0714705,6.9813996,-149.47339,-766.24713)"
     gradientUnits="userSpaceOnUse" /></defs><sodipodi:namedview
   id="namedview19"
   pagecolor="#ffffff"
   bordercolor="#000000"
   borderopacity="0.25"
   inkscape:showpageshadow="2"
   inkscape:pageopacity="0.0"
   inkscape:pagecheckerboard="0"
   inkscape:deskcolor="#d1d1d1"
   inkscape:zoom="2.1300862"
   inkscape:cx="85.912018"
   inkscape:cy="236.61015"
   inkscape:current-layer="svg19"
   showguides="true"><sodipodi:guide
     position="175.57975,214.68712"
     orientation="1,0"
     id="guide64"
     inkscape:locked="false" /></sodipodi:namedview>
	
<metadata
   id="metadata1"><rdf:RDF><cc:License
       rdf:about="http://creativecommons.org/publicdomain/zero/1.0/"><cc:permits
         rdf:resource="http://creativecommons.org/ns#Reproduction" /><cc:permits
         rdf:resource="http://creativecommons.org/ns#Distribution" /><cc:permits
         rdf:resource="http://creativecommons.org/ns#DerivativeWorks" /></cc:License><cc:Work
       rdf:about=""><cc:license
         rdf:resource="http://creativecommons.org/publicdomain/zero/1.0/" /></cc:Work></rdf:RDF></metadata><g
   id="g1"
   transform="matrix(1.0698335,0,0,1.0698335,-6.7763808,-10.040247)"
   inkscape:label="speaker-symbol"><path
     id="path1"
     style="fill:url(#radialGradient2);stroke:#6b6b6b;stroke-width:6.495;stroke-linecap:round;stroke-linejoin:round;stroke-miterlimit:2.1;stroke-dasharray:none;stroke-opacity:1"
     d="m 202.63503,126.11231 c 0,57.81902 -23.84689,107.74211 -38.4961,107.74211 -14.64921,0 -31.50417,-46.87157 -31.50417,-104.69059 0,-57.819018 16.85496,-104.69059 31.50417,-104.690586 14.64921,-4e-6 38.4961,43.820048 38.4961,101.639066 z"
     sodipodi:nodetypes="sssss"
     transform="matrix(0.85436721,0,0,0.85436721,13.826945,17.540942)" /><path
     id="rect37"
     style="fill:url(#linearGradient42);stroke:url(#linearGradient40);stroke-width:4;stroke-linecap:round;stroke-linejoin:round;stroke-miterlimit:2.1"
     d="M 56.769547,93.285323 138.10014,25.56516 c -23.47794,68.324748 -21.88931,137.06727 0,206.14814 L 56.769547,160.67352 Z"
     sodipodi:nodetypes="ccccc" /><path
     id="rect36"
     style="fill:#c5c5c5;stroke:url(#linearGradient48);stroke-width:4;stroke-linecap:round;stroke-linejoin:round;stroke-miterlimit:2.1"
     d="m 56.105621,80.338821 h 11.286698 c -13.965097,33.741769 -6.897606,64.328649 0,94.941019 H 56.105621 Z"
     sodipodi:nodetypes="ccccc" /><path
     id="path26"
     style="fill:url(#linearGradient26);stroke:url(#linearGradient36);stroke-width:3.76797;stroke-linecap:round;stroke-linejoin:round;stroke-miterlimit:2.1;stroke-dasharray:none"
     d="m 18.625071,87.403278 c 1.701703,-2.817075 3.200973,-4.534233 5.625067,-4.534233 H 50.830119 V 170.58728 H 24.250138 c -1.996617,0 -2.788896,-1.58996 -4.065173,-3.75247 C 11.465566,140.63079 5.8065559,114.35205 18.625071,87.403278 Z"
     sodipodi:nodetypes="ccccccc" /><path
     id="rect3"
     style="fill:url(#linearGradient19);stroke:url(#linearGradient34);stroke-width:4;stroke-linecap:round;stroke-linejoin:round;stroke-miterlimit:2.1;stroke-dasharray:none"
     d="m 31.664741,76.02332 h 27.36383 c 3.643628,-0.03096 4.109385,1.844802 4.712166,3.63835 -13.199145,27.43742 -10.355913,66.86748 4.211499,94.76138 0.960536,4.30825 -1.029805,4.47554 -4.929378,4.37008 l -31.457964,0.80219 c -2.811541,-0.13592 -4.01186,-1.70403 -4.007968,-4.34255 -8.837269,-31.98415 -15.961885,-63.9502 0,-95.563568 0.350893,-1.787726 0.982989,-3.41923 4.107815,-3.665882 z"
     sodipodi:nodetypes="ccccccccc" /><path
     id="rect40"
     style="fill:url(#linearGradient57);stroke:url(#linearGradient65);stroke-width:4;stroke-linecap:round;stroke-linejoin:round;stroke-miterlimit:2.1"
     d="m 138.4321,24.23731 15.28978,15.022866 c -30.79009,63.954394 -21.78336,123.240694 0.93893,177.098294 l -16.22871,15.02287 c -24.86298,-72.27099 -32.66956,-142.330963 0,-207.14403 z"
     sodipodi:nodetypes="ccccc" /><path
     id="rect42"
     style="fill:url(#radialGradient8);stroke:url(#radialGradient9);stroke-width:4;stroke-linecap:round;stroke-linejoin:round;stroke-miterlimit:2.1"
     d="m 128.69437,27.75948 c 6.43001,-12.765183 12.03526,-2.558519 16.9007,2.306297 -30.00755,64.761251 -30.21614,129.939383 0,195.035293 -8.34221,6.19118 -10.04327,13.47006 -16.9007,3.11979 -25.94626,-66.50232 -29.315725,-132.872335 0,-200.46138 z"
     sodipodi:nodetypes="ccccc" /><path
     id="path9"
     style="fill:#cbcbcb;stroke:#6f6f6f;stroke-width:6.495;stroke-linecap:round;stroke-linejoin:round;stroke-miterlimit:2.1;stroke-opacity:1"
     d="m 145.73525,5.6474623 12.5409,7.1892427 c 38.74833,19.371721 84.0718,158.455365 -1.40839,235.692725 l -9.29493,4.17799 C 244.07661,220.6003 209.80975,3.4789073 145.73525,5.6474623 Z"
     sodipodi:nodetypes="ccccc"
     transform="matrix(0.85436721,0,0,0.85436721,13.826945,17.540942)" /><path
     id="rect9"
     style="fill:#6f6f6f;fill-opacity:1;stroke:#6f6f6f;stroke-width:6.495;stroke-linecap:round;stroke-linejoin:round;stroke-miterlimit:2.1;stroke-opacity:1"
     d="m 157.68587,16.934156 9.95884,5.311385 c 30.78125,23.35526 54.82582,172.106069 -1.44175,216.479229 l -11.17279,3.94326 c 73.31366,-35.32665 55.4435,-219.935351 2.6557,-225.733874 z"
     sodipodi:nodetypes="ccccc"
     transform="matrix(0.85436721,0,0,0.85436721,13.826945,17.540942)" /><g
     id="rect6"
     transform="matrix(0.85436721,0,0,0.85436721,8.4382203,17.540942)"><path
       style="color:#000000;fill:url(#linearGradient8);stroke-linecap:round;stroke-linejoin:round;stroke-miterlimit:2.1;-inkscape-stroke:none"
       d="m 150.28974,100.52649 12.53316,1.32785 c 6.5855,0.0501 9.40524,2.06863 11.37128,9.46984 v 25.82055 c 0.1401,9.05992 -7.94219,11.88923 -15.02286,11.73661 h -8.88158 c -2.49826,-14.52865 -0.97738,-30.7705 0,-48.35485 z"
       id="path6"
       sodipodi:nodetypes="ccccccc" /><path
       id="path7"
       style="color:#000000;fill:#6b6b6b;stroke-linecap:round;stroke-linejoin:round;stroke-miterlimit:2.1;-inkscape-stroke:none"
       d="m 149.7191,99.054688 0.30859,2.943362 h 9.13247 c 6.05746,0.0461 11.73742,2.95105 13.5625,9.59765 v 25.54883 c -6e-5,0.008 -6e-5,0.0156 0,0.0234 0.0633,4.09016 -1.58283,6.45698 -4.11719,8.05469 -2.53436,1.5977 -6.06993,2.25932 -9.40235,2.1875 -0.0104,-1.1e-4 -0.0208,-1.1e-4 -0.0312,0 h -9.22036 l -0.23242,2.94336 h 9.45278 l -0.0332,-0.002 c 3.74825,0.0808 7.79519,-0.5949 11.03711,-2.63867 3.24192,-2.04377 5.56709,-5.62206 5.49024,-10.5918 v -25.79687 c 9e-5,-0.12723 -0.0163,-0.25394 -0.0488,-0.37695 -2.14348,-8.06919 -9.35895,-11.838746 -16.43555,-11.892582 -0.003,-1.1e-5 -0.007,-1.1e-5 -0.01,0 z"
       sodipodi:nodetypes="ccccccsccccccscccscc" /></g></g><g
   id="path63"
   inkscape:label="phase1"
   style="display:none"><path
     style="color:#000000;fill:#9bff86;stroke-linecap:round;stroke-linejoin:round;stroke-miterlimit:2.1;-inkscape-stroke:none"
     d="m 177.04883,60.873047 c 8.055,14.802202 15.91406,33.737281 15.91406,69.923833 0,40.50205 -7.88405,47.78388 -15.91406,69.92382 17.74909,-13.52252 32.99721,-35.82938 32.99721,-70.58774 0,-34.77005 -15.9164,-56.733399 -32.99721,-69.259913 z"
     id="path65"
     inkscape:label="color" /><path
     style="color:#000000;fill:url(#radialGradient68);stroke-linecap:round;stroke-linejoin:round;stroke-miterlimit:2.1;-inkscape-stroke:none"
     d="m 177.04883,60.873047 c 8.055,14.802202 15.91406,33.737281 15.91406,69.923833 0,40.50205 -7.88405,47.78388 -15.91406,69.92382 17.74909,-13.52252 32.99721,-35.82938 32.99721,-70.58774 0,-34.77005 -15.9164,-56.733399 -32.99721,-69.259913 z"
     id="path67"
     inkscape:label="shadow1" /><path
     style="color:#000000;fill:#666d86;stroke-linecap:round;stroke-linejoin:round;stroke-miterlimit:2.1;-inkscape-stroke:none"
     d="m 177.34375,60.470703 a 0.50005,0.50005 0 0 0 -0.73438,0.640625 c 8.03469,14.764875 15.85352,33.571425 15.85352,69.685542 0,40.43713 -7.83098,47.54841 -15.88477,69.75391 a 0.50005,0.50005 0 0 0 0.77344,0.56836 c 17.85012,-13.59949 33.19531,-36.08177 33.19531,-70.98633 0,-34.9226 -16.01702,-57.058377 -33.20312,-69.662107 z m 1.14258,2.214844 c 16.29634,12.645921 31.06054,34.023266 31.06054,67.447263 0,33.59796 -14.30477,55.36129 -31.2832,68.91016 7.74039,-20.52249 15.19922,-28.96598 15.19922,-68.2461 0,-34.725603 -7.27021,-53.534931 -14.97656,-68.111323 z"
     id="path66"
     inkscape:label="frame" /></g><g
   id="g74"
   inkscape:label="phase2"
   transform="matrix(1.4266461,0,0,1.4266461,-60.98088,-55.804756)"
   style="display:none"><path
     style="color:#000000;fill:#9bff86;stroke-linecap:round;stroke-linejoin:round;stroke-miterlimit:2.1;-inkscape-stroke:none"
     d="m 177.04883,60.873047 c 8.055,14.802202 20.19195,33.737281 20.19195,69.923833 0,40.50205 -12.16194,47.78388 -20.19195,69.92382 17.74909,-13.52252 37.2751,-35.82938 37.2751,-70.58774 0,-34.77005 -20.19429,-56.733399 -37.2751,-69.259913 z"
     id="path72"
     inkscape:label="color"
     sodipodi:nodetypes="cscsc" /><path
     style="color:#000000;fill:url(#radialGradient74);stroke-linecap:round;stroke-linejoin:round;stroke-miterlimit:2.1;-inkscape-stroke:none"
     d="m 177.04883,60.873047 c 8.055,14.802202 19.86288,33.737281 19.86288,69.923833 0,40.50205 -11.83287,47.78388 -19.86288,69.92382 17.74909,-13.52252 36.94603,-35.82938 36.94603,-70.58774 0,-34.77005 -19.86522,-56.733399 -36.94603,-69.259913 z"
     id="path73"
     inkscape:label="shadow1"
     sodipodi:nodetypes="cscsc" /><path
     style="color:#000000;fill:#666d86;stroke-linecap:round;stroke-linejoin:round;stroke-miterlimit:2.1;-inkscape-stroke:none"
     d="m 177.34375,60.470703 c -0.42963,-0.311202 -0.98438,0.172725 -0.73438,0.640625 8.03469,14.764875 19.80234,33.571425 19.80234,69.685542 0,40.43713 -11.7798,47.54841 -19.83359,69.75391 -0.17079,0.46942 0.37646,0.87157 0.77344,0.56836 17.85012,-13.59949 37.14413,-36.08177 37.14413,-70.98633 0,-34.9226 -19.96584,-57.058377 -37.15194,-69.662107 z m 1.14258,2.214844 c 16.29634,12.645921 35.00936,34.023266 35.00936,67.447263 0,33.59796 -18.25359,55.36129 -35.23202,68.91016 7.74039,-20.52249 19.14804,-28.96598 19.14804,-68.2461 0,-34.725603 -11.21903,-53.534931 -18.92538,-68.111323 z"
     id="path74"
     inkscape:label="frame"
     sodipodi:nodetypes="ccsccsccscsc" /></g><rect
   style="fill:#0077de;fill-opacity:1;stroke:none;stroke-width:4.90501;stroke-linecap:round;stroke-linejoin:round;stroke-miterlimit:2.1;stroke-dasharray:none;stroke-opacity:1"
   id="rect10"
   width="37.179695"
   height="9.5812035"
   x="210.13579"
   y="119.36714" /><rect
   style="fill:#0077de;fill-opacity:1;stroke:none;stroke-width:5.48397;stroke-linecap:round;stroke-linejoin:round;stroke-miterlimit:2.1;stroke-dasharray:none;stroke-opacity:1"
   id="rect11"
   width="46.474621"
   height="9.5812035"
   x="167.50284"
   y="138.92981"
   transform="rotate(-18.687933)" /><rect
   style="fill:#0077de;fill-opacity:1;stroke:none;stroke-width:5.97093;stroke-linecap:round;stroke-linejoin:round;stroke-miterlimit:2.1;stroke-dasharray:none;stroke-opacity:1"
   id="rect12"
   width="55.09428"
   height="9.5812807"
   x="138.64412"
   y="128.46831"
   transform="matrix(0.85170844,-0.52401596,0.52218001,0.85283529,0,0)" /><rect
   style="fill:#0077de;fill-opacity:1;stroke:none;stroke-width:5.48397;stroke-linecap:round;stroke-linejoin:round;stroke-miterlimit:2.1;stroke-dasharray:none;stroke-opacity:1"
   id="rect13"
   width="46.474621"
   height="9.5812035"
   x="247.10846"
   y="-98.490105"
   transform="matrix(0.94727778,0.32041349,0.32041349,-0.94727778,0,0)" /><rect
   style="fill:#0077de;fill-opacity:1;stroke:none;stroke-width:5.97093;stroke-linecap:round;stroke-linejoin:round;stroke-miterlimit:2.1;stroke-dasharray:none;stroke-opacity:1"
   id="rect14"
   width="55.09428"
   height="9.5812807"
   x="269.71506"
   y="-81.502327"
   transform="matrix(0.85170844,0.52401596,0.52218001,-0.85283529,0,0)" /><path
   id="rect8"
   style="display:inline;fill:#ed0000;fill-opacity:0.990893;stroke-width:3.54734;stroke-linecap:round;stroke-linejoin:round;stroke-miterlimit:2.1"
   d="m 230.36657,2.9437443 h 25.2681 L 40.855859,255.75573 H 15.587764 Z"
   sodipodi:nodetypes="ccccc" /><path
   id="path2"
   style="display:inline;fill:#ed0000;fill-opacity:0.990893;stroke-width:3.54734;stroke-linecap:round;stroke-linejoin:round;stroke-miterlimit:2.1"
   d="M 40.855863,2.9437443 H 15.587764 L 230.36657,255.75573 h 25.2681 z"
   sodipodi:nodetypes="ccccc" /></svg>
