<?xml version="1.0" encoding="UTF-8" standalone="no"?>
<!-- Created with Inkscape (http://www.inkscape.org/) -->

<svg
   width="256mm"
   height="256mm"
   viewBox="0 0 256 256"
   version="1.1"
   id="svg1"
   inkscape:version="1.3.2 (091e20ef0f, 2023-11-25)"
   xml:space="preserve"
   sodipodi:docname="mousetool_off.svg"
   xmlns:inkscape="http://www.inkscape.org/namespaces/inkscape"
   xmlns:sodipodi="http://sodipodi.sourceforge.net/DTD/sodipodi-0.dtd"
   xmlns:xlink="http://www.w3.org/1999/xlink"
   xmlns="http://www.w3.org/2000/svg"
   xmlns:svg="http://www.w3.org/2000/svg"
   xmlns:rdf="http://www.w3.org/1999/02/22-rdf-syntax-ns#"
   xmlns:cc="http://creativecommons.org/ns#"
   xmlns:dc="http://purl.org/dc/elements/1.1/"><defs
     id="defs1"><linearGradient
       id="linearGradient17"
       inkscape:collect="always"><stop
         style="stop-color:#f0f0f0;stop-opacity:0;"
         offset="0"
         id="stop18" /><stop
         style="stop-color:#f0f0f0;stop-opacity:1;"
         offset="0.15289731"
         id="stop20" /><stop
         style="stop-color:#f0f0f0;stop-opacity:1;"
         offset="1"
         id="stop19" /></linearGradient><linearGradient
       id="linearGradient15"
       inkscape:collect="always"><stop
         style="stop-color:#575757;stop-opacity:0;"
         offset="0"
         id="stop15" /><stop
         style="stop-color:#575757;stop-opacity:1;"
         offset="0.35019618"
         id="stop17" /><stop
         style="stop-color:#575757;stop-opacity:1;"
         offset="1"
         id="stop16" /></linearGradient><linearGradient
       id="linearGradient9"
       inkscape:collect="always"><stop
         style="stop-color:#5f5f5f;stop-opacity:1;"
         offset="0"
         id="stop9" /><stop
         style="stop-color:#a7a7a7;stop-opacity:1;"
         offset="0.5"
         id="stop11" /><stop
         style="stop-color:#d7d7d7;stop-opacity:1;"
         offset="0.70723891"
         id="stop12" /><stop
         style="stop-color:#f2f2f2;stop-opacity:1;"
         offset="1"
         id="stop10" /></linearGradient><linearGradient
       id="linearGradient6"
       inkscape:collect="always"><stop
         style="stop-color:#ffffff;stop-opacity:1;"
         offset="0"
         id="stop6" /><stop
         style="stop-color:#b3b3b3;stop-opacity:1;"
         offset="1"
         id="stop7" /></linearGradient><linearGradient
       id="linearGradient3"
       inkscape:collect="always"><stop
         style="stop-color:#8590c4;stop-opacity:1;"
         offset="0"
         id="stop3" /><stop
         style="stop-color:#f2f2f2;stop-opacity:1;"
         offset="1"
         id="stop4" /></linearGradient><linearGradient
       id="linearGradient1"
       inkscape:collect="always"><stop
         style="stop-color:#7f8ac1;stop-opacity:0;"
         offset="0"
         id="stop1" /><stop
         style="stop-color:#7f8ac1;stop-opacity:1;"
         offset="1"
         id="stop2" /></linearGradient><linearGradient
       inkscape:collect="always"
       xlink:href="#linearGradient1"
       id="linearGradient2"
       x1="91.826165"
       y1="134.14467"
       x2="197.07303"
       y2="134.14467"
       gradientUnits="userSpaceOnUse" /><radialGradient
       inkscape:collect="always"
       xlink:href="#linearGradient3"
       id="radialGradient4"
       cx="160.76494"
       cy="212.03603"
       fx="160.76494"
       fy="212.03603"
       r="60.741623"
       gradientTransform="matrix(-0.91186958,-2.1684641,0.7679957,-0.32295296,189.807,575.75058)"
       gradientUnits="userSpaceOnUse" /><linearGradient
       inkscape:collect="always"
       xlink:href="#linearGradient6"
       id="linearGradient7"
       x1="117.88459"
       y1="106.60723"
       x2="168.89339"
       y2="99.047707"
       gradientUnits="userSpaceOnUse" /><radialGradient
       inkscape:collect="always"
       xlink:href="#linearGradient9"
       id="radialGradient10"
       cx="149.25238"
       cy="107.28387"
       fx="149.25238"
       fy="107.28387"
       r="12.479605"
       gradientTransform="matrix(0.8140841,-0.580747,2.826981,3.9628278,-273.39613,-229.30468)"
       gradientUnits="userSpaceOnUse" /><linearGradient
       inkscape:collect="always"
       xlink:href="#linearGradient15"
       id="linearGradient16"
       x1="81.268105"
       y1="55.656994"
       x2="101.90855"
       y2="69.07515"
       gradientUnits="userSpaceOnUse" /><linearGradient
       inkscape:collect="always"
       xlink:href="#linearGradient17"
       id="linearGradient19"
       x1="86.370781"
       y1="52.349705"
       x2="98.506767"
       y2="58.680805"
       gradientUnits="userSpaceOnUse" /></defs><sodipodi:namedview
     id="base"
     pagecolor="#ffffff"
     bordercolor="#000000"
     borderopacity="0.3"
     inkscape:pageopacity="0.0"
     inkscape:pageshadow="2"
     inkscape:zoom="0.98994949"
     inkscape:cx="505.07627"
     inkscape:cy="476.792"
     inkscape:document-units="mm"
     inkscape:showpageshadow="2"
     inkscape:pagecheckerboard="0"
     inkscape:deskcolor="#d1d1d1"
     inkscape:current-layer="svg1"
     showguides="true"><sodipodi:guide
       position="140.98467,230.94348"
       orientation="0,-1"
       id="guide8"
       inkscape:locked="false" /><sodipodi:guide
       position="148.33458,230.94348"
       orientation="1,0"
       id="guide9"
       inkscape:locked="false" /></sodipodi:namedview><metadata
     id="metadata1"><rdf:RDF><cc:Work
         rdf:about=""><dc:format>image/svg+xml</dc:format><dc:type
           rdf:resource="http://purl.org/dc/dcmitype/StillImage" /><cc:license
           rdf:resource="http://creativecommons.org/publicdomain/zero/1.0/" /></cc:Work><cc:License
         rdf:about="http://creativecommons.org/publicdomain/zero/1.0/"><cc:permits
           rdf:resource="http://creativecommons.org/ns#Reproduction" /><cc:permits
           rdf:resource="http://creativecommons.org/ns#Distribution" /><cc:permits
           rdf:resource="http://creativecommons.org/ns#DerivativeWorks" /></cc:License></rdf:RDF></metadata><g
     id="g3"
     style="display:inline"
     transform="matrix(1.4892136,0,0,1.4892136,-92.312045,-74.211503)"><path
       style="color:#000000;display:inline;fill:#8e8e8e;fill-opacity:0.536913;stroke-width:1.06062;stroke-linecap:round;stroke-linejoin:round;stroke-miterlimit:5;-inkscape-stroke:none"
       d="M 92.193824,90.517718 C 109.89399,79.313708 132.3836,74.410892 158.46604,74.415459 c 9.83708,3.248654 56.42996,46.825651 60.68299,94.600761 4.02357,45.19773 -79.76436,72.6573 -114.17984,24.55595 C 94.651911,177.58395 88.140164,153.98401 92.193824,90.517718 Z"
       id="path20"
       sodipodi:nodetypes="ccscc"
       inkscape:label="shadow" /><path
       style="color:#000000;display:inline;fill:url(#radialGradient4);stroke-linecap:round;stroke-linejoin:round;stroke-miterlimit:5;-inkscape-stroke:none"
       d="M 90.525299,90.336316 C 107.28315,79.816428 128.57547,75.21298 153.26935,75.217268 c 9.31338,3.05029 53.42578,43.966462 57.45238,88.824402 3.80937,42.43794 -75.51791,68.22081 -108.10119,23.05655 C 92.852524,172.08625 86.687446,149.92733 90.525299,90.336316 Z"
       id="path2"
       sodipodi:nodetypes="ccscc" /><path
       id="path1"
       style="display:inline;fill:url(#linearGradient2);stroke-width:3.26945;stroke-linecap:round;stroke-linejoin:round;stroke-miterlimit:5"
       d="m 196.99436,156.57663 c -1.26212,21.95068 -22.75536,35.30058 -50.81206,35.882 -28.55587,0.59177 -46.359967,-14.86975 -50.812068,-35.882 C 91.11661,136.50113 92.951688,97.939006 94.966526,97.82707 102.74846,84.292623 123.23608,78.312909 149.6059,75.830713 c 13.27948,8.864238 49.37285,46.233437 47.38846,80.745917 z"
       sodipodi:nodetypes="sssccs" /><path
       id="rect4"
       style="display:inline;fill:url(#linearGradient7);fill-opacity:0.684564;stroke:#575757;stroke-width:1.6;stroke-linecap:round;stroke-linejoin:round;stroke-miterlimit:5;stroke-dasharray:none;stroke-opacity:1"
       d="m 90.71429,90.903266 c 11.13325,-8.98546 27.22392,-15.492207 54.42857,-16.441965 14.62226,9.773522 28.28693,21.161686 27.0253,30.616069 -0.71701,6.24372 -45.20122,20.48721 -61.04316,19.65476 -8.50365,-6.5536 -11.268494,-28.399188 -20.41071,-33.828864 z"
       sodipodi:nodetypes="ccccc" /><path
       style="fill:#e7e7e7;fill-opacity:0.684564;stroke:#575757;stroke-width:1.6;stroke-linecap:round;stroke-linejoin:round;stroke-miterlimit:5;stroke-dasharray:none;stroke-opacity:1"
       d="m 117.36161,78.808034 c 4.0339,0.768604 8.12852,3.336894 10.62918,7.481242"
       id="path7"
       sodipodi:nodetypes="cc" /><path
       id="path8"
       style="fill:url(#radialGradient10);stroke:#575757;stroke-width:1.6;stroke-linecap:round;stroke-linejoin:round;stroke-miterlimit:5"
       d="m 145.89949,117.30514 c -3.84999,1.06793 -12.07224,-3.88007 -16.77027,-12.51772 -4.69804,-8.63766 -4.76613,-15.713832 -1.94561,-18.584322 0.66917,-0.681026 0.31087,-0.439485 1.42092,-0.74737 3.54006,-0.981951 11.58104,7.100104 14.06679,11.227455 5.53659,9.192977 7.27011,17.258957 5.00755,19.561597 -0.52063,0.52986 -1.05248,0.85877 -1.77939,1.06035 z"
       sodipodi:nodetypes="szssssss" /><g
       id="g15"
       style="display:inline"><path
         id="rect12"
         style="fill:#f0f0f0;fill-opacity:1;stroke:#575757;stroke-width:1.6;stroke-linecap:round;stroke-linejoin:round;stroke-miterlimit:5"
         d="m 105.26638,72.38244 c 0.72513,-3.001287 4.81868,-6.007029 10.58333,-5.480655 l 9.07143,8.693451 -17.76489,6.047619 z"
         sodipodi:nodetypes="ccccc" /><path
         style="fill:#f0f0f0;fill-opacity:1;stroke:#575757;stroke-width:1.6;stroke-linecap:round;stroke-linejoin:round;stroke-miterlimit:5;stroke-dasharray:none;stroke-opacity:1"
         d="m 120.00744,73.894346 c 0.25198,0 0.75595,0.251984 0.75595,0 0,-0.251987 -0.995,0.07968 -0.75595,0 0.42259,-0.140864 0.88091,-0.133739 1.32292,-0.188989 0.0625,-0.0078 0.14444,0.04454 0.18899,0 0.0445,-0.04455 -0.0446,-0.144444 0,-0.18899 0.0945,-0.09449 0.47246,0.0945 0.56696,0 0.0891,-0.08909 0,-0.251984 0,-0.377975"
         id="path12" /><path
         style="fill:#f0f0f0;fill-opacity:1;stroke:#575757;stroke-width:1.6;stroke-linecap:round;stroke-linejoin:round;stroke-miterlimit:5;stroke-dasharray:none;stroke-opacity:1"
         d="m 116.79464,70.492558 1.70089,-0.944941"
         id="path13" /><path
         style="fill:#f0f0f0;fill-opacity:1;stroke:#575757;stroke-width:1.6;stroke-linecap:round;stroke-linejoin:round;stroke-miterlimit:5;stroke-dasharray:none;stroke-opacity:1"
         d="m 106.02232,75.028273 3.96875,-2.078868"
         id="path14" /><path
         style="fill:#f0f0f0;fill-opacity:1;stroke:#575757;stroke-width:1.6;stroke-linecap:round;stroke-linejoin:round;stroke-miterlimit:5;stroke-dasharray:none;stroke-opacity:1"
         d="m 106.58928,78.241072 4.91369,-2.078871"
         id="path15" /></g><path
       style="color:#000000;display:inline;fill:#575757;stroke-linecap:round;stroke-linejoin:round;stroke-miterlimit:5;-inkscape-stroke:none"
       d="m 144.32812,73.613281 c -20.63817,0.33778 -38.85031,4.646605 -54.658198,15.472656 a 1.5146515,1.5146515 0 0 0 -0.65625,1.152344 C 85.167589,149.95708 91.370863,172.585 101.35156,187.92383 a 1.5146515,1.5146515 0 0 0 0.041,0.0605 c 16.71282,23.16595 45.40614,28.13076 69.30859,21.90235 11.95123,-3.11421 22.76196,-9.01181 30.4082,-16.93555 7.64625,-7.92373 12.11651,-17.95566 11.1211,-29.04492 -2.05366,-22.87861 -14.25189,-44.52668 -27.06055,-60.88867 -6.40433,-8.180998 -12.96884,-15.03961 -18.54687,-20.068361 -5.57804,-5.028751 -9.93878,-8.207654 -12.88282,-9.171875 a 1.5146515,1.5146515 0 0 0 -0.41796,-0.07422 c -3.04735,-0.106473 -6.04583,-0.138098 -8.99415,-0.08984 z m 8.60547,3.121094 c 1.77287,0.62644 6.30502,3.635276 11.66211,8.464844 5.43825,4.902726 11.8982,11.648987 18.18946,19.685551 12.58251,16.07311 24.4548,37.31368 26.42773,59.29296 0.90928,10.12969 -3.10875,19.2351 -10.2832,26.66993 -7.17445,7.43482 -17.51683,13.1167 -28.99414,16.10742 -22.94494,5.97891 -50.19113,1.25763 -66.06446,-20.7168 C 94.37212,171.62251 88.283668,149.99632 92,91.205078 109.19488,79.662321 129.33907,75.94616 152.93359,76.734375 Z"
       id="path3"
       inkscape:label="frame" /><path
       id="rect15"
       style="fill:url(#linearGradient19);stroke:url(#linearGradient16);stroke-width:1.6;stroke-linecap:round;stroke-linejoin:round;stroke-miterlimit:5"
       d="m 82.587795,51.971725 c 2.554323,2.231118 5.082893,5.214178 8.315476,6.709078 5.063162,2.341446 11.277659,1.00927 16.441959,3.118303 3.15415,1.288113 8.50447,5.669643 8.50447,5.669643 l -10.01637,4.724701 c 0,0 -3.98456,-3.10948 -6.472842,-2.976562 -3.896244,0.208128 -8.669202,-1.642777 -12.331473,-3.921503 -3.801788,-2.365536 -6.287348,-4.84623 -9.307663,-9.68564 z"
       sodipodi:nodetypes="caaccsacc" /></g><path
     id="rect20"
     style="fill:#ff1d1d;stroke-width:1.6;stroke-linecap:round;stroke-linejoin:round;stroke-miterlimit:5"
     d="m 216.48832,5.3453899 33.67596,0 L 40.624968,249.62975 H 6.9490072 Z"
     sodipodi:nodetypes="ccccc" /></svg>
