<?xml version="1.0" encoding="UTF-8" standalone="no"?>
<svg
   height="256"
   width="256"
   version="1.1"
   id="svg6"
   sodipodi:docname="kmouth-phrasebook.svg"
   viewBox="0 0 256 256"
   inkscape:version="1.4.2 (ebf0e940d0, 2025-05-08)"
   xmlns:inkscape="http://www.inkscape.org/namespaces/inkscape"
   xmlns:sodipodi="http://sodipodi.sourceforge.net/DTD/sodipodi-0.dtd"
   xmlns:xlink="http://www.w3.org/1999/xlink"
   xmlns="http://www.w3.org/2000/svg"
   xmlns:svg="http://www.w3.org/2000/svg"
   xmlns:rdf="http://www.w3.org/1999/02/22-rdf-syntax-ns#"
   xmlns:cc="http://creativecommons.org/ns#"
   xmlns:dc="http://purl.org/dc/elements/1.1/">
  <title
     id="title10">kmouth-phrasebook</title>
  <sodipodi:namedview
     id="namedview6"
     pagecolor="#ffffff"
     bordercolor="#000000"
     borderopacity="0.25"
     inkscape:showpageshadow="2"
     inkscape:pageopacity="0.0"
     inkscape:pagecheckerboard="0"
     inkscape:deskcolor="#d1d1d1"
     inkscape:zoom="1.1846943"
     inkscape:cx="329.6209"
     inkscape:cy="432.60106"
     inkscape:current-layer="svg6" />
  <defs
     id="defs4">
    <linearGradient
       id="linearGradient9">
      <stop
         stop-color="#f5f5f5"
         offset="0"
         id="stop8" />
      <stop
         stop-color="#e9e9e9"
         offset="1"
         id="stop9"
         style="stop-color:#d4ffd3;stop-opacity:1;" />
    </linearGradient>
    <linearGradient
       id="linearGradient7">
      <stop
         stop-color="#f5f5f5"
         offset="0"
         id="stop6" />
      <stop
         stop-color="#e9e9e9"
         offset="1"
         id="stop7"
         style="stop-color:#d3e8ff;stop-opacity:1;" />
    </linearGradient>
    <linearGradient
       id="d"
       y2="24.139999"
       xlink:href="#a"
       gradientUnits="userSpaceOnUse"
       x2="27.27"
       gradientTransform="matrix(-0.9772,0,0,0.9959,50.6,9.116)"
       y1="10.96"
       x1="35" />
    <linearGradient
       id="e"
       y2="35.48"
       xlink:href="#a"
       gradientUnits="userSpaceOnUse"
       x2="49.080002"
       gradientTransform="matrix(-1.008,0,0,0.9876,61.88,0.275)"
       y1="19.99"
       x1="36.439999" />
    <linearGradient
       id="a">
      <stop
         stop-color="#f5f5f5"
         offset="0"
         id="stop1" />
      <stop
         stop-color="#e9e9e9"
         offset="1"
         id="stop2" />
    </linearGradient>
    <radialGradient
       id="b"
       gradientUnits="userSpaceOnUse"
       cy="27.639999"
       cx="29.5"
       gradientTransform="matrix(1.373,0,0,0.3785,-21.09,26.47)"
       r="11.52">
      <stop
         offset="0"
         id="stop3" />
      <stop
         stop-opacity="0"
         offset="1"
         id="stop4" />
    </radialGradient>
    <linearGradient
       inkscape:collect="always"
       xlink:href="#linearGradient7"
       id="linearGradient6"
       gradientUnits="userSpaceOnUse"
       gradientTransform="matrix(-0.9772,0,0,0.9959,50.6,9.116)"
       x1="35"
       y1="10.96"
       x2="27.27"
       y2="24.139999" />
    <linearGradient
       inkscape:collect="always"
       xlink:href="#linearGradient9"
       id="linearGradient8"
       gradientUnits="userSpaceOnUse"
       gradientTransform="matrix(-0.9772,0,0,0.9959,50.6,9.116)"
       x1="35"
       y1="10.96"
       x2="27.27"
       y2="24.139999" />
    <radialGradient
       inkscape:collect="always"
       xlink:href="#b"
       id="radialGradient9"
       gradientUnits="userSpaceOnUse"
       gradientTransform="matrix(1.373,0,0,0.3785,-9.6874568,21.846062)"
       cx="29.5"
       cy="27.639999"
       r="11.52" />
    <radialGradient
       inkscape:collect="always"
       xlink:href="#b"
       id="radialGradient10"
       gradientUnits="userSpaceOnUse"
       gradientTransform="matrix(1.373,0,0,0.3785,-22.416872,28.296535)"
       cx="29.5"
       cy="27.639999"
       r="11.52" />
    <linearGradient
       inkscape:collect="always"
       xlink:href="#a"
       id="linearGradient10"
       gradientUnits="userSpaceOnUse"
       gradientTransform="matrix(-0.9772,0,0,0.9959,50.6,9.116)"
       x1="35"
       y1="10.96"
       x2="27.27"
       y2="24.139999" />
  </defs>
  <g
     id="g10"
     transform="matrix(5.7086504,0,0,5.7086504,-11.97648,-11.785953)">
    <ellipse
       id="use4"
       opacity="0.12"
       rx="15.81"
       ry="4.3590002"
       cy="32.316059"
       cx="30.812544"
       fill="url(#b)"
       style="fill:url(#radialGradient9)" />
    <ellipse
       id="ellipse9"
       opacity="0.12"
       rx="15.81"
       ry="4.3590002"
       cy="38.766537"
       cx="18.083126"
       fill="url(#b)"
       style="fill:url(#radialGradient10)" />
    <g
       id="use5"
       style="fill:url(#e);stroke-width:0.99"
       transform="matrix(-1.03,0,0,0.9898,49.08,-8.724)">
      <path
         stroke="#787878"
         d="m 31.64,17.39 v 15.19 c 0,1.059 -0.823,1.898 -1.862,1.898 h -13.71 c -0.831,1.113 -2.504,2.928 -6.427,4.41 1.725,-2.066 1.827,-3.459 1.632,-4.41 H 8.464 c -1.039,0 -1.893,-0.839 -1.893,-1.898 V 17.39 c 0,-1.059 0.854,-1.93 1.893,-1.93 h 21.32 c 1.039,0 1.862,0.871 1.862,1.93 z"
         id="path7"
         style="fill:url(#linearGradient8)" />
      <path
         stroke="#ffffff"
         fill="none"
         d="m 30.62,17.88 v 14.2 c 0,0.96 -0.242,1.368 -1.184,1.368 h -13.9 c -0.753,1.01 -2.068,2.596 -3.511,3.251 0.403,-1.167 0.248,-2.136 0.173,-3.251 H 8.791 C 7.849,33.448 7.579,33.04 7.579,32.08 V 18 c 0,-0.96 0.27,-1.548 1.212,-1.548 h 20.6 c 0.943,0 1.235,0.461 1.235,1.422 z"
         id="path8" />
    </g>
    <g
       fill="url(#d)"
       id="g6"
       style="fill:url(#d)">
      <g
         id="f"
         style="fill:url(#linearGradient10)">
        <path
           stroke="#787878"
           d="m 31.64,17.39 v 15.19 c 0,1.059 -0.823,1.898 -1.862,1.898 h -13.71 c -0.831,1.113 -2.504,2.928 -6.427,4.41 1.725,-2.066 1.827,-3.459 1.632,-4.41 H 8.464 c -1.039,0 -1.893,-0.839 -1.893,-1.898 V 17.39 c 0,-1.059 0.854,-1.93 1.893,-1.93 h 21.32 c 1.039,0 1.862,0.871 1.862,1.93 z"
           id="path5"
           style="fill:url(#linearGradient6)" />
        <path
           stroke="#ffffff"
           fill="none"
           d="m 30.62,17.88 v 14.2 c 0,0.96 -0.242,1.368 -1.184,1.368 h -13.9 c -0.753,1.01 -2.068,2.596 -3.511,3.251 0.403,-1.167 0.248,-2.136 0.173,-3.251 H 8.791 C 7.849,33.448 7.579,33.04 7.579,32.08 V 18 c 0,-0.96 0.27,-1.548 1.212,-1.548 h 20.6 c 0.943,0 1.235,0.461 1.235,1.422 z"
           id="path6" />
      </g>
    </g>
  </g>
  <metadata
     id="metadata10">
    <rdf:RDF>
      <cc:Work
         rdf:about="">
        <dc:publisher>
          <cc:Agent>
            <dc:title>blackcrack</dc:title>
          </cc:Agent>
        </dc:publisher>
        <cc:license
           rdf:resource="http://creativecommons.org/publicdomain/zero/1.0/" />
        <dc:title>kmouth-phrasebook</dc:title>
      </cc:Work>
      <cc:License
         rdf:about="http://creativecommons.org/publicdomain/zero/1.0/">
        <cc:permits
           rdf:resource="http://creativecommons.org/ns#Reproduction" />
        <cc:permits
           rdf:resource="http://creativecommons.org/ns#Distribution" />
        <cc:permits
           rdf:resource="http://creativecommons.org/ns#DerivativeWorks" />
      </cc:License>
    </rdf:RDF>
  </metadata>
</svg>
