<?xml version="1.0" encoding="UTF-8" standalone="no"?>
<!-- Created with Inkscape (http://www.inkscape.org/) -->

<svg
   width="256mm"
   height="256mm"
   viewBox="0 0 256 256"
   version="1.1"
   id="svg1"
   inkscape:version="1.4.2 (ebf0e940d0, 2025-05-08)"
   sodipodi:docname="link-properties.svg"
   xml:space="preserve"
   xmlns:inkscape="http://www.inkscape.org/namespaces/inkscape"
   xmlns:sodipodi="http://sodipodi.sourceforge.net/DTD/sodipodi-0.dtd"
   xmlns:xlink="http://www.w3.org/1999/xlink"
   xmlns="http://www.w3.org/2000/svg"
   xmlns:svg="http://www.w3.org/2000/svg"
   xmlns:rdf="http://www.w3.org/1999/02/22-rdf-syntax-ns#"
   xmlns:cc="http://creativecommons.org/ns#"
   xmlns:dc="http://purl.org/dc/elements/1.1/"><defs
     id="defs1"><linearGradient
       id="linearGradient6"
       inkscape:collect="always"><stop
         style="stop-color:#73bbf9;stop-opacity:0.905882;"
         offset="0"
         id="stop1" /><stop
         style="stop-color:#008fd8;stop-opacity:1;"
         offset="1"
         id="stop6" /></linearGradient><linearGradient
       id="linearGradient2"
       inkscape:collect="always"><stop
         style="stop-color:#0d8bf7;stop-opacity:0.905882;"
         offset="0"
         id="stop2" /><stop
         style="stop-color:#7efff0;stop-opacity:1;"
         offset="1"
         id="stop3" /></linearGradient><linearGradient
       inkscape:collect="always"
       xlink:href="#linearGradient6"
       id="linearGradient3"
       x1="17.386906"
       y1="128.13393"
       x2="108.10119"
       y2="128.13393"
       gradientUnits="userSpaceOnUse" /><linearGradient
       inkscape:collect="always"
       xlink:href="#linearGradient2"
       id="linearGradient7"
       gradientUnits="userSpaceOnUse"
       x1="17.386906"
       y1="128.13393"
       x2="108.10119"
       y2="128.13393"
       gradientTransform="matrix(0.22500001,0,0,0.12200957,114.99936,127.35448)" /><linearGradient
       inkscape:collect="always"
       xlink:href="#linearGradient2"
       id="linearGradient15"
       gradientUnits="userSpaceOnUse"
       gradientTransform="matrix(0.22500001,0,0,0.12200957,114.99936,127.35448)"
       x1="17.386906"
       y1="128.13393"
       x2="108.10119"
       y2="128.13393" /><linearGradient
       inkscape:collect="always"
       xlink:href="#linearGradient2"
       id="linearGradient16"
       gradientUnits="userSpaceOnUse"
       gradientTransform="matrix(0.22500001,0,0,0.12200957,114.99936,127.35448)"
       x1="17.386906"
       y1="128.13393"
       x2="108.10119"
       y2="128.13393" /><radialGradient
       inkscape:collect="always"
       xlink:href="#linearGradient13"
       id="radialGradient15"
       cx="35.298054"
       cy="116.63612"
       fx="35.298054"
       fy="116.63612"
       r="66.837959"
       gradientTransform="matrix(1.9606613,0.89970871,-0.41944008,0.91405142,17.146025,7.5240311)"
       gradientUnits="userSpaceOnUse" /><linearGradient
       id="linearGradient13"
       inkscape:collect="always"><stop
         style="stop-color:#7f7f7f;stop-opacity:0.52941173;"
         offset="0"
         id="stop14" /><stop
         style="stop-color:#989898;stop-opacity:0.52941173;"
         offset="0.38474357"
         id="stop16" /><stop
         style="stop-color:#fafafa;stop-opacity:0.52941176;"
         offset="0.73041719"
         id="stop17" /><stop
         style="stop-color:#fafafa;stop-opacity:0.78686351;"
         offset="1"
         id="stop15" /></linearGradient><radialGradient
       inkscape:collect="always"
       xlink:href="#linearGradient10"
       id="radialGradient11"
       cx="21.847063"
       cy="125.3836"
       fx="21.847063"
       fy="125.3836"
       r="85.440208"
       gradientTransform="matrix(1.6535425,0.95131188,-0.59807903,1.0395636,64.394535,-2.0171627)"
       gradientUnits="userSpaceOnUse" /><linearGradient
       id="linearGradient10"
       inkscape:collect="always"><stop
         style="stop-color:#fafafa;stop-opacity:0.86531633;"
         offset="0"
         id="stop10" /><stop
         style="stop-color:#e6e6e6;stop-opacity:0.7062254;"
         offset="0.67355293"
         id="stop12" /><stop
         style="stop-color:#b7b7b7;stop-opacity:0.7086429;"
         offset="0.89231342"
         id="stop13" /><stop
         style="stop-color:#bcbcbc;stop-opacity:0.61355442;"
         offset="1"
         id="stop11" /></linearGradient><radialGradient
       inkscape:collect="always"
       xlink:href="#linearGradient2-3"
       id="radialGradient3"
       cx="195.06807"
       cy="129.15698"
       fx="195.06807"
       fy="129.15698"
       r="85.192383"
       gradientTransform="matrix(0.24368375,-0.06659404,0.13824382,0.50586767,89.08514,99.3434)"
       gradientUnits="userSpaceOnUse" /><linearGradient
       id="linearGradient2-3"
       inkscape:collect="always"><stop
         style="stop-color:#000000;stop-opacity:0.47762002;"
         offset="0"
         id="stop2-5" /><stop
         style="stop-color:#000000;stop-opacity:0;"
         offset="1"
         id="stop3-6" /></linearGradient><radialGradient
       inkscape:collect="always"
       xlink:href="#linearGradient4"
       id="radialGradient5"
       cx="10.811482"
       cy="214.34219"
       fx="10.811482"
       fy="214.34219"
       r="84.740227"
       gradientTransform="matrix(0.53924728,0.22396565,-0.06531798,0.18699072,23.299671,150.16439)"
       gradientUnits="userSpaceOnUse" /><linearGradient
       id="linearGradient4"
       inkscape:collect="always"><stop
         style="stop-color:#000000;stop-opacity:0.53247923;"
         offset="0"
         id="stop4" /><stop
         style="stop-color:#000000;stop-opacity:0;"
         offset="1"
         id="stop5" /></linearGradient><linearGradient
       x1="23.467106"
       y1="20.201925"
       x2="23.467106"
       y2="17.015749"
       id="linearGradient2634"
       xlink:href="#linearGradient3303"
       gradientUnits="userSpaceOnUse"
       gradientTransform="matrix(0.6,0,0,0.6,-2.6752767,41.07749)" /><linearGradient
       id="linearGradient3303"><stop
         style="stop-color:#888a85;stop-opacity:1"
         offset="0"
         id="stop57" /><stop
         style="stop-color:#eeeeec;stop-opacity:1"
         offset="1"
         id="stop59" /></linearGradient><linearGradient
       x1="32.309578"
       y1="15.875"
       x2="44.187737"
       y2="15.875"
       id="linearGradient2636"
       xlink:href="#linearGradient3397"
       gradientUnits="userSpaceOnUse"
       gradientTransform="matrix(0.6,0,0,0.6,-2.6752767,41.07749)" /><linearGradient
       id="linearGradient3397"><stop
         style="stop-color:#555753;stop-opacity:1"
         offset="0"
         id="stop47" /><stop
         style="stop-color:#d3d7cf;stop-opacity:0"
         offset="1"
         id="stop49" /></linearGradient><linearGradient
       x1="37.124252"
       y1="13.375"
       x2="47.5625"
       y2="13.375"
       id="linearGradient2638"
       xlink:href="#linearGradient3377"
       gradientUnits="userSpaceOnUse"
       gradientTransform="matrix(0.6,0,0,0.6,-2.6752767,41.07749)" /><linearGradient
       id="linearGradient3377"><stop
         style="stop-color:#555753;stop-opacity:1"
         offset="0"
         id="stop35" /><stop
         style="stop-color:#888a85;stop-opacity:0"
         offset="1"
         id="stop37" /></linearGradient><linearGradient
       x1="37.551125"
       y1="26.433243"
       x2="46.821011"
       y2="26.433243"
       id="linearGradient2640"
       xlink:href="#linearGradient3359"
       gradientUnits="userSpaceOnUse"
       gradientTransform="matrix(0.6,0,0,0.6,-2.6752767,41.07749)" /><linearGradient
       id="linearGradient3359"><stop
         style="stop-color:#ffffff;stop-opacity:1"
         offset="0"
         id="stop30" /><stop
         style="stop-color:#ffffff;stop-opacity:0"
         offset="1"
         id="stop32" /></linearGradient><linearGradient
       x1="36.122208"
       y1="15.875"
       x2="47.312737"
       y2="15.875"
       id="linearGradient2642"
       xlink:href="#linearGradient3325"
       gradientUnits="userSpaceOnUse"
       gradientTransform="matrix(0.6,0,0,0.6,-2.6752767,41.07749)" /><linearGradient
       id="linearGradient3325"><stop
         style="stop-color:#babdb6;stop-opacity:1"
         offset="0"
         id="stop84" /><stop
         style="stop-color:#d3d7cf;stop-opacity:0"
         offset="1"
         id="stop86" /></linearGradient><linearGradient
       x1="41.125"
       y1="13.375"
       x2="47.5625"
       y2="13.375"
       id="linearGradient2644"
       xlink:href="#linearGradient3377"
       gradientUnits="userSpaceOnUse"
       gradientTransform="matrix(0.6,0,0,0.6,-2.6752767,41.07749)" /><radialGradient
       cx="31.349806"
       cy="14.914701"
       r="12"
       fx="31.349794"
       fy="14.914677"
       id="radialGradient2646"
       xlink:href="#linearGradient3417"
       gradientUnits="userSpaceOnUse"
       gradientTransform="matrix(1.027139,7.049762e-7,-2.341676e-7,0.341179,-0.857269,11.25477)" /><linearGradient
       id="linearGradient3417"><stop
         style="stop-color:#ffffff;stop-opacity:1"
         offset="0"
         id="stop52" /><stop
         style="stop-color:#eeeeec;stop-opacity:0"
         offset="1"
         id="stop54" /></linearGradient><linearGradient
       x1="35.176235"
       y1="17.240854"
       x2="47.651093"
       y2="17.240854"
       id="linearGradient2648"
       xlink:href="#linearGradient3359"
       gradientUnits="userSpaceOnUse"
       gradientTransform="matrix(0.6,0,0,0.6,-2.6752767,41.07749)" /><linearGradient
       x1="35.253414"
       y1="14.589205"
       x2="48.08326"
       y2="14.589205"
       id="linearGradient2650"
       xlink:href="#linearGradient3359"
       gradientUnits="userSpaceOnUse"
       gradientTransform="matrix(0.6,0,0,0.6,-2.6752767,41.07749)" /><linearGradient
       x1="37.551125"
       y1="26.433243"
       x2="46.258511"
       y2="26.433243"
       id="linearGradient2652"
       xlink:href="#linearGradient3359"
       gradientUnits="userSpaceOnUse"
       gradientTransform="matrix(0.6,0,0,0.6,-2.6752767,41.07749)" /><linearGradient
       x1="34.122208"
       y1="15.8125"
       x2="44.853527"
       y2="16.0625"
       id="linearGradient2654"
       xlink:href="#linearGradient3397"
       gradientUnits="userSpaceOnUse"
       gradientTransform="matrix(-0.6,0,0,0.6,25.664207,41.07749)" /><linearGradient
       x1="37.5"
       y1="13.4375"
       x2="47.5625"
       y2="13.375"
       id="linearGradient2656"
       xlink:href="#linearGradient3377"
       gradientUnits="userSpaceOnUse"
       gradientTransform="matrix(-0.6,0,0,0.6,25.664207,41.07749)" /><linearGradient
       x1="37.551125"
       y1="26.433243"
       x2="44.822086"
       y2="26.433243"
       id="linearGradient2658"
       xlink:href="#linearGradient3359"
       gradientUnits="userSpaceOnUse"
       gradientTransform="matrix(-0.6,0,0,0.6,25.664207,41.07749)" /><linearGradient
       x1="29.861185"
       y1="15.875"
       x2="46.562737"
       y2="15.875"
       id="linearGradient2660"
       xlink:href="#linearGradient3387"
       gradientUnits="userSpaceOnUse"
       gradientTransform="matrix(-0.6,0,0,0.6,25.664207,41.07749)" /><linearGradient
       id="linearGradient3387"><stop
         style="stop-color:#8f9388;stop-opacity:1"
         offset="0"
         id="stop40" /><stop
         style="stop-color:#c6cac2;stop-opacity:1"
         offset="0.5"
         id="stop42" /><stop
         style="stop-color:#d3d7cf;stop-opacity:0"
         offset="1"
         id="stop44" /></linearGradient><linearGradient
       x1="41.125"
       y1="13.375"
       x2="47.5625"
       y2="13.375"
       id="linearGradient2662"
       xlink:href="#linearGradient3377"
       gradientUnits="userSpaceOnUse"
       gradientTransform="matrix(-0.6,0,0,0.6,25.664207,41.07749)" /><radialGradient
       cx="35.973373"
       cy="14.052355"
       r="12"
       fx="35.973362"
       fy="14.05233"
       id="radialGradient2664"
       xlink:href="#linearGradient3417"
       gradientUnits="userSpaceOnUse"
       gradientTransform="matrix(0.751224,2.345941e-6,-7.16423e-7,0.229414,8.256114,12.93155)" /><linearGradient
       x1="35.176235"
       y1="17.240854"
       x2="47.651093"
       y2="17.240854"
       id="linearGradient2666"
       xlink:href="#linearGradient3359"
       gradientUnits="userSpaceOnUse"
       gradientTransform="matrix(-0.6,0,0,0.6,25.664207,41.07749)" /><linearGradient
       x1="35.253414"
       y1="14.589205"
       x2="48.08326"
       y2="14.589205"
       id="linearGradient2668"
       xlink:href="#linearGradient3359"
       gradientUnits="userSpaceOnUse"
       gradientTransform="matrix(-0.6,0,0,0.6,25.664207,41.07749)" /><linearGradient
       x1="37.551125"
       y1="26.433243"
       x2="44.571289"
       y2="26.433243"
       id="linearGradient2670"
       xlink:href="#linearGradient3359"
       gradientUnits="userSpaceOnUse"
       gradientTransform="matrix(-0.6,0,0,0.6,25.664207,41.07749)" /><linearGradient
       x1="20"
       y1="24"
       x2="20"
       y2="19.121248"
       id="linearGradient2672"
       xlink:href="#linearGradient3473"
       gradientUnits="userSpaceOnUse"
       gradientTransform="matrix(0.6,0,0,0.6,-2.6752767,41.07749)" /><linearGradient
       id="linearGradient3473"><stop
         style="stop-color:#888a85;stop-opacity:1"
         offset="0"
         id="stop62" /><stop
         style="stop-color:#eeeeec;stop-opacity:1"
         offset="0.5"
         id="stop64" /><stop
         style="stop-color:#cecec8;stop-opacity:1"
         offset="1"
         id="stop66" /></linearGradient><radialGradient
       cx="7.0126991"
       cy="22.25555"
       r="13"
       fx="7.0126991"
       fy="22.25555"
       id="radialGradient2674"
       xlink:href="#linearGradient3417"
       gradientUnits="userSpaceOnUse"
       gradientTransform="matrix(0.21225,0,0,0.254807,12.01156,16.32913)" /></defs><sodipodi:namedview
     id="base"
     pagecolor="#ffffff"
     bordercolor="#000000"
     borderopacity="0.3"
     inkscape:pageopacity="0.0"
     inkscape:pageshadow="2"
     inkscape:zoom="0.50990965"
     inkscape:cx="389.28465"
     inkscape:cy="871.72306"
     inkscape:document-units="mm"
     inkscape:showpageshadow="2"
     inkscape:pagecheckerboard="0"
     inkscape:deskcolor="#d1d1d1"
     inkscape:current-layer="svg1" /><metadata
     id="metadata1"><rdf:RDF><cc:Work
         rdf:about=""><dc:format>image/svg+xml</dc:format><dc:type
           rdf:resource="http://purl.org/dc/dcmitype/StillImage" /><cc:license
           rdf:resource="http://creativecommons.org/publicdomain/zero/1.0/" /></cc:Work><cc:License
         rdf:about="http://creativecommons.org/publicdomain/zero/1.0/"><cc:permits
           rdf:resource="http://creativecommons.org/ns#Reproduction" /><cc:permits
           rdf:resource="http://creativecommons.org/ns#Distribution" /><cc:permits
           rdf:resource="http://creativecommons.org/ns#DerivativeWorks" /></cc:License></rdf:RDF></metadata><rect
     style="fill:#dff7fe;fill-opacity:0.905882;fill-rule:evenodd;stroke:#3c8bd0;stroke-width:5.14501;stroke-opacity:0.835294"
     id="rect1"
     width="247.95238"
     height="178.40475"
     x="4.1577382"
     y="39.6875" /><rect
     style="fill:url(#linearGradient3);fill-opacity:0.905882;fill-rule:evenodd;stroke:none;stroke-width:5.14501;stroke-opacity:0.835294"
     id="rect2"
     width="90.714287"
     height="157.99405"
     x="17.386906"
     y="49.136902" /><rect
     style="fill:#057da0;fill-opacity:0.905882;fill-rule:evenodd;stroke:none;stroke-width:5.2469;stroke-opacity:0.835294"
     id="rect3"
     width="127.75594"
     height="21.922617"
     x="115.28274"
     y="48.380955" /><g
     id="g4"><circle
       style="fill:#057da0;fill-opacity:0.905882;fill-rule:evenodd;stroke:none;stroke-width:5.14501;stroke-opacity:0.835294"
       id="path3"
       cx="119.62946"
       cy="84.099701"
       r="4.7247024" /><rect
       style="fill:#057da0;fill-opacity:0.905882;fill-rule:evenodd;stroke:none;stroke-width:5.14501;stroke-opacity:0.835294"
       id="rect4"
       width="108.85714"
       height="6.0476193"
       x="131.9137"
       y="81.264877" /></g><g
     id="g5"
     transform="translate(0,15.345837)"><circle
       style="fill:#057da0;fill-opacity:0.905882;fill-rule:evenodd;stroke:none;stroke-width:5.14501;stroke-opacity:0.835294"
       id="circle4"
       cx="119.62946"
       cy="84.099701"
       r="4.7247024" /><rect
       style="fill:#057da0;fill-opacity:0.905882;fill-rule:evenodd;stroke:none;stroke-width:5.14501;stroke-opacity:0.835294"
       id="rect5"
       width="108.85714"
       height="6.0476193"
       x="131.9137"
       y="81.264877" /></g><g
     id="g6"
     transform="translate(0,30.162513)"><circle
       style="fill:#057da0;fill-opacity:0.905882;fill-rule:evenodd;stroke:none;stroke-width:5.14501;stroke-opacity:0.835294"
       id="circle5"
       cx="119.62946"
       cy="84.099701"
       r="4.7247024" /><rect
       style="fill:#057da0;fill-opacity:0.905882;fill-rule:evenodd;stroke:none;stroke-width:5.14501;stroke-opacity:0.835294"
       id="rect6"
       width="108.85714"
       height="6.0476193"
       x="131.9137"
       y="81.264877" /></g><g
     id="g9"><rect
       style="fill:url(#linearGradient7);fill-opacity:0.905882;fill-rule:evenodd;stroke:none;stroke-width:0.852461;stroke-opacity:0.835294"
       id="rect7"
       width="20.410715"
       height="19.276787"
       x="118.9113"
       y="133.35074" /><rect
       style="fill:#057da0;fill-opacity:0.905882;fill-rule:evenodd;stroke:none;stroke-width:5.14501;stroke-opacity:0.835294"
       id="rect8"
       width="15.119047"
       height="7.5595236"
       x="144.3869"
       y="139.85118" /><rect
       style="fill:#057da0;fill-opacity:0.905882;fill-rule:evenodd;stroke:none;stroke-width:10.9445;stroke-opacity:0.835294"
       id="rect9"
       width="68.413689"
       height="7.5595236"
       x="171.37404"
       y="139.85118" /></g><g
     id="g12"
     transform="translate(0,27.516678)"><rect
       style="fill:url(#linearGradient15);fill-opacity:0.905882;fill-rule:evenodd;stroke:none;stroke-width:0.852461;stroke-opacity:0.835294"
       id="rect10"
       width="20.410715"
       height="19.276787"
       x="118.9113"
       y="133.35074" /><rect
       style="fill:#057da0;fill-opacity:0.905882;fill-rule:evenodd;stroke:none;stroke-width:5.14501;stroke-opacity:0.835294"
       id="rect11"
       width="15.119047"
       height="7.5595236"
       x="144.3869"
       y="139.85118" /><rect
       style="fill:#057da0;fill-opacity:0.905882;fill-rule:evenodd;stroke:none;stroke-width:10.9445;stroke-opacity:0.835294"
       id="rect12"
       width="68.413689"
       height="7.5595236"
       x="171.37404"
       y="139.85118" /></g><g
     id="g15"
     transform="translate(0,53.975028)"><rect
       style="fill:url(#linearGradient16);fill-opacity:0.905882;fill-rule:evenodd;stroke:none;stroke-width:0.852461;stroke-opacity:0.835294"
       id="rect13"
       width="20.410715"
       height="19.276787"
       x="118.9113"
       y="133.35074" /><rect
       style="fill:#057da0;fill-opacity:0.905882;fill-rule:evenodd;stroke:none;stroke-width:5.14501;stroke-opacity:0.835294"
       id="rect14"
       width="15.119047"
       height="7.5595236"
       x="144.3869"
       y="139.85118" /><rect
       style="fill:#057da0;fill-opacity:0.905882;fill-rule:evenodd;stroke:none;stroke-width:10.9445;stroke-opacity:0.835294"
       id="rect15"
       width="68.413689"
       height="7.5595236"
       x="171.37404"
       y="139.85118" /></g><path
     id="rect16"
     style="fill:#ffffff;fill-opacity:0.485092;fill-rule:evenodd;stroke-width:5.28223;stroke-opacity:0.654817"
     d="m 19.05,50.195238 h 88.44643 c 0,0 0.18899,64.164712 0.18899,88.824402 -26.89465,-86.687202 -60.52813,41.40141 -88.63542,0 0,-18.33685 0,-88.824402 0,-88.824402 z"
     sodipodi:nodetypes="ccccc" /><g
     id="g5-2"
     transform="matrix(0.35112725,0,0,0.35112725,16.277707,76.67435)"
     style="display:none"><g
       id="rect1-9"
       style="opacity:1"
       transform="matrix(1.2517914,0,0,1.2517914,-1.4416291,-22.060151)"><path
         style="baseline-shift:baseline;display:inline;overflow:visible;opacity:1;vector-effect:none;fill:#000000;fill-opacity:0.212815;stroke-linecap:round;stroke-linejoin:round;paint-order:fill markers stroke;enable-background:accumulate;stop-color:#000000;stop-opacity:1"
         d="m 55.992995,138.25789 c -24.26967,0 -44.201175,19.9315 -44.201175,44.20117 0,24.26967 19.931505,44.19922 44.201175,44.19922 h 81.982455 c 24.26967,0 44.20117,-19.92955 44.20117,-44.19922 0,-24.26967 -19.9315,-44.20117 -44.20117,-44.20117 z m 0,25.09766 h 81.982455 c 10.80058,0 19.10547,8.30294 19.10547,19.10351 0,10.80058 -8.30489,19.10352 -19.10547,19.10352 H 55.992995 c -10.800577,0 -19.103515,-8.30294 -19.103515,-19.10352 0,-10.80057 8.302938,-19.10351 19.103515,-19.10351 z"
         id="path9" /><path
         style="baseline-shift:baseline;display:inline;overflow:visible;vector-effect:none;fill:#47699c;stroke-linecap:round;stroke-linejoin:round;paint-order:fill markers stroke;enable-background:accumulate;stop-color:#000000;stop-opacity:1"
         d="m 50.332031,131.18164 c -24.26967,0 -44.2011716,19.9315 -44.2011716,44.20117 0,24.26967 19.9315016,44.19922 44.2011716,44.19922 h 81.982419 c 24.26967,0 44.20117,-19.92955 44.20117,-44.19922 0,-24.26967 -19.9315,-44.20117 -44.20117,-44.20117 z m 0,25.09766 h 81.982419 c 10.80058,0 19.10547,8.30294 19.10547,19.10351 0,10.80058 -8.30489,19.10352 -19.10547,19.10352 H 50.332031 c -10.800577,0 -19.103515,-8.30294 -19.103515,-19.10352 0,-10.80057 8.302938,-19.10351 19.103515,-19.10351 z"
         id="path1" /><g
         id="g2"><path
           d="m 49.078298,150.11468 c -13.657124,0 -24.466053,11.61075 -24.466053,25.26787 0,13.65713 10.808929,25.53571 24.466053,25.53571 h 84.740952 c 13.65713,0 24.46892,-11.87818 24.46892,-25.53571 0,-13.65751 -10.81179,-25.26787 -24.46892,-25.26787 z m 0,6.64106 h 84.740952 c 10.25338,0 17.8273,8.37384 17.8273,18.62681 0,10.25299 -7.57392,18.89465 -17.8273,18.89465 H 49.078298 c -10.253381,0 -17.825006,-8.64126 -17.825006,-18.89465 0,-10.25337 7.571625,-18.62681 17.825006,-18.62681 z"
           style="baseline-shift:baseline;display:inline;overflow:visible;vector-effect:none;fill:url(#radialGradient15);fill-opacity:0.529496;stroke-width:1.10691;stroke-linecap:round;stroke-linejoin:round;stroke-opacity:0.529496;paint-order:fill markers stroke;enable-background:accumulate;stop-color:#000000;stop-opacity:1"
           id="path5"
           sodipodi:nodetypes="ssssssssssssss" /><path
           d="m 49.593738,131.24702 c -24.08271,0 -43.8682492,20.05282 -43.8682492,44.13552 0,24.08272 19.7856892,43.86729 43.8682492,43.86729 h 83.143422 c 24.08257,0 43.86874,-19.78457 43.86874,-43.86729 0,-24.0827 -19.78602,-44.13552 -43.86874,-44.13552 z m 0,5.57604 h 83.143422 c 21.02964,0 38.29221,17.52986 38.29221,38.55948 0,21.02964 -17.26242,38.29076 -38.29221,38.29076 H 49.593738 c -21.029783,0 -38.292204,-17.26112 -38.292204,-38.29076 0,-21.02962 17.262571,-38.55948 38.292204,-38.55948 z"
           style="baseline-shift:baseline;display:inline;overflow:visible;vector-effect:none;fill:url(#radialGradient11);fill-opacity:0.529496;stroke-width:0.929398;stroke-linecap:round;stroke-linejoin:round;stroke-opacity:0.529496;paint-order:fill markers stroke;enable-background:accumulate;stop-color:#000000;stop-opacity:1"
           id="path3-1"
           sodipodi:nodetypes="ssssssssssssss" /></g><path
         style="baseline-shift:baseline;display:inline;overflow:visible;vector-effect:none;fill:url(#radialGradient3);fill-opacity:0.47762;stroke-linecap:round;stroke-linejoin:round;paint-order:fill markers stroke;enable-background:accumulate;stop-color:#000000;stop-opacity:1"
         d="m 50.332031,131.18164 c -24.26967,0 -44.2011716,19.9315 -44.2011716,44.20117 0,24.26967 19.9315016,44.19922 44.2011716,44.19922 h 81.982419 c 24.26967,0 44.20117,-19.92955 44.20117,-44.19922 0,-24.26967 -19.9315,-44.20117 -44.20117,-44.20117 z m 0,25.09766 h 81.982419 c 10.80058,0 19.10547,8.30294 19.10547,19.10351 0,10.80058 -8.30489,19.10352 -19.10547,19.10352 H 50.332031 c -10.800577,0 -19.103515,-8.30294 -19.103515,-19.10352 0,-10.80057 8.302938,-19.10351 19.103515,-19.10351 z"
         id="path2" /></g><g
       id="g9-2"
       style="opacity:1"
       transform="matrix(0.01896203,-1.2516214,1.1503171,0.02063193,-1.1587827,231.97243)"><path
         id="path10"
         style="baseline-shift:baseline;display:inline;overflow:visible;opacity:1;vector-effect:none;fill:#000000;fill-opacity:0.157588;stroke-linecap:round;stroke-linejoin:round;paint-order:fill markers stroke;enable-background:accumulate;stop-color:#000000;stop-opacity:1"
         d="m 173.34086,183.1355 c 0,-24.26967 -19.93145,-44.20092 -44.20112,-44.20092 l -81.98238,9e-5 c -7.92699,0 -13.1746,14.46905 -14.03296,21.07102 -0.85836,6.60197 3.371102,0.96512 14.032681,4.02611 l 81.982389,4.8e-4 c 10.80058,0 19.10545,8.30245 19.10545,19.10302 0,10.80058 -8.30457,19.10362 -19.10515,19.10362 l -81.98238,8e-5 c -4.569585,0 -8.692355,-1.48591 -11.928115,-4.01875 -2.496684,0.52778 -5.067668,0.82415 -7.693771,0.86744 -8.63412,0.14232 -16.763933,-2.46985 -23.6751112,-7.08337 4.1475197,20.07254 22.0613702,35.33069 43.2967002,35.33069 l 81.982377,-8e-5 c 24.26967,0 44.20139,-19.92976 44.20139,-44.19943 z"
         sodipodi:nodetypes="sccsccscccscccs" /><path
         id="path6"
         style="baseline-shift:baseline;display:inline;overflow:visible;vector-effect:none;fill:#6a7079;fill-opacity:1;stroke-linecap:round;stroke-linejoin:round;paint-order:fill markers stroke;enable-background:accumulate;stop-color:#000000;stop-opacity:1"
         d="m 176.51572,175.38274 c 0,-24.26967 -19.93145,-44.20092 -44.20112,-44.20092 l -81.98236,9e-5 c -15.853979,0 -29.856803,8.50525 -37.661641,21.1691 3.085173,7.11246 9.712714,11.8112 17.589725,11.68136 1.809034,-0.0298 3.543947,-0.31208 5.177628,-0.81641 3.460045,-4.27286 8.776227,-6.93692 14.894009,-6.93692 l 81.982369,4.8e-4 c 10.80058,0 19.10545,8.30245 19.10545,19.10302 0,10.80058 -8.30457,19.10362 -19.10515,19.10362 l -81.98236,8e-5 c -4.569585,0 -8.692355,-1.48591 -11.928115,-4.01875 -2.496684,0.52778 -5.067668,0.82415 -7.693771,0.86744 -8.63412,0.14232 -16.763933,-2.46985 -23.6751149,-7.08337 4.1475209,20.07254 22.0613739,35.33069 43.2967039,35.33069 l 81.982357,-8e-5 c 24.26967,0 44.20139,-19.92976 44.20139,-44.19943 z" /><g
         id="g8"><path
           id="path7"
           style="baseline-shift:baseline;display:inline;overflow:visible;vector-effect:none;fill:#fafafa;fill-opacity:0.529496;stroke-width:1.10691;stroke-linecap:round;stroke-linejoin:round;stroke-opacity:0.529496;paint-order:fill markers stroke;enable-background:accumulate;stop-color:#000000;stop-opacity:1"
           d="m 158.28799,175.38235 c 0,-13.65751 -10.81184,-25.26794 -24.46897,-25.26794 l -84.740702,1e-5 c -9.5416,0 -17.693193,5.66749 -21.739482,13.7406 0.950726,0.1329 1.92625,0.19375 2.921488,0.17735 1.817235,-0.03 3.559579,-0.31432 5.199744,-0.82296 3.203477,-3.94807 8.009534,-6.45364 13.618158,-6.45364 l 84.741224,-1e-5 c 10.25338,0 17.82722,8.374 17.82722,18.62697 0,10.25299 -7.57398,18.89473 -17.82736,18.89473 l -84.741221,2e-5 c -4.150561,0 -7.86155,-1.4162 -10.808881,-3.7819 -2.454363,0.5101 -4.979993,0.79684 -7.558824,0.83935 -0.212225,0.003 -0.424012,0.005 -0.635617,0.005 4.461707,5.7755 11.276906,9.57792 19.003738,9.57792 h 84.740705 c 13.65713,0 24.46878,-11.87838 24.46878,-25.53591 z" /><path
           id="path8"
           style="baseline-shift:baseline;display:inline;overflow:visible;vector-effect:none;fill:#fafafa;fill-opacity:0.529496;stroke-width:0.929398;stroke-linecap:round;stroke-linejoin:round;stroke-opacity:0.529496;paint-order:fill markers stroke;enable-background:accumulate;stop-color:#000000;stop-opacity:1"
           d="m 176.60564,175.38238 c 0,-24.0827 -19.78551,-44.13555 -43.86823,-44.13555 l -83.143688,1.1e-4 c -15.533885,0 -29.280109,8.34322 -37.081766,20.72934 0.82907,2.01497 1.939476,3.84384 3.279993,5.43391 6.46372,-12.16827 19.227957,-20.58698 33.801696,-20.58698 l 83.143685,-1.1e-4 c 21.02964,0 38.29219,17.52992 38.29219,38.55954 0,21.02964 -17.26235,38.29069 -38.29214,38.29069 l -83.143684,1e-4 c -16.706202,0 -31.034956,-10.89345 -36.220571,-25.9155 -2.373583,-1.06178 -4.6475625,-2.34248 -6.7998867,-3.81873 4.0216387,20.03985 21.8627307,35.3105 43.0203817,35.3105 l 83.14369,-1.1e-4 c 24.08257,0 43.86833,-19.78449 43.86833,-43.86721 z" /></g><path
         id="path4"
         style="baseline-shift:baseline;display:inline;overflow:visible;vector-effect:none;fill:url(#radialGradient5);stroke-linecap:round;stroke-linejoin:round;paint-order:fill markers stroke;enable-background:accumulate;stop-color:#000000;stop-opacity:1"
         d="m 176.51572,175.38274 c 0,-24.26967 -19.93145,-44.20092 -44.20112,-44.20092 l -81.98236,9e-5 c -15.853979,0 -29.856803,8.50525 -37.661641,21.1691 3.085173,7.11246 9.712714,11.8112 17.589725,11.68136 1.809034,-0.0298 3.543947,-0.31208 5.177628,-0.81641 3.460045,-4.27286 8.776227,-6.93692 14.894009,-6.93692 l 81.982369,4.8e-4 c 10.80058,0 19.10545,8.30245 19.10545,19.10302 0,10.80058 -8.30457,19.10362 -19.10515,19.10362 l -81.98236,8e-5 c -4.569585,0 -8.692355,-1.48591 -11.928115,-4.01875 -2.496684,0.52778 -5.067668,0.82415 -7.693771,0.86744 -8.63412,0.14232 -16.763933,-2.46985 -23.6751149,-7.08337 4.1475209,20.07254 22.0613739,35.33069 43.2967039,35.33069 l 81.982357,-8e-5 c 24.26967,0 44.20139,-19.92976 44.20139,-44.19943 z"
         sodipodi:nodetypes="scccscccscccscccs" /></g></g><g
     transform="matrix(0,4.8276588,-5.3094172,0,348.19772,74.96512)"
     id="g241"><rect
       width="10.036922"
       height="2.9519999"
       x="6.4759998"
       y="50.819187"
       style="fill:url(#linearGradient2634);stroke:#555753"
       id="rect243" /><path
       d="m 12.97048,54.361623 c 0,1.771217 3.071269,2.95203 4.095941,2.952029 h 10.0738 v -2.952029 z"
       style="fill:url(#linearGradient2636);stroke:url(#linearGradient2638)"
       id="path245" /><path
       d="m 26.549815,54.952029 h -8.616236 c -0.237918,0.191351 -0.517983,0.295203 -0.811808,0.295203"
       style="opacity:0.75;fill:none;stroke:url(#linearGradient2640)"
       id="path247" /><path
       d="m 3.9298893,52 c -0.2475908,0.421179 -0.405904,0.93004 -0.405904,1.476014 0,1.471881 1.0428132,2.656826 2.3431734,2.656826 H 17.121771 c 1.30036,0 2.343174,-1.184945 2.343174,-2.656826 0,-0.545974 -0.158314,-1.054835 -0.405905,-1.476014 h -1.660516 c -0.715498,0 -1.301931,0.507004 -1.439114,1.180811 H 15.0369 12.398524 7.9520295 C 7.2365308,53.180812 6.6500983,52.673806 6.5129151,52 Z"
       style="fill:#d3d7cf;stroke:#888a85"
       id="path249" /><path
       d="M 7.6568266,51.409593 H 15.332103"
       style="opacity:0.75;fill:none;stroke:#ffffff"
       id="path251" /><path
       d="m 16.476015,49.04797 c -1.246179,0 -3.423252,1.822606 -3.505535,4.132841 h 5.295203 V 52 h 8.874538 v -2.95203 z"
       style="fill:url(#linearGradient2642);stroke:url(#linearGradient2644)"
       id="path253" /><path
       d="m 32.4375,13.96875 c -0.826833,0 -2.235751,0.681052 -3.375,1.875 -1.033483,1.083104 -1.837153,2.571494 -2.03125,4.1875 H 35 V 18.5 c 2.6e-5,-0.258873 0.209877,-0.468724 0.46875,-0.46875 h 14.5625 v -4.0625 z"
       transform="matrix(0.6,0,0,0.6,-2.6752767,41.07749)"
       style="opacity:0.8;fill:url(#radialGradient2646)"
       id="path255" /><path
       d="m 15.424354,54.06642 c -0.0556,-0.188073 -0.09225,-0.383667 -0.09225,-0.590406 0,-1.134585 0.931837,-2.066421 2.066421,-2.066421 h 9.151291"
       style="opacity:0.6;fill:none;stroke:url(#linearGradient2648)"
       id="path257" /><path
       d="m 26.549815,49.638376 h -10.0738 c -0.335256,0 -1.141333,0.354624 -1.771218,1.01476 -0.629885,0.660128 -1.109166,1.552144 -1.143911,2.527675 v 0.885609"
       style="fill:none;stroke:url(#linearGradient2650)"
       id="path259" /><path
       d="m 13.98524,55.247232 c 0.237769,0.266092 0.553201,0.514413 0.940959,0.738007 0.811568,0.467976 1.854677,0.738007 2.140222,0.738007 h 9.483394"
       style="opacity:0.6;fill:none;stroke:url(#linearGradient2652)"
       id="path261" /><path
       d="m 10.018451,54.361623 c 0,1.771217 -3.0712694,2.95203 -4.0959413,2.952029 H -4.151291 v -2.952029 z"
       style="fill:url(#linearGradient2654);stroke:url(#linearGradient2656)"
       id="path263" /><path
       d="m -3.5608851,54.952029 h 8.6162362 c 0.2379182,0.191351 0.5179831,0.295203 0.8118081,0.295203"
       style="opacity:0.7;fill:none;stroke:url(#linearGradient2658)"
       id="path265" /><path
       d="m 6.5129156,49.04797 c 1.2461786,0 3.4232514,1.822606 3.5055354,4.132841 H 4.7232477 V 52 H -4.151291 v -2.95203 z"
       style="fill:url(#linearGradient2660);stroke:url(#linearGradient2662)"
       id="path267" /><path
       d="m 32.4375,13.96875 c -0.826833,0 -2.235751,0.681052 -3.375,1.875 -1.033483,1.083104 -1.837153,2.571494 -2.03125,4.1875 H 35 V 18.5 c 2.6e-5,-0.258873 0.209877,-0.468724 0.46875,-0.46875 h 14.5625 v -4.0625 z"
       transform="matrix(-0.6,0,0,0.6,25.664207,41.07749)"
       style="opacity:0.7;fill:url(#radialGradient2664)"
       id="path269" /><path
       d="m 7.5645761,54.06642 c 0.055605,-0.188073 0.092251,-0.383667 0.092251,-0.590406 0,-1.134585 -0.9318364,-2.066421 -2.0664206,-2.066421 H -3.560885"
       style="opacity:0.7;fill:none;stroke:url(#linearGradient2666)"
       id="path271" /><path
       d="M -3.5608851,49.638376 H 6.5129156 c 0.3352555,0 1.1413326,0.354624 1.7712177,1.01476 0.6298852,0.660128 1.1091661,1.552144 1.1439114,2.527675 v 0.885609"
       style="fill:none;stroke:url(#linearGradient2668)"
       id="path273" /><path
       d="M 9.0036905,55.247232 C 8.7659217,55.513324 8.450489,55.761645 8.0627311,55.985239 7.2511633,56.453215 6.2080542,56.723246 5.9225097,56.723246 h -9.4833948"
       style="opacity:0.7;fill:none;stroke:url(#linearGradient2670)"
       id="path275" /><path
       d="m 3.9298893,52 c -0.2475908,0.421179 -0.405904,0.93 -0.405904,1.476014 -6e-7,1.471881 1.0428132,2.656826 2.3431734,2.656826 H 17.121771 c 1.30036,0 2.343174,-1.184945 2.343174,-2.656826 0,-0.545974 -0.158314,-1.054835 -0.405905,-1.476014 h -1.660516 c -0.715498,0 -1.301931,0.507 -1.439114,1.180811 H 7.02952 C 6.8923371,52.507004 6.3059041,52 5.6,52 Z"
       style="fill:url(#linearGradient2672);stroke:#555753"
       id="path277" /><path
       d="M 18.468635,51.704796 Z M 4.1512915,52.2952 C 4,52.549592 3.8913399,52.827965 3.8376384,53.12546 c -0.020664,0.114474 -0.01845,0.229688 -0.01845,0.350554 -6e-7,0.666225 0.2369913,1.255117 0.6088561,1.678967 0.092866,0.106138 0.1861833,0.192796 0.2952029,0.276752 0.1090197,0.08396 0.2282061,0.16253 0.3505535,0.221403 0.2445456,0.117304 0.5131017,0.184501 0.793358,0.184501 H 17.121771 c 0.281056,0 0.548663,-0.06676 0.793358,-0.184501 0.122348,-0.05887 0.241534,-0.137446 0.350554,-0.221403 0.109019,-0.08396 0.202336,-0.170614 0.295203,-0.276752 0.371864,-0.42385 0.608856,-1.012742 0.608856,-1.678967 0,-0.108291 -0.0065,-0.209656 -0.01845,-0.313653 -0.0019,-0.01155 0.0021,-0.02542 0,-0.0369 -0.0537,-0.297495 -0.18239,-0.575868 -0.313653,-0.830258 h -0.627306 c 0.222694,0.302274 0.369004,0.706668 0.369004,1.180812 0,1.05922 -0.698404,1.771218 -1.457565,1.771218 H 5.8671587 c -0.7591605,-1e-6 -1.4575646,-0.711999 -1.4575646,-1.771218 0,-0.474144 0.1463097,-0.878538 0.3690037,-1.180812 H 4.1512915 Z"
       style="opacity:0.75;fill:#ffffff"
       id="path279" /><path
       d="m 6.1875,52.4375 v 0.78125 c 0,0.465077 0.3786719,0.84375 0.84375,0.84375 h 8.9375 c 0.465078,-2e-6 0.84375,-0.378672 0.84375,-0.84375 V 52.4375 c -0.284415,0.164723 -0.493658,0.474365 -0.5625,0.8125 -0.0076,0.03969 -0.04122,0.06179 -0.0625,0.09375 -0.03791,0.09349 -0.107596,0.125 -0.21875,0.125 h -8.9375 c -0.1032522,0.0018 -0.1956207,-0.04332 -0.25,-0.125 C 6.759971,53.311789 6.7263238,53.289692 6.71875,53.25 6.6499081,52.911867 6.4719145,52.602221 6.1875,52.4375 Z"
       style="opacity:0.9;fill:#ffffff"
       id="path281" /><path
       d="m 11.5,19 c -0.301873,0.592213 -0.5,1.27145 -0.5,2 0,2.256835 1.570013,4 3.46875,4 h 19.0625 C 35.429987,25 37,23.256835 37,21 37,20.27145 36.801873,19.592213 36.5,19 H 34 c -0.975674,0 -1.750938,0.677406 -1.9375,1.59375 -0.04561,0.239041 -0.256684,0.410538 -0.5,0.40625 h -15.125 c -0.243316,0.0043 -0.454389,-0.167209 -0.5,-0.40625 C 15.750938,19.677406 14.975674,19 14,19 Z"
       transform="matrix(0.6,0,0,0.6,-2.6752767,41.07749)"
       style="fill:url(#radialGradient2674)"
       id="path283" /></g></svg>
