<?xml version="1.0" encoding="UTF-8" standalone="no"?>
<svg
   height="256"
   width="256"
   version="1.1"
   id="svg26"
   sodipodi:docname="mail-thread-watch.svg"
   viewBox="0 0 256 256"
   inkscape:version="1.4.2 (ebf0e940d0, 2025-05-08)"
   xmlns:inkscape="http://www.inkscape.org/namespaces/inkscape"
   xmlns:sodipodi="http://sodipodi.sourceforge.net/DTD/sodipodi-0.dtd"
   xmlns:xlink="http://www.w3.org/1999/xlink"
   xmlns="http://www.w3.org/2000/svg"
   xmlns:svg="http://www.w3.org/2000/svg"
   xmlns:rdf="http://www.w3.org/1999/02/22-rdf-syntax-ns#"
   xmlns:cc="http://creativecommons.org/ns#"
   xmlns:dc="http://purl.org/dc/elements/1.1/">
  <sodipodi:namedview
     id="namedview26"
     pagecolor="#ffffff"
     bordercolor="#000000"
     borderopacity="0.25"
     inkscape:showpageshadow="2"
     inkscape:pageopacity="0.0"
     inkscape:pagecheckerboard="0"
     inkscape:deskcolor="#d1d1d1"
     inkscape:zoom="2.1968187"
     inkscape:cx="97.18599"
     inkscape:cy="174.57062"
     inkscape:current-layer="svg26" />
  <defs
     id="defs19">
    <linearGradient
       id="l"
       y2="7.4099998"
       gradientUnits="userSpaceOnUse"
       x2="40"
       gradientTransform="matrix(1.591,0,0,-1.702,-1.53,31.38)"
       y1="4.25"
       x1="11.84">
      <stop
         stop-color="#fff"
         offset="0"
         id="stop1" />
      <stop
         stop-color="#ededed"
         offset="1"
         id="stop2" />
    </linearGradient>
    <linearGradient
       id="n"
       y2="11.98"
       xlink:href="#a"
       gradientUnits="userSpaceOnUse"
       x2="13.85"
       gradientTransform="matrix(1.504,0,0,-1.67,-0.21,31.79)"
       y1="11.48"
       x1="11.74" />
    <linearGradient
       id="k"
       y2="28.299999"
       gradientUnits="userSpaceOnUse"
       x2="21.290001"
       y1="30.959999"
       x1="15.74">
      <stop
         stop-color="#fff"
         offset="0"
         id="stop3" />
      <stop
         stop-color="#fff"
         stop-opacity="0"
         offset="1"
         id="stop4" />
    </linearGradient>
    <linearGradient
       id="i"
       x1="0.27270001"
       gradientUnits="userSpaceOnUse"
       y1="7.9910002"
       gradientTransform="matrix(1.343,0,0,1.418,3.24,-0.69)"
       x2="32.639999"
       y2="25.4">
      <stop
         stop-color="#989690"
         offset="0"
         id="stop5" />
      <stop
         stop-color="#2e3436"
         offset="1"
         id="stop6" />
    </linearGradient>
    <linearGradient
       id="h"
       x1="8.9200001"
       gradientUnits="userSpaceOnUse"
       y1="37.200001"
       gradientTransform="matrix(2.455,0,0,0.762,3.24,-0.66)"
       x2="9.8900003"
       y2="52.099998">
      <stop
         stop-color="#888a85"
         offset="0"
         id="stop7" />
      <stop
         stop-color="#b5beb5"
         offset="1"
         id="stop8" />
    </linearGradient>
    <linearGradient
       id="j"
       y2="6.105"
       gradientUnits="userSpaceOnUse"
       y1="30.040001"
       x2="18.5"
       x1="40.32">
      <stop
         stop-color="#555753"
         offset="0"
         id="stop9" />
      <stop
         stop-color="#989898"
         offset="1"
         id="stop10" />
    </linearGradient>
    <linearGradient
       id="m"
       y2="-7.5300002"
       xlink:href="#a"
       gradientUnits="userSpaceOnUse"
       x2="17.200001"
       gradientTransform="matrix(1.823,0,0,-1.431,-1.11,31.94)"
       y1="20.200001"
       x1="10" />
    <linearGradient
       id="f"
       gradientUnits="userSpaceOnUse"
       y1="366.60001"
       gradientTransform="matrix(2.774,0,0,1.97,-1892,-872.9)"
       x2="0"
       y2="609.5">
      <stop
         stop-opacity="0"
         offset="0"
         id="stop11" />
      <stop
         offset=".5"
         id="stop12" />
      <stop
         stop-opacity="0"
         offset="1"
         id="stop13" />
    </linearGradient>
    <linearGradient
       id="g"
       x1="11.57"
       xlink:href="#a"
       gradientUnits="userSpaceOnUse"
       y1="4.75"
       gradientTransform="matrix(1.343,0,0,1.418,3.24,-0.69)"
       x2="18.48"
       y2="26" />
    <linearGradient
       id="a">
      <stop
         stop-color="#fff"
         offset="0"
         id="stop14" />
      <stop
         stop-color="#e2e2e2"
         offset="1"
         id="stop15" />
    </linearGradient>
    <radialGradient
       id="e"
       gradientUnits="userSpaceOnUse"
       cy="38.709999"
       cx="27.74"
       gradientTransform="matrix(0.731,0.534,-0.171,0.289,14.61,3.72)"
       r="17.98">
      <stop
         stop-opacity=".13"
         offset="0"
         id="stop16" />
      <stop
         stop-opacity="0"
         offset="1"
         id="stop17" />
    </radialGradient>
    <radialGradient
       id="b"
       gradientUnits="userSpaceOnUse"
       cy="487.70001"
       cx="602.79999"
       gradientTransform="matrix(-2.774,0,0,1.97,112.8,-872.9)"
       r="117.1">
      <stop
         offset="0"
         id="stop18" />
      <stop
         stop-opacity="0"
         offset="1"
         id="stop19" />
    </radialGradient>
    <linearGradient
       inkscape:collect="always"
       xlink:href="#linearGradient1-8"
       id="linearGradient2-9"
       x1="52.821632"
       y1="122.11386"
       x2="216.93414"
       y2="122.11386"
       gradientUnits="userSpaceOnUse"
       gradientTransform="matrix(1.0009451,0,0,0.95086213,-0.12746417,4.2093947)" />
    <linearGradient
       id="linearGradient1-8"
       inkscape:collect="always">
      <stop
         style="stop-color:#dedede;stop-opacity:1;"
         offset="0"
         id="stop1-5" />
      <stop
         style="stop-color:#ffffff;stop-opacity:1;"
         offset="1"
         id="stop2-4" />
    </linearGradient>
    <radialGradient
       inkscape:collect="always"
       xlink:href="#linearGradient11"
       id="radialGradient13"
       cx="125.42727"
       cy="118.30909"
       fx="125.42727"
       fy="118.30909"
       r="31.049999"
       gradientUnits="userSpaceOnUse" />
    <linearGradient
       id="linearGradient11"
       inkscape:collect="always">
      <stop
         style="stop-color:#ffffff;stop-opacity:0.57163745;"
         offset="0"
         id="stop12-8" />
      <stop
         style="stop-color:#ffffff;stop-opacity:0.40350878;"
         offset="0.73887491"
         id="stop21" />
      <stop
         style="stop-color:#ffffff;stop-opacity:0.49803922;"
         offset="0.93722427"
         id="stop14-9" />
      <stop
         style="stop-color:#ffffff;stop-opacity:0;"
         offset="1"
         id="stop13-2" />
    </linearGradient>
    <radialGradient
       inkscape:collect="always"
       xlink:href="#linearGradient3-2"
       id="radialGradient4"
       cx="125.91964"
       cy="117.58864"
       fx="125.91964"
       fy="117.58864"
       r="14.8396"
       gradientUnits="userSpaceOnUse" />
    <linearGradient
       id="linearGradient3-2"
       inkscape:collect="always">
      <stop
         style="stop-color:#040404;stop-opacity:1;"
         offset="0"
         id="stop3-1" />
      <stop
         style="stop-color:#040404;stop-opacity:1;"
         offset="0.5"
         id="stop5-28" />
      <stop
         style="stop-color:#040404;stop-opacity:1;"
         offset="0.75"
         id="stop10-9" />
      <stop
         style="stop-color:#040404;stop-opacity:1;"
         offset="0.85478449"
         id="stop11-3" />
      <stop
         style="stop-color:#040404;stop-opacity:0;"
         offset="1"
         id="stop4-6" />
    </linearGradient>
    <linearGradient
       inkscape:collect="always"
       xlink:href="#linearGradient6"
       id="linearGradient7"
       x1="178.21381"
       y1="114.4955"
       x2="197.08273"
       y2="115.24555"
       gradientUnits="userSpaceOnUse" />
    <linearGradient
       id="linearGradient6"
       inkscape:collect="always">
      <stop
         style="stop-color:#9b407a;stop-opacity:0.81659389;"
         offset="0"
         id="stop6-8" />
      <stop
         style="stop-color:#a271a8;stop-opacity:1;"
         offset="1"
         id="stop7-0" />
    </linearGradient>
    <linearGradient
       inkscape:collect="always"
       xlink:href="#linearGradient8"
       id="linearGradient9"
       x1="114.01583"
       y1="83.021965"
       x2="112.35405"
       y2="116.4185"
       gradientUnits="userSpaceOnUse" />
    <linearGradient
       id="linearGradient8"
       inkscape:collect="always">
      <stop
         style="stop-color:#101010;stop-opacity:0.74825175"
         offset="0"
         id="stop8-2" />
      <stop
         style="stop-color:#343434;stop-opacity:0;"
         offset="1"
         id="stop9-1" />
    </linearGradient>
    <radialGradient
       inkscape:collect="always"
       xlink:href="#b-3"
       id="radialGradient16"
       cx="220.60286"
       cy="106.41766"
       fx="220.60286"
       fy="106.41766"
       r="80.613586"
       gradientTransform="matrix(0.33464991,0.53369969,-0.26272324,0.16473742,112.03506,4.9603069)"
       gradientUnits="userSpaceOnUse" />
    <linearGradient
       id="b-3">
      <stop
         offset="0"
         stop-color="#fff"
         id="stop13-30" />
      <stop
         offset="1"
         stop-color="#fff"
         stop-opacity="0"
         id="stop14-3" />
    </linearGradient>
    <radialGradient
       inkscape:collect="always"
       xlink:href="#linearGradient16"
       id="radialGradient18"
       cx="95.330124"
       cy="181.32901"
       fx="95.330124"
       fy="181.32901"
       r="41.604546"
       gradientTransform="matrix(1.9079118,-0.13307373,0.03630481,0.92649671,-167.86863,22.450898)"
       gradientUnits="userSpaceOnUse" />
    <linearGradient
       id="linearGradient16"
       inkscape:collect="always">
      <stop
         style="stop-color:#ffffff;stop-opacity:0;"
         offset="0"
         id="stop17-6" />
      <stop
         style="stop-color:#ffffff;stop-opacity:0;"
         offset="0.18635713"
         id="stop20-2" />
      <stop
         style="stop-color:#fcfcfc;stop-opacity:0.09941521;"
         offset="0.37271425"
         id="stop19-3" />
      <stop
         style="stop-color:#ffffff;stop-opacity:0.32894737;"
         offset="1"
         id="stop18-7" />
    </linearGradient>
  </defs>
  <g
     id="g26"
     transform="matrix(5.4440162,0,0,5.4440162,-6.0706882,-13.485078)">
    <g
       opacity="0.4"
       transform="matrix(0.023,0,0,0.023,45.1,37.3)"
       id="g19">
      <rect
         height="478.39999"
         width="1340"
         y="-150.7"
         x="-1559"
         fill="url(#f)"
         id="rect19"
         style="fill:url(#f)" />
      <path
         id="c"
         fill="url(#b)"
         d="m -1559,-150.7 v 478.3 c -142.9,0.9 -345.4,-107.2 -345.4,-239.2 0,-132 159.4,-239.1 345.4,-239.1"
         style="fill:url(#b)" />
      <use
         xlink:href="#c"
         transform="matrix(-1,0,0,1,-1778,0)"
         id="use19" />
    </g>
    <path
       stroke-linejoin="round"
       d="m 2.9,10.19 v 30.2 h 42.91 l -0.09,-30.2 z"
       stroke="url(#i)"
       stroke-width="1.2"
       fill="url(#g)"
       id="path19"
       style="fill:url(#g);stroke:url(#i)" />
    <path
       d="M 19.32,25.97 3.77,38.73 19.87,27.56 h 10.47 l 14.42,11 L 30.99,25.95 H 19.28 Z"
       fill="url(#h)"
       id="path20"
       style="fill:url(#h)" />
    <path
       stroke="#ffffff"
       d="M 4,11.33 4.02,39.08 H 44.58 L 44.5,11.33 Z"
       fill="none"
       id="path21" />
    <path
       d="M 22.62,30.55 C 19.84,30.03 4.71,14.02 3.19,11.23 3.17,11.2 3.14,11.13 3.13,11.1 h 40.1 c -0.32,2.91 -8.73,19.2 -11.1,19.45 h -9.34 c -0.04,0 -0.09,10e-4 -0.14,0 z"
       fill="url(#e)"
       id="path22"
       style="fill:url(#e)" />
    <path
       stroke-linejoin="round"
       d="M 19.68,28.3 C 16.9,27.87 4.76,13.84 3.8,11.4 3.799,11.37 3.77,11.32 3.76,11.29 h 41.3 C 44.1,13.84 31.96,28.11 29.45,28.3 Z"
       stroke="url(#j)"
       fill="url(#n)"
       id="path23"
       style="fill:url(#n);stroke:url(#j)" />
    <path
       fill="url(#m)"
       d="M 19.48,27.64 C 17.03,27.07 4.5,13.11 3.7,11.34 3.635,11.21 3.484,10.86 3.484,10.74 l 41.53,0.33 c -0.01938,0.07564 -0.05464,0.1503 -0.08,0.22 -1.07,2.54 -13.36,16 -15.49,16.34 h -0.07 -9.72 c -0.03,0 -0.1,0.001 -0.15,0"
       id="path24"
       style="fill:url(#m)" />
    <path
       stroke="url(#l)"
       d="M 44.54,11.24 C 42.81,13.94 31.64,27 29.18,27.22 L 19.8,27.13 C 16.95,26.49 5.7,13.54 4.35,11.24 Z"
       fill="none"
       id="path25"
       style="stroke:url(#l)" />
    <path
       fill="url(#k)"
       d="M 6.01,37.2 H 8.59 L 20.2,29.22 30.44,27.57 19.88,27.59 Z"
       id="path26"
       style="fill:url(#k)" />
  </g>
  <metadata
     id="metadata26">
    <rdf:RDF>
      <cc:Work
         rdf:about="">
        <dc:source>https://commons.wikimedia.org/wiki/File:Mail-closed.svg</dc:source>
        <cc:license
           rdf:resource="http://creativecommons.org/publicdomain/zero/1.0/" />
      </cc:Work>
      <cc:License
         rdf:about="http://creativecommons.org/publicdomain/zero/1.0/">
        <cc:permits
           rdf:resource="http://creativecommons.org/ns#Reproduction" />
        <cc:permits
           rdf:resource="http://creativecommons.org/ns#Distribution" />
        <cc:permits
           rdf:resource="http://creativecommons.org/ns#DerivativeWorks" />
      </cc:License>
    </rdf:RDF>
  </metadata>
  <g
     id="g4"
     style="display:none;overflow:visible"
     transform="matrix(2.1962856,0,0,2.1962856,-17.205398,-24.150304)">
    <rect
       style="fill:#1e72ff;stroke:none;stroke-width:13.424;stroke-linecap:round;stroke-linejoin:round;stroke-opacity:0.833582;paint-order:fill markers stroke"
       id="rect1"
       width="65.448448"
       height="9.4417439"
       x="58.367142"
       y="67.808884" />
    <rect
       style="fill:#1e72ff;stroke:none;stroke-width:13.424;stroke-linecap:round;stroke-linejoin:round;stroke-opacity:0.833582;paint-order:fill markers stroke"
       id="rect2"
       width="65.448448"
       height="9.4417439"
       x="58.367142"
       y="83.25901" />
    <rect
       style="fill:#1e72ff;stroke:none;stroke-width:13.424;stroke-linecap:round;stroke-linejoin:round;stroke-opacity:0.833582;paint-order:fill markers stroke"
       id="rect3"
       width="65.448448"
       height="9.4417439"
       x="58.367142"
       y="100.42582" />
    <rect
       style="fill:#1e72ff;stroke:none;stroke-width:13.424;stroke-linecap:round;stroke-linejoin:round;stroke-opacity:0.833582;paint-order:fill markers stroke"
       id="rect4"
       width="65.448448"
       height="9.4417439"
       x="58.367142"
       y="116.73428" />
  </g>
  <path
     sodipodi:type="star"
     style="display:none;overflow:visible;fill:#3d5abc;fill-opacity:1;stroke:none;stroke-width:14.76;stroke-linecap:round;stroke-linejoin:round;stroke-dasharray:none;stroke-opacity:1"
     id="path27"
     inkscape:flatsided="false"
     sodipodi:sides="8"
     sodipodi:cx="23.786987"
     sodipodi:cy="182.27782"
     sodipodi:r1="44.794563"
     sodipodi:r2="21.949335"
     sodipodi:arg1="0.87834987"
     sodipodi:arg2="1.271049"
     inkscape:rounded="0"
     inkscape:randomized="0"
     d="m 52.384826,216.75559 -22.116665,-13.50713 -10.638912,23.63055 -6.087861,-25.18983 -24.232169,9.18648 13.5071293,-22.11667 -23.6305503,-10.63891 25.1898265,-6.08786 -9.1864762,-24.23217 22.1166657,13.50713 10.638911,-23.63055 6.087862,25.18982 24.232169,-9.18647 -13.50713,22.11666 23.630551,10.63891 -25.189827,6.08787 z"
     inkscape:transform-center-y="-1.1369403e-05"
     transform="matrix(1.6600798,-0.14826304,0.14826304,1.6600798,113.73826,-118.83997)"
     inkscape:transform-center-x="-6.1093607e-06" />
  <g
     id="g2"
     transform="matrix(1.0544204,0,0,1.0544204,23.273571,74.407137)"
     style="overflow:visible">
    <path
       id="path1"
       style="fill:url(#linearGradient2-9);stroke:#000000;stroke-width:6.0808;stroke-linecap:round;stroke-linejoin:round;stroke-miterlimit:1.8;stroke-dasharray:none;stroke-dashoffset:20.7632"
       d="m 214.36466,121.89044 c -23.43572,9.79549 -50.34461,28.08796 -79.26644,31.37039 -44.100456,5.00511 -75.352329,-10.1394 -80.836345,-32.75766 16.724445,-26.060573 31.658494,-33.232557 62.579895,-33.365316 18.11649,-0.07778 63.72055,8.2113 98.64727,32.823676"
       sodipodi:nodetypes="cscsc"
       inkscape:label="Path-Eye-under" />
    <g
       id="g5"
       transform="translate(-1.7356257,-0.86781287)"
       inkscape:label="iris"
       style="display:inline">
      <path
         style="display:inline;fill:#2591c4;fill-opacity:1;stroke:none;stroke-width:7.37288;stroke-linecap:round;stroke-linejoin:round;stroke-miterlimit:1.8;stroke-dasharray:none;stroke-dashoffset:20.7632;stroke-opacity:1"
         id="path9-7"
         sodipodi:type="arc"
         sodipodi:cx="125.42727"
         sodipodi:cy="118.30909"
         sodipodi:rx="32.082882"
         sodipodi:ry="32.082882"
         sodipodi:start="0"
         sodipodi:end="6.2731397"
         sodipodi:open="true"
         sodipodi:arc-type="arc"
         d="M 157.51015,118.30909 A 32.082882,32.082882 0 0 1 125.50784,150.39187 32.082882,32.082882 0 0 1 93.344792,118.47023 32.082882,32.082882 0 0 1 125.18555,86.227118 32.082882,32.082882 0 0 1 157.50853,117.9868"
         inkscape:label="color behind" />
      <path
         style="mix-blend-mode:normal;fill:url(#radialGradient13);fill-opacity:1;stroke:none;stroke-width:7.13552;stroke-linecap:round;stroke-linejoin:round;stroke-miterlimit:1.8;stroke-dasharray:none;stroke-dashoffset:20.7632;stroke-opacity:1"
         id="path2-1"
         sodipodi:type="arc"
         sodipodi:cx="125.42727"
         sodipodi:cy="118.30909"
         sodipodi:rx="31.049999"
         sodipodi:ry="31.049999"
         sodipodi:start="6.2745084"
         sodipodi:end="6.2731397"
         sodipodi:open="true"
         sodipodi:arc-type="arc"
         d="M 156.4761,118.03968 A 31.049999,31.049999 0 0 1 125.70731,149.35783 31.049999,31.049999 0 0 1 94.37863,118.59975 31.049999,31.049999 0 0 1 125.12598,87.260552 31.049999,31.049999 0 0 1 156.4757,117.99718"
         inkscape:label="color outher"
         transform="matrix(0.95737203,0,0,0.95737203,5.3467101,5.0432766)" />
      <path
         style="fill:url(#radialGradient4);fill-opacity:1;stroke:none;stroke-width:6.233;stroke-linecap:round;stroke-linejoin:round;stroke-miterlimit:1.8;stroke-dasharray:none;stroke-dashoffset:20.7632;stroke-opacity:1"
         id="path5"
         sodipodi:type="arc"
         sodipodi:cx="125.91964"
         sodipodi:cy="117.58864"
         sodipodi:rx="14.8396"
         sodipodi:ry="14.8396"
         sodipodi:start="0"
         sodipodi:end="6.2731397"
         sodipodi:open="true"
         sodipodi:arc-type="arc"
         d="m 140.75924,117.58864 a 14.8396,14.8396 0 0 1 -14.80233,14.83955 14.8396,14.8396 0 0 1 -14.87668,-14.76502 14.8396,14.8396 0 0 1 14.72761,-14.91371 14.8396,14.8396 0 0 1 14.95065,14.69011"
         inkscape:label="black inner" />
    </g>
    <path
       id="path6"
       style="fill:url(#linearGradient7);stroke-width:6.233;stroke-linecap:round;stroke-linejoin:round;stroke-miterlimit:1.8;stroke-dashoffset:20.7632"
       inkscape:transform-center-x="-3.6301533"
       inkscape:transform-center-y="-1.523533e-06"
       transform="matrix(1.3382968,0,0,1.1570041,-47.233453,-12.626803)"
       d="m 197.08273,115.24555 -8.13757,4.69823 -12.28762,6.64836 c 0,0 3.58587,-5.81321 4.92818,-10.44653 1.34232,-4.63332 -3.24222,-11.04656 -3.24222,-11.04656 l 10.60166,5.44827 z"
       sodipodi:nodetypes="ccczccc" />
    <path
       id="path8-3"
       style="display:inline;fill:url(#linearGradient9);fill-opacity:1;stroke:none;stroke-width:7.88096;stroke-linecap:round;stroke-linejoin:round;stroke-miterlimit:1.8;stroke-dasharray:none;stroke-dashoffset:20.7632;stroke-opacity:1"
       d="m 214.36466,121.89044 c -23.43572,9.79549 -50.47712,27.07832 -79.26644,31.37039 -42.885518,6.39361 -75.352329,-10.1394 -80.836345,-32.75766 19.675009,-25.019198 31.658494,-33.232557 62.579895,-33.365316 18.11649,-0.07778 63.72055,8.2113 98.64727,32.823676"
       sodipodi:nodetypes="cscsc"
       inkscape:label="Path-eye-overall-inner-shadow" />
    <path
       id="rect7-6"
       style="mix-blend-mode:normal;fill:#353535;fill-opacity:1;stroke-width:6.56598;stroke-linecap:round;stroke-linejoin:round;stroke-miterlimit:1.8;stroke-dashoffset:20.7632"
       d="M 43.577258,94.006997 C 58.667573,91.25865 81.38697,75.855256 101.68398,74.052781 c 26.38668,-2.343266 54.0857,1.654279 78.5865,12.253808 13.66967,5.913775 50.25926,35.005721 35.77516,27.608791 C 182.84866,96.961886 185.4911,90.198715 143.60537,83.489367 116.06671,79.078164 103.86265,81.388085 87.301535,87.18556 69.226385,93.513043 70.70529,95.359274 58.88405,97.575481 55.288392,98.249583 40.051908,94.649059 43.577258,94.006997 Z"
       sodipodi:nodetypes="saasssss"
       inkscape:label="eye lied-shadow"
       transform="matrix(1,0,0,1.0797834,-8.0361855e-7,-4.3553538)" />
    <path
       id="path14-1"
       style="display:inline;fill:url(#radialGradient16);stroke:none;stroke-width:7.88096;stroke-linecap:round;stroke-linejoin:round;stroke-miterlimit:1.8;stroke-dasharray:none;stroke-dashoffset:20.7632;stroke-opacity:1"
       d="m 208.51166,120.85756 c -23.43572,9.79549 -45.657,24.49611 -74.44632,28.78818 -42.88552,6.39361 -74.319449,-6.52431 -79.803465,-29.14257 19.675009,-25.019198 31.658494,-33.232557 62.579895,-33.365316 18.11649,-0.07778 63.72055,8.2113 98.64727,32.823676"
       sodipodi:nodetypes="cscsc"
       inkscape:label="whiteshadowbottomlight" />
    <path
       style="fill:url(#radialGradient18);fill-opacity:1;stroke-width:0.768015;stroke-linecap:round;stroke-linejoin:round;stroke-miterlimit:2.1"
       id="path16-2"
       sodipodi:type="arc"
       sodipodi:cx="-5.2632141"
       sodipodi:cy="157.83437"
       sodipodi:rx="32.367825"
       sodipodi:ry="17.46936"
       sodipodi:start="0"
       sodipodi:end="6.2731397"
       sodipodi:open="true"
       sodipodi:arc-type="arc"
       d="M 27.10461,157.83437 A 32.367825,17.46936 0 0 1 -5.1819256,175.30367 32.367825,17.46936 0 0 1 -37.63063,157.92211 32.367825,17.46936 0 0 1 -5.5070776,140.3655 32.367825,17.46936 0 0 1 27.102977,157.65888"
       transform="matrix(0.92347529,-0.3836579,0.63011621,0.77650084,0,0)"
       inkscape:label="light" />
    <path
       id="path7"
       style="display:inline;fill:none;stroke:#767676;stroke-width:7.881;stroke-linecap:round;stroke-linejoin:round;stroke-miterlimit:1.8;stroke-dasharray:none;stroke-dashoffset:20.7632;stroke-opacity:1"
       d="m 214.36466,121.89044 c -23.43572,9.79549 -50.47712,27.07832 -79.26644,31.37039 -42.885518,6.39361 -75.352329,-10.1394 -80.836345,-32.75766 19.675009,-25.019198 31.658494,-33.232557 62.579895,-33.365316 18.11649,-0.07778 63.72055,8.2113 98.64727,32.823676"
       sodipodi:nodetypes="cscsc"
       inkscape:label="Path-eye-overall" />
    <path
       id="path11-9"
       style="fill:#838383;fill-opacity:1;stroke-width:6.233;stroke-linecap:round;stroke-linejoin:round;stroke-miterlimit:1.8;stroke-dashoffset:20.7632"
       d="m 43.5642,88.531073 c 14.715284,-2.539791 36.870049,-16.774303 56.66263,-18.439997 25.7309,-2.165448 53.11437,0.664563 76.63343,11.323931 13.21339,5.988608 47.28873,35.017593 33.1646,28.181983 C 177.6529,93.930009 181.95113,85.01178 141.10637,78.811569 114.25212,74.73511 102.35136,76.869743 86.201823,82.227277 68.575884,88.074601 70.018034,89.780732 58.490581,91.828763 54.984283,92.451711 40.126463,89.124411 43.5642,88.531073 Z"
       sodipodi:nodetypes="saasssss"
       inkscape:label="eye lied" />
  </g>
</svg>
