<?xml version="1.0" encoding="UTF-8" standalone="no"?>
<svg
   height="256"
   width="256"
   version="1.1"
   id="svg26"
   sodipodi:docname="mail-download-later.svg"
   viewBox="0 0 256 256"
   inkscape:version="1.4.2 (ebf0e940d0, 2025-05-08)"
   xml:space="preserve"
   xmlns:inkscape="http://www.inkscape.org/namespaces/inkscape"
   xmlns:sodipodi="http://sodipodi.sourceforge.net/DTD/sodipodi-0.dtd"
   xmlns:xlink="http://www.w3.org/1999/xlink"
   xmlns="http://www.w3.org/2000/svg"
   xmlns:svg="http://www.w3.org/2000/svg"
   xmlns:rdf="http://www.w3.org/1999/02/22-rdf-syntax-ns#"
   xmlns:cc="http://creativecommons.org/ns#"
   xmlns:dc="http://purl.org/dc/elements/1.1/"><sodipodi:namedview
     id="namedview26"
     pagecolor="#ffffff"
     bordercolor="#000000"
     borderopacity="0.25"
     inkscape:showpageshadow="2"
     inkscape:pageopacity="0.0"
     inkscape:pagecheckerboard="0"
     inkscape:deskcolor="#d1d1d1"
     inkscape:zoom="1.0984094"
     inkscape:cx="188.90954"
     inkscape:cy="121.53939"
     inkscape:current-layer="svg26" /><defs
     id="defs19"><linearGradient
       id="l"
       y2="7.4099998"
       gradientUnits="userSpaceOnUse"
       x2="40"
       gradientTransform="matrix(1.591,0,0,-1.702,-1.53,31.38)"
       y1="4.25"
       x1="11.84"><stop
         stop-color="#fff"
         offset="0"
         id="stop1" /><stop
         stop-color="#ededed"
         offset="1"
         id="stop2" /></linearGradient><linearGradient
       id="n"
       y2="11.98"
       xlink:href="#a"
       gradientUnits="userSpaceOnUse"
       x2="13.85"
       gradientTransform="matrix(1.504,0,0,-1.67,-0.21,31.79)"
       y1="11.48"
       x1="11.74" /><linearGradient
       id="k"
       y2="28.299999"
       gradientUnits="userSpaceOnUse"
       x2="21.290001"
       y1="30.959999"
       x1="15.74"><stop
         stop-color="#fff"
         offset="0"
         id="stop3" /><stop
         stop-color="#fff"
         stop-opacity="0"
         offset="1"
         id="stop4" /></linearGradient><linearGradient
       id="i"
       x1="0.27270001"
       gradientUnits="userSpaceOnUse"
       y1="7.9910002"
       gradientTransform="matrix(1.343,0,0,1.418,3.24,-0.69)"
       x2="32.639999"
       y2="25.4"><stop
         stop-color="#989690"
         offset="0"
         id="stop5" /><stop
         stop-color="#2e3436"
         offset="1"
         id="stop6" /></linearGradient><linearGradient
       id="h"
       x1="8.9200001"
       gradientUnits="userSpaceOnUse"
       y1="37.200001"
       gradientTransform="matrix(2.455,0,0,0.762,3.24,-0.66)"
       x2="9.8900003"
       y2="52.099998"><stop
         stop-color="#888a85"
         offset="0"
         id="stop7" /><stop
         stop-color="#b5beb5"
         offset="1"
         id="stop8" /></linearGradient><linearGradient
       id="j"
       y2="6.105"
       gradientUnits="userSpaceOnUse"
       y1="30.040001"
       x2="18.5"
       x1="40.32"><stop
         stop-color="#555753"
         offset="0"
         id="stop9" /><stop
         stop-color="#989898"
         offset="1"
         id="stop10" /></linearGradient><linearGradient
       id="m"
       y2="-7.5300002"
       xlink:href="#a"
       gradientUnits="userSpaceOnUse"
       x2="17.200001"
       gradientTransform="matrix(1.823,0,0,-1.431,-1.11,31.94)"
       y1="20.200001"
       x1="10" /><linearGradient
       id="f"
       gradientUnits="userSpaceOnUse"
       y1="366.60001"
       gradientTransform="matrix(2.774,0,0,1.97,-1892,-872.9)"
       x2="0"
       y2="609.5"><stop
         stop-opacity="0"
         offset="0"
         id="stop11" /><stop
         offset=".5"
         id="stop12" /><stop
         stop-opacity="0"
         offset="1"
         id="stop13" /></linearGradient><linearGradient
       id="g"
       x1="11.57"
       xlink:href="#a"
       gradientUnits="userSpaceOnUse"
       y1="4.75"
       gradientTransform="matrix(1.343,0,0,1.418,3.24,-0.69)"
       x2="18.48"
       y2="26" /><linearGradient
       id="a"><stop
         stop-color="#fff"
         offset="0"
         id="stop14" /><stop
         stop-color="#e2e2e2"
         offset="1"
         id="stop15" /></linearGradient><radialGradient
       id="e"
       gradientUnits="userSpaceOnUse"
       cy="38.709999"
       cx="27.74"
       gradientTransform="matrix(0.731,0.534,-0.171,0.289,14.61,3.72)"
       r="17.98"><stop
         stop-opacity=".13"
         offset="0"
         id="stop16" /><stop
         stop-opacity="0"
         offset="1"
         id="stop17" /></radialGradient><radialGradient
       id="b"
       gradientUnits="userSpaceOnUse"
       cy="487.70001"
       cx="602.79999"
       gradientTransform="matrix(-2.774,0,0,1.97,112.8,-872.9)"
       r="117.1"><stop
         offset="0"
         id="stop18" /><stop
         stop-opacity="0"
         offset="1"
         id="stop19" /></radialGradient><linearGradient
       id="b-3"><stop
         offset="0"
         stop-color="#d3d7cf"
         id="stop1-6" /><stop
         offset=".5"
         stop-color="#f5f5f5"
         id="stop2-7" /><stop
         offset="1"
         stop-color="#bebebe"
         id="stop3-5" /></linearGradient><linearGradient
       id="a-3"><stop
         offset="0"
         id="stop4-5" /><stop
         offset="1"
         stop-opacity="0"
         id="stop5-6" /></linearGradient><radialGradient
       id="d"
       cx="21.761999"
       cy="23.070999"
       r="15.571"
       fx="21.761999"
       fy="23.070999"
       gradientTransform="matrix(0.86212077,0,0,0.16055214,0.12398702,37.795532)"
       gradientUnits="userSpaceOnUse"
       xlink:href="#a-3" /><linearGradient
       id="c-2"
       x1="23.506001"
       x2="20.605"
       y1="5.7750001"
       y2="29.858999"
       gradientUnits="userSpaceOnUse"
       xlink:href="#b-3" /><linearGradient
       inkscape:collect="always"
       xlink:href="#linearGradient4-3"
       id="linearGradient6"
       x1="123.55708"
       y1="67.624214"
       x2="214.8"
       y2="203.95505"
       gradientUnits="userSpaceOnUse"
       gradientTransform="matrix(0.90811582,0,0,0.90811582,20.618545,3.2824141)" /><linearGradient
       id="linearGradient4-3"
       inkscape:collect="always"><stop
         style="stop-color:#48f700;stop-opacity:1;"
         offset="0"
         id="stop5-06" /><stop
         style="stop-color:#35e700;stop-opacity:1;"
         offset="0.22844911"
         id="stop13-8" /><stop
         style="stop-color:#6eff4b;stop-opacity:1;"
         offset="0.50865483"
         id="stop14-9" /><stop
         style="stop-color:#5cff26;stop-opacity:1;"
         offset="0.75432742"
         id="stop15-2" /><stop
         style="stop-color:#29ff03;stop-opacity:1;"
         offset="1"
         id="stop6-6" /></linearGradient><radialGradient
       id="n-1"
       cx="605.71399"
       cy="486.64801"
       r="117.143"
       fx="605.71399"
       fy="486.64801"
       gradientTransform="matrix(-2.77439,0,0,1.9697,112.762,-872.885)"
       gradientUnits="userSpaceOnUse"
       xlink:href="#a-3" /><radialGradient
       id="m-9"
       cx="605.71399"
       cy="486.64801"
       r="117.143"
       fx="605.71399"
       fy="486.64801"
       gradientTransform="matrix(2.77439,0,0,1.9697,-1891.633,-872.885)"
       gradientUnits="userSpaceOnUse"
       xlink:href="#a-3" /><linearGradient
       id="b-36"><stop
         offset="0"
         stop-opacity="0"
         id="stop3-0" /><stop
         offset=".5"
         id="stop4-6" /><stop
         offset="1"
         stop-opacity="0"
         id="stop5-2" /></linearGradient><linearGradient
       id="l-6"
       x1="302.85699"
       x2="302.85699"
       y1="366.64801"
       y2="609.505"
       gradientTransform="matrix(2.77439,0,0,1.9697,-1892.179,-872.885)"
       gradientUnits="userSpaceOnUse"
       xlink:href="#b-36" /><linearGradient
       id="g-1"><stop
         offset="0"
         stop-color="#c6c6c6"
         id="stop6-8" /><stop
         offset="1"
         stop-color="#c6c6c6"
         stop-opacity="0"
         id="stop7-7" /></linearGradient><linearGradient
       id="f-2"><stop
         offset="0"
         stop-color="#838383"
         id="stop10-3" /><stop
         offset="1"
         id="stop11-7" /></linearGradient><linearGradient
       id="e-5"><stop
         offset="0"
         stop-color="#a0a0a0"
         id="stop12-9" /><stop
         offset="1"
         stop-color="#fff"
         id="stop13-2" /></linearGradient><linearGradient
       id="d-2"><stop
         offset="0"
         stop-color="#fffffd"
         id="stop14-8" /><stop
         offset="1"
         stop-color="#cbcbc9"
         id="stop15-9" /></linearGradient><linearGradient
       id="c-7"><stop
         offset="0"
         stop-color="#9aa29a"
         id="stop16-3" /><stop
         offset="1"
         stop-color="#b5beb5"
         id="stop17-6" /></linearGradient><linearGradient
       id="k-1"><stop
         offset="0"
         stop-color="#fff"
         id="stop18-2" /><stop
         offset="1"
         stop-color="#f8f8f8"
         id="stop19-9" /></linearGradient><linearGradient
       id="j-3"><stop
         offset="0"
         stop-color="#a3a3a3"
         id="stop20" /><stop
         offset="1"
         stop-color="#4c4c4c"
         id="stop21" /></linearGradient><linearGradient
       id="i-1"><stop
         offset="0"
         stop-color="#fafafa"
         id="stop22" /><stop
         offset="1"
         stop-color="#bbb"
         id="stop23" /></linearGradient><linearGradient
       id="s"
       x1="8.9160004"
       x2="9.8859997"
       y1="37.196999"
       y2="52.091"
       gradientTransform="matrix(1.90964,0,0,0.59278,-10.062,-1.766)"
       gradientUnits="userSpaceOnUse"
       xlink:href="#c-7" /><radialGradient
       id="t"
       cx="11.902"
       cy="10.045"
       r="29.292999"
       fx="11.902"
       fy="10.045"
       gradientUnits="userSpaceOnUse"
       xlink:href="#d-2" /><linearGradient
       id="u"
       x1="6.342"
       x2="22.218"
       y1="7.789"
       y2="25.884001"
       gradientUnits="userSpaceOnUse"
       xlink:href="#e-5" /><linearGradient
       id="v"
       x1="13.037"
       x2="19.358999"
       y1="8.3120003"
       y2="17.323"
       gradientUnits="userSpaceOnUse"
       xlink:href="#f-2" /><linearGradient
       id="w"
       x1="13.037"
       x2="19.358999"
       y1="-1.5880001"
       y2="7.4229999"
       gradientUnits="userSpaceOnUse"
       xlink:href="#f-2" /><linearGradient
       id="x"
       x1="17.987"
       x2="24.309"
       y1="3.362"
       y2="12.373"
       gradientUnits="userSpaceOnUse"
       xlink:href="#f-2" /><linearGradient
       id="y"
       x1="8.0880003"
       x2="14.409"
       y1="3.362"
       y2="12.373"
       gradientUnits="userSpaceOnUse"
       xlink:href="#f-2" /><linearGradient
       id="z"
       x1="6.526"
       x2="29.940001"
       y1="1.39"
       y2="37.964001"
       gradientUnits="userSpaceOnUse"
       xlink:href="#g-1" /><radialGradient
       id="r"
       cx="23.75"
       cy="31"
       r="11.5"
       fx="23.75"
       fy="31"
       gradientUnits="userSpaceOnUse"
       xlink:href="#a-3" /><radialGradient
       id="o"
       cx="33.966999"
       cy="35.737"
       r="86.708"
       fx="33.966999"
       fy="35.737"
       gradientTransform="scale(0.9605,1.04113)"
       gradientUnits="userSpaceOnUse"
       xlink:href="#i-1" /><radialGradient
       id="p"
       cx="8.8240004"
       cy="3.756"
       r="37.751999"
       fx="8.8240004"
       fy="3.756"
       gradientTransform="matrix(0.96827,0,0,1.03277,3.354,0.646)"
       gradientUnits="userSpaceOnUse"
       xlink:href="#j-3" /><radialGradient
       id="q"
       cx="8.1440001"
       cy="7.2680001"
       r="38.159"
       fx="8.1440001"
       fy="7.2680001"
       gradientTransform="matrix(0.96827,0,0,1.03277,3.354,0.646)"
       gradientUnits="userSpaceOnUse"
       xlink:href="#k-1" /></defs><g
     id="g26"
     transform="matrix(5.4440162,0,0,5.4440162,-6.0706882,-13.485078)"><g
       opacity="0.4"
       transform="matrix(0.023,0,0,0.023,45.1,37.3)"
       id="g19"><rect
         height="478.39999"
         width="1340"
         y="-150.7"
         x="-1559"
         fill="url(#f)"
         id="rect19"
         style="fill:url(#f)" /><path
         id="c"
         fill="url(#b)"
         d="m -1559,-150.7 v 478.3 c -142.9,0.9 -345.4,-107.2 -345.4,-239.2 0,-132 159.4,-239.1 345.4,-239.1"
         style="fill:url(#b)" /><use
         xlink:href="#c"
         transform="matrix(-1,0,0,1,-1778,0)"
         id="use19" /></g><path
       stroke-linejoin="round"
       d="m 2.9,10.19 v 30.2 h 42.91 l -0.09,-30.2 z"
       stroke="url(#i)"
       stroke-width="1.2"
       fill="url(#g)"
       id="path19"
       style="fill:url(#g);stroke:url(#i)" /><path
       d="M 19.32,25.97 3.77,38.73 19.87,27.56 h 10.47 l 14.42,11 L 30.99,25.95 H 19.28 Z"
       fill="url(#h)"
       id="path20"
       style="fill:url(#h)" /><path
       stroke="#ffffff"
       d="M 4,11.33 4.02,39.08 H 44.58 L 44.5,11.33 Z"
       fill="none"
       id="path21" /><path
       d="M 22.62,30.55 C 19.84,30.03 4.71,14.02 3.19,11.23 3.17,11.2 3.14,11.13 3.13,11.1 h 40.1 c -0.32,2.91 -8.73,19.2 -11.1,19.45 h -9.34 c -0.04,0 -0.09,10e-4 -0.14,0 z"
       fill="url(#e)"
       id="path22"
       style="fill:url(#e)" /><path
       stroke-linejoin="round"
       d="M 19.68,28.3 C 16.9,27.87 4.76,13.84 3.8,11.4 3.799,11.37 3.77,11.32 3.76,11.29 h 41.3 C 44.1,13.84 31.96,28.11 29.45,28.3 Z"
       stroke="url(#j)"
       fill="url(#n)"
       id="path23"
       style="fill:url(#n);stroke:url(#j)" /><path
       fill="url(#m)"
       d="M 19.48,27.64 C 17.03,27.07 4.5,13.11 3.7,11.34 3.635,11.21 3.484,10.86 3.484,10.74 l 41.53,0.33 c -0.01938,0.07564 -0.05464,0.1503 -0.08,0.22 -1.07,2.54 -13.36,16 -15.49,16.34 h -0.07 -9.72 c -0.03,0 -0.1,0.001 -0.15,0"
       id="path24"
       style="fill:url(#m)" /><path
       stroke="url(#l)"
       d="M 44.54,11.24 C 42.81,13.94 31.64,27 29.18,27.22 L 19.8,27.13 C 16.95,26.49 5.7,13.54 4.35,11.24 Z"
       fill="none"
       id="path25"
       style="stroke:url(#l)" /><path
       fill="url(#k)"
       d="M 6.01,37.2 H 8.59 L 20.2,29.22 30.44,27.57 19.88,27.59 Z"
       id="path26"
       style="fill:url(#k)" /></g><metadata
     id="metadata26"><rdf:RDF><cc:Work
         rdf:about=""><dc:source>https://commons.wikimedia.org/wiki/File:Mail-closed.svg</dc:source><cc:license
           rdf:resource="http://creativecommons.org/publicdomain/zero/1.0/" /></cc:Work><cc:License
         rdf:about="http://creativecommons.org/publicdomain/zero/1.0/"><cc:permits
           rdf:resource="http://creativecommons.org/ns#Reproduction" /><cc:permits
           rdf:resource="http://creativecommons.org/ns#Distribution" /><cc:permits
           rdf:resource="http://creativecommons.org/ns#DerivativeWorks" /></cc:License></rdf:RDF></metadata><path
     id="rect2-4"
     style="overflow:visible;fill:url(#linearGradient6);fill-opacity:1;stroke:#97e435;stroke-width:2.72436;stroke-linecap:square;stroke-linejoin:round;stroke-miterlimit:9.6;stroke-dasharray:none;stroke-opacity:1"
     d="m 156.95297,65.371293 v 15.709333 h 45.81906 V 65.371293 Z m 0,26.369059 v 15.709328 h 45.81906 V 91.740352 Z m -0.14011,26.136838 v 31.37065 l -40.95565,0.98085 63.53796,73.87131 65.22114,-74.2456 -42.45226,-0.60656 v -31.37065 z"
     sodipodi:nodetypes="cccccccccccccccccc" /><g
     id="g39"
     transform="matrix(6.2619203,0,0,6.2619203,-76.770242,-74.155192)"><path
       fill="url(#r)"
       fill-rule="evenodd"
       d="m 35.25,31 a 11.5,11.5 0 1 1 -23,0 11.5,11.5 0 1 1 23,0 z"
       color="#000000"
       style="fill:url(#r);marker:none"
       transform="matrix(1.04348,0,0,1.04348,-0.783,-6.348)"
       id="path27" /><path
       fill="url(#s)"
       fill-rule="evenodd"
       d="m 20.794154,11.070839 -8.778956,10.204598 0.769469,0.75997 z"
       color="#000000"
       style="fill:url(#s);marker:none"
       transform="matrix(0.8581,0,0,0.8581,3.406,3.406)"
       id="path28" /><path
       fill="#fefefe"
       fill-rule="evenodd"
       d="M 20.720542,11.015867 12.891707,21.872046 14.010119,22.8595 Z"
       transform="matrix(0.8581,0,0,0.8581,3.406,3.406)"
       id="path29" /><path
       fill="#868686"
       fill-rule="evenodd"
       stroke="#747474"
       stroke-linecap="round"
       stroke-linejoin="round"
       stroke-width="1.59"
       d="m 31.160714,16.910715 a 14.910714,14.910714 0 1 1 -29.8214281,0 14.910714,14.910714 0 1 1 29.8214281,0 z"
       transform="matrix(0.76403,0,0,0.76403,11.584,11.08)"
       id="path30" /><path
       fill="url(#t)"
       fill-rule="evenodd"
       stroke="url(#u)"
       stroke-linecap="round"
       stroke-linejoin="round"
       stroke-width="1.489"
       d="m 31.160714,16.910715 a 14.910714,14.910714 0 1 1 -29.8214281,0 14.910714,14.910714 0 1 1 29.8214281,0 z"
       transform="matrix(0.55596,0,0,0.55596,14.916,14.549)"
       id="path31"
       style="fill:url(#t);stroke:url(#u)" /><g
       stroke="#000000"
       stroke-linecap="round"
       id="g34"><path
         fill="#f3f3f3"
         fill-rule="evenodd"
         stroke-linejoin="round"
         stroke-width="0.87"
         d="m 16.40625,17.28125 a 1.21875,1.21875 0 1 1 -2.4375,0 1.21875,1.21875 0 1 1 2.4375,0 z"
         transform="matrix(-0.14647267,-0.94007754,0.94007754,-0.14647267,9.9409822,40.454029)"
         id="path32" /><path
         fill="none"
         stroke-width="0.806"
         d="M 25.559726,22.971323 23.41133,18.168206"
         transform="matrix(-0.15818531,-1.0152505,1.0152505,-0.15818531,3.5988024,53.917497)"
         id="path33" /><path
         fill="none"
         stroke-width="1.209"
         d="m 23.258264,28.150282 1.993084,-2.875229"
         transform="matrix(-0.15818531,-1.0152505,1.0152505,-0.15818531,3.5988024,53.917497)"
         id="path34" /></g><path
       fill="url(#v)"
       fill-rule="evenodd"
       d="m 17.324117,7.6932044 a 0.6187185,0.6187185 0 1 1 -1.237437,0 0.6187185,0.6187185 0 1 1 1.237437,0 z"
       transform="matrix(1.26743,0,0,1.26743,2.721,7.87)"
       id="path35"
       style="fill:url(#v)" /><path
       fill="url(#w)"
       fill-rule="evenodd"
       d="m 17.324117,7.6932044 a 0.6187185,0.6187185 0 1 1 -1.237437,0 0.6187185,0.6187185 0 1 1 1.237437,0 z"
       transform="matrix(1.26743,0,0,1.26743,2.721,20.418)"
       id="path36"
       style="fill:url(#w)" /><path
       fill="url(#x)"
       fill-rule="evenodd"
       d="m 17.324117,7.6932044 a 0.6187185,0.6187185 0 1 1 -1.237437,0 0.6187185,0.6187185 0 1 1 1.237437,0 z"
       transform="matrix(1.26743,0,0,1.26743,-3.552,14.144)"
       id="path37"
       style="fill:url(#x)" /><path
       fill="url(#y)"
       fill-rule="evenodd"
       d="m 17.324117,7.6932044 a 0.6187185,0.6187185 0 1 1 -1.237437,0 0.6187185,0.6187185 0 1 1 1.237437,0 z"
       transform="matrix(1.26743,0,0,1.26743,8.995,14.144)"
       id="path38"
       style="fill:url(#y)" /><path
       fill="none"
       stroke="url(#z)"
       stroke-linecap="round"
       stroke-linejoin="round"
       stroke-width="1.422"
       d="m 31.160714,16.910715 a 14.910714,14.910714 0 1 1 -29.8214281,0 14.910714,14.910714 0 1 1 29.8214281,0 z"
       transform="matrix(0.70307,0,0,0.70307,12.575,12.11)"
       id="path39"
       style="stroke:url(#z)" /></g></svg>
