<?xml version="1.0" encoding="UTF-8" standalone="no"?>
<!-- Created with Inkscape (http://www.inkscape.org/) -->

<svg
   id="svg57"
   sodipodi:docname="mail-mark-junk.svg"
   height="256"
   sodipodi:version="0.32"
   width="256"
   version="1.1"
   viewBox="0 0 256 256"
   inkscape:version="1.4.2 (ebf0e940d0, 2025-05-08)"
   xmlns:inkscape="http://www.inkscape.org/namespaces/inkscape"
   xmlns:sodipodi="http://sodipodi.sourceforge.net/DTD/sodipodi-0.dtd"
   xmlns:xlink="http://www.w3.org/1999/xlink"
   xmlns="http://www.w3.org/2000/svg"
   xmlns:svg="http://www.w3.org/2000/svg"
   xmlns:rdf="http://www.w3.org/1999/02/22-rdf-syntax-ns#"
   xmlns:cc="http://creativecommons.org/ns#"
   xmlns:dc="http://purl.org/dc/elements/1.1/">
  <defs
     id="defs3">
    <linearGradient
       id="linearGradient4246">
      <stop
         id="stop4248"
         stop-color="#eeeeec"
         offset="0" />
      <stop
         id="stop4250"
         stop-color="#babdb6"
         offset="1" />
    </linearGradient>
    <linearGradient
       id="linearGradient4238">
      <stop
         id="stop4240"
         stop-color="#eeeeec"
         offset="0" />
      <stop
         id="stop4242"
         stop-color="#888a85"
         offset="1" />
    </linearGradient>
    <linearGradient
       id="linearGradient4139"
       y2="36.421001"
       gradientUnits="userSpaceOnUse"
       x2="23.423"
       gradientTransform="matrix(1,0,0,1.0127,0,-0.58228)"
       y1="23.250999"
       x1="24">
      <stop
         id="stop4135"
         stop-color="#c17d11"
         offset="0" />
      <stop
         id="stop4137"
         stop-color="#8f5902"
         offset="1" />
    </linearGradient>
    <linearGradient
       id="linearGradient4244"
       y2="19.688"
       xlink:href="#linearGradient4238"
       gradientUnits="userSpaceOnUse"
       x2="15.345"
       gradientTransform="translate(-3.75,-4.9375)"
       y1="11.688"
       x1="12.25" />
    <linearGradient
       id="linearGradient4252"
       y2="12.188"
       xlink:href="#linearGradient4246"
       gradientUnits="userSpaceOnUse"
       x2="25.938"
       gradientTransform="matrix(0.97618,0,0,1,0.67453,0)"
       y1="8.25"
       x1="21.495001" />
    <linearGradient
       id="linearGradient4256"
       y2="19.688"
       xlink:href="#linearGradient4238"
       gradientUnits="userSpaceOnUse"
       x2="15.345"
       gradientTransform="translate(-2.5323,-4.3764)"
       y1="11.688"
       x1="12.25" />
    <linearGradient
       id="linearGradient4260"
       y2="12.188"
       xlink:href="#linearGradient4246"
       gradientUnits="userSpaceOnUse"
       x2="25.938"
       gradientTransform="matrix(0.96739,0,0,0.99701,1.8035,0.99193)"
       y1="8.25"
       x1="21.495001" />
    <linearGradient
       id="linearGradient4278"
       y2="55.964001"
       gradientUnits="userSpaceOnUse"
       x2="27.833"
       gradientTransform="matrix(1,0,0,1.0103,0,-0.4627)"
       y1="31.156"
       x1="27.07">
      <stop
         id="stop4274"
         stop-color="#fff"
         offset="0" />
      <stop
         id="stop4276"
         stop-color="#fff"
         stop-opacity="0"
         offset="1" />
    </linearGradient>
    <radialGradient
       id="radialGradient4302"
       gradientUnits="userSpaceOnUse"
       cy="45.259998"
       cx="24.263"
       gradientTransform="matrix(1.0202,-8.3639e-7,1.7217e-7,0.073942,-0.48898,41.913)"
       r="22.848">
      <stop
         id="stop4298"
         offset="0" />
      <stop
         id="stop4300"
         stop-opacity="0"
         offset="1" />
    </radialGradient>
    <linearGradient
       id="linearGradient4623"
       y2="33.699001"
       gradientUnits="userSpaceOnUse"
       x2="22.479"
       y1="43.122002"
       x1="21.854">
      <stop
         id="stop4619"
         stop-color="#fff"
         offset="0" />
      <stop
         id="stop4621"
         stop-color="#fff"
         stop-opacity="0"
         offset="1" />
    </linearGradient>
    <linearGradient
       id="linearGradient4635"
       y2="23.033001"
       gradientUnits="userSpaceOnUse"
       x2="6.9991999"
       y1="27.205"
       x1="8.6469002">
      <stop
         id="stop4631"
         stop-color="#fff"
         offset="0" />
      <stop
         id="stop4633"
         stop-color="#fff"
         stop-opacity="0"
         offset="1" />
    </linearGradient>
    <linearGradient
       id="linearGradient4645"
       y2="32.403999"
       gradientUnits="userSpaceOnUse"
       x2="39.52"
       gradientTransform="translate(-0.35355)"
       y1="27.820999"
       x1="39.368">
      <stop
         id="stop4641"
         offset="0" />
      <stop
         id="stop4643"
         stop-opacity="0"
         offset="1" />
    </linearGradient>
  </defs>
  <sodipodi:namedview
     id="base"
     borderopacity="0.18039216"
     stroke="#555753"
     fill="#8f5902"
     showgrid="false"
     showguides="true"
     bordercolor="#666666"
     pagecolor="#ffffff"
     showborder="true"
     inkscape:showpageshadow="2"
     inkscape:pageopacity="0.0"
     inkscape:pagecheckerboard="0"
     inkscape:deskcolor="#d1d1d1"
     inkscape:zoom="3.2526782"
     inkscape:cx="153.25832"
     inkscape:cy="160.63686"
     inkscape:current-layer="svg57" />
  <metadata
     id="metadata4">
    <rdf:RDF>
      <cc:Work
         rdf:about="">
        <dc:format>image/svg+xml</dc:format>
        <dc:type
           rdf:resource="http://purl.org/dc/dcmitype/StillImage" />
        <dc:title>Mail Junk</dc:title>
        <dc:date />
        <dc:creator>
          <cc:Agent>
            <dc:title>Andreas Nilsson</dc:title>
          </cc:Agent>
        </dc:creator>
        <dc:subject>
          <rdf:Bag>
            <rdf:li>junk</rdf:li>
            <rdf:li>spam</rdf:li>
            <rdf:li>mail</rdf:li>
          </rdf:Bag>
        </dc:subject>
        <dc:publisher>
          <cc:Agent>
            <dc:title />
          </cc:Agent>
        </dc:publisher>
        <dc:source>http://tango-project.org</dc:source>
        <dc:description>https://commons.wikimedia.org/wiki/File:Mail-mark-junk.svg</dc:description>
        <dc:contributor>
          <cc:Agent>
            <dc:title>Jakub Steiner</dc:title>
          </cc:Agent>
        </dc:contributor>
        <cc:license
           rdf:resource="http://creativecommons.org/publicdomain/zero/1.0/" />
      </cc:Work>
      <cc:License
         rdf:about="http://creativecommons.org/publicdomain/zero/1.0/">
        <cc:permits
           rdf:resource="http://creativecommons.org/ns#Reproduction" />
        <cc:permits
           rdf:resource="http://creativecommons.org/ns#Distribution" />
        <cc:permits
           rdf:resource="http://creativecommons.org/ns#DerivativeWorks" />
      </cc:License>
    </rdf:RDF>
  </metadata>
  <g
     id="layer1"
     transform="matrix(5.27213,0,0,5.27213,1.0000552,1.2088417)">
    <ellipse
       id="path4284"
       opacity="0.41398"
       transform="matrix(1.0504,0,0,1.8856,-1.4855,-40.843)"
       fill="url(#radialGradient4302)"
       cx="24.262602"
       cy="45.25996"
       rx="22.848389"
       ry="1.8561553"
       style="fill:url(#radialGradient4302)" />
    <path
       id="path1864"
       style="color:#000000"
       d="M 7.7153,8.275 C 6.7304,8.2622 6.6662,8.2242 6.4445,8.9212 6.3933,9.0821 4.3313,15.417 4.2505,15.662 c -0.2749,0.836 0.1138,1.057 1.0677,1.04 0.338,-0.006 37.347,0 37.885,0 0.764,0 0.99,-0.252 0.818,-0.845 -0.07,-0.242 -2.941,-7.0051 -3.018,-7.1256 -0.357,-0.5379 -0.295,-0.5363 -0.917,-0.5439 -0.117,-0.0014 -32.255,0.089 -32.371,0.0875 z"
       fill-rule="evenodd"
       sodipodi:nodetypes="cssssscss"
       display="block"
       fill="#684101" />
    <path
       id="path1888"
       style="color:#000000"
       d="m 40.138,8.1848 c 0.451,0.0039 0.583,-0.0052 0.872,0.5395 0.039,0.0745 2.874,6.7937 2.976,7.0387 0.346,0.947 -0.313,0.928 -1.359,0.955 -0.199,0 -2.549,-0.022 -2.78,-0.022 z"
       fill-rule="evenodd"
       sodipodi:nodetypes="cscccc"
       display="block"
       fill="#c17d11" />
    <path
       id="path4121"
       stroke-linejoin="round"
       d="m 5.5625,7.5 -3.5701,8.732 44.07,0.286 L 41.8754,7.3879 5.5634,7.5 Z"
       fill-rule="evenodd"
       sodipodi:nodetypes="ccccc"
       stroke="#633d01"
       stroke-width="1px"
       fill="#4d3001" />
    <path
       id="path4234"
       d="M 6.9594,18.435 3.2327,7.442 l 12.02,-3.8891 2.829,8.3971 -11.123,6.485 z"
       fill-rule="evenodd"
       sodipodi:nodetypes="ccccc"
       stroke="#555753"
       stroke-width="1px"
       fill="url(#linearGradient4244)"
       style="fill:url(#linearGradient4244)" />
    <path
       id="path4254"
       d="m 7.4271,16.933 -2.9767,-8.9299 12.021,-3.889 2.829,12.959 -11.873,-0.14 z"
       fill-rule="evenodd"
       sodipodi:nodetypes="ccccc"
       stroke="#ffffff"
       stroke-width="1px"
       fill="url(#linearGradient4256)"
       style="fill:url(#linearGradient4256)" />
    <rect
       id="rect4226"
       height="14.342"
       width="12.338"
       stroke="#555753"
       stroke-linecap="round"
       y="2.5141001"
       x="15.488"
       fill="url(#linearGradient4252)"
       style="fill:url(#linearGradient4252)" />
    <rect
       id="rect4258"
       opacity="0.44086"
       height="14.299"
       width="12.227"
       stroke="#ffffff"
       stroke-linecap="round"
       y="3.4985001"
       x="16.483999"
       fill="url(#linearGradient4260)"
       style="fill:url(#linearGradient4260)" />
    <rect
       id="rect4228"
       transform="rotate(-22.293)"
       height="19.18"
       width="12.64"
       stroke="#888a85"
       stroke-linecap="round"
       y="12.847"
       x="17.08"
       fill="#eeeeec" />
    <rect
       id="rect4262"
       transform="rotate(-22.65)"
       height="4.125"
       width="3.625"
       stroke="#3465a4"
       stroke-linecap="round"
       y="15.056"
       x="24.278"
       fill="#729fcf" />
    <rect
       id="rect4232"
       transform="matrix(0.99916,0.040875,-0.040875,0.99916,0,0)"
       height="19.18"
       width="12.64"
       stroke="#888a85"
       stroke-linecap="round"
       y="4.3347998"
       x="31.034"
       fill="#eeeeec" />
    <path
       id="rect4264"
       opacity="0.75269"
       d="m 31.987,5.1564 10.611,-0.0285 0.154,19.147 H 31.808 l 0.179,-19.119 z"
       sodipodi:nodetypes="ccccc"
       transform="matrix(0.99888,0.04721,-0.035388,0.99937,0,0)"
       stroke="#ffffff"
       stroke-linecap="round"
       fill="#eeeeec" />
    <rect
       id="rect4266"
       height="10.188"
       width="14.976"
       stroke="#888a85"
       stroke-linecap="round"
       y="11.5"
       x="18.511999"
       fill="#eeeeec" />
    <rect
       id="rect4268"
       height="10.188"
       width="12.995"
       stroke="#ffffff"
       stroke-linecap="round"
       y="12.5"
       x="19.503"
       fill="none" />
    <path
       id="path4123"
       d="m 2,16.506 0.4642,6.891 1.7856,3.59 L 3.3209,28.272 5,32.709 4.4194,45.303 l 40.019,0.191 -0.938,-12.785 1.843,-7.085 0.657,-8.676 -13.296,0.531 -2.731,0.783 -6.486,-2.05 -21.487,0.294 z"
       fill-rule="evenodd"
       sodipodi:nodetypes="cccccccccccccc"
       stroke="#714601"
       fill="url(#linearGradient4139)"
       style="fill:url(#linearGradient4139)" />
    <path
       id="path4127"
       d="M 4.9375,34.625 10.875,36 15.219,44.938 H 5.063 Z"
       fill-rule="evenodd"
       sodipodi:nodetypes="ccccc"
       fill="#7c4d01" />
    <g
       id="g144"
       fill-rule="evenodd"
       fill-opacity="0.4881"
       transform="matrix(1.42,0,0,1.42,-67.254,-7.4847)"
       fill="#ffffff">
      <path
         id="path41"
         sodipodi:nodetypes="ccccccscc"
         d="m 64.131,25.325 3.797,0.29 1.468,-3.574 -1.737,1.221 c 0,0 -0.745,-1.738 -1.28,-1.878 -0.536,-0.139 -2.82,-0.093 -2.82,-0.093 0.727,0.18 1.291,1.429 1.3,1.443 0.227,0.37 0.861,1.614 0.861,1.614 z" />
      <path
         id="path130"
         style="color:#000000"
         d="M 64.601,22.853 63.344,25.25 60.76,23.621 c 0,0 1.172,-2.211 2.095,-2.211 0.931,0 1.347,0.802 1.746,1.443 z"
         sodipodi:nodetypes="ccczc"
         fill-opacity="0.30952" />
      <path
         id="path139"
         sodipodi:nodetypes="ccccccscc"
         d="m 66.451,28.546 -2.448,2.925 2.336,3.017 0.043,-1.9 c 0,0 1.721,0.162 2.116,-0.225 0.395,-0.388 2.038,-2.342 2.038,-2.342 -0.528,0.531 -1.889,0.374 -1.905,0.374 C 68.197,30.4 66.48,30.36 66.48,30.36 Z" />
      <path
         id="path140"
         style="color:#000000"
         d="m 68.748,30.061 -1.411,-2.31 2.726,-1.379 c 0,0 1.295,2.141 0.821,2.933 -0.479,0.799 -1.381,0.744 -2.136,0.756 z"
         sodipodi:nodetypes="ccczc"
         fill-opacity="0.30952" />
      <path
         id="path142"
         sodipodi:nodetypes="ccccccscc"
         d="m 62.17,28.376 -1.208,-3.183 -3.524,0.249 1.446,1.054 c 0,0 -0.999,1.41 -0.86,1.946 0.139,0.535 0.923,2.754 0.923,2.754 -0.197,-0.722 0.618,-1.823 0.626,-1.838 0.212,-0.378 1.103,-1.846 1.103,-1.846 z" />
      <path
         id="path143"
         style="color:#000000"
         d="m 59.753,29.661 2.706,-0.071 -0.164,3.051 c 0,0 -2.502,0.054 -2.952,-0.752 -0.454,-0.813 0.044,-1.568 0.41,-2.228 z"
         sodipodi:nodetypes="ccczc"
         fill-opacity="0.30952" />
    </g>
    <rect
       id="rect4236"
       transform="matrix(0.99962,0.027429,-0.027429,0.99962,0,0)"
       height="4.125"
       width="3.625"
       stroke="#3465a4"
       stroke-linecap="round"
       y="7.4905"
       x="37.402"
       fill="#729fcf" />
    <path
       id="path4615"
       opacity="0.30769"
       style="color:#000000;fill:url(#linearGradient4623)"
       fill-rule="evenodd"
       sodipodi:nodetypes="ccccccccc"
       fill="url(#linearGradient4623)"
       d="m 5,33 v 12 h 39 l -1,-12 -6.75,2.625 -6.143,-1.807 -7.373,3.119 -8.853,-5.091 z" />
    <path
       id="path4131"
       opacity="0.45699"
       d="m 3.1458,17.505 0.3586,5.543 1.7897,4.062 -0.8865,1.254 1.4836,4.103 -0.5555,11.876 38.289,0.179 -0.897,-12.055 1.753,-6.941 0.469,-7.535 -11.804,0.398 -3.004,1.016 -7.177,-2.107 -19.819,0.207 z"
       sodipodi:nodetypes="cccccccccccccc"
       stroke="url(#linearGradient4278)"
       stroke-width="1px"
       fill="none"
       style="stroke:url(#linearGradient4278)" />
    <path
       id="path4129"
       opacity="0.16484"
       fill-rule="evenodd"
       sodipodi:nodetypes="cccc"
       fill="url(#linearGradient4645)"
       d="M 43.939,25.537 28.231,32.27 42.348,32.404 Z"
       style="fill:url(#linearGradient4645)" />
    <path
       id="path4270"
       opacity="0.24176"
       fill-rule="evenodd"
       sodipodi:nodetypes="cccc"
       fill="url(#linearGradient4635)"
       d="m 2.87,23.033 11.554,2.579 -9.8305,1.593 z"
       style="fill:url(#linearGradient4635)" />
    <path
       id="path4625"
       opacity="0.21978"
       style="color:#000000"
       d="m 23.158,16.534 1.326,12.904 5.745,-10.606 z"
       fill-rule="evenodd"
       fill="#ffffff" />
    <path
       id="path4627"
       opacity="0.076923"
       style="color:#000000"
       d="M 30.229,18.743 24.572,29.35 33.057,17.86 Z"
       fill-rule="evenodd" />
    <path
       id="path4637"
       opacity="0.082418"
       style="color:#000000"
       fill-rule="evenodd"
       sodipodi:nodetypes="cccc"
       d="M 4.6846,27.052 3.7123,28.466 21.7443,24.4 4.6853,27.052 Z" />
    <path
       id="path4647"
       opacity="0.076923"
       style="color:#000000"
       d="m 44.283,25.549 c 0,-0.442 1.06,-6.452 1.06,-6.452 L 26.075,32.974 Z"
       fill-rule="evenodd"
       fill="#ffffff" />
  </g>
</svg>
