<?xml version="1.0" encoding="UTF-8" standalone="no"?>
<svg
   width="256"
   height="256"
   viewBox="-0.122 0.464 256 256"
   overflow="visible"
   enable-background="new -0.122 0.464 116 122"
   xml:space="preserve"
   version="1.1"
   id="svg19"
   sodipodi:docname="applications-graphics.svg"
   inkscape:version="1.3 (0e150ed6c4, 2023-07-21)"
   inkscape:export-filename="../applications-graphics.png"
   inkscape:export-xdpi="96"
   inkscape:export-ydpi="96"
   xmlns:inkscape="http://www.inkscape.org/namespaces/inkscape"
   xmlns:sodipodi="http://sodipodi.sourceforge.net/DTD/sodipodi-0.dtd"
   xmlns="http://www.w3.org/2000/svg"
   xmlns:svg="http://www.w3.org/2000/svg"
   xmlns:rdf="http://www.w3.org/1999/02/22-rdf-syntax-ns#"
   xmlns:cc="http://creativecommons.org/ns#"
   xmlns:a="http://ns.adobe.com/AdobeSVGViewerExtensions/3.0/"><defs
   id="defs19" /><sodipodi:namedview
   id="namedview19"
   pagecolor="#ffffff"
   bordercolor="#000000"
   borderopacity="0.25"
   inkscape:showpageshadow="2"
   inkscape:pageopacity="0.0"
   inkscape:pagecheckerboard="0"
   inkscape:deskcolor="#d1d1d1"
   inkscape:zoom="2.0908916"
   inkscape:cx="215.93659"
   inkscape:cy="279.06755"
   inkscape:current-layer="svg19" />&#10;	<g
   id="Layer_1_2_"
   transform="matrix(2.0698215,0,0,2.0698215,5.2618307,1.5094416)"
   inkscape:label="Layer_Palett">&#10;		<path
   d="m 33.135,99.523 c 4.113,0.581 8.805,-2.869 11.048,-7.875 -0.253,-3.869 -2.381,-6.813 -5.781,-7.29 -3.794,-0.531 -8.05,2.162 -10.668,6.356 -0.461,4.572 1.65,8.283 5.401,8.809 z"
   style="fill:none"
   id="path1" />&#10;		<linearGradient
   id="XMLID_1_"
   gradientUnits="userSpaceOnUse"
   x1="39.293499"
   y1="25.107901"
   x2="34.822201"
   y2="121.414">&#10;			<stop
   offset="0.0056"
   style="stop-color:rgb(255,174,33)"
   id="stop1" />&#10;			<stop
   offset="0.9888"
   style="stop-color:rgb(255,255,189)"
   id="stop2" />&#10;			<a:midPointStop
   offset="0.0056"
   style="stop-color:#FFAE21" />&#10;			<a:midPointStop
   offset="0.5"
   style="stop-color:#FFAE21" />&#10;			<a:midPointStop
   offset="0.9888"
   style="stop-color:#FFFFBD" />&#10;		</linearGradient>&#10;		<path
   d="m 38.403,84.358 c 3.4,0.478 5.528,3.421 5.781,7.29 0.225,-0.502 0.434,-1.014 0.606,-1.545 C 46.68,84.274 44.533,79 40.005,78.365 c -4.528,-0.634 -9.764,3.602 -11.654,9.426 -0.324,0.999 -0.521,1.979 -0.617,2.924 2.619,-4.195 6.874,-6.888 10.669,-6.357 z"
   style="fill:url(#XMLID_1_)"
   id="path2" />&#10;		<linearGradient
   id="XMLID_2_"
   gradientUnits="userSpaceOnUse"
   x1="59.611801"
   y1="26.045401"
   x2="55.1408"
   y2="122.347">&#10;			<stop
   offset="0.0056"
   style="stop-color:rgb(255,174,33)"
   id="stop3" />&#10;			<stop
   offset="0.9888"
   style="stop-color:rgb(255,255,189)"
   id="stop4" />&#10;			<a:midPointStop
   offset="0.0056"
   style="stop-color:#FFAE21" />&#10;			<a:midPointStop
   offset="0.5"
   style="stop-color:#FFAE21" />&#10;			<a:midPointStop
   offset="0.9888"
   style="stop-color:#FFFFBD" />&#10;		</linearGradient>&#10;		<path
   d="m 103.088,9.324 c -1.179,-0.972 -2.41,-1.852 -3.678,-2.669 0.489,0.364 0.978,0.728 1.451,1.118 27.27,22.487 1.999,70.495 -4.051,75.875 -6.049,5.387 -8.4,6.723 -14.999,7.737 -6.602,1.013 -15.747,-6.65 -22.911,-0.315 -7.167,6.333 -6.429,12.68 -9.797,17.595 -2.144,3.126 -6.348,4.377 -10.217,5.137 -8.271,-0.654 -15.881,-3.538 -22.021,-8.848 C -2.867,87.899 -0.096,52.16 23.036,25.399 c 1.145,-1.324 2.325,-2.588 3.522,-3.817 -2.131,2.028 -4.205,4.178 -6.192,6.478 -24.587,28.445 -27.533,66.432 -6.559,84.559 6.526,5.644 14.615,8.709 23.406,9.404 4.113,-0.808 8.581,-2.138 10.86,-5.46 3.58,-5.225 2.796,-11.971 10.413,-18.702 7.615,-6.733 17.336,1.412 24.353,0.336 7.015,-1.078 9.514,-2.499 15.943,-8.225 6.43,-5.718 33.291,-56.746 4.306,-80.648 z"
   style="fill:url(#XMLID_2_)"
   id="path4" />&#10;		<linearGradient
   id="XMLID_3_"
   gradientUnits="userSpaceOnUse"
   x1="5.9110999"
   y1="70.556198"
   x2="109.016"
   y2="40.991299">&#10;			<stop
   offset="0.0056"
   style="stop-color:rgb(255,174,33)"
   id="stop5" />&#10;			<stop
   offset="0.9888"
   style="stop-color:rgb(255,255,189)"
   id="stop6" />&#10;			<a:midPointStop
   offset="0.0056"
   style="stop-color:#FFAE21" />&#10;			<a:midPointStop
   offset="0.5"
   style="stop-color:#FFAE21" />&#10;			<a:midPointStop
   offset="0.9888"
   style="stop-color:#FFFFBD" />&#10;		</linearGradient>&#10;		<path
   d="m 16.865,104.953 c 6.14,5.31 13.75,8.193 22.021,8.848 3.87,-0.76 8.073,-2.011 10.217,-5.137 3.368,-4.915 2.63,-11.262 9.797,-17.595 7.164,-6.335 16.31,1.328 22.911,0.315 6.599,-1.015 8.95,-2.351 14.999,-7.737 6.05,-5.38 31.32,-53.388 4.051,-75.875 C 100.387,7.382 99.899,7.018 99.41,6.654 79.539,-6.165 49.347,-0.104 26.558,21.582 25.36,22.811 24.18,24.075 23.036,25.399 -0.096,52.16 -2.867,87.899 16.865,104.953 Z m 9.15,-10.577 c 0.425,-1.31 1.017,-2.536 1.719,-3.662 0.095,-0.945 0.292,-1.925 0.617,-2.924 1.89,-5.824 7.126,-10.06 11.654,-9.426 4.528,0.636 6.675,5.91 4.785,11.739 -0.172,0.531 -0.381,1.043 -0.606,1.545 0.105,1.606 -0.105,3.369 -0.695,5.187 -2.012,6.192 -7.578,10.692 -12.388,10.013 -4.812,-0.676 -7.098,-6.276 -5.086,-12.472 z"
   style="fill:url(#XMLID_3_)"
   id="path6" />&#10;		<linearGradient
   id="XMLID_4_"
   gradientUnits="userSpaceOnUse"
   x1="10.6279"
   y1="69.8853"
   x2="107.473"
   y2="42.115398">&#10;			<stop
   offset="0.0056"
   style="stop-color:rgb(255,174,33)"
   id="stop7" />&#10;			<stop
   offset="0.9888"
   style="stop-color:rgb(255,255,189)"
   id="stop8" />&#10;			<a:midPointStop
   offset="0.0056"
   style="stop-color:#FFAE21" />&#10;			<a:midPointStop
   offset="0.5"
   style="stop-color:#FFAE21" />&#10;			<a:midPointStop
   offset="0.9888"
   style="stop-color:#FFFFBD" />&#10;		</linearGradient>&#10;		<path
   d="m 16.865,105.06 c 6.14,5.245 13.75,8.094 22.021,8.74 3.87,-0.751 8.073,-1.986 10.217,-5.074 3.368,-4.856 2.63,-11.126 9.797,-17.382 7.164,-6.259 16.31,1.312 22.911,0.312 6.599,-1.003 8.95,-2.322 14.999,-7.645 6.05,-5.314 31.32,-52.742 4.051,-74.957 C 100.387,8.669 99.899,8.309 99.41,7.95 79.539,-4.714 49.347,1.273 26.558,22.697 25.36,23.911 24.18,25.159 23.036,26.468 -0.096,52.905 -2.867,88.212 16.865,105.06 Z m 9.15,-10.448 c 0.425,-1.294 1.017,-2.506 1.719,-3.618 0.095,-0.934 0.292,-1.901 0.617,-2.889 1.89,-5.754 7.126,-9.938 11.654,-9.312 4.527,0.628 6.675,5.838 4.785,11.596 -0.172,0.525 -0.381,1.031 -0.606,1.526 0.105,1.587 -0.105,3.329 -0.695,5.124 -2.012,6.117 -7.578,10.563 -12.388,9.892 -4.812,-0.667 -7.098,-6.199 -5.086,-12.319 z"
   style="fill:url(#XMLID_4_)"
   id="path8" />&#10;		<linearGradient
   id="XMLID_5_"
   gradientUnits="userSpaceOnUse"
   x1="58.077099"
   y1="22.0371"
   x2="58.077099"
   y2="114.324">&#10;			<stop
   offset="0"
   style="stop-color:rgb(116,68,38)"
   id="stop9" />&#10;			<stop
   offset="1"
   style="stop-color:rgb(222,151,43)"
   id="stop10" />&#10;			<a:midPointStop
   offset="0"
   style="stop-color:#744426" />&#10;			<a:midPointStop
   offset="0.5"
   style="stop-color:#744426" />&#10;			<a:midPointStop
   offset="1"
   style="stop-color:#DE972B" />&#10;		</linearGradient>&#10;		<path
   d="m 20.366,28.06 c 24.585,-28.452 61.33,-36.373 82.722,-18.736 28.98,23.902 2.124,74.926 -4.306,80.648 -6.43,5.726 -8.929,7.144 -15.943,8.225 -7.017,1.076 -16.737,-7.072 -24.354,-0.336 -7.615,6.736 -6.833,13.478 -10.414,18.698 -2.279,3.326 -6.745,4.656 -10.857,5.464 -8.792,-0.695 -16.883,-3.761 -23.408,-9.404 C -7.169,94.489 -4.221,56.504 20.366,28.06 m 2.208,2.125 c 23.609,-26.512 58.17,-33.979 77.808,-17.646 26.615,22.146 0.401,69.649 -5.734,74.985 -6.145,5.337 -8.51,6.661 -15.098,7.685 -6.587,1.022 -15.511,-6.525 -22.783,-0.243 -7.269,6.285 -6.681,12.549 -10.14,17.414 -2.204,3.094 -6.411,4.341 -10.277,5.106 -8.214,-0.625 -15.719,-3.454 -21.706,-8.675 C -4.599,92.015 -1.038,56.695 22.574,30.185"
   style="clip-rule:evenodd;fill:url(#XMLID_5_);fill-rule:evenodd"
   id="path10" />&#10;		<linearGradient
   id="XMLID_6_"
   gradientUnits="userSpaceOnUse"
   x1="34.992699"
   y1="22.040001"
   x2="34.992699"
   y2="114.32">&#10;			<stop
   offset="0"
   style="stop-color:rgb(116,68,38)"
   id="stop11" />&#10;			<stop
   offset="1"
   style="stop-color:rgb(222,151,43)"
   id="stop12" />&#10;			<a:midPointStop
   offset="0"
   style="stop-color:#744426" />&#10;			<a:midPointStop
   offset="0.5"
   style="stop-color:#744426" />&#10;			<a:midPointStop
   offset="1"
   style="stop-color:#DE972B" />&#10;		</linearGradient>&#10;		<path
   d="m 38.996,82.518 c 5.611,1.674 8.396,9.057 6.194,16.437 -2.205,7.378 -8.581,12.03 -14.195,10.354 -5.616,-1.676 -8.4,-9.062 -6.2,-16.444 2.204,-7.375 8.58,-12.025 14.201,-10.347 m 0.7,2.693 c 4.109,1.351 5.272,7.268 2.584,13.17 -2.688,5.905 -8.232,9.617 -12.344,8.266 -4.112,-1.35 -5.274,-7.266 -2.59,-13.17 2.692,-5.904 8.236,-9.617 12.35,-8.266"
   style="clip-rule:evenodd;fill:url(#XMLID_6_);fill-rule:evenodd"
   id="path12" />&#10;		<path
   d="m 11.149,55.021 1.081,1.144 1.212,1.052 1.237,1.019 1.135,1.036 0.917,1.035 0.601,1.052 0.259,1.212 -0.033,1.507 -0.23,1.715 -0.291,1.799 -0.199,1.782 0.081,1.723 0.653,1.587 1.528,1.076 1.881,0.046 1.425,-1.046 0.97,-1.495 0.764,-1.682 0.69,-1.711 0.681,-1.517 0.68,-1.056 0.563,-0.432 0.371,-0.008 0.501,0.327 0.659,0.8 0.674,1.068 0.679,1.104 0.812,1.01 1.427,0.561 1.236,-1.167 0.438,-1.564 -0.141,-1.595 -0.441,-1.587 -0.584,-1.563 -0.583,-1.517 -0.458,-1.368 -0.209,-1.11 0.078,-0.712 0.075,-0.107 0.474,0.149 0.8,0.389 0.978,0.465 1.161,0.323 1.333,-0.231 0.959,-1.069 0.607,-1.392 0.522,-1.558 0.438,-1.749 0.3,-1.865 0.118,-1.899 -0.128,-1.873 -0.449,-1.757 -0.889,-1.579 -1.361,-1.082 -1.605,-0.386 -1.618,0.088 -1.579,0.328 -1.508,0.397 -1.381,0.315 -1.148,0.112 -0.816,-0.154 -0.59,-0.43 -0.541,-0.841 -0.474,-1.156 -0.436,-1.289 -0.466,-1.251 -0.698,-1.16 -1.328,-0.659 -1.537,0.646 -1.065,1.338 -0.526,1.624 -0.209,1.757 -0.056,1.81 -0.014,1.778 -0.084,1.62 -0.235,1.326 -0.402,0.882 -0.522,0.45 -0.756,0.19 h -1.048 l -1.209,-0.138 -1.259,-0.122 -1.304,0.081 -1.226,0.721 -0.472,1.524 0.3,1.582 0.81,1.327 M 74.4,15.526 l -0.256,1.649 0.451,1.521 0.849,1.264 1.016,1.089 1.002,0.995 0.845,0.936 0.54,0.841 0.179,0.742 -0.16,0.68 -0.517,0.729 -0.857,0.808 -1.031,0.866 -1.036,0.978 -0.854,1.209 -0.327,1.538 0.527,1.653 1.143,1.562 1.504,1.454 1.782,1.376 1.968,1.243 2.055,1.077 2.061,0.845 1.972,0.572 1.864,0.215 1.637,-0.352 0.932,-1.186 0.146,-1.387 -0.162,-1.327 -0.229,-1.28 -0.123,-1.139 0.087,-0.829 0.318,-0.535 0.666,-0.431 1.053,-0.323 1.322,-0.215 1.471,-0.169 1.504,-0.212 1.469,-0.364 1.353,-0.68 1.024,-1.18 0.372,-1.463 -0.332,-1.33 -0.728,-1.073 -0.883,-0.912 -0.915,-0.828 -0.827,-0.788 -0.604,-0.749 -0.328,-0.701 -0.087,-0.737 0.099,-0.87 0.246,-0.986 0.299,-1.09 0.26,-1.164 0.097,-1.259 -0.233,-1.326 -0.67,-1.251 L 96.379,12.118 95.252,11.086 93.973,10.142 92.555,9.293 91.026,8.601 89.42,8.1 87.751,7.827 86.061,7.831 84.344,8.124 82.6,8.648 l -1.723,0.737 -1.662,0.92 -1.533,1.082 -1.354,1.23 -1.114,1.368 -0.814,1.541 m -25.101,2.063 -1.259,0.696 -1.541,0.621 -1.716,0.605 -1.784,0.621 -1.746,0.708 -1.62,0.862 -1.393,1.127 -1.007,1.5 -0.321,1.698 0.444,1.517 0.901,1.234 1.083,1.032 1.119,0.948 0.997,0.907 0.735,0.875 0.382,0.845 0.066,0.957 -0.215,1.158 -0.417,1.305 -0.503,1.375 -0.445,1.417 -0.236,1.458 0.22,1.487 0.948,1.309 1.434,0.721 1.471,-0.012 1.353,-0.46 1.272,-0.675 1.243,-0.725 1.209,-0.659 1.163,-0.463 1.091,-0.191 1.193,0.145 1.417,0.464 1.566,0.667 1.64,0.717 1.676,0.622 1.705,0.348 1.724,-0.166 1.557,-0.99 0.857,-1.616 -0.136,-1.695 -0.688,-1.533 -0.929,-1.458 -0.962,-1.412 -0.795,-1.359 -0.464,-1.23 -0.029,-1.098 0.417,-1.09 0.846,-1.148 1.16,-1.176 1.326,-1.186 1.329,-1.222 1.186,-1.301 0.862,-1.483 0.244,-1.744 -0.65,-1.587 -1.418,-0.596 -1.441,0.107 -1.404,0.344 -1.359,0.376 -1.206,0.232 -0.851,-0.021 -0.458,-0.248 -0.277,-0.535 -0.075,-0.97 0.15,-1.317 0.261,-1.479 0.222,-1.525 -0.007,-1.521 -0.579,-1.454 -1.437,-0.873 -1.662,-0.029 -1.388,0.622 -1.139,0.986 -1,1.181 -0.94,1.259 -0.949,1.235 -0.978,1.094 -1.045,0.865"
   style="clip-rule:evenodd;opacity:0.2;fill-rule:evenodd"
   id="path13" />&#10;		<g
   id="g19"
   inkscape:label="Colors">&#10;			<path
   d="m 10.339,51.565 c 0.108,-3.209 5.649,0.596 7.58,-2.128 1.935,-2.721 -0.276,-9.881 2.395,-11.928 2.672,-2.046 2.14,5.093 5.021,6.261 2.884,1.172 8.23,-2.909 10.64,0.095 2.405,3 0.789,9.714 -0.599,12.439 -1.392,2.719 -4.961,-2.386 -5.896,0.275 -0.937,2.65 3.488,8.202 1.986,10.833 -1.506,2.627 -2.929,-5.226 -5.809,-4.155 -2.881,1.062 -3.335,10.175 -6.967,8.887 C 15.059,70.86 19,63.966 17.548,60.39 16.094,56.802 10.231,54.772 10.339,51.565 Z"
   style="clip-rule:evenodd;fill:#ff0000;fill-rule:evenodd"
   id="path14" />&#10;			<linearGradient
   id="XMLID_7_"
   gradientUnits="userSpaceOnUse"
   x1="23.812"
   y1="63.070801"
   x2="23.812"
   y2="33.8354">&#10;				<stop
   offset="0.3"
   style="stop-color:rgb(255,0,0)"
   id="stop14" />&#10;				<stop
   offset="0.7"
   style="stop-color:rgb(255,255,255)"
   id="stop15" />&#10;				<a:midPointStop
   offset="0.3"
   style="stop-color:#FF0000" />&#10;				<a:midPointStop
   offset="0.5"
   style="stop-color:#FF0000" />&#10;				<a:midPointStop
   offset="0.7"
   style="stop-color:#FFFFFF" />&#10;			</linearGradient>&#10;			<path
   d="m 12.745,52.038 c 0.089,-2.653 4.673,0.489 6.27,-1.765 1.6,-2.248 -0.228,-8.172 1.981,-9.863 2.21,-1.69 1.771,4.214 4.153,5.18 2.385,0.969 6.808,-2.408 8.801,0.078 1.991,2.482 0.655,8.037 -0.495,10.29 -1.15,2.245 -4.104,-1.981 -4.877,0.224 -0.775,2.196 2.886,6.794 1.646,8.961 -1.248,2.175 -2.424,-4.321 -4.807,-3.434 -2.384,0.878 -2.759,8.413 -5.763,7.35 -3.004,-1.062 0.257,-6.763 -0.945,-9.729 -1.204,-2.958 -6.054,-4.641 -5.964,-7.292 z"
   style="clip-rule:evenodd;fill:url(#XMLID_7_);fill-rule:evenodd"
   id="path15" />&#10;			<path
   d="m 49.131,17.833 c -3.335,2.234 -10.15,2.735 -11.677,6.29 -1.527,3.563 4.595,5.179 5.382,8.411 0.787,3.228 -3.449,7.789 -0.911,9.914 2.538,2.125 5.899,-2.597 9.533,-2.697 3.635,-0.096 9.05,4.934 11.731,2.121 2.677,-2.809 -4.139,-6.96 -3.399,-10.863 0.737,-3.898 7.72,-6.559 7.352,-10.039 -0.368,-3.476 -6.419,1.388 -8.501,-0.779 -2.082,-2.167 2.009,-8.589 -1.278,-9.405 -3.291,-0.811 -4.897,4.815 -8.232,7.047 z"
   style="clip-rule:evenodd;fill:#009700;fill-rule:evenodd"
   id="path16" />&#10;			<linearGradient
   id="XMLID_8_"
   gradientUnits="userSpaceOnUse"
   x1="50.078098"
   y1="43.037102"
   x2="54.515202"
   y2="4.6629">&#10;				<stop
   offset="0.2416"
   style="stop-color:rgb(0,159,0)"
   id="stop16" />&#10;				<stop
   offset="0.78"
   style="stop-color:rgb(255,255,255)"
   id="stop17" />&#10;				<a:midPointStop
   offset="0.2416"
   style="stop-color:#009F00" />&#10;				<a:midPointStop
   offset="0.5"
   style="stop-color:#009F00" />&#10;				<a:midPointStop
   offset="0.78"
   style="stop-color:#FFFFFF" />&#10;			</linearGradient>&#10;			<path
   d="m 49.711,19.42 c -2.782,1.865 -8.465,2.28 -9.736,5.246 -1.272,2.971 3.833,4.317 4.487,7.01 0.657,2.693 -2.875,6.497 -0.76,8.27 2.117,1.774 4.92,-2.167 7.951,-2.245 3.03,-0.083 7.546,4.114 9.779,1.765 2.233,-2.341 -3.449,-5.8 -2.834,-9.057 0.616,-3.252 6.438,-5.469 6.132,-8.369 -0.311,-2.901 -5.355,1.156 -7.089,-0.651 -1.735,-1.806 1.674,-7.163 -1.067,-7.843 -2.742,-0.679 -4.08,4.015 -6.863,5.874 z"
   style="clip-rule:evenodd;fill:url(#XMLID_8_);fill-rule:evenodd"
   id="path17" />&#10;			<path
   d="m 74.637,15.245 c -1.367,3.534 4.632,5.543 4.688,8.708 0.059,3.166 -6.412,4.438 -4.382,7.996 2.03,3.563 9.476,7.772 13.382,7.786 3.902,0.017 -0.295,-5.639 1.896,-7.735 2.194,-2.093 8.271,-0.584 9.688,-3.327 1.42,-2.743 -3.584,-4.396 -4.306,-7.077 -0.721,-2.685 2.167,-5.755 0.153,-8.385 C 93.747,10.584 89.434,7.858 85.399,8.243 81.365,8.632 76,11.715 74.637,15.245 Z"
   style="clip-rule:evenodd;fill:#3d60ff;fill-rule:evenodd"
   id="path18" />&#10;			<linearGradient
   id="XMLID_9_"
   gradientUnits="userSpaceOnUse"
   x1="87.218803"
   y1="30.395"
   x2="87.218803"
   y2="3.5658">&#10;				<stop
   offset="0.25"
   style="stop-color:rgb(63,114,255)"
   id="stop18" />&#10;				<stop
   offset="0.75"
   style="stop-color:rgb(255,255,255)"
   id="stop19" />&#10;				<a:midPointStop
   offset="0.25"
   style="stop-color:#3F72FF" />&#10;				<a:midPointStop
   offset="0.5"
   style="stop-color:#3F72FF" />&#10;				<a:midPointStop
   offset="0.75"
   style="stop-color:#FFFFFF" />&#10;			</linearGradient>&#10;			<path
   d="m 76.058,16.268 c -1.206,3.12 4.09,4.893 4.143,7.693 0.055,2.793 -5.664,3.916 -3.87,7.061 1.795,3.144 8.366,6.861 11.816,6.873 3.447,0.012 -0.26,-4.98 1.679,-6.828 1.936,-1.852 7.306,-0.518 8.555,-2.941 1.252,-2.419 -3.169,-3.878 -3.802,-6.248 -0.639,-2.37 1.91,-5.079 0.135,-7.403 -1.777,-2.325 -5.584,-4.728 -9.15,-4.387 -3.565,0.343 -8.3,3.06 -9.506,6.18 z"
   style="clip-rule:evenodd;fill:url(#XMLID_9_);fill-rule:evenodd"
   id="path19" />&#10;		</g>&#10;	</g>&#10;<metadata
   id="metadata1"><rdf:RDF><cc:License
       rdf:about="http://creativecommons.org/publicdomain/zero/1.0/"><cc:permits
         rdf:resource="http://creativecommons.org/ns#Reproduction" /><cc:permits
         rdf:resource="http://creativecommons.org/ns#Distribution" /><cc:permits
         rdf:resource="http://creativecommons.org/ns#DerivativeWorks" /></cc:License><cc:Work
       rdf:about=""><cc:license
         rdf:resource="http://creativecommons.org/publicdomain/zero/1.0/" /></cc:Work></rdf:RDF></metadata></svg>
