<?xml version="1.0" encoding="UTF-8" standalone="no"?>
<!-- Created with Inkscape (http://www.inkscape.org/) -->

<svg
   width="256mm"
   height="256mm"
   viewBox="0 0 256 256"
   version="1.1"
   id="svg1"
   inkscape:version="1.4.2 (ebf0e940d0, 2025-05-08)"
   sodipodi:docname="panel-fit-width.svg"
   xmlns:inkscape="http://www.inkscape.org/namespaces/inkscape"
   xmlns:sodipodi="http://sodipodi.sourceforge.net/DTD/sodipodi-0.dtd"
   xmlns="http://www.w3.org/2000/svg"
   xmlns:svg="http://www.w3.org/2000/svg"
   xmlns:rdf="http://www.w3.org/1999/02/22-rdf-syntax-ns#"
   xmlns:cc="http://creativecommons.org/ns#"
   xmlns:dc="http://purl.org/dc/elements/1.1/">
  <defs
     id="defs1" />
  <sodipodi:namedview
     id="base"
     pagecolor="#ffffff"
     bordercolor="#000000"
     borderopacity="0.3"
     inkscape:pageopacity="0.0"
     inkscape:pageshadow="2"
     inkscape:zoom="0.49497475"
     inkscape:cx="398.0001"
     inkscape:cy="742.46212"
     inkscape:document-units="mm"
     inkscape:showpageshadow="2"
     inkscape:pagecheckerboard="0"
     inkscape:deskcolor="#d1d1d1"
     inkscape:current-layer="svg1" />
  <metadata
     id="metadata1">
    <rdf:RDF>
      <cc:Work
         rdf:about="">
        <dc:format>image/svg+xml</dc:format>
        <dc:type
           rdf:resource="http://purl.org/dc/dcmitype/StillImage" />
        <cc:license
           rdf:resource="http://creativecommons.org/publicdomain/zero/1.0/" />
      </cc:Work>
      <cc:License
         rdf:about="http://creativecommons.org/publicdomain/zero/1.0/">
        <cc:permits
           rdf:resource="http://creativecommons.org/ns#Reproduction" />
        <cc:permits
           rdf:resource="http://creativecommons.org/ns#Distribution" />
        <cc:permits
           rdf:resource="http://creativecommons.org/ns#DerivativeWorks" />
      </cc:License>
    </rdf:RDF>
  </metadata>
  <path
     id="path4246"
     style="color:#31363b;fill:#729fcf;fill-opacity:1;stroke:#204a87;stroke-width:5.422;stroke-dasharray:none;stroke-opacity:1"
     class="ColorScheme-Text"
     d="M 247.83074,8.6896983 H 235.80837 V 128.90958 249.12947 h 12.02237 z M 235.80837,128.90958 199.74233,92.843545 v 24.044265 h -38.32028 c -4.99539,-13.92558 -18.16743,-24.044265 -33.81179,-24.044265 -15.64448,0 -28.816532,10.118685 -33.811802,24.044265 H 55.478178 V 92.843545 l -36.06603,36.066035 36.06603,36.06604 v -24.04414 h 38.32028 c 4.99527,13.92569 18.167322,24.04414 33.811802,24.04414 15.64436,0 28.8164,-10.11845 33.81179,-24.04414 h 38.32028 v 24.04414 z m -216.396222,0 V 8.6896983 H 7.3903683 V 249.12947 H 19.412148 Z m 132.242372,0 c 0,13.27916 -10.76511,24.04427 -24.04426,24.04427 -13.27916,0 -24.04367,-10.76511 -24.04367,-24.04427 0,-13.27903 10.76451,-24.04414 24.04367,-24.04414 13.27915,0 24.04426,10.76511 24.04426,24.04414 z m -12.02237,0.15052 a 12.022012,12.022012 0 0 0 -12.02189,-12.02238 12.022012,12.022012 0 0 0 -12.02178,12.02238 12.022012,12.022012 0 0 0 12.02178,12.02189 12.022012,12.022012 0 0 0 12.02189,-12.02189 z" />
</svg>
