<?xml version="1.0" encoding="UTF-8" standalone="no"?>
<!-- Created with Inkscape (http://www.inkscape.org/) -->

<svg
   width="256mm"
   height="256mm"
   viewBox="0 0 256 256"
   version="1.1"
   id="svg1"
   inkscape:version="1.3.2 (091e20ef0f, 2023-11-25)"
   xml:space="preserve"
   sodipodi:docname="run-build-configure.svg"
   xmlns:inkscape="http://www.inkscape.org/namespaces/inkscape"
   xmlns:sodipodi="http://sodipodi.sourceforge.net/DTD/sodipodi-0.dtd"
   xmlns:xlink="http://www.w3.org/1999/xlink"
   xmlns="http://www.w3.org/2000/svg"
   xmlns:svg="http://www.w3.org/2000/svg"
   xmlns:rdf="http://www.w3.org/1999/02/22-rdf-syntax-ns#"
   xmlns:cc="http://creativecommons.org/ns#"
   xmlns:dc="http://purl.org/dc/elements/1.1/"><defs
     id="defs1"><linearGradient
       id="linearGradient11"
       inkscape:collect="always"><stop
         style="stop-color:#ffffff;stop-opacity:1;"
         offset="0"
         id="stop11" /><stop
         style="stop-color:#ffffff;stop-opacity:0.56585366;"
         offset="0.31423816"
         id="stop13" /><stop
         style="stop-color:#808080;stop-opacity:0.47512195;"
         offset="0.54472089"
         id="stop14" /><stop
         style="stop-color:#000000;stop-opacity:0.37073171;"
         offset="0.73606765"
         id="stop15" /><stop
         style="stop-color:#000000;stop-opacity:1;"
         offset="1"
         id="stop12" /></linearGradient><linearGradient
       id="linearGradient8"
       inkscape:collect="always"><stop
         style="stop-color:#000000;stop-opacity:0.80991732;"
         offset="0"
         id="stop8" /><stop
         style="stop-color:#000000;stop-opacity:0.48487806;"
         offset="0.62207419"
         id="stop10" /><stop
         style="stop-color:#000000;stop-opacity:0;"
         offset="1"
         id="stop9" /></linearGradient><linearGradient
       id="linearGradient4"
       inkscape:collect="always"><stop
         style="stop-color:#ffffff;stop-opacity:0.95609754;"
         offset="0"
         id="stop5" /><stop
         style="stop-color:#ffffff;stop-opacity:0;"
         offset="1"
         id="stop6" /></linearGradient><linearGradient
       id="linearGradient1"
       inkscape:collect="always"><stop
         style="stop-color:#c8c8c8;stop-opacity:1;"
         offset="0"
         id="stop1" /><stop
         style="stop-color:#b4b4b4;stop-opacity:1;"
         offset="0.5"
         id="stop3" /><stop
         style="stop-color:#c8c8c8;stop-opacity:1;"
         offset="0.75"
         id="stop4" /><stop
         style="stop-color:#c8c8c8;stop-opacity:1;"
         offset="1"
         id="stop2" /></linearGradient><linearGradient
       inkscape:collect="always"
       xlink:href="#linearGradient1"
       id="linearGradient2"
       x1="11.003132"
       y1="3.4102623"
       x2="228.81572"
       y2="246.09099"
       gradientUnits="userSpaceOnUse"
       gradientTransform="translate(-3.0165483,1.6832571)" /><linearGradient
       inkscape:collect="always"
       xlink:href="#linearGradient4"
       id="linearGradient6"
       x1="89.204666"
       y1="53.494164"
       x2="165.66193"
       y2="193.34535"
       gradientUnits="userSpaceOnUse"
       gradientTransform="translate(-3.0165483,1.6832571)" /><radialGradient
       inkscape:collect="always"
       xlink:href="#linearGradient8"
       id="radialGradient9"
       cx="143.56856"
       cy="134.77274"
       fx="143.56856"
       fy="134.77274"
       r="122.35125"
       gradientTransform="matrix(0.99988186,0.01537081,-0.01831113,1.1911515,2.4848014,-27.805747)"
       gradientUnits="userSpaceOnUse" /><radialGradient
       inkscape:collect="always"
       xlink:href="#linearGradient11"
       id="radialGradient12"
       cx="116.35181"
       cy="121.55185"
       fx="116.35181"
       fy="121.55185"
       r="40.758602"
       gradientUnits="userSpaceOnUse"
       gradientTransform="matrix(1.695082,0.02622951,-0.02216813,1.4326152,-83.480784,-58.120299)" /><linearGradient
       id="linearGradient1-7"
       inkscape:collect="always"><stop
         style="stop-color:#898989;stop-opacity:0;"
         offset="0"
         id="stop1-5" /><stop
         style="stop-color:#ffcb35;stop-opacity:0.99496222;"
         offset="0.12848438"
         id="stop3-3" /><stop
         style="stop-color:#a97f0a;stop-opacity:0.93333333;"
         offset="0.18224138"
         id="stop32" /><stop
         style="stop-color:#f4db97;stop-opacity:0.90196079;"
         offset="0.2159535"
         id="stop33" /><stop
         style="stop-color:#cf9e16;stop-opacity:0.88627452;"
         offset="0.26476026"
         id="stop34" /><stop
         style="stop-color:#edca6b;stop-opacity:0.87843138;"
         offset="0.296215"
         id="stop35" /><stop
         style="stop-color:#a67e14;stop-opacity:0.87450981;"
         offset="0.3452234"
         id="stop36" /><stop
         style="stop-color:#e9c155;stop-opacity:0.87058824;"
         offset="0.38682091"
         id="stop37" /><stop
         style="stop-color:#be951b;stop-opacity:0.87058824;"
         offset="0.41622669"
         id="stop38" /><stop
         style="stop-color:#8c6b12;stop-opacity:0.87058824;"
         offset="0.44655591"
         id="stop26" /><stop
         style="stop-color:#b7a25b;stop-opacity:0.80784315;"
         offset="0.48522288"
         id="stop27" /><stop
         style="stop-color:#90721b;stop-opacity:0.7764706;"
         offset="0.51468313"
         id="stop30" /><stop
         style="stop-color:#e2bb59;stop-opacity:1;"
         offset="0.56352752"
         id="stop31" /><stop
         style="stop-color:#deb641;stop-opacity:0.74901961;"
         offset="0.625"
         id="stop7" /><stop
         style="stop-color:#9f7c12;stop-opacity:0.87450981;"
         offset="0.65752053"
         id="stop24" /><stop
         style="stop-color:#f6d571;stop-opacity:0.9372549;"
         offset="0.68724471"
         id="stop25" /><stop
         style="stop-color:#ffe082;stop-opacity:1;"
         offset="0.75"
         id="stop4-5" /><stop
         style="stop-color:#775700;stop-opacity:0.12156863;"
         offset="0.875"
         id="stop5-6" /><stop
         style="stop-color:#ffe088;stop-opacity:0.92569268;"
         offset="0.9375"
         id="stop6-2" /><stop
         style="stop-color:#ffd86d;stop-opacity:0;"
         offset="1"
         id="stop2-9" /></linearGradient><linearGradient
       id="linearGradient28"
       inkscape:collect="always"><stop
         style="stop-color:#6f6f6f;stop-opacity:0.82115871;"
         offset="0"
         id="stop28" /><stop
         style="stop-color:#4c4c4c;stop-opacity:0;"
         offset="1"
         id="stop29" /></linearGradient><linearGradient
       id="linearGradient22"
       inkscape:collect="always"><stop
         style="stop-color:#f1b300;stop-opacity:1;"
         offset="0"
         id="stop22" /><stop
         style="stop-color:#bc8900;stop-opacity:1;"
         offset="1"
         id="stop23" /></linearGradient><linearGradient
       id="linearGradient20"
       inkscape:collect="always"><stop
         style="stop-color:#002ad0;stop-opacity:1;"
         offset="0"
         id="stop20" /><stop
         style="stop-color:#418bde;stop-opacity:0.27078086;"
         offset="1"
         id="stop21" /></linearGradient><linearGradient
       id="linearGradient10"
       inkscape:collect="always"><stop
         style="stop-color:#236cc0;stop-opacity:1;"
         offset="0"
         id="stop10-1" /><stop
         style="stop-color:#74abe6;stop-opacity:1;"
         offset="0.21548443"
         id="stop17" /><stop
         style="stop-color:#3e85da;stop-opacity:1;"
         offset="0.29122409"
         id="stop19" /><stop
         style="stop-color:#1d5ca7;stop-opacity:1;"
         offset="0.55434799"
         id="stop18" /><stop
         style="stop-color:#1b64af;stop-opacity:1;"
         offset="0.75"
         id="stop13-2" /><stop
         style="stop-color:#216ec8;stop-opacity:1;"
         offset="0.81133413"
         id="stop15-7" /><stop
         style="stop-color:#69a4e4;stop-opacity:1;"
         offset="0.89825809"
         id="stop14-0" /><stop
         style="stop-color:#3580db;stop-opacity:1;"
         offset="0.95500863"
         id="stop16" /><stop
         style="stop-color:#418bde;stop-opacity:1;"
         offset="1"
         id="stop11-9" /></linearGradient><linearGradient
       id="linearGradient8-3"
       inkscape:collect="always"><stop
         style="stop-color:#0d2144;stop-opacity:1;"
         offset="0"
         id="stop8-6" /><stop
         style="stop-color:#1c59a5;stop-opacity:1;"
         offset="1"
         id="stop9-0" /></linearGradient><linearGradient
       inkscape:collect="always"
       xlink:href="#linearGradient8-3"
       id="linearGradient9"
       x1="138.04366"
       y1="83.507133"
       x2="120.80974"
       y2="73.599091"
       gradientUnits="userSpaceOnUse"
       gradientTransform="matrix(1.1130351,0,0,1.1587574,-22.372306,-8.9008422)" /><linearGradient
       inkscape:collect="always"
       xlink:href="#linearGradient10"
       id="linearGradient11-6"
       x1="27.499052"
       y1="62.459167"
       x2="152.20523"
       y2="157.39139"
       gradientUnits="userSpaceOnUse"
       gradientTransform="matrix(1.1130351,0,0,1.1587574,-22.372306,-8.9008422)" /><linearGradient
       inkscape:collect="always"
       xlink:href="#linearGradient20"
       id="linearGradient21"
       x1="83.703392"
       y1="102.77332"
       x2="120.85271"
       y2="129.96062"
       gradientUnits="userSpaceOnUse"
       gradientTransform="matrix(1.1130351,0,0,1.1587574,-22.372306,-8.9008422)" /><linearGradient
       inkscape:collect="always"
       xlink:href="#linearGradient22"
       id="linearGradient23"
       x1="-48.796852"
       y1="217.05983"
       x2="79.377518"
       y2="274.76004"
       gradientUnits="userSpaceOnUse"
       gradientTransform="matrix(1.0890024,0.01394014,-0.01374991,0.98406122,-9.0206434,1.1776363)" /><linearGradient
       inkscape:collect="always"
       xlink:href="#linearGradient28"
       id="linearGradient29"
       x1="241.17719"
       y1="295.6442"
       x2="-102.51117"
       y2="31.019186"
       gradientUnits="userSpaceOnUse"
       gradientTransform="matrix(1.034349,0,0,1.0396735,4.8115376,-3.5108666)" /><linearGradient
       inkscape:collect="always"
       xlink:href="#linearGradient1-7"
       id="linearGradient2-2"
       x1="-38.442352"
       y1="145.3672"
       x2="93.664955"
       y2="240.18797"
       gradientUnits="userSpaceOnUse"
       gradientTransform="matrix(0.86982237,0.02666701,-0.02406328,0.77781808,14.580567,32.958156)" /><linearGradient
       id="aigrd12"
       gradientUnits="userSpaceOnUse"
       x1="14.8623"
       y1="44.0112"
       x2="81.775002"
       y2="98.131699"
       gradientTransform="matrix(2.7183993,0,0,2.7183993,1.5343461,-61.866561)"><stop
         offset="0"
         style="stop-color:#FFFFFF"
         id="stop33-8" /><stop
         offset="0.178"
         style="stop-color:#FBFBFC"
         id="stop34-9" /><stop
         offset="0.367"
         style="stop-color:#EEEEF2"
         id="stop35-7" /><stop
         offset="0.5612"
         style="stop-color:#D9D9E1"
         id="stop36-3" /><stop
         offset="0.7589"
         style="stop-color:#BBBBC9"
         id="stop37-6" /><stop
         offset="0.9575"
         style="stop-color:#9595AB"
         id="stop38-1" /><stop
         offset="1"
         style="stop-color:#8C8CA4"
         id="stop39" /></linearGradient><linearGradient
       id="aigrd13"
       gradientUnits="userSpaceOnUse"
       x1="-47.315399"
       y1="-3.0278001"
       x2="93.182404"
       y2="105.7447"
       gradientTransform="matrix(2.7183993,0,0,2.7183993,1.5343461,-61.866561)"><stop
         offset="0"
         style="stop-color:#FFFFFF"
         id="stop40" /><stop
         offset="1"
         style="stop-color:#545477"
         id="stop41" /></linearGradient><radialGradient
       id="aigrd14"
       cx="44.9814"
       cy="99.432098"
       r="63.991199"
       fx="44.9814"
       fy="99.432098"
       gradientUnits="userSpaceOnUse"
       gradientTransform="matrix(2.7183993,0,0,2.7183993,1.5343461,-61.866561)"><stop
         offset="0"
         style="stop-color:#FFFFFF"
         id="stop42" /><stop
         offset="0.2697"
         style="stop-color:#CCF0FF"
         id="stop43" /><stop
         offset="0.8708"
         style="stop-color:#1D6CE9"
         id="stop44" /></radialGradient><linearGradient
       id="aigrd15"
       gradientUnits="userSpaceOnUse"
       x1="-29.7803"
       y1="10.5483"
       x2="84.481102"
       y2="99.008698"
       gradientTransform="matrix(2.7183993,0,0,2.7183993,1.5343461,-61.866561)"><stop
         offset="0"
         style="stop-color:#FFFFFF"
         id="stop45" /><stop
         offset="1"
         style="stop-color:#545477"
         id="stop46" /></linearGradient><radialGradient
       id="aigrd16"
       cx="42.029301"
       cy="34.987801"
       r="77.731102"
       fx="42.029301"
       fy="34.987801"
       gradientUnits="userSpaceOnUse"><stop
         offset="0"
         style="stop-color:#FFFFFF"
         id="stop47" /><stop
         offset="0.3034"
         style="stop-color:#CCF0FF"
         id="stop48" /><stop
         offset="1"
         style="stop-color:#1D6CE9"
         id="stop49" /></radialGradient><radialGradient
       inkscape:collect="always"
       xlink:href="#linearGradient8-2"
       id="radialGradient51"
       cx="168.01198"
       cy="72.712288"
       fx="168.01198"
       fy="72.712288"
       r="45.279049"
       gradientTransform="matrix(-1.8140144,-1.7837101,0.761691,-0.77463183,386.19662,491.82522)"
       gradientUnits="userSpaceOnUse" /><linearGradient
       id="linearGradient8-2"
       inkscape:collect="always"><stop
         style="stop-color:#c1c1c1;stop-opacity:1;"
         offset="0"
         id="stop50" /><stop
         style="stop-color:#9e9e9e;stop-opacity:0.49803922;"
         offset="0.5"
         id="stop53" /><stop
         style="stop-color:#8d8d8d;stop-opacity:0.24705882;"
         offset="0.75"
         id="stop54" /><stop
         style="stop-color:#7c7c7c;stop-opacity:0;"
         offset="1"
         id="stop51" /></linearGradient><linearGradient
       inkscape:collect="always"
       xlink:href="#linearGradient28"
       id="linearGradient73"
       gradientUnits="userSpaceOnUse"
       gradientTransform="matrix(1.034349,0,0,1.0396735,4.8115376,-3.5108666)"
       x1="241.17719"
       y1="295.6442"
       x2="-102.51117"
       y2="31.019186" /><linearGradient
       inkscape:collect="always"
       xlink:href="#linearGradient20"
       id="linearGradient74"
       gradientUnits="userSpaceOnUse"
       gradientTransform="matrix(1.1130351,0,0,1.1587574,-22.372306,-8.9008422)"
       x1="83.703392"
       y1="102.77332"
       x2="120.85271"
       y2="129.96062" /><linearGradient
       inkscape:collect="always"
       xlink:href="#linearGradient8-3"
       id="linearGradient75"
       gradientUnits="userSpaceOnUse"
       gradientTransform="matrix(1.1130351,0,0,1.1587574,-22.372306,-8.9008422)"
       x1="138.04366"
       y1="83.507133"
       x2="120.80974"
       y2="73.599091" /><linearGradient
       inkscape:collect="always"
       xlink:href="#linearGradient10"
       id="linearGradient76"
       gradientUnits="userSpaceOnUse"
       gradientTransform="matrix(1.1130351,0,0,1.1587574,-22.372306,-8.9008422)"
       x1="27.499052"
       y1="62.459167"
       x2="152.20523"
       y2="157.39139" /><linearGradient
       inkscape:collect="always"
       xlink:href="#linearGradient1-7"
       id="linearGradient77"
       gradientUnits="userSpaceOnUse"
       gradientTransform="matrix(0.86982237,0.02666701,-0.02406328,0.77781808,14.580567,32.958156)"
       x1="-38.442352"
       y1="145.3672"
       x2="93.664955"
       y2="240.18797" /><linearGradient
       inkscape:collect="always"
       xlink:href="#linearGradient22"
       id="linearGradient78"
       gradientUnits="userSpaceOnUse"
       gradientTransform="matrix(1.0890024,0.01394014,-0.01374991,0.98406122,-9.0206434,1.1776363)"
       x1="-48.796852"
       y1="217.05983"
       x2="79.377518"
       y2="274.76004" /><linearGradient
       inkscape:collect="always"
       xlink:href="#aigrd12"
       id="linearGradient79"
       gradientUnits="userSpaceOnUse"
       gradientTransform="matrix(2.7183993,0,0,2.7183993,1.5343461,-61.866561)"
       x1="14.8623"
       y1="44.0112"
       x2="81.775002"
       y2="98.131699" /><linearGradient
       inkscape:collect="always"
       xlink:href="#aigrd13"
       id="linearGradient80"
       gradientUnits="userSpaceOnUse"
       gradientTransform="matrix(2.7183993,0,0,2.7183993,1.5343461,-61.866561)"
       x1="-47.315399"
       y1="-3.0278001"
       x2="93.182404"
       y2="105.7447" /><radialGradient
       inkscape:collect="always"
       xlink:href="#aigrd14"
       id="radialGradient80"
       gradientUnits="userSpaceOnUse"
       gradientTransform="matrix(2.7183993,0,0,2.7183993,1.5343461,-61.866561)"
       cx="44.9814"
       cy="99.432098"
       fx="44.9814"
       fy="99.432098"
       r="63.991199" /><linearGradient
       inkscape:collect="always"
       xlink:href="#aigrd15"
       id="linearGradient81"
       gradientUnits="userSpaceOnUse"
       gradientTransform="matrix(2.7183993,0,0,2.7183993,1.5343461,-61.866561)"
       x1="-29.7803"
       y1="10.5483"
       x2="84.481102"
       y2="99.008698" /><radialGradient
       inkscape:collect="always"
       xlink:href="#aigrd16"
       id="radialGradient81"
       gradientUnits="userSpaceOnUse"
       cx="42.029301"
       cy="34.987801"
       fx="42.029301"
       fy="34.987801"
       r="77.731102" /><radialGradient
       inkscape:collect="always"
       xlink:href="#linearGradient8-2"
       id="radialGradient82"
       gradientUnits="userSpaceOnUse"
       gradientTransform="matrix(-1.8140144,-1.7837101,0.761691,-0.77463183,386.19662,491.82522)"
       cx="168.01198"
       cy="72.712288"
       fx="168.01198"
       fy="72.712288"
       r="45.279049" /><linearGradient
       inkscape:collect="always"
       xlink:href="#aigrd12"
       id="linearGradient82"
       gradientUnits="userSpaceOnUse"
       gradientTransform="matrix(2.7183993,0,0,2.7183993,1.5343461,-61.866561)"
       x1="14.8623"
       y1="44.0112"
       x2="81.775002"
       y2="98.131699" /><linearGradient
       inkscape:collect="always"
       xlink:href="#aigrd13"
       id="linearGradient83"
       gradientUnits="userSpaceOnUse"
       gradientTransform="matrix(2.7183993,0,0,2.7183993,1.5343461,-61.866561)"
       x1="-47.315399"
       y1="-3.0278001"
       x2="93.182404"
       y2="105.7447" /><radialGradient
       inkscape:collect="always"
       xlink:href="#aigrd14"
       id="radialGradient83"
       gradientUnits="userSpaceOnUse"
       gradientTransform="matrix(2.7183993,0,0,2.7183993,1.5343461,-61.866561)"
       cx="44.9814"
       cy="99.432098"
       fx="44.9814"
       fy="99.432098"
       r="63.991199" /><linearGradient
       inkscape:collect="always"
       xlink:href="#aigrd15"
       id="linearGradient84"
       gradientUnits="userSpaceOnUse"
       gradientTransform="matrix(2.7183993,0,0,2.7183993,1.5343461,-61.866561)"
       x1="-29.7803"
       y1="10.5483"
       x2="84.481102"
       y2="99.008698" /><radialGradient
       inkscape:collect="always"
       xlink:href="#aigrd16"
       id="radialGradient84"
       gradientUnits="userSpaceOnUse"
       cx="42.029301"
       cy="34.987801"
       fx="42.029301"
       fy="34.987801"
       r="77.731102" /><filter
       id="i"
       x="-0.049028651"
       y="-0.047015318"
       width="1.0980573"
       height="1.0940306"><feGaussianBlur
         stdDeviation="2.351"
         id="feGaussianBlur80" /></filter><linearGradient
       id="j"
       x1="258.884"
       x2="286.16"
       y1="-326.09"
       y2="-287.65302"
       gradientTransform="matrix(0.9065,-0.2414,-0.2421,-0.9089,10.724,214.407)"
       gradientUnits="userSpaceOnUse"><stop
         offset="0"
         stop-color="#555"
         id="stop35-5" /><stop
         offset=".686"
         stop-color="#888"
         id="stop36-9" /></linearGradient><linearGradient
       id="k"
       x1="322.466"
       x2="334.37"
       y1="432.55099"
       y2="437.19699"
       gradientUnits="userSpaceOnUse"><stop
         offset="0"
         stop-color="#fff"
         id="stop37-4" /><stop
         offset=".639"
         stop-color="#888"
         id="stop38-6" /></linearGradient><radialGradient
       id="l"
       cx="172.123"
       cy="4.7480001"
       r="4.697"
       gradientTransform="matrix(6.7917,-1.4855,-1.2014,-5.506,-845.126,725.195)"
       gradientUnits="userSpaceOnUse"><stop
         offset="0"
         stop-color="#fff"
         id="stop39-9" /><stop
         offset="1"
         stop-color="#3e3e3e"
         id="stop40-2" /></radialGradient><linearGradient
       id="m"
       x1="244.759"
       x2="337.59299"
       y1="530.63898"
       y2="387.97198"
       gradientUnits="userSpaceOnUse"><stop
         offset="0"
         stop-color="#ddd"
         id="stop41-2" /><stop
         offset=".686"
         stop-color="#888"
         id="stop42-4" /><stop
         offset=".893"
         stop-color="#ddd"
         id="stop43-77" /></linearGradient><linearGradient
       id="n"
       x1="40.528"
       x2="52.981998"
       y1="55.75"
       y2="64.646004"
       gradientTransform="translate(-80)"
       gradientUnits="userSpaceOnUse"
       xlink:href="#f" /><linearGradient
       id="f"
       x1="40.528"
       x2="52.981998"
       y1="55.75"
       y2="64.646004"
       gradientTransform="translate(-80)"
       gradientUnits="userSpaceOnUse"><stop
         offset="0"
         stop-color="#fff"
         stop-opacity="0"
         id="stop31-5" /><stop
         offset=".893"
         stop-color="#fff"
         id="stop32-48" /></linearGradient><mask
       id="o"
       maskUnits="userSpaceOnUse"><path
         fill="url(#e)"
         d="M -0.051,18.554 -0.847,9.66 10.38,3.193 C 3.985,-0.79 -3.654,1.07 -3.741,1.093 c -7.162,1.903 -12.167,7.772 -12.167,14.129 0,0.239 0.007,0.479 0.021,0.718 v 0.002 c 0,0.357 -0.363,20.788 -3.366,26.896 -1.081,2.198 -11.148,15.342 -22.805,30.562 -12.137,15.847 -27.242,35.568 -28.24,38.04 a 10.605,10.605 0 0 0 -0.781,3.995 c 0,3.786 2.019,7.228 4.596,9.186 0.4,-0.701 0.828,-1.443 1.286,-2.229 -1.823,-1.291 -3.266,-3.318 -3.698,-5.609 a 8.125,8.125 0 0 1 1.264,-6.057 c 1.171,-1.713 2.972,-2.871 5.07,-3.263 1.626,-0.303 3.379,0.13 4.94,1.219 0.193,0.135 0.376,0.284 0.558,0.436 C -46.315,92.233 -27.938,65.35 3.195,23.824 Z"
         id="path34" /></mask><linearGradient
       id="e"
       x1="-64.278999"
       x2="-55.063999"
       y1="125.786"
       y2="108.343"
       gradientUnits="userSpaceOnUse"><stop
         offset="0"
         id="stop33-1" /><stop
         offset=".893"
         stop-color="#fff"
         id="stop34-2" /></linearGradient><radialGradient
       id="p"
       cx="77.003998"
       cy="13.14"
       r="64.405998"
       gradientTransform="matrix(0.4337,0.44428,-0.715,0.69873,282.841,375.71)"
       gradientUnits="userSpaceOnUse"><stop
         offset="0"
         stop-color="#fff"
         id="stop44-8" /><stop
         offset=".5"
         stop-color="#c3c4c2"
         id="stop45-9" /><stop
         offset="1"
         id="stop46-3" /></radialGradient><linearGradient
       id="q"
       x1="77.217003"
       x2="73.448997"
       y1="44.765999"
       y2="30.555"
       gradientUnits="userSpaceOnUse"><stop
         offset=".722"
         stop-color="#ddd"
         id="stop47-6" /><stop
         offset="1"
         stop-color="#eeeeec"
         id="stop48-8" /></linearGradient><radialGradient
       id="r"
       cx="78.776001"
       cy="44.608002"
       r="14.32"
       gradientUnits="userSpaceOnUse"><stop
         offset="0"
         stop-color="#2e3436"
         id="stop49-0" /><stop
         offset=".722"
         id="stop50-2" /><stop
         offset="1"
         stop-color="#2e3436"
         id="stop51-1" /></radialGradient><radialGradient
       id="s"
       cx="92.734001"
       cy="20.431"
       r="4.145"
       gradientTransform="matrix(0.6131,-0.2916,-5.2659,-7.9645,125.01,227.992)"
       gradientUnits="userSpaceOnUse"><stop
         offset="0"
         stop-color="#fff"
         id="stop52-0" /><stop
         offset=".527"
         stop-color="#babdb6"
         id="stop53-5" /><stop
         offset="1"
         stop-color="#888a85"
         id="stop54-1" /></radialGradient><radialGradient
       id="t"
       cx="292.492"
       cy="43.389"
       r="6.8730001"
       gradientTransform="matrix(0.498,-0.2212,-2.9368,-8.3284,56.261,466.268)"
       gradientUnits="userSpaceOnUse"
       xlink:href="#g" /><linearGradient
       id="g"><stop
         offset="0"
         stop-color="#888a85"
         id="stop55-1" /><stop
         offset=".621"
         stop-color="#fff"
         id="stop56-0" /><stop
         offset="1"
         stop-color="#555753"
         id="stop57-8" /></linearGradient><radialGradient
       id="u"
       cx="290.84299"
       cy="36.07"
       r="6.8740001"
       gradientTransform="matrix(0.4892,-0.2059,-2.5913,-7.0931,29.692,361.615)"
       gradientUnits="userSpaceOnUse"
       xlink:href="#g" /><radialGradient
       id="v"
       cx="274.56601"
       cy="36.064999"
       r="6.8730001"
       gradientTransform="matrix(0.523,-0.2146,-2.627,-7.0521,27.423,356.024)"
       gradientUnits="userSpaceOnUse"
       xlink:href="#g" /><linearGradient
       id="w"
       x1="322.86099"
       x2="322.86099"
       y1="445.349"
       y2="431.89099"
       gradientUnits="userSpaceOnUse"><stop
         offset="0"
         stop-color="#555"
         id="stop60-8" /><stop
         offset=".397"
         stop-color="#888"
         id="stop61-6" /><stop
         offset="1"
         stop-color="#555"
         id="stop62-2" /></linearGradient><linearGradient
       id="x"
       x1="246.618"
       x2="297.56201"
       y1="486.659"
       y2="486.659"
       gradientUnits="userSpaceOnUse"><stop
         offset="0"
         stop-color="#888"
         id="stop63-8" /><stop
         offset=".893"
         stop-color="#ddd"
         id="stop64-4" /></linearGradient><linearGradient
       id="y"
       x1="270.54999"
       x2="278.388"
       y1="481.134"
       y2="486.862"
       gradientUnits="userSpaceOnUse"><stop
         offset=".213"
         stop-color="#555753"
         id="stop65-7" /><stop
         offset="1"
         id="stop66-2" /></linearGradient><radialGradient
       id="z"
       cx="294.82599"
       cy="421.905"
       r="19.618"
       gradientUnits="userSpaceOnUse"><stop
         offset="0"
         stop-color="#fff"
         id="stop67-4" /><stop
         offset="1"
         stop-color="#888a85"
         id="stop68-0" /></radialGradient><linearGradient
       id="A"
       x1="248.61501"
       x2="248.61501"
       y1="535.56097"
       y2="520.56799"
       gradientUnits="userSpaceOnUse"
       xlink:href="#h" /><linearGradient
       id="h"><stop
         offset="0"
         id="stop69-6" /><stop
         offset="1"
         stop-opacity="0"
         id="stop70-2" /></linearGradient><linearGradient
       id="B"
       x1="247.347"
       x2="248.714"
       y1="529.19299"
       y2="513.17102"
       gradientUnits="userSpaceOnUse"><stop
         offset="0"
         stop-color="#eee"
         id="stop71-9" /><stop
         offset="1"
         stop-color="#535353"
         id="stop72-9" /></linearGradient><linearGradient
       id="C"
       x1="261.33801"
       x2="262.186"
       y1="486.00601"
       y2="486.634"
       gradientUnits="userSpaceOnUse"
       xlink:href="#h" /><linearGradient
       id="E"
       x1="11.918"
       x2="98.417999"
       y1="119.058"
       y2="44.057999"
       gradientUnits="userSpaceOnUse"><stop
         offset="0"
         stop-color="#c9c9c9"
         id="stop73-3" /><stop
         offset=".023"
         stop-color="#b2b2b2"
         id="stop74-1" /><stop
         offset=".05"
         stop-color="#9f9f9f"
         id="stop75-1" /><stop
         offset=".082"
         stop-color="#929292"
         id="stop76-0" /><stop
         offset=".122"
         stop-color="#8a8a8a"
         id="stop77-3" /><stop
         offset=".201"
         stop-color="#888"
         id="stop78-4" /><stop
         offset="1"
         stop-color="#686868"
         id="stop79-0" /></linearGradient><clipPath
       id="D"><path
         d="m 59.849,42.398 c -2.256,4.589 -49.132,63.861 -51.075,68.668 -4.104,10.152 7.657,22.367 17.215,13.203 6.302,-6.042 40.97,-68.158 46.14,-72.854 3.494,-3.174 22.875,-10.332 22.875,-10.332 L 80.924,18.23 c 0,0 -18.2,18.322 -21.075,24.168 z"
         id="path30" /></clipPath><filter
       id="F"
       x="-0.01207432"
       y="-0.011939753"
       width="1.0241486"
       height="1.0238795"><feGaussianBlur
         stdDeviation=".438"
         id="feGaussianBlur30" /></filter><linearGradient
       id="G"
       x1="247.60201"
       x2="261.97299"
       y1="-288.608"
       y2="-288.608"
       gradientTransform="matrix(0.9428,-0.2511,-0.2421,-0.9089,6.092,215.383)"
       gradientUnits="userSpaceOnUse"><stop
         offset="0"
         stop-color="#888"
         id="stop58-3" /><stop
         offset="1"
         stop-color="#555"
         id="stop59-9" /></linearGradient><linearGradient
       id="H"
       x1="77.040001"
       x2="92.612"
       y1="14.124"
       y2="4.882"
       gradientTransform="translate(229.838,405.962)"
       gradientUnits="userSpaceOnUse"
       xlink:href="#f" /></defs><sodipodi:namedview
     id="base"
     pagecolor="#ffffff"
     bordercolor="#000000"
     borderopacity="0.3"
     inkscape:pageopacity="0.0"
     inkscape:pageshadow="2"
     inkscape:zoom="0.98994949"
     inkscape:cx="505.07627"
     inkscape:cy="476.792"
     inkscape:document-units="mm"
     inkscape:showpageshadow="2"
     inkscape:pagecheckerboard="0"
     inkscape:deskcolor="#d1d1d1"
     inkscape:current-layer="svg1" /><metadata
     id="metadata1"><rdf:RDF><cc:Work
         rdf:about=""><dc:format>image/svg+xml</dc:format><dc:type
           rdf:resource="http://purl.org/dc/dcmitype/StillImage" /><cc:license
           rdf:resource="http://creativecommons.org/publicdomain/zero/1.0/" /></cc:Work><cc:License
         rdf:about="http://creativecommons.org/publicdomain/zero/1.0/"><cc:permits
           rdf:resource="http://creativecommons.org/ns#Reproduction" /><cc:permits
           rdf:resource="http://creativecommons.org/ns#Distribution" /><cc:permits
           rdf:resource="http://creativecommons.org/ns#DerivativeWorks" /></cc:License></rdf:RDF></metadata><g
     id="path1"
     transform="matrix(1.0122604,0,0,1.0122604,-0.04969797,0.00863004)"><path
       style="color:#000000;fill:url(#radialGradient9);stroke-width:1.04046;stroke-linecap:round;stroke-linejoin:round;stroke-miterlimit:2.1;-inkscape-stroke:none;fill-opacity:0.80991733"
       d="m 128.60083,1.9139748 c -5.84012,0.2536911 -16.18889,2.6190244 -16.18889,2.6190244 l -1.13728,41.1110588 c -6.96303,2.362468 -13.692327,5.13854 -20.315718,8.316079 L 55.005622,30.919774 c 0,0 -9.245137,4.028618 -12.779141,7.472482 -3.269926,3.186524 -7.217232,11.641683 -7.217232,11.641683 l 23.693468,34.677513 c -4.038924,5.812106 -6.448608,12.481599 -8.870879,19.072458 l -41.050146,9.31741 c 0,0 -1.0127015,5.64897 -1.3027986,8.501 -0.2956581,2.90671 -0.4902844,5.83253 -0.4438968,8.75386 0.055347,3.48552 0.8609696,10.4224 0.8609696,10.4224 l 39.8172888,5.7202 c 1.758477,8.8406 5.431923,17.02921 9.046718,25.22404 l -21.972606,32.5038 c 2.585864,4.12453 4.533145,7.25943 7.590895,11.04048 l 1.332656,1.5696 c 2.646754,3.55584 7.462476,6.25437 11.16816,8.54267 l 32.189329,-22.49815 c 6.545748,4.87456 14.110613,8.56014 23.793473,9.77475 l 4.73289,37.82684 c 0,0 8.2655,1.08967 14.95542,1.0664 8.99317,-0.0313 14.3655,-0.70331 14.3655,-0.70331 l 4.34844,-37.72357 c 9.19904,-2.24755 16.98088,-5.38379 25.43219,-9.3433 l 34.55002,21.20346 c 0,0 6.5443,-4.88396 9.30643,-7.86036 3.27342,-3.52735 5.44817,-6.59458 8.46698,-11.69307 l -19.4865,-35.37461 c 5.31997,-10.99813 5.5023,-11.44279 8.62967,-23.5556 l 35.1239,-8.07985 0.44386,-11.53477 -0.44391,-8.75391 -1.30281,-8.50102 -35.93964,-5.84549 c -1.63081,-5.357504 -4.08275,-10.329914 -6.51125,-15.350361 l 22.43599,-36.161084 c -2.95773,-4.006402 -5.18077,-8.016374 -8.53156,-11.687969 -3.46195,-3.618936 -8.6298,-6.059635 -12.72357,-8.88156 L 172.91692,53.959963 C 161.86634,48.65856 161.41935,48.478434 149.26406,45.36588 L 144.19985,4.1396791 c 0,0 -9.19724,-2.5037947 -15.59902,-2.2257043 z m 2.04443,89.2572722 c 28.30848,0 37.71242,22.597033 37.71235,37.557513 -7e-5,21.63435 -14.1291,31.23785 -37.71235,37.55697 -16.20535,4.34221 -37.712292,-18.14728 -37.71236,-37.55697 -6.6e-5,-18.85365 8.29155,-37.557513 37.71236,-37.557513 z"
       id="path8"
       inkscape:label="shadow" /><g
       id="g10"><path
         style="color:#000000;fill:url(#linearGradient2);stroke-linecap:round;stroke-linejoin:round;stroke-miterlimit:2.1;-inkscape-stroke:none"
         d="M 121.22269,4.3431899 C 115.60968,4.5870158 105.66333,6.860369 105.66333,6.860369 l -1.09304,39.512385 c -6.692258,2.270599 -13.159873,4.938719 -19.525702,7.992694 L 50.489375,32.221049 c 0,0 -8.885624,3.871958 -12.282201,7.181902 -3.14277,3.06261 -6.936578,11.188975 -6.936578,11.188975 l 22.772106,33.329018 c -3.881863,5.586093 -6.197842,11.996232 -8.525919,18.330786 l -39.4538403,8.95509 c 0,0 -0.9733208,5.42929 -1.252137,8.17042 -0.2841609,2.79367 -0.4712188,5.60572 -0.426635,8.41345 0.053194,3.34998 0.8274893,10.01711 0.8274893,10.01711 l 38.268925,5.49776 c 1.690095,8.49681 5.220693,16.367 8.694921,24.24315 l -21.118164,31.23984 c 2.485308,3.96414 4.356866,6.97713 7.29571,10.61115 l 1.280833,1.50857 c 2.543831,3.41756 7.172285,6.01115 10.733867,8.21047 l 30.937591,-21.62327 c 6.291205,4.685 13.561899,8.22727 22.868207,9.39464 l 4.54884,36.35588 c 0,0 7.94409,1.04729 14.37386,1.02493 8.64346,-0.0301 13.80688,-0.67597 13.80688,-0.67597 l 4.17934,-36.25661 c 8.84131,-2.16016 16.32054,-5.17444 24.44321,-8.97997 l 33.20649,20.37892 c 0,0 6.28981,-4.69404 8.94453,-7.5547 3.14613,-3.39018 5.2363,-6.33813 8.13772,-11.23836 l -18.72873,-33.999 c 5.1131,-10.57046 5.28833,-10.99783 8.29409,-22.6396 l 37.4545,-9.34984 0.42659,-11.08623 -0.42664,-11.58188 -39.49067,-9.03605 c -1.56739,-5.149157 -3.92398,-9.928206 -6.25804,-14.753424 l 21.56353,-34.754899 c -2.84272,-3.850605 -4.97932,-7.704643 -8.1998,-11.233461 -3.32733,-3.478208 -8.29422,-5.823996 -12.22879,-8.536186 L 163.81548,54.36528 C 153.19461,49.270031 152.76501,49.09691 141.0824,46.105393 L 136.21512,6.4823438 c 0,0 -8.83959,-2.4064304 -14.99243,-2.1391539 z m 1.96493,85.7863501 c 27.20765,0 36.2459,21.7183 36.24585,36.09701 -7e-5,20.79307 -13.57967,30.02312 -36.24585,36.09651 -15.57517,4.17335 -36.245769,-17.4416 -36.245835,-36.09651 -6.4e-5,-18.12049 7.969117,-36.09701 36.245835,-36.09701 z"
         id="path6"
         sodipodi:nodetypes="sccccsccccssccccccccccsccccsccccccccccccccssssss" /><path
         id="path4"
         style="fill:url(#linearGradient6);fill-opacity:0.809917;stroke:none;stroke-width:6.68;stroke-linecap:round;stroke-linejoin:round;stroke-miterlimit:2.1;stroke-dasharray:none;stroke-opacity:0.996327"
         d="m 121.22288,4.3430432 c -5.613,0.2438256 -15.55977,2.517159 -15.55977,2.517159 L 104.57015,46.37252 c -6.692248,2.270597 -13.159584,4.938822 -19.525406,7.992794 L 50.48923,32.220929 c 0,0 -8.885364,3.87205 -12.281938,7.18199 -3.142767,3.062607 -6.936527,11.188982 -6.936527,11.188982 l 22.771736,33.329231 c -1.94093,2.793045 -11.259777,21.179058 -11.259777,21.179058 0,0 -27.246041,4.67514 -28.410078,7.84242 23.85825,14.55033 51.910462,22.46887 74.550783,24.8399 -2.05422,-2.55218 -2.421432,-6.60096 -1.981644,-11.55596 1.602014,-18.04951 7.969148,-36.09701 36.245835,-36.09701 27.20763,0 39.53024,22.09846 36.24585,36.09701 -0.56885,2.42453 -0.18685,6.50433 -1.03954,8.33985 23.80433,-5.28038 52.70827,-14.87272 76.06693,-24.60973 -0.78369,-2.57459 -31.0187,-4.77948 -31.0187,-4.77948 0,0 -5.18969,-15.266407 -6.35672,-17.679014 L 218.64898,52.74319 c -2.84272,-3.850601 -4.97902,-7.704608 -8.1995,-11.233422 -3.32733,-3.478205 -8.29466,-5.823726 -12.22923,-8.535913 L 163.81563,54.365314 C 153.19477,49.27007 152.76525,49.096867 141.08265,46.105353 l -4.8674,-39.6229055 c 0,0 -8.83953,-2.4066806 -14.99237,-2.1394043 z"
         sodipodi:nodetypes="sccccscccccsssccccccccccs" /><path
         style="color:#000000;fill:#9a9a9a;fill-opacity:0.996327;stroke-linecap:round;stroke-linejoin:round;stroke-miterlimit:2.1;-inkscape-stroke:none"
         d="m 121.07719,1.0055228 c -6.34138,0.2754656 -16.1582,2.5996093 -16.1582,2.5996093 -1.48422,0.3397055 -2.55089,1.6401175 -2.59375,3.1621095 l -1.03125,37.2695324 c -5.437961,1.929301 -10.74603,4.106252 -15.960929,6.544921 L 52.292046,29.40982 c -0.938383,-0.601433 -2.114918,-0.695204 -3.136719,-0.25 0,0 -2.32155,1.010666 -5.080078,2.451172 -2.758528,1.440506 -5.92454,3.18373 -8.199219,5.400391 -2.147776,2.092995 -3.833368,4.986307 -5.236328,7.511719 -1.40296,2.525411 -2.396484,4.65625 -2.396484,4.65625 -0.4988,1.069421 -0.396343,2.32267 0.269531,3.296875 l 21.55664,31.550781 c -3.079771,4.966979 -5.66378,13.138825 -7.549549,18.263732 l -37.1965445,5.65814 c -1.3082689,0.29682 -2.3120428,1.34751 -2.5488282,2.66796 0,0 -0.9740349,5.34394 -1.2871094,8.42188 -0.2920615,2.87134 -0.49085995,5.81327 -0.4433594,8.80469 0.060246,3.7941 0.8496094,10.34961 0.8496094,10.34961 0.1754599,1.50587 1.3430471,2.70473 2.84375,2.91992 l 36.0566411,5.17968 c 1.766318,7.41668 4.674105,14.24965 7.601562,20.88477 l -20.105468,29.74023 c -0.740245,1.09543 -0.76475,2.52437 -0.0625,3.64454 2.481572,3.95818 4.458828,7.14072 7.529296,10.9375 0.01667,0.021 0.0336,0.0419 0.05078,0.0625 l 1.279297,1.50781 -0.132813,-0.16797 c 3.219208,4.32491 8.198497,6.92218 11.658203,9.05859 1.133838,0.70027 2.575427,0.65959 3.667969,-0.10351 l 29.076172,-20.32227 c 5.579898,3.81667 12.059623,6.77098 19.800773,8.15625 l 4.25,33.96875 c 0.18815,1.50875 1.37145,2.70009 2.8789,2.89844 0,0 8.02026,1.07639 14.82227,1.05273 8.8052,-0.0307 14.20898,-0.70117 14.20898,-0.70117 1.52815,-0.19088 2.72775,-1.40177 2.9043,-2.93164 l 3.93164,-34.10156 c 7.48105,-2.00734 14.22049,-4.6122 21.09375,-7.76953 l 31.73828,19.47656 c 1.16524,0.71484 2.64844,0.64753 3.74414,-0.16992 0,0 6.18972,-4.50556 9.39453,-7.95899 3.3011,-3.55716 5.60396,-6.80857 8.56446,-11.80859 0.60186,-1.0174 0.62118,-2.27713 0.0508,-3.3125 l -17.92383,-32.53906 c 3.78977,-7.88175 5.00377,-11.17668 7.22852,-19.67578 l 38.17857,-8.11632 c 1.47039,-0.33785 2.53179,-1.61938 2.58985,-3.12696 l 0.42578,-11.08593 c 0.004,-0.0989 0.003,-0.198 -0.002,-0.29688 l -0.42579,-8.41406 c -0.006,-0.1125 -0.0177,-0.22462 -0.0351,-0.33594 l -1.25196,-6.32364 c 0,0 -1.3368,-2.55684 -2.76562,-2.78906 l -38.98131,-6.366673 c -1.40736,-4.06179 -3.11956,-7.87296 -4.89649,-11.546875 L 221.48737,54.50357 c 0.72053,-1.161296 0.66096,-2.644375 -0.15039,-3.74414 -2.68519,-3.637218 -4.87904,-7.622049 -8.41993,-11.501953 -0.018,-0.01909 -0.0362,-0.03798 -0.0547,-0.05664 -3.9565,-4.135905 -9.15203,-6.499089 -12.7461,-8.976562 -1.09392,-0.754854 -2.53126,-0.789369 -3.66015,-0.08789 l -32.89844,20.457031 c -7.73712,-3.687529 -11.18106,-4.941188 -19.42969,-7.08789 L 139.53031,6.0758353 c -0.1651,-1.346716 -1.12841,-2.45977 -2.4375,-2.8164063 0,0 -8.85581,-2.56492503 -16.01562,-2.2539062 z m 0.29102,6.6738281 c 4.05214,-0.1760233 9.31126,0.9738508 11.82031,1.5585938 l 4.57812,37.2753913 c 0.1678,1.364545 1.15452,2.48691 2.48633,2.828125 11.67166,2.988714 11.5014,2.942343 22.11719,8.035156 1.02941,0.493636 2.23964,0.427342 3.20898,-0.175781 l 32.625,-20.283203 c 3.7108,2.376366 7.49777,4.480665 9.80469,6.880859 2.41532,2.655109 4.35543,5.74985 6.64844,9.044922 l -20.41016,32.894532 c -0.60274,0.97217 -0.66612,2.185154 -0.16797,3.214844 2.34137,4.840316 4.60491,9.463778 6.06836,14.27148 0.37103,1.21858 1.40281,2.12006 2.66016,2.32421 l 38.48131,6.28465 0.85937,3.75333 0.41016,8.09571 -0.32226,8.38281 -37.60436,7.98546 c -1.21556,0.27921 -2.17432,1.21236 -2.48633,2.41992 -3.00285,11.63049 -2.95565,11.45392 -8.06641,22.01953 -0.47194,0.97469 -0.44209,2.11769 0.0801,3.06641 l 17.77149,32.25976 c -2.2745,3.70795 -4.10928,6.2987 -6.70313,9.09375 -1.56898,1.6907 -4.82333,4.2731 -6.73242,5.76367 l -31.22266,-19.16211 c -0.95767,-0.58762 -2.14661,-0.6544 -3.16406,-0.17773 -8.02296,3.75882 -15.25108,6.66656 -23.81836,8.75977 -1.35803,0.33192 -2.36571,1.47442 -2.52539,2.86328 l -3.86914,33.55664 c -2.17357,0.18495 -5.45253,0.39931 -10.81055,0.41797 -4.41196,0.0153 -8.78361,-0.42862 -11.37695,-0.72071 l -4.2207,-33.73437 c -0.18929,-1.51581 -1.38275,-2.71008 -2.89844,-2.90039 -8.691544,-1.09026 -15.339713,-4.32935 -21.289052,-8.75977 -1.154145,-0.85923 -2.728816,-0.88284 -3.908203,-0.0586 L 50.290113,215.0973 c -3.162098,-1.97152 -6.415042,-4.08574 -7.976563,-6.18359 -0.04246,-0.0574 -0.08676,-0.11341 -0.132812,-0.16797 l -1.246094,-1.4668 c -2.316922,-2.86733 -3.983044,-5.43381 -5.878906,-8.43945 l 19.886718,-29.41992 c 0.643493,-0.95181 0.752671,-2.16752 0.289063,-3.21875 -3.47986,-7.88892 -6.881159,-15.53594 -8.47461,-23.54688 -0.276473,-1.38906 -1.398885,-2.45277 -2.800781,-2.65429 L 8.3194097,134.88051 c -0.219186,-2.0831 -0.561669,-4.99922 -0.595704,-7.14258 -0.04167,-2.62404 0.133897,-5.30745 0.410157,-8.02344 0.177719,-1.74722 0.590827,-4.03155 0.884765,-5.75391 l 36.7102163,-5.54681 c 1.103249,-0.25099 2.004449,-1.0434 2.394532,-2.10547 2.332334,-6.346139 5.109008,-15.366486 8.66283,-20.48052 0.790656,-1.138445 0.796096,-2.646899 0.01367,-3.791016 l -21.65039,-31.6875 c 0.381077,-0.775118 0.550382,-1.178533 1.330078,-2.582032 1.279634,-2.303418 3.063603,-5.003043 4.058593,-5.972656 1.121895,-1.093279 4.097437,-2.940715 6.63086,-4.263672 1.680952,-0.877795 2.268818,-1.118603 3.08789,-1.492187 l 32.986329,21.138672 c 0.974468,0.624227 2.202606,0.6996 3.246093,0.199218 6.254384,-3.000509 12.595893,-5.616616 19.154291,-7.841797 1.32296,-0.448949 2.22679,-1.673789 2.26562,-3.070312 l 1.01953,-36.8554696 c 2.90297,-0.6073196 8.64504,-1.7648603 12.43946,-1.9296875 z m 1.82031,79.1093771 c -14.84614,0 -25.112428,4.897993 -31.31249,12.480468 -6.200062,7.582464 -8.273471,17.407154 -8.273437,26.957024 3.7e-5,10.56107 5.606477,21.21073 13.24414,28.95508 7.637647,7.74434 17.332947,10.51637 27.205067,10.36718 13.19371,-0.19939 21.20649,-6.21403 28.00586,-13.2832 6.1712,-6.41607 10.72248,-14.9001 10.71484,-26.03906 -0.005,-7.88918 -2.40217,-17.55018 -8.6289,-25.5 -6.22673,-7.949811 -16.46256,-13.937492 -30.95508,-13.937492 z m 0,6.68164 c 12.7151,0 20.60103,4.871002 25.69531,11.374992 5.09428,6.504 7.18823,14.89137 7.20898,21.38086 0.0311,9.73171 -3.19897,16.18408 -8.52929,21.09765 -5.68153,5.23732 -12.36516,11.30839 -25.24024,11.77344 -6.24727,0.22565 -14.12926,-1.92391 -20.7207,-8.60742 -6.591425,-6.6835 -11.320271,-16.16985 -11.3203,-24.26367 -3e-5,-8.5706 1.909988,-16.79262 6.763672,-22.72852 4.853668,-5.935886 12.711998,-10.027332 26.142568,-10.027332 z"
         id="path7"
         inkscape:label="frame"
         sodipodi:nodetypes="sccccccsssccccccsscccccccccccccccccccccccsccccccccccccccccccccccccsccccccccccccccccccccccsccccccccccccccccccccccssccccccsssccccccccssssssssssssssssss" /></g></g><circle
     style="display:inline;fill:#21ff04;fill-opacity:1;stroke-width:2.404;stroke-linecap:round;stroke-linejoin:round;stroke-miterlimit:2.1"
     id="path2"
     cx="124.1467"
     cy="126.81939"
     r="40.758602"
     inkscape:label="colorindicator" /><circle
     style="display:inline;fill:url(#radialGradient12);stroke-width:2.404;stroke-linecap:round;stroke-linejoin:round;stroke-miterlimit:2.1"
     id="circle2"
     cx="124.1467"
     cy="126.81939"
     r="40.758602"
     inkscape:label="shadow" /><g
     inkscape:label="Broom History"
     id="layer1"
     transform="matrix(0.49426111,0,0,0.49426111,184.22052,11.910528)"
     style="display:none"><g
       id="g3"
       inkscape:label="Broom"><path
         id="path26"
         style="display:none;fill:url(#linearGradient29);fill-rule:evenodd;stroke:none;stroke-width:3.59128;stroke-miterlimit:1.8"
         d="m 143.03295,43.724899 c -0.0192,9.42e-4 -0.0348,0.0065 -0.054,0.0075 -0.48726,0.02659 -0.94033,0.09408 -1.37158,0.186431 -0.14389,0.03074 -0.27643,0.07176 -0.4137,0.109602 -0.30095,0.0831 -0.5849,0.182193 -0.85254,0.298721 -0.12929,0.05619 -0.25893,0.110274 -0.38006,0.174072 -0.29864,0.157403 -0.57087,0.337579 -0.8178,0.539954 -0.0492,0.04024 -0.10913,0.07085 -0.15609,0.112825 -0.004,0.0037 -0.009,0.0065 -0.0139,0.01018 -1.45447,0.507389 -4.9296,3.832832 -8.30636,7.44221 -2.476,2.607024 -5.01209,5.525617 -6.59804,7.700098 -0.98491,1.350371 -2.89052,3.828821 -5.37293,7.119312 -1.4e-4,1.59e-4 1e-4,3.81e-4 0,5.38e-4 -0.008,0.01039 -0.0206,0.02718 -0.0283,0.0376 -2.46102,3.262368 -5.48613,7.321007 -8.74147,11.866598 -1.66828,2.329493 -3.38896,4.774654 -5.13348,7.319714 -2.3e-4,3.34e-4 -3e-4,7.38e-4 -5.3e-4,9.92e-4 -3.43871,5.01671 -6.938744,10.371965 -10.155241,15.750484 -2.04e-4,3.5e-4 -3.31e-4,7.5e-4 -5.35e-4,9.9e-4 -9.59e-4,0.002 -0.0017,0.003 -0.0028,0.005 -1.607015,2.68732 -3.143628,5.38077 -4.566359,8.04017 -0.199479,0.3729 -7.569894,-1.52695 -16.304836,-3.57441 -4.28838,-1.00528 -8.901848,-2.04491 -13.162957,-2.869 -2.192417,-0.42398 -4.28882,-0.79089 -6.198768,-1.06595 -1.863991,-0.26852 -3.54864,-0.44983 -4.96778,-0.51201 -0.0061,-2.8e-4 -0.01568,-0.002 -0.02193,-0.002 -0.006,-2.7e-4 -0.01097,7.8e-4 -0.01711,5.2e-4 -1.418143,-0.0605 -2.733309,-0.0309 -3.959149,0.0801 -0.0089,7.8e-4 -0.01784,0.002 -0.02673,0.003 -1.226261,0.11238 -2.363175,0.30602 -3.424099,0.57271 -0.0035,8.6e-4 -0.0074,0.001 -0.0107,0.002 -0.0029,7e-4 -0.0052,9.8e-4 -0.0081,0.002 -1.056116,0.26656 -2.036635,0.60615 -2.955866,1.00843 -0.0144,0.006 -0.02893,0.0126 -0.0433,0.0189 -0.911996,0.40197 -1.762994,0.86679 -2.566739,1.3856 -1.652257,1.06646 -3.104394,2.36365 -4.470681,3.81406 -1.330161,1.41225 -2.580548,2.9706 -3.855454,4.60867 -0.0099,0.0128 -0.01998,0.0232 -0.02993,0.0359 -0.136015,0.17483 -0.428486,0.60036 -0.575137,0.79193 -1.332507,1.74972 -3.072443,4.14469 -5.153255,7.09621 -4.166095,5.81957 -8.730081,12.32431 -11.709614,16.63322 -3.7236486,-1.32507 -4.4384158,0.0696 -6.3494992,1.98304 -4.63620993,4.64194 -2.4400566,2.50115 -11.2253432,10.83021 -12.2014786,5.28371 -58.6977826,47.52135 -63.5890726,51.80911 -10.578388,9.27314 -11.61124,24.07132 1.257776,29.55605 43.512716,18.545 95.049702,39.28964 145.68512,60.40218 2.531994,1.05573 21.298835,5.15347 26.608459,-5.75326 7.01786,-14.41567 17.63713,-61.04921 24.51471,-78.5099 5.24773,-5.0016 4.29003,-5.27875 10.22461,-13.13825 5.93458,-7.8595 11.90787,-21.45288 11.90787,-21.45288 2.54774,-4.6782 10.83276,-25.46223 10.54358,-33.7128 -0.28917,-8.25057 -0.55982,-11.80774 -7.54001,-16.41824 -6.9802,-4.6105 -10.21563,-5.0743 -13.39194,-6.54084 -3.17631,-1.46654 -13.54812,-4.14548 -12.56653,-5.95134 0.98159,-1.80586 13.75318,-19.53288 26.07442,-38.066251 0.67875,-1.020958 6.82024,-9.726254 7.28005,-10.483259 1.50663,-1.845922 1.7889,-4.234563 1.5255,-5.278813 -0.26405,-1.048304 -0.81952,-1.94752 -1.3288,-3.379942 -0.74934,-1.265346 -1.57702,-2.573835 -2.59292,-3.807066 -1.7e-4,-1.92e-4 -3.8e-4,-3.47e-4 -5.4e-4,-5.39e-4 -0.008,-0.01062 -0.02,-0.02002 -0.0288,-0.03063 -1.0101,-1.221748 -2.20307,-2.369429 -3.69244,-3.326214 -1.83241,-1.176663 -3.75467,-2.086079 -5.61883,-2.682033 -0.44314,-0.141814 -0.86533,-0.205361 -1.29993,-0.311078 -0.47901,-0.116364 -0.9695,-0.271336 -1.43303,-0.342238 -0.003,-5.13e-4 -0.006,-5.64e-4 -0.009,-9.93e-4 -0.87383,-0.133075 -1.71493,-0.182867 -2.50633,-0.1456 -0.006,3.1e-4 -0.0143,-0.0013 -0.0209,-9.93e-4 z"
         sodipodi:nodetypes="ccccccccccssccsscsccscscsccscscccccccccccscssssczczzzzscccscccccccscc" /><path
         id="path20"
         style="fill:none;fill-rule:evenodd;stroke:url(#linearGradient21);stroke-width:6.68;stroke-miterlimit:1.8;stroke-dasharray:none"
         d="m 129.39627,43.508288 c -1.66283,0.08091 -3.00778,0.561183 -3.92617,1.383837 -2.48725,0.863235 -11.18307,10.164704 -14.40875,14.564722 -3.80876,5.195372 -21.861303,27.749138 -32.873637,48.228903 -0.384001,0.71413 -28.243608,-7.24382 -39.30586,-7.717995 -11.062251,-0.474177 -15.648838,4.687895 -20.6569,11.092255 -5.008062,6.40436 -20.3562111,29.01134 -20.3562111,29.01134 l 110.0688481,46.96285 3.10959,1.86859 c 8.03428,1.36327 15.28038,3.44856 21.29402,-4.28871 6.96623,-10.76974 18.6766,-33.609 19.51862,-41.44846 0.65319,-2.74116 2.07303,-10.12096 -10.92967,-14.18701 -6.65014,-2.31163 -19.72561,-5.98415 -31.25092,-10.91676 4.10318,-6.09529 21.50274,-32.841574 33.41489,-50.667829 0.65621,-0.982 3.37232,-5.574897 3.81688,-6.303016 1.2636,-3.887295 0.0982,-4.591863 -0.88463,-7.341943 -1.44892,-2.434127 -3.19953,-5.035114 -6.10436,-6.89164 -3.54244,-2.263107 -7.43218,-3.499741 -10.52572,-3.349114 z m -2.41115,11.078483 c 0.0142,0.01716 0.0248,0.03433 0.0391,0.0515 -0.0189,0.0222 -0.0481,0.05888 -0.0673,0.08144 0.008,-0.04558 0.0201,-0.08712 0.0282,-0.132933 z"
         sodipodi:nodetypes="scsssscccccccscccsssccss" /><path
         id="path5"
         style="display:inline;fill:url(#linearGradient9);fill-rule:evenodd;stroke:none;stroke-width:1.77584;stroke-miterlimit:1.8"
         d="m 129.39511,43.507689 c -2.19051,0.106583 -3.83119,0.903689 -4.66756,2.267673 -1.33235,2.182088 -0.46023,5.547846 2.29668,8.863504 C 118.21966,64.972227 82.321509,114.372 82.321509,114.372 l 26.503301,4.9788 c 2.92722,-4.25518 21.80658,-33.306665 34.26921,-51.956712 0.65621,-0.982001 3.37182,-5.575582 3.81638,-6.303702 1.2636,-3.887299 0.0998,-4.591422 -0.88296,-7.341505 -1.44891,-2.434131 -3.20119,-5.033753 -6.10601,-6.890282 -3.54246,-2.263109 -7.43276,-3.501537 -10.52632,-3.35091 z"
         sodipodi:nodetypes="cccccscccc" /><path
         id="rect1"
         style="display:inline;fill:url(#linearGradient11-6);fill-rule:evenodd;stroke:none;stroke-width:1.729;stroke-miterlimit:1.8;stroke-dasharray:none"
         d="m 111.06095,59.456233 c -3.80876,5.195378 -21.860324,27.748529 -32.872663,48.228317 -0.384001,0.71413 -28.243468,-7.24319 -39.30573,-7.717365 -11.062262,-0.474177 -15.650361,4.687285 -20.658428,11.091655 -5.008067,6.40435 -20.5254963,28.84227 -20.5254963,28.84227 L 114.30906,192.82887 c 9.14501,5.63525 15.51979,-1.69854 16.24759,-4.48061 7.88283,-10.44012 17.75344,-31.39735 21.1329,-42.62006 1.18301,-4.51037 1.12593,-12.34061 -7.07291,-15.66272 -10.79726,-3.7532 -48.299024,-13.95671 -46.658133,-20.88128 3.770413,-15.911006 12.249203,-25.750356 23.598593,-42.425077 1.47771,-2.171089 3.25394,-4.497515 6.02465,-7.766276 2.77072,-3.268762 4.11934,-10.697005 0.53333,-14.14632 0.55411,-3.705019 -13.07845,9.186644 -17.05412,14.609696 z"
         sodipodi:nodetypes="sszzcccccsszcss" /><path
         id="rect21"
         style="fill:#ffc31b;fill-opacity:1;fill-rule:evenodd;stroke-width:3.46311;stroke-miterlimit:1.8"
         d="M 1.4716514,134.67724 C 40.536601,148.87227 106.19528,166.4272 120.87753,172.02527 c 14.68225,5.59807 10.89164,16.16719 5.72922,21.21934 -5.16243,5.05215 -5.27908,7.71001 -10.35253,12.52074 -6.64923,16.79444 -17.470647,62.56304 -24.255458,76.42863 -5.133313,10.49055 -12.387322,6.49792 -14.83524,5.48248 -48.953997,-20.30693 -110.196876,-47.65961 -152.26469,-65.49697 -12.441681,-5.27545 -12.229244,-16.45922 -2.002126,-25.37851 4.728869,-4.12415 49.680973,-44.75017 61.477285,-49.83228 8.4935612,-8.01126 6.3703166,-5.95208 10.8525742,-10.41688 1.8674365,-1.86016 2.5427233,-3.21991 6.2450862,-1.87458 z"
         sodipodi:nodetypes="szzcsssscss" /><path
         id="path2-6"
         style="mix-blend-mode:normal;fill:url(#linearGradient2-2);fill-opacity:1;fill-rule:evenodd;stroke:none;stroke-width:2.85;stroke-miterlimit:1.8;stroke-dasharray:none"
         d="m 12.619865,137.75181 c 33.637987,12.08288 94.676815,30.38825 107.313075,35.13406 12.63622,4.74583 10.77637,10.9323 7.85603,16.89924 -2.92034,5.96694 -8.16063,5.37289 -9.54782,11.39606 -7.63774,12.16072 -19.118424,66.56293 -23.662039,65.56722 -9.091309,-1.9923 -10.987498,-2.66761 -15.452551,-4.58931 -37.705026,-16.22774 -99.054736,-43.39237 -135.217038,-58.38842 -10.695107,-4.43513 -11.207846,-12.88673 -2.097442,-19.55159 4.212518,-3.08174 35.590703,-32.99933 45.973689,-36.63771 7.5806667,-6.00482 9.5508286,-6.39304 13.5570341,-9.74632 1.6690986,-1.39706 8.0890367,-1.22839 11.2770619,-0.0832 z"
         sodipodi:nodetypes="szzcsssscss"
         transform="translate(-1.0625e-6)" /><path
         style="display:inline;fill:none;fill-opacity:1;fill-rule:evenodd;stroke:url(#linearGradient23);stroke-width:21.7027;stroke-linecap:round;stroke-miterlimit:1.8;stroke-dasharray:none"
         d="M -71.731606,209.52508 80.549365,275.53704"
         id="path21"
         sodipodi:nodetypes="cc" /></g><g
       id="g25"
       inkscape:label="cord"
       transform="rotate(-1.9947305,-85.614905,289.44438)"
       style="display:inline"><path
         style="fill:none;fill-opacity:1;fill-rule:evenodd;stroke:#0090d0;stroke-width:3.052;stroke-linecap:round;stroke-miterlimit:1.8;stroke-dasharray:6.104, 6.104;stroke-dashoffset:5.4936;stroke-opacity:0.806527"
         d="m -10.910204,151.07999 132.242384,51.40478 1.52428,3.69538 -1.5444,3.67024 -1.69325,2.91434 -1.10836,0.59468"
         id="path24" /><path
         style="fill:none;fill-opacity:1;fill-rule:evenodd;stroke:#002ad0;stroke-width:3.052;stroke-linecap:round;stroke-miterlimit:1.8;stroke-dasharray:6.104, 6.104;stroke-dashoffset:0;stroke-opacity:0.717949"
         d="m -9.7969343,148.45352 132.2423943,51.40478 1.52428,3.69538 -1.5444,3.67024 -1.69325,2.91434 -1.10836,0.59468"
         id="path25" /></g><g
       id="g55"
       inkscape:label="Clock Symbolic"
       style="clip-rule:nonzero;display:none;fill:#00009f;fill-rule:nonzero;stroke:#ffffff;stroke-width:0;stroke-miterlimit:4"
       transform="matrix(0.63974865,0,0,0.63974865,7.1457089,132.42231)"><g
         id="g49"
         style="clip-rule:nonzero;display:inline;fill:#00009f;fill-rule:nonzero;stroke:#ffffff;stroke-width:0;stroke-miterlimit:4"
         transform="matrix(2.7183991,0,0,2.7183991,1.5343461,-61.866559)"
         inkscape:label="Frames"><radialGradient
           id="radialGradient3"
           cx="42.029301"
           cy="34.987801"
           r="77.731102"
           fx="42.029301"
           fy="34.987801"
           gradientUnits="userSpaceOnUse"><stop
             offset="0"
             style="stop-color:#FFFFFF"
             id="stop1-3" /><stop
             offset="0.3034"
             style="stop-color:#CCF0FF"
             id="stop2-1" /><stop
             offset="1"
             style="stop-color:#1D6CE9"
             id="stop3-9" /></radialGradient><path
           style="clip-rule:nonzero;display:inline;fill:url(#linearGradient82);fill-rule:nonzero;stroke:none;stroke-width:0;stroke-miterlimit:4"
           d="m 249.21041,127.5243 c 0,66.84544 -54.19129,121.03401 -121.03401,121.03401 C 61.33369,248.55831 7.1424033,194.36974 7.1424033,127.5243 7.1424033,60.678871 61.33369,6.4930226 128.1764,6.4930226 c 66.84272,0 121.03401,54.1885674 121.03401,121.0312774 z"
           id="path39"
           inkscape:label="gray miffle Frame"
           transform="matrix(0.36786356,0,0,0.36786356,-0.56443004,22.758453)" /><path
           style="clip-rule:nonzero;display:inline;fill:url(#linearGradient83);fill-rule:nonzero;stroke:none;stroke-width:0;stroke-miterlimit:4"
           d="m 3.1300464,127.5243 c 0,68.9522 56.0968836,125.04636 125.0463536,125.04636 68.94948,0 125.04636,-56.09416 125.04636,-125.04636 C 253.22276,58.577549 197.12588,2.477947 128.1764,2.477947 59.22693,2.477947 3.1300464,58.577549 3.1300464,127.5243 Z m 8.0247146,0 c 0,-64.523916 52.495004,-117.021638 117.021639,-117.021638 64.52665,0 117.02165,52.497722 117.02165,117.021638 0,64.52664 -52.495,117.02436 -117.02165,117.02436 -64.526635,0 -117.021639,-52.495 -117.021639,-117.02436 z"
           id="path41"
           inkscape:label="gray outher frame"
           transform="matrix(0.36786356,0,0,0.36786356,-0.56443004,22.758453)" /><path
           style="clip-rule:evenodd;display:inline;fill:url(#radialGradient83);fill-rule:evenodd;stroke:none;stroke-width:0;stroke-miterlimit:4"
           d="m 227.81117,127.5243 c 0,55.02584 -44.60893,99.63476 -99.63477,99.63476 -55.02583,0 -99.634758,-44.6062 -99.634758,-99.63476 0,-55.028548 44.608928,-99.634758 99.634758,-99.634758 55.02584,0 99.63477,44.608928 99.63477,99.634758 z"
           id="path44"
           inkscape:label="blue Background"
           transform="matrix(0.36786356,0,0,0.36786356,-0.56443004,22.758453)" /><path
           style="clip-rule:nonzero;display:inline;fill:url(#linearGradient84);fill-rule:nonzero;stroke:none;stroke-width:0;stroke-miterlimit:4"
           d="m 25.866736,127.5243 c 0,56.41765 45.894732,102.31239 102.309664,102.31239 56.41494,0 102.30968,-45.89474 102.30968,-102.31239 0,-56.412213 -45.89474,-102.309663 -102.30968,-102.309663 -56.414932,0 -102.309664,45.89745 -102.309664,102.309663 z m 5.347092,0 c 0,-53.46275 43.499821,-96.959853 96.962572,-96.959853 53.46275,0 96.96258,43.497103 96.96258,96.959853 0,53.46548 -43.49983,96.96258 -96.96258,96.96258 -53.462751,0 -96.962572,-43.4971 -96.962572,-96.96258 z"
           id="path46"
           inkscape:label="Gray inner frame"
           transform="matrix(0.36786356,0,0,0.36786356,-0.56443004,22.758453)" /><path
           style="clip-rule:nonzero;display:inline;fill:url(#radialGradient84);fill-rule:nonzero;stroke:none;stroke-width:0;stroke-miterlimit:4"
           d="m 46.537,35.177 c -18.313,0 -33.158,14.847 -33.158,33.159 0,2.695 0.329,5.313 0.936,7.82 C 24.76,70.691 34.223,64.552 46.35,67.877 59.097,71.371 70.504,66.404 78.762,60.52 75.246,45.98 62.158,35.177 46.537,35.177 Z"
           id="path49"
           inkscape:label="white light" /></g><g
         id="g5"
         inkscape:label="Clock Hands 2 Resent-History"
         style="clip-rule:nonzero;display:inline;fill:#00009f;fill-rule:nonzero;stroke:#ffffff;stroke-width:0;stroke-miterlimit:4"><path
           id="path5-4"
           style="fill:#a0a0a0;fill-opacity:0.660839;fill-rule:evenodd;stroke:url(#radialGradient51);stroke-width:5.41249;stroke-linecap:round;stroke-miterlimit:1.8;stroke-dashoffset:20.7632"
           inkscape:label="Middle Elipse Shadow"
           d="m 124.23486,78.900879 v 38.667481 a 16.363934,16.635761 0 0 0 -7.83398,14.16943 16.363934,16.635761 0 0 0 16.36377,16.63623 16.363934,16.635761 0 0 0 15.03515,-10.13232 h 59.15918 v -13.13818 h -59.19287 a 16.363934,16.635761 0 0 0 -8.69677,-8.71582 V 78.900879 Z" /><path
           id="path8-1"
           style="fill:#000000;fill-opacity:1;fill-rule:evenodd;stroke:none;stroke-width:5.41249;stroke-linecap:round;stroke-miterlimit:1.8;stroke-dashoffset:20.7632;stroke-opacity:0.717949"
           inkscape:label="Middle Elipse"
           d="m 119.73486,72.900879 v 38.667481 a 16.363934,16.635761 0 0 0 -7.83398,14.16943 16.363934,16.635761 0 0 0 16.36377,16.63623 16.363934,16.635761 0 0 0 15.03515,-10.13232 h 59.15918 v -13.13818 h -59.19287 a 16.363934,16.635761 0 0 0 -8.69677,-8.71582 V 72.900879 Z" /><path
           style="clip-rule:nonzero;display:inline;opacity:0.94198;fill:#f47f0b;fill-opacity:0.382284;fill-rule:evenodd;stroke:#d04040;stroke-width:3.7369;stroke-linejoin:round;stroke-miterlimit:4;stroke-opacity:0.13986;paint-order:stroke fill markers"
           id="path32-6"
           sodipodi:type="arc"
           sodipodi:cx="127.7393"
           sodipodi:cy="127.23903"
           sodipodi:rx="98.236244"
           sodipodi:ry="96.75634"
           sodipodi:start="4.712389"
           sodipodi:end="0"
           sodipodi:arc-type="slice"
           d="m 127.7393,30.482689 a 98.236244,96.75634 0 0 1 98.23625,96.756341 H 127.7393 Z"
           inkscape:label="resent-history" /></g><g
         id="g8"
         inkscape:label="Clock Hands 2 moveable"
         style="clip-rule:nonzero;display:inline;fill:#00009f;fill-rule:nonzero;stroke:#ffffff;stroke-width:0;stroke-miterlimit:4"><ellipse
           style="fill:#000000;fill-opacity:1;fill-rule:evenodd;stroke:none;stroke-width:5.41249;stroke-linecap:round;stroke-miterlimit:1.8;stroke-dashoffset:20.7632;stroke-opacity:0.717949"
           id="ellipse6"
           cx="128.26489"
           cy="125.7384"
           rx="16.363934"
           ry="16.635761"
           inkscape:label="Middle Elipse" /><rect
           style="clip-rule:nonzero;fill:#000000;fill-opacity:1;fill-rule:evenodd;stroke:none;stroke-width:4.9011;stroke-linecap:round;stroke-miterlimit:1.8;stroke-dashoffset:20.7632;stroke-opacity:0.717949"
           id="rect7"
           width="74.172188"
           height="13.139072"
           x="128.28683"
           y="119.10302"
           inkscape:label="Long hand" /><rect
           style="clip-rule:nonzero;fill:#000000;fill-opacity:1;fill-rule:evenodd;stroke:none;stroke-width:4.40477;stroke-linecap:round;stroke-miterlimit:1.8;stroke-dashoffset:20.7632;stroke-opacity:0.717949"
           id="rect8"
           width="14.834437"
           height="52.344364"
           x="119.73511"
           y="72.90065"
           inkscape:label="short hand" /></g><g
         id="g3-7"
         inkscape:label="inner Fragments"
         style="display:inline"><path
           style="clip-rule:nonzero;display:inline;fill:#ffffff;fill-rule:nonzero;stroke:none;stroke-width:0;stroke-miterlimit:4"
           d="m 46.625,71.354 c -1.275,0 -2.311,-1.033 -2.311,-2.31 0,-1.277 1.035,-2.311 2.311,-2.311 1.276,0 2.311,1.034 2.311,2.311 0,1.277 -1.033,2.31 -2.311,2.31 z"
           id="path52"
           transform="matrix(2.7183991,0,0,2.7183991,1.5343461,-61.866559)"
           inkscape:label="Middle Point" /><path
           style="display:inline;opacity:0.15;stroke:none;stroke-width:0"
           d="m 142.15714,43.468687 c 23.27763,0 44.66329,8.250341 61.39504,21.975538 -17.79465,-21.692825 -44.7965,-35.567533 -74.98704,-35.567533 -53.462759,0 -96.959863,43.499822 -96.959863,96.962578 0,30.1851 13.871989,57.18968 35.567533,74.98704 -13.725197,-16.73175 -21.975538,-38.11468 -21.975538,-61.39504 0,-53.462764 43.497104,-96.962583 96.959868,-96.962583 z"
           id="path53"
           inkscape:label="shadow" /><path
           style="display:inline;opacity:0.5;stroke:none;stroke-width:0"
           d="M 54.717107,132.36362 H 42.038492 v -12.67591 h 12.678615 z"
           id="path57"
           inkscape:label="point left" /><path
           style="opacity:0.5;stroke:none;stroke-width:0"
           d="M 134.513,215.86412 H 121.83981 V 203.18551 H 134.513 Z"
           id="path54"
           inkscape:label="point bottom" /><path
           style="opacity:0.5;stroke:none;stroke-width:0"
           d="M 134.513,53.146188 H 121.83981 V 40.467574 H 134.513 Z"
           id="path55"
           inkscape:label="point top" /><path
           style="opacity:0.5;stroke:none;stroke-width:0"
           d="m 215.65177,132.36362 h -12.67861 v -12.67591 h 12.67861 z"
           id="path56"
           inkscape:label="point right" /></g></g></g><g
     inkscape:label="Broom History"
     id="g73"
     transform="matrix(0.49426111,0,0,0.49426111,175.6679,-19.092738)"
     style="display:none"><g
       id="g23"
       inkscape:label="Broom"><path
         id="path15"
         style="display:none;fill:url(#linearGradient73);fill-rule:evenodd;stroke:none;stroke-width:3.59128;stroke-miterlimit:1.8"
         d="m 143.03295,43.724899 c -0.0192,9.42e-4 -0.0348,0.0065 -0.054,0.0075 -0.48726,0.02659 -0.94033,0.09408 -1.37158,0.186431 -0.14389,0.03074 -0.27643,0.07176 -0.4137,0.109602 -0.30095,0.0831 -0.5849,0.182193 -0.85254,0.298721 -0.12929,0.05619 -0.25893,0.110274 -0.38006,0.174072 -0.29864,0.157403 -0.57087,0.337579 -0.8178,0.539954 -0.0492,0.04024 -0.10913,0.07085 -0.15609,0.112825 -0.004,0.0037 -0.009,0.0065 -0.0139,0.01018 -1.45447,0.507389 -4.9296,3.832832 -8.30636,7.44221 -2.476,2.607024 -5.01209,5.525617 -6.59804,7.700098 -0.98491,1.350371 -2.89052,3.828821 -5.37293,7.119312 -1.4e-4,1.59e-4 1e-4,3.81e-4 0,5.38e-4 -0.008,0.01039 -0.0206,0.02718 -0.0283,0.0376 -2.46102,3.262368 -5.48613,7.321007 -8.74147,11.866598 -1.66828,2.329493 -3.38896,4.774654 -5.13348,7.319714 -2.3e-4,3.34e-4 -3e-4,7.38e-4 -5.3e-4,9.92e-4 -3.43871,5.01671 -6.938744,10.371965 -10.155241,15.750484 -2.04e-4,3.5e-4 -3.31e-4,7.5e-4 -5.35e-4,9.9e-4 -9.59e-4,0.002 -0.0017,0.003 -0.0028,0.005 -1.607015,2.68732 -3.143628,5.38077 -4.566359,8.04017 -0.199479,0.3729 -7.569894,-1.52695 -16.304836,-3.57441 -4.28838,-1.00528 -8.901848,-2.04491 -13.162957,-2.869 -2.192417,-0.42398 -4.28882,-0.79089 -6.198768,-1.06595 -1.863991,-0.26852 -3.54864,-0.44983 -4.96778,-0.51201 -0.0061,-2.8e-4 -0.01568,-0.002 -0.02193,-0.002 -0.006,-2.7e-4 -0.01097,7.8e-4 -0.01711,5.2e-4 -1.418143,-0.0605 -2.733309,-0.0309 -3.959149,0.0801 -0.0089,7.8e-4 -0.01784,0.002 -0.02673,0.003 -1.226261,0.11238 -2.363175,0.30602 -3.424099,0.57271 -0.0035,8.6e-4 -0.0074,0.001 -0.0107,0.002 -0.0029,7e-4 -0.0052,9.8e-4 -0.0081,0.002 -1.056116,0.26656 -2.036635,0.60615 -2.955866,1.00843 -0.0144,0.006 -0.02893,0.0126 -0.0433,0.0189 -0.911996,0.40197 -1.762994,0.86679 -2.566739,1.3856 -1.652257,1.06646 -3.104394,2.36365 -4.470681,3.81406 -1.330161,1.41225 -2.580548,2.9706 -3.855454,4.60867 -0.0099,0.0128 -0.01998,0.0232 -0.02993,0.0359 -0.136015,0.17483 -0.428486,0.60036 -0.575137,0.79193 -1.332507,1.74972 -3.072443,4.14469 -5.153255,7.09621 -4.166095,5.81957 -8.730081,12.32431 -11.709614,16.63322 -3.7236486,-1.32507 -4.4384158,0.0696 -6.3494992,1.98304 -4.63620993,4.64194 -2.4400566,2.50115 -11.2253432,10.83021 -12.2014786,5.28371 -58.6977826,47.52135 -63.5890726,51.80911 -10.578388,9.27314 -11.61124,24.07132 1.257776,29.55605 43.512716,18.545 95.049702,39.28964 145.68512,60.40218 2.531994,1.05573 21.298835,5.15347 26.608459,-5.75326 7.01786,-14.41567 17.63713,-61.04921 24.51471,-78.5099 5.24773,-5.0016 4.29003,-5.27875 10.22461,-13.13825 5.93458,-7.8595 11.90787,-21.45288 11.90787,-21.45288 2.54774,-4.6782 10.83276,-25.46223 10.54358,-33.7128 -0.28917,-8.25057 -0.55982,-11.80774 -7.54001,-16.41824 -6.9802,-4.6105 -10.21563,-5.0743 -13.39194,-6.54084 -3.17631,-1.46654 -13.54812,-4.14548 -12.56653,-5.95134 0.98159,-1.80586 13.75318,-19.53288 26.07442,-38.066251 0.67875,-1.020958 6.82024,-9.726254 7.28005,-10.483259 1.50663,-1.845922 1.7889,-4.234563 1.5255,-5.278813 -0.26405,-1.048304 -0.81952,-1.94752 -1.3288,-3.379942 -0.74934,-1.265346 -1.57702,-2.573835 -2.59292,-3.807066 -1.7e-4,-1.92e-4 -3.8e-4,-3.47e-4 -5.4e-4,-5.39e-4 -0.008,-0.01062 -0.02,-0.02002 -0.0288,-0.03063 -1.0101,-1.221748 -2.20307,-2.369429 -3.69244,-3.326214 -1.83241,-1.176663 -3.75467,-2.086079 -5.61883,-2.682033 -0.44314,-0.141814 -0.86533,-0.205361 -1.29993,-0.311078 -0.47901,-0.116364 -0.9695,-0.271336 -1.43303,-0.342238 -0.003,-5.13e-4 -0.006,-5.64e-4 -0.009,-9.93e-4 -0.87383,-0.133075 -1.71493,-0.182867 -2.50633,-0.1456 -0.006,3.1e-4 -0.0143,-0.0013 -0.0209,-9.93e-4 z"
         sodipodi:nodetypes="ccccccccccssccsscsccscscsccscscccccccccccscssssczczzzzscccscccccccscc" /><path
         id="path16"
         style="fill:none;fill-rule:evenodd;stroke:url(#linearGradient74);stroke-width:6.68;stroke-miterlimit:1.8;stroke-dasharray:none"
         d="m 129.39627,43.508288 c -1.66283,0.08091 -3.00778,0.561183 -3.92617,1.383837 -2.48725,0.863235 -11.18307,10.164704 -14.40875,14.564722 -3.80876,5.195372 -21.861303,27.749138 -32.873637,48.228903 -0.384001,0.71413 -28.243608,-7.24382 -39.30586,-7.717995 -11.062251,-0.474177 -15.648838,4.687895 -20.6569,11.092255 -5.008062,6.40436 -20.3562111,29.01134 -20.3562111,29.01134 l 110.0688481,46.96285 3.10959,1.86859 c 8.03428,1.36327 15.28038,3.44856 21.29402,-4.28871 6.96623,-10.76974 18.6766,-33.609 19.51862,-41.44846 0.65319,-2.74116 2.07303,-10.12096 -10.92967,-14.18701 -6.65014,-2.31163 -19.72561,-5.98415 -31.25092,-10.91676 4.10318,-6.09529 21.50274,-32.841574 33.41489,-50.667829 0.65621,-0.982 3.37232,-5.574897 3.81688,-6.303016 1.2636,-3.887295 0.0982,-4.591863 -0.88463,-7.341943 -1.44892,-2.434127 -3.19953,-5.035114 -6.10436,-6.89164 -3.54244,-2.263107 -7.43218,-3.499741 -10.52572,-3.349114 z m -2.41115,11.078483 c 0.0142,0.01716 0.0248,0.03433 0.0391,0.0515 -0.0189,0.0222 -0.0481,0.05888 -0.0673,0.08144 0.008,-0.04558 0.0201,-0.08712 0.0282,-0.132933 z"
         sodipodi:nodetypes="scsssscccccccscccsssccss" /><path
         id="path17"
         style="display:inline;fill:url(#linearGradient75);fill-rule:evenodd;stroke:none;stroke-width:1.77584;stroke-miterlimit:1.8"
         d="m 129.39511,43.507689 c -2.19051,0.106583 -3.83119,0.903689 -4.66756,2.267673 -1.33235,2.182088 -0.46023,5.547846 2.29668,8.863504 C 118.21966,64.972227 82.321509,114.372 82.321509,114.372 l 26.503301,4.9788 c 2.92722,-4.25518 21.80658,-33.306665 34.26921,-51.956712 0.65621,-0.982001 3.37182,-5.575582 3.81638,-6.303702 1.2636,-3.887299 0.0998,-4.591422 -0.88296,-7.341505 -1.44891,-2.434131 -3.20119,-5.033753 -6.10601,-6.890282 -3.54246,-2.263109 -7.43276,-3.501537 -10.52632,-3.35091 z"
         sodipodi:nodetypes="cccccscccc" /><path
         id="path18"
         style="display:inline;fill:url(#linearGradient76);fill-rule:evenodd;stroke:none;stroke-width:1.729;stroke-miterlimit:1.8;stroke-dasharray:none"
         d="m 111.06095,59.456233 c -3.80876,5.195378 -21.860324,27.748529 -32.872663,48.228317 -0.384001,0.71413 -28.243468,-7.24319 -39.30573,-7.717365 -11.062262,-0.474177 -15.650361,4.687285 -20.658428,11.091655 -5.008067,6.40435 -20.5254963,28.84227 -20.5254963,28.84227 L 114.30906,192.82887 c 9.14501,5.63525 15.51979,-1.69854 16.24759,-4.48061 7.88283,-10.44012 17.75344,-31.39735 21.1329,-42.62006 1.18301,-4.51037 1.12593,-12.34061 -7.07291,-15.66272 -10.79726,-3.7532 -48.299024,-13.95671 -46.658133,-20.88128 3.770413,-15.911006 12.249203,-25.750356 23.598593,-42.425077 1.47771,-2.171089 3.25394,-4.497515 6.02465,-7.766276 2.77072,-3.268762 4.11934,-10.697005 0.53333,-14.14632 0.55411,-3.705019 -13.07845,9.186644 -17.05412,14.609696 z"
         sodipodi:nodetypes="sszzcccccsszcss" /><path
         id="path19"
         style="fill:#ffc31b;fill-opacity:1;fill-rule:evenodd;stroke-width:3.46311;stroke-miterlimit:1.8"
         d="M 1.4716514,134.67724 C 40.536601,148.87227 106.19528,166.4272 120.87753,172.02527 c 14.68225,5.59807 10.89164,16.16719 5.72922,21.21934 -5.16243,5.05215 -5.27908,7.71001 -10.35253,12.52074 -6.64923,16.79444 -17.470647,62.56304 -24.255458,76.42863 -5.133313,10.49055 -12.387322,6.49792 -14.83524,5.48248 -48.953997,-20.30693 -110.196876,-47.65961 -152.26469,-65.49697 -12.441681,-5.27545 -12.229244,-16.45922 -2.002126,-25.37851 4.728869,-4.12415 49.680973,-44.75017 61.477285,-49.83228 8.4935612,-8.01126 6.3703166,-5.95208 10.8525742,-10.41688 1.8674365,-1.86016 2.5427233,-3.21991 6.2450862,-1.87458 z"
         sodipodi:nodetypes="szzcsssscss" /><path
         id="path22"
         style="mix-blend-mode:normal;fill:url(#linearGradient77);fill-opacity:1;fill-rule:evenodd;stroke:none;stroke-width:2.85;stroke-miterlimit:1.8;stroke-dasharray:none"
         d="m 12.619865,137.75181 c 33.637987,12.08288 94.676815,30.38825 107.313075,35.13406 12.63622,4.74583 10.77637,10.9323 7.85603,16.89924 -2.92034,5.96694 -8.16063,5.37289 -9.54782,11.39606 -7.63774,12.16072 -19.118424,66.56293 -23.662039,65.56722 -9.091309,-1.9923 -10.987498,-2.66761 -15.452551,-4.58931 -37.705026,-16.22774 -99.054736,-43.39237 -135.217038,-58.38842 -10.695107,-4.43513 -11.207846,-12.88673 -2.097442,-19.55159 4.212518,-3.08174 35.590703,-32.99933 45.973689,-36.63771 7.5806667,-6.00482 9.5508286,-6.39304 13.5570341,-9.74632 1.6690986,-1.39706 8.0890367,-1.22839 11.2770619,-0.0832 z"
         sodipodi:nodetypes="szzcsssscss"
         transform="translate(-1.0625e-6)" /><path
         style="display:inline;fill:none;fill-opacity:1;fill-rule:evenodd;stroke:url(#linearGradient78);stroke-width:21.7027;stroke-linecap:round;stroke-miterlimit:1.8;stroke-dasharray:none"
         d="M -71.731606,209.52508 80.549365,275.53704"
         id="path23"
         sodipodi:nodetypes="cc" /></g><g
       id="g28"
       inkscape:label="cord"
       transform="rotate(-1.9947305,-85.614905,289.44438)"
       style="display:inline"><path
         style="fill:none;fill-opacity:1;fill-rule:evenodd;stroke:#0090d0;stroke-width:3.052;stroke-linecap:round;stroke-miterlimit:1.8;stroke-dasharray:6.104, 6.104;stroke-dashoffset:5.4936;stroke-opacity:0.806527"
         d="m -10.910204,151.07999 132.242384,51.40478 1.52428,3.69538 -1.5444,3.67024 -1.69325,2.91434 -1.10836,0.59468"
         id="path27" /><path
         style="fill:none;fill-opacity:1;fill-rule:evenodd;stroke:#002ad0;stroke-width:3.052;stroke-linecap:round;stroke-miterlimit:1.8;stroke-dasharray:6.104, 6.104;stroke-dashoffset:0;stroke-opacity:0.717949"
         d="m -9.7969343,148.45352 132.2423943,51.40478 1.52428,3.69538 -1.5444,3.67024 -1.69325,2.91434 -1.10836,0.59468"
         id="path28" /></g><g
       id="g72"
       inkscape:label="Clock Symbolic"
       style="clip-rule:nonzero;display:none;fill:#00009f;fill-rule:nonzero;stroke:#ffffff;stroke-width:0;stroke-miterlimit:4"
       transform="matrix(0.63974865,0,0,0.63974865,7.1457089,132.42231)"><g
         id="g62"
         style="clip-rule:nonzero;display:inline;fill:#00009f;fill-rule:nonzero;stroke:#ffffff;stroke-width:0;stroke-miterlimit:4"
         transform="matrix(2.7183991,0,0,2.7183991,1.5343461,-61.866559)"
         inkscape:label="Frames"><radialGradient
           id="radialGradient56"
           cx="42.029301"
           cy="34.987801"
           r="77.731102"
           fx="42.029301"
           fy="34.987801"
           gradientUnits="userSpaceOnUse"><stop
             offset="0"
             style="stop-color:#FFFFFF"
             id="stop52" /><stop
             offset="0.3034"
             style="stop-color:#CCF0FF"
             id="stop55" /><stop
             offset="1"
             style="stop-color:#1D6CE9"
             id="stop56" /></radialGradient><path
           style="clip-rule:nonzero;display:inline;fill:url(#linearGradient79);fill-rule:nonzero;stroke:none;stroke-width:0;stroke-miterlimit:4"
           d="m 249.21041,127.5243 c 0,66.84544 -54.19129,121.03401 -121.03401,121.03401 C 61.33369,248.55831 7.1424033,194.36974 7.1424033,127.5243 7.1424033,60.678871 61.33369,6.4930226 128.1764,6.4930226 c 66.84272,0 121.03401,54.1885674 121.03401,121.0312774 z"
           id="path58"
           inkscape:label="gray miffle Frame"
           transform="matrix(0.36786356,0,0,0.36786356,-0.56443004,22.758453)" /><path
           style="clip-rule:nonzero;display:inline;fill:url(#linearGradient80);fill-rule:nonzero;stroke:none;stroke-width:0;stroke-miterlimit:4"
           d="m 3.1300464,127.5243 c 0,68.9522 56.0968836,125.04636 125.0463536,125.04636 68.94948,0 125.04636,-56.09416 125.04636,-125.04636 C 253.22276,58.577549 197.12588,2.477947 128.1764,2.477947 59.22693,2.477947 3.1300464,58.577549 3.1300464,127.5243 Z m 8.0247146,0 c 0,-64.523916 52.495004,-117.021638 117.021639,-117.021638 64.52665,0 117.02165,52.497722 117.02165,117.021638 0,64.52664 -52.495,117.02436 -117.02165,117.02436 -64.526635,0 -117.021639,-52.495 -117.021639,-117.02436 z"
           id="path59"
           inkscape:label="gray outher frame"
           transform="matrix(0.36786356,0,0,0.36786356,-0.56443004,22.758453)" /><path
           style="clip-rule:evenodd;display:inline;fill:url(#radialGradient80);fill-rule:evenodd;stroke:none;stroke-width:0;stroke-miterlimit:4"
           d="m 227.81117,127.5243 c 0,55.02584 -44.60893,99.63476 -99.63477,99.63476 -55.02583,0 -99.634758,-44.6062 -99.634758,-99.63476 0,-55.028548 44.608928,-99.634758 99.634758,-99.634758 55.02584,0 99.63477,44.608928 99.63477,99.634758 z"
           id="path60"
           inkscape:label="blue Background"
           transform="matrix(0.36786356,0,0,0.36786356,-0.56443004,22.758453)" /><path
           style="clip-rule:nonzero;display:inline;fill:url(#linearGradient81);fill-rule:nonzero;stroke:none;stroke-width:0;stroke-miterlimit:4"
           d="m 25.866736,127.5243 c 0,56.41765 45.894732,102.31239 102.309664,102.31239 56.41494,0 102.30968,-45.89474 102.30968,-102.31239 0,-56.412213 -45.89474,-102.309663 -102.30968,-102.309663 -56.414932,0 -102.309664,45.89745 -102.309664,102.309663 z m 5.347092,0 c 0,-53.46275 43.499821,-96.959853 96.962572,-96.959853 53.46275,0 96.96258,43.497103 96.96258,96.959853 0,53.46548 -43.49983,96.96258 -96.96258,96.96258 -53.462751,0 -96.962572,-43.4971 -96.962572,-96.96258 z"
           id="path61"
           inkscape:label="Gray inner frame"
           transform="matrix(0.36786356,0,0,0.36786356,-0.56443004,22.758453)" /><path
           style="clip-rule:nonzero;display:inline;fill:url(#radialGradient81);fill-rule:nonzero;stroke:none;stroke-width:0;stroke-miterlimit:4"
           d="m 46.537,35.177 c -18.313,0 -33.158,14.847 -33.158,33.159 0,2.695 0.329,5.313 0.936,7.82 C 24.76,70.691 34.223,64.552 46.35,67.877 59.097,71.371 70.504,66.404 78.762,60.52 75.246,45.98 62.158,35.177 46.537,35.177 Z"
           id="path62"
           inkscape:label="white light" /></g><g
         id="g65"
         inkscape:label="Clock Hands 2 Resent-History"
         style="clip-rule:nonzero;display:inline;fill:#00009f;fill-rule:nonzero;stroke:#ffffff;stroke-width:0;stroke-miterlimit:4"><path
           id="path63"
           style="fill:#a0a0a0;fill-opacity:0.660839;fill-rule:evenodd;stroke:url(#radialGradient82);stroke-width:5.41249;stroke-linecap:round;stroke-miterlimit:1.8;stroke-dashoffset:20.7632"
           inkscape:label="Middle Elipse Shadow"
           d="m 124.23486,78.900879 v 38.667481 a 16.363934,16.635761 0 0 0 -7.83398,14.16943 16.363934,16.635761 0 0 0 16.36377,16.63623 16.363934,16.635761 0 0 0 15.03515,-10.13232 h 59.15918 v -13.13818 h -59.19287 a 16.363934,16.635761 0 0 0 -8.69677,-8.71582 V 78.900879 Z" /><path
           id="path64"
           style="fill:#000000;fill-opacity:1;fill-rule:evenodd;stroke:none;stroke-width:5.41249;stroke-linecap:round;stroke-miterlimit:1.8;stroke-dashoffset:20.7632;stroke-opacity:0.717949"
           inkscape:label="Middle Elipse"
           d="m 119.73486,72.900879 v 38.667481 a 16.363934,16.635761 0 0 0 -7.83398,14.16943 16.363934,16.635761 0 0 0 16.36377,16.63623 16.363934,16.635761 0 0 0 15.03515,-10.13232 h 59.15918 v -13.13818 h -59.19287 a 16.363934,16.635761 0 0 0 -8.69677,-8.71582 V 72.900879 Z" /><path
           style="clip-rule:nonzero;display:inline;opacity:0.94198;fill:#f47f0b;fill-opacity:0.382284;fill-rule:evenodd;stroke:#d04040;stroke-width:3.7369;stroke-linejoin:round;stroke-miterlimit:4;stroke-opacity:0.13986;paint-order:stroke fill markers"
           id="path65"
           sodipodi:type="arc"
           sodipodi:cx="127.7393"
           sodipodi:cy="127.23903"
           sodipodi:rx="98.236244"
           sodipodi:ry="96.75634"
           sodipodi:start="4.712389"
           sodipodi:end="0"
           sodipodi:arc-type="slice"
           d="m 127.7393,30.482689 a 98.236244,96.75634 0 0 1 98.23625,96.756341 H 127.7393 Z"
           inkscape:label="resent-history" /></g><g
         id="g66"
         inkscape:label="Clock Hands 2 moveable"
         style="clip-rule:nonzero;display:inline;fill:#00009f;fill-rule:nonzero;stroke:#ffffff;stroke-width:0;stroke-miterlimit:4"><ellipse
           style="fill:#000000;fill-opacity:1;fill-rule:evenodd;stroke:none;stroke-width:5.41249;stroke-linecap:round;stroke-miterlimit:1.8;stroke-dashoffset:20.7632;stroke-opacity:0.717949"
           id="ellipse65"
           cx="128.26489"
           cy="125.7384"
           rx="16.363934"
           ry="16.635761"
           inkscape:label="Middle Elipse" /><rect
           style="clip-rule:nonzero;fill:#000000;fill-opacity:1;fill-rule:evenodd;stroke:none;stroke-width:4.9011;stroke-linecap:round;stroke-miterlimit:1.8;stroke-dashoffset:20.7632;stroke-opacity:0.717949"
           id="rect65"
           width="74.172188"
           height="13.139072"
           x="128.28683"
           y="119.10302"
           inkscape:label="Long hand" /><rect
           style="clip-rule:nonzero;fill:#000000;fill-opacity:1;fill-rule:evenodd;stroke:none;stroke-width:4.40477;stroke-linecap:round;stroke-miterlimit:1.8;stroke-dashoffset:20.7632;stroke-opacity:0.717949"
           id="rect66"
           width="14.834437"
           height="52.344364"
           x="119.73511"
           y="72.90065"
           inkscape:label="short hand" /></g><g
         id="g71"
         inkscape:label="inner Fragments"
         style="display:inline"><path
           style="clip-rule:nonzero;display:inline;fill:#ffffff;fill-rule:nonzero;stroke:none;stroke-width:0;stroke-miterlimit:4"
           d="m 46.625,71.354 c -1.275,0 -2.311,-1.033 -2.311,-2.31 0,-1.277 1.035,-2.311 2.311,-2.311 1.276,0 2.311,1.034 2.311,2.311 0,1.277 -1.033,2.31 -2.311,2.31 z"
           id="path66"
           transform="matrix(2.7183991,0,0,2.7183991,1.5343461,-61.866559)"
           inkscape:label="Middle Point" /><path
           style="display:inline;opacity:0.15;stroke:none;stroke-width:0"
           d="m 142.15714,43.468687 c 23.27763,0 44.66329,8.250341 61.39504,21.975538 -17.79465,-21.692825 -44.7965,-35.567533 -74.98704,-35.567533 -53.462759,0 -96.959863,43.499822 -96.959863,96.962578 0,30.1851 13.871989,57.18968 35.567533,74.98704 -13.725197,-16.73175 -21.975538,-38.11468 -21.975538,-61.39504 0,-53.462764 43.497104,-96.962583 96.959868,-96.962583 z"
           id="path67"
           inkscape:label="shadow" /><path
           style="display:inline;opacity:0.5;stroke:none;stroke-width:0"
           d="M 54.717107,132.36362 H 42.038492 v -12.67591 h 12.678615 z"
           id="path68"
           inkscape:label="point left" /><path
           style="opacity:0.5;stroke:none;stroke-width:0"
           d="M 134.513,215.86412 H 121.83981 V 203.18551 H 134.513 Z"
           id="path69"
           inkscape:label="point bottom" /><path
           style="opacity:0.5;stroke:none;stroke-width:0"
           d="M 134.513,53.146188 H 121.83981 V 40.467574 H 134.513 Z"
           id="path70"
           inkscape:label="point top" /><path
           style="opacity:0.5;stroke:none;stroke-width:0"
           d="m 215.65177,132.36362 h -12.67861 v -12.67591 h 12.67861 z"
           id="path71"
           inkscape:label="point right" /></g></g></g><g
     id="g126"
     transform="matrix(1.497361,0,0,1.497361,52.905264,56.222946)"><path
       d="M 97.469,6 C 97.182,6.01 97.009,6.03 97,6.031 88.502,6.755 81.811,12.65 80.969,19.938 c -0.006,0.032 -4.101,20.92 -8.094,26.375 -3.133,4.282 -61.741,56.407 -64.594,60.968 -1.846,2.953 -2.189,6.367 -1.469,9.469 0.003,0.01 -0.002,0.021 0,0.031 0.466,1.985 1.353,3.826 2.594,5.344 0.066,0.08 0.152,0.14 0.219,0.219 0.113,0.132 0.225,0.28 0.344,0.406 0.162,0.173 0.328,0.338 0.5,0.5 0.316,0.298 0.654,0.587 1,0.844 l 0.125,0.094 c 0.162,0.116 0.332,0.205 0.5,0.312 0.255,0.162 0.513,0.33 0.781,0.469 0.03,0.015 0.064,0.016 0.094,0.031 a 9.2,9.2 0 0 0 0.906,0.406 c 0.086,0.032 0.163,0.064 0.25,0.094 0.143,0.049 0.292,0.083 0.438,0.125 0.55,0.16 1.132,0.29 1.718,0.344 0.345,0.03 0.707,0.04 1.063,0.031 0.149,-0.004 0.287,-0.02 0.437,-0.031 a 9.827,9.827 0 0 0 1.594,-0.25 c 0.123,-0.03 0.251,-0.06 0.375,-0.094 0.197,-0.054 0.395,-0.12 0.594,-0.188 0.346,-0.116 0.68,-0.25 1.031,-0.406 0.141,-0.063 0.295,-0.118 0.438,-0.187 0.204,-0.1 0.419,-0.199 0.625,-0.313 0.07,-0.04 0.147,-0.083 0.218,-0.125 0.28,-0.162 0.562,-0.342 0.844,-0.531 0.23,-0.154 0.511,-0.376 0.813,-0.625 0.204,-0.17 0.452,-0.383 0.687,-0.594 0.312,-0.28 0.731,-0.684 1.094,-1.031 0.311,-0.298 0.654,-0.624 1,-0.969 0.007,-0.012 0.024,-0.019 0.031,-0.031 13.271,-13.226 51.195,-59.411 56.688,-62.875 4.143,-2.613 25.25,-6.438 25.25,-6.438 4.156,-1.896 9.842,-7.866 12.25,-16.874 0.416,-2.36 0.168,-4.841 0.062,-4.407 l -12.781,5.75 -8.375,-6.718 -1.438,-3.657 0.5,-6.187 14.063,-5.25 -0.219,-1.813 C 107.673,6.086 99.479,5.934 97.469,6 Z M 17.813,106.188 c 3.434,-0.032 6.588,3.708 6.562,7.968 -0.021,3.524 -3.44,7.031 -6.875,7.063 -3.436,0.032 -6.765,-3.821 -6.813,-7.688 -0.002,-0.232 -0.019,-0.488 0,-0.719 a 7.316,7.316 0 0 1 0.75,-2.625 c 0.102,-0.205 0.193,-0.398 0.313,-0.593 1.2,-1.958 3.348,-3.38 6.063,-3.406 z"
       filter="url(#i)"
       opacity="0.8"
       id="path80-3" /><path
       fill="url(#j)"
       d="m 322.526,444.257 c 3.633,-1.243 9.832,-9.806 10.455,-19.473 0.028,-0.43 0.675,1.894 0.675,4.204 -0.777,8.953 -5.186,15.562 -8.812,18.058 z"
       transform="matrix(1.02235,0.18027,-0.18017,1.0218,-142.509,-466.044)"
       id="path81"
       style="fill:url(#j)" /><path
       fill="#888a85"
       d="m 121.38,28.028 -12.772,5.76 -8.387,-6.718 c -0.946,1.38 -0.427,21.59 4.125,21.32 8.331,-0.494 14.216,-9.269 17.035,-20.362 z"
       id="path82-3" /><path
       fill="url(#k)"
       d="m 322.075,432.684 0.994,8.694 1.908,3.212 c 1.937,-1.556 3.517,-3.714 4.751,-6.306 1.608,-3.65 2.575,-8.07 2.928,-12.812 l -10.58,7.212 z"
       transform="matrix(1.02235,0.18027,-0.18017,1.0218,-142.509,-466.044)"
       id="path83"
       style="fill:url(#k)" /><path
       fill="url(#l)"
       d="m 313.597,428.192 c -0.003,0.005 -0.02,0.027 -0.02,0.034 -0.006,0.013 -0.013,0.046 -0.017,0.062 -0.514,2.08 2.445,19.87 6.634,18.871 0.926,-0.22 1.815,-0.55 2.638,-0.97 l -2.252,-14.243 z"
       opacity="0.514"
       transform="matrix(1.02235,0.18027,-0.18017,1.0218,-142.509,-466.044)"
       id="path84-8"
       style="fill:url(#l)" /><path
       fill="url(#m)"
       d="m 305.841,406.09 c -7.94,2.108 -13.308,8.815 -12.888,15.873 0,0.032 -0.39,20.551 -3.266,26.397 -2.256,4.59 -49.132,63.861 -51.075,68.668 -4.104,10.152 7.657,22.367 17.215,13.203 6.302,-6.042 40.97,-68.158 46.14,-72.854 3.494,-3.174 22.875,-10.332 22.875,-10.332 l -14.08,-22.853 -0.718,-8.022 12.115,-6.979 c -7.07,-5.54 -16.256,-3.119 -16.318,-3.102 z m -58.38,108.32 c 3.252,-0.606 6.876,2.414 7.564,6.462 0.57,3.348 -2.092,7.258 -5.346,7.863 -3.254,0.606 -7.062,-2.514 -7.754,-6.176 -0.664,-3.519 1.423,-7.383 5.535,-8.15 z"
       transform="matrix(1.02235,0.18027,-0.18017,1.0218,-142.509,-466.044)"
       id="path85"
       style="fill:url(#m)" /><path
       fill="url(#n)"
       d="M -0.051,18.554 -0.847,9.66 10.38,3.193 C 3.985,-0.79 -3.654,1.07 -3.741,1.093 c -7.162,1.903 -12.167,7.772 -12.167,14.129 0,0.239 0.007,0.479 0.021,0.718 v 0.002 c 0,0.357 -0.363,20.788 -3.366,26.896 -1.081,2.198 -11.148,15.342 -22.805,30.562 -12.137,15.847 -27.242,35.568 -28.24,38.04 a 10.605,10.605 0 0 0 -0.781,3.995 c 0,3.786 2.019,7.228 4.596,9.186 0.4,-0.701 0.828,-1.443 1.286,-2.229 -1.823,-1.291 -3.266,-3.318 -3.698,-5.609 a 8.125,8.125 0 0 1 1.264,-6.057 c 1.171,-1.713 2.972,-2.871 5.07,-3.263 1.626,-0.303 3.379,0.13 4.94,1.219 0.193,0.135 0.376,0.284 0.558,0.436 C -46.315,92.233 -27.938,65.35 3.195,23.824 Z"
       mask="url(#o)"
       transform="matrix(1.02235,0.18027,-0.18017,1.0218,101.112,4.624)"
       id="path86-0"
       style="fill:url(#n)" /><path
       fill="url(#p)"
       d="m 310.762,424.192 -0.718,-8.022 12.115,-6.979 c -1.94,-1.55 -4.315,-2.675 -6.924,-3.262 -3.189,-0.02 -6.442,0.455 -8.758,1.236 -7.736,2.61 -11.779,8.33 -11.626,15.146 l 8.781,14.84 2.685,-1.679 6.25,10.825 -2.19,1.504 3.361,3.627 11.104,-4.382 z"
       transform="matrix(1.02235,0.18027,-0.18017,1.0218,-142.509,-466.044)"
       id="path87"
       style="fill:url(#p)" /><path
       fill="url(#q)"
       d="m 65.82,36.446 10.667,-8.655 8.692,12.337 -12.668,6.655 z"
       transform="matrix(1.02235,0.18027,-0.18017,1.0218,19.324,-9.798)"
       id="path88"
       style="fill:url(#q)" /><path
       fill="url(#r)"
       d="m 65.82,36.446 10.667,-6.655 6.692,10.337 -10.668,6.655 z"
       transform="matrix(1.02235,0.18027,-0.18017,1.0218,19.324,-9.798)"
       id="path89-5"
       style="fill:url(#r)" /><path
       fill="url(#s)"
       d="m 68.311,35.653 6.305,-3.575 5.621,8.731 -6.305,3.575 z"
       transform="matrix(1.02235,0.18027,-0.18017,1.0218,19.324,-9.798)"
       id="path90"
       style="fill:url(#s)" /><path
       fill="url(#t)"
       d="m 67.891,36.615 9.606,-4.382 0.394,1.09 -9.607,4.382 z"
       transform="matrix(1.02235,0.18027,-0.18017,1.0218,19.324,-9.798)"
       id="path91-6"
       style="fill:url(#t)" /><path
       fill="url(#u)"
       d="m 72.212,42.972 9.441,-4.073 0.348,0.928 -9.441,4.073 z"
       transform="matrix(1.02235,0.18027,-0.18017,1.0218,19.324,-9.798)"
       id="path92-6"
       style="fill:url(#u)" /><path
       fill="url(#v)"
       d="m 69.661,39.991 10.096,-4.24 0.353,0.922 -10.095,4.241 z"
       transform="matrix(1.02235,0.18027,-0.18017,1.0218,19.324,-9.798)"
       id="path93-4"
       style="fill:url(#v)" /><path
       fill="url(#w)"
       d="m 320.802,431.891 c -0.04,0.27 1.298,8.028 1.38,8.298 0.672,4.268 1.65,4.406 1.853,5.16 0.728,-0.414 0.257,0.046 0.888,-0.503 -0.115,-0.366 -1.438,-2.85 -1.965,-3.735 -0.246,-2.134 -1.027,-8.108 -1.094,-8.676 -0.409,-0.222 -0.566,-0.31 -1.062,-0.544 z"
       transform="matrix(1.02235,0.18027,-0.18017,1.0218,-142.509,-466.044)"
       id="path94"
       style="fill:url(#w)" /><path
       fill="url(#x)"
       d="m 246.62,511.925 c 4.81,-1.9 11.262,3.38 10.918,9.185 3.286,-3.8 39.346,-60.775 39.908,-63.366 0.86,-3.967 -3.267,-6.922 -6.548,-4.857 -2.289,1.44 -44.59,59.161 -44.278,59.038 z"
       transform="matrix(1.02235,0.18027,-0.18017,1.0218,-142.509,-466.044)"
       id="path95-0"
       style="fill:url(#x)" /><path
       fill="url(#y)"
       stroke="#000000"
       d="m 292.028,454.56 c -2.496,2.358 -25.174,33.046 -41.366,55.22 1.36,0.302 2.717,0.89 3.975,1.801 1.742,1.261 3.031,2.933 3.871,4.753 8.766,-12.91 35.56,-55.53 36.993,-59.088 0.036,-0.188 0.061,-0.375 0.061,-0.556 0,-0.832 -0.373,-1.572 -1.058,-2.052 -0.76,-0.533 -1.679,-0.549 -2.476,-0.078 z"
       transform="matrix(1.02235,0.18027,-0.18017,1.0218,-142.509,-466.044)"
       id="path96"
       style="fill:url(#y)" /><path
       fill="url(#z)"
       d="m 294.943,422.466 c -0.075,3.201 -0.627,21.014 -3.46,26.777 a 8.256,8.256 0 0 1 -0.347,0.606 c 0.424,-0.582 0.73,-1.03 0.878,-1.307 2.743,-5.062 5.541,-18.059 5.75,-21.308 l -2.82,-4.768 z"
       transform="matrix(1.02235,0.18027,-0.18017,1.0218,-142.509,-466.044)"
       id="path97-0"
       style="fill:url(#z)" /><path
       fill="url(#A)"
       d="m 258.691,526.594 c 0.558,-1.508 0.762,-3.1 0.484,-4.62 -0.576,-3.155 -2.558,-6.1 -5.3,-7.884 -2.18,-1.416 -4.632,-1.979 -6.905,-1.585 -2.932,0.51 -5.448,2.017 -7.085,4.244 a 10.03,10.03 0 0 0 -1.925,6.691 c 1.371,7.906 10.305,14.042 17.868,6.791 0.662,-0.634 1.641,-1.895 2.863,-3.637 z m -9.012,2.141 c -3.254,0.606 -7.062,-2.514 -7.754,-6.176 -0.665,-3.52 1.422,-7.384 5.535,-8.15 3.253,-0.605 6.877,2.415 7.565,6.463 0.57,3.348 -2.092,7.258 -5.346,7.863 z"
       opacity="0.5"
       transform="matrix(1.02235,0.18027,-0.18017,1.0218,-142.509,-466.044)"
       id="path98"
       style="fill:url(#A)" /><path
       fill="url(#B)"
       d="m 256.011,520.704 c -0.412,-2.425 -1.83,-4.689 -3.793,-6.06 -1.56,-1.089 -3.314,-1.52 -4.94,-1.219 -2.098,0.392 -3.898,1.55 -5.07,3.263 a 8.128,8.128 0 0 0 -1.264,6.057 c 0.81,4.288 5.144,7.677 8.92,6.974 3.756,-0.699 6.802,-5.164 6.147,-9.015 z m -6.332,8.031 c -3.254,0.606 -7.062,-2.514 -7.754,-6.176 -0.665,-3.52 1.422,-7.384 5.535,-8.15 3.253,-0.605 6.877,2.415 7.565,6.463 0.57,3.348 -2.092,7.258 -5.346,7.863 z"
       transform="matrix(1.02235,0.18027,-0.18017,1.0218,-142.509,-466.044)"
       id="path99"
       style="fill:url(#B)" /><path
       fill="url(#C)"
       d="m 285.39,455.48 c 0.255,-0.522 0.49,-1.17 0.705,-1.913 -11.448,15.598 -45.824,59.36 -47.482,63.461 a 11.415,11.415 0 0 0 -0.672,2.423 c 5.026,-8.347 45.423,-59.823 47.45,-63.97 z"
       opacity="0.4"
       transform="matrix(1.02235,0.18027,-0.18017,1.0218,-142.509,-466.044)"
       id="path100-4"
       style="fill:url(#C)" /><path
       fill="url(#E)"
       d="m 72.13,49.416 c -5.17,4.696 -39.838,66.812 -46.14,72.854 -7.9,7.574 -17.295,0.543 -18.004,-7.856 -0.779,9.204 9.482,18.026 18.004,9.856 6.302,-6.042 40.97,-68.158 46.14,-72.854 3.494,-3.174 22.875,-10.332 22.875,-10.332 l -1.001,-1.625 c -3.999,1.506 -18.857,7.215 -21.874,9.957 z"
       clip-path="url(#D)"
       filter="url(#F)"
       transform="matrix(1.02235,0.18027,-0.18017,1.0218,19.324,-9.798)"
       id="path101"
       style="fill:url(#E)" /><path
       fill="url(#G)"
       d="m 310.044,416.17 12.115,-6.979 0.518,1.694 -12.544,7.382 z"
       transform="matrix(1.02235,0.18027,-0.18017,1.0218,-142.509,-466.044)"
       id="path102-6"
       style="fill:url(#G)" /><path
       fill="url(#H)"
       d="m 310.214,416.072 11.945,-6.88 a 15.86,15.86 0 0 0 -1.59,-1.085 l -10.525,6.063 z"
       transform="matrix(1.02235,0.18027,-0.18017,1.0218,-142.509,-466.044)"
       id="path103-2"
       style="fill:url(#H)" /></g></svg>
