<?xml version="1.0" encoding="UTF-8" standalone="no"?>
<!-- Created with Inkscape (http://www.inkscape.org/) -->

<svg
   width="256mm"
   height="256mm"
   viewBox="0 0 256 256"
   version="1.1"
   id="svg1"
   inkscape:version="1.3.2 (091e20ef0f, 2023-11-25)"
   sodipodi:docname="user.svg"
   xml:space="preserve"
   xmlns:inkscape="http://www.inkscape.org/namespaces/inkscape"
   xmlns:sodipodi="http://sodipodi.sourceforge.net/DTD/sodipodi-0.dtd"
   xmlns:xlink="http://www.w3.org/1999/xlink"
   xmlns="http://www.w3.org/2000/svg"
   xmlns:svg="http://www.w3.org/2000/svg"
   xmlns:rdf="http://www.w3.org/1999/02/22-rdf-syntax-ns#"
   xmlns:cc="http://creativecommons.org/ns#"
   xmlns:dc="http://purl.org/dc/elements/1.1/"
   xmlns:a="http://ns.adobe.com/AdobeSVGViewerExtensions/3.0/"><defs
     id="defs1"><linearGradient
       id="linearGradient22"
       inkscape:collect="always"><stop
         style="stop-color:#ffffff;stop-opacity:0.64649683;"
         offset="0"
         id="stop22" /><stop
         style="stop-color:#fbfbfb;stop-opacity:0.26910827;"
         offset="0.72298956"
         id="stop24" /><stop
         style="stop-color:#ffffff;stop-opacity:0;"
         offset="0.92256683"
         id="stop25" /><stop
         style="stop-color:#ffffff;stop-opacity:0;"
         offset="1"
         id="stop23" /></linearGradient><linearGradient
       id="linearGradient20"
       inkscape:collect="always"><stop
         style="stop-color:#7d7d7d;stop-opacity:1;"
         offset="0"
         id="stop20" /><stop
         style="stop-color:#2e2e2e;stop-opacity:1;"
         offset="1"
         id="stop21" /></linearGradient><linearGradient
       id="linearGradient13"
       inkscape:collect="always"><stop
         style="stop-color:#000000;stop-opacity:0;"
         offset="0"
         id="stop13" /><stop
         style="stop-color:#000000;stop-opacity:0.27707008;"
         offset="0.41855064"
         id="stop15" /><stop
         style="stop-color:#000000;stop-opacity:0.39968154;"
         offset="0.43871072"
         id="stop16" /><stop
         style="stop-color:#000000;stop-opacity:0.32961783;"
         offset="0.46360409"
         id="stop17" /><stop
         style="stop-color:#000000;stop-opacity:0.52229297;"
         offset="1"
         id="stop14" /></linearGradient><linearGradient
       id="linearGradient11"
       inkscape:collect="always"><stop
         style="stop-color:#ffffff;stop-opacity:1;"
         offset="0"
         id="stop11" /><stop
         style="stop-color:#ffffff;stop-opacity:0;"
         offset="1"
         id="stop12" /></linearGradient><linearGradient
       id="linearGradient5"
       inkscape:collect="always"><stop
         style="stop-color:#ffffff;stop-opacity:0.65445858;"
         offset="0"
         id="stop5" /><stop
         style="stop-color:#7f7f7f;stop-opacity:0.3254902;"
         offset="0.5"
         id="stop1" /><stop
         style="stop-color:#000000;stop-opacity:0.49658537;"
         offset="1"
         id="stop6" /></linearGradient><linearGradient
       id="linearGradient3"
       inkscape:collect="always"><stop
         style="stop-color:#ffc59f;stop-opacity:0;"
         offset="0"
         id="stop3" /><stop
         style="stop-color:#ff6602;stop-opacity:0.46019107;"
         offset="1"
         id="stop4" /></linearGradient><linearGradient
       inkscape:collect="always"
       xlink:href="#linearGradient3"
       id="linearGradient4"
       x1="99.157005"
       y1="184.01508"
       x2="135.17354"
       y2="174.1261"
       gradientUnits="userSpaceOnUse" /><linearGradient
       inkscape:collect="always"
       xlink:href="#linearGradient5"
       id="linearGradient6"
       x1="110.43925"
       y1="201.12033"
       x2="159.65962"
       y2="170.01054"
       gradientUnits="userSpaceOnUse" /><linearGradient
       inkscape:collect="always"
       xlink:href="#linearGradient11"
       id="linearGradient12"
       x1="34.477554"
       y1="68.287331"
       x2="134.70375"
       y2="105.17052"
       gradientUnits="userSpaceOnUse" /><linearGradient
       inkscape:collect="always"
       xlink:href="#linearGradient13"
       id="linearGradient14"
       x1="124.91423"
       y1="60.085823"
       x2="265.5014"
       y2="74.08667"
       gradientUnits="userSpaceOnUse" /><linearGradient
       inkscape:collect="always"
       xlink:href="#linearGradient20"
       id="linearGradient21"
       x1="59.384151"
       y1="96.756233"
       x2="216.8851"
       y2="140.97945"
       gradientUnits="userSpaceOnUse"
       gradientTransform="matrix(0.99411766,0,0,1,0.85997923,0)" /><radialGradient
       inkscape:collect="always"
       xlink:href="#linearGradient22"
       id="radialGradient23"
       cx="83.867188"
       cy="39.781593"
       fx="83.867188"
       fy="39.781593"
       r="60.29789"
       gradientTransform="matrix(0.79229368,-0.65965258,0.67128976,0.80627078,-11.91408,66.134875)"
       gradientUnits="userSpaceOnUse" /><radialGradient
       xlink:href="#linearGradient11"
       id="M"
       cx="118.17"
       cy="9.1196003"
       r="1.2844"
       gradientTransform="matrix(1.2088,0.95832,-1.4021,1.7686,-11.996,-120.41)"
       gradientUnits="userSpaceOnUse" /><filter
       id="L"
       x="-0.15990919"
       y="-0.22590349"
       width="1.3198184"
       height="1.451807"><feGaussianBlur
         stdDeviation=".10453397"
         id="feGaussianBlur1" /></filter><radialGradient
       xlink:href="#linearGradient11"
       id="K"
       cx="118.17"
       cy="9.1196003"
       r="1.2844"
       gradientTransform="matrix(1.2088,0.95832,-1.4021,1.7686,-11.096,-120.71)"
       gradientUnits="userSpaceOnUse" /><filter
       id="filter2"
       x="-0.15990919"
       y="-0.2259035"
       width="1.3198184"
       height="1.451807"><feGaussianBlur
         stdDeviation=".10453397"
         id="feGaussianBlur2" /></filter><radialGradient
       xlink:href="#linearGradient11"
       id="B"
       cx="104.09"
       cy="9"
       r="0.46875"
       gradientTransform="matrix(1,0,0,0.8,-80.464,1.9105)"
       gradientUnits="userSpaceOnUse" /><filter
       id="A"
       x="-0.066461544"
       y="-0.08307693"
       width="1.1329231"
       height="1.1661539"><feGaussianBlur
         stdDeviation=".02596154"
         id="feGaussianBlur5" /></filter><radialGradient
       xlink:href="#linearGradient11"
       id="z"
       cx="104.09"
       cy="9"
       r="0.46875"
       gradientTransform="matrix(1,0,0,0.8,-0.5,1.91)"
       gradientUnits="userSpaceOnUse" /><filter
       id="filter6"
       x="-0.066461541"
       y="-0.083076932"
       width="1.1329231"
       height="1.1661539"><feGaussianBlur
         stdDeviation=".02596154"
         id="feGaussianBlur6" /></filter><clipPath
       id="x"><path
         fill="url(#linearGradient3219)"
         d="m 11.375,-167.68 c -2.9534,0 -3.375,0.36407 -3.375,3.3438 v 0.78125 c 0,-2.9797 0.42155,-3.3125 3.375,-3.3125 h 105.25 c 2.9534,0 3.375,0.33282 3.375,3.3125 v -0.78125 c 0,-2.9797 -0.42155,-3.3438 -3.375,-3.3438 z"
         id="path37" /></clipPath><filter
       id="y"
       width="1.0142819"
       height="1.3877715"
       x="-0.0071409683"
       y="-0.19388576"><feGaussianBlur
         stdDeviation=".33324519"
         id="feGaussianBlur9" /></filter><radialGradient
       id="v"
       cx="64.802002"
       cy="63.780998"
       r="34.041"
       gradientTransform="matrix(1.1398,0,0,0.0107,-9.08,63.1)"
       gradientUnits="userSpaceOnUse"><stop
         offset="0"
         stop-color="#fff"
         id="stop29" /><stop
         offset=".5"
         stop-color="#fff"
         stop-opacity=".69818"
         id="stop30" /><stop
         offset="1"
         stop-color="#fff"
         stop-opacity="0"
         id="stop31" /></radialGradient><filter
       id="w"
       width="1.0121165"
       height="2.2481989"
       x="-0.0060582329"
       y="-0.62409946"><feGaussianBlur
         stdDeviation=".18955201"
         id="feGaussianBlur10" /></filter><radialGradient
       id="u"
       cx="100.31"
       cy="42.449001"
       r="38"
       gradientTransform="matrix(10.254156,0,0,4.0586089,-1205.646,-450.44968)"
       gradientUnits="userSpaceOnUse"><stop
         offset="0"
         stop-color="#d0ced9"
         id="stop32" /><stop
         offset=".25"
         stop-color="#ecf1f9"
         id="stop33" /><stop
         offset=".5"
         stop-color="#fff"
         id="stop34" /><stop
         offset="1"
         stop-color="#c6d5e3"
         id="stop35" /></radialGradient><clipPath
       id="s"><rect
         width="78.124001"
         height="55.396"
         x="24.681"
         y="-68.245003"
         fill="none"
         stroke="#000000"
         stroke-dashoffset="4.15"
         stroke-linecap="round"
         stroke-linejoin="round"
         stroke-width="0.4"
         opacity="0.26562"
         rx="1.1339"
         ry="1.1339"
         id="rect37" /></clipPath><filter
       id="t"
       x="-0.024996538"
       y="-0.034457597"
       width="1.0499931"
       height="1.0689152"><feGaussianBlur
         stdDeviation=".66759571"
         id="feGaussianBlur11" /></filter><linearGradient
       id="r"
       x1="64"
       x2="56"
       y1="120.07"
       y2="96.316002"
       gradientTransform="matrix(-2.2435525,0,0,-2.2084218,270.93706,268.14121)"
       gradientUnits="userSpaceOnUse"><stop
         offset="0"
         stop-color="#8a8a8a"
         id="stop19" /><stop
         offset="1"
         stop-color="#c6c6c6"
         id="stop20-3" /></linearGradient><linearGradient
       xlink:href="#linearGradient11"
       id="p"
       x1="-37.195"
       x2="-12.625"
       y1="42.335999"
       y2="106.8"
       gradientTransform="translate(126.8)"
       gradientUnits="userSpaceOnUse" /><filter
       id="q"
       x="-0.01636923"
       y="-0.0074140351"
       width="1.0327385"
       height="1.0183421"><feGaussianBlur
         stdDeviation=".0231875"
         id="feGaussianBlur4" /></filter><linearGradient
       xlink:href="#a"
       id="n"
       x1="68"
       x2="36"
       y1="120"
       y2="84"
       gradientUnits="userSpaceOnUse" /><linearGradient
       id="a"><stop
         offset="0"
         id="stop15-5" /><stop
         offset="1"
         stop-opacity="0"
         id="stop16-6" /></linearGradient><filter
       id="o"
       width="1.2476923"
       height="1.1857692"
       x="-0.12384615"
       y="-0.092884612"><feGaussianBlur
         stdDeviation="1.2384615"
         id="feGaussianBlur8" /></filter><radialGradient
       xlink:href="#linearGradient11"
       id="m"
       cx="84"
       cy="91.983002"
       r="32"
       gradientTransform="matrix(-2.2435525,0,0,-1.3573794,270.93706,182.49057)"
       gradientUnits="userSpaceOnUse" /><linearGradient
       xlink:href="#a"
       id="j"
       x1="47.609001"
       x2="47.609001"
       y1="104.35"
       y2="176.35001"
       gradientUnits="userSpaceOnUse" /><clipPath
       id="k"><path
         fill-opacity="0.12832"
         d="m 18.19,132.42 c -1.4192,0 -2.5625,1.1433 -2.5625,2.5625 v 37.183 h 72 v -37.183 c 0,-1.4192 -1.1433,-2.5625 -2.5625,-2.5625 z"
         id="path36" /></clipPath><filter
       id="l"
       width="1.1232667"
       height="1.1948216"
       x="-0.061633327"
       y="-0.097410806"><feGaussianBlur
         stdDeviation="1.9228365"
         id="feGaussianBlur7" /></filter><linearGradient
       xlink:href="#linearGradient11"
       id="i"
       x1="107.06"
       x2="107.06"
       y1="-26.263"
       y2="134.55"
       gradientTransform="matrix(-2.2435525,0,0,-2.1856905,249.84766,263.96655)"
       gradientUnits="userSpaceOnUse" /><linearGradient
       xlink:href="#linearGradient65"
       id="h"
       x1="69.913002"
       x2="70.019997"
       y1="-96.5"
       y2="-67.843002"
       gradientTransform="translate(0,131.41)"
       gradientUnits="userSpaceOnUse" /><linearGradient
       id="linearGradient65"><stop
         offset="0"
         stop-color="#fff"
         id="stop64"
         style="stop-color:#cee0fc;stop-opacity:1;" /><stop
         offset="1"
         stop-color="#fff"
         stop-opacity="0"
         id="stop65"
         style="stop-color:#767676;stop-opacity:0;" /></linearGradient><filter
       id="g"
       x="-0.0023883333"
       y="-0.068358866"
       width="1.0047767"
       height="1.1367177"><feGaussianBlur
         stdDeviation=".11145486"
         id="feGaussianBlur18" /></filter><filter
       id="filter19"
       x="-0.0023883332"
       y="-0.068358868"
       width="1.0047767"
       height="1.1367177"><feGaussianBlur
         stdDeviation=".11145486"
         id="feGaussianBlur19" /></filter><radialGradient
       xlink:href="#a"
       id="c"
       cx="28.481001"
       cy="164.13"
       r="52.145"
       gradientTransform="matrix(5.4916,-0.11504,0.00261,0.1246,-128.86514,103.66031)"
       gradientUnits="userSpaceOnUse" /><filter
       id="d"
       width="1.0471674"
       height="1.4429946"
       x="-0.023583707"
       y="-0.22149732"><feGaussianBlur
         stdDeviation="1.0149838"
         id="feGaussianBlur13" /></filter><radialGradient
       id="H"
       cx="14"
       cy="19.700001"
       r="2.1500001"
       fy="18.836"
       gradientTransform="matrix(1.1063,0,0,1.1063,0.54709,-2.2994)"
       gradientUnits="userSpaceOnUse"><stop
         offset="0"
         stop-color="#868385"
         id="stop27" /><stop
         offset="1"
         stop-color="#4a4949"
         id="stop28" /></radialGradient><linearGradient
       id="I"
       x1="11.918"
       x2="11.918"
       y1="17.561001"
       y2="20.038"
       gradientTransform="matrix(1.1063,0,0,1.1063,0.54709,-2.2994)"
       gradientUnits="userSpaceOnUse"><stop
         offset="0"
         stop-color="#fff"
         id="stop23-2" /><stop
         offset="1"
         id="stop24-9" /></linearGradient><filter
       id="J"
       x="-0.061195649"
       y="-0.072421264"
       width="1.1223913"
       height="1.1448425"><feGaussianBlur
         stdDeviation=".04177847"
         id="feGaussianBlur3" /></filter><radialGradient
       id="E"
       cx="16"
       cy="18"
       r="4"
       gradientTransform="matrix(1,0,0,1.5,0,-9)"
       gradientUnits="userSpaceOnUse"><stop
         offset="0"
         stop-color="#7a7a7a"
         id="stop25-1" /><stop
         offset="1"
         stop-opacity=".49091"
         id="stop26" /></radialGradient><linearGradient
       xlink:href="#a"
       id="F"
       x1="16"
       x2="16"
       y1="1.5953"
       y2="18.754999"
       gradientUnits="userSpaceOnUse" /><clipPath
       id="G"><rect
         width="8"
         height="12"
         x="12"
         y="12"
         opacity="0.18359"
         rx="1.0793"
         ry="1.0793"
         id="rect36" /></clipPath><filter
       id="D"
       width="1.455"
       height="1.3033333"
       x="-0.2275"
       y="-0.15166667"><feGaussianBlur
         stdDeviation=".55"
         id="feGaussianBlur37" /></filter><clipPath
       id="C"><rect
         width="8"
         height="12"
         x="12"
         y="12"
         opacity="0.18359"
         rx="1.0793"
         ry="1.0793"
         id="rect35" /></clipPath><filter
       id="filter38"
       width="1.455"
       height="1.3033333"
       x="-0.22750001"
       y="-0.15166667"><feGaussianBlur
         stdDeviation=".55"
         id="feGaussianBlur38" /></filter><linearGradient
       id="av"
       x1="63.910999"
       x2="87.757004"
       y1="79.999001"
       y2="93.999001"
       gradientTransform="matrix(1.3755,0,0,1.8571,-22.548,-92.563)"
       gradientUnits="userSpaceOnUse"
       xlink:href="#b-5" /><linearGradient
       id="b-5"><stop
         offset="0"
         id="stop3-8"
         style="stop-color:#584b18;stop-opacity:1;" /><stop
         stop-opacity="0"
         offset="1"
         id="stop4-4"
         style="stop-color:#403006;stop-opacity:0;" /></linearGradient><filter
       id="ax"
       x="-0.027801209"
       y="-0.026180323"
       width="1.0556024"
       height="1.0523606"><feGaussianBlur
         stdDeviation=".6715998"
         id="feGaussianBlur44" /></filter><radialGradient
       id="ai"
       cx="42.618"
       cy="120.64"
       r="3.4068999"
       gradientTransform="matrix(2.7704,2.6691,-12.513,10.995,1415.2,-1337.2)"
       gradientUnits="userSpaceOnUse"><stop
         stop-color="#b4942a"
         offset="0"
         id="stop45" /><stop
         stop-color="#e4dcc9"
         offset="1"
         id="stop46" /></radialGradient><radialGradient
       id="ad"
       cx="49.012001"
       cy="2.6743"
       r="1.7246"
       gradientTransform="matrix(3.0689972,0,0,0.37170813,-364.05512,-147.1967)"
       gradientUnits="userSpaceOnUse"
       xlink:href="#linearGradient11" /><linearGradient
       id="au"
       x1="16.797142"
       x2="29.477354"
       y1="47.662041"
       y2="59.243767"
       gradientTransform="matrix(1.9778965,0,0,1.9802165,46.082967,-92.75339)"
       gradientUnits="userSpaceOnUse"><stop
         stop-color="#252525"
         offset="0"
         id="stop32-2"
         style="stop-color:#f6d008;stop-opacity:1;" /><stop
         stop-color="#252525"
         offset="0.20396717"
         id="stop33-9"
         style="stop-color:#e0c109;stop-opacity:1;" /><stop
         stop-color="#252525"
         offset="0.56177431"
         id="stop34-1"
         style="stop-color:#e9bb0f;stop-opacity:1;" /><stop
         offset="1"
         id="stop35-2"
         style="stop-color:#e9bb04;stop-opacity:1;" /></linearGradient><linearGradient
       id="at"
       x1="76.709"
       x2="80.580002"
       y1="83.325996"
       y2="87.154999"
       gradientTransform="matrix(1.9778965,0,0,1.9802165,45.544734,-93.560736)"
       gradientUnits="userSpaceOnUse"><stop
         stop-color="#d4a100"
         stop-opacity=".97647"
         offset="0"
         id="stop36" /><stop
         stop-color="#ffc712"
         offset="1"
         id="stop37" /></linearGradient><linearGradient
       id="aq"
       x1="-12.818"
       x2="82.172997"
       y1="7.4622998"
       y2="7.4622998"
       gradientUnits="userSpaceOnUse"
       xlink:href="#linearGradient11" /><filter
       id="aw"
       x="-0.0079507644"
       y="-0.3887315"
       width="1.0159015"
       height="1.777463"><feGaussianBlur
         stdDeviation=".31468463"
         id="feGaussianBlur31" /></filter><linearGradient
       id="as"
       x1="11.326"
       x2="14.494"
       y1="57.383999"
       y2="57.383999"
       gradientTransform="matrix(2.5501259,2.3245368,-1.0825275,1.230491,207.04633,-38.599401)"
       gradientUnits="userSpaceOnUse"><stop
         stop-color="#9a7600"
         offset="0"
         id="stop38"
         style="stop-color:#e5b20a;stop-opacity:1;" /><stop
         stop-color="#e3ad00"
         offset="0.09292"
         id="stop39"
         style="stop-color:#d5a200;stop-opacity:1;" /><stop
         stop-color="#ffcd2c"
         offset=".50432"
         id="stop40" /><stop
         stop-color="#e3ad00"
         offset=".91571"
         id="stop41" /><stop
         stop-color="#b98d00"
         offset="1"
         id="stop42" /></linearGradient><linearGradient
       id="am"
       x1="92.225998"
       x2="96.580002"
       y1="54.118999"
       y2="57.151001"
       gradientTransform="matrix(1.975167,0,0,1.9800801,45.817676,-93.547118)"
       gradientUnits="userSpaceOnUse"><stop
         stop-color="#ea3838"
         offset="0"
         id="stop30-3"
         style="stop-color:#eab938;stop-opacity:1;" /><stop
         stop-color="#c40000"
         offset="1"
         id="stop31-6"
         style="stop-color:#ed8c08;stop-opacity:1;" /></linearGradient><linearGradient
       id="ar"
       x1="114.93"
       x2="100.66"
       y1="-22.559999"
       y2="-22.052999"
       gradientTransform="matrix(1.9789853,1.8967137e-8,0,1.979268,-28.274445,-99.906273)"
       gradientUnits="userSpaceOnUse"><stop
         stop-color="#980000"
         offset="0"
         id="stop43"
         style="stop-color:#d89c1d;stop-opacity:1;" /><stop
         stop-color="#db5c5c"
         offset="1"
         id="stop44"
         style="stop-color:#f9bc0a;stop-opacity:1;" /></linearGradient><linearGradient
       id="ap"
       x1="33.341999"
       x2="24.451"
       y1="117.84"
       y2="107.36"
       gradientTransform="matrix(1.2243907,0,0,1.2343805,93.009882,1.4787247)"
       gradientUnits="userSpaceOnUse"><stop
         offset="0"
         id="stop28-0" /><stop
         stop-color="#515151"
         offset="1"
         id="stop29-6" /></linearGradient><linearGradient
       id="an"
       x1="48.499001"
       x2="48.733002"
       y1="0.81151003"
       y2="2.3657"
       gradientTransform="matrix(3.3138262,3.0082642,-2.9726449,3.3527209,82.255844,-142.02351)"
       gradientUnits="userSpaceOnUse"
       xlink:href="#linearGradient11" /><radialGradient
       id="af"
       cx="49.012001"
       cy="2.6743"
       r="1.7246"
       gradientTransform="matrix(4.4760429,-3.2246951e-8,0,0.54512295,-32.674404,-150.04202)"
       gradientUnits="userSpaceOnUse"
       xlink:href="#linearGradient11" /><radialGradient
       id="ae"
       cx="49.012001"
       cy="2.6743"
       r="1.7246"
       gradientTransform="matrix(3.0710352,1.2586952e-8,0,0.37097342,-0.37641677,-160.91099)"
       gradientUnits="userSpaceOnUse"
       xlink:href="#linearGradient11" /><linearGradient
       id="path3_3_"
       gradientUnits="userSpaceOnUse"
       x1="57.324699"
       y1="46.403801"
       x2="83.153503"
       y2="46.403801"><stop
         offset="0"
         style="stop-color:rgb(255,255,255)"
         id="stop8-3" /><stop
         offset="1"
         style="stop-color:rgb(223,223,236)"
         id="stop9-6" /><a:midPointStop
         offset="0"
         style="stop-color:#FFFFFF" /><a:midPointStop
         offset="0.5"
         style="stop-color:#FFFFFF" /><a:midPointStop
         offset="1"
         style="stop-color:#DFDFEC" /></linearGradient><linearGradient
       id="XMLID_4_"
       gradientUnits="userSpaceOnUse"
       x1="32.8545"
       y1="17.5103"
       x2="90.494102"
       y2="85.498703"><stop
         offset="0"
         style="stop-color:rgb(217,217,217)"
         id="stop10-7" /><stop
         offset="1"
         style="stop-color:rgb(87,87,151)"
         id="stop11-5" /><a:midPointStop
         offset="0"
         style="stop-color:#D9D9D9" /><a:midPointStop
         offset="0.5"
         style="stop-color:#D9D9D9" /><a:midPointStop
         offset="1"
         style="stop-color:#575797" /></linearGradient><linearGradient
       id="path11_3_"
       gradientUnits="userSpaceOnUse"
       x1="55.0952"
       y1="78.122101"
       x2="88.283401"
       y2="44.933899"><stop
         offset="0"
         style="stop-color:rgb(255,255,255)"
         id="stop12-3" /><stop
         offset="1"
         style="stop-color:rgb(223,223,236)"
         id="stop13-5" /><a:midPointStop
         offset="0"
         style="stop-color:#FFFFFF" /><a:midPointStop
         offset="0.5"
         style="stop-color:#FFFFFF" /><a:midPointStop
         offset="1"
         style="stop-color:#DFDFEC" /></linearGradient><linearGradient
       id="path16_3_"
       gradientUnits="userSpaceOnUse"
       x1="76.635696"
       y1="27.1621"
       x2="81.575798"
       y2="22.468901"><stop
         offset="0"
         style="stop-color:rgb(255,255,255)"
         id="stop14-6" /><stop
         offset="1"
         style="stop-color:rgb(223,223,236)"
         id="stop15-2" /><a:midPointStop
         offset="0"
         style="stop-color:#FFFFFF" /><a:midPointStop
         offset="0.5"
         style="stop-color:#FFFFFF" /><a:midPointStop
         offset="1"
         style="stop-color:#DFDFEC" /></linearGradient><linearGradient
       id="XMLID_5_"
       gradientUnits="userSpaceOnUse"
       x1="53.142101"
       y1="0.1851"
       x2="113.11"
       y2="70.919998"><stop
         offset="0"
         style="stop-color:rgb(217,217,217)"
         id="stop16-9" /><stop
         offset="1"
         style="stop-color:rgb(87,87,151)"
         id="stop17-1" /><a:midPointStop
         offset="0"
         style="stop-color:#D9D9D9" /><a:midPointStop
         offset="0.5"
         style="stop-color:#D9D9D9" /><a:midPointStop
         offset="1"
         style="stop-color:#575797" /></linearGradient></defs><sodipodi:namedview
     id="base"
     pagecolor="#ffffff"
     bordercolor="#000000"
     borderopacity="0.3"
     inkscape:pageopacity="0.0"
     inkscape:pageshadow="2"
     inkscape:zoom="0.98994949"
     inkscape:cx="505.07627"
     inkscape:cy="476.792"
     inkscape:document-units="mm"
     inkscape:showpageshadow="2"
     inkscape:pagecheckerboard="0"
     inkscape:deskcolor="#d1d1d1"
     inkscape:current-layer="svg1"
     showguides="true"><sodipodi:guide
       position="133.63476,123.70158"
       orientation="0,-1"
       id="guide10"
       inkscape:locked="false" /><sodipodi:guide
       position="105.83333,166.79761"
       orientation="0,-1"
       id="guide14"
       inkscape:locked="false" /><sodipodi:guide
       position="111.125,155.08035"
       orientation="0,-1"
       id="guide15"
       inkscape:locked="false" /></sodipodi:namedview><metadata
     id="metadata1"><rdf:RDF><cc:Work
         rdf:about=""><dc:format>image/svg+xml</dc:format><dc:type
           rdf:resource="http://purl.org/dc/dcmitype/StillImage" /><cc:license
           rdf:resource="http://creativecommons.org/publicdomain/zero/1.0/" /></cc:Work><cc:License
         rdf:about="http://creativecommons.org/publicdomain/zero/1.0/"><cc:permits
           rdf:resource="http://creativecommons.org/ns#Reproduction" /><cc:permits
           rdf:resource="http://creativecommons.org/ns#Distribution" /><cc:permits
           rdf:resource="http://creativecommons.org/ns#DerivativeWorks" /></cc:License></rdf:RDF></metadata><g
     id="g27"
     transform="matrix(1.1625928,0,0,1.1625928,-18.449955,-22.551943)"><path
       style="color:#000000;fill:url(#linearGradient21);stroke-width:0.997055;stroke-linecap:round;stroke-linejoin:round;stroke-miterlimit:2.1;-inkscape-stroke:none"
       d="M 127.3498,44.416016 C 99.791063,44.474306 76.192179,63.714284 70.186094,90.421875 69.174639,90.081423 68.141829,89.8545 67.087244,89.853516 a 1.8103335,1.8210455 0 0 0 -0.002,0 c -4.260384,-1.97e-4 -7.932937,2.799152 -10.422703,6.851562 -2.489764,4.052412 -3.949319,9.463792 -3.949287,15.414062 6e-5,5.95017 1.459526,11.36371 3.949287,15.41602 2.489763,4.0523 6.162394,6.85176 10.422703,6.85156 a 1.8103335,1.8210455 0 0 0 0.0078,0 c 3.046449,-0.0142 5.874385,-1.53061 8.18982,-4.01758 5.411816,10.31572 13.681049,18.8241 23.934548,24.39648 v 49.9629 a 1.8103335,1.8210455 0 0 0 1.809608,1.82031 h 45.16827 a 1.8103335,1.8210455 0 0 0 1.81155,-1.82031 v -46.49024 c 13.57628,-5.07658 24.75116,-14.97696 31.47198,-27.78711 2.25377,2.28096 4.96668,3.6527 7.8675,3.66797 a 1.8103335,1.8210455 0 0 0 0.01,0 c 4.26026,-8e-5 7.93306,-2.79918 10.4227,-6.85156 2.48965,-4.05238 3.94932,-9.46592 3.94929,-15.41602 -6e-5,-5.94999 -1.45964,-11.36178 -3.94929,-15.41406 -2.48964,-4.052276 -6.1625,-6.851477 -10.4227,-6.851563 a 1.8103335,1.8210455 0 0 0 -0.0194,0 c -0.94316,0.01017 -1.87063,0.195801 -2.78043,0.478516 -6.15248,-26.581466 -29.73995,-45.644801 -57.20253,-45.648437 a 1.8103335,1.8210455 0 0 0 -0.004,0 z m 0.004,3.642578 h 0.004 c 26.49615,0.0054 49.23336,18.787397 54.2435,44.791015 a 1.8103335,1.8210455 0 0 0 2.65227,1.248047 c 1.04217,-0.579544 2.07884,-0.856662 3.11438,-0.86914 2.67316,0.0053 5.27792,1.78034 7.33162,5.123046 2.05671,3.347608 3.40752,8.158158 3.40757,13.499998 3e-5,5.34194 -1.35085,10.15229 -3.40757,13.5 -2.05672,3.34771 -4.66594,5.12495 -7.34327,5.125 -2.31902,-0.016 -4.71232,-1.38446 -6.74912,-4.2832 a 1.8103335,1.8210455 0 0 0 -3.11827,0.27734 c -6.3017,13.51437 -17.79943,23.90963 -31.88555,28.82032 a 1.8103335,1.8210455 0 0 0 -1.2174,1.7207 v 45.89648 h -41.54713 v -49.14258 a 1.8103335,1.8210455 0 0 0 -0.98247,-1.61914 C 91.011318,146.52822 82.336416,137.47702 77.183751,126.4082 a 1.8103335,1.8210455 0 0 0 -3.141568,-0.24414 c -2.072647,3.09766 -4.55841,4.56657 -6.960765,4.58008 -2.67602,-0.002 -5.283563,-1.77897 -7.339384,-5.125 -2.056797,-3.34762 -3.409458,-8.158 -3.409513,-13.5 -2.8e-5,-5.34209 1.352706,-10.15228 3.409513,-13.499999 2.056319,-3.346921 4.664587,-5.12428 7.341326,-5.125 1.120133,0.001 2.240891,0.312595 3.366797,0.978515 a 1.8103335,1.8210455 0 0 0 2.696933,-1.236328 c 4.844415,-26.143796 27.60345,-45.119599 54.2066,-45.177734 z"
       id="path20"
       inkscape:label="backgroundframe" /><path
       style="color:#000000;fill:#ceaa92;stroke-width:0.997055;stroke-linecap:round;stroke-linejoin:round;stroke-miterlimit:2.1;-inkscape-stroke:none;fill-opacity:1"
       d="m 127.35399,46.237488 a 57.062047,57.062046 0 0 0 -55.986253,46.665368 12.561667,20.446119 0 0 0 -4.282943,-1.229382 12.561667,20.446119 0 0 0 -12.562023,20.446296 12.561667,20.446119 0 0 0 12.562023,20.44578 12.561667,20.446119 0 0 0 8.45995,-5.38572 57.062047,57.062046 0 0 0 25.483196,26.58494 v 50.96382 h 45.1683 v -47.7175 a 57.062047,57.062046 0 0 0 32.93185,-29.76666 12.561667,20.446119 0 0 0 8.22791,5.05395 12.561667,20.446119 0 0 0 12.56152,-20.44629 12.561667,20.446119 0 0 0 -12.56152,-20.445783 12.561667,20.446119 0 0 0 -3.97805,1.097607 57.062047,57.062046 0 0 0 -56.02396,-46.266426 z"
       id="path19"
       inkscape:label="colorhead" /><g
       id="g26"><g
         id="g2"
         inkscape:label="neck"
         transform="matrix(0.99411765,0,0,1,0.85997924,0)"><path
           id="rect3"
           style="display:inline;fill:url(#linearGradient4);stroke-width:9.05801;stroke-linecap:round;stroke-linejoin:round;stroke-miterlimit:2.1"
           inkscape:label="shadowlight"
           d="m 100.76062,153.14545 c 14.64027,9.37129 31.13242,8.56533 45.57023,3.94222 l -0.13442,47.64079 h -45.43581 z"
           sodipodi:nodetypes="ccccc" /><path
           id="rect4"
           style="fill:url(#linearGradient6);stroke-width:9.05801;stroke-linecap:round;stroke-linejoin:round;stroke-miterlimit:2.1"
           inkscape:label="shadowdark"
           d="m 100.55898,153.54633 c 21.98753,11.47838 33.87638,5.58955 45.63745,3.67496 v 47.50716 h -45.43581 z"
           sodipodi:nodetypes="ccccc" /></g><g
         id="g6"
         inkscape:label="head"><path
           id="path10"
           style="fill:url(#linearGradient14);fill-opacity:1;stroke-width:9.05801;stroke-linecap:round;stroke-linejoin:round;stroke-miterlimit:2.1"
           d="M 127.35398,46.237488 A 57.062046,57.062046 0 0 0 71.367737,92.902856 12.561667,20.446119 0 0 0 67.084794,91.673474 12.561667,20.446119 0 0 0 54.52277,112.11977 a 12.561667,20.446119 0 0 0 12.562024,20.44578 12.561667,20.446119 0 0 0 8.459949,-5.38572 57.062046,57.062046 0 0 0 51.809237,33.18196 57.062046,57.062046 0 0 0 51.7741,-33.11736 12.561667,20.446119 0 0 0 8.22793,5.05395 12.561667,20.446119 0 0 0 12.5615,-20.44629 12.561667,20.446119 0 0 0 -12.5615,-20.445783 12.561667,20.446119 0 0 0 -3.97806,1.097607 57.062046,57.062046 0 0 0 -56.02397,-46.266426 z"
           inkscape:label="shadowdark" /><path
           id="path11"
           style="fill:url(#linearGradient12);fill-opacity:1;stroke-width:9.05801;stroke-linecap:round;stroke-linejoin:round;stroke-miterlimit:2.1"
           d="M 127.35398,46.237488 A 57.062046,57.062046 0 0 0 71.367737,92.902856 12.561667,20.446119 0 0 0 67.084794,91.673474 12.561667,20.446119 0 0 0 54.52277,112.11977 a 12.561667,20.446119 0 0 0 12.562024,20.44578 12.561667,20.446119 0 0 0 8.459949,-5.38572 57.062046,57.062046 0 0 0 51.809237,33.18196 57.062046,57.062046 0 0 0 51.7741,-33.11736 12.561667,20.446119 0 0 0 8.22793,5.05395 12.561667,20.446119 0 0 0 12.5615,-20.44629 12.561667,20.446119 0 0 0 -12.5615,-20.445783 12.561667,20.446119 0 0 0 -3.97806,1.097607 57.062046,57.062046 0 0 0 -56.02397,-46.266426 z"
           inkscape:label="shadowlight" /></g><g
         id="rect1"
         inkscape:label="body"><path
           style="color:#000000;fill:#53a451;stroke-linecap:round;stroke-linejoin:round;stroke-miterlimit:2.1;-inkscape-stroke:none;fill-opacity:1"
           d="m 55.859325,198.58126 c 8.842502,-13.83948 44.708365,-20.7039 44.708365,-20.7039 -0.45892,18.11441 12.31773,21.75057 22.91083,22.04024 10.12456,0.27686 21.41446,-5.26893 23.01597,-19.83723 0,0 36.3252,5.64405 44.72659,18.50089 7.35884,11.2614 0,40.3577 0,40.3577 l -135.361755,0 c 0,0 -7.243074,-29.0215 0,-40.3577 z"
           id="path17"
           sodipodi:nodetypes="scscsccs" /><path
           id="path18"
           style="color:#000000;fill:#286a25;stroke-linecap:round;stroke-linejoin:round;stroke-miterlimit:2.1;-inkscape-stroke:none;fill-opacity:1"
           inkscape:label="frame"
           d="m 100.74941,176.20837 c -0.16596,-0.0181 -0.33369,-0.0113 -0.49765,0.0202 0,0 -9.066488,1.73285 -19.265489,5.22242 -10.199001,3.48957 -21.633045,8.54541 -26.541015,16.22692 -4.108256,6.42987 -3.891775,16.70134 -2.972429,25.50748 0.919347,8.80614 2.757455,16.16026 2.757455,16.16026 0.186922,0.74738 0.858443,1.27168 1.628841,1.27175 l 135.820777,0 c 0.7686,6.5e-4 1.43953,-0.52063 1.62885,-1.26555 0,0 1.86665,-7.37452 2.80086,-16.19178 0.93422,-8.81727 1.15823,-19.09813 -3.02359,-25.49767 -4.7031,-7.19725 -18.5057,-11.69269 -28.13485,-14.75207 -9.62915,-3.05938 -18.17977,-4.48655 -18.17977,-4.48655 l -0.31264,3.36197 c 1.96326,0.35457 9.48744,1.78609 17.4749,4.32387 9.36936,2.97685 22.64392,7.73084 26.3422,13.3904 3.177,4.86183 3.39939,14.76039 2.4939,23.30659 -0.78225,7.38296 -2.05648,12.85895 -2.43913,14.45338 l -133.117585,0 c -0.378537,-1.59914 -1.63111,-7.05543 -2.40037,-14.42393 -0.891418,-8.53863 -0.67397,-18.44523 2.460832,-23.35155 3.934516,-6.15794 14.854487,-11.45292 24.799003,-14.85542 8.329227,-2.84984 16.663873,-4.15833 18.90411,-4.62075 z"
           sodipodi:nodetypes="ccsssccccsssccsssccssscc" /></g><g
         id="g25"
         inkscape:label="hair"><path
           id="path14"
           style="stroke-width:9.05801;stroke-linecap:round;stroke-linejoin:round;stroke-miterlimit:2.1;fill:#603600;fill-opacity:1"
           d="M 182.18452,103.37648 C 162.84473,31.10727 139.88287,69.750499 129.45683,69.92559 c -6.95652,0.116825 -15.66809,5.16601 -12.67726,6.875058 -4.09724,-5.593727 2.45799,-7.953541 1.36999,-8.185199 -5.51709,-1.174707 -12.98371,7.065537 -11.1526,10.626039 -2.18239,0.0704 -2.15109,-13.055176 1.76265,-13.822093 6.04973,-1.185476 -10.295072,-4.875309 -14.221552,-5.207516 -7.85296,-0.664415 -12.98027,7.326732 -18.56485,42.219661 -17.27184,-4.571958 -13.24961,-79.380825 50.081842,-82.020834 63.14677,-2.632311 69.04216,79.276437 56.12947,82.965774 z"
           sodipodi:nodetypes="cscscsscsc"
           inkscape:label="color" /><path
           id="path21"
           style="fill:url(#radialGradient23);fill-opacity:1;stroke-width:9.05801;stroke-linecap:round;stroke-linejoin:round;stroke-miterlimit:2.1"
           d="M 182.18452,103.37648 C 162.84473,31.10727 139.88287,69.750499 129.45683,69.92559 c -6.95652,0.116825 -15.66809,5.16601 -12.67726,6.875058 -4.09724,-5.593727 2.45799,-7.953541 1.36999,-8.185199 -5.51709,-1.174707 -12.98371,7.065537 -11.1526,10.626039 -2.18239,0.0704 -2.15109,-13.055176 1.76265,-13.822093 6.04973,-1.185476 -10.295072,-4.875309 -14.221552,-5.207516 -7.85296,-0.664415 -12.98027,7.326732 -18.56485,42.219661 -17.27184,-4.571958 -13.24961,-79.380825 50.081842,-82.020834 63.14677,-2.632311 69.04216,79.276437 56.12947,82.965774 z"
           sodipodi:nodetypes="cscscsscsc"
           inkscape:label="path14" /></g></g></g><g
     id="layer2"
     inkscape:label="Pencil"
     transform="matrix(1.3064832,0,0,1.3064832,-72.684614,37.381465)"
     style="display:inline"><g
       fill-rule="evenodd"
       id="g79"
       style="display:inline"
       transform="matrix(1.3647254,0,0,1.3647254,113.90656,-14.154194)"><path
         d="m 1.9475,121.76 29.383,-13.68 0.13666,-0.15633 -19.256,-17.827 -0.18527,0.21173 z"
         fill="#b3925d"
         stroke-width="1.4512"
         id="path77" /><path
         transform="matrix(1.4512,0,0,1.4512,-61.532086,-48.335276)"
         d="m 97.75,56.002 c -1.0258,-0.04502 -1.882,0.61454 -2.6656,0.98657 -4.1749,3.6988 -21.569,21.653 -22,22.169 l -17.273,20.66 -0.10663,0.11607 -9.6823,17.633 23.599,-5.2617 29.942,-36.049 3.5897,-4.2945 c 0.64726,-1.1998 1.2386,-7.8135 -1.7416,-12.767 -1.453,-2.4153 -2.635,-3.1468 -3.6608,-3.1918 z m 5.4024,15.959 c -0.0266,0.04924 -0.0446,0.14382 -0.0711,0.1741 -0.0129,0.01476 1.4925,-1.0494 0.6753,-0.8705 z"
         fill="url(#av)"
         filter="url(#ax)"
         id="path78"
         style="fill:url(#av)" /><path
         d="m 3.4075,120.34 27.406,-12.742 0.13665,-0.15628 -18.215,-16.847 -0.18531,0.21176 z"
         fill="url(#ai)"
         stroke-width="1.4512"
         id="path79"
         style="fill:url(#ai)" /></g><rect
       transform="matrix(-0.75145934,-0.65977942,-0.58931334,0.80790457,0,0)"
       x="-218.94919"
       y="-147.12846"
       width="10.585639"
       height="2.3069186"
       fill="url(#ad)"
       id="rect92"
       style="fill:url(#ad);stroke-width:1.36472" /><path
       d="m 143.16953,123.00967 c 3.26578,2.97293 5.45712,2.99165 6.62451,4.05436 0.18863,0.17176 0.34718,0.37344 0.48284,0.57765 L 238.68652,26.10884 225.85183,14.425158 137.27433,116.15039 c 0.42533,0.11141 0.82361,0.26667 1.19284,0.60256 1.06702,0.97135 1.42163,3.27028 4.70257,6.25698 z"
       fill="url(#au)"
       id="path80"
       style="display:inline;fill:url(#au);stroke:#fbdb06;stroke-width:1.00032;stroke-dasharray:none;stroke-opacity:1;paint-order:stroke fill markers" /><path
       d="m 152.64838,122.55033 -3.46627,3.9644 c 1.067,1.05152 0.8549,2.90252 2.81625,4.68782 2.11369,1.92414 3.22853,0.90807 4.59817,2.14785 l 3.50816,-4.01248 z"
       opacity="0.35349"
       id="path81"
       style="display:none;stroke-width:1.36472" /><path
       d="M 237.68442,24.870126 149.34165,126.32652 c 1.07262,1.05672 1.0248,2.72797 2.99612,4.5226 2.12446,1.93395 3.07978,1.1017 4.45637,2.34788 L 245.17922,31.692791 Z"
       fill="url(#at)"
       id="path82"
       style="display:inline;fill:url(#at);stroke:none;stroke-width:1.36472;stroke-opacity:1" /><path
       transform="matrix(0.76346831,-0.87215506,-3.4351502,-3.1222188,169.78933,125.21156)"
       d="m 82.173,7.4623 a 47.495,0.97142 0 1 1 -94.99,0 47.495,0.97142 0 1 1 94.99,0 z"
       fill="url(#aq)"
       filter="url(#aw)"
       id="path86"
       style="display:none;fill:url(#aq);stroke:none;stroke-opacity:1" /><path
       d="m 139.61526,114.01397 -1.77811,2.0336 -0.0684,0.0748 c 0.88631,0.83214 0.78373,2.75304 3.71997,5.66593 l 0.163,0.14855 1.16124,1.05703 0.16299,0.14855 c 3.20097,2.67392 5.04376,2.31172 6.21101,3.37443 l 1.87677,-2.17034 z"
       fill="#252525"
       opacity="0.38605"
       id="path83"
       style="display:none;fill:#e8b508;fill-opacity:1;stroke-width:1.36472" /><path
       d="m 132.1775,107.20399 -1.86326,1.89207 c 0.0407,0.0361 -0.10522,0.20735 -0.0641,0.24449 0.83776,0.76266 0.81759,2.70981 2.35633,4.36084 l 0.14262,0.12999 0.63155,0.57491 0.0815,0.0743 c 1.8335,1.42903 3.37155,0.91813 4.3083,1.64232 l 1.86339,-2.13114 z"
       fill="#131313"
       opacity="0.35349"
       id="path84"
       style="display:none;stroke-width:1.36472" /><path
       d="m 133.40576,113.47195 c 2.04435,1.84033 3.44251,1.20909 4.53116,2.19995 L 226.27968,14.215446 218.70532,7.3204656 130.32025,108.82463 c 0.0413,0.0361 0.0824,0.0753 0.1242,0.11296 0.85104,0.77468 0.90142,2.67948 2.96118,4.53384 z"
       fill="url(#as)"
       id="path85"
       style="display:inline;fill:url(#as);stroke-width:1.36472" /><path
       d="m 230.75162,8.6162339 -5.49344,6.3732981 12.83852,11.632928 5.49343,-6.311453 z"
       fill="url(#am)"
       id="path90"
       style="fill:url(#am);stroke-width:1.36472" /><rect
       transform="matrix(0.74093115,0.671581,-0.66556774,0.74633743,0,0)"
       x="168.32755"
       y="-148.53148"
       width="35.793964"
       height="8.4216127"
       fill="url(#ar)"
       id="rect85"
       style="display:inline;fill:url(#ar);stroke-width:1.36502;stroke-dasharray:none" /><path
       d="m 80.408,11.885 c 0.89053,-1.0044 6.7462,-0.52688 12.98,5.1322 6.295,5.7145 7.5609,11.244 6.4454,12.502 -0.72604,0.81889 -1.4521,1.6378 -2.1782,2.4567 -6.4752,-5.8781 -12.95,-11.756 -19.425,-17.634 0.72605,-0.81889 1.4521,-1.6378 2.1782,-2.4567 z"
       fill="#bf0000"
       stroke-width="1.4512"
       id="path76"
       style="display:inline;fill:#bf5600;fill-opacity:1"
       transform="matrix(1.3647254,0,0,1.3647254,113.90656,-14.154194)" /><path
       d="m 133.84247,144.05844 c -3.75286,-1.54121 -8.85161,-7.79547 -11.46301,-10.05777 l -5.80909,18.0021 z"
       fill="url(#ap)"
       fill-rule="evenodd"
       id="path88"
       style="fill:url(#ap);stroke-width:1.36472" /><path
       d="m 238.72161,7.3470519 c 5.49261,4.2736241 9.41688,10.1732091 9.63292,10.7397141 0.21596,0.566557 -5.12332,-6.033332 -9.66145,-9.0555181 -4.50332,-2.9991291 -10.79552,-3.0741783 -11.26048,-3.4393659 -0.46499,-0.3651876 -3.6097,-3.7178989 -0.75697,-3.594158 2.98383,0.1294662 7.8035,2.0514466 12.04589,5.3493279 z"
       fill="url(#an)"
       fill-rule="evenodd"
       id="path89"
       style="fill:url(#an);stroke-width:1.365;stroke-dasharray:none" /><rect
       transform="matrix(0.74041725,0.67214753,-0.66342358,0.74824405,0,0)"
       x="178.98169"
       y="-149.94649"
       width="15.439196"
       height="3.3828633"
       fill="url(#af)"
       id="rect90"
       style="fill:url(#af);stroke-width:1.36472" /><rect
       transform="matrix(0.69422142,0.71976149,-0.76933978,0.63883979,0,0)"
       x="144.8437"
       y="-160.84276"
       width="10.592567"
       height="2.3022923"
       fill="url(#ae)"
       id="rect91"
       style="fill:url(#ae);stroke-width:1.36472" /></g></svg>
