<?xml version="1.0" encoding="UTF-8" standalone="no"?>
<!-- Created with Inkscape (http://www.inkscape.org/) -->

<svg
   width="256mm"
   height="256mm"
   viewBox="0 0 256 256"
   version="1.1"
   id="svg1"
   inkscape:version="1.4.2 (ebf0e940d0, 2025-05-08)"
   xml:space="preserve"
   sodipodi:docname="view-barcode-add.svg"
   xmlns:inkscape="http://www.inkscape.org/namespaces/inkscape"
   xmlns:sodipodi="http://sodipodi.sourceforge.net/DTD/sodipodi-0.dtd"
   xmlns:xlink="http://www.w3.org/1999/xlink"
   xmlns="http://www.w3.org/2000/svg"
   xmlns:svg="http://www.w3.org/2000/svg"
   xmlns:rdf="http://www.w3.org/1999/02/22-rdf-syntax-ns#"
   xmlns:cc="http://creativecommons.org/ns#"
   xmlns:dc="http://purl.org/dc/elements/1.1/"><defs
     id="defs1"><radialGradient
       cx="38.797401"
       cy="112.9609"
       r="67.358803"
       fx="38.797401"
       fy="112.9609"
       id="bluelightlesstoblue"
       gradientUnits="userSpaceOnUse"><stop
         style="stop-color:#d9ffff;stop-opacity:1.0000000;"
         offset="0.0055999998"
         id="stop3468" /><stop
         style="stop-color:#6eaafe;stop-opacity:1.0000000;"
         offset="0.24089479"
         id="stop3469" /><stop
         style="stop-color:#0356fe;stop-opacity:1.0000000;"
         offset="1.0000000"
         id="stop3470" /></radialGradient><linearGradient
       x1="-229.39058"
       y1="289.30026"
       x2="-203.84911"
       y2="289.30026"
       id="linearGradient3471"
       collect="always"
       xlink:href="#bluelightlesstoblue"
       gradientTransform="matrix(1.395481,0,0,0.716599,337.6102,-241.4638)"
       gradientUnits="userSpaceOnUse" /><radialGradient
       inkscape:collect="always"
       xlink:href="#light75to0"
       id="radialGradient3045"
       gradientUnits="userSpaceOnUse"
       gradientTransform="matrix(1.153166,0,0,0.567477,69.26162,208.4443)"
       cx="17.741598"
       cy="31.72328"
       fx="17.741598"
       fy="31.72328"
       r="9.2936869" /><linearGradient
       inkscape:collect="always"
       xlink:href="#light75to0"
       id="linearGradient3044"
       gradientUnits="userSpaceOnUse"
       gradientTransform="matrix(1.273506,0,0,0.575045,68.79433,207.2818)"
       x1="5.6831765"
       y1="21.673885"
       x2="14.964557"
       y2="41.796101" /><linearGradient
       inkscape:collect="always"
       xlink:href="#garylighttowite"
       id="linearGradient3043"
       gradientUnits="userSpaceOnUse"
       gradientTransform="matrix(1.157103,0,0,0.569763,69.20782,208.5642)"
       x1="14.699177"
       y1="30.518322"
       x2="-0.95806932"
       y2="6.8631005" /><linearGradient
       inkscape:collect="always"
       xlink:href="#greantodarkgrean"
       id="linearGradient3042"
       gradientUnits="userSpaceOnUse"
       gradientTransform="matrix(1.425104,0,0,0.701703,-3.146582,10.46599)"
       x1="56.601124"
       y1="298.93405"
       x2="63.028267"
       y2="306.9472" /><radialGradient
       inkscape:collect="always"
       xlink:href="#light75to0"
       id="radialGradient3028"
       gradientUnits="userSpaceOnUse"
       gradientTransform="matrix(1.153166,0,0,0.567477,112.9949,197.5797)"
       cx="17.741598"
       cy="31.72328"
       fx="17.741598"
       fy="31.72328"
       r="9.2936869" /><linearGradient
       inkscape:collect="always"
       xlink:href="#light75to0"
       id="linearGradient3027"
       gradientUnits="userSpaceOnUse"
       gradientTransform="matrix(1.273506,0,0,0.575045,112.5276,196.4172)"
       x1="5.6831765"
       y1="21.673885"
       x2="14.964557"
       y2="41.796101" /><radialGradient
       inkscape:collect="always"
       xlink:href="#light75to0"
       id="radialGradient3236"
       gradientUnits="userSpaceOnUse"
       gradientTransform="matrix(1.127833,0,0,0.901321,100.6636,170.9705)"
       cx="54.483288"
       cy="66.623512"
       fx="54.483288"
       fy="66.623512"
       r="22.013363" /><linearGradient
       inkscape:collect="always"
       xlink:href="#garylighttowite"
       id="linearGradient3026"
       gradientUnits="userSpaceOnUse"
       gradientTransform="matrix(1.157103,0,0,0.569763,112.9411,197.6996)"
       x1="14.699177"
       y1="30.518322"
       x2="-0.95806932"
       y2="6.8631005" /><linearGradient
       inkscape:collect="always"
       xlink:href="#greantodarkgrean"
       id="linearGradient3025"
       gradientUnits="userSpaceOnUse"
       gradientTransform="matrix(1.425104,0,0,0.701703,40.58671,-0.398568)"
       x1="56.601124"
       y1="298.93405"
       x2="63.028267"
       y2="306.9472" /><linearGradient
       inkscape:collect="always"
       xlink:href="#light75to0"
       id="linearGradient3235"
       gradientUnits="userSpaceOnUse"
       gradientTransform="scale(1.178997,0.848179)"
       x1="65.49279"
       y1="177.25127"
       x2="128.39543"
       y2="264.10431" /><radialGradient
       inkscape:collect="always"
       xlink:href="#light75to0"
       id="radialGradient3049"
       gradientUnits="userSpaceOnUse"
       gradientTransform="matrix(1.153166,0,0,0.567477,69.26162,208.4443)"
       cx="17.741598"
       cy="31.72328"
       fx="17.741598"
       fy="31.72328"
       r="9.2936869" /><linearGradient
       id="greantodarkgrean"><stop
         style="stop-color:#00ff01;stop-opacity:1.0000000;"
         offset="0.0000000"
         id="stop5123" /><stop
         style="stop-color:#15980f;stop-opacity:1.0000000;"
         offset="1.0000000"
         id="stop5124" /></linearGradient><radialGradient
       inkscape:collect="always"
       xlink:href="#light75to0"
       id="radialGradient3234"
       gradientUnits="userSpaceOnUse"
       gradientTransform="matrix(1.137235,0,0,0.901321,99.9098,171.3698)"
       cx="57.165112"
       cy="68.95816"
       fx="57.165112"
       fy="68.95816"
       r="32.89352" /><radialGradient
       inkscape:collect="always"
       xlink:href="#light75to0"
       id="radialGradient3233"
       gradientUnits="userSpaceOnUse"
       gradientTransform="matrix(0.752677,0,0,0.567477,102.8777,215.8329)"
       cx="17.741598"
       cy="31.72328"
       fx="17.741598"
       fy="31.72328"
       r="9.2936869" /><linearGradient
       inkscape:collect="always"
       xlink:href="#light75to0"
       id="linearGradient3232"
       gradientUnits="userSpaceOnUse"
       gradientTransform="matrix(0.831223,0,0,0.575045,102.4739,214.7439)"
       x1="5.6831765"
       y1="21.673885"
       x2="14.964557"
       y2="41.796101" /><linearGradient
       inkscape:collect="always"
       xlink:href="#garylighttowite"
       id="linearGradient3231"
       gradientUnits="userSpaceOnUse"
       gradientTransform="matrix(0.755246,0,0,0.569763,102.7439,216.0263)"
       x1="14.699177"
       y1="30.518322"
       x2="-0.95806932"
       y2="6.8631005" /><linearGradient
       inkscape:collect="always"
       xlink:href="#garylighttowite"
       id="linearGradient3230"
       gradientUnits="userSpaceOnUse"
       gradientTransform="matrix(0.755259,0,0,0.569753,102.7439,216.0263)"
       x1="22.979046"
       y1="53.585712"
       x2="6.4564261"
       y2="20.178543" /><radialGradient
       inkscape:collect="always"
       xlink:href="#light75to0"
       id="radialGradient3229"
       gradientUnits="userSpaceOnUse"
       gradientTransform="matrix(0.752677,0,0,0.567477,102.9901,207.0938)"
       cx="17.741598"
       cy="31.72328"
       fx="17.741598"
       fy="31.72328"
       r="9.2936869" /><linearGradient
       inkscape:collect="always"
       xlink:href="#light75to0"
       id="linearGradient3228"
       gradientUnits="userSpaceOnUse"
       gradientTransform="matrix(0.831223,0,0,0.575045,102.4739,205.7799)"
       x1="5.6831765"
       y1="21.673885"
       x2="14.964557"
       y2="41.796101" /><linearGradient
       inkscape:collect="always"
       xlink:href="#garylighttowite"
       id="linearGradient3227"
       gradientUnits="userSpaceOnUse"
       gradientTransform="matrix(0.755246,0,0,0.569763,102.7439,207.0623)"
       x1="14.699177"
       y1="30.518322"
       x2="-0.95806932"
       y2="6.8631005" /><linearGradient
       inkscape:collect="always"
       xlink:href="#garylighttowite"
       id="linearGradient3226"
       gradientUnits="userSpaceOnUse"
       gradientTransform="matrix(0.755259,0,0,0.569753,102.7439,207.0623)"
       x1="22.979046"
       y1="53.585712"
       x2="6.4564261"
       y2="20.178543" /><radialGradient
       inkscape:collect="always"
       xlink:href="#light75to0"
       id="radialGradient3221"
       gradientUnits="userSpaceOnUse"
       gradientTransform="matrix(0.752677,0,0,0.567477,102.7651,189.0531)"
       cx="17.741598"
       cy="31.72328"
       fx="17.741598"
       fy="31.72328"
       r="9.2936869" /><linearGradient
       inkscape:collect="always"
       xlink:href="#light75to0"
       id="linearGradient3220"
       gradientUnits="userSpaceOnUse"
       gradientTransform="matrix(0.831223,0,0,0.575045,102.4739,187.8517)"
       x1="5.6831765"
       y1="21.673885"
       x2="14.964557"
       y2="41.796101" /><linearGradient
       inkscape:collect="always"
       xlink:href="#garylighttowite"
       id="linearGradient3219"
       gradientUnits="userSpaceOnUse"
       gradientTransform="matrix(0.755246,0,0,0.569763,102.7439,189.1341)"
       x1="14.699177"
       y1="30.518322"
       x2="-0.95806932"
       y2="6.8631005" /><linearGradient
       inkscape:collect="always"
       xlink:href="#garylighttowite"
       id="linearGradient3218"
       gradientUnits="userSpaceOnUse"
       gradientTransform="matrix(0.755259,0,0,0.569753,102.7439,189.1341)"
       x1="22.979046"
       y1="53.585712"
       x2="6.4564261"
       y2="20.178543" /><radialGradient
       inkscape:collect="always"
       xlink:href="#light75to0"
       id="radialGradient3217"
       gradientUnits="userSpaceOnUse"
       gradientTransform="matrix(0.752677,0,0,0.567477,103.1026,180.3285)"
       cx="17.741598"
       cy="31.72328"
       fx="17.741598"
       fy="31.72328"
       r="9.2936869" /><linearGradient
       inkscape:collect="always"
       xlink:href="#light75to0"
       id="linearGradient3216"
       gradientUnits="userSpaceOnUse"
       gradientTransform="matrix(0.831223,0,0,0.575045,102.4739,178.902)"
       x1="5.6831765"
       y1="21.673885"
       x2="14.964557"
       y2="41.796101" /><linearGradient
       inkscape:collect="always"
       xlink:href="#garylighttowite"
       id="linearGradient3215"
       gradientUnits="userSpaceOnUse"
       gradientTransform="matrix(0.755246,0,0,0.569763,102.7439,180.1844)"
       x1="14.699177"
       y1="30.518322"
       x2="-0.95806932"
       y2="6.8631005" /><linearGradient
       inkscape:collect="always"
       xlink:href="#garylighttowite"
       id="linearGradient3214"
       gradientUnits="userSpaceOnUse"
       gradientTransform="matrix(0.755259,0,0,0.569753,102.7439,180.1844)"
       x1="22.979046"
       y1="53.585712"
       x2="6.4564261"
       y2="20.178543" /><linearGradient
       id="bludraktowhite"
       gradientUnits="userSpaceOnUse"
       x1="33.332001"
       y1="10.3052"
       x2="33.332001"
       y2="91.4077"><stop
         offset="0"
         style="stop-color:rgb(255,255,255)"
         id="stop7271" /><stop
         offset="1"
         style="stop-color:rgb(84,84,119)"
         id="stop7273" /></linearGradient><radialGradient
       inkscape:collect="always"
       xlink:href="#light75to0"
       id="radialGradient5543"
       gradientUnits="userSpaceOnUse"
       gradientTransform="matrix(0.752677,0,0,0.567477,102.6417,198.2288)"
       cx="17.741598"
       cy="31.72328"
       fx="17.741598"
       fy="31.72328"
       r="9.2936869" /><linearGradient
       id="light75to0"><stop
         style="stop-color:#ffffff;stop-opacity:0.72916669;"
         offset="0.0000000"
         id="stop2769" /><stop
         style="stop-color:#ffffff;stop-opacity:0.0000000;"
         offset="1.0000000"
         id="stop2770" /></linearGradient><linearGradient
       inkscape:collect="always"
       xlink:href="#light75to0"
       id="linearGradient5544"
       gradientUnits="userSpaceOnUse"
       gradientTransform="matrix(0.831223,0,0,0.575045,102.539,196.7913)"
       x1="5.6831765"
       y1="21.673885"
       x2="14.964557"
       y2="41.796101" /><linearGradient
       inkscape:collect="always"
       xlink:href="#garylighttowite"
       id="linearGradient5546"
       gradientUnits="userSpaceOnUse"
       gradientTransform="matrix(0.755246,0,0,0.569763,102.809,198.0737)"
       x1="14.699177"
       y1="30.518322"
       x2="-0.95806932"
       y2="6.8631005" /><linearGradient
       id="greandarktobgrean"><stop
         style="stop-color:#00ad01;stop-opacity:1.0000000;"
         offset="0.0000000"
         id="stop4492" /><stop
         style="stop-color:#15720f;stop-opacity:1.0000000;"
         offset="1.0000000"
         id="stop4493" /></linearGradient><linearGradient
       inkscape:collect="always"
       xlink:href="#greandarktobgrean"
       id="linearGradient5545"
       gradientUnits="userSpaceOnUse"
       gradientTransform="matrix(0.930171,0,0,0.701703,55.58287,-0.02453)"
       x1="56.601124"
       y1="298.93405"
       x2="63.028267"
       y2="306.9472" /><linearGradient
       inkscape:collect="always"
       xlink:href="#garylighttowite"
       id="linearGradient3197"
       gradientUnits="userSpaceOnUse"
       gradientTransform="matrix(1.161778,0,0,0.958139,92.30482,170.1421)"
       x1="60.118301"
       y1="60.763058"
       x2="22.065891"
       y2="17.787029" /><linearGradient
       id="garylighttowite"><stop
         style="stop-color:#7d7d7d;stop-opacity:1.0000000;"
         offset="0.0000000"
         id="stop5106" /><stop
         style="stop-color:#d3d4d4;stop-opacity:1.0000000;"
         offset="1.0000000"
         id="stop5107" /></linearGradient><linearGradient
       inkscape:collect="always"
       xlink:href="#garylighttowite"
       id="linearGradient3196"
       gradientUnits="userSpaceOnUse"
       gradientTransform="matrix(1.161778,0,0,0.958139,92.30482,170.1421)"
       x1="58.493671"
       y1="51.05872"
       x2="9.8675079"
       y2="8.7825632" /><linearGradient
       id="graytolightgray"><stop
         style="stop-color:#d4d3d3;stop-opacity:1.0000000;"
         offset="0.0000000"
         id="stop5101" /><stop
         style="stop-color:#ffffff;stop-opacity:1.0000000;"
         offset="1.0000000"
         id="stop5102" /></linearGradient><linearGradient
       inkscape:collect="always"
       xlink:href="#graytolightgray"
       id="linearGradient3195"
       gradientUnits="userSpaceOnUse"
       gradientTransform="matrix(1.13497,0,0,0.894659,98.89866,170.7963)"
       x1="57.453247"
       y1="65.521439"
       x2="8.0769463"
       y2="17.892019" /><radialGradient
       inkscape:collect="always"
       xlink:href="#greandarktobgrean"
       id="radialGradient9371"
       gradientTransform="scale(0.999855,1.000145)"
       cx="78.732162"
       cy="52.096363"
       fx="78.732162"
       fy="52.096363"
       r="219.06058"
       gradientUnits="userSpaceOnUse" /><radialGradient
       inkscape:collect="always"
       xlink:href="#light100to0"
       id="radialGradient3143"
       gradientTransform="scale(0.999851,1.000149)"
       cx="232.0688"
       cy="333.0015"
       fx="232.0688"
       fy="333.0015"
       r="105.99626"
       gradientUnits="userSpaceOnUse" /><linearGradient
       id="light100to0"><stop
         style="stop-color:#ffffff;stop-opacity:1.0000000;"
         offset="0.0000000"
         id="stop2764" /><stop
         style="stop-color:#ffffff;stop-opacity:0.0000000;"
         offset="1.0000000"
         id="stop2765" /></linearGradient><linearGradient
       inkscape:collect="always"
       xlink:href="#light75to0"
       id="linearGradient10826"
       gradientUnits="userSpaceOnUse"
       gradientTransform="matrix(1.338395,0,0,0.594171,48.1017,-10.30535)"
       x1="5.6831765"
       y1="21.673885"
       x2="14.964557"
       y2="41.796101" /><linearGradient
       inkscape:collect="always"
       xlink:href="#bluelightlesstoblue"
       id="linearGradient10827"
       gradientUnits="userSpaceOnUse"
       gradientTransform="matrix(1.211573,0,0,0.58652,-9.072597,-9.15471)"
       x1="51.89975"
       y1="16.215153"
       x2="64.908592"
       y2="31.783899" /><linearGradient
       inkscape:collect="always"
       xlink:href="#garylighttowite"
       id="linearGradient10828"
       gradientUnits="userSpaceOnUse"
       gradientTransform="matrix(1.216061,0,0,0.588713,48.53626,-8.98029)"
       x1="14.699177"
       y1="30.518322"
       x2="-0.95806932"
       y2="6.8631005" /><linearGradient
       inkscape:collect="always"
       xlink:href="#light75to0"
       id="linearGradient10829"
       gradientUnits="userSpaceOnUse"
       gradientTransform="matrix(1.338395,0,0,0.594171,28.92128,-10.51407)"
       x1="5.6831765"
       y1="21.673885"
       x2="14.964557"
       y2="41.796101" /><linearGradient
       inkscape:collect="always"
       xlink:href="#bluelightlesstoblue"
       id="linearGradient10830"
       gradientUnits="userSpaceOnUse"
       gradientTransform="matrix(1.437254,0,0,0.695771,0,10)"
       x1="24.260241"
       y1="-11.936115"
       x2="37.231518"
       y2="3.0705032" /><linearGradient
       inkscape:collect="always"
       xlink:href="#garylighttowite"
       id="linearGradient10831"
       gradientUnits="userSpaceOnUse"
       gradientTransform="matrix(1.216061,0,0,0.588713,29.35585,-9.18901)"
       x1="14.699177"
       y1="30.518322"
       x2="-0.95806932"
       y2="6.8631005" /><linearGradient
       inkscape:collect="always"
       xlink:href="#light75to0"
       id="linearGradient10832"
       gradientUnits="userSpaceOnUse"
       gradientTransform="matrix(1.338395,0,0,0.594171,9.740965,-10.52894)"
       x1="5.6831765"
       y1="21.673885"
       x2="14.964557"
       y2="41.796101" /><linearGradient
       inkscape:collect="always"
       xlink:href="#bluelightlesstoblue"
       id="linearGradient10833"
       gradientUnits="userSpaceOnUse"
       gradientTransform="matrix(1.437254,0,0,0.695771,0,10)"
       x1="10.626847"
       y1="-12.486367"
       x2="30.964518"
       y2="12.172108" /><linearGradient
       inkscape:collect="always"
       xlink:href="#garylighttowite"
       id="linearGradient10834"
       gradientUnits="userSpaceOnUse"
       gradientTransform="matrix(1.216061,0,0,0.588713,10.17553,-9.20389)"
       x1="14.699177"
       y1="30.518322"
       x2="-0.95806932"
       y2="6.8631005" /><linearGradient
       inkscape:collect="always"
       xlink:href="#light75to0"
       id="linearGradient10835"
       gradientUnits="userSpaceOnUse"
       gradientTransform="matrix(0.873576,0,0,0.594171,-0.995256,-10.51231)"
       x1="5.6831765"
       y1="21.673885"
       x2="14.964557"
       y2="41.796101" /><linearGradient
       inkscape:collect="always"
       xlink:href="#bluelightlesstoblue"
       id="linearGradient10836"
       gradientUnits="userSpaceOnUse"
       gradientTransform="matrix(1.161159,0,0,0.861209,0,10)"
       x1="2.4107552"
       y1="-9.3231096"
       x2="30.756163"
       y2="17.80114" /><linearGradient
       inkscape:collect="always"
       xlink:href="#garylighttowite"
       id="linearGradient10837"
       gradientUnits="userSpaceOnUse"
       gradientTransform="matrix(0.793728,0,0,0.588713,-0.711603,-9.18726)"
       x1="14.699177"
       y1="30.518322"
       x2="-0.95806932"
       y2="6.8631005" /><linearGradient
       id="linearGradient12"
       inkscape:collect="always"><stop
         style="stop-color:#000000;stop-opacity:0.62066501;"
         offset="0"
         id="stop12" /><stop
         style="stop-color:#000000;stop-opacity:0;"
         offset="1"
         id="stop13" /></linearGradient><linearGradient
       id="b"><stop
         offset="0"
         stop-color="#fff"
         id="stop3" /><stop
         offset="1"
         stop-color="#fff"
         stop-opacity=".34020618"
         id="stop4" /></linearGradient><linearGradient
       id="a"><stop
         offset="0"
         stop-color="#729fcf"
         id="stop5" /><stop
         offset="1"
         stop-color="#5187d6"
         id="stop6" /></linearGradient><linearGradient
       xlink:href="#a"
       id="e"
       x1="34.892849"
       x2="45.918697"
       y1="36.422989"
       y2="48.547989"
       gradientTransform="translate(-19.258415,-13.57119)"
       gradientUnits="userSpaceOnUse" /><linearGradient
       xlink:href="#b"
       id="f"
       x1="16.874998"
       x2="27.900846"
       y1="22.851799"
       y2="34.976799"
       gradientUnits="userSpaceOnUse"
       gradientTransform="translate(-1.2405655)" /><radialGradient
       inkscape:collect="always"
       xlink:href="#linearGradient12"
       id="radialGradient13"
       cx="127.72987"
       cy="215.0219"
       fx="127.72987"
       fy="215.0219"
       r="127.43144"
       gradientTransform="matrix(1,0,0,0.31498829,0,147.29252)"
       gradientUnits="userSpaceOnUse" /></defs><sodipodi:namedview
     id="base"
     pagecolor="#ffffff"
     bordercolor="#000000"
     borderopacity="0.3"
     inkscape:pageopacity="0.0"
     inkscape:pageshadow="2"
     inkscape:zoom="0.49497475"
     inkscape:cx="790.94944"
     inkscape:cy="837.41646"
     inkscape:document-units="mm"
     inkscape:showpageshadow="2"
     inkscape:pagecheckerboard="0"
     inkscape:deskcolor="#d1d1d1"
     inkscape:current-layer="svg1" /><metadata
     id="metadata1"><rdf:RDF><cc:Work
         rdf:about=""><dc:format>image/svg+xml</dc:format><dc:type
           rdf:resource="http://purl.org/dc/dcmitype/StillImage" /><cc:license
           rdf:resource="http://creativecommons.org/publicdomain/zero/1.0/" /></cc:Work><cc:License
         rdf:about="http://creativecommons.org/publicdomain/zero/1.0/"><cc:permits
           rdf:resource="http://creativecommons.org/ns#Reproduction" /><cc:permits
           rdf:resource="http://creativecommons.org/ns#Distribution" /><cc:permits
           rdf:resource="http://creativecommons.org/ns#DerivativeWorks" /></cc:License></rdf:RDF></metadata><rect
     style="fill:#fefefe;fill-opacity:1;stroke:none;stroke-width:6.23362;stroke-linecap:round;stroke-linejoin:round;stroke-miterlimit:2.1"
     id="rect1"
     width="231.85371"
     height="230.88565"
     x="0.53453904"
     y="24.089474" /><path
     style="display:none;fill:#000000;stroke-width:0.905522"
     d="m 16.707263,212.21674 v -27.60668 h 27.491341 27.491343 v 27.60668 27.60668 H 44.198604 16.707263 Z m 47.77184,0 V 191.85115 H 44.198604 23.918107 v 20.36559 20.36558 H 44.198604 64.479103 Z M 32.931662,211.73713 V 199.9433 l 11.492281,0.25333 11.492282,0.25333 0.25227,11.54049 0.252268,11.5405 H 44.676212 32.931662 Z m 47.771839,24.46574 v -3.62055 h 3.605422 3.605422 v -4.52569 -4.52568 H 84.308923 80.703501 V 208.14362 192.7563 h 3.605422 3.605422 v 3.62054 3.62055 h 4.056102 4.056097 v -7.69366 -7.69367 h 4.056096 4.05611 v 11.76678 11.76678 h 3.60541 3.60542 v 4.07312 4.07311 h -7.66151 -7.661526 v 11.76678 11.76679 h -7.661522 -7.661521 z m 23.435249,-4.07312 v -7.69367 h 3.60541 3.60542 v 4.07312 4.07312 h 8.11221 8.1122 v -4.07312 -4.07312 h 8.11219 8.1122 v -4.07311 -4.07312 h 3.60542 3.60543 v 7.69367 7.69366 h -7.66152 -7.66153 v 4.07311 4.07313 h -15.77372 -15.77371 z m 55.88403,4.07312 v -3.62055 h 7.66153 7.66151 v 3.62055 3.62055 h -7.66151 -7.66153 z m 31.54745,0 v -3.62055 h 8.11219 8.1122 v -8.14624 -8.14623 h -4.05609 -4.05611 v -4.07311 -4.07312 h 7.66152 7.66153 v 15.8399 15.8399 H 203.28785 191.57023 Z M 120.36314,219.9104 v -3.62055 h 3.60542 3.60543 v 3.62055 3.62055 h -3.60543 -3.60542 z m 71.20709,0 v -3.62055 h -8.11221 -8.1122 v -4.07311 -4.07312 h -4.0561 -4.05609 v 4.07312 4.07311 h -7.66153 -7.66152 v -4.07311 -4.07312 h -19.82982 -19.82982 v -4.07311 -4.07312 h 15.77373 15.77371 v -8.14624 -8.14623 h -8.1122 -8.11219 v -4.07311 -4.07312 h -7.66153 -7.66152 v -3.62055 -3.62054 h 7.6097 7.60969 l 0.27717,-3.84684 c 0.27518,-3.81941 0.30412,-3.84879 4.05851,-4.12273 3.74583,-0.27331 3.78393,-0.31158 4.05611,-4.07312 0.27278,-3.77015 0.30204,-3.7992 4.10551,-4.07554 3.81213,-0.27697 3.83075,-0.29567 3.83075,-3.84683 0,-3.55983 0.009,-3.5685 3.60542,-3.5685 h 3.60543 v 7.69366 7.69366 h -3.60543 -3.60542 v 4.07312 4.07312 h 4.0561 4.0561 v -4.07312 -4.07312 h 3.60543 3.60541 v 4.07312 4.07312 h 24.3366 24.3366 v -4.07312 -4.07312 h -4.05609 -4.05611 v -4.07311 -4.07312 h 7.66152 7.66153 v 11.73154 11.73154 l -7.88687,0.26153 -7.88686,0.26152 -0.27716,3.84683 -0.27716,3.84683 h -7.6097 -7.6097 v 12.21936 12.21934 h 4.0561 4.05611 v -4.07311 -4.07312 h 3.60541 3.60542 v 4.07312 4.07311 h -3.60542 -3.60541 v 4.07312 4.07311 h 3.60541 3.60542 v 3.62055 3.62055 h -3.60542 -3.60541 z m -16.22441,-32.15863 v -12.24562 l -11.94295,0.25255 -11.94296,0.25256 -0.25151,11.99306 -0.2515,11.99307 h 12.19446 12.19446 z m -15.32304,0.47884 v -3.62055 h 3.60542 3.60543 v 3.62055 3.62054 h -3.60543 -3.60542 z m -47.77184,0 v -3.62055 h 7.66152 7.66153 v 3.62055 3.62054 h -7.66153 -7.66152 z m 87.43148,0 v -3.62055 h 7.66152 7.66153 v 3.62055 3.62054 h -7.66153 -7.66152 z M 80.703501,176.01126 v -7.69366 h -4.0561 -4.056099 v -4.07312 -4.07312 h -4.0561 -4.056099 v -4.07311 -4.07312 h 11.717621 11.717621 v -4.07311 -4.07313 h -19.82982 -19.82982 v -3.62054 -3.62055 h 23.885919 23.88592 v 4.07312 4.07312 h 4.056096 4.05611 v 3.62055 3.62054 h -4.05611 -4.056096 v 4.02108 4.02107 l 3.830757,0.27832 c 3.822129,0.27771 3.830769,0.2865 3.830769,3.89888 0,3.61238 -0.009,3.62117 -3.830769,3.89887 l -3.830757,0.27833 v -4.12516 -4.12516 h -4.056097 -4.056102 v 8.14624 8.14623 h 4.056102 4.056097 v 3.62054 3.62055 h -7.661522 -7.661521 z m 23.435249,4.07311 v -3.62054 h 3.60541 3.60542 v 3.62054 3.62055 h -3.60542 -3.60541 z M 16.707263,152.02513 v -23.53356 h 7.661521 7.661522 v 3.62055 3.62054 h -4.0561 -4.056099 v 4.52569 4.52569 h 4.056099 4.0561 v 3.62055 3.62054 h -4.0561 -4.056099 v 11.76678 11.76678 h -3.605422 -3.605422 z m 23.435242,19.91301 v -3.62054 h -3.605421 -3.605422 v -8.14624 -8.14623 h 3.605422 3.605421 v -3.62054 -3.62055 h 4.056099 4.056101 v 7.69366 7.69366 h 4.056099 4.0561 v 7.69367 7.69366 h -8.112199 -8.1122 z m 24.336598,0 v -3.62054 h 3.605422 3.605422 v 3.62054 3.62055 h -3.605422 -3.605422 z m 95.543677,-15.83989 v -4.07312 h 3.60542 3.60543 v 4.07312 4.07311 h -3.60543 -3.60542 z m 23.43524,-4.07312 v -8.14624 h -4.05609 -4.05611 v -4.07311 -4.07312 h -3.60542 -3.60542 v -3.62054 -3.62055 h 3.60542 3.60542 v -4.07312 -4.07311 h -3.60542 -3.60542 v -4.07312 -4.07311 h -4.0561 -4.0561 v -3.62055 -3.62055 h 19.37915 19.37913 v 3.62055 3.62055 h -3.60542 -3.60541 v 4.07311 4.07312 h 4.05609 4.0561 v -4.07312 -4.07311 h 3.60543 3.60542 v 4.07311 4.07312 h 4.05609 4.05611 v 11.76678 11.76677 h -3.60543 -3.60542 v -4.07311 -4.07312 h -4.05609 -4.05611 v -3.62054 -3.62055 h -4.0561 -4.05609 v 4.07311 4.07312 h 3.60541 3.60542 v 3.62055 3.62054 h -3.60542 -3.60541 v 8.14624 8.14623 h -4.05611 -4.0561 z m 8.11221,-27.60668 v -4.07311 h -4.05611 -4.0561 v -4.07312 -4.07311 h -4.05609 -4.05611 v 4.07311 4.07312 h 4.05611 4.05609 v 4.07311 4.07312 h 4.0561 4.05611 z m -79.31929,19.46044 v -8.14623 h -8.11219 -8.112206 v -3.62054 -3.62055 h 4.056096 4.05611 v -8.14623 -8.14623 h -4.05611 -4.056096 v -4.07312 -4.07312 H 88.365022 80.703501 V 80.519312 56.985752 h 7.661521 7.661522 v 3.620548 3.620548 h -4.056097 -4.056102 v 8.146232 8.146232 h 8.112199 8.112206 V 72.37308 64.226848 h 3.60541 3.60542 v 8.146232 8.146232 h 4.50679 4.50677 V 72.37308 64.226848 h 3.60542 3.60543 V 60.6063 56.985752 h 4.0561 4.05609 v -4.073116 -4.073117 h 4.05611 4.05609 v -4.073116 -4.073116 h 3.60542 3.60543 v 11.76678 11.766781 h -3.60543 -3.60542 v 4.073116 4.073116 h 3.60542 3.60543 v 4.073116 4.073116 h -3.60543 -3.60542 v 3.620548 3.620548 h -4.05609 -4.05611 v 4.073116 4.073116 h -4.05609 -4.0561 v -4.073116 -4.073116 h -4.05611 -4.05609 v 4.073116 4.073116 h -3.60542 -3.60543 v -4.073116 -4.073116 h -4.0561 -4.05609 v 4.525685 4.525684 h 3.55359 c 3.53632,0 3.55495,0.0187 3.83076,3.846833 l 0.27716,3.84683 7.88687,0.26153 7.88686,0.26152 v 3.58531 3.58531 h -4.05611 -4.05609 v 12.21934 12.21935 h 8.1122 8.11219 v 7.69367 7.69366 h -4.05609 -4.0561 v -4.07311 -4.07313 h -4.05611 -4.05609 v 4.07313 4.07311 h -3.60542 -3.60543 z M 96.026544,92.286093 v -4.525685 h -4.056097 -4.056102 v 4.525685 4.525684 h 4.056102 4.056097 z M 143.79838,76.446196 V 72.37308 h -8.1122 -8.11219 v 4.073116 4.073116 h 8.11219 8.1122 z m 24.3366,71.958394 v -3.62055 h 3.60542 3.60542 v 3.62055 3.62054 h -3.60542 -3.60542 z M 32.931662,140.25835 v -3.62055 h 3.605422 3.605421 v 3.62055 3.62054 h -3.605421 -3.605422 z m 118.978918,-0.45257 v -4.07312 h -8.1122 -8.1122 v -7.69366 -7.69366 h 4.05611 4.05609 v 4.07311 4.07312 h 4.0561 4.0561 v -4.07312 -4.07311 h 3.60543 3.60541 v 8.14623 8.14623 h 4.05611 4.0561 v 3.62055 3.62054 h -7.66153 -7.66152 z M 48.870491,127.90309 c -0.338683,-0.3401 -0.615786,-2.17973 -0.615786,-4.08806 v -3.46969 h 4.056099 4.0561 v -4.07312 -4.07311 H 44.649283 32.931662 v -3.62055 -3.62055 h 19.379142 19.379143 v 3.62055 3.62055 h -4.056101 -4.056099 v 4.07311 4.07312 h 8.562877 8.562877 v -4.07312 -4.07311 h 3.605422 3.605422 v 4.07311 4.07312 h 4.107925 4.107929 l -0.277171,3.84683 -0.277163,3.84683 -23.044793,0.24123 c -12.674638,0.13268 -23.321899,-0.037 -23.660581,-0.37714 z M 16.707263,112.65167 v -7.69366 h 3.605422 3.605422 v 3.62055 3.62055 h 4.056099 4.0561 v 4.07311 4.07312 h -7.661522 -7.661521 z m 118.978917,-8.14623 v -7.693663 h 4.05611 4.05609 v 7.693663 7.69367 h -4.05609 -4.05611 z M 16.707263,68.299964 V 40.693287 H 44.198604 71.689947 V 68.299964 95.90664 H 44.198604 16.707263 Z m 47.77184,0 V 47.934382 H 44.198604 23.918107 v 20.365582 20.365581 h 20.280497 20.280499 z m -31.547441,0.47961 V 56.985752 h 11.74455 11.744551 l -0.252268,11.540495 -0.25227,11.540497 -11.492282,0.253327 -11.492281,0.253327 z M 143.79838,92.286093 v -3.620548 h 3.60542 3.60543 v 3.620548 3.620547 h -3.60543 -3.60542 z m 16.2244,-23.986129 V 40.693287 h 27.49134 27.49135 V 68.299964 95.90664 h -27.49135 -27.49134 z m 47.77184,0 V 47.934382 h -20.2805 -20.28049 v 20.365582 20.365581 h 20.28049 20.2805 z m -31.84789,11.615923 c -0.3305,-0.331883 -0.60091,-5.626934 -0.60091,-11.76678 V 56.985752 h 11.71762 11.71762 v 11.76678 11.76678 h -11.11671 c -6.1142,0 -11.38713,-0.271541 -11.71762,-0.603425 z M 112.25094,60.153731 v -4.073117 h -4.0561 -4.05609 v -4.073116 -4.073116 h -8.112206 -8.112199 v -3.620548 -3.620547 h 19.829815 19.82983 v 3.620547 3.620548 h -4.05611 -4.05609 v 8.146232 8.146234 h -3.60542 -3.60543 z"
     id="path2" /><path
     style="display:inline;fill:#000000;stroke-width:0.905522"
     d="m 9.5239727,246.79656 v -3.51088 H 5.9714928 2.4190125 V 137.95918 32.632681 H 5.9714928 9.5239727 V 29.121797 25.610914 H 116.09838 222.67279 v 3.510883 3.510884 h 3.55248 3.55248 v 105.326499 105.3265 h -3.55248 -3.55248 v 3.51088 3.51088 h -7.10496 -7.10496 v -21.0653 -21.0653 H 116.09838 23.733894 v 21.0653 21.0653 h -7.10496 -7.1049613 z m 7.1049613,-24.57618 v -21.0653 h 99.469446 99.46945 v 21.0653 21.0653 h 3.55248 3.55248 V 137.95918 32.632681 H 116.09838 9.5239727 v 105.326499 105.3265 h 3.5524803 3.552481 z m 0,-105.3265 V 39.654447 h 3.55248 3.55248 v 77.239433 77.23943 h -3.55248 -3.55248 z m 14.209921,0 V 39.654447 h 7.10496 7.10496 v 77.239433 77.23943 h -7.10496 -7.10496 z m 21.314882,0 V 39.654447 h 3.552479 3.552481 v 77.239433 77.23943 h -3.552481 -3.552479 z m 14.209921,0 V 39.654447 h 3.55248 3.55248 v 77.239433 77.23943 h -3.55248 -3.55248 z m 14.209921,0 V 39.654447 h 10.657437 10.657444 v 77.239433 77.23943 H 91.231016 80.573579 Z m 35.524801,0 V 39.654447 h 3.55248 3.55248 v 77.239433 77.23943 h -3.55248 -3.55248 z m 14.20992,0 V 39.654447 h 3.55249 3.55248 v 77.239433 77.23943 h -3.55248 -3.55249 z m 21.31488,0 V 39.654447 h 7.10497 7.10496 v 77.239433 77.23943 h -7.10496 -7.10497 z m 28.41985,0 V 39.654447 h 10.65744 10.65744 v 77.239433 77.23943 h -10.65744 -10.65744 z m 28.41984,0 V 39.654447 h 3.55248 3.55248 v 77.239433 77.23943 h -3.55248 -3.55248 z M 45.048775,239.77479 v -10.53265 h 3.552481 3.552481 v -3.51088 -3.51088 h -7.104962 -7.10496 v -3.51089 -3.51088 h 10.657441 10.657441 v 7.02177 7.02176 h 3.55248 3.552481 v -7.02176 -7.02177 h 7.10496 7.104961 v 7.02177 7.02176 h 3.55248 3.552481 v -3.51088 -3.51088 h 3.552476 3.552481 v -3.51089 -3.51088 h 3.552482 3.552481 v 17.55441 17.55442 H 98.335979 94.783497 V 239.77479 229.24214 H 91.231016 87.67854 v 10.53265 10.53265 H 73.468618 59.258697 v -10.53265 -10.53265 h -3.552481 -3.552479 v 10.53265 10.53265 h -3.552481 -3.552481 z m 35.524804,-3.51088 v -7.02177 h -7.104961 -7.10496 v 7.02177 7.02177 h 7.10496 7.104961 z m 35.524801,10.53265 v -3.51088 h -3.55248 -3.55248 v -10.53266 -10.53264 h 3.55248 3.55248 v -3.51089 -3.51088 h 3.55248 3.55248 v 3.51088 3.51089 h 7.10496 7.10497 v -3.51089 -3.51088 h 3.55247 3.55248 v 17.55441 17.55442 h -3.55248 -3.55247 v -10.53265 -10.53265 h -3.55248 -3.55249 v 7.02177 7.02177 h -3.55248 -3.55248 v 3.51088 3.51088 h -3.55248 -3.55248 z m 7.10496,-14.04354 v -10.53264 h -3.55248 -3.55248 v 10.53264 10.53266 h 3.55248 3.55248 z m 28.41984,14.04354 v -3.51088 h 7.10497 7.10496 v -3.51089 -3.51088 h -7.10496 -7.10497 v -10.53265 -10.53265 h 10.65745 10.65743 v 3.51088 3.51089 h -7.10495 -7.10496 v 3.51088 3.51088 h 7.10496 7.10495 v 10.53265 10.53265 h -10.65743 -10.65745 z m 35.52481,0 v -3.51088 h -3.55248 -3.55248 v -10.53266 -10.53264 h 3.55248 3.55248 v -3.51089 -3.51088 h 3.55248 3.55247 v 3.51088 3.51089 h 3.55249 3.55248 v 10.53264 10.53266 h -3.55248 -3.55249 v 3.51088 3.51088 h -3.55247 -3.55248 z m 7.10495,-14.04354 v -10.53264 h -3.55247 -3.55248 v 10.53264 10.53266 h 3.55248 3.55247 z"
     id="path1" /><g
     id="g9"
     transform="matrix(5.4208474,0,0,5.4208474,41.193828,-57.11586)"><ellipse
       style="fill:url(#radialGradient13);fill-opacity:1;stroke:none;stroke-width:27.9836;stroke-linecap:square"
       id="path12"
       cx="127.72987"
       cy="215.0219"
       rx="127.43144"
       ry="40.139412"
       transform="matrix(0.12596707,0,0,0.12596707,6.9902009,9.1424821)" /><path
       fill="#75a1d0"
       stroke="#3465a4"
       stroke-width="1"
       d="m 26.273791,37.542682 v -9.02696 l 9.978464,-0.04018 V 21.480218 H 26.28272 l -0.0089,-9.96017 -7.016274,0.01116 0.0045,9.931152 -9.9896265,0.07366 -0.03571,6.968539 10.0342695,-0.02902 0.0067,9.040353 z"
       font-family="'Bitstream Vera Sans'"
       font-size="59.9011px"
       font-weight="700"
       style="line-height:125%;text-align:start"
       id="path7" /><path
       fill="url(#e)"
       stroke="url(#f)"
       stroke-width="1"
       d="m 25.258137,36.53392 v -9.034182 h 10.002602 l -0.0067,-5.024429 h -9.986974 v -9.994974 l -4.994834,0.01786 0.0089,9.977116 -10.026189,0.01786 -0.02679,4.97309 10.064393,0.0089 -0.01339,9.027485 z"
       font-family="'Bitstream Vera Sans'"
       font-size="59.9011px"
       font-weight="700"
       opacity="0.408602"
       style="line-height:125%;text-align:start;fill:url(#e);stroke:url(#f)"
       id="path8" /><path
       fill="#ffffff"
       fill-rule="evenodd"
       d="m 9.7594345,25 c 0,1.9375 25.9843755,-0.96875 25.9843755,-0.03125 v -3 L 25.759435,22 v -9.965228 h -6 V 22 H 9.7594345 Z"
       opacity="0.311828"
       id="path9" /></g></svg>
