<?xml version="1.0" encoding="UTF-8" standalone="no"?>
<!-- Created with Inkscape (http://www.inkscape.org/) -->

<svg
   width="256mm"
   height="256mm"
   viewBox="0 0 256 256"
   version="1.1"
   id="svg1"
   inkscape:version="1.3.2 (091e20ef0f, 2023-11-25)"
   sodipodi:docname="view-grid.svg"
   xmlns:inkscape="http://www.inkscape.org/namespaces/inkscape"
   xmlns:sodipodi="http://sodipodi.sourceforge.net/DTD/sodipodi-0.dtd"
   xmlns="http://www.w3.org/2000/svg"
   xmlns:svg="http://www.w3.org/2000/svg"
   xmlns:rdf="http://www.w3.org/1999/02/22-rdf-syntax-ns#"
   xmlns:cc="http://creativecommons.org/ns#"
   xmlns:dc="http://purl.org/dc/elements/1.1/">
  <defs
     id="defs1" />
  <sodipodi:namedview
     id="base"
     pagecolor="#ffffff"
     bordercolor="#000000"
     borderopacity="0.3"
     inkscape:pageopacity="0.0"
     inkscape:pageshadow="2"
     inkscape:zoom="0.98994949"
     inkscape:cx="505.07627"
     inkscape:cy="476.792"
     inkscape:document-units="mm"
     inkscape:showpageshadow="2"
     inkscape:pagecheckerboard="0"
     inkscape:deskcolor="#d1d1d1"
     inkscape:current-layer="svg1"
     showguides="true">
    <sodipodi:guide
       position="38.55357,240.50297"
       orientation="1,0"
       id="guide1"
       inkscape:locked="false" />
    <sodipodi:guide
       position="94.494045,234.45535"
       orientation="1,0"
       id="guide2"
       inkscape:locked="false" />
    <sodipodi:guide
       position="149.9382,268.02712"
       orientation="1,0"
       id="guide3"
       inkscape:locked="false" />
    <sodipodi:guide
       position="205.79753,265.08716"
       orientation="1,0"
       id="guide4"
       inkscape:locked="false" />
    <sodipodi:guide
       position="12.473214,210.64285"
       orientation="0,-1"
       id="guide5"
       inkscape:locked="false" />
    <sodipodi:guide
       position="39.687499,150.16666"
       orientation="0,-1"
       id="guide6"
       inkscape:locked="false" />
    <sodipodi:guide
       position="61.232141,91.580354"
       orientation="0,-1"
       id="guide7"
       inkscape:locked="false" />
    <sodipodi:guide
       position="57.074403,40.175593"
       orientation="0,-1"
       id="guide8"
       inkscape:locked="false" />
  </sodipodi:namedview>
  <metadata
     id="metadata1">
    <rdf:RDF>
      <cc:Work
         rdf:about="">
        <dc:format>image/svg+xml</dc:format>
        <dc:type
           rdf:resource="http://purl.org/dc/dcmitype/StillImage" />
        <cc:license
           rdf:resource="http://creativecommons.org/publicdomain/zero/1.0/" />
      </cc:Work>
      <cc:License
         rdf:about="http://creativecommons.org/publicdomain/zero/1.0/">
        <cc:permits
           rdf:resource="http://creativecommons.org/ns#Reproduction" />
        <cc:permits
           rdf:resource="http://creativecommons.org/ns#Distribution" />
        <cc:permits
           rdf:resource="http://creativecommons.org/ns#DerivativeWorks" />
      </cc:License>
    </rdf:RDF>
  </metadata>
  <g
     id="g36">
    <path
       id="circle21"
       style="fill:#007afa;stroke-width:1.68255;stroke-linecap:round;stroke-linejoin:round;stroke-miterlimit:2.1"
       d="M 56.585724,155.78659 A 18.331844,18.331844 0 0 1 38.25388,174.11843 18.331844,18.331844 0 0 1 19.922035,155.78659 18.331844,18.331844 0 0 1 38.25388,137.45475 18.331844,18.331844 0 0 1 56.585724,155.78659 Z" />
    <path
       id="circle22"
       style="fill:#007afa;stroke-width:1.68255;stroke-linecap:round;stroke-linejoin:round;stroke-miterlimit:2.1"
       d="M 112.67744,155.78659 A 18.331844,18.331844 0 0 1 94.345596,174.11843 18.331844,18.331844 0 0 1 76.013752,155.78659 18.331844,18.331844 0 0 1 94.345596,137.45475 18.331844,18.331844 0 0 1 112.67744,155.78659 Z" />
    <path
       id="circle23"
       style="fill:#007afa;stroke-width:1.68255;stroke-linecap:round;stroke-linejoin:round;stroke-miterlimit:2.1"
       d="m 168.23965,155.78659 a 18.331844,18.331844 0 0 1 -18.33184,18.33184 18.331844,18.331844 0 0 1 -18.33185,-18.33184 18.331844,18.331844 0 0 1 18.33185,-18.33184 18.331844,18.331844 0 0 1 18.33184,18.33184 z" />
    <path
       id="circle24"
       style="fill:#007afa;stroke-width:1.68255;stroke-linecap:round;stroke-linejoin:round;stroke-miterlimit:2.1"
       d="m 224.33056,155.78659 a 18.331844,18.331844 0 0 1 -18.33184,18.33184 18.331844,18.331844 0 0 1 -18.33185,-18.33184 18.331844,18.331844 0 0 1 18.33185,-18.33184 18.331844,18.331844 0 0 1 18.33184,18.33184 z" />
    <path
       id="circle25"
       style="fill:#007afa;stroke-width:1.68255;stroke-linecap:round;stroke-linejoin:round;stroke-miterlimit:2.1"
       d="M 56.585724,210.29002 A 18.331844,18.331844 0 0 1 38.25388,228.62187 18.331844,18.331844 0 0 1 19.922035,210.29002 18.331844,18.331844 0 0 1 38.25388,191.95818 18.331844,18.331844 0 0 1 56.585724,210.29002 Z" />
    <path
       id="circle26"
       style="fill:#007afa;stroke-width:1.68255;stroke-linecap:round;stroke-linejoin:round;stroke-miterlimit:2.1"
       d="M 112.67744,210.29002 A 18.331844,18.331844 0 0 1 94.345596,228.62187 18.331844,18.331844 0 0 1 76.013752,210.29002 18.331844,18.331844 0 0 1 94.345596,191.95818 18.331844,18.331844 0 0 1 112.67744,210.29002 Z" />
    <path
       id="circle27"
       style="fill:#007afa;stroke-width:1.68255;stroke-linecap:round;stroke-linejoin:round;stroke-miterlimit:2.1"
       d="m 168.23965,210.29002 a 18.331844,18.331844 0 0 1 -18.33184,18.33185 18.331844,18.331844 0 0 1 -18.33185,-18.33185 18.331844,18.331844 0 0 1 18.33185,-18.33184 18.331844,18.331844 0 0 1 18.33184,18.33184 z" />
    <path
       id="circle28"
       style="fill:#007afa;stroke-width:1.68255;stroke-linecap:round;stroke-linejoin:round;stroke-miterlimit:2.1"
       d="m 224.33056,210.29002 a 18.331844,18.331844 0 0 1 -18.33184,18.33185 18.331844,18.331844 0 0 1 -18.33185,-18.33185 18.331844,18.331844 0 0 1 18.33185,-18.33184 18.331844,18.331844 0 0 1 18.33184,18.33184 z" />
    <path
       id="circle29"
       style="fill:#007afa;stroke-width:1.68255;stroke-linecap:round;stroke-linejoin:round;stroke-miterlimit:2.1"
       d="M 56.585724,45.191101 A 18.331844,18.331844 0 0 1 38.25388,63.522945 18.331844,18.331844 0 0 1 19.922035,45.191101 18.331844,18.331844 0 0 1 38.25388,26.859257 18.331844,18.331844 0 0 1 56.585724,45.191101 Z" />
    <path
       id="circle30"
       style="fill:#007afa;stroke-width:1.68255;stroke-linecap:round;stroke-linejoin:round;stroke-miterlimit:2.1"
       d="M 112.67744,45.191101 A 18.331844,18.331844 0 0 1 94.345596,63.522945 18.331844,18.331844 0 0 1 76.013752,45.191101 18.331844,18.331844 0 0 1 94.345596,26.859257 18.331844,18.331844 0 0 1 112.67744,45.191101 Z" />
    <path
       id="circle31"
       style="fill:#007afa;stroke-width:1.68255;stroke-linecap:round;stroke-linejoin:round;stroke-miterlimit:2.1"
       d="M 168.23965,45.191101 A 18.331844,18.331844 0 0 1 149.90781,63.522945 18.331844,18.331844 0 0 1 131.57596,45.191101 18.331844,18.331844 0 0 1 149.90781,26.859257 18.331844,18.331844 0 0 1 168.23965,45.191101 Z" />
    <path
       id="circle32"
       style="fill:#007afa;stroke-width:1.68255;stroke-linecap:round;stroke-linejoin:round;stroke-miterlimit:2.1"
       d="M 224.33056,45.191101 A 18.331844,18.331844 0 0 1 205.99872,63.522945 18.331844,18.331844 0 0 1 187.66687,45.191101 18.331844,18.331844 0 0 1 205.99872,26.859257 18.331844,18.331844 0 0 1 224.33056,45.191101 Z" />
    <path
       id="circle33"
       style="fill:#007afa;stroke-width:1.68255;stroke-linecap:round;stroke-linejoin:round;stroke-miterlimit:2.1"
       d="M 56.585724,99.69532 A 18.331844,18.331844 0 0 1 38.25388,118.02716 18.331844,18.331844 0 0 1 19.922035,99.69532 18.331844,18.331844 0 0 1 38.25388,81.363476 18.331844,18.331844 0 0 1 56.585724,99.69532 Z" />
    <path
       id="circle34"
       style="fill:#007afa;stroke-width:1.68255;stroke-linecap:round;stroke-linejoin:round;stroke-miterlimit:2.1"
       d="M 112.67744,99.69532 A 18.331844,18.331844 0 0 1 94.345596,118.02716 18.331844,18.331844 0 0 1 76.013752,99.69532 18.331844,18.331844 0 0 1 94.345596,81.363476 18.331844,18.331844 0 0 1 112.67744,99.69532 Z" />
    <path
       id="circle35"
       style="fill:#007afa;stroke-width:1.68255;stroke-linecap:round;stroke-linejoin:round;stroke-miterlimit:2.1"
       d="M 168.23965,99.69532 A 18.331844,18.331844 0 0 1 149.90781,118.02716 18.331844,18.331844 0 0 1 131.57596,99.69532 18.331844,18.331844 0 0 1 149.90781,81.363476 18.331844,18.331844 0 0 1 168.23965,99.69532 Z" />
    <path
       id="circle36"
       style="fill:#007afa;stroke-width:1.68255;stroke-linecap:round;stroke-linejoin:round;stroke-miterlimit:2.1"
       d="M 224.33056,99.69532 A 18.331844,18.331844 0 0 1 205.99872,118.02716 18.331844,18.331844 0 0 1 187.66687,99.69532 18.331844,18.331844 0 0 1 205.99872,81.363476 18.331844,18.331844 0 0 1 224.33056,99.69532 Z" />
  </g>
</svg>
