<?xml version="1.0" encoding="UTF-8" standalone="no"?>
<svg
   width="256"
   height="256"
   version="1.1"
   id="svg19"
   sodipodi:docname="zoom-orginal.svg"
   viewBox="0 0 256 256"
   inkscape:version="1.4.2 (ebf0e940d0, 2025-05-08)"
   xml:space="preserve"
   xmlns:inkscape="http://www.inkscape.org/namespaces/inkscape"
   xmlns:sodipodi="http://sodipodi.sourceforge.net/DTD/sodipodi-0.dtd"
   xmlns:xlink="http://www.w3.org/1999/xlink"
   xmlns="http://www.w3.org/2000/svg"
   xmlns:svg="http://www.w3.org/2000/svg"
   xmlns:rdf="http://www.w3.org/1999/02/22-rdf-syntax-ns#"
   xmlns:cc="http://creativecommons.org/ns#"
   xmlns:dc="http://purl.org/dc/elements/1.1/"><sodipodi:namedview
     id="namedview19"
     pagecolor="#ffffff"
     bordercolor="#000000"
     borderopacity="0.25"
     inkscape:showpageshadow="2"
     inkscape:pageopacity="0.0"
     inkscape:pagecheckerboard="0"
     inkscape:deskcolor="#d1d1d1"
     inkscape:zoom="1.1163128"
     inkscape:cx="99.434495"
     inkscape:cy="262.02333"
     inkscape:current-layer="svg19" /><defs
     id="defs16"><linearGradient
       id="k"
       y2="30.6"
       gradientUnits="userSpaceOnUse"
       x2="31.299999"
       y1="23.35"
       x1="27.01"><stop
         stop-color="#8a8a8a"
         offset="0"
         id="stop1" /><stop
         stop-color="#484848"
         offset="1"
         id="stop2" /></linearGradient><linearGradient
       id="SVGID_3_"
       y2="55.650002"
       gradientUnits="userSpaceOnUse"
       x2="-144.3"
       gradientTransform="matrix(1.335,0,0,-1.291,229.6,104.1)"
       y1="52.709999"
       x1="-146.89999"><stop
         stop-color="#7d7d7d"
         offset="0"
         id="stop3" /><stop
         stop-color="#b1b1b1"
         offset=".5"
         id="stop4" /><stop
         stop-color="#686868"
         offset="1"
         id="stop5" /></linearGradient><linearGradient
       id="c"
       y2="25.860001"
       gradientUnits="userSpaceOnUse"
       x2="17.83"
       y1="10.73"
       x1="18.809999"><stop
         stop-color="#fff"
         offset="0"
         id="stop6" /><stop
         stop-color="#fff"
         stop-opacity=".22"
         offset=".5"
         id="stop7" /><stop
         stop-color="#fff"
         offset="1"
         id="stop8" /></linearGradient><radialGradient
       id="r"
       gradientUnits="userSpaceOnUse"
       cy="81.5"
       cx="-171.7"
       gradientTransform="matrix(1.399,0,0,-1.399,259.5,136.2)"
       r="8.3100004"><stop
         stop-color="#729fcf"
         stop-opacity=".21"
         offset="0"
         id="stop9" /><stop
         stop-color="#729fcf"
         stop-opacity=".68"
         offset="1"
         id="stop10" /></radialGradient><radialGradient
       id="b"
       gradientUnits="userSpaceOnUse"
       cy="-511.60001"
       cx="-174.5"
       gradientTransform="matrix(1.446,0,0,-0.362,276.2,-145.1)"
       r="16.530001"><stop
         offset="0"
         id="stop11" /><stop
         stop-opacity="0"
         offset="1"
         id="stop12" /></radialGradient><radialGradient
       id="g"
       gradientUnits="userSpaceOnUse"
       cy="166.39999"
       cx="-296.79999"
       gradientTransform="matrix(2.593,0,0,-2.252,784.6,385.3)"
       r="6.6599998"><stop
         stop-color="#fff"
         offset="0"
         id="stop13" /><stop
         stop-color="#fff"
         stop-opacity=".25"
         offset="1"
         id="stop14" /></radialGradient><radialGradient
       id="s"
       gradientUnits="userSpaceOnUse"
       cy="-1674"
       cx="314.89999"
       gradientTransform="matrix(0.498,0,0,-0.145,-135.8,-204.1)"
       r="16.530001"><stop
         stop-color="#fff"
         offset="0"
         id="stop15" /><stop
         stop-color="#fff"
         stop-opacity="0"
         offset="1"
         id="stop16" /></radialGradient><inkscape:perspective
       sodipodi:type="inkscape:persp3d"
       inkscape:vp_x="0 : 232 : 1"
       inkscape:vp_y="0 : 1000 : 0"
       inkscape:vp_z="48 : 232 : 1"
       inkscape:persp3d-origin="24 : 224 : 1"
       id="perspective58" /><linearGradient
       inkscape:collect="always"
       id="linearGradient2690"><stop
         style="stop-color:#c4d7eb;stop-opacity:1;"
         offset="0"
         id="stop2692" /><stop
         style="stop-color:#c4d7eb;stop-opacity:0;"
         offset="1"
         id="stop2694" /></linearGradient><linearGradient
       id="linearGradient2682"><stop
         style="stop-color:#3977c3;stop-opacity:1;"
         offset="0"
         id="stop2684" /><stop
         style="stop-color:#89aedc;stop-opacity:0;"
         offset="1"
         id="stop2686" /></linearGradient><linearGradient
       id="linearGradient2402"><stop
         style="stop-color:#729fcf;stop-opacity:1;"
         offset="0"
         id="stop2404" /><stop
         style="stop-color:#528ac5;stop-opacity:1;"
         offset="1"
         id="stop2406" /></linearGradient><linearGradient
       id="linearGradient2380"><stop
         style="stop-color:#b9cfe7;stop-opacity:1"
         offset="0"
         id="stop2382" /><stop
         style="stop-color:#729fcf;stop-opacity:1"
         offset="1"
         id="stop2384" /></linearGradient><linearGradient
       inkscape:collect="always"
       id="linearGradient2871"><stop
         style="stop-color:#3465a4;stop-opacity:1;"
         offset="0"
         id="stop2873" /><stop
         style="stop-color:#3465a4;stop-opacity:1"
         offset="1"
         id="stop2875" /></linearGradient><linearGradient
       inkscape:collect="always"
       id="linearGradient2847"><stop
         style="stop-color:#3465a4;stop-opacity:1;"
         offset="0"
         id="stop2849" /><stop
         style="stop-color:#3465a4;stop-opacity:0;"
         offset="1"
         id="stop2851" /></linearGradient><linearGradient
       id="linearGradient2831"><stop
         style="stop-color:#3465a4;stop-opacity:1;"
         offset="0"
         id="stop2833" /><stop
         id="stop2855"
         offset="0.33333334"
         style="stop-color:#5b86be;stop-opacity:1;" /><stop
         style="stop-color:#83a8d8;stop-opacity:0;"
         offset="1"
         id="stop2835" /></linearGradient><linearGradient
       inkscape:collect="always"
       id="linearGradient2797"><stop
         style="stop-color:#ffffff;stop-opacity:1;"
         offset="0"
         id="stop2799" /><stop
         style="stop-color:#ffffff;stop-opacity:0;"
         offset="1"
         id="stop2801" /></linearGradient><linearGradient
       inkscape:collect="always"
       id="linearGradient8662"><stop
         style="stop-color:#000000;stop-opacity:1;"
         offset="0"
         id="stop8664" /><stop
         style="stop-color:#000000;stop-opacity:0;"
         offset="1"
         id="stop8666" /></linearGradient><linearGradient
       inkscape:collect="always"
       xlink:href="#linearGradient2831"
       id="linearGradient1486"
       gradientUnits="userSpaceOnUse"
       gradientTransform="translate(0.465413,-0.277593)"
       x1="13.478554"
       y1="10.612206"
       x2="15.419417"
       y2="19.115122" /><linearGradient
       inkscape:collect="always"
       xlink:href="#linearGradient2847"
       id="linearGradient1488"
       gradientUnits="userSpaceOnUse"
       gradientTransform="rotate(180,23.763955,22.923705)"
       x1="37.128052"
       y1="29.729605"
       x2="37.065414"
       y2="26.194071" /><linearGradient
       inkscape:collect="always"
       xlink:href="#linearGradient2797"
       id="linearGradient1491"
       gradientUnits="userSpaceOnUse"
       x1="5.9649177"
       y1="26.048164"
       x2="52.854095"
       y2="26.048164" /><linearGradient
       inkscape:collect="always"
       xlink:href="#linearGradient2871"
       id="linearGradient1501"
       gradientUnits="userSpaceOnUse"
       x1="46.834816"
       y1="45.264122"
       x2="45.380436"
       y2="50.939667" /><radialGradient
       inkscape:collect="always"
       xlink:href="#linearGradient8662"
       id="radialGradient1503"
       gradientUnits="userSpaceOnUse"
       gradientTransform="matrix(1,0,0,0.536723,0,16.87306)"
       cx="24.837126"
       cy="36.421127"
       fx="24.837126"
       fy="36.421127"
       r="15.644737" /><linearGradient
       inkscape:collect="always"
       xlink:href="#linearGradient2380"
       id="linearGradient2386"
       x1="62.513836"
       y1="36.061237"
       x2="15.984863"
       y2="20.60858"
       gradientUnits="userSpaceOnUse" /><linearGradient
       inkscape:collect="always"
       xlink:href="#linearGradient2402"
       id="linearGradient2408"
       x1="18.935766"
       y1="23.667896"
       x2="53.588623"
       y2="26.649363"
       gradientUnits="userSpaceOnUse" /><linearGradient
       inkscape:collect="always"
       xlink:href="#linearGradient2682"
       id="linearGradient2688"
       x1="36.713837"
       y1="31.455952"
       x2="37.124462"
       y2="24.842253"
       gradientUnits="userSpaceOnUse" /><linearGradient
       inkscape:collect="always"
       xlink:href="#linearGradient2690"
       id="linearGradient2696"
       x1="32.647972"
       y1="30.748846"
       x2="37.124462"
       y2="24.842253"
       gradientUnits="userSpaceOnUse" /><linearGradient
       inkscape:collect="always"
       xlink:href="#linearGradient2380"
       id="linearGradient1"
       gradientUnits="userSpaceOnUse"
       x1="62.513836"
       y1="36.061237"
       x2="15.984863"
       y2="20.60858" /><linearGradient
       inkscape:collect="always"
       xlink:href="#linearGradient2871"
       id="linearGradient2"
       gradientUnits="userSpaceOnUse"
       x1="46.834816"
       y1="45.264122"
       x2="45.380436"
       y2="50.939667" /><linearGradient
       inkscape:collect="always"
       xlink:href="#linearGradient2402"
       id="linearGradient3"
       gradientUnits="userSpaceOnUse"
       x1="18.935766"
       y1="23.667896"
       x2="53.588623"
       y2="26.649363" /><linearGradient
       inkscape:collect="always"
       xlink:href="#linearGradient2871"
       id="linearGradient4"
       gradientUnits="userSpaceOnUse"
       x1="46.834816"
       y1="45.264122"
       x2="45.380436"
       y2="50.939667" /><linearGradient
       inkscape:collect="always"
       xlink:href="#linearGradient2797"
       id="linearGradient5"
       gradientUnits="userSpaceOnUse"
       x1="5.9649177"
       y1="26.048164"
       x2="52.854095"
       y2="26.048164" /></defs><g
     id="g19"
     transform="matrix(5.3116092,0,0,5.3116092,0.89376539,-0.8653828)"><ellipse
       opacity="0.17"
       rx="23.9"
       ry="5.98"
       cy="39.959999"
       cx="23.92"
       fill="url(#b)"
       id="ellipse16"
       style="fill:url(#b)" /><g
       fill="#dcdcdc"
       id="g17"><path
         d="m 18.63,3.14 c -8.14,0 -14.75,6.61 -14.75,14.75 0,8.14 6.61,14.74 14.75,14.74 3.48,0 6.55,-1.38 9.1,-3.4 -0.2,1 -0.08,2.04 0.76,2.76 l 10.96,9.53 c 1.23,1.07 3.09,0.93 4.16,-0.3 1.07,-1.24 0.93,-3.09 -0.3,-4.16 L 32.34,27.53 c -0.67,-0.58 -1.49,-0.76 -2.3,-0.64 1.98,-2.52 3.36,-5.55 3.36,-9 C 33.4,9.75 26.8,3.14 18.66,3.14 Z m -0.08,1.23 c 7.64,0 13.29,4.79 13.29,13.29 0,8.68 -5.81,13.29 -13.29,13.29 -7.3,0 -13.29,-5.47 -13.29,-13.29 0,-7.98 5.82,-13.29 13.29,-13.29 z"
         stroke="url(#k)"
         stroke-linecap="round"
         stroke-width="2"
         id="path16"
         style="stroke:url(#k)" /><path
         d="m 18.6,3.08 c -8.16,0 -14.79,6.63 -14.79,14.79 0,8.17 6.63,14.8 14.79,14.8 3.49,0 6.58,-1.39 9.11,-3.42 -0.21,1 -0.08,2.04 0.75,2.77 l 11,9.56 c 1.24,1.07 3.1,0.93 4.18,-0.3 1.07,-1.24 0.93,-3.1 -0.31,-4.18 l -11,-9.56 C 31.66,26.96 30.84,26.79 30.02,26.9 32.01,24.38 33.4,21.33 33.4,17.9 33.4,9.74 26.77,3.11 18.6,3.11 M 18.53,6.3 c 6.28,0 11.38,5.09 11.38,11.38 0,6.28 -5.1,11.37 -11.38,11.37 -6.28,0 -11.38,-5.09 -11.38,-11.37 0,-6.29 5.1,-11.38 11.38,-11.38"
         id="path17" /></g><path
       d="M 39.51,41.58 C 39.03,39.3 40.9,36.77 43.09,36.79 L 32.33,27.53 c -2.94,-0.06 -4.27,2.27 -3.78,4.6 l 10.96,9.45"
       fill="url(#SVGID_3_)"
       id="path18"
       style="fill:url(#SVGID_3_)" /><circle
       cy="17.4"
       stroke="url(#c)"
       cx="18.379999"
       r="13.77"
       fill="none"
       id="circle18"
       style="stroke:url(#c)" /><ellipse
       rx="8.2299995"
       ry="2.4000001"
       cy="38.77"
       cx="20.99"
       fill="url(#s)"
       id="ellipse18"
       style="fill:url(#s)" /><circle
       cy="17.549999"
       stroke="#3063a3"
       cx="18.379999"
       r="11.62"
       fill="url(#r)"
       id="circle19"
       style="fill:url(#r)" /><path
       opacity="0.83"
       d="m 18.2,7.4 c -5.21,0 -9.43,4.21 -9.43,9.42 0,1.51 0.42,2.89 1.05,4.15 1.25,0.46 2.58,0.78 3.99,0.78 6.18,0 11.1,-4.86 11.48,-10.94 C 23.56,8.76 21.08,7.4 18.2,7.4"
       fill="url(#g)"
       id="path19"
       style="fill:url(#g)" /><rect
       opacity="0.43"
       rx="2.4679999"
       transform="matrix(0.753,0.658,-0.6489,0.7609,0,0)"
       height="5"
       width="19"
       stroke="#ffffff"
       y="-0.13"
       x="40.5"
       fill="none"
       id="rect19" /></g><metadata
     id="metadata19"><rdf:RDF><cc:Work
         rdf:about=""><dc:source>https://commons.wikimedia.org/wiki/File:System-search.svg</dc:source><cc:license
           rdf:resource="http://creativecommons.org/publicdomain/zero/1.0/" /></cc:Work><cc:License
         rdf:about="http://creativecommons.org/publicdomain/zero/1.0/"><cc:permits
           rdf:resource="http://creativecommons.org/ns#Reproduction" /><cc:permits
           rdf:resource="http://creativecommons.org/ns#Distribution" /><cc:permits
           rdf:resource="http://creativecommons.org/ns#DerivativeWorks" /></cc:License></rdf:RDF></metadata><g
     id="g1"
     transform="matrix(1.9785732,0,0,1.9785732,55.011709,47.269639)"><ellipse
       transform="matrix(-1.489736,0,0,-1.001252,61.20865,75.2819)"
       id="path8660"
       style="color:#000000;display:inline;overflow:visible;visibility:visible;opacity:0.383333;fill:url(#radialGradient1503);fill-opacity:1;fill-rule:evenodd;stroke:none;stroke-width:1;stroke-linecap:butt;stroke-linejoin:miter;stroke-miterlimit:10;stroke-dasharray:none;stroke-dashoffset:0;stroke-opacity:1;marker:none;marker-start:none;marker-mid:none;marker-end:none"
       inkscape:r_cx="true"
       inkscape:r_cy="true"
       cx="24.837126"
       cy="36.421127"
       rx="15.644737"
       ry="8.3968935" /><path
       style="color:#000000;display:block;overflow:visible;visibility:visible;fill:url(#linearGradient1486);fill-opacity:1;fill-rule:nonzero;stroke:url(#linearGradient1488);stroke-width:1;stroke-linecap:butt;stroke-linejoin:miter;stroke-miterlimit:4;stroke-dasharray:none;stroke-dashoffset:0;stroke-opacity:1;marker:none;marker-start:none;marker-mid:none;marker-end:none"
       d="m 20.152913,10.409904 c 0,0 -8.9375,-0.625 -6.1875,9.875 H 6.2779132 c 0,0 0.5,-11.875 13.8749998,-9.875 z"
       id="path2865"
       inkscape:r_cx="true"
       inkscape:r_cy="true"
       sodipodi:nodetypes="cccc" /><g
       id="g1878"
       transform="matrix(-0.579051,-0.489228,-0.489228,0.579051,56.91585,13.37137)"
       inkscape:r_cx="true"
       inkscape:r_cy="true"
       style="fill:url(#linearGradient2386);fill-opacity:1;stroke:#3465a4;stroke-opacity:1"><path
         sodipodi:nodetypes="ccccccc"
         id="path1880"
         d="M 44.306783,50.229694 C 62.821497,35.818859 49.664587,13.411704 22.462411,12.49765 L 22.113843,3.1515478 7.6245439,20.496754 22.714328,33.219189 c 0,0 -0.251917,-9.88122 -0.251917,-9.88122 18.82976,0.998977 32.981627,14.071729 21.844372,26.891725 z"
         style="color:#000000;display:block;overflow:visible;visibility:visible;opacity:1;fill:url(#linearGradient1);fill-opacity:1;fill-rule:nonzero;stroke:url(#linearGradient2);stroke-width:1.31917;stroke-linecap:butt;stroke-linejoin:miter;stroke-miterlimit:4;stroke-dasharray:none;stroke-dashoffset:0;stroke-opacity:1;marker:none;marker-start:none;marker-mid:none;marker-end:none"
         inkscape:r_cx="true"
         inkscape:r_cy="true" /></g><path
       sodipodi:nodetypes="cccc"
       inkscape:r_cy="true"
       inkscape:r_cx="true"
       id="path2839"
       d="m 28.375,33.4375 c 0,0 8.9375,0.625 6.1875,-9.875 h 7.775888 c 0,1.502602 -0.588388,11.875 -13.963388,9.875 z"
       style="color:#000000;display:block;overflow:visible;visibility:visible;fill:url(#linearGradient2696);fill-opacity:1;fill-rule:nonzero;stroke:url(#linearGradient2688);stroke-width:1;stroke-linecap:butt;stroke-linejoin:miter;stroke-miterlimit:4;stroke-dasharray:none;stroke-dashoffset:0;stroke-opacity:1;marker:none;marker-start:none;marker-mid:none;marker-end:none" /><g
       style="color:#000000;display:block;overflow:visible;visibility:visible;opacity:1;fill:url(#linearGradient2408);fill-opacity:1;fill-rule:nonzero;stroke:url(#linearGradient1501);stroke-width:1.31917;stroke-linecap:butt;stroke-linejoin:miter;stroke-miterlimit:4;stroke-dasharray:none;stroke-dashoffset:0;stroke-opacity:1;marker:none;marker-start:none;marker-mid:none;marker-end:none"
       inkscape:r_cy="true"
       inkscape:r_cx="true"
       transform="matrix(0.579051,0.489228,0.489228,-0.579051,-7.921023,30.53599)"
       id="g2779"><path
         inkscape:r_cy="true"
         inkscape:r_cx="true"
         style="color:#000000;display:block;overflow:visible;visibility:visible;opacity:1;fill:url(#linearGradient3);fill-opacity:1;fill-rule:nonzero;stroke:url(#linearGradient4);stroke-width:1.31917;stroke-linecap:butt;stroke-linejoin:miter;stroke-miterlimit:4;stroke-dasharray:none;stroke-dashoffset:0;stroke-opacity:1;marker:none;marker-start:none;marker-mid:none;marker-end:none"
         d="M 44.306783,50.229694 C 62.821497,35.818859 49.664587,13.411704 22.462411,12.49765 L 22.399432,3.0690297 7.793943,20.424005 22.462411,33.006349 c 0,0 0,-9.66838 0,-9.66838 18.82976,0.998977 32.981627,14.071729 21.844372,26.891725 z"
         id="path2781"
         sodipodi:nodetypes="ccccccc" /></g><path
       style="color:#000000;display:inline;overflow:visible;visibility:visible;opacity:0.272222;fill:#ffffff;fill-opacity:1;fill-rule:nonzero;stroke:none;stroke-width:1;stroke-linecap:round;stroke-linejoin:miter;stroke-miterlimit:4;stroke-dasharray:none;stroke-dashoffset:0;stroke-opacity:1;marker:none;marker-start:none;marker-mid:none;marker-end:none"
       d="m 7.0625,38.1875 0.0625,-14.875 12.9375,-0.375 -4.388873,5.178817 3.867225,2.373199 c -3,2.25 -4.549548,2.422128 -5.549548,4.984628 l -2.816858,-2.110272 z"
       id="path2791"
       inkscape:r_cx="true"
       inkscape:r_cy="true"
       sodipodi:nodetypes="cccccccc" /><g
       id="g2793"
       transform="matrix(0.508536,0.429651,0.429651,-0.508536,-3.973188,30.54119)"
       inkscape:r_cx="true"
       inkscape:r_cy="true"
       style="opacity:0.5;fill:none;fill-opacity:1;stroke:#ffffff;stroke-opacity:1"><path
         sodipodi:nodetypes="ccccccc"
         id="path2795"
         d="M 51.090265,45.943705 C 60.210465,30.723955 46.631614,12.20113 19.485058,11.948579 L 19.513464,3.7032834 6.5341979,19.296639 19.367661,30.26876 c 0,0 0.05562,-9.006878 0.05562,-9.006878 17.527815,-0.223909 35.195185,10.103372 31.666984,24.681823 z"
         style="color:#000000;display:block;overflow:visible;visibility:visible;opacity:1;fill:none;fill-opacity:1;fill-rule:nonzero;stroke:url(#linearGradient5);stroke-width:1.50209;stroke-linecap:butt;stroke-linejoin:miter;stroke-miterlimit:4;stroke-dasharray:none;stroke-dashoffset:0;stroke-opacity:1;marker:none;marker-start:none;marker-mid:none;marker-end:none"
         inkscape:r_cx="true"
         inkscape:r_cy="true" /></g><g
       style="opacity:0.5;fill:none;fill-opacity:1;stroke:#ffffff;stroke-opacity:1"
       inkscape:r_cy="true"
       inkscape:r_cx="true"
       transform="matrix(-0.508536,-0.429651,-0.429651,0.508536,53.049,13.36548)"
       id="g2805"><path
         inkscape:r_cy="true"
         inkscape:r_cx="true"
         style="color:#000000;display:block;overflow:visible;visibility:visible;opacity:1;fill:none;fill-opacity:1;fill-rule:nonzero;stroke:url(#linearGradient1491);stroke-width:1.50209;stroke-linecap:butt;stroke-linejoin:miter;stroke-miterlimit:4;stroke-dasharray:none;stroke-dashoffset:0;stroke-opacity:1;marker:none;marker-start:none;marker-mid:none;marker-end:none"
         d="M 51.389927,46.505946 C 60.510127,31.286196 47.050763,12.432359 19.628482,12.069755 L 19.342824,4.0507204 6.3413093,19.379475 19.809059,30.764589 c 0,0 -0.181765,-9.453243 -0.181765,-9.453243 18.244937,0.381972 34.783881,10.925246 31.762633,25.1946 z"
         id="path2807"
         sodipodi:nodetypes="ccccccc" /></g><path
       style="color:#000000;display:inline;overflow:visible;visibility:visible;opacity:0.272222;fill:#ffffff;fill-opacity:1;fill-rule:nonzero;stroke:none;stroke-width:1;stroke-linecap:round;stroke-linejoin:miter;stroke-miterlimit:4;stroke-dasharray:none;stroke-dashoffset:0;stroke-opacity:1;marker:none;marker-start:none;marker-mid:none;marker-end:none"
       d="M 6.8125,16.5 C 10.405935,6.0587275 23.256282,10.355393 27,12 31.175307,12.211475 32.674736,9.164996 36,9 21.950264,-0.7899963 7.1875,2.5 6.8125,16.5 Z"
       id="path2811"
       inkscape:r_cx="true"
       inkscape:r_cy="true"
       sodipodi:nodetypes="cccc" /></g></svg>
