<?xml version="1.0" encoding="UTF-8" standalone="no"?>
<svg
   width="256"
   height="256"
   version="1.1"
   id="svg19"
   sodipodi:docname="zoom-1-to-2.svg"
   viewBox="0 0 256 256"
   inkscape:version="1.4.2 (ebf0e940d0, 2025-05-08)"
   xmlns:inkscape="http://www.inkscape.org/namespaces/inkscape"
   xmlns:sodipodi="http://sodipodi.sourceforge.net/DTD/sodipodi-0.dtd"
   xmlns="http://www.w3.org/2000/svg"
   xmlns:svg="http://www.w3.org/2000/svg"
   xmlns:rdf="http://www.w3.org/1999/02/22-rdf-syntax-ns#"
   xmlns:cc="http://creativecommons.org/ns#"
   xmlns:dc="http://purl.org/dc/elements/1.1/">
  <sodipodi:namedview
     id="namedview19"
     pagecolor="#ffffff"
     bordercolor="#000000"
     borderopacity="0.25"
     inkscape:showpageshadow="2"
     inkscape:pageopacity="0.0"
     inkscape:pagecheckerboard="0"
     inkscape:deskcolor="#d1d1d1"
     inkscape:zoom="2.2326256"
     inkscape:cx="123.39731"
     inkscape:cy="169.53134"
     inkscape:current-layer="svg19" />
  <defs
     id="defs16">
    <linearGradient
       id="k"
       y2="30.6"
       gradientUnits="userSpaceOnUse"
       x2="31.299999"
       y1="23.35"
       x1="27.01">
      <stop
         stop-color="#8a8a8a"
         offset="0"
         id="stop1" />
      <stop
         stop-color="#484848"
         offset="1"
         id="stop2" />
    </linearGradient>
    <linearGradient
       id="SVGID_3_"
       y2="55.650002"
       gradientUnits="userSpaceOnUse"
       x2="-144.3"
       gradientTransform="matrix(1.335,0,0,-1.291,229.6,104.1)"
       y1="52.709999"
       x1="-146.89999">
      <stop
         stop-color="#7d7d7d"
         offset="0"
         id="stop3" />
      <stop
         stop-color="#b1b1b1"
         offset=".5"
         id="stop4" />
      <stop
         stop-color="#686868"
         offset="1"
         id="stop5" />
    </linearGradient>
    <linearGradient
       id="c"
       y2="25.860001"
       gradientUnits="userSpaceOnUse"
       x2="17.83"
       y1="10.73"
       x1="18.809999">
      <stop
         stop-color="#fff"
         offset="0"
         id="stop6" />
      <stop
         stop-color="#fff"
         stop-opacity=".22"
         offset=".5"
         id="stop7" />
      <stop
         stop-color="#fff"
         offset="1"
         id="stop8" />
    </linearGradient>
    <radialGradient
       id="r"
       gradientUnits="userSpaceOnUse"
       cy="81.5"
       cx="-171.7"
       gradientTransform="matrix(1.399,0,0,-1.399,259.5,136.2)"
       r="8.3100004">
      <stop
         stop-color="#729fcf"
         stop-opacity=".21"
         offset="0"
         id="stop9" />
      <stop
         stop-color="#729fcf"
         stop-opacity=".68"
         offset="1"
         id="stop10" />
    </radialGradient>
    <radialGradient
       id="b"
       gradientUnits="userSpaceOnUse"
       cy="-511.60001"
       cx="-174.5"
       gradientTransform="matrix(1.446,0,0,-0.362,276.2,-145.1)"
       r="16.530001">
      <stop
         offset="0"
         id="stop11" />
      <stop
         stop-opacity="0"
         offset="1"
         id="stop12" />
    </radialGradient>
    <radialGradient
       id="g"
       gradientUnits="userSpaceOnUse"
       cy="166.39999"
       cx="-296.79999"
       gradientTransform="matrix(2.593,0,0,-2.252,784.6,385.3)"
       r="6.6599998">
      <stop
         stop-color="#fff"
         offset="0"
         id="stop13" />
      <stop
         stop-color="#fff"
         stop-opacity=".25"
         offset="1"
         id="stop14" />
    </radialGradient>
    <radialGradient
       id="s"
       gradientUnits="userSpaceOnUse"
       cy="-1674"
       cx="314.89999"
       gradientTransform="matrix(0.498,0,0,-0.145,-135.8,-204.1)"
       r="16.530001">
      <stop
         stop-color="#fff"
         offset="0"
         id="stop15" />
      <stop
         stop-color="#fff"
         stop-opacity="0"
         offset="1"
         id="stop16" />
    </radialGradient>
  </defs>
  <g
     id="g19"
     transform="matrix(5.3116092,0,0,5.3116092,0.89376539,-0.8653828)">
    <ellipse
       opacity="0.17"
       rx="23.9"
       ry="5.98"
       cy="39.959999"
       cx="23.92"
       fill="url(#b)"
       id="ellipse16"
       style="fill:url(#b)" />
    <g
       fill="#dcdcdc"
       id="g17">
      <path
         d="m 18.63,3.14 c -8.14,0 -14.75,6.61 -14.75,14.75 0,8.14 6.61,14.74 14.75,14.74 3.48,0 6.55,-1.38 9.1,-3.4 -0.2,1 -0.08,2.04 0.76,2.76 l 10.96,9.53 c 1.23,1.07 3.09,0.93 4.16,-0.3 1.07,-1.24 0.93,-3.09 -0.3,-4.16 L 32.34,27.53 c -0.67,-0.58 -1.49,-0.76 -2.3,-0.64 1.98,-2.52 3.36,-5.55 3.36,-9 C 33.4,9.75 26.8,3.14 18.66,3.14 Z m -0.08,1.23 c 7.64,0 13.29,4.79 13.29,13.29 0,8.68 -5.81,13.29 -13.29,13.29 -7.3,0 -13.29,-5.47 -13.29,-13.29 0,-7.98 5.82,-13.29 13.29,-13.29 z"
         stroke="url(#k)"
         stroke-linecap="round"
         stroke-width="2"
         id="path16"
         style="stroke:url(#k)" />
      <path
         d="m 18.6,3.08 c -8.16,0 -14.79,6.63 -14.79,14.79 0,8.17 6.63,14.8 14.79,14.8 3.49,0 6.58,-1.39 9.11,-3.42 -0.21,1 -0.08,2.04 0.75,2.77 l 11,9.56 c 1.24,1.07 3.1,0.93 4.18,-0.3 1.07,-1.24 0.93,-3.1 -0.31,-4.18 l -11,-9.56 C 31.66,26.96 30.84,26.79 30.02,26.9 32.01,24.38 33.4,21.33 33.4,17.9 33.4,9.74 26.77,3.11 18.6,3.11 M 18.53,6.3 c 6.28,0 11.38,5.09 11.38,11.38 0,6.28 -5.1,11.37 -11.38,11.37 -6.28,0 -11.38,-5.09 -11.38,-11.37 0,-6.29 5.1,-11.38 11.38,-11.38"
         id="path17" />
    </g>
    <path
       d="M 39.51,41.58 C 39.03,39.3 40.9,36.77 43.09,36.79 L 32.33,27.53 c -2.94,-0.06 -4.27,2.27 -3.78,4.6 l 10.96,9.45"
       fill="url(#SVGID_3_)"
       id="path18"
       style="fill:url(#SVGID_3_)" />
    <circle
       cy="17.4"
       stroke="url(#c)"
       cx="18.379999"
       r="13.77"
       fill="none"
       id="circle18"
       style="stroke:url(#c)" />
    <ellipse
       rx="8.2299995"
       ry="2.4000001"
       cy="38.77"
       cx="20.99"
       fill="url(#s)"
       id="ellipse18"
       style="fill:url(#s)" />
    <circle
       cy="17.549999"
       stroke="#3063a3"
       cx="18.379999"
       r="11.62"
       fill="url(#r)"
       id="circle19"
       style="fill:url(#r)" />
    <path
       opacity="0.83"
       d="m 18.2,7.4 c -5.21,0 -9.43,4.21 -9.43,9.42 0,1.51 0.42,2.89 1.05,4.15 1.25,0.46 2.58,0.78 3.99,0.78 6.18,0 11.1,-4.86 11.48,-10.94 C 23.56,8.76 21.08,7.4 18.2,7.4"
       fill="url(#g)"
       id="path19"
       style="fill:url(#g)" />
    <rect
       opacity="0.43"
       rx="2.4679999"
       transform="matrix(0.753,0.658,-0.6489,0.7609,0,0)"
       height="5"
       width="19"
       stroke="#ffffff"
       y="-0.13"
       x="40.5"
       fill="none"
       id="rect19" />
  </g>
  <metadata
     id="metadata19">
    <rdf:RDF>
      <cc:Work
         rdf:about="">
        <dc:source>https://commons.wikimedia.org/wiki/File:System-search.svg</dc:source>
        <cc:license
           rdf:resource="http://creativecommons.org/publicdomain/zero/1.0/" />
      </cc:Work>
      <cc:License
         rdf:about="http://creativecommons.org/publicdomain/zero/1.0/">
        <cc:permits
           rdf:resource="http://creativecommons.org/ns#Reproduction" />
        <cc:permits
           rdf:resource="http://creativecommons.org/ns#Distribution" />
        <cc:permits
           rdf:resource="http://creativecommons.org/ns#DerivativeWorks" />
      </cc:License>
    </rdf:RDF>
  </metadata>
  <text
     xml:space="preserve"
     style="font-weight:bold;font-size:106.667px;line-height:0.7;font-family:'Liberation Sans';-inkscape-font-specification:'Liberation Sans Bold';letter-spacing:0px;word-spacing:0px;fill:#518ac4;fill-opacity:1;stroke:#3465a4;stroke-width:5.5;stroke-miterlimit:2.1;stroke-dasharray:none;stroke-opacity:1"
     x="6.4381695"
     y="238.38472"
     id="text90"><tspan
       sodipodi:role="line"
       id="tspan90"
       x="6.4381695"
       y="238.38472"
       style="font-size:106.667px;fill:#518ac4;fill-opacity:1;stroke:#3465a4;stroke-width:5.5;stroke-dasharray:none;stroke-opacity:1">1:2</tspan></text>
</svg>
