<?xml version="1.0" encoding="UTF-8" standalone="no"?>
<svg xmlns="http://www.w3.org/2000/svg" xmlns:xlink="http://www.w3.org/1999/xlink" width="48" height="48" version="1.0">
  <defs>
    <radialGradient xlink:href="#a" id="b" cx="17.3125" cy="25.53125" r="9.6875" fx="17.3125" fy="25.53125" gradientTransform="matrix(2.18291 0 0 .76754 -13.50372 21.786089)" gradientUnits="userSpaceOnUse"/>
    <linearGradient id="a">
      <stop offset="0"/>
      <stop offset="1" stop-opacity="0"/>
    </linearGradient>
  </defs>
  <path fill="url(#b)" d="M45.434904 41.382352c0 4.106538-9.467815 7.435544-21.14696 7.435544s-21.14696-3.329006-21.14696-7.435544c0-4.106538 9.467815-7.435544 21.14696-7.435544s21.14696 3.329006 21.14696 7.435544z" opacity=".40909089" overflow="visible" style="marker:none"/>
  <path fill="#00112b" stroke="#00112b" stroke-linecap="round" stroke-linejoin="round" stroke-width=".94500303" d="M45.088191 21.403809c0 11.482035-9.308034 20.790064-20.790078 20.790064-11.482043 0-20.7900777-9.308029-20.7900776-20.790064C3.5080353 9.9217735 12.81607.61374486 24.298113.61374486c11.482044 0 20.790078 9.30802864 20.790078 20.79006414h0z"/>
  <path fill="#0055d4" stroke="#acf" stroke-linecap="round" stroke-linejoin="round" stroke-width=".91444719" d="M44.555332 21.312495c0 11.110775-9.007065 20.117839-20.117844 20.117839S4.3196437 32.42327 4.3196438 21.312495c-1e-7-11.110776 9.0070652-20.1178391 20.1178442-20.1178391S44.555332 10.201719 44.555332 21.312495h0z"/>
  <path fill="#fff" d="M21.464926 10.373268c-.127974 0-.23461.174494-.23461.383907l1.064769 14.440824c0 .209413.106636.383907.23461.383908 0 0 .840821.011903 1.533989 0 .228338-.003921.298214.020312.505314 0 .693168.011903 1.533989 0 1.533989 0 .127974 0 .23461-.174495.23461-.383908l1.064769-14.440824c0-.209413-.106636-.354376-.234611-.354376h-2.580711c-.009512-.001937-.008202-.029531-.018046-.029531h-3.104072zm5.199164 19.815526c0 1.272158-1.031286 2.303444-2.303442 2.303444s-2.303442-1.031286-2.303442-2.303444c0-1.272157 1.031286-2.303443 2.303442-2.303443s2.303442 1.031286 2.303442 2.303443z"/>
  <path fill="#fffeff" fill-opacity=".21390375" d="M43.676426 20.47678c0 10.830616-6.052169-4.306199-18.674738.386388-12.722516 4.729744-20.5666345 10.444228-20.5666345-.386388C4.4350535 9.6461627 13.22512.85609769 24.05574.85609769c10.830619 0 19.620686 8.79006501 19.620686 19.62068231z"/>
</svg>