<?xml version="1.0" encoding="UTF-8" standalone="no"?>
<!-- Created with Inkscape (http://www.inkscape.org/) -->

<svg
   id="svg1306"
   height="48px"
   width="48px"
   version="1.1"
   sodipodi:docname="emblem-ok.svg"
   xml:space="preserve"
   inkscape:version="1.4.2 (ebf0e940d0, 2025-05-08)"
   xmlns:inkscape="http://www.inkscape.org/namespaces/inkscape"
   xmlns:sodipodi="http://sodipodi.sourceforge.net/DTD/sodipodi-0.dtd"
   xmlns="http://www.w3.org/2000/svg"
   xmlns:svg="http://www.w3.org/2000/svg"
   xmlns:rdf="http://www.w3.org/1999/02/22-rdf-syntax-ns#"
   xmlns:cc="http://creativecommons.org/ns#"
   xmlns:dc="http://purl.org/dc/elements/1.1/"><sodipodi:namedview
     id="namedview1"
     pagecolor="#ffffff"
     bordercolor="#000000"
     borderopacity="0.25"
     inkscape:showpageshadow="2"
     inkscape:pageopacity="0.0"
     inkscape:pagecheckerboard="0"
     inkscape:deskcolor="#d1d1d1"
     inkscape:zoom="3.1478417"
     inkscape:cx="17.472289"
     inkscape:cy="45.904468"
     inkscape:current-layer="svg1306" /><defs
     id="defs1308"><radialGradient
       id="radialGradient3976"
       gradientUnits="userSpaceOnUse"
       cy="40"
       cx="23.857"
       gradientTransform="matrix(1 0 0 .5 0 20)"
       r="17.143"><stop
         id="stop4128"
         offset="0" /><stop
         id="stop4130"
         stop-opacity="0"
         offset="1" /></radialGradient><linearGradient
       id="linearGradient3980"
       y2="-8.5627"
       gradientUnits="userSpaceOnUse"
       x2="20.065"
       y1="53.836"
       x1="43.936"><stop
         id="stop2481"
         stop-color="#ffe69b"
         offset="0" /><stop
         id="stop2483"
         stop-color="#fff"
         offset="1" /></linearGradient><linearGradient
       id="linearGradient3982"
       y2="15.815"
       gradientUnits="userSpaceOnUse"
       x2="20.917"
       gradientTransform="matrix(1.003 0 0 1.003 -.071859 .019684)"
       y1="33.955"
       x1="21.994"><stop
         id="stop3959"
         stop-color="#fffeff"
         stop-opacity=".33333"
         offset="0" /><stop
         id="stop3961"
         stop-color="#fffeff"
         stop-opacity=".21569"
         offset="1" /></linearGradient><linearGradient
       id="c"
       y2="24.530001"
       gradientUnits="userSpaceOnUse"
       y1="-5.4099998"
       x2="-91"
       x1="-83.800003"><stop
         stop-color="#a7cc5c"
         offset="0"
         id="stop14"
         style="stop-color:#d3d3d3;stop-opacity:1;" /><stop
         stop-color="#789e2d"
         offset="1"
         id="stop15"
         style="stop-color:#ffffff;stop-opacity:1;" /></linearGradient></defs><metadata
     id="metadata1311"><rdf:RDF><cc:Work
         rdf:about=""><dc:format>image/svg+xml</dc:format><dc:type
           rdf:resource="http://purl.org/dc/dcmitype/StillImage" /><dc:creator><cc:Agent><dc:title>Rodney Dawes</dc:title></cc:Agent></dc:creator><dc:contributor><cc:Agent><dc:title>Jakub Steiner, Garrett LeSage</dc:title></cc:Agent></dc:contributor><cc:license
           rdf:resource="http://creativecommons.org/licenses/by-sa/2.0/" /><dc:title /></cc:Work><cc:License
         rdf:about="http://creativecommons.org/licenses/by-sa/2.0/"><cc:permits
           rdf:resource="http://web.resource.org/cc/Reproduction" /><cc:permits
           rdf:resource="http://web.resource.org/cc/Distribution" /><cc:requires
           rdf:resource="http://web.resource.org/cc/Notice" /><cc:requires
           rdf:resource="http://web.resource.org/cc/Attribution" /><cc:permits
           rdf:resource="http://web.resource.org/cc/DerivativeWorks" /><cc:requires
           rdf:resource="http://web.resource.org/cc/ShareAlike" /></cc:License></rdf:RDF></metadata><g
     id="layer2"><path
       id="path6548"
       opacity=".6"
       style="color:#000000"
       d="m41 40a17.143 8.5714 0 1 1 -34.286 0 17.143 8.5714 0 1 1 34.286 0z"
       transform="matrix(1.0706 0 0 .525 -.89276 22.5)"
       display="block"
       fill="url(#radialGradient3976)" /></g><g
     id="layer1"><g
       id="g4006"><path
         id="path1314"
         d="m46.857 23.929c0 12.9-10.457 23.357-23.357 23.357s-23.357-10.457-23.357-23.357 10.457-23.357 23.357-23.357 23.357 10.457 23.357 23.357z"
         transform="matrix(.92049 0 0 .92049 2.3685 .97408)"
         stroke="#4e9a06"
         stroke-width="1.0864"
         fill="#73d216" /><path
         id="path3560"
         opacity=".34659"
         d="m49.902 26.635c0 13.25-10.741 23.991-23.991 23.991s-23.991-10.741-23.991-23.991 10.741-23.991 23.991-23.991 23.991 10.741 23.991 23.991z"
         fill-opacity="0"
         transform="matrix(.85609 0 0 .85609 1.8183 .19777)"
         stroke="url(#linearGradient3980)"
         stroke-width="1.1681" /></g></g><g
     id="layer3"
     style="display:none"><g
       id="text4967"
       fill="#eeeeec"
       stroke="#eeeeec"><path
         id="path4984"
         d="m 14.707,25.178 c 0.62921,1.5e-5 1.1052,0.5163 1.4278,1.5489 0.64534,1.9361 1.1052,2.9041 1.3794,2.9041 0.20973,1.2e-5 0.42753,-0.16133 0.65342,-0.48402 4.5336,-7.2602 8.7284,-13.133 12.584,-17.618 1.0003,-1.1616 2.5895,-1.7424 4.7676,-1.7425 0.51625,3.13e-5 0.86313,0.048433 1.0406,0.1452 0.17744,0.096834 0.26618,0.21784 0.26621,0.36301 -3.3e-5,0.2259 -0.26624,0.66959 -0.79863,1.331 -6.2277,7.4861 -12.004,15.392 -17.328,23.717 -0.37109,0.58082 -1.1294,0.87124 -2.2749,0.87123 -1.1617,5e-6 -1.8473,-0.0484 -2.0571,-0.1452 -0.54856,-0.242 -1.1939,-1.4762 -1.9361,-3.7027 -0.83897,-2.4685 -1.2585,-4.0173 -1.2584,-4.6466 -8e-6,-0.67761 0.56468,-1.331 1.6941,-1.9603 0.69375,-0.3872 1.3068,-0.5808 1.8393,-0.58082" /></g></g><g
     stroke-linejoin="round"
     transform="matrix(0.81487433,-0.19466608,0.19466608,0.81487433,93.687933,-1.4623837)"
     stroke-linecap="round"
     stroke-width="1.174"
     id="g32"
     style="display:inline"><path
       d="m -73.88,-4.63 c -0.51,-0.18 -1.09,-0.05 -1.47,0.38 l -16.38,18.1 -5.93,-7.58 c -0.57,-0.51 -1.44,-0.48 -1.95,0.09 l -4.3,3.43 c -0.51,0.57 -0.47,1.44 0.1,1.95 0,0 10.73,14.25 10.75,14.26 0.13,0.12 0.28,0.2 0.44,0.26 0.51,0.19 1.12,0.07 1.51,-0.36 l 22.1,-24.43 c 0.51,-0.57 0.47,-1.44 -0.1,-1.95 l -4.28,-3.89 c -0.14,-0.13 -0.31,-0.22 -0.48,-0.28 z"
       stroke="#42770c"
       fill="url(#c)"
       id="path31"
       style="fill:url(#c);stroke:#c3c3c2;stroke-opacity:1" /><path
       opacity="0.48"
       d="m -74.98,-3.2 -8.31,9.22 -7.38,8.12 c -0.21,0.13 -0.28,0.67 -1.05,0.69 -0.53,10e-4 -0.58,-0.2 -1.02,-0.67 l -5.24,-6.65 c -0.58,-0.75 -0.57,-0.71 -1.2,-0.32 l -3.37,2.65 c -0.88,0.58 -0.88,1.06 -0.14,1.83 0,0 9.75,12.93 9.77,12.95 0.13,0.11 0.06,0.13 0.58,0.71 0.33,0.37 0.89,-0.42 1.26,-0.83 L -69.79,1.06 c 0.48,-0.53 0.45,-0.53 -0.08,-1.02 l -3.85,-3.39 c -0.55,-0.5 -0.56,-0.49 -1.2,0.16 z"
       stroke="#ffffff"
       fill="none"
       id="path32" /></g><g
     id="layer4"
     style="display:inline"><path
       id="path3955"
       fill="url(#linearGradient3982)"
       d="m 43.429,21.8 c 0,10.863 -10.386,-6.285 -18.731,0.388 C 16.547,28.705 4.039,34.415 4.039,23.552 4.0394,12.434 12.761,2.121 23.624,2.121 34.487,2.1208 43.429,10.937 43.429,21.8 Z" /></g></svg>
