<?xml version="1.0" encoding="UTF-8" standalone="no"?>
<!-- Created with Inkscape (http://www.inkscape.org/) -->

<svg
   width="256mm"
   height="256mm"
   viewBox="0 0 256 256"
   version="1.1"
   id="svg1"
   inkscape:version="1.3.2 (091e20ef0f, 2023-11-25)"
   xml:space="preserve"
   sodipodi:docname="emblem-symbolic-link-05.svg"
   xmlns:inkscape="http://www.inkscape.org/namespaces/inkscape"
   xmlns:sodipodi="http://sodipodi.sourceforge.net/DTD/sodipodi-0.dtd"
   xmlns:xlink="http://www.w3.org/1999/xlink"
   xmlns="http://www.w3.org/2000/svg"
   xmlns:svg="http://www.w3.org/2000/svg"
   xmlns:rdf="http://www.w3.org/1999/02/22-rdf-syntax-ns#"
   xmlns:cc="http://creativecommons.org/ns#"
   xmlns:dc="http://purl.org/dc/elements/1.1/"><defs
     id="defs1"><linearGradient
       id="linearGradient18"
       inkscape:collect="always"><stop
         style="stop-color:#626262;stop-opacity:1;"
         offset="0"
         id="stop17" /><stop
         style="stop-color:#aeaeae;stop-opacity:1;"
         offset="0.5"
         id="stop19" /><stop
         style="stop-color:#818181;stop-opacity:1;"
         offset="1"
         id="stop18" /></linearGradient><linearGradient
       id="linearGradient15"
       inkscape:collect="always"><stop
         style="stop-color:#666666;stop-opacity:0.96470588;"
         offset="0"
         id="stop15" /><stop
         style="stop-color:#565656;stop-opacity:1;"
         offset="1"
         id="stop16" /></linearGradient><linearGradient
       id="linearGradient13"
       inkscape:collect="always"><stop
         style="stop-color:#626262;stop-opacity:1;"
         offset="0"
         id="stop12" /><stop
         style="stop-color:#818181;stop-opacity:1;"
         offset="1"
         id="stop13" /></linearGradient><linearGradient
       id="linearGradient10"
       inkscape:collect="always"><stop
         style="stop-color:#5f5f5f;stop-opacity:0.94509804;"
         offset="0"
         id="stop10" /><stop
         style="stop-color:#8f8f8f;stop-opacity:0.99163181;"
         offset="1"
         id="stop11" /></linearGradient><linearGradient
       id="linearGradient8"
       inkscape:collect="always"><stop
         style="stop-color:#2e2e2e;stop-opacity:0.25383544;"
         offset="0"
         id="stop8" /><stop
         style="stop-color:#2c2c2c;stop-opacity:0;"
         offset="1"
         id="stop9" /></linearGradient><linearGradient
       id="linearGradient6"
       inkscape:collect="always"><stop
         style="stop-color:#0086f0;stop-opacity:1;"
         offset="0"
         id="stop6" /><stop
         style="stop-color:#00205c;stop-opacity:1;"
         offset="1"
         id="stop7" /></linearGradient><linearGradient
       inkscape:collect="always"
       xlink:href="#linearGradient6"
       id="linearGradient7"
       x1="81.884056"
       y1="57.962872"
       x2="82.474731"
       y2="250.6642"
       gradientUnits="userSpaceOnUse" /><linearGradient
       inkscape:collect="always"
       xlink:href="#linearGradient8"
       id="linearGradient9"
       x1="134.01781"
       y1="241.32271"
       x2="183.34689"
       y2="138.15666"
       gradientUnits="userSpaceOnUse" /><linearGradient
       inkscape:collect="always"
       xlink:href="#linearGradient10"
       id="linearGradient11"
       x1="145.6619"
       y1="42.495853"
       x2="152.34364"
       y2="31.270533"
       gradientUnits="userSpaceOnUse" /><linearGradient
       inkscape:collect="always"
       xlink:href="#linearGradient13"
       id="linearGradient12"
       gradientUnits="userSpaceOnUse"
       x1="219.69556"
       y1="53.453911"
       x2="213.2811"
       y2="48.643051" /><linearGradient
       inkscape:collect="always"
       xlink:href="#linearGradient18"
       id="linearGradient14"
       gradientUnits="userSpaceOnUse"
       x1="132.29842"
       y1="178.80333"
       x2="105.03694"
       y2="74.835464" /><linearGradient
       inkscape:collect="always"
       xlink:href="#linearGradient15"
       id="linearGradient16"
       x1="147.67754"
       y1="70.660988"
       x2="200.68488"
       y2="197.07947"
       gradientUnits="userSpaceOnUse" /><linearGradient
       inkscape:collect="always"
       xlink:href="#linearGradient8-5"
       id="linearGradient9-7"
       x1="134.01781"
       y1="241.32271"
       x2="183.34689"
       y2="138.15666"
       gradientUnits="userSpaceOnUse" /><linearGradient
       id="linearGradient8-5"
       inkscape:collect="always"><stop
         style="stop-color:#00205c;stop-opacity:1;"
         offset="0"
         id="stop8-3" /><stop
         style="stop-color:#00205c;stop-opacity:0;"
         offset="1"
         id="stop9-5" /></linearGradient><linearGradient
       inkscape:collect="always"
       xlink:href="#linearGradient10-2"
       id="linearGradient11-6"
       x1="145.6619"
       y1="42.495853"
       x2="152.34364"
       y2="31.270533"
       gradientUnits="userSpaceOnUse" /><linearGradient
       id="linearGradient10-2"
       inkscape:collect="always"><stop
         style="stop-color:#2a7893;stop-opacity:0.94509804;"
         offset="0"
         id="stop10-9" /><stop
         style="stop-color:#50b0cd;stop-opacity:0.99163181;"
         offset="1"
         id="stop11-1" /></linearGradient><linearGradient
       inkscape:collect="always"
       xlink:href="#linearGradient13-7"
       id="linearGradient12-2"
       gradientUnits="userSpaceOnUse"
       x1="219.69556"
       y1="53.453911"
       x2="213.2811"
       y2="48.643051" /><linearGradient
       id="linearGradient13-7"
       inkscape:collect="always"><stop
         style="stop-color:#0773bd;stop-opacity:1;"
         offset="0"
         id="stop12-0" /><stop
         style="stop-color:#04aaff;stop-opacity:1"
         offset="1"
         id="stop13-9" /></linearGradient><linearGradient
       inkscape:collect="always"
       xlink:href="#linearGradient18-6"
       id="linearGradient14-3"
       gradientUnits="userSpaceOnUse"
       x1="132.29842"
       y1="178.80333"
       x2="105.03694"
       y2="74.835464" /><linearGradient
       id="linearGradient18-6"
       inkscape:collect="always"><stop
         style="stop-color:#0773bd;stop-opacity:1;"
         offset="0"
         id="stop17-0" /><stop
         style="stop-color:#62c2fa;stop-opacity:1;"
         offset="0.5"
         id="stop19-6" /><stop
         style="stop-color:#04aaff;stop-opacity:1"
         offset="1"
         id="stop18-2" /></linearGradient><linearGradient
       inkscape:collect="always"
       xlink:href="#linearGradient15-1"
       id="linearGradient16-6"
       x1="147.67754"
       y1="70.660988"
       x2="200.68488"
       y2="197.07947"
       gradientUnits="userSpaceOnUse" /><linearGradient
       id="linearGradient15-1"
       inkscape:collect="always"><stop
         style="stop-color:#139db9;stop-opacity:0.96470588;"
         offset="0"
         id="stop15-8" /><stop
         style="stop-color:#078da5;stop-opacity:1;"
         offset="1"
         id="stop16-7" /></linearGradient></defs><sodipodi:namedview
     id="base"
     pagecolor="#ffffff"
     bordercolor="#000000"
     borderopacity="0.3"
     inkscape:pageopacity="0.0"
     inkscape:pageshadow="2"
     inkscape:zoom="0.98994949"
     inkscape:cx="505.07627"
     inkscape:cy="476.792"
     inkscape:document-units="mm"
     inkscape:showpageshadow="2"
     inkscape:pagecheckerboard="0"
     inkscape:deskcolor="#d1d1d1"
     inkscape:current-layer="svg1" /><metadata
     id="metadata1"><rdf:RDF><cc:Work
         rdf:about=""><dc:format>image/svg+xml</dc:format><dc:type
           rdf:resource="http://purl.org/dc/dcmitype/StillImage" /><cc:license
           rdf:resource="http://creativecommons.org/publicdomain/zero/1.0/" /></cc:Work><cc:License
         rdf:about="http://creativecommons.org/publicdomain/zero/1.0/"><cc:permits
           rdf:resource="http://creativecommons.org/ns#Reproduction" /><cc:permits
           rdf:resource="http://creativecommons.org/ns#Distribution" /><cc:permits
           rdf:resource="http://creativecommons.org/ns#DerivativeWorks" /></cc:License></rdf:RDF></metadata><g
     id="g2"
     transform="matrix(1.4970699,0,0,1.4970699,-73.195889,-57.959178)"
     style="display:none"><path
       id="rect1"
       style="fill:#808080;stroke-width:0.846;stroke-linecap:round;stroke-linejoin:round;stroke-miterlimit:2.1"
       d="M 49.560738,40.443455 H 64.434609 204.39062 V 54.901043 H 64.434609 l 0.31388,140.583767 H 49.560738 Z"
       sodipodi:nodetypes="cccccccc" /><path
       id="path1"
       style="fill:#000000;fill-opacity:1;stroke-width:0.846;stroke-linecap:round;stroke-linejoin:round;stroke-miterlimit:2.1"
       d="M 219.89225,208.58102 H 205.01838 49.64041 V 194.12343 H 205.01838 L 204.7045,40.443455 h 15.18775 z"
       sodipodi:nodetypes="cccccccc" /><path
       id="rect2"
       style="stroke-width:0.846;stroke-linecap:round;stroke-linejoin:round;stroke-miterlimit:2.1"
       d="m 125.84839,163.53339 0.1019,14.1579 -13.44499,-0.13575 -0.30903,-13.53755 -2.32282,-1.59219 -13.93561,-0.12222 -0.172998,-44.362 16.411148,-0.41908 0.1077,-15.04063 15.63898,0.25581 0.38078,-16.90005 -15.83097,-0.133634 0.0514,-14.29892 60.96711,-0.534539 v 61.421133 h -14.57571 l -0.0236,-16.05351 -17.69401,-0.29396 -0.11812,15.68601 -15.07646,0.66146 -0.17558,15.81893 -15.01101,-0.05 -0.14651,13.47279 1.91953,1.82684 z"
       sodipodi:nodetypes="ccccccccccccccccccccccccc" /></g><g
     id="g5"
     transform="matrix(1.4351428,0,0,1.4351428,-13.980162,-110.77295)"
     style="display:none"><path
       id="rect3"
       style="fill:#5f5f5f;fill-opacity:0.808362;stroke-width:0.846;stroke-linecap:round;stroke-linejoin:round;stroke-miterlimit:2.1"
       d="m 90.336304,80.130951 h 86.934526 v 86.903169 h -27.57117 l -0.17602,-29.80055 -27.3039,0.13363 -4.05144,2.6727 0.0912,26.45968 -27.572763,0.26727 -0.383476,2.51203 0.655958,56.37364 -30.621571,-0.0393 -0.0055,-58.34213 28.24822,0.33866 1.884381,-1.26772 0.183488,-23.66283 -0.0055,-3.44109 27.217483,0.26727 2.76232,-2.93997 1.16031,-28.4642 H 90.336274 Z"
       sodipodi:nodetypes="cccccccccccccccccccccc" /><path
       id="rect4"
       style="fill:#c0c0c0;fill-opacity:1;stroke:none;stroke-width:0.846;stroke-linecap:round;stroke-linejoin:round;stroke-miterlimit:2.1"
       d="m 32.127755,225.46272 v 29.10417 h 29.104166 v -29.10417 z m 58.77574,0 v 29.10417 h 29.104165 v -29.10417 z" /></g><g
     id="rect6"
     transform="matrix(1.0185768,0,0,1.0185768,-5.7978192,-4.6640581)"
     style="display:none"><path
       id="rect5"
       style="fill:#5f5f5f;fill-opacity:0.439896;stroke-width:0.846;stroke-linecap:round;stroke-linejoin:round;stroke-miterlimit:2.1"
       d="m 136.30746,76.973626 77.50816,-13.363479 c 10.36467,-3.354829 15.9893,-5.92383 16.81949,4.272853 l 0.0785,60.35302 c -3.32401,16.5354 -8.47353,24.57147 -20.67677,13.43216 L 191.10502,128.3172 c -43.74789,28.93773 -64.46406,60.1253 -47.17875,114.61181 L 86.595329,171.58704 Z"
       sodipodi:nodetypes="ccccccccc" /><path
       style="color:#000000;fill:url(#linearGradient7);stroke-linecap:round;stroke-linejoin:round;stroke-miterlimit:2.1;-inkscape-stroke:none"
       d="m 206.11735,9.6916394 c 5.81879,-1.3544207 10.89,-0.4512246 11.97458,7.4136106 l -2.13816,66.282838 c -1.12469,13.653953 -8.24962,10.68213 -14.29892,8.084904 L 179.273,83.149311 C 79.778733,165.15366 103.86655,205.65128 142.58829,242.88118 c 3.79328,4.05227 0.22704,7.22323 -3.60814,5.41221 C 103.66797,230.02101 85.228924,211.7223 72.563676,181.81009 53.340142,146.13369 66.146657,90.855091 109.58106,54.770811 L 85.932801,44.046313 c -2.277409,-2.935287 -1.273392,-5.191658 3.755007,-6.615398 z"
       id="path7" /><path
       id="path8"
       style="color:#000000;fill:#00205c;stroke-linecap:round;stroke-linejoin:round;stroke-miterlimit:2.1;-inkscape-stroke:none"
       d="m 210.34582,6.9101725 c -1.56174,-0.021718 -3.15946,0.222146 -4.73822,0.5896281 -0.004,6.784e-4 -0.008,0.00137 -0.0119,0.00207 L 89.166134,35.242293 c -0.03082,0.0071 -0.06149,0.01486 -0.09198,0.02326 -2.776207,0.786054 -4.88757,1.793563 -5.986198,3.841626 -0.549315,1.024031 -0.678818,2.276816 -0.429948,3.367236 0.248869,1.090421 0.792016,2.043855 1.496032,2.951241 0.01888,0.01529 0.038,0.03028 0.05736,0.04496 l 6.927743,15.733923 c 0.129348,1.556502 0.462957,2.999527 3.741374,2.806547 l 1.243334,0.430465 C 61.801039,100.63366 52.654704,149.60547 70.582255,182.87669 c 12.84149,30.2147 31.867745,49.04747 67.362815,67.41449 0.0246,0.0127 0.0494,0.0249 0.0744,0.0367 2.61958,1.237 5.628,0.96276 7.35149,-1.09915 0.86175,-1.03097 1.24483,-2.50186 1.01183,-3.90623 -0.233,-1.40438 -0.98376,-2.73021 -2.15233,-3.97857 -0.0266,-0.0288 -0.054,-0.0569 -0.0822,-0.0842 -19.23504,-18.49397 -22.93748,-34.6441 -21.46336,-58.6667 0.74456,-12.13369 16.99259,-46.46227 58.75226,-78.72927 l 18.86677,8.99495 c 6.00023,2.85234 13.47688,1.50806 15.21642,-4.10547 0.57831,-1.86622 2.56956,-9.151475 2.22725,-17.043921 -0.10166,-2.34394 0.15015,-4.523275 0.44782,-8.137119 0.004,-0.03696 0.006,-0.07401 0.008,-0.111104 l 2.13682,-66.283293 c 0.004,-0.12659 -0.002,-0.253303 -0.0196,-0.378788 -0.60553,-4.390985 -2.5857,-7.480112 -5.4529,-8.879045 -1.43359,-0.6994665 -2.95994,-0.9880397 -4.52168,-1.0097575 z m -0.10956,4.5253055 c 1.05953,0.01248 1.95905,0.187483 2.65617,0.527616 1.37654,0.671625 2.45303,1.977823 2.94142,5.353162 l -2.12493,65.904504 c -0.26568,3.201114 -0.89404,5.268296 -1.56425,6.433716 -0.67168,1.167973 -1.23832,1.495974 -2.01589,1.681551 -1.55515,0.371156 -4.56933,-0.634589 -7.58559,-1.929598 -0.0343,-0.01516 -0.0689,-0.02946 -0.10387,-0.04289 l -22.38261,-8.32249 c -0.75165,-0.279889 -1.59545,-0.138533 -2.21485,0.371037 -49.95608,41.174384 -69.3504,72.214914 -70.98843,98.251884 -1.63575,26.00034 14.6453,46.04663 34.09559,64.75987 0.72173,0.77355 0.95115,1.36225 0.99632,1.63453 0.0453,0.27329 0.008,0.24332 -0.0274,0.28525 -0.0698,0.0835 -0.75784,0.48034 -1.96267,-0.0816 -35.01007,-18.12619 -52.840045,-35.85239 -65.320559,-65.32831 -0.02696,-0.0651 -0.05697,-0.12891 -0.08992,-0.1912 -18.56522,-34.45461 -6.25797,-88.73912 36.474779,-124.240481 1.27635,-1.062064 1.00219,-3.093399 -0.51005,-3.779098 L 87.498018,42.287341 c -0.194871,-0.318094 -0.421711,-0.674893 -0.453202,-0.81287 -0.04626,-0.202688 -0.0378,-0.15329 0.0078,-0.238228 0.09094,-0.169535 0.996262,-0.999413 3.238562,-1.636593 l 116.336052,-27.716654 0.0114,-0.0021 c 1.32556,-0.307677 2.54163,-0.457887 3.59771,-0.445451 z"
       sodipodi:nodetypes="sccccssccccccscssccsccssccccssssccssccccscscccccccsccccscs" /></g><g
     id="path12-9"
     transform="matrix(1.2155825,0,0,1.2155825,-54.02771,-30.822206)"
     style="display:none"><path
       id="rect8-2"
       style="display:none;fill:url(#linearGradient9-7);stroke-width:4.50001;stroke-linecap:round;stroke-linejoin:round;stroke-miterlimit:2.1"
       d="m 157.68902,102.6315 48.64305,65.48104 c -25.62164,3.57415 -45.26042,16.81292 -43.29766,64.94649 -23.27285,3.77281 -31.87791,-14.77491 -39.02135,-35.54685 -1.80975,-42.00174 1.0091,-80.3195 33.67596,-94.88068 z"
       sodipodi:nodetypes="ccccc" /><path
       id="rect9-0"
       style="fill:url(#linearGradient11-6);stroke-width:4.50001;stroke-linecap:round;stroke-linejoin:round;stroke-miterlimit:2.1"
       d="M 103.16603,26.459682 220.23009,47.306705 212.74654,54.255713 94.747044,31.604621 Z"
       sodipodi:nodetypes="ccccc" /><path
       id="path11-2"
       style="display:inline;fill:url(#linearGradient12-2);stroke-width:4.50001;stroke-linecap:round;stroke-linejoin:round;stroke-miterlimit:2.1"
       d="m 221.03189,182.81236 -0.8018,-135.505655 -7.48355,6.949008 0.80181,133.902037 z"
       sodipodi:nodetypes="ccccc" /><path
       style="color:#000000;fill:url(#linearGradient14-3);stroke-linecap:round;stroke-linejoin:round;stroke-miterlimit:2.1;-inkscape-stroke:none"
       d="m 177.86786,136.842 c -0.59379,-0.73221 -1.39444,-1.17483 -2.87314,-0.66817 -52.89089,42.64345 -53.77839,85.04063 -16.37026,97.55337 C 133.6063,243.87502 33.096364,163.38672 128.10562,79.963702 l 0.51784,-4.393243 -33.475506,-43.765387 117.598586,22.450641 0.80181,133.902037 z"
       id="path16-3" /><path
       id="path17-7"
       style="color:#000000;fill:url(#linearGradient16-6);stroke-linecap:round;stroke-linejoin:round;stroke-miterlimit:2.1;-inkscape-stroke:none"
       d="m 95.242249,31.314368 c -0.451606,-0.08775 -0.772081,0.429448 -0.492477,0.794783 l 33.353518,43.60354 -0.47232,4.010091 c -23.71125,20.865198 -35.284835,41.592188 -38.847759,60.796808 -3.570619,19.2461 0.89996,36.93612 9.134843,51.65834 8.234886,14.72224 20.225086,26.48846 31.749996,33.95504 5.76246,3.73328 11.4087,6.39418 16.42949,7.80469 5.0208,1.41051 9.42702,1.58739 12.71499,0.25373 0.10055,-0.0496 0.18154,-0.13144 0.22996,-0.23254 12.36339,-1.68327 6.47654,-4.7258 4.49636,-5.93918 -41.02455,-24.571 -18.68793,-61.20127 11.45667,-88.07059 1.00746,-0.25193 2.01509,-0.18874 3.02255,0.79943 7.22414,9.88807 34.26303,49.5422 34.26303,49.5422 l 7.90701,-5.84667 c 1.1862,-1.17422 0.80444,-1.34086 0.82424,-1.76527 l -6.96547,5.14026 -0.80098,-133.567044 c -0.001,-0.238912 -0.17151,-0.443497 -0.40618,-0.488343 z m 1.097607,1.228348 115.908174,22.127332 0.79116,131.880842 -34.75963,-49.99437 c -0.008,-0.01 -0.0155,-0.0196 -0.0238,-0.0289 -0.3351,-0.41321 -0.76863,-0.78815 -1.34773,-0.96324 -0.57908,-0.17509 -1.26808,-0.13983 -2.07584,0.13694 -0.0546,0.019 -0.10547,0.0473 -0.15038,0.0837 -26.50736,21.37164 -40.04842,42.70713 -42.23049,60.40252 -1.09104,8.84769 0.67513,16.79119 5.09736,23.29677 4.18952,6.16324 10.82381,10.96717 19.52336,14.14487 -2.8418,0.71995 -6.49081,0.52852 -10.70271,-0.65474 -4.89332,-1.3747 -10.46265,-3.99071 -16.15664,-7.67963 -11.38796,-7.37786 -23.27817,-19.046 -31.421851,-33.60519 -8.143682,-14.55918 -12.548578,-31.99763 -9.025289,-50.98862 3.52329,-18.99098 14.98052,-39.5606 38.66999,-60.361171 0.0928,-0.08192 0.15189,-0.195345 0.16588,-0.318327 l 0.5178,-4.392497 c 0.0154,-0.128513 -0.0196,-0.257994 -0.0977,-0.361218 z"
       inkscape:label="frame"
       sodipodi:nodetypes="ccccsssscccccccccccccccccsccsscssssccccc" /></g><g
     id="path12"
     style="display:inline"
     transform="matrix(1.2152091,0,0,1.2152091,-53.453126,-30.550431)"><path
       id="rect8"
       style="display:inline;fill:url(#linearGradient9);stroke-width:4.50001;stroke-linecap:round;stroke-linejoin:round;stroke-miterlimit:2.1"
       d="m 157.68902,102.6315 48.64305,65.48104 c -25.62164,3.57415 -45.26042,16.81292 -43.29766,64.94649 -23.27285,3.77281 -31.87791,-14.77491 -39.02135,-35.54685 -1.80975,-42.00174 1.0091,-80.3195 33.67596,-94.88068 z"
       sodipodi:nodetypes="ccccc" /><path
       id="rect9"
       style="fill:url(#linearGradient11);stroke-width:4.50001;stroke-linecap:round;stroke-linejoin:round;stroke-miterlimit:2.1"
       d="M 103.16603,26.459682 220.23009,47.306705 212.74654,54.255713 94.737547,31.474344 Z"
       sodipodi:nodetypes="ccccc" /><path
       id="path11"
       style="display:inline;fill:url(#linearGradient12);stroke-width:4.50001;stroke-linecap:round;stroke-linejoin:round;stroke-miterlimit:2.1"
       d="m 221.03189,182.81236 -0.8018,-135.505655 -7.48355,6.949008 0.80181,133.902037 z"
       sodipodi:nodetypes="ccccc" /><path
       style="color:#000000;fill:url(#linearGradient14);stroke-linecap:round;stroke-linejoin:round;stroke-miterlimit:2.1;-inkscape-stroke:none"
       d="m 177.86786,136.842 c -0.59379,-0.73221 -1.39444,-1.17483 -2.87314,-0.66817 -52.89089,42.64345 -53.77839,85.04063 -16.37026,97.55337 C 133.6063,243.87502 33.096364,163.38672 128.10562,79.963702 l 0.51784,-4.393243 -33.475506,-43.765387 117.598586,22.450641 0.80181,133.902037 z"
       id="path16" /><path
       id="path17"
       style="color:#000000;fill:url(#linearGradient16);stroke-linecap:round;stroke-linejoin:round;stroke-miterlimit:2.1;-inkscape-stroke:none"
       d="m 95.242249,31.314368 a 0.50005,0.50005 0 0 0 -0.492477,0.794783 l 33.353518,43.60354 -0.47232,4.010091 c -23.71125,20.865198 -35.284835,41.592188 -38.847759,60.796808 -3.570619,19.2461 0.89996,36.93612 9.134843,51.65834 8.234886,14.72224 20.225086,26.48846 31.749996,33.95504 5.76246,3.73328 11.4087,6.39418 16.42949,7.80469 5.0208,1.41051 9.42702,1.58739 12.71499,0.25373 a 0.50005,0.50005 0 0 0 0.22996,-0.23254 c 12.36339,-1.68327 6.47654,-4.7258 4.49636,-5.93918 -41.02455,-24.571 -18.68793,-61.20127 11.45667,-88.07059 1.00746,-0.25193 2.01509,-0.18874 3.02255,0.79943 7.22414,9.88807 34.26303,49.5422 34.26303,49.5422 l 7.90701,-5.84667 c 1.1862,-1.17422 0.80444,-1.34086 0.82424,-1.76527 l -6.96547,5.14026 -0.80098,-133.567044 a 0.50005,0.50005 0 0 0 -0.40618,-0.488343 z m 1.097607,1.228348 115.908174,22.127332 0.79116,131.880842 -34.75963,-49.99437 a 0.50005,0.50005 0 0 0 -0.0238,-0.0289 c -0.3351,-0.41321 -0.76863,-0.78815 -1.34773,-0.96324 -0.57908,-0.17509 -1.26808,-0.13983 -2.07584,0.13694 a 0.50005,0.50005 0 0 0 -0.15038,0.0837 c -26.50736,21.37164 -40.04842,42.70713 -42.23049,60.40252 -1.09104,8.84769 0.67513,16.79119 5.09736,23.29677 4.18952,6.16324 10.82381,10.96717 19.52336,14.14487 -2.8418,0.71995 -6.49081,0.52852 -10.70271,-0.65474 -4.89332,-1.3747 -10.46265,-3.99071 -16.15664,-7.67963 -11.38796,-7.37786 -23.27817,-19.046 -31.421851,-33.60519 -8.143682,-14.55918 -12.548578,-31.99763 -9.025289,-50.98862 3.52329,-18.99098 14.98052,-39.5606 38.66999,-60.361171 a 0.50005,0.50005 0 0 0 0.16588,-0.318327 l 0.5178,-4.392497 a 0.50005,0.50005 0 0 0 -0.0977,-0.361218 z M 133.2823,204.0723 c 0.7648,7.92944 4.16697,14.82152 9.8795,20.31504 -1.83276,-1.68554 -3.44899,-3.5003 -4.78472,-5.4653 -2.94804,-4.33689 -4.64996,-9.33884 -5.09478,-14.84974 z"
       inkscape:label="frame" /></g><g
     id="g10"
     transform="matrix(3.4717865,0,0,3.4717865,-353.25662,-333.16601)"
     style="display:none"><path
       id="rect7"
       style="display:inline;fill:#e2f1fe;fill-opacity:0.85098;stroke:#585c5e;stroke-width:1.8;stroke-linecap:round;stroke-linejoin:round;stroke-miterlimit:2.1;stroke-dasharray:none;stroke-opacity:0.85098"
       d="m 105.97237,97.820641 64.94649,-0.0334 c 2.44355,-0.01541 3.25247,1.311913 3.20723,3.340859 l -0.0675,64.07689 c -0.0266,1.48537 -1.41516,2.76261 -2.88125,2.71786 l -63.8018,0.52375 c -3.15957,-0.0529 -3.25819,-1.90643 -3.27405,-3.80861 l 0.13363,-64.34514 c -0.0619,-1.190362 0.55753,-2.463831 1.73726,-2.472205 z"
       sodipodi:nodetypes="ccccccccc" /><path
       id="rect10"
       style="fill:#1e5394;stroke-width:1.8;stroke-linecap:round;stroke-linejoin:round;stroke-miterlimit:2.1;stroke-opacity:0.85098"
       d="m 120.93946,104.36876 40.62498,-0.13364 v 41.29315 l -13.49712,-13.89802 c -26.58366,20.30629 -9.37352,26.36422 -4.81085,31.27054 -36.93035,-2.7715 -25.41537,-36.49249 -10.15624,-46.63853 z"
       sodipodi:nodetypes="ccccccc" /></g></svg>
