<?xml version="1.0" encoding="UTF-8" standalone="no"?>
<!-- Created with Inkscape (http://www.inkscape.org/) -->

<svg
   width="256"
   height="256"
   id="svg2"
   sodipodi:version="0.32"
   inkscape:version="1.4.2 (ebf0e940d0, 2025-05-08)"
   version="1.0"
   sodipodi:docname="keys.svg"
   inkscape:output_extension="org.inkscape.output.svg.inkscape"
   xmlns:inkscape="http://www.inkscape.org/namespaces/inkscape"
   xmlns:sodipodi="http://sodipodi.sourceforge.net/DTD/sodipodi-0.dtd"
   xmlns:xlink="http://www.w3.org/1999/xlink"
   xmlns="http://www.w3.org/2000/svg"
   xmlns:svg="http://www.w3.org/2000/svg"
   xmlns:rdf="http://www.w3.org/1999/02/22-rdf-syntax-ns#"
   xmlns:cc="http://creativecommons.org/ns#"
   xmlns:dc="http://purl.org/dc/elements/1.1/">
  <title
     id="title1">Keys</title>
  <defs
     id="defs4">
    <linearGradient
       inkscape:collect="always"
       id="linearGradient7614">
      <stop
         style="stop-color:#babdb6;stop-opacity:1"
         offset="0"
         id="stop7616" />
      <stop
         id="stop7628"
         offset="0.4873454"
         style="stop-color:#ffffff;stop-opacity:1" />
      <stop
         style="stop-color:#d3d7cf;stop-opacity:1"
         offset="1"
         id="stop7618" />
    </linearGradient>
    <linearGradient
       inkscape:collect="always"
       id="linearGradient7604">
      <stop
         style="stop-color:#000000;stop-opacity:1;"
         offset="0"
         id="stop7606" />
      <stop
         style="stop-color:#000000;stop-opacity:0;"
         offset="1"
         id="stop7608" />
    </linearGradient>
    <linearGradient
       inkscape:collect="always"
       id="linearGradient7592">
      <stop
         style="stop-color:#ffffff;stop-opacity:1;"
         offset="0"
         id="stop7594" />
      <stop
         style="stop-color:#ffffff;stop-opacity:0;"
         offset="1"
         id="stop7596" />
    </linearGradient>
    <linearGradient
       inkscape:collect="always"
       id="linearGradient7582">
      <stop
         style="stop-color:#ffffff;stop-opacity:1;"
         offset="0"
         id="stop7584" />
      <stop
         style="stop-color:#ffffff;stop-opacity:0;"
         offset="1"
         id="stop7586" />
    </linearGradient>
    <linearGradient
       inkscape:collect="always"
       id="linearGradient7567">
      <stop
         style="stop-color:#000000;stop-opacity:1;"
         offset="0"
         id="stop7569" />
      <stop
         style="stop-color:#000000;stop-opacity:0;"
         offset="1"
         id="stop7571" />
    </linearGradient>
    <linearGradient
       inkscape:collect="always"
       id="linearGradient7557">
      <stop
         style="stop-color:#eeeeec;stop-opacity:1"
         offset="0"
         id="stop7559" />
      <stop
         style="stop-color:#eeeeec;stop-opacity:1"
         offset="1"
         id="stop7561" />
    </linearGradient>
    <linearGradient
       inkscape:collect="always"
       id="linearGradient7549">
      <stop
         style="stop-color:#ffffff;stop-opacity:1"
         offset="0"
         id="stop7551" />
      <stop
         style="stop-color:#eeeeec;stop-opacity:1"
         offset="1"
         id="stop7553" />
    </linearGradient>
    <linearGradient
       inkscape:collect="always"
       id="linearGradient7491">
      <stop
         style="stop-color:#eeeeec;stop-opacity:1"
         offset="0"
         id="stop7493" />
      <stop
         style="stop-color:#babdb6;stop-opacity:1"
         offset="1"
         id="stop7495" />
    </linearGradient>
    <linearGradient
       id="linearGradient6826"
       inkscape:collect="always">
      <stop
         id="stop6828"
         offset="0"
         style="stop-color:#babdb6;stop-opacity:1" />
      <stop
         id="stop6830"
         offset="1"
         style="stop-color:#eeeeec;stop-opacity:1" />
    </linearGradient>
    <linearGradient
       id="linearGradient2816"
       inkscape:collect="always">
      <stop
         id="stop2818"
         offset="0"
         style="stop-color:white;stop-opacity:1;" />
      <stop
         id="stop2820"
         offset="1"
         style="stop-color:white;stop-opacity:0;" />
    </linearGradient>
    <linearGradient
       id="linearGradient4542"
       inkscape:collect="always">
      <stop
         id="stop4544"
         offset="0"
         style="stop-color:#888a85;stop-opacity:1" />
      <stop
         id="stop4546"
         offset="1"
         style="stop-color:#888a85;stop-opacity:0" />
    </linearGradient>
    <linearGradient
       inkscape:collect="always"
       id="linearGradient6958">
      <stop
         style="stop-color:#000000;stop-opacity:1"
         offset="0"
         id="stop6960" />
      <stop
         style="stop-color:#888a85;stop-opacity:0;"
         offset="1"
         id="stop6962" />
    </linearGradient>
    <linearGradient
       inkscape:collect="always"
       xlink:href="#linearGradient7614"
       id="linearGradient6789"
       gradientUnits="userSpaceOnUse"
       gradientTransform="matrix(0,0.673693,-0.676136,0,37.10227,14.81577)"
       x1="6.7188582"
       y1="22.936218"
       x2="44.344444"
       y2="42.604996" />
    <linearGradient
       inkscape:collect="always"
       xlink:href="#linearGradient6958"
       id="linearGradient6791"
       gradientUnits="userSpaceOnUse"
       gradientTransform="matrix(0,0.625,-0.676136,0,37.10227,15.875)"
       x1="17"
       y1="45.248375"
       x2="17"
       y2="30.759407" />
    <linearGradient
       inkscape:collect="always"
       xlink:href="#linearGradient4542"
       id="linearGradient6798"
       gradientUnits="userSpaceOnUse"
       gradientTransform="matrix(0.727273,0,0,0.999999,12.27273,-34.84375)"
       x1="33.120464"
       y1="20.5"
       x2="22.328388"
       y2="20.5" />
    <linearGradient
       inkscape:collect="always"
       xlink:href="#linearGradient2816"
       id="linearGradient6834"
       gradientUnits="userSpaceOnUse"
       gradientTransform="matrix(0,0.673693,-0.676136,0,37.10227,14.81577)"
       x1="15.406166"
       y1="37.34367"
       x2="16.864777"
       y2="24.249567" />
    <linearGradient
       inkscape:collect="always"
       xlink:href="#linearGradient6826"
       id="linearGradient7425"
       gradientUnits="userSpaceOnUse"
       gradientTransform="matrix(0,0.673693,-0.676136,0,37.10227,14.81577)"
       x1="13.819278"
       y1="30.029789"
       x2="36.227631"
       y2="45.194965" />
    <linearGradient
       inkscape:collect="always"
       xlink:href="#linearGradient6958"
       id="linearGradient7427"
       gradientUnits="userSpaceOnUse"
       gradientTransform="matrix(0,0.625,-0.676136,0,37.10227,15.875)"
       x1="17"
       y1="45.248375"
       x2="17"
       y2="30.759407" />
    <linearGradient
       inkscape:collect="always"
       xlink:href="#linearGradient2816"
       id="linearGradient7431"
       gradientUnits="userSpaceOnUse"
       gradientTransform="matrix(0,0.673693,-0.676136,0,37.10227,14.81577)"
       x1="15.406166"
       y1="37.34367"
       x2="16.864777"
       y2="24.249567" />
    <linearGradient
       inkscape:collect="always"
       xlink:href="#linearGradient4542"
       id="linearGradient7433"
       gradientUnits="userSpaceOnUse"
       gradientTransform="matrix(0.727273,0,0,0.999999,12.27273,-34.84375)"
       x1="33.120464"
       y1="20.5"
       x2="22.328388"
       y2="20.5" />
    <radialGradient
       inkscape:collect="always"
       xlink:href="#linearGradient7604"
       id="radialGradient7610"
       cx="20"
       cy="46"
       fx="20"
       fy="46"
       r="8"
       gradientTransform="matrix(1,0,0,0.25,0,34.5)"
       gradientUnits="userSpaceOnUse" />
    <radialGradient
       inkscape:collect="always"
       xlink:href="#linearGradient7604"
       id="radialGradient7612"
       cx="20"
       cy="46"
       fx="20"
       fy="46"
       r="8"
       gradientTransform="matrix(1,0,0,0.25,0,34.5)"
       gradientUnits="userSpaceOnUse" />
    <radialGradient
       inkscape:collect="always"
       xlink:href="#linearGradient7557"
       id="radialGradient6179"
       gradientUnits="userSpaceOnUse"
       gradientTransform="matrix(1,0,0,0.6315789,0,2.947369)"
       cx="17.812502"
       cy="14.729167"
       fx="17.812502"
       fy="14.729167"
       r="9.500001" />
    <radialGradient
       inkscape:collect="always"
       xlink:href="#linearGradient7491"
       id="radialGradient6183"
       gradientUnits="userSpaceOnUse"
       gradientTransform="matrix(-1.5922835,-0.1907818,-1.1802872,-1.4345654,57.810344,15.557175)"
       cx="23.681061"
       cy="5.3414755"
       fx="23.681061"
       fy="5.3414755"
       r="5.055244" />
    <radialGradient
       inkscape:collect="always"
       xlink:href="#linearGradient7592"
       id="radialGradient6187"
       gradientUnits="userSpaceOnUse"
       gradientTransform="matrix(1,0,0,0.6206897,0,0.7823276)"
       cx="11.15625"
       cy="2.0625"
       fx="11.15625"
       fy="2.0625"
       r="0.90625" />
    <radialGradient
       inkscape:collect="always"
       xlink:href="#linearGradient7549"
       id="radialGradient6191"
       gradientUnits="userSpaceOnUse"
       gradientTransform="matrix(1.6372128,-0.3629926,2.1525103,1.8500902,-36.53018,2.08716)"
       cx="24.090876"
       cy="5.052979"
       fx="24.090876"
       fy="5.052979"
       r="4.4921517" />
    <linearGradient
       inkscape:collect="always"
       xlink:href="#linearGradient7567"
       id="linearGradient6195"
       gradientUnits="userSpaceOnUse"
       gradientTransform="matrix(1.1304264,-0.235981,0.915432,0.6373638,-15.020125,7.538008)"
       x1="20.722668"
       y1="16.830494"
       x2="22.697027"
       y2="15.894469" />
    <radialGradient
       inkscape:collect="always"
       xlink:href="#linearGradient7582"
       id="radialGradient6201"
       gradientUnits="userSpaceOnUse"
       gradientTransform="matrix(1,0,0,0.6206897,0,0.7823276)"
       cx="11.15625"
       cy="2.0625"
       fx="11.15625"
       fy="2.0625"
       r="0.90625" />
  </defs>
  <sodipodi:namedview
     id="base"
     pagecolor="#ffffff"
     bordercolor="#666666"
     borderopacity="0.37647059"
     inkscape:pageopacity="0.0"
     inkscape:pageshadow="2"
     inkscape:zoom="0.51508654"
     inkscape:cx="155.31371"
     inkscape:cy="261.12117"
     inkscape:document-units="px"
     inkscape:current-layer="svg2"
     width="48px"
     height="48px"
     inkscape:showpageshadow="false"
     gridempspacing="2"
     gridspacingx="0.5px"
     gridspacingy="0.5px"
     inkscape:window-width="1006"
     inkscape:window-height="696"
     inkscape:window-x="5"
     inkscape:window-y="24"
     inkscape:snap-bbox="true"
     gridtolerance="10000"
     showborder="false"
     inkscape:pagecheckerboard="0"
     inkscape:deskcolor="#d1d1d1">
    <inkscape:grid
       type="xygrid"
       id="grid6206"
       spacingx="0.5px"
       spacingy="0.5px"
       empspacing="2"
       originx="0"
       originy="0"
       units="px"
       visible="false" />
  </sodipodi:namedview>
  <metadata
     id="metadata7">
    <rdf:RDF>
      <cc:Work
         rdf:about="">
        <dc:format>image/svg+xml</dc:format>
        <dc:type
           rdf:resource="http://purl.org/dc/dcmitype/StillImage" />
        <dc:creator>
          <cc:Agent>
            <dc:title>Lapo Calamandrei  &lt;calamandrei@gmail.com&gt;</dc:title>
          </cc:Agent>
        </dc:creator>
        <dc:contributor>
          <cc:Agent>
            <dc:title>Ulisse Perusin &lt;uli.peru@gmail.com&gt;</dc:title>
          </cc:Agent>
        </dc:contributor>
        <dc:subject>
          <rdf:Bag>
            <rdf:li>keys</rdf:li>
            <rdf:li>key</rdf:li>
            <rdf:li>password</rdf:li>
            <rdf:li>authentication</rdf:li>
          </rdf:Bag>
        </dc:subject>
        <cc:license
           rdf:resource="http://creativecommons.org/publicdomain/zero/1.0/" />
        <dc:title>Keys</dc:title>
      </cc:Work>
      <cc:License
         rdf:about="http://creativecommons.org/publicdomain/zero/1.0/">
        <cc:permits
           rdf:resource="http://creativecommons.org/ns#Reproduction" />
        <cc:permits
           rdf:resource="http://creativecommons.org/ns#Distribution" />
        <cc:permits
           rdf:resource="http://creativecommons.org/ns#DerivativeWorks" />
      </cc:License>
    </rdf:RDF>
  </metadata>
  <g
     id="g1"
     transform="matrix(5.5625416,0,0,5.5625416,-5.9915504,-4.4260986)"
     inkscape:label="Livello 1">
    <ellipse
       style="display:inline;overflow:visible;visibility:visible;opacity:0.162896;fill:url(#radialGradient7612);fill-opacity:1;fill-rule:evenodd;stroke:none;stroke-width:1;stroke-linecap:round;stroke-linejoin:miter;stroke-miterlimit:4;stroke-dasharray:none;stroke-dashoffset:0.677417;stroke-opacity:1;marker:none;marker-start:none;marker-mid:none;marker-end:none;enable-background:accumulate"
       id="path7600"
       transform="matrix(1.1875,0,0,1.75,9.75,-37.5)"
       cx="20"
       cy="46"
       rx="8"
       ry="2" />
    <ellipse
       style="display:inline;overflow:visible;visibility:visible;opacity:0.162896;fill:url(#radialGradient7610);fill-opacity:1;fill-rule:evenodd;stroke:none;stroke-width:1;stroke-linecap:round;stroke-linejoin:miter;stroke-miterlimit:4;stroke-dasharray:none;stroke-dashoffset:0.677417;stroke-opacity:1;marker:none;marker-start:none;marker-mid:none;marker-end:none;enable-background:accumulate"
       id="path7602"
       transform="matrix(1.25,0,0,1.75,-8,-37.5)"
       cx="20"
       cy="46"
       rx="8"
       ry="2" />
    <path
       sodipodi:nodetypes="css"
       id="use6159"
       d="M 24.281173,13.417592 C 21.785192,13.938638 16.273503,11.934434 11.978296,8.943923 7.683089,5.953412 6.222848,3.103453 8.718829,2.582407"
       style="fill:none;fill-opacity:1;fill-rule:evenodd;stroke:#babdb6;stroke-width:3;stroke-linecap:round;stroke-linejoin:miter;stroke-miterlimit:4;stroke-dashoffset:0.7;stroke-opacity:1" />
    <path
       id="use6161"
       d="m 21.021707,7.056075 c 4.295207,2.990511 5.755448,5.840471 3.259466,6.361517 C 21.785192,13.938638 16.273503,11.934434 11.978296,8.943923 7.683089,5.953412 6.222848,3.103453 8.718829,2.582407 11.214811,2.061361 16.7265,4.065564 21.021707,7.056075 Z"
       style="fill:none;fill-opacity:1;fill-rule:evenodd;stroke:url(#radialGradient6179);stroke-width:1;stroke-linecap:round;stroke-linejoin:miter;stroke-miterlimit:4;stroke-dashoffset:0.7;stroke-opacity:1" />
    <ellipse
       transform="matrix(1.1034483,0,0,1.7777778,2.636801,7.009256)"
       id="use6173"
       style="display:inline;overflow:visible;visibility:visible;fill:url(#radialGradient6201);fill-opacity:1;fill-rule:evenodd;stroke:none;stroke-width:1;stroke-linecap:round;stroke-linejoin:miter;stroke-miterlimit:4;stroke-dasharray:none;stroke-dashoffset:0.677417;stroke-opacity:1;marker:none;marker-start:none;marker-mid:none;marker-end:none;enable-background:accumulate"
       cx="11.15625"
       cy="2.0625"
       rx="0.90625"
       ry="0.5625" />
    <g
       id="g7413"
       transform="matrix(1.222459,0.3275569,-0.3275569,1.222459,15.102844,-16.514282)">
      <path
         id="path7415"
         d="m 13.4375,16.5 c -3.9188838,-1e-6 -7.09375,3.157775 -7.09375,7.0625 2e-7,2.818198 1.6046259,5.300595 4,6.4375 v 1.5 l 1.5,1.5 -1.5,1.5 v 1 l 2,1 v 1 l -2,1 v 1 l 1.5,1.5 -1.5,1.5 v 1 l 2.5,2 h 2.5 l 1,-1.5 V 30 c 2.372429,-1.145434 4,-3.698516 4,-6.5 0,-3.904724 -2.987366,-7 -6.90625,-7 z m -0.09375,2 c 1.104,0 2,0.896 2,2 0,1.104 -0.896,2 -2,2 -1.104,0 -2,-0.896 -2,-2 0,-1.104 0.896,-2 2,-2 z"
         style="fill:url(#linearGradient7425);fill-opacity:1;fill-rule:evenodd;stroke:#888a85;stroke-width:0.79015;stroke-linecap:round;stroke-linejoin:miter;stroke-miterlimit:4;stroke-dasharray:none;stroke-opacity:1"
         sodipodi:nodetypes="csccccccccccccccccsccsssc" />
      <path
         id="path7417"
         d="M 18.846598,24 H 8.028422 c 0,2.76 2.423271,5 5.409088,5 2.985817,0 5.409088,-2.24 5.409088,-5 z"
         style="opacity:0.3;fill:url(#linearGradient7427);fill-opacity:1;fill-rule:evenodd;stroke:none;stroke-width:1.02742;stroke-linecap:round;stroke-linejoin:miter;stroke-miterlimit:4;stroke-dasharray:none;stroke-opacity:1" />
      <path
         d="m 13.4375,17.277344 c -3.5016836,-1e-6 -6.3164062,2.80141 -6.3164063,6.285156 2e-7,2.523398 1.4335565,4.729586 3.5546873,5.736328 A 0.7767123,0.7767123 0 0 1 11.121094,30 v 1.177734 l 1.271484,1.273438 a 0.7767123,0.7767123 0 0 1 0,1.097656 l -1.271484,1.273438 v 0.197265 l 1.570312,0.785156 A 0.7767123,0.7767123 0 0 1 13.121094,36.5 v 1 a 0.7767123,0.7767123 0 0 1 -0.429688,0.695312 l -1.570312,0.785157 v 0.197265 l 1.271484,1.273438 a 0.7767123,0.7767123 0 0 1 0,1.097656 l -1.271484,1.273438 v 0.304687 l 1.99414,1.595703 h 1.8125 l 0.638672,-0.957031 V 30 a 0.7767123,0.7767123 0 0 1 0.439453,-0.699219 c 2.090763,-1.009442 3.560547,-3.300097 3.560547,-5.800781 0,-3.508607 -2.618965,-6.222656 -6.128906,-6.222656 z m -0.09375,0.445312 c 1.524208,0 2.777344,1.253136 2.777344,2.777344 0,1.524208 -1.253136,2.777344 -2.777344,2.777344 -1.524208,0 -2.777344,-1.253136 -2.777344,-2.777344 0,-1.524208 1.253136,-2.777344 2.777344,-2.777344 z"
         inkscape:href="#path1884"
         id="path7419"
         style="opacity:1;fill:none;fill-opacity:1;fill-rule:evenodd;stroke:#ffffff;stroke-width:0.79015;stroke-linecap:round;stroke-linejoin:miter;stroke-miterlimit:4;stroke-dasharray:none;stroke-opacity:1"
         xlink:href="#path1884"
         inkscape:original="M 13.4375 16.5 C 9.5186162 16.499999 6.34375 19.657775 6.34375 23.5625 C 6.3437502 26.380698 7.9483759 28.863095 10.34375 30 L 10.34375 31.5 L 11.84375 33 L 10.34375 34.5 L 10.34375 35.5 L 12.34375 36.5 L 12.34375 37.5 L 10.34375 38.5 L 10.34375 39.5 L 11.84375 41 L 10.34375 42.5 L 10.34375 43.5 L 12.84375 45.5 L 15.34375 45.5 L 16.34375 44 L 16.34375 30 C 18.716179 28.854566 20.34375 26.301484 20.34375 23.5 C 20.34375 19.595276 17.356384 16.5 13.4375 16.5 z M 13.34375 18.5 C 14.44775 18.5 15.34375 19.396 15.34375 20.5 C 15.34375 21.604 14.44775 22.5 13.34375 22.5 C 12.23975 22.5 11.34375 21.604 11.34375 20.5 C 11.34375 19.396 12.23975 18.5 13.34375 18.5 z "
         inkscape:radius="-0.77663463"
         sodipodi:type="inkscape:offset" />
      <path
         sodipodi:type="inkscape:offset"
         inkscape:radius="-0.10364762"
         inkscape:original="M 13.40625 17.53125 C 13.179953 17.535742 12.940048 17.565361 12.71875 17.59375 C 11.746507 17.718472 10.844502 18.056009 10.0625 18.5625 C 10.273788 19.382459 10.603512 20.028723 11 20.59375 C 10.998818 20.562191 11 20.531846 11 20.5 C 11 19.119998 12.119999 18 13.5 18 C 14.880001 18 16 19.119998 16 20.5 C 16 21.880003 14.880001 23 13.5 23 C 13.338115 23 13.184591 22.966937 13.03125 22.9375 C 14.159156 24.243071 15.219875 25.922289 15.46875 29.3125 C 17.839227 28.416828 19.53125 26.324417 19.53125 23.5625 C 19.444481 20.923505 17.958879 18.870351 15.46875 17.84375 C 14.777284 17.614671 14.085142 17.517773 13.40625 17.53125 z M 15.46875 31.96875 C 15.356466 34.978468 14.778907 38.970391 13.4375 44.46875 L 14.78125 44.46875 L 15.46875 43.125 L 15.46875 31.96875 z "
         style="opacity:0.6;fill:url(#linearGradient7431);fill-opacity:1;fill-rule:evenodd;stroke:none;stroke-width:1;stroke-linecap:round;stroke-linejoin:miter;stroke-miterlimit:4;stroke-dasharray:none;stroke-opacity:1"
         id="path7421"
         d="m 13.408203,17.634766 c -0.218711,0.0043 -0.454836,0.03416 -0.675781,0.0625 -0.930429,0.119358 -1.792702,0.440585 -2.546875,0.916015 0.175326,0.647181 0.436503,1.168908 0.736328,1.642578 0.125365,-1.319954 1.225798,-2.359375 2.578125,-2.359375 1.436081,0 2.603516,1.167434 2.603516,2.603516 0,1.436083 -1.167435,2.603516 -2.603516,2.603516 -0.08449,0 -0.156276,-0.01959 -0.234375,-0.03125 1.058127,1.270377 2.032881,2.937267 2.291016,6.085937 2.266579,-0.908047 3.869494,-2.924499 3.871093,-5.591797 v -0.002 c -0.08616,-2.598909 -1.537794,-4.608957 -3.992187,-5.623047 -0.680148,-0.225329 -1.359706,-0.319894 -2.027344,-0.30664 z m 1.957031,17.03125 c -0.278874,2.586914 -0.83804,5.74943 -1.796875,9.699218 h 1.150391 l 0.646484,-1.265625 z" />
      <rect
         transform="rotate(90)"
         y="-14.84375"
         x="29"
         height="0.98128641"
         width="16.311773"
         id="rect7423"
         style="opacity:0.615385;fill:url(#linearGradient7433);fill-opacity:1;fill-rule:evenodd;stroke:none;stroke-width:1;stroke-linecap:round;stroke-linejoin:miter;stroke-miterlimit:4;stroke-dasharray:none;stroke-opacity:1" />
    </g>
    <path
       style="opacity:0.15;fill:#000000;fill-opacity:1;fill-rule:evenodd;stroke:#000000;stroke-width:1;stroke-linecap:round;stroke-linejoin:miter;stroke-miterlimit:4;stroke-dasharray:none;stroke-opacity:1"
       d="m 25.6875,8.875 c -0.588561,0.036819 -1.182416,0.1207928 -1.78125,0.28125 -4.790674,1.283657 -7.65402,6.195384 -6.375,10.96875 0.923121,3.44513 3.699353,5.957302 7,6.5625 l 0.1875,0.75 L 25.25,25.5 c 3.275392,-0.623141 6.113605,-3.200301 7.03125,-6.625 1.018029,-3.799341 -0.444599,-7.588204 -3.5,-9.625 C 27.800972,8.9441375 26.762022,8.8077801 25.6875,8.875 Z m -0.84375,1.5 c 0.167842,0.01005 0.331301,0.04855 0.5,0.09375 1.075458,0.288168 1.806766,1.228158 1.875,2.28125 0.129462,0.207411 0.245957,0.439157 0.3125,0.6875 0.361623,1.349595 -0.431656,2.732127 -1.78125,3.09375 -1.349595,0.361624 -2.732127,-0.431656 -3.09375,-1.78125 -0.04247,-0.158514 -0.08238,-0.310882 -0.09375,-0.46875 -0.0047,-0.0073 0.0046,-0.02393 0,-0.03125 -0.359793,-0.574923 -0.501749,-1.293712 -0.3125,-2 0.316419,-1.180896 1.418855,-1.945332 2.59375,-1.875 z"
       id="path7441" />
    <g
       id="g6765"
       transform="matrix(1.222459,-0.3275569,0.3275569,1.222459,2.064799,-7.6041513)">
      <path
         id="path6767"
         d="m 13.4375,16.5 c -3.9188838,-1e-6 -7.09375,3.157775 -7.09375,7.0625 2e-7,2.818198 1.6046259,5.300595 4,6.4375 v 1.5 l 1.5,1.5 -1.5,1.5 v 1 l 2,1 v 1 l -2,1 v 1 l 1.5,1.5 -1.5,1.5 v 1 l 2.5,2 h 2.5 l 1,-1.5 V 30 c 2.372429,-1.145434 4,-3.698516 4,-6.5 0,-3.904724 -2.987366,-7 -6.90625,-7 z m -0.09375,2 c 1.104,0 2,0.896 2,2 0,1.104 -0.896,2 -2,2 -1.104,0 -2,-0.896 -2,-2 0,-1.104 0.896,-2 2,-2 z"
         style="fill:url(#linearGradient6789);fill-opacity:1;fill-rule:evenodd;stroke:#888a85;stroke-width:0.79015;stroke-linecap:round;stroke-linejoin:miter;stroke-miterlimit:4;stroke-dasharray:none;stroke-opacity:1"
         sodipodi:nodetypes="csccccccccccccccccsccsssc" />
      <path
         id="path6769"
         d="M 18.846598,24 H 8.028422 c 0,2.76 2.423271,5 5.409088,5 2.985817,0 5.409088,-2.24 5.409088,-5 z"
         style="opacity:0.3;fill:url(#linearGradient6791);fill-opacity:1;fill-rule:evenodd;stroke:none;stroke-width:1.02742;stroke-linecap:round;stroke-linejoin:miter;stroke-miterlimit:4;stroke-dasharray:none;stroke-opacity:1" />
      <path
         d="m 13.4375,17.277344 c -3.5016836,-1e-6 -6.3164062,2.80141 -6.3164063,6.285156 2e-7,2.523398 1.4335565,4.729586 3.5546873,5.736328 A 0.7767123,0.7767123 0 0 1 11.121094,30 v 1.177734 l 1.271484,1.273438 a 0.7767123,0.7767123 0 0 1 0,1.097656 l -1.271484,1.273438 v 0.197265 l 1.570312,0.785156 A 0.7767123,0.7767123 0 0 1 13.121094,36.5 v 1 a 0.7767123,0.7767123 0 0 1 -0.429688,0.695312 l -1.570312,0.785157 v 0.197265 l 1.271484,1.273438 a 0.7767123,0.7767123 0 0 1 0,1.097656 l -1.271484,1.273438 v 0.304687 l 1.99414,1.595703 h 1.8125 l 0.638672,-0.957031 V 30 a 0.7767123,0.7767123 0 0 1 0.439453,-0.699219 c 2.090763,-1.009442 3.560547,-3.300097 3.560547,-5.800781 0,-3.508607 -2.618965,-6.222656 -6.128906,-6.222656 z m -0.09375,0.445312 c 1.524208,0 2.777344,1.253136 2.777344,2.777344 0,1.524208 -1.253136,2.777344 -2.777344,2.777344 -1.524208,0 -2.777344,-1.253136 -2.777344,-2.777344 0,-1.524208 1.253136,-2.777344 2.777344,-2.777344 z"
         inkscape:href="#path1884"
         id="path6771"
         style="opacity:1;fill:none;fill-opacity:1;fill-rule:evenodd;stroke:#ffffff;stroke-width:0.79015;stroke-linecap:round;stroke-linejoin:miter;stroke-miterlimit:4;stroke-dasharray:none;stroke-opacity:1"
         xlink:href="#path1884"
         inkscape:original="M 13.4375 16.5 C 9.5186162 16.499999 6.34375 19.657775 6.34375 23.5625 C 6.3437502 26.380698 7.9483759 28.863095 10.34375 30 L 10.34375 31.5 L 11.84375 33 L 10.34375 34.5 L 10.34375 35.5 L 12.34375 36.5 L 12.34375 37.5 L 10.34375 38.5 L 10.34375 39.5 L 11.84375 41 L 10.34375 42.5 L 10.34375 43.5 L 12.84375 45.5 L 15.34375 45.5 L 16.34375 44 L 16.34375 30 C 18.716179 28.854566 20.34375 26.301484 20.34375 23.5 C 20.34375 19.595276 17.356384 16.5 13.4375 16.5 z M 13.34375 18.5 C 14.44775 18.5 15.34375 19.396 15.34375 20.5 C 15.34375 21.604 14.44775 22.5 13.34375 22.5 C 12.23975 22.5 11.34375 21.604 11.34375 20.5 C 11.34375 19.396 12.23975 18.5 13.34375 18.5 z "
         inkscape:radius="-0.77663463"
         sodipodi:type="inkscape:offset" />
      <path
         sodipodi:type="inkscape:offset"
         inkscape:radius="-0.10364762"
         inkscape:original="M 13.40625 17.53125 C 13.179953 17.535742 12.940048 17.565361 12.71875 17.59375 C 11.746507 17.718472 10.844502 18.056009 10.0625 18.5625 C 10.273788 19.382459 10.603512 20.028723 11 20.59375 C 10.998818 20.562191 11 20.531846 11 20.5 C 11 19.119998 12.119999 18 13.5 18 C 14.880001 18 16 19.119998 16 20.5 C 16 21.880003 14.880001 23 13.5 23 C 13.338115 23 13.184591 22.966937 13.03125 22.9375 C 14.159156 24.243071 15.219875 25.922289 15.46875 29.3125 C 17.839227 28.416828 19.53125 26.324417 19.53125 23.5625 C 19.444481 20.923505 17.958879 18.870351 15.46875 17.84375 C 14.777284 17.614671 14.085142 17.517773 13.40625 17.53125 z M 15.46875 31.96875 C 15.356466 34.978468 14.778907 38.970391 13.4375 44.46875 L 14.78125 44.46875 L 15.46875 43.125 L 15.46875 31.96875 z "
         style="opacity:0.6;fill:url(#linearGradient6834);fill-opacity:1;fill-rule:evenodd;stroke:none;stroke-width:1;stroke-linecap:round;stroke-linejoin:miter;stroke-miterlimit:4;stroke-dasharray:none;stroke-opacity:1"
         id="path6832"
         d="m 13.408203,17.634766 c -0.218711,0.0043 -0.454836,0.03416 -0.675781,0.0625 -0.930429,0.119358 -1.792702,0.440585 -2.546875,0.916015 0.175326,0.647181 0.436503,1.168908 0.736328,1.642578 0.125365,-1.319954 1.225798,-2.359375 2.578125,-2.359375 1.436081,0 2.603516,1.167434 2.603516,2.603516 0,1.436083 -1.167435,2.603516 -2.603516,2.603516 -0.08449,0 -0.156276,-0.01959 -0.234375,-0.03125 1.058127,1.270377 2.032881,2.937267 2.291016,6.085937 2.266579,-0.908047 3.869494,-2.924499 3.871093,-5.591797 v -0.002 c -0.08616,-2.598909 -1.537794,-4.608957 -3.992187,-5.623047 -0.680148,-0.225329 -1.359706,-0.319894 -2.027344,-0.30664 z m 1.957031,17.03125 c -0.278874,2.586914 -0.83804,5.74943 -1.796875,9.699218 h 1.150391 l 0.646484,-1.265625 z" />
      <rect
         transform="rotate(90)"
         y="-14.84375"
         x="29"
         height="0.98128641"
         width="16.311773"
         id="rect6776"
         style="opacity:0.615385;fill:url(#linearGradient6798);fill-opacity:1;fill-rule:evenodd;stroke:none;stroke-width:1;stroke-linecap:round;stroke-linejoin:miter;stroke-miterlimit:4;stroke-dasharray:none;stroke-opacity:1" />
    </g>
    <path
       id="use6163"
       d="M 7.973909,5.14413 C 6.383785,2.550006 8.912938,1.724058 13.619341,3.300498 c 4.706403,1.57644 9.816629,4.961246 11.406753,7.555371 0.789043,1.287243 0.643566,2.112963 -0.43671,2.478739"
       style="fill:none;fill-opacity:1;fill-rule:evenodd;stroke:url(#radialGradient6183);stroke-width:3;stroke-linecap:round;stroke-linejoin:miter;stroke-miterlimit:4;stroke-dashoffset:0.7;stroke-opacity:1" />
    <ellipse
       transform="matrix(1.5911082,0,0,2.563452,-6.228703,-2.588246)"
       id="use6165"
       style="display:inline;overflow:visible;visibility:visible;fill:url(#radialGradient6187);fill-opacity:1;fill-rule:evenodd;stroke:none;stroke-width:1;stroke-linecap:round;stroke-linejoin:miter;stroke-miterlimit:4;stroke-dasharray:none;stroke-dashoffset:0.677417;stroke-opacity:1;marker:none;marker-start:none;marker-mid:none;marker-end:none;enable-background:accumulate"
       cx="11.15625"
       cy="2.0625"
       rx="0.90625"
       ry="0.5625" />
    <path
       id="use6167"
       d="M 10.813348,8.082144 C 6.962997,5.046919 6.385696,2.546748 9.524729,2.501404 12.663762,2.45606 18.336305,4.88263 22.186655,7.917855 c 3.791641,2.988943 4.422284,5.460973 1.422808,5.577195"
       style="fill:none;fill-opacity:1;fill-rule:evenodd;stroke:url(#radialGradient6191);stroke-width:1;stroke-linecap:round;stroke-linejoin:miter;stroke-miterlimit:4;stroke-dashoffset:0.7;stroke-opacity:1" />
    <path
       sodipodi:nodetypes="cc"
       id="use6169"
       d="m 22.186054,7.917381 c 3.792118,2.989106 4.423052,5.46144 1.423409,5.577669"
       style="opacity:0.104072;fill:none;fill-opacity:1;fill-rule:evenodd;stroke:url(#linearGradient6195);stroke-width:1;stroke-linecap:round;stroke-linejoin:miter;stroke-miterlimit:4;stroke-dashoffset:0.7;stroke-opacity:1" />
    <ellipse
       transform="matrix(1.1034483,0,0,1.7777778,-0.69986,-0.945696)"
       id="use6171"
       style="display:inline;overflow:visible;visibility:visible;fill:#ffffff;fill-opacity:1;fill-rule:evenodd;stroke:none;stroke-width:1;stroke-linecap:round;stroke-linejoin:miter;stroke-miterlimit:4;stroke-dasharray:none;stroke-dashoffset:0.677417;stroke-opacity:1;marker:none;marker-start:none;marker-mid:none;marker-end:none;enable-background:accumulate"
       cx="11.15625"
       cy="2.0625"
       rx="0.90625"
       ry="0.5625" />
  </g>
</svg>
