<?xml version="1.0" encoding="UTF-8" standalone="no"?>
<!-- Created with Inkscape (http://www.inkscape.org/) -->

<svg
   inkscape:export-ydpi="90.000000"
   inkscape:export-xdpi="90.000000"
   inkscape:export-filename="/home/jimmac/Desktop/wi-fi.png"
   width="256"
   height="256"
   id="svg11300"
   sodipodi:version="0.32"
   inkscape:version="1.4.2 (ebf0e940d0, 2025-05-08)"
   sodipodi:docname="outdated.svg"
   inkscape:output_extension="org.inkscape.output.svg.inkscape"
   version="1.1"
   viewBox="0 0 256 256"
   xmlns:inkscape="http://www.inkscape.org/namespaces/inkscape"
   xmlns:sodipodi="http://sodipodi.sourceforge.net/DTD/sodipodi-0.dtd"
   xmlns:xlink="http://www.w3.org/1999/xlink"
   xmlns="http://www.w3.org/2000/svg"
   xmlns:svg="http://www.w3.org/2000/svg"
   xmlns:rdf="http://www.w3.org/1999/02/22-rdf-syntax-ns#"
   xmlns:cc="http://creativecommons.org/ns#"
   xmlns:dc="http://purl.org/dc/elements/1.1/">
  <defs
     id="defs3">
    <radialGradient
       inkscape:collect="always"
       xlink:href="#linearGradient5060"
       id="radialGradient6719"
       gradientUnits="userSpaceOnUse"
       gradientTransform="matrix(-2.774389,0,0,1.969706,112.7623,-872.8854)"
       cx="605.71429"
       cy="486.64789"
       fx="605.71429"
       fy="486.64789"
       r="117.14286" />
    <linearGradient
       inkscape:collect="always"
       id="linearGradient5060">
      <stop
         style="stop-color:black;stop-opacity:1;"
         offset="0"
         id="stop5062" />
      <stop
         style="stop-color:black;stop-opacity:0;"
         offset="1"
         id="stop5064" />
    </linearGradient>
    <radialGradient
       inkscape:collect="always"
       xlink:href="#linearGradient5060"
       id="radialGradient6717"
       gradientUnits="userSpaceOnUse"
       gradientTransform="matrix(2.774389,0,0,1.969706,-1891.633,-872.8854)"
       cx="605.71429"
       cy="486.64789"
       fx="605.71429"
       fy="486.64789"
       r="117.14286" />
    <linearGradient
       id="linearGradient5048">
      <stop
         style="stop-color:black;stop-opacity:0;"
         offset="0"
         id="stop5050" />
      <stop
         id="stop5056"
         offset="0.5"
         style="stop-color:black;stop-opacity:1;" />
      <stop
         style="stop-color:black;stop-opacity:0;"
         offset="1"
         id="stop5052" />
    </linearGradient>
    <linearGradient
       inkscape:collect="always"
       xlink:href="#linearGradient5048"
       id="linearGradient6715"
       gradientUnits="userSpaceOnUse"
       gradientTransform="matrix(2.774389,0,0,1.969706,-1892.179,-872.8854)"
       x1="302.85715"
       y1="366.64789"
       x2="302.85715"
       y2="609.50507" />
    <linearGradient
       inkscape:collect="always"
       id="linearGradient2719">
      <stop
         style="stop-color:#f57900;stop-opacity:1;"
         offset="0"
         id="stop2721" />
      <stop
         style="stop-color:#fcaf3e;stop-opacity:1;"
         offset="1"
         id="stop2723" />
    </linearGradient>
    <linearGradient
       id="linearGradient11520">
      <stop
         id="stop11522"
         offset="0.0000000"
         style="stop-color:#ffffff;stop-opacity:1.0000000;" />
      <stop
         id="stop11524"
         offset="1.0000000"
         style="stop-color:#dcdcdc;stop-opacity:1.0000000;" />
    </linearGradient>
    <radialGradient
       inkscape:collect="always"
       xlink:href="#linearGradient11520"
       id="radialGradient1366"
       gradientUnits="userSpaceOnUse"
       gradientTransform="matrix(1.995058,0,0,1.995058,-24.32488,-35.70087)"
       cx="24.44569"
       cy="35.87817"
       fx="24.44569"
       fy="35.87817"
       r="20.530962" />
    <radialGradient
       inkscape:collect="always"
       xlink:href="#linearGradient2719"
       id="radialGradient2725"
       cx="24.445681"
       cy="44.304382"
       fx="24.445681"
       fy="44.304382"
       r="16.554319"
       gradientTransform="matrix(2.670835,0,0,2.0919223,-40.84471,-52.917487)"
       gradientUnits="userSpaceOnUse" />
  </defs>
  <sodipodi:namedview
     stroke="#eeeeec"
     fill="#cc0000"
     id="base"
     pagecolor="#ffffff"
     bordercolor="#666666"
     borderopacity="0.25490196"
     inkscape:pageopacity="0.0"
     inkscape:pageshadow="2"
     inkscape:zoom="1.9414214"
     inkscape:cx="146.54212"
     inkscape:cy="189.80938"
     inkscape:current-layer="g1"
     showgrid="false"
     inkscape:grid-bbox="true"
     inkscape:document-units="px"
     inkscape:showpageshadow="false"
     inkscape:window-width="1002"
     inkscape:window-height="818"
     inkscape:window-x="432"
     inkscape:window-y="30"
     inkscape:pagecheckerboard="0"
     inkscape:deskcolor="#d1d1d1" />
  <metadata
     id="metadata4">
    <rdf:RDF>
      <cc:Work
         rdf:about="">
        <dc:format>image/svg+xml</dc:format>
        <dc:type
           rdf:resource="http://purl.org/dc/dcmitype/StillImage" />
        <dc:creator>
          <cc:Agent>
            <dc:title>Jakub Steiner</dc:title>
          </cc:Agent>
        </dc:creator>
        <dc:source>http://jimmac.musichall.cz</dc:source>
        <cc:license
           rdf:resource="http://creativecommons.org/publicdomain/zero/1.0/" />
        <dc:subject>
          <rdf:Bag>
            <rdf:li>emblem</rdf:li>
            <rdf:li>access</rdf:li>
            <rdf:li>denied</rdf:li>
            <rdf:li>unreadable</rdf:li>
          </rdf:Bag>
        </dc:subject>
        <dc:description>https://commons.wikimedia.org/wiki/File:Emblem-unreadable.svg</dc:description>
      </cc:Work>
      <cc:License
         rdf:about="http://creativecommons.org/publicdomain/zero/1.0/">
        <cc:permits
           rdf:resource="http://creativecommons.org/ns#Reproduction" />
        <cc:permits
           rdf:resource="http://creativecommons.org/ns#Distribution" />
        <cc:permits
           rdf:resource="http://creativecommons.org/ns#DerivativeWorks" />
      </cc:License>
    </rdf:RDF>
  </metadata>
  <g
     id="g1"
     transform="matrix(5.4870589,0,0,5.4870589,-5.0254406,-3.589273)">
    <g
       transform="matrix(0.02304988,0,0,0.02086758,45.00013,40.24675)"
       id="g6707">
      <rect
         style="color:#000000;display:inline;overflow:visible;visibility:visible;opacity:0.402062;fill:url(#linearGradient6715);fill-opacity:1;fill-rule:nonzero;stroke:none;stroke-width:1;stroke-linecap:round;stroke-linejoin:miter;stroke-miterlimit:4;stroke-dasharray:none;stroke-dashoffset:0;stroke-opacity:1;marker:none;marker-start:none;marker-mid:none;marker-end:none"
         id="rect6709"
         width="1339.6335"
         height="478.35718"
         x="-1559.2523"
         y="-150.69685" />
      <path
         style="color:#000000;display:inline;overflow:visible;visibility:visible;opacity:0.402062;fill:url(#radialGradient6717);fill-opacity:1;fill-rule:nonzero;stroke:none;stroke-width:1;stroke-linecap:round;stroke-linejoin:miter;stroke-miterlimit:4;stroke-dasharray:none;stroke-dashoffset:0;stroke-opacity:1;marker:none;marker-start:none;marker-mid:none;marker-end:none"
         d="m -219.61876,-150.68038 c 0,0 0,478.33079 0,478.33079 142.874166,0.90045 345.40022,-107.16966 345.40014,-239.196175 0,-132.026537 -159.436816,-239.134595 -345.40014,-239.134615 z"
         id="path6711"
         sodipodi:nodetypes="cccc" />
      <path
         sodipodi:nodetypes="cccc"
         id="path6713"
         d="m -1559.2523,-150.68038 c 0,0 0,478.33079 0,478.33079 -142.8742,0.90045 -345.4002,-107.16966 -345.4002,-239.196175 0,-132.026537 159.4368,-239.134595 345.4002,-239.134615 z"
         style="color:#000000;display:inline;overflow:visible;visibility:visible;opacity:0.402062;fill:url(#radialGradient6719);fill-opacity:1;fill-rule:nonzero;stroke:none;stroke-width:1;stroke-linecap:round;stroke-linejoin:miter;stroke-miterlimit:4;stroke-dasharray:none;stroke-dashoffset:0;stroke-opacity:1;marker:none;marker-start:none;marker-mid:none;marker-end:none" />
    </g>
    <rect
       ry="5.454824"
       rx="5.454824"
       y="3.5233452"
       x="4.4147282"
       height="40.061924"
       width="40.061924"
       id="rect11518"
       style="color:#000000;display:inline;overflow:visible;visibility:visible;opacity:1;fill:url(#radialGradient1366);fill-opacity:1;fill-rule:evenodd;stroke:#9b9b9b;stroke-width:1;stroke-linecap:butt;stroke-linejoin:bevel;stroke-miterlimit:10;stroke-dasharray:none;stroke-dashoffset:0;stroke-opacity:1;marker:none;marker-start:none;marker-mid:none;marker-end:none" />
    <rect
       style="color:#000000;display:inline;overflow:visible;visibility:visible;opacity:1;fill:none;fill-opacity:1;fill-rule:evenodd;stroke:#ffffff;stroke-width:1;stroke-linecap:butt;stroke-linejoin:bevel;stroke-miterlimit:10;stroke-dasharray:none;stroke-dashoffset:0;stroke-opacity:1;marker:none;marker-start:none;marker-mid:none;marker-end:none"
       id="rect11528"
       width="37.696587"
       height="37.696587"
       x="5.5973887"
       y="4.706007"
       rx="4.2426391"
       ry="4.2426391" />
    <rect
       style="color:#000000;display:inline;overflow:visible;visibility:visible;opacity:1;fill:url(#radialGradient2725);fill-opacity:1;fill-rule:evenodd;stroke:none;stroke-width:0.999999;stroke-linecap:butt;stroke-linejoin:bevel;stroke-miterlimit:10;stroke-dasharray:none;stroke-dashoffset:0;stroke-opacity:1;marker:none;marker-start:none;marker-mid:none;marker-end:none"
       id="rect2707"
       width="33.108639"
       height="32.891403"
       x="7.8913612"
       y="7.1085968"
       rx="2.7440348"
       ry="2.7440348"
       inkscape:r_cx="true"
       inkscape:r_cy="true" />
    <g
       id="g2703"
       transform="matrix(0.717647,0,0,0.717647,6.882353,6.6)"
       inkscape:r_cx="true"
       inkscape:r_cy="true"
       style="display:none;stroke:#eeeeec">
      <path
         inkscape:r_cy="true"
         inkscape:r_cx="true"
         id="path2698"
         d="M 16.25,15.25 32.5,31.5"
         style="color:#000000;display:block;overflow:visible;visibility:visible;opacity:1;fill:#204a87;fill-opacity:1;fill-rule:nonzero;stroke:#eeeeec;stroke-width:6.96721;stroke-linecap:round;stroke-linejoin:round;stroke-miterlimit:10;stroke-dasharray:none;stroke-dashoffset:0;stroke-opacity:1;marker:none;marker-start:none;marker-mid:none;marker-end:none" />
      <path
         style="color:#000000;display:block;overflow:visible;visibility:visible;opacity:1;fill:#204a87;fill-opacity:1;fill-rule:nonzero;stroke:#eeeeec;stroke-width:6.96721;stroke-linecap:round;stroke-linejoin:round;stroke-miterlimit:10;stroke-dasharray:none;stroke-dashoffset:0;stroke-opacity:1;marker:none;marker-start:none;marker-mid:none;marker-end:none"
         d="M 32.5,15.25 16.25,31.5"
         id="path2700"
         inkscape:r_cx="true"
         inkscape:r_cy="true" />
    </g>
    <g
       id="layer3"
       transform="matrix(0.93974232,0,0,0.93974232,2.7844064,0.85733861)"
       style="display:none"
       inkscape:label="ok">
      <g
         id="text4967"
         fill="#eeeeec"
         stroke="#eeeeec">
        <path
           id="path4984"
           d="m 14.707,25.178 c 0.62921,1.5e-5 1.1052,0.5163 1.4278,1.5489 0.64534,1.9361 1.1052,2.9041 1.3794,2.9041 0.20973,1.2e-5 0.42753,-0.16133 0.65342,-0.48402 4.5336,-7.2602 8.7284,-13.133 12.584,-17.618 1.0003,-1.1616 2.5895,-1.7424 4.7676,-1.7425 0.51625,3.13e-5 0.86313,0.048433 1.0406,0.1452 0.17744,0.096834 0.26618,0.21784 0.26621,0.36301 -3.3e-5,0.2259 -0.26624,0.66959 -0.79863,1.331 -6.2277,7.4861 -12.004,15.392 -17.328,23.717 -0.37109,0.58082 -1.1294,0.87124 -2.2749,0.87123 -1.1617,5e-6 -1.8473,-0.0484 -2.0571,-0.1452 -0.54856,-0.242 -1.1939,-1.4762 -1.9361,-3.7027 -0.83897,-2.4685 -1.2585,-4.0173 -1.2584,-4.6466 -8e-6,-0.67761 0.56468,-1.331 1.6941,-1.9603 0.69375,-0.3872 1.3068,-0.5808 1.8393,-0.58082" />
      </g>
    </g>
    <g
       id="g13"
       inkscape:label="cross"
       transform="matrix(0.16730606,0,0,0.16730606,27.456596,24.76726)"
       style="display:none">
      <path
         id="rect12"
         style="display:none;fill-opacity:0.552801;stroke-width:16.62;stroke-linecap:round;stroke-linejoin:round;stroke-miterlimit:2.1"
         d="m -19.252243,-85.829054 v 72.705953 h -72.707671 v 28.103624 h 72.707671 V 87.686476 H 8.8496639 V 14.980523 H 81.555616 V -13.123101 H 8.8496639 v -72.705953 z" />
      <path
         id="path12"
         style="fill:#ffffff;fill-opacity:1;stroke-width:16.62;stroke-linecap:round;stroke-linejoin:round;stroke-miterlimit:2.1"
         d="m -30.770385,-94.374772 v 72.705953 H -103.47806 V 6.4348046 h 72.707675 V 79.140758 H -2.6684783 V 6.4348046 H 70.037474 V -21.668819 H -2.6684783 v -72.705953 z" />
    </g>
    <g
       id="g27"
       inkscape:label="remove"
       transform="matrix(0.1609559,0,0,0.1609559,4.1394497,3.4840328)"
       style="display:none">
      <rect
         style="display:none;fill:#000000;fill-opacity:0.522498;stroke:none;stroke-width:26.498;stroke-linecap:butt;stroke-linejoin:bevel;stroke-miterlimit:2.1;stroke-dasharray:none;stroke-opacity:1"
         id="rect26"
         width="193.20753"
         height="40.499271"
         x="37.724236"
         y="110.72278" />
      <rect
         style="fill:#ffffff;fill-opacity:1;stroke:none;stroke-width:26.498;stroke-linecap:butt;stroke-linejoin:bevel;stroke-miterlimit:2.1;stroke-dasharray:none;stroke-opacity:1"
         id="rect27"
         width="193.20753"
         height="40.499271"
         x="29.724236"
         y="102.72278" />
    </g>
    <path
       id="rect1"
       style="display:none;fill:#ffffff;fill-opacity:1;fill-rule:evenodd;stroke:none;stroke-width:1.08185;stroke-linecap:round;stroke-linejoin:round;stroke-dasharray:none;stroke-opacity:1;paint-order:markers fill stroke"
       d="m 14.169254,7.4868193 -0.182794,0.182795 c -0.06343,0.02445 -0.129968,0.06664 -0.202301,0.132563 -0.08276,0.07542 -1.815305,1.851912 -3.189567,3.2593057 l -1.8974822,1.89748 0.303038,0.303039 c 0.03149,0.08168 0.07451,0.159317 0.129209,0.225362 0.206035,0.248772 10.1037812,10.091483 10.1329012,10.120442 L 15.06913,27.801 c -3.00348,2.923585 -6.4528932,6.265138 -6.4178732,6.325688 0.04268,0.07381 0.112624,0.135741 0.192377,0.192719 L 14.169322,39.645098 24.776282,29.038202 35.383244,39.645098 40.855455,34.172952 30.248493,23.56599 40.855455,12.958963 35.383312,7.4868193 C 31.628692,11.292433 28.969319,13.834898 24.828721,17.886552 22.439467,15.555347 14.797584,7.9431113 14.553458,7.8062833 c -0.04868,-0.02729 -0.09289,-0.04994 -0.137695,-0.07295 z"
       sodipodi:nodetypes="ccscccsccscccccccccscc" />
    <g
       id="g2"
       inkscape:label="clock"
       transform="matrix(0.15929029,0,0,0.15929029,25.297132,23.59605)">
      <path
         style="display:none;opacity:0.38;fill:#000000;fill-rule:nonzero;stroke:none;stroke-width:1.98;stroke-linecap:butt;stroke-linejoin:miter;stroke-miterlimit:4;stroke-dasharray:none;stroke-dashoffset:0"
         vector-effect="non-scaling-stroke"
         d="m 2.82832,-92.76602 c -51.90966,0 -94.26978,42.34626 -94.26978,94.24008 0,51.8958 42.36012,94.24206 94.26978,94.24206 51.91362,0 94.3371,-42.34626 94.3371,-94.24206 -0.002,-51.89382 -42.42348,-94.24008 -94.3371,-94.24008 z m 6.2790576,25.971691 C 36.634915,-66.411828 71.87092,-36.73796 71.87092,1.47604 c 0,38.214 -30.81276,68.95548 -69.0426,68.95548 -38.2239,0 -68.97726,-30.74148 -68.97726,-68.95548 0,-19.107 20.216816,-65.157249 58.355131,-68.351916 0.7871879,-0.06594 0.3605968,55.541051 0.3605968,55.541051 -0.557087,10.0690568 6.0695859,25.499598 15.6290649,25.452089 L 54.130113,13.669086 c 4.533424,0.093 5.64898,-25.420483 -3.1534,-25.361324 l -42.3900254,0.423795 c 0,0 -1.1806385,-36.559005 0.3892982,-54.737703 0.022917,-0.265365 -0.1349356,-0.791883 0.1313918,-0.788183 z"
         stroke-linecap="round"
         id="path33"
         sodipodi:nodetypes="ssscsssssscccccas" />
      <path
         style="display:inline;fill:#ffffff;fill-rule:nonzero;stroke:none;stroke-width:1.98;stroke-linecap:butt;stroke-linejoin:miter;stroke-miterlimit:4;stroke-dasharray:none;stroke-dashoffset:0"
         vector-effect="non-scaling-stroke"
         d="M -2.98168,-96 C -54.75472,-96 -97,-53.7369 -97,-1.95 -97,49.84086 -54.75472,92.1 -2.98168,92.1 48.79136,92.1 91.1,49.84086 91.1,-1.95 91.1,-53.7369 48.79136,-96 -2.98168,-96 Z m -24.272503,27.727146 c 1.332218,-0.454532 -0.07743,1.102571 -0.07743,1.102571 0,0 -0.100024,59.9409771 -0.121973,60.8520731 -0.507055,21.0478489 22.8948921,22.3962919 22.8948921,22.3962919 l 46.9823449,0.04806 c 6.348616,-0.528241 5.573309,-22.9362955 0.04273,-22.8989567 L -4.51913,-6.814468 -4.9760784,-70.357994 c 0,0 -0.1697735,-0.752701 0.9299712,-0.762568 C 46.200214,-71.57139 65.8748,-21.01839 65.8748,-1.95 65.8748,36.18678 35.14322,66.86688 -2.98168,66.86688 -41.1046,66.86886 -71.7748,36.18876 -71.7748,-1.95 c 0,-25.205745 16.48511,-56.757575 44.520617,-66.322854 z"
         stroke-linecap="round"
         id="path36"
         sodipodi:nodetypes="sssssscscccccsscss" />
    </g>
  </g>
</svg>
