<?xml version="1.0" encoding="UTF-8" standalone="no"?>
<svg
   width="256"
   height="256"
   version="1.0"
   id="svg43"
   sodipodi:docname="accessories-text-editor.svg"
   viewBox="0 0 256 256"
   inkscape:version="1.4.2 (ebf0e940d0, 2025-05-08)"
   xmlns:inkscape="http://www.inkscape.org/namespaces/inkscape"
   xmlns:sodipodi="http://sodipodi.sourceforge.net/DTD/sodipodi-0.dtd"
   xmlns:xlink="http://www.w3.org/1999/xlink"
   xmlns="http://www.w3.org/2000/svg"
   xmlns:svg="http://www.w3.org/2000/svg"
   xmlns:rdf="http://www.w3.org/1999/02/22-rdf-syntax-ns#"
   xmlns:cc="http://creativecommons.org/ns#"
   xmlns:dc="http://purl.org/dc/elements/1.1/">
  <sodipodi:namedview
     id="namedview43"
     pagecolor="#ffffff"
     bordercolor="#000000"
     borderopacity="0.25"
     inkscape:showpageshadow="2"
     inkscape:pageopacity="0.0"
     inkscape:pagecheckerboard="0"
     inkscape:deskcolor="#d1d1d1"
     inkscape:zoom="2.2326256"
     inkscape:cx="208.051"
     inkscape:cy="239.40422"
     inkscape:current-layer="svg43" />
  <defs
     id="defs22">
    <linearGradient
       id="a">
      <stop
         offset="0"
         id="stop1" />
      <stop
         offset="1"
         stop-opacity="0"
         id="stop2" />
    </linearGradient>
    <linearGradient
       id="b"
       x1="302.85999"
       x2="302.85999"
       y1="366.64999"
       y2="609.51001"
       gradientTransform="matrix(2.7744,0,0,1.9697,-1892.2,-872.89)"
       gradientUnits="userSpaceOnUse">
      <stop
         offset="0"
         stop-opacity="0"
         id="stop3" />
      <stop
         offset=".5"
         id="stop4" />
      <stop
         offset="1"
         stop-opacity="0"
         id="stop5" />
    </linearGradient>
    <linearGradient
       id="e"
       x1="21.042999"
       x2="14.284"
       y1="42.833"
       y2="6.8333998"
       gradientTransform="matrix(1.1379,0,0,1,-2.6609,0)"
       gradientUnits="userSpaceOnUse">
      <stop
         offset="0"
         stop-color="#dfdfdf"
         id="stop6" />
      <stop
         offset="1"
         stop-color="#fff"
         id="stop7" />
    </linearGradient>
    <linearGradient
       id="f"
       x1="26.612"
       x2="26.228001"
       y1="28.083"
       y2="42.833"
       gradientUnits="userSpaceOnUse">
      <stop
         offset="0"
         stop-color="#939393"
         id="stop8" />
      <stop
         offset="1"
         stop-color="#424242"
         id="stop9" />
    </linearGradient>
    <linearGradient
       id="h"
       x1="6"
       x2="40.984001"
       y1="7.5625"
       y2="7.5625"
       gradientUnits="userSpaceOnUse">
      <stop
         offset="0"
         stop-color="#a3a4a0"
         id="stop10" />
      <stop
         offset="1"
         stop-color="#888a85"
         id="stop11" />
    </linearGradient>
    <linearGradient
       id="i"
       x1="48.905998"
       x2="50.987999"
       y1="17.375999"
       y2="22.250999"
       gradientTransform="translate(-5.6693)"
       gradientUnits="userSpaceOnUse">
      <stop
         offset="0"
         stop-color="#ffd1d1"
         id="stop12" />
      <stop
         offset=".5"
         stop-color="#ff1d1d"
         id="stop13" />
      <stop
         offset="1"
         stop-color="#6f0000"
         id="stop14" />
    </linearGradient>
    <linearGradient
       id="j"
       x1="46"
       x2="47.688"
       y1="19.812"
       y2="22.625"
       gradientTransform="translate(-5.6693)"
       gradientUnits="userSpaceOnUse">
      <stop
         offset="0"
         stop-color="#c1c1c1"
         id="stop15" />
      <stop
         offset="1"
         stop-color="#acacac"
         id="stop16" />
    </linearGradient>
    <linearGradient
       id="l"
       x1="25.719"
       x2="25.514999"
       y1="31.047001"
       y2="30.702999"
       gradientTransform="translate(-5.8255,0.125)"
       gradientUnits="userSpaceOnUse">
      <stop
         offset="0"
         id="stop17" />
      <stop
         offset="1"
         stop-color="#c9c9c9"
         id="stop18" />
    </linearGradient>
    <radialGradient
       xlink:href="#a"
       id="d"
       cx="605.71002"
       cy="486.64999"
       r="117.14"
       gradientTransform="matrix(-2.7744,0,0,1.9697,112.76,-872.89)"
       gradientUnits="userSpaceOnUse" />
    <radialGradient
       xlink:href="#a"
       id="c"
       cx="605.71002"
       cy="486.64999"
       r="117.14"
       gradientTransform="matrix(2.7744,0,0,1.9697,-1891.6,-872.89)"
       gradientUnits="userSpaceOnUse" />
    <radialGradient
       id="k"
       cx="29.052999"
       cy="27.641001"
       r="3.2409"
       gradientTransform="matrix(2.9236,0,0,2.0297,-61.555,-27.884)"
       gradientUnits="userSpaceOnUse">
      <stop
         offset="0"
         stop-color="#e7e2b8"
         id="stop19" />
      <stop
         offset="1"
         stop-color="#e7e2b8"
         stop-opacity="0"
         id="stop20" />
    </radialGradient>
    <radialGradient
       id="g"
       cx="23.562"
       cy="40.438"
       r="19.562"
       gradientTransform="matrix(1,0,0,0.34824,0,26.355)"
       gradientUnits="userSpaceOnUse">
      <stop
         offset="0"
         id="stop21" />
      <stop
         offset="1"
         stop-opacity="0"
         id="stop22" />
    </radialGradient>
  </defs>
  <g
     id="g43"
     transform="matrix(5.181148,0,0,5.181148,5.8062712,11.689151)">
    <g
       transform="matrix(0.02418,0,0,0.02087,45.128,40.154)"
       id="g24">
      <path
         fill="url(#b)"
         d="M -1559.3,-150.7 H -219.7 V 327.66 H -1559.3 Z"
         opacity="0.4"
         id="path22"
         style="fill:url(#b)" />
      <path
         fill="url(#c)"
         d="m -219.62,-150.68 v 478.33 c 142.88,0.9 345.4,-107.17 345.4,-239.2 0,-132.02 -159.44,-239.13 -345.4,-239.13 z"
         opacity="0.4"
         id="path23"
         style="fill:url(#c)" />
      <path
         fill="url(#d)"
         d="m -1559.3,-150.68 v 478.33 c -142.8,0.9 -345.4,-107.17 -345.4,-239.2 0,-132.02 159.5,-239.13 345.4,-239.13 z"
         opacity="0.4"
         id="path24"
         style="fill:url(#d)" />
    </g>
    <path
       fill="url(#e)"
       stroke="url(#f)"
       d="m 7.1639,4.5064 h 32.649 c 0.763,0 1.377,0.5324 1.377,1.1938 l 2.401,34.169 0.012,2.348 c 0,0.661 -0.614,1.193 -1.376,1.193 H 4.7499 c -0.7625,0 -1.3764,-0.532 -1.3764,-1.193 l -0.0112,-2.167 2.425,-34.35 c 0,-0.6612 0.6139,-1.1936 1.3765,-1.1936 z"
       id="path25"
       style="fill:url(#e);stroke:url(#f)" />
    <path
       fill="url(#g)"
       d="m 43.125,40.438 a 19.5625,6.8126741 0 1 1 -39.125,0 19.5625,6.8126741 0 1 1 39.125,0 z"
       opacity="0.31579"
       transform="matrix(0.61661,0,0,0.44037,10.614,13.943)"
       id="path26"
       style="fill:url(#g)" />
    <rect
       width="39.048"
       height="3.0715001"
       x="3.977"
       y="39.868"
       fill="#a4a4a4"
       rx="0.67938"
       ry="0.67938"
       id="rect26" />
    <path
       fill="#ffffff"
       d="m 3.9268,40.443 c 0,0 0.1508,-0.531 0.704,-0.575 h 37.564 c 0.755,0 0.805,0.752 0.805,0.752 0,0 0.024,-1.62 -1.284,-1.62 H 5.3038 c -1.0055,0.088 -1.3772,0.78 -1.3772,1.443 z"
       id="path27" />
    <path
       fill="url(#h)"
       d="M 6.25,5.7344 6,10.125 C 6,10.125 6.3125,9 7,9 h 33.125 c 0.703,-0.0156 0.734,0.3125 0.859,0.8281 l -0.25,-3.875 C 40.703,5.4062 40.516,5 39.953,5 H 7.063 C 6.6094,5 6.2969,5.3437 6.25,5.7344 Z"
       id="path28"
       style="fill:url(#h)" />
    <path
       fill="none"
       stroke="#ffffff"
       d="m 7.8126,5.5405 h 31.132 c 0.722,0 1.303,-0.1522 1.303,0.4741 l 2.274,33.008 0.1,2.709 c 0,0.626 -0.139,0.644 -0.861,0.644 H 4.8616 c -0.4126,0 -0.4194,-0.106 -0.4194,-0.511 L 4.4316,39.1936 6.7277,6.0456 c 0,-0.6264 0.3625,-0.5055 1.0845,-0.5055 z"
       opacity="0.4386"
       id="path29" />
    <g
       fill="#fce94f"
       stroke="#886f00"
       id="g36">
      <rect
         width="2"
         height="5"
         x="8.5"
         y="2.5"
         rx="1"
         ry="1"
         id="rect29" />
      <rect
         width="2"
         height="5"
         x="12.5"
         y="2.5"
         rx="1"
         ry="1"
         id="rect30" />
      <rect
         width="2"
         height="5"
         x="16.5"
         y="2.5"
         rx="1"
         ry="1"
         id="rect31" />
      <rect
         width="2"
         height="5"
         x="20.5"
         y="2.5"
         rx="1"
         ry="1"
         id="rect32" />
      <rect
         width="2"
         height="5"
         x="24.5"
         y="2.5"
         rx="1"
         ry="1"
         id="rect33" />
      <rect
         width="2"
         height="5"
         x="28.5"
         y="2.5"
         rx="1"
         ry="1"
         id="rect34" />
      <rect
         width="2"
         height="5"
         x="32.5"
         y="2.5"
         rx="1"
         ry="1"
         id="rect35" />
      <rect
         width="2"
         height="5"
         x="36.5"
         y="2.5"
         rx="1"
         ry="1"
         id="rect36" />
    </g>
    <path
       d="m 9,12 h 29 v 1 H 9 Z m 0,2.982 h 29 v 1 H 9 Z m 0,3.022 h 13 v 1 H 9 Z m 0,4.982 h 29 v 1 H 9 Z m 0,3.022 h 29 v 1 H 9 Z m 0,3.022 h 29 v 1 H 9 Z m 0,3.022 h 8 v 1 H 9 Z"
       opacity="0.2807"
       id="path36" />
    <path
       fill="#cb9022"
       stroke="#5c410c"
       d="m 17.341,32.5 5.625,-5.625 20.094,-9.75 c 3.25,-1.25 5.187,3.375 2.312,5 L 25.341,31.5 Z"
       id="path37" />
    <path
       fill="url(#i)"
       d="m 38.331,20 c 0,0 1.437,0.094 2,1.344 0.579,1.288 0,2.656 0,2.656 l 5.031,-2.469 c 0,0 1.452,-0.881 0.656,-2.843 -0.785,-1.936 -2.687,-1.157 -2.687,-1.157 z"
       id="path38"
       style="fill:url(#i)" />
    <path
       fill="url(#j)"
       d="m 38.331,20 c 0,0 1.437,0.094 2,1.344 0.579,1.288 0,2.656 0,2.656 l 2,-1 c 0,0 0.827,-1.319 0.218,-2.688 C 41.924,18.906 40.331,19 40.331,19 Z"
       id="path39"
       style="fill:url(#j)" />
    <path
       fill="url(#k)"
       d="m 18.768,31.781 4.5,-4.5 c 1.5,0.813 2.281,2.157 1.875,3.719 z"
       id="path40"
       style="fill:url(#k)" />
    <path
       fill="url(#l)"
       d="m 20.112,30.375 -1.625,1.594 2.344,-0.313 c 0.218,-0.718 -0.188,-1.062 -0.719,-1.281 z"
       id="path41"
       style="fill:url(#l)" />
    <path
       fill="#ffffff"
       fill-opacity="0.36364"
       d="m 23.268,27.25 1.563,1.25 15.387,-7.319 c -0.444,-0.856 -1.242,-1.084 -1.903,-1.162 z"
       id="path42" />
    <path
       fill-opacity="0.36364"
       d="m 25.143,31.062 0.188,-0.75 15.231,-7.129 c 0,0 -0.11,0.614 -0.216,0.749 z"
       id="path43" />
  </g>
  <metadata
     id="metadata43">
    <rdf:RDF>
      <cc:Work
         rdf:about="">
        <dc:source>https://commons.wikimedia.org/wiki/File:Accessories-text-editor.svg</dc:source>
        <cc:license
           rdf:resource="http://creativecommons.org/publicdomain/zero/1.0/" />
      </cc:Work>
      <cc:License
         rdf:about="http://creativecommons.org/publicdomain/zero/1.0/">
        <cc:permits
           rdf:resource="http://creativecommons.org/ns#Reproduction" />
        <cc:permits
           rdf:resource="http://creativecommons.org/ns#Distribution" />
        <cc:permits
           rdf:resource="http://creativecommons.org/ns#DerivativeWorks" />
      </cc:License>
    </rdf:RDF>
  </metadata>
</svg>
