<?xml version="1.0" encoding="UTF-8" standalone="no"?>
<!-- Created with Inkscape (http://www.inkscape.org/) -->

<svg
   version="1.1"
   viewBox="0 0 255.99999 256"
   id="svg29"
   sodipodi:docname="archive.svg"
   inkscape:version="1.3.2 (091e20ef0f, 2023-11-25)"
   width="256"
   height="256"
   xml:space="preserve"
   xmlns:inkscape="http://www.inkscape.org/namespaces/inkscape"
   xmlns:sodipodi="http://sodipodi.sourceforge.net/DTD/sodipodi-0.dtd"
   xmlns:xlink="http://www.w3.org/1999/xlink"
   xmlns="http://www.w3.org/2000/svg"
   xmlns:svg="http://www.w3.org/2000/svg"
   xmlns:rdf="http://www.w3.org/1999/02/22-rdf-syntax-ns#"
   xmlns:cc="http://creativecommons.org/ns#"
   xmlns:dc="http://purl.org/dc/elements/1.1/"
   xmlns:a="http://ns.adobe.com/AdobeSVGViewerExtensions/3.0/"><sodipodi:namedview
     id="namedview29"
     pagecolor="#ffffff"
     bordercolor="#000000"
     borderopacity="0.25"
     inkscape:showpageshadow="2"
     inkscape:pageopacity="0.0"
     inkscape:pagecheckerboard="0"
     inkscape:deskcolor="#d1d1d1"
     inkscape:zoom="3.2897111"
     inkscape:cx="193.17806"
     inkscape:cy="201.53745"
     inkscape:current-layer="svg29" /><defs
     id="defs12"><linearGradient
       id="linearGradient11978-8"><stop
         stop-color="#3dc2f3"
         offset="0"
         id="stop1" /><stop
         stop-color="#FFF"
         offset="1"
         id="stop2" /></linearGradient><linearGradient
       id="linearGradient11490"><stop
         stop-color="#0995dd"
         offset="0"
         id="stop3" /><stop
         stop-color="#FFF"
         offset="1"
         id="stop4" /></linearGradient><radialGradient
       id="radialGradient13398"
       gradientUnits="userSpaceOnUse"
       cx="205"
       cy="58.580002"
       r="0.95569998"
       gradientTransform="matrix(2.9776183,-0.12193238,0.12533935,3.060816,-141.64717,827.6907)"><stop
         stop-color="#FFF"
         offset="0"
         id="stop5" /><stop
         stop-color="#41c3f3"
         offset="1"
         id="stop6" /></radialGradient><linearGradient
       id="linearGradient13400"
       y2="62.889999"
       xlink:href="#linearGradient11978-8"
       spreadMethod="reflect"
       gradientUnits="userSpaceOnUse"
       y1="65.599998"
       gradientTransform="rotate(16.179987,-2890.6303,1528.1033)"
       x2="198.10001"
       x1="190.2" /><linearGradient
       id="linearGradient13402"
       y2="62.18"
       spreadMethod="reflect"
       gradientUnits="userSpaceOnUse"
       y1="59.950001"
       gradientTransform="rotate(16.179987,-2890.6303,1528.1033)"
       x2="200.60001"
       x1="206.89999"><stop
         stop-color="#3dc2f3"
         offset="0"
         id="stop7" /><stop
         stop-color="#FFF"
         offset="1"
         id="stop8" /></linearGradient><linearGradient
       id="linearGradient13404"
       y2="41.240002"
       spreadMethod="reflect"
       gradientUnits="userSpaceOnUse"
       y1="40.5"
       gradientTransform="rotate(16.179987,-2890.6303,1528.1033)"
       x2="190.3"
       x1="192.8"><stop
         stop-color="#3dc2f3"
         offset="0"
         id="stop9" /><stop
         stop-color="#FFF"
         offset="1"
         id="stop10" /></linearGradient><linearGradient
       id="linearGradient13406"
       y2="26.98"
       xlink:href="#linearGradient11490"
       spreadMethod="reflect"
       gradientUnits="userSpaceOnUse"
       y1="29.549999"
       gradientTransform="rotate(16.179987,-2890.6303,1528.1033)"
       x2="175.39999"
       x1="167.39999" /><linearGradient
       id="linearGradient13410"
       y2="58.98"
       xlink:href="#linearGradient11490"
       spreadMethod="reflect"
       gradientUnits="userSpaceOnUse"
       y1="62.529999"
       gradientTransform="rotate(16.179987,-2890.6303,1528.1033)"
       x2="184"
       x1="176" /><radialGradient
       id="radialGradient13412"
       gradientUnits="userSpaceOnUse"
       cx="212.8"
       cy="58.830002"
       r="0.95569998"
       gradientTransform="matrix(2.9776183,-0.12193238,0.12533935,3.060816,-141.64717,827.6907)"><stop
         stop-color="#FFF"
         offset="0"
         id="stop11" /><stop
         stop-color="#41c3f3"
         offset="1"
         id="stop12" /></radialGradient><linearGradient
       id="linearGradient13414"
       y2="350.5"
       xlink:href="#linearGradient11978-8"
       gradientUnits="userSpaceOnUse"
       y1="351.79999"
       gradientTransform="rotate(16.179987,-1840.474,1496.3872)"
       x2="262.39999"
       x1="257.70001" /><linearGradient
       id="linearGradient1865">
    <stop
   id="stop2120"
   offset="0.0000000"
   style="stop-color:#418bde;stop-opacity:1.0000000;" />




    <stop
   id="stop1866"
   offset="1.0000000"
   style="stop-color:#001b7b;stop-opacity:1.0000000;" />




  </linearGradient><linearGradient
       id="linearGradient1862">
    <stop
   id="stop1864"
   offset="0.0000000"
   style="stop-color:#a4cdec;stop-opacity:1.0000000;" />




    <stop
   id="stop1863"
   offset="1.0000000"
   style="stop-color:#0068c6;stop-opacity:1.0000000;" />




  </linearGradient><linearGradient
       gradientUnits="userSpaceOnUse"
       id="XMLID_3_"
       y2="87.9981"
       x2="63.957001"
       y1="-17"
       x1="63.957001">
			<stop
   id="stop49"
   offset="0.0000000"
   style="stop-color:#ffffff;stop-opacity:1.0000000;" />







			<stop
   id="stop51"
   offset="1.0000000"
   style="stop-color:#ffffff;stop-opacity:0.0000000;" />







		</linearGradient><linearGradient
       gradientUnits="userSpaceOnUse"
       id="XMLID_4_"
       y2="73.889198"
       x2="73.836899"
       y1="10.3921"
       x1="10.3398">
			<stop
   id="stop58"
   offset="0.0000000"
   style="stop-color:#ffffff;stop-opacity:1.0000000;" />







			<stop
   id="stop60"
   offset="1.0000000"
   style="stop-color:#ffffff;stop-opacity:0.0000000;" />







		</linearGradient><linearGradient
       gradientUnits="userSpaceOnUse"
       id="XMLID_5_"
       y2="65.001404"
       x2="62.997101"
       y1="168.5029"
       x1="62.997101">
			<stop
   id="stop67"
   offset="0.0000000"
   style="stop-color:#ffffff;stop-opacity:1.0000000;" />







			<stop
   id="stop69"
   offset="1.0000000"
   style="stop-color:#ffffff;stop-opacity:0.0000000;" />







		</linearGradient><linearGradient
       gradientTransform="matrix(0.9999,-0.0101,0.0101,0.9999,-1.1444,0.3543)"
       gradientUnits="userSpaceOnUse"
       id="XMLID_7_"
       y2="164.3085"
       x2="33.1147"
       y1="-141.0146"
       x1="33.1147">
			<stop
   id="stop96"
   offset="0.0000000"
   style="stop-color:#ffffff;stop-opacity:1.0000000;" />







			<stop
   id="stop98"
   offset="1.0000000"
   style="stop-color:#ffffff;stop-opacity:0.0000000;" />







		</linearGradient><linearGradient
       gradientTransform="matrix(-1,0,0,1,122.4541,0)"
       gradientUnits="userSpaceOnUse"
       id="XMLID_6_"
       y2="141.4189"
       x2="61.226601"
       y1="51.561001"
       x1="61.226601">
				<stop
   id="stop78"
   offset="0.0000000"
   style="stop-color:#000072;stop-opacity:1.0000000;" />







				<stop
   id="stop80"
   offset="1.0000000"
   style="stop-color:#3995e5;stop-opacity:1.0000000;" />







				<a:midPointStop
   offset="0"
   style="stop-color:#000072"
   id="midPointStop82" />







				<a:midPointStop
   offset="0.5"
   style="stop-color:#000072"
   id="midPointStop84" />







				<a:midPointStop
   offset="1"
   style="stop-color:#3995E5"
   id="midPointStop86" />







			</linearGradient><linearGradient
       gradientUnits="userSpaceOnUse"
       xlink:href="#linearGradient1862"
       id="linearGradient1344"
       y2="61.8965"
       x2="62.977501"
       y1="182.5674"
       x1="62.977501" /><linearGradient
       gradientUnits="userSpaceOnUse"
       xlink:href="#XMLID_3_"
       id="linearGradient1346"
       y2="77.436874"
       x2="65.109993"
       y1="13.567519"
       x1="65.109993" /><linearGradient
       gradientUnits="userSpaceOnUse"
       xlink:href="#XMLID_4_"
       id="linearGradient1348"
       y2="73.889198"
       x2="73.836899"
       y1="25.929346"
       x1="26.564838" /><linearGradient
       gradientUnits="userSpaceOnUse"
       xlink:href="#XMLID_5_"
       id="linearGradient1350"
       y2="65.001404"
       x2="62.997101"
       y1="168.5029"
       x1="62.997101" /><linearGradient
       gradientTransform="matrix(-1,0,0,1,122.4541,0)"
       gradientUnits="userSpaceOnUse"
       xlink:href="#XMLID_6_"
       id="linearGradient1352"
       y2="141.4189"
       x2="61.226601"
       y1="51.561001"
       x1="61.226601" /><linearGradient
       gradientTransform="rotate(-0.57872528)"
       gradientUnits="userSpaceOnUse"
       xlink:href="#XMLID_7_"
       id="linearGradient1354"
       y2="60.985329"
       x2="53.820477"
       y1="21.61375"
       x1="31.052742" /><linearGradient
       gradientUnits="userSpaceOnUse"
       xlink:href="#linearGradient1865"
       id="linearGradient2118"
       y2="25.958462"
       x2="54.390072"
       y1="177.8828"
       x1="54.390072" /><linearGradient
       gradientTransform="scale(1.000004)"
       gradientUnits="userSpaceOnUse"
       xlink:href="#linearGradient1865"
       id="linearGradient2089"
       y2="41.343369"
       x2="55.34412"
       y1="154.8063"
       x1="55.34412" /><linearGradient
       inkscape:collect="always"
       xlink:href="#XMLID_9_"
       id="linearGradient40"
       gradientUnits="userSpaceOnUse"
       x1="88.084999"
       y1="92.3545"
       x2="40.494202"
       y2="44.763699"
       gradientTransform="translate(0,28.148591)" /><radialGradient
       id="radialGradient13398-9"
       gradientUnits="userSpaceOnUse"
       cx="205"
       cy="58.580002"
       r="0.95569998"
       gradientTransform="matrix(2.9776183,-0.12193238,0.12533935,3.060816,-141.64717,827.6907)"><stop
         stop-color="#FFF"
         offset="0"
         id="stop5-2" /><stop
         stop-color="#41c3f3"
         offset="1"
         id="stop6-0" /></radialGradient><linearGradient
       inkscape:collect="always"
       xlink:href="#linearGradient13404"
       id="linearGradient54"
       gradientUnits="userSpaceOnUse"
       gradientTransform="rotate(16.179987,-2890.6303,1528.1033)"
       x1="192.8"
       y1="40.5"
       x2="190.3"
       y2="41.240002"
       spreadMethod="reflect" /><radialGradient
       id="radialGradient13412-3"
       gradientUnits="userSpaceOnUse"
       cx="212.8"
       cy="58.830002"
       r="0.95569998"
       gradientTransform="matrix(2.9776183,-0.12193238,0.12533935,3.060816,-141.64717,827.6907)"><stop
         stop-color="#FFF"
         offset="0"
         id="stop15" /><stop
         stop-color="#41c3f3"
         offset="1"
         id="stop16" /></radialGradient><linearGradient
       inkscape:collect="always"
       xlink:href="#linearGradient16"
       id="linearGradient42"
       x1="183.93015"
       y1="72.650764"
       x2="192.85063"
       y2="93.169281"
       gradientUnits="userSpaceOnUse" /><linearGradient
       id="linearGradient16"
       inkscape:collect="always"><stop
         style="stop-color:#0084d4;stop-opacity:1;"
         offset="0"
         id="stop19-1" /><stop
         style="stop-color:#0077be;stop-opacity:1;"
         offset="0.41630289"
         id="stop20-2" /><stop
         style="stop-color:#0064a2;stop-opacity:1;"
         offset="0.60048252"
         id="stop21-9" /><stop
         style="stop-color:#001e30;stop-opacity:1;"
         offset="1"
         id="stop22-3" /></linearGradient><linearGradient
       inkscape:collect="always"
       xlink:href="#linearGradient37"
       id="linearGradient38"
       x1="180.73837"
       y1="73.106735"
       x2="192.39467"
       y2="98.488899"
       gradientUnits="userSpaceOnUse" /><linearGradient
       id="linearGradient37"
       inkscape:collect="always"><stop
         style="stop-color:#f3f8fd;stop-opacity:1;"
         offset="0"
         id="stop37" /><stop
         style="stop-color:#2166aa;stop-opacity:0.99607843;"
         offset="0.40077037"
         id="stop39" /><stop
         style="stop-color:#2166aa;stop-opacity:0.99215686;"
         offset="0.43831572"
         id="stop40" /><stop
         style="stop-color:#060606;stop-opacity:0.99374998;"
         offset="1"
         id="stop38" /></linearGradient><linearGradient
       inkscape:collect="always"
       xlink:href="#linearGradient44"
       id="linearGradient46"
       x1="190.57536"
       y1="73.50061"
       x2="206.09712"
       y2="96.602951"
       gradientUnits="userSpaceOnUse" /><linearGradient
       id="linearGradient44"
       inkscape:collect="always"><stop
         style="stop-color:#ffffff;stop-opacity:1;"
         offset="0"
         id="stop45" /><stop
         style="stop-color:#ffffff;stop-opacity:0;"
         offset="1"
         id="stop46" /></linearGradient><linearGradient
       inkscape:collect="always"
       xlink:href="#linearGradient34"
       id="linearGradient47"
       gradientUnits="userSpaceOnUse"
       x1="183.93015"
       y1="72.650764"
       x2="192.85063"
       y2="93.169281" /><linearGradient
       id="linearGradient34"
       inkscape:collect="always"><stop
         style="stop-color:#0085d5;stop-opacity:1;"
         offset="0"
         id="stop23-1" /><stop
         style="stop-color:#007ec9;stop-opacity:1;"
         offset="0.41630289"
         id="stop32" /><stop
         style="stop-color:#006aac;stop-opacity:1;"
         offset="0.60048252"
         id="stop33" /><stop
         style="stop-color:#001e30;stop-opacity:1;"
         offset="1"
         id="stop34" /></linearGradient><linearGradient
       inkscape:collect="always"
       xlink:href="#linearGradient53"
       id="linearGradient50"
       gradientUnits="userSpaceOnUse"
       x1="183.93015"
       y1="72.650764"
       x2="192.85063"
       y2="93.169281" /><linearGradient
       id="linearGradient53"
       inkscape:collect="always"><stop
         style="stop-color:#008ce0;stop-opacity:1;"
         offset="0"
         id="stop35" /><stop
         style="stop-color:#0086d5;stop-opacity:1;"
         offset="0.41630289"
         id="stop36" /><stop
         style="stop-color:#0068a8;stop-opacity:1;"
         offset="0.60048252"
         id="stop47" /><stop
         style="stop-color:#001e30;stop-opacity:1;"
         offset="1"
         id="stop48" /></linearGradient><linearGradient
       inkscape:collect="always"
       xlink:href="#linearGradient41"
       id="linearGradient71"
       gradientUnits="userSpaceOnUse"
       x1="183.93015"
       y1="72.650764"
       x2="192.85063"
       y2="93.169281" /><linearGradient
       id="linearGradient41"
       inkscape:collect="always"><stop
         style="stop-color:#0092ea;stop-opacity:1;"
         offset="0"
         id="stop49-6" /><stop
         style="stop-color:#0089da;stop-opacity:1;"
         offset="0.41630289"
         id="stop50" /><stop
         style="stop-color:#007cc8;stop-opacity:1;"
         offset="0.60048252"
         id="stop51-1" /><stop
         style="stop-color:#001e30;stop-opacity:1;"
         offset="1"
         id="stop52" /></linearGradient><linearGradient
       inkscape:collect="always"
       xlink:href="#linearGradient13404"
       id="linearGradient1"
       gradientUnits="userSpaceOnUse"
       gradientTransform="rotate(16.179987,-2890.6303,1528.1033)"
       x1="192.8"
       y1="40.5"
       x2="190.3"
       y2="41.240002"
       spreadMethod="reflect" /><linearGradient
       inkscape:collect="always"
       xlink:href="#linearGradient37"
       id="linearGradient2"
       gradientUnits="userSpaceOnUse"
       x1="180.73837"
       y1="73.106735"
       x2="192.39467"
       y2="98.488899" /><linearGradient
       inkscape:collect="always"
       xlink:href="#linearGradient44"
       id="linearGradient3"
       gradientUnits="userSpaceOnUse"
       x1="190.57536"
       y1="73.50061"
       x2="206.09712"
       y2="96.602951" /><linearGradient
       inkscape:collect="always"
       xlink:href="#linearGradient37"
       id="linearGradient4"
       gradientUnits="userSpaceOnUse"
       x1="180.73837"
       y1="73.106735"
       x2="192.39467"
       y2="98.488899" /><linearGradient
       inkscape:collect="always"
       xlink:href="#linearGradient44"
       id="linearGradient5"
       gradientUnits="userSpaceOnUse"
       x1="190.57536"
       y1="73.50061"
       x2="206.09712"
       y2="96.602951" /><linearGradient
       inkscape:collect="always"
       xlink:href="#linearGradient37"
       id="linearGradient6"
       gradientUnits="userSpaceOnUse"
       x1="180.73837"
       y1="73.106735"
       x2="192.39467"
       y2="98.488899" /><linearGradient
       inkscape:collect="always"
       xlink:href="#linearGradient44"
       id="linearGradient7"
       gradientUnits="userSpaceOnUse"
       x1="190.57536"
       y1="73.50061"
       x2="206.09712"
       y2="96.602951" /></defs><metadata
     id="metadata12"><rdf:RDF><cc:Work
         rdf:about=""><dc:format>image/svg+xml</dc:format><dc:type
           rdf:resource="http://purl.org/dc/dcmitype/StillImage" /><cc:license
           rdf:resource="http://creativecommons.org/publicdomain/zero/1.0/" /></cc:Work><cc:License
         rdf:about="http://creativecommons.org/publicdomain/zero/1.0/"><cc:permits
           rdf:resource="http://creativecommons.org/ns#Reproduction" /><cc:permits
           rdf:resource="http://creativecommons.org/ns#Distribution" /><cc:permits
           rdf:resource="http://creativecommons.org/ns#DerivativeWorks" /></cc:License></rdf:RDF></metadata><g
     id="layer1"
     inkscape:label="Winzip Box"
     style="display:none"><path
       fill="#b3272c"
       d="m 458,944.2 21.35,-0.002 c 0.0877,0.0254 0.1759,0.051 0.2382,0.1654 0.0881,0.0255 0.15,0.1385 0.1246,0.2262 l 0.021,22.6 c -0.0254,0.0873 -0.0765,0.2641 -0.1021,0.3517 l -1.678,1.515 -1.68,1.514 c -0.0254,0.0873 -0.1135,0.0615 -0.1135,0.0615 -0.0878,-0.0256 -0.1131,0.0617 -0.1131,0.0617 l -21.33,-0.0865 c -0.1763,-0.0514 -0.4147,-0.2162 -0.3634,-0.3931 l -0.0463,-22.51 0.0255,-0.0884 c 0,0 0.0254,-0.0874 0.1386,-0.1498 l 3.207,-3.169 c 0.1136,-0.062 0.2272,-0.1241 0.3153,-0.0986"
       id="path21"
       transform="matrix(5.3841349,0,0,5.3841349,-2443.0523,-5050.9171)" /><path
       fill="#f46d22"
       d="m 478.4,945 -20.28,-0.0698 -2.513,2.417 20.17,0.1322 2.625,-2.479"
       id="path22"
       transform="matrix(5.3841349,0,0,5.3841349,-2443.0523,-5050.9171)" /><path
       fill="#f46d22"
       d="m 478.9,945.5 -2.538,2.506 0.0194,13.73 -0.0445,7.709 1.061,-1.028 v 0 l 1.54,-1.364 -0.0378,-21.55"
       id="path23"
       transform="matrix(5.3841349,0,0,5.3841349,-2443.0523,-5050.9171)" /><path
       fill="#f6e216"
       d="m 475.6,969.9 0.0144,-21.73 -20.57,-0.0588 -0.0141,21.73 20.57,0.06"
       id="path24"
       transform="matrix(5.3841349,0,0,5.3841349,-2443.0523,-5050.9171)" /><path
       fill="#2e2a2b"
       d="m 472.1,961.3 1.112,-1.203 -0.0298,7.331 -15.53,-0.0262 1.086,-1.115 13.35,-0.0323 0.007,-4.954 v 0 z m -9.803,-7.611 5.999,0.0242 0.045,1.157 -5.998,-0.0232 -0.0459,-1.157 z m 9.779,-1.834 0.0545,5.067 -13.33,-0.0539 -1.174,1.09 15.62,0.0517 0.004,-7.244 -1.173,1.09 z m -9.754,11.28 -0.0436,1.133 5.998,0.0249 0.0425,-1.132 -5.997,-0.0259"
       id="path25"
       transform="matrix(5.3841349,0,0,5.3841349,-2443.0523,-5050.9171)" /><path
       fill="#ec771d"
       d="m 472.1,951.8 -13.33,-0.0552 0.0542,5.068 -1.174,1.09 0.004,-7.244 15.62,0.0516 -1.173,1.09 v 0 z m 0.0236,9.444 1.112,-1.203 -15.62,-0.0518 0.0579,7.356 1.086,-1.115 0.0333,-5.042 13.33,0.0551"
       id="path26"
       transform="matrix(5.3841349,0,0,5.3841349,-2443.0523,-5050.9171)" /><path
       d="m 472.1,951.8 -13.33,-0.0552 0.0542,5.068 -1.174,1.09 0.004,-7.244 15.62,0.0516 -1.173,1.09 v 0 z m 0.0236,9.444 1.112,-1.203 -15.62,-0.0518 0.0579,7.356 1.086,-1.115 0.0333,-5.042 13.33,0.0551"
       fill="#ec771d"
       id="path28"
       transform="matrix(5.3841349,0,0,5.3841349,-2443.0523,-5050.9171)" /></g><g
     style="overflow:visible"
     id="g65"
     transform="matrix(0.77989512,0,0,0.96213735,-13.361684,-12.900436)"><g
       id="Layer_1"
       transform="matrix(2.9143816,0,0,2.9143816,-49.326344,-158.68603)">
		<g
   id="g35"
   transform="translate(-4.3828813,-7.0613088)">
			
			<linearGradient
   id="XMLID_4_-3"
   gradientUnits="userSpaceOnUse"
   x1="-3.7275"
   y1="10.6514"
   x2="127.5933"
   y2="10.6514">
				<stop
   offset="0"
   style="stop-color:#B3CAFF"
   id="stop10-5" />
				<stop
   offset="1"
   style="stop-color:#0053BD"
   id="stop11-6" />
				<a:midPointStop
   offset="0"
   style="stop-color:#B3CAFF" />
				<a:midPointStop
   offset="0.5"
   style="stop-color:#B3CAFF" />
				<a:midPointStop
   offset="1"
   style="stop-color:#0053BD" />
			</linearGradient>
			
			
			<g
   id="g31"
   style="display:inline"
   transform="matrix(1,0,0,0.39146733,0,66.433676)">
				<linearGradient
   id="XMLID_8_"
   gradientUnits="userSpaceOnUse"
   x1="85.301804"
   y1="89.571297"
   x2="41.845001"
   y2="46.114498"
   gradientTransform="matrix(1,0,0,0.99211958,0,0.19304653)">
					<stop
   offset="0"
   style="stop-color:#FFE692"
   id="stop18" />
					<stop
   offset="1"
   style="stop-color:#FFFFDC"
   id="stop19" />
					<a:midPointStop
   offset="0"
   style="stop-color:#FFE692" />
					<a:midPointStop
   offset="0.5"
   style="stop-color:#FFE692" />
					<a:midPointStop
   offset="1"
   style="stop-color:#FFFFDC" />
				</linearGradient>
				<path
   id="path40"
   style="display:inline;fill:url(#linearGradient40)"
   d="m 66.017629,23.548308 c -0.193125,-0.02238 -0.393154,0.01449 -0.571653,0.112988 L 28.094168,44.245642 c -0.305,0.168 -0.493244,0.489138 -0.493244,0.837138 v 28.147688 8.030703 19.017919 9.13148 27.04863 c 0,0.269 0.111288,0.52332 0.310288,0.70531 l 29.500121,26.95276 c 0.300999,0.275 0.742416,0.32853 1.100415,0.13353 l 37.775354,-20.58434 c 0.309,-0.167 0.499946,-0.49057 0.499946,-0.84057 V 115.77727 106.85978 87.629581 79.811159 51.661758 c 0,-0.268999 -0.113299,-0.52503 -0.312299,-0.70703 L 66.549072,23.789691 c -0.152,-0.136999 -0.338318,-0.219008 -0.531443,-0.241383 z m -0.247962,2.114244 c 0.965999,0.876999 28.503062,25.876056 29.106062,26.422055 V 77.652405 L 66.549072,51.93738 c -0.304,-0.273999 -0.746097,-0.325395 -1.103096,-0.128395 L 29.510903,71.614399 V 45.646007 C 30.456902,45.125008 64.628668,26.291551 65.769667,25.662552 Z m 0,28.149401 c 0.965999,0.876999 28.503062,25.874343 29.106062,26.420343 v 6.830634 c -0.316106,0.17212 -6.888968,3.754457 -12.141432,6.616641 L 66.549072,78.986005 c -0.304,-0.274 -0.746097,-0.323683 -1.103096,-0.126684 L 41.677131,91.959073 C 35.899528,86.679878 29.764545,81.073332 29.510903,80.841746 V 73.795408 C 30.456902,73.274409 64.628668,54.440952 65.769667,53.811953 Z m 0,27.048624 c 0.504072,0.457631 7.816152,7.094276 15.188015,13.786239 C 70.520954,100.33404 58.904686,106.66491 58.194759,107.05152 57.691233,106.59096 50.455594,99.97953 43.165574,93.318352 53.498329,87.623798 65.058356,81.252702 65.769667,80.860577 Z m -36.258764,2.567908 10.401005,9.502969 -10.401005,5.731569 z m 65.364826,5.808606 V 104.70103 L 84.231452,95.03885 Z m -53.474708,5.053642 16.010312,14.628517 c 0.300999,0.275 0.742416,0.33024 1.100415,0.13524 L 82.454837,96.006095 c 5.909166,5.364135 12.163564,11.041825 12.420892,11.274825 v 7.93141 c -0.954999,0.52 -35.536971,19.36388 -36.68097,19.98688 -0.960999,-0.879 -28.085857,-25.66378 -28.683856,-26.20978 v -8.1454 c 0.310216,-0.17085 6.770458,-3.731778 11.890118,-6.553297 z m -11.890118,17.287157 27.90043,25.49076 c 0.300999,0.275 0.742416,0.32853 1.100415,0.13353 l 36.363981,-19.8174 v 24.87618 c -0.954999,0.51999 -35.536971,19.36387 -36.68097,19.98687 -0.960999,-0.87899 -28.085857,-25.66377 -28.683856,-26.20977 z" /><path
   id="path19-2"
   style="display:inline;fill:url(#XMLID_8_);stroke-width:0.996052"
   d="M 65.907051,24.496722 28.555243,44.920145 v 32.328243 3.567679 19.959493 l -0.0054,0.003 v 35.89421 l 29.500121,26.73876 37.774684,-20.42171 v -23.52717 l 0.0054,-0.003 V 87.133119 83.774296 51.447766 Z" /><path
   id="path43"
   style="display:inline;fill:url(#XMLID_10_)"
   d="m 30.477955,46.683442 0.01943,26.283388 -0.004,-0.0034 0.0248,33.99395 0.01072,0.0103 0.01943,26.69767 27.632363,24.47045 -0.02077,-31.49111 c 0,0 -0.0016,-0.15488 -0.01273,-0.37149 l -0.01474,-21.12531 0.0027,0.002 -0.02144,-31.491103 c 0,0 0.01807,-0.868154 -0.241931,-1.972153 -0.259,-1.105999 -1.140626,-1.753025 -1.140626,-1.753025 z" />
				<linearGradient
   id="XMLID_9_"
   gradientUnits="userSpaceOnUse"
   x1="88.084999"
   y1="92.3545"
   x2="40.494202"
   y2="44.763699">
					<stop
   offset="0"
   style="stop-color:#744426"
   id="stop20" />
					<stop
   offset="1"
   style="stop-color:#DE972B"
   id="stop21" />
					<a:midPointStop
   offset="0"
   style="stop-color:#744426" />
					<a:midPointStop
   offset="0.5"
   style="stop-color:#744426" />
					<a:midPointStop
   offset="1"
   style="stop-color:#DE972B" />
				</linearGradient>
				
				<linearGradient
   id="XMLID_10_"
   gradientUnits="userSpaceOnUse"
   x1="53.900398"
   y1="108.3457"
   x2="32.1115"
   y2="36.188702">
					<stop
   offset="0"
   style="stop-color:#FFB82D"
   id="stop22" />
					<stop
   offset="1"
   style="stop-color:#FFFFDC"
   id="stop23" />
					<a:midPointStop
   offset="0"
   style="stop-color:#FFB82D" />
					<a:midPointStop
   offset="0.5"
   style="stop-color:#FFB82D" />
					<a:midPointStop
   offset="1"
   style="stop-color:#FFFFDC" />
				</linearGradient>
				
				<linearGradient
   id="XMLID_11_"
   gradientUnits="userSpaceOnUse"
   x1="37.746269"
   y1="124.71779"
   x2="92.718666"
   y2="143.35857">
					<stop
   offset="0"
   style="stop-color:#FFA221"
   id="stop24" />
					<stop
   offset="1"
   style="stop-color:#FFE192"
   id="stop25" />
					<a:midPointStop
   offset="0"
   style="stop-color:#FFA221" />
					<a:midPointStop
   offset="0.5"
   style="stop-color:#FFA221" />
					<a:midPointStop
   offset="1"
   style="stop-color:#FFE192" />
				</linearGradient>
				
				<linearGradient
   id="XMLID_12_"
   gradientUnits="userSpaceOnUse"
   x1="62.387699"
   y1="74.371101"
   x2="62.387699"
   y2="36.490002">
					<stop
   offset="0"
   style="stop-color:#FFAC2D"
   id="stop26" />
					<stop
   offset="1"
   style="stop-color:#FFFFDC"
   id="stop27" />
					<a:midPointStop
   offset="0"
   style="stop-color:#FFAC2D" />
					<a:midPointStop
   offset="0.5"
   style="stop-color:#FFAC2D" />
					<a:midPointStop
   offset="1"
   style="stop-color:#FFFFDC" />
				</linearGradient>
				<path
   fill="url(#XMLID_12_)"
   d="M 65.658,26.496 93.554,52.14 60.884,69.263 c 0,0 -1.26,0.424 -2.066,0.349 -0.807,-0.074 -1.791,-0.889 -1.791,-0.889 L 31.221,45.613 Z"
   id="path27-9"
   style="display:inline;fill:url(#XMLID_12_)" />
				<linearGradient
   id="XMLID_13_"
   gradientUnits="userSpaceOnUse"
   x1="80.295898"
   y1="64.916"
   x2="64.228996"
   y2="48.849098">
					<stop
   offset="0"
   style="stop-color:#744426"
   id="stop28" />
					<stop
   offset="1"
   style="stop-color:#DE972B"
   id="stop29" />
					<a:midPointStop
   offset="0"
   style="stop-color:#744426" />
					<a:midPointStop
   offset="0.5"
   style="stop-color:#744426" />
					<a:midPointStop
   offset="1"
   style="stop-color:#DE972B" />
				</linearGradient>
				<path
   opacity="0.8"
   fill="url(#XMLID_13_)"
   d="M 58.992,70.326 64.228,44.488 94.38,52.287 64.985,50.459 Z"
   id="path29-1"
   style="fill:url(#XMLID_13_)" />
				<linearGradient
   id="XMLID_14_"
   gradientUnits="userSpaceOnUse"
   x1="73.048798"
   y1="42.361801"
   x2="61.8241"
   y2="39.339401">
					<stop
   offset="0"
   style="stop-color:#744426"
   id="stop30" />
					<stop
   offset="1"
   style="stop-color:#DE972B"
   id="stop31" />
					<a:midPointStop
   offset="0"
   style="stop-color:#744426" />
					<a:midPointStop
   offset="0.5"
   style="stop-color:#744426" />
					<a:midPointStop
   offset="1"
   style="stop-color:#DE972B" />
				</linearGradient>
				<path
   opacity="0.7"
   fill="url(#XMLID_14_)"
   d="m 65.009,26.032 -0.78,18.456 -33.272,0.706 31.608,-1.985 z"
   id="path31"
   style="fill:url(#XMLID_14_)" /><path
   id="path25-2"
   style="display:inline;fill:url(#XMLID_11_)"
   d="M 94.298044,52.748839 60.892855,70.260256 c 0,0 -0.912836,0.646313 -1.180836,1.751312 -0.269,1.104999 -0.247962,1.973865 -0.247962,1.973865 l -0.02077,28.875267 v 0.0325 c -7.41e-4,0.0623 -6.7e-4,0.11984 -6.7e-4,0.11984 l -0.02346,31.48939 0.03954,-0.0205 -0.01743,23.88154 34.831977,-18.73374 0.0248,-33.99225 -0.03887,0.0205 0.01407,-18.915203 0.0034,-4.966333 z" />
			</g>
			
		</g>
		
	</g></g><g
     id="g64"
     inkscape:label="compress"
     style="display:inline"
     transform="translate(-0.96164683,-1.5817177)"><g
       fill-rule="evenodd"
       transform="matrix(5.3841349,0,0,5.3841349,-2443.0523,-5050.9171)"
       id="g29"><path
         fill="#2e2a2b"
         d="m 467.1,938.3 12.46,0.0885 c 2.201,-0.0292 2.689,0.5888 3.452,1.573 l 1.126,1.376 9.532,10e-4 c 0.8417,0.0541 1.344,0.2936 1.594,0.7489 0.1624,0.4272 0.1844,1.006 0.1556,1.761 l 0.0327,1.534 c 0.013,2.578 -0.6525,2.576 -1.696,2.559 l -2.201,0.0291 -0.005,19.73 c 0.3772,0.0116 0.8674,-0.0335 1.421,0.0314 1.043,0.0178 1.999,0.009 2.002,2.296 -0.0145,0.3771 -0.028,0.7559 -0.0166,1.044 -0.0145,0.3771 -0.0546,0.8431 0.008,0.9562 -0.0532,0.8424 -0.1184,1.395 -0.5103,1.759 -0.3028,0.3885 -0.8184,0.5239 -1.661,0.4708 -0.466,-0.0403 -0.8678,0.0345 -1.246,0.02 l -0.0273,3.709 c 0.1765,0.0514 0.3774,0.0116 0.5538,0.0649 0.2629,0.076 0.5521,0.0668 0.7035,0.2041 1.23,0.357 1.843,1.204 1.888,2.36 l 3.281,0.1891 c 0.0762,-0.2628 0.1529,-0.5269 0.3806,-0.6522 0.1643,-0.2387 0.5923,-0.3995 0.8806,-0.411 l 0.0889,0.0258 c 0.3774,0.0116 0.7035,0.2041 0.9164,0.4572 0.2376,0.1637 0.3999,0.5911 0.4109,0.8806 l -0.0259,0.0893 0.0201,1.245 c -0.0145,0.376 -0.2041,0.7034 -0.4814,1.004 -0.2527,0.2117 -0.5681,0.3115 -0.9695,0.3851 -0.3774,-0.0116 -0.7035,-0.2041 -0.9168,-0.456 -0.1499,-0.1382 -0.2129,-0.2532 -0.2493,-0.455 l -3.498,0.2255 c -0.1529,0.527 -0.368,0.941 -0.76,1.305 -0.6432,0.5749 -1.5,0.8977 -2.543,0.8814 l -4.867,0.0183 c -1.245,0.02 -2.125,-0.2353 -2.664,-0.6782 -0.4504,-0.417 -0.7016,-0.87 -0.81,-1.474 l -5.37,-0.2227 c -0.0508,0.1752 -0.1271,0.4381 -0.3542,0.5636 -0.2525,0.2131 -0.5922,0.401 -0.9698,0.3863 -0.3772,-0.0116 -0.7287,-0.1163 -0.9416,-0.368 -0.2126,-0.2518 -0.4,-0.5925 -0.3857,-0.9696 l 0.006,-1.334 c 0.0135,-0.3776 0.2041,-0.7035 0.4558,-0.9155 0.1892,-0.3264 0.5931,-0.4006 0.9702,-0.3861 0.3772,0.0116 0.7293,0.1163 0.9416,0.368 0.1505,0.1384 0.2123,0.2529 0.2502,0.4538 l 5.371,-0.4434 c 0.1529,-0.5269 0.5078,-1.092 1.013,-1.518 0.5923,-0.3994 1.273,-0.7732 2.141,-0.8066 l 0.0276,-3.711 c -0.4914,0.0471 -0.955,0.008 -1.535,0.0313 l -2.095,1.965 c -0.8088,0.8144 -1.427,1.303 -3.627,1.332 -1.999,-0.009 -4.199,0.0195 -6.401,0.0484 -2.088,-0.0336 -4.175,-0.0672 -6.464,-0.0638 -0.7546,-0.0329 -1.332,-0.007 -1.923,-0.2729 -0.5899,-0.2659 -1.04,-0.6831 -1.767,-1.465 -0.3001,-0.2784 -0.576,-0.6434 -0.7883,-0.8963 -0.2126,-0.2518 -0.4254,-0.5049 -0.7886,-0.8952 -0.1501,-0.1394 -0.2123,-0.253 -0.275,-0.3662 -0.0366,-0.202 0.0397,-0.4648 0.1787,-0.616 0.1134,-0.0616 0.2521,-0.2118 0.3657,-0.2739 0.2887,-0.0122 0.6038,-0.1112 0.8932,-0.1221 2.377,0.0215 5.13,0.0583 7.796,0.0689 2.665,0.0102 5.332,0.0217 8.086,0.058 0.5775,-0.0224 1.12,-0.2464 1.687,-0.5595 0.4792,-0.3374 0.9839,-0.7623 1.4,-1.213 1.478,-1.479 3.434,-3.294 4.767,-3.288 0.202,-0.0369 0.2901,-0.0111 0.466,0.0393 l 0.0559,-19.91 -0.6661,-0.003 c -1.446,0.0567 -2.084,-0.6999 -2.361,-1.065 l -2.314,-2.865 c -1.064,-1.261 -1.064,-1.261 -2.598,-1.23 l -14.84,-0.1116 c -0.8682,0.0344 -2.402,0.0669 -1.353,-1.25 l 1.389,-1.504 c 0.6953,-0.751 1.288,-1.152 1.829,-1.375 0.63,-0.1986 1.183,-0.1331 1.963,-0.1931"
         id="path12"
         style="display:inline;fill:#006cad;fill-opacity:1;stroke:#2166aa;stroke-opacity:1" /><path
         style="color:#000000;fill:url(#radialGradient13398-9);enable-background:accumulate"
         d="m 476.4,980.4 c -0.006,-1.8e-4 -0.002,0.03 -0.009,0.0297 -0.0212,-6.6e-4 -0.0471,0.009 -0.0686,0.0119 -0.0263,-8e-4 -0.044,0.009 -0.0686,0.0119 -0.009,-2.7e-4 -0.0215,-0.0107 -0.0298,-0.0109 -0.0592,-0.0159 -0.1048,-0.0132 -0.1373,0.0248 -0.002,-5.6e-4 -0.0258,-0.0178 -0.0299,-0.011 -0.0752,0.0137 -0.1585,0.0372 -0.2149,0.0675 0,0 -0.009,0.0157 -0.0472,0.0506 -0.0224,0.009 -0.0464,0.009 -0.0686,0.0119 l -0.0262,0.0902 c -0.0543,-0.0156 -0.056,-7.8e-4 -0.0772,0.0417 -0.009,0.01 -0.0211,-0.0167 -0.0299,-0.0109 l -0.0261,0.0903 -0.0261,0.0903 -0.0261,0.0902 -0.0261,0.0903 -0.0261,0.0902 -0.0261,0.0903 -0.0261,0.0903 0.0377,0.2062 -0.009,0.0297 c -0.007,0.0187 -0.0117,0.0407 -0.0174,0.0595 l 0.0377,0.2062 -0.0262,0.0903 0.0203,0.2662 -0.0261,0.0902 -0.0261,0.0903 c 0.0105,0.0194 0.0391,0.0291 0.0514,0.0476 l 0.0128,0.0684 -0.0261,0.0903 -0.0261,0.0902 c 0.0254,0.0228 0.0546,0.0378 0.0814,0.0556 0.004,0.0251 -0.0173,0.0596 -0.0173,0.0596 0.004,0.0251 0.0329,0.0601 0.0639,0.1164 0.0312,0.057 0.0539,0.0686 0.0727,0.0853 l -0.009,0.0297 0.09,0.0258 c 0,0 -0.0242,0.0903 0.0639,0.1164 l 0.09,0.0258 c 0.0468,0.0855 0.1542,0.1136 0.2915,0.1169 0.0469,0.002 0.0848,-0.007 0.1287,0.003 0.0442,0.0124 0.0981,-0.012 0.1373,-0.0249 0.093,-0.009 0.2015,-0.01 0.275,-0.0507 0.0129,-0.0446 0.0577,-0.0572 0.0863,-0.0734 0.008,2.4e-4 0.0194,0.0156 0.0298,0.0109 l 0.0261,-0.0903 c 0.0254,-0.0873 0.1165,-0.0656 0.1422,-0.154 l 0.0261,-0.0902 0.0261,-0.0903 0.0262,-0.0903 0.0261,-0.0902 0.0261,-0.0903 0.0174,-0.0596 -0.0639,-0.1164 0.0523,-0.18 -0.029,-0.2363 0.0435,-0.15 -0.0377,-0.2062 0.0261,-0.0903 0.0262,-0.0902 -0.0639,-0.1163 0.0261,-0.0903 0.0174,-0.0596 c -0.0177,-0.0165 -0.0328,-0.0341 -0.0514,-0.0476 -0.008,-0.0143 -0.0253,-0.0248 -0.0127,-0.0684 -0.0104,-0.0134 -0.0101,-0.0294 -0.0214,-0.0387 -0.0187,-0.0176 -0.0555,-0.0328 -0.0428,-0.0773 l -0.0639,-0.1164 c 0,0 -0.0599,-0.0179 -0.0338,-0.1077 l -0.09,-0.0257 c -0.0877,-0.0256 -0.1561,-0.1432 -0.2439,-0.1687 -0.0441,-0.0124 -0.1029,-0.0411 -0.1501,-0.0436 z"
         fill="url(#radialGradient13398)"
         id="path13" /><path
         style="color:#000000;fill:url(#linearGradient13400);enable-background:accumulate"
         d="m 482.9,980.9 -0.2063,0.0377 -0.09,-0.0257 -0.2063,0.0377 -0.2663,0.0208 -0.09,-0.0257 -0.2063,0.0377 -0.2062,0.0377 -0.2063,0.0377 -0.1801,-0.0525 -0.1974,0.007 -0.1762,0.0467 -0.09,-0.0257 -0.2062,0.0377 -0.2963,0.012 -0.09,-0.0257 -0.2063,0.0377 -0.2063,0.0377 -0.09,-0.0257 -0.2663,0.0208 -0.2062,0.0377 -0.09,-0.0257 -0.2062,0.0377 -0.2063,0.0377 -0.1801,-0.0526 -0.2063,0.0377 -0.1762,0.0467 -0.009,0.0297 -0.1073,0.0337 -0.09,-0.0257 -0.2963,0.012 -0.0347,1.129 0.1162,-0.0645 0.15,0.0436 0.2063,-0.0377 0.09,0.0257 0.09,0.0257 0.2963,-0.012 0.09,0.0257 0.09,0.0257 0.2063,-0.0377 0.09,0.0257 0.1501,0.0436 0.2063,-0.0377 0.09,0.0257 0.2963,-0.012 0.09,0.0257 0.09,0.0257 0.2063,-0.0377 0.09,0.0258 0.1801,0.0526 0.1762,-0.0467 0.09,0.0257 0.2063,-0.0377 0.1801,0.0526 0.09,0.0257 0.2063,-0.0377 0.09,0.0257 0.09,0.0258 0.2663,-0.0209 0.09,0.0257 0.09,0.0257 0.1973,-0.007 0.1801,0.0526 0.2063,-0.0377 0.09,0.0257 0.09,0.0257 0.2063,-0.0377 0.0113,-1.721 -0.09,-0.0257 z"
         fill="url(#linearGradient13400)"
         id="path14" /><path
         style="color:#000000;fill:url(#linearGradient13402);enable-background:accumulate"
         d="m 491.9,978.7 c -0.1011,0.0189 -0.202,0.0159 -0.2963,0.012 -0.1753,-0.0503 -0.2725,-0.0793 -0.3864,-0.0118 l -0.09,-0.0258 -0.09,-0.0257 -0.5624,0.0318 -0.2963,0.012 -0.2963,0.012 -0.2663,0.0209 -0.5664,-0.0662 -0.5925,0.023 -0.2663,0.0209 -0.2964,0.012 -0.2963,0.012 -0.6175,-0.1149 -0.5925,0.023 c -0.0758,0.0147 -0.1366,0.0268 -0.2063,0.0377 -0.0263,-0.0108 -0.0639,-0.0179 -0.09,-0.0258 -0.0436,0.009 -0.0705,0.0239 -0.1073,0.0337 -0.0291,-8.9e-4 -0.0797,0.009 -0.0987,0.006 -0.1617,0.0291 -0.3243,0.0732 -0.4986,0.1483 -0.0928,0.0212 -0.1938,0.0691 -0.2924,0.1103 -0.0508,0.0125 -0.0989,0.037 -0.1462,0.0556 -0.1008,0.018 -0.174,0.0618 -0.2623,0.1192 -0.0495,0.0275 -0.0725,0.0568 -0.1248,0.0943 -0.0536,0.0364 -0.1208,0.0413 -0.1849,0.0764 l -0.0261,0.0903 c -0.0889,-0.0257 -0.1201,0.0644 -0.2323,0.1279 -0.0337,0.0429 -0.0421,0.0978 -0.0734,0.1413 -0.0196,0.0274 -0.0375,0.0539 -0.0562,0.0813 -0.0571,0.0662 -0.1023,0.1304 -0.151,0.184 l -0.0173,0.0596 c -0.1334,0.2439 -0.2009,0.4894 -0.209,0.7203 l -0.0297,2.009 c 0.0157,0.385 0.111,0.6991 0.2751,0.9583 l 0.0124,0.0684 c 0.0623,0.1128 0.1014,0.2247 0.2779,0.2759 0.0315,0.0571 0.0919,0.0798 0.1328,0.1031 0.0402,0.0262 0.0965,0.0489 0.1414,0.0732 0.0726,0.0592 0.1562,0.0999 0.2528,0.138 0.0211,0.0167 0.0282,0.0319 0.0514,0.0476 0.0384,0.0111 0.0812,0.0246 0.1201,0.0347 0.0464,0.0144 0.1103,0.0324 0.15,0.0436 0.1753,0.0503 0.361,0.0105 0.5364,0.0573 0.1753,0.0503 0.3937,0.012 0.6565,0.092 l 0.009,-0.0297 c 0.002,5.7e-4 0.0249,0.0178 0.0298,0.0109 0.0515,8.1e-4 0.1104,-0.006 0.1673,-0.0159 l 0.09,0.0257 0.2663,-0.0209 0.2963,-0.012 0.2963,-0.012 0.5664,0.0662 0.2663,-0.0209 0.2963,-0.012 0.2963,-0.012 0.2874,0.0188 0.2663,-0.0209 0.2963,-0.012 0.5664,0.0663 0.5624,-0.0318 0.0601,0.0179 0.3263,-0.002 c 0.113,-0.0616 0.002,5.6e-4 0.09,0.0258 0.0566,-0.0313 0.1148,-0.0406 0.1762,-0.0467 0.1776,-0.0197 0.3507,-0.007 0.5324,-0.0408 0.1086,-0.0197 0.1932,-0.0722 0.2924,-0.1104 0.2009,-0.0379 0.3186,-0.0754 0.546,-0.1995 l 0.009,-0.0297 c 0.0916,-0.0503 0.1735,-0.0898 0.241,-0.1579 0.008,-0.01 8.9e-4,-0.027 0.009,-0.0297 0.0265,0.0108 0.0493,8e-4 0.0687,-0.0119 0.013,-0.0101 0.0262,-0.0132 0.0387,-0.0209 0.0313,-0.026 0.0677,-0.0631 0.1248,-0.0943 0.1078,-0.1172 0.2052,-0.2477 0.272,-0.3766 0.2199,-0.2667 0.3514,-0.5169 0.3813,-0.8656 0.0254,-0.0873 0.0768,-0.2719 0.0147,-0.3862 l 0.003,-1.691 c 0.0128,-0.0437 1.3e-4,-0.1028 -0.0165,-0.1674 -0.0121,-0.2192 -0.0571,-0.4244 -0.1821,-0.606 -0.0814,-0.1819 -0.1841,-0.3529 -0.3844,-0.4694 -0.0895,-0.0958 -0.1746,-0.1925 -0.3079,-0.2846 l -0.4502,-0.1306 -0.1801,-0.0525 -0.4202,-0.122 -0.09,-0.0257 z"
         fill="url(#linearGradient13402)"
         id="path15" /><path
         d="m 490.7,947.9 -0.5625,0.032 -0.5663,-0.0667 -0.5625,0.032 -0.2962,0.0116 -0.2962,0.0116 -0.4676,-0.0705 -0.4724,0.0582 -0.2962,0.0116 -0.3863,-0.0148 -0.0467,4.086 0.0113,9.83 0.0156,0.3951 0.008,4.46 -0.0174,1.069 c 0.0438,-0.009 0.0871,0.003 0.1287,0.003 0.0474,8.1e-4 0.1107,0.0154 0.1673,-0.0159 0.1227,0.0357 0.256,0.008 0.395,-0.016 0.1499,0.0196 0.293,0.0199 0.4374,0.0624 0.0553,-0.0104 0.1129,-0.007 0.1673,-0.0159 0.0425,0.002 0.089,-0.007 0.1287,0.003 0.1005,-0.019 0.2021,-0.0149 0.2963,-0.012 0.2009,-0.0379 0.3606,5.9e-4 0.5624,-0.0318 0.0876,0.0256 0.0924,0.0268 0.2063,-0.0377 0.0439,0.0124 0.092,0.0377 0.1501,0.0436 0.1415,0.0262 0.3066,-7e-4 0.4637,-0.0278 0.0195,-0.0101 0.0492,-0.009 0.0687,-0.012 0.0877,0.0257 0.2711,-0.0198 0.4464,0.0315 0.1005,-0.019 0.1748,-0.0237 0.2363,-0.0298 0.0198,0.0106 0.0398,0.0112 0.0601,0.0179 0.0877,0.0257 0.0901,0.0257 0.1162,-0.0646 l 0.0323,-3.7 -0.023,-4.855 0.0119,-4.975 -0.0116,-0.2962 -0.0118,-4.559 -0.003,-1.335 -0.0987,0.003 0.009,-0.0299 z"
         fill="url(#linearGradient13404)"
         id="path16"
         style="fill:url(#linearGradient1)" /><path
         d="m 494.1,942.1 c -0.0885,-0.0257 -0.3014,0.0102 -0.4763,-0.0406 l -0.4637,0.0281 -0.9613,-0.0512 -1.236,-10e-4 -1.245,0.0292 -1.155,0.0553 -0.6525,0.007 -0.6825,-0.002 -0.5537,0.002 -1.309,-0.0869 -1.275,0.0206 -0.0861,0.0726 c -0.0872,-0.0253 -0.2458,-0.1689 -0.334,-0.1945 l -0.1278,-0.2323 -1.132,-1.37 c -0.1592,-0.1887 -0.3184,-0.38 -0.5258,-0.543 -0.2199,-0.2176 -0.4625,-0.4271 -0.792,-0.5226 -0.3521,-0.1022 -0.7041,-0.2001 -1.283,-0.177 -0.0877,-0.0254 -0.1806,-0.0504 -0.2062,0.0377 l -0.4463,-0.0318 -0.5925,0.0234 -1.309,-0.0869 -1.236,-10e-4 -1.245,0.0293 -0.6825,-0.002 -1.245,0.0292 -0.6525,0.007 -1.21,-0.0908 -0.425,0.008 -0.2575,-0.0101 -1.245,0.0293 -0.6525,0.007 -0.5925,0.0234 -0.7425,-0.0206 c -0.2008,0.0367 -0.3806,-0.0427 -0.4937,0.0195 -0.2261,0.006 -0.4878,-9e-5 -0.6525,0.007 -0.2016,0.0378 -0.415,0.0774 -0.5286,0.1395 -0.0878,-0.0254 -0.0905,-0.0241 -0.1161,0.064 -0.1155,0.0431 -0.2309,0.074 -0.3311,0.1317 -0.1102,0.056 -0.2058,0.1199 -0.3185,0.2004 -0.0174,0.0139 -0.0299,0.0363 -0.0474,0.0514 -0.2088,0.1571 -0.431,0.3689 -0.6466,0.6584 l -1.432,1.569 c 0,0 0.498,-0.0183 0.6738,0.0328 l 1.987,-0.009 0.5925,-0.0234 0.6825,0.002 1.236,10e-4 1.245,-0.0292 1.309,0.0869 0.5625,-0.032 1.335,-0.003 1.236,10e-4 0.6825,0.002 0.5624,-0.032 0.6825,0.002 1.219,0.0609 0.3262,-0.002 0.3476,0.0357 0.9487,-0.0177 c 0.1178,0.005 0.193,-0.0119 0.2962,-0.0116 0.2615,-0.011 0.457,-0.0154 0.6525,-0.007 0.5238,0.0621 0.7967,0.1339 1.153,0.3996 0.1801,0.1596 0.3973,0.3978 0.641,0.7066 0.1509,0.1389 0.2883,0.2489 0.3505,0.362 l 0.8153,1.115 1.196,1.486 0.3079,0.2846 c 0.1061,0.1258 0.208,0.2372 0.3505,0.362 0.007,0.007 0.0223,9.1e-4 0.0299,0.009 0.1392,0.1189 0.3084,0.2394 0.548,0.3542 0.1924,0.0558 0.4124,0.0863 0.6564,0.0928 0.0878,0.0255 0.1529,0.0422 0.2662,-0.0203 l 0.3776,0.0444 0.6825,0.002 1.219,0.0608 0.5625,-0.032 0.5925,-0.0234 0.6525,-0.007 1.236,10e-4 0.6825,0.002 0.5925,-0.0234 0.6525,-0.007 0.6825,0.002 0.4463,0.0318 0.09,0.0261 c 0.0588,-0.006 0.1134,-0.004 0.1675,-0.0165 0.2462,-0.0177 0.4513,-0.0975 0.5469,-0.427 0.0765,-0.2641 0.0834,-0.6422 0.0869,-1.309 l 0.0752,-1.605 c 5e-4,-0.1151 -0.009,-0.1922 -0.0116,-0.2962 -0.022,-0.5791 0.008,-0.9438 -0.1415,-1.082 -0.0365,-0.2019 -0.2239,-0.2602 -0.488,-0.3368 z m -3.402,5.781 0.0932,1.361 -0.003,-1.335 -0.09,-0.0262 z"
         fill="url(#linearGradient13406)"
         id="path17"
         style="fill:url(#linearGradient13406)" /><path
         style="color:#000000;fill:url(#linearGradient54);enable-background:accumulate"
         d="m 490.7,974.2 c -0.004,-9.8e-4 -0.005,0.0239 -0.009,0.0297 -0.0664,0.008 -0.1389,0.0249 -0.1973,0.007 l -0.09,-0.0257 c -0.0889,-0.0258 -0.1097,0.0326 -0.1973,0.007 l -0.0901,-0.0257 c -0.0474,0.0256 -0.0755,0.0627 -0.1162,0.0645 l -0.2701,-0.0782 -0.009,0.0297 c -0.033,-8.7e-4 -0.0624,0.008 -0.1073,0.0337 l -0.15,-0.0436 c -0.0476,0.0266 -0.0823,0.0605 -0.1162,0.0646 l -0.2701,-0.0782 c -0.0129,0.0446 -0.0501,0.0705 -0.0863,0.0734 -0.009,-2.8e-4 -0.0208,-0.0107 -0.0298,-0.0109 l -0.1801,-0.0526 c -0.0478,0.0256 -0.0821,0.0605 -0.1162,0.0646 l -0.1801,-0.0526 c 0,0 -0.1187,0.0634 -0.2062,0.0377 l -0.0601,-0.0179 c -0.0876,-0.0256 -0.1186,0.0634 -0.2062,0.0377 -0.0439,-0.0124 -0.0837,-0.0366 -0.1201,-0.0347 -0.0837,-0.0126 -0.1874,0.0433 -0.2663,0.0209 l -0.09,-0.0257 c -0.1142,0.0616 -0.1186,0.0634 -0.2063,0.0377 -0.0539,-0.0156 -0.0893,-0.0158 -0.1287,-0.003 -0.0902,0.0323 -0.1819,0.0114 -0.2574,-0.008 l -0.0601,-0.0179 -0.009,0.0297 c -0.0149,0.0226 -0.0499,0.0102 -0.0686,0.012 -0.0134,-4.2e-4 -0.025,0.0253 -0.0386,0.0208 l -0.0385,1.03 0.0352,1.897 -0.002,0.6825 0.09,0.0257 0.09,0.0257 0.2663,-0.0209 0.09,0.0257 0.2063,-0.0377 0.09,0.0258 0.2963,-0.012 0.09,0.0257 0.2063,-0.0377 0.09,0.0257 0.2663,-0.0209 0.09,0.0257 0.2062,-0.0377 0.09,0.0257 0.2963,-0.012 0.09,0.0257 0.1974,-0.007 0.09,0.0257 0.2663,-0.0209 0.09,0.0257 0.2063,-0.0377 0.09,0.0257 0.2963,-0.012 0.09,0.0257 0.009,-0.0297 0.1073,-0.0337 -0.003,-1.335 10e-4,-0.2274 0.0345,-2.138 c -0.0444,-0.0134 -0.0755,-0.0343 -0.09,-0.0257 z"
         fill="url(#linearGradient13404)"
         id="path18" /><path
         d="m 493.5,968.5 c -0.1305,-0.038 -0.2609,-0.065 -0.3988,-0.0831 l -0.1162,0.0646 c -0.0877,-0.0257 -0.1898,-0.0258 -0.2874,-0.0188 -0.3639,-0.0262 -0.7308,-0.0362 -1.047,0.0211 -0.2389,0.003 -0.4637,0.0128 -0.6525,0.007 -0.2589,0.002 -0.5205,-0.006 -0.7724,-0.0335 -0.2171,0.005 -0.4299,0.0259 -0.6525,0.007 -0.0566,0.0312 -0.1205,0.0183 -0.1673,0.0159 -0.0479,-8.2e-4 -0.0777,-0.003 -0.1287,-0.003 -0.0573,0.0312 -0.1254,0.006 -0.1973,0.007 -0.1752,0.0147 -0.3673,0.0189 -0.5925,0.0231 -0.3393,-0.0234 -0.6811,-0.0427 -1.039,-0.008 -0.219,0.005 -0.4309,0.0249 -0.6525,0.007 -0.1892,-0.006 -0.392,-0.0119 -0.5838,-0.007 -0.0635,-0.003 -0.1235,-0.0147 -0.1887,-0.0227 -0.1141,0.0616 -0.2685,0.0208 -0.3824,0.0844 -0.0881,-0.0257 -0.182,-0.0526 -0.2963,0.012 -0.0797,0.0166 -0.1614,0.0291 -0.2449,0.0596 -0.0431,0.0147 -0.0934,0.007 -0.1373,0.0248 -0.0829,0.0314 -0.1723,0.0628 -0.2536,0.0893 l -0.009,0.0297 c -0.4445,0.2466 -0.8114,0.4996 -1.283,0.8319 -0.1958,0.1813 -0.375,0.3684 -0.5817,0.547 -0.0257,0.0182 -0.051,0.0235 -0.0772,0.0417 -0.0343,0.0319 -0.0607,0.0711 -0.0948,0.1026 -0.1568,0.1299 -0.3233,0.2517 -0.4995,0.3758 -0.1389,0.1503 -0.2825,0.3336 -0.4355,0.4918 -0.0446,0.0417 -0.089,0.0823 -0.1336,0.124 -0.1151,0.1081 -0.2503,0.2133 -0.3746,0.2818 -0.1395,0.1495 -0.163,0.2142 -0.2758,0.2778 l -0.009,0.0297 c -0.3014,0.3803 -0.6832,0.729 -1.129,0.9742 l -0.0261,0.0903 c -0.4288,0.1619 -0.8831,0.4323 -1.286,0.5056 -0.1093,0.0276 -0.2315,0.0509 -0.3436,0.0626 -0.0211,-6.3e-4 -0.0478,0.009 -0.0686,0.012 -0.0913,0.007 -0.1939,-0.006 -0.2874,-0.0188 -0.0439,-0.0124 -0.0603,0.0241 -0.0772,0.0417 -0.0133,-4.1e-4 -0.024,0.0213 -0.0386,0.0209 -0.1759,-0.0514 -0.3622,-0.0115 -0.6264,-0.0841 -0.3009,0.0539 -0.6396,0.0565 -0.9962,0.0687 -0.2941,-0.0229 -0.5749,-0.008 -0.88,0.005 -0.1789,-0.005 -0.3621,-0.032 -0.5451,-0.0275 -0.3673,-0.0115 -0.7384,0.006 -1.099,-0.0235 -0.4652,-0.0402 -0.8694,0.0417 -1.335,0.003 -0.0237,-7.2e-4 -0.0462,0.0136 -0.0687,0.0119 -0.0331,-8.7e-4 -0.0656,-0.003 -0.0987,0.006 -0.2022,-0.006 -0.4051,-0.0284 -0.605,-0.0454 -0.4916,0.0491 -0.9609,0.0187 -1.451,0.067 -0.0881,-0.0257 -0.1838,-0.0537 -0.3864,-0.0118 -0.0872,-0.0257 -0.1442,-0.0724 -0.2574,-0.008 -0.2351,0.003 -0.4719,-0.0143 -0.6825,-0.002 -0.2492,0.002 -0.5005,9.5e-4 -0.7424,-0.0226 -0.2289,0.003 -0.4595,0.016 -0.6825,-0.002 -0.2492,0.002 -0.5002,9.7e-4 -0.7424,-0.0226 -0.0991,0.018 -0.22,-0.007 -0.3263,0.002 -0.118,-0.004 -0.2387,0.004 -0.3565,-6e-4 -0.4912,0.0471 -0.9519,-0.012 -1.442,0.037 -0.4648,-0.0402 -0.934,-0.0716 -1.425,-0.0235 -0.2807,-0.008 -0.5604,-0.007 -0.8413,-0.0157 -0.096,-0.005 -0.1914,-0.0158 -0.2874,-0.0188 -0.0704,0.0129 -0.136,0.0248 -0.2062,0.0377 -0.1313,0.024 -0.2513,0.0604 -0.3824,0.0844 l -0.0261,0.0903 c 0.303,0.2374 0.4891,0.4357 0.6497,0.6766 0.05,0.0736 0.1051,0.1457 0.1366,0.2022 0.1192,0.0827 0.2227,0.1678 0.3166,0.2547 0.081,0.0726 0.1627,0.1777 0.2479,0.2671 l 0.0213,0.0387 c 0.063,0.1131 0.1316,0.2334 0.3079,0.2846 0.1179,0.2152 0.3392,0.422 0.4871,0.5643 l 0.0213,0.0387 c 0.0331,0.0261 0.0501,0.0325 0.0814,0.0556 0.2292,0.2377 0.4539,0.4368 0.6845,0.5566 l 0.1801,0.0525 0.6002,0.1742 c 0.1898,-0.007 0.4426,-0.004 0.6825,0.002 0.0881,0.0256 0.2685,-0.0199 0.3565,6e-4 0.0433,8.4e-4 0.1116,0.0144 0.1587,0.0149 0.0615,-0.008 0.1394,-0.0238 0.2275,-0.003 0.4647,0.0402 0.9519,0.0129 1.416,0.0532 0.0714,-0.0138 0.1613,-0.0221 0.2363,-0.0288 0.1483,0.0145 0.2988,0.0191 0.4464,0.0315 0.4669,-0.0459 0.918,-0.016 1.382,-0.0549 0.0208,0.0107 0.0462,-0.0136 0.0686,-0.0119 0.4647,0.0402 0.9343,0.0705 1.425,0.0235 0.3772,0.0116 0.743,0.0507 1.12,0.0643 0.2898,-0.0101 0.5715,-0.0317 0.9487,-0.0172 0.2456,-0.0246 0.4933,-0.013 0.7212,-0.0192 0.4514,-0.0362 0.8907,0.008 1.344,-0.033 0.0952,0.004 0.1911,0.0189 0.2874,0.0188 0.3817,0.0306 0.764,0.0534 1.168,0.014 0.2288,-0.003 0.4596,-0.017 0.6825,0.002 0.2088,0.006 0.4252,-0.004 0.6525,-0.007 0.2012,-0.0369 0.3916,0.012 0.5924,-0.0229 l 0.1801,0.0526 c 0.4907,-0.049 0.8941,-0.1363 1.297,-0.2094 0.0131,-0.01 0.0271,-0.0182 0.0387,-0.0208 0.008,2.4e-4 0.022,0.0107 0.0298,0.0109 0.1414,-0.0358 0.2373,-0.0558 0.3524,-0.0929 0.0957,-0.0351 0.1781,-0.0767 0.2623,-0.1192 0.0285,-0.0171 0.0504,-0.0265 0.0772,-0.0417 0.1509,-0.0835 0.2732,-0.1767 0.4046,-0.273 0.0521,-0.0415 0.1153,-0.0716 0.1636,-0.1153 l 0.009,-0.0297 c 0.0876,-0.0793 0.1814,-0.1552 0.2672,-0.2479 l 0.2846,-0.3079 0.3059,-0.2691 0.3233,-0.3293 0.6504,-0.5596 0.6766,-0.6498 c 0.0881,0.0257 0.2046,-0.1358 0.2923,-0.1104 0.0466,8.3e-4 0.1081,0.0143 0.1587,0.0149 0.0469,0.002 0.081,0.003 0.1373,-0.0248 0.2228,0.0188 0.4535,0.004 0.6825,0.002 0.4647,0.0402 0.9602,-0.0168 1.425,0.0235 0.4009,-0.0399 0.7826,0.002 1.176,-0.0172 0.0865,-0.0103 0.1776,-0.0126 0.2663,-0.0209 0.0877,0.0257 0.1513,0.0436 0.2663,-0.0209 0.0666,0.003 0.1266,0.0208 0.1887,0.0227 0.0686,0.0121 0.141,0.0233 0.1973,-0.007 0.2145,0.007 0.4415,-0.005 0.6825,0.002 0.4647,0.0402 0.9587,-0.0157 1.425,0.0235 0.4902,-0.048 0.9606,-0.0177 1.451,-0.067 0.1171,0.004 0.2302,0.0311 0.3474,0.0366 0.4659,0.0403 0.8042,-0.0626 1.005,-0.099 0.0256,-0.0883 0.1168,-0.0666 0.1422,-0.1539 0.1386,-0.1498 0.2648,-0.5896 0.2671,-1.257 -0.0736,-0.4014 -0.007,-0.6604 -0.0177,-0.9487 -0.0478,-0.4903 -0.0336,-0.8936 0.0173,-1.069 -0.0134,-0.1793 -0.0341,-0.3292 -0.0582,-0.4724 -0.0274,-0.1775 -0.0585,-0.2985 -0.1056,-0.4211 -0.0286,-0.0819 -0.0634,-0.1612 -0.0978,-0.2236 -0.0173,-0.0295 -0.0242,-0.0518 -0.0428,-0.0773 -0.0353,-0.0541 -0.0923,-0.0667 -0.1328,-0.1031 l -0.0127,-0.0684 c -0.0331,-0.0231 -0.0861,-0.0147 -0.1201,-0.0347 -0.0604,-0.0319 -0.1362,-0.0722 -0.2014,-0.0911 z"
         fill="url(#linearGradient13410)"
         id="path19"
         style="fill:url(#linearGradient13410)" /><path
         style="color:#000000;fill:url(#radialGradient13412-3);enable-background:accumulate"
         d="m 499.3,980.3 c -0.0439,-0.0124 -0.1221,-0.004 -0.1973,0.007 -0.0323,-8.8e-4 -0.0653,-0.003 -0.0988,0.006 -0.007,0.0217 -0.0319,0.0331 -0.0473,0.0506 -0.0208,-6.3e-4 -0.0499,0.0102 -0.0686,0.0119 -0.006,0.0208 -0.004,0.0429 -0.0173,0.0596 -0.0303,-8.8e-4 -0.0691,0.007 -0.0987,0.006 l -0.0261,0.0903 c -0.0567,0.0312 -0.0688,0.0539 -0.0862,0.0725 l -0.0174,0.0596 -0.0261,0.0902 -0.0261,0.0903 -0.0261,0.0903 -0.0261,0.0903 -0.0261,0.0903 -0.0261,0.0902 0.008,0.1975 -0.009,0.0297 -0.009,0.0297 c -0.003,0.0109 -0.005,0.0189 -0.009,0.0297 -0.0129,0.0447 0.005,0.0541 0.0127,0.0684 l 0.0252,0.1375 -0.0523,0.1801 0.0465,0.1761 -0.0261,0.0903 -0.0261,0.0903 0.0639,0.1164 -0.0261,0.0903 -0.0261,0.0903 c 0.0173,0.0155 0.0341,0.0321 0.0514,0.0476 0.0104,0.0174 0.0213,0.0387 0.0128,0.0685 0.006,0.0122 0.013,0.0284 0.0213,0.0387 0.008,0.0553 0.0369,0.0971 0.0165,0.1676 l 0.09,0.0257 c 0.0188,0.0176 0.0328,0.0591 0.0639,0.1164 l 0.09,0.0257 c 0.0268,0.0208 0.0377,0.0692 0.0639,0.1164 l 0.1801,0.0526 0.2401,0.0692 c 0.0972,-0.0521 0.2545,-0.1051 0.3698,-0.153 0.0237,-0.009 0.0451,-0.009 0.0686,-0.0119 0,0 0.0473,-0.0346 0.0862,-0.0724 0.0287,8.6e-4 0.0391,-0.0229 0.0562,-0.0813 l 0.1162,-0.0646 0.009,-0.0297 c 0.0176,-0.0186 0.0173,-0.0596 0.0173,-0.0596 l 0.0261,-0.0903 0.0261,-0.0903 0.0261,-0.0903 0.0261,-0.0902 0.0174,-0.0596 -0.0639,-0.1164 0.0261,-0.0903 0.0261,-0.0903 -0.0116,-0.2963 0.0261,-0.0902 -0.0116,-0.2962 -0.0377,-0.2062 0.0261,-0.0902 0.0173,-0.0596 c -0.009,-0.0133 -0.0113,-0.0294 -0.0214,-0.0387 -0.005,-0.0122 -0.0195,-0.0256 -0.0213,-0.0387 -0.004,-0.0251 -0.0214,-0.0387 -0.0214,-0.0387 l 0.0261,-0.0903 c -0.0102,-3e-4 -0.0203,-6.2e-4 -0.0298,-0.0109 -0.0544,-0.0346 -0.0338,-0.1078 -0.0338,-0.1078 -0.0116,-3.5e-4 -0.0195,-5.9e-4 -0.0298,-0.0109 -0.0549,-0.0347 -0.0173,-0.103 -0.094,-0.1251 0,0 -0.09,-0.0257 -0.0639,-0.1164 l -0.1801,-0.0525 -0.09,-0.0257 c -0.0877,-0.0256 -0.1791,-0.0635 -0.2701,-0.0782 z"
         fill="url(#radialGradient13412)"
         id="path20" /><path
         style="color:#000000;fill:url(#linearGradient13414);enable-background:accumulate"
         d="m 497.6,981.3 -0.009,0.0297 -0.1073,0.0337 -0.09,-0.0257 -0.1801,-0.0525 -0.1763,0.0467 -0.09,-0.0257 -0.09,-0.0257 -0.2062,0.0377 -0.09,-0.0257 -0.1801,-0.0526 -0.009,0.0297 -0.1073,0.0337 -0.09,-0.0257 -0.1801,-0.0526 -0.1974,0.007 -0.09,-0.0257 -0.15,-0.0436 -0.009,0.0297 -0.1073,0.0337 -0.09,-0.0257 -0.18,-0.0525 -0.1162,0.0646 -0.09,-0.0258 -0.09,-0.0257 -0.09,-0.0257 -0.009,0.0297 -0.1073,0.0337 -0.0346,1.129 c -0.0206,0.0714 -0.0226,0.1296 0.0165,0.1676 0.008,0.0443 0.006,0.0903 -0.004,0.1287 l 0.09,0.0257 0.2063,-0.0377 0.09,0.0257 0.2063,-0.0377 0.0601,0.0179 0.2063,-0.0377 0.1973,-0.007 0.09,0.0257 0.2063,-0.0377 0.09,0.0257 0.2062,-0.0377 0.09,0.0258 0.2063,-0.0377 0.09,0.0257 0.0862,-0.0724 0.09,0.0257 0.2063,-0.0377 0.09,0.0257 0.2062,-0.0377 0.09,0.0257 0.009,-0.0297 0.1073,-0.0337 0.09,0.0258 0.09,0.0257 0.009,-0.0297 0.1073,-0.0337 0.09,0.0257 0.008,-1.039 -0.0901,-0.0257 -0.09,-0.0258 -0.18,-0.0525 z"
         fill="url(#linearGradient13414)"
         id="path27" /></g><g
       id="layer2"
       inkscape:label="metal spring"
       style="display:inline"><g
         id="g8"
         style="display:inline"
         transform="rotate(-10.210741,113.61347,76.602475)"><g
           id="rect37"><path
             style="color:#000000;fill:url(#linearGradient42);stroke-miterlimit:2.1;-inkscape-stroke:none"
             d="M 169.16379,74.626617 H 207.769 c 4.79951,0 8.66338,3.863866 8.66338,8.663375 0,4.79951 -3.86387,8.663375 -8.66338,8.663375 h -38.60521 c -4.79951,0 -8.66338,-3.863865 -8.66338,-8.663375 0,-4.799509 3.86387,-8.663375 8.66338,-8.663375 z"
             id="path57" /><path
             style="color:#000000;fill:url(#linearGradient2);stroke-miterlimit:2.1;-inkscape-stroke:none"
             d="m 169.16406,73.738281 c -5.27636,0 -9.55273,4.274417 -9.55273,9.550781 0,5.276366 4.27637,9.552735 9.55273,9.552735 h 38.60547 c 5.27637,0 9.55078,-4.276369 9.55078,-9.552735 0,-5.276364 -4.27441,-9.550781 -9.55078,-9.550781 z m 0,1.777344 h 38.60547 c 4.32265,0 7.77344,3.450794 7.77344,7.773437 0,4.322645 -3.45079,7.775391 -7.77344,7.775391 h -38.60547 c -4.32264,0 -7.77539,-3.452746 -7.77539,-7.775391 0,-4.322643 3.45275,-7.773437 7.77539,-7.773437 z"
             id="path58" /></g><path
           id="rect44"
           style="fill:url(#linearGradient3);fill-opacity:0.755208;stroke:none;stroke-width:1.777;stroke-miterlimit:2.1"
           d="m 166.88395,76.45048 c 14.27006,0.240678 29.54009,-0.911934 42.55693,0 6.00519,1.651397 5.30132,5.698886 5.92757,9.271331 -6.34759,8.494967 -44.41924,-11.098737 -51.82826,0.759945 -2.45847,-2.178509 -2.39552,-6.332876 3.34376,-10.031276 z"
           sodipodi:nodetypes="ccccc" /></g><g
         id="g46"
         style="display:inline"
         transform="rotate(-10.210741,258.2157,89.521543)"><g
           id="rect46"><path
             style="color:#000000;fill:url(#linearGradient47);stroke-miterlimit:2.1;-inkscape-stroke:none"
             d="M 169.16379,74.626617 H 207.769 c 4.79951,0 8.66338,3.863866 8.66338,8.663375 0,4.79951 -3.86387,8.663375 -8.66338,8.663375 h -38.60521 c -4.79951,0 -8.66338,-3.863865 -8.66338,-8.663375 0,-4.799509 3.86387,-8.663375 8.66338,-8.663375 z"
             id="path59" /><path
             style="color:#000000;fill:url(#linearGradient4);stroke-miterlimit:2.1;-inkscape-stroke:none"
             d="m 169.16406,73.738281 c -5.27636,0 -9.55273,4.274417 -9.55273,9.550781 0,5.276366 4.27637,9.552735 9.55273,9.552735 h 38.60547 c 5.27637,0 9.55078,-4.276369 9.55078,-9.552735 0,-5.276364 -4.27441,-9.550781 -9.55078,-9.550781 z m 0,1.777344 h 38.60547 c 4.32265,0 7.77344,3.450794 7.77344,7.773437 0,4.322645 -3.45079,7.775391 -7.77344,7.775391 h -38.60547 c -4.32264,0 -7.77539,-3.452746 -7.77539,-7.775391 0,-4.322643 3.45275,-7.773437 7.77539,-7.773437 z"
             id="path60" /></g><path
           id="path46"
           style="fill:url(#linearGradient5);fill-opacity:0.755208;stroke:none;stroke-width:1.777;stroke-miterlimit:2.1"
           d="m 166.88395,76.45048 c 14.27006,0.240678 29.54009,-0.911934 42.55693,0 6.00519,1.651397 5.30132,5.698886 5.92757,9.271331 -6.34759,8.494967 -44.41924,-11.098737 -51.82826,0.759945 -2.45847,-2.178509 -2.39552,-6.332876 3.34376,-10.031276 z"
           sodipodi:nodetypes="ccccc" /></g><g
         id="g49"
         style="display:inline"
         transform="rotate(-10.210741,392.61072,101.52868)"><g
           id="rect49"><path
             style="color:#000000;fill:url(#linearGradient50);stroke-miterlimit:2.1;-inkscape-stroke:none"
             d="M 169.16379,74.626617 H 207.769 c 4.79951,0 8.66338,3.863866 8.66338,8.663375 0,4.79951 -3.86387,8.663375 -8.66338,8.663375 h -38.60521 c -4.79951,0 -8.66338,-3.863865 -8.66338,-8.663375 0,-4.799509 3.86387,-8.663375 8.66338,-8.663375 z"
             id="path61" /><path
             style="color:#000000;fill:url(#linearGradient6);stroke-miterlimit:2.1;-inkscape-stroke:none"
             d="m 169.16406,73.738281 c -5.27636,0 -9.55273,4.274417 -9.55273,9.550781 0,5.276366 4.27637,9.552735 9.55273,9.552735 h 38.60547 c 5.27637,0 9.55078,-4.276369 9.55078,-9.552735 0,-5.276364 -4.27441,-9.550781 -9.55078,-9.550781 z m 0,1.777344 h 38.60547 c 4.32265,0 7.77344,3.450794 7.77344,7.773437 0,4.322645 -3.45079,7.775391 -7.77344,7.775391 h -38.60547 c -4.32264,0 -7.77539,-3.452746 -7.77539,-7.775391 0,-4.322643 3.45275,-7.773437 7.77539,-7.773437 z"
             id="path62" /></g><path
           id="path49"
           style="fill:url(#linearGradient7);fill-opacity:0.755208;stroke:none;stroke-width:1.777;stroke-miterlimit:2.1"
           d="m 166.88395,76.45048 c 14.27006,0.240678 29.54009,-0.911934 42.55693,0 6.00519,1.651397 5.30132,5.698886 5.92757,9.271331 -6.34759,8.494967 -44.41924,-11.098737 -51.82826,0.759945 -2.45847,-2.178509 -2.39552,-6.332876 3.34376,-10.031276 z"
           sodipodi:nodetypes="ccccc" /></g><g
         id="g68"
         style="display:inline"
         transform="rotate(-10.210741,526.92588,113.52868)"><g
           id="g67"><path
             style="color:#000000;fill:url(#linearGradient71);stroke-miterlimit:2.1;-inkscape-stroke:none"
             d="M 169.16379,74.626617 H 207.769 c 4.79951,0 8.66338,3.863866 8.66338,8.663375 0,4.79951 -3.86387,8.663375 -8.66338,8.663375 h -38.60521 c -4.79951,0 -8.66338,-3.863865 -8.66338,-8.663375 0,-4.799509 3.86387,-8.663375 8.66338,-8.663375 z"
             id="path64" /><path
             style="color:#000000;fill:url(#linearGradient38);stroke-miterlimit:2.1;-inkscape-stroke:none"
             d="m 169.16406,73.738281 c -5.27636,0 -9.55273,4.274417 -9.55273,9.550781 0,5.276366 4.27637,9.552735 9.55273,9.552735 h 38.60547 c 5.27637,0 9.55078,-4.276369 9.55078,-9.552735 0,-5.276364 -4.27441,-9.550781 -9.55078,-9.550781 z m 0,1.777344 h 38.60547 c 4.32265,0 7.77344,3.450794 7.77344,7.773437 0,4.322645 -3.45079,7.775391 -7.77344,7.775391 h -38.60547 c -4.32264,0 -7.77539,-3.452746 -7.77539,-7.775391 0,-4.322643 3.45275,-7.773437 7.77539,-7.773437 z"
             id="path65" /></g><path
           id="path67"
           style="fill:url(#linearGradient46);fill-opacity:0.755208;stroke:none;stroke-width:1.777;stroke-miterlimit:2.1"
           d="m 166.88395,76.45048 c 14.27006,0.240678 29.54009,-0.911934 42.55693,0 6.00519,1.651397 5.30132,5.698886 5.92757,9.271331 -6.34759,8.494967 -44.41924,-11.098737 -51.82826,0.759945 -2.45847,-2.178509 -2.39552,-6.332876 3.34376,-10.031276 z"
           sodipodi:nodetypes="ccccc" /></g></g></g></svg>
