<?xml version="1.0" encoding="UTF-8" standalone="no"?>
<!-- Created with Inkscape (http://www.inkscape.org/) -->

<svg
   width="256mm"
   height="256mm"
   viewBox="0 0 256 256"
   version="1.1"
   id="svg1"
   inkscape:version="1.4.2 (ebf0e940d0, 2025-05-08)"
   sodipodi:docname="blender.svg"
   xml:space="preserve"
   xmlns:inkscape="http://www.inkscape.org/namespaces/inkscape"
   xmlns:sodipodi="http://sodipodi.sourceforge.net/DTD/sodipodi-0.dtd"
   xmlns="http://www.w3.org/2000/svg"
   xmlns:svg="http://www.w3.org/2000/svg"
   xmlns:rdf="http://www.w3.org/1999/02/22-rdf-syntax-ns#"
   xmlns:cc="http://creativecommons.org/ns#"><sodipodi:namedview
     id="namedview1"
     pagecolor="#ffffff"
     bordercolor="#000000"
     borderopacity="0.25"
     inkscape:showpageshadow="2"
     inkscape:pageopacity="0.0"
     inkscape:pagecheckerboard="0"
     inkscape:deskcolor="#d1d1d1"
     inkscape:document-units="mm"
     inkscape:zoom="0.90898636"
     inkscape:cx="490.10636"
     inkscape:cy="529.71092"
     inkscape:current-layer="svg1" /><defs
     id="defs1" /><metadata
     id="metadata1"><rdf:RDF><cc:License
         rdf:about="http://creativecommons.org/publicdomain/zero/1.0/"><cc:permits
           rdf:resource="http://creativecommons.org/ns#Reproduction" /><cc:permits
           rdf:resource="http://creativecommons.org/ns#Distribution" /><cc:permits
           rdf:resource="http://creativecommons.org/ns#DerivativeWorks" /></cc:License><cc:Work
         rdf:about=""><cc:license
           rdf:resource="http://creativecommons.org/publicdomain/zero/1.0/" /></cc:Work></rdf:RDF></metadata><g
     id="g1"
     transform="matrix(2.1097346,0,0,2.1097346,-140.35668,-138.29373)"><path
       style="fill:#fde236"
       d="m 135.46667,161.79271 v -1.45521 h 11.1125 11.1125 v -1.32291 -1.32292 h 1.32291 1.32292 v -1.32292 -1.32291 h 1.32292 1.32291 v -1.45521 -1.45521 h 1.45521 1.45521 v -1.32292 -1.32291 h 1.32292 1.32292 v -2.77813 -2.77812 h 1.4552 1.45521 v -8.33438 -8.33438 h 1.32292 1.32292 v 9.6573 9.65729 H 172.77292 171.45 v 2.77812 2.77813 h -1.45521 -1.4552 v 1.45521 1.45521 h -1.32292 -1.32292 v 1.32291 1.32292 h -1.45521 -1.45521 v 1.32292 1.32291 h -2.64583 -2.64583 v 1.45521 1.45521 h -11.1125 -11.1125 z m -5.55625,-2.77812 v -1.32292 h -1.32292 -1.32292 v -1.32292 -1.32291 h 1.32292 1.32292 v 1.32291 1.32292 h 1.45521 1.4552 v 1.32292 1.32291 h -1.4552 -1.45521 z m -55.033338,-2.64584 v -1.32291 h -1.322917 -1.322917 v -1.45521 -1.45521 h 1.322917 1.322917 v -1.32292 -1.32291 h 1.322916 1.322917 v -1.45521 -1.45521 h 1.455208 1.455209 v -1.32292 -1.32291 h 1.322917 1.322916 v -1.45521 -1.45521 h 1.455209 1.455208 V 139.7 138.37709 h 1.322917 1.322916 v -1.32292 -1.32292 h 1.455209 1.455208 v -1.45521 -1.4552 h 1.322917 1.322917 v -1.32292 -1.32292 h 1.322916 1.322917 v -1.45521 -1.45521 h 1.455208 1.455209 v -1.32291 -1.32292 h 1.322914 1.32292 v -1.32292 -1.32291 h 1.45521 1.45521 v -1.45521 -1.45521 h 1.32291 1.32292 v -1.32292 -1.32291 h 1.32292 1.32291 v -1.45521 -1.45521 h 1.45521 1.45521 v -1.32292 -1.32291 h 1.32292 1.32291 v 1.32291 1.32292 h -1.32291 -1.32292 v 1.45521 1.45521 h -1.45521 -1.45521 v 1.32291 1.32292 H 109.27292 107.95 v 1.45521 1.45521 h -1.32292 -1.32291 v 1.32291 1.32292 h -1.45521 -1.45521 v 1.32292 1.32291 h -1.32292 -1.322914 v 1.45521 1.45521 h -1.455209 -1.455208 v 1.32292 1.32292 h -1.322917 -1.322916 v 1.4552 1.45521 h -1.322917 -1.322917 v 1.32292 1.32292 h -1.455208 -1.455209 v 1.32291 1.32292 h -1.322916 -1.322917 v 1.45521 1.45521 h -1.455208 -1.455209 v 1.32291 1.32292 h -1.322916 -1.322917 v 1.45521 1.45521 h -1.455209 -1.455208 v 1.32291 1.32292 h -1.322917 -1.322916 v 1.45521 1.45521 h 1.322916 1.322917 v 1.32291 1.32292 h -1.322917 -1.322916 z m 93.662508,-33.07292 v -1.32291 h 1.4552 1.45521 v 1.32291 1.32292 h -1.45521 -1.4552 z M 85.989582,103.98125 v -1.32292 h 1.322917 1.322916 v -1.4552 -1.455213 h 22.092705 22.09271 v 1.455213 1.4552 H 110.72812 88.635415 v 1.32292 1.32292 h -1.322916 -1.322917 z m 60.589588,-5.556249 v -1.322917 h -1.45521 -1.45521 v -1.455209 -1.455208 h -1.32292 -1.32291 V 92.86875 91.545834 H 139.7 138.37708 V 90.222917 88.9 h -1.4552 -1.45521 v -1.455208 -1.455209 h -1.32292 -1.32292 V 84.666667 83.34375 h -1.4552 -1.45521 V 80.565625 77.7875 h 1.45521 1.4552 v -1.455209 -1.455208 h 1.32292 1.32292 v 1.455208 1.455209 h -1.32292 -1.32292 v 2.778125 2.778125 h 1.32292 1.32292 v 1.322917 1.322916 h 1.45521 1.4552 V 87.444792 88.9 h 1.32292 1.32292 v 1.322917 1.322917 h 1.32291 1.32292 v 1.322916 1.322917 h 1.45521 1.45521 v 1.455208 1.455209 h 1.32291 1.32292 v 1.322917 1.322916 h -1.32292 -1.32291 z"
       id="path16" /><path
       style="fill:#facb34"
       d="m 141.02292,164.57084 v -1.32292 h 6.87916 6.87917 v 1.32292 1.32291 h -6.87917 -6.87916 z m -8.20209,-2.77813 v -1.45521 h 1.32292 1.32292 v 1.45521 1.45521 h -1.32292 -1.32292 z m 24.87084,0 v -1.45521 h -1.45521 -1.45521 v -1.32291 -1.32292 h 1.45521 1.45521 v 1.32292 1.32291 h 1.32291 1.32292 v 1.45521 1.45521 h -1.32292 -1.32291 z m -44.18542,-5.42396 v -1.32291 h 1.32292 1.32291 v 1.32291 1.32292 h -1.32291 -1.32292 z m 11.1125,-2.77812 v -1.45521 h 1.32292 1.32291 v 1.45521 1.45521 h -1.32291 -1.32292 z m -14.02292,-2.77813 v -1.32291 h 1.45521 1.45521 v 1.32291 1.32292 h -1.45521 -1.45521 z M 171.45,148.03438 v -1.45521 h 1.32292 1.32292 v 1.45521 1.45521 H 172.77292 171.45 Z m -63.5,-2.77813 v -1.32291 h 1.32292 1.32291 v 1.32291 1.32292 H 109.27292 107.95 Z m 66.14584,-8.20208 V 130.175 h 1.32291 1.32292 v 6.87917 6.87917 h -1.32292 -1.32291 z m -71.70209,-11.1125 v -1.32292 h 1.45521 1.45521 v 1.32292 1.32291 h -1.45521 -1.45521 z m 69.05625,0 v -1.32292 h 1.32292 1.32292 v 1.32292 1.32291 H 172.77292 171.45 Z m -2.91041,-5.42396 v -1.45521 h -1.32292 -1.32292 v -1.32292 -1.32291 h -1.45521 -1.45521 v -1.45521 -1.45521 h 1.45521 1.45521 v 1.45521 1.45521 h 1.32292 1.32292 v 1.32291 1.32292 h 1.4552 1.45521 v 1.45521 1.45521 h -1.45521 -1.4552 z M 88.635415,103.98125 v -1.32292 h 1.455209 1.455208 v 1.32292 1.32292 h -1.455208 -1.455209 z m 44.185415,-2.77812 v -1.455213 h 1.32292 1.32292 v 1.455213 1.4552 h -1.32292 -1.32292 z"
       id="path15" /><path
       style="fill:#f4ad2f"
       d="m 124.61875,164.57084 v -1.32292 h 1.32292 1.32291 v 1.32292 1.32291 h -1.32291 -1.32292 z m 10.84792,0 v -1.32292 h 2.77812 2.77813 v 1.32292 1.32291 h -2.77813 -2.77812 z m 19.31458,0 v -1.32292 h 1.45521 1.45521 v 1.32292 1.32291 h -1.45521 -1.45521 z m -35.71875,-2.77813 v -1.45521 h -1.45521 -1.45521 v -2.64583 -2.64583 h -2.77812 -2.77813 v -1.45521 -1.45521 h 2.77813 2.77812 v 1.45521 1.45521 h 1.45521 1.45521 v 1.32291 1.32292 h 1.32292 1.32291 v 2.77812 2.77813 h -1.32291 -1.32292 z m 10.84792,0 v -1.45521 h -1.32292 -1.32292 v -1.32291 -1.32292 h -1.32291 -1.32292 v -1.32292 -1.32291 h -1.45521 -1.45521 v -1.45521 -1.45521 h -1.32291 -1.32292 v -2.77813 -2.77812 h 1.32292 1.32291 v 1.45521 1.45521 h 1.45521 1.45521 v 2.77812 2.77813 h 1.32292 1.32291 v 1.32291 1.32292 h 1.32292 1.32292 v 1.32292 1.32291 h 1.45521 1.4552 v -1.32291 -1.32292 h 1.32292 1.32292 v 1.32292 1.32291 h -1.32292 -1.32292 v 1.45521 1.45521 h -1.4552 -1.45521 z m 30.42708,0 v -1.45521 h 1.32292 1.32291 v -1.32291 -1.32292 h 1.45521 1.45521 v -1.32292 -1.32291 h 1.32292 1.32292 v -1.45521 -1.45521 h 1.4552 1.45521 v -1.32292 -1.32291 h 1.32292 1.32292 v -2.77813 -2.77812 h 1.32291 1.32292 v 2.77812 2.77813 h -1.32292 -1.32291 v 1.32291 1.32292 H 172.77292 171.45 v 1.45521 1.45521 h -1.45521 -1.4552 v 1.32291 1.32292 h -1.32292 -1.32292 v 1.32292 1.32291 h -1.45521 -1.45521 v 1.45521 1.45521 h -1.32291 -1.32292 z m -8.20208,-2.77812 v -1.32292 h 1.32291 1.32292 v 1.32292 1.32291 h -1.32292 -1.32291 z m 5.55625,-2.64584 v -1.32291 h 1.32291 1.32292 v 1.32291 1.32292 h -1.32292 -1.32291 z m -77.258338,-8.33437 v -1.45521 h 1.322917 1.322916 v 1.45521 1.45521 h -1.322916 -1.322917 z m 27.516668,0 v -1.45521 h 2.77812 2.77813 v 1.45521 1.45521 H 110.72812 107.95 Z m -2.64583,-6.87917 v -2.77812 h 1.32291 1.32292 v 1.32291 1.32292 h 1.32292 1.32291 v 1.45521 1.45521 H 107.95 105.30417 Z m -11.112504,-6.87917 v -1.4552 h 1.322916 1.322917 v -1.32292 -1.32292 h 1.455208 1.455209 v -1.45521 -1.45521 h 1.322914 1.32292 v 1.45521 1.45521 h -1.32292 -1.322914 v 1.32292 1.32292 h -1.455209 -1.455208 v 1.4552 1.45521 h -1.322917 -1.322916 z m 79.904174,-5.55625 v -1.45521 h 1.32291 1.32292 v 1.45521 1.45521 h -1.32292 -1.32291 z m -68.79167,-5.42396 v -1.32291 h 1.32291 1.32292 v -1.45521 -1.45521 h 1.32292 1.32291 v -1.32292 -1.32291 h 1.45521 1.45521 v -1.45521 -1.45521 h 1.32292 1.32291 V 110.72813 107.95 h 1.45521 1.45521 v 2.77813 2.77812 h -1.45521 -1.45521 v 1.45521 1.45521 h -1.32291 -1.32292 v 1.32291 1.32292 h -1.45521 -1.45521 v 1.45521 1.45521 H 109.27292 107.95 v 1.32291 1.32292 h -1.32292 -1.32291 z m 66.14583,0 v -1.32291 h 1.32292 1.32292 v 1.32291 1.32292 H 172.77292 171.45 Z m -11.1125,-11.1125 v -1.32291 h -1.32292 -1.32291 V 109.40521 107.95 h -1.45521 -1.45521 v -1.32292 -1.32291 h 2.77813 2.77812 v 1.32291 1.32292 h 1.32292 1.32291 v 2.77813 2.77812 h -1.32291 -1.32292 z m -68.791668,-8.20208 v -1.32292 h 19.182288 19.1823 v 1.32292 1.32292 h -19.1823 -19.182288 z m 43.920838,-2.77812 v -1.455213 h 8.33437 8.33438 v 1.455213 1.4552 h -8.33438 -8.33437 z m 11.1125,-5.556255 v -1.455208 h -1.45521 -1.45521 V 92.86875 91.545834 h -1.32292 -1.32291 V 90.222917 88.9 H 139.7 138.37708 v -1.455208 -1.455209 h -1.4552 -1.45521 V 84.666667 83.34375 h -1.32292 -1.32292 V 80.565625 77.7875 h 1.32292 1.32292 v 2.778125 2.778125 h 1.45521 1.4552 v 1.322917 1.322916 H 139.7 141.02292 V 87.444792 88.9 h 1.32291 1.32292 v 1.322917 1.322917 h 1.45521 1.45521 v 1.322916 1.322917 h 1.32291 1.32292 v 1.455208 1.455209 h -1.32292 -1.32291 z"
       id="path14" /><path
       style="fill:#ec8c2a"
       d="m 138.37708,170.12709 v -1.32292 h -4.23333 -4.23333 v -1.45521 -1.45521 h -1.32292 -1.32292 v -1.32291 -1.32292 h -2.77812 -2.77813 v -2.77813 -2.77812 h -1.32291 -1.32292 v -1.32292 -1.32291 h -1.45521 -1.45521 v -1.45521 -1.45521 h -1.32291 -1.32292 v -2.77813 -2.77812 h -1.45521 -1.45521 v -2.77813 -2.77812 H 109.27292 107.95 V 139.7 138.37709 h -1.32292 -1.32291 v -2.77813 -2.77812 h -2.77813 -2.778124 v 1.4552 1.45521 h -1.455209 -1.455208 v 1.32292 1.32292 h -1.322917 -1.322916 v 1.32291 1.32292 h -1.322917 -1.322917 v 1.45521 1.45521 h -1.455208 -1.455209 v 1.32291 1.32292 h -1.322916 -1.322917 v 1.45521 1.45521 h -1.455208 -1.455209 v 1.32291 1.32292 h -1.322916 -1.322917 v 1.45521 1.45521 h -1.455209 -1.455208 v -1.45521 -1.45521 h 1.455208 1.455209 v -1.32292 -1.32291 h 1.322917 1.322916 v -1.45521 -1.45521 h 1.455209 1.455208 v -1.32292 -1.32291 h 1.322917 1.322916 v -1.45521 -1.45521 h 1.455209 1.455208 V 139.7 138.37709 h 1.322917 1.322917 v -1.32292 -1.32292 h 1.322916 1.322917 v -1.45521 -1.4552 h 1.455208 1.455209 v -1.32292 -1.32292 h 1.322914 1.32292 v -1.45521 -1.45521 h 1.45521 1.45521 v -1.32291 -1.32292 h 1.32291 1.32292 v -1.32292 -1.32291 h 1.32292 1.32291 v -1.45521 -1.45521 h 1.45521 1.45521 v -1.32292 -1.32291 h 1.32292 1.32291 v -1.45521 -1.45521 h 1.45521 1.45521 V 110.72813 107.95 H 103.84896 88.635415 v -1.32292 -1.32291 h 20.637505 20.6375 v -1.32292 -1.32292 h 11.1125 11.1125 v -1.4552 -1.455213 h -1.45521 -1.45521 v -2.778125 -2.778125 h -1.32292 -1.32291 V 92.86875 91.545834 h -1.45521 -1.45521 V 90.222917 88.9 h -1.32292 -1.32291 V 87.444792 85.989583 H 139.7 138.37708 V 84.666667 83.34375 h -1.4552 -1.45521 v -1.455208 -1.455209 h 1.45521 1.4552 v 1.455209 1.455208 h 1.32292 1.32292 v 1.322917 1.322916 h 1.32291 1.32292 V 87.444792 88.9 h 1.45521 1.45521 v 1.322917 1.322917 h 1.32291 1.32292 v 1.322916 1.322917 h 1.45521 1.45521 v 1.455208 1.455209 h 1.32291 1.32292 v 1.322917 1.322916 h 1.45521 1.45521 v 1.455213 1.4552 h 1.32291 1.32292 v 1.32292 1.32292 h 1.32292 1.32291 v 1.32291 1.32292 h 1.45521 1.45521 v 1.45521 1.45521 h 1.32292 1.32292 v 1.32291 1.32292 h 1.4552 1.45521 v 1.45521 1.45521 h 1.32292 1.32292 v 1.32291 1.32292 h 1.32291 1.32292 v 2.77813 2.77812 h 1.45521 1.45521 v 10.98021 10.98021 h -1.45521 -1.45521 v -9.65729 -9.6573 h -1.32292 -1.32291 v -2.64583 -2.64583 H 172.77292 171.45 v -1.45521 -1.45521 h -1.45521 -1.4552 v -1.32292 -1.32291 h -1.32292 -1.32292 v -1.45521 -1.45521 h -1.45521 -1.45521 V 110.72813 107.95 h -1.32291 -1.32292 v -1.32292 -1.32291 h -2.77812 -2.77813 v 1.32291 1.32292 h -1.32292 -1.32291 v -1.32292 -1.32291 h -8.33438 -8.33437 v 1.32291 1.32292 h -4.10104 -4.10105 v 1.45521 1.45521 h -1.32291 -1.32292 v 1.32291 1.32292 h -1.45521 -1.45521 v 1.45521 1.45521 h -1.32291 -1.32292 v 1.32291 1.32292 h -1.45521 -1.45521 v 2.77813 2.77812 h -1.32291 -1.32292 v 6.87917 6.87917 h 1.32292 1.32291 v 2.77812 2.77813 h 1.45521 1.45521 v 4.10104 4.10104 h 1.32292 1.32291 v 1.45521 1.45521 h 1.45521 1.45521 v 1.32291 1.32292 h 1.32292 1.32291 v 1.32292 1.32291 h 1.32292 1.32292 v 1.45521 1.45521 h 2.77812 2.77813 v 1.32292 1.32291 h 11.1125 11.1125 v -1.32291 -1.32292 h 2.64583 2.64583 v -1.45521 -1.45521 h 1.45521 1.45521 v -1.32291 -1.32292 h 1.32292 1.32292 v -1.32292 -1.32291 h 1.4552 1.45521 v -1.45521 -1.45521 h 1.32292 1.32292 v -1.32292 -1.32291 h 1.32291 1.32292 v 1.32291 1.32292 h -1.32292 -1.32291 v 1.45521 1.45521 H 172.77292 171.45 v 1.32291 1.32292 h -1.45521 -1.4552 v 1.32292 1.32291 h -1.32292 -1.32292 v 1.45521 1.45521 h -1.45521 -1.45521 v 1.32292 1.32291 h -2.64583 -2.64583 v 1.45521 1.45521 h -4.23334 -4.23333 v 1.32292 1.32291 h -5.42396 -5.42396 z"
       id="path13" /><path
       style="fill:#d89526"
       d="m 121.70833,164.57084 v -1.32292 h 1.45521 1.45521 v 1.32292 1.32291 h -1.45521 -1.45521 z m -46.831248,-5.55625 v -1.32292 h -1.322917 -1.322917 v -1.32292 -1.32291 H 70.77604 69.320831 v -1.45521 -1.45521 h 1.455209 1.455208 v -1.32292 -1.32291 h 1.322917 1.322917 v -1.45521 -1.45521 h 1.322916 1.322917 v -1.32292 -1.32291 h 1.455208 1.455209 v -1.45521 -1.45521 h 1.322917 1.322916 V 139.7 138.37709 h 1.455209 1.455208 v -1.32292 -1.32292 h 1.322917 1.322916 v -1.45521 -1.4552 h 1.455209 1.455208 v -1.32292 -1.32292 h 1.322917 1.322917 v 1.32292 1.32292 h -1.322917 -1.322917 v 1.4552 1.45521 h 1.322917 1.322917 v 1.32292 1.32292 h -1.322917 -1.322917 v 1.32291 1.32292 h -1.455208 -1.455209 v 1.45521 1.45521 h -1.322916 -1.322917 v 1.32291 1.32292 h -1.455208 -1.455209 v -1.32292 -1.32291 h -1.322916 -1.322917 v 1.32291 1.32292 h -1.455209 -1.455208 v 1.45521 1.45521 h 1.455208 1.455209 v 1.32291 1.32292 h -1.455209 -1.455208 v 1.45521 1.45521 h 1.455208 1.455209 v 1.32291 1.32292 h -1.455209 -1.455208 v 1.32292 1.32291 h -1.322917 -1.322916 z m 2.645833,-2.64584 v -1.32291 h -1.322917 -1.322916 v -1.45521 -1.45521 h 1.322916 1.322917 v -1.32292 -1.32291 h -1.322917 -1.322916 v 1.32291 1.32292 h -1.322917 -1.322917 v 1.45521 1.45521 h 1.322917 1.322917 v 1.32291 1.32292 h 1.322916 1.322917 z m 8.466667,-13.89062 v -1.45521 h 1.322917 1.322916 V 139.7 138.37709 h 1.455209 1.455208 v -1.32292 -1.32292 h -1.455208 -1.455209 v 1.32292 1.32292 h -1.322916 -1.322917 v 1.32291 1.32292 h -1.455208 -1.455209 v 1.45521 1.45521 h 1.455209 1.455208 z m 43.920838,13.89062 v -1.32291 h 1.45521 1.4552 v 1.32291 1.32292 h -1.4552 -1.45521 z m 30.42708,-2.77812 v -1.45521 h 1.32292 1.32291 v -1.32292 -1.32291 h 1.45521 1.45521 v -1.45521 -1.45521 h 1.32292 1.32292 v 1.45521 1.45521 h -1.32292 -1.32292 v 1.32291 1.32292 h -1.45521 -1.45521 v 1.45521 1.45521 h -1.32291 -1.32292 z m 8.20209,-11.1125 v -1.45521 h 1.4552 1.45521 v 1.45521 1.45521 h -1.45521 -1.4552 z m 0,-16.53646 v -1.32292 h 1.4552 1.45521 v 1.32292 1.32291 h -1.45521 -1.4552 z m -2.64584,-5.42396 v -1.45521 h 1.32292 1.32292 v 1.45521 1.45521 h -1.32292 -1.32292 z M 85.989582,108.08229 v -2.77812 h 1.322917 1.322916 v 2.77812 2.77813 h -1.322916 -1.322917 z m 68.791668,1.32292 V 107.95 h 1.45521 1.45521 v 1.45521 1.45521 h -1.45521 -1.45521 z m -68.791668,-8.20208 v -1.455213 h 1.322917 1.322916 v 1.455213 1.4552 h -1.322916 -1.322917 z m 57.679168,-2.778129 v -1.322917 h -1.32292 -1.32291 V 95.646875 94.191667 H 139.7 138.37708 V 92.86875 91.545834 h -1.4552 -1.45521 V 90.222917 88.9 h -1.32292 -1.32292 v -1.455208 -1.455209 h -1.4552 -1.45521 V 84.666667 83.34375 h -1.32292 -1.32292 V 80.565625 77.7875 h 1.32292 1.32292 v -1.455209 -1.455208 h 1.45521 1.4552 v 1.455208 1.455209 h -1.4552 -1.45521 v 2.778125 2.778125 h 1.45521 1.4552 v 1.322917 1.322916 h 1.32292 1.32292 V 87.444792 88.9 h 1.45521 1.4552 v 1.322917 1.322917 h 1.32292 1.32292 v 1.322916 1.322917 h 1.32291 1.32292 v 1.455208 1.455209 h 1.45521 1.45521 v 1.322917 1.322916 h -1.45521 -1.45521 z"
       id="path12" /><path
       style="fill:#008ddf"
       d="m 135.46667,130.175 v -5.55625 h 5.55625 5.55625 v 4.10104 4.10105 h -1.45521 -1.45521 v 1.4552 1.45521 h -4.10104 -4.10104 z"
       id="path11" /><path
       style="fill:#ce7822"
       d="m 135.46667,170.12709 v -1.32292 h 1.45521 1.4552 v 1.32292 1.32291 h -1.4552 -1.45521 z m 13.75833,0 v -1.32292 h 1.45521 1.45521 v 1.32292 1.32291 h -1.45521 -1.45521 z m -21.96042,-2.77813 v -1.45521 h 1.32292 1.32292 v 1.45521 1.45521 h -1.32292 -1.32292 z m 30.42709,0 v -1.45521 h 1.32291 1.32292 v 1.45521 1.45521 h -1.32292 -1.32291 z m -22.225,-8.33437 v -1.32292 h 8.33437 8.33438 v 1.32292 1.32291 h -8.33438 -8.33437 z m 19.31458,-2.64584 v -1.32291 h 1.45521 1.45521 v 1.32291 1.32292 h -1.45521 -1.45521 z m -74.347918,-2.77812 v -1.45521 h 1.322917 1.322916 v -1.32292 -1.32291 h 1.455209 1.455208 v -1.45521 -1.45521 h 1.322917 1.322916 v -1.32292 -1.32291 h 1.455209 1.455208 v -1.45521 -1.45521 h 1.322917 1.322917 V 139.7 138.37709 h 1.322916 1.322917 v -1.32292 -1.32292 h 1.455208 1.455209 v -1.45521 -1.4552 h 2.778124 2.77813 v 1.4552 1.45521 h -1.45521 -1.45521 v 1.32292 1.32292 h -2.778126 -2.778125 v 1.32291 1.32292 h -1.322917 -1.322916 v 1.45521 1.45521 h -1.322917 -1.322917 v 1.32291 1.32292 h -1.455208 -1.455209 v 1.45521 1.45521 h -1.322916 -1.322917 v 1.32291 1.32292 h -1.455208 -1.455209 v 1.45521 1.45521 h -1.322916 -1.322917 z m 46.831248,0 v -1.45521 h 1.32292 1.32292 v 1.45521 1.45521 h -1.32292 -1.32292 z m -13.75833,-22.09271 v -6.87917 h 1.32292 1.32291 v 6.87917 6.87917 h -1.32291 -1.32292 z m 63.23542,-8.20209 v -1.32291 h 1.45521 1.45521 v 1.32291 1.32292 h -1.45521 -1.45521 z m -60.58959,-2.77812 v -1.45521 h 1.45521 1.45521 v -1.32292 -1.32291 h 1.32292 1.32291 v -1.45521 -1.45521 h 1.45521 1.45521 v -1.32292 -1.32291 h 1.32292 1.32291 V 109.40521 107.95 h 1.32292 1.32292 v 1.45521 1.45521 h -1.32292 -1.32292 v 1.32291 1.32292 h -1.32291 -1.32292 v 1.45521 1.45521 h -1.45521 -1.45521 v 1.32291 1.32292 h -1.32291 -1.32292 v 1.45521 1.45521 h -1.45521 -1.45521 z m 46.83125,-2.77813 v -1.32291 h -1.32291 -1.32292 v -1.45521 -1.45521 h 1.32292 1.32291 v 1.45521 1.45521 h 1.45521 1.45521 v 1.32291 1.32292 h -1.45521 -1.45521 z m -52.3875,-5.55625 v -1.32291 h 1.45521 1.45521 V 109.40521 107.95 h 1.32292 1.32291 v 1.45521 1.45521 h -1.32291 -1.32292 v 1.32291 1.32292 h -1.45521 -1.45521 z m 24.87084,-5.55625 v -1.32291 h 2.77812 2.77813 v 1.32291 1.32292 h -2.77813 -2.77812 z m 11.1125,0 v -1.32291 h 2.77812 2.77813 v 1.32291 1.32292 h -2.77813 -2.77812 z m 8.20208,-8.202079 v -1.322917 h -1.32292 -1.32291 V 95.646875 94.191667 H 150.68021 149.225 V 92.86875 91.545834 h -1.32292 -1.32291 V 90.222917 88.9 h -1.45521 -1.45521 v -1.455208 -1.455209 h -1.32292 -1.32291 V 84.666667 83.34375 H 139.7 138.37708 v -1.455208 -1.455209 h -1.4552 -1.45521 V 79.110416 77.7875 h 1.45521 1.4552 v 1.322916 1.322917 h 1.32292 1.32292 v 1.455209 1.455208 h 1.32291 1.32292 v 1.322917 1.322916 h 1.45521 1.45521 V 87.444792 88.9 h 1.32291 1.32292 v 1.322917 1.322917 h 1.45521 1.45521 v 1.322916 1.322917 h 1.32291 1.32292 v 1.455208 1.455209 h 1.45521 1.45521 v 1.322917 1.322916 h -1.45521 -1.45521 z"
       id="path10" /><path
       style="fill:#ae861b"
       d="m 94.191666,128.71979 v -1.45521 h 1.322916 1.322917 v -1.32291 -1.32292 h 1.455208 1.455209 v -1.32292 -1.32291 h 1.322914 1.32292 v -1.45521 -1.45521 h 1.45521 1.45521 v -1.32292 -1.32291 h 1.32291 1.32292 v -1.45521 -1.45521 h 1.32292 1.32291 v 1.45521 1.45521 H 109.27292 107.95 v 1.32291 1.32292 h -1.32292 -1.32291 v 1.45521 1.45521 h -1.45521 -1.45521 v 1.32291 1.32292 h -1.32292 -1.322914 v 1.32292 1.32291 h -1.455209 -1.455208 v 1.45521 1.45521 h -1.322917 -1.322916 z m 63.500004,-16.53646 v -1.32291 h 1.32291 1.32292 v 1.32291 1.32292 h -1.32292 -1.32291 z"
       id="path9" /><path
       style="fill:#ad6518"
       d="m 132.82083,170.12709 v -1.32292 h 1.32292 1.32292 v 1.32292 1.32291 h -1.32292 -1.32292 z m 19.31459,0 v -1.32292 h 1.32291 1.32292 v 1.32292 1.32291 h -1.32292 -1.32291 z m 10.84791,-5.55625 v -1.32292 h 1.45521 1.45521 v -1.45521 -1.45521 h 1.32292 1.32292 v -1.32291 -1.32292 h 1.4552 1.45521 v -1.32292 -1.32291 h 1.32292 1.32292 v -1.45521 -1.45521 h 1.32291 1.32292 v 1.45521 1.45521 h -1.32292 -1.32291 v 1.32291 1.32292 H 172.77292 171.45 v 1.32292 1.32291 h -1.45521 -1.4552 v 1.45521 1.45521 h -1.32292 -1.32292 v 1.32292 1.32291 h -1.45521 -1.45521 z m -85.460415,-5.55625 v -1.32292 h 1.455208 1.455209 v -1.32292 -1.32291 h 1.322917 1.322916 v 1.32291 1.32292 h -1.322916 -1.322917 v 1.32292 1.32291 H 78.978123 77.522915 Z M 107.95,150.8125 v -1.32291 h 1.32292 1.32291 v 1.32291 1.32292 H 109.27292 107.95 Z m 68.79167,-2.77812 v -1.45521 h 1.45521 1.45521 v 1.45521 1.45521 h -1.45521 -1.45521 z m -71.4375,-2.77813 v -1.32291 h 1.32291 1.32292 v 1.32291 1.32292 h -1.32292 -1.32291 z m 10.84791,-2.77812 v -1.45521 h 1.45521 1.45521 v 1.45521 1.45521 h -1.45521 -1.45521 z m 63.50001,-6.87917 v -8.33438 h 1.32291 1.32292 v 8.33438 8.33438 H 180.975 179.65209 Z M 96.837499,139.7 v -1.32291 h 1.455208 1.455209 v 1.32291 1.32292 h -1.455209 -1.455208 z m 19.314581,-16.40417 v -1.32291 h 1.45521 1.45521 v 1.32291 1.32292 h -1.45521 -1.45521 z m 57.94376,-5.55625 v -1.32291 H 172.77292 171.45 v -1.45521 -1.45521 h -1.45521 -1.4552 v -1.32292 -1.32291 h -1.32292 -1.32292 V 109.40521 107.95 h -1.45521 -1.45521 v -1.32292 -1.32291 h -1.32291 -1.32292 v -1.32292 -1.32292 h -1.32292 -1.32291 v -1.4552 -1.455213 h 1.32291 1.32292 v 1.455213 1.4552 h 1.32292 1.32291 v 1.32292 1.32292 h 1.45521 1.45521 v 1.32291 1.32292 h 1.32292 1.32292 v 1.45521 1.45521 h 1.4552 1.45521 v 1.32291 1.32292 h 1.32292 1.32292 v 1.45521 1.45521 h 1.32291 1.32292 v 1.32291 1.32292 h -1.32292 -1.32291 z m -44.18542,-8.33437 V 107.95 h 2.77812 2.77813 v 1.45521 1.45521 h -2.77813 -2.77812 z m 22.225,0 V 107.95 h 1.32291 1.32292 v 1.45521 1.45521 h -1.32292 -1.32291 z m -11.1125,-2.77813 v -1.32291 h 2.77812 2.77813 v 1.32291 1.32292 h -2.77813 -2.77812 z"
       id="path8" /><path
       style="fill:#0061a2"
       d="m 135.46667,139.7 v -1.32291 h -1.32292 -1.32292 v -1.32292 -1.32292 h -1.4552 -1.45521 v -2.77812 -2.77813 h 1.45521 1.4552 v -2.77812 -2.77813 h 1.32292 1.32292 v -1.32292 -1.32291 h 6.87916 6.87917 v 1.32291 1.32292 h 1.45521 1.45521 v 1.32292 1.32291 h 1.32291 1.32292 v 4.23334 4.23333 h -1.32292 -1.32291 v 1.32292 1.32292 h -1.45521 -1.45521 v 1.32291 1.32292 h -6.87917 -6.87916 z m 8.20208,-5.42396 v -1.4552 h 1.45521 1.45521 v -4.10105 -4.10104 h -5.55625 -5.55625 v 5.55625 5.55625 h 4.10104 4.10104 z"
       id="path7" /><path
       style="fill:#905114"
       d="m 124.61875,167.34896 v -1.45521 h 1.32292 1.32291 v 1.45521 1.45521 h -1.32291 -1.32292 z m -8.46667,-5.55625 v -1.45521 h 1.45521 1.45521 v 1.45521 1.45521 h -1.45521 -1.45521 z m -43.920832,-2.77812 v -1.32292 H 70.77604 69.320831 v -1.32292 -1.32291 h 1.455209 1.455208 v 1.32291 1.32292 h 1.322917 1.322917 v 1.32292 1.32291 h -1.322917 -1.322917 z m 38.364582,-2.64584 v -1.32291 h 1.45521 1.45521 v 1.32291 1.32292 h -1.45521 -1.45521 z m -27.516665,-2.77812 v -1.45521 h 1.455209 1.455208 v -1.32292 -1.32291 h 1.322917 1.322916 v -1.45521 -1.45521 h 1.455209 1.455208 v -1.32292 -1.32291 h 1.322917 1.322917 v -1.45521 -1.45521 h 1.322916 1.322917 v 1.45521 1.45521 h -1.322917 -1.322916 v 1.32291 1.32292 h -1.322917 -1.322917 v 1.45521 1.45521 h -1.455208 -1.455209 v 1.32291 1.32292 h -1.322916 -1.322917 v 1.45521 1.45521 h -1.455208 -1.455209 z m 35.983335,-8.33438 v -1.32291 h 1.32292 1.32291 v 1.32291 1.32292 h -1.32291 -1.32292 z M 102.39375,139.7 v -1.32291 h 1.45521 1.45521 v 1.32291 1.32292 h -1.45521 -1.45521 z m 66.14584,-10.98021 v -1.45521 h 1.4552 1.45521 v 1.45521 1.45521 h -1.45521 -1.4552 z m -52.38751,-2.77812 v -1.32292 h 1.45521 1.45521 v 1.32292 1.32291 h -1.45521 -1.45521 z m 49.74167,-2.64584 v -1.32291 h 1.32292 1.32292 v 1.32291 1.32292 h -1.32292 -1.32292 z m -46.83125,-2.77812 v -1.45521 h 1.32292 1.32291 v -1.32292 -1.32291 h 1.45521 1.45521 v -1.45521 -1.45521 h 1.32292 1.32291 v -1.32292 -1.32291 h 1.32292 1.32292 v 1.32291 1.32292 h -1.32292 -1.32292 v 1.45521 1.45521 h -1.32291 -1.32292 v 1.32291 1.32292 h -1.45521 -1.45521 v 1.45521 1.45521 h -1.32291 -1.32292 z M 88.635415,109.40521 V 107.95 h 12.435415 12.43542 v 1.45521 1.45521 H 101.07083 88.635415 Z m 71.702085,-8.20208 v -1.455213 h -1.32292 -1.32291 v -1.322916 -1.322917 h -1.45521 -1.45521 v -1.455209 -1.455208 h -1.32292 -1.32291 V 92.86875 91.545834 H 150.68021 149.225 V 90.222917 88.9 h -1.32292 -1.32291 v -1.455208 -1.455209 h -1.45521 -1.45521 V 84.666667 83.34375 h -1.32292 -1.32291 V 81.888542 80.433333 H 139.7 138.37708 V 79.110416 77.7875 h -1.4552 -1.45521 v -1.455209 -1.455208 h 1.45521 1.4552 v 1.455208 1.455209 h 1.32292 1.32292 v 1.322916 1.322917 h 1.32291 1.32292 v 1.455209 1.455208 h 1.45521 1.45521 v 1.322917 1.322916 h 1.32291 1.32292 V 87.444792 88.9 h 1.45521 1.45521 v 1.322917 1.322917 h 1.32291 1.32292 v 1.322916 1.322917 h 1.45521 1.45521 v 1.455208 1.455209 h 1.32291 1.32292 v 1.322917 1.322916 h 1.32292 1.32291 v 1.455213 1.4552 h -1.32291 -1.32292 z"
       id="path6" /><path
       style="fill:#7b480f"
       d="m 129.91042,170.12709 v -1.32292 h 1.45521 1.4552 v 1.32292 1.32291 h -1.4552 -1.45521 z m 24.87083,0 v -1.32292 h 1.45521 1.45521 v 1.32292 1.32291 h -1.45521 -1.45521 z m 5.55625,-2.77813 v -1.45521 h 1.32292 1.32291 v 1.45521 1.45521 h -1.32291 -1.32292 z m -41.275,-2.77812 v -1.32292 h 1.32292 1.32291 v 1.32292 1.32291 h -1.32291 -1.32292 z m 46.83125,0 v -1.32292 h 1.32292 1.32292 v -1.45521 -1.45521 h 1.4552 1.45521 v -1.32291 -1.32292 h 1.32292 1.32292 v -1.32292 -1.32291 h 1.32291 1.32292 v 1.32291 1.32292 h -1.32292 -1.32291 v 1.32292 1.32291 H 172.77292 171.45 v 1.45521 1.45521 h -1.45521 -1.4552 v 1.32292 1.32291 h -1.32292 -1.32292 z m -52.3875,-5.55625 v -1.32292 h 1.32292 1.32291 v 1.32292 1.32291 h -1.32291 -1.32292 z M 107.95,153.59063 v -1.45521 h 1.32292 1.32291 v 1.45521 1.45521 H 109.27292 107.95 Z m 16.66875,-2.77813 v -1.32291 h -1.45521 -1.45521 v -1.45521 -1.45521 h 1.45521 1.45521 v 1.45521 1.45521 h 1.32292 1.32291 v 1.32291 1.32292 h -1.32291 -1.32292 z m 52.12292,0 v -1.32291 h 1.45521 1.45521 v 1.32291 1.32292 h -1.45521 -1.45521 z m -71.4375,-2.77812 v -1.45521 h 1.32291 1.32292 v 1.45521 1.45521 h -1.32292 -1.32291 z m 74.34792,-2.77813 v -1.32291 h 1.32291 1.32292 v 1.32291 1.32292 H 180.975 179.65209 Z M 116.15208,139.7 v -1.32291 h 1.45521 1.45521 v 1.32291 1.32292 h -1.45521 -1.45521 z m 52.38751,0 v -1.32291 h 1.4552 1.45521 v 1.32291 1.32292 h -1.45521 -1.4552 z m -49.47709,-5.42396 v -1.4552 h 1.32292 1.32291 v 1.4552 1.45521 h -1.32291 -1.32292 z m 46.83125,0 v -1.4552 h 1.32292 1.32292 v 1.4552 1.45521 h -1.32292 -1.32292 z m -49.74167,-5.55625 v -1.45521 h 1.45521 1.45521 v 1.45521 1.45521 h -1.45521 -1.45521 z m 63.50001,-2.77812 v -1.32292 h 1.32291 1.32292 v 1.32292 1.32291 h -1.32292 -1.32291 z m -2.91042,-5.42396 v -1.45521 h 1.45521 1.45521 v 1.45521 1.45521 h -1.45521 -1.45521 z m -41.275,-11.1125 V 107.95 h 1.45521 1.4552 v 1.45521 1.45521 h -1.4552 -1.45521 z m 13.75833,0 V 107.95 h 1.45521 1.45521 v 1.45521 1.45521 H 150.68021 149.225 Z M 85.989582,98.425001 v -1.322917 h 6.879167 6.879167 v 1.322917 1.322916 h -6.879167 -6.879167 z"
       id="path5" /><path
       style="fill:#552c06"
       d="M 138.37708,172.77292 V 171.45 h 8.20209 8.20208 v 1.32292 1.32292 h -8.20208 -8.20209 z m 19.31459,-2.64583 v -1.32292 h 1.32291 1.32292 v 1.32292 1.32291 h -1.32292 -1.32291 z m -35.98334,-2.77813 v -1.45521 h 1.45521 1.45521 v 1.45521 1.45521 h -1.45521 -1.45521 z m -41.274998,-8.33437 v -1.32292 h 1.322917 1.322916 v -1.32292 -1.32291 h 1.455209 1.455208 v -1.45521 -1.45521 h 1.322917 1.322916 v -1.32292 -1.32291 h 1.455209 1.455208 v -1.45521 -1.45521 h 1.322917 1.322917 v -1.32292 -1.32291 h 1.322916 1.322917 v -1.45521 -1.45521 h 1.455208 1.455209 V 139.7 138.37709 h 1.322914 1.32292 v -1.32292 -1.32292 h 1.45521 1.45521 v 1.32292 1.32292 h -1.45521 -1.45521 v 1.32291 1.32292 h 1.45521 1.45521 v 1.45521 1.45521 h -1.45521 -1.45521 v -1.45521 -1.45521 h -1.32292 -1.322914 v 1.45521 1.45521 h -1.455209 -1.455208 v 1.32291 1.32292 h -1.322917 -1.322916 v 1.45521 1.45521 h -1.322917 -1.322917 v 1.32291 1.32292 h -1.455208 -1.455209 v 1.45521 1.45521 h -1.322916 -1.322917 v 1.32291 1.32292 h -1.455208 -1.455209 v 1.32292 1.32291 h -1.322916 -1.322917 z m 52.387498,-2.64584 v -1.32291 h 1.32292 1.32292 v 1.32291 1.32292 h -1.32292 -1.32292 z m 19.31459,0 v -1.32291 h 1.32291 1.32292 v 1.32291 1.32292 h -1.32292 -1.32291 z m 27.51667,-8.33437 v -1.45521 h 1.32291 1.32292 v 1.45521 1.45521 h -1.32292 -1.32291 z m 5.55625,-2.77813 v -1.32291 h -1.45521 -1.45521 v -9.6573 -9.65729 h -1.32292 -1.32291 v -1.32292 -1.32291 h 1.32291 1.32292 v -1.45521 -1.45521 h -1.32292 -1.32291 v -1.32292 -1.32291 h 1.32291 1.32292 v 1.32291 1.32292 h 1.45521 1.45521 v 1.45521 1.45521 h -1.45521 -1.45521 v 1.32291 1.32292 h 2.77812 2.77813 v 1.32292 1.32291 h -1.32292 -1.32291 v 8.33438 8.33438 h 1.32291 1.32292 v 1.32291 1.32292 h -1.32292 -1.32291 z m -63.50001,-2.77812 v -1.45521 h 1.45521 1.45521 v 1.45521 1.45521 h -1.45521 -1.45521 z m 41.275,0 v -1.45521 h 1.45521 1.45521 v 1.45521 1.45521 h -1.45521 -1.45521 z m -43.92083,-5.42396 v -1.32292 h 1.32292 1.32291 v 1.32292 1.32292 h -1.32291 -1.32292 z m 46.83125,0 v -1.32292 h 1.32292 1.32292 v 1.32292 1.32292 h -1.32292 -1.32292 z M 119.0625,131.49792 V 130.175 h 1.32292 1.32291 v 1.32292 1.32292 h -1.32291 -1.32292 z m 46.83125,0 V 130.175 h 1.32292 1.32292 v 1.32292 1.32292 h -1.32292 -1.32292 z m -44.18542,-5.55625 v -1.32292 h 1.45521 1.45521 v 1.32292 1.32291 h -1.45521 -1.45521 z m 41.275,0 v -1.32292 h 1.45521 1.45521 v 1.32292 1.32291 h -1.45521 -1.45521 z m 0,-5.42396 v -1.45521 h -1.32291 -1.32292 v -1.32292 -1.32291 h 1.32292 1.32291 v 1.32291 1.32292 h 1.45521 1.45521 v 1.45521 1.45521 h -1.45521 -1.45521 z m 11.11251,-5.55625 v -1.45521 H 172.77292 171.45 v -1.32292 -1.32291 h -1.45521 -1.4552 V 109.40521 107.95 h -1.32292 -1.32292 v -1.32292 -1.32291 h -1.45521 -1.45521 v -1.32292 -1.32292 h 1.45521 1.45521 v 1.32292 1.32292 h 1.32292 1.32292 v 1.32291 1.32292 h 1.4552 1.45521 v 1.45521 1.45521 h 1.32292 1.32292 v 1.32291 1.32292 h 1.32291 1.32292 v 1.45521 1.45521 h -1.32292 -1.32291 z M 107.95,112.18333 v -1.32291 h 1.32292 1.32291 v 1.32291 1.32292 H 109.27292 107.95 Z m 21.96042,0 v -1.32291 h 1.45521 1.4552 v 1.32291 1.32292 h -1.4552 -1.45521 z m 24.87083,0 v -1.32291 h 1.45521 1.45521 v 1.32291 1.32292 h -1.45521 -1.45521 z m -16.40417,-2.77812 V 107.95 h 1.32292 1.32292 v 1.45521 1.45521 H 139.7 138.37708 Z m 8.20209,0 V 107.95 h 1.32291 1.32292 v 1.45521 1.45521 h -1.32292 -1.32291 z m -63.500005,-8.20208 v -1.455213 h 1.455209 1.455208 v 1.455213 1.4552 h -1.455208 -1.455209 z m 16.668751,-2.778129 v -1.322917 h 19.314584 19.31458 v -1.455209 -1.455208 h 1.32292 1.32292 v 1.455208 1.455209 h 1.32291 1.32292 v 1.322917 1.322916 H 121.70833 99.747916 Z M 154.78125,92.86875 v -1.322916 h 1.45521 1.45521 v 1.322916 1.322917 h -1.45521 -1.45521 z M 124.61875,80.565625 V 77.7875 h 1.32292 1.32291 v -1.455209 -1.455208 h 1.32292 1.32292 V 73.554166 72.23125 h 2.77812 2.77813 v 1.322916 1.322917 h -2.77813 -2.77812 v 1.455208 1.455209 h -1.32292 -1.32292 v 2.778125 2.778125 h -1.32291 -1.32292 z"
       id="path4" /><path
       style="fill:#003056"
       d="m 132.82083,142.47813 v -1.45521 h -1.4552 -1.45521 V 139.7 138.37709 h -1.32292 -1.32292 v -5.55625 -5.55626 h 1.32292 1.32292 v -1.32291 -1.32292 h 1.45521 1.4552 v -1.32292 -1.32291 h 1.32292 1.32292 v -1.45521 -1.45521 h 6.87916 6.87917 v 1.45521 1.45521 h 2.77813 2.77812 v 1.32291 1.32292 h 1.45521 1.45521 v 6.87917 6.87917 h -1.45521 -1.45521 v 1.32291 1.32292 h -1.32292 -1.32291 v 1.45521 1.45521 h -9.65729 -9.6573 z M 149.225,139.7 v -1.32291 h 1.45521 1.45521 v -1.32292 -1.32292 h 1.32291 1.32292 v -4.23333 -4.23334 h -1.32292 -1.32291 v -1.32291 -1.32292 h -1.45521 -1.45521 v -1.32292 -1.32291 h -6.87917 -6.87916 v 1.32291 1.32292 h -1.32292 -1.32292 v 2.77813 2.77812 h -1.4552 -1.45521 v 2.77813 2.77812 h 1.45521 1.4552 v 1.32292 1.32292 h 1.32292 1.32292 v 1.32291 1.32292 h 6.87916 6.87917 z"
       id="path3" /><path
       style="fill:#2d1601"
       d="m 132.82083,175.55105 v -1.45521 h -1.4552 -1.45521 V 172.77292 171.45 h -1.32292 -1.32292 v -1.32291 -1.32292 h 1.32292 1.32292 v 1.32292 1.32291 h 4.23333 4.23333 v 1.32292 1.32292 h -1.4552 -1.45521 v 1.45521 1.4552 h -1.32292 -1.32292 z m 21.96042,0 v -1.45521 h 1.45521 1.45521 v 1.45521 1.4552 h -1.45521 -1.45521 z m 5.55625,-2.77813 V 171.45 h 1.32292 1.32291 v 1.32292 1.32292 h -1.32291 -1.32292 z m 5.55625,-2.64583 v -1.32292 h -1.45521 -1.45521 v -1.45521 -1.45521 h 1.45521 1.45521 v 1.45521 1.45521 h 1.32292 1.32292 v 1.32292 1.32291 h -1.32292 -1.32292 z m -49.74167,-5.55625 v -1.32292 h -1.32291 -1.32292 v -1.45521 -1.45521 h -1.45521 -1.45521 v -1.32291 -1.32292 H 109.27292 107.95 v -1.32292 -1.32291 h 1.32292 1.32291 v 1.32291 1.32292 h 1.45521 1.45521 v 1.32292 1.32291 h 1.32292 1.32291 v 1.45521 1.45521 h 1.45521 1.45521 v 1.32292 1.32291 h -1.45521 -1.45521 z m -49.477082,-9.6573 v -2.77812 h 1.322917 1.322916 v -1.32292 -1.32291 h 1.455209 1.455208 v -1.45521 -1.45521 h 1.322917 1.322917 v -1.32292 -1.32291 h 1.322916 1.322917 v -1.45521 -1.45521 h 1.455208 1.455209 V 139.7 138.37709 h 1.322917 1.322916 v -1.32292 -1.32292 h 1.455209 1.455208 v -1.45521 -1.4552 h 1.322917 1.322916 v -1.32292 -1.32292 h 1.455209 1.455208 v -1.45521 -1.45521 h 1.322917 1.322917 v -1.32291 -1.32292 h 1.322916 1.322917 v -1.32292 -1.32291 h 1.455208 1.455209 v -1.45521 -1.45521 h 1.322914 1.32292 v -1.32292 -1.32291 h 1.45521 1.45521 v -2.77813 -2.77812 h 1.32291 1.32292 v 2.77812 2.77813 h -1.32292 -1.32291 v 1.32291 1.32292 h -1.45521 -1.45521 v 1.45521 1.45521 h -1.32292 -1.322914 v 1.32291 1.32292 h -1.455209 -1.455208 v 1.32292 1.32291 h -1.322917 -1.322916 v 1.45521 1.45521 h -1.322917 -1.322917 v 1.32292 1.32292 h -1.455208 -1.455209 v 1.4552 1.45521 h -1.322916 -1.322917 v 1.32292 1.32292 h -1.455208 -1.455209 v 1.32291 1.32292 h -1.322916 -1.322917 v 1.45521 1.45521 h -1.455209 -1.455208 v 1.32291 1.32292 h -1.322917 -1.322916 v 1.45521 1.45521 h -1.322917 -1.322917 v 1.32291 1.32292 H 70.77604 69.320831 v 2.77812 2.77813 h -1.322916 -1.322917 z m 112.977092,1.45521 v -1.32291 h -1.45521 -1.45521 v -1.45521 -1.45521 h 1.45521 1.45521 v 1.45521 1.45521 h 1.32291 1.32292 v 1.32291 1.32292 h -1.32292 -1.32291 z m -74.34792,-5.55625 v -1.32291 h 1.32291 1.32292 v 1.32291 1.32292 h -1.32292 -1.32291 z m 76.99375,0 v -1.32291 h 1.45521 1.45521 v 1.32291 1.32292 h -1.45521 -1.45521 z m -79.90417,-5.55625 v -1.32291 h 1.45521 1.45521 v 1.32291 1.32292 h -1.45521 -1.45521 z m 16.66875,-2.77812 v -1.45521 h 1.32292 1.32291 v 1.45521 1.45521 h -1.32291 -1.32292 z m 66.14584,0 v -1.45521 h 1.32291 1.32292 v 1.45521 1.45521 h -1.32292 -1.32291 z M 119.0625,128.71979 v -1.45521 h 1.32292 1.32291 v 1.45521 1.45521 h -1.32291 -1.32292 z m 0,-5.42396 v -1.32291 h 1.32292 1.32291 v -1.45521 -1.45521 h 1.45521 1.45521 v -1.32292 -1.32291 h 1.32292 1.32291 v -1.45521 -1.45521 h 1.32292 1.32292 v 1.45521 1.45521 h -1.32292 -1.32292 v 1.32291 1.32292 h -1.32291 -1.32292 v 1.45521 1.45521 h -1.45521 -1.45521 v 1.32291 1.32292 h -1.32291 -1.32292 z m 57.67917,-5.55625 v -1.32291 h 1.45521 1.45521 v 1.32291 1.32292 h -1.45521 -1.45521 z m -19.05,-2.77812 v -1.45521 h 1.32291 1.32292 v 1.45521 1.45521 h -1.32292 -1.32291 z m -24.87084,-2.77813 v -1.32291 h 1.32292 1.32292 v 1.32291 1.32292 h -1.32292 -1.32292 z m 19.31459,0 v -1.32291 h 1.32291 1.32292 v 1.32291 1.32292 h -1.32292 -1.32291 z m -11.1125,-2.77812 V 107.95 h 2.77812 2.77813 v 1.45521 1.45521 h -2.77813 -2.77812 z m -57.943755,-4.10104 v -2.64584 h 1.455209 1.455208 v 2.64584 2.64583 H 84.534374 83.079165 Z M 135.46667,92.86875 v -1.322916 h -1.32292 -1.32292 V 90.222917 88.9 h -1.4552 -1.45521 v -1.455208 -1.455209 h -1.32292 -1.32292 V 84.666667 83.34375 h 1.32292 1.32292 v 1.322917 1.322916 h 1.45521 1.4552 V 87.444792 88.9 h 1.32292 1.32292 v 1.322917 1.322917 h 1.45521 1.4552 v 1.322916 1.322917 h -1.4552 -1.45521 z m 8.20208,-10.980208 v -1.455209 h -1.32292 -1.32291 V 79.110416 77.7875 H 139.7 138.37708 v -1.455209 -1.455208 h -1.4552 -1.45521 V 73.554166 72.23125 h 1.45521 1.4552 v 1.322916 1.322917 h 1.32292 1.32292 v 1.455208 1.455209 h 1.32291 1.32292 v 1.322916 1.322917 h 1.45521 1.45521 v 1.455209 1.455208 h -1.45521 -1.45521 z"
       id="path2" /><path
       style="fill:#0c0401"
       d="m 135.46667,175.55105 v -1.45521 h 9.65729 9.65729 V 172.77292 171.45 h 2.77813 2.77812 v -1.32291 -1.32292 h 2.77813 2.77812 v -1.45521 -1.45521 h 1.32292 1.32292 v -1.32291 -1.32292 h 1.4552 1.45521 v -1.45521 -1.45521 h 1.32292 1.32292 v -1.32291 -1.32292 h 1.32291 1.32292 v -1.32292 -1.32291 h 1.45521 1.45521 v -2.77813 -2.77812 h 1.32291 1.32292 v -2.77813 -2.77812 h 1.45521 1.45521 v 2.77812 2.77813 h -1.45521 -1.45521 v 2.77812 2.77813 h -1.32292 -1.32291 v 2.64583 2.64583 h -1.45521 -1.45521 v 1.45521 1.45521 h -1.32292 -1.32291 v 1.32292 1.32291 H 172.77292 171.45 v 1.45521 1.45521 h -2.77812 -2.77813 v 1.32292 1.32291 h -2.77812 -2.77813 v 1.32292 1.32292 h -2.77812 -2.77813 v 1.45521 1.4552 h -9.65729 -9.65729 z m -8.20209,-2.77813 V 171.45 h -2.77812 -2.77813 v -1.32291 -1.32292 h -1.32291 -1.32292 v -1.45521 -1.45521 h 1.32292 1.32291 v 1.45521 1.45521 h 2.77813 2.77812 v 1.32292 1.32291 h 1.32292 1.32292 v 1.32292 1.32292 h -1.32292 -1.32292 z M 72.231248,161.79271 V 160.3375 H 70.77604 69.320831 v -1.32291 -1.32292 h 1.455209 1.455208 v 1.32292 1.32291 h 5.423959 5.423958 v -1.32291 -1.32292 h 1.455209 1.455208 v -1.32292 -1.32291 h 1.322917 1.322916 v -1.45521 -1.45521 h 1.455209 1.455208 v -1.32292 -1.32291 h 1.322917 1.322917 v -1.45521 -1.45521 h 1.322916 1.322917 v -1.32292 -1.32291 h 1.455208 1.455209 v -1.45521 -1.45521 h 1.322914 1.32292 v 1.45521 1.45521 h -1.32292 -1.322914 v 1.32291 1.32292 h -1.455209 -1.455208 v 1.45521 1.45521 h -1.322917 -1.322916 v 1.32291 1.32292 h -1.322917 -1.322917 v 1.45521 1.45521 h -1.455208 -1.455209 v 1.32291 1.32292 h -1.322916 -1.322917 v 1.32292 1.32291 h -1.455208 -1.455209 v 1.45521 1.45521 h -5.423958 -5.423959 z m 63.235422,-5.42396 v -1.32291 h -2.77813 -2.77812 v -1.45521 -1.45521 h -1.32292 -1.32292 v -1.32292 -1.32291 h -1.32291 -1.32292 v -1.45521 -1.45521 h -1.45521 -1.45521 v -1.32292 -1.32291 h 1.45521 1.45521 v 1.32291 1.32292 h 1.32292 1.32291 v 1.45521 1.45521 h 1.32292 1.32292 v 1.32291 1.32292 h 2.77812 2.77813 v 1.45521 1.45521 h 8.33437 8.33438 v -1.45521 -1.45521 h 2.77812 2.77813 v -1.32292 -1.32291 h 1.32291 1.32292 v -1.45521 -1.45521 h 1.32292 1.32291 v -1.32292 -1.32291 h 1.45521 1.45521 v -2.77813 -2.77812 h 1.32292 1.32292 v -4.10105 -4.10104 h -1.32292 -1.32292 v -2.77812 -2.77813 h -1.45521 -1.45521 v -1.32292 -1.32291 h -1.32291 -1.32292 v -1.45521 -1.45521 h -1.32292 -1.32291 v -1.32292 -1.32291 h -2.77813 -2.77812 v -1.45521 -1.45521 h -8.33438 -8.33437 v 1.45521 1.45521 h -2.77813 -2.77812 v 1.32291 1.32292 h -1.32292 -1.32292 v 1.45521 1.45521 h -1.32291 -1.32292 v 1.32291 1.32292 h -1.45521 -1.45521 v 1.32292 1.32291 h -1.32291 -1.32292 v -1.32291 -1.32292 h 1.32292 1.32291 v -1.32292 -1.32291 h 1.45521 1.45521 v -1.45521 -1.45521 h 1.32292 1.32291 v -1.32292 -1.32291 h 1.32292 1.32292 v -1.45521 -1.45521 h 2.77812 2.77813 v -1.32292 -1.32291 h 8.33437 8.33438 v 1.32291 1.32292 h 2.77812 2.77813 v 1.45521 1.45521 h 1.32291 1.32292 v 1.32291 1.32292 h 1.32292 1.32291 v 1.45521 1.45521 h 1.45521 1.45521 v 1.32291 1.32292 h 1.32292 1.32292 v 2.77813 2.77812 h 1.4552 1.45521 v 4.10104 4.10105 h -1.45521 -1.4552 v 4.10104 4.10104 h -1.32292 -1.32292 v 1.45521 1.45521 h -1.45521 -1.45521 v 1.32291 1.32292 h -1.32291 -1.32292 v 1.45521 1.45521 h -4.10104 -4.10104 v 1.32291 1.32292 h -8.33438 -8.33437 z m 0,-8.33437 v -1.45521 h -1.32292 -1.32292 v -1.32292 -1.32291 h -1.4552 -1.45521 v -1.45521 -1.45521 h -1.32292 -1.32292 V 139.7 138.37709 h 1.32292 1.32292 v 1.32291 1.32292 h 1.45521 1.4552 v 1.45521 1.45521 h 9.6573 9.65729 v -1.45521 -1.45521 h 1.32291 1.32292 V 139.7 138.37709 h 1.45521 1.45521 v -5.55625 -5.55626 h 1.32291 1.32292 v 6.87917 6.87917 h -1.32292 -1.32291 v 1.45521 1.45521 h -1.45521 -1.45521 v 1.32291 1.32292 h -1.32292 -1.32291 v 1.45521 1.45521 h -8.33438 -8.33437 z M 119.0625,139.7 v -1.32291 h -1.45521 -1.45521 v -4.10105 -4.10104 h 1.45521 1.45521 v 4.10104 4.10105 h 1.32292 1.32291 v 1.32291 1.32292 h -1.32291 -1.32292 z m 66.14584,-5.55625 v -6.87917 h 1.32291 1.32292 v 6.87917 6.87917 h -1.32292 -1.32291 z m -2.91042,-10.84792 v -1.32291 h -1.32292 -1.32291 v -1.45521 -1.45521 h 1.32291 1.32292 v 1.45521 1.45521 h 1.45521 1.45521 v 1.32291 1.32292 h -1.45521 -1.45521 z M 149.225,120.51771 v -1.45521 h 1.45521 1.45521 v 1.45521 1.45521 h -1.45521 -1.45521 z m 27.51667,-5.55625 v -1.45521 h -1.32292 -1.32291 v -1.32292 -1.32291 H 172.77292 171.45 V 109.40521 107.95 h -1.45521 -1.4552 v -1.32292 -1.32291 h -1.32292 -1.32292 v -1.32292 -1.32292 h -1.45521 -1.45521 v -1.4552 -1.455213 h -1.32291 -1.32292 v -1.322916 -1.322917 h -1.32292 -1.32291 v -1.455209 -1.455208 h 1.32291 1.32292 v 1.455208 1.455209 h 1.32292 1.32291 v 1.322917 1.322916 h 1.45521 1.45521 v 1.455213 1.4552 h 1.32292 1.32292 v 1.32292 1.32292 h 1.4552 1.45521 v 1.32291 1.32292 h 1.32292 1.32292 v 1.45521 1.45521 h 1.32291 1.32292 v 1.32291 1.32292 h 1.45521 1.45521 v 1.45521 1.45521 h -1.45521 -1.45521 z m -90.752088,-2.77813 v -1.32291 H 84.534374 83.079165 V 109.40521 107.95 h 1.455209 1.455208 v 1.45521 1.45521 h 9.657292 9.657296 v 1.32291 1.32292 H 95.646874 85.989582 Z M 152.13542,90.222917 V 88.9 h -1.45521 -1.45521 v -1.455208 -1.455209 h -1.32292 -1.32291 V 84.666667 83.34375 h 1.32291 1.32292 v 1.322917 1.322916 h 1.45521 1.45521 V 87.444792 88.9 h 1.32291 1.32292 v 1.322917 1.322917 h -1.32292 -1.32291 z"
       id="path1" /></g></svg>
