<?xml version="1.0" encoding="UTF-8" standalone="no"?>
<!-- Created with Inkscape (http://www.inkscape.org/) -->

<svg
   width="256mm"
   height="256mm"
   viewBox="0 0 256 256"
   version="1.1"
   id="svg1"
   inkscape:version="1.4.2 (ebf0e940d0, 2025-05-08)"
   sodipodi:docname="btop-01.svg"
   xmlns:inkscape="http://www.inkscape.org/namespaces/inkscape"
   xmlns:sodipodi="http://sodipodi.sourceforge.net/DTD/sodipodi-0.dtd"
   xmlns="http://www.w3.org/2000/svg"
   xmlns:svg="http://www.w3.org/2000/svg"
   xmlns:rdf="http://www.w3.org/1999/02/22-rdf-syntax-ns#"
   xmlns:cc="http://creativecommons.org/ns#">
  <sodipodi:namedview
     id="namedview1"
     pagecolor="#ffffff"
     bordercolor="#000000"
     borderopacity="0.25"
     inkscape:showpageshadow="2"
     inkscape:pageopacity="0.0"
     inkscape:pagecheckerboard="0"
     inkscape:deskcolor="#d1d1d1"
     inkscape:document-units="mm"
     inkscape:zoom="0.90898636"
     inkscape:cx="490.10636"
     inkscape:cy="529.71092"
     inkscape:current-layer="svg1" />
  <defs
     id="defs1">
    <pattern
       id="red-stripes"
       width="341"
       height="90"
       patternUnits="userSpaceOnUse">
      <rect
         width="341"
         height="16"
         fill="#f00"
         id="rect1" />
      <rect
         y="16"
         width="341"
         height="16"
         fill="#d70000"
         id="rect2" />
      <rect
         y="32"
         width="341"
         height="16"
         fill="#af0000"
         id="rect3" />
      <rect
         y="48"
         width="341"
         height="16"
         fill="#870000"
         id="rect4" />
      <rect
         y="64"
         width="341"
         height="16"
         fill="#5f0000"
         id="rect5" />
    </pattern>
    <pattern
       id="pattern10"
       width="341"
       height="90"
       patternUnits="userSpaceOnUse">
      <rect
         width="341"
         height="16"
         fill="#f00"
         id="rect6" />
      <rect
         y="16"
         width="341"
         height="16"
         fill="#d70000"
         id="rect7" />
      <rect
         y="32"
         width="341"
         height="16"
         fill="#af0000"
         id="rect8" />
      <rect
         y="48"
         width="341"
         height="16"
         fill="#870000"
         id="rect9" />
      <rect
         y="64"
         width="341"
         height="16"
         fill="#5f0000"
         id="rect10" />
    </pattern>
    <pattern
       id="pattern15"
       width="341"
       height="90"
       patternUnits="userSpaceOnUse">
      <rect
         width="341"
         height="16"
         fill="#f00"
         id="rect11" />
      <rect
         y="16"
         width="341"
         height="16"
         fill="#d70000"
         id="rect12" />
      <rect
         y="32"
         width="341"
         height="16"
         fill="#af0000"
         id="rect13" />
      <rect
         y="48"
         width="341"
         height="16"
         fill="#870000"
         id="rect14" />
      <rect
         y="64"
         width="341"
         height="16"
         fill="#5f0000"
         id="rect15" />
    </pattern>
    <pattern
       id="pattern20"
       width="341"
       height="90"
       patternUnits="userSpaceOnUse">
      <rect
         width="341"
         height="16"
         fill="#f00"
         id="rect16" />
      <rect
         y="16"
         width="341"
         height="16"
         fill="#d70000"
         id="rect17" />
      <rect
         y="32"
         width="341"
         height="16"
         fill="#af0000"
         id="rect18" />
      <rect
         y="48"
         width="341"
         height="16"
         fill="#870000"
         id="rect19" />
      <rect
         y="64"
         width="341"
         height="16"
         fill="#5f0000"
         id="rect20" />
    </pattern>
    <pattern
       id="pattern25"
       width="341"
       height="90"
       patternUnits="userSpaceOnUse">
      <rect
         width="341"
         height="16"
         fill="#f00"
         id="rect21" />
      <rect
         y="16"
         width="341"
         height="16"
         fill="#d70000"
         id="rect22" />
      <rect
         y="32"
         width="341"
         height="16"
         fill="#af0000"
         id="rect23" />
      <rect
         y="48"
         width="341"
         height="16"
         fill="#870000"
         id="rect24" />
      <rect
         y="64"
         width="341"
         height="16"
         fill="#5f0000"
         id="rect25" />
    </pattern>
    <pattern
       id="pattern30"
       width="341"
       height="90"
       patternUnits="userSpaceOnUse">
      <rect
         width="341"
         height="16"
         fill="#f00"
         id="rect26" />
      <rect
         y="16"
         width="341"
         height="16"
         fill="#d70000"
         id="rect27" />
      <rect
         y="32"
         width="341"
         height="16"
         fill="#af0000"
         id="rect28" />
      <rect
         y="48"
         width="341"
         height="16"
         fill="#870000"
         id="rect29" />
      <rect
         y="64"
         width="341"
         height="16"
         fill="#5f0000"
         id="rect30" />
    </pattern>
    <pattern
       id="pattern35"
       width="341"
       height="90"
       patternUnits="userSpaceOnUse">
      <rect
         width="341"
         height="16"
         fill="#f00"
         id="rect31" />
      <rect
         y="16"
         width="341"
         height="16"
         fill="#d70000"
         id="rect32" />
      <rect
         y="32"
         width="341"
         height="16"
         fill="#af0000"
         id="rect33" />
      <rect
         y="48"
         width="341"
         height="16"
         fill="#870000"
         id="rect34" />
      <rect
         y="64"
         width="341"
         height="16"
         fill="#5f0000"
         id="rect35" />
    </pattern>
    <pattern
       id="gray-stripes"
       width="341"
       height="90"
       patternUnits="userSpaceOnUse">
      <rect
         width="341"
         height="16"
         fill="#585858"
         id="rect36" />
      <rect
         y="16"
         width="341"
         height="16"
         fill="#4e4e4e"
         id="rect37" />
      <rect
         y="32"
         width="341"
         height="16"
         fill="#444"
         id="rect38" />
      <rect
         y="48"
         width="341"
         height="16"
         fill="#3a3a3a"
         id="rect39" />
      <rect
         y="64"
         width="341"
         height="16"
         fill="#303030"
         id="rect40" />
      <rect
         y="80"
         width="341"
         height="10"
         fill="#262626"
         id="rect41" />
    </pattern>
    <pattern
       id="pattern47"
       width="341"
       height="90"
       patternUnits="userSpaceOnUse">
      <rect
         width="341"
         height="16"
         fill="#585858"
         id="rect42" />
      <rect
         y="16"
         width="341"
         height="16"
         fill="#4e4e4e"
         id="rect43" />
      <rect
         y="32"
         width="341"
         height="16"
         fill="#444"
         id="rect44" />
      <rect
         y="48"
         width="341"
         height="16"
         fill="#3a3a3a"
         id="rect45" />
      <rect
         y="64"
         width="341"
         height="16"
         fill="#303030"
         id="rect46" />
      <rect
         y="80"
         width="341"
         height="10"
         fill="#262626"
         id="rect47" />
    </pattern>
    <pattern
       id="pattern53"
       width="341"
       height="90"
       patternUnits="userSpaceOnUse">
      <rect
         width="341"
         height="16"
         fill="#585858"
         id="rect48" />
      <rect
         y="16"
         width="341"
         height="16"
         fill="#4e4e4e"
         id="rect49" />
      <rect
         y="32"
         width="341"
         height="16"
         fill="#444"
         id="rect50" />
      <rect
         y="48"
         width="341"
         height="16"
         fill="#3a3a3a"
         id="rect51" />
      <rect
         y="64"
         width="341"
         height="16"
         fill="#303030"
         id="rect52" />
      <rect
         y="80"
         width="341"
         height="10"
         fill="#262626"
         id="rect53" />
    </pattern>
    <pattern
       id="pattern59"
       width="341"
       height="90"
       patternUnits="userSpaceOnUse">
      <rect
         width="341"
         height="16"
         fill="#585858"
         id="rect54" />
      <rect
         y="16"
         width="341"
         height="16"
         fill="#4e4e4e"
         id="rect55" />
      <rect
         y="32"
         width="341"
         height="16"
         fill="#444"
         id="rect56" />
      <rect
         y="48"
         width="341"
         height="16"
         fill="#3a3a3a"
         id="rect57" />
      <rect
         y="64"
         width="341"
         height="16"
         fill="#303030"
         id="rect58" />
      <rect
         y="80"
         width="341"
         height="10"
         fill="#262626"
         id="rect59" />
    </pattern>
    <pattern
       id="pattern65"
       width="341"
       height="90"
       patternUnits="userSpaceOnUse">
      <rect
         width="341"
         height="16"
         fill="#585858"
         id="rect60" />
      <rect
         y="16"
         width="341"
         height="16"
         fill="#4e4e4e"
         id="rect61" />
      <rect
         y="32"
         width="341"
         height="16"
         fill="#444"
         id="rect62" />
      <rect
         y="48"
         width="341"
         height="16"
         fill="#3a3a3a"
         id="rect63" />
      <rect
         y="64"
         width="341"
         height="16"
         fill="#303030"
         id="rect64" />
      <rect
         y="80"
         width="341"
         height="10"
         fill="#262626"
         id="rect65" />
    </pattern>
    <pattern
       id="pattern71"
       width="341"
       height="90"
       patternUnits="userSpaceOnUse">
      <rect
         width="341"
         height="16"
         fill="#585858"
         id="rect66" />
      <rect
         y="16"
         width="341"
         height="16"
         fill="#4e4e4e"
         id="rect67" />
      <rect
         y="32"
         width="341"
         height="16"
         fill="#444"
         id="rect68" />
      <rect
         y="48"
         width="341"
         height="16"
         fill="#3a3a3a"
         id="rect69" />
      <rect
         y="64"
         width="341"
         height="16"
         fill="#303030"
         id="rect70" />
      <rect
         y="80"
         width="341"
         height="10"
         fill="#262626"
         id="rect71" />
    </pattern>
    <pattern
       id="pattern77"
       width="341"
       height="90"
       patternUnits="userSpaceOnUse">
      <rect
         width="341"
         height="16"
         fill="#585858"
         id="rect72" />
      <rect
         y="16"
         width="341"
         height="16"
         fill="#4e4e4e"
         id="rect73" />
      <rect
         y="32"
         width="341"
         height="16"
         fill="#444"
         id="rect74" />
      <rect
         y="48"
         width="341"
         height="16"
         fill="#3a3a3a"
         id="rect75" />
      <rect
         y="64"
         width="341"
         height="16"
         fill="#303030"
         id="rect76" />
      <rect
         y="80"
         width="341"
         height="10"
         fill="#262626"
         id="rect77" />
    </pattern>
  </defs>
  <metadata
     id="metadata1">
    <rdf:RDF>
      <cc:License
         rdf:about="http://creativecommons.org/publicdomain/zero/1.0/">
        <cc:permits
           rdf:resource="http://creativecommons.org/ns#Reproduction" />
        <cc:permits
           rdf:resource="http://creativecommons.org/ns#Distribution" />
        <cc:permits
           rdf:resource="http://creativecommons.org/ns#DerivativeWorks" />
      </cc:License>
      <cc:Work
         rdf:about="">
        <cc:license
           rdf:resource="http://creativecommons.org/publicdomain/zero/1.0/" />
      </cc:Work>
    </rdf:RDF>
  </metadata>
  <g
     fill="#080808"
     id="g16"
     transform="matrix(0.74515607,0,0,0.74515607,1.4570962,88.298387)">
    <path
       d="M 2,7 V 90 H 47 V 74 h 7 V 55 H 47 V 42 h 7 V 23 H 47 V 7 Z M 19,26 H 37 V 39 H 19 Z m 0,32 H 37 V 71 H 19 Z"
       id="path11" />
    <path
       d="M 58,7 V 26 H 79 V 90 H 96 V 26 h 21 V 7 Z"
       id="path12" />
    <path
       d="m 128,7 v 16 h -7 v 51 h 7 v 16 h 45 V 74 h 7 V 23 h -7 V 7 Z m 10,19 h 25 v 45 h -25 z"
       id="path13" />
    <path
       d="m 184,7 v 83 h 17 V 58 h 28 V 42 h 7 V 23 h -7 V 7 Z m 17,19 h 18 v 13 h -18 z"
       id="path14" />
    <path
       d="m 261,23 v 16 h -14 v 19 h 14 v 16 h 17 V 58 h 14 V 39 H 278 V 23 Z"
       id="path15" />
    <path
       d="m 310,23 v 16 h -14 v 19 h 14 v 16 h 17 V 58 h 14 V 39 H 327 V 23 Z"
       id="path16" />
  </g>
  <g
     fill="url(#gray-stripes)"
     id="g22"
     transform="matrix(0.74515607,0,0,0.74515607,1.4570962,88.298387)">
    <path
       d="M 2,7 V 90 H 47 V 74 h 7 V 55 H 47 V 42 h 7 V 23 H 47 V 7 Z m 1,1 h 43 v 16 h 7 v 17 h -7 v 15 h 7 V 73 H 46 V 89 H 3 Z M 18,25 H 38 V 40 H 18 Z m 1,1 V 39 H 37 V 26 Z M 18,57 H 38 V 72 H 18 Z m 1,1 V 71 H 37 V 58 Z M 4,9 V 88 H 45 V 72 h 7 V 57 H 45 V 40 h 7 V 25 H 45 V 9 Z m 1,1 h 39 v 16 h 7 v 13 h -7 v 19 h 7 V 71 H 44 V 87 H 5 Z M 16,23 H 40 V 42 H 16 Z m 1,1 V 41 H 39 V 24 Z M 16,55 H 40 V 74 H 16 Z m 1,1 V 73 H 39 V 56 Z"
       id="path17" />
    <path
       d="M 58,7 V 26 H 79 V 90 H 96 V 26 h 21 V 7 Z m 1,1 h 57 V 25 H 95 V 89 H 80 V 25 H 59 Z m 1,1 V 24 H 81 V 88 H 94 V 24 h 21 V 9 Z m 1,1 h 53 V 23 H 93 V 87 H 82 V 23 H 61 Z"
       id="path18" />
    <path
       d="m 128,7 v 16 h -7 v 51 h 7 v 16 h 45 V 74 h 7 V 23 h -7 V 7 Z m 1,1 h 43 v 16 h 7 v 49 h -7 V 89 H 129 V 73 h -7 V 24 h 7 z m 9,18 v 45 h 25 V 26 Z m -1,-1 h 27 V 72 H 137 Z M 130,9 v 16 h -7 v 47 h 7 v 16 h 41 V 72 h 7 V 25 h -7 V 9 Z m 1,1 h 39 v 16 h 7 v 45 h -7 V 87 H 131 V 71 h -7 V 26 h 7 z m 5,14 v 49 h 29 V 24 Z m -1,-1 h 31 v 51 h -31 z"
       id="path19" />
    <path
       d="m 184,7 v 83 h 17 V 58 h 28 V 42 h 7 V 23 h -7 V 7 Z m 1,1 h 43 v 16 h 7 v 17 h -7 v 16 h -28 v 32 h -15 z m 16,18 v 13 h 18 V 26 Z m -1,-1 h 20 V 40 H 200 Z M 186,9 v 79 h 13 V 56 h 28 V 40 h 7 V 25 h -7 V 9 Z m 1,1 h 39 v 16 h 7 v 13 h -7 v 16 h -28 v 32 h -11 z m 12,14 v 17 h 22 V 24 Z m -1,-1 h 24 v 19 h -24 z"
       id="path20" />
    <path
       d="m 261,23 v 16 h -14 v 19 h 14 v 16 h 17 V 58 h 14 V 39 H 278 V 23 Z m 1,1 h 15 v 16 h 14 V 57 H 277 V 73 H 262 V 57 H 248 V 40 h 14 z m 1,1 v 16 h -14 v 15 h 14 v 16 h 13 V 56 h 14 V 41 H 276 V 25 Z m 1,1 h 11 v 16 h 14 V 55 H 275 V 71 H 264 V 55 H 250 V 42 h 14 z"
       id="path21" />
    <path
       d="m 310,23 v 16 h -14 v 19 h 14 v 16 h 17 V 58 h 14 V 39 H 327 V 23 Z m 1,1 h 15 v 16 h 14 V 57 H 326 V 73 H 311 V 57 H 297 V 40 h 14 z m 1,1 v 16 h -14 v 15 h 14 v 16 h 13 V 56 h 14 V 41 H 325 V 25 Z m 1,1 h 11 v 16 h 14 V 55 H 324 V 71 H 313 V 55 H 299 V 42 h 14 z"
       id="path22" />
  </g>
  <g
     fill="url(#red-stripes)"
     id="g28"
     transform="matrix(0.74515607,0,0,0.74515607,1.4570962,88.298387)">
    <path
       d="M 0,0 V 80 H 42 V 64 h 7 V 48 H 42 V 32 h 7 V 16 H 42 V 0 Z M 14,16 H 35 V 32 H 14 Z m 0,32 H 35 V 64 H 14 Z"
       id="path23" />
    <path
       d="M 56,0 V 16 H 77 V 80 H 91 V 16 h 21 V 0 Z"
       id="path24" />
    <path
       d="m 126,0 v 16 h -7 v 48 h 7 v 16 h 42 V 64 h 7 V 16 h -7 V 0 Z m 7,16 h 28 v 48 h -28 z"
       id="path25" />
    <path
       d="m 182,0 v 80 h 14 V 48 h 28 V 32 h 7 V 16 h -7 V 0 Z m 14,16 h 21 v 16 h -21 z"
       id="path26" />
    <path
       d="m 259,16 v 16 h -14 v 16 h 14 v 16 h 14 V 48 h 14 V 32 H 273 V 16 Z"
       id="path27" />
    <path
       d="m 308,16 v 16 h -14 v 16 h 14 v 16 h 14 V 48 h 14 V 32 H 322 V 16 Z"
       id="path28" />
  </g>
  <path
     style="font-size:4.23333px;stroke-width:11.4672;stroke-linecap:round;stroke-linejoin:round"
     d="m 10.284727,171.43327 v 4.57815 H 9.0386056 v -4.53751 q 0,-1.07681 -0.419888,-1.61184 -0.419891,-0.53502 -1.2596685,-0.53502 -1.0090874,0 -1.5915148,0.64337 -0.5824245,0.64338 -0.5824245,1.75407 v 4.28693 H 3.9322134 v -10.53786 h 1.2528964 v 4.13115 q 0.4469775,-0.684 1.0497208,-1.02261 0.6095168,-0.33864 1.401889,-0.33864 1.3070709,0 1.9775399,0.81269 0.6704675,0.80592 0.6704675,2.37712 z m 3.71805,-5.16057 v 2.15361 h 2.566742 v 0.96846 h -2.566742 v 4.11762 q 0,0.92783 0.250575,1.19193 0.257357,0.26408 1.036175,0.26408 h 1.279992 v 1.04296 h -1.279992 q -1.442518,0 -1.991085,-0.53504 -0.548562,-0.5418 -0.548562,-1.964 v -4.11762 h -0.914276 v -0.96846 h 0.914276 v -2.15361 z m 5.438234,0 v 2.15361 h 2.566738 v 0.96846 h -2.566738 v 4.11762 q 0,0.92783 0.250575,1.19193 0.257353,0.26408 1.036176,0.26408 h 1.279987 v 1.04296 h -1.279987 q -1.44251,0 -1.991076,-0.53504 -0.548566,-0.5418 -0.548566,-1.964 v -4.11762 h -0.914276 v -0.96846 h 0.914276 v -2.15361 z m 5.411148,8.60095 v 4.0228 h -1.252891 v -10.47014 h 1.252891 v 1.15131 q 0.392807,-0.67722 0.988774,-1.00231 0.602745,-0.33185 1.435746,-0.33185 1.381582,0 2.241665,1.09714 0.866876,1.09712 0.866876,2.88504 0,1.7879 -0.866876,2.88504 -0.860083,1.09712 -2.241665,1.09712 -0.833001,0 -1.435746,-0.32501 -0.595967,-0.33183 -0.988774,-1.00908 z m 4.239532,-2.64801 q 0,-1.37481 -0.568885,-2.15361 -0.562107,-0.78562 -1.550881,-0.78562 -0.988774,0 -1.557645,0.78562 -0.562121,0.7788 -0.562121,2.15361 0,1.37479 0.562121,2.16039 0.568871,0.77882 1.557645,0.77882 0.988774,0 1.550881,-0.77882 0.568885,-0.7856 0.568885,-2.16039 z m 8.194601,-3.57582 v 1.17838 q -0.528247,-0.27097 -1.097118,-0.40633 -0.568899,-0.13527 -1.178407,-0.13527 -0.927832,0 -1.395094,0.28439 -0.460527,0.28439 -0.460527,0.85329 0,0.43346 0.331822,0.68404 0.331865,0.24376 1.334166,0.46727 l 0.426682,0.0946 q 1.327374,0.28439 1.882717,0.80592 0.562093,0.51472 0.562093,1.44254 0,1.05649 -0.839765,1.67278 -0.833001,0.61628 -2.295829,0.61628 -0.609537,0 -1.273224,-0.12191 -0.656909,-0.11502 -1.388359,-0.35214 v -1.28675 q 0.690783,0.35892 1.361263,0.54177 0.670464,0.17594 1.327374,0.17594 0.880431,0 1.354513,-0.29782 0.474054,-0.3047 0.474054,-0.85332 0,-0.5079 -0.345392,-0.77882 -0.338614,-0.27095 -1.496702,-0.52147 l -0.433431,-0.10152 q -1.158088,-0.24376 -1.672766,-0.74495 -0.51472,-0.50793 -0.51472,-1.38835 0,-1.07002 0.758504,-1.65246 0.758517,-0.58244 2.153611,-0.58244 0.690798,0 1.300321,0.10152 0.609508,0.10153 1.124214,0.3047 z m 2.708956,5.64139 h 1.428982 v 1.72021 h -1.428982 z m 0,-5.45179 h 1.428982 v 1.72021 h -1.428982 z m 6.56925,-2.93921 h 1.151311 l -3.521652,11.39796 h -1.151311 z m 4.672935,0 h 1.15131 l -3.521652,11.39796 H 47.71578 Z m 7.449638,6.2306 q 0,-1.35447 -0.562093,-2.09942 -0.555343,-0.74498 -1.564422,-0.74498 -1.002344,0 -1.564423,0.74498 -0.555343,0.74495 -0.555343,2.09942 0,1.34773 0.555343,2.09268 0.562079,0.74498 1.564423,0.74498 1.009079,0 1.564422,-0.74498 0.562093,-0.74495 0.562093,-2.09268 z m 1.246127,2.93925 q 0,1.93688 -0.860083,2.87824 -0.860098,0.94815 -2.634472,0.94815 -0.65691,0 -1.23935,-0.10152 -0.58244,-0.0946 -1.130992,-0.29815 v -1.21229 q 0.548552,0.29783 1.083577,0.44022 0.535039,0.14216 1.090383,0.14216 1.225779,0 1.835302,-0.64338 0.609508,-0.63659 0.609508,-1.93014 v -0.61627 q -0.386015,0.67044 -0.988774,1.0023 -0.602716,0.33187 -1.44251,0.33187 -1.395108,0 -2.248428,-1.06329 -0.853334,-1.06327 -0.853334,-2.81733 0,-1.76081 0.853334,-2.82409 0.85332,-1.06327 2.248428,-1.06327 0.839794,0 1.44251,0.33187 0.602759,0.33182 0.988774,1.0023 v -1.15131 h 1.246127 z m 2.566753,-6.64375 h 1.246127 v 7.58511 h -1.246127 z m 0,-2.95275 h 1.246127 v 1.57796 h -1.246127 z m 5.086089,0.79914 v 2.15361 h 2.566723 v 0.96846 H 67.58604 v 4.11762 q 0,0.92783 0.250632,1.19193 0.257526,0.26408 1.03619,0.26408 h 1.279959 v 1.04296 h -1.279959 q -1.442552,0 -1.991118,-0.53504 -0.548552,-0.5418 -0.548552,-1.964 V 169.3947 H 65.41893 v -0.96846 h 0.914262 v -2.15361 z m 10.510763,5.16057 v 4.57815 h -1.246127 v -4.53751 q 0,-1.07681 -0.419904,-1.61184 -0.419889,-0.53502 -1.259654,-0.53502 -1.009079,0 -1.591519,0.64337 -0.58244,0.64338 -0.58244,1.75407 v 4.28693 h -1.252877 v -10.53786 h 1.252877 v 4.13115 q 0.447,-0.684 1.049745,-1.02261 0.609494,-0.33864 1.401886,-0.33864 1.30707,0 1.977534,0.81269 0.670479,0.80592 0.670479,2.37712 z m 2.356772,1.58475 v -4.59171 h 1.246127 v 4.5443 q 0,1.0768 0.419904,1.61858 0.419861,0.53504 1.259654,0.53504 1.009093,0 1.591534,-0.64339 0.589175,-0.64338 0.589175,-1.75405 v -4.30048 h 1.246127 v 7.58511 h -1.246127 v -1.16487 q -0.453735,0.69079 -1.056495,1.0294 -0.595967,0.33185 -1.388345,0.33185 -1.307069,0 -1.984297,-0.81269 -0.677257,-0.81267 -0.677257,-2.37709 z m 14.364295,-0.79238 q 0,-1.37481 -0.568913,-2.15361 -0.562093,-0.78562 -1.550867,-0.78562 -0.98876,0 -1.557674,0.78562 -0.562093,0.7788 -0.562093,2.15361 0,1.37479 0.562093,2.16039 0.568914,0.77882 1.557674,0.77882 0.988774,0 1.550867,-0.77882 0.568913,-0.7856 0.568913,-2.16039 z m -4.239547,-2.64802 q 0.392808,-0.67722 0.988775,-1.00231 0.602759,-0.33185 1.43576,-0.33185 1.381539,0 2.241651,1.09714 0.866861,1.09712 0.866861,2.88504 0,1.7879 -0.866861,2.88504 -0.860112,1.09712 -2.241651,1.09712 -0.833001,0 -1.43576,-0.32501 -0.595967,-0.33183 -0.988775,-1.00908 v 1.13778 h -1.252905 v -10.53786 h 1.252905 z m 7.774726,4.71359 h 1.428983 v 1.72021 h -1.428983 z m 9.691321,-5.57367 v 1.16484 q -0.52825,-0.29126 -1.06327,-0.43342 -0.52825,-0.14908 -1.07007,-0.14908 -1.21224,0 -1.88272,0.77207 -0.67048,0.7653 -0.67048,2.15362 0,1.38835 0.67048,2.16038 0.67048,0.7653 1.88272,0.7653 0.54182,0 1.07007,-0.14216 0.53502,-0.14908 1.06327,-0.44022 v 1.15131 q -0.5215,0.24377 -1.08359,0.36571 -0.55535,0.12191 -1.18519,0.12191 -1.7134,0 -2.72248,-1.07681 -1.00912,-1.0768 -1.00912,-2.90537 0,-1.85562 1.01587,-2.9189 1.02265,-1.06328 2.79702,-1.06328 0.57565,0 1.12422,0.12192 0.54855,0.11502 1.06327,0.35217 z m 5.10636,0.58241 q -1.0023,0 -1.58474,0.7856 -0.58241,0.77882 -0.58241,2.14009 0,1.36125 0.57566,2.14686 0.5824,0.77881 1.59152,0.77881 0.99552,0 1.57795,-0.7856 0.58244,-0.7856 0.58244,-2.14007 0,-1.34771 -0.58244,-2.13331 -0.58243,-0.79238 -1.57798,-0.79238 z m 0,-1.05649 q 1.6254,0 2.5532,1.05649 0.92782,1.05648 0.92782,2.92569 0,1.8624 -0.92782,2.92567 -0.9278,1.05649 -2.5532,1.05649 -1.63215,0 -2.55994,-1.05649 -0.92106,-1.06327 -0.92106,-2.92567 0,-1.86921 0.92106,-2.92569 0.92779,-1.05649 2.55994,-1.05649 z m 11.45215,1.63892 q 0.46728,-0.83975 1.11744,-1.23934 0.65016,-0.39958 1.53058,-0.39958 1.18515,0 1.82854,0.83301 0.64338,0.82623 0.64338,2.3568 v 4.57815 h -1.25289 v -4.53751 q 0,-1.09038 -0.38605,-1.61863 -0.38601,-0.52823 -1.17838,-0.52823 -0.96845,0 -1.53057,0.64337 -0.56209,0.64338 -0.56209,1.75407 v 4.28693 h -1.25291 v -4.53751 q 0,-1.09713 -0.38603,-1.61863 -0.38601,-0.52823 -1.19193,-0.52823 -0.95493,0 -1.51701,0.65014 -0.56214,0.64339 -0.56214,1.7473 v 4.28693 h -1.25287 v -7.58511 h 1.25287 v 1.1784 q 0.42669,-0.69757 1.02265,-1.0294 0.59597,-0.33185 1.41543,-0.33185 0.82622,0 1.40189,0.41989 0.58242,0.4199 0.86009,1.21903 z m 9.81998,-3.98217 h 1.15131 l -3.52165,11.39796 h -1.15131 z m 5.90554,6.29833 q -1.51027,0 -2.09267,0.34539 -0.58244,0.34539 -0.58244,1.17841 0,0.66369 0.43343,1.05648 0.44021,0.38603 1.19193,0.38603 1.03618,0 1.65924,-0.73142 0.62986,-0.73819 0.62986,-1.95722 v -0.27784 z m 2.48547,-0.51469 v 4.32757 h -1.24612 v -1.15131 q -0.42668,0.69078 -1.06329,1.02262 -0.63659,0.32501 -1.55763,0.32501 -1.16488,0 -1.85563,-0.65016 -0.68404,-0.6569 -0.68404,-1.75402 0,-1.28 0.85332,-1.93016 0.86011,-0.65014 2.55999,-0.65014 h 1.74728 v -0.12191 q 0,-0.8601 -0.56889,-1.32737 -0.56212,-0.4741 -1.58472,-0.4741 -0.65016,0 -1.26645,0.15596 -0.61631,0.15563 -1.18519,0.46728 v -1.15131 q 0.68401,-0.26408 1.32738,-0.39281 0.64338,-0.13527 1.25292,-0.13527 1.64567,0 2.45836,0.85332 0.81271,0.85334 0.81271,2.58709 z m 6.96202,-2.09267 q -0.21001,-0.12191 -0.46053,-0.17626 -0.24375,-0.0609 -0.54177,-0.0609 -1.0565,0 -1.62537,0.69078 -0.56212,0.68401 -0.56212,1.97076 v 3.99575 h -1.25288 v -7.58512 h 1.25288 v 1.17841 q 0.39279,-0.69079 1.02265,-1.02262 0.62981,-0.33865 1.53055,-0.33865 0.1288,0 0.28437,0.0197 0.15563,0.0129 0.3454,0.0475 z m 1.30707,-1.16487 h 1.24612 v 7.58511 h -1.24612 z m 0,-2.95275 h 1.24612 v 1.57796 h -1.24612 z m 8.68901,3.17626 v 1.17838 q -0.52824,-0.27097 -1.09711,-0.40633 -0.56887,-0.13527 -1.17841,-0.13527 -0.92783,0 -1.39514,0.28439 -0.46053,0.28439 -0.46053,0.85329 0,0.43346 0.33187,0.68404 0.33182,0.24376 1.33419,0.46727 l 0.42666,0.0946 q 1.32737,0.28439 1.88271,0.80592 0.56213,0.51472 0.56213,1.44254 0,1.05649 -0.8398,1.67278 -0.83297,0.61628 -2.29587,0.61628 -0.60949,0 -1.27322,-0.12191 -0.65691,-0.11502 -1.38832,-0.35214 v -1.28675 q 0.69078,0.35892 1.36126,0.54177 0.67047,0.17594 1.32741,0.17594 0.88043,0 1.35448,-0.29782 0.47405,-0.3047 0.47405,-0.85332 0,-0.5079 -0.34539,-0.77882 -0.33861,-0.27095 -1.4967,-0.52147 l -0.43346,-0.10152 q -1.15806,-0.24376 -1.67278,-0.74495 -0.51472,-0.50793 -0.51472,-1.38835 0,-1.07002 0.75855,-1.65246 0.7585,-0.58244 2.15364,-0.58244 0.69078,0 1.30029,0.10152 0.60954,0.10153 1.12421,0.3047 z m 3.62325,-2.37712 v 2.15361 h 2.56674 v 0.96846 h -2.56674 v 4.11762 q 0,0.92783 0.25065,1.19193 0.25752,0.26408 1.03617,0.26408 h 1.27998 v 1.04296 h -1.27998 q -1.44251,0 -1.9911,-0.53504 -0.54855,-0.5418 -0.54855,-1.964 v -4.11762 h -0.91428 v -0.96846 h 0.91428 v -2.15361 z m 7.14488,3.02725 q -1.00231,0 -1.58474,0.7856 -0.58241,0.77882 -0.58241,2.14009 0,1.36125 0.57566,2.14686 0.5824,0.77881 1.59149,0.77881 0.99556,0 1.57798,-0.7856 0.58241,-0.7856 0.58241,-2.14007 0,-1.34771 -0.58241,-2.13331 -0.58242,-0.79238 -1.57798,-0.79238 z m 0,-1.05649 q 1.6254,0 2.55319,1.05649 0.92783,1.05648 0.92783,2.92569 0,1.8624 -0.92783,2.92567 -0.92779,1.05649 -2.55319,1.05649 -1.63215,0 -2.55994,-1.05649 -0.92106,-1.06327 -0.92106,-2.92567 0,-1.86921 0.92106,-2.92569 0.92779,-1.05649 2.55994,-1.05649 z m 11.00517,0.47408 v 1.16484 q -0.52825,-0.29126 -1.06327,-0.43342 -0.52825,-0.14908 -1.07004,-0.14908 -1.21228,0 -1.88274,0.77207 -0.67044,0.7653 -0.67044,2.15362 0,1.38835 0.67044,2.16038 0.67046,0.7653 1.88274,0.7653 0.54179,0 1.07004,-0.14216 0.53502,-0.14908 1.06327,-0.44022 v 1.15131 q -0.5215,0.24377 -1.08359,0.36571 -0.55535,0.12191 -1.18519,0.12191 -1.7134,0 -2.72248,-1.07681 -1.00909,-1.0768 -1.00909,-2.90537 0,-1.85562 1.01584,-2.9189 1.02265,-1.06328 2.79702,-1.06328 0.57565,0 1.12422,0.12192 0.54855,0.11502 1.06327,0.35217 z m 6.56243,0.87364 q -0.21001,-0.12191 -0.46053,-0.17626 -0.24375,-0.0609 -0.54177,-0.0609 -1.0565,0 -1.62537,0.69078 -0.56212,0.68401 -0.56212,1.97076 v 3.99575 h -1.2529 v -7.58512 h 1.2529 v 1.17841 q 0.39281,-0.69079 1.02265,-1.02262 0.62981,-0.33865 1.53055,-0.33865 0.1288,0 0.28439,0.0197 0.15562,0.0129 0.34539,0.0475 z m 4.75425,2.60736 q -1.51023,0 -2.09267,0.34539 -0.58244,0.34539 -0.58244,1.17841 0,0.66369 0.43343,1.05648 0.44021,0.38603 1.19197,0.38603 1.03614,0 1.65921,-0.73142 0.62985,-0.73819 0.62985,-1.95722 v -0.27784 z m 2.48548,-0.51469 v 4.32757 h -1.24613 v -1.15131 q -0.42665,0.69078 -1.06327,1.02262 -0.63661,0.32501 -1.55765,0.32501 -1.16485,0 -1.85563,-0.65016 -0.68404,-0.6569 -0.68404,-1.75402 0,-1.28 0.85332,-1.93016 0.86012,-0.65014 2.55999,-0.65014 h 1.74728 v -0.12191 q 0,-0.8601 -0.56887,-1.32737 -0.56213,-0.4741 -1.58474,-0.4741 -0.65016,0 -1.26645,0.15596 -0.61631,0.15563 -1.18518,0.46728 v -1.15131 q 0.684,-0.26408 1.32737,-0.39281 0.64341,-0.13527 1.25292,-0.13527 1.64567,0 2.45838,0.85332 0.8127,0.85334 0.8127,2.58709 z m 3.79932,-5.41115 v 2.15361 h 2.56673 v 0.96846 h -2.56673 v 4.11762 q 0,0.92783 0.25064,1.19193 0.25719,0.26408 1.03619,0.26408 h 1.27997 v 1.04296 h -1.27997 q -1.44256,0 -1.99111,-0.53504 -0.54856,-0.5418 -0.54856,-1.964 v -4.11762 h -0.91427 v -0.96846 h 0.91427 v -2.15361 z m 7.14487,3.02725 q -1.00233,0 -1.58474,0.7856 -0.58244,0.77882 -0.58244,2.14009 0,1.36125 0.57566,2.14686 0.58244,0.77881 1.59152,0.77881 0.99553,0 1.57795,-0.7856 0.58244,-0.7856 0.58244,-2.14007 0,-1.34771 -0.58244,-2.13331 -0.58242,-0.79238 -1.57795,-0.79238 z m 0,-1.05649 q 1.62537,0 2.5532,1.05649 0.92779,1.05648 0.92779,2.92569 0,1.8624 -0.92779,2.92567 -0.92783,1.05649 -2.5532,1.05649 -1.63214,0 -2.55997,-1.05649 -0.92106,-1.06327 -0.92106,-2.92567 0,-1.86921 0.92106,-2.92569 0.92783,-1.05649 2.55997,-1.05649 z m 10.3821,0.40636 v 1.17838 q -0.52824,-0.27097 -1.09714,-0.40633 -0.56887,-0.13527 -1.17838,-0.13527 -0.92783,0 -1.39514,0.28439 -0.46052,0.28439 -0.46052,0.85329 0,0.43346 0.33186,0.68404 0.33184,0.24376 1.33417,0.46727 l 0.42665,0.0946 q 1.3274,0.28439 1.88272,0.80592 0.56212,0.51472 0.56212,1.44254 0,1.05649 -0.83979,1.67278 -0.83298,0.61628 -2.29585,0.61628 -0.60949,0 -1.27318,-0.12191 -0.65694,-0.11502 -1.38836,-0.35214 v -1.28675 q 0.69078,0.35892 1.36126,0.54177 0.67047,0.17594 1.32738,0.17594 0.88043,0 1.35448,-0.29782 0.47409,-0.3047 0.47409,-0.85332 0,-0.5079 -0.3454,-0.77882 -0.33864,-0.27095 -1.4967,-0.52147 l -0.43343,-0.10152 q -1.15809,-0.24376 -1.67281,-0.74495 -0.51468,-0.50793 -0.51468,-1.38835 0,-1.07002 0.75851,-1.65246 0.75852,-0.58244 2.15361,-0.58244 0.69078,0 1.30029,0.10152 0.60954,0.10153 1.12424,0.3047 z m 4.60525,-2.74961 h 1.15131 l -3.52165,11.39796 h -1.15131 z m 7.90334,6.32543 q 0,-1.37481 -0.56887,-2.15361 -0.56209,-0.78562 -1.55087,-0.78562 -0.98876,0 -1.55767,0.78562 -0.56209,0.7788 -0.56209,2.15361 0,1.37479 0.56209,2.16039 0.56891,0.77882 1.55767,0.77882 0.98878,0 1.55087,-0.77882 0.56887,-0.7856 0.56887,-2.16039 z m -4.2395,-2.64802 q 0.39281,-0.67722 0.98877,-1.00231 0.60276,-0.33185 1.43573,-0.33185 1.38157,0 2.24168,1.09714 0.86687,1.09712 0.86687,2.88504 0,1.7879 -0.86687,2.88504 -0.86011,1.09712 -2.24168,1.09712 -0.83297,0 -1.43573,-0.32501 -0.59596,-0.33183 -0.98877,-1.00908 v 1.13778 h -1.25291 v -10.53786 h 1.25291 z m 8.83122,-3.30492 v 2.15361 h 2.56672 v 0.96846 h -2.56672 v 4.11762 q 0,0.92783 0.25063,1.19193 0.25753,0.26408 1.03619,0.26408 h 1.27997 v 1.04296 h -1.27997 q -1.44255,0 -1.9911,-0.53504 -0.54857,-0.5418 -0.54857,-1.964 v -4.11762 h -0.91426 v -0.96846 h 0.91426 v -2.15361 z m 7.1449,3.02725 q -1.00233,0 -1.58474,0.7856 -0.58243,0.77882 -0.58243,2.14009 0,1.36125 0.57565,2.14686 0.58244,0.77881 1.59152,0.77881 0.99552,0 1.57796,-0.7856 0.58244,-0.7856 0.58244,-2.14007 0,-1.34771 -0.58244,-2.13331 -0.58244,-0.79238 -1.57796,-0.79238 z m 0,-1.05649 q 1.62536,0 2.55319,1.05649 0.92781,1.05648 0.92781,2.92569 0,1.8624 -0.92781,2.92567 -0.92783,1.05649 -2.55319,1.05649 -1.63214,0 -2.55998,-1.05649 -0.92105,-1.06327 -0.92105,-2.92567 0,-1.86921 0.92105,-2.92569 0.92784,-1.05649 2.55998,-1.05649 z m 6.75207,6.63019 v 4.0228 h -1.25291 v -10.47014 h 1.25291 v 1.15131 q 0.3928,-0.67722 0.98878,-1.00231 0.60274,-0.33185 1.43576,-0.33185 1.38154,0 2.24165,1.09714 0.86685,1.09712 0.86685,2.88504 0,1.7879 -0.86685,2.88504 -0.86011,1.09712 -2.24165,1.09712 -0.83302,0 -1.43576,-0.32501 -0.59598,-0.33183 -0.98878,-1.00908 z m 4.23954,-2.64801 q 0,-1.37481 -0.56892,-2.15361 -0.56207,-0.78562 -1.55085,-0.78562 -0.98877,0 -1.55764,0.78562 -0.56213,0.7788 -0.56213,2.15361 0,1.37479 0.56213,2.16039 0.56887,0.77882 1.55764,0.77882 0.98878,0 1.55085,-0.77882 0.56892,-0.7856 0.56892,-2.16039 z"
     id="text1"
     aria-label="https://github.com/aristocratos/btop" />
</svg>
