<?xml version="1.0" encoding="UTF-8" standalone="no"?>
<!-- Created with Inkscape (http://www.inkscape.org/) -->

<svg
   width="256mm"
   height="256mm"
   viewBox="0 0 256 256"
   version="1.1"
   id="svg1"
   inkscape:version="1.4.2 (ebf0e940d0, 2025-05-08)"
   xml:space="preserve"
   sodipodi:docname="catfish.svg"
   xmlns:inkscape="http://www.inkscape.org/namespaces/inkscape"
   xmlns:sodipodi="http://sodipodi.sourceforge.net/DTD/sodipodi-0.dtd"
   xmlns:xlink="http://www.w3.org/1999/xlink"
   xmlns="http://www.w3.org/2000/svg"
   xmlns:svg="http://www.w3.org/2000/svg"
   xmlns:rdf="http://www.w3.org/1999/02/22-rdf-syntax-ns#"
   xmlns:cc="http://creativecommons.org/ns#"
   xmlns:dc="http://purl.org/dc/elements/1.1/"><defs
     id="defs1"><linearGradient
       id="linearGradient2"
       inkscape:collect="always"><stop
         style="stop-color:#cccccc;stop-opacity:0;"
         offset="0"
         id="stop2" /><stop
         style="stop-color:#000000;stop-opacity:0;"
         offset="0.68892556"
         id="stop4" /><stop
         style="stop-color:#535353;stop-opacity:0.86513156;"
         offset="1"
         id="stop3" /></linearGradient><linearGradient
       inkscape:collect="always"
       xlink:href="#linearGradient2"
       id="linearGradient3"
       x1="48.022564"
       y1="137.70473"
       x2="197.18123"
       y2="129.20026"
       gradientUnits="userSpaceOnUse" /><linearGradient
       id="k"
       y2="30.6"
       gradientUnits="userSpaceOnUse"
       x2="31.299999"
       y1="23.35"
       x1="27.01"><stop
         stop-color="#8a8a8a"
         offset="0"
         id="stop1" /><stop
         stop-color="#484848"
         offset="1"
         id="stop2-3" /></linearGradient><linearGradient
       id="SVGID_3_"
       y2="55.650002"
       gradientUnits="userSpaceOnUse"
       x2="-144.3"
       gradientTransform="matrix(1.335,0,0,-1.291,229.6,104.1)"
       y1="52.709999"
       x1="-146.89999"><stop
         stop-color="#7d7d7d"
         offset="0"
         id="stop3-6" /><stop
         stop-color="#b1b1b1"
         offset=".5"
         id="stop4-7" /><stop
         stop-color="#686868"
         offset="1"
         id="stop5" /></linearGradient><linearGradient
       id="c"
       y2="25.860001"
       gradientUnits="userSpaceOnUse"
       x2="17.83"
       y1="10.73"
       x1="18.809999"><stop
         stop-color="#fff"
         offset="0"
         id="stop6" /><stop
         stop-color="#fff"
         stop-opacity=".22"
         offset=".5"
         id="stop7" /><stop
         stop-color="#fff"
         offset="1"
         id="stop8" /></linearGradient><radialGradient
       id="r"
       gradientUnits="userSpaceOnUse"
       cy="81.5"
       cx="-171.7"
       gradientTransform="matrix(1.399,0,0,-1.399,259.5,136.2)"
       r="8.3100004"><stop
         stop-color="#729fcf"
         stop-opacity=".21"
         offset="0"
         id="stop9" /><stop
         stop-color="#729fcf"
         stop-opacity=".68"
         offset="1"
         id="stop10" /></radialGradient><radialGradient
       id="b"
       gradientUnits="userSpaceOnUse"
       cy="-511.60001"
       cx="-174.5"
       gradientTransform="matrix(1.446,0,0,-0.362,276.2,-145.1)"
       r="16.530001"><stop
         offset="0"
         id="stop11" /><stop
         stop-opacity="0"
         offset="1"
         id="stop12" /></radialGradient><radialGradient
       id="g"
       gradientUnits="userSpaceOnUse"
       cy="166.39999"
       cx="-296.79999"
       gradientTransform="matrix(2.593,0,0,-2.252,784.6,385.3)"
       r="6.6599998"><stop
         stop-color="#fff"
         offset="0"
         id="stop13" /><stop
         stop-color="#fff"
         stop-opacity=".25"
         offset="1"
         id="stop14" /></radialGradient><radialGradient
       id="s"
       gradientUnits="userSpaceOnUse"
       cy="-1674"
       cx="314.89999"
       gradientTransform="matrix(0.498,0,0,-0.145,-135.8,-204.1)"
       r="16.530001"><stop
         stop-color="#fff"
         offset="0"
         id="stop15" /><stop
         stop-color="#fff"
         stop-opacity="0"
         offset="1"
         id="stop16" /></radialGradient></defs><sodipodi:namedview
     id="base"
     pagecolor="#ffffff"
     bordercolor="#000000"
     borderopacity="0.3"
     inkscape:pageopacity="0.0"
     inkscape:pageshadow="2"
     inkscape:zoom="0.72112115"
     inkscape:cx="436.81981"
     inkscape:cy="547.06481"
     inkscape:document-units="mm"
     inkscape:showpageshadow="2"
     inkscape:pagecheckerboard="0"
     inkscape:deskcolor="#d1d1d1"
     inkscape:current-layer="svg1" /><metadata
     id="metadata1"><rdf:RDF><cc:Work
         rdf:about=""><dc:format>image/svg+xml</dc:format><dc:type
           rdf:resource="http://purl.org/dc/dcmitype/StillImage" /><cc:license
           rdf:resource="http://creativecommons.org/publicdomain/zero/1.0/" /></cc:Work><cc:License
         rdf:about="http://creativecommons.org/publicdomain/zero/1.0/"><cc:permits
           rdf:resource="http://creativecommons.org/ns#Reproduction" /><cc:permits
           rdf:resource="http://creativecommons.org/ns#Distribution" /><cc:permits
           rdf:resource="http://creativecommons.org/ns#DerivativeWorks" /></cc:License></rdf:RDF></metadata><g
     id="g1"
     inkscape:label="catfish"
     transform="matrix(1.3182088,0,0,1.3182088,-26.857065,-44.826736)"><path
       id="rect1"
       style="fill:#99cef7;fill-opacity:1;stroke:#cecece;stroke-width:0.7;stroke-linecap:round;stroke-linejoin:round"
       d="m 138.52827,67.846732 c 4.53749,-3.009752 37.87836,-2.74552 37.2429,0.219974 l 1.42769,13.707971 c 0,0 -13.52156,-4.687853 -8.58064,0.253791 9.88184,9.883288 28.27029,25.370682 28.21288,46.294452 -3.90573,29.35815 -25.25833,35.81729 -44.69569,44.79018 l -40.63244,10.58333 -19.087795,9.6384 6.898067,-40.25447 c 24.973748,11.44792 32.747698,10.3869 41.601008,10.11087 6.73119,-2.89344 13.02584,-6.47288 16.2766,-14.83557 C 139.36626,131.02962 121.20819,115.83782 100.89602,114.4323 84.138781,115.60884 62.916223,124.357 56.885417,107.34524 44.371073,93.939925 50.734426,89.395565 62.744048,87.501494 85.238994,63.684997 117.72902,62.123866 138.52827,67.846732 Z"
       sodipodi:nodetypes="cccsccccccccccc"
       inkscape:label="colorhead" /><path
       id="path2"
       style="fill:url(#linearGradient3);stroke:#cecece;stroke-width:0.7;stroke-linecap:round;stroke-linejoin:round"
       d="m 138.52827,67.846732 c 4.53749,-3.009752 37.87836,-2.74552 37.2429,0.219974 l 1.42769,13.707971 c 0,0 -13.52156,-4.687853 -8.58064,0.253791 9.88184,9.883288 28.27029,25.370682 28.21288,46.294452 -3.90573,29.35815 -25.25833,35.81729 -44.69569,44.79018 l -40.63244,10.58333 -19.087795,9.6384 6.898067,-40.25447 c 24.973748,11.44792 32.747698,10.3869 41.601008,10.11087 6.73119,-2.89344 13.02584,-6.47288 16.2766,-14.83557 C 139.36626,131.02962 121.20819,115.83782 100.89602,114.4323 84.138781,115.60884 62.916223,124.357 56.885417,107.34524 44.371073,93.939925 50.734426,89.395565 62.744048,87.501494 85.238994,63.684997 117.72902,62.123866 138.52827,67.846732 Z"
       sodipodi:nodetypes="cccsccccccccccc"
       inkscape:label="shadow" /><path
       style="fill:#000000"
       d="m 88.8315,197.78716 c -1.178767,-2.40484 -1.762452,-4.33212 -2.202145,-7.27132 -0.56306,-3.76386 -0.192973,-7.69034 1.203706,-12.77087 0.340303,-1.23788 2.358978,-7.89678 2.646919,-8.73125 0.125532,-0.3638 0.546176,-1.97115 0.934764,-3.57188 0.586121,-2.41443 0.70686,-3.51912 0.708498,-6.48229 0.0013,-2.35453 -0.133101,-4.06783 -0.394354,-5.02708 -0.508531,-1.86719 -1.7015,-5.01795 -2.066431,-5.45766 -0.543913,-0.65538 0.06143,-0.89234 2.279518,-0.89234 2.779519,0 6.644615,0.79039 9.654695,1.97435 4.54547,1.78786 6.91342,2.80782 12.17084,5.24243 1.0914,0.50541 3.29406,1.47936 4.89479,2.16435 1.60073,0.68498 3.2676,1.40289 3.70417,1.59535 0.66315,0.29234 4.03571,1.43715 7.40948,2.51511 5.14222,1.64302 12.88754,0.14269 17.71497,-3.43154 2.24021,-1.65864 4.57333,-4.52288 5.60837,-6.88505 0.6193,-1.41338 0.88488,-2.15455 0.88488,-2.46946 0,-0.18035 -1.20813,-1.32813 -2.68475,-2.55063 -1.47661,-1.22251 -5.13778,-4.37334 -8.13593,-7.00185 -7.45273,-6.53388 -12.8923,-10.91994 -13.1827,-10.62954 -0.0707,0.0707 0.0153,1.39469 0.19112,2.94212 0.57962,5.10029 -0.43522,9.0339 -2.93359,11.37083 -0.70252,0.65713 -1.50453,1.19478 -1.78224,1.19478 -0.72037,0 -6.16118,-5.69598 -6.9014,-7.22508 -1.7184,-3.54975 -1.72434,-7.39644 -0.0189,-12.2218 1.02306,-2.89459 1.17798,-2.58557 -1.89892,-3.78787 -4.12492,-1.6118 -4.78439,-1.80815 -9.61628,-2.86315 -2.91846,-0.63722 -13.926585,-0.70989 -14.519227,-0.0958 -0.210675,0.21828 -0.631675,1.24314 -0.935554,2.27748 -0.591984,2.01498 -0.753542,5.73943 -0.309799,7.14189 0.13349,0.4219 0.313804,1.09232 0.400698,1.48984 0.230115,1.0527 1.576782,2.46014 2.865691,2.99502 0.965524,0.40067 2.075795,0.46873 8.000281,0.4904 l 6.87916,0.0252 1.37266,0.72375 c 1.65972,0.8751 2.65059,2.10707 3.11711,3.87557 0.4445,1.685 0.20386,1.94962 -0.44807,0.49274 -1.49266,-3.33567 -4.18171,-4.18758 -13.03753,-4.1304 -2.805215,0.0181 -5.208213,-0.0914 -5.847017,-0.26646 -2.246859,-0.61573 -3.868779,-2.30332 -4.736773,-4.92854 -0.546274,-1.65218 -0.791379,-5.8534 -0.459713,-7.87968 0.13771,-0.84133 0.150027,-1.59171 0.02737,-1.66752 -0.122657,-0.0758 -0.908892,-0.0186 -1.74719,0.1271 -0.838297,0.14571 -2.655271,0.3984 -4.037719,0.56153 -3.810694,0.44967 -3.601934,0.35258 -4.201062,1.95389 -1.066797,2.85127 -0.966183,7.61857 0.211561,10.02419 1.165478,2.38057 3.082361,2.86841 10.883144,2.76975 4.591411,-0.0581 5.642202,0.003 6.948339,0.40708 2.021311,0.62457 3.22057,1.76111 3.88845,3.68508 0.8083,2.32849 0.64894,3.01348 -0.25464,1.09454 -0.91257,-1.938 -2.019199,-2.86249 -4.262095,-3.56055 -1.372041,-0.42703 -2.473725,-0.50539 -7.217999,-0.51337 -6.325215,-0.0106 -8.15045,-0.29762 -9.672552,-1.52074 -2.105678,-1.69208 -3.332102,-5.37125 -3.106006,-9.31775 0.0792,-1.38245 0.223191,-2.90515 0.319979,-3.38379 l 0.175978,-0.87024 -2.478944,0.0765 -2.478944,0.0765 -0.720409,1.49044 c -1.441058,2.98138 -1.602181,7.59489 -0.332971,9.53407 0.652114,0.99634 1.871736,1.68612 5.80655,3.28398 2.626014,1.06638 4.208827,2.65909 4.655086,4.68421 0.256901,1.16581 0.263695,1.60369 0.02853,1.83885 -0.235163,0.23516 -0.308664,0.16796 -0.308664,-0.28222 0,-0.94712 -1.204711,-3.06051 -2.28558,-4.00953 -0.548156,-0.48129 -1.776193,-1.22692 -2.728971,-1.65697 -5.345329,-2.41266 -6.095706,-2.92654 -6.737015,-4.61368 -0.98984,-2.60404 -1.198586,-5.75933 -0.556851,-8.41706 0.210824,-0.87313 0.387558,-1.66142 0.392742,-1.75175 0.0052,-0.0903 -0.83219,-0.24718 -1.860831,-0.34854 -1.02864,-0.10136 -2.769472,-0.41982 -3.868516,-0.70769 -1.099044,-0.28787 -2.028224,-0.48821 -2.064846,-0.44521 -0.334435,0.3927 -1.087634,2.22351 -1.495577,3.63532 -0.357603,1.23759 -0.502563,2.58875 -0.505968,4.71608 -0.0076,4.76035 0.476641,5.46269 5.492822,7.96633 1.484515,0.74094 3.106699,1.75475 3.604854,2.2529 1.044222,1.04422 1.76582,2.91953 1.76582,4.58906 0,1.43124 -0.395973,1.27336 -0.640373,-0.25533 -0.407044,-2.546 -2.080201,-4.30172 -6.106502,-6.40783 -4.279433,-2.23852 -4.803248,-2.93081 -5.589552,-7.38734 -0.39997,-2.26691 -0.417495,-2.91143 -0.133091,-4.89479 0.180143,-1.25627 0.522626,-3.02111 0.761074,-3.92186 l 0.433542,-1.63774 -1.202964,-1.28606 c -1.304486,-1.3946 -2.3388,-3.71473 -2.3388,-5.24628 0,-0.54211 -0.151074,-0.98239 -0.365288,-1.0646 -0.200908,-0.0771 -1.361768,0.0585 -2.579688,0.30128 -1.217919,0.2428 -3.047837,0.60038 -4.066483,0.79462 -7.982311,1.5221 -15.994899,4.36158 -18.563719,6.57857 -1.253789,1.08207 -2.206072,2.83889 -2.206072,4.06987 0,2.81496 3.24362,6.86335 9.285421,11.5892 3.431909,2.68442 3.616222,3.05213 3.940326,7.86105 0.261997,3.8874 0.59671,5.35749 1.747356,7.67452 0.803232,1.61745 2.642722,4.01364 4.073438,5.3062 0.609867,0.55098 1.050569,1.06006 0.979338,1.13129 -0.342484,0.34249 -3.149467,-1.4928 -4.713431,-3.08177 -2.147503,-2.18184 -3.085686,-4.37147 -3.910795,-9.12742 -1.021787,-5.8896 -1.205054,-6.21345 -5.051653,-8.92664 -3.788646,-2.67232 -8.021664,-6.85422 -9.18827,-9.07731 -2.914564,-5.55402 -0.868903,-9.80711 6.410145,-13.3272 1.455208,-0.70372 3.598333,-1.58289 4.7625,-1.95371 3.189999,-1.01609 10.296921,-2.61611 13.261433,-2.98562 2.00421,-0.24981 2.172426,-0.42858 1.390384,-1.47764 -1.918847,-2.574 -2.712808,-4.854087 -2.702223,-7.760213 0.0093,-2.562793 0.756276,-4.456617 2.513381,-6.372515 2.067379,-2.254213 5.866214,-4.131221 9.139754,-4.515962 1.39288,-0.163705 1.639709,-0.311579 4.021862,-2.409463 3.389559,-2.985074 7.258351,-6.094043 9.797317,-7.873144 l 2.077515,-1.455753 0.174586,-2.444915 c 0.927406,-12.987479 3.859783,-18.206157 11.938734,-21.247066 2.197067,-0.826974 3.746224,-1.718782 4.666581,-2.686426 1.684803,-1.771366 2.590467,-4.983489 2.590467,-9.187628 0,-1.099911 0.102101,-1.999839 0.226892,-1.999839 0.275545,0 0.566858,2.596711 0.566858,5.052872 0,2.532772 -0.457809,4.382261 -1.481294,5.984233 -1.05123,1.645399 -2.62218,2.851531 -5.662456,4.347478 -4.614494,2.27053 -6.582577,3.917026 -7.699063,6.441027 -1.040551,2.352339 -2.88427,10.924465 -2.88427,13.41003 0,0.693581 0.286172,0.617228 2.439776,-0.65095 2.539806,-1.495599 7.093368,-3.720545 9.36579,-4.57628 5.75593,-2.167535 8.727232,-2.893888 15.035785,-3.675584 2.43558,-0.301795 3.21943,-0.495869 3.41512,-0.845559 0.58406,-1.043644 3.19949,-4.759696 3.84173,-5.458399 0.98079,-1.067007 3.41285,-2.922912 4.66326,-3.558531 1.43755,-0.73075 4.04038,-1.318716 6.74687,-1.524083 5.93037,-0.449992 8.02257,-1.713463 10.2705,-6.202316 0.55004,-1.098384 1.22277,-2.770969 1.49494,-3.716855 0.58397,-2.029507 0.93456,-2.551802 0.93456,-1.392251 0,2.090089 -1.44321,6.632018 -2.68601,8.453125 -1.81332,2.657119 -4.13798,3.841391 -9.22024,4.697142 -6.10266,1.02757 -8.29893,2.037811 -10.27532,4.726469 -1.15962,1.577524 -2.42526,3.689507 -2.42342,4.04397 6.8e-4,0.132736 1.87592,0.270356 4.16718,0.305822 6.37633,0.0987 13.76676,1.073531 19.69691,2.598114 1.44673,0.37194 1.6404,0.356258 4.7625,-0.385646 6.2638,-1.488465 8.47615,-1.729617 15.95445,-1.73908 5.5433,-0.007 7.41865,0.0863 9.65729,0.480543 2.83015,0.498413 6.85002,1.478417 8.99583,2.193095 1.96138,0.653254 3.25325,2.212998 2.98691,3.606262 -0.0762,0.398659 -0.0192,0.722853 0.1271,0.722853 0.42425,0 1.11073,1.695505 0.94425,2.332141 -0.0836,0.319602 -0.0356,0.729288 0.10662,0.910414 0.47243,0.601673 0.55789,1.903715 0.19395,2.95507 -0.23908,0.690673 -0.27596,1.194156 -0.11015,1.50396 0.34772,0.649726 0.31082,1.655997 -0.0749,2.041686 -0.25575,0.25575 -0.25575,0.433557 0,0.843077 0.43245,0.692464 0.39706,2.127385 -0.0676,2.740959 -0.48064,0.634673 -1.16394,0.511892 -5.74926,-1.033074 -1.91459,-0.645094 -3.51526,-1.138695 -3.55707,-1.096891 -0.0418,0.0418 1.37901,1.277463 3.15737,2.745908 3.49505,2.88597 9.14489,8.534655 11.72375,11.721335 4.04642,5.000148 7.49679,10.775848 9.40462,15.742708 0.27948,0.7276 0.6183,1.56104 0.75293,1.85208 1.05474,2.28004 2.32266,8.31717 2.5839,12.30313 l 0.19943,3.04271 2.48479,0.191 c 3.35925,0.25822 5.27218,1.15147 7.66083,3.57726 1.541,1.56495 4.41955,5.83184 4.12979,6.1216 -0.0577,0.0577 -0.79293,-0.58602 -1.63389,-1.43044 -1.81565,-1.8231 -4.4567,-3.59232 -6.29152,-4.21462 -1.55881,-0.52869 -4.4475,-0.81573 -5.75006,-0.57137 l -0.92105,0.17279 -0.46977,2.44251 c -0.95538,4.96735 -3.03438,9.88599 -6.04529,14.30236 -2.09401,3.07149 -7.41634,8.584 -10.76918,11.15401 -7.52271,5.7663 -17.05,10.53041 -28.25784,14.13031 -7.28644,2.34036 -8.26409,2.6125 -12.60973,3.51006 -2.18281,0.45085 -4.38547,0.91796 -4.89479,1.03804 -0.50933,0.12008 -1.47694,0.33688 -2.15025,0.48177 -4.67961,1.00703 -11.02588,3.1291 -19.54559,6.53566 -2.23115,0.89212 -10.44314,5.10081 -13.229165,6.78002 -3.462971,2.08723 -4.606963,2.8331 -7.299724,4.75939 -1.177191,0.84211 -2.25905,1.53111 -2.404131,1.53111 -0.14508,0 -0.570174,-0.62508 -0.944653,-1.38906 z m 8.415999,-11.28441 c 0.573036,-0.27645 3.185011,-1.5145 5.804381,-2.75122 2.61938,-1.23672 6.2828,-2.97506 8.14094,-3.86299 1.85814,-0.88792 3.48822,-1.61441 3.6224,-1.61441 0.5271,0 0.56947,-0.59719 0.0812,-1.14406 -1.35445,-1.51692 -1.63882,-4.80509 -0.66814,-7.72593 0.56201,-1.69113 1.83694,-4.34733 2.87882,-5.99777 0.71369,-1.13057 0.80667,-1.80099 0.24976,-1.80099 -0.20869,0 -1.07189,-0.29235 -1.91823,-0.64968 -3.9587,-1.67138 -14.45113,-5.70846 -14.55816,-5.60143 -0.0661,0.0661 3.16743,1.76749 7.18556,3.78093 l 7.3057,3.66081 -8.14428,0.13229 c -4.47935,0.0728 -7.965683,0.20834 -7.747402,0.30128 0.218281,0.0929 1.349372,0.30278 2.513542,0.4663 1.16417,0.16353 4.18038,0.5935 6.70269,0.9555 2.52231,0.36199 4.66543,0.66179 4.7625,0.66622 0.56566,0.0258 -1.06911,0.63588 -2.56427,0.95698 -0.96645,0.20756 -2.29295,0.49193 -2.9478,0.63194 -0.65484,0.14002 -1.96453,0.43312 -2.91041,0.65134 -0.94589,0.21821 -2.67229,0.5843 -3.83646,0.81351 -2.958027,0.58241 -3.086755,0.90693 -0.35976,0.90693 4.10583,0 11.10096,0.34521 10.88788,0.53732 -0.11515,0.10382 -1.28093,0.55603 -2.59062,1.00492 -1.30969,0.44888 -3.45199,1.23801 -4.76068,1.75362 -1.30869,0.51561 -2.48132,0.93747 -2.60585,0.93747 -0.12453,0 -0.6016,0.16937 -1.06015,0.37637 -0.45856,0.207 -1.607643,0.65122 -2.553529,0.98715 -2.140746,0.76029 -1.494615,0.94119 1.41226,0.39539 1.187789,-0.22302 3.886019,-0.71742 5.996069,-1.09868 2.11006,-0.38125 4.28295,-0.79217 4.82865,-0.91316 0.5457,-0.12098 0.99219,-0.13308 0.99219,-0.0269 0,0.19178 -0.77645,0.60806 -9.92188,5.31951 -6.524045,3.36099 -6.645593,3.42697 -6.313198,3.42697 0.357174,0 2.175535,-0.63233 3.3422,-1.16225 1.923518,-0.87369 11.752918,-4.65858 12.098378,-4.65858 0.20496,0 -1.00854,0.98226 -2.69667,2.18281 -1.68812,1.20055 -4.8633,3.46489 -7.05595,5.03187 -2.192645,1.56698 -4.169349,2.91917 -4.392672,3.00487 -0.223324,0.0857 -0.406043,0.26214 -0.406043,0.39209 0,0.31416 0.0069,0.31263 1.207074,-0.26636 z m 22.985381,-8.42705 c -0.1132,-0.25466 -0.25642,-1.42577 -0.31826,-2.60246 -0.13941,-2.65271 0.73783,-6.23364 2.32088,-9.47393 0.58135,-1.18996 1.05701,-2.25607 1.05701,-2.36914 0,-0.37775 -2.43275,1.53114 -3.59283,2.81915 -3.10884,3.45168 -3.31494,7.01161 -0.63173,10.91153 0.79936,1.16182 1.57528,1.63796 1.16493,0.71485 z m 34.2359,-7.94664 c 2.46801,-2.43068 3.91621,-4.3391 5.0627,-6.67159 0.46494,-0.94589 0.95481,-1.92654 1.0886,-2.17923 0.5064,-0.95641 0.27459,-5.06181 -0.42144,-7.46367 -0.69566,-2.40055 -1.90487,-5.07364 -2.17359,-4.80493 -0.0863,0.0863 -0.13302,0.96133 -0.10388,1.94454 0.12842,4.3318 -2.37014,12.7258 -5.95306,19.99951 -0.34637,0.70318 -0.62977,1.39197 -0.62977,1.53066 0,0.4818 1.05808,-0.31428 3.13044,-2.35529 z m 13.76335,-5.47175 c 6.40891,-4.28891 11.74066,-8.90986 15.73264,-13.63526 3.30674,-3.91426 5.15703,-6.90212 7.61895,-12.30313 0.58554,-1.28455 1.47132,-4.38845 1.2852,-4.50348 -0.1127,-0.0696 -0.94167,0.28981 -1.84216,0.7988 -1.50938,0.85315 -2.68353,1.63641 -7.40925,4.94258 -4.16199,2.91178 -6.83432,3.8523 -11.64355,4.09792 -4.27969,0.21857 -8.66376,-0.67379 -13.9365,-2.8367 -2.42892,-0.99636 -2.6969,-0.98011 -1.74352,0.10573 1.14991,1.30967 3.62098,5.09877 4.78571,7.33834 2.51718,4.84007 4.01094,11.38968 3.65468,16.02451 -0.0934,1.21574 -0.0977,2.21043 -0.009,2.21043 0.0882,0 1.66651,-1.00788 3.50728,-2.23974 z m 4.93434,-21.95849 c 2.39326,-0.40351 4.27247,-0.85876 4.82786,-1.16957 0.20668,-0.11567 -1.8666,-0.20511 -4.60729,-0.19878 -6.04509,0.014 -9.51557,-0.50642 -14.64037,-2.19533 -1.9821,-0.65322 -2.02066,-0.66907 -5.07731,-2.08765 -2.68385,-1.24555 -2.82729,-0.89961 -0.27401,0.66087 7.22674,4.41677 13.61304,6.02875 19.77112,4.99046 z m 2.41909,-3.21433 c 2.70331,-0.55276 5.36265,-1.79123 7.94129,-3.69833 2.71523,-2.0081 5.80831,-3.88667 8.38383,-5.09187 l 2.07547,-0.9712 -0.13005,-4.89479 c -0.14411,-5.42385 -0.58003,-7.63405 -2.42168,-12.27831 -7.8673,-19.839724 -32.39941,-37.685766 -60.469,-43.98857 -5.11963,-1.149573 -12.14689,-1.941456 -17.2287,-1.941456 h -4.42834 l -0.70612,1.521354 c -0.91636,1.974311 -2.31826,6.191346 -3.0481,9.168929 -0.4643,1.894287 -0.54904,2.827459 -0.43245,4.7625 0.0797,1.323626 0.22609,2.734014 0.3252,3.134197 0.25664,1.036222 -0.1548,0.890861 -1.0473,-0.370006 -0.73323,-1.035882 -0.76815,-1.21372 -0.75207,-3.83081 0.009,-1.509473 -0.0204,-2.744497 -0.0658,-2.744497 -0.0455,0 -0.38032,0.506016 -0.7441,1.124479 -0.36378,0.618464 -0.94064,1.374842 -1.28191,1.680842 -0.58384,0.523494 -4.352374,1.620785 -4.626154,1.347004 -0.06953,-0.06953 0.571288,-0.550241 1.424032,-1.068256 2.297502,-1.395657 1.994962,-0.896915 5.481912,-9.037194 0.68569,-1.60073 1.47886,-3.376343 1.76261,-3.945807 0.28375,-0.569465 0.41868,-1.132616 0.29985,-1.251448 -0.52969,-0.529691 -8.418259,1.118303 -12.900243,2.694977 -3.836542,1.34962 -9.230263,4.318759 -12.170834,6.699809 -2.614023,2.116637 -5.953125,5.565858 -5.953125,6.149452 0,1.161492 0.564945,1.293095 5.66307,1.319207 3.957244,0.02027 5.165256,0.121628 6.962484,0.5842 4.20525,1.082349 7.950582,3.02284 11.1208,5.761788 1.34823,1.164819 1.412978,1.450282 0.264584,1.166424 C 98.411753,91.370207 96.59605,90.912877 94.8498,90.470818 81.975867,87.211814 68.802569,86.57832 60.321675,88.810387 c -4.315603,1.135814 -7.233591,3.312349 -8.116136,6.053849 -0.422805,1.313382 -0.421505,1.47195 0.02386,2.910416 0.596181,1.925596 1.628312,3.555928 3.277026,5.176328 l 1.295983,1.27373 0.161028,-1.72441 c 0.261542,-2.800793 1.583626,-4.440965 4.827687,-5.989213 8.450555,-4.033078 25.044635,-2.278891 39.242957,4.148443 0.78198,0.35398 1.47854,0.58685 1.54792,0.51747 0.0694,-0.0694 -0.19159,-1.17583 -0.57993,-2.458775 -0.38833,-1.282949 -0.8598,-2.868416 -1.0477,-3.52326 -0.1879,-0.654844 -0.42464,-1.42875 -0.52609,-1.719792 -0.21217,-0.608637 0.12942,-0.193486 2.92412,3.553833 1.03841,1.392371 2.64576,3.305494 3.57188,4.251374 2.55752,2.6121 10.39183,9.69726 15.07179,13.63055 6.09155,5.11967 17.20568,13.44411 22.5954,16.92386 1.30968,0.84557 2.55984,1.66885 2.77812,1.82952 0.33732,0.24828 0.34644,0.22752 0.0608,-0.13835 -0.18485,-0.23675 -1.25642,-1.12584 -2.38125,-1.97575 -2.11646,-1.59918 -8.29425,-6.4619 -8.52744,-6.7122 -0.0728,-0.0781 -0.96572,-0.85624 -1.98437,-1.7292 -3.40308,-2.91637 -3.95048,-3.41791 -7.50628,-6.87737 -3.88093,-3.77577 -8.02099,-8.35935 -10.51709,-11.64377 -1.4098,-1.85503 -5.43943,-7.76206 -6.04649,-8.863538 -0.1203,-0.218282 1.13855,0.927523 2.79744,2.546232 3.17863,3.101626 3.1366,3.077416 6.98492,4.024206 3.00439,0.73916 5.15269,0.58994 7.27604,-0.5054 0.99821,-0.51493 2.46377,-1.817943 2.87874,-2.559461 0.52993,-0.946927 0.55908,-0.08114 0.0437,1.296461 -0.62856,1.67997 -1.91817,3.14087 -3.50682,3.97259 -0.98429,0.51532 -1.54899,0.59599 -4.24384,0.60625 -1.70966,0.007 -3.10865,0.0861 -3.10886,0.17687 -6.5e-4,0.28188 9.35677,9.32409 13.69622,13.23485 18.14211,16.34988 31.79281,23.11632 42.30062,20.96776 z m -11.67951,-8.72293 c -2.92858,-0.48734 -4.26065,-0.87178 -5.95313,-1.7181 -1.98051,-0.99035 -3.03883,-2.18151 -3.42805,-3.85833 -0.40264,-1.73463 -1.71489,-3.94999 -4.08212,-6.89151 -2.5991,-3.22962 -7.5258,-8.26054 -8.27308,-8.4481 -0.3415,-0.0857 -0.61888,-0.23223 -0.6164,-0.32559 0.002,-0.0934 0.65979,-0.45345 1.46068,-0.80018 1.56824,-0.67894 4.93817,-3.72978 6.4347,-5.82542 0.95735,-1.34061 1.10546,-0.91619 0.38335,1.09851 -0.28002,0.78127 -0.35564,1.34231 -0.19974,1.48193 0.13798,0.12358 1.08431,0.54774 2.10296,0.94258 11.12882,4.31367 21.70402,10.96614 29.43489,18.51641 1.20055,1.1725 2.17905,2.25351 2.17445,2.40224 -0.0142,0.45942 -2.25648,1.66284 -4.41611,2.37012 -4.21625,1.38082 -10.4396,1.81806 -15.0224,1.05544 z m -4.90904,-9.82928 c -0.50148,-0.54209 -1.92383,-2.05173 -3.16075,-3.35477 -3.92504,-4.13482 -4.74587,-5.06348 -4.208,-4.76078 0.23222,0.13069 2.94888,2.20214 6.03702,4.60324 3.08815,2.40109 5.75566,4.40754 5.92779,4.45877 0.17214,0.0512 -1.23483,-1.38124 -3.1266,-3.18327 -5.72072,-5.44935 -6.10142,-5.83201 -5.66239,-5.69151 0.23267,0.0745 2.77237,1.94217 5.64378,4.15049 2.87141,2.20831 5.27787,3.95799 5.34769,3.88817 0.0698,-0.0698 -0.16204,-0.40747 -0.51525,-0.75032 -3.16953,-3.07662 -8.65029,-8.51049 -8.65029,-8.57629 0,-0.0853 4.34415,2.48406 12.52325,7.40696 2.59492,1.56185 4.7693,2.78847 4.83194,2.72583 0.11122,-0.11122 -3.99614,-3.2747 -7.6979,-5.9289 -5.20651,-3.73314 -11.21475,-6.98759 -15.0669,-8.1612 l -2.3669,-0.7211 -0.83697,0.91329 c -0.46034,0.50231 -1.21359,1.18146 -1.67389,1.50923 -0.82243,0.58562 -0.8288,0.60658 -0.368,1.21142 0.52076,0.68356 6.81295,8.42759 7.52554,9.26197 0.24856,0.29104 0.69727,0.81527 0.99713,1.16496 1.34681,1.57061 0.31984,-0.16417 -2.09295,-3.53547 -1.45098,-2.0274 -2.58777,-3.73656 -2.52619,-3.79814 0.0616,-0.0616 0.5737,0.28915 1.13807,0.77939 3.81031,3.30985 6.42104,5.5903 7.33356,6.4058 1.39206,1.24405 1.80408,1.23273 0.64721,-0.0178 z m 30.04544,1.96964 c -1.45719,-2.98046 -4.99306,-8.98227 -6.9314,-11.76539 -7.15287,-10.27029 -15.13246,-17.624862 -24.42271,-22.509739 -3.18819,-1.676371 -8.65915,-4.01516 -9.39239,-4.01516 -0.29008,0 -1.02143,-1.231363 -2.26489,-3.813388 -1.01006,-2.097364 -1.83647,-3.883301 -1.83647,-3.96875 0,-0.327442 0.83973,-0.128858 2.30924,0.5461 0.83997,0.385805 1.76534,0.793542 2.05639,0.906083 0.29104,0.112541 2.49369,1.153185 4.89479,2.312543 21.84124,10.54595 32.98648,23.258231 36.65286,41.806321 0.22079,1.11698 0.4604,2.29877 0.53246,2.6262 0.28138,1.27859 -0.33401,0.46026 -1.59788,-2.12482 z m -54.1363,-11.83819 c 4.24094,-2.8427 7.10788,-6.13651 8.53872,-9.81007 0.83349,-2.139906 0.83158,-6.331029 -0.004,-8.83682 -0.78038,-2.340178 -1.3925,-3.684833 -2.55523,-5.613073 -1.26051,-2.090405 -1.15926,-2.278623 0.33242,-0.617976 3.16785,3.526678 5.05582,6.694495 5.73392,9.620905 0.51703,2.231274 0.52092,2.934695 0.0267,4.832064 -1.06104,4.07364 -5.00921,7.8827 -11.09454,10.70367 -3.40063,1.57643 -3.64267,1.50745 -0.97797,-0.2787 z m -4.73448,-2.34262 c 0,-0.1277 0.19038,-0.39019 0.42307,-0.5833 0.72056,-0.59801 2.69818,-3.2873 3.52422,-4.79246 0.86696,-1.57971 1.49718,-3.28644 2.0326,-5.504552 0.42687,-1.768433 0.48026,-7.27798 0.0816,-8.421562 -0.87,-2.495673 1.09573,-0.25404 2.87923,3.283344 1.54522,3.064797 1.96485,5.777156 1.25548,8.11492 -0.9738,3.20919 -3.69415,5.54853 -8.97175,7.7152 -1.1928,0.4897 -1.22446,0.49457 -1.22446,0.18841 z M 54.919113,99.205091 c -0.213987,-0.413806 -0.469494,-1.358657 -0.567793,-2.099668 -0.256786,-1.935753 0.552833,-3.527507 2.368829,-4.657238 1.656583,-1.03056 2.565398,-1.3381 5.45361,-1.845485 3.279826,-0.576182 14.241339,-0.737704 13.912111,-0.205001 -0.07812,0.1264 -1.007881,0.313012 -2.066136,0.414693 -1.058255,0.101682 -2.400351,0.290739 -2.982434,0.420129 -0.582083,0.129389 -2.146898,0.47909 -3.477366,0.777113 -3.890018,0.871358 -7.606072,2.415827 -9.356592,3.888793 -1.22126,1.027622 -2.379583,2.700806 -2.379583,3.437277 0,0.845236 -0.432289,0.782826 -0.904646,-0.130613 z m 58.716107,-9.779419 c -1.05454,-0.373581 -2.66335,-1.360151 -3.45512,-2.118768 -0.4451,-0.42647 -1.07018,-0.858207 -1.38906,-0.959416 -0.85401,-0.271053 -0.76547,-1.301203 0.14782,-1.719909 2.79246,-1.280219 3.63034,-1.464298 6.68073,-1.467732 3.29717,-0.0037 4.55084,0.288276 5.66293,1.318923 0.92477,0.857048 0.87069,1.704477 -0.17282,2.708449 -1.38859,1.335964 -3.54002,2.283414 -5.35782,2.359484 -0.87312,0.03654 -1.82562,-0.01793 -2.11666,-0.121031 z m 4.00225,-1.352718 c 1.28012,-0.581305 1.58257,-0.964309 1.16184,-1.471259 -0.25539,-0.30773 -0.50596,-0.240826 -1.52978,0.408465 -1.18483,0.751391 -2.20452,0.953173 -3.09329,0.612117 -0.51251,-0.196667 -1.20248,-1.452205 -1.20248,-2.188142 0,-0.28968 -0.11089,-0.595222 -0.24641,-0.678982 -0.26304,-0.162567 -2.13484,0.636987 -2.13484,0.911913 0,0.282437 1.67841,1.777507 2.64583,2.35681 1.16309,0.696475 2.93006,0.716187 4.39913,0.04908 z m -0.81523,-1.464921 c 0.8024,-0.802398 0.82783,-1.64011 0.0742,-2.44237 -0.7439,-0.791842 -1.6643,-0.778082 -2.47945,0.03707 -0.96679,0.966787 -0.73228,2.294893 0.49234,2.788305 0.91747,0.369656 1.22109,0.308866 1.91296,-0.383002 z m -1.36669,-1.05769 c -0.18844,-0.491069 0.0865,-0.938712 0.57653,-0.938712 0.23029,0 0.38126,0.261925 0.38126,0.661458 0,0.726999 -0.7067,0.931571 -0.95779,0.277254 z M 80.276076,79.550209 c -0.151883,-0.246755 2.374872,-2.740958 3.971987,-3.920816 2.457119,-1.815181 9.410551,-4.806939 13.213386,-5.685145 0.685926,-0.158404 0.719822,-0.135666 0.349628,0.234528 -0.225466,0.225466 -0.480526,0.409938 -0.566801,0.409938 -0.295211,0 -2.393612,1.42865 -4.207196,2.864377 -2.708939,2.144536 -3.83491,4.195599 -3.078822,5.608362 0.257603,0.481336 0.07977,0.50341 -4.655892,0.577919 -2.708049,0.04261 -4.969879,0.0025 -5.02629,-0.08916 z m -2.624193,36.407511 c 6.625379,-1.03484 15.916691,-3.9768 23.746357,-7.51895 2.04168,-0.92366 1.58078,-1.33755 -1.489484,-1.33755 -1.927072,0 -5.322626,0.63619 -11.144373,2.088 -3.146092,0.78457 -6.480661,1.51097 -10.054166,2.19018 -2.730004,0.51889 -10.678356,0.45236 -12.622319,-0.10566 -1.934848,-0.5554 -3.72411,-1.34959 -5.257801,-2.33375 -0.668914,-0.42924 -1.295081,-0.78044 -1.391481,-0.78044 -0.347196,0 -0.163165,0.85211 0.475676,2.20251 1.955491,4.13357 6.44187,6.10354 13.371966,5.87164 1.819011,-0.0609 3.783542,-0.18506 4.365625,-0.27598 z M 171.11043,78.630945 c -0.0879,-0.08792 -0.31612,-0.09732 -0.50712,-0.02089 -0.21106,0.08446 -0.14837,0.147157 0.15986,0.159852 0.27891,0.01149 0.43518,-0.05105 0.34726,-0.138964 z m -1.39678,-0.32782 c -0.26645,-0.236489 -2.24406,-0.862007 -4.55783,-1.44164 -3.1213,-0.78193 0.32423,-0.968447 5.68455,-0.307724 1.82407,0.224839 3.36606,0.359221 3.42666,0.298627 0.0606,-0.06059 -0.6385,-0.418557 -1.55353,-0.795473 -2.22279,-0.9156 -6.96594,-2.028618 -8.645,-2.028618 -0.74419,0 -1.35308,-0.119062 -1.35308,-0.264583 0,-0.165324 1.5823,-0.264583 4.21772,-0.264583 2.44149,0 4.28457,-0.108159 4.37645,-0.256827 0.16262,-0.263133 0.002,-0.314159 -2.50875,-0.794613 -4.001,-0.765771 -6.48913,-1.059214 -9.26042,-1.092146 l -3.0427,-0.03616 1.71979,-0.352986 c 2.01319,-0.413207 6.15658,-0.460802 9.99402,-0.114802 2.85634,0.25754 4.42026,0.07301 2.70598,-0.319282 -4.10261,-0.938835 -8.05635,-1.336493 -13.30291,-1.337978 -3.02373,-8.55e-4 -5.45876,-0.04049 -5.41117,-0.08808 0.0476,-0.04759 1.62858,-0.340821 3.51332,-0.65163 2.52839,-0.416953 4.72284,-0.575455 8.3703,-0.604575 5.45748,-0.04357 5.60828,-0.259649 0.61275,-0.877977 -4.38583,-0.54286 -12.45484,-0.522212 -16.72033,0.04279 -1.8634,0.246822 -3.55739,0.501221 -3.76443,0.56533 -0.57207,0.177145 0.22132,0.60812 3.55143,1.929163 1.60073,0.635005 5.70838,2.581645 9.12812,4.325865 5.8784,2.998245 7.25056,3.53347 10.68292,4.166963 0.70961,0.13097 1.35454,0.302455 1.43316,0.381077 0.0786,0.07862 0.32551,0.14295 0.54864,0.14295 0.24251,0 0.30459,-0.08974 0.15434,-0.223089 z"
       id="path1"
       sodipodi:nodetypes="cssssssssssssssssssscsssssssssssccssssssssssssscssscssscccsssssssssssssssssssssssscsssssssssssssssssssscsssscsssssssssssssssssssssssssssssssssssssssssssssscsssssscssssssssssscccssscssssssccsssssssssssssssssssssssssssccsssssssssssssssscssssssssscsccssssssscsscsssscsscsscsssssssssssssssssssscssssssssssssssssssssssscscssccssssscssssssssscsssssssssssssscsssssssssccsssssssssssssssssscsssssssssssssssssssssssssssssssssssssssssssccssccsssssssssssssscssssssssccsssssssssssssscscsssssssssssssssss" /></g><g
     id="g19"
     transform="matrix(5.1172526,0,0,5.1172526,0.42794141,19.390074)"><ellipse
       opacity="0.17"
       rx="23.9"
       ry="5.98"
       cy="39.959999"
       cx="23.92"
       fill="url(#b)"
       id="ellipse16"
       style="fill:url(#b)" /><g
       fill="#dcdcdc"
       id="g17"><path
         d="m 18.63,3.14 c -8.14,0 -14.75,6.61 -14.75,14.75 0,8.14 6.61,14.74 14.75,14.74 3.48,0 6.55,-1.38 9.1,-3.4 -0.2,1 -0.08,2.04 0.76,2.76 l 10.96,9.53 c 1.23,1.07 3.09,0.93 4.16,-0.3 1.07,-1.24 0.93,-3.09 -0.3,-4.16 L 32.34,27.53 c -0.67,-0.58 -1.49,-0.76 -2.3,-0.64 1.98,-2.52 3.36,-5.55 3.36,-9 C 33.4,9.75 26.8,3.14 18.66,3.14 Z m -0.08,1.23 c 7.64,0 13.29,4.79 13.29,13.29 0,8.68 -5.81,13.29 -13.29,13.29 -7.3,0 -13.29,-5.47 -13.29,-13.29 0,-7.98 5.82,-13.29 13.29,-13.29 z"
         stroke="url(#k)"
         stroke-linecap="round"
         stroke-width="2"
         id="path16"
         style="stroke:url(#k)" /><path
         d="m 18.6,3.08 c -8.16,0 -14.79,6.63 -14.79,14.79 0,8.17 6.63,14.8 14.79,14.8 3.49,0 6.58,-1.39 9.11,-3.42 -0.21,1 -0.08,2.04 0.75,2.77 l 11,9.56 c 1.24,1.07 3.1,0.93 4.18,-0.3 1.07,-1.24 0.93,-3.1 -0.31,-4.18 l -11,-9.56 C 31.66,26.96 30.84,26.79 30.02,26.9 32.01,24.38 33.4,21.33 33.4,17.9 33.4,9.74 26.77,3.11 18.6,3.11 M 18.53,6.3 c 6.28,0 11.38,5.09 11.38,11.38 0,6.28 -5.1,11.37 -11.38,11.37 -6.28,0 -11.38,-5.09 -11.38,-11.37 0,-6.29 5.1,-11.38 11.38,-11.38"
         id="path17" /></g><path
       d="M 39.51,41.58 C 39.03,39.3 40.9,36.77 43.09,36.79 L 32.33,27.53 c -2.94,-0.06 -4.27,2.27 -3.78,4.6 l 10.96,9.45"
       fill="url(#SVGID_3_)"
       id="path18"
       style="fill:url(#SVGID_3_)" /><circle
       cy="17.4"
       stroke="url(#c)"
       cx="18.379999"
       r="13.77"
       fill="none"
       id="circle18"
       style="stroke:url(#c)" /><ellipse
       rx="8.2299995"
       ry="2.4000001"
       cy="38.77"
       cx="20.99"
       fill="url(#s)"
       id="ellipse18"
       style="fill:url(#s)" /><circle
       cy="17.549999"
       stroke="#3063a3"
       cx="18.379999"
       r="11.62"
       fill="url(#r)"
       id="circle19"
       style="fill:url(#r)" /><path
       opacity="0.83"
       d="m 18.2,7.4 c -5.21,0 -9.43,4.21 -9.43,9.42 0,1.51 0.42,2.89 1.05,4.15 1.25,0.46 2.58,0.78 3.99,0.78 6.18,0 11.1,-4.86 11.48,-10.94 C 23.56,8.76 21.08,7.4 18.2,7.4"
       fill="url(#g)"
       id="path19"
       style="fill:url(#g)" /><rect
       opacity="0.43"
       rx="2.4679999"
       transform="matrix(0.753,0.658,-0.6489,0.7609,0,0)"
       height="5"
       width="19"
       stroke="#ffffff"
       y="-0.13"
       x="40.5"
       fill="none"
       id="rect19" /></g></svg>
