<?xml version="1.0" encoding="UTF-8" standalone="no"?>
<svg
   width="256"
   height="256"
   viewBox="-0.445 0.378 256 256"
   overflow="visible"
   enable-background="new -0.445 0.378 129 116"
   xml:space="preserve"
   version="1.1"
   id="svg139"
   sodipodi:docname="antivirus.svg"
   inkscape:version="1.3 (0e150ed6c4, 2023-07-21)"
   inkscape:export-filename="../antivirus.png"
   inkscape:export-xdpi="96"
   inkscape:export-ydpi="96"
   xmlns:inkscape="http://www.inkscape.org/namespaces/inkscape"
   xmlns:sodipodi="http://sodipodi.sourceforge.net/DTD/sodipodi-0.dtd"
   xmlns="http://www.w3.org/2000/svg"
   xmlns:svg="http://www.w3.org/2000/svg"
   xmlns:rdf="http://www.w3.org/1999/02/22-rdf-syntax-ns#"
   xmlns:cc="http://creativecommons.org/ns#"
   xmlns:a="http://ns.adobe.com/AdobeSVGViewerExtensions/3.0/"><defs
   id="defs139" /><sodipodi:namedview
   id="namedview139"
   pagecolor="#ffffff"
   bordercolor="#000000"
   borderopacity="0.25"
   inkscape:showpageshadow="2"
   inkscape:pageopacity="0.0"
   inkscape:pagecheckerboard="0"
   inkscape:deskcolor="#d1d1d1"
   inkscape:zoom="1.9979878"
   inkscape:cx="330.5826"
   inkscape:cy="281.03275"
   inkscape:current-layer="svg139" />&#10;	<g
   id="Layer_1_2_"
   transform="matrix(1.9945977,0,0,1.9945977,-1.3677922,8.4624983)">&#10;		<path
   d="m 102.981,82.81 -15.747,8.173 2.423,5.678 16.72,-8.627 z"
   style="clip-rule:evenodd;fill:#ffffff;fill-rule:evenodd"
   id="path1" />&#10;		<g
   id="g139">&#10;			<g
   id="g55">&#10;				<linearGradient
   id="XMLID_1_"
   gradientUnits="userSpaceOnUse"
   x1="-0.57080001"
   y1="-39.788601"
   x2="-0.57080001"
   y2="-36.6852"
   gradientTransform="matrix(0.7071,0.7071,-0.7071,0.7071,88.8026,132.916)">&#10;					<stop
   offset="0.0337"
   style="stop-color:rgb(255,255,255)"
   id="stop1" />&#10;					<stop
   offset="1"
   style="stop-color:rgb(178,178,178)"
   id="stop2" />&#10;					<a:midPointStop
   offset="0.0337"
   style="stop-color:#FFFFFF" />&#10;					<a:midPointStop
   offset="0.5"
   style="stop-color:#FFFFFF" />&#10;					<a:midPointStop
   offset="1"
   style="stop-color:#B2B2B2" />&#10;				</linearGradient>&#10;				<path
   d="m 105.005,93.166 -2.147,2.151 20.591,20.589 h 4.297 z"
   style="fill:url(#XMLID_1_)"
   id="path2" />&#10;				<linearGradient
   id="XMLID_2_"
   gradientUnits="userSpaceOnUse"
   x1="-185.42999"
   y1="118.769"
   x2="-185.42999"
   y2="96.185799"
   gradientTransform="translate(300.789)">&#10;					<stop
   offset="0"
   style="stop-color:rgb(158,158,158)"
   id="stop3" />&#10;					<stop
   offset="1"
   style="stop-color:rgb(97,97,97)"
   id="stop4" />&#10;					<a:midPointStop
   offset="0"
   style="stop-color:#9E9E9E" />&#10;					<a:midPointStop
   offset="0.5"
   style="stop-color:#9E9E9E" />&#10;					<a:midPointStop
   offset="1"
   style="stop-color:#616161" />&#10;				</linearGradient>&#10;				<path
   d="m 104.63,92.79 -2.149,2.148 c -0.209,0.208 -0.209,0.547 0,0.756 l 20.589,20.589 c 0.101,0.101 0.236,0.157 0.379,0.157 h 4.297 c 0.216,0 0.409,-0.132 0.493,-0.329 0.082,-0.201 0.036,-0.432 -0.115,-0.584 L 105.386,92.79 c -0.209,-0.209 -0.549,-0.209 -0.756,0 z m 0.375,1.132 c 0.704,0.703 19.798,19.797 21.449,21.45 -1.169,0 -2.513,0 -2.785,0 -0.302,-0.303 -19.333,-19.333 -20.055,-20.055 0.405,-0.404 0.99,-0.99 1.391,-1.395 z"
   style="fill:url(#XMLID_2_)"
   id="path4" />&#10;				<linearGradient
   id="XMLID_3_"
   gradientUnits="userSpaceOnUse"
   x1="-21.7749"
   y1="-22.440399"
   x2="-21.7749"
   y2="-38.936501"
   gradientTransform="matrix(0.7071,0.7071,-0.7071,0.7071,88.8026,132.916)">&#10;					<stop
   offset="0"
   style="stop-color:rgb(255,255,255)"
   id="stop5" />&#10;					<stop
   offset="1"
   style="stop-color:rgb(0,0,0)"
   id="stop6" />&#10;				</linearGradient>&#10;				<path
   d="M 103.262,99.747 91.177,87.663 97.355,81.486 109.44,93.569 Z"
   style="fill:url(#XMLID_3_)"
   id="path6" />&#10;				<path
   d="m 97.354,80.952 c -0.143,0 -0.277,0.056 -0.379,0.156 L 90.8,87.286 c -0.209,0.208 -0.209,0.547 0,0.757 l 12.083,12.083 c 0.102,0.1 0.236,0.155 0.379,0.155 0.143,0 0.277,-0.056 0.379,-0.155 l 6.176,-6.177 c 0.209,-0.21 0.209,-0.549 0,-0.758 L 97.731,81.108 c -0.099,-0.1 -0.234,-0.156 -0.377,-0.156 z m 0,1.289 c 0.686,0.687 10.642,10.644 11.328,11.328 -0.622,0.624 -4.798,4.799 -5.421,5.422 -0.687,-0.686 -10.643,-10.642 -11.328,-11.328 0.623,-0.622 4.799,-4.799 5.421,-5.422 z"
   id="path7" />&#10;				<linearGradient
   id="XMLID_4_"
   gradientUnits="userSpaceOnUse"
   x1="-21.7749"
   y1="-23.8857"
   x2="-21.7749"
   y2="-38.8531"
   gradientTransform="matrix(0.7071,0.7071,-0.7071,0.7071,88.8026,132.916)">&#10;					<stop
   offset="0"
   style="stop-color:rgb(255,255,255)"
   id="stop7" />&#10;					<stop
   offset="1"
   style="stop-color:rgb(0,0,0)"
   id="stop8" />&#10;					<a:midPointStop
   offset="0"
   style="stop-color:#FFFFFF" />&#10;					<a:midPointStop
   offset="0.5"
   style="stop-color:#FFFFFF" />&#10;					<a:midPointStop
   offset="1"
   style="stop-color:#000000" />&#10;				</linearGradient>&#10;				<path
   d="M 97.627,82.334 95.23,84.73 c 0.854,1.993 2.304,4.13 4.257,6.082 2.25,2.251 4.744,3.835 6.98,4.605 l 2.124,-2.122 z"
   style="fill:url(#XMLID_4_)"
   id="path8" />&#10;				<linearGradient
   id="XMLID_5_"
   gradientUnits="userSpaceOnUse"
   x1="-21.7749"
   y1="-43.911598"
   x2="-21.7749"
   y2="-38.442001"
   gradientTransform="matrix(0.7071,0.7071,-0.7071,0.7071,88.8026,132.916)">&#10;					<stop
   offset="0"
   style="stop-color:rgb(255,255,255)"
   id="stop9" />&#10;					<stop
   offset="1"
   style="stop-color:rgb(0,0,0)"
   id="stop10" />&#10;					<a:midPointStop
   offset="0"
   style="stop-color:#FFFFFF" />&#10;					<a:midPointStop
   offset="0.5"
   style="stop-color:#FFFFFF" />&#10;					<a:midPointStop
   offset="1"
   style="stop-color:#000000" />&#10;				</linearGradient>&#10;				<path
   a:adobe-blending-mode="screen"
   d="M 97.627,82.334 95.23,84.73 c 0.854,1.993 2.304,4.13 4.257,6.082 2.25,2.251 4.744,3.835 6.98,4.605 l 2.124,-2.122 z"
   style="fill:url(#XMLID_5_)"
   id="path10" />&#10;				<path
   d="m 108.239,96.359 -1.156,3.465 -1.688,-1.811 2.188,-2.248 0.812,0.687 z"
   style="opacity:0.2"
   id="path11" />&#10;				<path
   d="m 103.005,86.812 -2.335,-2.333 -6.003,6.006 3.679,3.68 c 2.521,-1.441 4.32,-4.154 4.659,-7.353 z"
   style="opacity:0.2"
   id="path12" />&#10;				<linearGradient
   id="XMLID_6_"
   gradientUnits="userSpaceOnUse"
   x1="-60.916"
   y1="-29.651899"
   x2="-59.4506"
   y2="-67.300697"
   gradientTransform="matrix(0.7071,0.7071,-0.7071,0.7071,88.8026,132.916)">&#10;					<stop
   offset="0.0337"
   style="stop-color:rgb(255,255,255)"
   id="stop12" />&#10;					<stop
   offset="1"
   style="stop-color:rgb(178,178,178)"
   id="stop13" />&#10;					<a:midPointStop
   offset="0.0337"
   style="stop-color:#FFFFFF" />&#10;					<a:midPointStop
   offset="0.5"
   style="stop-color:#FFFFFF" />&#10;					<a:midPointStop
   offset="1"
   style="stop-color:#B2B2B2" />&#10;				</linearGradient>&#10;				<path
   d="m 90.24,95.046 c -1.781,1.781 -4.669,1.781 -6.45,0 L 40.985,52.243 c -1.779,-1.783 -1.779,-4.67 0,-6.451 L 55.483,31.294 c 1.78,-1.78 4.669,-1.78 6.45,0 l 42.803,42.804 c 1.781,1.78 1.781,4.67 0,6.448 z"
   style="fill:url(#XMLID_6_)"
   id="path13" />&#10;				<linearGradient
   id="XMLID_7_"
   gradientUnits="userSpaceOnUse"
   x1="-68.535202"
   y1="-45.475601"
   x2="-33.116299"
   y2="-10.0569"
   gradientTransform="matrix(0.7071,0.7071,-0.7071,0.7071,88.8026,132.916)">&#10;					<stop
   offset="0.0337"
   style="stop-color:rgb(255,255,255)"
   id="stop14" />&#10;					<stop
   offset="1"
   style="stop-color:rgb(178,178,178)"
   id="stop15" />&#10;					<a:midPointStop
   offset="0.0337"
   style="stop-color:#FFFFFF" />&#10;					<a:midPointStop
   offset="0.5"
   style="stop-color:#FFFFFF" />&#10;					<a:midPointStop
   offset="1"
   style="stop-color:#B2B2B2" />&#10;				</linearGradient>&#10;				<path
   d="m 89.611,92.63 c -1.563,1.563 -4.094,1.563 -5.657,0 L 42.674,51.35 c -1.564,-1.564 -1.564,-4.096 0,-5.657 l 12.71,-12.712 c 1.56,-1.561 4.093,-1.561 5.655,0 l 41.284,41.283 c 1.562,1.563 1.561,4.096 0,5.656 z"
   style="fill:url(#XMLID_7_)"
   id="path15" />&#10;				<linearGradient
   id="XMLID_8_"
   gradientUnits="userSpaceOnUse"
   x1="-60.590302"
   y1="-19.674801"
   x2="-60.590302"
   y2="-48.984402"
   gradientTransform="matrix(0.7071,0.7071,-0.7071,0.7071,88.8026,132.916)">&#10;					<stop
   offset="0"
   style="stop-color:rgb(158,158,158)"
   id="stop16" />&#10;					<stop
   offset="1"
   style="stop-color:rgb(97,97,97)"
   id="stop17" />&#10;					<a:midPointStop
   offset="0"
   style="stop-color:#9E9E9E" />&#10;					<a:midPointStop
   offset="0.5"
   style="stop-color:#9E9E9E" />&#10;					<a:midPointStop
   offset="1"
   style="stop-color:#616161" />&#10;				</linearGradient>&#10;				<path
   d="M 55.105,30.918 40.608,45.416 c -0.962,0.962 -1.492,2.242 -1.492,3.6 -10e-4,1.361 0.529,2.643 1.492,3.604 l 42.803,42.804 c 1.987,1.986 5.221,1.984 7.205,0 l 14.499,-14.498 c 1.984,-1.985 1.986,-5.217 0,-7.205 L 62.311,30.918 c -1.987,-1.986 -5.219,-1.986 -7.206,0 z M 84.168,94.667 41.364,51.865 c -0.76,-0.76 -1.178,-1.772 -1.178,-2.849 0,-1.074 0.418,-2.087 1.178,-2.845 L 55.86,31.673 c 1.571,-1.57 4.126,-1.57 5.695,0 l 42.802,42.804 c 0.786,0.785 1.179,1.815 1.179,2.847 0,1.032 -0.393,2.063 -1.179,2.847 L 89.861,94.667 c -1.57,1.57 -4.124,1.57 -5.693,0 z"
   style="fill:url(#XMLID_8_)"
   id="path17" />&#10;				<linearGradient
   id="XMLID_9_"
   gradientUnits="userSpaceOnUse"
   x1="-98.983902"
   y1="-47.333"
   x2="-98.983902"
   y2="-30.805099"
   gradientTransform="matrix(0.7071,0.7071,-0.7071,0.7071,88.8026,132.916)">&#10;					<stop
   offset="0.0337"
   style="stop-color:rgb(255,255,255)"
   id="stop18" />&#10;					<stop
   offset="1"
   style="stop-color:rgb(178,178,178)"
   id="stop19" />&#10;					<a:midPointStop
   offset="0.0337"
   style="stop-color:#FFFFFF" />&#10;					<a:midPointStop
   offset="0.5"
   style="stop-color:#FFFFFF" />&#10;					<a:midPointStop
   offset="1"
   style="stop-color:#B2B2B2" />&#10;				</linearGradient>&#10;				<path
   d="M 22.421,24.177 57.56,59.314 69.006,47.868 33.867,12.73 Z"
   style="fill:url(#XMLID_9_)"
   id="path19" />&#10;				<linearGradient
   id="XMLID_10_"
   gradientUnits="userSpaceOnUse"
   x1="-100.141"
   y1="-26.2251"
   x2="-100.141"
   y2="-45.0839"
   gradientTransform="matrix(0.7071,0.7071,-0.7071,0.7071,88.8026,132.916)">&#10;					<stop
   offset="0"
   style="stop-color:rgb(158,158,158)"
   id="stop20" />&#10;					<stop
   offset="1"
   style="stop-color:rgb(97,97,97)"
   id="stop21" />&#10;					<a:midPointStop
   offset="0"
   style="stop-color:#9E9E9E" />&#10;					<a:midPointStop
   offset="0.5"
   style="stop-color:#9E9E9E" />&#10;					<a:midPointStop
   offset="1"
   style="stop-color:#616161" />&#10;				</linearGradient>&#10;				<path
   d="m 32.168,8.734 c -0.142,0 -0.278,0.056 -0.377,0.157 l -13.208,13.21 c -0.209,0.207 -0.209,0.546 0,0.753 l 38.66,38.662 c 0.209,0.209 0.546,0.209 0.755,0 L 71.206,48.307 c 0.209,-0.209 0.209,-0.546 0,-0.755 L 32.547,8.892 c -0.1,-0.1 -0.238,-0.158 -0.379,-0.158 z m 0,1.291 C 32.903,10.759 69.339,47.197 70.072,47.931 69.383,48.622 58.313,59.689 57.619,60.383 56.886,59.649 20.448,23.213 19.715,22.479 20.409,21.787 31.477,10.717 32.168,10.025 Z"
   style="fill:url(#XMLID_10_)"
   id="path21" />&#10;				<path
   d="M 62.292,70.643 54.237,62.59 72.279,44.547 80.334,52.601 Z"
   id="path22" />&#10;				<linearGradient
   id="XMLID_11_"
   gradientUnits="userSpaceOnUse"
   x1="-69.578598"
   y1="-57.887699"
   x2="-68.197403"
   y2="-33.0303"
   gradientTransform="matrix(0.7071,0.7071,-0.7071,0.7071,88.8026,132.916)">&#10;					<stop
   offset="0"
   style="stop-color:rgb(255,255,255)"
   id="stop22" />&#10;					<stop
   offset="1"
   style="stop-color:rgb(0,0,0)"
   id="stop23" />&#10;					<a:midPointStop
   offset="0"
   style="stop-color:#FFFFFF" />&#10;					<a:midPointStop
   offset="0.5"
   style="stop-color:#FFFFFF" />&#10;					<a:midPointStop
   offset="1"
   style="stop-color:#000000" />&#10;				</linearGradient>&#10;				<path
   d="M 71.901,44.168 53.86,62.21 c -0.209,0.209 -0.209,0.548 0,0.756 l 8.055,8.053 c 0.207,0.209 0.546,0.209 0.755,0 L 80.71,52.98 c 0.209,-0.208 0.209,-0.547 0,-0.755 l -8.053,-8.056 c -0.102,-0.098 -0.236,-0.157 -0.379,-0.157 -0.141,0 -0.279,0.058 -0.377,0.156 z m 0.377,1.134 c 0.652,0.652 6.647,6.647 7.298,7.299 C 78.869,53.309 62.999,69.178 62.291,69.886 61.639,69.232 55.646,63.24 54.993,62.59 55.703,61.879 71.569,46.01 72.278,45.302 Z"
   style="fill:url(#XMLID_11_)"
   id="path23" />&#10;				<linearGradient
   id="XMLID_12_"
   gradientUnits="userSpaceOnUse"
   x1="-68.484901"
   y1="4.0405002"
   x2="-68.484901"
   y2="-39.910801"
   gradientTransform="matrix(0.7071,0.7071,-0.7071,0.7071,88.8026,132.916)">&#10;					<stop
   offset="0"
   style="stop-color:rgb(255,255,255)"
   id="stop24" />&#10;					<stop
   offset="1"
   style="stop-color:rgb(0,0,0)"
   id="stop25" />&#10;					<a:midPointStop
   offset="0"
   style="stop-color:#FFFFFF" />&#10;					<a:midPointStop
   offset="0.5"
   style="stop-color:#FFFFFF" />&#10;					<a:midPointStop
   offset="1"
   style="stop-color:#000000" />&#10;				</linearGradient>&#10;				<path
   d="M 70.495,46.802 54.994,62.306 c -0.18,0.178 -0.18,0.469 0,0.65 l 6.921,6.92 c 0.178,0.178 0.469,0.178 0.647,0 L 78.065,54.373 c 0.179,-0.178 0.179,-0.469 0,-0.651 l -6.921,-6.92 c -0.086,-0.085 -0.202,-0.135 -0.323,-0.135 -0.122,0.002 -0.24,0.049 -0.326,0.135 z m 0.326,0.973 c 0.56,0.562 5.708,5.712 6.27,6.272 -0.609,0.61 -14.244,14.244 -14.854,14.853 -0.558,-0.56 -5.71,-5.71 -6.269,-6.27 0.61,-0.609 14.243,-14.246 14.853,-14.855 z"
   style="fill:url(#XMLID_12_)"
   id="path25" />&#10;				<linearGradient
   id="XMLID_13_"
   gradientUnits="userSpaceOnUse"
   x1="-98.0933"
   y1="-46.119099"
   x2="-98.0933"
   y2="-33.036301"
   gradientTransform="matrix(0.7071,0.7071,-0.7071,0.7071,88.8026,132.916)">&#10;					<stop
   offset="10.9195%"
   style="stop-color:rgb(255,255,255)"
   id="stop26" />&#10;					<stop
   offset="100%"
   style="stop-opacity:0;stop-color:rgb(255,255,255)"
   id="stop27" />&#10;				</linearGradient>&#10;				<path
   a:adobe-blending-mode="screen"
   d="m 35.004,14.877 -4.688,4.688 c 4.127,6.165 9.488,12.697 15.829,19.039 5.633,5.631 11.415,10.492 16.959,14.401 l 5.013,-5.015 z"
   style="fill:url(#XMLID_13_)"
   id="path27" />&#10;				<g
   id="g35">&#10;					<linearGradient
   id="XMLID_14_"
   gradientUnits="userSpaceOnUse"
   x1="-94.235802"
   y1="-24.8867"
   x2="-94.235802"
   y2="-75.324402"
   gradientTransform="matrix(0.7071,0.7071,-0.7071,0.7071,88.8026,132.916)">&#10;						<stop
   offset="0.0337"
   style="stop-color:rgb(255,255,255)"
   id="stop28" />&#10;						<stop
   offset="1"
   style="stop-color:rgb(178,178,178)"
   id="stop29" />&#10;					</linearGradient>&#10;					<path
   d="m 38.944,56.489 c -1.781,1.783 -4.669,1.783 -6.45,0 l -0.533,-0.532 c -1.781,-1.781 -1.781,-4.668 0,-6.451 L 59.199,22.27 c 1.781,-1.782 4.668,-1.782 6.45,0 l 0.531,0.533 c 1.781,1.78 1.783,4.668 0.002,6.448 z"
   style="fill:url(#XMLID_14_)"
   id="path29" />&#10;					<linearGradient
   id="XMLID_15_"
   gradientUnits="userSpaceOnUse"
   x1="-94.234398"
   y1="-63.538101"
   x2="-94.234398"
   y2="-18.1689"
   gradientTransform="matrix(0.7071,0.7071,-0.7071,0.7071,88.8026,132.916)">&#10;						<stop
   offset="0.0337"
   style="stop-color:rgb(255,255,255)"
   id="stop30" />&#10;						<stop
   offset="1"
   style="stop-color:rgb(178,178,178)"
   id="stop31" />&#10;					</linearGradient>&#10;					<path
   d="m 65.046,23.936 -0.531,-0.532 c -1.152,-1.152 -3.03,-1.152 -4.182,0 L 33.095,50.642 c -1.154,1.151 -1.154,3.029 0,4.183 l 0.531,0.532 c 1.154,1.152 3.03,1.152 4.184,0 L 65.048,28.12 C 66.2,26.965 66.2,25.09 65.046,23.936 Z"
   style="fill:url(#XMLID_15_)"
   id="path31" />&#10;					<linearGradient
   id="XMLID_16_"
   gradientUnits="userSpaceOnUse"
   x1="-94.235397"
   y1="-60.474098"
   x2="-94.235397"
   y2="-34.088501"
   gradientTransform="matrix(0.7071,0.7071,-0.7071,0.7071,88.8026,132.916)">&#10;						<stop
   offset="14.3678%"
   style="stop-color:rgb(255,255,255)"
   id="stop32" />&#10;						<stop
   offset="100%"
   style="stop-opacity:0;stop-color:rgb(255,255,255)"
   id="stop33" />&#10;					</linearGradient>&#10;					<path
   a:adobe-blending-mode="screen"
   d="m 64.102,24.667 -0.32,-0.318 c -0.69,-0.691 -1.815,-0.691 -2.507,0 L 42.73,42.895 c -0.692,0.691 -0.692,1.815 0,2.505 l 0.319,0.321 c 0.692,0.691 1.817,0.691 2.507,0 L 64.101,27.176 c 0.693,-0.691 0.691,-1.815 0.001,-2.509 z"
   style="fill:url(#XMLID_16_)"
   id="path33" />&#10;					<linearGradient
   id="XMLID_17_"
   gradientUnits="userSpaceOnUse"
   x1="-94.235802"
   y1="-8.8910999"
   x2="-94.235802"
   y2="-55.406101"
   gradientTransform="matrix(0.7071,0.7071,-0.7071,0.7071,88.8026,132.916)">&#10;						<stop
   offset="0"
   style="stop-color:rgb(158,158,158)"
   id="stop34" />&#10;						<stop
   offset="1"
   style="stop-color:rgb(97,97,97)"
   id="stop35" />&#10;					</linearGradient>&#10;					<path
   d="M 58.82,21.892 31.583,49.129 c -0.962,0.963 -1.492,2.242 -1.492,3.603 0,1.36 0.529,2.64 1.492,3.602 l 0.533,0.535 c 1.987,1.985 5.219,1.985 7.206,0 L 66.558,29.63 c 1.987,-1.987 1.987,-5.219 0,-7.205 l -0.53,-0.534 C 64.04,19.907 60.807,19.904 58.82,21.892 Z m -25.949,34.22 -0.533,-0.531 c -1.569,-1.572 -1.569,-4.126 0,-5.696 L 59.575,22.647 c 1.571,-1.569 4.124,-1.569 5.695,0 l 0.532,0.533 c 1.57,1.572 1.57,4.125 0,5.695 L 38.565,56.112 c -1.57,1.57 -4.124,1.57 -5.694,0 z"
   style="fill:url(#XMLID_17_)"
   id="path35" />&#10;				</g>&#10;				<path
   d="M 36.719,13.82 32.168,9.27 18.96,22.478 l 8.226,8.225 c 0.262,-0.25 0.531,-0.486 0.79,-0.745 5.122,-5.123 8.187,-11.108 8.743,-16.138 z"
   style="opacity:0.2"
   id="path36" />&#10;				<g
   id="g43">&#10;					<linearGradient
   id="XMLID_18_"
   gradientUnits="userSpaceOnUse"
   x1="-127.007"
   y1="-27.0513"
   x2="-127.007"
   y2="-69.192001"
   gradientTransform="matrix(0.7071,0.7071,-0.7071,0.7071,88.8026,132.916)">&#10;						<stop
   offset="0.0337"
   style="stop-color:rgb(255,255,255)"
   id="stop36" />&#10;						<stop
   offset="1"
   style="stop-color:rgb(178,178,178)"
   id="stop37" />&#10;					</linearGradient>&#10;					<path
   d="m 18.542,30.545 c -1.783,1.781 -4.669,1.781 -6.452,0 l -0.531,-0.532 c -1.781,-1.78 -1.781,-4.669 0,-6.451 L 33.256,1.868 c 1.781,-1.781 4.667,-1.781 6.448,0 l 0.533,0.534 c 1.781,1.781 1.781,4.668 0,6.449 z"
   style="fill:url(#XMLID_18_)"
   id="path37" />&#10;					<linearGradient
   id="XMLID_19_"
   gradientUnits="userSpaceOnUse"
   x1="-127.006"
   y1="-59.0425"
   x2="-127.006"
   y2="-21.675301"
   gradientTransform="matrix(0.7071,0.7071,-0.7071,0.7071,88.8026,132.916)">&#10;						<stop
   offset="0.0337"
   style="stop-color:rgb(255,255,255)"
   id="stop38" />&#10;						<stop
   offset="1"
   style="stop-color:rgb(178,178,178)"
   id="stop39" />&#10;					</linearGradient>&#10;					<path
   d="M 39.103,3.534 38.572,3.002 c -1.154,-1.154 -3.03,-1.154 -4.183,0 L 12.693,24.698 c -1.154,1.151 -1.154,3.029 0,4.183 l 0.533,0.532 c 1.153,1.153 3.03,1.153 4.183,-0.001 L 39.105,7.716 c 1.151,-1.152 1.151,-3.03 -0.002,-4.182 z"
   style="fill:url(#XMLID_19_)"
   id="path39" />&#10;					<linearGradient
   id="XMLID_20_"
   gradientUnits="userSpaceOnUse"
   x1="-127.007"
   y1="-56.188499"
   x2="-127.007"
   y2="-36.746601"
   gradientTransform="matrix(0.7071,0.7071,-0.7071,0.7071,88.8026,132.916)">&#10;						<stop
   offset="7.47126%"
   style="stop-color:rgb(255,255,255)"
   id="stop40" />&#10;						<stop
   offset="100%"
   style="stop-opacity:0;stop-color:rgb(255,255,255)"
   id="stop41" />&#10;					</linearGradient>&#10;					<path
   a:adobe-blending-mode="screen"
   d="M 38.158,4.264 37.84,3.948 c -0.692,-0.691 -1.816,-0.691 -2.508,0 L 22.327,16.951 c -0.69,0.691 -0.69,1.815 0,2.508 l 0.32,0.319 c 0.692,0.692 1.815,0.692 2.507,-0.002 L 38.158,6.772 c 0.692,-0.691 0.69,-1.814 0,-2.508 z"
   style="fill:url(#XMLID_20_)"
   id="path41" />&#10;					<linearGradient
   id="XMLID_21_"
   gradientUnits="userSpaceOnUse"
   x1="-127.007"
   y1="-13.582"
   x2="-127.007"
   y2="-52.612598"
   gradientTransform="matrix(0.7071,0.7071,-0.7071,0.7071,88.8026,132.916)">&#10;						<stop
   offset="0"
   style="stop-color:rgb(158,158,158)"
   id="stop42" />&#10;						<stop
   offset="1"
   style="stop-color:rgb(97,97,97)"
   id="stop43" />&#10;					</linearGradient>&#10;					<path
   d="M 32.877,1.491 11.181,23.186 c -0.962,0.962 -1.492,2.242 -1.492,3.603 0,1.361 0.529,2.64 1.493,3.602 l 0.531,0.534 c 1.987,1.985 5.22,1.985 7.204,0 L 40.615,9.228 C 42.6,7.243 42.6,4.01 40.615,2.023 L 40.083,1.491 c -1.987,-1.988 -5.221,-1.988 -7.206,0 z M 12.469,30.169 11.936,29.635 c -1.571,-1.57 -1.571,-4.124 0,-5.693 L 33.633,2.247 c 1.569,-1.57 4.124,-1.57 5.695,0 l 0.531,0.532 c 1.571,1.569 1.571,4.123 0.002,5.693 L 18.162,30.169 c -1.569,1.57 -4.123,1.57 -5.693,0 z"
   style="fill:url(#XMLID_21_)"
   id="path43" />&#10;				</g>&#10;				<linearGradient
   id="XMLID_22_"
   gradientUnits="userSpaceOnUse"
   x1="-45.204102"
   y1="-43.917999"
   x2="-45.204102"
   y2="-21.0625"
   gradientTransform="matrix(0.7071,0.7071,-0.7071,0.7071,88.8026,132.914)">&#10;					<stop
   offset="0.0112"
   style="stop-color:rgb(199,98,0)"
   id="stop44" />&#10;					<stop
   offset="0.691"
   style="stop-color:rgb(255,207,0)"
   id="stop45" />&#10;					<stop
   offset="0.7788"
   style="stop-color:rgb(252,205,0)"
   id="stop46" />&#10;					<stop
   offset="0.8332"
   style="stop-color:rgb(244,197,0)"
   id="stop47" />&#10;					<stop
   offset="0.8786"
   style="stop-color:rgb(229,184,0)"
   id="stop48" />&#10;					<stop
   offset="0.9189"
   style="stop-color:rgb(209,165,0)"
   id="stop49" />&#10;					<stop
   offset="0.9559"
   style="stop-color:rgb(182,140,0)"
   id="stop50" />&#10;					<stop
   offset="0.99"
   style="stop-color:rgb(150,111,0)"
   id="stop51" />&#10;					<stop
   offset="1"
   style="stop-color:rgb(139,101,0)"
   id="stop52" />&#10;				</linearGradient>&#10;				<path
   d="M 102.14,74.246 80.714,52.822 62.347,71.189 83.771,92.615 c 1.564,1.562 4.094,1.562 5.657,0 L 102.14,79.903 c 1.562,-1.561 1.562,-4.092 0,-5.657 z"
   style="fill:url(#XMLID_22_)"
   id="path52" />&#10;				<linearGradient
   id="XMLID_23_"
   gradientUnits="userSpaceOnUse"
   x1="-58.153301"
   y1="-52.494598"
   x2="-58.153301"
   y2="-29.0826"
   gradientTransform="matrix(0.7071,0.7071,-0.7071,0.7071,88.8026,132.916)">&#10;					<stop
   offset="7.47126%"
   style="stop-color:rgb(255,255,255)"
   id="stop53" />&#10;					<stop
   offset="100%"
   style="stop-opacity:0;stop-color:rgb(255,255,255)"
   id="stop54" />&#10;				</linearGradient>&#10;				<path
   a:adobe-blending-mode="screen"
   d="m 103.603,75.23 c 0,0 -39.304,-39.302 -41.448,-41.447 -0.744,0.744 -3.443,3.441 -6.575,6.574 1.313,1.208 3.688,3.522 4.987,4.82 18.264,18.266 27.802,38.585 22.063,46.442 1.444,1.444 2.294,2.293 2.294,2.293 1.152,1.153 3.029,1.153 4.183,0 l 14.496,-14.496 c 1.154,-1.154 1.154,-3.029 0,-4.186 z"
   style="fill:url(#XMLID_23_)"
   id="path54" />&#10;				<path
   a:adobe-blending-mode="screen"
   d="M 89.539,93.457 46.278,50.196 48.546,47.929 91.807,91.19 Z"
   style="opacity:0.5;fill:#ffffff"
   id="path55" />&#10;			</g>&#10;			<g
   id="g138">&#10;				<path
   d="m 64.025,104.713 c -0.038,0 -0.076,0.002 -0.113,0.003 3.111,-2.691 5.737,-6.052 7.695,-9.897 1.841,-3.617 3.1,-7.652 3.617,-11.953 l 9.418,-0.229 -9.436,-8.9 C 73.188,57.566 60.794,45.12 45.795,45.12 30.944,45.12 18.638,57.322 16.439,73.259 L 5.909,83.445 16.475,83.71 c 0.628,4.365 2.033,8.431 4.023,12.051 -0.017,0.3 -0.053,0.593 -0.063,0.895 1.947,3.256 4.4,6.097 7.224,8.401 -6.566,0.369 -11.645,2.657 -11.645,5.425 0,3.021 6.054,5.481 13.496,5.481 6.599,0 12.095,-1.936 13.256,-4.481 0.169,0.017 0.339,0.033 0.51,0.049 0.012,10e-4 0.026,0.003 0.038,0.004 v -10e-4 c 0.731,0.061 1.464,0.103 2.209,0.103 0.045,0 0.087,-0.006 0.13,-0.007 0.048,0.001 0.094,0.007 0.142,0.007 1.187,0 2.354,-0.095 3.502,-0.245 0.041,0.063 0.077,0.131 0.124,0.195 0.464,-0.083 0.919,-0.194 1.375,-0.3 1.249,2.502 6.704,4.393 13.228,4.393 7.439,0 13.494,-2.461 13.494,-5.483 0.002,-3.023 -6.053,-5.484 -13.493,-5.484 z"
   style="opacity:0.15"
   id="path56" />&#10;				<g
   id="g137">&#10;					<path
   d="m 10.816,73.836 c 0.065,-0.061 0.104,-0.141 0.116,-0.228 2.188,-15.846 14.635,-27.794 28.954,-27.794 14.526,0 26.996,12.151 29.009,28.266 0.01,0.091 0.053,0.174 0.119,0.237 0,0 7.538,7.112 8.737,8.243 -1.564,0.037 -8.445,0.205 -8.445,0.205 -0.202,0.005 -0.37,0.156 -0.395,0.352 -0.503,4.167 -1.706,8.146 -3.578,11.821 -5.209,10.237 -14.962,16.598 -25.447,16.598 -9.783,0 -18.881,-5.453 -24.339,-14.585 -2.367,-3.955 -3.907,-8.328 -4.58,-12.997 -0.028,-0.193 -0.194,-0.337 -0.393,-0.342 0,0 -8.031,-0.202 -9.61,-0.242 1.187,-1.145 9.852,-9.534 9.852,-9.534 z"
   id="path57" />&#10;					<linearGradient
   id="XMLID_24_"
   gradientUnits="userSpaceOnUse"
   x1="39.336399"
   y1="136.621"
   x2="39.336399"
   y2="73.502602">&#10;						<stop
   offset="0"
   style="stop-color:rgb(255,255,255)"
   id="stop57" />&#10;						<stop
   offset="0.2033"
   style="stop-color:rgb(194,194,194)"
   id="stop58" />&#10;						<stop
   offset="0.494"
   style="stop-color:rgb(112,112,112)"
   id="stop59" />&#10;						<stop
   offset="0.733"
   style="stop-color:rgb(51,51,51)"
   id="stop60" />&#10;						<stop
   offset="0.9078"
   style="stop-color:rgb(14,14,14)"
   id="stop61" />&#10;						<stop
   offset="1"
   style="stop-color:rgb(0,0,0)"
   id="stop62" />&#10;						<a:midPointStop
   offset="0"
   style="stop-color:#FFFFFF" />&#10;						<a:midPointStop
   offset="0.435"
   style="stop-color:#FFFFFF" />&#10;						<a:midPointStop
   offset="1"
   style="stop-color:#000000" />&#10;					</linearGradient>&#10;					<path
   d="M 68.354,74.985 C 68.129,74.775 67.988,74.494 67.95,74.192 65.996,58.543 53.931,46.742 39.886,46.742 c -13.846,0 -25.888,11.603 -28.01,26.989 -0.041,0.289 -0.178,0.559 -0.391,0.765 0,0 -5.484,5.306 -8.272,8.004 3.109,0.078 7.385,0.186 7.385,0.186 0.665,0.017 1.218,0.499 1.311,1.14 0.654,4.55 2.154,8.807 4.458,12.658 5.287,8.844 14.079,14.125 23.519,14.125 10.122,0 19.547,-6.162 24.597,-16.081 1.824,-3.582 2.995,-7.458 3.485,-11.52 0.079,-0.653 0.639,-1.151 1.313,-1.17 0,0 3.39,-0.082 6.178,-0.149 -2.641,-2.494 -7.105,-6.704 -7.105,-6.704 z"
   style="fill:url(#XMLID_24_)"
   id="path62" />&#10;					<linearGradient
   id="XMLID_25_"
   gradientUnits="userSpaceOnUse"
   x1="40.127399"
   y1="42.033699"
   x2="40.127399"
   y2="72.853302">&#10;						<stop
   offset="0"
   style="stop-color:rgb(255,255,255)"
   id="stop63" />&#10;						<stop
   offset="1"
   style="stop-color:rgb(0,0,0)"
   id="stop64" />&#10;						<a:midPointStop
   offset="0"
   style="stop-color:#FFFFFF" />&#10;						<a:midPointStop
   offset="0.5"
   style="stop-color:#FFFFFF" />&#10;						<a:midPointStop
   offset="1"
   style="stop-color:#000000" />&#10;					</linearGradient>&#10;					<path
   a:adobe-blending-mode="screen"
   d="m 61.569,62.088 c 0,8.533 -9.6,15.449 -21.441,15.449 -11.841,0 -21.442,-6.916 -21.442,-15.449 0,-8.533 9.6,-15.45 21.442,-15.45 11.842,0 21.441,6.917 21.441,15.45 z"
   style="fill:url(#XMLID_25_)"
   id="path64" />&#10;					<path
   d="m 42.333,61.131 c 0,0.442 -0.327,0.798 -0.73,0.798 -0.406,0 -0.733,-0.356 -0.733,-0.798 0,-0.439 0.327,-0.795 0.733,-0.795 0.403,0 0.73,0.356 0.73,0.795 z"
   style="fill:#ffffff"
   id="path65" />&#10;					<linearGradient
   id="XMLID_26_"
   gradientUnits="userSpaceOnUse"
   x1="34.616199"
   y1="85.486298"
   x2="60.3652"
   y2="111.235">&#10;						<stop
   offset="0.0056"
   style="stop-color:rgb(255,255,255)"
   id="stop65" />&#10;						<stop
   offset="0.2355"
   style="stop-color:rgb(223,223,223)"
   id="stop66" />&#10;						<stop
   offset="0.5725"
   style="stop-color:rgb(182,182,182)"
   id="stop67" />&#10;						<stop
   offset="0.839"
   style="stop-color:rgb(157,157,157)"
   id="stop68" />&#10;						<stop
   offset="1"
   style="stop-color:rgb(148,148,148)"
   id="stop69" />&#10;						<a:midPointStop
   offset="0.0056"
   style="stop-color:#FFFFFF" />&#10;						<a:midPointStop
   offset="0.4035"
   style="stop-color:#FFFFFF" />&#10;						<a:midPointStop
   offset="1"
   style="stop-color:#949494" />&#10;					</linearGradient>&#10;					<path
   d="m 56.112,74.213 c -4.344,-4.311 -9.864,-6.895 -15.875,-6.895 -7.431,0 -14.109,3.948 -18.744,10.227 -3.859,5.226 -6.301,12.067 -6.57,19.605 5.327,8.912 14.394,14.783 24.69,14.783 11.063,0 20.702,-6.776 25.813,-16.817 -0.748,-8.433 -4.224,-15.853 -9.314,-20.903 z"
   style="fill:url(#XMLID_26_)"
   id="path69" />&#10;					<linearGradient
   id="XMLID_27_"
   gradientUnits="userSpaceOnUse"
   x1="30.4517"
   y1="81.2705"
   x2="60.158699"
   y2="111.184">&#10;						<stop
   offset="0.0056"
   style="stop-color:rgb(255,255,255)"
   id="stop70" />&#10;						<stop
   offset="0.0486"
   style="stop-color:rgb(247,247,247)"
   id="stop71" />&#10;						<stop
   offset="0.3721"
   style="stop-color:rgb(191,191,191)"
   id="stop72" />&#10;						<stop
   offset="0.6499"
   style="stop-color:rgb(150,150,150)"
   id="stop73" />&#10;						<stop
   offset="0.8682"
   style="stop-color:rgb(124,124,124)"
   id="stop74" />&#10;						<stop
   offset="1"
   style="stop-color:rgb(115,115,115)"
   id="stop75" />&#10;						<a:midPointStop
   offset="0.0056"
   style="stop-color:#FFFFFF" />&#10;						<a:midPointStop
   offset="0.4035"
   style="stop-color:#FFFFFF" />&#10;						<a:midPointStop
   offset="1"
   style="stop-color:#737373" />&#10;					</linearGradient>&#10;					<path
   d="m 56.112,74.213 c -4.344,-4.311 -9.864,-6.895 -15.875,-6.895 -7.431,0 -14.109,3.948 -18.744,10.227 -3.859,5.226 -6.301,12.067 -6.57,19.605 5.327,8.912 14.394,14.783 24.69,14.783 11.063,0 20.702,-6.776 25.813,-16.817 -0.748,-8.433 -4.224,-15.853 -9.314,-20.903 z"
   style="fill:url(#XMLID_27_)"
   id="path75" />&#10;					<linearGradient
   id="XMLID_28_"
   gradientUnits="userSpaceOnUse"
   x1="28.6943"
   y1="58.936501"
   x2="39.653702"
   y2="69.895798">&#10;						<stop
   offset="0.0337"
   style="stop-color:rgb(255,255,255)"
   id="stop76" />&#10;						<stop
   offset="1"
   style="stop-color:rgb(148,148,148)"
   id="stop77" />&#10;						<a:midPointStop
   offset="0.0337"
   style="stop-color:#FFFFFF" />&#10;						<a:midPointStop
   offset="0.5"
   style="stop-color:#FFFFFF" />&#10;						<a:midPointStop
   offset="1"
   style="stop-color:#949494" />&#10;					</linearGradient>&#10;					<path
   d="m 40.237,61.235 c 0,5.489 -4.138,9.936 -9.244,9.936 -5.105,0 -9.245,-4.447 -9.245,-9.936 0,-5.488 4.14,-9.936 9.245,-9.936 5.106,0 9.244,4.448 9.244,9.936 z"
   style="fill:url(#XMLID_28_)"
   id="path77" />&#10;					<linearGradient
   id="XMLID_29_"
   gradientUnits="userSpaceOnUse"
   x1="47.278301"
   y1="59.949699"
   x2="56.786999"
   y2="69.458298">&#10;						<stop
   offset="0.0337"
   style="stop-color:rgb(255,255,255)"
   id="stop78" />&#10;						<stop
   offset="1"
   style="stop-color:rgb(148,148,148)"
   id="stop79" />&#10;						<a:midPointStop
   offset="0.0337"
   style="stop-color:#FFFFFF" />&#10;						<a:midPointStop
   offset="0.5"
   style="stop-color:#FFFFFF" />&#10;						<a:midPointStop
   offset="1"
   style="stop-color:#949494" />&#10;					</linearGradient>&#10;					<path
   d="m 58.31,61.944 c 0,4.201 -4.045,7.604 -9.036,7.604 -4.991,0 -9.037,-3.403 -9.037,-7.604 0,-4.2 4.045,-7.605 9.037,-7.605 4.99,0 9.036,3.406 9.036,7.605 z"
   style="fill:url(#XMLID_29_)"
   id="path79" />&#10;					<linearGradient
   id="XMLID_30_"
   gradientUnits="userSpaceOnUse"
   x1="37.328602"
   y1="66.874001"
   x2="37.328602"
   y2="61.062901">&#10;						<stop
   offset="0"
   style="stop-color:rgb(255,255,255)"
   id="stop80" />&#10;						<stop
   offset="0.2033"
   style="stop-color:rgb(194,194,194)"
   id="stop81" />&#10;						<stop
   offset="0.494"
   style="stop-color:rgb(112,112,112)"
   id="stop82" />&#10;						<stop
   offset="0.733"
   style="stop-color:rgb(51,51,51)"
   id="stop83" />&#10;						<stop
   offset="0.9078"
   style="stop-color:rgb(14,14,14)"
   id="stop84" />&#10;						<stop
   offset="1"
   style="stop-color:rgb(0,0,0)"
   id="stop85" />&#10;					</linearGradient>&#10;					<path
   d="m 40.03,61.54 c 0,1.623 -1.209,2.939 -2.701,2.939 -1.492,0 -2.701,-1.316 -2.701,-2.939 0,-1.625 1.209,-2.941 2.701,-2.941 1.492,0 2.701,1.317 2.701,2.941 z"
   style="fill:url(#XMLID_30_)"
   id="path85" />&#10;					<path
   d="m 37.464,60.685 c 0,0.553 -0.411,1.001 -0.918,1.001 -0.507,0 -0.918,-0.448 -0.918,-1.001 0,-0.551 0.411,-0.999 0.918,-0.999 0.507,0 0.918,0.448 0.918,0.999 z"
   style="fill:#ffffff"
   id="path86" />&#10;					<linearGradient
   id="XMLID_31_"
   gradientUnits="userSpaceOnUse"
   x1="42.306198"
   y1="65.736298"
   x2="42.306198"
   y2="61.730999">&#10;						<stop
   offset="0"
   style="stop-color:rgb(255,255,255)"
   id="stop86" />&#10;						<stop
   offset="0.2033"
   style="stop-color:rgb(194,194,194)"
   id="stop87" />&#10;						<stop
   offset="0.494"
   style="stop-color:rgb(112,112,112)"
   id="stop88" />&#10;						<stop
   offset="0.733"
   style="stop-color:rgb(51,51,51)"
   id="stop89" />&#10;						<stop
   offset="0.9078"
   style="stop-color:rgb(14,14,14)"
   id="stop90" />&#10;						<stop
   offset="1"
   style="stop-color:rgb(0,0,0)"
   id="stop91" />&#10;					</linearGradient>&#10;					<path
   d="m 44.167,62.06 c 0,1.119 -0.834,2.026 -1.861,2.026 -1.026,0 -1.862,-0.907 -1.862,-2.026 0,-1.119 0.835,-2.027 1.862,-2.027 1.027,0 1.861,0.907 1.861,2.027 z"
   style="fill:url(#XMLID_31_)"
   id="path91" />&#10;					<path
   d="m 42.077,61.737 c 0,0.406 -0.303,0.738 -0.679,0.738 -0.375,0 -0.678,-0.332 -0.678,-0.738 0,-0.411 0.303,-0.74 0.678,-0.74 0.375,0 0.679,0.33 0.679,0.74 z"
   style="fill:#ffffff"
   id="path92" />&#10;					<linearGradient
   id="XMLID_32_"
   gradientUnits="userSpaceOnUse"
   x1="44.410198"
   y1="72.811501"
   x2="42.082199"
   y2="71.168297">&#10;						<stop
   offset="0.0337"
   style="stop-color:rgb(255,255,255)"
   id="stop92" />&#10;						<stop
   offset="1"
   style="stop-color:rgb(128,128,128)"
   id="stop93" />&#10;					</linearGradient>&#10;					<path
   a:adobe-blending-mode="multiply"
   d="m 32.966,68.387 c 0,0 4.813,-1.068 7.658,-1.068 2.841,0 7.435,1.068 7.435,1.068 l -7.435,8.754 z"
   style="opacity:0.4;fill:url(#XMLID_32_)"
   id="path93" />&#10;					<linearGradient
   id="XMLID_33_"
   gradientUnits="userSpaceOnUse"
   x1="44.062"
   y1="71.923798"
   x2="37.413898"
   y2="68.5998">&#10;						<stop
   offset="0"
   style="stop-color:rgb(255,139,0)"
   id="stop94" />&#10;						<stop
   offset="0.2022"
   style="stop-color:rgb(255,194,0)"
   id="stop95" />&#10;						<stop
   offset="1"
   style="stop-color:rgb(255,255,0)"
   id="stop96" />&#10;					</linearGradient>&#10;					<path
   d="m 32.343,67.362 c 0,0 4.77,-1.06 7.587,-1.06 2.818,0 7.37,1.06 7.37,1.06 l -7.37,8.676 z"
   style="fill:url(#XMLID_33_)"
   id="path96" />&#10;					<linearGradient
   id="XMLID_34_"
   gradientUnits="userSpaceOnUse"
   x1="39.366699"
   y1="128.164"
   x2="39.366699"
   y2="102.728">&#10;					</linearGradient>&#10;					<linearGradient
   id="XMLID_35_"
   gradientUnits="userSpaceOnUse"
   x1="39.775902"
   y1="97.717796"
   x2="39.775902"
   y2="109.257">&#10;						<stop
   offset="0.0337"
   style="stop-color:rgb(255,255,255)"
   id="stop97" />&#10;						<stop
   offset="1"
   style="stop-color:rgb(178,178,178)"
   id="stop98" />&#10;					</linearGradient>&#10;					<path
   a:adobe-blending-mode="multiply"
   d="m 39.352,104.481 c -10.595,0 -19.767,-5.271 -24.244,-12.953 -0.318,1.757 -0.517,3.569 -0.584,5.425 5.328,8.909 14.396,14.78 24.692,14.78 11.063,0 20.702,-6.775 25.812,-16.816 -0.144,-1.607 -0.387,-3.181 -0.721,-4.707 -4.156,8.394 -13.765,14.271 -24.955,14.271 z"
   style="opacity:0.4;fill:url(#XMLID_35_)"
   id="path98" />&#10;					<g
   id="g136">&#10;						<path
   d="m 56.819,104.678 c -7.652,0 -13.857,2.524 -13.857,5.636 0,0.546 0.193,1.072 0.55,1.571 5.419,-0.979 10.386,-3.51 14.548,-7.183 -0.41,-0.014 -0.823,-0.024 -1.241,-0.024 z"
   style="opacity:0.2"
   id="path99" />&#10;						<path
   d="m 25.389,104.866 c -1.262,0 -2.48,0.076 -3.631,0.215 4.419,3.82 9.795,6.257 15.646,6.751 0.493,-0.552 0.764,-1.149 0.764,-1.771 0,-2.871 -5.721,-5.195 -12.779,-5.195 z"
   style="opacity:0.2"
   id="path100" />&#10;						<g
   id="g117">&#10;							<linearGradient
   id="XMLID_36_"
   gradientUnits="userSpaceOnUse"
   x1="58.1138"
   y1="117.172"
   x2="58.1138"
   y2="103.197">&#10;								<stop
   offset="0"
   style="stop-color:rgb(255,194,0)"
   id="stop100" />&#10;								<stop
   offset="0.1548"
   style="stop-color:rgb(247,181,0)"
   id="stop101" />&#10;								<stop
   offset="0.716"
   style="stop-color:rgb(222,136,0)"
   id="stop102" />&#10;								<stop
   offset="1"
   style="stop-color:rgb(212,119,0)"
   id="stop103" />&#10;							</linearGradient>&#10;							<path
   d="m 44.618,110.494 c 0,3.021 6.054,5.483 13.496,5.483 7.441,0 13.494,-2.462 13.494,-5.483 0,-3.022 -6.053,-5.482 -13.494,-5.482 -7.442,0 -13.496,2.46 -13.496,5.482 z m 1.228,0 c 0,-2.748 5.503,-4.983 12.268,-4.983 6.766,0 12.269,2.235 12.269,4.983 0,2.748 -5.503,4.983 -12.269,4.983 -6.765,10e-4 -12.268,-2.235 -12.268,-4.983 z"
   style="fill:url(#XMLID_36_)"
   id="path103" />&#10;							<linearGradient
   id="XMLID_37_"
   gradientUnits="userSpaceOnUse"
   x1="58.1143"
   y1="108.082"
   x2="58.1143"
   y2="117.289">&#10;								<stop
   offset="0"
   style="stop-color:rgb(255,167,0)"
   id="stop104" />&#10;								<stop
   offset="0.691"
   style="stop-color:rgb(255,255,0)"
   id="stop105" />&#10;								<stop
   offset="0.792"
   style="stop-color:rgb(255,252,0)"
   id="stop106" />&#10;								<stop
   offset="0.8546"
   style="stop-color:rgb(255,244,0)"
   id="stop107" />&#10;								<stop
   offset="0.9067"
   style="stop-color:rgb(255,229,0)"
   id="stop108" />&#10;								<stop
   offset="0.953"
   style="stop-color:rgb(255,209,0)"
   id="stop109" />&#10;								<stop
   offset="0.9952"
   style="stop-color:rgb(255,183,0)"
   id="stop110" />&#10;								<stop
   offset="1"
   style="stop-color:rgb(255,179,0)"
   id="stop111" />&#10;								<a:midPointStop
   offset="0"
   style="stop-color:#FFA700" />&#10;								<a:midPointStop
   offset="0.5"
   style="stop-color:#FFA700" />&#10;								<a:midPointStop
   offset="0.691"
   style="stop-color:#FFFF00" />&#10;								<a:midPointStop
   offset="0.7952"
   style="stop-color:#FFFF00" />&#10;								<a:midPointStop
   offset="1"
   style="stop-color:#FFB300" />&#10;							</linearGradient>&#10;							<path
   d="m 70.996,110.494 c 0,2.891 -5.768,5.233 -12.882,5.233 -7.115,0 -12.881,-2.343 -12.881,-5.233 0,-2.89 5.767,-5.231 12.881,-5.231 7.115,0 12.882,2.341 12.882,5.231 z"
   style="fill:url(#XMLID_37_)"
   id="path111" />&#10;							<radialGradient
   id="XMLID_38_"
   cx="57.523399"
   cy="-1011.94"
   r="20.172199"
   fx="57.523399"
   fy="-1011.94"
   gradientTransform="matrix(1,0,0,0.4062,0,526.207)"
   gradientUnits="userSpaceOnUse">&#10;								<stop
   offset="0"
   style="stop-color:rgb(255,255,0)"
   id="stop112" />&#10;								<stop
   offset="0.1643"
   style="stop-color:rgb(255,241,0)"
   id="stop113" />&#10;								<stop
   offset="0.7192"
   style="stop-color:rgb(255,196,0)"
   id="stop114" />&#10;								<stop
   offset="1"
   style="stop-color:rgb(255,179,0)"
   id="stop115" />&#10;							</radialGradient>&#10;							<path
   d="m 69.838,111.367 c 0,2.175 -5.249,3.938 -11.724,3.938 -6.476,0 -11.724,-1.763 -11.724,-3.938 0,-2.174 5.248,-3.936 11.724,-3.936 6.475,0.001 11.724,1.762 11.724,3.936 z"
   style="fill:url(#XMLID_38_)"
   id="path115" />&#10;							<linearGradient
   id="XMLID_39_"
   gradientUnits="userSpaceOnUse"
   x1="58.1143"
   y1="105.751"
   x2="58.1143"
   y2="110.923">&#10;								<stop
   offset="0%"
   style="stop-opacity:0.94;stop-color:rgb(255,255,255)"
   id="stop116" />&#10;								<stop
   offset="100%"
   style="stop-opacity:0;stop-color:rgb(255,255,255)"
   id="stop117" />&#10;							</linearGradient>&#10;							<path
   a:adobe-blending-mode="screen"
   d="m 68.893,108.701 c 0,1.744 -4.825,3.159 -10.778,3.159 -5.953,0 -10.778,-1.415 -10.778,-3.159 0,-1.744 4.825,-3.158 10.778,-3.158 5.953,0 10.778,1.414 10.778,3.158 z"
   style="fill:url(#XMLID_39_)"
   id="path117" />&#10;						</g>&#10;						<g
   id="g135">&#10;							<linearGradient
   id="XMLID_40_"
   gradientUnits="userSpaceOnUse"
   x1="23.5991"
   y1="117.456"
   x2="23.5991"
   y2="103.483">&#10;								<stop
   offset="0"
   style="stop-color:rgb(255,194,0)"
   id="stop118" />&#10;								<stop
   offset="0.1548"
   style="stop-color:rgb(247,181,0)"
   id="stop119" />&#10;								<stop
   offset="0.716"
   style="stop-color:rgb(222,136,0)"
   id="stop120" />&#10;								<stop
   offset="1"
   style="stop-color:rgb(212,119,0)"
   id="stop121" />&#10;								<a:midPointStop
   offset="0"
   style="stop-color:#FFC200" />&#10;								<a:midPointStop
   offset="0.4463"
   style="stop-color:#FFC200" />&#10;								<a:midPointStop
   offset="1"
   style="stop-color:#D47700" />&#10;							</linearGradient>&#10;							<path
   d="m 10.104,110.779 c 0,3.022 6.054,5.482 13.496,5.482 7.442,0 13.495,-2.46 13.495,-5.482 0,-3.022 -6.053,-5.482 -13.495,-5.482 -7.442,0 -13.496,2.46 -13.496,5.482 z m 1.228,0 c 0,-2.748 5.503,-4.984 12.268,-4.984 6.765,0 12.268,2.236 12.268,4.984 0,2.748 -5.503,4.984 -12.268,4.984 -6.765,0 -12.268,-2.236 -12.268,-4.984 z"
   style="fill:url(#XMLID_40_)"
   id="path121" />&#10;							<linearGradient
   id="XMLID_41_"
   gradientUnits="userSpaceOnUse"
   x1="23.5996"
   y1="108.365"
   x2="23.5996"
   y2="117.574">&#10;								<stop
   offset="0"
   style="stop-color:rgb(255,167,0)"
   id="stop122" />&#10;								<stop
   offset="0.691"
   style="stop-color:rgb(255,255,0)"
   id="stop123" />&#10;								<stop
   offset="0.792"
   style="stop-color:rgb(255,252,0)"
   id="stop124" />&#10;								<stop
   offset="0.8546"
   style="stop-color:rgb(255,244,0)"
   id="stop125" />&#10;								<stop
   offset="0.9067"
   style="stop-color:rgb(255,229,0)"
   id="stop126" />&#10;								<stop
   offset="0.953"
   style="stop-color:rgb(255,209,0)"
   id="stop127" />&#10;								<stop
   offset="0.9952"
   style="stop-color:rgb(255,183,0)"
   id="stop128" />&#10;								<stop
   offset="1"
   style="stop-color:rgb(255,179,0)"
   id="stop129" />&#10;							</linearGradient>&#10;							<path
   d="m 36.481,110.779 c 0,2.892 -5.767,5.233 -12.881,5.233 -7.114,0 -12.881,-2.342 -12.881,-5.233 0,-2.889 5.767,-5.233 12.881,-5.233 7.114,0 12.881,2.345 12.881,5.233 z"
   style="fill:url(#XMLID_41_)"
   id="path129" />&#10;							<radialGradient
   id="XMLID_42_"
   cx="23.008801"
   cy="-1011.24"
   r="20.172199"
   fx="23.008801"
   fy="-1011.24"
   gradientTransform="matrix(1,0,0,0.4062,0,526.207)"
   gradientUnits="userSpaceOnUse">&#10;								<stop
   offset="0"
   style="stop-color:rgb(255,255,0)"
   id="stop130" />&#10;								<stop
   offset="0.1643"
   style="stop-color:rgb(255,241,0)"
   id="stop131" />&#10;								<stop
   offset="0.7192"
   style="stop-color:rgb(255,196,0)"
   id="stop132" />&#10;								<stop
   offset="1"
   style="stop-color:rgb(255,179,0)"
   id="stop133" />&#10;								<a:midPointStop
   offset="0"
   style="stop-color:#FFFF00" />&#10;								<a:midPointStop
   offset="0.4463"
   style="stop-color:#FFFF00" />&#10;								<a:midPointStop
   offset="1"
   style="stop-color:#FFB300" />&#10;							</radialGradient>&#10;							<path
   d="m 35.323,111.651 c 0,2.176 -5.248,3.937 -11.724,3.937 -6.476,0 -11.724,-1.761 -11.724,-3.937 0,-2.173 5.248,-3.935 11.724,-3.935 6.476,0 11.724,1.763 11.724,3.935 z"
   style="fill:url(#XMLID_42_)"
   id="path133" />&#10;							<linearGradient
   id="XMLID_43_"
   gradientUnits="userSpaceOnUse"
   x1="23.5996"
   y1="106.036"
   x2="23.5996"
   y2="111.208">&#10;								<stop
   offset="0%"
   style="stop-color:rgb(255,255,255)"
   id="stop134" />&#10;								<stop
   offset="100%"
   style="stop-opacity:0;stop-color:rgb(255,255,255)"
   id="stop135" />&#10;							</linearGradient>&#10;							<path
   a:adobe-blending-mode="screen"
   d="m 34.378,108.985 c 0,1.745 -4.825,3.16 -10.778,3.16 -5.953,0 -10.778,-1.415 -10.778,-3.16 0,-1.745 4.825,-3.157 10.778,-3.157 5.953,0 10.778,1.412 10.778,3.157 z"
   style="fill:url(#XMLID_43_)"
   id="path135" />&#10;						</g>&#10;					</g>&#10;					<path
   d="m 68.497,74.24 -5.57,8.157 5.57,-0.198 z"
   id="path136" />&#10;				</g>&#10;			</g>&#10;		</g>&#10;	</g>&#10;<metadata
   id="metadata1"><rdf:RDF><cc:License
       rdf:about="http://creativecommons.org/publicdomain/zero/1.0/"><cc:permits
         rdf:resource="http://creativecommons.org/ns#Reproduction" /><cc:permits
         rdf:resource="http://creativecommons.org/ns#Distribution" /><cc:permits
         rdf:resource="http://creativecommons.org/ns#DerivativeWorks" /></cc:License><cc:Work
       rdf:about=""><cc:license
         rdf:resource="http://creativecommons.org/publicdomain/zero/1.0/" /></cc:Work></rdf:RDF></metadata></svg>
