<?xml version="1.0" encoding="UTF-8" standalone="no"?>
<!-- Created with Inkscape (http://www.inkscape.org/) -->

<svg
   width="256mm"
   height="256mm"
   viewBox="0 0 256 256"
   version="1.1"
   id="svg1"
   inkscape:version="1.3.2 (091e20ef0f, 2023-11-25)"
   xml:space="preserve"
   sodipodi:docname="gwenview-w2k.svg"
   xmlns:inkscape="http://www.inkscape.org/namespaces/inkscape"
   xmlns:sodipodi="http://sodipodi.sourceforge.net/DTD/sodipodi-0.dtd"
   xmlns="http://www.w3.org/2000/svg"
   xmlns:svg="http://www.w3.org/2000/svg"
   xmlns:rdf="http://www.w3.org/1999/02/22-rdf-syntax-ns#"
   xmlns:cc="http://creativecommons.org/ns#"
   xmlns:dc="http://purl.org/dc/elements/1.1/"><defs
     id="defs1" /><sodipodi:namedview
     id="base"
     pagecolor="#ffffff"
     bordercolor="#000000"
     borderopacity="0.3"
     inkscape:pageopacity="0.0"
     inkscape:pageshadow="2"
     inkscape:zoom="0.98994949"
     inkscape:cx="505.07627"
     inkscape:cy="476.792"
     inkscape:document-units="mm"
     inkscape:showpageshadow="2"
     inkscape:pagecheckerboard="0"
     inkscape:deskcolor="#d1d1d1"
     inkscape:current-layer="svg1"
     showguides="true" /><metadata
     id="metadata1"><rdf:RDF><cc:Work
         rdf:about=""><dc:format>image/svg+xml</dc:format><dc:type
           rdf:resource="http://purl.org/dc/dcmitype/StillImage" /><cc:license
           rdf:resource="http://creativecommons.org/publicdomain/zero/1.0/" /></cc:Work><cc:License
         rdf:about="http://creativecommons.org/publicdomain/zero/1.0/"><cc:permits
           rdf:resource="http://creativecommons.org/ns#Reproduction" /><cc:permits
           rdf:resource="http://creativecommons.org/ns#Distribution" /><cc:permits
           rdf:resource="http://creativecommons.org/ns#DerivativeWorks" /></cc:License></rdf:RDF></metadata><g
     id="g1"><path
       style="fill:#e3ecf2"
       d="m 79.908887,219.61546 v -3.96489 H 71.979109 64.04933 v -3.96489 -3.96489 h -3.964889 -3.964889 v -3.96489 -3.96489 h 23.789335 23.789333 v 7.92978 7.92978 h -7.929775 -7.929779 v 3.96489 3.96489 h -3.964889 -3.96489 z m 103.087123,-7.92978 v -3.96489 h 3.96489 3.96489 v -3.96489 -3.96489 h 3.96489 3.96489 v 3.96489 3.96489 h -3.96489 -3.96489 v 3.96489 3.96489 h -3.96489 -3.96489 z M 40.259995,68.949665 v -3.964889 h 3.964889 3.964889 v -3.96489 -3.964889 h 3.964889 3.96489 v -3.964889 -3.96489 h 3.964889 3.964889 V 45.160329 41.19544 h 3.96489 3.964889 v 3.964889 3.964889 H 68.01422 64.04933 v 3.96489 3.964889 h -3.964889 -3.964889 v 3.964889 3.96489 h -3.96489 -3.964889 v 3.964889 3.964889 h -3.964889 -3.964889 z m 87.227565,0 v -3.964889 h 3.96489 3.96489 v -7.929779 -7.929779 h 7.92978 7.92977 V 37.230551 25.335883 h 3.96489 3.96489 v 3.964889 3.964889 h 7.92978 7.92978 v 3.96489 3.964889 h 7.92978 7.92978 v 3.964889 3.964889 h 3.96489 3.96489 v 3.96489 3.964889 h 3.96489 3.96488 v 3.964889 3.96489 h 3.96489 3.96489 v 3.964889 3.964889 h -43.61378 -43.61378 z"
       id="path38" /><path
       style="fill:#e0e9ee"
       d="m 151.27689,227.54524 v -3.96489 h 3.96489 3.96489 v 3.96489 3.96489 h -3.96489 -3.96489 z m -63.438224,-7.92978 v -3.96489 h 3.964889 3.96489 v 3.96489 3.96489 h -3.96489 -3.964889 z m 79.297784,0 v -3.96489 h 3.96489 3.96489 v -3.96489 -3.96489 h 3.96489 3.96489 v 3.96489 3.96489 h -3.96489 -3.96489 v 3.96489 3.96489 h -3.96489 -3.96489 z M 103.69822,203.7559 v -11.89467 h 3.96489 3.96489 v -3.96489 -3.96489 h 7.92978 7.92978 v 3.96489 3.96489 h -3.96489 -3.96489 v 7.92978 7.92978 h -3.96489 -3.96489 v 3.96489 3.96489 h -3.96489 -3.96489 z M 119.55778,68.949665 v -3.964889 h 3.96489 3.96489 v -3.96489 -3.964889 h 3.96489 3.96489 v 3.964889 3.96489 h -3.96489 -3.96489 v 3.964889 3.964889 h -3.96489 -3.96489 z M 56.119552,61.019886 v -3.964889 h 3.964889 3.964889 v 3.964889 3.96489 H 60.084441 56.119552 Z M 143.34712,41.19544 v -7.929779 h 3.96489 3.96488 v 7.929779 7.929778 h -3.96488 -3.96489 z"
       id="path37" /><path
       style="fill:#dae6f3"
       d="m 48.189773,68.949665 v -3.964889 h 7.929779 7.929778 v -7.929779 -7.929779 h 3.96489 3.964889 V 45.160329 41.19544 h 3.964889 3.964889 v -3.964889 -3.96489 h 7.929779 7.929779 v -3.964889 -3.964889 h 7.929775 7.92978 v 3.964889 3.964889 h -7.92978 -7.929775 v 3.96489 3.964889 h -3.96489 -3.964889 v 3.964889 3.964889 h -3.964889 -3.96489 v 3.96489 3.964889 h -3.964889 -3.964889 v 3.964889 3.96489 H 68.01422 64.04933 v 3.964889 3.964889 h -7.929778 -7.929779 z m 63.438227,0 v -3.964889 h 3.96489 3.96489 v -3.96489 -3.964889 h 3.96489 3.96489 V 45.160329 33.265661 h -3.96489 -3.96489 v -3.964889 -3.964889 h 15.85956 15.85955 v 3.964889 3.964889 h -3.96488 -3.96489 v 7.929779 7.929778 h -3.96489 -3.96489 v 3.96489 3.964889 h -3.96489 -3.96489 v 3.964889 3.96489 h -3.96489 -3.96489 v 3.964889 3.964889 h -3.96489 -3.96489 z"
       id="path36" /><path
       style="fill:#d2e6f3"
       d="m 64.04933,68.949665 v -3.964889 h 3.96489 3.964889 v -3.96489 -3.964889 h 3.964889 3.964889 v -3.964889 -3.96489 h 3.96489 3.964889 V 45.160329 41.19544 h 3.964889 3.96489 v -3.964889 -3.96489 h 7.929775 7.92978 v -3.964889 -3.964889 h 3.96489 3.96489 v 3.964889 3.964889 h 3.96489 3.96489 v 11.894668 11.894668 h -3.96489 -3.96489 v 3.964889 3.96489 h -3.96489 -3.96489 v 3.964889 3.964889 H 87.838666 64.04933 Z"
       id="path35" /><path
       style="fill:#dce4e9"
       d="m 95.768445,223.58035 v -7.92978 h 3.964889 3.964886 v 7.92978 7.92978 h -3.964886 -3.964889 z m 47.578675,3.96489 v -3.96489 h 3.96489 3.96488 v 3.96489 3.96489 h -3.96488 -3.96489 z m 15.85955,-7.92978 v -3.96489 h 3.96489 3.96489 v 3.96489 3.96489 h -3.96489 -3.96489 z M 111.628,211.68568 v -3.96489 h 3.96489 3.96489 v -7.92978 -7.92978 h 3.96489 3.96489 v -3.96489 -3.96489 h 7.92978 7.92978 v 7.92978 7.92978 h -7.92978 -7.92978 v 3.96489 3.96489 h -3.96489 -3.96489 v 3.96489 3.96489 h -3.96489 -3.96489 z m 71.36801,-7.92978 v -3.96489 h 3.96489 3.96489 v 3.96489 3.96489 h -3.96489 -3.96489 z"
       id="path34" /><path
       style="fill:#d4dce1"
       d="m 103.69822,223.58035 v -7.92978 h 7.92978 7.92978 v -3.96489 -3.96489 h 3.96489 3.96489 v -3.96489 -3.96489 h 3.96489 3.96489 v 3.96489 3.96489 h -3.96489 -3.96489 v 3.96489 3.96489 h -3.96489 -3.96489 v 3.96489 3.96489 h -3.96489 -3.96489 v 3.96489 3.96489 h -3.96489 -3.96489 z m 31.71912,3.96489 v -3.96489 h 3.96489 3.96489 v 3.96489 3.96489 h -3.96489 -3.96489 z m 31.71911,-15.85956 v -3.96489 h 3.96489 3.96489 v 3.96489 3.96489 h -3.96489 -3.96489 z m -23.78933,-15.85956 v -3.96489 h 3.96489 3.96488 v 3.96489 3.96489 h -3.96488 -3.96489 z"
       id="path33" /><path
       style="fill:#d1d9dd"
       d="m 111.628,227.54524 v -3.96489 h 11.89467 11.89467 v 3.96489 3.96489 H 123.52267 111.628 Z m 39.64889,-7.92978 v -3.96489 h 3.96489 3.96489 v 3.96489 3.96489 h -3.96489 -3.96489 z m -23.78933,-7.92978 v -3.96489 h 3.96489 3.96489 v -3.96489 -3.96489 h 3.96489 3.96489 v 3.96489 3.96489 h -3.96489 -3.96489 v 3.96489 3.96489 h -3.96489 -3.96489 z"
       id="path32" /><path
       style="fill:#cbd2d6"
       d="m 119.55778,219.61546 v -3.96489 h 3.96489 3.96489 v 3.96489 3.96489 h -3.96489 -3.96489 z m 23.78934,0 v -3.96489 h -3.96489 -3.96489 v -3.96489 -3.96489 h 3.96489 3.96489 v -3.96489 -3.96489 h 19.82444 19.82445 v 3.96489 3.96489 h -7.92978 -7.92978 v 3.96489 3.96489 h -3.96489 -3.96489 v -3.96489 -3.96489 h -3.96489 -3.96489 v 7.92978 7.92978 h -3.96488 -3.96489 z"
       id="path31" /><path
       style="fill:#bec6c9"
       d="m 127.48756,219.61546 v -3.96489 h 7.92978 7.92978 v 3.96489 3.96489 h -7.92978 -7.92978 z m 23.78933,-7.92978 v -3.96489 h 3.96489 3.96489 v 3.96489 3.96489 h -3.96489 -3.96489 z"
       id="path30" /><path
       style="fill:#00fefe"
       d="M 127.48756,128.423 V 88.774111 h 3.96489 3.96489 V 128.423 168.0719 h -3.96489 -3.96489 z"
       id="path29" /><path
       style="fill:#ebfe00"
       d="M 198.85557,136.35278 V 88.774111 h 3.96489 3.96488 v 47.578669 47.57867 h -3.96488 -3.96489 z"
       id="path28" /><path
       style="fill:#eb00fe"
       d="M 56.119552,136.35278 V 88.774111 h 3.964889 3.964889 v 47.578669 47.57867 h -3.964889 -3.964889 z"
       id="path27" /><path
       style="fill:#fed900"
       d="M 206.78534,136.35278 V 88.774111 h 3.96489 3.96489 v 47.578669 47.57867 h -3.96489 -3.96489 z"
       id="path26" /><path
       style="fill:#fe00d9"
       d="M 48.189773,136.35278 V 88.774111 h 3.964889 3.96489 v 47.578669 47.57867 h -3.96489 -3.964889 z"
       id="path25" /><path
       style="fill:#00c7fe"
       d="M 119.55778,128.423 V 88.774111 h 3.96489 3.96489 V 128.423 168.0719 h -3.96489 -3.96489 z"
       id="path24" /><path
       style="fill:#00fec7"
       d="M 135.41734,128.423 V 88.774111 h 3.96489 3.96489 V 128.423 168.0719 h -3.96489 -3.96489 z"
       id="path23" /><path
       style="fill:#b5fe00"
       d="M 190.92579,136.35278 V 88.774111 h 3.96489 3.96489 v 47.578669 47.57867 h -3.96489 -3.96489 z"
       id="path22" /><path
       style="fill:#b500fe"
       d="m 64.04933,176.00168 v -7.92978 h 3.96489 3.964889 v 7.92978 7.92977 H 68.01422 64.04933 Z m 0,-63.43823 V 88.774111 h 3.96489 3.964889 v 23.789339 23.78933 H 68.01422 64.04933 Z"
       id="path21" /><path
       style="fill:#fea200"
       d="M 214.71512,132.38789 V 88.774111 h 3.96489 3.96489 v 43.613779 43.61379 h -3.96489 -3.96489 z"
       id="path20" /><path
       style="fill:#fe00a2"
       d="M 40.259995,136.35278 V 88.774111 h 3.964889 3.964889 v 47.578669 47.57867 h -3.964889 -3.964889 z"
       id="path19" /><path
       style="fill:#0090fe"
       d="M 111.628,128.423 V 88.774111 h 3.96489 3.96489 V 128.423 168.0719 h -3.96489 -3.96489 z"
       id="path18" /><path
       style="fill:#00fe90"
       d="M 143.34712,132.38789 V 88.774111 h 3.96489 3.96488 v 43.613779 43.61379 h -3.96488 -3.96489 z"
       id="path17" /><path
       style="fill:#7e00fe"
       d="m 71.979109,176.00168 v -7.92978 h 3.964889 3.964889 v 7.92978 7.92977 h -3.964889 -3.964889 z m 0,-63.43823 V 88.774111 h 3.964889 3.964889 v 23.789339 23.78933 h -3.964889 -3.964889 z"
       id="path16" /><path
       style="fill:#7efe00"
       d="m 182.99601,176.00168 v -7.92978 h 3.96489 3.96489 v 7.92978 7.92977 h -3.96489 -3.96489 z m 0,-63.43823 V 88.774111 h 3.96489 3.96489 v 23.789339 23.78933 h -3.96489 -3.96489 z"
       id="path15" /><path
       style="fill:#fe6c00"
       d="M 222.6449,132.38789 V 88.774111 h 3.96489 3.96489 v 43.613779 43.61379 h -3.96489 -3.96489 z"
       id="path14" /><path
       style="fill:#fe006c"
       d="M 32.330216,132.38789 V 88.774111 h 3.964889 3.96489 v 43.613779 43.61379 h -3.96489 -3.964889 z"
       id="path13" /><path
       style="fill:#00fe5a"
       d="M 151.27689,136.35278 V 88.774111 h 3.96489 3.96489 v 47.578669 47.57867 h -3.96489 -3.96489 z"
       id="path12" /><path
       style="fill:#005afe"
       d="M 103.69822,132.38789 V 88.774111 h 3.96489 3.96489 v 43.613779 43.61379 h -3.96489 -3.96489 z"
       id="path11" /><path
       style="fill:#47fe00"
       d="m 175.06623,176.00168 v -7.92978 h 3.96489 3.96489 v 7.92978 7.92977 h -3.96489 -3.96489 z m 0,-63.43823 V 88.774111 h 3.96489 3.96489 v 23.789339 23.78933 h -3.96489 -3.96489 z"
       id="path10" /><path
       style="fill:#4700fe"
       d="m 79.908887,176.00168 v -7.92978 h 3.96489 3.964889 v 7.92978 7.92977 h -3.964889 -3.96489 z m 0,-63.43823 V 88.774111 h 3.96489 3.964889 v 23.789339 23.78933 h -3.964889 -3.96489 z"
       id="path9" /><path
       style="fill:#fe0035"
       d="M 24.400437,132.38789 V 88.774111 h 3.96489 3.964889 v 43.613779 43.61379 h -3.964889 -3.96489 z"
       id="path8" /><path
       style="fill:#fe3500"
       d="M 230.57468,124.45811 V 88.774111 h 3.96489 3.96489 v 35.683999 35.68401 h -3.96489 -3.96489 z"
       id="path7" /><path
       style="fill:#00fe23"
       d="m 159.20667,176.00168 v -7.92978 h 3.96489 3.96489 v 7.92978 7.92977 h -3.96489 -3.96489 z m 0,-63.43823 V 88.774111 h 3.96489 3.96489 v 23.789339 23.78933 h -3.96489 -3.96489 z"
       id="path6" /><path
       style="fill:#0023fe"
       d="M 95.768445,136.35278 V 88.774111 h 3.964889 3.964886 v 47.578669 47.57867 h -3.964886 -3.964889 z"
       id="path5" /><path
       style="fill:#11fe00"
       d="m 167.13645,176.00168 v -7.92978 h 3.96489 3.96489 v 7.92978 7.92977 h -3.96489 -3.96489 z m 0,-63.43823 V 88.774111 h 3.96489 3.96489 v 23.789339 23.78933 h -3.96489 -3.96489 z"
       id="path4" /><path
       style="fill:#1100fe"
       d="m 87.838666,176.00168 v -7.92978 h 3.964889 3.96489 v 7.92978 7.92977 h -3.96489 -3.964889 z m 0,-63.43823 V 88.774111 h 3.964889 3.96489 v 23.789339 23.78933 h -3.96489 -3.964889 z"
       id="path3" /><path
       style="fill:#fe0000"
       d="M 16.470659,124.45811 V 88.774111 h 3.964889 3.964889 v 35.683999 35.68401 h -3.964889 -3.964889 z"
       id="path2" /><path
       style="fill:#000000"
       d="m 95.768445,235.47501 v -3.96488 h -7.929779 -7.929779 v -3.96489 -3.96489 H 71.979109 64.04933 v -3.96489 -3.96489 h -3.964889 -3.964889 v -3.96489 -3.96489 h -3.96489 -3.964889 v -3.96489 -3.96489 h -7.929778 -7.929779 v -3.96489 -3.96489 h -7.929779 -7.929778 v -3.96489 -3.96489 H 12.50577 8.5408803 v -7.92977 -7.92978 H 4.575991 0.61110169 V 120.49323 72.914554 H 16.470659 32.330216 v -3.964889 -3.964889 h 3.964889 3.96489 v -3.96489 -3.964889 h 3.964889 3.964889 v -3.964889 -3.96489 h 3.964889 3.96489 V 45.160329 41.19544 h 3.964889 3.964889 v -3.964889 -3.96489 h 7.929779 7.929778 v -3.964889 -3.964889 h 7.929779 7.929779 v -3.96489 -3.964889 h 31.719115 31.71911 v 3.964889 3.96489 h 7.92978 7.92978 v 3.964889 3.964889 h 7.92978 7.92978 v 3.96489 3.964889 h 3.96489 3.96489 v 3.964889 3.964889 h 3.96489 3.96488 v 3.96489 3.964889 h 3.96489 3.96489 v 3.964889 3.96489 h 3.96489 3.96489 v 3.964889 3.964889 h 15.85956 15.85956 v 47.578676 47.57867 h -3.96489 -3.96489 v 7.92978 7.92977 h -3.96489 -3.96489 v 3.96489 3.96489 h -7.92978 -7.92978 v 3.96489 3.96489 h -7.92978 -7.92978 v 3.96489 3.96489 h -3.96488 -3.96489 v 3.96489 3.96489 h -3.96489 -3.96489 v 3.96489 3.96489 h -7.92978 -7.92978 v 3.96489 3.96489 h -7.92978 -7.92978 v 3.96488 3.96489 H 127.48756 95.768445 Z m 63.438225,-7.92977 v -3.96489 h 7.92978 7.92978 v -3.96489 -3.96489 h 7.92978 7.92978 v -3.96489 -3.96489 h 3.96489 3.96489 v -3.96489 -3.96489 h -23.78934 -23.78934 v -3.96489 -3.96489 h -3.96488 -3.96489 v -3.96489 -3.96489 H 127.48756 111.628 v 3.96489 3.96489 h -3.96489 -3.96489 v 3.96489 3.96489 H 79.908887 56.119552 v 3.96489 3.96489 h 3.964889 3.964889 v 3.96489 3.96489 h 7.929779 7.929778 v 3.96489 3.96489 h 7.929779 7.929779 v 3.96489 3.96489 h 31.719115 31.71911 z m -55.50845,-47.57868 v -3.96488 h 3.96489 3.96489 v -3.96489 -3.96489 h 15.85956 15.85956 v 3.96489 3.96489 h 3.96489 3.96488 v 3.96488 3.96489 h 31.71912 31.71911 v -3.96489 -3.96488 h 7.92978 7.92978 v -7.92978 -7.92978 h 3.96489 3.96489 V 124.45811 88.774111 H 127.48756 16.470659 v 35.683999 35.68401 h 3.964889 3.964889 v 7.92978 7.92978 h 7.929779 7.929779 v 3.96488 3.96489 H 71.979109 103.69822 Z M 64.04933,152.21234 v -15.85956 h 15.859557 15.859558 v 15.85956 15.85956 H 79.908887 64.04933 Z m 95.15734,0 v -15.85956 h 15.85956 15.85956 v 15.85956 15.85956 h -15.85956 -15.85956 z m 55.50845,-83.262675 v -3.964889 h -3.96489 -3.96489 v -3.96489 -3.964889 h -3.96488 -3.96489 v -3.964889 -3.96489 h -3.96489 -3.96489 V 45.160329 41.19544 h -7.92978 -7.92978 v -3.964889 -3.96489 h -7.92978 -7.92978 V 29.300772 25.335883 H 127.48756 95.768445 v 3.964889 3.964889 h -7.929779 -7.929779 v 3.96489 3.964889 H 71.979109 64.04933 v 3.964889 3.964889 h -3.964889 -3.964889 v 3.96489 3.964889 h -3.96489 -3.964889 v 3.964889 3.96489 h -3.964889 -3.964889 v 3.964889 3.964889 h 87.227565 87.22756 z"
       id="path1" /></g></svg>
