<?xml version="1.0" encoding="UTF-8" standalone="no"?>
<!-- Generator: Adobe Illustrator 10.0.3, SVG Export Plug-In . SVG Version: 3.0.0 Build 77)  -->

<svg
   width="256"
   height="256"
   viewBox="0 0 256 256"
   overflow="visible"
   enable-background="new 0 0 128 128"
   xml:space="preserve"
   version="1.1"
   id="svg15"
   sodipodi:docname="ibus-engine-error.svg"
   inkscape:version="1.3.2 (091e20ef0f, 2023-11-25)"
   xmlns:inkscape="http://www.inkscape.org/namespaces/inkscape"
   xmlns:sodipodi="http://sodipodi.sourceforge.net/DTD/sodipodi-0.dtd"
   xmlns:xlink="http://www.w3.org/1999/xlink"
   xmlns="http://www.w3.org/2000/svg"
   xmlns:svg="http://www.w3.org/2000/svg"
   xmlns:rdf="http://www.w3.org/1999/02/22-rdf-syntax-ns#"
   xmlns:cc="http://creativecommons.org/ns#"><defs
   id="defs15"><radialGradient
     inkscape:collect="always"
     xlink:href="#linearGradient20"
     id="radialGradient5"
     cx="113.92445"
     cy="112.46159"
     fx="113.92445"
     fy="112.46159"
     r="98.857529"
     gradientTransform="matrix(0.90615263,-0.8166685,0.82443572,0.91477096,-77.416323,105.48879)"
     gradientUnits="userSpaceOnUse" /><linearGradient
     id="linearGradient20"
     inkscape:collect="always"><stop
       style="stop-color:#000000;stop-opacity:0;"
       offset="0"
       id="stop15-7" /><stop
       style="stop-color:#000000;stop-opacity:0.24705882;"
       offset="0.76362252"
       id="stop16-5" /><stop
       style="stop-color:#000000;stop-opacity:0.49803922;"
       offset="0.81505972"
       id="stop17-3" /><stop
       style="stop-color:#000000;stop-opacity:0.74901962;"
       offset="0.83824706"
       id="stop18-5" /><stop
       style="stop-color:#000000;stop-opacity:0.87450981;"
       offset="0.87807059"
       id="stop19" /><stop
       style="stop-color:#050505;stop-opacity:1;"
       offset="1"
       id="stop20" /></linearGradient><radialGradient
     inkscape:collect="always"
     xlink:href="#linearGradient4"
     id="radialGradient15"
     gradientUnits="userSpaceOnUse"
     gradientTransform="matrix(-1.0227827,0.69453407,-0.69288268,-1.0203509,300.13362,162.08105)"
     cx="100.7886"
     cy="102.90129"
     fx="100.7886"
     fy="102.90129"
     r="98.857529" /><linearGradient
     id="linearGradient4"
     inkscape:collect="always"><stop
       style="stop-color:#fcfcfc;stop-opacity:0;"
       offset="0"
       id="stop4-6" /><stop
       style="stop-color:#ffffff;stop-opacity:0.24705882;"
       offset="0.84496391"
       id="stop9-2" /><stop
       style="stop-color:#ffffff;stop-opacity:0.49803922;"
       offset="0.88333786"
       id="stop6-9" /><stop
       style="stop-color:#ffffff;stop-opacity:0.74901962;"
       offset="0.90707809"
       id="stop7-1" /><stop
       style="stop-color:#ffffff;stop-opacity:0.87450981;"
       offset="0.95097172"
       id="stop8-2" /><stop
       style="stop-color:#ffffff;stop-opacity:1;"
       offset="1"
       id="stop5-7" /></linearGradient><radialGradient
     inkscape:collect="always"
     xlink:href="#linearGradient23"
     id="radialGradient35"
     cx="61.4771"
     cy="103.12246"
     fx="61.4771"
     fy="103.12246"
     r="60.771942"
     gradientTransform="matrix(0.58589423,1.8384953,-2.122929,0.67653824,244.86057,-61.194635)"
     gradientUnits="userSpaceOnUse" /><linearGradient
     id="linearGradient23"
     inkscape:collect="always"><stop
       style="stop-color:#930000;stop-opacity:0.82763535;"
       offset="0.1891412"
       id="stop23-0" /><stop
       style="stop-color:#8a0000;stop-opacity:0.3888889;"
       offset="0.34487209"
       id="stop28-3" /><stop
       style="stop-color:#c90000;stop-opacity:0.63390315;"
       offset="0.52035236"
       id="stop29-6" /><stop
       style="stop-color:#ff5656;stop-opacity:0.43874648;"
       offset="0.65185642"
       id="stop30-7" /><stop
       style="stop-color:#ff9292;stop-opacity:0.83048433;"
       offset="0.88229042"
       id="stop31-5" /><stop
       style="stop-color:#ffbebe;stop-opacity:1;"
       offset="1"
       id="stop24-9" /></linearGradient><radialGradient
     inkscape:collect="always"
     xlink:href="#linearGradient35"
     id="radialGradient36"
     cx="122.38158"
     cy="164.83047"
     fx="122.38158"
     fy="164.83047"
     r="60.771641"
     gradientTransform="matrix(1.8152649,-0.52041448,0.60254917,1.9801424,-180.07064,-77.689971)"
     gradientUnits="userSpaceOnUse" /><linearGradient
     id="linearGradient35"
     inkscape:collect="always"><stop
       style="stop-color:#9e0000;stop-opacity:1;"
       offset="0"
       id="stop35" /><stop
       style="stop-color:#a10000;stop-opacity:1;"
       offset="0.22820252"
       id="stop37" /><stop
       style="stop-color:#de0000;stop-opacity:0.98575497;"
       offset="0.40815821"
       id="stop38" /><stop
       style="stop-color:#fa1111;stop-opacity:1;"
       offset="0.62165207"
       id="stop39-3" /><stop
       style="stop-color:#ea5151;stop-opacity:0.99607843;"
       offset="0.75328463"
       id="stop40-5" /><stop
       style="stop-color:#ff6e6e;stop-opacity:1;"
       offset="1"
       id="stop36" /></linearGradient><linearGradient
     id="linearGradient1"
     inkscape:collect="always"><stop
       style="stop-color:#ffffff;stop-opacity:1;"
       offset="0"
       id="stop1" /><stop
       style="stop-color:#6e6b6b;stop-opacity:1;"
       offset="1"
       id="stop2" /></linearGradient><linearGradient
     id="linearGradient35-9"
     inkscape:collect="always"><stop
       style="stop-color:#d7d5d5;stop-opacity:0.41131106;"
       offset="0"
       id="stop34-0" /><stop
       style="stop-color:#d7d5d5;stop-opacity:0;"
       offset="1"
       id="stop35-6" /></linearGradient><linearGradient
     id="linearGradient17"
     inkscape:collect="always"><stop
       style="stop-color:#d7d5d5;stop-opacity:0.30591258;"
       offset="0"
       id="stop17" /><stop
       style="stop-color:#d7d5d5;stop-opacity:0;"
       offset="1"
       id="stop18" /></linearGradient><linearGradient
     id="linearGradient11"
     inkscape:collect="always"><stop
       style="stop-color:#fffdfd;stop-opacity:0.63753211;"
       offset="0.05200902"
       id="stop15" /><stop
       style="stop-color:#e1dfdf;stop-opacity:0.45244217;"
       offset="0.15942086"
       id="stop33-8" /><stop
       style="stop-color:#d7d5d5;stop-opacity:0.21336761;"
       offset="0.51568735"
       id="stop19-7" /><stop
       style="stop-color:#d7d5d5;stop-opacity:0.12339332;"
       offset="0.7890625"
       id="stop20-9" /><stop
       style="stop-color:#d7d5d5;stop-opacity:0;"
       offset="1"
       id="stop12" /></linearGradient><linearGradient
     id="linearGradient8-0"
     inkscape:collect="always"><stop
       style="stop-color:#010000;stop-opacity:0.45501286;"
       offset="0"
       id="stop8-3" /><stop
       style="stop-color:#010000;stop-opacity:0.11825193;"
       offset="0.69999999"
       id="stop10-3" /><stop
       style="stop-color:#010000;stop-opacity:0;"
       offset="1"
       id="stop9-3" /></linearGradient><linearGradient
     id="SVGID_XMLID_3__9"
     gradientUnits="userSpaceOnUse"
     gradientTransform="matrix(1.98,0,0,1.98,-126.43,-126.43)"
     x1="63.997601"
     y1="14.0005"
     x2="63.997601"
     y2="63.0005">
<stop
   offset="0%"
   style="stop-color:rgb(255,255,255);stop-opacity: 1"
   id="stop31-7" />
<stop
   offset="100%"
   style="stop-color:rgb(255,255,255);stop-opacity: 0"
   id="stop32-3" />
</linearGradient><linearGradient
     id="SVGID_XMLID_2__8"
     gradientUnits="userSpaceOnUse"
     gradientTransform="matrix(1.98,0,0,1.98,-126.43,-126.43)"
     x1="68.054878"
     y1="118.06909"
     x2="23.2307"
     y2="22.761999">
<stop
   offset="0%"
   style="stop-color:rgb(255,84,84);stop-opacity: 1"
   id="stop26" />
<stop
   offset="19.439999999999998%"
   style="stop-color:rgb(249,79,79);stop-opacity: 1"
   id="stop27-2" />
<stop
   offset="46.650000000000006%"
   style="stop-color:rgb(230,66,66);stop-opacity: 1"
   id="stop28-6" />
<stop
   offset="78.3%"
   style="stop-color:rgb(201,45,45);stop-opacity: 1"
   id="stop29-5" />
<stop
   offset="100%"
   style="stop-color:rgb(176,28,28);stop-opacity: 1"
   id="stop30-2" />
</linearGradient><linearGradient
     id="SVGID_XMLID_1__7"
     gradientUnits="userSpaceOnUse"
     gradientTransform="matrix(1.98,0,0,1.98,-126.43,-126.43)"
     x1="115.60217"
     y1="117.39095"
     x2="13.810602"
     y2="13.381392">
<stop
   offset="0"
   style="stop-color:#ff9090;stop-opacity:1;"
   id="stop21" />
<stop
   offset="0.1944"
   style="stop-color:#fa8080;stop-opacity:1;"
   id="stop22" />
<stop
   offset="0.46650001"
   style="stop-color:#e74f4f;stop-opacity:1;"
   id="stop23" />
<stop
   offset="0.63636678"
   style="stop-color:#9d2323;stop-opacity:1;"
   id="stop24" />
<stop
   offset="1"
   style="stop-color:#881515;stop-opacity:1;"
   id="stop25" />
</linearGradient><radialGradient
     inkscape:collect="always"
     xlink:href="#linearGradient8-0"
     id="radialGradient9"
     cx="216.19096"
     cy="53.194252"
     fx="216.19096"
     fy="53.194252"
     r="117.97452"
     gradientTransform="matrix(0.3201582,0,0,1.9189721,-130.76721,-37.495401)"
     gradientUnits="userSpaceOnUse" /><radialGradient
     inkscape:collect="always"
     xlink:href="#linearGradient8-0"
     id="radialGradient10"
     gradientUnits="userSpaceOnUse"
     gradientTransform="matrix(0.33596847,0,0,1.9189721,87.802759,103.56105)"
     cx="209.39677"
     cy="37.312599"
     fx="209.39677"
     fy="37.312599"
     r="117.97452" /><radialGradient
     inkscape:collect="always"
     xlink:href="#linearGradient11"
     id="radialGradient12"
     cx="-272.40479"
     cy="-50.081898"
     fx="-272.40479"
     fy="-50.081898"
     r="117.97452"
     gradientTransform="matrix(2.1985674,0,0,1.8333037,327.51234,43.553033)"
     gradientUnits="userSpaceOnUse" /><radialGradient
     inkscape:collect="always"
     xlink:href="#linearGradient17"
     id="radialGradient18"
     cx="-209.59885"
     cy="-565.81665"
     fx="-209.59885"
     fy="-565.81665"
     r="114.47723"
     gradientTransform="matrix(2.4912033,0,0,0.10565799,274.11718,0.74110347)"
     gradientUnits="userSpaceOnUse" /><radialGradient
     inkscape:collect="always"
     xlink:href="#linearGradient35-9"
     id="radialGradient33"
     gradientUnits="userSpaceOnUse"
     gradientTransform="matrix(1.7661524,0,0,0.19445226,263.20379,-169.79203)"
     cx="-92.593857"
     cy="-563.0498"
     fx="-92.593857"
     fy="-563.0498"
     r="114.47723" /><linearGradient
     id="linearGradient2"><stop
       style="stop-color:#009b00;stop-opacity:0.92156899;"
       offset="0"
       id="stop37-6" /><stop
       style="stop-color:#006900;stop-opacity:1;"
       offset="1"
       id="stop38-5" /></linearGradient><linearGradient
     id="swatch32"><stop
       style="stop-color:#696969;stop-opacity:1;"
       offset="0"
       id="stop33-6" /><stop
       style="stop-color:#525252;stop-opacity:1;"
       offset="0.5"
       id="stop35-7" /><stop
       style="stop-color:#686868;stop-opacity:0.50251889;"
       offset="0.75"
       id="stop36-8" /><stop
       style="stop-color:#959595;stop-opacity:0.08942063;"
       offset="1"
       id="stop34-5" /></linearGradient><linearGradient
     id="linearGradient23-7"
     inkscape:swatch="gradient"><stop
       style="stop-color:#858585;stop-opacity:1;"
       offset="0"
       id="stop30-3" /><stop
       style="stop-color:#001500;stop-opacity:0.53904283;"
       offset="0.46318355"
       id="stop31-5-9" /><stop
       style="stop-color:#001500;stop-opacity:0.27959698;"
       offset="0.56815809"
       id="stop32-6" /></linearGradient><linearGradient
     id="linearGradient23-1"><stop
       style="stop-color:#858585;stop-opacity:1;"
       offset="0"
       id="stop23-2" /><stop
       style="stop-color:#001500;stop-opacity:0.53904283;"
       offset="0.46318355"
       id="stop26-7" /><stop
       style="stop-color:#001500;stop-opacity:0.27959698;"
       offset="0.56815809"
       id="stop25-0" /></linearGradient><linearGradient
     id="light100to0"><stop
       style="stop-color:#ffffff;stop-opacity:0.79848868;"
       offset="0"
       id="stop2764" /><stop
       style="stop-color:#ffffff;stop-opacity:0.0000000;"
       offset="1.0000000"
       id="stop2765" /></linearGradient><linearGradient
     inkscape:collect="always"
     xlink:href="#linearGradient1"
     id="linearGradient3"
     x1="-151.21037"
     y1="66.425949"
     x2="-229.71045"
     y2="-43.027233"
     gradientUnits="userSpaceOnUse" /><linearGradient
     id="linearGradient19"
     inkscape:collect="always"><stop
       style="stop-color:#3c3c50;stop-opacity:0.42685372;"
       offset="0"
       id="stop18-3" /><stop
       style="stop-color:#4d4d67;stop-opacity:0;"
       offset="1"
       id="stop19-6" /></linearGradient><linearGradient
     id="linearGradient13"
     inkscape:collect="always"><stop
       style="stop-color:#8fa2c0;stop-opacity:1;"
       offset="0"
       id="stop13" /><stop
       style="stop-color:#90a3c2;stop-opacity:1;"
       offset="0.34980899"
       id="stop17-7" /><stop
       style="stop-color:#9cacc5;stop-opacity:1;"
       offset="0.58369493"
       id="stop15-5" /><stop
       style="stop-color:#99abc8;stop-opacity:1"
       offset="0.76584208"
       id="stop16" /><stop
       style="stop-color:#8ea2c1;stop-opacity:1"
       offset="1"
       id="stop14" /></linearGradient><linearGradient
     id="linearGradient4-3"
     inkscape:collect="always"><stop
       style="stop-color:#3c3c50;stop-opacity:0.32264528;"
       offset="0"
       id="stop4" /><stop
       style="stop-color:#4d4d67;stop-opacity:0;"
       offset="1"
       id="stop5" /></linearGradient><linearGradient
     id="linearGradient2-5"
     inkscape:collect="always"><stop
       style="stop-color:#6d6dd2;stop-opacity:1;"
       offset="0"
       id="stop2-6" /><stop
       style="stop-color:#cbcbf4;stop-opacity:1;"
       offset="1"
       id="stop3" /></linearGradient><linearGradient
     inkscape:collect="always"
     xlink:href="#linearGradient2-5"
     id="linearGradient3-2"
     x1="124.70478"
     y1="32.491936"
     x2="133.24037"
     y2="228.13322"
     gradientUnits="userSpaceOnUse" /><linearGradient
     inkscape:collect="always"
     xlink:href="#linearGradient4-3"
     id="linearGradient5"
     x1="65.881943"
     y1="60.851405"
     x2="82.719924"
     y2="60.851405"
     gradientUnits="userSpaceOnUse" /><linearGradient
     inkscape:collect="always"
     xlink:href="#linearGradient4-3"
     id="linearGradient6"
     gradientUnits="userSpaceOnUse"
     x1="69.222809"
     y1="60.817997"
     x2="75.236382"
     y2="59.448242" /><radialGradient
     inkscape:collect="always"
     xlink:href="#linearGradient4-3"
     id="radialGradient7"
     cx="43.285675"
     cy="102.19268"
     fx="43.285675"
     fy="102.19268"
     r="16.427292"
     gradientTransform="matrix(1,0,0,1.8075351,0,-78.893586)"
     gradientUnits="userSpaceOnUse" /><linearGradient
     inkscape:collect="always"
     xlink:href="#linearGradient19"
     id="linearGradient7-9"
     gradientUnits="userSpaceOnUse"
     x1="37.472809"
     y1="210.87454"
     x2="78.260193"
     y2="188.33812" /><linearGradient
     inkscape:collect="always"
     xlink:href="#linearGradient4-3"
     id="linearGradient8-1"
     gradientUnits="userSpaceOnUse"
     x1="66.070648"
     y1="228.51433"
     x2="77.99292"
     y2="204.24066" /><linearGradient
     inkscape:collect="always"
     xlink:href="#linearGradient4-3"
     id="linearGradient9"
     gradientUnits="userSpaceOnUse"
     x1="115.58553"
     y1="237.633"
     x2="117.06621"
     y2="217.94229" /><linearGradient
     inkscape:collect="always"
     xlink:href="#linearGradient4-3"
     id="linearGradient10"
     gradientUnits="userSpaceOnUse"
     x1="163.42677"
     y1="224.9377"
     x2="154.75121"
     y2="211.16032" /><linearGradient
     inkscape:collect="always"
     xlink:href="#linearGradient4-3"
     id="linearGradient11-2"
     gradientUnits="userSpaceOnUse"
     x1="154.73332"
     y1="224.37073"
     x2="134.52948"
     y2="223.53905"
     gradientTransform="translate(71.628234,-118.93494)" /><linearGradient
     inkscape:collect="always"
     xlink:href="#linearGradient4-3"
     id="linearGradient12"
     gradientUnits="userSpaceOnUse"
     gradientTransform="translate(46.237629,-176.39789)"
     x1="163.42677"
     y1="224.9377"
     x2="140.67159"
     y2="238.84708" /><radialGradient
     inkscape:collect="always"
     xlink:href="#linearGradient13"
     id="radialGradient14"
     cx="135.96394"
     cy="126.47153"
     fx="135.96394"
     fy="126.47153"
     r="98.205167"
     gradientTransform="matrix(0.91561814,0.34278585,-0.46302727,1.2367961,69.565191,-74.720349)"
     gradientUnits="userSpaceOnUse" /></defs><sodipodi:namedview
   id="namedview15"
   pagecolor="#ffffff"
   bordercolor="#000000"
   borderopacity="0.25"
   inkscape:showpageshadow="2"
   inkscape:pageopacity="0.0"
   inkscape:pagecheckerboard="0"
   inkscape:deskcolor="#d1d1d1"
   inkscape:zoom="2.6542969"
   inkscape:cx="120.74761"
   inkscape:cy="188.18543"
   inkscape:current-layer="svg15"
   showguides="true"><sodipodi:guide
     position="189.41096,67.588044"
     orientation="0,-1"
     id="guide30"
     inkscape:locked="false" /><sodipodi:guide
     position="180.53274,65.530539"
     orientation="0,-1"
     id="guide31"
     inkscape:locked="false" /></sodipodi:namedview>
	
<metadata
   id="metadata1"><rdf:RDF><cc:Work
       rdf:about=""><cc:license
         rdf:resource="http://creativecommons.org/publicdomain/zero/1.0/" /></cc:Work><cc:License
       rdf:about="http://creativecommons.org/publicdomain/zero/1.0/"><cc:permits
         rdf:resource="http://creativecommons.org/ns#Reproduction" /><cc:permits
         rdf:resource="http://creativecommons.org/ns#Distribution" /><cc:permits
         rdf:resource="http://creativecommons.org/ns#DerivativeWorks" /></cc:License></rdf:RDF></metadata><g
   id="g17"
   transform="matrix(1.1223036,0,0,1.1223036,-31.298621,-17.588474)"
   style="display:inline"><g
     id="g18"
     inkscape:label="shd"><path
       id="path17"
       style="display:inline;fill:#3e444e;fill-opacity:0.147424;stroke-width:4.79999;stroke-linecap:round;stroke-linejoin:round"
       d="m 136.53809,19.66632 c -6.40057,0.0319 -2.91314,7.291677 -9.44659,8.338175 l -3.02255,19.607071 c -1.64272,4.614615 -4.2656,7.494635 -10.50479,3.977019 0,0 -9.2143,-18.465711 -16.45216,-23.548121 -7.237858,-5.08241 -24.717358,10.863294 -22.784416,19.106141 l 13.055199,26.288191 c 1.029945,3.465249 -1.752096,10.106454 -7.65793,8.247042 L 63.381148,75.496169 c -6.083946,8.001247 -9.416657,16.919799 -12.335165,25.976201 l 14.991333,11.69284 c 3.777162,2.59633 3.19762,9.23383 -1.567863,9.87123 l -18.667077,4.43797 c -1.40933,7.62723 -1.455345,18.73542 0.07493,27.3327 l 21.962484,6.54999 c 3.991597,1.19046 5.248846,5.42218 2.039152,9.47952 L 42.211676,185.9322 c 2.727495,7.27908 3.856086,12.9679 10.067971,15.919 6.211885,2.9511 28.593456,-1.46806 28.593456,-1.46806 6.269651,-1.4692 8.84623,1.19797 8.82065,6.77943 l -21.373741,10.28051 c 3.626116,5.31767 22.205559,18.93769 34.110958,17.63665 1.64993,-0.18031 13.59402,-14.24357 13.59402,-14.24357 5.26492,-4.46304 3.59607,-0.38864 0.45919,4.03844 0,0 -5.05522,8.97848 -2.45848,12.22347 7.87599,9.84214 33.6257,5.50554 37.80693,0.8528 1.98146,-2.2049 2.96926,-16.29125 3.22254,-18.51825 0.36119,-3.17577 -2.77915,-3.14389 0.80706,-1.85116 1.99822,3.72648 11.97952,13.51354 16.53267,13.38802 4.84737,-0.13363 22.41097,-15.73538 23.32135,-18.33334 0.55512,-1.58415 -4.48905,-14.0184 -6.88847,-20.97546 -1.22719,-3.55822 4.20651,-6.2379 7.09673,-5.47822 4.50361,1.18375 14.73413,6.02504 16.92403,5.19916 2.1899,-0.82588 13.54375,-25.30652 13.23021,-27.68356 -0.31354,-2.37705 -11.65554,-6.99043 -16.44862,-10.79471 -2.5009,-1.98497 -1.41735,-7.78542 2.79208,-9.16275 4.20943,-1.37733 18.76492,-5.77129 19.82131,-7.13382 1.05639,-1.36253 1.62996,-24.60421 -0.80113,-28.78064 -2.43108,-4.17643 -11.98467,-4.93954 -18.29191,-4.84887 -2.24414,0.0323 -5.43801,0.44221 -3.83868,-2.90379 0,0 14.2493,-11.784591 15.20166,-14.290083 0.95236,-2.505492 -8.17984,-24.904978 -13.00489,-29.882192 -4.82506,-4.977214 -19.43041,2.530004 -19.43041,2.530004 -4.1989,0.311839 -6.54841,6.098322 -3.88393,2.474636 2.66448,-3.623686 8.48854,-13.081661 8.15041,-15.587679 -0.33813,-2.506018 -28.82588,-22.512059 -32.16083,-20.858453 -3.33496,1.653606 -8.4863,10.602158 -8.4863,10.602158 -5.3353,2.207553 -1.05625,13.149923 -2.64429,9.861487 0,0 1.5779,-16.428746 -1.23568,-20.70617 -2.81359,-4.277423 -13.14593,-4.561501 -15.27945,-4.550868 z m 7.02579,59.210152 c 1.16102,-0.0064 2.2785,0.0833 3.36886,0.222578 17.44576,2.228432 36.89483,15.562232 36.89483,45.01019 0,29.44793 -19.09111,62.83216 -50.58066,56.46061 C 101.75734,174.19829 90.088446,153.85923 96.244184,125.87082 103.03018,95.016817 126.14859,78.97253 143.56388,78.876472 Z"
       inkscape:label="shd1"
       sodipodi:nodetypes="sccczcccccccccccczcccsccasscsssszzszzzsczzczzzcczsscssss" /><path
       id="path19"
       style="display:inline;fill:#3e444e;fill-opacity:0.156306;stroke-width:4.77398;stroke-linecap:round;stroke-linejoin:round"
       d="m 136.02698,19.666319 c -6.36589,0.03173 -2.89736,7.252166 -9.39541,8.292993 l -3.00617,19.50083 c -1.63382,4.58961 -4.24248,7.454024 -10.44787,3.955468 0,0 -9.07784,-16.947173 -16.796198,-22.521761 C 88.662976,23.319261 74.31036,40.772628 72.972386,42.603727 L 87.13802,73.143446 c 1.024364,3.446473 -1.742602,10.051691 -7.616435,8.202355 L 63.26644,75.19365 c -6.05098,7.957891 -9.365632,16.828118 -12.268327,25.83544 l 14.910102,11.62949 c 3.756695,2.58226 3.180294,9.18379 -1.559368,9.81774 l -18.565928,4.41392 c -1.401693,7.58591 -1.447459,18.6339 0.07453,27.1846 l 21.84348,6.5145 c 3.969967,1.18401 5.220404,5.3928 2.028102,9.42815 L 42.21168,185.03128 c 2.712716,7.23964 3.835192,12.89763 10.013417,15.83273 6.178225,2.93511 28.43852,-1.46009 28.43852,-1.46009 6.235678,-1.46125 8.798296,1.19147 8.772855,6.74269 l -21.257926,10.2248 c 3.606468,5.28886 22.085236,18.83508 33.926124,17.54109 1.64099,-0.17934 13.52036,-14.1664 13.52036,-14.1664 5.23639,-4.43885 3.57658,-0.38653 0.4567,4.01656 0,0 -5.04795,8.94603 -2.44516,12.15724 7.84314,9.67651 33.20725,5.00323 37.36583,0.37571 1.97073,-2.19296 3.18941,-15.73051 3.44132,-17.94543 0.35923,-3.15857 -2.63264,-3.65416 0.93415,-2.36844 1.98738,3.70629 11.38224,13.4999 15.91072,13.37506 4.8211,-0.13291 22.28954,-15.65012 23.19498,-18.234 0.55212,-1.57557 -4.06382,-13.47472 -6.45024,-20.39409 -1.22054,-3.53893 4.18372,-6.2041 7.05828,-5.44853 4.4792,1.17733 14.65429,5.99239 16.83232,5.17099 2.17804,-0.82141 12.99943,-24.51843 12.68758,-26.8826 -0.31184,-2.36416 -11.12144,-7.60351 -15.88855,-11.38717 -2.48734,-1.97422 -1.40966,-7.74324 2.77696,-9.1131 4.18662,-1.36987 18.66323,-5.74003 19.7139,-7.09517 1.05066,-1.35515 1.62113,-24.47089 -0.79679,-28.62469 -2.41791,-4.1538 -11.97408,-3.99367 -18.1928,-4.8226 -4.24084,-0.56529 -5.40854,0.43981 -3.81787,-2.888054 0,0 14.17208,-11.720735 15.11928,-14.212651 0.94721,-2.491915 -9.2638,-23.638148 -12.18615,-28.230385 -2.92234,-4.592238 -18.7643,0.688139 -18.7643,0.688139 -4.17615,0.310149 -7.82202,6.403546 -5.17198,2.799495 2.65005,-3.60405 8.44255,-13.010777 8.10625,-15.503216 -0.3363,-2.492438 -28.66968,-22.390076 -31.98657,-20.745429 -3.31688,1.644645 -8.44031,10.544709 -8.44031,10.544709 -5.3064,2.195591 -1.05052,13.078669 -2.62997,9.808051 0,0 1.56935,-16.339725 -1.22898,-20.593971 -2.79835,-4.254246 -13.07469,-4.536784 -15.19665,-4.526209 z m 6.95228,58.551128 c 1.15472,-0.0063 2.27789,0.05936 3.36235,0.197876 17.35123,2.216357 36.7186,15.839592 36.7186,45.127987 0,29.28836 -20.22279,64.66155 -51.54172,58.32453 C 100.19955,175.53081 89.22249,152.99266 95.344874,125.1559 102.0941,94.469087 125.65833,78.312985 142.97926,78.217447 Z"
       inkscape:label="shd1"
       sodipodi:nodetypes="sccczcccccccccccczcccsccasscsssszzszzzsczzczzzcczsscssss" /><path
       id="path20"
       style="display:inline;fill:#3e444e;fill-opacity:0.321492;stroke-width:4.73367;stroke-linecap:round;stroke-linejoin:round"
       d="m 135.23478,19.666317 c -6.31214,0.03146 -2.8729,7.190926 -9.31607,8.222964 l -2.98079,19.33616 c -1.62002,4.550854 -4.20666,7.39108 -10.35965,3.922067 0,0 -8.97607,-16.47585 -16.11391,-21.488035 -7.137851,-5.012186 -17.897722,6.952761 -24.518228,13.031571 L 86.75865,72.691868 c 1.015714,3.41737 -1.727887,9.966812 -7.55212,8.133092 l -16.117882,-6.1002 c -5.999884,7.890692 -9.286546,16.686016 -12.16473,25.61728 l 14.784197,11.53129 c 3.724972,2.56045 3.153439,9.10624 -1.5462,9.73483 l -18.409153,4.37665 c -1.389856,7.52185 -1.435236,18.47655 0.0739,26.95505 l 21.659028,6.45949 c 3.936443,1.17401 5.176321,5.34726 2.010976,9.34853 L 42.21168,183.63489 c 2.689809,7.17851 3.802807,12.78872 9.928861,15.69903 6.126054,2.91033 28.198377,-1.44776 28.198377,-1.44776 6.183023,-1.44891 8.724001,1.18141 8.698775,6.68576 l -21.078418,10.13846 c 3.576014,5.2442 23.032671,19.33749 31.938752,18.19616 1.623543,-0.20806 15.107083,-14.84997 15.107083,-14.84997 5.19217,-4.40137 3.54638,-0.38327 0.45284,3.98264 0,0 -4.98536,8.85443 -2.42451,12.05458 7.76716,9.70615 33.16108,5.42946 37.28455,0.84102 1.95409,-2.17444 2.92823,-16.06616 3.17801,-18.26237 0.3562,-3.1319 -2.61266,-3.41609 0.92401,-2.14122 1.97059,3.67499 11.68589,13.64245 16.17613,13.51866 4.78039,-0.13178 22.10132,-15.51796 22.99912,-18.08002 0.54746,-1.56227 -4.42702,-13.82471 -6.79329,-20.68565 -1.21023,-3.50905 4.14839,-6.15171 6.99868,-5.40252 4.44138,1.16739 14.53055,5.94179 16.69018,5.12732 2.15965,-0.81447 13.07706,-23.04649 12.76784,-25.39069 -0.30921,-2.3442 -11.21492,-8.80421 -15.94178,-12.55592 -2.46633,-1.95755 -1.39775,-7.67785 2.75351,-9.03614 4.15127,-1.3583 18.88362,-5.40808 19.92541,-6.75178 1.04179,-1.34371 1.22946,-24.54773 -1.16804,-28.66645 -2.39749,-4.11873 -11.44698,-5.04589 -17.63827,-5.65051 -1.62285,-0.15848 -5.76377,1.30473 -4.18653,-1.995037 0,0 14.0524,-11.621762 14.99161,-14.092636 0.93921,-2.470872 -6.78726,-20.609979 -11.42738,-26.596134 -4.64012,-5.986154 -19.93355,1.939017 -19.93355,1.939017 -4.14089,0.30753 -7.08414,3.696918 -4.45648,0.123301 2.62768,-3.573617 8.37126,-12.900911 8.0378,-15.372303 -0.33346,-2.471391 -28.42758,-22.201008 -31.71647,-20.570249 -3.28887,1.630758 -8.36903,10.455667 -8.36903,10.455667 -5.26159,2.177051 -1.04165,12.968229 -2.60776,9.725229 0,0 1.55609,-16.201748 -1.21861,-20.42007 -2.77472,-4.218322 -12.96428,-4.498474 -15.06832,-4.487988 z m 6.92871,57.88342 c 1.14497,-0.0062 2.25866,0.05886 3.33396,0.196205 17.20471,2.197641 36.3734,15.879124 36.3734,44.920198 0,29.04104 -21.54595,65.68303 -52.60041,59.39952 C 98.215965,175.78214 88.029101,151.58573 94.099786,123.98403 100.79202,93.556341 124.98882,77.644468 142.16349,77.549737 Z"
       inkscape:label="shd1"
       sodipodi:nodetypes="sccczcccccccccccczcccsccasscsssszzszzzsczzczzzcczsscssss" /><path
       id="path21"
       style="display:inline;fill:#3e444e;fill-opacity:0.321492;stroke-width:4.7107;stroke-linecap:round;stroke-linejoin:round"
       d="m 134.78332,19.666316 c -6.28151,0.03131 -2.85896,7.156027 -9.27086,8.183056 l -2.96632,19.242318 c -1.61216,4.528768 -4.18624,7.35521 -10.30937,3.903032 0,0 -9.63794,-15.524302 -16.741143,-20.512162 -7.10321,-4.987861 -16.647109,6.963093 -23.235484,13.012401 l 14.282312,28.939562 c 1.010784,3.400785 -1.719501,9.918442 -7.515468,8.093621 L 62.987328,74.457549 c -5.970765,7.852397 -9.241477,16.605036 -12.105692,25.492955 l 14.712446,11.475326 c 3.706894,2.54802 3.138135,9.06205 -1.538696,9.68759 l -18.31981,4.3554 c -1.38311,7.48535 -1.42827,18.38688 0.07354,26.82424 l 21.553912,6.42814 c 3.917339,1.16831 5.1512,5.32131 2.001217,9.30316 L 42.21168,182.83912 c 2.676755,7.14367 3.784351,12.72665 9.880674,15.62284 6.096323,2.8962 28.061525,-1.44074 28.061525,-1.44074 6.153016,-1.44187 8.681662,1.17568 8.656558,6.65332 l -20.97612,10.08925 c 3.558659,5.21875 22.784651,19.57758 30.358079,18.48973 1.612333,-0.2316 16.459434,-15.15978 16.459434,-15.15978 5.16697,-4.38001 3.52917,-0.38141 0.45064,3.96331 0,0 -4.91216,8.77284 -2.41274,11.99608 7.39631,9.53823 32.8584,4.6944 36.15866,1.92362 2.22813,-1.87066 3.85896,-17.07487 4.10753,-19.26042 0.35447,-3.1167 -2.33401,-4.39691 1.18549,-3.12822 1.96103,3.65715 11.36321,14.57363 15.83166,14.45044 4.75719,-0.13114 21.99405,-15.44265 22.8875,-17.99227 0.5448,-1.55469 -4.40554,-13.75762 -6.76032,-20.58526 -1.20436,-3.49202 4.12825,-6.12185 6.96471,-5.3763 4.41982,1.16172 14.46003,5.91295 16.60918,5.10244 2.14917,-0.81052 12.68286,-22.84016 12.37514,-25.17298 -0.30771,-2.33282 -10.82976,-8.85597 -15.53368,-12.58947 -2.45436,-1.94805 -1.39096,-7.64059 2.74015,-8.99229 4.13112,-1.35171 18.41583,-5.66394 19.45256,-7.00111 1.03674,-1.33719 1.59964,-24.1465 -0.78622,-28.24523 -2.38586,-4.09874 -11.78512,-4.85354 -16.81573,-5.02594 -1.57364,-0.0539 -6.47274,0.70125 -4.90315,-2.582498 0,0 13.9842,-11.565359 14.91885,-14.024242 0.93465,-2.45888 -6.68447,-17.355195 -11.37192,-25.338632 -4.80386,-8.181709 -17.9561,8.418053 -17.9561,8.418053 -4.1208,0.306037 -8.93047,-3.937896 -6.31556,-7.494169 2.61492,-3.556274 8.33063,-12.838301 7.99879,-15.297699 -0.33184,-2.459396 -28.28962,-22.093262 -31.56255,-20.470417 -3.2729,1.622843 -8.32841,10.404923 -8.32841,10.404923 -5.23605,2.166486 -1.03659,12.905292 -2.5951,9.678031 0,0 1.54854,-16.123118 -1.2127,-20.320967 -2.76125,-4.19785 -12.90136,-4.476642 -14.99519,-4.466207 z m 6.89508,57.320394 c 1.13942,-0.0062 2.2477,0.05857 3.31778,0.195253 17.12122,2.186975 36.19688,16.084166 36.19688,44.984297 0,28.9001 -22.961,66.62083 -53.86475,60.36781 -30.903758,-6.25302 -39.946793,-31.9193 -33.90557,-59.38705 6.65976,-30.280012 31.16435,-46.066039 48.25566,-46.16031 z"
       inkscape:label="shd1"
       sodipodi:nodetypes="sccczcccccccccccczcccsccasscsssszzszzzsczsczzzcczsscssss" /><path
       id="path22-0"
       style="display:inline;fill:#3e444e;fill-opacity:0.321492;stroke-width:4.68773;stroke-linecap:round;stroke-linejoin:round"
       d="m 134.33186,19.666315 c -6.25088,0.03116 -2.84502,7.121128 -9.22565,8.143148 l -2.95185,19.148476 c -1.6043,4.506682 -4.16582,7.31934 -10.25909,3.883997 0,0 -9.91561,-14.881785 -16.984178,-19.84532 C 87.842523,26.03308 77.79405,39.682237 71.237806,45.702043 L 86.32626,72.177178 c 1.005854,3.3842 -1.711115,9.870072 -7.478816,8.05415 L 62.886008,74.190338 C 56.944362,82.00444 53.6896,90.714394 50.839354,99.558968 l 14.640695,11.419362 c 3.688816,2.53559 3.122831,9.01786 -1.531192,9.64035 l -18.230467,4.33415 c -1.376364,7.44885 -1.421304,18.29721 0.07318,26.69343 l 21.448796,6.39679 c 3.898235,1.16261 5.126079,5.29536 1.991458,9.25779 L 42.21168,182.04335 c 2.663701,7.10883 3.765895,12.66458 9.832487,15.54665 6.066592,2.88207 27.924673,-1.43372 27.924673,-1.43372 6.123009,-1.43483 8.639323,1.16995 8.614341,6.62088 L 67.709359,212.8172 c 3.541304,5.1933 25.371452,19.67593 29.6751,19.20852 1.611468,-0.17502 16.914091,-15.89481 16.914091,-15.89481 5.14177,-4.35865 3.51196,-0.37955 0.44844,3.94398 0,0 -4.86359,8.71113 -2.40097,11.93758 7.07298,9.2668 33.12268,4.29008 34.89103,2.39201 1.97348,-2.11825 4.93143,-17.46937 5.17879,-19.64426 0.35274,-3.1015 -2.32263,-4.37547 1.1797,-3.11296 1.95147,3.63931 11.64189,14.97027 16.08855,14.84768 4.73399,-0.1305 21.68632,-15.03325 22.57542,-17.57043 0.54214,-1.54711 -4.51769,-14.49234 -6.86098,-21.28668 -1.19849,-3.47499 4.10811,-6.09199 6.93074,-5.35008 4.39826,1.15605 14.38951,5.88411 16.52818,5.07756 2.13869,-0.80657 12.76113,-22.1141 12.45491,-24.43554 -0.30621,-2.32144 -10.91707,-9.42746 -15.59805,-13.14275 -2.44239,-1.93855 -1.38417,-7.60333 2.72679,-8.94844 4.11097,-1.34512 18.32602,-5.63632 19.35769,-6.96696 1.03169,-1.33067 1.59184,-24.02875 -0.78238,-28.10749 -2.37423,-4.07875 -8.23116,-4.75614 -14.38959,-4.60183 -1.94312,0.0487 -8.78531,0.29823 -7.22337,-2.969499 0,0 13.916,-11.508956 14.84609,-13.955848 0.93009,-2.446888 -7.81195,-19.822788 -11.31646,-25.215059 -3.50451,-5.392271 -17.86853,8.377 -17.86853,8.377 -4.10071,0.304544 -8.88692,-3.918692 -6.28476,-7.457621 2.60216,-3.538931 8.29,-12.775691 7.95978,-15.223095 -0.33022,-2.447401 -28.15166,-21.985516 -31.40863,-20.370585 -3.25693,1.614928 -8.28779,10.354179 -8.28779,10.354179 -5.21051,2.155921 -1.03153,12.842355 -2.58244,9.630833 0,0 1.54099,-16.044488 -1.20679,-20.221864 -2.74778,-4.177378 -12.83844,-4.45481 -14.92206,-4.444426 z m 6.4126,56.863674 c 1.13387,-0.0062 2.23674,0.05828 3.3016,0.194301 17.03773,2.176309 36.46921,16.182902 36.46921,44.94209 0,28.75916 -24.10878,67.09089 -54.86182,60.86836 C 94.900409,176.31222 86.403203,149.92729 92.414964,122.59349 99.042244,92.461157 123.73651,76.6238 140.74446,76.529989 Z"
       inkscape:label="shd1"
       sodipodi:nodetypes="sccczcccccccccccczcccsccasscsssszzszzzsczzczzzcczsscssss" /><path
       id="path23"
       style="display:inline;fill:#3e444e;fill-opacity:0.321492;stroke-width:4.68773;stroke-linecap:round;stroke-linejoin:round"
       d="m 134.33186,19.666315 c -6.25088,0.03116 -2.84502,7.121128 -9.22565,8.143148 l -2.95185,19.148476 c -1.6043,4.506682 -4.16582,7.31934 -10.25909,3.883997 0,0 -10.44181,-13.879523 -17.510364,-18.843058 -7.068569,-4.963536 -14.252248,8.485168 -20.808492,14.504974 L 86.32626,72.177178 c 1.005854,3.3842 -1.711115,9.870072 -7.478816,8.05415 L 62.886008,74.190338 C 56.944362,82.00444 53.6896,90.714394 50.839354,99.558968 l 14.640695,11.419362 c 3.688816,2.53559 3.122831,9.01786 -1.531192,9.64035 l -18.230467,4.33415 c -1.376364,7.44885 -1.421304,18.29721 0.07318,26.69343 l 21.448796,6.39679 c 3.898235,1.16261 5.126079,5.29536 1.991458,9.25779 L 42.21168,182.04335 c 2.663701,7.10883 3.765895,12.66458 9.832487,15.54665 6.066592,2.88207 27.924673,-1.43372 27.924673,-1.43372 6.123009,-1.43483 8.639323,1.16995 8.614341,6.62088 L 67.709359,212.8172 c 3.541304,5.1933 23.8123,19.43969 29.580606,19.16127 1.619059,-0.0781 17.008585,-15.84756 17.008585,-15.84756 5.14177,-4.35865 3.51196,-0.37955 0.44844,3.94398 0,0 -4.84161,8.69447 -2.40097,11.93758 7.12154,9.4631 33.12268,5.04603 35.41075,2.91173 2.11704,-1.97477 4.41171,-17.98909 4.65907,-20.16398 0.35274,-3.1015 -2.32263,-4.37547 1.1797,-3.11296 1.95147,3.63931 11.3078,14.50255 15.75446,14.37996 4.73399,-0.1305 21.08497,-14.36508 21.97407,-16.90226 0.54214,-1.54711 -4.11679,-13.82416 -6.46008,-20.6185 -1.19849,-3.47499 4.64265,-6.96062 7.46528,-6.21871 4.39826,1.15605 14.38951,5.88411 16.52818,5.07756 2.13869,-0.80657 11.91069,-22.01961 11.60447,-24.34105 -0.30621,-2.32144 -10.06663,-9.52195 -14.74761,-13.23724 -2.44239,-1.93855 -1.38417,-7.60333 2.72679,-8.94844 4.11097,-1.34512 18.32602,-5.63632 19.35769,-6.96696 1.03169,-1.33067 1.59184,-24.02875 -0.78238,-28.10749 -2.37423,-4.07875 -13.11262,-3.38988 -19.46771,-4.06729 -1.36181,-0.14515 -3.70719,-0.23631 -2.14525,-3.504039 0,0 13.916,-11.508956 14.84609,-13.955848 0.93009,-2.446888 -8.51615,-18.250953 -12.09604,-25.167812 -1.20034,-2.319233 -18.22288,1.620676 -18.22288,1.620676 -4.10071,0.304544 -7.75299,2.790385 -5.15083,-0.748544 2.60216,-3.538931 8.29,-12.775691 7.95978,-15.223095 -0.33022,-2.447401 -28.15166,-21.985516 -31.40863,-20.370585 -3.25693,1.614928 -8.28779,10.354179 -8.28779,10.354179 -5.21051,2.155921 -1.03153,12.842355 -2.58244,9.630833 0,0 1.54099,-16.044488 -1.20679,-20.221864 -2.74778,-4.177378 -12.83844,-4.45481 -14.92206,-4.444426 z m 6.22362,56.249462 c 1.13387,-0.0062 2.23674,0.05828 3.3016,0.194301 17.03773,2.176309 36.65819,16.797114 36.65819,45.556302 0,28.75916 -24.84377,67.69225 -55.59681,61.46972 C 94.165418,176.91358 85.174781,149.59656 91.186542,122.26276 97.813822,92.130428 123.54753,76.009588 140.55548,75.915777 Z"
       inkscape:label="shd1"
       sodipodi:nodetypes="sccczcccccccccccczcccsccasscsssszzszzzsczsczzzcczsscssss" /></g><path
     id="path1-9"
     style="display:inline;fill:url(#radialGradient14);stroke-width:4.79999;stroke-linecap:round;stroke-linejoin:round"
     d="m 130.53173,19.221858 c -6.40057,0.0319 -12.66848,0.743574 -19.20193,1.790072 l -3.02255,19.607071 c -1.64272,4.614615 -5.46831,9.632791 -11.172955,-6.713762 L 86.937235,30.013707 C 78.80501,34.403983 71.827334,40.404531 65.114071,46.568509 l 6.507096,19.873722 c 1.029945,3.465249 -0.148479,9.304645 -6.054313,7.445233 L 47.953619,67.83543 C 41.869673,75.836677 38.202875,85.423403 35.284367,94.479797 L 50.2757,106.1726 c 3.777162,2.59633 3.19762,9.23383 -1.567863,9.87123 L 30.04076,120.4818 c -1.40933,7.62723 -1.455345,18.73542 0.07493,27.3327 6.810042,3.4603 14.479613,4.77177 21.962484,6.54999 3.991597,1.19046 5.248846,5.42218 2.039152,9.47952 l -17.367415,11.93003 c 2.727495,7.27908 6.184006,13.86292 10.667361,20.64034 l 11.279746,3.72471 c 6.269651,-1.4692 15.260699,-5.55059 15.235119,0.0309 l -7.294128,16.23364 c 5.610491,4.65621 12.675653,8.27387 20.031335,11.68352 l 10.18626,3.12895 c 2.525407,-7.60346 11.917446,-20.40699 14.166726,-16.07441 l 0.82589,17.6812 c 3.323,1.87613 6.89662,3.0004 10.57455,3.81173 l 13.64816,-5.67633 3.22254,-18.51825 c 2.08382,-4.71687 5.30575,-4.88114 8.89196,-3.58841 l 11.2541,12.85348 c 3.90638,1.37116 10.29975,3.21222 10.29975,3.21222 0,0 7.01112,-16.16688 10.21527,-19.27377 l -6.88847,-20.97546 c 0.83296,-4.63585 3.24008,-6.38581 7.09673,-5.47822 l 16.92403,5.19916 c 4.74409,-7.38545 8.86063,-15.39778 11.84424,-24.54372 l -15.06265,-13.93455 c -1.54223,-2.88941 -3.04772,-5.78121 2.79208,-9.16275 l 18.35133,-6.73292 c 0.34619,-4.37217 10.37434,-23.96933 10.37434,-23.96933 0,0 -4.57114,-2.39923 -10.50869,-3.36957 l -17.63045,-0.73838 c -5.51787,-1.4561 -5.29627,-5.510889 -3.69694,-8.856874 l 12.69757,-34.606304 c -3.65989,-1.670829 -6.00063,-3.167702 -9.98108,-3.849082 l -17.39879,6.923977 c -4.1989,0.311839 -7.4154,-1.857763 -6.43527,-7.636227 L 170.0941,29.065184 c -1.49938,-0.691464 -3.72537,-1.973661 -11.08866,-4.038512 l -12.45505,16.177307 c -5.3353,2.207553 2.06206,-15.009304 0.47402,-18.29774 l -10.03313,-3.476642 c -2.17781,-0.153172 -4.32603,-0.218372 -6.45955,-0.207739 z m -2.72955,51.85885 c 1.16102,-0.0064 2.29031,0.05968 3.38067,0.198954 17.44576,2.228432 36.88302,16.389055 36.88302,45.836968 0,29.44793 -25.43876,69.31345 -56.92831,62.9419 C 79.64807,173.68697 72.909419,146.4414 79.065157,118.45299 85.851148,87.599029 110.38689,71.176766 127.80218,71.080708 Z"
     sodipodi:nodetypes="scccccccccccccccccccccccccccccccccccccccccccccccccccsscssss" /><g
     id="g4"
     style="display:inline;fill:url(#linearGradient5);fill-opacity:1"><path
       id="rect4"
       style="fill:url(#linearGradient6);fill-opacity:1;stroke-width:4.79999;stroke-linecap:round;stroke-linejoin:round"
       d="m 65.881943,45.836723 10.156242,4.009043 6.681739,22.45064 c -0.767579,9.925257 -11.641415,5.46762 -16.370259,2.255087 2.243189,-1.275639 5.581177,-2.832216 5.61266,-6.41447 z"
       sodipodi:nodetypes="cccccc" /><path
       id="path6-3"
       style="fill:url(#radialGradient7);stroke-width:4.79999;stroke-linecap:round;stroke-linejoin:round"
       d="m 47.887801,68.003881 10.477186,3.624352 12.970749,48.203817 -30.577128,3.91374 c -0.767579,9.92526 -10.403942,-3.57088 -10.403942,-3.57088 l 19.597806,-4.46908 c 2.793698,-2.40871 3.39372,-5.34922 2.029969,-8.7658 L 35.605562,93.943354 c 0,0 6.466907,-17.823757 12.282239,-25.939473 z"
       sodipodi:nodetypes="ccccccccc" /><path
       id="path7-6"
       style="fill:url(#linearGradient7-9);fill-opacity:1;stroke-width:4.79999;stroke-linecap:round;stroke-linejoin:round"
       d="m 36.805415,175.85107 10.794077,3.34758 11.358956,21.1143 -11.630973,-3.99808 c -5.511308,-8.46372 -8.398381,-14.06119 -10.52206,-20.4638 z"
       sodipodi:nodetypes="ccccc" /><path
       id="path8"
       style="fill:url(#linearGradient8-1);fill-opacity:1;stroke-width:4.79999;stroke-linecap:round;stroke-linejoin:round"
       d="m 66.776081,215.8814 5.913338,-13.59734 11.191912,2.77292 -6.481287,14.633 19.816392,11.69711 c -4.356842,-1.38318 -7.463055,-2.02935 -10.644721,-3.35067 -3.774056,-1.0804 -16.769921,-8.7592 -19.795634,-12.15502 z"
       sodipodi:nodetypes="ccccccc" /><path
       id="path9"
       style="fill:url(#linearGradient9);fill-opacity:1;stroke-width:4.79999;stroke-linecap:round;stroke-linejoin:round"
       d="m 112.18047,233.07932 -0.654,-16.24318 c 3.41392,-2.93292 7.27305,-3.44403 10.43596,1.78074 l 0.79476,18.22377 z"
       sodipodi:nodetypes="ccccc" /><path
       id="path10"
       style="fill:url(#linearGradient10);fill-opacity:1;stroke-width:4.79999;stroke-linecap:round;stroke-linejoin:round"
       d="m 159.92149,221.78718 -8.10414,-9.19394 c 1.67667,-1.19567 5.83648,-2.04087 8.09735,0.64484 l 10.04897,11.8093 z"
       sodipodi:nodetypes="ccccc" /><path
       id="path11"
       style="fill:url(#linearGradient11-2);fill-opacity:1;stroke-width:4.79999;stroke-linecap:round;stroke-linejoin:round"
       d="m 216.33618,102.805 -13.30131,-0.26426 c 1.67667,-1.19567 1.20627,0.69946 3.46714,3.38517 l 18.83691,0.092 c -2.68586,-1.17599 -5.56514,-2.2875 -9.00274,-3.21291 z"
       sodipodi:nodetypes="ccccc" /><path
       id="path12"
       style="fill:url(#linearGradient12);fill-opacity:1;stroke-width:4.79999;stroke-linecap:round;stroke-linejoin:round"
       d="m 196.23723,54.366226 -13.67928,5.452637 c 0.44824,3.623526 2.81267,6.558088 6.96342,5.55853 l 17.514,-6.900521 z"
       sodipodi:nodetypes="ccccc" /></g><path
     id="path3-0"
     style="fill:url(#linearGradient3-2);fill-opacity:1;stroke-width:4.79999;stroke-linecap:round;stroke-linejoin:round"
     d="m 141.00173,22.510254 c -6.40057,0.0319 -12.66848,0.743574 -19.20193,1.790072 l -3.02255,19.607071 c -1.64272,4.614615 -4.2656,7.494635 -10.50479,3.977019 L 97.540816,33.63619 C 89.408591,38.026466 82.29728,43.692927 75.584017,49.856905 l 6.507096,19.873722 c 1.029945,3.465249 -1.752096,10.106454 -7.65793,8.247042 L 58.089478,71.792 c -6.083946,8.001247 -9.416657,16.919799 -12.335165,25.976193 l 14.991333,11.692827 c 3.777162,2.59633 3.19762,9.23383 -1.567863,9.87123 l -18.667077,4.43797 c -1.40933,7.62723 -1.455345,18.73542 0.07493,27.3327 l 21.962484,6.54999 c 3.991597,1.19046 5.248846,5.42218 2.039152,9.47952 l -17.367415,11.93003 c 2.727495,7.27908 6.718545,14.19701 11.2019,20.97443 l 17.159676,-3.35794 c 6.269651,-1.4692 8.84623,1.19797 8.82065,6.77943 l -7.294128,16.23364 c 5.610491,4.65621 12.675653,8.27387 20.031335,11.68352 l 13.594,-14.24357 c 5.26492,-4.46304 8.50976,-3.03447 10.75904,1.29811 l 1.22679,18.0821 23.82181,-2.2655 3.22254,-18.51825 c 2.08382,-4.71687 5.30575,-4.88114 8.89196,-3.58841 l 11.2541,12.85348 c 7.41185,-4.20668 14.10672,-9.84776 20.51502,-16.06155 l -6.2203,-20.04002 c -1.39626,-4.49837 2.57191,-7.32125 6.42856,-6.41366 l 16.92403,5.19916 c 4.74409,-7.38545 8.86063,-15.39778 11.84424,-24.54372 l -14.49569,-13.93455 c -2.36119,-2.26979 -3.61468,-5.78121 2.22512,-9.16275 l 18.35133,-6.73292 c 0.69239,-8.74434 0.68496,-17.8387 -0.13435,-27.3389 l -17.63045,-0.31316 c -5.51787,-1.45611 -5.29627,-5.936133 -3.69694,-9.282118 l 15.20166,-14.290084 c -3.37641,-8.899623 -8.0795,-16.20788 -12.67416,-23.645585 l -17.2098,6.40426 c -4.1989,0.311839 -7.4154,-1.857763 -6.43527,-7.636227 l 8.15041,-15.587679 c -6.41307,-5.699649 -13.74174,-9.911161 -21.5775,-13.298929 l -12.45505,16.177307 c -5.3353,2.207553 -7.67083,0.01525 -9.25887,-3.273186 l -0.30024,-18.501196 c -2.17781,-0.153172 -4.32603,-0.218372 -6.45955,-0.207739 z m -2.72955,51.85885 c 1.16102,-0.0064 2.29031,0.05968 3.38067,0.198954 17.44576,2.228432 36.88302,16.389055 36.88302,45.836992 0,29.44793 -25.43876,69.31345 -56.92831,62.9419 C 90.118016,176.97539 83.379365,149.72982 89.535103,121.74141 96.321094,90.887425 120.85689,74.465162 138.27218,74.369104 Z"
     sodipodi:nodetypes="scccccccccccccccccccccccccccccscccsccccccccccccccsssssss" /></g><g
   id="path1-3"
   inkscape:label="chancel"
   transform="matrix(0.68137651,0,0,0.68137651,104.7413,106.64706)"
   style="display:inline"><path
     id="path3-6"
     style="color:#000000;fill:#fc0000;fill-opacity:1;-inkscape-stroke:none"
     d="m 120.93939,19.675802 c -54.431871,0 -98.857536,44.425663 -98.857534,98.857528 0,54.43188 44.425664,98.85909 98.857534,98.85909 54.43187,0 98.85754,-44.42721 98.85753,-98.85909 1e-5,-54.431865 -44.42566,-98.857528 -98.85753,-98.857528 z m 0,27.999841 c 39.29958,0 70.8577,31.558115 70.85769,70.857687 0,13.47824 -3.71409,26.04485 -10.17716,36.74143 L 84.607756,57.617672 C 95.215893,51.304276 107.63056,47.675643 120.93939,47.675643 Z M 61.196781,80.317578 158.76034,178.52967 c -10.92832,6.87744 -23.88224,10.8629 -37.82095,10.8629 -39.299577,0 -70.857176,-31.55966 -70.857176,-70.85924 0,-14.10739 4.08316,-27.20523 11.114567,-38.215752 z" /><path
     id="path4-0"
     style="color:#000000;fill:url(#radialGradient5);-inkscape-stroke:none"
     d="m 120.93939,19.675802 c -54.431871,0 -98.857536,44.425663 -98.857534,98.857528 0,54.43188 44.425664,98.85909 98.857534,98.85909 54.43187,0 98.85754,-44.42721 98.85753,-98.85909 1e-5,-54.431865 -44.42566,-98.857528 -98.85753,-98.857528 z m 0,27.999841 c 39.29958,0 70.8577,31.558115 70.85769,70.857687 0,13.47824 -3.71409,26.04485 -10.17716,36.74143 L 84.607756,57.617672 C 95.215893,51.304276 107.63056,47.675643 120.93939,47.675643 Z M 61.196781,80.317578 158.76034,178.52967 c -10.92832,6.87744 -23.88224,10.8629 -37.82095,10.8629 -39.299577,0 -70.857176,-31.55966 -70.857176,-70.85924 0,-14.10739 4.08316,-27.20523 11.114567,-38.215752 z" /><path
     id="path15-6"
     style="color:#000000;display:inline;fill:url(#radialGradient15);-inkscape-stroke:none"
     d="m 120.93939,19.675802 c -54.431871,0 -98.857536,44.425663 -98.857534,98.857528 0,54.43188 44.425664,98.85909 98.857534,98.85909 54.43187,0 98.85754,-44.42721 98.85753,-98.85909 1e-5,-54.431865 -44.42566,-98.857528 -98.85753,-98.857528 z m 0,27.999841 c 39.29958,0 70.8577,31.558115 70.85769,70.857687 0,13.47824 -3.71409,26.04485 -10.17716,36.74143 L 84.607756,57.617672 C 95.215893,51.304276 107.63056,47.675643 120.93939,47.675643 Z M 61.196781,80.317578 158.76034,178.52967 c -10.92832,6.87744 -23.88224,10.8629 -37.82095,10.8629 -39.299577,0 -70.857176,-31.55966 -70.857176,-70.85924 0,-14.10739 4.08316,-27.20523 11.114567,-38.215752 z" /><g
     id="g20"><path
       id="rect20"
       style="fill:url(#radialGradient35);stroke-width:29.5093"
       d="m 62.665942,73.840971 -4.057116,3.908805 0.114205,0.115239 C 10.113654,150.17063 96.296448,224.5976 161.92035,182.01008 l 0.0496,0.0501 0.24288,-0.2341 c 0.0762,-0.0499 0.15333,-0.094 0.22944,-0.14418 l -0.0388,-0.0393 3.62407,-3.49126 z m -0.984952,7.009391 96.91346,97.803328 C 97.463621,215.51813 20.491585,149.52745 61.68099,80.850362 Z" /></g><g
     id="g23"
     transform="matrix(-0.94695418,0.02014538,-0.02065088,-0.97627781,240.76681,231.37067)"><path
       id="path22"
       style="display:inline;fill:url(#radialGradient36);stroke-width:29.5093"
       d="m 117.92416,194.43372 c 14.57726,0.55386 29.76881,-3.19067 43.99611,-12.42362 l 0.0497,0.0503 0.24248,-0.23372 c 0.0764,-0.05 0.15384,-0.0942 0.23017,-0.14452 l -0.039,-0.0394 3.62381,-3.49126 -103.361446,-104.310327 -4.057472,3.908413 0.114806,0.115644 c -38.07056,56.62959 6.540135,114.56776 59.200862,116.56858 z m 2.9406,-5.19389 C 71.271561,188.86263 28.779063,135.71027 61.681436,80.850679 l 96.912794,97.802651 c -12.29925,7.41696 -25.23839,10.68151 -37.72947,10.5865 z" /></g></g><g
   id="path95"
   style="display:none"
   transform="matrix(0.74898145,0,0,0.74898145,21.986528,41.638361)"><path
     style="color:#000000;display:inline;fill:#797979;fill-opacity:0.788462;stroke-linecap:round;stroke-linejoin:round;stroke-miterlimit:9.6;-inkscape-stroke:none"
     d="m 293.02395,184.74895 a 85.897331,85.897331 0 0 1 -85.89733,85.89733 85.897331,85.897331 0 0 1 -85.89733,-85.89733 85.897331,85.897331 0 0 1 85.89733,-85.897334 85.897331,85.897331 0 0 1 85.89733,85.897334 z"
     id="path96" /><path
     id="rect97"
     style="display:inline;fill:#f3391a;stroke-width:6.5;stroke-linecap:round;stroke-linejoin:round;stroke-miterlimit:9.6"
     d="m 126.1313,165.28161 c 20.44926,-92.016226 121.10814,-73.595352 150.39271,-34.47882 -47.33668,-22.44777 -78.03328,-20.27744 -93.24028,6.92642 -8.58498,15.35769 -3.26677,38.8851 24.24247,46.88654 36.02542,53.50984 -74.26886,79.53717 -81.3949,-19.33414 z"
     sodipodi:nodetypes="ccacc" /><path
     id="path99"
     style="display:inline;fill:#1c1c94;fill-opacity:1;stroke-width:6.5;stroke-linecap:round;stroke-linejoin:round;stroke-miterlimit:9.6"
     d="m 231.20551,265.21898 c -97.21826,25.98688 -120.39233,-75.11392 -104.36505,-113.64283 -1.68483,47.98104 19.6599,80.8967 51.34728,80.00218 18.40355,-0.51953 37.79725,-20.31286 29.55327,-46.66101 37.96266,-47.75537 105.49011,31.53961 23.4645,80.30166 z"
     sodipodi:nodetypes="ccscc"
     inkscape:transform-center-x="12.359659"
     inkscape:transform-center-y="25.801254" /><path
     id="path100"
     style="display:inline;fill:#ffe434;fill-opacity:1;stroke-width:6.5;stroke-linecap:round;stroke-linejoin:round;stroke-miterlimit:9.6"
     d="m 262.92105,121.56027 c 74.24694,67.92716 1.53356,141.89455 -39.56281,149.13598 36.8558,-18.63876 54.78693,-54.98865 37.31361,-85.72875 -8.69453,-15.29594 -35.01857,-21.52932 -52.78153,-0.39486 -54.40257,-2.38346 -30.22676,-105.873758 55.03073,-63.01237 z"
     sodipodi:nodetypes="ccscc"
     inkscape:transform-center-x="-29.175299"
     inkscape:transform-center-y="6.230748" /><path
     style="color:#000000;fill:#000000;stroke-linecap:round;stroke-linejoin:round;stroke-miterlimit:9.6;-inkscape-stroke:none"
     d="m 207.12695,95.601562 c -49.19616,10e-7 -89.14844,39.950318 -89.14843,89.146488 0,49.19616 39.95227,89.14843 89.14843,89.14843 49.19617,0 89.14649,-39.95227 89.14649,-89.14843 0,-49.19617 -39.95032,-89.146487 -89.14649,-89.146488 z m 0,6.499998 c 45.68331,0 82.64649,36.96318 82.64649,82.64649 0,45.68331 -36.96318,82.64843 -82.64649,82.64843 -45.68331,0 -82.64843,-36.96512 -82.64843,-82.64843 -1e-5,-45.68331 36.96512,-82.64649 82.64843,-82.64649 z"
     id="path97" /></g><g
   id="g34"
   style="display:none"
   transform="matrix(2.8157185,0,0,2.8157185,-316.87462,-386.34198)"><rect
     style="display:inline;fill:#ededed;fill-opacity:1;stroke-width:17.0079;stroke-linecap:round;stroke-linejoin:round;stroke-miterlimit:9.6"
     id="rect34"
     width="44.644588"
     height="41.818985"
     x="158.04562"
     y="178.95511"
     ry="7.1582007"
     rx="5.5570216" /><g
     id="g35"
     transform="matrix(0.18582494,0,0,0.18582494,213.70058,192.71454)"
     style="display:inline"><rect
       style="display:none;fill:#f8fbfd;fill-opacity:1;stroke:#909faf;stroke-width:2;stroke-linecap:round;stroke-linejoin:round;stroke-miterlimit:2.5;stroke-dasharray:none;stroke-opacity:0.65098"
       id="rect1"
       width="256.34982"
       height="256.34973"
       x="-310.44083"
       y="-87.08197"
       ry="31.242258"
       inkscape:label="backwhite" /><rect
       style="display:inline;fill:url(#linearGradient3);fill-opacity:1;stroke:none;stroke-width:2;stroke-linecap:round;stroke-linejoin:round;stroke-miterlimit:2.5;stroke-dasharray:none;stroke-opacity:0.65098"
       id="rect2"
       width="235.94904"
       height="234.55009"
       x="-299.83243"
       y="-76.473587"
       ry="30.615946"
       inkscape:label="colorhead"
       rx="30.615946" /><g
       id="g5"
       inkscape:label="shadowdlb"><rect
         style="display:inline;fill:url(#radialGradient9);stroke:none;stroke-width:2;stroke-linecap:round;stroke-linejoin:round;stroke-miterlimit:2.5;stroke-dasharray:none;stroke-opacity:0.65098"
         id="rect3"
         width="235.94904"
         height="234.55009"
         x="-299.83243"
         y="-76.473587"
         ry="27.97814" /><rect
         style="display:inline;fill:url(#radialGradient10);stroke:none;stroke-width:2;stroke-linecap:round;stroke-linejoin:round;stroke-miterlimit:2.5;stroke-dasharray:none;stroke-opacity:0.65098"
         id="rect10-6"
         width="235.94904"
         height="234.55009"
         x="-77.173058"
         y="64.582863"
         ry="27.97814"
         transform="rotate(90)" /></g><rect
       style="display:inline;fill:url(#radialGradient12);stroke:none;stroke-width:2;stroke-linecap:round;stroke-linejoin:round;stroke-miterlimit:2.5;stroke-dasharray:none;stroke-opacity:0.65098"
       id="rect11-0"
       width="228.95447"
       height="228.48817"
       x="-296.5683"
       y="-73.209473"
       ry="27.97814" /><rect
       style="display:inline;fill:url(#radialGradient18);stroke:none;stroke-width:2;stroke-linecap:round;stroke-linejoin:round;stroke-miterlimit:2.5;stroke-dasharray:none;stroke-opacity:0.65098"
       id="rect15-4"
       width="228.95447"
       height="228.48817"
       x="-296.5683"
       y="-73.209473"
       ry="27.97814" /><rect
       style="display:inline;fill:url(#radialGradient33);stroke:none;stroke-width:2;stroke-linecap:round;stroke-linejoin:round;stroke-miterlimit:2.5;stroke-dasharray:none;stroke-opacity:0.65098"
       id="rect33"
       width="228.95447"
       height="228.48817"
       x="-155.51184"
       y="-296.33514"
       ry="27.97814"
       transform="rotate(-90)" /></g><path
     style="font-style:oblique;font-size:17.3333px;line-height:0.7;font-family:FreeSans;-inkscape-font-specification:'FreeSans Oblique';letter-spacing:0px;word-spacing:0px;fill:#4e4e4e;stroke:#8b8b8b;stroke-width:0.408;stroke-linecap:round;stroke-linejoin:round;stroke-miterlimit:9.6;stroke-dasharray:none;stroke-opacity:1"
     d="m 165.97537,219.31466 h -4.94 l -2.13199,3.796 h -1.716 l 7.19332,-12.63598 h 2.08 l 1.75066,12.63598 h -1.768 z m -0.17334,-1.35199 -0.69333,-5.77199 -3.31066,5.77199 z m 5.11331,-3.93466 h 1.31733 l -0.22533,1.12666 q 1.352,-1.38666 3.36266,-1.38666 1.07466,0 1.716,0.58933 0.64133,0.58933 0.64133,1.57733 0,0.364 -0.0693,0.65867 l -1.38666,6.51732 h -1.456 l 1.28267,-6.04932 q 0.104,-0.416 0.104,-0.64134 0,-0.60666 -0.43334,-1.00533 -0.43333,-0.39866 -1.07466,-0.39866 -1.17866,0 -2.04533,0.83199 -0.84933,0.832 -1.144,2.25333 l -1.05733,5.00933 h -1.456 z m 12.56666,0 -0.24267,1.16133 h -1.54266 l -1.352,6.36132 q -0.0347,0.208 -0.0347,0.24267 0,0.208 0.17334,0.34666 0.17333,0.12134 0.45066,0.12134 0.22534,0 0.832,-0.13867 l -0.27733,1.26533 q -0.43333,0.12133 -1.12667,0.12133 -0.71066,0 -1.12666,-0.364 -0.416,-0.364 -0.416,-1.00533 0,-0.27733 0.052,-0.53733 l 1.36933,-6.41332 h -1.23066 l 0.24266,-1.16133 h 1.23067 l 0.53733,-2.496 h 1.456 l -0.53733,2.496 z m 2.14932,-3.55333 h 1.45599 l -0.98799,4.67999 q 0.81466,-0.76266 1.54266,-1.07466 0.728,-0.312 1.69866,-0.312 1.092,0 1.716,0.58933 0.624,0.572 0.624,1.59466 0,0.34667 -0.0693,0.64134 l -1.38667,6.51732 h -1.456 l 1.26533,-5.94533 q 0.104,-0.46799 0.104,-0.67599 0,-0.65867 -0.41599,-1.05734 -0.39867,-0.41599 -1.05734,-0.41599 -1.17866,0 -2.04533,0.83199 -0.86666,0.832 -1.16133,2.25333 l -1.05733,5.00933 h -1.45599 z m 13.79731,3.55333 h 1.54266 l -6.37865,10.98931 q -1.092,1.872 -2.85999,1.872 -0.468,0 -0.84934,-0.17334 l 0.27734,-1.29999 q 0.624,0.0693 0.76266,0.0693 0.48533,0 0.76267,-0.19067 0.27733,-0.17333 0.624,-0.71066 l 0.90133,-1.404 -1.17867,-9.15198 h 1.56 l 0.79733,7.05465 z"
     id="text34"
     aria-label="Anthy" /><g
     id="g30"
     style="fill:#000000;fill-opacity:0.746377"
     transform="translate(0.53479567,0.39960118)"
     inkscape:label="a5shadow"><path
       id="rect28"
       style="fill:#000000;fill-opacity:0.288044;stroke-width:17.0079;stroke-linecap:round;stroke-linejoin:round;stroke-miterlimit:9.6"
       d="m 186.34802,184.21563 -1.26563,4.14063 -6.06055,0.0508 v 2.07031 l 5.93555,-0.041 -2.40625,9.09765 1.96485,2.13086 c 2.54149,-1.57787 5.1166,-3.01632 8.00781,-3.19531 3.0602,0.47416 3.9357,2.10602 4.16797,3.99414 -0.04,2.20152 -0.33069,4.0738 -3.32032,5.29492 -1.15861,0.47324 -6.40286,0.48912 -9.89843,0.3125 l 1.55859,2.50977 c 3.49227,0.4569 6.79383,1.39622 9.50977,-0.24024 2.81858,-1.69832 5.00675,-2.9756 4.83203,-8.60937 -0.12532,-4.04094 -4.4961,-5.49227 -7.04102,-5.66016 -2.57711,0.38149 -5.02739,0.952 -7.25,1.86524 l 1.75781,-7.5 13.42579,0.041 -0.0859,-2.08984 -13.11914,-0.0117 1.35156,-4.16016 z m -15.14063,0.1543 c -0.9588,0.0106 -1.84128,0.16392 -2.4414,1.8457 -2.54521,7.13256 -5.24117,16.01165 -7.85938,23.96094 l 2.83984,0.15625 1.8418,-5.50586 11.0957,-0.11133 1.83008,5.70899 2.5586,-0.0469 c -2.757,-8.15087 -5.36759,-16.29757 -7.64454,-24.5625 -0.2211,-0.80259 -1.13405,-1.45734 -2.2207,-1.44531 z m -0.25586,3.28906 c 0.4619,-0.0255 0.9,0.54357 0.98633,1.25586 l 3.39063,12.41016 -8.94727,-0.0488 c 0,0 3.23564,-10.78389 3.60156,-12.26562 0.23512,-0.9521 0.6095,-1.33173 0.96875,-1.35157 z" /><path
       id="path33"
       style="fill:#000000;fill-opacity:0.175725;stroke-width:17.0079;stroke-linecap:round;stroke-linejoin:round;stroke-miterlimit:9.6"
       d="m 186.74831,184.4511 -1.26563,4.14063 -6.06055,0.0508 v 2.07031 l 5.93555,-0.041 -2.40625,9.09765 1.96485,2.13086 c 2.54149,-1.57787 5.1166,-3.01632 8.00781,-3.19531 3.0602,0.47416 3.9357,2.10602 4.16797,3.99414 -0.04,2.20152 -0.33069,4.0738 -3.32032,5.29492 -1.15861,0.47324 -6.40286,0.48912 -9.89843,0.3125 l 1.55859,2.50977 c 3.49227,0.4569 6.79383,1.39622 9.50977,-0.24024 2.81858,-1.69832 5.00675,-2.9756 4.83203,-8.60937 -0.12532,-4.04094 -4.4961,-5.49227 -7.04102,-5.66016 -2.57711,0.38149 -5.02739,0.952 -7.25,1.86524 l 1.75781,-7.5 13.42579,0.041 -0.0859,-2.08984 -13.11914,-0.0117 1.35156,-4.16016 z m -15.14063,0.1543 c -0.9588,0.0106 -1.84128,0.16392 -2.4414,1.8457 -2.54521,7.13256 -5.24117,16.01165 -7.85938,23.96094 l 2.83984,0.15625 1.8418,-5.50586 11.0957,-0.11133 1.83008,5.70899 2.5586,-0.0469 c -2.757,-8.15087 -5.36759,-16.29757 -7.64454,-24.5625 -0.2211,-0.80259 -1.13405,-1.45734 -2.2207,-1.44531 z m -0.25586,3.28906 c 0.4619,-0.0255 0.9,0.54357 0.98633,1.25586 l 3.39063,12.41016 -8.94727,-0.0488 c 0,0 3.23564,-10.78389 3.60156,-12.26562 0.23512,-0.9521 0.6095,-1.33173 0.96875,-1.35157 z" /><path
       id="path34"
       style="fill:#000000;fill-opacity:0.344203;stroke-width:17.0079;stroke-linecap:round;stroke-linejoin:round;stroke-miterlimit:9.6"
       d="m 187.24279,184.8043 -1.26563,4.14063 -6.06055,0.0508 v 2.07031 l 5.93555,-0.041 -2.40625,9.09765 1.96485,2.13086 c 2.54149,-1.57787 5.1166,-3.01632 8.00781,-3.19531 3.0602,0.47416 3.9357,2.10602 4.16797,3.99414 -0.04,2.20152 -0.33069,4.0738 -3.32032,5.29492 -1.15861,0.47324 -6.40286,0.48912 -9.89843,0.3125 l 1.55859,2.50977 c 3.49227,0.4569 6.79383,1.39622 9.50977,-0.24024 2.81858,-1.69832 5.00675,-2.9756 4.83203,-8.60937 -0.12532,-4.04094 -4.4961,-5.49227 -7.04102,-5.66016 -2.57711,0.38149 -5.02739,0.952 -7.25,1.86524 l 1.75781,-7.5 13.42579,0.041 -0.0859,-2.08984 -13.11914,-0.0117 1.35156,-4.16016 z m -15.14063,0.1543 c -0.9588,0.0106 -1.84128,0.16392 -2.4414,1.8457 -2.54521,7.13256 -5.24117,16.01165 -7.85938,23.96094 l 2.83984,0.15625 1.8418,-5.50586 11.0957,-0.11133 1.83008,5.70899 2.5586,-0.0469 c -2.757,-8.15087 -5.36759,-16.29757 -7.64454,-24.5625 -0.2211,-0.80259 -1.13405,-1.45734 -2.2207,-1.44531 z m -0.25586,3.28906 c 0.4619,-0.0255 0.9,0.54357 0.98633,1.25586 l 3.39063,12.41016 -8.94727,-0.0488 c 0,0 3.23564,-10.78389 3.60156,-12.26562 0.23512,-0.9521 0.6095,-1.33173 0.96875,-1.35157 z" /></g><g
     id="g32"><path
       id="path31"
       style="fill:#3a4870;fill-opacity:1;stroke-width:17.0079;stroke-linecap:round;stroke-linejoin:round;stroke-miterlimit:9.6"
       d="m 171.20703,184.36914 c -0.9588,0.0106 -1.84128,0.16392 -2.44141,1.8457 -2.54521,7.13256 -5.24055,16.01177 -7.85876,23.96107 l 2.83986,0.156 1.8416,-5.50405 11.09546,-0.11185 1.83081,5.70899 2.55849,-0.0475 c -2.757,-8.15088 -5.3684,-16.29814 -7.64535,-24.56308 -0.22111,-0.80259 -1.13405,-1.45734 -2.2207,-1.44531 z m -1.22388,4.64113 c 0.53742,-2.17622 1.80062,-1.36179 1.9541,-0.0955 l 3.391,12.40974 -8.94748,-0.0477 c 0,0 3.23646,-10.78476 3.60238,-12.2665 z"
       sodipodi:nodetypes="ssccccccssscccssc" /><path
       id="path32"
       style="fill:#3a4870;stroke-width:17.0079;stroke-linecap:round;stroke-linejoin:round;stroke-miterlimit:9.6"
       d="m 186.34735,184.21614 h 2.06461 l -1.35151,4.16014 13.12024,0.0114 0.0861,2.08886 -13.42565,-0.0397 -1.75919,7.49894 c 2.22261,-0.91324 4.59522,-1.94217 7.25109,-1.86481 3.01021,0.0877 6.9156,1.62007 7.04092,5.66101 0.17472,5.63378 -1.99775,6.93805 -4.83319,8.60808 -1.9389,1.14198 -6.01725,0.69833 -9.50952,0.24143 l -1.55795,-2.51 c 3.49558,0.17662 8.73867,0.16105 9.89729,-0.31219 2.98963,-1.22112 3.42405,-3.09527 3.32066,-5.29472 -0.0893,-1.90025 -1.0738,-3.84261 -4.16671,-3.99601 -2.89319,-0.14349 -5.46718,1.61895 -8.00868,3.19682 l -1.9647,-2.13121 2.40568,-9.09734 -5.9355,0.0397 v -2.06866 l 6.06062,-0.0511 z"
       sodipodi:nodetypes="cccccccsssccsssccccccc" /></g><path
     id="path35"
     style="fill:#ff9014;fill-opacity:1;stroke-width:17.8958;stroke-linecap:round;stroke-linejoin:round;stroke-miterlimit:9.6"
     d="m 197.29135,208.42578 a 0.95856469,0.86580259 0 0 0 -0.95793,0.86524 0.95856469,0.86580259 0 0 0 0.58383,0.79492 l -0.96008,1.36914 h -1.47692 l -0.64439,-0.51758 a 0.95856469,0.86580259 0 0 0 0.3222,-0.64648 0.95856469,0.86580259 0 0 0 -0.95794,-0.86719 0.95856469,0.86580259 0 0 0 -0.95793,0.86719 0.95856469,0.86580259 0 0 0 0.45409,0.73437 l 0.28328,2.76172 h 7.96189 l 0.51033,-2.82813 a 0.95856469,0.86580259 0 0 0 0.52329,-0.76953 0.95856469,0.86580259 0 0 0 -0.96009,-0.86523 0.95856469,0.86580259 0 0 0 -0.95794,0.86523 0.95856469,0.86580259 0 0 0 0.35031,0.66797 l -0.37842,0.59766 h -1.29311 l -1.1266,-1.34961 a 0.95856469,0.86580259 0 0 0 0.64223,-0.81445 0.95856469,0.86580259 0 0 0 -0.9601,-0.86524 z" /></g></svg>
