<?xml version="1.0" encoding="UTF-8" standalone="no"?>
<!-- Created with Inkscape (http://www.inkscape.org/) -->

<svg
   width="256mm"
   height="256mm"
   viewBox="0 0 256 256"
   version="1.1"
   id="svg1"
   inkscape:version="1.3.2 (091e20ef0f, 2023-11-25)"
   xml:space="preserve"
   sodipodi:docname="scsi-02.svg"
   xmlns:inkscape="http://www.inkscape.org/namespaces/inkscape"
   xmlns:sodipodi="http://sodipodi.sourceforge.net/DTD/sodipodi-0.dtd"
   xmlns:xlink="http://www.w3.org/1999/xlink"
   xmlns="http://www.w3.org/2000/svg"
   xmlns:svg="http://www.w3.org/2000/svg"
   xmlns:rdf="http://www.w3.org/1999/02/22-rdf-syntax-ns#"
   xmlns:cc="http://creativecommons.org/ns#"
   xmlns:dc="http://purl.org/dc/elements/1.1/"><defs
     id="defs1"><linearGradient
       id="linearGradient25"
       inkscape:collect="always"><stop
         style="stop-color:#ffffff;stop-opacity:1;"
         offset="0"
         id="stop22" /><stop
         style="stop-color:#c0c0c0;stop-opacity:1;"
         offset="0.35581324"
         id="stop23" /><stop
         style="stop-color:#696969;stop-opacity:1;"
         offset="0.69336647"
         id="stop24" /><stop
         style="stop-color:#4c4c4c;stop-opacity:1;"
         offset="1"
         id="stop25" /></linearGradient><linearGradient
       id="linearGradient21"
       inkscape:collect="always"><stop
         style="stop-color:#ffffff;stop-opacity:1;"
         offset="0"
         id="stop18" /><stop
         style="stop-color:#c0c0c0;stop-opacity:1;"
         offset="0.35581324"
         id="stop19" /><stop
         style="stop-color:#696969;stop-opacity:1;"
         offset="0.69336647"
         id="stop20" /><stop
         style="stop-color:#4c4c4c;stop-opacity:1;"
         offset="1"
         id="stop21" /></linearGradient><linearGradient
       id="linearGradient17"
       inkscape:collect="always"><stop
         style="stop-color:#ffffff;stop-opacity:1;"
         offset="0"
         id="stop14" /><stop
         style="stop-color:#c0c0c0;stop-opacity:1;"
         offset="0.35581324"
         id="stop15" /><stop
         style="stop-color:#696969;stop-opacity:1;"
         offset="0.69336647"
         id="stop16" /><stop
         style="stop-color:#4c4c4c;stop-opacity:1;"
         offset="1"
         id="stop17" /></linearGradient><linearGradient
       id="linearGradient9"
       inkscape:collect="always"><stop
         style="stop-color:#ffffff;stop-opacity:1;"
         offset="0"
         id="stop9" /><stop
         style="stop-color:#c0c0c0;stop-opacity:1;"
         offset="0.35581324"
         id="stop11" /><stop
         style="stop-color:#696969;stop-opacity:1;"
         offset="0.69336647"
         id="stop12" /><stop
         style="stop-color:#4c4c4c;stop-opacity:1;"
         offset="1"
         id="stop10" /></linearGradient><linearGradient
       id="linearGradient4"
       inkscape:collect="always"><stop
         style="stop-color:#ffffff;stop-opacity:1;"
         offset="0"
         id="stop4" /><stop
         style="stop-color:#c0c0c0;stop-opacity:1;"
         offset="0.3191489"
         id="stop6" /><stop
         style="stop-color:#7f7f7f;stop-opacity:1;"
         offset="0.61170208"
         id="stop7" /><stop
         style="stop-color:#676767;stop-opacity:1;"
         offset="0.80585104"
         id="stop8" /><stop
         style="stop-color:#757575;stop-opacity:1;"
         offset="1"
         id="stop5" /></linearGradient><linearGradient
       inkscape:collect="always"
       xlink:href="#linearGradient4"
       id="linearGradient5"
       x1="188.60414"
       y1="115.46043"
       x2="188.60414"
       y2="140.58376"
       gradientUnits="userSpaceOnUse" /><linearGradient
       inkscape:collect="always"
       xlink:href="#linearGradient17"
       id="linearGradient10"
       x1="165.87614"
       y1="49.011925"
       x2="142.18738"
       y2="72.162773"
       gradientUnits="userSpaceOnUse" /><linearGradient
       inkscape:collect="always"
       xlink:href="#linearGradient21"
       id="linearGradient12"
       gradientUnits="userSpaceOnUse"
       x1="165.90692"
       y1="49.567539"
       x2="141.28706"
       y2="75.646545"
       gradientTransform="rotate(-89.421557,131.88417,101.62179)" /><linearGradient
       inkscape:collect="always"
       xlink:href="#linearGradient25"
       id="linearGradient13"
       gradientUnits="userSpaceOnUse"
       gradientTransform="rotate(179.83199,124.79377,119.02358)"
       x1="167.19254"
       y1="47.556229"
       x2="142.18738"
       y2="72.162773" /><linearGradient
       inkscape:collect="always"
       xlink:href="#linearGradient9"
       id="linearGradient14"
       gradientUnits="userSpaceOnUse"
       gradientTransform="matrix(0.9999957,0.00293232,0.00293232,-0.9999957,0.64086012,256.12232)"
       x1="163.88095"
       y1="49.604095"
       x2="142.18738"
       y2="72.162773" /></defs><sodipodi:namedview
     id="base"
     pagecolor="#ffffff"
     bordercolor="#000000"
     borderopacity="0.3"
     inkscape:pageopacity="0.0"
     inkscape:pageshadow="2"
     inkscape:zoom="0.98994949"
     inkscape:cx="505.07627"
     inkscape:cy="476.792"
     inkscape:document-units="mm"
     inkscape:showpageshadow="2"
     inkscape:pagecheckerboard="0"
     inkscape:deskcolor="#d1d1d1"
     inkscape:current-layer="svg1" /><metadata
     id="metadata1"><rdf:RDF><cc:Work
         rdf:about=""><dc:format>image/svg+xml</dc:format><dc:type
           rdf:resource="http://purl.org/dc/dcmitype/StillImage" /><cc:license
           rdf:resource="http://creativecommons.org/publicdomain/zero/1.0/" /></cc:Work><cc:License
         rdf:about="http://creativecommons.org/publicdomain/zero/1.0/"><cc:permits
           rdf:resource="http://creativecommons.org/ns#Reproduction" /><cc:permits
           rdf:resource="http://creativecommons.org/ns#Distribution" /><cc:permits
           rdf:resource="http://creativecommons.org/ns#DerivativeWorks" /></cc:License></rdf:RDF></metadata><g
     id="rect1"
     style="display:inline"
     transform="matrix(1.0127777,0,0,1.0127777,-2.9794055,-2.1720304)"
     inkscape:label="scsiv2"><path
       style="color:#000000;fill:#c0c0c0;stroke-linejoin:bevel;-inkscape-stroke:none"
       d="m 132.56569,11.759856 73.56593,70.826425 0.33409,13.096207 -45.30218,-0.267269 -29.26602,-31.337353 -55.458426,57.930664 -0.801808,10.28987 58.732484,57.73023 28.53102,-29.13238 42.56267,0.66817 -0.63477,12.49485 -71.99573,69.15599 -111.718658,-109.24641 0.267269,-11.96032 z"
       id="path8" /><g
       id="g14"><path
         id="rect8"
         style="display:inline;fill:url(#linearGradient10);stroke-width:6.00001;stroke-linejoin:bevel"
         d="m 132.71946,13.047569 72.67717,69.805984 0.13363,12.294399 -43.8322,-0.80181 L 132.077,63.734284 Z"
         sodipodi:nodetypes="cccccc" /><path
         id="path12"
         style="display:inline;fill:url(#linearGradient12);stroke-width:6.00001;stroke-linejoin:bevel"
         d="M 22.210427,121.43636 132.67426,12.984043 l -0.39383,51.003421 -55.012333,57.845846 -1.558428,5.99555 -53.443165,-0.45673 z"
         sodipodi:nodetypes="ccccccc" /><path
         id="path13"
         style="display:inline;fill:url(#linearGradient13);stroke-width:6.00001;stroke-linejoin:bevel"
         d="M 132.76787,244.02148 22.44802,133.91459 l -0.102859,-6.54766 53.589697,0.005 0.11025,4.36756 57.877782,58.84958 z"
         sodipodi:nodetypes="ccccccc" /><path
         id="path14"
         style="display:inline;fill:url(#linearGradient14);stroke-width:6.00001;stroke-linejoin:bevel"
         d="m 132.64457,243.65876 73.63501,-69.78738 0.16967,-12.29395 -43.83436,0.67328 -28.76298,27.97574 z"
         sodipodi:nodetypes="cccccc" /></g><path
       style="color:#000000;fill:#000000;stroke-linejoin:bevel;-inkscape-stroke:none"
       d="m 133.98828,3.6014648 -2.86523,0.02149 -119.827583,116.9297852 -0.605469,1.41016 -0.267578,11.96093 0.617188,1.50976 120.360782,115.5957 2.85352,0.0117 78.32524,-75.5039 0.6289,-1.37305 -0.12118,-12.49609 -1.25968,-2.15235 -48.8936,-0.66992 -1.49804,0.61524 -27.09375,27.66601 -56.585941,-55.62109 0.669922,-8.60742 53.453129,-55.835935 27.78711,29.751953 1.48632,0.650391 48.50801,0.267578 3.26522,-2.235198 0.0669,-13.632195 -0.62891,-1.423828 z M 132.58789,14.625 l 71.51563,68.855469 0.25781,10.140625 -42.30274,-0.25 -28.66211,-30.69336 -2.98046,-0.01758 -55.457036,57.931646 -0.564453,1.25781 -0.800781,10.28906 0.607422,1.6211 58.732418,57.73046 2.90039,-0.0273 27.91602,-28.50391 39.55859,0.6211 -0.48632,9.56445 -69.97657,67.2168 L 23.183594,133.125 23.412109,122.88086 Z"
       id="path9"
       sodipodi:nodetypes="cccccccccccccccccccccccccccccccccccccccccccc" /><path
       id="rect2"
       style="display:inline;fill:url(#linearGradient5);stroke:#000000;stroke-width:6;stroke-linecap:square;stroke-dasharray:none"
       d="m 140.04924,115.19317 h 96.21703 v 25.65787 h -96.21703 z"
       sodipodi:nodetypes="ccccc" /></g><g
     id="g29"
     inkscape:label="scsi1"
     style="display:none"><path
       id="rect25"
       style="display:inline;fill:#ffffff;fill-opacity:1;stroke:none;stroke-width:6.00001;stroke-linecap:butt;stroke-linejoin:bevel;stroke-dasharray:none;stroke-opacity:1"
       d="m 127.10542,16.479097 v 7.931816 h -7.77575 v 7.924581 h -7.92665 v 7.995894 h -8.12664 v 7.764384 h -7.860499 v 7.929232 h -8.197432 l 0.02362,8.090979 h -7.737365 l -0.04725,8.04292 h -7.924875 v 7.716842 H 63.74546 v 7.928198 h -7.993827 v 7.91838 h -7.947319 v 8.092017 H 39.95208 v 7.90649 h -7.932332 v 8.06307 h -8.153791 v 15.91634 h 8.139322 v 7.90391 h 7.83363 v 7.96541 h 7.871354 v 7.95662 h 7.984526 v 8.10752 h 7.892024 v 7.75198 h 7.831564 v 8.0238 h 8.230505 v 7.98504 h 7.857402 v 7.88996 h 7.885306 v 7.99434 h 7.87394 v 7.88841 h 7.90081 v 8.00106 h 7.9158 v 7.97987 h 7.95455 v 7.90702 h 8.20932 v -8.0853 h 7.99848 v -8.07599 h 7.89254 v -7.97523 h 7.95197 v -7.90442 h 7.88737 v -7.80056 h 7.95662 v -8.04137 h 7.88531 v -8.01811 h 7.91373 v -7.89926 h 7.8481 v -8.16591 h -8.00933 v 7.89977 h -7.84759 v 8.0176 h -7.91373 v 8.04189 h -7.88582 v 7.80004 h -7.9561 v 7.90494 h -7.88789 v 7.97523 h -7.95197 v 8.07599 h -7.89203 v 8.08529 h -8.14472 v -7.90752 h -7.91528 v -7.97936 h -7.90081 v -8.00106 h -7.87394 v -7.88893 H 95.5151 v -7.99383 h -7.856885 v -7.89047 h -7.923547 v -7.98453 H 71.59563 v -7.77368 h -7.892025 v -8.0021 H 55.71908 v -8.10751 h -7.871355 v -7.95662 h -7.83363 v -7.96593 h -7.905461 v -15.5515 h 8.087362 v -7.90701 h 7.764901 v -8.0915 h 7.85275 v -7.918894 h 7.994345 v -7.927682 h 7.946801 v -7.716841 h 8.023283 v -8.043437 h 7.901327 v -8.090979 h 7.878589 v -7.929232 h 7.867218 v -7.763867 h 8.04396 v -7.996411 h 7.94266 v -7.924064 h 7.92717 v -7.932332 h 7.398 v 7.83208 h 8.14058 v 7.873421 h 7.79333 v 7.890474 h 8.0176 v 7.945769 h 7.72924 v 7.99331 h 8.07031 v 7.83363 h 8.07444 v 7.96799 H 190.5 v 8.084187 h 8.40982 v -8.456775 h -7.9375 v -7.65948 h -8.07392 v -7.967989 h -8.07083 v -7.833114 h -7.72924 v -8.194332 h -8.0176 v -7.745264 h -7.99331 v -7.890474 h -7.9406 v -7.873421 h -8.03207 v -7.965406 z m 14.0131,100.585073 v 11.22516 h 93.00982 v -11.22516 z"
       inkscape:label="white"
       sodipodi:nodetypes="cccccccccccccccccccccccccccccccccccccccccccccccccccccccccccccccccccccccccccccccccccccccccccccccccccccccccccccccccccccccccccccccccccccccccccccccccccccccccccccccccccccccccccccccccc" /><path
       id="rect27"
       style="fill:#808080;fill-opacity:1;stroke:none;stroke-width:6;stroke-linecap:butt;stroke-linejoin:bevel;stroke-dasharray:none;stroke-opacity:1"
       d="m 134.85482,32.406807 -7.48688,0.06873 0.0186,7.732345 -7.999,0.115238 0.0853,7.86567 -7.99899,0.24908 -0.19741,7.982459 -7.614,-0.101803 0.003,7.849134 -8.134907,-0.03772 -0.04961,7.980391 -7.86722,-0.03772 -0.04961,8.113717 -7.733895,0.02894 -0.183451,7.846549 -8.001062,-0.238228 -0.179834,7.841751 -7.70754,0.231141 0.03359,7.814879 -7.993827,0.16758 -0.04703,7.99073 -7.795907,0.006 -0.114205,8.01295 -7.715291,-0.0729 v 15.57114 l 7.81141,0.14056 -0.03927,7.89151 7.853267,0.0532 -0.14211,8.08013 8.032068,-0.0465 0.04754,7.93853 8.079093,0.0476 -0.283703,7.98556 8.268229,0.18965 -0.236161,7.79694 8.126635,0.18965 -0.141593,7.66 8.005713,0.0269 0.08268,7.82019 7.900291,-0.0646 -0.0512,8.08684 7.96695,0.002 -0.25114,8.08736 8.23412,0.13591 -0.31833,7.68635 7.96747,-0.0646 0.077,8.16177 8.03724,-0.26406 0.25735,-7.96489 7.83724,-0.16485 -0.10025,-7.67705 7.88427,-0.16433 0.0315,-7.99589 h 7.92251 l -0.0207,-7.79798 7.98143,-0.0196 0.0248,-8.18606 7.78299,0.0599 -0.0212,-8.0207 8.01915,0.1018 0.0941,-8.01336 -24.30779,0.27721 0.17725,8.05108 -7.62204,0.1362 -0.72274,7.79266 -7.36049,0.0918 -0.37338,7.93366 -7.429,0.19629 -0.30294,7.78986 -7.41801,0.0169 -0.19299,-8.02866 -7.92465,-0.22259 -0.20039,-7.53428 -7.93647,-0.0486 -0.0512,-8.00002 -8.00313,-0.0486 -0.0517,-7.93337 -7.869284,-0.0486 -0.05116,-7.86619 -7.93595,-0.0486 -0.05168,-7.93337 -7.700822,0.0827 -0.09457,-8.08529 -7.890475,0.18293 v -8.08529 l -8.079093,-0.006 0.09457,-16.16439 7.890474,-0.19482 0.04725,-7.18764 7.842711,-0.52572 0.299354,-7.20503 7.620576,-0.79603 0.200947,-7.395269 7.895716,-0.649203 -0.133399,-7.558564 7.943475,-0.181975 0.7407,-7.425682 7.35725,-0.70745 -0.0315,-8.086623 7.91631,0.284737 0.0987,-8.067208 7.91631,0.218074 -0.003,-8.049637 8.13904,-0.163815 0.0777,8.052463 7.72698,0.135925 -0.0977,7.803349 8.05429,-0.08108 0.077,7.95507 7.96127,-0.06305 -0.0413,8.586822 23.66203,-0.17604 -0.0382,-8.057315 -7.72253,0.05168 0.017,-8.30957 -8.40155,0.242362 0.0501,-7.85275 -7.90546,0.04134 0.046,-7.709607 -8.10545,-0.292489 0.37982,-8.043953 -8.21914,0.0677 0.13281,-8.017599 -7.8853,0.133842 z m 6.23476,95.104793 v 9.33018 h 93.03876 v -9.33018 z"
       inkscape:label="gray"
       sodipodi:nodetypes="cccccccccccccccccccccccccccccccccccccccccccccccccccccccccccccccccccccccccccccccccccccccccccccccccccccccccccccccccccccccccccccccccc" /><path
       id="rect28"
       style="fill:#c0c0c0;fill-opacity:1;stroke:none;stroke-width:6.00001;stroke-linecap:butt;stroke-linejoin:bevel;stroke-dasharray:none;stroke-opacity:1"
       inkscape:label="lgray"
       d="m 127.09302,24.289473 v 7.981425 h -7.89151 v 8.054289 h -7.9499 v 7.782471 h -8.107 v 7.851717 h -7.847584 v 8.022766 h -8.097697 v 8.079094 h -7.663615 v 7.928198 h -8.06049 v 7.81451 h -7.823812 v 7.871354 h -7.928198 v 8.038783 H 47.74799 v 7.99021 H 39.8663 v 8.04344 h -7.870837 v 15.95872 h 7.805208 v 7.90442 h 7.93285 v 7.94215 h 8.041369 v 7.97471 h 7.833631 v 8.1256 h 7.847583 v 7.72305 h 8.192781 v 8.10183 h 7.852751 v 7.9375 h 7.856885 v 7.92664 h 7.828979 v 7.97316 h 8.00985 v 7.92407 h 7.86773 v 7.96282 h 7.97626 v 8.05118 h 8.27805 v -8.31473 h 7.95248 V 215.006 h 7.97316 v -7.97626 h 7.91735 v -7.65328 h 7.91786 v -8.18503 h 7.90701 v -7.97781 h 7.86567 v -7.90132 h 7.95145 v -8.16333 h -8.27753 v 7.90133 h -7.95145 v 7.9778 h -7.86567 v 8.01812 h -7.79022 v 7.82019 h -8.03465 v 7.97626 h -7.91787 v 7.93285 h -7.97264 v 8.05532 h -7.65173 v -7.79125 h -7.86773 v -7.96282 h -8.00985 v -7.92407 h -7.82898 v -7.97367 h -7.856883 v -7.92665 h -7.852234 v -7.9375 h -8.192782 v -8.10131 h -7.8481 v -7.72305 h -7.83363 v -8.12612 h -8.040853 v -7.97419 h -7.932849 v -7.94266 h -7.923547 v -15.57993 h 7.855334 v -7.99021 h 8.015015 v -8.03879 h 7.975224 v -7.871351 h 7.928198 v -7.815027 h 7.823812 v -7.927681 h 8.06049 v -7.890475 h 7.855334 V 64.31132 h 8.098211 v -7.851717 h 7.84707 v -7.782471 h 8.107 V 40.62336 h 7.9499 v -7.992794 h 7.2099 v 7.678601 h 7.92199 v 8.048088 h 7.9096 v 7.938017 h 7.85843 v 7.976257 h 8.0331 v 7.906494 h 8.19072 v 7.869287 h 7.58352 v 7.995083 h 8.41912 v -8.128925 h -8.21862 v -8.018115 h -7.50549 v -7.86877 h -8.0331 v -7.906494 h -8.22585 v -7.976774 h -7.74268 v -7.9375 h -7.98091 v -7.77627 h -8.00881 v -8.140072 z"
       sodipodi:nodetypes="ccccccccccccccccccccccccccccccccccccccccccccccccccccccccccccccccccccccccccccccccccccccccccccccccccccccccccccccccccccccccccccccccccccccccccccccccccccccccccccc" /><path
       id="path31"
       style="color:#000000;fill:#000000;stroke-linecap:square;-inkscape-stroke:none"
       d="m 127.03307,8.2351562 v 7.9349158 h -8.07082 v 7.901844 h -7.87342 v 8.103381 h -7.95817 v 7.81451 h -8.154545 v 7.786605 H 87.20863 v 8.102865 h -7.828979 v 8.059973 h -8.012948 v 7.863086 h -8.089945 v 7.848099 h -7.719426 v 7.890475 h -7.985559 v 8.085811 h -7.987109 v 7.997959 h -7.826396 v 8.02949 H 23.8125 v 7.85171 h -8.101831 v 16.30599 h 0.06666 v 0.0723 h 7.968505 v 7.85172 h 7.945769 v 8.02948 h 7.826395 v 7.99796 h 7.98711 v 8.08582 h 7.985559 v 7.89047 h 7.719425 v 7.8481 h 8.089946 v 7.86309 h 8.012947 v 8.05997 h 7.82898 v 8.10286 h 7.767484 v 7.78661 h 8.154538 v 7.81451 h 7.95817 v 8.10338 h 7.87343 v 7.90184 h 8.07082 v 7.93492 h 8.2212 v -7.94577 h 7.999 v -8.06566 h 8.00416 v -7.82484 h 7.88944 v -7.90908 h 7.89048 v -8.0176 h 8.07444 v -7.97626 h 8.00933 v -7.77678 h 7.72356 v -7.97006 h 8.11268 v -7.97522 h 7.87601 v -0.0429 h 0.0667 l -0.0661,-16.37471 h -47.87563 v 0.0429 h -0.0667 v 7.96489 h -8.06979 v 8.11681 h -7.77679 v 7.96593 h -8.10751 v 7.97522 h -7.6445 v -8.06979 H 119.232 v -7.81451 h -7.96592 v -8.04137 h -8.11682 v -7.98453 h -7.946802 v -7.96592 h -7.947319 v -7.9282 H 79.12902 v -7.9375 H 71.495378 V 119.7901 h 7.700305 v -7.9375 h 8.126119 v -7.92819 h 7.947318 v -7.965926 h 7.9468 v -7.984526 h 8.11682 v -8.041369 h 7.96592 v -7.81451 h 7.99435 v -8.069792 h 7.64449 v 7.975224 h 8.10752 v 7.965922 h 7.77678 v 8.116817 h 8.00313 v 8.00778 h 47.87563 v -0.04289 h 0.0667 l 0.0661,-16.374712 h -7.87601 v -7.975223 h -8.11268 v -7.970057 h -7.72356 v -7.776786 h -8.00933 v -7.976257 h -8.07444 v -8.017599 h -7.89048 v -7.909078 h -7.88944 v -7.824845 h -8.00416 v -8.065658 h -7.99899 V 8.2351562 Z m 0.15038,8.2212038 h 7.84913 v 7.945768 h 8.00417 v 8.065658 h 7.88892 v 7.824328 h 7.89048 v 7.909078 h 8.07444 v 8.017599 h 8.00985 v 7.976257 h 7.72355 v 7.777303 h 8.11217 v 7.969539 h 7.77834 v 8.032068 H 159.04301 V 79.60186 h -7.77679 v -7.833631 h -8.10752 v -7.965922 h -7.76748 v -7.975224 h -8.2212 v 8.069792 h -8.09822 v 7.81451 h -7.99383 v 8.04137 h -7.96592 v 7.985042 h -8.117332 v 7.965922 h -7.946801 v 7.927681 h -7.946802 v 7.9375 h -8.126636 v 7.68429 h -7.766968 v 16.70699 h 0.06666 v 0.17673 h 7.633643 v 7.68429 h 8.126635 v 7.9375 h 7.946802 v 7.92768 h 7.946802 v 7.96592 h 8.117334 v 7.98504 h 7.96592 v 8.04137 h 7.99383 v 7.81451 h 8.09821 v 8.06979 h 8.22121 v -7.97522 h 7.76748 v -7.96592 h 8.10752 v -7.83363 h 7.77678 v -8.3721 h 39.53816 v 8.03207 h -7.845 v 7.96953 h -8.11217 v 7.77731 h -7.72356 v 7.97626 h -8.00984 v 8.01759 h -8.07445 v 7.90908 h -7.89047 v 7.82433 h -7.88893 v 8.06566 h -8.00416 v 7.94577 h -7.84913 v -7.93492 h -7.87342 v -7.90133 h -7.95817 v -8.10338 h -8.15506 v -7.81502 H 95.362655 V 199.393 h -8.04137 v -8.10287 h -7.800557 v -8.06049 h -8.089429 v -7.86308 h -7.719942 v -7.84759 h -7.985559 v -7.89099 h -7.98711 v -8.08581 h -7.826396 v -7.99744 h -7.945251 v -8.03 h -7.968506 v -15.63936 h 8.035169 v -8.03 h 7.945251 v -7.99745 h 7.826396 v -8.085807 h 7.987109 v -7.890991 h 7.985559 v -7.847583 h 7.719942 v -7.863086 h 8.089429 v -8.06049 h 7.800558 v -8.102864 h 8.041369 v -7.786088 h 7.767483 v -7.815027 h 8.15506 v -8.103381 h 7.95817 v -7.901327 h 7.87342 z m 7.45536,94.9141 v 32.62695 h 103.98642 v -32.62695 z m 7.40007,7.40058 h 89.18628 v 17.82631 h -89.18628 z"
       inkscape:label="black" /></g></svg>
