<?xml version="1.0" encoding="UTF-8" standalone="no"?>
<!-- Created with Inkscape (http://www.inkscape.org/) -->

<svg
   width="256mm"
   height="256mm"
   viewBox="0 0 256 256"
   version="1.1"
   id="svg1"
   inkscape:version="1.3.2 (091e20ef0f, 2023-11-25)"
   xml:space="preserve"
   sodipodi:docname="preferences-security-administration.svg"
   xmlns:inkscape="http://www.inkscape.org/namespaces/inkscape"
   xmlns:sodipodi="http://sodipodi.sourceforge.net/DTD/sodipodi-0.dtd"
   xmlns:xlink="http://www.w3.org/1999/xlink"
   xmlns="http://www.w3.org/2000/svg"
   xmlns:svg="http://www.w3.org/2000/svg"
   xmlns:rdf="http://www.w3.org/1999/02/22-rdf-syntax-ns#"
   xmlns:cc="http://creativecommons.org/ns#"
   xmlns:dc="http://purl.org/dc/elements/1.1/"><defs
     id="defs1"><linearGradient
       id="linearGradient32"
       inkscape:collect="always"><stop
         style="stop-color:#0080f5;stop-opacity:1;"
         offset="0"
         id="stop36" /><stop
         style="stop-color:#ff2b50;stop-opacity:1;"
         offset="1"
         id="stop37" /></linearGradient><linearGradient
       id="linearGradient12"
       inkscape:collect="always"><stop
         style="stop-color:#ffffff;stop-opacity:0.8551532;"
         offset="0"
         id="stop29" /><stop
         style="stop-color:#ffffff;stop-opacity:0;"
         offset="1"
         id="stop30" /></linearGradient><linearGradient
       id="linearGradient27"><stop
         style="stop-color:#ffffff;stop-opacity:0;"
         offset="0"
         id="stop1" /><stop
         style="stop-color:#ffffff;stop-opacity:0.3789809;"
         offset="0.48812887"
         id="stop2" /><stop
         style="stop-color:#ffffff;stop-opacity:0.28821656;"
         offset="0.54380649"
         id="stop28" /><stop
         style="stop-color:#ffffff;stop-opacity:0.17197452;"
         offset="0.5895505"
         id="stop3" /><stop
         style="stop-color:#ffffff;stop-opacity:0;"
         offset="1"
         id="stop27" /></linearGradient><linearGradient
       id="linearGradient28"><stop
         style="stop-color:#ffffff;stop-opacity:0.95306861;"
         offset="0"
         id="stop39" /><stop
         style="stop-color:#ffffff;stop-opacity:0.88808662;"
         offset="0.5"
         id="stop40" /><stop
         style="stop-color:#ffffff;stop-opacity:0.23529412;"
         offset="0.75"
         id="stop41" /><stop
         style="stop-color:#ffffff;stop-opacity:0;"
         offset="1"
         id="stop42" /></linearGradient><linearGradient
       id="linearGradient33"
       inkscape:collect="always"><stop
         style="stop-color:#000000;stop-opacity:1;"
         offset="0"
         id="stop32" /><stop
         style="stop-color:#000000;stop-opacity:0;"
         offset="1"
         id="stop33" /></linearGradient><linearGradient
       id="linearGradient25"
       inkscape:collect="always"><stop
         style="stop-color:#ffffff;stop-opacity:0.31227437;"
         offset="0"
         id="stop25" /><stop
         style="stop-color:#ffffff;stop-opacity:0.39711192;"
         offset="0.43362707"
         id="stop34" /><stop
         style="stop-color:#b2b2b2;stop-opacity:0.35018051;"
         offset="0.75"
         id="stop35" /><stop
         style="stop-color:#000000;stop-opacity:0.69855595;"
         offset="1"
         id="stop26" /></linearGradient><linearGradient
       id="linearGradient17"
       inkscape:collect="always"><stop
         style="stop-color:#e5e5e5;stop-opacity:1;"
         offset="0"
         id="stop18" /><stop
         style="stop-color:#e7e7e7;stop-opacity:1;"
         offset="0.31624097"
         id="stop20" /><stop
         style="stop-color:#e6e6e6;stop-opacity:1;"
         offset="0.47786331"
         id="stop21" /><stop
         style="stop-color:#b9b9b9;stop-opacity:1;"
         offset="0.57791466"
         id="stop22" /><stop
         style="stop-color:#a7a7a7;stop-opacity:1;"
         offset="0.66405529"
         id="stop23" /><stop
         style="stop-color:#4f4f4f;stop-opacity:1;"
         offset="0.75881875"
         id="stop24" /><stop
         style="stop-color:#3c3c3c;stop-opacity:1;"
         offset="1"
         id="stop19" /></linearGradient><linearGradient
       id="linearGradient11"
       inkscape:collect="always"><stop
         style="stop-color:#545454;stop-opacity:1;"
         offset="0"
         id="stop12" /><stop
         style="stop-color:#636363;stop-opacity:1;"
         offset="0.2400057"
         id="stop14" /><stop
         style="stop-color:#5b5b5b;stop-opacity:1;"
         offset="0.3223604"
         id="stop15" /><stop
         style="stop-color:#a8a8a8;stop-opacity:1;"
         offset="0.76534051"
         id="stop16" /><stop
         style="stop-color:#c8c8c8;stop-opacity:1;"
         offset="0.87447578"
         id="stop17" /><stop
         style="stop-color:#c6c6c6;stop-opacity:1;"
         offset="1"
         id="stop13" /></linearGradient><linearGradient
       id="linearGradient4"
       inkscape:collect="always"><stop
         style="stop-color:#c2c2c2;stop-opacity:1;"
         offset="0"
         id="stop4" /><stop
         style="stop-color:#b5b5b5;stop-opacity:0.98823529;"
         offset="0.16409792"
         id="stop6" /><stop
         style="stop-color:#dedede;stop-opacity:0.98431373;"
         offset="0.28631935"
         id="stop7" /><stop
         style="stop-color:#fefefe;stop-opacity:0.98039216;"
         offset="0.39773631"
         id="stop8" /><stop
         style="stop-color:#eeeeee;stop-opacity:0.98039216;"
         offset="0.51493144"
         id="stop9" /><stop
         style="stop-color:#949494;stop-opacity:0.98039216;"
         offset="0.7314356"
         id="stop10" /><stop
         style="stop-color:#8c8c8c;stop-opacity:0.98039216;"
         offset="0.82025123"
         id="stop11" /><stop
         style="stop-color:#858585;stop-opacity:0.98014438;"
         offset="1"
         id="stop5" /></linearGradient><radialGradient
       inkscape:collect="always"
       xlink:href="#linearGradient4"
       id="radialGradient5"
       cx="81.040985"
       cy="142.2795"
       fx="81.040985"
       fy="142.2795"
       r="69.058155"
       gradientTransform="matrix(1.8961262,0.18586137,-0.17617874,1.797347,-42.845918,-168.41825)"
       gradientUnits="userSpaceOnUse" /><radialGradient
       inkscape:collect="always"
       xlink:href="#linearGradient11"
       id="radialGradient13"
       cx="72.035408"
       cy="112.64373"
       fx="72.035408"
       fy="112.64373"
       r="63.717113"
       gradientTransform="matrix(1.6227853,0.64935858,-0.6954202,1.7378963,37.006659,-133.34913)"
       gradientUnits="userSpaceOnUse" /><radialGradient
       inkscape:collect="always"
       xlink:href="#linearGradient17"
       id="radialGradient19"
       cx="70.588013"
       cy="103.05713"
       fx="70.588013"
       fy="103.05713"
       r="68.634262"
       gradientTransform="matrix(1.200727,1.60715,-1.3355943,0.99784366,143.62398,-112.44219)"
       gradientUnits="userSpaceOnUse" /><linearGradient
       inkscape:collect="always"
       xlink:href="#linearGradient25"
       id="linearGradient26"
       x1="47.906567"
       y1="63.471901"
       x2="195.02751"
       y2="92.465759"
       gradientUnits="userSpaceOnUse" /><radialGradient
       inkscape:collect="always"
       xlink:href="#linearGradient28"
       id="radialGradient29"
       cx="-34.462631"
       cy="136.48999"
       fx="-34.462631"
       fy="136.48999"
       r="66.169261"
       gradientTransform="matrix(1.4170947,-0.77438366,0.27699654,0.50689388,66.07275,-19.840322)"
       gradientUnits="userSpaceOnUse" /><radialGradient
       inkscape:collect="always"
       xlink:href="#linearGradient33"
       id="radialGradient31"
       gradientUnits="userSpaceOnUse"
       gradientTransform="matrix(0.895292,0.25719453,-1.1815232,4.1128707,-13.514551,-307.64353)"
       cx="335.13358"
       cy="98.440018"
       fx="335.13358"
       fy="98.440018"
       r="66.169261" /><radialGradient
       inkscape:collect="always"
       xlink:href="#linearGradient33"
       id="radialGradient37"
       gradientUnits="userSpaceOnUse"
       gradientTransform="matrix(0.53532898,0.1291972,-0.4246182,1.7594067,68.992806,-91.943569)"
       cx="207.53209"
       cy="137.18916"
       fx="207.53209"
       fy="137.18916"
       r="66.169261" /><radialGradient
       inkscape:collect="always"
       xlink:href="#linearGradient27"
       id="radialGradient39"
       cx="107.36793"
       cy="133.66647"
       fx="107.36793"
       fy="133.66647"
       r="66.169258"
       gradientTransform="matrix(1.9088757,-1.1221102,2.5084313,4.2672102,-415.93739,-367.98877)"
       gradientUnits="userSpaceOnUse" /><radialGradient
       inkscape:collect="always"
       xlink:href="#linearGradient33"
       id="radialGradient28"
       gradientUnits="userSpaceOnUse"
       gradientTransform="matrix(1.1214859,-0.09421413,0.35822742,4.2641969,-227.52424,-202.02249)"
       cx="358.08429"
       cy="73.565903"
       fx="358.08429"
       fy="73.565903"
       r="66.169261" /><linearGradient
       inkscape:collect="always"
       xlink:href="#linearGradient12"
       id="linearGradient30"
       x1="129.38124"
       y1="128.19062"
       x2="134.42713"
       y2="128.19062"
       gradientUnits="userSpaceOnUse" /><linearGradient
       inkscape:collect="always"
       xlink:href="#linearGradient32"
       id="linearGradient37"
       x1="52.2795"
       y1="102.59443"
       x2="203.89329"
       y2="102.59443"
       gradientUnits="userSpaceOnUse"
       gradientTransform="matrix(0.55032364,0,0,0.55032364,50.078549,40.520559)" /></defs><sodipodi:namedview
     id="base"
     pagecolor="#ffffff"
     bordercolor="#000000"
     borderopacity="0.3"
     inkscape:pageopacity="0.0"
     inkscape:pageshadow="2"
     inkscape:zoom="0.98994949"
     inkscape:cx="505.07627"
     inkscape:cy="476.792"
     inkscape:document-units="mm"
     inkscape:showpageshadow="2"
     inkscape:pagecheckerboard="0"
     inkscape:deskcolor="#d1d1d1"
     inkscape:current-layer="rect1"
     showguides="true"><sodipodi:guide
       position="-10.205357,129.37797"
       orientation="0,-1"
       id="guide1"
       inkscape:locked="false" /><sodipodi:guide
       position="129.4096,255.14955"
       orientation="1,0"
       id="guide8"
       inkscape:locked="false" /></sodipodi:namedview><metadata
     id="metadata1"><rdf:RDF><cc:Work
         rdf:about=""><dc:format>image/svg+xml</dc:format><dc:type
           rdf:resource="http://purl.org/dc/dcmitype/StillImage" /><cc:license
           rdf:resource="http://creativecommons.org/publicdomain/zero/1.0/" /></cc:Work><cc:License
         rdf:about="http://creativecommons.org/publicdomain/zero/1.0/"><cc:permits
           rdf:resource="http://creativecommons.org/ns#Reproduction" /><cc:permits
           rdf:resource="http://creativecommons.org/ns#Distribution" /><cc:permits
           rdf:resource="http://creativecommons.org/ns#DerivativeWorks" /></cc:License></rdf:RDF></metadata><g
     id="rect1"
     inkscape:label="shieldcolored"
     transform="matrix(1.4864319,0,0,1.4864319,-48.520287,-44.20661)"><path
       style="color:#000000;fill:#1c8b00;fill-opacity:1;fill-rule:evenodd;stroke-linecap:round;stroke-linejoin:round;stroke-miterlimit:2.1;-inkscape-stroke:none"
       d="m 53.988442,64.144684 c 40.997591,-4.94344 50.289878,-30.076328 65.614668,-29.934187 16.49719,0.153016 24.87575,23.319326 65.61466,29.934187 1.78866,45.584816 1.73446,81.096326 -45.43582,124.814876 -12.84112,11.90146 -28.50016,11.43408 -40.624958,-0.26727 C 51.008457,142.2253 52.327323,111.90278 53.988442,64.144684 Z"
       id="path24"
       inkscape:label="color" /><g
       id="g12"
       transform="matrix(0.67275198,0,0,0.67275198,32.642119,29.740084)"><path
         style="color:#000000;fill:#383838;fill-opacity:1;fill-rule:evenodd;stroke-linecap:round;stroke-linejoin:round;stroke-miterlimit:2.1;-inkscape-stroke:none"
         d="m 119.70586,115.00089 v 82.65618 c 6.87102,-0.0481 13.80893,-2.88916 20.07599,-8.69761 28.37152,-26.29541 39.68713,-49.62355 43.81973,-73.95857 z"
         transform="matrix(1.4864319,0,0,1.4864319,-48.520286,-44.20661)"
         id="path12" /><path
         style="color:#000000;fill:#faff1e;fill-opacity:1;fill-rule:evenodd;stroke-linecap:round;stroke-linejoin:round;stroke-miterlimit:2.1;-inkscape-stroke:none"
         d="m 55.276494,115.00089 c 3.849154,23.59615 14.8968,45.72004 43.880568,73.69157 6.205928,5.98919 13.337978,9.01371 20.543928,8.96461 v -82.65618 z"
         transform="matrix(1.4864319,0,0,1.4864319,-48.520286,-44.20661)"
         id="path11" /><path
         style="color:#000000;fill:#faff1e;fill-opacity:1;fill-rule:evenodd;stroke-linecap:round;stroke-linejoin:round;stroke-miterlimit:2.1;-inkscape-stroke:none"
         d="m 119.70586,34.216132 v 80.683248 h 63.9124 c 2.71927,-16.092172 2.3109,-32.626023 1.59956,-50.754739 -40.65287,-6.600889 -49.08363,-29.679077 -65.51196,-29.928509 z"
         transform="matrix(1.4864319,0,0,1.4864319,-48.520286,-44.20661)"
         id="path10" /><path
         style="color:#000000;fill:#383838;fill-opacity:1;fill-rule:evenodd;stroke-linecap:round;stroke-linejoin:round;stroke-miterlimit:2.1;-inkscape-stroke:none"
         d="M 119.60295,34.21057 C 104.2782,34.068429 94.985944,59.201211 53.988435,64.144641 53.328688,83.112754 52.734821,99.328094 55.26085,114.89938 h 64.44014 V 34.215785 c -0.0331,-4.94e-4 -0.0649,-0.0049 -0.098,-0.0052 z"
         transform="matrix(1.4864319,0,0,1.4864319,-48.520286,-44.20661)"
         id="path7" /><rect
         style="fill:url(#linearGradient30);fill-opacity:0.50591;stroke:none;stroke-width:12.1137;stroke-linecap:round;stroke-linejoin:round;stroke-miterlimit:2.1"
         id="rect12"
         width="5.0458865"
         height="242.62291"
         x="129.38124"
         y="6.8791666" /></g><path
       d="m 83.912836,123.08181 c -2.590891,-0.9902 -2.739341,-1.13018 -2.873354,-2.70932 -0.10999,-1.29577 -0.33725,-1.66517 -1.02452,-1.66517 -0.485746,0 -0.883177,-0.0756 -0.883177,-0.16807 0,-0.0924 1.055189,-2.70494 2.344851,-5.80555 2.100247,-5.04948 2.373344,-6.09657 2.618168,-10.03874 l 0.273363,-4.40124 3.642698,-5.19164 c 2.846899,-4.057466 4.359573,-5.732031 6.924182,-7.665186 1.804805,-1.36044 3.290363,-2.610877 3.3012,-2.778751 0.01042,-0.167862 -0.608182,-2.084179 -1.375616,-4.258455 -0.767423,-2.174279 -1.294849,-4.053684 -1.172089,-4.176453 0.122701,-0.122756 3.105346,0.769023 6.627978,1.981768 5.9613,2.05232 6.40502,2.284674 6.40852,3.355862 10e-4,0.632979 -1.42827,3.501605 -3.17852,6.374722 l -3.18224,5.223853 -0.005,4.970472 -0.005,4.970468 2.04902,3.28752 c 1.12698,1.80813 2.04904,3.44182 2.04904,3.63042 0,0.18858 -1.09496,1.59504 -2.43326,3.12543 -1.3383,1.53039 -4.00661,4.67786 -5.929554,6.99439 -2.896418,3.48921 -3.716519,4.21187 -4.779801,4.21187 -1.113749,0 -3.753984,0.66926 -5.981598,1.51624 -0.375664,0.14284 -1.912409,-0.21018 -3.415033,-0.78445 z m 5.713294,-20.53897 1.095665,-1.82135 -1.950743,1.53878 c -1.227802,0.96851 -1.856696,1.78386 -1.696957,2.20009 0.139744,0.36373 0.253762,0.89505 0.253762,1.18073 0,0.5532 0.537661,-0.1716 2.298273,-3.09825 z m 62.13203,20.67112 c -1.25217,-0.45325 -2.93804,-0.83305 -3.74638,-0.84401 -1.28915,-0.0174 -1.89919,-0.53737 -4.966,-4.23181 -1.92294,-2.31652 -4.59123,-5.464 -5.92951,-6.99439 -1.33829,-1.53038 -2.43327,-2.93683 -2.43327,-3.12542 0,-0.18861 0.92207,-1.82229 2.04905,-3.63042 l 2.04899,-3.28752 v -4.923308 -4.923316 l -3.18737,-5.330698 c -1.75305,-2.931887 -3.18564,-5.821735 -3.1836,-6.421885 0.001,-0.994408 0.57178,-1.286744 6.40847,-3.296174 3.52263,-1.212744 6.51347,-2.096273 6.64633,-1.963397 0.13285,0.132857 -0.42492,2.104849 -1.23952,4.382166 -1.34428,3.758007 -1.41293,4.191844 -0.74308,4.695425 5.38862,4.050927 6.29104,4.967289 9.72354,9.873707 l 3.67418,5.2519 0.21359,4.3257 c 0.19416,3.9307 0.42796,4.84049 2.56163,9.9632 1.29145,3.10061 2.34811,5.71311 2.34811,5.80554 0,0.0924 -0.39743,0.16807 -0.88319,0.16807 -0.68558,0 -0.91482,0.36925 -1.02452,1.65012 -0.12769,1.48991 -0.34025,1.72726 -2.19033,2.44462 -3.23147,1.25298 -3.73093,1.28645 -6.14707,0.4119 z m 2.47237,-19.15301 c 0.0179,-0.16678 -0.8341,-0.9864 -1.89267,-1.82135 l -1.92461,-1.51811 1.10137,1.82135 c 0.60577,1.00174 1.31577,2.17916 1.57778,2.61649 0.45333,0.75664 0.49165,0.75664 0.79125,0 0.17318,-0.43733 0.32927,-0.9316 0.34688,-1.09838 z m -40.19004,16.76003 c -1.80214,-2.10943 -2.27421,-3.1239 -3.48712,-7.49368 -1.06862,-3.85009 -1.99535,-6.01738 -3.89039,-9.09845 l -2.48763,-4.0445 6.1e-4,-4.057108 5.5e-4,-4.057119 3.56143,-5.930182 3.56141,-5.930177 -1.0357,-4.542583 c -0.56966,-2.49842 -1.04557,-4.941824 -1.05766,-5.429786 -0.0155,-0.610992 1.17055,0.390672 3.80816,3.217317 l 3.83005,4.104525 h 3.72335 3.72336 l 3.83005,-4.104525 c 2.66959,-2.86091 3.82702,-3.835714 3.82008,-3.217317 -0.004,0.487962 -0.48202,2.930337 -1.05901,5.427499 l -1.04904,4.540297 3.56278,5.932464 3.56279,5.932468 5.5e-4,4.057119 5.5e-4,4.057108 -2.48762,4.0445 c -1.89504,3.08107 -2.82176,5.24836 -3.89037,9.09845 -1.2129,4.36978 -1.68497,5.38425 -3.48711,7.49368 -1.85541,2.17177 -2.27826,2.43971 -3.85034,2.43971 -0.97133,0 -1.76605,-0.18651 -1.76605,-0.41444 0,-0.22796 0.82996,-1.46444 1.84438,-2.74776 l 1.84436,-2.33331 -1.73053,0.74009 c -0.95179,0.40704 -1.95464,0.83356 -2.22855,0.94781 -0.2739,0.11424 -1.55803,-0.21009 -2.8536,-0.72077 l -2.35561,-0.92849 1.8291,2.31399 c 1.00602,1.27269 1.82911,2.50049 1.82911,2.72844 0,0.22795 -0.79473,0.41444 -1.76606,0.41444 -1.57207,0 -1.99492,-0.26794 -3.85033,-2.43971 z M 113.9312,98.38853 c -0.97141,-0.815566 -1.84201,-1.407062 -1.9346,-1.314442 -0.0926,0.0926 0.49422,1.131484 1.30411,2.308586 1.30468,1.896306 1.52517,2.046106 1.9346,1.314456 0.37978,-0.67858 0.14731,-1.090056 -1.30411,-2.3086 z m 13.94358,0.934954 c 0.7875,-1.144552 1.35603,-2.156778 1.26339,-2.249396 -0.0926,-0.0926 -0.94573,0.485256 -1.8959,1.284172 -1.2474,1.048874 -1.64217,1.67401 -1.42045,2.24939 0.16883,0.43827 0.37772,0.79684 0.46412,0.79684 0.0864,0 0.8014,-0.93645 1.58884,-2.081006 z"
       style="display:none;fill:url(#linearGradient37);fill-opacity:1;stroke:#000000;stroke-width:0.565182;stroke-dasharray:none;stroke-opacity:1"
       id="path1-3"
       inkscape:label="Cerberos" /><g
       id="g35"
       inkscape:label="shadow"><path
         id="rect25"
         style="display:inline;fill:url(#linearGradient26);fill-rule:evenodd;stroke-width:5.80001;stroke-linecap:round;stroke-linejoin:round;stroke-miterlimit:2.1"
         d="m 55.32479,64.94649 c 12.940124,-2.088978 59.70833,-30.359634 64.67922,-31.270535 31.47433,14.590532 23.80847,21.310664 65.08013,30.735997 0.0856,7.649195 1.20272,18.976139 1.20272,18.976139 0,0 -78.56136,-12.534166 -125.616679,45.703089 C 52.364876,116.70149 54.310574,81.9768 55.32479,64.94649 Z"
         sodipodi:nodetypes="cccccc"
         inkscape:label="whiteheadshadow" /><path
         style="color:#000000;fill:url(#radialGradient37);fill-opacity:0.433657;fill-rule:evenodd;stroke-linecap:round;stroke-linejoin:round;stroke-miterlimit:2.1;-inkscape-stroke:none"
         d="m 53.988442,64.144684 c 40.997591,-4.94344 50.289878,-30.076328 65.614668,-29.934187 16.49719,0.153016 24.87575,23.319326 65.61466,29.934187 1.78866,45.584816 1.73446,81.096326 -45.43582,124.814876 -12.84112,11.90146 -28.50016,11.43408 -40.624958,-0.26727 C 51.008457,142.2253 52.327323,111.90278 53.988442,64.144684 Z"
         id="path37"
         inkscape:label="darkmiddle" /><path
         style="color:#000000;fill:url(#radialGradient29);fill-opacity:0.433657;fill-rule:evenodd;stroke-linecap:round;stroke-linejoin:round;stroke-miterlimit:2.1;-inkscape-stroke:none"
         d="m 53.988442,64.144684 c 40.997591,-4.94344 50.289878,-30.076328 65.614668,-29.934187 16.49719,0.153016 24.87575,23.319326 65.61466,29.934187 1.78866,45.584816 1.73446,81.096326 -45.43582,124.814876 -12.84112,11.90146 -28.50016,11.43408 -40.624958,-0.26727 C 51.008457,142.2253 52.327323,111.90278 53.988442,64.144684 Z"
         id="path26"
         inkscape:label="whitelefttop" /><path
         style="color:#000000;fill:url(#radialGradient39);fill-opacity:1;fill-rule:evenodd;stroke-linecap:round;stroke-linejoin:round;stroke-miterlimit:2.1;-inkscape-stroke:none"
         d="m 53.988442,64.144684 c 40.997591,-4.94344 50.289878,-30.076328 65.614668,-29.934187 16.49719,0.153016 24.87575,23.319326 65.61466,29.934187 1.78866,45.584816 1.73446,81.096326 -45.43582,124.814876 -12.84112,11.90146 -28.50016,11.43408 -40.624958,-0.26727 C 51.008457,142.2253 52.327323,111.90278 53.988442,64.144684 Z"
         id="path29"
         inkscape:label="whiteleftbottom" /><path
         style="color:#000000;fill:url(#radialGradient31);fill-opacity:0.433657;fill-rule:evenodd;stroke-linecap:round;stroke-linejoin:round;stroke-miterlimit:2.1;-inkscape-stroke:none"
         d="m 53.988442,64.144684 c 40.997591,-4.94344 50.289878,-30.076328 65.614668,-29.934187 16.49719,0.153016 24.87575,23.319326 65.61466,29.934187 1.78866,45.584816 1.73446,81.096326 -45.43582,124.814876 -12.84112,11.90146 -28.50016,11.43408 -40.624958,-0.26727 C 51.008457,142.2253 52.327323,111.90278 53.988442,64.144684 Z"
         id="path31"
         inkscape:label="darklefttop" /><path
         style="color:#000000;fill:url(#radialGradient28);fill-opacity:0.433657;fill-rule:evenodd;stroke-linecap:round;stroke-linejoin:round;stroke-miterlimit:2.1;-inkscape-stroke:none"
         d="m 53.988442,64.144684 c 40.997591,-4.94344 50.289878,-30.076328 65.614668,-29.934187 16.49719,0.153016 24.87575,23.319326 65.61466,29.934187 1.78866,45.584816 1.73446,81.096326 -45.43582,124.814876 -12.84112,11.90146 -28.50016,11.43408 -40.624958,-0.26727 C 51.008457,142.2253 52.327323,111.90278 53.988442,64.144684 Z"
         id="path28"
         inkscape:label="darklefttopright" /></g><g
       id="path1"
       style="display:inline"
       inkscape:label="frame"><path
         style="color:#000000;fill:url(#radialGradient5);fill-rule:evenodd;stroke-linecap:round;stroke-linejoin:round;stroke-miterlimit:2.1;-inkscape-stroke:none"
         d="m 119.63086,31.310547 c -4.62648,-0.04291 -8.68331,1.839413 -12.57422,4.40039 -3.89091,2.560978 -7.762945,5.849382 -12.351562,9.222657 -9.177234,6.746549 -21.11973,13.92712 -41.064453,16.332031 -1.418213,0.171264 -1.865763,1.416529 -1.916016,2.844161 -0.830373,23.873686 -2.260274,43.666884 3.378907,63.583574 5.63918,19.91669 17.72849,39.62439 42.039062,63.08594 6.497392,6.27047 14.173182,9.69446 22.019532,9.79687 7.84635,0.10242 15.72632,-3.12715 22.5918,-9.49023 47.74365,-44.24997 48.15239,-81.40867 46.36132,-127.05469 -0.0537,-1.378879 -1.07148,-2.528995 -2.43359,-2.75 -19.87183,-3.226629 -31.57595,-10.355213 -40.67187,-16.882813 -9.09593,-6.527599 -15.7776,-12.998835 -25.37891,-13.08789 z m -0.0547,5.800781 c 6.89587,0.06396 12.65037,5.252489 22.05274,12 9.02996,6.480263 21.32384,13.853066 40.76171,17.431641 1.69186,44.349561 1.2133,77.846661 -44.58007,120.289061 -5.97564,5.53836 -12.34764,8.02656 -18.57227,7.94531 -6.22463,-0.0812 -12.44096,-2.74101 -18.06836,-8.17187 C 77.332008,163.60007 66.006823,144.91408 60.683594,126.11328 55.546136,107.96859 56.030726,89.371971 56.816406,66.632812 76.390397,63.788994 88.984061,56.338775 98.140625,49.607422 c 4.774745,-3.510103 8.662815,-6.786795 12.105465,-9.052735 3.44266,-2.265939 6.29418,-3.471518 9.33008,-3.443359 z"
         id="path25"
         sodipodi:nodetypes="sssccssscccsssscscsscssss" /><path
         style="color:#000000;fill:#808080;fill-rule:evenodd;stroke:url(#radialGradient19);stroke-linecap:round;stroke-linejoin:round;stroke-miterlimit:2.1;-inkscape-stroke:none"
         d="m 120.27559,30.770972 c -3.96831,-0.03681 -7.52504,1.565014 -11.23047,4.003907 -3.70542,2.438893 -7.58436,5.72245 -12.249993,9.152343 -9.331269,6.859787 -24.89696,15.792019 -44.701429,17.497985 0.01126,0.117898 0.0037,0.207558 0.01156,0.253007 -0.830526,23.878104 -0.834469,52.946826 3.101873,65.895386 5.770313,18.98138 17.91723,39.82478 42.03222,63.09757 6.137389,5.92305 14.377809,9.95197 21.553109,10.04562 7.1753,0.0937 17.2368,-3.23064 23.73406,-9.25246 47.2691,-43.81014 45.98104,-81.90473 45.12741,-129.370952 -0.009,-0.237404 -0.18359,-0.43578 -0.41797,-0.474609 C 166.95232,58.325272 153.23495,50.494011 144.01223,43.875413 134.7895,37.256816 128.75741,30.849644 120.27559,30.770972 Z m -0.01,1 c 8.01536,0.07435 14.15412,5.792706 23.42968,12.449219 9.21103,6.610205 23.19574,14.667556 43.39731,18.023299 2.03929,51.25811 2.15362,85.32491 -44.77826,128.82251 -6.34385,5.87963 -16.56549,9.44951 -23.46118,9.3595 -6.89569,-0.09 -15.50024,-4.17702 -21.48763,-9.95531 C 73.332253,167.27604 61.022638,146.69634 55.56867,127.4338 50.147472,108.28698 51.801567,85.742505 52.625822,62.058663 75.562633,58.718509 87.725605,50.85569 97.119654,44.399776 c 4.805206,-3.302301 8.846156,-6.400936 12.474296,-8.78896 3.62814,-2.388024 6.9778,-3.874107 10.67188,-3.839844 z"
         id="path4"
         sodipodi:nodetypes="sssccsscsccsscscsscscsscc" /><path
         style="color:#000000;fill:url(#radialGradient13);fill-rule:evenodd;stroke-linecap:round;stroke-linejoin:round;stroke-miterlimit:2.1;-inkscape-stroke:none"
         d="m 119.13495,37.207217 c -3.96831,-0.03681 -7.80852,2.226472 -11.51395,4.665365 -3.70542,2.438893 -7.58436,5.72245 -12.249999,9.152343 -9.331269,6.859787 -17.765966,12.435104 -38.169215,14.895303 -0.244265,0.02966 -0.430651,0.232615 -0.439453,0.478516 -0.830526,23.878104 -1.929351,40.429426 3.579091,59.884366 5.508443,19.45495 15.771544,36.94549 39.886536,60.21828 6.13739,5.92305 10.98354,8.15994 18.15884,8.25359 7.1753,0.0937 12.61129,-1.55875 19.08846,-7.60217 45.66548,-42.60743 47.29028,-75.07013 45.50121,-120.665459 -0.009,-0.237404 -0.18359,-0.43578 -0.41797,-0.474609 -20.28364,-3.293497 -30.19692,-9.550208 -39.41964,-16.168806 -9.22273,-6.618597 -15.52209,-12.558047 -24.00391,-12.636719 z m -0.01,1 c 8.01536,0.07435 14.15412,5.792706 23.42968,12.449219 9.21103,6.610205 19.2337,12.908766 39.43527,16.264509 1.77202,45.378185 -0.13357,76.803655 -45.19456,119.499445 -6.27871,5.94914 -11.49942,7.4246 -18.39511,7.33459 -6.89569,-0.09 -11.49176,-2.196 -17.47915,-7.97429 C 76.88782,162.58654 66.758283,145.27222 61.304315,126.00968 55.883117,106.86286 56.926359,90.529852 57.750614,66.84601 78.081547,64.307665 86.635566,58.688384 95.962798,51.831566 c 4.697732,-3.453484 8.578892,-6.735023 12.207032,-9.123047 3.62814,-2.388024 7.26128,-4.535565 10.95536,-4.501302 z"
         id="path2"
         sodipodi:nodetypes="sssccsscsccsscscsscscsscc" /></g><g
       id="g40"
       inkscape:label="rivet"
       style="display:inline"><circle
         style="fill:#979797;fill-opacity:1;fill-rule:evenodd;stroke:#6e6e6e;stroke-width:0.6;stroke-linecap:round;stroke-linejoin:round;stroke-miterlimit:2.1;stroke-dasharray:none;stroke-opacity:1"
         id="path30"
         cx="120.40556"
         cy="34.868305"
         r="1.0394346" /><circle
         style="fill:#c4c4c4;fill-opacity:1;fill-rule:evenodd;stroke:#8d8d8d;stroke-width:0.6;stroke-linecap:round;stroke-linejoin:round;stroke-miterlimit:2.1;stroke-dasharray:none;stroke-opacity:1"
         id="circle30"
         cx="53.588181"
         cy="100.88388"
         r="1.0394346" /><circle
         style="fill:#979797;fill-opacity:1;fill-rule:evenodd;stroke:#6e6e6e;stroke-width:0.6;stroke-linecap:round;stroke-linejoin:round;stroke-miterlimit:2.1;stroke-dasharray:none;stroke-opacity:1"
         id="circle31"
         cx="120.40556"
         cy="197.10091"
         r="1.0394346" /><circle
         style="fill:#787878;fill-opacity:1;fill-rule:evenodd;stroke:#505050;stroke-width:0.6;stroke-linecap:round;stroke-linejoin:round;stroke-miterlimit:2.1;stroke-dasharray:none;stroke-opacity:1"
         id="circle32"
         cx="184.66151"
         cy="64.620255"
         r="1.0394346" /><circle
         style="fill:#c4c4c4;fill-opacity:1;fill-rule:evenodd;stroke:#8d8d8d;stroke-width:0.6;stroke-linecap:round;stroke-linejoin:round;stroke-miterlimit:2.1;stroke-dasharray:none;stroke-opacity:1"
         id="circle33"
         cx="61.617393"
         cy="137.59534"
         r="1.0394346" /><circle
         style="fill:#a2a2a2;fill-opacity:1;fill-rule:evenodd;stroke:#676767;stroke-width:0.6;stroke-linecap:round;stroke-linejoin:round;stroke-miterlimit:2.1;stroke-dasharray:none;stroke-opacity:1"
         id="circle34"
         cx="177.87964"
         cy="137.59534"
         r="1.0394346" /><circle
         style="fill:#c4c4c4;fill-opacity:1;fill-rule:evenodd;stroke:#8d8d8d;stroke-width:0.6;stroke-linecap:round;stroke-linejoin:round;stroke-miterlimit:2.1;stroke-dasharray:none;stroke-opacity:1"
         id="circle35"
         cx="82.731689"
         cy="171.2713"
         r="1.0394346" /><circle
         style="fill:#959595;fill-opacity:1;fill-rule:evenodd;stroke:#727272;stroke-width:0.6;stroke-linecap:round;stroke-linejoin:round;stroke-miterlimit:2.1;stroke-dasharray:none;stroke-opacity:1"
         id="circle36"
         cx="157.29988"
         cy="171.2713"
         r="1.0394346" /><circle
         style="fill:#979797;fill-opacity:1;fill-rule:evenodd;stroke:#747474;stroke-width:0.6;stroke-linecap:round;stroke-linejoin:round;stroke-miterlimit:2.1;stroke-dasharray:none;stroke-opacity:1"
         id="circle37"
         cx="185.35205"
         cy="100.88388"
         r="1.0394346" /><circle
         style="fill:#979797;fill-opacity:1;fill-rule:evenodd;stroke:#6a6a6a;stroke-width:0.6;stroke-linecap:round;stroke-linejoin:round;stroke-miterlimit:2.1;stroke-dasharray:none;stroke-opacity:1"
         id="circle38"
         cx="55.035793"
         cy="64.620255"
         r="1.0394346" /><circle
         style="fill:#787878;fill-opacity:1;fill-rule:evenodd;stroke:#505050;stroke-width:0.6;stroke-linecap:round;stroke-linejoin:round;stroke-miterlimit:2.1;stroke-dasharray:none;stroke-opacity:1"
         id="circle39"
         cx="149.11467"
         cy="51.524048"
         r="1.0394346" /><circle
         style="fill:#a3a3a3;fill-opacity:1;fill-rule:evenodd;stroke:#767676;stroke-width:0.6;stroke-linecap:round;stroke-linejoin:round;stroke-miterlimit:2.1;stroke-dasharray:none;stroke-opacity:1"
         id="circle40"
         cx="91.384453"
         cy="51.524048"
         r="1.0394346" /></g></g></svg>
