<?xml version="1.0" encoding="UTF-8" standalone="no"?>
<!-- Created with Sodipodi ("http://www.sodipodi.com/") -->

<svg
   xml:space="preserve"
   width="256pt"
   height="256pt"
   viewBox="0 0 256 256"
   id="svg293"
   sodipodi:version="0.34"
   sodipodi:docname="kexi.svg"
   version="1.1"
   inkscape:version="1.3 (0e150ed6c4, 2023-07-21)"
   inkscape:export-filename="../kexi.png"
   inkscape:export-xdpi="72"
   inkscape:export-ydpi="72"
   xmlns:inkscape="http://www.inkscape.org/namespaces/inkscape"
   xmlns:sodipodi="http://sodipodi.sourceforge.net/DTD/sodipodi-0.dtd"
   xmlns:xlink="http://www.w3.org/1999/xlink"
   xmlns="http://www.w3.org/2000/svg"
   xmlns:svg="http://www.w3.org/2000/svg"
   xmlns:rdf="http://www.w3.org/1999/02/22-rdf-syntax-ns#"
   xmlns:cc="http://creativecommons.org/ns#"><defs
     id="defs391"><linearGradient
       id="linearGradient895"><stop
         offset="0"
         style="stop-color:#ffffff;stop-opacity:1;"
         id="stop896" /><stop
         offset="1"
         style="stop-color:#ff0000;stop-opacity:0;"
         id="stop897" /></linearGradient><linearGradient
       id="linearGradient891"><stop
         offset="0"
         style="stop-color:#7f0000;stop-opacity:1;"
         id="stop892" /><stop
         offset="1"
         style="stop-color:#ff0000;stop-opacity:1;"
         id="stop893" /></linearGradient><linearGradient
       id="linearGradient166"><stop
         offset="0.000000"
         style="stop-color:#ffa800;stop-opacity:1;"
         id="stop168" /><stop
         offset="1.000000"
         style="stop-color:#fff332;stop-opacity:1;"
         id="stop167" /></linearGradient><linearGradient
       id="linearGradient163"><stop
         offset="0.000000"
         style="stop-color:#ffa800;stop-opacity:1;"
         id="stop165" /><stop
         offset="1.000000"
         style="stop-color:#ffcc00;stop-opacity:1;"
         id="stop164" /></linearGradient><linearGradient
       id="linearGradient160"><stop
         offset="0.000000"
         style="stop-color:#ffa800;stop-opacity:1;"
         id="stop162" /><stop
         offset="1.000000"
         style="stop-color:#ffcc00;stop-opacity:1;"
         id="stop161" /></linearGradient><linearGradient
       id="linearGradient157"><stop
         offset="0.000000"
         style="stop-color:#ffa800;stop-opacity:1;"
         id="stop159" /><stop
         offset="1.000000"
         style="stop-color:#ffcc00;stop-opacity:1;"
         id="stop158" /></linearGradient><linearGradient
       id="linearGradient154"><stop
         offset="0.000000"
         style="stop-color:#ffa800;stop-opacity:1;"
         id="stop156" /><stop
         offset="1.000000"
         style="stop-color:#ffcc00;stop-opacity:1;"
         id="stop155" /></linearGradient><linearGradient
       id="linearGradient151"><stop
         offset="0.000000"
         style="stop-color:#ffa800;stop-opacity:1;"
         id="stop153" /><stop
         offset="1.000000"
         style="stop-color:#ffcc00;stop-opacity:1;"
         id="stop152" /></linearGradient><linearGradient
       id="linearGradient148"><stop
         offset="0.000000"
         style="stop-color:#ffa800;stop-opacity:1;"
         id="stop150" /><stop
         offset="1.000000"
         style="stop-color:#ffcc00;stop-opacity:1;"
         id="stop149" /></linearGradient><linearGradient
       id="linearGradient145"><stop
         offset="0.000000"
         style="stop-color:#ffa800;stop-opacity:1;"
         id="stop147" /><stop
         offset="1.000000"
         style="stop-color:#ffcc00;stop-opacity:1;"
         id="stop146" /></linearGradient><linearGradient
       id="linearGradient142"><stop
         offset="0.000000"
         style="stop-color:#ffa800;stop-opacity:1;"
         id="stop144" /><stop
         offset="1.000000"
         style="stop-color:#ffcc00;stop-opacity:1;"
         id="stop143" /></linearGradient><linearGradient
       id="linearGradient139"><stop
         offset="0.000000"
         style="stop-color:#ffa800;stop-opacity:1;"
         id="stop141" /><stop
         offset="1.000000"
         style="stop-color:#ffcc00;stop-opacity:1;"
         id="stop140" /></linearGradient><linearGradient
       id="linearGradient136"><stop
         offset="0.000000"
         style="stop-color:#ffa800;stop-opacity:1;"
         id="stop138" /><stop
         offset="1.000000"
         style="stop-color:#ffcc00;stop-opacity:1;"
         id="stop137" /></linearGradient><linearGradient
       id="linearGradient133"><stop
         offset="0.000000"
         style="stop-color:#ffa800;stop-opacity:1;"
         id="stop135" /><stop
         offset="1.000000"
         style="stop-color:#ffcc00;stop-opacity:1;"
         id="stop134" /></linearGradient><linearGradient
       id="linearGradient130"><stop
         offset="0.000000"
         style="stop-color:#ffa800;stop-opacity:1;"
         id="stop132" /><stop
         offset="1.000000"
         style="stop-color:#ffcc00;stop-opacity:1;"
         id="stop131" /></linearGradient><linearGradient
       id="linearGradient127"><stop
         offset="0"
         style="stop-color:#ff7f00;stop-opacity:1;"
         id="stop129" /><stop
         offset="1"
         style="stop-color:#ffbf00;stop-opacity:1;"
         id="stop128" /></linearGradient><linearGradient
       id="linearGradient124"><stop
         offset="0.000000"
         style="stop-color:#ffcd00;stop-opacity:1;"
         id="stop126" /><stop
         offset="1.000000"
         style="stop-color:#fff332;stop-opacity:1;"
         id="stop125" /></linearGradient><linearGradient
       id="linearGradient121"><stop
         offset="0.000000"
         style="stop-color:#ffcd00;stop-opacity:1;"
         id="stop123" /><stop
         offset="1.000000"
         style="stop-color:#fff332;stop-opacity:1;"
         id="stop122" /></linearGradient><linearGradient
       id="linearGradient118"><stop
         offset="0.000000"
         style="stop-color:#ffcd00;stop-opacity:1;"
         id="stop120" /><stop
         offset="1.000000"
         style="stop-color:#fff332;stop-opacity:1;"
         id="stop119" /></linearGradient><linearGradient
       id="linearGradient115"><stop
         offset="0.000000"
         style="stop-color:#ffcd00;stop-opacity:1;"
         id="stop117" /><stop
         offset="1.000000"
         style="stop-color:#fff332;stop-opacity:1;"
         id="stop116" /></linearGradient><linearGradient
       id="linearGradient112"><stop
         offset="0"
         style="stop-color:#ffbf00;stop-opacity:1;"
         id="stop114" /><stop
         offset="1"
         style="stop-color:#fff332;stop-opacity:1;"
         id="stop113" /></linearGradient><linearGradient
       id="linearGradient108"><stop
         offset="0.000000"
         style="stop-color:#ffcd00;stop-opacity:1;"
         id="stop110" /><stop
         offset="1.000000"
         style="stop-color:#fff332;stop-opacity:1;"
         id="stop109" /></linearGradient><linearGradient
       id="linearGradient626"><stop
         offset="0.000000"
         style="stop-color:#ff0000;stop-opacity:1;"
         id="stop627" /><stop
         offset="1.000000"
         style="stop-color:#ff771d;stop-opacity:1;"
         id="stop628" /></linearGradient><linearGradient
       id="linearGradient621"><stop
         offset="0.000000"
         style="stop-color:#ff1a00;stop-opacity:1;"
         id="stop623" /><stop
         offset="1.000000"
         style="stop-color:#970000;stop-opacity:1;"
         id="stop622" /></linearGradient><linearGradient
       xlink:href="#linearGradient891"
       id="linearGradient625"
       x1="44.487213"
       y1="31.313326"
       x2="44.486961"
       y2="92.259804"
       gradientTransform="matrix(1.9924603,0,0,1.5587282,1,1)"
       gradientUnits="userSpaceOnUse" /><linearGradient
       x1="126.131"
       y1="96.335602"
       x2="126.131"
       y2="18.2654"
       xlink:href="#linearGradient166"
       id="linearGradient111"
       gradientUnits="userSpaceOnUse"
       spreadMethod="pad" /><linearGradient
       xlink:href="#linearGradient895"
       id="linearGradient898"
       x1="39.346775"
       y1="34.779049"
       x2="39.34655"
       y2="88.683235"
       gradientTransform="matrix(2.2527644,0,0,1.378619,1,1)"
       gradientUnits="userSpaceOnUse" /></defs><sodipodi:namedview
     id="base"
     pagecolor="#ffffff"
     bordercolor="#000000"
     borderopacity="0.25"
     inkscape:showpageshadow="2"
     inkscape:pageopacity="0.0"
     inkscape:pagecheckerboard="0"
     inkscape:deskcolor="#d1d1d1"
     inkscape:document-units="pt"
     inkscape:zoom="2.6571748"
     inkscape:cx="171.79901"
     inkscape:cy="191.36867"
     inkscape:current-layer="svg293" /><g
     id="Layer_x0020_1"
     style="clip-rule:nonzero;fill:#ffffff;fill-rule:nonzero;stroke:#ffffff;stroke-width:0;stroke-miterlimit:4"
     transform="matrix(1.7623008,0,0,1.7623008,1,1)"><path
       style="fill:none;stroke:none"
       d="M 144,144 H 0 V 0 h 144 z"
       id="path295" /><g
       style="stroke:none"
       id="g296"><path
         style="opacity:0.15;fill:#000000"
         d="m 141.946,86.339 c 0,0 -9.583,-7.144 -11.612,-8.657 0.012,-0.294 0.014,-0.346 0.024,-0.589 0.99,-0.692 2.33,-1.556 3.575,-2.354 3.808,-2.444 5.569,-3.628 6.449,-4.708 0.442,-0.542 0.675,-1.214 0.675,-1.896 0,-0.292 -0.042,-0.584 -0.129,-0.871 -1.427,-4.704 -3.459,-9.409 -6.042,-13.986 -0.422,-0.749 -1.145,-1.28 -1.985,-1.459 0,0 -10.194,-2.176 -11.073,-2.363 -1.526,-2.38 -3.254,-4.684 -5.132,-6.914 1.465,-1.876 3.508,-4.494 3.508,-4.494 0.426,-0.546 0.635,-1.197 0.635,-1.845 0,-0.786 -0.307,-1.567 -0.909,-2.152 -3.535,-3.437 -7.345,-6.604 -11.322,-9.414 -0.88,-0.622 -2.025,-0.724 -3.001,-0.268 0,0 -4.592,2.146 -6.515,3.044 -2.399,-1.474 -4.885,-2.807 -7.436,-4.001 0.046,-2.244 0.129,-6.273 0.129,-6.294 0,-1.214 -0.732,-2.311 -1.859,-2.774 -4.843,-1.992 -9.847,-3.551 -14.873,-4.635 -1.485,-0.32 -2.975,0.52 -3.469,1.957 0,0 -1.129,3.283 -1.915,5.566 C 67.274,17 64.907,16.9 62.591,16.961 61.186,15.186 56.458,9.212 56.458,9.212 55.843,8.435 54.884,8.012 53.895,8.081 49.719,8.375 45.7,9.12 41.861,10.178 41.398,10.036 40.928,9.909 40.43,10.009 c -1.269,0.252 -2.233,1.29 -2.392,2.574 -0.125,1.016 -0.167,3.89 -0.167,7.191 0,1.511 0.01,3.091 0.023,4.643 -2.848,-1.388 -11.075,-5.397 -11.075,-5.397 -1.058,-0.516 -2.328,-0.369 -3.235,0.38 -3.252,2.688 -6.055,5.795 -8.331,9.235 -0.265,0.4 -0.43,0.858 -0.481,1.335 -0.094,0.879 -0.573,10.581 -0.718,13.533 -0.002,0.049 -0.003,0.098 -0.003,0.147 0,0.995 0.494,1.929 1.324,2.488 0,0 1.369,0.922 2.086,1.405 -3.138,0.184 -6.438,0.377 -6.438,0.377 -1.421,0.083 -2.587,1.153 -2.793,2.562 L 5.84,66.887 c -0.021,0.144 -0.031,0.288 -0.031,0.433 0,0.126 0.008,0.253 0.024,0.379 L 7.59,81.493 c 0.179,1.402 1.327,2.491 2.735,2.611 0,0 11.201,0.986 11.52,1.015 0.921,2.001 1.969,3.97 2.943,5.646 -0.052,0.069 -0.118,0.084 -0.167,0.165 l -0.946,1.534 c -0.845,2.258 -2.65,6.625 -5.367,12.979 -0.162,0.379 -0.242,0.78 -0.242,1.179 0,0.648 0.21,1.291 0.617,1.823 2.807,3.67 11.993,12.969 15.994,13.923 0.829,0.197 1.702,0.033 2.403,-0.452 0,0 8.722,-6.038 11.201,-7.755 2.149,1.334 5.337,3.25 7.654,4.383 0.248,2.202 1.742,15.5 1.742,15.5 0.127,1.126 0.876,2.084 1.938,2.478 8.056,2.987 13.286,4.29 17.489,4.358 1.051,0.017 2.039,-0.523 2.596,-1.415 l 6.801,-10.874 c 0.493,-0.784 0.767,-1.229 0.965,-1.575 1.632,-0.091 3.833,-0.273 5.775,-0.614 1.229,1.58 7.355,9.457 7.355,9.457 0.723,0.93 1.924,1.351 3.069,1.075 5.195,-1.249 10.589,-5.115 10.816,-5.278 0.162,-0.117 0.312,-0.25 0.447,-0.396 0.431,-0.466 10.582,-11.445 12.104,-13.242 0.474,-0.559 0.72,-1.248 0.72,-1.941 0,-0.501 -0.128,-1.004 -0.391,-1.463 0,0 -0.517,-0.903 -0.71,-1.242 0.073,-0.052 0.16,-0.074 0.229,-0.133 l 11.991,-10.245 c 0.339,-0.29 0.609,-0.651 0.791,-1.059 1.78,-3.991 2.948,-8.313 3.47,-12.846 0.013,-0.115 0.02,-0.23 0.02,-0.344 0,-0.94 -0.442,-1.835 -1.207,-2.405 z M 94.708,91.046 C 84.995,93.112 73.218,90.466 63.207,83.966 50.603,75.784 43.234,63.311 43.318,52.322 c 8.731,-10.46 27.288,-11.688 42.298,-1.143 12.992,9.125 19.138,24.524 17.307,36.612 -2.38,1.494 -5.133,2.598 -8.215,3.254 z"
         id="path297" /><linearGradient
         id="aigrd1"
         gradientUnits="userSpaceOnUse"
         x1="72.902802"
         y1="-4.1747999"
         x2="72.902802"
         y2="62.4105"
         xlink:href="#linearGradient166" /><linearGradient
         id="aigrd2"
         gradientUnits="userSpaceOnUse"
         x1="106.8521"
         y1="78.406303"
         x2="106.8521"
         y2="78.406303"
         xlink:href="#linearGradient148" /><path
         style="fill:url(#aigrd2)"
         d="M 106.852,78.406 Z"
         id="path305" /><linearGradient
         id="aigrd3"
         gradientUnits="userSpaceOnUse"
         x1="115.4688"
         y1="96.335403"
         x2="115.4688"
         y2="18.266199"
         xlink:href="#linearGradient124" /><path
         style="fill:url(#aigrd3)"
         d="m 112.471,103.529 c 0,0.254 0.061,0.51 0.186,0.745 0,0 3.749,7.03 4.626,8.675 -0.043,0.049 -0.116,0.136 -0.185,0.218 l 1.368,-0.693 -5.413,-10.152 c -0.04,0.033 -0.086,0.052 -0.122,0.089 -0.303,0.305 -0.46,0.708 -0.46,1.118 z"
         id="path309" /><linearGradient
         id="aigrd4"
         gradientUnits="userSpaceOnUse"
         x1="126.1318"
         y1="96.336403"
         x2="126.1318"
         y2="18.2656"
         xlink:href="#linearGradient108" /><path
         style="fill:url(#linearGradient111)"
         d="m 132.09,81.941 -10.999,-8.209 -0.212,-3.823 c -0.217,0.267 -0.352,0.432 -0.352,0.432 -0.23,0.283 -0.355,0.638 -0.355,1.001 0,0.029 0.001,0.059 0.001,0.088 l 0.142,2.544 c 0.026,0.468 0.26,0.902 0.635,1.182 0,0 9.119,6.805 10.421,7.778 -0.177,1.307 -1.086,7.998 -1.415,10.416 l 0.491,0.246 1.642,-11.654 z"
         id="path313" /><linearGradient
         id="aigrd5"
         gradientUnits="userSpaceOnUse"
         x1="136.3833"
         y1="153.0576"
         x2="-6.8566999"
         y2="9.8176003"
         xlink:href="#linearGradient154" /><path
         style="fill:url(#aigrd5)"
         d="M 26.306,33.055 17.333,26.38 c -0.009,0.011 -4.57,-1.099 -4.578,-1.09 -0.092,0.861 -0.704,13.36 -0.704,13.36 l 11.19,7.536 3.064,-13.131 z"
         id="path317" /><linearGradient
         id="aigrd6"
         gradientUnits="userSpaceOnUse"
         x1="100.0923"
         y1="161.63091"
         x2="-27.368"
         y2="34.170601"
         xlink:href="#linearGradient151" /><path
         style="fill:url(#aigrd6)"
         d="M 61.79,98.94 48.048,91.325 34.462,100.667 21.664,88.126 c -0.183,0.17 0.195,-0.056 -5.598,13.497 3.207,4.193 11.716,12.209 14.307,12.827 12.827,-8.88 12.827,-8.88 12.827,-8.88 0,0 8.345,5.304 10.524,5.92 1.936,17.219 0,0 1.936,17.219 6.78,2.514 12.274,4.103 16.495,4.171 7.793,-12.522 7.765,-12.334 7.793,-12.522 l -17.974,-4.199 z"
         id="path321" /><linearGradient
         id="aigrd7"
         gradientUnits="userSpaceOnUse"
         x1="122.3804"
         y1="137.4839"
         x2="-8.1731997"
         y2="6.9303002"
         xlink:href="#linearGradient163" /><path
         style="fill:url(#aigrd7)"
         d="m 95.446,102.969 -13.01,0.885 -3.091,14.319 c 0.002,0 0.888,0.936 0.89,0.936 0,0 6.252,-0.139 9.213,-1.043 8.518,10.951 0,0 8.518,10.951 4.68,-1.125 9.762,-4.794 9.762,-4.794 0,0 10.52,-11.377 12.018,-13.145 l -13.936,7.124 -10.363,-15.233 z"
         id="path325" /><linearGradient
         id="aigrd8"
         gradientUnits="userSpaceOnUse"
         x1="175.3452"
         y1="114.9814"
         x2="2.0820999"
         y2="-58.281601"
         xlink:href="#linearGradient160" /><path
         style="fill:url(#aigrd8)"
         d="m 121.866,71.06 c 1.231,-1.511 9.873,-6.309 11.19,-7.925 l -11.634,-0.069 z"
         id="path329" /><linearGradient
         id="aigrd9"
         gradientUnits="userSpaceOnUse"
         x1="146.29739"
         y1="124.1431"
         x2="-10.2547"
         y2="-32.409"
         xlink:href="#linearGradient157" /><path
         style="fill:url(#aigrd9)"
         d="m 107.04,98.942 12.893,7.015 11.991,-10.245 -14.396,-8.396 z"
         id="path333" /><linearGradient
         id="aigrd10"
         gradientUnits="userSpaceOnUse"
         x1="150.2925"
         y1="129.4277"
         x2="11.9819"
         y2="-8.8828001"
         xlink:href="#linearGradient145" /><path
         style="fill:url(#aigrd10)"
         d="m 36.016,7.951 c -0.25,2.024 -0.094,14.307 -0.094,14.307 -10e-4,0.008 0.001,-0.008 0,0 l 5.896,-4.068 c 0,0 -5.801,-10.239 -5.802,-10.239 z"
         id="path337" /><linearGradient
         id="aigrd11"
         gradientUnits="userSpaceOnUse"
         x1="112.6475"
         y1="166.6543"
         x2="-25.7521"
         y2="28.2547"
         xlink:href="#linearGradient142" /><path
         style="fill:url(#aigrd11)"
         d="M 25.015,62.481 8.815,60.932 6.2,45.916 3.809,62.32 5.566,76.114 c 0,0 0,0 13.295,1.171 2.138,5.221 5.92,10.854 5.92,10.854 l 6.687,-11.122 z"
         id="path341" /><linearGradient
         id="aigrd12"
         gradientUnits="userSpaceOnUse"
         x1="53.722198"
         y1="108.854"
         x2="-13.5695"
         y2="41.562401"
         xlink:href="#linearGradient139" /><path
         style="fill:url(#aigrd12)"
         d="M 6.2,45.916 5.048,61.498 5.566,76.114 7.789,60.844 Z"
         id="path345" /><linearGradient
         id="aigrd13"
         gradientUnits="userSpaceOnUse"
         x1="66.733902"
         y1="116.981"
         x2="8.1185999"
         y2="58.365601"
         xlink:href="#linearGradient136" /><path
         style="fill:url(#aigrd13)"
         d="M 25.015,62.481 18.861,77.285 25.11,88.139 32.392,76 25.016,62.48 Z"
         id="path349" /><linearGradient
         id="aigrd14"
         gradientUnits="userSpaceOnUse"
         x1="42.560501"
         y1="121.8091"
         x2="42.560501"
         y2="5.7972002"
         xlink:href="#linearGradient121" /><path
         style="fill:url(#aigrd14)"
         d="M 48.886,5.797 36.016,7.95 36.271,8.4 C 40.317,7.169 44.622,6.388 49.105,6.073 l -0.22,-0.277 z"
         id="path353" /><linearGradient
         id="aigrd15"
         gradientUnits="userSpaceOnUse"
         x1="6.2168002"
         y1="115.2642"
         x2="135.4668"
         y2="115.2642"
         xlink:href="#linearGradient118" /><path
         style="fill:url(#aigrd15)"
         d="m 114.648,114.415 c -1.104,0.56 -2.261,1.145 -3.356,1.699 1.155,-0.524 2.271,-1.093 3.356,-1.699 z"
         id="path357" /><linearGradient
         id="aigrd16"
         gradientUnits="userSpaceOnUse"
         x1="70.6763"
         y1="121.8315"
         x2="70.6763"
         y2="5.7997999"
         xlink:href="#linearGradient115" /><path
         style="fill:url(#aigrd16)"
         d="m 122.296,74.16 -0.017,-0.2 c 0.069,-0.901 0.115,-1.81 0.115,-2.73 0,-2.471 -0.265,-5.016 -0.772,-7.608 l 11.435,-0.487 c -1.375,-4.536 -3.325,-9.025 -5.783,-13.382 -2.799,-0.599 -10.558,-2.253 -12.243,-2.613 -2.032,-3.323 -4.443,-6.528 -7.181,-9.545 l 4.99,-6.392 c -3.365,-3.271 -7.026,-6.334 -10.962,-9.115 L 93.934,25.8 C 90.569,23.625 87.111,21.791 83.618,20.272 L 83.786,12.12 C 79.01,10.156 74.195,8.673 69.422,7.643 l -2.69,7.82 C 63.129,14.965 59.588,14.81 56.171,15.002 L 49.106,6.075 C 44.623,6.389 40.318,7.17 36.272,8.402 l 5.546,9.789 c -3.018,1.267 -5.792,2.896 -8.255,4.89 -2.102,-1.021 -10.205,-4.961 -13.066,-6.367 -2.966,2.452 -5.576,5.307 -7.741,8.579 l 12.525,8.231 c -1.717,3.58 -2.692,7.442 -2.985,11.451 L 6.2,45.916 c -0.226,4.868 0.324,9.889 1.589,14.928 l 17.226,1.637 c 1.719,4.618 4.208,9.182 7.376,13.52 L 21.859,88.07 c 3.633,4.472 7.847,8.714 12.603,12.598 l 13.586,-9.342 0.054,0.03 c 0.781,0.552 1.576,1.094 2.388,1.621 3.626,2.354 7.424,4.346 11.3,5.964 l 0.184,17.218 c 5.966,2.102 12.019,3.521 17.974,4.199 0.632,-4.201 2.375,-15.751 2.489,-16.503 4.491,0.267 8.876,-0.01 13.01,-0.885 l 10.363,15.233 c 1.902,-0.601 3.733,-1.296 5.483,-2.088 1.095,-0.554 2.251,-1.139 3.356,-1.699 1.799,-1.002 3.499,-2.116 5.097,-3.336 -1.521,-2.718 -7.084,-12.348 -8.771,-15.266 2.494,-2.028 4.642,-4.407 6.396,-7.112 0.064,-0.098 0.117,-0.202 0.18,-0.3 l 14.374,7.311 c 1.673,-3.752 2.745,-7.765 3.229,-11.967 l -12.856,-9.584 z m -17.329,3.174 C 96.519,90.351 75.28,91.564 57.533,80.045 39.784,68.523 32.247,48.63 40.698,35.612 49.148,22.593 70.386,21.38 88.135,32.901 c 17.748,11.524 25.285,31.415 16.832,44.433 z"
         id="path361" /><path
         d="m 122.296,74.16 -0.017,-0.2 c 0.069,-0.901 0.115,-1.81 0.115,-2.73 0,-2.471 -0.265,-5.016 -0.772,-7.608 l 11.435,-0.487 c -1.375,-4.536 -3.325,-9.025 -5.783,-13.382 -2.799,-0.599 -10.558,-2.253 -12.243,-2.613 -2.032,-3.323 -4.443,-6.528 -7.181,-9.545 l 4.99,-6.392 c -3.365,-3.271 -7.026,-6.334 -10.962,-9.115 L 93.934,25.8 C 90.569,23.625 87.111,21.791 83.618,20.272 L 83.786,12.12 C 79.01,10.156 74.195,8.673 69.422,7.643 l -2.69,7.82 C 63.129,14.965 59.588,14.81 56.171,15.002 L 49.106,6.075 C 44.623,6.389 40.318,7.17 36.272,8.402 l 5.546,9.789 c -3.018,1.267 -5.792,2.896 -8.255,4.89 -2.102,-1.021 -10.205,-4.961 -13.066,-6.367 -2.966,2.452 -5.576,5.307 -7.741,8.579 l 12.525,8.231 c -1.717,3.58 -2.692,7.442 -2.985,11.451 L 6.2,45.916 c -0.226,4.868 0.324,9.889 1.589,14.928 l 17.226,1.637 c 1.719,4.618 4.208,9.182 7.376,13.52 L 21.859,88.07 c 3.633,4.472 7.847,8.714 12.603,12.598 l 13.586,-9.342 0.054,0.03 c 0.781,0.552 1.576,1.094 2.388,1.621 3.626,2.354 7.424,4.346 11.3,5.964 l 0.184,17.218 c 5.966,2.102 12.019,3.521 17.974,4.199 0.632,-4.201 2.375,-15.751 2.489,-16.503 4.491,0.267 8.876,-0.01 13.01,-0.885 l 10.363,15.233 c 1.902,-0.601 3.733,-1.296 5.483,-2.088 1.095,-0.554 2.251,-1.139 3.356,-1.699 1.799,-1.002 3.499,-2.116 5.097,-3.336 -1.521,-2.718 -7.084,-12.348 -8.771,-15.266 2.494,-2.028 4.642,-4.407 6.396,-7.112 0.064,-0.098 0.117,-0.202 0.18,-0.3 l 14.374,7.311 c 1.673,-3.752 2.745,-7.765 3.229,-11.967 l -12.856,-9.584 z m -17.329,3.174 C 96.519,90.351 75.28,91.564 57.533,80.045 39.784,68.523 32.247,48.63 40.698,35.612 49.148,22.593 70.386,21.38 88.135,32.901 c 17.748,11.524 25.285,31.415 16.832,44.433 z"
         id="path362" /><linearGradient
         id="aigrd17"
         gradientUnits="userSpaceOnUse"
         x1="46.714401"
         y1="110.3916"
         x2="7.7205"
         y2="71.397697"
         xlink:href="#linearGradient133" /><path
         style="fill:url(#aigrd17)"
         d="m 34.461,100.668 -4.089,13.781 12.827,-8.88 4.849,-14.243 -13.586,9.342 z"
         id="path366" /><path
         style="opacity:0.4"
         d="m 53.723,111.489 8.067,-12.549 0.184,17.218 -6.315,12.55 z"
         id="path367" /><path
         style="opacity:0.4"
         d="m 95.368,103.226 -5.92,14.84 8.518,10.951 7.844,-10.815 -10.441,-14.977 z"
         id="path368" /><linearGradient
         id="aigrd18"
         gradientUnits="userSpaceOnUse"
         x1="6.5981002"
         y1="68.167999"
         x2="47.2206"
         y2="73.443298"
         xlink:href="#linearGradient130" /><path
         style="opacity:0.5;fill:url(#aigrd18)"
         d="m 7.789,60.844 -2.223,15.27 13.295,1.171 6.154,-14.804 z"
         id="path372" /><path
         style="fill:none"
         d="M 78.891,48.635 C 66.162,39.694 49.659,39.709 41.395,48.433 c 0.413,10.034 7.507,20.918 18.444,28.018 v 0 c 9.357,6.076 20.29,8.566 29.242,6.662 2.197,-0.468 4.167,-1.258 5.982,-2.226 0.08,-0.847 0.188,-1.688 0.188,-2.547 0,-10.912 -6.335,-22.664 -16.361,-29.705 z"
         id="path373" /><linearGradient
         id="aigrd19"
         gradientUnits="userSpaceOnUse"
         x1="95.310501"
         y1="91.098602"
         x2="-32.4091"
         y2="-8.1830997"
         xlink:href="#linearGradient127" /><path
         style="fill:url(#aigrd19)"
         d="m 136.946,81.339 c 0,0 -9.583,-7.144 -11.612,-8.657 0.012,-0.294 0.014,-0.346 0.024,-0.589 0.99,-0.692 2.33,-1.556 3.575,-2.354 3.808,-2.444 5.569,-3.628 6.449,-4.708 0.442,-0.542 0.675,-1.214 0.675,-1.896 0,-0.292 -0.042,-0.584 -0.129,-0.871 -1.427,-4.704 -3.459,-9.409 -6.042,-13.986 -0.422,-0.749 -1.145,-1.28 -1.985,-1.459 0,0 -10.194,-2.176 -11.073,-2.363 -1.526,-2.38 -3.254,-4.684 -5.132,-6.914 1.465,-1.876 3.508,-4.494 3.508,-4.494 0.426,-0.546 0.635,-1.197 0.635,-1.845 0,-0.786 -0.307,-1.567 -0.909,-2.152 -3.535,-3.437 -7.345,-6.604 -11.322,-9.414 -0.88,-0.622 -2.025,-0.724 -3.001,-0.268 0,0 -4.592,2.146 -6.515,3.044 -2.399,-1.474 -4.885,-2.807 -7.436,-4.001 0.046,-2.244 0.129,-6.273 0.129,-6.294 0,-1.214 -0.732,-2.311 -1.859,-2.774 -4.843,-1.992 -9.847,-3.551 -14.873,-4.635 -1.485,-0.32 -2.975,0.52 -3.469,1.957 0,0 -1.129,3.283 -1.915,5.566 C 62.274,12 59.907,11.9 57.591,11.961 56.186,10.186 51.458,4.212 51.458,4.212 50.843,3.435 49.884,3.012 48.895,3.081 44.719,3.375 40.7,4.12 36.861,5.178 36.398,5.036 35.928,4.909 35.43,5.009 c -1.269,0.252 -2.233,1.29 -2.392,2.574 -0.125,1.016 -0.167,3.89 -0.167,7.191 0,1.511 0.01,3.091 0.023,4.643 -2.848,-1.388 -11.075,-5.397 -11.075,-5.397 -1.058,-0.516 -2.328,-0.369 -3.235,0.38 -3.252,2.688 -6.055,5.795 -8.331,9.235 -0.265,0.4 -0.43,0.858 -0.481,1.335 -0.094,0.88 -0.573,10.581 -0.717,13.534 -0.002,0.049 -0.003,0.098 -0.003,0.147 0,0.995 0.494,1.929 1.324,2.488 0,0 1.369,0.922 2.086,1.405 -3.138,0.184 -6.438,0.377 -6.438,0.377 -1.421,0.083 -2.587,1.153 -2.793,2.562 L 0.84,61.887 c -0.021,0.144 -0.031,0.288 -0.031,0.433 0,0.126 0.008,0.253 0.024,0.379 L 2.59,76.493 c 0.179,1.402 1.327,2.491 2.735,2.611 0,0 11.201,0.986 11.52,1.015 0.921,2.001 1.969,3.97 2.943,5.646 -0.052,0.069 -0.118,0.084 -0.167,0.165 l -0.946,1.534 c -0.845,2.258 -2.65,6.625 -5.367,12.979 -0.162,0.379 -0.242,0.78 -0.242,1.179 0,0.648 0.21,1.291 0.617,1.823 2.807,3.67 11.993,12.969 15.994,13.923 0.829,0.197 1.702,0.033 2.403,-0.452 0,0 8.722,-6.038 11.201,-7.755 2.149,1.334 5.337,3.25 7.654,4.383 0.248,2.202 1.742,15.5 1.742,15.5 0.127,1.126 0.876,2.084 1.938,2.478 8.056,2.987 13.286,4.29 17.489,4.358 1.051,0.017 2.039,-0.523 2.596,-1.415 l 6.801,-10.874 c 0.493,-0.784 0.767,-1.229 0.965,-1.575 1.632,-0.091 3.833,-0.273 5.775,-0.614 1.229,1.58 7.355,9.457 7.355,9.457 0.723,0.93 1.924,1.351 3.069,1.075 5.195,-1.249 10.589,-5.115 10.816,-5.278 0.162,-0.117 0.312,-0.25 0.447,-0.396 0.431,-0.466 10.582,-11.445 12.104,-13.242 0.474,-0.559 0.72,-1.248 0.72,-1.941 0,-0.501 -0.128,-1.004 -0.391,-1.463 0,0 -0.517,-0.903 -0.71,-1.242 0.073,-0.052 0.16,-0.074 0.229,-0.133 l 11.991,-10.245 c 0.339,-0.29 0.609,-0.651 0.791,-1.059 1.78,-3.991 2.948,-8.313 3.47,-12.846 0.013,-0.115 0.02,-0.23 0.02,-0.344 0,-0.94 -0.442,-1.835 -1.207,-2.405 z m -5.023,14.373 -11.991,10.245 -4.525,-2.462 c 1.797,3.121 3.576,6.221 4.338,7.584 -1.498,1.768 -12.018,13.145 -12.018,13.145 0,0 -5.082,3.669 -9.762,4.794 -8.518,-10.951 0,0 -8.518,-10.951 -2.961,0.904 -9.213,1.043 -9.213,1.043 0,0 -0.037,-0.039 -0.086,-0.09 -0.075,0.499 -0.143,0.95 -0.202,1.338 -0.028,0.188 0,0 -7.793,12.522 -4.221,-0.068 -9.715,-1.658 -16.495,-4.171 -1.936,-17.219 0,0 -1.936,-17.219 -2.179,-0.617 -10.524,-5.92 -10.524,-5.92 0,0 0,0 -12.827,8.88 -2.59,-0.617 -11.1,-8.634 -14.307,-12.827 5.793,-13.553 5.416,-13.327 5.598,-13.497 l 1.512,1.482 C 22.736,89.095 22.279,88.589 21.857,88.07 l 1.664,-1.907 c -1.295,-2.101 -3.308,-5.57 -4.662,-8.878 L 16.35,77.064 C 15.555,76.994 14.822,76.93 14.14,76.87 L 12.9,76.76 C 12.409,76.717 11.952,76.677 11.525,76.639 L 10.158,76.518 C 9.345,76.447 8.674,76.388 8.124,76.339 L 7.228,76.26 C 7.103,76.249 6.991,76.239 6.884,76.23 L 6.387,76.186 C 6.31,76.179 6.24,76.173 6.176,76.167 L 5.899,76.143 C 5.806,76.135 5.738,76.129 5.69,76.124 L 5.582,76.115 C 5.567,76.114 5.566,76.114 5.566,76.114 L 3.809,62.32 6.2,45.916 21.508,45.019 12.052,38.651 c 0,0 0.612,-12.499 0.704,-13.36 2.165,-3.271 4.775,-6.127 7.741,-8.579 2.861,1.406 10.964,5.346 13.066,6.367 0.752,-0.608 1.542,-1.171 2.35,-1.712 -0.03,-2.854 -0.105,-11.723 0.104,-13.417 0,0 0.093,0.165 0.255,0.45 4.046,-1.231 8.351,-2.012 12.834,-2.327 L 56.171,15 c 3.417,-0.192 6.958,-0.037 10.561,0.461 l 2.69,-7.82 c 4.773,1.029 9.588,2.513 14.364,4.477 l -0.168,8.152 c 3.493,1.519 6.951,3.354 10.316,5.528 l 7.944,-3.712 c 3.936,2.78 7.597,5.844 10.962,9.115 l -4.99,6.392 c 2.738,3.018 5.149,6.223 7.181,9.545 1.686,0.36 9.444,2.014 12.243,2.613 2.458,4.357 4.408,8.847 5.783,13.382 -1.201,1.473 -8.464,5.58 -10.68,7.442 0.004,0.217 0.017,0.437 0.017,0.653 0,0.921 -0.045,1.83 -0.115,2.73 l 0.017,0.2 12.856,9.584 c -0.484,4.203 -1.556,8.215 -3.229,11.967 z"
         id="path377" /><linearGradient
         id="aigrd20"
         gradientUnits="userSpaceOnUse"
         x1="19.146999"
         y1="2.4858"
         x2="97.641296"
         y2="80.981003"
         xlink:href="#linearGradient621" /><linearGradient
         id="aigrd21"
         gradientUnits="userSpaceOnUse"
         x1="105.2021"
         y1="96.159203"
         x2="39.035801"
         y2="31.004801"
         xlink:href="#linearGradient112" /><path
         style="fill:url(#aigrd21)"
         d="m 121.231,73.251 c 0.285,-2.209 0.34,-7.574 -0.167,-10.167 l 11.992,0.051 c -1.375,-4.536 -3.325,-9.025 -5.783,-13.382 -2.799,-0.599 -10.558,-2.253 -12.243,-2.613 -2.032,-3.323 -4.443,-6.528 -7.181,-9.545 l 4.99,-6.392 c -3.365,-3.271 -7.026,-6.334 -10.962,-9.115 L 93.933,25.8 C 90.568,23.625 87.11,21.791 83.617,20.272 L 83.785,12.12 C 79.009,10.156 74.194,8.673 69.421,7.643 l -2.69,7.82 C 63.128,14.965 59.587,14.81 56.17,15.002 L 49.105,6.075 C 44.622,6.389 40.317,7.17 36.271,8.402 l 5.546,9.789 c -3.018,1.267 -5.792,2.896 -8.255,4.89 C 31.46,22.06 23.357,18.12 20.496,16.714 17.53,19.166 14.92,22.021 12.755,25.293 l 12.976,7.793 c -1.717,3.58 -2.207,7.825 -2.5,11.833 L 6.2,45.916 c -0.226,4.868 0.933,9.296 2.198,14.335 l 17.333,1 c 1.719,4.618 5.165,10.329 8.333,14.667 l -10,12 c 2.903,3.574 4.552,6.248 10.167,10.833 0,0 -0.167,0 13.667,-9.5 2.833,2.833 11.291,6.882 15.167,8.5 l 0.5,17.5 c 5.966,2.102 9.045,2.655 15,3.333 0.632,-4.201 2.219,-15.581 2.333,-16.333 4.491,0.267 11.2,-0.125 15.333,-1 l 10.167,15 c 3,-0.833 9.902,-4.446 11.5,-5.667 -1.521,-2.718 -6.646,-12.415 -8.333,-15.333 2.494,-2.028 5.746,-5.462 7.5,-8.167 0.064,-0.098 14.5,7.667 14.5,7.667 1.673,-3.752 3.104,-6.804 3.588,-11.006 z m -16.264,4.083 C 96.519,90.351 75.28,91.564 57.533,80.045 39.784,68.523 32.247,48.63 40.698,35.612 49.148,22.593 70.386,21.38 88.135,32.901 c 17.748,11.524 25.285,31.415 16.832,44.433 z"
         id="path385" /><path
         d="m 62.231,114.667 -6.625,13.875 8,-12 z"
         id="path386" /><path
         d="m 105.356,117.542 -7.25,11.25 9.125,-11 z"
         id="path387" /><path
         d="m 33.856,100.167 -3.625,14.125 5.125,-14.25 z"
         id="path388" /><path
         d="m 7.606,60.042 -2,15.875 2.75,-15 z"
         id="path389" /></g></g><path
     style="clip-rule:nonzero;fill:#7f0000;fill-opacity:1;fill-rule:nonzero;stroke:none;stroke-width:0;stroke-miterlimit:4"
     d="m 214.64548,130.09029 z m -28.66206,7.19548 C 171.09551,160.22564 133.666,162.36331 102.39045,142.06336 71.111373,121.75814 57.828913,86.700686 72.722116,63.759055 87.613558,40.815661 129.57739,25.069751 166.14857,48.901273 c 35.81346,24.088836 34.73158,65.442867 19.83485,88.384497 z"
     id="path731"
     sodipodi:nodetypes="cccccccc" /><path
     style="clip-rule:nonzero;fill:#ff0000;fill-opacity:1;fill-rule:nonzero;stroke:none;stroke-width:0;stroke-miterlimit:4"
     d="m 209.35682,127.10781 z m -26.61515,6.55569 c -13.8249,20.90018 -48.58155,22.84779 -77.62369,4.35279 C 76.072567,119.51651 63.73863,87.576215 77.568303,66.674411 91.396336,45.771057 130.36348,31.425189 164.32309,53.137721 197.57919,75.08471 196.5745,112.76173 182.74167,133.6635 Z"
     id="path889"
     sodipodi:nodetypes="cccccccc" /><path
     style="clip-rule:nonzero;fill:url(#linearGradient625);fill-opacity:1;fill-rule:nonzero;stroke:none;stroke-width:0;stroke-miterlimit:4"
     d="m 204.95089,125.11823 z m -25.07948,6.1293 c -13.02735,19.54081 -45.77883,21.36174 -73.14545,4.06968 C 79.356227,118.02067 67.733871,88.157809 80.765662,68.61548 93.79592,49.071688 130.51499,35.658905 162.51541,55.959217 c 31.33739,20.519543 30.39068,55.746013 17.356,75.288313 z"
     id="path890"
     sodipodi:nodetypes="cccccccc" /><path
     style="clip-rule:nonzero;fill:url(#linearGradient898);fill-opacity:1;fill-rule:nonzero;stroke:none;stroke-width:0;stroke-miterlimit:4"
     d="M 89.290457,120.34621 C 84.555614,114.80891 80.944148,108.8438 78.59523,102.80852 76.24633,96.773239 75.15996,90.667748 75.475306,84.849706 75.790652,79.031682 77.507715,73.501053 80.765662,68.61548 93.79592,49.071688 130.51499,35.658905 162.51541,55.959217 c 7.83434,5.129882 13.65092,11.178961 17.76538,17.672352 -58.11611,0.02786 -64.4344,54.676541 -90.990333,46.714641 z m 115.660433,4.77202 z"
     id="path894"
     sodipodi:nodetypes="csscccccc" /><metadata
     id="metadata1"><rdf:RDF><cc:License
         rdf:about="http://creativecommons.org/publicdomain/zero/1.0/"><cc:permits
           rdf:resource="http://creativecommons.org/ns#Reproduction" /><cc:permits
           rdf:resource="http://creativecommons.org/ns#Distribution" /><cc:permits
           rdf:resource="http://creativecommons.org/ns#DerivativeWorks" /></cc:License><cc:Work
         rdf:about=""><cc:license
           rdf:resource="http://creativecommons.org/publicdomain/zero/1.0/" /></cc:Work></rdf:RDF></metadata></svg>
