<?xml version="1.0" encoding="UTF-8" standalone="no"?>
<!-- Created with Inkscape (http://www.inkscape.org/) -->

<svg
   width="256mm"
   height="256mm"
   viewBox="0 0 256 256"
   version="1.1"
   id="svg1"
   inkscape:version="1.3.2 (091e20ef0f, 2023-11-25)"
   xml:space="preserve"
   sodipodi:docname="knote.svg"
   xmlns:inkscape="http://www.inkscape.org/namespaces/inkscape"
   xmlns:sodipodi="http://sodipodi.sourceforge.net/DTD/sodipodi-0.dtd"
   xmlns:xlink="http://www.w3.org/1999/xlink"
   xmlns="http://www.w3.org/2000/svg"
   xmlns:svg="http://www.w3.org/2000/svg"
   xmlns:rdf="http://www.w3.org/1999/02/22-rdf-syntax-ns#"
   xmlns:cc="http://creativecommons.org/ns#"
   xmlns:dc="http://purl.org/dc/elements/1.1/"><defs
     id="defs1"><linearGradient
       id="linearGradient28"
       inkscape:collect="always"><stop
         style="stop-color:#ffffff;stop-opacity:1;"
         offset="0"
         id="stop28" /><stop
         style="stop-color:#ffffff;stop-opacity:0;"
         offset="1"
         id="stop29" /></linearGradient><linearGradient
       id="linearGradient20"
       inkscape:collect="always"><stop
         style="stop-color:#ae8b57;stop-opacity:1;"
         offset="0"
         id="stop21" /><stop
         style="stop-color:#ab9200;stop-opacity:1;"
         offset="1"
         id="stop22" /></linearGradient><linearGradient
       id="linearGradient15"
       inkscape:collect="always"><stop
         style="stop-color:#fffdb0;stop-opacity:1;"
         offset="0"
         id="stop16" /><stop
         style="stop-color:#fffc9e;stop-opacity:1;"
         offset="0.05931036"
         id="stop18" /><stop
         style="stop-color:#eae05b;stop-opacity:1;"
         offset="0.1868284"
         id="stop19" /><stop
         style="stop-color:#fffc3f;stop-opacity:1;"
         offset="0.43681389"
         id="stop20" /><stop
         style="stop-color:#d2bb00;stop-opacity:1;"
         offset="1"
         id="stop17" /></linearGradient><linearGradient
       id="linearGradient10"
       inkscape:collect="always"><stop
         style="stop-color:#f0c201;stop-opacity:1;"
         offset="0"
         id="stop10" /><stop
         style="stop-color:#daac01;stop-opacity:1;"
         offset="0.72296262"
         id="stop12" /><stop
         style="stop-color:#fef314;stop-opacity:1;"
         offset="0.80814618"
         id="stop13" /><stop
         style="stop-color:#feec6c;stop-opacity:1;"
         offset="0.86874157"
         id="stop14" /><stop
         style="stop-color:#feea8f;stop-opacity:1;"
         offset="0.9148196"
         id="stop15" /><stop
         style="stop-color:#f4c401;stop-opacity:1;"
         offset="1"
         id="stop11" /></linearGradient><linearGradient
       id="linearGradient7"
       inkscape:collect="always"><stop
         style="stop-color:#976d1e;stop-opacity:1;"
         offset="0"
         id="stop8" /><stop
         style="stop-color:#775718;stop-opacity:1;"
         offset="1"
         id="stop9" /></linearGradient><linearGradient
       id="linearGradient6"
       inkscape:collect="always"><stop
         style="stop-color:#fffd99;stop-opacity:1;"
         offset="0"
         id="stop6" /><stop
         style="stop-color:#815c19;stop-opacity:1;"
         offset="1"
         id="stop7" /></linearGradient><linearGradient
       id="linearGradient1"
       inkscape:collect="always"><stop
         style="stop-color:#ffffff;stop-opacity:0.78892732;"
         offset="0"
         id="stop1" /><stop
         style="stop-color:#fffcd5;stop-opacity:0.51903117;"
         offset="0.57373965"
         id="stop4" /><stop
         style="stop-color:#767676;stop-opacity:0;"
         offset="0.79656893"
         id="stop3" /><stop
         style="stop-color:#383838;stop-opacity:0;"
         offset="1"
         id="stop2" /></linearGradient><radialGradient
       inkscape:collect="always"
       xlink:href="#linearGradient1"
       id="radialGradient2"
       cx="120.08341"
       cy="139.01729"
       fx="120.08341"
       fy="139.01729"
       r="5.138115"
       gradientTransform="matrix(0.249763,-0.1487352,5.0773036,8.5260401,-605.57653,-1015.6745)"
       gradientUnits="userSpaceOnUse" /><radialGradient
       inkscape:collect="always"
       xlink:href="#linearGradient6"
       id="radialGradient7"
       cx="142.6037"
       cy="145.85211"
       fx="142.6037"
       fy="145.85211"
       r="15.33166"
       gradientTransform="matrix(1.5437431,-0.64862135,0.07444283,0.17717667,-87.441042,199.32385)"
       gradientUnits="userSpaceOnUse" /><linearGradient
       inkscape:collect="always"
       xlink:href="#linearGradient7"
       id="linearGradient9"
       x1="128.46465"
       y1="129.36237"
       x2="154.07249"
       y2="132.85863"
       gradientUnits="userSpaceOnUse" /><radialGradient
       inkscape:collect="always"
       xlink:href="#linearGradient10"
       id="radialGradient15"
       cx="130.20291"
       cy="156.1958"
       fx="130.20291"
       fy="156.1958"
       r="21.310261"
       gradientTransform="matrix(1.376166,-0.46996206,0.07715019,0.22591504,-60.62783,154.35981)"
       gradientUnits="userSpaceOnUse" /><radialGradient
       inkscape:collect="always"
       xlink:href="#linearGradient15"
       id="radialGradient17"
       cx="134.64719"
       cy="129.11835"
       fx="134.64719"
       fy="129.11835"
       r="20.80913"
       gradientTransform="matrix(3.9903867,-2.1754135,0.77435961,1.4204176,-492.0252,230.19916)"
       gradientUnits="userSpaceOnUse" /><linearGradient
       inkscape:collect="always"
       xlink:href="#linearGradient20"
       id="linearGradient22"
       x1="111.83372"
       y1="131.0438"
       x2="122.32255"
       y2="131.0438"
       gradientUnits="userSpaceOnUse" /><linearGradient
       inkscape:collect="always"
       xlink:href="#linearGradient28"
       id="linearGradient29"
       x1="135.98883"
       y1="102.63184"
       x2="142.13794"
       y2="128.52321"
       gradientUnits="userSpaceOnUse" /></defs><sodipodi:namedview
     id="base"
     pagecolor="#ffffff"
     bordercolor="#000000"
     borderopacity="0.3"
     inkscape:pageopacity="0.0"
     inkscape:pageshadow="2"
     inkscape:zoom="0.98994949"
     inkscape:cx="505.07627"
     inkscape:cy="476.792"
     inkscape:document-units="mm"
     inkscape:showpageshadow="2"
     inkscape:pagecheckerboard="0"
     inkscape:deskcolor="#d1d1d1"
     inkscape:current-layer="svg1" /><metadata
     id="metadata1"><rdf:RDF><cc:Work
         rdf:about=""><dc:format>image/svg+xml</dc:format><dc:type
           rdf:resource="http://purl.org/dc/dcmitype/StillImage" /><cc:license
           rdf:resource="http://creativecommons.org/publicdomain/zero/1.0/" /></cc:Work><cc:License
         rdf:about="http://creativecommons.org/publicdomain/zero/1.0/"><cc:permits
           rdf:resource="http://creativecommons.org/ns#Reproduction" /><cc:permits
           rdf:resource="http://creativecommons.org/ns#Distribution" /><cc:permits
           rdf:resource="http://creativecommons.org/ns#DerivativeWorks" /></cc:License></rdf:RDF></metadata><g
     id="g7"
     style="display:inline"
     transform="matrix(5.9383745,0,0,5.9383745,-662.21727,-625.24606)"><path
       id="rect1"
       style="fill:url(#linearGradient22);stroke-width:2.1;stroke-linecap:round;stroke-linejoin:round;stroke-miterlimit:2.1"
       d="m 112.21168,120.12555 10.01637,15.75689 0.27825,6.31178 -9.77489,-17.7928 c -0.0956,-1.0474 -0.44954,-3.35357 -0.89769,-4.41761 0.0684,-0.02 0.12621,-0.0522 0.37796,0.14174 z"
       sodipodi:nodetypes="cccccc" /><path
       id="path1"
       style="fill:url(#radialGradient2);stroke-width:2.1;stroke-linecap:round;stroke-linejoin:round;stroke-miterlimit:2.1"
       d="m 112.04632,120.1728 10.18173,15.70964 0.26154,6.27002 c -3.8422,-8.10104 -7.77402,-12.12749 -9.82905,-19.75905 z"
       sodipodi:nodetypes="ccccc" /><path
       id="rect4"
       style="display:inline;fill:url(#linearGradient9);stroke-width:2.1;stroke-linecap:round;stroke-linejoin:round;stroke-miterlimit:2.1"
       d="m 122.1808,135.92969 32.19528,-12.41213 -0.30359,6.78973 -31.56101,11.85901 z"
       sodipodi:nodetypes="ccccc" /><path
       id="rect5"
       style="display:inline;fill:url(#radialGradient7);stroke-width:2.1;stroke-linecap:round;stroke-linejoin:round;stroke-miterlimit:2.1"
       d="m 153.55282,126.52753 c -2.98078,1.52002 -19.75785,9.3536 -30.66332,11.05581 5.42349,-1.96704 25.68862,-9.0971 30.66332,-11.05581 z"
       sodipodi:nodetypes="ccc" /><path
       id="rect9"
       style="display:inline;fill:url(#radialGradient15);stroke-width:2.1;stroke-linecap:round;stroke-linejoin:round;stroke-miterlimit:2.1"
       d="m 111.82516,119.98522 29.91107,-10.29588 12.70945,13.78246 -32.09643,12.61495 -10.13604,-15.94517 c -0.13523,-0.0961 -0.21525,-0.18207 -0.38805,-0.15636 z"
       sodipodi:nodetypes="cccccc" /><path
       id="path15"
       style="display:inline;fill:url(#radialGradient17);stroke-width:2.1;stroke-linecap:round;stroke-linejoin:round;stroke-miterlimit:2.1"
       d="m 111.82516,119.98522 29.91107,-10.29588 c 6.29445,6.04842 5.1816,7.26689 9.50222,7.96935 -1.52846,6.82964 -14.13179,13.11307 -29.02283,15.889 -1.78093,-0.9942 -7.13215,-8.80377 -10.00241,-13.40611 -0.13523,-0.0961 -0.21525,-0.18207 -0.38805,-0.15636 z"
       sodipodi:nodetypes="cccccc" /><path
       id="rect22"
       style="fill:#fdfae3;stroke-width:2.1;stroke-linecap:round;stroke-linejoin:round;stroke-miterlimit:2.1"
       d="m 111.8466,119.97565 c 0.16321,-0.0877 0.29747,0.0562 0.44002,0.13372 3.28828,4.26447 5.92203,10.01128 10.09391,13.3882 2.8178,-0.70206 25.19035,-5.31212 28.82274,-15.71862 -0.19969,3.15654 -7.37359,11.71939 -28.94778,15.77259 -2.86661,-1.77093 -6.8535,-8.75588 -10.01267,-13.38059 -0.11455,-0.087 -0.19863,-0.2121 -0.39622,-0.1953 z"
       sodipodi:nodetypes="ccccccc" /><g
       id="g29"
       inkscape:label="knote"><path
         id="rect23"
         style="display:inline;fill:#3c4373;fill-opacity:1;stroke-width:2.1;stroke-linecap:round;stroke-linejoin:round;stroke-miterlimit:2.1"
         d="m 120.51039,125.26588 c -0.31297,0.14485 -2.6474,-0.22496 -1.08686,-2.15486 l 0.80599,-0.7517 2.39289,2.27179 -0.36332,-2.90655 c 0.075,-0.60779 0.34221,-0.44637 0.58883,-0.3675 l 0.57213,3.14042 c 1.12003,0.35082 2.15196,0.65589 3.22811,0.56795 1.05436,0.0578 0.77826,-0.30677 0.42178,-0.70158 0.0435,-0.27024 -0.0134,-0.7299 0.40926,-0.28398 2.36855,2.53118 -1.29179,2.17284 -4.02992,1.18601 l 2.46807,1.93771 c 0.46947,0.58303 -6.7e-4,0.53966 -0.13782,0.71828 l -5.4999,-4.54358 -0.48336,0.51903 c -0.005,0.83489 0.23596,0.4541 0.60865,0.61687 z"
         sodipodi:nodetypes="ccccccccccccccccc" /><path
         id="rect24"
         style="fill:#3c4373;stroke-width:2.1;stroke-linecap:round;stroke-linejoin:round;stroke-miterlimit:2.1"
         d="m 126.38579,121.8737 c -0.0163,-0.59647 0.30204,-0.44006 0.78843,0.0945 l 1.49714,1.51191 -0.18012,-0.59059 c -0.35878,-0.58251 -0.52584,-2.30597 0.4577,-1.86626 l 2.77281,2.24424 c -0.0359,-1.34204 0.32692,-0.90867 0.70869,-0.56697 -0.14435,0.51012 0.2706,2.13728 -0.43409,1.58278 -2.70315,-2.25212 -4.13414,-3.4118 -1.56801,0.37797 0.0787,0.54877 0.16071,1.10276 -0.22146,0.94494 l -3.38702,-3.02381 c -0.0189,0.5503 -0.0855,0.91002 -0.29235,0.70871 z"
         sodipodi:nodetypes="ccccccccccccc" /><path
         style="color:#000000;fill:#3c4373;stroke-width:1.15138;stroke-linecap:round;stroke-linejoin:round;stroke-miterlimit:2.1;-inkscape-stroke:none"
         d="m 133.96259,120.35933 c -0.50003,-0.42782 -1.02204,-0.73215 -1.50097,-0.88301 -0.23946,-0.0754 -0.47032,-0.11374 -0.69275,-0.095 -0.22241,0.0187 -0.45144,0.10632 -0.60655,0.29081 -0.15552,0.18413 -0.20231,0.42237 -0.18467,0.64522 0.0176,0.22284 0.0925,0.44616 0.2048,0.67197 0.22451,0.4516 0.60636,0.92372 1.10548,1.35261 0.49912,0.4289 1.02349,0.73473 1.50291,0.88766 0.23971,0.0765 0.4688,0.11705 0.69151,0.0999 0.14681,-0.0113 0.27199,-0.1091 0.40216,-0.18787 a 0.34541274,0.34541274 0 0 0 0.18654,-0.0857 c 0.006,-0.006 0.016,-0.004 0.0216,-0.011 a 0.34541274,0.34541274 0 0 0 -5.5e-4,-0.006 0.34541274,0.34541274 0 0 0 0.0123,-0.007 c 0.15286,-0.18633 0.19705,-0.42819 0.17786,-0.65109 -0.0192,-0.22289 -0.0944,-0.44267 -0.20774,-0.66855 -0.2266,-0.45178 -0.61179,-0.92433 -1.11182,-1.35215 z m -0.44875,0.52464 c 0.43995,0.37642 0.77035,0.79648 0.94108,1.13686 0.0854,0.1702 0.13116,0.32012 0.13977,0.4201 0.009,0.1 -0.0119,0.13359 -0.0254,0.15023 a 0.34541274,0.34541274 0 0 0 -0.001,0.002 c -0.0139,0.0162 -0.0414,0.0393 -0.13836,0.047 -0.0973,0.007 -0.24815,-0.0113 -0.42766,-0.0686 -0.35905,-0.11454 -0.8226,-0.37681 -1.26175,-0.75417 -0.43916,-0.37737 -0.77074,-0.79616 -0.93939,-1.1354 -0.0843,-0.16961 -0.12537,-0.31874 -0.13318,-0.41739 -0.008,-0.0987 0.0103,-0.13208 0.024,-0.14852 0.0138,-0.0164 0.0394,-0.0387 0.13523,-0.0468 0.0958,-0.008 0.24866,0.009 0.42744,0.0654 0.35755,0.11263 0.81985,0.37311 1.25979,0.74953 z"
         id="path24" /><path
         id="rect25"
         style="fill:#3c4373;stroke-width:0.600001;stroke-linecap:round;stroke-linejoin:round;stroke-miterlimit:2.1"
         d="m 132.55152,116.72377 1.41741,1.41742 0.82682,-0.51972 c 0.28837,-0.15127 0.94409,0.0904 0.51828,0.51554 l -0.79496,0.50015 2.76897,2.56327 c 0.27561,0.14687 0.70599,0.23327 0.68901,-0.31927 -0.0107,-0.34842 -0.01,-0.47862 -0.0919,-0.739 -0.0967,-0.42092 0.0531,-0.59038 0.35624,-0.14314 0.18042,0.26615 0.49349,1.256 0.36614,1.88241 -0.2326,1.14403 -1.04563,0.29302 -1.44952,0.0631 l -3.14192,-3.00019 -0.59649,0.28939 c -0.58319,0.34239 -1.21866,-0.0545 -0.7028,-0.36026 l 0.74413,-0.42523 -1.19298,-1.19298 c -0.37277,-0.22537 -0.55407,-1.14465 0.28357,-0.53149 z"
         sodipodi:nodetypes="ccccccscssccccccc" /><path
         id="rect26"
         style="fill:#3c4373;stroke-width:0.600001;stroke-linecap:round;stroke-linejoin:round;stroke-miterlimit:2.1"
         d="m 137.85783,118.62152 c 0.88625,-1.32366 -0.95388,-1.72007 -0.78405,-1.00336 0.0899,0.37921 0.31102,0.47073 0.67767,0.92759 l 0.83197,0.52282 0.74752,0.45937 c 0.95731,0.52756 1.39551,-0.43647 1.2403,-0.93962 -0.17946,-0.58172 0.58564,-0.0767 0.63894,0.10441 0.24171,0.82106 -0.65064,2.45079 -1.74561,1.81242 -1.06861,-0.72726 -2.20113,-1.43322 -2.88567,-2.2885 -0.93001,-1.76922 0.67563,-1.63381 0.95215,-1.55351 0.26744,0.0777 2.26814,0.80493 0.83104,2.2885 z"
         sodipodi:nodetypes="cscccssccscc" /><path
         id="rect27"
         style="fill:#3c4373;stroke-width:0.600001;stroke-linecap:round;stroke-linejoin:round;stroke-miterlimit:2.1"
         d="m 138.83538,112.18805 c 0.89577,1.26206 2.25839,2.44139 3.77975,3.59078 0.44116,0.41849 0.43173,1.52552 -0.66146,0.61421 -1.28859,-1.23555 -2.58077,-2.46872 -3.68526,-3.82701 -0.53161,-0.79069 -0.004,-1.1414 0.56697,-0.37798 z"
         sodipodi:nodetypes="ccccc" /><path
         id="path27"
         style="fill:#3c4373;stroke-width:0.600001;stroke-linecap:round;stroke-linejoin:round;stroke-miterlimit:2.1"
         d="m 145.03214,118.09383 a 0.8976934,0.47247022 31.749525 0 1 -1.01006,-0.0694 0.8976934,0.47247022 31.749525 0 1 -0.5179,-0.87331 0.8976934,0.47247022 31.749525 0 1 1.00746,0.065 0.8976934,0.47247022 31.749525 0 1 0.52296,0.87363" /></g><path
       id="rect28"
       style="fill:url(#linearGradient29);stroke-width:0.600001;stroke-linecap:round;stroke-linejoin:round;stroke-miterlimit:2.1"
       d="m 141.84747,109.62303 c 1.94723,2.18911 3.92166,4.26571 5.64964,6.3648 -8.60028,11.64556 -16.76007,1.04448 -30.77807,10.50066 l -4.92067,-6.85082 z"
       inkscape:label="whiteshadow"
       sodipodi:nodetypes="ccccc" /></g></svg>
