<?xml version="1.0" encoding="UTF-8" standalone="no"?>
<svg xmlns="http://www.w3.org/2000/svg" xmlns:xlink="http://www.w3.org/1999/xlink" width="42.000004" height="41.999992">
  <defs>
    <radialGradient xlink:href="#a" id="f" cx="320.48438" cy="55.027756" r="16.234375" fx="320.48438" fy="55.027756" gradientTransform="matrix(2.17205 0 0 2.47727 -375.74228 -82.301472)" gradientUnits="userSpaceOnUse"/>
    <radialGradient xlink:href="#b" id="e" cx="323.85492" cy="72.046448" r="15.419154" fx="323.85492" fy="72.046448" gradientTransform="matrix(1.05415 0 0 2.76419 -17.53606 -127.10337)" gradientUnits="userSpaceOnUse"/>
    <radialGradient xlink:href="#c" id="d" cx="-464.70734" cy="-357.84525" r="63.512196" fx="-464.70734" fy="-357.84525" gradientTransform="matrix(1.187 0 0 .87276 86.896626 -45.532075)" gradientUnits="userSpaceOnUse"/>
    <linearGradient id="a">
      <stop offset="0" stop-color="#fff"/>
      <stop offset="1" stop-color="#fff" stop-opacity="0"/>
    </linearGradient>
    <linearGradient id="b">
      <stop offset="0" stop-color="#fff"/>
      <stop offset="1" stop-color="#fff" stop-opacity="0"/>
    </linearGradient>
    <linearGradient id="c">
      <stop offset="0" stop-color="#7fa5d7"/>
      <stop offset="1" stop-color="#3a71b7"/>
    </linearGradient>
  </defs>
  <g transform="translate(-299 -52.000014)">
    <path fill="url(#d)" stroke="#1b3f74" stroke-linecap="round" stroke-width="3.02439022" d="M-401-398a62 62 0 1 1-124 0 62 62 0 1 1 124 0z" transform="translate(466.50376 198.93624) scale(.31642)"/>
    <path fill="none" stroke="url(#e)" stroke-linecap="round" stroke-width=".78626961" d="M338.88094 72.046448a15.026019 15.644737 0 1 1-30.05204 0 15.026019 15.644737 0 1 1 30.05204 0z" opacity=".84615383" transform="matrix(1.24193 0 0 1.19281 -82.204285 -12.93784)"/>
    <path fill="url(#f)" d="M319.91559 54.817268c-10.02282 0-18.15727 8.134468-18.15727 18.157292 0 7.189955 4.20541 13.383439 10.27168 16.324107 0 0-3.84366-25.787589 19.96137-29.85478-2.54749-2.799118-7.43709-4.626619-12.07578-4.626619z" opacity=".32692309"/>
    <g fill="#204a87" transform="matrix(.04384 0 0 .04408 313.30014 57.37443)">
      <path d="M244.29441 589.65075c0 47.51575-38.28653 91.51459-90.90464 91.51459-52.65355 0-95.314966-38.51574-95.314966-86.03149 0-47.55118 42.661416-86.06693 95.314966-86.06693 52.61811 0 90.90464 33.03265 90.90464 80.58383z"/>
      <path fill-rule="evenodd" d="M.88582678 56.728346C-6.6259843 67.003936 35.503937 147.29527 51.271654 151.37008c19.062992 4.92519 40.854331-25.91962 84.401576-25.91962 43.58268 0 71.59777 13.55463 67.48754 72.55069-4.07481 59.0315-119.125247 90.44176-120.188239 177.78428-1.346457 110.62204-27.438407 109.35514 63.801759 110.489 87.12992 1.09843 62.61023-2.0497 68.06692-110.22686 4.57087-89.64567 144.13123-85.63632 137.32808-220.84892C345.36614 19.986056 232.33465-2.3031496 156.11811.17716535 44.53937 3.7204724 9.2834646 45.212598.88582678 56.728346z"/>
    </g>
    <g fill="#fff" transform="translate(313.30117 58.331425) scale(.04267)">
      <path d="M248.70473 595.13385c0 47.51575-42.69685 86.03149-95.31496 86.03149-52.65355 0-95.314966-38.51574-95.314966-86.03149 0-47.55118 42.661416-86.06693 95.314966-86.06693 52.61811 0 95.31496 38.51575 95.31496 86.06693z"/>
      <path fill-rule="evenodd" d="M.88582678 56.728346C-6.6259843 67.003936 35.503937 147.29527 51.271654 151.37008c19.062992 4.92519 40.854331-36.88583 84.401576-36.88583 43.58268 0 74.90551 3.68504 70.79528 62.6811-4.07481 59.0315-124.192919 105.66142-125.255911 193.00394-1.346457 110.62204-19.062992 109.48818 72.177171 110.62204 87.12992 1.09843 62.61023 1.24016 68.06692-106.937 4.57087-89.64567 137.51575-82.34646 130.7126-217.55906C345.36614 21.082677 232.33465-2.3031496 156.11811.17716535 44.53937 3.7204724 9.2834646 45.212598.88582678 56.728346z"/>
    </g>
  </g>
</svg>