<?xml version="1.0" encoding="UTF-8" standalone="no"?>
<!-- Created with Inkscape (http://www.inkscape.org/) -->

<svg
   width="256mm"
   height="256mm"
   viewBox="0 0 256 256"
   version="1.1"
   id="svg1"
   inkscape:version="1.3.2 (091e20ef0f, 2023-11-25)"
   xml:space="preserve"
   sodipodi:docname="ktip.svg"
   xmlns:inkscape="http://www.inkscape.org/namespaces/inkscape"
   xmlns:sodipodi="http://sodipodi.sourceforge.net/DTD/sodipodi-0.dtd"
   xmlns:xlink="http://www.w3.org/1999/xlink"
   xmlns="http://www.w3.org/2000/svg"
   xmlns:svg="http://www.w3.org/2000/svg"
   xmlns:rdf="http://www.w3.org/1999/02/22-rdf-syntax-ns#"
   xmlns:cc="http://creativecommons.org/ns#"
   xmlns:dc="http://purl.org/dc/elements/1.1/"><defs
     id="defs1"><linearGradient
       id="linearGradient47"
       inkscape:collect="always"><stop
         style="stop-color:#4b4c4c;stop-opacity:1;"
         offset="0"
         id="stop47" /><stop
         style="stop-color:#2e2f2f;stop-opacity:1;"
         offset="1"
         id="stop48" /></linearGradient><linearGradient
       id="linearGradient45"
       inkscape:collect="always"><stop
         style="stop-color:#4e4f4f;stop-opacity:1;"
         offset="0"
         id="stop45" /><stop
         style="stop-color:#2e2f2f;stop-opacity:1;"
         offset="1"
         id="stop46" /></linearGradient><linearGradient
       id="linearGradient42"
       inkscape:collect="always"><stop
         style="stop-color:#4a4b4b;stop-opacity:1;"
         offset="0"
         id="stop43" /><stop
         style="stop-color:#2e2f2f;stop-opacity:1;"
         offset="1"
         id="stop44" /></linearGradient><linearGradient
       id="linearGradient36"
       inkscape:collect="always"><stop
         style="stop-color:#eaeae1;stop-opacity:1;"
         offset="0"
         id="stop37" /><stop
         style="stop-color:#dfdfb6;stop-opacity:1;"
         offset="0.29370445"
         id="stop42" /><stop
         style="stop-color:#d4d537;stop-opacity:1;"
         offset="0.48544192"
         id="stop39" /><stop
         style="stop-color:#d9cd47;stop-opacity:1;"
         offset="0.66741747"
         id="stop49" /><stop
         style="stop-color:#d0b311;stop-opacity:1"
         offset="0.77030152"
         id="stop40" /><stop
         style="stop-color:#d0b311;stop-opacity:1;"
         offset="0.83731705"
         id="stop41" /><stop
         style="stop-color:#d4d537;stop-opacity:1;"
         offset="1"
         id="stop38" /></linearGradient><linearGradient
       id="linearGradient31"
       inkscape:collect="always"><stop
         style="stop-color:#f0f0ef;stop-opacity:1;"
         offset="0"
         id="stop32" /><stop
         style="stop-color:#cacac9;stop-opacity:1;"
         offset="0.1881928"
         id="stop36" /><stop
         style="stop-color:#a5a5a4;stop-opacity:1;"
         offset="0.3763856"
         id="stop34" /><stop
         style="stop-color:#f0f0ef;stop-opacity:1;"
         offset="0.70213562"
         id="stop35" /><stop
         style="stop-color:#717171;stop-opacity:1;"
         offset="1"
         id="stop33" /></linearGradient><linearGradient
       id="linearGradient25"
       inkscape:collect="always"><stop
         style="stop-color:#7a7871;stop-opacity:1"
         offset="0"
         id="stop26" /><stop
         style="stop-color:#727274;stop-opacity:1;"
         offset="0.17983209"
         id="stop28" /><stop
         style="stop-color:#b3b3b5;stop-opacity:1;"
         offset="0.33906284"
         id="stop29" /><stop
         style="stop-color:#e8e9ea;stop-opacity:1;"
         offset="0.51192302"
         id="stop30" /><stop
         style="stop-color:#cbcccd;stop-opacity:1;"
         offset="0.62969363"
         id="stop31" /><stop
         style="stop-color:#6f7171;stop-opacity:1;"
         offset="1"
         id="stop27" /></linearGradient><linearGradient
       id="linearGradient20"
       inkscape:collect="always"><stop
         style="stop-color:#7a7871;stop-opacity:1"
         offset="0"
         id="stop20" /><stop
         style="stop-color:#868789;stop-opacity:1;"
         offset="0.09956619"
         id="stop25" /><stop
         style="stop-color:#a7a8a9;stop-opacity:1;"
         offset="0.22688286"
         id="stop22" /><stop
         style="stop-color:#f7f9fa;stop-opacity:1;"
         offset="0.54508197"
         id="stop23" /><stop
         style="stop-color:#c5c7c7;stop-opacity:1;"
         offset="0.72594589"
         id="stop24" /><stop
         style="stop-color:#6d6d6d;stop-opacity:1;"
         offset="1"
         id="stop21" /></linearGradient><linearGradient
       id="linearGradient12"
       inkscape:collect="always"><stop
         style="stop-color:#111111;stop-opacity:0.21407185;"
         offset="0"
         id="stop12" /><stop
         style="stop-color:#111111;stop-opacity:0.19610779;"
         offset="0.47518587"
         id="stop14" /><stop
         style="stop-color:#111111;stop-opacity:0.35294118;"
         offset="0.51426572"
         id="stop15" /><stop
         style="stop-color:#111111;stop-opacity:0.35329342;"
         offset="1"
         id="stop13" /></linearGradient><linearGradient
       id="linearGradient10"
       inkscape:collect="always"><stop
         style="stop-color:#81bfe7;stop-opacity:1;"
         offset="0"
         id="stop10" /><stop
         style="stop-color:#6dace9;stop-opacity:1;"
         offset="0.24363858"
         id="stop18" /><stop
         style="stop-color:#5492d9;stop-opacity:1;"
         offset="0.47673562"
         id="stop19" /><stop
         style="stop-color:#4476bb;stop-opacity:1;"
         offset="1"
         id="stop11" /></linearGradient><linearGradient
       id="linearGradient8"
       inkscape:collect="always"><stop
         style="stop-color:#f1f1f1;stop-opacity:0.28143713;"
         offset="0"
         id="stop8" /><stop
         style="stop-color:#f0f0f0;stop-opacity:0.42352942;"
         offset="0.5"
         id="stop16" /><stop
         style="stop-color:#4f4f4f;stop-opacity:0.07185629;"
         offset="0.52654839"
         id="stop17" /><stop
         style="stop-color:#4f4f4f;stop-opacity:0.24251497;"
         offset="1"
         id="stop9" /></linearGradient><linearGradient
       inkscape:collect="always"
       xlink:href="#linearGradient8"
       id="linearGradient9"
       x1="41.513159"
       y1="112.16391"
       x2="213.75095"
       y2="112.16391"
       gradientUnits="userSpaceOnUse" /><linearGradient
       inkscape:collect="always"
       xlink:href="#linearGradient10"
       id="linearGradient11"
       x1="99.900917"
       y1="131.92659"
       x2="137.88753"
       y2="215.44708"
       gradientUnits="userSpaceOnUse" /><linearGradient
       inkscape:collect="always"
       xlink:href="#linearGradient12"
       id="linearGradient13"
       x1="41.551605"
       y1="197.17773"
       x2="213.88533"
       y2="197.17773"
       gradientUnits="userSpaceOnUse" /><linearGradient
       inkscape:collect="always"
       xlink:href="#linearGradient20"
       id="linearGradient21"
       x1="98.547653"
       y1="142.70605"
       x2="155.22485"
       y2="151.96648"
       gradientUnits="userSpaceOnUse" /><linearGradient
       inkscape:collect="always"
       xlink:href="#linearGradient25"
       id="linearGradient27"
       x1="99.088837"
       y1="150.11786"
       x2="148.3138"
       y2="175.53676"
       gradientUnits="userSpaceOnUse" /><radialGradient
       inkscape:collect="always"
       xlink:href="#linearGradient31"
       id="radialGradient33"
       cx="117.59883"
       cy="170.63654"
       fx="117.59883"
       fy="170.63654"
       r="17.72804"
       gradientTransform="matrix(1.1066045,0,0,0.85327564,-12.836971,24.65139)"
       gradientUnits="userSpaceOnUse" /><radialGradient
       inkscape:collect="always"
       xlink:href="#linearGradient36"
       id="radialGradient38"
       cx="124.42241"
       cy="49.100773"
       fx="124.42241"
       fy="49.100773"
       r="63.405506"
       gradientTransform="matrix(1.2059476,0,0,1.4055682,-25.976203,-25.896254)"
       gradientUnits="userSpaceOnUse" /><linearGradient
       inkscape:collect="always"
       xlink:href="#linearGradient42"
       id="linearGradient44"
       x1="94.106437"
       y1="144.77141"
       x2="160.989"
       y2="144.77141"
       gradientUnits="userSpaceOnUse" /><linearGradient
       inkscape:collect="always"
       xlink:href="#linearGradient45"
       id="linearGradient46"
       x1="98.61636"
       y1="157.3939"
       x2="155.87333"
       y2="157.3939"
       gradientUnits="userSpaceOnUse" /><linearGradient
       inkscape:collect="always"
       xlink:href="#linearGradient47"
       id="linearGradient48"
       x1="109.39776"
       y1="170.34589"
       x2="144.85384"
       y2="170.34589"
       gradientUnits="userSpaceOnUse" /></defs><sodipodi:namedview
     id="base"
     pagecolor="#ffffff"
     bordercolor="#000000"
     borderopacity="0.3"
     inkscape:pageopacity="0.0"
     inkscape:pageshadow="2"
     inkscape:zoom="0.98994949"
     inkscape:cx="505.07627"
     inkscape:cy="476.792"
     inkscape:document-units="mm"
     inkscape:showpageshadow="2"
     inkscape:pagecheckerboard="0"
     inkscape:deskcolor="#d1d1d1"
     inkscape:current-layer="svg1" /><metadata
     id="metadata1"><rdf:RDF><cc:Work
         rdf:about=""><dc:format>image/svg+xml</dc:format><dc:type
           rdf:resource="http://purl.org/dc/dcmitype/StillImage" /><cc:license
           rdf:resource="http://creativecommons.org/publicdomain/zero/1.0/" /></cc:Work><cc:License
         rdf:about="http://creativecommons.org/publicdomain/zero/1.0/"><cc:permits
           rdf:resource="http://creativecommons.org/ns#Reproduction" /><cc:permits
           rdf:resource="http://creativecommons.org/ns#Distribution" /><cc:permits
           rdf:resource="http://creativecommons.org/ns#DerivativeWorks" /></cc:License></rdf:RDF></metadata><g
     id="g36"
     style="display:inline"><g
       id="g6"
       style="display:inline"><g
         id="g4"
         inkscape:label="shadow"
         style="display:inline"><path
           id="rect1"
           style="fill:#515151;fill-opacity:0.154372;stroke-width:5.92701;stroke-linecap:round;stroke-linejoin:round"
           d="m 39.858364,152.2357 58.680249,-59.722459 59.684947,-0.305257 57.73022,54.255706 c 6.38669,6.23956 7.94588,14.19206 1.06908,20.84702 l -74.5682,72.16278 c -7.2564,6.45577 -12.63368,11.97288 -23.78699,0.53454 L 39.858364,159.1847 c -1.451191,-2.26629 -2.17165,-4.55778 0,-6.949 z"
           sodipodi:nodetypes="ccccscscc" /><path
           id="path1"
           style="fill:#515151;fill-opacity:0.322404;stroke-width:5.92701;stroke-linecap:round;stroke-linejoin:round"
           d="M 41.204904,151.69236 99.607692,95.185937 157.46761,93.530901 214.0639,146.65268 c 6.38669,6.23956 9.51334,11.8876 2.58098,18.48467 l -75.13516,71.50132 c -7.03579,6.69551 -12.64292,11.9819 -23.78699,0.53454 L 41.98448,159.37369 c -1.87718,-1.92827 -2.951226,-5.29011 -0.779576,-7.68133 z"
           sodipodi:nodetypes="ccccssssc" /><path
           id="path2"
           style="fill:#515151;fill-opacity:0.439891;stroke-width:5.92701;stroke-linecap:round;stroke-linejoin:round"
           d="m 42.669562,151.57424 56.93813,-56.388303 57.481938,-0.899084 54.61192,51.609877 c 8.05712,7.64273 11.11114,11.36478 2.392,19.71309 l -72.11136,69.04447 c -7.01532,6.71696 -13.00992,12.25468 -24.16497,0.81802 L 42.716809,158.47599 c -1.87903,-1.92646 -2.218897,-4.51053 -0.04725,-6.90175 z"
           sodipodi:nodetypes="ccccsssscc" /><path
           id="path3"
           style="fill:#262626;fill-opacity:0.5;stroke-width:5.92701;stroke-linecap:round;stroke-linejoin:round"
           d="m 41.866363,151.76323 57.741329,-56.577293 57.859918,-1.655036 54.75111,54.158439 c 5.31761,5.6382 6.2411,9.70753 1.84797,14.90027 l -71.51754,70.1748 c -6.93253,6.80237 -11.73301,14.38132 -23.03103,3.08588 L 42.456951,158.80672 c -1.903114,-1.90267 -2.762238,-4.65227 -0.590588,-7.04349 z"
           sodipodi:nodetypes="cccccsssc" /><path
           id="path4"
           style="fill:#212121;fill-opacity:0.443989;stroke-width:5.92701;stroke-linecap:round;stroke-linejoin:round"
           d="m 43.212902,151.81048 56.39479,-56.624543 57.859918,-1.655036 53.87102,54.665299 c 5.31761,5.6382 5.13959,8.46568 0.74646,13.65842 l -73.59918,73.74462 c -4.03165,4.03961 -10.23079,7.76014 -16.69994,1.29049 L 43.189279,158.28701 c -1.902823,-1.90297 -2.148027,-4.08531 0.02362,-6.47653 z"
           sodipodi:nodetypes="cccccssscc" /></g><path
         id="path5"
         style="display:inline;fill:url(#linearGradient11);stroke-width:5.92701;stroke-linecap:round;stroke-linejoin:round"
         d="m 43.030392,151.87591 58.180918,-58.82813 53.27048,0.496552 57.97571,57.833048 c 2.32345,2.08182 2.36619,4.06302 -0.53732,6.9564 l -80.0961,79.81679 c -3.05142,3.00674 -5.15974,2.85747 -6.54183,1.47948 L 43.097209,157.68901 c -2.653904,-2.80083 -1.637111,-4.29051 -0.06682,-5.8131 z"
         sodipodi:nodetypes="ccccscscc"
         inkscape:label="colorhead" /><path
         id="path6"
         style="display:inline;fill:url(#linearGradient13);stroke-width:5.92701;stroke-linecap:round;stroke-linejoin:round"
         d="m 64.065013,155.45024 60.580817,61.95171 c 1.52463,1.55913 3.00372,1.10938 4.3179,-0.20826 l 63.11719,-63.28387 20.04249,-0.12701 c 2.05618,-0.0563 2.70028,1.65759 -0.20323,4.55097 l -80.0961,79.81679 c -3.05142,3.00674 -5.16139,2.85912 -6.54183,1.47948 L 42.310917,156.70701 c -0.456917,-0.29674 -0.7239,-1.20811 -0.759312,-1.80266 z"
         sodipodi:nodetypes="cssccscsccc"
         inkscape:label="shbottom" /><path
         id="path7"
         style="display:inline;fill:url(#linearGradient9);fill-opacity:1;stroke-width:5.92701;stroke-linecap:round;stroke-linejoin:round"
         d="M 64.215556,155.49027 125.08309,92.007666 c 1.50922,-1.574059 2.99412,-1.099737 4.3179,0.20826 l 62.47948,61.734624 20.64384,-0.10685 c 2.05618,0.0563 0.89901,-1.61221 0.0755,-2.43378 L 132.26134,71.259046 c -3.05142,-3.00674 -5.15683,-2.854544 -6.54183,-1.47948 L 42.154354,152.74522 c -0.456917,0.29674 -0.605783,1.58609 -0.641195,2.18064 z"
         sodipodi:nodetypes="cssccscsccc"
         inkscape:label="shtop" /></g><path
       id="path19"
       style="fill:url(#radialGradient33);stroke:url(#linearGradient48);stroke-width:4;stroke-linecap:round;stroke-linejoin:round;stroke-dasharray:none"
       d="m 143.10408,168.19614 c -1.6064,5.58846 -5.91271,14.0287 -16.02553,13.50268 -10.11282,-0.52602 -14.41913,-8.3867 -15.74204,-13.69166 -1.37505,-5.51408 8.65095,-8.44724 15.88378,-8.44724 7.23283,0 17.45377,3.17445 15.88379,8.63622 z"
       sodipodi:nodetypes="szsss" /><path
       id="ellipse19"
       style="display:inline;fill:url(#linearGradient27);fill-opacity:1;stroke:url(#linearGradient46);stroke-width:4;stroke-linecap:round;stroke-linejoin:round;stroke-dasharray:none"
       d="m 153.50719,150.44621 c 0.17367,6.12902 -4.86582,19.45185 -26.15327,19.95039 -19.46772,0.45592 -26.65392,-9.54951 -26.45968,-16.85027 0.29946,-11.25551 11.12288,-4.0572 25.51474,-4.0572 14.39186,0 26.90068,-6.01407 27.09821,0.95708 z"
       sodipodi:nodetypes="sssss" /><path
       id="path20"
       style="display:inline;fill:url(#radialGradient38);stroke-width:5.92701;stroke-linecap:round;stroke-linejoin:round"
       d="m 191.63393,65.86235 c 0,17.195823 -7.0969,32.763719 -18.57104,44.03266 -5.73707,5.63447 -8.22172,6.41444 -11.46073,18.82597 -2.07417,7.94799 -13.6014,14.93372 -32.23981,15.66593 -18.63841,0.73221 -33.271929,-7.82816 -34.129686,-15.85492 C 94.456691,121.27054 89.131028,115.52948 83.393959,109.89501 71.919813,98.626073 64.822918,83.058171 64.822918,65.86235 c 0,-34.391642 28.38761,-62.2715771 63.405502,-62.2715793 35.0179,-2.2e-6 63.40551,27.8799343 63.40551,62.2715793 z"
       sodipodi:nodetypes="ssszsssss" /><path
       id="ellipse20"
       style="display:inline;fill:url(#linearGradient21);fill-opacity:1;stroke:url(#linearGradient44);stroke-width:4;stroke-linecap:round;stroke-linejoin:round;stroke-dasharray:none"
       d="m 158.04291,138.16199 c 2.69335,8.86921 -2.82223,13.01937 -5.74256,14.41034 -4.78961,2.28133 -12.53123,4.95577 -25.04093,5.06757 -12.50969,0.1118 -21.55363,-3.96009 -26.26934,-6.39049 -4.715719,-2.43041 -5.175595,-8.33932 -4.419642,-12.23698 1.41228,-7.28166 8.771152,4.88287 32.057762,4.82919 23.28662,-0.0537 27.84802,-10.83838 29.41471,-5.67927 z"
       sodipodi:nodetypes="sszsszss" /><path
       id="path48"
       style="display:inline;fill:#353530;fill-opacity:1;stroke-width:4.50001;stroke-linecap:round;stroke-linejoin:round"
       d="m 127.88832,26.459884 c -7.30663,-4e-6 -13.22969,5.923048 -13.22969,13.229683 0,3.653319 9.21824,42.68194 10.17251,45.904175 0.11747,0.396648 0.9239,2.204516 2.85667,2.204516 2.56754,0 3.10835,-1.716896 3.22461,-2.221569 0.86775,-3.767163 10.2061,-42.233805 10.2061,-45.887122 0,-7.306631 -5.92357,-13.229682 -13.2302,-13.229683 z m -0.0946,70.166259 c -7.30664,-4e-6 -13.22968,5.923047 -13.22968,13.229687 -1e-5,7.30664 5.92304,13.22969 13.22968,13.22968 7.30663,0 13.2302,-5.92305 13.2302,-13.22968 -1e-5,-7.30664 -5.92358,-13.229686 -13.2302,-13.229687 z" /></g></svg>
