<?xml version="1.0" encoding="UTF-8" standalone="no"?>
<svg
   width="256"
   height="256"
   version="1.1"
   id="svg78"
   sodipodi:docname="redshift-status-on-01.svg"
   viewBox="0 0 256 256"
   inkscape:version="1.4.2 (ebf0e940d0, 2025-05-08)"
   xmlns:inkscape="http://www.inkscape.org/namespaces/inkscape"
   xmlns:sodipodi="http://sodipodi.sourceforge.net/DTD/sodipodi-0.dtd"
   xmlns:xlink="http://www.w3.org/1999/xlink"
   xmlns="http://www.w3.org/2000/svg"
   xmlns:svg="http://www.w3.org/2000/svg"
   xmlns:rdf="http://www.w3.org/1999/02/22-rdf-syntax-ns#"
   xmlns:cc="http://creativecommons.org/ns#"
   xmlns:dc="http://purl.org/dc/elements/1.1/">
  <sodipodi:namedview
     id="namedview78"
     pagecolor="#ffffff"
     bordercolor="#000000"
     borderopacity="0.25"
     inkscape:showpageshadow="2"
     inkscape:pageopacity="0.0"
     inkscape:pagecheckerboard="0"
     inkscape:deskcolor="#d1d1d1"
     inkscape:zoom="1.0836168"
     inkscape:cx="263.46953"
     inkscape:cy="455.41931"
     inkscape:current-layer="svg78" />
  <defs
     id="defs59">
    <linearGradient
       id="b"
       gradientUnits="userSpaceOnUse">
      <stop
         offset="0"
         stop-color="#929470"
         id="stop1" />
      <stop
         offset=".265"
         stop-color="#fcffc1"
         id="stop2" />
      <stop
         offset=".632"
         stop-color="#f3f5ba"
         id="stop3" />
      <stop
         offset="1"
         stop-color="#929470"
         id="stop4" />
    </linearGradient>
    <linearGradient
       id="c"
       gradientUnits="userSpaceOnUse">
      <stop
         offset="0"
         stop-color="#ffe708"
         id="stop5" />
      <stop
         offset=".412"
         stop-color="#ffd604"
         stop-opacity=".44"
         id="stop6" />
      <stop
         offset="1"
         stop-color="#4c3e1c"
         stop-opacity=".48"
         id="stop7" />
    </linearGradient>
    <linearGradient
       id="a"
       gradientUnits="userSpaceOnUse"
       x1="19"
       x2="30.17"
       y1="37.23"
       y2="37.23">
      <stop
         offset=".006"
         stop-color="#a3a349"
         id="stop8" />
      <stop
         offset=".021"
         stop-color="#acac54"
         id="stop9" />
      <stop
         offset=".066"
         stop-color="#c1c172"
         id="stop10" />
      <stop
         offset=".115"
         stop-color="#d4d68e"
         id="stop11" />
      <stop
         offset=".168"
         stop-color="#e2e4a6"
         id="stop12" />
      <stop
         offset=".227"
         stop-color="#edf0b8"
         id="stop13" />
      <stop
         offset=".296"
         stop-color="#f3f6c3"
         id="stop14" />
      <stop
         offset=".405"
         stop-color="#f5f8c7"
         id="stop15" />
      <stop
         offset=".524"
         stop-color="#eef0be"
         id="stop16" />
      <stop
         offset=".667"
         stop-color="#dbdda9"
         id="stop17" />
      <stop
         offset=".821"
         stop-color="#bebd88"
         id="stop18" />
      <stop
         offset=".983"
         stop-color="#989564"
         id="stop19" />
      <stop
         offset="1"
         stop-color="#949160"
         id="stop20" />
    </linearGradient>
    <radialGradient
       id="e"
       cx="14.77"
       cy="74.209999"
       gradientTransform="scale(1.764,0.5668)"
       gradientUnits="userSpaceOnUse"
       r="7.8299999">
      <stop
         offset="0"
         stop-opacity=".52"
         id="stop21" />
      <stop
         offset=".552"
         stop-opacity=".14"
         id="stop22" />
      <stop
         offset="1"
         stop-opacity="0"
         id="stop23" />
    </radialGradient>
    <linearGradient
       id="j"
       gradientTransform="scale(1.026,0.9742)"
       x1="-22.870001"
       x2="-4.3899999"
       xlink:href="#a"
       y1="38.68"
       y2="38.68" />
    <linearGradient
       id="k"
       gradientTransform="scale(1.026,0.9742)"
       x1="-10.48"
       x2="-23.85"
       xlink:href="#b"
       y1="39.029999"
       y2="39.139999" />
    <linearGradient
       id="f"
       gradientTransform="matrix(1.763,0,0,1.537,-19.73,-23.88)"
       gradientUnits="userSpaceOnUse"
       x1="23.120001"
       x2="26.48"
       y1="43.169998"
       y2="43.169998">
      <stop
         offset=".006"
         stop-color="#686868"
         id="stop24" />
      <stop
         offset=".03"
         stop-color="#777"
         id="stop25" />
      <stop
         offset=".084"
         stop-color="#929292"
         id="stop26" />
      <stop
         offset=".142"
         stop-color="#a7a7a7"
         id="stop27" />
      <stop
         offset=".207"
         stop-color="#b6b6b6"
         id="stop28" />
      <stop
         offset=".285"
         stop-color="#bebebe"
         id="stop29" />
      <stop
         offset=".405"
         stop-color="#c1c1c1"
         id="stop30" />
      <stop
         offset=".496"
         stop-color="#bcbcbc"
         id="stop31" />
      <stop
         offset=".606"
         stop-color="#adadad"
         id="stop32" />
      <stop
         offset=".725"
         stop-color="#959595"
         id="stop33" />
      <stop
         offset=".85"
         stop-color="#747474"
         id="stop34" />
      <stop
         offset=".979"
         stop-color="#494949"
         id="stop35" />
      <stop
         offset="1"
         stop-color="#414141"
         id="stop36" />
    </linearGradient>
    <linearGradient
       id="v"
       gradientTransform="matrix(1.088,0,0,0.9166,0.7,-1.57)"
       gradientUnits="userSpaceOnUse"
       x1="17"
       x2="32.099998"
       y1="10.06"
       y2="36.73">
      <stop
         offset="0"
         stop-color="#fff"
         id="stop37" />
      <stop
         offset="1"
         stop-color="#fff"
         stop-opacity="0"
         id="stop38" />
    </linearGradient>
    <linearGradient
       id="r"
       gradientTransform="matrix(0.8534,0,0,0.9753,1.89,1.66)"
       gradientUnits="userSpaceOnUse"
       x1="37.939999"
       x2="-5.25"
       y1="16.65"
       y2="3.8599999">
      <stop
         offset="0"
         stop-color="#fffff1"
         id="stop39" />
      <stop
         offset="1"
         stop-color="#f1f3ff"
         stop-opacity="0"
         id="stop40" />
    </linearGradient>
    <radialGradient
       id="p"
       cx="68.139999"
       cy="29.870001"
       gradientTransform="matrix(0.5262,0,0,0.7583,-9.57,5.12)"
       gradientUnits="userSpaceOnUse"
       r="33.93">
      <stop
         offset="0"
         stop-color="#fff"
         stop-opacity=".18"
         id="stop41" />
      <stop
         offset=".882"
         stop-color="#ffe300"
         id="stop42" />
      <stop
         offset="1"
         stop-color="#ffb900"
         id="stop43" />
    </radialGradient>
    <linearGradient
       id="n"
       gradientTransform="matrix(1.53,0,0,0.5438,1.03,1.66)"
       gradientUnits="userSpaceOnUse"
       x1="17.879999"
       x2="11.91"
       y1="55.360001"
       y2="54.860001">
      <stop
         offset="0"
         stop-color="#d6d87b"
         id="stop44" />
      <stop
         offset="1"
         stop-color="#fbe843"
         id="stop45" />
    </linearGradient>
    <linearGradient
       id="o"
       gradientTransform="matrix(-0.8645,-0.0434,0.1809,-0.9537,1.03,1.66)"
       gradientUnits="userSpaceOnUse"
       x1="-29.01"
       x2="-37.639999"
       y1="-29.799999"
       y2="-29.6">
      <stop
         offset="0"
         stop-color="#dcd763"
         id="stop46" />
      <stop
         offset=".265"
         stop-color="#d9bb05"
         id="stop47" />
      <stop
         offset=".632"
         stop-color="#dcd763"
         id="stop48" />
      <stop
         offset="1"
         stop-color="#c7a107"
         id="stop49" />
    </linearGradient>
    <linearGradient
       id="u"
       gradientTransform="matrix(1.861,0,0,0.467,1.25,5.47)"
       gradientUnits="userSpaceOnUse"
       x1="14.64"
       x2="9.3699999"
       y1="31.5"
       y2="32.25">
      <stop
         offset="0"
         stop-color="#ffb812"
         id="stop50" />
      <stop
         offset="1"
         stop-color="#ffb812"
         stop-opacity="0"
         id="stop51" />
    </linearGradient>
    <linearGradient
       id="t"
       gradientTransform="matrix(0.59,0,0,1.473,0.9,4.89)"
       x1="30.620001"
       x2="32.169998"
       xlink:href="#c"
       y1="10.31"
       y2="18.16" />
    <linearGradient
       id="s"
       gradientTransform="matrix(-0.59,0,0,1.473,47.1,4.78)"
       x1="30.620001"
       x2="32.169998"
       xlink:href="#c"
       y1="10.31"
       y2="18.16" />
    <radialGradient
       id="d"
       cx="27.75"
       cy="18.629999"
       gradientUnits="userSpaceOnUse"
       r="15.06">
      <stop
         offset="0"
         stop-color="#ffd800"
         stop-opacity="0"
         id="stop52" />
      <stop
         offset=".5"
         stop-color="#ffd800"
         stop-opacity=".33"
         id="stop53" />
      <stop
         offset="1"
         stop-color="#ffd800"
         stop-opacity="0"
         id="stop54" />
    </radialGradient>
    <linearGradient
       id="l"
       gradientTransform="matrix(0.6119,-0.1312,0.0619,0.7364,30.37,9.26)"
       x1="-22.870001"
       x2="-4.3899999"
       xlink:href="#a"
       y1="38.68"
       y2="38.68" />
    <linearGradient
       id="m"
       gradientTransform="matrix(0.6119,-0.1312,0.0619,0.7364,30.37,9.26)"
       x1="-10.48"
       x2="-23.85"
       xlink:href="#b"
       y1="39.029999"
       y2="39.139999" />
    <linearGradient
       id="h"
       gradientTransform="matrix(0.5604,0.0297,-0.1173,0.6523,35.38,20.96)"
       x1="-22.870001"
       x2="-4.3899999"
       xlink:href="#a"
       y1="38.68"
       y2="38.68" />
    <linearGradient
       id="i"
       gradientTransform="matrix(0.5604,0.0297,-0.1173,0.6523,35.38,20.96)"
       x1="-10.48"
       x2="-23.85"
       xlink:href="#b"
       y1="39.029999"
       y2="39.139999" />
    <linearGradient
       id="g"
       gradientTransform="matrix(0.9917,0,0,0.9909,-0.41,1.01)"
       gradientUnits="userSpaceOnUse"
       x1="24.610001"
       x2="24.610001"
       y1="31.15"
       y2="26.74">
      <stop
         offset="0"
         stop-color="#4c4428"
         id="stop55" />
      <stop
         offset="1"
         stop-color="#e7b600"
         stop-opacity="0"
         id="stop56" />
    </linearGradient>
    <linearGradient
       id="q"
       gradientUnits="userSpaceOnUse"
       x1="23.41"
       x2="23.41"
       y1="2"
       y2="34.009998">
      <stop
         offset="0"
         stop-color="#ab8104"
         id="stop57" />
      <stop
         offset=".736"
         stop-color="#ab8104"
         id="stop58" />
      <stop
         offset="1"
         stop-color="#616471"
         id="stop59" />
    </linearGradient>
    <linearGradient
       inkscape:collect="always"
       xlink:href="#a"
       id="linearGradient78"
       gradientTransform="scale(1.026,0.9742)"
       x1="-22.870001"
       y1="38.68"
       x2="-4.3899999"
       y2="38.68" />
    <linearGradient
       inkscape:collect="always"
       xlink:href="#b"
       id="linearGradient79"
       gradientTransform="scale(1.026,0.9742)"
       x1="-10.48"
       y1="39.029999"
       x2="-23.85"
       y2="39.139999" />
  </defs>
  <g
     id="g78"
     transform="matrix(5.121387,0,0,5.121387,3.0389641,7.5210887)">
    <path
       d="m 24,2.5 c -7.5,0 -13.5,5.9 -13.5,13.2 0,7.5 5.5,8.3 5.5,11 0,3.3 3.2,6.9 8.4,6.8 5.7,-0.1 8,-3.3 8,-6.8 0,-2.9 5.1,-3 5.1,-11 C 37.5,8.4 31.5,2.5 24,2.5 Z"
       fill="#ffffff"
       id="path59" />
    <path
       d="m 42.8,18.6 a 15.1,15.1 0 1 1 -30.1,0 15.1,15.1 0 1 1 30.1,0 z"
       fill="url(#d)"
       transform="matrix(1.342,0,0,1.09,-13.23,-3.75)"
       id="path60"
       style="fill:url(#d)" />
    <path
       d="m 39.9,42.1 a 13.8,4.4 0 1 1 -27.6,0 13.8,4.4 0 1 1 27.6,0 z"
       fill="url(#e)"
       opacity="0.8"
       transform="matrix(1.197,0,0,1.099,-6.2,-3.21)"
       id="path61"
       style="fill:url(#e)" />
    <path
       d="m 21,40.5 v 1.4 c 0,1.4 1.4,2.6 3,2.6 1.6,0 3,-1.2 3,-2.6 v -1.4 z"
       fill="url(#f)"
       stroke="#565656"
       id="path62"
       style="fill:url(#f)" />
    <path
       d="m 23.8,28.5 c -3.2,0 -6.9,1 -4.9,2.8 -0.5,0.2 -1.2,0.6 -1.2,1.7 0.1,0.5 0.7,0.9 1.5,1.1 -0.9,0.7 -1.5,1.3 -1.5,1.9 0.1,0.6 0.7,1 1.4,1.2 -0.8,0.6 -1.4,1.3 -1.4,1.9 0.1,1 2.1,2 6.5,1.9 3.1,-0.1 5.8,-0.7 6,-1.9 0.1,-0.4 -0.3,-0.9 -0.9,-1.3 0.5,-0.4 0.8,-0.9 0.8,-1.3 -0.1,-0.6 -0.6,-0.9 -1.4,-1.2 0.9,-0.6 1.4,-1.3 1.4,-1.9 -0.1,-0.6 -0.6,-0.9 -1.4,-1.1 0.9,-0.7 1.4,-1.4 1.4,-2 -0.1,-0.6 -3.2,-1.8 -6.3,-1.8 z"
       fill="#aeae57"
       stroke="url(#g)"
       stroke-width="2"
       id="path63"
       style="stroke:url(#g)" />
    <path
       d="M 30.2,39.1 C 30,40.3 26.9,41 22,40.7 c -3.2,-0.1 -3.3,-1 -3.1,-2.2 0.2,-1.2 2.9,-2.1 6,-1.9 3.1,0.2 5.5,1.3 5.3,2.5 z"
       fill="url(#h)"
       stroke="url(#i)"
       stroke-width="0.1"
       id="path64"
       style="fill:url(#h);stroke:url(#i)" />
    <path
       d="m -3.5,27.2 a 10.35,3.3160194 0 1 1 -20.7,0 10.35,3.3160194 0 1 1 20.7,0 z"
       fill="url(#j)"
       stroke="url(#k)"
       stroke-width="0.13"
       transform="matrix(0.5962,-0.1278,0.0636,0.7559,30.37,15.41)"
       id="path65"
       style="fill:url(#linearGradient78);stroke:url(#linearGradient79)" />
    <path
       d="m -3.5,27.2 a 10.35,3.3160194 0 1 1 -20.7,0 10.35,3.3160194 0 1 1 20.7,0 z"
       fill="url(#j)"
       stroke="url(#k)"
       stroke-width="0.13"
       transform="matrix(0.5962,-0.1278,0.0636,0.7559,30.37,12.33)"
       id="path66"
       style="fill:url(#j);stroke:url(#k)" />
    <path
       d="m 30,30.5 c 0,1.3 -2.6,2.9 -6,3.6 -3.4,0.7 -6.2,0.2 -6.3,-1.2 -0.2,-1.3 2.2,-2.9 5.6,-3.1 3.4,-0.2 6.7,-0.1 6.7,0.7 z"
       fill="url(#l)"
       stroke="url(#m)"
       stroke-width="0.1"
       id="path67"
       style="fill:url(#l);stroke:url(#m)" />
    <path
       d="m 21.5,35.53 a 1.1,1.1 0 1 1 -2.16,0 1.1,1.1 0 1 1 2.16,0 z"
       fill="#ffffff"
       id="path68" />
    <path
       d="m 18.7,34.2 c 3.4,0.5 6.9,-0.1 9.8,-1.9 0.8,-0.5 0.9,-1.1 1.3,-1.6 -1.4,1.1 -5,4.1 -11.1,3.5 z"
       fill-opacity="0.23"
       id="path69" />
    <path
       d="m 21.5,38.51 a 1.1,1.1 0 1 1 -2.16,0 1.1,1.1 0 1 1 2.16,0 z"
       fill="#ffffff"
       id="path70" />
    <path
       d="m 18.8,40.3 c 3.4,0.5 6.9,-0.1 9.8,-1.9 0.8,-0.5 0.9,-1.1 1.3,-1.6 -1.4,1.1 -5,4.1 -11.1,3.5 z m 0.1,-3.1 c 3.3,0.5 6.9,-0.1 9.7,-1.9 0.8,-0.5 1,-1.1 1.3,-1.6 -1.4,1.1 -4.9,4.1 -11,3.5 z"
       fill-opacity="0.23"
       id="path71" />
    <path
       d="m 18.5,31 c 0,-0.8 1.5,-1.8 5.3,-1.7 3.5,0 5.8,0.9 5.8,2.1 0,1.3 -3.1,2.1 -6.4,1.9 C 20,33.2 18.5,32.2 18.5,31 Z"
       fill="url(#n)"
       stroke="url(#o)"
       stroke-width="0.1"
       id="path72"
       style="fill:url(#n);stroke:url(#o)" />
    <path
       d="m 24,2.5 c -7.5,0 -13.5,5.9 -13.5,13.2 0,7.5 5.5,8.3 5.5,11 0,3.3 3.2,6.9 8.4,6.8 5.7,-0.1 8,-3.3 8,-6.8 0,-2.9 5.1,-3 5.1,-11 C 37.5,8.4 31.5,2.5 24,2.5 Z"
       fill="url(#p)"
       stroke="url(#q)"
       id="path73"
       style="fill:url(#p);stroke:url(#q)" />
    <path
       d="m 24,3.5 c -7,0 -12.6,5.6 -12.6,12.3 0,7 5.1,7.8 5.1,10.3 0,3.1 3,6.5 7.9,6.3 5.3,-0.1 7.4,-3.1 7.4,-6.3 0,-2.7 4.8,-2.8 4.8,-10.3 C 36.6,9.1 31,3.5 24,3.5 Z"
       fill="none"
       stroke="url(#r)"
       stroke-width="0.92"
       id="path74"
       style="stroke:url(#r)" />
    <path
       d="m 29.5,19.1 c 0.3,0.1 0.5,0.4 0.4,0.6 l -3.6,10.8 c -0.1,0.3 -0.4,0.5 -0.7,0.4 -0.3,-0.1 -0.5,-0.4 -0.4,-0.7 l 3.6,-10.7 c 0.1,-0.3 0.4,-0.5 0.7,-0.4 z"
       fill="url(#s)"
       id="path75"
       style="fill:url(#s)" />
    <path
       d="m 18.5,19.2 c -0.3,0.1 -0.5,0.4 -0.4,0.7 l 3.6,10.7 c 0.1,0.3 0.4,0.5 0.7,0.4 0.3,-0.1 0.5,-0.4 0.4,-0.7 L 19.2,19.6 c -0.1,-0.3 -0.4,-0.5 -0.7,-0.4 z"
       fill="url(#t)"
       id="path76"
       style="fill:url(#t)" />
    <path
       d="m 18.6,19.1 c -0.3,0.1 -0.4,0.2 -0.5,0.5 0,0.2 0.1,0.4 0.3,0.5 0,0 1.7,1 4,1.5 2.2,0.5 5.1,0.6 7.3,-1.5 0.2,-0.2 0.2,-0.4 0.2,-0.6 0,-0.2 -0.2,-0.3 -0.4,-0.4 -0.2,0 -0.4,0 -0.6,0.2 -1.8,1.8 -4.2,1.8 -6.3,1.3 C 20.5,20.1 19,19.2 19,19.2 18.8,19.1 18.7,19.1 18.6,19.1 Z"
       fill="#ffd800"
       stroke="url(#u)"
       stroke-width="0.2"
       id="path77"
       style="stroke:url(#u)" />
    <path
       d="m 24.3,5.2 c -6,0 -10.8,4 -10.8,8.9 0,1.9 0.9,3.6 2.2,5.1 1.5,0.6 3.1,1.1 4.9,1.1 6,0 10.8,-4 10.8,-8.9 0,-2 -0.9,-3.7 -2.2,-5.2 -1.5,-0.6 -3.1,-1 -4.9,-1 z"
       fill="url(#v)"
       opacity="0.6"
       id="path78"
       style="fill:url(#v)" />
  </g>
  <metadata
     id="metadata79">
    <rdf:RDF>
      <cc:Work
         rdf:about="">
        <dc:source>https://commons.wikimedia.org/wiki/File:Dialog-information_on.svg</dc:source>
        <cc:license
           rdf:resource="http://creativecommons.org/publicdomain/zero/1.0/" />
      </cc:Work>
      <cc:License
         rdf:about="http://creativecommons.org/publicdomain/zero/1.0/">
        <cc:permits
           rdf:resource="http://creativecommons.org/ns#Reproduction" />
        <cc:permits
           rdf:resource="http://creativecommons.org/ns#Distribution" />
        <cc:permits
           rdf:resource="http://creativecommons.org/ns#DerivativeWorks" />
      </cc:License>
    </rdf:RDF>
  </metadata>
</svg>
