<?xml version="1.0" encoding="UTF-8" standalone="no"?>
<svg
   version="1.1"
   width="189px"
   height="196px"
   style="shape-rendering:geometricPrecision; text-rendering:geometricPrecision; image-rendering:optimizeQuality; fill-rule:evenodd; clip-rule:evenodd"
   id="svg103"
   sodipodi:docname="mandrakemagie.svg"
   inkscape:version="1.3.2 (091e20ef0f, 2023-11-25)"
   xmlns:inkscape="http://www.inkscape.org/namespaces/inkscape"
   xmlns:sodipodi="http://sodipodi.sourceforge.net/DTD/sodipodi-0.dtd"
   xmlns="http://www.w3.org/2000/svg"
   xmlns:svg="http://www.w3.org/2000/svg">
  <defs
     id="defs103" />
  <sodipodi:namedview
     id="namedview103"
     pagecolor="#ffffff"
     bordercolor="#000000"
     borderopacity="0.25"
     inkscape:showpageshadow="2"
     inkscape:pageopacity="0.0"
     inkscape:pagecheckerboard="0"
     inkscape:deskcolor="#d1d1d1"
     inkscape:current-layer="svg103" />
  <g
     id="g1">
    <path
       style="opacity:0.871"
       fill="#fedc7a"
       d="M 61.5,-0.5 C 61.8333,-0.5 62.1667,-0.5 62.5,-0.5C 65.2039,0.680229 65.0372,1.68023 62,2.5C 60.3167,1.82352 60.1501,0.823523 61.5,-0.5 Z"
       id="path1" />
  </g>
  <g
     id="g2">
    <path
       style="opacity:0.773"
       fill="#ffe391"
       d="M 74.5,4.5 C 78.1232,5.41137 78.2899,6.74471 75,8.5C 73.6658,7.12206 73.4991,5.78873 74.5,4.5 Z"
       id="path2" />
  </g>
  <g
     id="g3">
    <path
       style="opacity:0.635"
       fill="#7f7b6f"
       d="M 88.5,6.5 C 89.8734,6.34332 91.2068,6.50999 92.5,7C 90.9963,8.4907 90.1629,10.324 90,12.5C 88.8869,11.2889 87.7202,11.2889 86.5,12.5C 85.7717,10.8068 84.7717,9.30678 83.5,8C 85.286,7.21549 86.786,6.04882 88,4.5C 88.4643,5.09442 88.631,5.76109 88.5,6.5 Z"
       id="path3" />
  </g>
  <g
     id="g4">
    <path
       style="opacity:1"
       fill="#d6ce2f"
       d="M 88.5,6.5 C 89.2341,7.70792 89.5674,9.04125 89.5,10.5C 88.5,10.5 87.5,10.5 86.5,10.5C 86.2291,8.6203 86.8958,7.28696 88.5,6.5 Z"
       id="path4" />
  </g>
  <g
     id="g5">
    <path
       style="opacity:0.576"
       fill="#868171"
       d="M 40.5,8.5 C 40.0646,5.38734 41.0646,4.72068 43.5,6.5C 45.5689,6.8242 45.9023,7.65753 44.5,9C 45.1667,9.66667 45.8333,10.3333 46.5,11C 44.5789,11.3603 42.9122,12.1936 41.5,13.5C 40.5,12.1667 39.5,10.8333 38.5,9.5C 38.9569,8.70245 39.6236,8.36912 40.5,8.5 Z"
       id="path5" />
  </g>
  <g
     id="g6">
    <path
       style="opacity:1"
       fill="#dfd630"
       d="M 40.5,8.5 C 43.476,7.77334 43.976,8.77334 42,11.5C 40.9614,10.7562 40.4614,9.75618 40.5,8.5 Z"
       id="path6" />
  </g>
  <g
     id="g7">
    <path
       style="opacity:0.455"
       fill="#fee28c"
       d="M 22.5,8.5 C 24.2726,9.31431 24.7726,10.6476 24,12.5C 23.3333,11.1667 22.6667,11.1667 22,12.5C 21.4209,11.0715 21.5876,9.7382 22.5,8.5 Z"
       id="path7" />
  </g>
  <g
     id="g8">
    <path
       style="opacity:0.471"
       fill="#fee28c"
       d="M 108.5,10.5 C 109.5,10.5 110.5,10.5 111.5,10.5C 111.5,11.5 111.5,12.5 111.5,13.5C 108.506,13.8543 107.506,12.8543 108.5,10.5 Z"
       id="path8" />
  </g>
  <g
     id="g12">
    <path
       style="opacity:0.82"
       fill="#878477"
       d="M 23.5,24.5 C 20.9088,21.7052 19.5755,22.3719 19.5,26.5C 20.791,26.2627 21.791,26.596 22.5,27.5C 21.1779,27.33 20.0113,27.6634 19,28.5C 18.654,26.7818 18.154,25.1151 17.5,23.5C 18.7598,22.6184 19.9264,21.6184 21,20.5C 22.1711,21.8932 23.6711,22.7265 25.5,23C 24.9558,23.7172 24.2891,24.2172 23.5,24.5 Z"
       id="path12" />
  </g>
  <g
     id="g13">
    <path
       style="opacity:1"
       fill="#fcd8da"
       d="M 68.5,23.5 C 68.5,22.8333 68.5,22.1667 68.5,21.5C 75.1673,20.8584 75.1673,21.5251 68.5,23.5 Z"
       id="path13" />
  </g>
  <g
     id="g18">
    <path
       style="opacity:0.173"
       fill="#f9b4b7"
       d="M 75.5,20.5 C 76.4731,22.9479 76.8064,25.6146 76.5,28.5C 75.209,28.7373 74.209,28.404 73.5,27.5C 75.3435,25.7211 76.0102,23.3878 75.5,20.5 Z"
       id="path18" />
  </g>
  <g
     id="g19">
    <path
       style="opacity:1"
       fill="#a49b46"
       d="M 23.5,24.5 C 25.129,26.1959 24.7957,27.1959 22.5,27.5C 21.791,26.596 20.791,26.2627 19.5,26.5C 19.5755,22.3719 20.9088,21.7052 23.5,24.5 Z"
       id="path19" />
  </g>
  <g
     id="g20">
    <path
       style="opacity:0.886"
       fill="#fedc77"
       d="M 123.5,29.5 C 125.048,29.8212 125.715,30.8212 125.5,32.5C 122.752,32.5983 122.086,31.5983 123.5,29.5 Z"
       id="path20" />
  </g>
  <g
     id="g21">
    <path
       style="opacity:0.251"
       fill="#fee597"
       d="M 50.5,31.5 C 52.1042,32.287 52.7709,33.6203 52.5,35.5C 51.5,35.5 50.5,35.5 49.5,35.5C 49.4326,34.0413 49.7659,32.7079 50.5,31.5 Z"
       id="path21" />
  </g>
  <g
     id="g22">
    <path
       style="opacity:0.424"
       fill="#fde083"
       d="M 1.5,31.5 C 2.5,31.5 3.5,31.5 4.5,31.5C 4.5,32.5 4.5,33.5 4.5,34.5C 3.5,34.5 2.5,34.5 1.5,34.5C 1.5,33.5 1.5,32.5 1.5,31.5 Z"
       id="path22" />
  </g>
  <g
     id="g24">
    <path
       style="opacity:0.839"
       fill="#7d7972"
       d="M 53.5,39.5 C 54.675,39.281 55.675,39.6143 56.5,40.5C 55.846,42.1151 55.346,43.7818 55,45.5C 53.6667,44.1667 52.3333,44.1667 51,45.5C 50.7265,43.6711 49.8932,42.1711 48.5,41C 49.9814,40.0197 51.3147,38.853 52.5,37.5C 53.2975,37.9569 53.6309,38.6236 53.5,39.5 Z"
       id="path24" />
  </g>
  <g
     id="g25">
    <path
       style="opacity:1"
       fill="#d3cb2f"
       d="M 53.5,39.5 C 54.2341,40.7079 54.5674,42.0413 54.5,43.5C 50.2704,42.457 49.937,41.1236 53.5,39.5 Z"
       id="path25" />
  </g>
  <g
     id="g26">
    <path
       style="opacity:0.706"
       fill="#837f74"
       d="M 70.5,36.5 C 71.2189,38.0913 72.2189,39.5913 73.5,41C 72.0186,41.9803 70.6853,43.147 69.5,44.5C 68.1667,43.5 66.8333,42.5 65.5,41.5C 66.2458,40.2638 66.5792,38.9305 66.5,37.5C 68.099,37.7678 69.4324,37.4345 70.5,36.5 Z"
       id="path26" />
  </g>
  <g
     id="g27">
    <path
       style="opacity:1"
       fill="#d2ca2f"
       d="M 67.5,38.5 C 71.3917,39.2232 71.8917,40.5566 69,42.5C 67.8118,41.4366 67.3118,40.1033 67.5,38.5 Z"
       id="path27" />
  </g>
  <g
     id="g28">
    <path
       style="opacity:0.608"
       fill="#7d7a73"
       d="M 121.5,41.5 C 122.675,41.281 123.675,41.6143 124.5,42.5C 123.754,43.7362 123.421,45.0695 123.5,46.5C 121.856,46.2865 120.356,46.6198 119,47.5C 118.727,45.6711 117.893,44.1711 116.5,43C 117.981,42.0197 119.315,40.853 120.5,39.5C 121.298,39.9569 121.631,40.6236 121.5,41.5 Z"
       id="path28" />
  </g>
  <g
     id="g29">
    <path
       style="opacity:0.129"
       fill="#ffebaf"
       d="M 102.5,39.5 C 106.063,41.1236 105.73,42.457 101.5,43.5C 101.433,42.0413 101.766,40.7079 102.5,39.5 Z"
       id="path29" />
  </g>
  <g
     id="g30">
    <path
       style="opacity:1"
       fill="#d2ca2f"
       d="M 121.5,41.5 C 122.234,42.7079 122.567,44.0413 122.5,45.5C 118.27,44.457 117.937,43.1236 121.5,41.5 Z"
       id="path30" />
  </g>
  <g
     id="g32">
    <path
       style="opacity:0.725"
       fill="#ffe28f"
       d="M 33.5,46.5 C 37.0416,47.0913 37.3749,48.4246 34.5,50.5C 32.3576,49.5629 32.0243,48.2296 33.5,46.5 Z"
       id="path32" />
  </g>
  <g
     id="g33">
    <path
       style="opacity:0.924"
       fill="#4e4a4e"
       d="M 172.5,152.5 C 172.5,151.167 172.5,149.833 172.5,148.5C 173.295,143.851 173.461,139.184 173,134.5C 166.601,132.054 160.768,128.72 155.5,124.5C 154.778,123.449 153.778,122.782 152.5,122.5C 151.944,118.16 151.277,113.827 150.5,109.5C 150.486,107.407 151.152,105.574 152.5,104C 151.422,103.326 150.755,102.326 150.5,101C 150.552,96.5288 152.552,93.5288 156.5,92C 155.295,90.6244 153.962,89.4577 152.5,88.5C 150.79,86.8004 148.79,85.4671 146.5,84.5C 145.893,84.6236 145.56,84.9569 145.5,85.5C 144.167,84.8333 143.167,83.8333 142.5,82.5C 143.778,82.2178 144.778,81.5511 145.5,80.5C 145.369,81.3764 145.702,82.0431 146.5,82.5C 147.5,81.1667 148.5,79.8333 149.5,78.5C 149.911,79.2624 150.077,80.2624 150,81.5C 152.351,78.5672 153.351,78.9006 153,82.5C 150.699,83.6763 150.366,85.0096 152,86.5C 153.333,84.5 154.667,82.5 156,80.5C 156.667,81.1667 157.333,81.8333 158,82.5C 159.03,77.8622 159.863,73.1955 160.5,68.5C 160.03,67.537 159.363,67.537 158.5,68.5C 157.646,67.3684 157.646,66.035 158.5,64.5C 159.694,61.9824 160.86,61.9824 162,64.5C 162.765,61.8041 163.932,59.3041 165.5,57C 165.272,56.6012 164.938,56.4346 164.5,56.5C 164.5,55.8333 164.5,55.1667 164.5,54.5C 165.117,54.6107 165.617,54.944 166,55.5C 167.86,51.7802 169.693,48.1136 171.5,44.5C 173.417,42.7196 174.084,40.7196 173.5,38.5C 173.833,38.5 174.167,38.5 174.5,38.5C 177.106,36.6459 178.106,34.3125 177.5,31.5C 172.349,31.3906 167.683,33.0572 163.5,36.5C 162.5,36.8333 161.833,37.5 161.5,38.5C 160.63,40.5988 159.297,40.9321 157.5,39.5C 155.37,40.4672 153.37,41.6338 151.5,43C 150.402,43.7697 150.402,44.603 151.5,45.5C 150.833,45.5 150.5,45.8333 150.5,46.5C 149.778,46.0825 149.278,45.4158 149,44.5C 138.563,52.7668 129.73,62.4335 122.5,73.5C 122.938,74.5063 123.604,74.5063 124.5,73.5C 125.386,74.325 125.719,75.325 125.5,76.5C 124.518,77.1408 123.518,77.8075 122.5,78.5C 121.483,75.972 120.316,75.972 119,78.5C 118.282,77.5494 117.449,77.3828 116.5,78C 113.44,82.3401 114.44,83.8401 119.5,82.5C 120.802,84.0276 122.469,85.0276 124.5,85.5C 123.147,87.193 121.48,88.5264 119.5,89.5C 119.167,88.8333 118.833,88.1667 118.5,87.5C 116.645,86.3104 114.812,84.9771 113,83.5C 112.48,81.7111 112.813,80.0444 114,78.5C 121.796,69.0357 129.962,59.8691 138.5,51C 150.968,40.4295 164.968,32.4295 180.5,27C 182.5,26.3333 184.5,26.3333 186.5,27C 183.285,29.2143 180.785,32.0476 179,35.5C 173.078,46.3433 167.411,57.3433 162,68.5C 161.068,73.9925 160.234,79.4925 159.5,85C 161.164,87.6508 161.664,90.4841 161,93.5C 158.988,99.4874 156.155,104.987 152.5,110C 152.27,117.52 155.27,123.187 161.5,127C 165.954,129.311 170.454,131.478 175,133.5C 175.987,140.193 175.154,146.527 172.5,152.5 Z"
       id="path33" />
  </g>
  <g
     id="g34">
    <path
       style="opacity:1"
       fill="#878569"
       d="M 163.5,36.5 C 165.902,37.3665 168.068,38.6999 170,40.5C 170.333,40.1667 170.667,39.8333 171,39.5C 170.229,41.18 170.395,42.8467 171.5,44.5C 170.542,44.9528 169.708,45.6195 169,46.5C 168.059,44.2279 166.726,42.2279 165,40.5C 164.586,40.9574 164.086,41.2907 163.5,41.5C 162.824,40.3984 162.158,39.3984 161.5,38.5C 161.833,37.5 162.5,36.8333 163.5,36.5 Z"
       id="path34" />
  </g>
  <g
     id="g35">
    <path
       style="opacity:1"
       fill="#e2de42"
       d="M 157.5,55.5 C 155.079,54.1086 152.412,53.2752 149.5,53C 151.58,51.0388 151.914,48.8722 150.5,46.5C 150.5,45.8333 150.833,45.5 151.5,45.5C 153.484,45.6168 155.15,44.9501 156.5,43.5C 156.976,46.1191 158.309,48.1191 160.5,49.5C 158.022,50.7224 157.022,52.7224 157.5,55.5 Z"
       id="path35" />
  </g>
  <g
     id="g36">
    <path
       style="opacity:1"
       fill="#2f4692"
       d="M 177.5,31.5 C 178.106,34.3125 177.106,36.6459 174.5,38.5C 174.539,37.4168 174.873,36.4168 175.5,35.5C 174.478,34.646 173.645,33.646 173,32.5C 172.097,33.7014 170.931,34.5348 169.5,35C 170.337,36.0113 170.67,37.1779 170.5,38.5C 171.5,38.5 172.5,38.5 173.5,38.5C 174.084,40.7196 173.417,42.7196 171.5,44.5C 170.395,42.8467 170.229,41.18 171,39.5C 170.667,39.8333 170.333,40.1667 170,40.5C 168.068,38.6999 165.902,37.3665 163.5,36.5C 167.683,33.0572 172.349,31.3906 177.5,31.5 Z"
       id="path36" />
  </g>
  <g
     id="g37">
    <path
       style="opacity:1"
       fill="#decc41"
       d="M 174.5,38.5 C 174.167,38.5 173.833,38.5 173.5,38.5C 172.5,38.5 171.5,38.5 170.5,38.5C 170.67,37.1779 170.337,36.0113 169.5,35C 170.931,34.5348 172.097,33.7014 173,32.5C 173.645,33.646 174.478,34.646 175.5,35.5C 174.873,36.4168 174.539,37.4168 174.5,38.5 Z"
       id="path37" />
  </g>
  <g
     id="g38">
    <path
       style="opacity:1"
       fill="#edc138"
       d="M 177.5,31.5 C 177.639,29.663 178.306,29.3296 179.5,30.5C 179.043,31.2975 178.376,31.6309 177.5,31.5 Z"
       id="path38" />
  </g>
  <g
     id="g39">
    <path
       style="opacity:0.804"
       fill="#817d74"
       d="M 92.5,49.5 C 93.2389,49.369 93.9056,49.5357 94.5,50C 93.2125,51.4095 92.0458,52.9095 91,54.5C 89.8289,53.1068 88.3289,52.2735 86.5,52C 87.7111,50.8869 87.7111,49.7202 86.5,48.5C 87.9905,47.7564 89.4905,47.0897 91,46.5C 92.0386,47.2438 92.5386,48.2438 92.5,49.5 Z"
       id="path39" />
  </g>
  <g
     id="g40">
    <path
       style="opacity:1"
       fill="#cfc72f"
       d="M 92.5,49.5 C 90.8764,53.063 89.543,52.7296 88.5,48.5C 89.9587,48.4326 91.2921,48.7659 92.5,49.5 Z"
       id="path40" />
  </g>
  <g
     id="g41">
    <path
       style="opacity:0.773"
       fill="#8a8574"
       d="M -0.5,53.5 C -0.5,53.1667 -0.5,52.8333 -0.5,52.5C 1.14297,52.5198 2.4763,51.8532 3.5,50.5C 4.91223,51.8064 6.57889,52.6397 8.5,53C 6.6063,54.0793 6.27297,55.4126 7.5,57C 5.56702,57.2511 3.73369,57.7511 2,58.5C 1.90054,56.3474 1.0672,54.6808 -0.5,53.5 Z"
       id="path41" />
  </g>
  <g
     id="g42">
    <path
       style="opacity:1"
       fill="#32428f"
       d="M 161.5,38.5 C 162.158,39.3984 162.824,40.3984 163.5,41.5C 164.086,41.2907 164.586,40.9574 165,40.5C 166.726,42.2279 168.059,44.2279 169,46.5C 169.708,45.6195 170.542,44.9528 171.5,44.5C 169.693,48.1136 167.86,51.7802 166,55.5C 165.617,54.944 165.117,54.6107 164.5,54.5C 163.698,53.1153 163.031,53.282 162.5,55C 162.836,56.0299 163.503,56.5299 164.5,56.5C 164.938,56.4346 165.272,56.6012 165.5,57C 163.932,59.3041 162.765,61.8041 162,64.5C 160.86,61.9824 159.694,61.9824 158.5,64.5C 157.833,64.8333 157.167,65.1667 156.5,65.5C 156.5,64.8333 156.5,64.1667 156.5,63.5C 155.5,64.1667 154.5,64.8333 153.5,65.5C 153.167,65.5 152.833,65.5 152.5,65.5C 152.833,64.8333 153.167,64.1667 153.5,63.5C 154.906,63.0269 155.573,62.0269 155.5,60.5C 156.404,59.791 156.737,58.791 156.5,57.5C 156.833,56.8333 157.167,56.1667 157.5,55.5C 157.022,52.7224 158.022,50.7224 160.5,49.5C 158.309,48.1191 156.976,46.1191 156.5,43.5C 155.15,44.9501 153.484,45.6168 151.5,45.5C 150.402,44.603 150.402,43.7697 151.5,43C 153.37,41.6338 155.37,40.4672 157.5,39.5C 159.297,40.9321 160.63,40.5988 161.5,38.5 Z"
       id="path42" />
  </g>
  <g
     id="g43">
    <path
       style="opacity:1"
       fill="#d3cf46"
       d="M 162.5,44.5 C 163.675,44.281 164.675,44.6143 165.5,45.5C 163.948,46.7979 162.948,46.4646 162.5,44.5 Z"
       id="path43" />
  </g>
  <g
     id="g44">
    <path
       style="opacity:1"
       fill="#ded630"
       d="M 50.5,55.5 C 49.8333,55.8333 49.1667,56.1667 48.5,56.5C 47.0651,55.0152 47.2317,53.6819 49,52.5C 50.0386,53.2438 50.5386,54.2438 50.5,55.5 Z"
       id="path44" />
  </g>
  <g
     id="g45">
    <path
       style="opacity:1"
       fill="#35539a"
       d="M 150.5,46.5 C 151.914,48.8722 151.58,51.0388 149.5,53C 152.412,53.2752 155.079,54.1086 157.5,55.5C 157.167,56.1667 156.833,56.8333 156.5,57.5C 154.027,57.0882 152.694,58.0882 152.5,60.5C 151.115,61.9473 151.448,62.9473 153.5,63.5C 153.167,64.1667 152.833,64.8333 152.5,65.5C 150.345,65.372 148.345,65.872 146.5,67C 147.5,67.1667 148.5,67.3333 149.5,67.5C 151.355,67.6598 152.688,66.9931 153.5,65.5C 154.5,64.8333 155.5,64.1667 156.5,63.5C 156.5,64.1667 156.5,64.8333 156.5,65.5C 156.586,66.4959 156.252,67.3292 155.5,68C 152.833,68.3333 150.167,68.6667 147.5,69C 154.073,69.5282 154.073,70.3615 147.5,71.5C 147.667,71.8333 147.833,72.1667 148,72.5C 151.137,73.1614 153.97,74.4948 156.5,76.5C 157.293,75.6446 156.96,74.8113 155.5,74C 156.5,73.6667 157.5,73.3333 158.5,73C 156.913,72.1376 155.246,71.4709 153.5,71C 155.653,70.9005 157.319,70.0672 158.5,68.5C 159.363,67.537 160.03,67.537 160.5,68.5C 159.863,73.1955 159.03,77.8622 158,82.5C 157.333,81.8333 156.667,81.1667 156,80.5C 154.667,82.5 153.333,84.5 152,86.5C 150.366,85.0096 150.699,83.6763 153,82.5C 153.351,78.9006 152.351,78.5672 150,81.5C 150.077,80.2624 149.911,79.2624 149.5,78.5C 148.5,79.8333 147.5,81.1667 146.5,82.5C 145.702,82.0431 145.369,81.3764 145.5,80.5C 144.778,81.5511 143.778,82.2178 142.5,82.5C 140.842,81.8186 139.175,80.9853 137.5,80C 138.373,78.955 139.373,78.1217 140.5,77.5C 140.631,76.7611 140.464,76.0944 140,75.5C 138.961,76.7101 137.794,77.7101 136.5,78.5C 136.209,79.6491 135.376,80.3158 134,80.5C 129.677,79.3022 125.51,79.3022 121.5,80.5C 120.5,80.8333 119.833,81.5 119.5,82.5C 114.44,83.8401 113.44,82.3401 116.5,78C 117.449,77.3828 118.282,77.5494 119,78.5C 120.316,75.972 121.483,75.972 122.5,78.5C 123.518,77.8075 124.518,77.1408 125.5,76.5C 125.719,75.325 125.386,74.325 124.5,73.5C 123.604,74.5063 122.938,74.5063 122.5,73.5C 129.73,62.4335 138.563,52.7668 149,44.5C 149.278,45.4158 149.778,46.0825 150.5,46.5 Z"
       id="path45" />
  </g>
  <g
     id="g46">
    <path
       style="opacity:1"
       fill="#808f7e"
       d="M 144.5,58.5 C 141.045,61.3545 139.545,60.6878 140,56.5C 138.374,57.9555 137.208,59.6221 136.5,61.5C 136.5,60.8333 136.167,60.5 135.5,60.5C 137.247,56.0353 140.247,53.702 144.5,53.5C 145.434,55.0948 145.434,56.7615 144.5,58.5 Z"
       id="path46" />
  </g>
  <g
     id="g47">
    <path
       style="opacity:1"
       fill="#e5b33d"
       d="M 164.5,54.5 C 164.5,55.1667 164.5,55.8333 164.5,56.5C 163.503,56.5299 162.836,56.0299 162.5,55C 163.031,53.282 163.698,53.1153 164.5,54.5 Z"
       id="path47" />
  </g>
  <g
     id="g48">
    <path
       style="opacity:1"
       fill="#a9a22e"
       d="M 3.5,52.5 C 5.10422,53.287 5.77089,54.6203 5.5,56.5C 4.5,56.5 3.5,56.5 2.5,56.5C 2.43255,55.0413 2.76589,53.7079 3.5,52.5 Z"
       id="path48" />
  </g>
  <g
     id="g49">
    <path
       style="opacity:0.757"
       fill="#777258"
       d="M 50.5,55.5 C 50.5386,54.2438 50.0386,53.2438 49,52.5C 47.2317,53.6819 47.0651,55.0152 48.5,56.5C 47.5041,56.4142 46.6708,56.7476 46,57.5C 46.0464,55.6874 45.8797,54.0207 45.5,52.5C 46.9905,51.7564 48.4905,51.0897 50,50.5C 50.7845,52.286 51.9512,53.786 53.5,55C 52.552,55.4828 51.552,55.6495 50.5,55.5 Z"
       id="path49" />
  </g>
  <g
     id="g50">
    <path
       style="opacity:0.392"
       fill="#928e81"
       d="M 74.5,54.5 C 73.6236,54.6309 72.9569,54.2975 72.5,53.5C 74.1965,52.6364 75.3632,51.3031 76,49.5C 77.3068,50.7717 78.8068,51.7717 80.5,52.5C 79.9851,54.2251 79.3184,55.8917 78.5,57.5C 77.5,56.1667 76.5,56.1667 75.5,57.5C 74.6143,56.675 74.281,55.675 74.5,54.5 Z"
       id="path50" />
  </g>
  <g
     id="g51">
    <path
       style="opacity:1"
       fill="#d0c82f"
       d="M 74.5,54.5 C 75.287,52.8958 76.6203,52.2291 78.5,52.5C 78.5,53.5 78.5,54.5 78.5,55.5C 77.0413,55.5674 75.7079,55.2341 74.5,54.5 Z"
       id="path51" />
  </g>
  <g
     id="g52">
    <path
       style="opacity:0.243"
       fill="#fee9a7"
       d="M 56.5,54.5 C 57.8333,54.5 59.1667,54.5 60.5,54.5C 60.5,55.5 60.5,56.5 60.5,57.5C 58.0274,57.9118 56.6941,56.9118 56.5,54.5 Z"
       id="path52" />
  </g>
  <g
     id="g53">
    <path
       style="opacity:0.675"
       fill="#ffe392"
       d="M 35.5,56.5 C 39.1232,57.4114 39.2899,58.7447 36,60.5C 34.6658,59.1221 34.4991,57.7887 35.5,56.5 Z"
       id="path53" />
  </g>
  <g
     id="g54">
    <path
       style="opacity:0.251"
       fill="#a09e99"
       d="M 50.5,55.5 C 50.719,56.675 50.3857,57.675 49.5,58.5C 48.7025,58.0431 48.3691,57.3764 48.5,56.5C 49.1667,56.1667 49.8333,55.8333 50.5,55.5 Z"
       id="path54" />
  </g>
  <g
     id="g55">
    <path
       style="opacity:1"
       fill="#839479"
       d="M 144.5,58.5 C 146.129,57.3747 147.629,56.0414 149,54.5C 148.628,56.92 147.295,58.92 145,60.5C 144.536,59.9056 144.369,59.2389 144.5,58.5 Z"
       id="path55" />
  </g>
  <g
     id="g56">
    <path
       style="opacity:1"
       fill="#95a56a"
       d="M 151.5,55.5 C 152.559,57.0699 152.059,58.4032 150,59.5C 149.7,57.9343 150.2,56.601 151.5,55.5 Z"
       id="path56" />
  </g>
  <g
     id="g57">
    <path
       style="opacity:0.078"
       fill="#ffecb4"
       d="M 103.5,56.5 C 107.063,58.1236 106.73,59.457 102.5,60.5C 102.433,59.0413 102.766,57.7079 103.5,56.5 Z"
       id="path57" />
  </g>
  <g
     id="g58">
    <path
       style="opacity:1"
       fill="#adb35c"
       d="M 156.5,57.5 C 156.737,58.791 156.404,59.791 155.5,60.5C 155.631,59.7611 155.464,59.0944 155,58.5C 154.292,59.3805 153.458,60.0472 152.5,60.5C 152.694,58.0882 154.027,57.0882 156.5,57.5 Z"
       id="path58" />
  </g>
  <g
     id="g60">
    <path
       style="opacity:1"
       fill="#e7e140"
       d="M 135.5,60.5 C 136.167,60.5 136.5,60.8333 136.5,61.5C 135.249,65.5983 135.583,69.5983 137.5,73.5C 137.167,73.5 136.833,73.5 136.5,73.5C 131.715,71.2188 130.382,67.5521 132.5,62.5C 133.357,61.5748 134.357,60.9081 135.5,60.5 Z"
       id="path60" />
  </g>
  <g
     id="g61">
    <path
       style="opacity:1"
       fill="#36599f"
       d="M 155.5,60.5 C 154.542,60.9528 153.708,61.6195 153,62.5C 152.536,61.9056 152.369,61.2389 152.5,60.5C 153.458,60.0472 154.292,59.3805 155,58.5C 155.464,59.0944 155.631,59.7611 155.5,60.5 Z"
       id="path61" />
  </g>
  <g
     id="g62">
    <path
       style="opacity:1"
       fill="#9c915c"
       d="M 156.5,63.5 C 156.461,62.2438 156.961,61.2438 158,60.5C 158.585,61.9976 158.085,62.9976 156.5,63.5 Z"
       id="path62" />
  </g>
  <g
     id="g63">
    <path
       style="opacity:1"
       fill="#acb35c"
       d="M 152.5,60.5 C 152.369,61.2389 152.536,61.9056 153,62.5C 153.708,61.6195 154.542,60.9528 155.5,60.5C 155.573,62.0269 154.906,63.0269 153.5,63.5C 151.448,62.9473 151.115,61.9473 152.5,60.5 Z"
       id="path63" />
  </g>
  <g
     id="g64">
    <path
       style="opacity:0.765"
       fill="#c3b170"
       d="M 75.5,75.5 C 74.6618,75.8417 74.3284,76.5084 74.5,77.5C 67.2866,68.027 63.12,57.3604 62,45.5C 66.0206,55.7338 70.5206,65.7338 75.5,75.5 Z"
       id="path64" />
  </g>
  <g
     id="g65">
    <path
       style="opacity:1"
       fill="#989f6a"
       d="M 152.5,65.5 C 152.833,65.5 153.167,65.5 153.5,65.5C 152.688,66.9931 151.355,67.6598 149.5,67.5C 148.5,67.3333 147.5,67.1667 146.5,67C 148.345,65.872 150.345,65.372 152.5,65.5 Z"
       id="path65" />
  </g>
  <g
     id="g66">
    <path
       style="opacity:1"
       fill="#e9e23d"
       d="M 140.5,68.5 C 144.349,68.0193 146.349,69.686 146.5,73.5C 144.473,73.6621 142.473,73.4955 140.5,73C 139.272,71.5098 139.272,70.0098 140.5,68.5 Z"
       id="path66" />
  </g>
  <g
     id="g67">
    <path
       style="opacity:1"
       fill="#9f8360"
       d="M 158.5,64.5 C 157.646,66.035 157.646,67.3684 158.5,68.5C 157.319,70.0672 155.653,70.9005 153.5,71C 155.246,71.4709 156.913,72.1376 158.5,73C 157.5,73.3333 156.5,73.6667 155.5,74C 156.96,74.8113 157.293,75.6446 156.5,76.5C 153.97,74.4948 151.137,73.1614 148,72.5C 147.833,72.1667 147.667,71.8333 147.5,71.5C 154.073,70.3615 154.073,69.5282 147.5,69C 150.167,68.6667 152.833,68.3333 155.5,68C 156.252,67.3292 156.586,66.4959 156.5,65.5C 157.167,65.1667 157.833,64.8333 158.5,64.5 Z"
       id="path67" />
  </g>
  <g
     id="g68">
    <path
       style="opacity:1"
       fill="#96a66b"
       d="M 131.5,74.5 C 132.713,75.4971 132.546,76.4971 131,77.5C 130.53,76.4232 130.697,75.4232 131.5,74.5 Z"
       id="path68" />
  </g>
  <g
     id="g69">
    <path
       style="opacity:1"
       fill="#899975"
       d="M 136.5,73.5 C 136.833,73.5 137.167,73.5 137.5,73.5C 137.938,73.4346 138.272,73.6012 138.5,74C 137.418,75.3297 136.751,76.8297 136.5,78.5C 135.142,79.6256 133.808,79.6256 132.5,78.5C 133.16,76.1853 134.493,74.5186 136.5,73.5 Z"
       id="path69" />
  </g>
  <g
     id="g70">
    <path
       style="opacity:1"
       fill="#98a66a"
       d="M 125.5,76.5 C 126.117,76.6107 126.617,76.944 127,77.5C 127.667,76.1667 128.333,74.8333 129,73.5C 129.986,75.9248 129.319,77.5915 127,78.5C 125.97,78.1639 125.47,77.4972 125.5,76.5 Z"
       id="path70" />
  </g>
  <g
     id="g71">
    <path
       style="opacity:1"
       fill="#94a06f"
       d="M 140.5,77.5 C 141.482,76.8592 142.482,76.1925 143.5,75.5C 144.834,77.8183 144.168,79.485 141.5,80.5C 140.614,79.675 140.281,78.675 140.5,77.5 Z"
       id="path71" />
  </g>
  <g
     id="g72">
    <path
       style="opacity:0.827"
       fill="#908964"
       d="M 30.5,75.5 C 31.4268,77.5762 33.0935,78.7428 35.5,79C 33.6063,80.0793 33.273,81.4126 34.5,83C 32.567,83.2511 30.7337,83.7511 29,84.5C 28.8371,82.324 28.0037,80.4907 26.5,79C 28.5503,78.5838 29.8836,77.4171 30.5,75.5 Z"
       id="path72" />
  </g>
  <g
     id="g73">
    <path
       style="opacity:0.765"
       fill="#6b5b58"
       d="M 98.5,88.5 C 97.3556,86.8998 96.1889,85.2331 95,83.5C 92.8282,84.5089 91.6615,86.1756 91.5,88.5C 90.0088,86.1288 89.0088,83.4621 88.5,80.5C 84.6875,79.8329 81.0208,79.1663 77.5,78.5C 80.7431,77.42 84.0764,77.2534 87.5,78C 89.6964,79.2225 91.1964,81.0558 92,83.5C 96.7266,81.6703 98.8932,83.337 98.5,88.5 Z"
       id="path73" />
  </g>
  <g
     id="g74">
    <path
       style="opacity:1"
       fill="#989f67"
       d="M 145.5,80.5 C 145.461,79.2438 145.961,78.2438 147,77.5C 147.585,78.9976 147.085,79.9976 145.5,80.5 Z"
       id="path74" />
  </g>
  <g
     id="g75">
    <path
       style="opacity:1"
       fill="#e08b62"
       d="M 75.5,75.5 C 76.9063,75.9731 77.573,76.9731 77.5,78.5C 81.0208,79.1663 84.6875,79.8329 88.5,80.5C 89.0088,83.4621 90.0088,86.1288 91.5,88.5C 91.3284,89.4916 91.6618,90.1583 92.5,90.5C 93.6148,92.3069 94.2814,94.3069 94.5,96.5C 94.523,98.0666 94.023,99.3999 93,100.5C 91.9542,98.9095 90.7875,97.4095 89.5,96C 85.3248,95.6545 82.9915,93.4878 82.5,89.5C 81.5423,88.0384 80.3756,86.7051 79,85.5C 78.2172,83.6815 78.7172,82.3482 80.5,81.5C 82.0151,85.2578 84.3484,86.0911 87.5,84C 85.0408,83.0299 82.7075,81.8632 80.5,80.5C 77.9147,81.0728 76.9147,82.7395 77.5,85.5C 76.5,85.5 75.5,85.5 74.5,85.5C 74.3832,83.5165 75.0499,81.8498 76.5,80.5C 76.3764,79.8933 76.0431,79.56 75.5,79.5C 75.1667,78.8333 74.8333,78.1667 74.5,77.5C 74.3284,76.5084 74.6618,75.8417 75.5,75.5 Z"
       id="path75" />
  </g>
  <g
     id="g76">
    <path
       style="opacity:1"
       fill="#df8a62"
       d="M 121.5,80.5 C 126.215,80.506 130.882,81.006 135.5,82C 131.226,85.0568 129.56,89.2235 130.5,94.5C 133.545,94.5079 136.545,94.8413 139.5,95.5C 139.5,94.5 139.5,93.5 139.5,92.5C 140.338,92.1583 140.672,91.4916 140.5,90.5C 141.831,87.9392 141.498,85.4392 139.5,83C 140.448,82.5172 141.448,82.3505 142.5,82.5C 143.167,83.8333 144.167,84.8333 145.5,85.5C 147.229,86.2362 148.229,87.5695 148.5,89.5C 148.605,93.5483 148.272,97.5483 147.5,101.5C 146.167,102.167 145.167,103.167 144.5,104.5C 144.167,104.5 143.833,104.5 143.5,104.5C 141.801,104.66 140.134,104.494 138.5,104C 141.497,101.034 141.164,98.8672 137.5,97.5C 133.455,95.8227 129.122,95.1561 124.5,95.5C 124.238,94.0222 124.571,92.6888 125.5,91.5C 126.396,92.5063 127.062,92.5063 127.5,91.5C 126.757,90.8182 126.091,90.1515 125.5,89.5C 125.567,88.0413 125.234,86.7079 124.5,85.5C 122.469,85.0276 120.802,84.0276 119.5,82.5C 119.833,81.5 120.5,80.8333 121.5,80.5 Z"
       id="path76" />
  </g>
  <g
     id="g77">
    <path
       style="opacity:1"
       fill="#705549"
       d="M 75.5,79.5 C 76.0431,79.56 76.3764,79.8933 76.5,80.5C 75.0499,81.8498 74.3832,83.5165 74.5,85.5C 75.5,85.5 76.5,85.5 77.5,85.5C 76.9147,82.7395 77.9147,81.0728 80.5,80.5C 82.7075,81.8632 85.0408,83.0299 87.5,84C 84.3484,86.0911 82.0151,85.2578 80.5,81.5C 78.7172,82.3482 78.2172,83.6815 79,85.5C 80.3756,86.7051 81.5423,88.0384 82.5,89.5C 82.4729,91.1993 81.8062,92.5326 80.5,93.5C 76.8671,91.4449 74.5338,88.2782 73.5,84C 73.5186,82.167 74.1852,80.667 75.5,79.5 Z"
       id="path77" />
  </g>
  <g
     id="g78">
    <path
       style="opacity:1"
       fill="#2853a5"
       d="M 98.5,88.5 C 99.7468,97.2552 104.08,104.089 111.5,109C 112.793,109.49 114.127,109.657 115.5,109.5C 115.131,130.572 122.798,148.072 138.5,162C 146.961,168.206 156.294,170.04 166.5,167.5C 168.177,170.025 169.677,172.691 171,175.5C 171.863,181.338 169.363,185.171 163.5,187C 159,188.792 154.333,189.625 149.5,189.5C 139.489,188.078 130.656,184.078 123,177.5C 120.757,173.777 119.09,169.777 118,165.5C 116.273,154.366 114.106,143.366 111.5,132.5C 111.233,128.426 109.9,124.759 107.5,121.5C 104.137,120.691 101.304,119.025 99,116.5C 98.8236,113.118 98.3236,109.785 97.5,106.5C 96.9003,110.5 95.5669,114.166 93.5,117.5C 91.4372,120.973 88.9372,121.306 86,118.5C 83.7781,111.692 82.9448,104.692 83.5,97.5C 83.5,97.1667 83.5,96.8333 83.5,96.5C 84.1667,96.5 84.8333,96.5 85.5,96.5C 85.3339,102.176 85.5006,107.843 86,113.5C 86.3768,114.942 87.2101,115.942 88.5,116.5C 90.0174,116.489 91.1841,115.823 92,114.5C 95.1174,105.744 96.1174,96.7444 95,87.5C 94.6667,88.8333 94.3333,90.1667 94,91.5C 93.6174,90.944 93.1174,90.6107 92.5,90.5C 91.6618,90.1583 91.3284,89.4916 91.5,88.5C 91.6615,86.1756 92.8282,84.5089 95,83.5C 96.1889,85.2331 97.3556,86.8998 98.5,88.5 Z"
       id="path78" />
  </g>
  <g
     id="g79">
    <path
       style="opacity:1"
       fill="#5f4a42"
       d="M 140.5,77.5 C 139.373,78.1217 138.373,78.955 137.5,80C 139.175,80.9853 140.842,81.8186 142.5,82.5C 141.448,82.3505 140.448,82.5172 139.5,83C 141.498,85.4392 141.831,87.9392 140.5,90.5C 139.793,88.8656 138.627,87.5323 137,86.5C 136.459,89.209 134.959,91.209 132.5,92.5C 134.859,93.7143 137.192,93.7143 139.5,92.5C 139.5,93.5 139.5,94.5 139.5,95.5C 136.545,94.8413 133.545,94.5079 130.5,94.5C 129.56,89.2235 131.226,85.0568 135.5,82C 130.882,81.006 126.215,80.506 121.5,80.5C 125.51,79.3022 129.677,79.3022 134,80.5C 135.376,80.3158 136.209,79.6491 136.5,78.5C 137.794,77.7101 138.961,76.7101 140,75.5C 140.464,76.0944 140.631,76.7611 140.5,77.5 Z"
       id="path79" />
  </g>
  <g
     id="g80">
    <path
       style="opacity:1"
       fill="#e8e7e7"
       d="M 152.5,88.5 C 151.113,96.9797 149.78,97.313 148.5,89.5C 148.229,87.5695 147.229,86.2362 145.5,85.5C 145.56,84.9569 145.893,84.6236 146.5,84.5C 148.79,85.4671 150.79,86.8004 152.5,88.5 Z"
       id="path80" />
  </g>
  <g
     id="g81">
    <path
       style="opacity:1"
       fill="#cccbcb"
       d="M 124.5,85.5 C 125.234,86.7079 125.567,88.0413 125.5,89.5C 123.858,91.0808 121.858,91.7475 119.5,91.5C 119.5,90.8333 119.5,90.1667 119.5,89.5C 121.48,88.5264 123.147,87.193 124.5,85.5 Z"
       id="path81" />
  </g>
  <g
     id="g82">
    <path
       style="opacity:1"
       fill="#614c44"
       d="M 125.5,89.5 C 126.091,90.1515 126.757,90.8182 127.5,91.5C 127.062,92.5063 126.396,92.5063 125.5,91.5C 124.571,92.6888 124.238,94.0222 124.5,95.5C 129.122,95.1561 133.455,95.8227 137.5,97.5C 137.167,97.5 136.833,97.5 136.5,97.5C 132.801,96.4893 129.134,96.4893 125.5,97.5C 123.02,94.4633 120.02,93.7966 116.5,95.5C 118.026,93.87 120.026,93.0367 122.5,93C 120.494,92.9174 119.494,92.4174 119.5,91.5C 121.858,91.7475 123.858,91.0808 125.5,89.5 Z"
       id="path82" />
  </g>
  <g
     id="g83">
    <path
       style="opacity:1"
       fill="#d4d3d3"
       d="M 140.5,90.5 C 140.672,91.4916 140.338,92.1583 139.5,92.5C 137.192,93.7143 134.859,93.7143 132.5,92.5C 134.959,91.209 136.459,89.209 137,86.5C 138.627,87.5323 139.793,88.8656 140.5,90.5 Z"
       id="path83" />
  </g>
  <g
     id="g84">
    <path
       style="opacity:1"
       fill="#dc8d69"
       d="M 118.5,87.5 C 118.833,88.1667 119.167,88.8333 119.5,89.5C 119.5,90.1667 119.5,90.8333 119.5,91.5C 119.494,92.4174 120.494,92.9174 122.5,93C 120.026,93.0367 118.026,93.87 116.5,95.5C 115.957,95.44 115.624,95.1067 115.5,94.5C 116.456,92.9246 117.123,91.258 117.5,89.5C 117.328,88.5084 117.662,87.8417 118.5,87.5 Z"
       id="path84" />
  </g>
  <g
     id="g85">
    <path
       style="opacity:1"
       fill="#f4f3f3"
       d="M 136.5,97.5 C 134.79,102.183 131.457,103.683 126.5,102C 125.315,100.647 123.981,99.4803 122.5,98.5C 120.401,102.935 117.734,103.435 114.5,100C 115.267,98.5295 115.933,97.0295 116.5,95.5C 120.02,93.7966 123.02,94.4633 125.5,97.5C 129.134,96.4893 132.801,96.4893 136.5,97.5 Z"
       id="path85" />
  </g>
  <g
     id="g86">
    <path
       style="opacity:1"
       fill="#2f327f"
       d="M 85.5,96.5 C 86.552,96.3505 87.552,96.5172 88.5,97C 94.0194,103.162 94.0194,109.662 88.5,116.5C 87.2101,115.942 86.3768,114.942 86,113.5C 85.5006,107.843 85.3339,102.176 85.5,96.5 Z"
       id="path86" />
  </g>
  <g
     id="g87">
    <path
       style="opacity:1"
       fill="#d98a65"
       d="M 156.5,93.5 C 158.344,94.2039 158.844,95.5372 158,97.5C 157.002,100.234 155.168,101.901 152.5,102.5C 152.104,99.5178 152.771,96.8511 154.5,94.5C 155.944,95.981 156.611,95.6477 156.5,93.5 Z"
       id="path87" />
  </g>
  <g
     id="g88">
    <path
       style="opacity:1"
       fill="#fcfcfc"
       d="M 142.5,105.5 C 142.447,118.932 145.114,131.765 150.5,144C 154.287,148.514 155.287,153.68 153.5,159.5C 150.639,161.98 147.306,162.98 143.5,162.5C 134.472,157.471 127.972,150.138 124,140.5C 119.132,128.994 116.632,116.994 116.5,104.5C 117.5,104.5 118.5,104.5 119.5,104.5C 120.721,103.972 121.887,103.305 123,102.5C 125.385,104.776 128.219,106.109 131.5,106.5C 135.132,105.754 138.798,105.421 142.5,105.5 Z"
       id="path88" />
  </g>
  <g
     id="g89">
    <path
       style="opacity:1"
       fill="#8c8684"
       d="M 117.5,89.5 C 117.123,91.258 116.456,92.9246 115.5,94.5C 115.624,95.1067 115.957,95.44 116.5,95.5C 115.933,97.0295 115.267,98.5295 114.5,100C 117.734,103.435 120.401,102.935 122.5,98.5C 123.981,99.4803 125.315,100.647 126.5,102C 131.457,103.683 134.79,102.183 136.5,97.5C 136.833,97.5 137.167,97.5 137.5,97.5C 141.164,98.8672 141.497,101.034 138.5,104C 140.134,104.494 141.801,104.66 143.5,104.5C 143.5,105.167 143.167,105.5 142.5,105.5C 138.798,105.421 135.132,105.754 131.5,106.5C 128.219,106.109 125.385,104.776 123,102.5C 121.887,103.305 120.721,103.972 119.5,104.5C 118.167,103.167 116.833,103.167 115.5,104.5C 114.007,103.688 113.34,102.355 113.5,100.5C 113.936,97.8214 114.436,95.1547 115,92.5C 115.377,91.0577 116.21,90.0577 117.5,89.5 Z"
       id="path89" />
  </g>
  <g
     id="g90">
    <path
       style="opacity:1"
       fill="#838081"
       d="M 152.5,88.5 C 153.962,89.4577 155.295,90.6244 156.5,92C 152.552,93.5288 150.552,96.5288 150.5,101C 150.755,102.326 151.422,103.326 152.5,104C 151.152,105.574 150.486,107.407 150.5,109.5C 151.277,113.827 151.944,118.16 152.5,122.5C 154.228,127.515 156.061,132.515 158,137.5C 162.246,144.825 166.079,152.325 169.5,160C 168.885,163.282 166.885,165.282 163.5,166C 157.114,167.046 151.114,166.213 145.5,163.5C 146.833,163.5 148.167,163.5 149.5,163.5C 153.646,164.647 157.98,164.814 162.5,164C 164.613,163.128 165.946,161.628 166.5,159.5C 162.545,150.257 158.045,141.257 153,132.5C 151.732,127.363 150.066,122.363 148,117.5C 147.362,112.075 147.862,106.741 149.5,101.5C 149.333,100.833 149.167,100.167 149,99.5C 148.722,100.416 148.222,101.082 147.5,101.5C 148.272,97.5483 148.605,93.5483 148.5,89.5C 149.78,97.313 151.113,96.9797 152.5,88.5 Z"
       id="path90" />
  </g>
  <g
     id="g91">
    <path
       style="opacity:1"
       fill="#2f2934"
       d="M 88.5,116.5 C 94.0194,109.662 94.0194,103.162 88.5,97C 87.552,96.5172 86.552,96.3505 85.5,96.5C 84.8333,96.5 84.1667,96.5 83.5,96.5C 83.1436,94.8102 82.1436,93.8102 80.5,93.5C 81.8062,92.5326 82.4729,91.1993 82.5,89.5C 82.9915,93.4878 85.3248,95.6545 89.5,96C 90.7875,97.4095 91.9542,98.9095 93,100.5C 94.023,99.3999 94.523,98.0666 94.5,96.5C 94.2814,94.3069 93.6148,92.3069 92.5,90.5C 93.1174,90.6107 93.6174,90.944 94,91.5C 94.3333,90.1667 94.6667,88.8333 95,87.5C 96.1174,96.7444 95.1174,105.744 92,114.5C 91.1841,115.823 90.0174,116.489 88.5,116.5 Z"
       id="path91" />
  </g>
  <g
     id="g92">
    <path
       style="opacity:1"
       fill="#2f3482"
       d="M 111.5,132.5 C 107.315,127.388 101.982,123.722 95.5,121.5C 94.8281,120.051 94.1614,118.718 93.5,117.5C 95.5669,114.166 96.9003,110.5 97.5,106.5C 98.3236,109.785 98.8236,113.118 99,116.5C 101.304,119.025 104.137,120.691 107.5,121.5C 109.9,124.759 111.233,128.426 111.5,132.5 Z"
       id="path92" />
  </g>
  <g
     id="g93">
    <path
       style="opacity:1"
       fill="#2b4a97"
       d="M 155.5,124.5 C 160.768,128.72 166.601,132.054 173,134.5C 173.461,139.184 173.295,143.851 172.5,148.5C 171.694,149.997 171.028,151.664 170.5,153.5C 162.843,145.876 157.843,136.209 155.5,124.5 Z"
       id="path93" />
  </g>
  <g
     id="g94">
    <path
       style="opacity:1"
       fill="#d8d7d7"
       d="M 149.5,163.5 C 148.167,163.5 146.833,163.5 145.5,163.5C 144.508,163.672 143.842,163.338 143.5,162.5C 147.306,162.98 150.639,161.98 153.5,159.5C 155.287,153.68 154.287,148.514 150.5,144C 145.114,131.765 142.447,118.932 142.5,105.5C 143.167,105.5 143.5,105.167 143.5,104.5C 143.833,104.5 144.167,104.5 144.5,104.5C 145.767,103.913 146.767,103.913 147.5,104.5C 145.971,106.707 145.305,109.207 145.5,112C 146.487,118.932 147.987,125.765 150,132.5C 153.768,140.371 157.268,148.371 160.5,156.5C 160.449,158.1 160.116,159.6 159.5,161C 156.464,163.006 153.131,163.84 149.5,163.5 Z"
       id="path94" />
  </g>
  <g
     id="g95">
    <path
       style="opacity:1"
       fill="#a8a7a7"
       d="M 149.5,163.5 C 153.131,163.84 156.464,163.006 159.5,161C 160.116,159.6 160.449,158.1 160.5,156.5C 157.268,148.371 153.768,140.371 150,132.5C 147.987,125.765 146.487,118.932 145.5,112C 145.305,109.207 145.971,106.707 147.5,104.5C 146.767,103.913 145.767,103.913 144.5,104.5C 145.167,103.167 146.167,102.167 147.5,101.5C 148.222,101.082 148.722,100.416 149,99.5C 149.167,100.167 149.333,100.833 149.5,101.5C 147.862,106.741 147.362,112.075 148,117.5C 150.066,122.363 151.732,127.363 153,132.5C 158.045,141.257 162.545,150.257 166.5,159.5C 165.946,161.628 164.613,163.128 162.5,164C 157.98,164.814 153.646,164.647 149.5,163.5 Z"
       id="path95" />
  </g>
  <g
     id="g96">
    <path
       style="opacity:1"
       fill="#8f6755"
       d="M 172.5,153.5 C 173.315,154.837 174.482,155.837 176,156.5C 176.167,157.5 176.333,158.5 176.5,159.5C 176.303,161.996 175.303,163.996 173.5,165.5C 169.897,161.76 169.564,157.76 172.5,153.5 Z"
       id="path96" />
  </g>
  <g
     id="g97">
    <path
       style="opacity:1"
       fill="#2c292f"
       d="M 98.5,88.5 C 101.13,96.9831 106.297,103.65 114,108.5C 114.41,107.099 114.91,105.766 115.5,104.5C 116.833,103.167 118.167,103.167 119.5,104.5C 118.5,104.5 117.5,104.5 116.5,104.5C 116.632,116.994 119.132,128.994 124,140.5C 127.972,150.138 134.472,157.471 143.5,162.5C 143.842,163.338 144.508,163.672 145.5,163.5C 151.114,166.213 157.114,167.046 163.5,166C 166.885,165.282 168.885,163.282 169.5,160C 166.079,152.325 162.246,144.825 158,137.5C 156.061,132.515 154.228,127.515 152.5,122.5C 153.778,122.782 154.778,123.449 155.5,124.5C 157.843,136.209 162.843,145.876 170.5,153.5C 171.028,151.664 171.694,149.997 172.5,148.5C 172.5,149.833 172.5,151.167 172.5,152.5C 172.5,152.833 172.5,153.167 172.5,153.5C 169.564,157.76 169.897,161.76 173.5,165.5C 174.833,166.5 176.167,167.5 177.5,168.5C 177.5,169.5 177.5,170.5 177.5,171.5C 174.87,169.372 172.37,167.039 170,164.5C 168.855,165.636 167.688,166.636 166.5,167.5C 156.294,170.04 146.961,168.206 138.5,162C 122.798,148.072 115.131,130.572 115.5,109.5C 114.127,109.657 112.793,109.49 111.5,109C 104.08,104.089 99.7468,97.2552 98.5,88.5 Z"
       id="path97" />
  </g>
  <g
     id="g98">
    <path
       style="opacity:1"
       fill="#2f3482"
       d="M 177.5,171.5 C 179.355,172.69 181.188,174.023 183,175.5C 183.667,177.167 183.667,178.833 183,180.5C 181.906,182.078 181.072,183.745 180.5,185.5C 177.093,187.473 173.426,188.973 169.5,190C 162.654,190.821 155.987,190.654 149.5,189.5C 154.333,189.625 159,188.792 163.5,187C 169.363,185.171 171.863,181.338 171,175.5C 169.677,172.691 168.177,170.025 166.5,167.5C 167.688,166.636 168.855,165.636 170,164.5C 172.37,167.039 174.87,169.372 177.5,171.5 Z"
       id="path98" />
  </g>
  <g
     id="g99">
    <path
       style="opacity:0.975"
       fill="#484245"
       d="M 83.5,97.5 C 82.9448,104.692 83.7781,111.692 86,118.5C 88.9372,121.306 91.4372,120.973 93.5,117.5C 94.1614,118.718 94.8281,120.051 95.5,121.5C 101.982,123.722 107.315,127.388 111.5,132.5C 114.106,143.366 116.273,154.366 118,165.5C 119.09,169.777 120.757,173.777 123,177.5C 130.656,184.078 139.489,188.078 149.5,189.5C 155.987,190.654 162.654,190.821 169.5,190C 173.426,188.973 177.093,187.473 180.5,185.5C 181.072,183.745 181.906,182.078 183,180.5C 183.667,178.833 183.667,177.167 183,175.5C 181.188,174.023 179.355,172.69 177.5,171.5C 177.5,170.5 177.5,169.5 177.5,168.5C 181.573,170.241 184.24,173.241 185.5,177.5C 185.167,180.01 184.167,182.177 182.5,184C 184.37,186.04 186.37,187.873 188.5,189.5C 188.5,190.5 188.5,191.5 188.5,192.5C 187.5,193.5 186.5,194.5 185.5,195.5C 183.5,195.5 181.5,195.5 179.5,195.5C 173.926,191.264 167.759,190.597 161,193.5C 153.884,192.81 146.884,191.477 140,189.5C 134.975,191.381 129.808,191.881 124.5,191C 117.491,186.75 117.825,183.75 125.5,182C 120.733,178.32 117.566,173.487 116,167.5C 113.629,156.903 111.629,146.236 110,135.5C 103.723,126.869 95.3893,121.869 85,120.5C 84.1376,118.913 83.4709,117.246 83,115.5C 82.1808,109.319 82.3475,103.319 83.5,97.5 Z"
       id="path99" />
  </g>
  <g
     id="g100">
    <path
       style="opacity:1"
       fill="#751f21"
       d="M 182.5,187.5 C 185.506,188.349 186.506,190.183 185.5,193C 182.137,193.927 179.137,193.427 176.5,191.5C 178.5,191.5 180.5,191.5 182.5,191.5C 182.5,190.167 182.5,188.833 182.5,187.5 Z"
       id="path100" />
  </g>
  <g
     id="g101">
    <path
       style="opacity:1"
       fill="#7b1f22"
       d="M 132.5,186.5 C 134.179,186.892 135.846,187.392 137.5,188C 133.102,189.724 128.769,189.891 124.5,188.5C 127.698,189.036 130.365,188.369 132.5,186.5 Z"
       id="path101" />
  </g>
  <g
     id="g102">
    <path
       style="opacity:1"
       fill="#bc2729"
       d="M 180.5,185.5 C 181.5,185.833 182.167,186.5 182.5,187.5C 182.5,188.833 182.5,190.167 182.5,191.5C 180.5,191.5 178.5,191.5 176.5,191.5C 175.624,191.631 174.957,191.298 174.5,190.5C 176.941,189.291 178.941,187.624 180.5,185.5 Z"
       id="path102" />
  </g>
  <g
     id="g103">
    <path
       style="opacity:1"
       fill="#d8232a"
       d="M 132.5,186.5 C 130.365,188.369 127.698,189.036 124.5,188.5C 121.513,188.052 120.513,186.552 121.5,184C 125.696,182.949 129.363,183.783 132.5,186.5 Z"
       id="path103" />
  </g>
</svg>
