<?xml version="1.0" encoding="UTF-8" standalone="no"?>
<!-- Created with Inkscape (http://www.inkscape.org/) -->

<svg
   width="256"
   height="256"
   id="svg2"
   sodipodi:version="0.32"
   inkscape:version="1.4.2 (ebf0e940d0, 2025-05-08)"
   sodipodi:docname="mypaint-icon.svg"
   version="1.0"
   inkscape:output_extension="org.inkscape.output.svg.inkscape"
   inkscape:export-filename="/home/needcoffee/Desktop/mypaint/48x48/mypaint.png"
   inkscape:export-xdpi="90"
   inkscape:export-ydpi="90"
   viewBox="0 0 256 256"
   xmlns:inkscape="http://www.inkscape.org/namespaces/inkscape"
   xmlns:sodipodi="http://sodipodi.sourceforge.net/DTD/sodipodi-0.dtd"
   xmlns:xlink="http://www.w3.org/1999/xlink"
   xmlns="http://www.w3.org/2000/svg"
   xmlns:svg="http://www.w3.org/2000/svg"
   xmlns:rdf="http://www.w3.org/1999/02/22-rdf-syntax-ns#"
   xmlns:cc="http://creativecommons.org/ns#"
   xmlns:dc="http://purl.org/dc/elements/1.1/">
  <defs
     id="defs4">
    <linearGradient
       inkscape:collect="always"
       id="linearGradient2812">
      <stop
         style="stop-color:#000000;stop-opacity:1;"
         offset="0"
         id="stop2814" />
      <stop
         style="stop-color:#000000;stop-opacity:0;"
         offset="1"
         id="stop2816" />
    </linearGradient>
    <linearGradient
       inkscape:collect="always"
       id="linearGradient11958">
      <stop
         style="stop-color:#000000;stop-opacity:1;"
         offset="0"
         id="stop11960" />
      <stop
         style="stop-color:#000000;stop-opacity:0;"
         offset="1"
         id="stop11962" />
    </linearGradient>
    <linearGradient
       inkscape:collect="always"
       id="linearGradient11550">
      <stop
         style="stop-color:#ffffff;stop-opacity:1;"
         offset="0"
         id="stop11552" />
      <stop
         style="stop-color:#ffffff;stop-opacity:0;"
         offset="1"
         id="stop11554" />
    </linearGradient>
    <linearGradient
       inkscape:collect="always"
       id="linearGradient8804">
      <stop
         style="stop-color:#ffffff;stop-opacity:1;"
         offset="0"
         id="stop8806" />
      <stop
         style="stop-color:#ffffff;stop-opacity:0;"
         offset="1"
         id="stop8808" />
    </linearGradient>
    <linearGradient
       inkscape:collect="always"
       id="linearGradient8413">
      <stop
         style="stop-color:#ffffff;stop-opacity:1;"
         offset="0"
         id="stop8415" />
      <stop
         style="stop-color:#ffffff;stop-opacity:0;"
         offset="1"
         id="stop8417" />
    </linearGradient>
    <linearGradient
       inkscape:collect="always"
       id="linearGradient7641">
      <stop
         style="stop-color:#ffffff;stop-opacity:1"
         offset="0"
         id="stop7643" />
      <stop
         style="stop-color:#555753;stop-opacity:1"
         offset="1"
         id="stop7645" />
    </linearGradient>
    <linearGradient
       inkscape:collect="always"
       id="linearGradient5459">
      <stop
         style="stop-color:#e9b96e;stop-opacity:1;"
         offset="0"
         id="stop5461" />
      <stop
         style="stop-color:#e9b96e;stop-opacity:0;"
         offset="1"
         id="stop5463" />
    </linearGradient>
    <linearGradient
       inkscape:collect="always"
       id="linearGradient5066">
      <stop
         style="stop-color:#000000;stop-opacity:1;"
         offset="0"
         id="stop5068" />
      <stop
         style="stop-color:#000000;stop-opacity:0;"
         offset="1"
         id="stop5070" />
    </linearGradient>
    <linearGradient
       id="linearGradient2758">
      <stop
         style="stop-color:#ffffff;stop-opacity:0.58823532;"
         offset="0"
         id="stop2760" />
      <stop
         style="stop-color:#ffffff;stop-opacity:0;"
         offset="1"
         id="stop2762" />
    </linearGradient>
    <linearGradient
       inkscape:collect="always"
       xlink:href="#linearGradient2758"
       id="linearGradient2764"
       x1="35"
       y1="47"
       x2="0"
       y2="-6"
       gradientUnits="userSpaceOnUse"
       gradientTransform="matrix(0.8974358,0,0,1,2.4615384,0)" />
    <radialGradient
       inkscape:collect="always"
       xlink:href="#linearGradient5066"
       id="radialGradient5072"
       cx="25"
       cy="43.5"
       fx="25"
       fy="34.500015"
       r="21"
       gradientTransform="matrix(1,0,0,0.2142857,0,34.178571)"
       gradientUnits="userSpaceOnUse" />
    <linearGradient
       inkscape:collect="always"
       xlink:href="#linearGradient5459"
       id="linearGradient10764"
       gradientUnits="userSpaceOnUse"
       x1="23"
       y1="36.5"
       x2="25"
       y2="36.5"
       gradientTransform="matrix(0.5,0,0,1,11.5,0)" />
    <linearGradient
       inkscape:collect="always"
       xlink:href="#linearGradient8413"
       id="linearGradient10776"
       gradientUnits="userSpaceOnUse"
       x1="21.849625"
       y1="11.702784"
       x2="27.907148"
       y2="17.132355"
       gradientTransform="translate(8,9.000001)" />
    <radialGradient
       inkscape:collect="always"
       xlink:href="#linearGradient7641"
       id="radialGradient10780"
       gradientUnits="userSpaceOnUse"
       gradientTransform="matrix(1,0,0,0.75,8,12.75)"
       cx="23"
       cy="12.811336"
       fx="22.305519"
       fy="9.10744"
       r="4" />
    <linearGradient
       inkscape:collect="always"
       xlink:href="#linearGradient8804"
       id="linearGradient10783"
       gradientUnits="userSpaceOnUse"
       x1="25.5"
       y1="18.5"
       x2="36.5"
       y2="18.5"
       gradientTransform="translate(8,9.000001)" />
    <linearGradient
       inkscape:collect="always"
       xlink:href="#linearGradient11550"
       id="linearGradient11556"
       x1="33.5"
       y1="27.5"
       x2="44.5"
       y2="27.5"
       gradientUnits="userSpaceOnUse"
       gradientTransform="matrix(1.1999998,0,0,1.2,-8.299991,-5.5000001)" />
    <linearGradient
       inkscape:collect="always"
       xlink:href="#linearGradient11958"
       id="linearGradient11964"
       x1="19"
       y1="15"
       x2="39"
       y2="37"
       gradientUnits="userSpaceOnUse"
       gradientTransform="matrix(0.9285714,0,0,0.9999998,3,2.9358974e-6)" />
    <linearGradient
       inkscape:collect="always"
       xlink:href="#linearGradient2812"
       id="linearGradient2818"
       x1="31.668297"
       y1="35.908379"
       x2="35.556171"
       y2="44.257706"
       gradientUnits="userSpaceOnUse"
       gradientTransform="matrix(0.9354004,0,-0.4355704,0.838391,1.018091,1.894737)" />
    <linearGradient
       inkscape:collect="always"
       xlink:href="#linearGradient2812"
       id="linearGradient2822"
       gradientUnits="userSpaceOnUse"
       gradientTransform="matrix(-0.9354004,0,0.4355704,0.838391,46.981909,1.894737)"
       x1="31.668297"
       y1="35.908379"
       x2="35.556171"
       y2="44.257706" />
  </defs>
  <sodipodi:namedview
     id="base"
     pagecolor="#ffffff"
     bordercolor="#666666"
     borderopacity="1.0"
     inkscape:pageopacity="0.0"
     inkscape:pageshadow="2"
     inkscape:zoom="2.8284271"
     inkscape:cx="121.26881"
     inkscape:cy="110.83899"
     inkscape:document-units="px"
     inkscape:current-layer="svg2"
     inkscape:window-width="1280"
     inkscape:window-height="934"
     inkscape:window-x="0"
     inkscape:window-y="42"
     inkscape:showpageshadow="false"
     width="48px"
     height="48px"
     borderlayer="true"
     gridtolerance="10000"
     inkscape:pagecheckerboard="0"
     inkscape:deskcolor="#d1d1d1">
    <inkscape:grid
       type="xygrid"
       id="grid2173"
       originx="0"
       originy="0"
       spacingy="1"
       spacingx="1"
       units="px"
       visible="false" />
  </sodipodi:namedview>
  <metadata
     id="metadata7">
    <rdf:RDF>
      <cc:Work
         rdf:about="">
        <dc:format>image/svg+xml</dc:format>
        <dc:type
           rdf:resource="http://purl.org/dc/dcmitype/StillImage" />
        <dc:title>mypaint</dc:title>
        <dc:date>07-06-14</dc:date>
        <dc:creator>
          <cc:Agent>
            <dc:title>Sebastian Kraft</dc:title>
          </cc:Agent>
        </dc:creator>
        <dc:subject>
          <rdf:Bag>
            <rdf:li>graphics</rdf:li>
            <rdf:li>paint</rdf:li>
            <rdf:li>brush</rdf:li>
            <rdf:li>canvas</rdf:li>
          </rdf:Bag>
        </dc:subject>
        <dc:source>https://commons.wikimedia.org/wiki/File:Mypaint-icon.svg</dc:source>
        <cc:license
           rdf:resource="http://creativecommons.org/publicdomain/zero/1.0/" />
      </cc:Work>
      <cc:License
         rdf:about="http://creativecommons.org/publicdomain/zero/1.0/">
        <cc:permits
           rdf:resource="http://creativecommons.org/ns#Reproduction" />
        <cc:permits
           rdf:resource="http://creativecommons.org/ns#Distribution" />
        <cc:permits
           rdf:resource="http://creativecommons.org/ns#DerivativeWorks" />
      </cc:License>
    </rdf:RDF>
  </metadata>
  <g
     id="g1"
     transform="matrix(5.4424757,0,0,5.4424757,-2.3672719,-6.0565239)">
    <path
       transform="matrix(1,0,0,0.7777772,-1.0000001,10.666689)"
       style="color:#000000;display:inline;overflow:visible;visibility:visible;opacity:0.4;fill:url(#radialGradient5072);fill-opacity:1;fill-rule:evenodd;stroke:none;stroke-width:1px;stroke-linecap:butt;stroke-linejoin:miter;stroke-miterlimit:4;stroke-dashoffset:0;stroke-opacity:1;marker:none;marker-start:none;marker-mid:none;marker-end:none;enable-background:accumulate"
       d="M 46,43.5 C 46,45.984 36.592,48 25,48 13.408,48 4,45.984 4,43.5 4,41.016 13.408,39 25,39 c 11.592,0 21,2.016 21,4.5 z"
       id="path4683" />
    <path
       transform="matrix(-1,0,0.4656513,0.8849683,0,0)"
       style="fill:#c17d11;fill-opacity:1;stroke:#8f5902;stroke-width:1.06301;stroke-linecap:round;stroke-linejoin:round;stroke-miterlimit:4;stroke-dashoffset:1.96;stroke-opacity:1"
       d="m -15.47244,30.015917 h 4.969463 v 21.469696 h -4.969463 z"
       id="rect5858" />
    <path
       transform="matrix(-1,0,0.4656513,0.8849683,0,0)"
       style="fill:none;fill-opacity:1;stroke:#e9b96e;stroke-width:1.06301;stroke-linecap:round;stroke-linejoin:miter;stroke-miterlimit:4;stroke-dashoffset:1.96;stroke-opacity:1"
       d="m -14.478547,31.145903 h 2.981677 v 19.20973 h -2.981677 z"
       id="rect5860" />
    <path
       style="opacity:0.6;fill:url(#linearGradient2822);fill-opacity:1;stroke:none;stroke-width:1.06301;stroke-linecap:round;stroke-linejoin:round;stroke-miterlimit:4;stroke-dashoffset:1.96;stroke-opacity:1"
       d="m 34,36 h -4 l 5,9 h 4 z"
       id="path2820"
       sodipodi:nodetypes="ccccc" />
    <path
       transform="matrix(1,0,-0.4656513,0.8849683,0,0)"
       style="fill:#c17d11;fill-opacity:1;stroke:#8f5902;stroke-width:1.06301;stroke-linecap:round;stroke-linejoin:round;stroke-miterlimit:4;stroke-dashoffset:1.96;stroke-opacity:1"
       d="m 32.47427,29.944576 h 4.969462 V 51.414272 H 32.47427 Z"
       id="rect5467" />
    <path
       transform="matrix(1,0,-0.4656513,0.8849683,0,0)"
       style="fill:none;fill-opacity:1;stroke:#e9b96e;stroke-width:1.06301;stroke-linecap:round;stroke-linejoin:miter;stroke-miterlimit:4;stroke-dashoffset:1.96;stroke-opacity:1"
       d="m 33.468159,31.074562 h 2.981677 v 19.20973 h -2.981677 z"
       id="rect5469" />
    <path
       id="path2233"
       d="m 14,36 h 4 l -5,9 H 9 Z"
       style="opacity:0.6;fill:url(#linearGradient2818);fill-opacity:1;stroke:none;stroke-width:1.06301;stroke-linecap:round;stroke-linejoin:round;stroke-miterlimit:4;stroke-dashoffset:1.96;stroke-opacity:1"
       sodipodi:nodetypes="ccccc" />
    <path
       style="fill:#c17d11;fill-opacity:1;stroke:#8f5902;stroke-width:1;stroke-linecap:round;stroke-linejoin:round;stroke-miterlimit:4;stroke-dashoffset:1.96;stroke-opacity:1"
       d="m 22.5,29.5 h 3 v 14 h -3 z"
       id="rect4681" />
    <path
       style="fill:url(#linearGradient10764);fill-opacity:1;stroke:none;stroke-width:1;stroke-linecap:round;stroke-linejoin:round;stroke-miterlimit:4;stroke-dashoffset:1.96;stroke-opacity:1"
       d="m 23,30 h 1 v 13 h -1 z"
       id="rect5076" />
    <path
       style="fill:#d3d7cf;fill-opacity:1;stroke:#888a85;stroke-width:1;stroke-linecap:round;stroke-linejoin:round;stroke-miterlimit:4;stroke-dashoffset:1.96;stroke-opacity:1"
       d="M 5.5000001,2.5 H 42.500001 V 35.500001 H 5.5000001 Z"
       id="path4675" />
    <path
       style="fill:#eeeeec;fill-opacity:1;stroke:#888a85;stroke-width:1;stroke-linecap:round;stroke-linejoin:round;stroke-miterlimit:4;stroke-dashoffset:1.96;stroke-opacity:1"
       d="M 5.5000001,2.4999999 H 42.500001 V 33.499999 H 5.5000001 Z"
       id="rect2174" />
    <path
       style="fill:url(#linearGradient2764);fill-opacity:1;stroke:#ffffff;stroke-width:1;stroke-linecap:round;stroke-linejoin:round;stroke-miterlimit:4;stroke-dashoffset:1.96;stroke-opacity:1"
       d="M 6.4999998,3.5000001 H 41.499998 V 32.500001 H 6.4999998 Z"
       id="path2177" />
    <path
       style="opacity:0.6;fill:none;fill-opacity:1;stroke:url(#linearGradient11964);stroke-width:2;stroke-linecap:round;stroke-linejoin:miter;stroke-miterlimit:4;stroke-dasharray:none;stroke-dashoffset:1.96;stroke-opacity:1"
       d="m 28.999999,22.999999 9.285714,9.999998 3.714286,2"
       id="path11575" />
    <path
       style="opacity:1;fill:#729fcf;fill-opacity:1;stroke:none;stroke-width:1;stroke-linecap:round;stroke-linejoin:miter;stroke-miterlimit:4;stroke-dasharray:none;stroke-dashoffset:1.96;stroke-opacity:1"
       d="M 11.409517,5.7047569 C 9.4997098,12.104097 10.088821,18.884907 10.767152,25.42912 c 0.09089,1.804634 0.248974,3.651286 0.967095,5.328086 0.01463,1.765221 -2.9389467,1.58091 -2.9449385,-0.115478 C 8.3803028,28.611656 9.1718308,26.59757 9.0996166,24.558789 9.3222794,18.511418 9.5970114,12.321584 11.753974,6.6044881 c 0.373749,-1.0474222 0.897895,-3.4301976 2.436592,-2.313264 0.892135,1.0918237 0.780347,2.6594856 0.653573,3.9876968 -0.468801,3.9856761 -2.232408,7.8850871 -1.503506,11.9579891 0.360259,2.84286 0.393868,5.719714 0.59094,8.569754 0.230254,1.826212 -2.310582,1.268422 -2.034372,-0.236156 0.403185,-1.181107 0.737851,-2.369308 0.98064,-3.599049 1.3539,-5.652931 3.037816,-11.220079 4.333862,-16.8877 -0.34234,-1.2023432 1.17223,-2.8957659 1.987985,-1.3537643 0.884776,1.4837179 0.06639,3.2158523 -0.422139,4.6880073 -0.949598,2.635376 -2.052532,5.403773 -1.591817,8.264355 0.202439,3.253489 0.07942,6.518613 0.309848,9.77084 -0.127419,1.810935 -3.188993,0.674685 -2.192721,-0.787337 0.427776,-1.791811 1.124285,-3.511791 1.423246,-5.335829 1.433848,-5.702395 3.345631,-11.326617 6.217089,-16.4641259 1.556669,1.0004202 1.593845,3.2759719 0.764642,4.7701659 -1.232539,3.393366 -3.595094,6.485343 -3.630345,10.232859 0.102353,1.426201 0.43771,2.982399 -0.304024,4.299095 -1.911904,0.108156 -1.077466,-2.508073 -0.136353,-3.252449 0.897161,-2.139202 1.40832,-4.441898 2.4933,-6.506901 0.558295,-0.94627 1.271883,-2.840426 2.65374,-1.951781 1.37316,0.861787 0.556404,2.36172 0.121074,3.495819 -0.383206,1.187935 -0.462283,2.512474 -1.099355,3.594431 -1.497681,1.086932 -1.85325,-2.235364 -0.08205,-1.853007 1.142584,-0.283886 2.731685,0.03045 3.19421,1.257444 0.575738,1.387257 -2.061792,2.098118 -2.303343,0.760036 0.550114,-1.172907 1.067181,0.712934 0.247276,1.039028 -0.771766,0.511109 -1.993556,0.544083 -2.717904,-0.140434 -0.767164,-0.646747 -0.863559,-1.85317 -0.261051,-2.645932 0.662918,-1.297419 0.387642,-2.873808 1.070383,-4.153016 0.752682,-1.113223 2.445606,0.173757 1.22422,1.083067 -2.109654,2.885912 -1.681986,6.888524 -3.92315,9.704405 -0.894282,1.667908 -3.239889,-0.05046 -2.555673,-1.562461 0.408308,-1.29163 0.490297,-2.695599 0.798441,-4.026143 0.676675,-3.632309 1.647086,-7.232426 3.248329,-10.566572 0.100929,-1.2330381 1.962913,-2.6572939 2.274113,-0.7681525 0.268575,1.3720345 -1.219195,2.0058125 -1.608637,3.1777945 -1.353655,2.179896 -2.788502,4.456748 -3.070094,7.075332 -0.78606,2.259038 -1.45858,4.604826 -1.390132,7.022545 -0.09469,1.374727 -0.254809,2.777183 -0.822862,4.045466 -1.151449,0.912973 -2.667458,-0.638055 -2.387001,-1.886428 0.365108,-2.162048 0.253961,-4.364097 0.393513,-6.547514 0.197476,-5.184207 1.040371,-10.324019 2.179169,-15.3758587 -0.545357,-1.7887731 2.455918,-1.7878704 2.314523,-0.08059 0.462736,1.654996 -0.47841,3.2425997 -0.938089,4.7844997 -0.912865,2.341134 -2.109176,4.624957 -2.403749,7.158137 -1.555477,3.488209 -1.211406,7.431345 -2.189939,11.062813 -0.648601,1.496279 -2.899831,0.387298 -2.676834,-1.033653 -0.0631,-3.74262 -0.178961,-7.490039 0.09376,-11.228265 0.254491,-4.179172 0.741958,-8.339133 1.261545,-12.4917316 -0.219995,-1.5884803 1.925677,-0.8549943 2.074812,0.2323296 0.0561,1.0085348 -0.421179,1.9996549 -0.927796,2.8609847 -1.525278,2.3428233 -2.715613,5.1028243 -2.412184,7.9678843 -0.201082,2.173905 -0.832555,4.355544 -0.399764,6.544175 0.22637,2.608968 0.680481,5.249988 0.236863,7.862112 C 10.222483,32.080672 8.8149843,30.19749 8.7537041,29.0219 7.7722416,24.969833 7.9515951,20.766757 8.1779452,16.638683 8.2852908,13.37282 8.2958881,10.089719 8.5988763,6.8411063 8.8282087,5.4165176 10.296009,4.9017059 11.409517,5.7047569 Z"
       id="path10768" />
    <path
       style="fill:none;fill-opacity:1;stroke:url(#linearGradient10783);stroke-width:1;stroke-linecap:round;stroke-linejoin:miter;stroke-miterlimit:4;stroke-dasharray:none;stroke-dashoffset:1.96;stroke-opacity:1"
       id="path8421"
       sodipodi:nodetypes="cc"
       d="" />
    <g
       id="g11558">
      <rect
         transform="matrix(0.8997453,0.4364154,-0.3756038,0.9267803,0,0)"
         ry="1.0898225"
         y="6.8727927"
         x="40.698799"
         height="2.1796451"
         width="13.099022"
         id="rect7258"
         style="fill:#c17d11;fill-opacity:1;stroke:#8f5902;stroke-width:1.00111;stroke-linecap:round;stroke-linejoin:miter;stroke-miterlimit:4;stroke-dasharray:none;stroke-dashoffset:1.96;stroke-opacity:1" />
      <path
         id="path10786"
         d="m 32.5,24.5 11.999997,6"
         style="opacity:1;fill:none;fill-opacity:1;stroke:url(#linearGradient11556);stroke-width:1;stroke-linecap:round;stroke-linejoin:miter;stroke-miterlimit:4;stroke-dasharray:none;stroke-dashoffset:1.96;stroke-opacity:1" />
      <path
         sodipodi:nodetypes="cssss"
         id="path6864"
         d="m 34.152603,25.518479 c -1.009996,1.33264 -2.634266,1.282064 -4.284701,0.0075 C 28.238543,24.267739 27.5,21.5 27.5,21.5 c 1.713247,1.170566 3.49089,0.122618 5.01895,0.538741 2.014046,0.548469 2.357239,2.525002 1.633653,3.479738 z"
         style="color:#000000;display:inline;overflow:visible;visibility:visible;fill:url(#radialGradient10780);fill-opacity:1;fill-rule:evenodd;stroke:#2e3436;stroke-width:1px;stroke-linecap:butt;stroke-linejoin:miter;stroke-miterlimit:4;stroke-dashoffset:0;stroke-opacity:1;marker:none;marker-start:none;marker-mid:none;marker-end:none;enable-background:accumulate" />
      <path
         style="color:#000000;display:inline;overflow:visible;visibility:visible;fill:#3465a4;fill-opacity:1;fill-rule:evenodd;stroke:#729fcf;stroke-width:1px;stroke-linecap:butt;stroke-linejoin:miter;stroke-miterlimit:4;stroke-dashoffset:0;stroke-opacity:1;marker:none;marker-start:none;marker-mid:none;marker-end:none;enable-background:accumulate"
         d="M 29.867902,25.526003 C 28.238543,24.267739 27.5,21.5 27.5,21.5 c 1.713247,1.170566 2.97194,0.08388 4.5,0.500001 -1.51895,0.96126 -2,2 -2.132098,3.526002 z"
         id="path8812"
         sodipodi:nodetypes="cscc" />
      <path
         sodipodi:nodetypes="csc"
         id="path8030"
         d="m 29.086934,22.970488 c 0,0 2.241276,-0.331457 3.409265,0.126269 1.167989,0.457725 0.757615,2.020304 0.757615,2.020304"
         style="fill:none;fill-opacity:1;stroke:url(#linearGradient10776);stroke-width:1;stroke-linecap:round;stroke-linejoin:miter;stroke-miterlimit:4;stroke-dasharray:none;stroke-dashoffset:1.96;stroke-opacity:1" />
    </g>
  </g>
</svg>
