<?xml version="1.0" encoding="UTF-8" standalone="no"?>
<!-- Created with Inkscape (http://www.inkscape.org/) -->

<svg
   version="1.0"
   x="0.0000000"
   y="0.0000000"
   width="256"
   height="256"
   id="svg11300"
   sodipodi:version="0.32"
   inkscape:version="1.4.2 (ebf0e940d0, 2025-05-08)"
   sodipodi:docname="org.kde.krunner.svg"
   inkscape:output_extension="org.inkscape.output.svg.inkscape"
   viewBox="0 0 256 256"
   xml:space="preserve"
   xmlns:inkscape="http://www.inkscape.org/namespaces/inkscape"
   xmlns:sodipodi="http://sodipodi.sourceforge.net/DTD/sodipodi-0.dtd"
   xmlns:xlink="http://www.w3.org/1999/xlink"
   xmlns="http://www.w3.org/2000/svg"
   xmlns:svg="http://www.w3.org/2000/svg"
   xmlns:rdf="http://www.w3.org/1999/02/22-rdf-syntax-ns#"
   xmlns:cc="http://creativecommons.org/ns#"
   xmlns:dc="http://purl.org/dc/elements/1.1/"><metadata
     id="metadata66"><rdf:RDF><cc:Work
         rdf:about=""><dc:format>image/svg+xml</dc:format><dc:type
           rdf:resource="http://purl.org/dc/dcmitype/StillImage" /><dc:contributor><cc:Agent><dc:title>Corey Woodworth</dc:title></cc:Agent></dc:contributor><cc:license
           rdf:resource="http://creativecommons.org/publicdomain/zero/1.0/" /><dc:source>http://jimmac.musichall.cz</dc:source><dc:creator><cc:Agent><dc:title>Jakub Steiner</dc:title></cc:Agent></dc:creator><dc:subject><rdf:Bag><rdf:li>new</rdf:li><rdf:li>insert</rdf:li><rdf:li>window</rdf:li></rdf:Bag></dc:subject><dc:description>https://commons.wikimedia.org/wiki/File:Window-new.svg</dc:description></cc:Work><cc:License
         rdf:about="http://creativecommons.org/publicdomain/zero/1.0/"><cc:permits
           rdf:resource="http://creativecommons.org/ns#Reproduction" /><cc:permits
           rdf:resource="http://creativecommons.org/ns#Distribution" /><cc:permits
           rdf:resource="http://creativecommons.org/ns#DerivativeWorks" /></cc:License></rdf:RDF></metadata><sodipodi:namedview
     inkscape:window-height="818"
     inkscape:window-width="1073"
     inkscape:pageshadow="2"
     inkscape:pageopacity="0.0"
     borderopacity="1.0"
     bordercolor="#666666"
     pagecolor="#ffffff"
     id="base"
     inkscape:zoom="2"
     inkscape:cx="143.25"
     inkscape:cy="200.75"
     inkscape:window-x="361"
     inkscape:window-y="30"
     inkscape:current-layer="g1"
     showgrid="false"
     inkscape:showpageshadow="2"
     inkscape:pagecheckerboard="0"
     inkscape:deskcolor="#d1d1d1" /><defs
     id="defs3"><linearGradient
       id="linearGradient4"
       inkscape:collect="always"><stop
         style="stop-color:#729fcf;stop-opacity:1;"
         offset="0"
         id="stop17" /><stop
         style="stop-color:#25476c;stop-opacity:1;"
         offset="1"
         id="stop18" /></linearGradient><linearGradient
       id="linearGradient1"
       inkscape:collect="always"><stop
         style="stop-color:#729fcf;stop-opacity:1;"
         offset="0"
         id="stop1" /><stop
         style="stop-color:#dbe7f3;stop-opacity:1;"
         offset="1"
         id="stop2" /></linearGradient><radialGradient
       inkscape:collect="always"
       xlink:href="#linearGradient5060"
       id="radialGradient5031"
       gradientUnits="userSpaceOnUse"
       gradientTransform="matrix(-2.774389,0,0,1.969706,112.7623,-872.8854)"
       cx="605.71429"
       cy="486.64789"
       fx="605.71429"
       fy="486.64789"
       r="117.14286" /><linearGradient
       inkscape:collect="always"
       id="linearGradient5060"><stop
         style="stop-color:black;stop-opacity:1;"
         offset="0"
         id="stop5062" /><stop
         style="stop-color:black;stop-opacity:0;"
         offset="1"
         id="stop5064" /></linearGradient><radialGradient
       inkscape:collect="always"
       xlink:href="#linearGradient5060"
       id="radialGradient5029"
       gradientUnits="userSpaceOnUse"
       gradientTransform="matrix(2.774389,0,0,1.969706,-1891.633,-872.8854)"
       cx="605.71429"
       cy="486.64789"
       fx="605.71429"
       fy="486.64789"
       r="117.14286" /><linearGradient
       id="linearGradient5048"><stop
         style="stop-color:black;stop-opacity:0;"
         offset="0"
         id="stop5050" /><stop
         id="stop5056"
         offset="0.5"
         style="stop-color:black;stop-opacity:1;" /><stop
         style="stop-color:black;stop-opacity:0;"
         offset="1"
         id="stop5052" /></linearGradient><linearGradient
       inkscape:collect="always"
       xlink:href="#linearGradient5048"
       id="linearGradient5027"
       gradientUnits="userSpaceOnUse"
       gradientTransform="matrix(2.774389,0,0,1.969706,-1892.179,-872.8854)"
       x1="302.85715"
       y1="366.64789"
       x2="302.85715"
       y2="609.50507" /><linearGradient
       id="linearGradient12512"><stop
         style="stop-color:#ffffff;stop-opacity:1.0000000"
         offset="0.0000000"
         id="stop12513" /><stop
         style="stop-color:#fff520;stop-opacity:0.89108908"
         offset="0.50000000"
         id="stop12517" /><stop
         style="stop-color:#fff300;stop-opacity:0.0000000"
         offset="1.0000000"
         id="stop12514" /></linearGradient><linearGradient
       id="linearGradient4816"><stop
         style="stop-color:#204a87;stop-opacity:1.0000000"
         offset="0.0000000"
         id="stop4818" /><stop
         style="stop-color:#204a87;stop-opacity:0.0000000"
         offset="1.0000000"
         id="stop4820" /></linearGradient><linearGradient
       id="linearGradient3832"><stop
         style="stop-color:#ffffff;stop-opacity:1.0000000"
         offset="0.0000000"
         id="stop3834" /><stop
         style="stop-color:#e0e0e0;stop-opacity:1.0000000"
         offset="1.0000000"
         id="stop3836" /></linearGradient><linearGradient
       inkscape:collect="always"
       xlink:href="#linearGradient4816"
       id="linearGradient2264"
       gradientUnits="userSpaceOnUse"
       x1="13.267747"
       y1="7.7190704"
       x2="13.267747"
       y2="12.480761"
       gradientTransform="matrix(2.930758,0,-0.46690715,2.798505,-8.3969212,-18.22945)" /><linearGradient
       inkscape:collect="always"
       xlink:href="#linearGradient3832"
       id="linearGradient2267"
       gradientUnits="userSpaceOnUse"
       gradientTransform="matrix(2.797614,0,-0.43073021,2.581671,-7.5837991,-17.13621)"
       x1="17.88068"
       y1="11.072588"
       x2="17.88068"
       y2="21.767578" /><linearGradient
       inkscape:collect="always"
       xlink:href="#linearGradient1"
       id="linearGradient2"
       x1="18.972832"
       y1="15.192119"
       x2="22.708366"
       y2="27.216171"
       gradientUnits="userSpaceOnUse" /><linearGradient
       id="k"
       y2="30.6"
       gradientUnits="userSpaceOnUse"
       x2="31.299999"
       y1="23.35"
       x1="27.01"><stop
         stop-color="#8a8a8a"
         offset="0"
         id="stop1-3" /><stop
         stop-color="#484848"
         offset="1"
         id="stop2-6" /></linearGradient><linearGradient
       id="SVGID_3_"
       y2="55.650002"
       gradientUnits="userSpaceOnUse"
       x2="-144.3"
       gradientTransform="matrix(1.335,0,0,-1.291,229.6,104.1)"
       y1="52.709999"
       x1="-146.89999"><stop
         stop-color="#7d7d7d"
         offset="0"
         id="stop3" /><stop
         stop-color="#b1b1b1"
         offset=".5"
         id="stop4" /><stop
         stop-color="#686868"
         offset="1"
         id="stop5" /></linearGradient><linearGradient
       id="c"
       y2="25.860001"
       gradientUnits="userSpaceOnUse"
       x2="17.83"
       y1="10.73"
       x1="18.809999"><stop
         stop-color="#fff"
         offset="0"
         id="stop6" /><stop
         stop-color="#fff"
         stop-opacity=".22"
         offset=".5"
         id="stop7" /><stop
         stop-color="#fff"
         offset="1"
         id="stop8" /></linearGradient><radialGradient
       id="r"
       gradientUnits="userSpaceOnUse"
       cy="81.5"
       cx="-171.7"
       gradientTransform="matrix(1.399,0,0,-1.399,259.5,136.2)"
       r="8.3100004"><stop
         stop-color="#729fcf"
         stop-opacity=".21"
         offset="0"
         id="stop9" /><stop
         stop-color="#729fcf"
         stop-opacity=".68"
         offset="1"
         id="stop10" /></radialGradient><radialGradient
       id="b"
       gradientUnits="userSpaceOnUse"
       cy="-511.60001"
       cx="-174.5"
       gradientTransform="matrix(1.446,0,0,-0.362,276.2,-145.1)"
       r="16.530001"><stop
         offset="0"
         id="stop11" /><stop
         stop-opacity="0"
         offset="1"
         id="stop12" /></radialGradient><radialGradient
       id="g"
       gradientUnits="userSpaceOnUse"
       cy="166.39999"
       cx="-296.79999"
       gradientTransform="matrix(2.593,0,0,-2.252,784.6,385.3)"
       r="6.6599998"><stop
         stop-color="#fff"
         offset="0"
         id="stop13" /><stop
         stop-color="#fff"
         stop-opacity=".25"
         offset="1"
         id="stop14" /></radialGradient><radialGradient
       id="s"
       gradientUnits="userSpaceOnUse"
       cy="-1674"
       cx="314.89999"
       gradientTransform="matrix(0.498,0,0,-0.145,-135.8,-204.1)"
       r="16.530001"><stop
         stop-color="#fff"
         offset="0"
         id="stop15" /><stop
         stop-color="#fff"
         stop-opacity="0"
         offset="1"
         id="stop16" /></radialGradient><linearGradient
       inkscape:collect="always"
       xlink:href="#linearGradient4"
       id="linearGradient18"
       x1="7.0710678"
       y1="62.578951"
       x2="50.568542"
       y2="62.578953"
       gradientUnits="userSpaceOnUse" /><linearGradient
       inkscape:collect="always"
       xlink:href="#linearGradient4"
       id="linearGradient20"
       gradientUnits="userSpaceOnUse"
       x1="7.0710678"
       y1="62.578951"
       x2="45.568542"
       y2="62.578953"
       gradientTransform="translate(0,34.648233)" /><linearGradient
       inkscape:collect="always"
       xlink:href="#linearGradient4"
       id="linearGradient21"
       gradientUnits="userSpaceOnUse"
       gradientTransform="translate(0,70.003572)"
       x1="7.0710678"
       y1="62.578951"
       x2="43.068542"
       y2="63.078953" /><linearGradient
       inkscape:collect="always"
       xlink:href="#linearGradient4"
       id="linearGradient22"
       gradientUnits="userSpaceOnUse"
       gradientTransform="translate(0,104.29825)"
       x1="7.0710678"
       y1="62.578951"
       x2="34.568542"
       y2="62.578953" /></defs><g
     id="g1"
     transform="matrix(4.1014426,0,0,4.1014426,49.097143,37.520195)"><g
       style="display:inline"
       id="g5022"
       transform="matrix(0.02756614,0,0,0.01485743,40.922405,40.655732)"><path
         id="rect4173"
         style="display:inline;overflow:visible;opacity:0.402062;fill:url(#linearGradient5027);stroke-linecap:round;marker:none;marker-start:none;marker-mid:none;marker-end:none"
         d="M -1559.2523,-150.69685 H -219.61877 V 327.66032 H -1559.2523 Z" /><path
         sodipodi:nodetypes="cccc"
         id="path5058"
         d="m -219.61876,-150.68038 c 0,0 0,478.33079 0,478.33079 142.874166,0.90045 345.40022,-107.16966 345.40014,-239.196175 0,-132.026537 -159.436816,-239.134595 -345.40014,-239.134615 z"
         style="color:#000000;display:inline;overflow:visible;visibility:visible;opacity:0.402062;fill:url(#radialGradient5029);fill-opacity:1;fill-rule:nonzero;stroke:none;stroke-width:1;stroke-linecap:round;stroke-linejoin:miter;stroke-miterlimit:4;stroke-dasharray:none;stroke-dashoffset:0;stroke-opacity:1;marker:none;marker-start:none;marker-mid:none;marker-end:none" /><path
         style="color:#000000;display:inline;overflow:visible;visibility:visible;opacity:0.402062;fill:url(#radialGradient5031);fill-opacity:1;fill-rule:nonzero;stroke:none;stroke-width:1;stroke-linecap:round;stroke-linejoin:miter;stroke-miterlimit:4;stroke-dasharray:none;stroke-dashoffset:0;stroke-opacity:1;marker:none;marker-start:none;marker-mid:none;marker-end:none"
         d="m -1559.2523,-150.68038 c 0,0 0,478.33079 0,478.33079 -142.8742,0.90045 -345.4002,-107.16966 -345.4002,-239.196175 0,-132.026537 159.4368,-239.134595 345.4002,-239.134615 z"
         id="path5018"
         sodipodi:nodetypes="cccc" /></g><path
       id="rect3818"
       style="display:inline;overflow:visible;fill:url(#linearGradient2267);fill-rule:evenodd;stroke:#8d8d8d;marker:none;marker-start:none;marker-mid:none;marker-end:none"
       d="M 5.4668582,3.4963515 H 48.258864 c 0.61281,0 1.023843,0.4933451 0.921601,1.106155 L 43.823829,36.708616 c -0.102242,0.61281 -0.677897,1.106155 -1.290707,1.106155 H -0.258883 c -0.6128097,0 -1.0238441,-0.493345 -0.9216019,-1.106155 L 4.1761509,4.6025065 C 4.2783931,3.9896966 4.8540485,3.4963515 5.4668582,3.4963515 Z"
       sodipodi:nodetypes="sssssssss" /><path
       id="rect3820"
       style="display:inline;overflow:visible;fill:url(#linearGradient2264);fill-rule:evenodd;marker:none;marker-start:none;marker-mid:none;marker-end:none"
       d="M 5.8342703,5 H 47.389728 c 0.123138,0 0.205732,0.099133 0.185187,0.2222708 L 46.481192,11.777729 C 46.460647,11.900867 46.344975,12 46.221837,12 H 4.6663789 C 4.5432408,12 4.4606475,11.900867 4.481192,11.777729 L 5.5749154,5.2222708 C 5.59546,5.0991328 5.7111322,5 5.8342703,5 Z"
       sodipodi:nodetypes="sssssssss" /><path
       id="rect4962"
       style="display:inline;overflow:visible;fill:none;fill-rule:evenodd;stroke:#ffffff;stroke-opacity:0.478788;marker:none;marker-start:none;marker-mid:none;marker-end:none"
       d="M 5.6067755,4.5073576 H 47.773083 c 0.223854,0 0.377567,0.1588453 0.344647,0.3561553 L 42.849416,36.440249 c -0.03292,0.19731 -0.239637,0.356155 -0.463491,0.356155 H 0.21961821 c -0.2238543,0 -0.37756714,-0.158845 -0.34464762,-0.356155 L 5.1432849,4.8635129 c 0.032919,-0.19731 0.2396363,-0.3561553 0.4634906,-0.3561553 z"
       sodipodi:nodetypes="sssssssss" /><path
       id="rect3"
       style="fill:#acacac;stroke-width:0.183702;stroke-linecap:round;stroke-linejoin:round;stroke-miterlimit:2.1"
       d="M 4.4631762,13.061811 H 40.584617 L 5.4225311,14.571628 0.80605846,35.892122 Z"
       sodipodi:nodetypes="ccccc" /><g
       id="g2"
       transform="matrix(1,0,-0.15581989,1,3.4544135,-1.3513574)"><rect
         style="fill:url(#linearGradient2);fill-opacity:1;fill-rule:evenodd;stroke:#fafafa;stroke-width:0.470723;stroke-linecap:square;paint-order:stroke fill markers"
         id="rect1"
         width="32.090691"
         height="8.2018375"
         x="7.3433976"
         y="21.681921"
         ry="0" /><path
         id="rect2"
         style="fill:#acacac;stroke-width:0.170833;stroke-linecap:round;stroke-linejoin:round;stroke-miterlimit:2.1"
         d="M 7.0560878,29.642389 7.2859575,21.507794 H 39.463718 l -0.01476,0.533856 -31.511197,0.72777 -0.4987645,6.866863 z"
         sodipodi:nodetypes="ccccccc" /><text
         xml:space="preserve"
         style="font-weight:bold;font-size:6.60664px;font-family:'Bitstream Vera Sans';-inkscape-font-specification:'Bitstream Vera Sans Bold';text-align:start;writing-mode:lr-tb;direction:ltr;text-anchor:start;fill:#729fcf;fill-opacity:1;fill-rule:evenodd;stroke:#fafafa;stroke-width:0.470723;stroke-linecap:square;paint-order:stroke fill markers"
         x="8.1822186"
         y="27.476292"
         id="text2"><tspan
           sodipodi:role="line"
           id="tspan2"
           style="font-size:6.60664px;fill:#25476c;fill-opacity:1;stroke:none;stroke-width:0.470723"
           x="8.1822186"
           y="27.476292">&gt;_</tspan></text><g
         id="g19"
         transform="matrix(0.15543681,0,0,0.15543681,31.276633,22.435586)"><ellipse
           opacity="0.17"
           rx="23.9"
           ry="5.98"
           cy="39.959999"
           cx="23.92"
           fill="url(#b)"
           id="ellipse16"
           style="fill:url(#b)" /><g
           fill="#dcdcdc"
           id="g17"><path
             d="m 18.63,3.14 c -8.14,0 -14.75,6.61 -14.75,14.75 0,8.14 6.61,14.74 14.75,14.74 3.48,0 6.55,-1.38 9.1,-3.4 -0.2,1 -0.08,2.04 0.76,2.76 l 10.96,9.53 c 1.23,1.07 3.09,0.93 4.16,-0.3 1.07,-1.24 0.93,-3.09 -0.3,-4.16 L 32.34,27.53 c -0.67,-0.58 -1.49,-0.76 -2.3,-0.64 1.98,-2.52 3.36,-5.55 3.36,-9 C 33.4,9.75 26.8,3.14 18.66,3.14 Z m -0.08,1.23 c 7.64,0 13.29,4.79 13.29,13.29 0,8.68 -5.81,13.29 -13.29,13.29 -7.3,0 -13.29,-5.47 -13.29,-13.29 0,-7.98 5.82,-13.29 13.29,-13.29 z"
             stroke="url(#k)"
             stroke-linecap="round"
             stroke-width="2"
             id="path16"
             style="stroke:url(#k)" /><path
             d="m 18.6,3.08 c -8.16,0 -14.79,6.63 -14.79,14.79 0,8.17 6.63,14.8 14.79,14.8 3.49,0 6.58,-1.39 9.11,-3.42 -0.21,1 -0.08,2.04 0.75,2.77 l 11,9.56 c 1.24,1.07 3.1,0.93 4.18,-0.3 1.07,-1.24 0.93,-3.1 -0.31,-4.18 l -11,-9.56 C 31.66,26.96 30.84,26.79 30.02,26.9 32.01,24.38 33.4,21.33 33.4,17.9 33.4,9.74 26.77,3.11 18.6,3.11 M 18.53,6.3 c 6.28,0 11.38,5.09 11.38,11.38 0,6.28 -5.1,11.37 -11.38,11.37 -6.28,0 -11.38,-5.09 -11.38,-11.37 0,-6.29 5.1,-11.38 11.38,-11.38"
             id="path17" /></g><path
           d="M 39.51,41.58 C 39.03,39.3 40.9,36.77 43.09,36.79 L 32.33,27.53 c -2.94,-0.06 -4.27,2.27 -3.78,4.6 l 10.96,9.45"
           fill="url(#SVGID_3_)"
           id="path18"
           style="fill:url(#SVGID_3_)" /><circle
           cy="17.4"
           stroke="url(#c)"
           cx="18.379999"
           r="13.77"
           fill="none"
           id="circle18"
           style="stroke:url(#c)" /><ellipse
           rx="8.2299995"
           ry="2.4000001"
           cy="38.77"
           cx="20.99"
           fill="url(#s)"
           id="ellipse18"
           style="fill:url(#s)" /><circle
           cy="17.549999"
           stroke="#3063a3"
           cx="18.379999"
           r="11.62"
           fill="url(#r)"
           id="circle19"
           style="fill:url(#r)" /><path
           opacity="0.83"
           d="m 18.2,7.4 c -5.21,0 -9.43,4.21 -9.43,9.42 0,1.51 0.42,2.89 1.05,4.15 1.25,0.46 2.58,0.78 3.99,0.78 6.18,0 11.1,-4.86 11.48,-10.94 C 23.56,8.76 21.08,7.4 18.2,7.4"
           fill="url(#g)"
           id="path19"
           style="fill:url(#g)" /><rect
           opacity="0.43"
           rx="2.4679999"
           transform="matrix(0.753,0.658,-0.6489,0.7609,0,0)"
           height="5"
           width="19"
           stroke="#ffffff"
           y="-0.13"
           x="40.5"
           fill="none"
           id="rect19" /></g></g></g><g
     id="g18"
     transform="translate(0,4.2426407)"><rect
       style="fill:url(#linearGradient18);fill-rule:evenodd;stroke:#8d8d8d;stroke-width:6.79;stroke-linecap:square;stroke-dasharray:none;stroke-opacity:1;paint-order:stroke fill markers"
       id="rect4"
       width="47.376156"
       height="18.384781"
       x="7.0710678"
       y="50.204582"
       ry="7.0710692" /><rect
       style="fill:url(#linearGradient20);fill-rule:evenodd;stroke:#8d8d8d;stroke-width:6.79;stroke-linecap:square;stroke-dasharray:none;stroke-opacity:1;paint-order:stroke fill markers"
       id="rect20"
       width="40.305088"
       height="18.384781"
       x="7.0710678"
       y="84.852814"
       ry="7.0710692" /><rect
       style="fill:url(#linearGradient21);fill-rule:evenodd;stroke:#8d8d8d;stroke-width:6.79;stroke-linecap:square;stroke-dasharray:none;stroke-opacity:1;paint-order:stroke fill markers"
       id="rect21"
       width="33.58757"
       height="18.384773"
       x="7.0710678"
       y="120.20815"
       ry="7.0710692" /><rect
       style="fill:url(#linearGradient22);fill-rule:evenodd;stroke:#8d8d8d;stroke-width:6.79;stroke-linecap:square;stroke-dasharray:none;stroke-opacity:1;paint-order:stroke fill markers"
       id="rect22"
       width="25.102291"
       height="18.384781"
       x="7.0710678"
       y="154.50284"
       ry="7.0710692" /></g></svg>
