<?xml version="1.0" encoding="UTF-8" standalone="no"?>
<!-- Created with Inkscape (http://www.inkscape.org/) -->

<svg
   width="256mm"
   height="256mm"
   viewBox="0 0 256 256"
   version="1.1"
   id="svg1"
   inkscape:version="1.3.2 (091e20ef0f, 2023-11-25)"
   xml:space="preserve"
   sodipodi:docname="blender.svg"
   xmlns:inkscape="http://www.inkscape.org/namespaces/inkscape"
   xmlns:sodipodi="http://sodipodi.sourceforge.net/DTD/sodipodi-0.dtd"
   xmlns:xlink="http://www.w3.org/1999/xlink"
   xmlns="http://www.w3.org/2000/svg"
   xmlns:svg="http://www.w3.org/2000/svg"
   xmlns:rdf="http://www.w3.org/1999/02/22-rdf-syntax-ns#"
   xmlns:cc="http://creativecommons.org/ns#"
   xmlns:dc="http://purl.org/dc/elements/1.1/"><defs
     id="defs1"><linearGradient
       id="linearGradient1"
       inkscape:collect="always"><stop
         style="stop-color:#2c1a07;stop-opacity:1;"
         offset="0"
         id="stop1" /><stop
         style="stop-color:#ca771a;stop-opacity:1;"
         offset="1"
         id="stop2" /></linearGradient><linearGradient
       id="linearGradient49"
       inkscape:collect="always"><stop
         style="stop-color:#d87900;stop-opacity:0.90588236;"
         offset="0"
         id="stop50" /><stop
         style="stop-color:#d87900;stop-opacity:0.90588236;"
         offset="0.71310216"
         id="stop52" /><stop
         style="stop-color:#e38b29;stop-opacity:1;"
         offset="0.73186594"
         id="stop53" /><stop
         style="stop-color:#ffbe58;stop-opacity:1;"
         offset="0.78760535"
         id="stop54" /><stop
         style="stop-color:#e38b2f;stop-opacity:1;"
         offset="0.86614466"
         id="stop55" /><stop
         style="stop-color:#ca771a;stop-opacity:0.34034654;"
         offset="0.93307233"
         id="stop56" /><stop
         style="stop-color:#cd7a19;stop-opacity:0.73886138;"
         offset="1"
         id="stop51" /></linearGradient><linearGradient
       id="linearGradient33"
       inkscape:collect="always"><stop
         style="stop-color:#01457b;stop-opacity:1;"
         offset="0"
         id="stop33" /><stop
         style="stop-color:#014878;stop-opacity:1;"
         offset="1"
         id="stop34" /></linearGradient><linearGradient
       id="linearGradient32"
       inkscape:collect="always"><stop
         style="stop-color:#94d1ff;stop-opacity:0.41955444;"
         offset="0"
         id="stop28" /><stop
         style="stop-color:#2cb3f4;stop-opacity:0.61633664;"
         offset="0.08595776"
         id="stop29" /><stop
         style="stop-color:#28b1f9;stop-opacity:0.43316832;"
         offset="0.29600233"
         id="stop30" /><stop
         style="stop-color:#4ebcfe;stop-opacity:0.26608911;"
         offset="0.53528041"
         id="stop31" /><stop
         style="stop-color:#014061;stop-opacity:0.36509901;"
         offset="1"
         id="stop32" /></linearGradient><linearGradient
       id="linearGradient23"
       inkscape:collect="always"><stop
         style="stop-color:#0a79c6;stop-opacity:1;"
         offset="0"
         id="stop23" /><stop
         style="stop-color:#017dcb;stop-opacity:1;"
         offset="0.7409243"
         id="stop25" /><stop
         style="stop-color:#0273b5;stop-opacity:1;"
         offset="0.79589033"
         id="stop26" /><stop
         style="stop-color:#0166a4;stop-opacity:1;"
         offset="0.85587901"
         id="stop27" /><stop
         style="stop-color:#014061;stop-opacity:0.93811882;"
         offset="1"
         id="stop24" /></linearGradient><linearGradient
       id="linearGradient22"
       inkscape:collect="always"><stop
         style="stop-color:#004877;stop-opacity:0.98055553;"
         offset="0.69392127"
         id="stop19" /><stop
         style="stop-color:#004976;stop-opacity:0.98750001;"
         offset="0.76900494"
         id="stop20" /><stop
         style="stop-color:#003965;stop-opacity:0.9517327;"
         offset="0.80387247"
         id="stop21" /><stop
         style="stop-color:#002b49;stop-opacity:1;"
         offset="1"
         id="stop22" /></linearGradient><linearGradient
       id="linearGradient18"
       inkscape:collect="always"><stop
         style="stop-color:#004a7c;stop-opacity:1;"
         offset="0.69760782"
         id="stop15" /><stop
         style="stop-color:#004f7d;stop-opacity:0.99257427;"
         offset="0.75232965"
         id="stop16" /><stop
         style="stop-color:#46b0ff;stop-opacity:1;"
         offset="0.79439533"
         id="stop17" /><stop
         style="stop-color:#b1deff;stop-opacity:1;"
         offset="1"
         id="stop18" /></linearGradient><radialGradient
       inkscape:collect="always"
       xlink:href="#linearGradient18"
       id="radialGradient14"
       gradientUnits="userSpaceOnUse"
       gradientTransform="matrix(1.1373495,-0.6747401,0.63956435,1.0654024,-112.79803,118.01941)"
       cx="188.09082"
       cy="135.97363"
       fx="188.09082"
       fy="135.97363"
       r="34.4209" /><radialGradient
       inkscape:collect="always"
       xlink:href="#linearGradient22"
       id="radialGradient18"
       gradientUnits="userSpaceOnUse"
       gradientTransform="matrix(0.89552148,-0.88847128,0.80073699,0.79854392,-89.144216,194.45107)"
       cx="187.91032"
       cy="136.57253"
       fx="187.91032"
       fy="136.57253"
       r="34.4209" /><radialGradient
       inkscape:collect="always"
       xlink:href="#linearGradient23"
       id="radialGradient24"
       cx="181.21365"
       cy="131.19577"
       fx="181.21365"
       fy="131.19577"
       r="34.866808"
       gradientTransform="matrix(0.86964066,0,0,0.91028081,23.610938,12.046525)"
       gradientUnits="userSpaceOnUse" /><linearGradient
       inkscape:collect="always"
       xlink:href="#linearGradient32"
       id="linearGradient27"
       x1="170.79811"
       y1="87.245995"
       x2="150.54112"
       y2="135.24448"
       gradientUnits="userSpaceOnUse" /><linearGradient
       inkscape:collect="always"
       xlink:href="#linearGradient33"
       id="linearGradient34"
       x1="206.63847"
       y1="153.01106"
       x2="178.46091"
       y2="111.73544"
       gradientUnits="userSpaceOnUse" /><radialGradient
       inkscape:collect="always"
       xlink:href="#linearGradient49"
       id="radialGradient51"
       cx="186.46225"
       cy="150.76369"
       fx="186.46225"
       fy="150.76369"
       r="35.219439"
       gradientTransform="matrix(0.77415533,0.55758693,-0.82342041,1.1432394,169.79185,-128.69282)"
       gradientUnits="userSpaceOnUse" /><linearGradient
       inkscape:collect="always"
       xlink:href="#linearGradient1"
       id="linearGradient2"
       x1="196.99342"
       y1="89.420319"
       x2="200.87305"
       y2="153.43137"
       gradientUnits="userSpaceOnUse" /></defs><sodipodi:namedview
     id="base"
     pagecolor="#ffffff"
     bordercolor="#000000"
     borderopacity="0.3"
     inkscape:pageopacity="0.0"
     inkscape:pageshadow="2"
     inkscape:zoom="0.49497475"
     inkscape:cx="223.24371"
     inkscape:cy="122.22846"
     inkscape:document-units="mm"
     inkscape:showpageshadow="2"
     inkscape:pagecheckerboard="0"
     inkscape:deskcolor="#d1d1d1"
     inkscape:current-layer="svg1" /><metadata
     id="metadata1"><rdf:RDF><cc:Work
         rdf:about=""><dc:format>image/svg+xml</dc:format><dc:type
           rdf:resource="http://purl.org/dc/dcmitype/StillImage" /><cc:license
           rdf:resource="http://creativecommons.org/publicdomain/zero/1.0/" /></cc:Work><cc:License
         rdf:about="http://creativecommons.org/publicdomain/zero/1.0/"><cc:permits
           rdf:resource="http://creativecommons.org/ns#Reproduction" /><cc:permits
           rdf:resource="http://creativecommons.org/ns#Distribution" /><cc:permits
           rdf:resource="http://creativecommons.org/ns#DerivativeWorks" /></cc:License></rdf:RDF></metadata><g
     id="g10"
     inkscape:label="blender"><path
       id="rect56"
       style="fill:url(#linearGradient2);fill-rule:evenodd;stroke-width:5.85401;stroke-opacity:0.667431"
       d="m 176.41367,96.548024 c 21.4484,-6.348353 36.84869,7.130106 42.79881,21.582016 12.74154,30.94723 -16.97161,56.68828 -16.97161,56.68828 0,0 -22.86939,10.81129 -40.52702,2.80633 33.58331,-3.39649 59.0821,-54.72388 14.69982,-81.076626 z"
       sodipodi:nodetypes="csccc"
       inkscape:label="circle-shadow-inner" /><g
       id="g1"
       inkscape:label="inner-circle"
       style="display:inline"
       transform="matrix(0.90780988,-0.0257871,0,0.9890592,14.667218,8.4348517)"><path
         id="rect1"
         style="display:inline;fill:url(#radialGradient24);fill-rule:evenodd;stroke:none;stroke-width:0.500002;stroke-opacity:1"
         d="m 143.53204,100.91964 44.78019,0.41226 c 0,0 -34.36047,10.24553 -34.36047,35.31795 0,25.07242 32.34826,33.90607 32.34826,33.90607 l -45.55326,-7.93444 c 0,0 -28.37238,-3.45054 -28.37238,-30.03487 0,-26.58432 31.15766,-31.66697 31.15766,-31.66697 z"
         sodipodi:nodetypes="cczcczc" /><path
         id="path27"
         style="display:inline;fill:url(#linearGradient27);fill-rule:evenodd;stroke:none;stroke-width:0.500002;stroke-opacity:1"
         d="m 143.53204,100.91964 44.78019,0.41226 c 0,0 -34.36047,10.24553 -34.36047,35.31795 0,25.07242 32.34826,33.90607 32.34826,33.90607 l -45.55326,-7.93444 c 0,0 -28.37238,-3.45054 -28.37238,-30.03487 0,-26.58432 31.15766,-31.66697 31.15766,-31.66697 z"
         sodipodi:nodetypes="cczcczc" /><g
         id="path2"
         inkscape:label="path2"
         style="display:inline"><path
           style="color:#000000;display:inline;fill:url(#linearGradient34);fill-rule:evenodd;-inkscape-stroke:none"
           d="m 219.49089,135.97336 a 31.399948,31.399948 0 0 1 -31.39995,31.39995 31.399948,31.399948 0 0 1 -31.39995,-31.39995 31.399948,31.399948 0 0 1 31.39995,-31.39995 31.399948,31.399948 0 0 1 31.39995,31.39995 z"
           id="path3" /><path
           style="color:#000000;display:inline;fill:#015a94;fill-opacity:0.238532;fill-rule:evenodd;-inkscape-stroke:none"
           d="m 188.0918,101.55273 c -18.97427,0 -34.42188,15.44566 -34.42188,34.41993 0,18.97427 15.44761,34.42187 34.42188,34.42187 18.97427,0 34.41992,-15.4476 34.41992,-34.42187 0,-18.97427 -15.44565,-34.41993 -34.41992,-34.41993 z m 0,6.04102 c 15.70912,0 28.3789,12.66978 28.3789,28.37891 0,15.70912 -12.66978,28.3789 -28.3789,28.3789 -15.70913,0 -28.38086,-12.66978 -28.38086,-28.3789 0,-15.70913 12.67173,-28.37891 28.38086,-28.37891 z"
           id="path4"
           inkscape:label="blue-cicle" /><path
           style="color:#000000;display:inline;fill:url(#radialGradient14);fill-opacity:1;fill-rule:evenodd;-inkscape-stroke:none"
           d="m 188.0918,101.55273 c -18.97427,0 -34.42188,15.44566 -34.42188,34.41993 0,18.97427 15.44761,34.42187 34.42188,34.42187 18.97427,0 34.41992,-15.4476 34.41992,-34.42187 0,-18.97427 -15.44565,-34.41993 -34.41992,-34.41993 z m 0,6.04102 c 15.70912,0 28.3789,12.66978 28.3789,28.37891 0,15.70912 -12.66978,28.3789 -28.3789,28.3789 -15.70913,0 -28.38086,-12.66978 -28.38086,-28.3789 0,-15.70913 12.67173,-28.37891 28.38086,-28.37891 z"
           id="path7"
           inkscape:label="blue-light" /><path
           id="path18"
           style="color:#000000;display:inline;fill:url(#radialGradient18);fill-opacity:1;fill-rule:evenodd;-inkscape-stroke:none"
           inkscape:label="blue-dark"
           d="m 221.20872,126.61966 -5.42603,3.13263 c 0.44546,2.00191 0.68782,4.08137 0.68782,6.22029 0,15.7091 -12.66953,28.37915 -28.37863,28.37915 -7.43762,0 -14.19146,-2.84326 -19.24482,-7.50136 l -5.39761,3.11661 c 6.25763,6.42491 14.99087,10.42779 24.64243,10.42779 18.97425,0 34.4196,-15.44794 34.4196,-34.42219 0,-3.24185 -0.46043,-6.37651 -1.30276,-9.35292 z" /></g></g><g
       id="path42"
       style="display:inline"><path
         style="color:#000000;fill:#d87900;fill-opacity:0.9071101;fill-rule:evenodd;-inkscape-stroke:none"
         d="m 163.47564,58.87193 c -14.8758,-0.392725 -69.078659,1.722652 -79.286779,1.074286 -38.681508,-2.456845 -37.98312,34.883695 -16.569725,39.702891 10.703044,1.511903 36.983534,-0.614851 49.855854,-1.923957 -3.53825,3.49973 -6.54815,6.27344 -11.77015,11.12315 -7.114527,6.60732 -56.813609,55.34769 -81.945154,82.42824 -5.342766,5.75711 -6.911646,47.39531 26.11664,33.12006 3.398927,-1.46906 20.548522,-20.75013 57.186824,-59.97771 -4.91368,26.51361 32.36231,76.94171 87.78451,58.11291 24.75222,-8.40917 54.52063,-46.15138 54.52064,-77.57868 1.7304,-22.96736 -4.28146,-45.944682 -15.64957,-58.175859 -26.14282,-28.127577 -38.10604,-39.768903 -67.90136,-69.649174 -14.94388,-14.9864891 -27.12242,0.785094 -28.01083,7.145485 -1.40094,10.029742 2.42263,11.567562 25.6691,34.598358 z m 30.99404,37.036552 c 20.13292,5.715498 29.88236,24.305268 25.38722,44.501058 -3.05842,13.74091 -10.34289,30.12068 -27.2771,36.39031 -25.38289,9.39761 -46.21029,-3.74068 -46.21029,-32.22471 0,-41.83599 31.98679,-53.241058 48.10017,-48.666658 z"
         id="path44"
         sodipodi:nodetypes="csccssscssssscsssss" /></g><g
       id="g9"><path
         id="rect44"
         style="display:inline;fill:#ffbf67;fill-opacity:0.840596;fill-rule:evenodd;stroke-width:5.85401;stroke-opacity:0.667431"
         d="M 24.241082,193.23222 C 39.892561,174.14361 119.48785,97.744284 119.48785,97.744284 l 9.64995,-1.341669 c 0,0 -17.99522,14.433795 -26.3274,23.331555 -8.396008,8.96593 -39.518154,44.29165 -47.007081,53.68832 -7.354473,9.22796 -27.960541,25.34868 -33.26035,34.58774 -0.420378,-4.11752 0.310314,-13.08544 1.698113,-14.77801 z"
         sodipodi:nodetypes="sccsscs"
         inkscape:label="white-shadow-bottom-arm" /><path
         id="rect49"
         style="fill:url(#radialGradient51);fill-rule:evenodd;stroke-width:5.85401;stroke-opacity:0.667431"
         d="m 151.54714,167.02125 c 0,0 18.72671,23.62982 39.33083,9.87161 50.1361,-33.47792 25.0096,-68.85069 18.89882,-72.57144 9.24663,-9.955397 49.13317,58.23806 -16.63097,85.23364 -25.33411,10.39941 -41.59868,-22.53381 -41.59868,-22.53381 z"
         sodipodi:nodetypes="cscsc"
         inkscape:label="white-inner-shadow" /><path
         id="rect2"
         style="fill:#492a00;fill-opacity:0.840596;fill-rule:evenodd;stroke:none;stroke-width:0.500002"
         d="m 106.95506,164.56646 c 0.50812,53.85643 59.90041,67.16235 78.90701,60.05295 -84.39895,21.32091 -94.714006,-44.17578 -94.714006,-44.17578 7.226763,-7.13833 7.819176,-8.00075 15.806996,-15.87717 z"
         sodipodi:nodetypes="cccc" /><path
         id="rect3"
         style="fill:#492a00;fill-opacity:0.840596;fill-rule:evenodd;stroke-width:0.500002"
         d="m 98.245868,99.171815 c 5.061682,-0.509995 13.493162,-1.03758 19.651022,-1.541549 -7.08705,6.425594 -89.020554,87.065724 -94.153061,94.130284 -5.132507,7.06455 -6.073651,46.29389 26.296146,32.42034 -3.036239,1.92429 -7.676041,3.54386 -15.603537,4.95537 -23.11292,4.1153 -27.7167414,-23.85004 -27.8731397,-28.45507 -0.1815704,-5.34621 2.263003,-12.71929 5.7907807,-16.56205 9.638393,-11.90625 83.056968,-81.3107 85.891789,-84.947325 z"
         sodipodi:nodetypes="cczcsscc" /><path
         id="rect4"
         style="fill:#492a00;fill-opacity:0.840596;fill-rule:evenodd;stroke-width:0.500002"
         d="M 46.207587,70.870537 C 51.887495,64.56747 59.988976,60.414203 77.957588,59.767486 43.089204,63.641663 50.833866,95.649102 66.418917,99.171996 71.27496,100.22658 79.945359,99.933191 92.756524,99.690654 68.986343,101.70231 54.317717,103.57767 51.2387,101.72816 48.924464,100.33804 31.634267,87.04274 46.207587,70.870537 Z"
         sodipodi:nodetypes="scccss" /><path
         id="path5"
         style="display:inline;fill:#ffbf67;fill-opacity:0.840596;fill-rule:evenodd;stroke-width:5.40043;stroke-opacity:0.667431"
         d="m 70.486386,62.522093 c 29.832454,-0.521535 93.922434,-2.678938 93.922434,-2.678938 0,0 6.38949,6.221226 6.00914,9.158525 C 141.60604,69.855176 73.026362,66.194495 54.93365,80.739236 56.889633,69.455779 63.649327,66.235458 70.486386,62.522093 Z"
         sodipodi:nodetypes="ccccc"
         inkscape:label="white-shadow-bottom-arm" /><path
         id="rect8"
         style="fill:#492a00;fill-opacity:0.840596;fill-rule:evenodd;stroke-width:0.500002"
         d="m 148.87616,11.558871 c -8.31013,4.145221 -16.7228,14.690566 -6.52463,26.309836 4.81085,4.810852 15.66838,15.60797 21.24862,21.08028 -4.67722,0.534539 -12.0499,-0.213307 -21.2707,0.05396 -7.48355,-7.216277 -13.74621,-12.310148 -19.52738,-20.519932 -4.27434,-6.069957 1.38306,-16.524997 3.79189,-17.915769 2.40882,-1.390772 11.11031,-6.986046 22.2822,-9.008377 z"
         sodipodi:nodetypes="ccccszc" /><path
         id="rect9"
         style="fill:#ffc678;fill-opacity:0.840596;fill-rule:evenodd;stroke-width:0.500002"
         d="m 141.28481,19.353101 c 9.42125,-13.7643803 19.03014,-6.147198 25.31098,0.133635 1.46998,1.469983 10.95804,11.51518 27.3283,28.152708 -10.28987,-9.554886 -52.43883,-37.8854558 -52.17156,-12.695302 -5.47902,-5.545843 -1.9377,-14.121059 -0.46772,-15.591041 z"
         sodipodi:nodetypes="ccccc" /></g></g></svg>
