<?xml version="1.0" encoding="UTF-8" standalone="no"?>
<!-- Created with Inkscape (http://www.inkscape.org/) -->

<svg
   width="256mm"
   height="256mm"
   viewBox="0 0 256 256"
   version="1.1"
   id="svg1"
   inkscape:version="1.4.2 (ebf0e940d0, 2025-05-08)"
   sodipodi:docname="quant.svg"
   xml:space="preserve"
   xmlns:inkscape="http://www.inkscape.org/namespaces/inkscape"
   xmlns:sodipodi="http://sodipodi.sourceforge.net/DTD/sodipodi-0.dtd"
   xmlns="http://www.w3.org/2000/svg"
   xmlns:svg="http://www.w3.org/2000/svg"
   xmlns:rdf="http://www.w3.org/1999/02/22-rdf-syntax-ns#"
   xmlns:cc="http://creativecommons.org/ns#"><sodipodi:namedview
     id="namedview1"
     pagecolor="#ffffff"
     bordercolor="#000000"
     borderopacity="0.25"
     inkscape:showpageshadow="2"
     inkscape:pageopacity="0.0"
     inkscape:pagecheckerboard="0"
     inkscape:deskcolor="#d1d1d1"
     inkscape:document-units="mm"
     inkscape:zoom="0.45449318"
     inkscape:cx="289.33327"
     inkscape:cy="421.34846"
     inkscape:current-layer="g11"
     showguides="true" /><defs
     id="defs1" /><metadata
     id="metadata1"><rdf:RDF><cc:License
         rdf:about="http://creativecommons.org/publicdomain/zero/1.0/"><cc:permits
           rdf:resource="http://creativecommons.org/ns#Reproduction" /><cc:permits
           rdf:resource="http://creativecommons.org/ns#Distribution" /><cc:permits
           rdf:resource="http://creativecommons.org/ns#DerivativeWorks" /></cc:License><cc:Work
         rdf:about=""><cc:license
           rdf:resource="http://creativecommons.org/publicdomain/zero/1.0/" /></cc:Work></rdf:RDF></metadata><g
     id="g11"
     transform="matrix(4.9244986,0,0,4.9244986,-707.14801,-398.3509)"><path
       style="fill:#202226"
       d="m 143.80104,125.90117 v -19.0095 -19.446877 c -0.003,-3.084474 3.04695,-6.335592 6.33874,-6.35 h 19.4525 19.45251 c 3.99235,-0.01229 6.33146,1.866641 6.35,6.338873 v 19.452434 19.45244 c 0.0308,3.65539 -3.50584,6.4443 -6.36393,6.42718 -5.04864,0 -38.23143,-10e-4 -38.43907,0.006 -3.79604,0.0522 -6.76568,-3.87198 -6.79075,-6.87093 z"
       id="path3"
       sodipodi:nodetypes="scccccccccccs" /><g
       id="g12"
       style="display:inline"
       transform="matrix(0.21083484,0,0,0.21083484,142.98603,80.774504)"><path
         d="m 184.1715,27.375291 -6.4408,24.970773 -24.70335,6.372291 v 2.544973 l 24.70335,6.372293 6.4408,24.971164 h 2.40505 l 6.44081,-24.971164 25.24068,-6.510944 v -2.267688 l -25.24068,-6.510925 -6.44081,-24.970773 z"
         fill="#282b2f"
         id="path1"
         style="fill:#ffffff;fill-opacity:1;stroke-width:4.83907" /><path
         fill-rule="evenodd"
         clip-rule="evenodd"
         d="m 119.75089,70.206068 c 31.03642,0 56.19627,18.73086 56.19627,55.110412 0,34.42907 -22.22935,52.82676 -50.67433,54.91141 13.53052,8.26711 33.95927,8.27678 46.66749,-2.51437 l 3.96716,2.15194 -2.32478,21.75408 -1.64238,2.06726 c -22.55818,6.63773 -44.89597,-0.28989 -59.40937,-23.60262 -27.626726,-2.67455 -48.976701,-20.9745 -48.976701,-54.7677 0,-36.389519 25.160217,-55.110412 56.196641,-55.110412 z m 0.003,100.434662 c 19.94005,0 29.51951,-20.29219 29.51951,-45.32425 0,-25.03109 -8.30048,-45.323318 -29.51951,-45.323318 -20.621513,0 -29.519321,20.292228 -29.519321,45.323318 0,25.03206 8.549398,45.32425 29.519321,45.32425 z"
         fill="#282b2f"
         id="path6"
         style="fill:#ffffff;fill-opacity:1;stroke-width:4.83907" /></g></g></svg>
