<?xml version="1.0" encoding="UTF-8" standalone="no"?>
<!-- Created with Inkscape (http://www.inkscape.org/) -->

<svg
   width="256mm"
   height="256mm"
   viewBox="0 0 256 256"
   version="1.1"
   id="svg1"
   inkscape:version="1.3.2 (091e20ef0f, 2023-11-25)"
   xml:space="preserve"
   sodipodi:docname="regedit-00.svg"
   xmlns:inkscape="http://www.inkscape.org/namespaces/inkscape"
   xmlns:sodipodi="http://sodipodi.sourceforge.net/DTD/sodipodi-0.dtd"
   xmlns="http://www.w3.org/2000/svg"
   xmlns:svg="http://www.w3.org/2000/svg"
   xmlns:rdf="http://www.w3.org/1999/02/22-rdf-syntax-ns#"
   xmlns:cc="http://creativecommons.org/ns#"
   xmlns:dc="http://purl.org/dc/elements/1.1/"><defs
     id="defs1" /><sodipodi:namedview
     id="base"
     pagecolor="#ffffff"
     bordercolor="#000000"
     borderopacity="0.3"
     inkscape:pageopacity="0.0"
     inkscape:pageshadow="2"
     inkscape:zoom="0.98994949"
     inkscape:cx="505.07627"
     inkscape:cy="476.792"
     inkscape:document-units="mm"
     inkscape:showpageshadow="2"
     inkscape:pagecheckerboard="0"
     inkscape:deskcolor="#d1d1d1"
     inkscape:current-layer="svg1" /><metadata
     id="metadata1"><rdf:RDF><cc:Work
         rdf:about=""><dc:format>image/svg+xml</dc:format><dc:type
           rdf:resource="http://purl.org/dc/dcmitype/StillImage" /><cc:license
           rdf:resource="http://creativecommons.org/publicdomain/zero/1.0/" /></cc:Work><cc:License
         rdf:about="http://creativecommons.org/publicdomain/zero/1.0/"><cc:permits
           rdf:resource="http://creativecommons.org/ns#Reproduction" /><cc:permits
           rdf:resource="http://creativecommons.org/ns#Distribution" /><cc:permits
           rdf:resource="http://creativecommons.org/ns#DerivativeWorks" /></cc:License></rdf:RDF></metadata><g
     id="g1"
     transform="matrix(1.0888574,0,0,1.0888574,-12.285881,-29.328726)"><path
       id="path1-1"
       style="fill:#7d7d7d;fill-opacity:0.516456"
       d="m 226.35776,127.86351 -9.60613,0.17364 -9.60562,0.17415 -0.18603,4.23436 -0.18604,4.23489 -8.94726,0.17466 -8.94777,0.17467 v 4.40903 4.40955 l 4.56665,0.185 4.56664,0.18501 v 4.38164 4.38164 h 9.13381 9.1333 v 4.09433 4.09432 h -18.23817 -18.23816 l -0.18655,4.22507 -0.18604,4.22558 -3.26543,-0.1757 c -1.79588,-0.0965 -3.87468,0.15103 -4.61988,0.54984 -1.19342,0.63871 -1.32985,1.16685 -1.14411,4.43073 l 0.21084,3.7052 -4.40903,0.18087 -4.40955,0.18087 -0.18397,4.88135 -0.18397,4.88188 h 18.60868 18.60817 v -4.38165 -4.38164 l 4.56664,-0.185 4.56717,-0.18552 0.18603,-4.25142 0.18656,-4.25194 h 4.38009 4.38061 v -4.40903 -4.40955 h 4.72426 4.72426 v -4.40904 -4.40955 h 4.40903 4.40955 v -4.40903 -4.40955 h 4.40904 4.40955 v -4.72426 -4.72426 h -8.81859 -8.81858 v -4.42557 z m -87.26289,25.10183 -0.18604,4.22507 -0.18655,4.22506 -3.26492,-0.17518 c -1.79587,-0.0964 -3.87519,0.15102 -4.62038,0.54983 -1.19343,0.63871 -1.32986,1.16634 -1.14412,4.43023 l 0.21084,3.70571 -4.40903,0.18035 -4.40955,0.18087 -0.18397,4.88187 -0.18397,4.88136 h 18.60868 18.60817 v -4.38165 -4.38164 l 4.56716,-0.185 4.56665,-0.185 0.18603,-4.25194 0.18656,-4.25194 h 4.38009 4.38061 v -4.40903 -4.40955 h 4.72426 4.72426 l -10.07845,-0.62942 h -18.23817 z m 17.74259,50.02847 c -0.27605,0.90037 -4.59983,2.18436 -4.83692,2.18436 -0.27096,0 1.02179,0.24904 -2.68046,4.14652 -7.56746,7.95401 -15.19671,15.84886 -22.83323,23.73654 l -57.750994,0.31109 c -28.237386,0.15207 -50.92564,-0.94227 -54.216846,-0.67696 l 0.787549,0.56895 -2.677872,1.97663 c 4.719879,2.72503 43.074899,7.42509 64.815017,7.42509 h 7.432621 l 59.021655,4.63608 c 17.10685,-14.6981 37.13113,-28.68841 49.94048,-43.03367 -0.53454,-4.7734 -14.00055,-3.77196 -27.50802,-5.49495 0.71331,0.46916 -6.5219,-5.47015 -7.07328,-3.67176 z"
       transform="translate(0,10.690781)"
       sodipodi:nodetypes="ccccccccccccccccccccccsscccccccccccccccccccccccccccccccccccccscccccccccccccccccccccccssccccccsccccss" /><g
       id="g5"
       transform="matrix(6.8306036,0,0,6.8306036,15.982664,35.272672)"><path
         stroke="#808080"
         d="m 18,0 h 1 m -2,1 h 1 m -2,1 h 1 m -2,1 h 1 m 10,0 h 3 M 15,4 h 1 m 9,0 h 1 M 15,5 h 1 m 8,0 h 1 m -9,1 h 1 m 6,0 h 1 m -7,1 h 1 m 6,0 h 1 m 0,1 h 1 m 0,1 h 1 M 6,10 H 22 M 5,11 h 1 m -2,1 h 1 m 17,0 h 3 M 3,13 h 1 m -2,1 h 1 m -2,1 h 1 m -2,1 h 1 m -1,1 h 1 m -1,1 h 1 m -1,1 h 1 m -1,1 h 1 m -1,1 h 1 m -1,1 h 1 m -1,1 h 1 m -1,1 h 1 m -1,1 h 1 m -1,1 h 1 m -1,1 h 1 m -1,1 h 1 m -1,1 h 1 m -1,1 h 1"
         id="path1" /><path
         stroke="#ffffff"
         d="m 18,1 h 1 m -2,1 h 1 m 1,0 h 1 m -4,1 h 1 m 1,0 h 1 m 1,0 h 1 m -4,1 h 1 m 1,0 h 1 m 6,0 h 1 m -9,1 h 1 m 6,0 h 1 m 1,0 h 1 m -4,1 h 1 m 1,0 h 1 m 1,0 h 1 m -4,1 h 1 m 1,0 h 1 m -2,1 h 1 M 7,11 h 1 m 1,0 h 1 m 1,0 h 1 m 1,0 h 1 m 3,0 h 1 m 1,0 h 1 m -5,1 h 4 M 5,13 h 1 m 1,0 h 1 m 1,0 h 1 m 1,0 h 1 m 5,0 h 1 m 4,0 h 1 M 8,14 h 4 m 6,0 h 1 m 2,0 h 1 m 1,0 h 1 M 3,15 h 1 m 1,0 h 1 m 3,0 h 1 m 1,0 h 1 m 8,0 h 1 m 1,0 h 1 m 1,0 h 1 M 1,16 h 4 m 5,0 h 1 m 10,0 h 1 m 1,0 h 1 M 1,17 h 1 m 1,0 h 1 m 7,0 h 1 m 10,0 h 1 M 2,18 h 1 m 1,0 h 1 m 9,0 h 1 m 1,0 h 1 M 1,19 h 1 m 1,0 h 1 m 9,0 h 4 M 2,20 h 1 m 1,0 h 1 m 5,0 h 1 m 3,0 h 1 m 1,0 h 1 M 6,21 h 4 m 5,0 h 1 M 2,22 h 1 m 1,0 h 1 m 1,0 h 1 m 1,0 h 1 m 7,0 h 1 M 1,23 h 1 m 1,0 h 1 m 3,0 h 1 m 1,0 h 1 m -8,1 h 1 m 1,0 h 1 m 1,0 h 1 m 1,0 h 1 m -8,1 h 1 m 1,0 h 1 m 3,0 h 1 m 1,0 h 1 m 3,0 h 1 m 1,0 h 1 m -5,1 h 4 M 1,27 h 1 m 1,0 h 1 m 3,0 h 1 m 1,0 h 1 m 1,0 h 1 m 1,0 h 1 M 2,28 h 1 m 1,0 h 1 m 1,0 h 1 m 1,0 h 1 m 3,0 h 1 m 1,0 h 1 M 1,29 h 1 m 1,0 h 1 m 3,0 h 1 m 1,0 h 1 m 1,0 h 1 m 1,0 h 1 M 2,30 h 1 m 1,0 h 1 m 1,0 h 1 m 1,0 h 1 m 3,0 h 1 m 1,0 h 1"
         id="path2" /><path
         stroke="#000000"
         d="m 19,1 h 1 m 0,1 h 1 m 0,1 h 1 m -1,1 h 1 m 7,0 h 1 m -9,1 h 1 m 8,0 h 1 M 20,6 h 1 m 10,0 h 1 M 19,7 h 1 m 10,0 h 1 M 18,8 h 1 m 10,0 h 1 m -3,1 h 2 m -8,2 h 1 m -8,1 h 1 m 6,0 h 1 m -8,1 h 1 m 6,0 h 1 m 3,0 h 1 M 7,14 h 1 m 6,0 h 1 m 11,0 h 1 M 7,15 h 1 m 6,0 h 1 m 12,0 h 1 M 7,16 h 1 m 6,0 h 1 m 5,0 h 1 m 5,0 h 1 M 7,17 h 1 m 6,0 h 6 m 1,0 h 1 m 3,0 h 1 M 7,18 h 1 m 5,0 h 1 m 5,0 h 1 m 1,0 h 4 M 7,19 h 6 m 6,0 h 1 m 1,0 h 1 M 6,20 h 1 m 5,0 h 1 m 6,0 h 1 m 1,0 h 1 M 5,21 h 1 m 6,0 h 1 m 6,0 h 3 m -10,1 h 1 m 6,0 h 1 m 1,0 h 1 m -10,1 h 1 m 5,0 h 2 m 1,0 h 1 m -10,1 h 6 m 1,0 h 1 m 1,0 h 1 m -11,1 h 1 m 5,0 h 1 m 1,0 h 1 m 1,0 h 1 m -12,1 h 1 m 6,0 h 1 m 1,0 h 2 m -4,1 h 1 m 1,0 h 1 m -3,1 h 2 m -2,1 h 1 m -2,1 h 1 M 0,31 h 16"
         id="path3" /><path
         stroke="#00ffff"
         d="m 18,2 h 1 m -2,1 h 1 m 1,0 h 1 m -2,1 h 1 m 7,1 h 1 m -2,1 h 1 m 1,0 h 1 m -2,1 h 1 M 6,11 h 1 m 1,0 h 1 m 3,0 h 1 m 1,0 h 1 m 1,0 h 1 m 1,0 h 1 M 4,13 h 1 m 1,0 h 1 m 3,0 h 1 m 1,0 h 1 m 3,0 h 1 m 1,0 h 1 m -2,1 h 1 m 4,0 h 1 M 2,15 h 1 m 1,0 h 1 m 5,0 h 1 m 7,0 h 1 m 2,0 h 1 m 1,0 h 1 m -13,1 h 1 m 10,0 h 1 M 2,17 h 1 m 1,0 h 1 m -4,1 h 1 m 1,0 h 1 m 11,0 h 1 m 1,0 h 1 M 2,19 h 1 m 1,0 h 1 m -4,1 h 1 m 1,0 h 1 m 5,0 h 1 m 5,0 h 1 m 0,1 h 1 M 1,22 h 1 m 1,0 h 1 m 3,0 h 1 m 1,0 h 1 m -8,1 h 1 m 1,0 h 1 m 1,0 h 1 m 1,0 h 1 m -8,1 h 1 m 1,0 h 1 m 3,0 h 1 m 1,0 h 1 m -8,1 h 1 m 1,0 h 1 m 1,0 h 1 m 1,0 h 1 m 3,0 h 1 m 1,0 h 1 M 2,27 h 1 m 1,0 h 1 m 1,0 h 1 m 1,0 h 1 m 3,0 h 1 m 1,0 h 1 M 1,28 h 1 m 1,0 h 1 m 3,0 h 1 m 1,0 h 1 m 1,0 h 1 m 1,0 h 1 M 2,29 h 1 m 1,0 h 1 m 1,0 h 1 m 1,0 h 1 m 3,0 h 1 m 1,0 h 1 M 1,30 h 1 m 1,0 h 1 m 3,0 h 1 m 1,0 h 1 m 1,0 h 1 m 1,0 h 1"
         id="path4" /><path
         stroke="#008080"
         d="m 16,4 h 1 m 3,0 h 1 m 6,0 h 2 M 16,5 h 2 m 1,0 h 2 m 7,0 h 2 M 17,6 h 3 m 9,0 h 2 M 18,7 h 1 m 9,0 h 2 m -3,1 h 2 m -19,3 h 1 m 4,0 h 1 m 4,0 h 1 M 5,12 h 9 m 5,0 h 2 M 8,13 h 1 m 4,0 h 1 m 1,0 h 1 m 3,0 h 2 m 2,0 h 2 M 3,14 h 4 m 5,0 h 2 m 1,0 h 2 m 2,0 h 2 m 3,0 h 2 M 6,15 h 1 m 1,0 h 1 m 3,0 h 2 m 1,0 h 3 m 1,0 h 1 m 5,0 h 2 M 5,16 h 2 m 1,0 h 2 m 2,0 h 2 m 1,0 h 5 m 4,0 h 2 M 5,17 h 2 m 1,0 h 3 m 1,0 h 2 m 6,0 h 1 m 2,0 h 2 M 5,18 h 2 m 1,0 h 5 m 5,0 h 1 m 1,0 h 1 M 5,19 h 2 m 10,0 h 2 m 1,0 h 1 M 5,20 h 1 m 1,0 h 2 m 2,0 h 1 m 1,0 h 1 m 3,0 h 2 m 1,0 h 1 M 1,21 h 4 m 5,0 h 2 m 1,0 h 2 m 2,0 h 2 M 5,22 h 1 m 4,0 h 2 m 1,0 h 3 m 1,0 h 2 m 1,0 h 1 M 5,23 h 1 m 4,0 h 2 m 1,0 h 5 m 2,0 h 1 M 5,24 h 1 m 4,0 h 2 m 6,0 h 1 m 1,0 h 1 M 5,25 h 1 m 4,0 h 1 m 5,0 h 1 m 1,0 h 1 m 1,0 h 1 M 1,26 h 9 m 5,0 h 2 m 1,0 h 1 M 5,27 h 1 m 4,0 h 1 m 4,0 h 2 m 1,0 h 1 M 5,28 h 1 m 4,0 h 1 m 4,0 h 2 M 5,29 h 1 m 4,0 h 1 m 4,0 h 2 M 5,30 h 1 m 4,0 h 1 m 4,0 h 1"
         id="path5" /></g></g></svg>
