<?xml version="1.0" encoding="UTF-8" standalone="no"?>
<!-- Created with Inkscape (http://www.inkscape.org/) -->

<svg
   width="256"
   height="256"
   id="svg2327"
   sodipodi:version="0.32"
   inkscape:version="1.4.2 (ebf0e940d0, 2025-05-08)"
   sodipodi:docname="spectacle.svg"
   inkscape:output_extension="org.inkscape.output.svg.inkscape"
   version="1.1"
   viewBox="0 0 256 256"
   xml:space="preserve"
   xmlns:inkscape="http://www.inkscape.org/namespaces/inkscape"
   xmlns:sodipodi="http://sodipodi.sourceforge.net/DTD/sodipodi-0.dtd"
   xmlns:xlink="http://www.w3.org/1999/xlink"
   xmlns="http://www.w3.org/2000/svg"
   xmlns:svg="http://www.w3.org/2000/svg"
   xmlns:rdf="http://www.w3.org/1999/02/22-rdf-syntax-ns#"
   xmlns:cc="http://creativecommons.org/ns#"
   xmlns:dc="http://purl.org/dc/elements/1.1/"><defs
     id="defs3"><inkscape:path-effect
       effect="perspective-envelope"
       up_left_point="385.42064,517.798"
       up_right_point="415.66561,517.59037"
       down_left_point="384.17513,545.93642"
       down_right_point="417.42064,545.798"
       id="path-effect1"
       is_visible="true"
       lpeversion="1"
       deform_type="perspective"
       horizontal_mirror="false"
       vertical_mirror="false"
       overflow_perspective="false" /><linearGradient
       id="linearGradient16"
       inkscape:collect="always"><stop
         style="stop-color:#fafdff;stop-opacity:1;"
         offset="0"
         id="stop16" /><stop
         style="stop-color:#b8b8b8;stop-opacity:1;"
         offset="1"
         id="stop17" /></linearGradient><linearGradient
       id="linearGradient14"
       inkscape:collect="always"><stop
         style="stop-color:#e9eae7;stop-opacity:1;"
         offset="0"
         id="stop14" /><stop
         style="stop-color:#cacdc6;stop-opacity:1;"
         offset="1"
         id="stop15" /></linearGradient><linearGradient
       id="linearGradient9"
       inkscape:collect="always"><stop
         style="stop-color:#898989;stop-opacity:1;"
         offset="0"
         id="stop9" /><stop
         style="stop-color:#494949;stop-opacity:1;"
         offset="1"
         id="stop10" /></linearGradient><inkscape:perspective
       sodipodi:type="inkscape:persp3d"
       inkscape:vp_x="0 : 232 : 1"
       inkscape:vp_y="0 : 1000 : 0"
       inkscape:vp_z="48 : 232 : 1"
       inkscape:persp3d-origin="24 : 224 : 1"
       id="perspective98" /><linearGradient
       id="linearGradient2329"><stop
         id="stop2331"
         offset="0.0000000"
         style="stop-color:#ffffff;stop-opacity:1.0000000;" /><stop
         id="stop2333"
         offset="1.0000000"
         style="stop-color:#ffffff;stop-opacity:0.0000000;" /></linearGradient><linearGradient
       id="linearGradient2321"
       inkscape:collect="always"><stop
         id="stop2323"
         offset="0"
         style="stop-color:#7b7f7a;stop-opacity:1;" /><stop
         id="stop2325"
         offset="1"
         style="stop-color:#7b7f7a;stop-opacity:0;" /></linearGradient><linearGradient
       id="linearGradient2711"><stop
         id="stop2713"
         offset="0.0000000"
         style="stop-color:#909090;stop-opacity:1.0000000;" /><stop
         id="stop2715"
         offset="1.0000000"
         style="stop-color:#bebebe;stop-opacity:0.0000000;" /></linearGradient><linearGradient
       id="linearGradient2701"><stop
         id="stop2703"
         offset="0.0000000"
         style="stop-color:#585956;stop-opacity:1.0000000;" /><stop
         id="stop2705"
         offset="1.0000000"
         style="stop-color:#bbbeb8;stop-opacity:1.0000000;" /></linearGradient><linearGradient
       id="linearGradient2683"
       inkscape:collect="always"><stop
         id="stop2685"
         offset="0"
         style="stop-color:#000000;stop-opacity:1;" /><stop
         id="stop2687"
         offset="1"
         style="stop-color:#000000;stop-opacity:0;" /></linearGradient><linearGradient
       id="linearGradient2675"><stop
         id="stop2677"
         offset="0.0000000"
         style="stop-color:#5b5b97;stop-opacity:1.0000000;" /><stop
         id="stop2679"
         offset="1.0000000"
         style="stop-color:#1b1b43;stop-opacity:1.0000000;" /></linearGradient><linearGradient
       id="linearGradient2667"><stop
         id="stop2669"
         offset="0.0000000"
         style="stop-color:#ffffff;stop-opacity:1.0000000;" /><stop
         id="stop2671"
         offset="1.0000000"
         style="stop-color:#fcfcff;stop-opacity:0.0000000;" /></linearGradient><linearGradient
       inkscape:collect="always"
       id="linearGradient2454"><stop
         style="stop-color:#000000;stop-opacity:1;"
         offset="0"
         id="stop2456" /><stop
         style="stop-color:#000000;stop-opacity:0;"
         offset="1"
         id="stop2458" /></linearGradient><linearGradient
       id="linearGradient2253"><stop
         style="stop-color:#8f8f8f;stop-opacity:1.0000000;"
         offset="0.0000000"
         id="stop2255" /><stop
         style="stop-color:#494949;stop-opacity:1.0000000;"
         offset="1.0000000"
         id="stop2257" /></linearGradient><linearGradient
       id="linearGradient2245"><stop
         style="stop-color:#dde1d9;stop-opacity:1.0000000;"
         offset="0.0000000"
         id="stop2247" /><stop
         style="stop-color:#cacdc6;stop-opacity:1.0000000;"
         offset="1.0000000"
         id="stop2249" /></linearGradient><radialGradient
       inkscape:collect="always"
       xlink:href="#linearGradient2454"
       id="radialGradient2460"
       gradientTransform="scale(1.925808,0.519262)"
       cx="12.57571"
       cy="67.501709"
       fx="12.57571"
       fy="67.501709"
       r="8.7662792"
       gradientUnits="userSpaceOnUse" /><linearGradient
       gradientUnits="userSpaceOnUse"
       y2="8.8666229"
       x2="16.315819"
       y1="32.622238"
       x1="19.150396"
       gradientTransform="matrix(1.174139,0,0,0.945431,5.221825,1.543476)"
       id="linearGradient2681"
       xlink:href="#linearGradient2675"
       inkscape:collect="always" /><linearGradient
       gradientUnits="userSpaceOnUse"
       y2="162.45061"
       x2="3.7069974"
       y1="171.29134"
       x1="3.7069976"
       gradientTransform="matrix(5.705159,0,0,0.17528,5.5,2.195627)"
       id="linearGradient2689"
       xlink:href="#linearGradient2683"
       inkscape:collect="always" /><linearGradient
       gradientUnits="userSpaceOnUse"
       y2="64.892525"
       x2="12.127711"
       y1="53.535141"
       x1="12.206709"
       gradientTransform="matrix(1.816345,0,0,1.278927,2.5,-40.24508)"
       id="linearGradient2707"
       xlink:href="#linearGradient2701"
       inkscape:collect="always" /><linearGradient
       gradientUnits="userSpaceOnUse"
       y2="3.8451097"
       x2="35.520542"
       y1="3.9384086"
       x1="34.300991"
       id="linearGradient2717"
       xlink:href="#linearGradient2711"
       inkscape:collect="always" /><linearGradient
       y2="3.8451097"
       x2="35.520542"
       y1="3.9384086"
       x1="34.300991"
       gradientUnits="userSpaceOnUse"
       id="linearGradient2721"
       xlink:href="#linearGradient2711"
       inkscape:collect="always" /><linearGradient
       y2="3.8451097"
       x2="35.520542"
       y1="3.9384086"
       x1="34.300991"
       gradientUnits="userSpaceOnUse"
       id="linearGradient2725"
       xlink:href="#linearGradient2711"
       inkscape:collect="always" /><linearGradient
       y2="3.8451097"
       x2="35.520542"
       y1="3.9384086"
       x1="34.300991"
       gradientUnits="userSpaceOnUse"
       id="linearGradient2729"
       xlink:href="#linearGradient2711"
       inkscape:collect="always" /><linearGradient
       y2="3.8451097"
       x2="35.520542"
       y1="3.9384086"
       x1="34.300991"
       gradientUnits="userSpaceOnUse"
       id="linearGradient2733"
       xlink:href="#linearGradient2711"
       inkscape:collect="always" /><linearGradient
       gradientUnits="userSpaceOnUse"
       y2="28.205938"
       x2="-35.658386"
       y1="33.416473"
       x1="-35.658386"
       id="linearGradient2327"
       xlink:href="#linearGradient2321"
       inkscape:collect="always" /><linearGradient
       gradientUnits="userSpaceOnUse"
       y2="30.962345"
       x2="-35.074745"
       y1="34.242237"
       x1="-35.122688"
       id="linearGradient2337"
       xlink:href="#linearGradient2329"
       inkscape:collect="always" /><linearGradient
       inkscape:collect="always"
       xlink:href="#linearGradient2667"
       id="linearGradient2315"
       gradientUnits="userSpaceOnUse"
       gradientTransform="matrix(1.238977,0,0,0.895955,5.267331,1.543476)"
       x1="11.492236"
       y1="1.6537577"
       x2="17.199417"
       y2="26.729263" /><linearGradient
       inkscape:collect="always"
       xlink:href="#linearGradient9"
       id="linearGradient10"
       x1="3.515918"
       y1="6.5257916"
       x2="43.625813"
       y2="11.270194"
       gradientUnits="userSpaceOnUse" /><linearGradient
       inkscape:collect="always"
       xlink:href="#linearGradient14"
       id="linearGradient15"
       x1="5.4642138"
       y1="8.697197"
       x2="39.66737"
       y2="20.196341"
       gradientUnits="userSpaceOnUse" /><linearGradient
       inkscape:collect="always"
       xlink:href="#linearGradient16"
       id="linearGradient17"
       x1="14.878714"
       y1="10.69208"
       x2="37.566891"
       y2="26.215134"
       gradientUnits="userSpaceOnUse" /><linearGradient
       id="l"
       gradientTransform="matrix(1.5078887,0.40403789,0.40403755,-1.5078898,15.113751,42.492446)"
       gradientUnits="userSpaceOnUse"
       x1="8"
       x2="24.00001"
       xlink:href="#linearGradient4300"
       y1="24.000031"
       y2="8" /><linearGradient
       inkscape:collect="always"
       id="linearGradient4300"><stop
         style="stop-color:#e51561"
         id="stop4302" /><stop
         offset="0.312499"
         style="stop-color:#e4156c"
         id="stop4304" /><stop
         offset="0.562499"
         style="stop-color:#e71e2c"
         id="stop4306" /><stop
         offset="0.75"
         style="stop-color:#e8301e"
         id="stop4308" /><stop
         offset="1"
         style="stop-color:#e6320e"
         id="stop4310" /></linearGradient><linearGradient
       id="m"
       gradientTransform="matrix(-1.5078887,-0.40403789,-0.40403755,1.5078898,106.88621,-10.492446)"
       gradientUnits="userSpaceOnUse"
       x1="8"
       x2="24.00001"
       xlink:href="#linearGradient4328"
       y1="23.999973"
       y2="8" /><linearGradient
       inkscape:collect="always"
       id="linearGradient4328"><stop
         style="stop-color:#bec900"
         id="stop4330" /><stop
         offset="0.312499"
         style="stop-color:#9ec80a"
         id="stop4332" /><stop
         offset="0.562499"
         style="stop-color:#71b93d"
         id="stop4334" /><stop
         offset="0.75"
         style="stop-color:#35a48f"
         id="stop4336" /><stop
         offset="1"
         style="stop-color:#018fca"
         id="stop4338" /></linearGradient><linearGradient
       id="n"
       gradientTransform="matrix(-1.5078887,-0.40403789,0.40403755,-1.5078898,87.492393,61.88626)"
       gradientUnits="userSpaceOnUse"
       x1="8"
       x2="24.00001"
       xlink:href="#linearGradient4316"
       y1="24"
       y2="8" /><linearGradient
       inkscape:collect="always"
       id="linearGradient4316"><stop
         style="stop-color:#c1cc00"
         id="stop4318" /><stop
         offset="0.312499"
         style="stop-color:#dfcd00"
         id="stop4320" /><stop
         offset="0.562499"
         style="stop-color:#f0cc00"
         id="stop4322" /><stop
         offset="0.75"
         style="stop-color:#fd8c08"
         id="stop4324" /><stop
         offset="1"
         style="stop-color:#f25c13"
         id="stop4326" /></linearGradient><linearGradient
       id="i"
       gradientTransform="matrix(-0.40403755,-1.5078898,-1.5078887,0.40403789,106.88621,42.492466)"
       gradientUnits="userSpaceOnUse"
       x1="8"
       x2="24.00001"
       xlink:href="#linearGradient4328"
       y1="23.999973"
       y2="8" /><linearGradient
       id="q"
       gradientTransform="matrix(-1.1038511,-1.103852,-1.1038511,1.103852,113.98484,16.00003)"
       gradientUnits="userSpaceOnUse"
       x1="8"
       x2="24.00001"
       xlink:href="#linearGradient4328"
       y1="23.999973"
       y2="8" /><linearGradient
       id="r"
       gradientTransform="matrix(0.40403755,1.5078898,-1.5078887,0.40403789,87.49235,-29.88624)"
       gradientUnits="userSpaceOnUse"
       x1="8"
       x2="24.00001"
       xlink:href="#linearGradient4288"
       y1="23.999973"
       y2="8" /><linearGradient
       inkscape:collect="always"
       id="linearGradient4288"><stop
         style="stop-color:#e81877"
         id="stop4290" /><stop
         offset="0.312499"
         style="stop-color:#dd1d8c"
         id="stop4294-9" /><stop
         offset="0.562499"
         style="stop-color:#6d57b1"
         id="stop4296" /><stop
         offset="0.75"
         style="stop-color:#2a78c1"
         id="stop4298" /><stop
         offset="1"
         style="stop-color:#018dcb"
         id="stop4292-2" /></linearGradient><linearGradient
       id="k"
       gradientTransform="matrix(1.5078887,0.40403789,-0.40403755,1.5078898,34.50755,-29.88626)"
       gradientUnits="userSpaceOnUse"
       x1="8"
       x2="24.00001"
       xlink:href="#linearGradient4288"
       y1="23.999973"
       y2="8" /><linearGradient
       id="p"
       gradientTransform="matrix(1.1038511,1.103852,1.1038511,-1.103852,8.015131,16.00003)"
       gradientUnits="userSpaceOnUse"
       x1="8"
       x2="24.00001"
       xlink:href="#linearGradient4300"
       y1="24.000031"
       y2="8" /><linearGradient
       id="h"
       gradientTransform="matrix(-1.1038511,-1.103852,1.1038511,-1.103852,60.999973,68.984915)"
       gradientUnits="userSpaceOnUse"
       x1="8"
       x2="24.00001"
       xlink:href="#linearGradient4316"
       y1="24"
       y2="8" /><linearGradient
       id="e"
       gradientTransform="matrix(-0.40403755,-1.5078898,1.5078887,-0.40403789,34.507553,61.88627)"
       gradientUnits="userSpaceOnUse"
       x1="8"
       x2="24.00001"
       xlink:href="#linearGradient4316"
       y1="24"
       y2="8" /><linearGradient
       id="j"
       gradientTransform="matrix(0.40403755,1.5078898,1.5078887,-0.40403789,15.113754,-10.492425)"
       gradientUnits="userSpaceOnUse"
       x1="8"
       x2="24.00001"
       xlink:href="#linearGradient4300"
       y1="24.000031"
       y2="8" /><linearGradient
       id="o"
       gradientTransform="matrix(1.1038511,1.103852,-1.1038511,1.103852,60.99999,-36.98486)"
       gradientUnits="userSpaceOnUse"
       x1="8"
       x2="24.00001"
       xlink:href="#linearGradient4288"
       y1="23.999973"
       y2="8" /><linearGradient
       id="d"><stop
         offset="0"
         stop-color="#7a7a7a"
         id="stop1" /><stop
         offset="1"
         stop-color="#919191"
         stop-opacity="0"
         id="stop2" /></linearGradient><linearGradient
       id="q-3"><stop
         offset="0"
         stop-color="#ababab"
         id="stop3" /><stop
         offset="1"
         stop-color="#f6f6f6"
         id="stop4" /></linearGradient><linearGradient
       id="e-8"><stop
         offset="0"
         stop-color="#a2a2a2"
         id="stop5" /><stop
         offset="1"
         stop-color="#c9c9c9"
         stop-opacity=".66666669"
         id="stop6" /></linearGradient><linearGradient
       id="o-3"><stop
         offset="0"
         stop-opacity="0"
         id="stop9-3" /><stop
         offset=".5"
         id="stop10-3" /><stop
         offset="1"
         stop-opacity="0"
         id="stop11" /></linearGradient><linearGradient
       id="p-8"><stop
         offset="0"
         stop-color="#969696"
         id="stop12" /><stop
         offset="1"
         stop-color="#fff"
         id="stop13" /></linearGradient><linearGradient
       id="k-0"><stop
         offset="0"
         stop-color="#1f1f1f"
         id="stop14-4" /><stop
         offset="1"
         stop-color="#e80202"
         stop-opacity=".59931505"
         id="stop15-7" /></linearGradient><linearGradient
       id="l-6"><stop
         offset="0"
         stop-color="#848484"
         stop-opacity="0"
         id="stop16-8" /><stop
         offset=".34146342"
         stop-color="#fff"
         stop-opacity=".49803922"
         id="stop17-9" /><stop
         offset="1"
         stop-color="#fff"
         id="stop18" /></linearGradient><linearGradient
       id="j-0"><stop
         offset="0"
         stop-color="#6f6f6f"
         stop-opacity=".54109591"
         id="stop19" /><stop
         offset="1"
         stop-color="#fff"
         stop-opacity="0"
         id="stop20" /></linearGradient><linearGradient
       id="h-6"><stop
         offset="0"
         stop-color="#505050"
         id="stop21" /><stop
         offset="1"
         stop-color="#1c1c1c"
         id="stop22" /></linearGradient><linearGradient
       id="i-8"><stop
         offset="0"
         stop-color="#5d5d5d"
         id="stop23" /><stop
         offset="1"
         stop-color="#9c9283"
         id="stop24" /></linearGradient><linearGradient
       id="b"><stop
         offset="0"
         stop-color="#7a7a7a"
         id="stop25" /><stop
         offset="1"
         stop-color="#cfcfcf"
         stop-opacity="0"
         id="stop26" /></linearGradient><linearGradient
       id="a"><stop
         offset="0"
         stop-color="#c7c7c7"
         id="stop27" /><stop
         offset="1"
         stop-color="#fff"
         id="stop28" /></linearGradient><linearGradient
       id="g"><stop
         offset="0"
         stop-opacity=".72260273"
         id="stop29" /><stop
         offset="1"
         stop-opacity="0"
         id="stop30" /></linearGradient><linearGradient
       id="f"><stop
         offset="0"
         stop-color="#989898"
         id="stop31" /><stop
         offset="1"
         stop-color="#fff"
         stop-opacity="0"
         id="stop32" /></linearGradient><linearGradient
       id="c"><stop
         offset="0"
         stop-color="#c7c7c7"
         id="stop33" /><stop
         offset="1"
         stop-color="#f0f0f0"
         id="stop34" /></linearGradient><linearGradient
       id="t"><stop
         offset="0"
         stop-color="#edd400"
         id="stop35" /><stop
         offset="1"
         stop-color="#edd400"
         stop-opacity="0"
         id="stop36" /></linearGradient><linearGradient
       id="s"><stop
         offset="0"
         stop-color="#204a87"
         stop-opacity="0"
         id="stop37" /><stop
         offset=".5"
         stop-color="#204a87"
         stop-opacity="0"
         id="stop38" /><stop
         offset="1"
         stop-color="#204a87"
         id="stop39" /></linearGradient><linearGradient
       xlink:href="#a"
       id="y"
       x1="9"
       x2="9"
       y1="12.97292"
       y2="16.229532"
       gradientTransform="matrix(0.9563,0,0,1.00157,1.053817,-4.060533)"
       gradientUnits="userSpaceOnUse" /><linearGradient
       xlink:href="#b"
       id="z"
       x1="4.1875"
       x2="4.1875"
       y1="23.122704"
       y2="31.314651"
       gradientTransform="matrix(0.9563,0,0,1.00256,1.053817,-4.097861)"
       gradientUnits="userSpaceOnUse" /><linearGradient
       xlink:href="#c"
       id="A"
       x1="17.302568"
       x2="17.302568"
       y1="38.035343"
       y2="12.946198"
       gradientTransform="matrix(0.95583,0,0,0.9184,1.076114,3.102481)"
       gradientUnits="userSpaceOnUse" /><linearGradient
       xlink:href="#d"
       id="B"
       x1="1.6875"
       x2="1.6875"
       y1="17.829683"
       y2="14.249486"
       gradientTransform="matrix(0.95583,0,0,0.91931,1.076114,3.068247)"
       gradientUnits="userSpaceOnUse" /><linearGradient
       xlink:href="#e-8"
       id="D"
       x1="33.852737"
       x2="33.852737"
       y1="36.79018"
       y2="18.157909"
       gradientUnits="userSpaceOnUse" /><linearGradient
       xlink:href="#f"
       id="E"
       x1="14.125"
       x2="14.125"
       y1="-0.02553173"
       y2="37.012268"
       gradientTransform="matrix(0.95429,0,0,0.95554,1.103156,1.644601)"
       gradientUnits="userSpaceOnUse" /><linearGradient
       xlink:href="#g"
       id="F"
       x1="5.4375"
       x2="5.4375"
       y1="43.877979"
       y2="37.254601"
       gradientTransform="matrix(0.95675,0,0,1,1.065641,-4.00043)"
       gradientUnits="userSpaceOnUse" /><linearGradient
       xlink:href="#h-6"
       id="L"
       x1="39.748837"
       x2="39.748837"
       y1="17.998442"
       y2="23.010695"
       gradientTransform="translate(-1,0.99959)"
       gradientUnits="userSpaceOnUse" /><linearGradient
       xlink:href="#i-8"
       id="M"
       x1="41.40625"
       x2="41.40625"
       y1="19.96875"
       y2="22"
       gradientTransform="translate(-1)"
       gradientUnits="userSpaceOnUse" /><linearGradient
       xlink:href="#j-0"
       id="N"
       x1="17.562496"
       x2="17.562496"
       y1="16.000004"
       y2="22.003908"
       gradientTransform="translate(-1,0.99959)"
       gradientUnits="userSpaceOnUse" /><linearGradient
       xlink:href="#k-0"
       id="O"
       x1="24"
       x2="26.999994"
       y1="17.500004"
       y2="17.500004"
       gradientTransform="translate(-0.999998,0.99957)"
       gradientUnits="userSpaceOnUse" /><linearGradient
       xlink:href="#l-6"
       id="P"
       x1="17.562496"
       x2="17.562496"
       y1="16.000004"
       y2="19.002607"
       gradientTransform="translate(12.00001,0.99957)"
       gradientUnits="userSpaceOnUse" /><linearGradient
       xlink:href="#linearGradient2329"
       id="G"
       x1="53.135429"
       x2="53.135429"
       y1="20.345228"
       y2="1.6754831"
       gradientUnits="userSpaceOnUse" /><linearGradient
       xlink:href="#linearGradient2329"
       id="K"
       x1="20.875"
       x2="20.875"
       y1="18.5625"
       y2="20.199675"
       gradientUnits="userSpaceOnUse" /><linearGradient
       xlink:href="#o-3"
       id="v"
       x1="302.85715"
       x2="302.85715"
       y1="366.64789"
       y2="609.50507"
       gradientTransform="matrix(0.07861,0,0,0.04118,-3.388995,34.90273)"
       gradientUnits="userSpaceOnUse" /><linearGradient
       xlink:href="#p-8"
       id="Q"
       x1="6.2773128"
       x2="6.0275831"
       y1="11.515625"
       y2="10.361485"
       gradientUnits="userSpaceOnUse" /><radialGradient
       xlink:href="#q-3"
       id="C"
       cx="33.85273"
       cy="18.038599"
       r="10.841436"
       fx="33.85273"
       fy="18.038599"
       gradientTransform="matrix(1.41129,0,0,1.41129,-13.92318,-7.299731)"
       gradientUnits="userSpaceOnUse"
       spreadMethod="pad" /><radialGradient
       xlink:href="#linearGradient2329"
       id="H"
       cx="14.979873"
       cy="22.900909"
       r="1.75"
       fx="14.979873"
       fy="22.900909"
       gradientTransform="matrix(1.0095,0,0,1.04556,-0.372253,-1.256737)"
       gradientUnits="userSpaceOnUse" /><radialGradient
       xlink:href="#s"
       id="I"
       cx="32.3125"
       cy="31"
       r="2.6875"
       fx="32.3125"
       fy="31"
       gradientTransform="matrix(0.9537,0,0,0.9537,1.496198,1.435424)"
       gradientUnits="userSpaceOnUse" /><radialGradient
       xlink:href="#t"
       id="J"
       cx="33.242355"
       cy="27.869101"
       r="4.125"
       fx="33.242355"
       fy="27.869101"
       gradientTransform="matrix(0.37783,-0.023,0.02041,0.33542,20.43376,19.36746)"
       gradientUnits="userSpaceOnUse" /><radialGradient
       xlink:href="#linearGradient2683"
       id="w"
       cx="602.62622"
       cy="487.90085"
       r="117.14286"
       fx="602.62622"
       fy="487.90085"
       gradientTransform="matrix(0.03241,6e-5,-2e-5,0.04118,24.47926,34.86387)"
       gradientUnits="userSpaceOnUse" /><radialGradient
       xlink:href="#linearGradient2683"
       id="x"
       cx="602.62653"
       cy="487.90115"
       r="117.14286"
       fx="602.62653"
       fy="487.90115"
       gradientTransform="matrix(-0.03241,0,0,0.04118,25.57879,34.90172)"
       gradientUnits="userSpaceOnUse" /></defs><sodipodi:namedview
     id="base"
     pagecolor="#ffffff"
     bordercolor="#666666"
     borderopacity="0.12156863"
     inkscape:pageopacity="0.0"
     inkscape:pageshadow="2"
     inkscape:zoom="0.7284424"
     inkscape:cx="151.00714"
     inkscape:cy="330.15651"
     inkscape:current-layer="svg2327"
     showgrid="false"
     inkscape:grid-bbox="true"
     inkscape:document-units="px"
     inkscape:window-width="992"
     inkscape:window-height="755"
     inkscape:window-x="218"
     inkscape:window-y="30"
     inkscape:showpageshadow="false"
     fill="#fce94f"
     stroke="#edd400"
     inkscape:pagecheckerboard="0"
     inkscape:deskcolor="#d1d1d1" /><metadata
     id="metadata4"><rdf:RDF><cc:Work
         rdf:about=""><dc:format>image/svg+xml</dc:format><dc:type
           rdf:resource="http://purl.org/dc/dcmitype/StillImage" /><dc:date /><dc:creator><cc:Agent><dc:title>Jakub Steiner</dc:title></cc:Agent></dc:creator><dc:subject><rdf:Bag><rdf:li>video</rdf:li><rdf:li>display</rdf:li><rdf:li>screensaver</rdf:li><rdf:li>saver</rdf:li></rdf:Bag></dc:subject><cc:license
           rdf:resource="http://creativecommons.org/publicdomain/zero/1.0/" /><dc:source>http://jimmac.musichall.cz/</dc:source><dc:description>https://commons.wikimedia.org/wiki/File:Preferences-desktop-screensaver.svg</dc:description></cc:Work><cc:License
         rdf:about="http://creativecommons.org/publicdomain/zero/1.0/"><cc:permits
           rdf:resource="http://creativecommons.org/ns#Reproduction" /><cc:permits
           rdf:resource="http://creativecommons.org/ns#Distribution" /><cc:permits
           rdf:resource="http://creativecommons.org/ns#DerivativeWorks" /></cc:License></rdf:RDF></metadata><g
     id="g1"
     transform="matrix(6.0357372,0,0,6.0357372,-19.98302,-21.385106)"><ellipse
       style="color:#000000;display:inline;overflow:visible;visibility:visible;opacity:0.508571;fill:url(#radialGradient2460);fill-opacity:1;fill-rule:evenodd;stroke:none;stroke-width:1;stroke-linecap:round;stroke-linejoin:miter;stroke-miterlimit:4;stroke-dashoffset:0;stroke-opacity:0.700637;marker:none;marker-start:none;marker-mid:none;marker-end:none"
       id="path2452"
       transform="matrix(1.050251,0,0,1.867888,-0.945558,-28.10611)"
       cx="24.218407"
       cy="35.051105"
       rx="16.882174"
       ry="4.552" /><ellipse
       style="color:#000000;display:inline;overflow:visible;visibility:visible;fill:#adb0aa;fill-opacity:1;fill-rule:evenodd;stroke:#4b4d4a;stroke-width:1;stroke-linecap:butt;stroke-linejoin:miter;stroke-miterlimit:4;stroke-dashoffset:0;stroke-opacity:1;marker:none;marker-start:none;marker-mid:none;marker-end:none"
       id="path2407"
       transform="translate(60.03339,8.07843)"
       cx="-35.658386"
       cy="29.716238"
       rx="9.3944187"
       ry="3.939595" /><ellipse
       transform="matrix(0.902373,0,0,0.82765,56.55215,12.86792)"
       id="path1825"
       style="color:#000000;display:inline;overflow:visible;visibility:visible;fill:none;fill-opacity:1;fill-rule:evenodd;stroke:url(#linearGradient2327);stroke-width:1.15713;stroke-linecap:butt;stroke-linejoin:miter;stroke-miterlimit:4;stroke-dasharray:none;stroke-dashoffset:0;stroke-opacity:1;marker:none;marker-start:none;marker-mid:none;marker-end:none"
       cx="-35.658386"
       cy="29.716238"
       rx="9.3944187"
       ry="3.939595" /><ellipse
       style="color:#000000;display:inline;overflow:visible;visibility:visible;fill:none;fill-opacity:1;fill-rule:evenodd;stroke:url(#linearGradient2337);stroke-width:1.18334;stroke-linecap:butt;stroke-linejoin:miter;stroke-miterlimit:4;stroke-dasharray:none;stroke-dashoffset:0;stroke-opacity:1;marker:none;marker-start:none;marker-mid:none;marker-end:none"
       id="path2983"
       transform="matrix(0.837548,0,0,0.852655,54.17811,11.00615)"
       cx="-35.658386"
       cy="29.716238"
       rx="9.3944187"
       ry="3.939595" /><rect
       y="31.078613"
       x="19.972397"
       height="6.3650389"
       width="9.0396729"
       id="rect2699"
       style="color:#000000;display:inline;overflow:visible;visibility:visible;fill:url(#linearGradient2707);fill-opacity:1;fill-rule:evenodd;stroke:none;stroke-width:0.608729;stroke-linecap:butt;stroke-linejoin:miter;stroke-miterlimit:4;stroke-dashoffset:0;stroke-opacity:1;marker:none;marker-start:none;marker-mid:none;marker-end:none" /><g
       id="g3"><path
         sodipodi:nodetypes="ccccc"
         id="path2377"
         d="M 8.9105353,7.180827 7.6683393,29.226144 H 39.318729 L 37.983712,7.274256 Z"
         style="fill:url(#linearGradient2681);fill-opacity:1;fill-rule:evenodd;stroke:#000079;stroke-width:0.5;stroke-linecap:butt;stroke-linejoin:round;stroke-miterlimit:4;stroke-dasharray:none;stroke-opacity:1" /></g><path
       sodipodi:nodetypes="ccccc"
       style="display:inline;opacity:0.531429;fill:url(#linearGradient2315);fill-opacity:1;fill-rule:evenodd;stroke:none;stroke-width:0.25pt;stroke-linecap:butt;stroke-linejoin:miter;stroke-opacity:1"
       d="m 9.3883123,7.621363 -0.802529,17.87033 C 19.630421,23.091063 24.007246,14.999494 37.739815,12.344943 L 37.578343,7.687427 Z"
       id="path2443" /><g
       id="rect2404"
       style="display:inline;opacity:1"><path
         style="baseline-shift:baseline;display:inline;overflow:visible;vector-effect:none;fill:url(#linearGradient15);fill-opacity:1;fill-rule:evenodd;stroke:none;stroke-opacity:1;marker:none;enable-background:accumulate;stop-color:#000000;stop-opacity:1"
         d="m 7.5809228,4.5704902 c -1.119249,0 -1.6265459,0.6282722 -1.6668299,1.4018068 l -1.3319106,25.57812 c -0.058209,1.117735 0.9009448,2.020194 2.0201939,2.020194 H 42.147498 c 1.119249,0 2.078728,-0.902459 2.020518,-2.020194 L 42.835782,5.972297 C 42.793177,5.1541918 42.080294,4.5704902 41.168952,4.5704902 Z m 1.3312634,2.3612614 29.0722828,0.091577 a 0.250025,0.250025 0 0 1 0.247872,0.2365469 l 1.336117,21.9509615 a 0.250025,0.250025 0 0 1 -0.250137,0.26567 H 7.6679694 A 0.250025,0.250025 0 0 1 7.4178317,29.212778 L 8.6601069,7.1660333 A 0.250025,0.250025 0 0 1 8.9121862,6.9317516 Z"
         id="path8" /><path
         style="baseline-shift:baseline;display:inline;overflow:visible;vector-effect:none;fill-rule:evenodd;stroke:url(#linearGradient10);marker:none;enable-background:accumulate;stop-color:#000000;stop-opacity:1"
         d="m 7.5800781,4.0703125 c -0.6531801,0 -1.1997378,0.1916049 -1.578125,0.5449219 C 5.6235659,4.9685514 5.439508,5.4586598 5.4140625,5.9472656 L 4.0820312,31.525391 c -0.073772,1.416575 1.131513,2.544921 2.5195313,2.544921 H 42.148437 c 1.388019,0 2.59331,-1.130203 2.519532,-2.546875 L 43.335937,5.9472656 C 43.27891,4.8522123 42.294759,4.0703125 41.169922,4.0703125 Z m 0,1 H 41.169922 c 0.697847,0 1.137754,0.3865814 1.166015,0.9277344 l 1.336909,25.5994481 c 0.04264,0.818798 -0.761453,1.560154 -1.611931,1.558108 L 6.6015625,33.070312 c -0.8504774,-0.002 -1.5621772,-0.675245 -1.5195313,-1.49414 L 6.4140625,5.9980469 C 6.428901,5.7131181 6.5184493,5.501859 6.6835937,5.3476562 6.8487382,5.1934535 7.1140092,5.0703125 7.5800781,5.0703125 Z"
         id="path9"
         sodipodi:nodetypes="ssccssccssssscssccss" /></g><path
       sodipodi:nodetypes="cc"
       style="fill:none;fill-opacity:0.75;fill-rule:evenodd;stroke:url(#linearGradient2689);stroke-width:0.996181;stroke-linecap:round;stroke-linejoin:miter;stroke-miterlimit:4;stroke-opacity:0.248408"
       d="M 6.6774331,31.610789 H 42.10591"
       id="path2393" /><path
       sodipodi:nodetypes="sssssssss"
       id="path2397"
       d="M 7.0450018,5.2543889 41.629697,5.2023723 c 0.283697,-4.267e-4 0.560608,0.2371802 0.582105,0.6525437 l 1.305031,25.21549 c 0.05472,1.057209 -0.539763,1.780326 -1.598371,1.785871 L 6.6410856,33.041075 C 5.5824773,33.046621 5.0464082,32.312193 5.1052142,31.255204 L 6.5003808,6.1782123 C 6.5402028,5.4624436 6.6667663,5.2549577 7.0450018,5.2543889 Z"
       style="color:#000000;display:inline;overflow:visible;visibility:visible;fill:none;fill-opacity:1;fill-rule:evenodd;stroke:url(#linearGradient17);stroke-width:1;stroke-linecap:butt;stroke-linejoin:miter;stroke-miterlimit:4;stroke-dashoffset:0;marker:none;marker-start:none;marker-mid:none;marker-end:none" /><circle
       transform="matrix(1.331237,0,0,0.658449,-5.91933,5.728866)"
       id="path2709"
       style="color:#000000;display:inline;overflow:visible;visibility:visible;fill:url(#linearGradient2717);fill-opacity:1;fill-rule:evenodd;stroke:none;stroke-width:0.5;stroke-linecap:butt;stroke-linejoin:miter;stroke-miterlimit:4;stroke-dashoffset:0;stroke-opacity:1;marker:none;marker-start:none;marker-mid:none;marker-end:none"
       cx="34.780815"
       cy="3.9384086"
       r="0.83968931" /><circle
       style="color:#000000;display:inline;overflow:visible;visibility:visible;fill:url(#linearGradient2721);fill-opacity:1;fill-rule:evenodd;stroke:none;stroke-width:0.5;stroke-linecap:butt;stroke-linejoin:miter;stroke-miterlimit:4;stroke-dashoffset:0;stroke-opacity:1;marker:none;marker-start:none;marker-mid:none;marker-end:none"
       id="path2719"
       transform="matrix(1.331237,0,0,0.658449,-5.80573,7.83465)"
       cx="34.780815"
       cy="3.9384086"
       r="0.83968931" /><circle
       transform="matrix(1.331237,0,0,0.658449,-5.69213,9.83465)"
       id="path2723"
       style="color:#000000;display:inline;overflow:visible;visibility:visible;fill:url(#linearGradient2725);fill-opacity:1;fill-rule:evenodd;stroke:none;stroke-width:0.5;stroke-linecap:butt;stroke-linejoin:miter;stroke-miterlimit:4;stroke-dashoffset:0;stroke-opacity:1;marker:none;marker-start:none;marker-mid:none;marker-end:none"
       cx="34.780815"
       cy="3.9384086"
       r="0.83968931" /><circle
       style="color:#000000;display:inline;overflow:visible;visibility:visible;fill:url(#linearGradient2729);fill-opacity:1;fill-rule:evenodd;stroke:none;stroke-width:0.5;stroke-linecap:butt;stroke-linejoin:miter;stroke-miterlimit:4;stroke-dashoffset:0;stroke-opacity:1;marker:none;marker-start:none;marker-mid:none;marker-end:none"
       id="path2727"
       transform="matrix(1.331237,0,0,0.658449,-5.57853,11.83465)"
       cx="34.780815"
       cy="3.9384086"
       r="0.83968931" /><circle
       transform="matrix(1.331237,0,0,0.658449,-5.46493,13.83465)"
       id="path2731"
       style="color:#000000;display:inline;overflow:visible;visibility:visible;fill:url(#linearGradient2733);fill-opacity:1;fill-rule:evenodd;stroke:none;stroke-width:0.5;stroke-linecap:butt;stroke-linejoin:miter;stroke-miterlimit:4;stroke-dashoffset:0;stroke-opacity:1;marker:none;marker-start:none;marker-mid:none;marker-end:none"
       cx="34.780815"
       cy="3.9384086"
       r="0.83968931" /><path
       id="text2735"
       d="m 22.5,30.192666 h 0.281716 c 0.08376,1e-6 0.147985,0.01866 0.19266,0.05599 0.04497,0.03703 0.06745,0.08994 0.06745,0.158714 -1e-6,0.06907 -0.02248,0.122268 -0.06745,0.159595 -0.04467,0.03703 -0.108895,0.05555 -0.19266,0.05555 h -0.111981 v 0.22837 H 22.5 v -0.658219 m 0.169735,0.123003 v 0.183843 h 0.0939 c 0.03292,0 0.05834,-0.0079 0.07627,-0.02381 0.01793,-0.01617 0.02689,-0.03894 0.02689,-0.06834 0,-0.02939 -0.009,-0.05202 -0.02689,-0.06789 -0.01793,-0.01587 -0.04335,-0.02381 -0.07627,-0.02381 h -0.0939 m 0.792244,-0.0119 c -0.05173,1e-6 -0.09185,0.01911 -0.120358,0.05731 -0.02851,0.03821 -0.04276,0.092 -0.04276,0.161359 0,0.06907 0.01425,0.122709 0.04276,0.160918 0.02851,0.03821 0.06863,0.05731 0.120358,0.05731 0.05202,0 0.09229,-0.0191 0.120799,-0.05731 0.02851,-0.03821 0.04276,-0.09185 0.04276,-0.160918 -10e-7,-0.06936 -0.01425,-0.123149 -0.04276,-0.161359 -0.02851,-0.03821 -0.06878,-0.05731 -0.120799,-0.05731 m 0,-0.123003 c 0.105808,1e-6 0.188692,0.03027 0.248651,0.09082 0.05996,0.06055 0.08994,0.144165 0.08994,0.250855 -1e-6,0.106397 -0.02998,0.189868 -0.08994,0.250414 -0.05996,0.06055 -0.142843,0.09082 -0.248651,0.09082 -0.105515,0 -0.188399,-0.03027 -0.248651,-0.09082 -0.05996,-0.06055 -0.08994,-0.144017 -0.08994,-0.250414 0,-0.10669 0.02998,-0.190309 0.08994,-0.250855 0.06025,-0.06055 0.143136,-0.09082 0.248651,-0.09082 m 0.466441,0.0119 h 0.189574 l 0.239393,0.451451 v -0.451451 h 0.160918 v 0.658219 H 24.32873 l -0.239392,-0.451451 v 0.451451 H 23.92842 v -0.658219 m 0.663069,0 h 0.185606 l 0.149896,0.234543 0.149896,-0.234543 h 0.186048 l -0.250856,0.380912 v 0.277307 h -0.169735 v -0.277307 l -0.250855,-0.380912"
       style="font-style:normal;font-variant:normal;font-weight:bold;font-stretch:normal;font-size:0.902903px;font-family:'Bitstream Vera Sans';writing-mode:lr-tb;text-anchor:start;fill:#4a4a4a;fill-opacity:1;stroke:none;stroke-width:1pt;stroke-linecap:butt;stroke-linejoin:miter;stroke-opacity:1" /></g><g
     id="g64"
     transform="matrix(4.4765859,0,0,4.4765859,-3.830408,74.093204)"><g
       color="#000000"
       transform="matrix(0.93159692,0,0,0.90106116,0.62271961,-13.384952)"
       id="g47"><path
         fill="url(#v)"
         d="M 6.0446973,50 H 44.004078 V 60 H 6.0446973 Z"
         opacity="0.402062"
         overflow="visible"
         style="fill:url(#v);marker:none"
         id="path45" /><path
         fill="url(#w)"
         d="m 44.004077,50 v 9.999883 c 1.570185,0.01882 3.795945,-2.240466 3.795944,-5.000584 0,-2.76012 -1.752208,-4.999298 -3.795944,-4.999299 z"
         opacity="0.402062"
         overflow="visible"
         style="fill:url(#w);marker:none"
         id="path46" /><path
         fill="url(#x)"
         d="m 6.0446972,50 v 9.999883 c -1.570183,0.01882 -3.7959375,-2.240466 -3.7959375,-5.000584 0,-2.76012 1.7522055,-4.999298 3.7959375,-4.999299 z"
         opacity="0.402062"
         overflow="visible"
         style="fill:url(#x);marker:none"
         id="path47" /></g><path
       fill="url(#y)"
       stroke="url(#z)"
       stroke-linecap="round"
       stroke-width="1.00061"
       d="M 6.1241167,10.500759 H 41.795425 c 1.187502,0 3.734495,3.34707 3.734495,7.504643 v 8.002576 c 0,4.157572 -0.956003,7.504643 -2.143505,7.504643 H 4.6215148 c -1.1875017,0 -2.1435048,-3.347071 -2.1435048,-7.504643 v -8.002576 c 0,-4.157573 2.458605,-7.504643 3.6461067,-7.504643 z"
       id="path48"
       style="fill:url(#y);stroke:url(#z)" /><rect
       width="43.030556"
       height="22.077168"
       x="2.4996004"
       y="15.478654"
       fill="url(#A)"
       stroke="url(#B)"
       stroke-linecap="round"
       stroke-width="0.978273"
       rx="2.1435041"
       ry="7.4909968"
       id="rect48"
       style="fill:url(#A);stroke:url(#B)" /><path
       fill="url(#C)"
       stroke="url(#D)"
       stroke-linecap="round"
       stroke-opacity="0.0766129"
       stroke-width="0.327461"
       d="m 44.194174,25.902912 a 10.341437,10.341437 0 1 1 -20.682873,0 10.341437,10.341437 0 1 1 20.682873,0 z"
       transform="matrix(0.91625,0,0,0.91603,0.984177,2.27105)"
       id="path49"
       style="fill:url(#C);stroke:url(#D)" /><rect
       width="41.038116"
       height="21.025146"
       x="3.4868202"
       y="15.498044"
       fill="none"
       stroke="url(#E)"
       stroke-linecap="round"
       stroke-width="0.996583"
       rx="1.259622"
       ry="6.7397022"
       id="rect49"
       style="stroke:url(#E)" /><path
       fill="url(#F)"
       d="m 2.5176558,34.999573 c 0,0 21.3168952,-0.09181 21.7067122,0 4.922479,1.159327 10.086486,1.252674 15.454275,0 0.518851,-0.121084 5.853376,0 5.853376,0 -0.296527,1.176578 -0.855543,3.032717 -1.980768,3 H 4.5936513 c -1.3233101,0 -1.8572315,-2.146653 -2.0759955,-3 z"
       id="path50"
       style="fill:url(#F)" /><g
       color="#000000"
       transform="translate(-1,60.9996)"
       id="g57"><path
         fill="#1a1d1f"
         fill-rule="evenodd"
         stroke="#080a0a"
         stroke-linecap="round"
         stroke-width="1.57259"
         d="m 61.797844,11.013739 a 8.6624146,8.6624146 0 1 1 -17.324829,0 8.6624146,8.6624146 0 1 1 17.324829,0 z"
         overflow="visible"
         style="marker:none"
         transform="matrix(0.6359,0,0,0.63589,-0.79712,-41.99518)"
         id="path51" /><path
         fill="none"
         stroke="url(#G)"
         stroke-linecap="round"
         stroke-opacity="0.373874"
         stroke-width="1.91565"
         d="m 61.797844,11.013739 a 8.6624146,8.6624146 0 1 1 -17.324829,0 8.6624146,8.6624146 0 1 1 17.324829,0 z"
         overflow="visible"
         style="stroke:url(#G);marker:none"
         transform="matrix(0.52177,0,0,0.52226,5.27335,-40.73605)"
         id="path52" /><path
         fill="url(#H)"
         d="m 16.5,22.6875 a 1.75,1.8125 0 1 1 -3.5,0 1.75,1.8125 0 1 1 3.5,0 z"
         font-family="'Bitstream Vera Sans'"
         opacity="0.382353"
         overflow="visible"
         style="fill:url(#H);marker:none"
         transform="matrix(1.63674,0,0,1.63727,9.22889,-70.60967)"
         id="path53" /><path
         fill="url(#I)"
         fill-rule="evenodd"
         d="M 35,31 A 2.6875,2.6875 0 1 1 29.625,31 2.6875,2.6875 0 1 1 35,31 Z"
         opacity="0.482353"
         overflow="visible"
         style="fill:url(#I);marker:none"
         transform="matrix(1.49589,0,0,1.49637,-15.33415,-81.39293)"
         id="path54" /><path
         fill="none"
         stroke="url(#J)"
         stroke-miterlimit="10"
         stroke-width="0.647043"
         d="m 35.6875,26 a 2.125,2.125 0 1 1 -4.25,0 2.125,2.125 0 1 1 4.25,0 z"
         overflow="visible"
         style="stroke:url(#J);marker:none"
         transform="matrix(1.54524,0,0,1.54574,-18.85183,-75.17085)"
         id="path55" /><path
         d="m 16.5,22.6875 a 1.75,1.8125 0 1 1 -3.5,0 1.75,1.8125 0 1 1 3.5,0 z"
         font-family="'Bitstream Vera Sans'"
         overflow="visible"
         style="marker:none"
         transform="matrix(1.13645,0,0,1.09762,16.22819,-59.89664)"
         id="path56" /><path
         fill="url(#K)"
         fill-rule="evenodd"
         d="m 22.125,18.5625 a 1.25,1.25 0 1 1 -2.5,0 1.25,1.25 0 1 1 2.5,0 z"
         overflow="visible"
         style="fill:url(#K);marker:none"
         transform="matrix(1.43635,0,0,0.95787,3.007035,-54.97787)"
         id="path57" /></g><rect
       width="6.0079513"
       height="4.0117583"
       x="37.498837"
       y="19.498039"
       fill="#575757"
       stroke="url(#L)"
       stroke-linecap="round"
       stroke-width="1"
       rx="1.3935057"
       ry="5"
       id="rect57"
       style="stroke:url(#L)" /><rect
       width="3"
       height="3"
       x="39"
       y="19"
       fill="url(#M)"
       rx="0"
       ry="0"
       id="rect58"
       style="fill:url(#M)" /><path
       fill="#ffffff"
       d="m 41.999996,19.781247 a 0.46874719,0.46874719 0 1 1 -0.937494,0 0.46874719,0.46874719 0 1 1 0.937494,0 z"
       id="path58" /><rect
       width="10.999995"
       height="2.0000002"
       x="10.499995"
       y="17.499599"
       fill="#ffffff"
       stroke="url(#N)"
       stroke-linecap="round"
       stroke-width="1"
       rx="1.3935052"
       ry="2.0000017"
       id="rect59"
       style="stroke:url(#N)" /><rect
       width="1.9999952"
       height="2.0000021"
       x="23.500002"
       y="17.499596"
       fill="url(#O)"
       stroke="url(#P)"
       stroke-linecap="round"
       stroke-width="1"
       rx="0.99999768"
       ry="0.99999744"
       id="rect60"
       style="fill:url(#O);stroke:url(#P)" /><path
       fill="#7a7a7a"
       d="m 5.0000005,24.438774 h 1.0434737 c 0.3893201,2e-6 0.6843293,0.05027 0.8850285,0.150817 0.2006945,0.100545 0.3010428,0.248191 0.3010455,0.442937 -2.7e-6,0.186596 -0.112423,0.341036 -0.3372615,0.463318 -0.2233342,0.121378 -0.5311698,0.182067 -0.9235081,0.182066 H 5.62699 v 0.709243 H 5.0000005 V 24.438774 M 5.62699,25.380356 h 0.3327346 c 0.2127674,1e-6 0.3727213,-0.02808 0.479862,-0.08424 0.1071371,-0.05616 0.1607066,-0.140398 0.1607085,-0.252718 C 6.6002932,24.939231 6.5467241,24.861333 6.4395866,24.8097 6.3324459,24.75717 6.172492,24.7309 5.9597246,24.7309 H 5.62699 v 0.64946 m 3.4699455,-0.968755 c 0.439117,10e-7 0.792977,0.08968 1.0615815,0.269023 0.268599,0.178444 0.4029,0.416217 0.402902,0.713319 -2e-6,0.307973 -0.140339,0.554805 -0.42101,0.740494 -0.2806765,0.184783 -0.6549075,0.277175 -1.1226955,0.277175 -0.4496834,0 -0.813352,-0.08967 -1.0910072,-0.269023 C 7.650559,25.96324 7.5124856,25.727732 7.5124859,25.436063 7.5124856,25.12628 7.6573495,24.87809 7.9470778,24.691494 8.2383139,24.5049 8.6215996,24.411602 9.0969355,24.411601 m -0.067905,1.68615 c 0.270109,1e-6 0.48816,-0.05978 0.654152,-0.179348 0.165987,-0.119565 0.248982,-0.284422 0.248985,-0.494568 -3e-6,-0.214675 -0.082243,-0.383606 -0.246722,-0.506797 -0.162974,-0.124093 -0.381779,-0.18614 -0.656415,-0.186142 -0.2686031,2e-6 -0.4851444,0.0625 -0.6496241,0.187501 -0.1644819,0.124096 -0.2467223,0.290763 -0.2467215,0.500003 -8e-7,0.207429 0.08224,0.372738 0.2467215,0.495926 0.1659888,0.122284 0.3825301,0.183426 0.6496241,0.183425 m 4.9887535,0.289404 h -0.654151 l -1.548234,-1.372291 c -0.03923,-0.03261 -0.07168,-0.07246 -0.09733,-0.119565 h -0.01358 c 0.01811,0.05254 0.02716,0.09919 0.02716,0.139946 v 1.35191 h -0.579457 v -1.948381 h 0.690368 l 1.489384,1.332889 c 0.0347,0.03261 0.07017,0.07156 0.106384,0.116848 h 0.01358 c -0.01509,-0.04438 -0.02264,-0.09783 -0.02264,-0.160327 v -1.28941 h 0.58851 v 1.948381 m 3.082887,-1.948381 -1.070635,1.210605 v 0.737776 h -0.6202 v -0.729624 l -1.043473,-1.218757 h 0.690368 l 0.434591,0.591036 c 0.1343,0.181162 0.208242,0.283518 0.221824,0.307068 0.01358,0.02355 0.02339,0.04348 0.02943,0.05978 h 0.0045 c 0.01811,-0.03623 0.03395,-0.06295 0.04753,-0.08016 l 0.667733,-0.877723 h 0.638306"
       font-family="Segoe"
       font-size="3.59155px"
       font-weight="700"
       style="line-height:125%;text-align:start"
       id="path60" /><path
       fill="#cccccc"
       d="m 4.9999953,24.261986 h 1.043473 c 0.38932,2e-6 0.6843292,0.05027 0.8850282,0.150815 0.2006944,0.100546 0.3010428,0.248192 0.3010454,0.442938 -2.6e-6,0.186596 -0.112423,0.341036 -0.3372614,0.463317 -0.2233339,0.121379 -0.5311694,0.182067 -0.9235076,0.182067 H 5.6269846 v 0.709242 H 4.9999953 v -1.948379 m 0.6269893,0.941581 H 5.959719 c 0.2127672,1e-6 0.3727211,-0.02808 0.4798617,-0.08424 0.107137,-0.05616 0.1607064,-0.140398 0.1607085,-0.252719 -2.1e-6,-0.104165 -0.053571,-0.182064 -0.1607085,-0.233696 -0.1071406,-0.05254 -0.2670945,-0.0788 -0.4798617,-0.07881 H 5.6269846 v 0.64946 m 3.4699439,-0.968756 c 0.439117,3e-6 0.792977,0.08968 1.0615805,0.269023 0.268599,0.178445 0.4029,0.416218 0.402903,0.71332 -3e-6,0.307973 -0.14034,0.554804 -0.421011,0.740493 -0.2806755,0.184784 -0.6549075,0.277176 -1.1226955,0.277176 -0.4496825,0 -0.813351,-0.08967 -1.091006,-0.269023 -0.2761471,-0.179349 -0.4142205,-0.414857 -0.4142202,-0.706526 -3e-7,-0.309783 0.1448635,-0.557973 0.4345917,-0.74457 0.291236,-0.186593 0.6745214,-0.27989 1.1498575,-0.279893 m -0.067905,1.686151 c 0.270109,0 0.488159,-0.05978 0.654151,-0.179349 0.165988,-0.119565 0.248982,-0.284421 0.248985,-0.494567 -3e-6,-0.214674 -0.082243,-0.383606 -0.246721,-0.506797 -0.162974,-0.124093 -0.381779,-0.186141 -0.656415,-0.186142 -0.2686033,1e-6 -0.4851445,0.0625 -0.6496242,0.187501 -0.1644818,0.124096 -0.2467222,0.290764 -0.2467214,0.500003 -8e-7,0.207429 0.08224,0.372738 0.2467214,0.495926 0.1659888,0.122283 0.38253,0.183425 0.6496242,0.183425 m 4.9887505,0.289403 h -0.65415 L 11.81539,24.838076 c -0.03924,-0.03261 -0.07168,-0.07246 -0.09733,-0.119566 h -0.01358 c 0.01811,0.05254 0.02716,0.09919 0.02716,0.139946 v 1.351909 h -0.579456 v -1.948379 h 0.690367 l 1.489382,1.332887 c 0.0347,0.03261 0.07017,0.07156 0.106384,0.116849 h 0.01358 c -0.01509,-0.04438 -0.02264,-0.09783 -0.02263,-0.160327 v -1.289409 h 0.588509 v 1.948379 m 3.082886,-1.948379 -1.070635,1.210604 v 0.737775 h -0.620199 v -0.729623 l -1.043473,-1.218756 h 0.690367 l 0.434592,0.591035 c 0.1343,0.181162 0.20824,0.283518 0.221824,0.307068 0.01358,0.02355 0.02339,0.04348 0.02942,0.05978 h 0.0045 c 0.01811,-0.03623 0.03395,-0.06295 0.04753,-0.08016 l 0.667732,-0.877722 h 0.638307"
       font-family="Segoe"
       font-size="3.59155px"
       font-weight="700"
       style="line-height:125%;text-align:start"
       id="path61" /><rect
       width="36.875"
       height="2"
       x="5.1250005"
       y="12"
       fill="#7a7a7a"
       fill-opacity="0.28629"
       rx="4.4281855"
       ry="0.99999994"
       id="rect61" /><g
       stroke-linecap="round"
       stroke-width="0.612725"
       transform="translate(0,0.152618)"
       id="g63"><path
         fill="none"
         stroke="#4d4d4d"
         d="m 7.9375,11.515625 a 1.453125,0.421875 0 1 1 -2.90625,0 1.453125,0.421875 0 1 1 2.90625,0 z"
         transform="matrix(1.7029,0,0,1.56415,-2.516393,-5.324659)"
         id="path62" /><path
         fill="#636363"
         stroke="url(#Q)"
         d="m 7.9375,11.515625 a 1.453125,0.421875 0 1 1 -2.90625,0 1.453125,0.421875 0 1 1 2.90625,0 z"
         transform="matrix(1.7029,0,0,1.56415,-2.516393,-5.852289)"
         id="path63"
         style="stroke:url(#Q)" /></g></g></svg>
