<?xml version="1.0" encoding="UTF-8" standalone="no"?>
<!-- Created with Inkscape (http://www.inkscape.org/) -->

<svg
   width="256mm"
   height="256mm"
   viewBox="0 0 256 256"
   version="1.1"
   id="svg1"
   inkscape:version="1.4.2 (ebf0e940d0, 2025-05-08)"
   sodipodi:docname="startpage.svg"
   xml:space="preserve"
   xmlns:inkscape="http://www.inkscape.org/namespaces/inkscape"
   xmlns:sodipodi="http://sodipodi.sourceforge.net/DTD/sodipodi-0.dtd"
   xmlns:xlink="http://www.w3.org/1999/xlink"
   xmlns="http://www.w3.org/2000/svg"
   xmlns:svg="http://www.w3.org/2000/svg"
   xmlns:rdf="http://www.w3.org/1999/02/22-rdf-syntax-ns#"
   xmlns:cc="http://creativecommons.org/ns#"
   xmlns:dc="http://purl.org/dc/elements/1.1/"><title
     id="title7">Startpage.com (rebuilded for OpenSource-Community</title><sodipodi:namedview
     id="namedview1"
     pagecolor="#ffffff"
     bordercolor="#000000"
     borderopacity="0.25"
     inkscape:showpageshadow="2"
     inkscape:pageopacity="0.0"
     inkscape:pagecheckerboard="0"
     inkscape:deskcolor="#d1d1d1"
     inkscape:document-units="mm"
     inkscape:zoom="0.64275042"
     inkscape:cx="469.85578"
     inkscape:cy="467.52206"
     inkscape:current-layer="svg1" /><defs
     id="defs1"><linearGradient
       id="linearGradient5"
       inkscape:collect="always"><stop
         style="stop-color:#6677fb;stop-opacity:1"
         offset="0"
         id="stop5" /><stop
         style="stop-color:#4aa6e5;stop-opacity:1"
         offset="0.5"
         id="stop7" /><stop
         style="stop-color:#2bd8ce;stop-opacity:1"
         offset="1"
         id="stop6" /></linearGradient><linearGradient
       inkscape:collect="always"
       xlink:href="#linearGradient5"
       id="linearGradient6"
       x1="47.160715"
       y1="69.186239"
       x2="182.54622"
       y2="69.186239"
       gradientUnits="userSpaceOnUse" /></defs><metadata
     id="metadata1"><rdf:RDF><cc:Work
         rdf:about=""><cc:license
           rdf:resource="http://creativecommons.org/publicdomain/zero/1.0/" /><dc:title>Startpage.com (rebuilded for OpenSource-Community</dc:title><dc:date>23.05.25</dc:date><dc:publisher><cc:Agent><dc:title>Blackcrack</dc:title></cc:Agent></dc:publisher><dc:source>Design searchpage.com</dc:source><dc:language>International</dc:language><dc:subject><rdf:Bag><rdf:li>search startpage</rdf:li></rdf:Bag></dc:subject><dc:description>The Favicon and Icon from Startpage.com for the OpenSource Community for use in any way, also it is a advice for the Searchpage startpage.com</dc:description><dc:contributor><cc:Agent><dc:title>blackcrack</dc:title></cc:Agent></dc:contributor><dc:creator><cc:Agent><dc:title>Startpage.com</dc:title></cc:Agent></dc:creator><dc:rights><cc:Agent><dc:title>Startpage</dc:title></cc:Agent></dc:rights></cc:Work><cc:License
         rdf:about="http://creativecommons.org/publicdomain/zero/1.0/"><cc:permits
           rdf:resource="http://creativecommons.org/ns#Reproduction" /><cc:permits
           rdf:resource="http://creativecommons.org/ns#Distribution" /><cc:permits
           rdf:resource="http://creativecommons.org/ns#DerivativeWorks" /></cc:License></rdf:RDF></metadata><g
     id="g5"
     inkscape:label="search"
     style="display:inline"
     transform="matrix(1.0232809,0,0,1.0232809,-1.7214627,-3.4133345)"><rect
       style="fill:#f1f8fd;fill-opacity:1;stroke:#5a5dff;stroke-width:1.799;stroke-dasharray:none;stroke-opacity:1"
       id="rect7"
       width="245.74229"
       height="244.51971"
       x="4.1164241"
       y="6.5862784"
       ry="37.459461"
       inkscape:label="button" /><path
       id="path4"
       style="baseline-shift:baseline;display:inline;overflow:visible;opacity:1;vector-effect:none;fill:#040609;fill-opacity:0.357077;stroke-width:1.0077;enable-background:accumulate;stop-color:#000000;stop-opacity:1"
       d="M 114.53472,35.645602 C 77.644197,36.898832 47.651271,64.64537 49.829925,105.59427 l 28.969915,-3.05729 c 0.918715,-20.543135 15.798036,-36.674799 36.73732,-37.386139 20.93928,-0.711341 36.3085,12.806562 38.61925,33.239998 l 32.19696,1.049294 C 183.41284,63.006539 151.42525,34.392371 114.53472,35.645602 Z m 39.40195,79.156938 c -7.17449,18.90294 -19.82137,29.51971 -35.85829,30.06452 -16.03694,0.5448 -29.277753,-11.22226 -35.980161,-24.56808 l -30.487357,3.98887 c 8.544893,29.71954 36.65402,52.59618 68.790018,50.08236 8.5056,-0.66534 16.74727,-2.18282 24.34885,-5.1215 l 39.98986,48.76176 c 0,0 12.82045,11.8384 21.83522,2.84012 9.01479,-8.99828 3.0625,-19.45231 3.0625,-19.45231 l -40.06068,-51.01917 c 6.24439,-8.54155 13.23689,-24.07919 13.08729,-35.4594 z"
       inkscape:label="shadow" /><path
       id="path3"
       style="baseline-shift:baseline;display:inline;overflow:visible;opacity:1;vector-effect:none;fill:#202c46;fill-opacity:1;enable-background:accumulate;stop-color:#000000;stop-opacity:1"
       d="m 150.58313,113.0512 c -7.11969,18.75855 -19.66985,29.29377 -35.58428,29.83441 -15.914426,0.54064 -29.054287,-11.1363 -35.705499,-24.38018 l -30.254484,3.95841 c 8.479624,29.49253 36.37404,52.19443 68.264563,49.69981 8.44063,-0.66026 16.61935,-2.16615 24.16287,-5.08238 l 39.6844,48.3893 c 0,0 12.72252,11.74797 21.66844,2.81843 8.94593,-8.92955 3.0391,-19.30373 3.0391,-19.30373 L 166.10356,148.3558 c 6.19669,-8.47631 13.13585,-23.89504 12.98739,-35.18833 z"
       sodipodi:nodetypes="csccsccscccc"
       inkscape:label="bottom" /><path
       d="m 111.48215,34.498419 c -36.608734,1.243657 -66.372646,28.7786 -64.210633,69.414711 l 28.748493,-3.03394 c 0.911697,-20.386226 15.677506,-36.394836 36.45683,-37.100743 20.77934,-0.705907 35.92835,13.017648 38.22145,33.295007 l 31.84793,0.938189 C 179.62815,61.85634 148.0909,33.25476 111.48215,34.498419 Z"
       style="baseline-shift:baseline;display:inline;overflow:visible;opacity:1;vector-effect:none;fill:url(#linearGradient6);enable-background:accumulate;stop-color:#000000;stop-opacity:1"
       id="path2"
       sodipodi:nodetypes="sccsccs"
       inkscape:label="top" /></g></svg>
