<?xml version="1.0" encoding="UTF-8" standalone="no"?>
<!-- Created with Inkscape (http://www.inkscape.org/) -->

<svg
   width="256mm"
   height="256mm"
   viewBox="0 0 256 256"
   version="1.1"
   id="svg1"
   inkscape:version="1.3.2 (091e20ef0f, 2023-11-25)"
   sodipodi:docname="user-6.svg"
   xml:space="preserve"
   xmlns:inkscape="http://www.inkscape.org/namespaces/inkscape"
   xmlns:sodipodi="http://sodipodi.sourceforge.net/DTD/sodipodi-0.dtd"
   xmlns:xlink="http://www.w3.org/1999/xlink"
   xmlns="http://www.w3.org/2000/svg"
   xmlns:svg="http://www.w3.org/2000/svg"
   xmlns:rdf="http://www.w3.org/1999/02/22-rdf-syntax-ns#"
   xmlns:cc="http://creativecommons.org/ns#"
   xmlns:dc="http://purl.org/dc/elements/1.1/"><defs
     id="defs1"><linearGradient
       id="linearGradient22"
       inkscape:collect="always"><stop
         style="stop-color:#f8f8f8;stop-opacity:0.54777068;"
         offset="0"
         id="stop22" /><stop
         style="stop-color:#ffffff;stop-opacity:0.27070063;"
         offset="0.72298956"
         id="stop24" /><stop
         style="stop-color:#ffffff;stop-opacity:0.11942675;"
         offset="0.92256683"
         id="stop25" /><stop
         style="stop-color:#ffffff;stop-opacity:0;"
         offset="1"
         id="stop23" /></linearGradient><linearGradient
       id="linearGradient20"
       inkscape:collect="always"><stop
         style="stop-color:#7d7d7d;stop-opacity:1;"
         offset="0"
         id="stop20" /><stop
         style="stop-color:#2e2e2e;stop-opacity:1;"
         offset="1"
         id="stop21" /></linearGradient><linearGradient
       id="linearGradient13"
       inkscape:collect="always"><stop
         style="stop-color:#000000;stop-opacity:0;"
         offset="0"
         id="stop13" /><stop
         style="stop-color:#000000;stop-opacity:0.27707008;"
         offset="0.41855064"
         id="stop15" /><stop
         style="stop-color:#000000;stop-opacity:0.39968154;"
         offset="0.43871072"
         id="stop16" /><stop
         style="stop-color:#000000;stop-opacity:0.32961783;"
         offset="0.46360409"
         id="stop17" /><stop
         style="stop-color:#000000;stop-opacity:0.52229297;"
         offset="1"
         id="stop14" /></linearGradient><linearGradient
       id="linearGradient11"
       inkscape:collect="always"><stop
         style="stop-color:#ffffff;stop-opacity:1;"
         offset="0"
         id="stop11" /><stop
         style="stop-color:#ffffff;stop-opacity:0;"
         offset="1"
         id="stop12" /></linearGradient><linearGradient
       id="linearGradient5"
       inkscape:collect="always"><stop
         style="stop-color:#ffffff;stop-opacity:0.65445858;"
         offset="0"
         id="stop5" /><stop
         style="stop-color:#ffc59f;stop-opacity:0;"
         offset="1"
         id="stop6" /></linearGradient><linearGradient
       id="linearGradient3"
       inkscape:collect="always"><stop
         style="stop-color:#ffc59f;stop-opacity:0;"
         offset="0"
         id="stop3" /><stop
         style="stop-color:#ff6602;stop-opacity:0.46019107;"
         offset="1"
         id="stop4" /></linearGradient><linearGradient
       inkscape:collect="always"
       xlink:href="#linearGradient3"
       id="linearGradient4"
       x1="99.157005"
       y1="184.01508"
       x2="135.17354"
       y2="174.1261"
       gradientUnits="userSpaceOnUse" /><linearGradient
       inkscape:collect="always"
       xlink:href="#linearGradient5"
       id="linearGradient6"
       x1="110.43925"
       y1="201.12033"
       x2="164.74715"
       y2="167.71164"
       gradientUnits="userSpaceOnUse" /><linearGradient
       inkscape:collect="always"
       xlink:href="#linearGradient11"
       id="linearGradient12"
       x1="34.477554"
       y1="68.287331"
       x2="134.70375"
       y2="105.17052"
       gradientUnits="userSpaceOnUse" /><linearGradient
       inkscape:collect="always"
       xlink:href="#linearGradient13"
       id="linearGradient14"
       x1="124.91423"
       y1="60.085823"
       x2="265.5014"
       y2="74.08667"
       gradientUnits="userSpaceOnUse" /><linearGradient
       inkscape:collect="always"
       xlink:href="#linearGradient20"
       id="linearGradient21"
       x1="59.384151"
       y1="96.756233"
       x2="216.8851"
       y2="140.97945"
       gradientUnits="userSpaceOnUse"
       gradientTransform="matrix(0.99411766,0,0,1,0.85997923,0)" /><radialGradient
       inkscape:collect="always"
       xlink:href="#linearGradient22"
       id="radialGradient23"
       cx="83.867188"
       cy="39.781593"
       fx="83.867188"
       fy="39.781593"
       r="60.29789"
       gradientTransform="matrix(0.79229368,-0.65965258,0.67128976,0.80627078,-11.91408,66.134875)"
       gradientUnits="userSpaceOnUse" /></defs><sodipodi:namedview
     id="base"
     pagecolor="#ffffff"
     bordercolor="#000000"
     borderopacity="0.3"
     inkscape:pageopacity="0.0"
     inkscape:pageshadow="2"
     inkscape:zoom="0.98994949"
     inkscape:cx="505.07627"
     inkscape:cy="476.792"
     inkscape:document-units="mm"
     inkscape:showpageshadow="2"
     inkscape:pagecheckerboard="0"
     inkscape:deskcolor="#d1d1d1"
     inkscape:current-layer="svg1"
     showguides="true"><sodipodi:guide
       position="133.63476,123.70158"
       orientation="0,-1"
       id="guide10"
       inkscape:locked="false" /><sodipodi:guide
       position="105.83333,166.79761"
       orientation="0,-1"
       id="guide14"
       inkscape:locked="false" /><sodipodi:guide
       position="111.125,155.08035"
       orientation="0,-1"
       id="guide15"
       inkscape:locked="false" /></sodipodi:namedview><metadata
     id="metadata1"><rdf:RDF><cc:Work
         rdf:about=""><dc:format>image/svg+xml</dc:format><dc:type
           rdf:resource="http://purl.org/dc/dcmitype/StillImage" /><cc:license
           rdf:resource="http://creativecommons.org/publicdomain/zero/1.0/" /></cc:Work><cc:License
         rdf:about="http://creativecommons.org/publicdomain/zero/1.0/"><cc:permits
           rdf:resource="http://creativecommons.org/ns#Reproduction" /><cc:permits
           rdf:resource="http://creativecommons.org/ns#Distribution" /><cc:permits
           rdf:resource="http://creativecommons.org/ns#DerivativeWorks" /></cc:License></rdf:RDF></metadata><g
     id="g27"
     transform="matrix(1.1625928,0,0,1.1625928,-18.449955,-22.551943)"><path
       style="color:#000000;fill:url(#linearGradient21);stroke-width:0.997055;stroke-linecap:round;stroke-linejoin:round;stroke-miterlimit:2.1;-inkscape-stroke:none"
       d="M 127.3498,44.416016 C 99.791063,44.474306 76.192179,63.714284 70.186094,90.421875 69.174639,90.081423 68.141829,89.8545 67.087244,89.853516 a 1.8103335,1.8210455 0 0 0 -0.002,0 c -4.260384,-1.97e-4 -7.932937,2.799152 -10.422703,6.851562 -2.489764,4.052412 -3.949319,9.463792 -3.949287,15.414062 6e-5,5.95017 1.459526,11.36371 3.949287,15.41602 2.489763,4.0523 6.162394,6.85176 10.422703,6.85156 a 1.8103335,1.8210455 0 0 0 0.0078,0 c 3.046449,-0.0142 5.874385,-1.53061 8.18982,-4.01758 5.411816,10.31572 13.681049,18.8241 23.934548,24.39648 v 49.9629 a 1.8103335,1.8210455 0 0 0 1.809608,1.82031 h 45.16827 a 1.8103335,1.8210455 0 0 0 1.81155,-1.82031 v -46.49024 c 13.57628,-5.07658 24.75116,-14.97696 31.47198,-27.78711 2.25377,2.28096 4.96668,3.6527 7.8675,3.66797 a 1.8103335,1.8210455 0 0 0 0.01,0 c 4.26026,-8e-5 7.93306,-2.79918 10.4227,-6.85156 2.48965,-4.05238 3.94932,-9.46592 3.94929,-15.41602 -6e-5,-5.94999 -1.45964,-11.36178 -3.94929,-15.41406 -2.48964,-4.052276 -6.1625,-6.851477 -10.4227,-6.851563 a 1.8103335,1.8210455 0 0 0 -0.0194,0 c -0.94316,0.01017 -1.87063,0.195801 -2.78043,0.478516 -6.15248,-26.581466 -29.73995,-45.644801 -57.20253,-45.648437 a 1.8103335,1.8210455 0 0 0 -0.004,0 z m 0.004,3.642578 h 0.004 c 26.49615,0.0054 49.23336,18.787397 54.2435,44.791015 a 1.8103335,1.8210455 0 0 0 2.65227,1.248047 c 1.04217,-0.579544 2.07884,-0.856662 3.11438,-0.86914 2.67316,0.0053 5.27792,1.78034 7.33162,5.123046 2.05671,3.347608 3.40752,8.158158 3.40757,13.499998 3e-5,5.34194 -1.35085,10.15229 -3.40757,13.5 -2.05672,3.34771 -4.66594,5.12495 -7.34327,5.125 -2.31902,-0.016 -4.71232,-1.38446 -6.74912,-4.2832 a 1.8103335,1.8210455 0 0 0 -3.11827,0.27734 c -6.3017,13.51437 -17.79943,23.90963 -31.88555,28.82032 a 1.8103335,1.8210455 0 0 0 -1.2174,1.7207 v 45.89648 h -41.54713 v -49.14258 a 1.8103335,1.8210455 0 0 0 -0.98247,-1.61914 C 91.011318,146.52822 82.336416,137.47702 77.183751,126.4082 a 1.8103335,1.8210455 0 0 0 -3.141568,-0.24414 c -2.072647,3.09766 -4.55841,4.56657 -6.960765,4.58008 -2.67602,-0.002 -5.283563,-1.77897 -7.339384,-5.125 -2.056797,-3.34762 -3.409458,-8.158 -3.409513,-13.5 -2.8e-5,-5.34209 1.352706,-10.15228 3.409513,-13.499999 2.056319,-3.346921 4.664587,-5.12428 7.341326,-5.125 1.120133,0.001 2.240891,0.312595 3.366797,0.978515 a 1.8103335,1.8210455 0 0 0 2.696933,-1.236328 c 4.844415,-26.143796 27.60345,-45.119599 54.2066,-45.177734 z"
       id="path20"
       inkscape:label="backgroundframe" /><path
       style="color:#000000;fill:#ffc59f;stroke-width:0.997055;stroke-linecap:round;stroke-linejoin:round;stroke-miterlimit:2.1;-inkscape-stroke:none"
       d="m 127.35399,46.237488 a 57.062047,57.062046 0 0 0 -55.986253,46.665368 12.561667,20.446119 0 0 0 -4.282943,-1.229382 12.561667,20.446119 0 0 0 -12.562023,20.446296 12.561667,20.446119 0 0 0 12.562023,20.44578 12.561667,20.446119 0 0 0 8.45995,-5.38572 57.062047,57.062046 0 0 0 25.483196,26.58494 v 50.96382 h 45.1683 v -47.7175 a 57.062047,57.062046 0 0 0 32.93185,-29.76666 12.561667,20.446119 0 0 0 8.22791,5.05395 12.561667,20.446119 0 0 0 12.56152,-20.44629 12.561667,20.446119 0 0 0 -12.56152,-20.445783 12.561667,20.446119 0 0 0 -3.97805,1.097607 57.062047,57.062046 0 0 0 -56.02396,-46.266426 z"
       id="path19"
       inkscape:label="colorhead" /><g
       id="g26"><g
         id="g2"
         inkscape:label="neck"
         transform="matrix(0.99411765,0,0,1,0.85997924,0)"><path
           id="rect3"
           style="display:inline;fill:url(#linearGradient4);stroke-width:9.05801;stroke-linecap:round;stroke-linejoin:round;stroke-miterlimit:2.1"
           inkscape:label="shadowlight"
           d="m 100.76062,153.14545 c 14.64027,9.37129 31.13242,8.56533 45.57023,3.94222 l -0.13442,47.64079 h -45.43581 z"
           sodipodi:nodetypes="ccccc" /><path
           id="rect4"
           style="fill:url(#linearGradient6);stroke-width:9.05801;stroke-linecap:round;stroke-linejoin:round;stroke-miterlimit:2.1"
           inkscape:label="shadowdark"
           d="m 100.55898,153.54633 c 21.98753,11.47838 33.87638,5.58955 45.63745,3.67496 v 47.50716 h -45.43581 z"
           sodipodi:nodetypes="ccccc" /></g><g
         id="g6"
         inkscape:label="head"><path
           id="path10"
           style="fill:url(#linearGradient14);fill-opacity:1;stroke-width:9.05801;stroke-linecap:round;stroke-linejoin:round;stroke-miterlimit:2.1"
           d="M 127.35398,46.237488 A 57.062046,57.062046 0 0 0 71.367737,92.902856 12.561667,20.446119 0 0 0 67.084794,91.673474 12.561667,20.446119 0 0 0 54.52277,112.11977 a 12.561667,20.446119 0 0 0 12.562024,20.44578 12.561667,20.446119 0 0 0 8.459949,-5.38572 57.062046,57.062046 0 0 0 51.809237,33.18196 57.062046,57.062046 0 0 0 51.7741,-33.11736 12.561667,20.446119 0 0 0 8.22793,5.05395 12.561667,20.446119 0 0 0 12.5615,-20.44629 12.561667,20.446119 0 0 0 -12.5615,-20.445783 12.561667,20.446119 0 0 0 -3.97806,1.097607 57.062046,57.062046 0 0 0 -56.02397,-46.266426 z"
           inkscape:label="shadowdark" /><path
           id="path11"
           style="fill:url(#linearGradient12);fill-opacity:1;stroke-width:9.05801;stroke-linecap:round;stroke-linejoin:round;stroke-miterlimit:2.1"
           d="M 127.35398,46.237488 A 57.062046,57.062046 0 0 0 71.367737,92.902856 12.561667,20.446119 0 0 0 67.084794,91.673474 12.561667,20.446119 0 0 0 54.52277,112.11977 a 12.561667,20.446119 0 0 0 12.562024,20.44578 12.561667,20.446119 0 0 0 8.459949,-5.38572 57.062046,57.062046 0 0 0 51.809237,33.18196 57.062046,57.062046 0 0 0 51.7741,-33.11736 12.561667,20.446119 0 0 0 8.22793,5.05395 12.561667,20.446119 0 0 0 12.5615,-20.44629 12.561667,20.446119 0 0 0 -12.5615,-20.445783 12.561667,20.446119 0 0 0 -3.97806,1.097607 57.062046,57.062046 0 0 0 -56.02397,-46.266426 z"
           inkscape:label="shadowlight" /></g><g
         id="rect1"
         inkscape:label="body"><path
           style="color:#000000;fill:#7984bd;stroke-linecap:round;stroke-linejoin:round;stroke-miterlimit:2.1;-inkscape-stroke:none"
           d="m 55.859325,198.58126 c 8.842502,-13.83948 44.708365,-20.7039 44.708365,-20.7039 -0.45892,18.11441 12.31773,21.75057 22.91083,22.04024 10.12456,0.27686 21.41446,-5.26893 23.01597,-19.83723 0,0 36.3252,5.64405 44.72659,18.50089 7.35884,11.2614 0,40.3577 0,40.3577 l -135.361755,0 c 0,0 -7.243074,-29.0215 0,-40.3577 z"
           id="path17"
           sodipodi:nodetypes="scscsccs" /><path
           id="path18"
           style="color:#000000;fill:#2e5787;stroke-linecap:round;stroke-linejoin:round;stroke-miterlimit:2.1;-inkscape-stroke:none"
           inkscape:label="frame"
           d="m 100.74941,176.20837 c -0.16596,-0.0181 -0.33369,-0.0113 -0.49765,0.0202 0,0 -9.066488,1.73285 -19.265489,5.22242 -10.199001,3.48957 -21.633045,8.54541 -26.541015,16.22692 -4.108256,6.42987 -3.891775,16.70134 -2.972429,25.50748 0.919347,8.80614 2.757455,16.16026 2.757455,16.16026 0.186922,0.74738 0.858443,1.27168 1.628841,1.27175 l 135.820777,0 c 0.7686,6.5e-4 1.43953,-0.52063 1.62885,-1.26555 0,0 1.86665,-7.37452 2.80086,-16.19178 0.93422,-8.81727 1.15823,-19.09813 -3.02359,-25.49767 -4.7031,-7.19725 -18.5057,-11.69269 -28.13485,-14.75207 -9.62915,-3.05938 -18.17977,-4.48655 -18.17977,-4.48655 l -0.31264,3.36197 c 1.96326,0.35457 9.48744,1.78609 17.4749,4.32387 9.36936,2.97685 22.64392,7.73084 26.3422,13.3904 3.177,4.86183 3.39939,14.76039 2.4939,23.30659 -0.78225,7.38296 -2.05648,12.85895 -2.43913,14.45338 l -133.117585,0 c -0.378537,-1.59914 -1.63111,-7.05543 -2.40037,-14.42393 -0.891418,-8.53863 -0.67397,-18.44523 2.460832,-23.35155 3.934516,-6.15794 14.854487,-11.45292 24.799003,-14.85542 8.329227,-2.84984 16.663873,-4.15833 18.90411,-4.62075 z"
           sodipodi:nodetypes="ccsssccccsssccsssccssscc" /></g><g
         id="g25"
         inkscape:label="hair"><path
           id="path14"
           style="stroke-width:9.05801;stroke-linecap:round;stroke-linejoin:round;stroke-miterlimit:2.1"
           d="M 182.18452,103.37648 C 162.84473,31.10727 139.88287,69.750499 129.45683,69.92559 c -6.95652,0.116825 -15.66809,5.16601 -12.67726,6.875058 -4.09724,-5.593727 2.45799,-7.953541 1.36999,-8.185199 -5.51709,-1.174707 -12.98371,7.065537 -11.1526,10.626039 -2.18239,0.0704 -2.15109,-13.055176 1.76265,-13.822093 6.04973,-1.185476 -10.295072,-4.875309 -14.221552,-5.207516 -7.85296,-0.664415 -12.98027,7.326732 -18.56485,42.219661 -17.27184,-4.571958 -13.24961,-79.380825 50.081842,-82.020834 63.14677,-2.632311 69.04216,79.276437 56.12947,82.965774 z"
           sodipodi:nodetypes="cscscsscsc"
           inkscape:label="color" /><path
           id="path21"
           style="fill:url(#radialGradient23);fill-opacity:1;stroke-width:9.05801;stroke-linecap:round;stroke-linejoin:round;stroke-miterlimit:2.1"
           d="M 182.18452,103.37648 C 162.84473,31.10727 139.88287,69.750499 129.45683,69.92559 c -6.95652,0.116825 -15.66809,5.16601 -12.67726,6.875058 -4.09724,-5.593727 2.45799,-7.953541 1.36999,-8.185199 -5.51709,-1.174707 -12.98371,7.065537 -11.1526,10.626039 -2.18239,0.0704 -2.15109,-13.055176 1.76265,-13.822093 6.04973,-1.185476 -10.295072,-4.875309 -14.221552,-5.207516 -7.85296,-0.664415 -12.98027,7.326732 -18.56485,42.219661 -17.27184,-4.571958 -13.24961,-79.380825 50.081842,-82.020834 63.14677,-2.632311 69.04216,79.276437 56.12947,82.965774 z"
           sodipodi:nodetypes="cscscsscsc"
           inkscape:label="path14" /></g></g></g></svg>
