<?xml version="1.0" encoding="UTF-8" standalone="no"?>
<svg
   width="256"
   height="256"
   version="1.1"
   id="svg22"
   sodipodi:docname="usergroup.svg"
   viewBox="0 0 256 256"
   inkscape:version="1.4.2 (ebf0e940d0, 2025-05-08)"
   xml:space="preserve"
   xmlns:inkscape="http://www.inkscape.org/namespaces/inkscape"
   xmlns:sodipodi="http://sodipodi.sourceforge.net/DTD/sodipodi-0.dtd"
   xmlns:xlink="http://www.w3.org/1999/xlink"
   xmlns="http://www.w3.org/2000/svg"
   xmlns:svg="http://www.w3.org/2000/svg"
   xmlns:rdf="http://www.w3.org/1999/02/22-rdf-syntax-ns#"
   xmlns:cc="http://creativecommons.org/ns#"
   xmlns:dc="http://purl.org/dc/elements/1.1/"><sodipodi:namedview
     id="namedview22"
     pagecolor="#ffffff"
     bordercolor="#000000"
     borderopacity="0.25"
     inkscape:showpageshadow="2"
     inkscape:pageopacity="0.0"
     inkscape:pagecheckerboard="0"
     inkscape:deskcolor="#d1d1d1"
     inkscape:zoom="0.55815641"
     inkscape:cx="113.76739"
     inkscape:cy="194.38996"
     inkscape:current-layer="svg22" /><defs
     id="defs13"><linearGradient
       id="a"><stop
         offset="0"
         id="stop1" /><stop
         stop-opacity="0"
         offset="1"
         id="stop2" /></linearGradient><linearGradient
       id="o"
       y2="26.52"
       xlink:href="#c"
       gradientUnits="userSpaceOnUse"
       x2="49.400002"
       gradientTransform="matrix(1.208,0,0,1.208,-15.4,-12.01)"
       y1="16.209999"
       x1="14.27" /><linearGradient
       id="c"><stop
         stop-color="#fce94f"
         offset="0"
         id="stop3" /><stop
         stop-color="#8f5902"
         offset=".5"
         id="stop4" /><stop
         stop-color="#c4a000"
         offset="1"
         id="stop5" /></linearGradient><radialGradient
       id="i"
       xlink:href="#a"
       gradientUnits="userSpaceOnUse"
       cy="19"
       cx="31.1"
       gradientTransform="matrix(1.776,0,0,0.959,-37.8,12.93)"
       r="8.6599998" /><radialGradient
       id="h"
       gradientUnits="userSpaceOnUse"
       cy="27.200001"
       cx="28.1"
       gradientTransform="matrix(1.298,0,0,0.885,-21.91,-0.9014)"
       r="13.57"><stop
         stop-color="#be0000"
         offset="0"
         id="stop6" /><stop
         stop-color="#780000"
         offset="1"
         id="stop7" /></radialGradient><linearGradient
       id="s"
       y2="39.759998"
       xlink:href="#a"
       gradientUnits="userSpaceOnUse"
       x2="23.540001"
       gradientTransform="translate(-15.18,-8.531)"
       y1="39"
       x1="21.68" /><linearGradient
       id="r"
       y2="38.200001"
       xlink:href="#a"
       gradientUnits="userSpaceOnUse"
       x2="43.299999"
       gradientTransform="translate(-15.18,-8.531)"
       y1="39.099998"
       x1="42.200001" /><radialGradient
       id="g"
       xlink:href="#a"
       gradientUnits="userSpaceOnUse"
       cy="23.790001"
       cx="32.75"
       gradientTransform="translate(-15.18,-8.531)"
       r="8.5100002" /><radialGradient
       id="f"
       gradientUnits="userSpaceOnUse"
       cy="20.23"
       cx="32.299999"
       gradientTransform="translate(-15.18,-8.531)"
       r="6.6399999"><stop
         stop-color="#f5e2c3"
         offset="0"
         id="stop8" /><stop
         stop-color="#df9929"
         offset="1"
         id="stop9" /></radialGradient><linearGradient
       id="q"
       gradientUnits="userSpaceOnUse"
       y1="29.790001"
       gradientTransform="translate(-15.18,-8.531)"
       x2="0"
       y2="21.809999"><stop
         stop-color="#8f5902"
         stop-opacity="0"
         offset="0"
         id="stop10" /><stop
         stop-color="#653f01"
         offset="1"
         id="stop11" /></linearGradient><linearGradient
       id="n"
       y2="15"
       xlink:href="#c"
       gradientUnits="userSpaceOnUse"
       x2="40.700001"
       gradientTransform="matrix(1.097,0,0,1.178,-11.84,-11.5)"
       y1="19.84"
       x1="35.299999" /><linearGradient
       id="m"
       x1="27.709999"
       xlink:href="#c"
       gradientUnits="userSpaceOnUse"
       x2="33.66"
       gradientTransform="matrix(1.097,0,0,1.178,-11.84,-11.5)"
       y1="13.53"
       y2="23.32" /><radialGradient
       id="b"
       gradientUnits="userSpaceOnUse"
       cy="17.860001"
       cx="29.200001"
       gradientTransform="matrix(0.6817,0.142,-0.08398,0.4298,10.58,19.72)"
       r="8.6599998"><stop
         stop-color="#f9adad"
         stop-opacity=".3"
         offset="0"
         id="stop12" /><stop
         stop-color="#868686"
         stop-opacity="0"
         offset="1"
         id="stop13" /></radialGradient><radialGradient
       inkscape:collect="always"
       xlink:href="#b"
       id="radialGradient22"
       gradientUnits="userSpaceOnUse"
       gradientTransform="matrix(0.6817,0.142,-0.08398,0.4298,-3.92,19.72)"
       cx="29.200001"
       cy="17.860001"
       r="8.6599998" /><radialGradient
       inkscape:collect="always"
       xlink:href="#b"
       id="radialGradient23"
       gradientUnits="userSpaceOnUse"
       gradientTransform="matrix(0.44399121,0.0924846,-0.05469617,0.27992874,2.844504,15.505636)"
       cx="29.200001"
       cy="17.860001"
       r="8.6599998" /><radialGradient
       inkscape:collect="always"
       xlink:href="#b"
       id="radialGradient24"
       gradientUnits="userSpaceOnUse"
       gradientTransform="matrix(0.6817,0.142,-0.08398,0.4298,10.58,19.72)"
       cx="29.200001"
       cy="17.860001"
       r="8.6599998" /><linearGradient
       id="swatch1"
       inkscape:swatch="solid"><stop
         style="stop-color:#ff0707;stop-opacity:1;"
         offset="0"
         id="stop1-3" /></linearGradient><radialGradient
       id="f-6"
       xlink:href="#a"
       gradientUnits="userSpaceOnUse"
       cy="19.01"
       cx="31.110001"
       gradientTransform="matrix(1.776,0,0,0.584,-24.25,28.28)"
       r="8.6619997" /><radialGradient
       id="h-5"
       gradientUnits="userSpaceOnUse"
       cy="27.200001"
       cx="28.09"
       gradientTransform="matrix(1.298,0,0,0.8848,-8.358,4.941)"
       r="13.56"><stop
         stop-color="#3b74bc"
         offset="0"
         id="stop7-3" /><stop
         stop-color="#2d5990"
         offset="1"
         id="stop8-5" /></radialGradient><linearGradient
       id="m-6"
       xlink:href="#c-2"
       gradientUnits="userSpaceOnUse"
       x2="0"
       y1="29.549999"
       y2="35.799999" /><linearGradient
       id="c-2"><stop
         stop-color="#fff"
         offset="0"
         id="stop5-9" /><stop
         stop-color="#c9c9c9"
         offset="1"
         id="stop6-1" /></linearGradient><radialGradient
       id="i-2"
       xlink:href="#a"
       gradientUnits="userSpaceOnUse"
       cy="22.51"
       cx="30.99"
       r="8.6619997" /><linearGradient
       id="l-7"
       x1="20.049999"
       xlink:href="#a"
       gradientUnits="userSpaceOnUse"
       x2="21.91"
       y1="36.32"
       y2="37.07" /><linearGradient
       id="k"
       x1="40.57"
       xlink:href="#a"
       gradientUnits="userSpaceOnUse"
       x2="41.689999"
       y1="36.400002"
       y2="35.490002" /><radialGradient
       id="g-0"
       gradientUnits="userSpaceOnUse"
       cy="17.059999"
       cx="29.34"
       r="7.2199998"><stop
         stop-color="#f4d9b1"
         offset="0"
         id="stop13-9" /><stop
         stop-color="#df9725"
         offset="1"
         id="stop14" /></radialGradient><linearGradient
       id="linearGradient3800"><stop
         style="stop-color:#f4d9b1;stop-opacity:1.0000000;"
         offset="0.0000000"
         id="stop3802" /><stop
         style="stop-color:#df9725;stop-opacity:1.0000000;"
         offset="1.0000000"
         id="stop3804" /></linearGradient><radialGradient
       inkscape:collect="always"
       xlink:href="#a"
       id="radialGradient13779"
       gradientUnits="userSpaceOnUse"
       cx="31.112698"
       cy="19.008621"
       fx="31.112698"
       fy="19.008621"
       r="8.6620579" /><linearGradient
       inkscape:collect="always"
       xlink:href="#c-2"
       id="linearGradient13783"
       gradientUnits="userSpaceOnUse"
       x1="30.935921"
       y1="29.553486"
       x2="30.935921"
       y2="35.803486" /><radialGradient
       inkscape:collect="always"
       xlink:href="#a"
       id="radialGradient13785"
       gradientUnits="userSpaceOnUse"
       cx="31.112698"
       cy="19.008621"
       fx="31.112698"
       fy="19.008621"
       r="8.6620579" /><radialGradient
       inkscape:collect="always"
       xlink:href="#linearGradient3800"
       id="radialGradient13787"
       gradientUnits="userSpaceOnUse"
       gradientTransform="matrix(0.787998,0,0,0.787998,6.221198,3.617627)"
       cx="29.344931"
       cy="17.064077"
       fx="29.344931"
       fy="17.064077"
       r="9.1620579" /><linearGradient
       inkscape:collect="always"
       xlink:href="#a"
       id="linearGradient13789"
       gradientUnits="userSpaceOnUse"
       gradientTransform="rotate(10.462267,17.595978,32.706913)"
       x1="20.661695"
       y1="35.817974"
       x2="22.626925"
       y2="36.217758" /><linearGradient
       inkscape:collect="always"
       xlink:href="#a"
       id="linearGradient13791"
       gradientUnits="userSpaceOnUse"
       gradientTransform="matrix(-0.977685,0.210075,0.210075,0.977685,55.5471,-4.007709)"
       x1="22.686766"
       y1="36.3904"
       x2="21.408455"
       y2="35.739632" /></defs><g
     id="g23"
     transform="matrix(4.336356,0,0,4.336356,-10.680348,7.9649137)"><path
       stroke-linejoin="round"
       d="m 17.87,28.64 -6.848,-1.691 c 0,0 0.3744,-13.71 3.225,-18.12 2.85,-4.421 6.208,-5.484 6.208,-5.484 0,0 5.496,-1.933 7.489,0.5677 0.8213,1.027 3.249,0.3865 4.831,2.5 1.582,2.1135 4.976,13.72 4.517,20.53 l -11.37,1.848 -8.056,0.2416 v -0.3986 z"
       stroke="#8f5902"
       stroke-width="1.235"
       fill="url(#o)"
       id="path13"
       style="fill:url(#o)" /><g
       fill-rule="evenodd"
       transform="matrix(1.235,0,0,1.235,2.455,-2.287)"
       id="g14"><ellipse
         rx="15.38"
         ry="8.3100004"
         cy="31.16"
         cx="17.440001"
         fill="url(#i)"
         id="ellipse13"
         style="fill:url(#i)" /><ellipse
         stroke-linejoin="round"
         stroke-linecap="round"
         rx="7.8800001"
         ry="7.8899999"
         stroke="#8f5902"
         cy="13.23"
         cx="17.57"
         stroke-width="0.8"
         fill="#8f5902"
         id="ellipse14" /><path
         stroke-linejoin="round"
         d="m 12.44,35.77 h 10.61 c 3,0 5.98,-1.1 7.1,-4.24 1.04,-2.98 0.18,-8.66 -6.54,-13.26 H 11.06 c -6.72,4.24 -7.56,10 -6,13.44 1.58,3.45 4.24,4.07 7.43,4.07 z"
         stroke="#cc0000"
         stroke-linecap="round"
         fill="url(#h)"
         id="path14"
         style="fill:url(#h)" /></g><path
       opacity="0.3"
       stroke-linejoin="round"
       d="m 17.86,40.65 13.15,-0.0247 c 3.507,0 6.311,-1.025 7.583,-4.668 1.136,-3.285 -0.3211,-9.534 -7.719,-14.6 l -14.04,-0.31 c -7.398,4.668 -8.818,11.05 -7.089,15.09 1.729,4.038 4.261,4.471 8.114,4.508 z"
       stroke="#ffffff"
       stroke-linecap="round"
       stroke-width="1.235"
       fill="none"
       id="path15" /><g
       fill-rule="evenodd"
       transform="matrix(1.235,0,0,1.235,2.455,-2.287)"
       id="g18"><path
         opacity="0.23"
         fill="url(#s)"
         d="m 8.296,34.97 c -1.25,-0.55 -1.81,-1.86 -1.81,-1.86 0.84,-4.07 3.72,-7 3.72,-7 0,0 -2.28,6.41 -1.91,8.9"
         id="path16"
         style="fill:url(#s)" /><path
         opacity="0.23"
         fill="url(#r)"
         d="m 27.22,34.07 c 1.23,-0.58 1.8,-2 1.8,-2 -0.96,-4 -3.98,-6.84 -3.98,-6.84 0,0 2.47,6.34 2.17,8.84"
         id="path17"
         style="fill:url(#r)" /><circle
         cy="15.26"
         cx="17.57"
         r="8.5100002"
         fill="url(#g)"
         id="circle17"
         style="fill:url(#g)" /><circle
         stroke-linejoin="round"
         stroke-linecap="round"
         stroke="url(#q)"
         cy="13.23"
         cx="17.57"
         r="7.6199999"
         fill="url(#f)"
         id="circle18"
         style="fill:url(#f);stroke:url(#q)" /></g><g
       stroke-linejoin="round"
       id="g20"><g
         transform="matrix(1.235,0,0,1.235,2.455,-2.287)"
         id="g19"><circle
           opacity="0.2"
           stroke-width="0.8"
           stroke-linecap="round"
           stroke="#ffffff"
           cy="13.23"
           cx="17.57"
           r="6.8099999"
           fill="none"
           id="circle19" /></g><path
         d="m 27.03,6.442 c -0.8228,-0.1885 6.561,8.177 8.283,8.507 0.4279,0.08247 -2.073,-8.754 -4.345,-9.285 L 28.725,5.1453 Z"
         stroke="#8f5902"
         stroke-width="0.9543"
         fill="url(#n)"
         id="path19"
         style="fill:url(#n)" /><path
         d="m 28.72,5.111 c 0.9435,0 -10.76,9.755 -14.15,8.719 -3.291,-1.013 1.426,-8.035 4.137,-9.237 0,0 3.62,-1.626 5.299,-1.685 2.721,-0.08247 4.707,2.203 4.707,2.203 z"
         stroke="#8f5902"
         stroke-width="0.9661"
         fill="url(#m)"
         id="path20"
         style="fill:url(#m)" /></g><path
       opacity="0.5"
       fill="#ffffff"
       d="m 28.85,7.467 c -0.02194,0.03535 3.675,4.913 5.101,5.655 1.394,0.7305 -0.2743,-2.356 -0.8448,-3.971 l 1.206,3.935 c -1.69,-1.09 -3.58,-3.432 -5.47,-5.612 m -14.62,4.736 c 0.2852,0.7069 0.746,0.9426 1.24,0.9426 0.8338,-0.0012 3.785,-1.383 5.584,-2.297 0,0 -0.9194,0.8568 -3.08,1.835 -1.042,0.4713 -3.041,1.736 -4.116,-0.03205 -1.081,-1.786 3.954,-9.268 9.285,-9.005 -4.849,0.4187 -9.65,6.586 -8.913,8.556 z"
       id="path21" /><ellipse
       id="l"
       fill-rule="evenodd"
       rx="4.9400001"
       ry="4.0630002"
       cy="32.009998"
       cx="34"
       fill="url(#b)"
       style="fill:url(#radialGradient24)" /><ellipse
       id="use21"
       fill-rule="evenodd"
       rx="4.9400001"
       ry="4.0630002"
       cy="32.009998"
       cx="19.5"
       fill="url(#b)"
       style="fill:url(#radialGradient22)" /><ellipse
       id="use22"
       fill-rule="evenodd"
       rx="3.217422"
       ry="2.6462321"
       cy="23.510113"
       cx="18.09795"
       fill="url(#b)"
       style="fill:url(#radialGradient23);stroke-width:0.6513" /></g><metadata
     id="metadata24"><rdf:RDF><cc:Work
         rdf:about=""><dc:source>https://commons.wikimedia.org/wiki/File:User_icon_3.svg</dc:source><cc:license
           rdf:resource="http://creativecommons.org/publicdomain/zero/1.0/" /></cc:Work><cc:License
         rdf:about="http://creativecommons.org/publicdomain/zero/1.0/"><cc:permits
           rdf:resource="http://creativecommons.org/ns#Reproduction" /><cc:permits
           rdf:resource="http://creativecommons.org/ns#Distribution" /><cc:permits
           rdf:resource="http://creativecommons.org/ns#DerivativeWorks" /></cc:License></rdf:RDF></metadata><g
     id="g28"
     style="display:inline"
     inkscape:label="u1"
     transform="matrix(5.0116415,0,0,5.0116415,20.897618,-3.6045166)"><ellipse
       rx="15.38"
       ry="5.059"
       cy="39.380001"
       cx="30.99"
       fill="url(#f)"
       id="ellipse19"
       style="fill:url(#f-6)" /><path
       stroke-linejoin="round"
       d="M 25.99,41.64 H 36.6 c 3.01,0 5.98,-1.102 7.07,-4.243 1.036,-2.983 0.177,-8.662 -6.541,-13.26 h -12.56 c -6.718,4.243 -7.557,10.04 -6.01,13.44 1.576,3.454 4.243,4.066 7.425,4.066 z"
       stroke="#204a87"
       stroke-linecap="round"
       fill="url(#h)"
       id="path20-3"
       style="fill:url(#h-5)" /><path
       fill="url(#m)"
       d="m 26.69,25.73 c 3.182,2.828 4.596,13.08 4.596,13.08 0,0 1.414,-10.25 3.889,-13.26 l -8.49,0.17"
       id="path21-6"
       style="fill:url(#m-6)" /><path
       fill="#729fcf"
       d="m 28.97,26.79 c 0,0 -2.151,1.66 -1.966,3.66 -2.041,-1.801 -2.1,-5.252 -2.1,-5.252 l 4.066,1.591"
       id="path22" /><path
       opacity="0.215"
       stroke-linejoin="round"
       d="M 25.91,40.59 36.4,40.568 c 2.64,0 5.253,-0.968 6.211,-3.727 0.91,-2.62 -0.095,-7.609 -5.995,-11.65 l -11.52,-0.23 c -5.901,3.727 -7.04,8.823 -5.662,12.04 1.381,3.221 3.395,3.571 6.477,3.593 z"
       stroke="#ffffff"
       stroke-linecap="round"
       fill="none"
       id="path23" /><path
       fill="#729fcf"
       d="m 33.41,26.79 c 0,0 2.151,1.66 1.966,3.66 2.041,-1.801 2.1,-5.252 2.1,-5.252 l -4.07,1.59"
       id="path24" /><circle
       cy="22.51"
       cx="30.99"
       r="8.6619997"
       fill="url(#i)"
       id="circle24"
       style="fill:url(#i-2)" /><path
       opacity="0.228"
       d="m 21.85,40.78 c -1.248,-0.545 -1.806,-1.858 -1.806,-1.858 0.841,-4.069 3.72,-7.05 3.72,-7.05 0,0 -2.279,6.411 -1.914,8.904"
       fill="url(#l)"
       id="path26"
       style="fill:url(#l-7)" /><path
       opacity="0.228"
       d="m 40.76,39.92 c 1.231,-0.581 1.804,-2 1.804,-2 -0.959,-4.04 -3.976,-6.843 -3.976,-6.843 0,0 2.465,6.343 2.172,8.845"
       fill="url(#k)"
       id="path27"
       style="fill:url(#k)" /><circle
       stroke="#c17d11"
       cy="19.01"
       cx="31.110001"
       r="8.6619997"
       fill="url(#g)"
       id="circle25"
       style="fill:url(#g-0)" /><circle
       opacity="0.196"
       stroke="#ffffff"
       cy="19.01"
       cx="31.110001"
       r="7.5970001"
       fill="none"
       id="circle26" /></g><g
     style="display:inline"
     id="g1934"
     transform="matrix(3.916366,0,0,3.916366,-28.561006,66.738361)"><circle
       id="path4306"
       style="color:#000000;display:inline;overflow:visible;visibility:visible;fill:url(#radialGradient13779);fill-opacity:1;fill-rule:evenodd;stroke:none;stroke-width:1px;marker:none"
       transform="matrix(1.77551,0,0,0.959183,-24.25322,18.77153)"
       cx="31.112698"
       cy="19.008621"
       r="8.6620579" /><path
       sodipodi:nodetypes="cczcczc"
       id="path4308"
       d="m 25.986174,41.636039 h 10.606602 c 3.005204,0 5.980484,-1.101932 7.071067,-4.242641 1.035639,-2.982476 0.176777,-8.662058 -6.540737,-13.258252 H 24.57196 c -6.717514,4.24264 -7.556991,10.044831 -6.010407,13.435028 1.575595,3.45379 4.24264,4.065865 7.424621,4.065865 z"
       style="color:#000000;display:inline;overflow:visible;visibility:visible;fill:#f57900;fill-opacity:1;fill-rule:evenodd;stroke:#ce5c00;stroke-width:1px;stroke-linecap:round;stroke-linejoin:round;stroke-miterlimit:4;stroke-dasharray:none;stroke-dashoffset:0;stroke-opacity:1;marker:none"
       inkscape:connector-curvature="0" /><path
       sodipodi:nodetypes="cccc"
       id="path4310"
       d="m 26.693281,25.726136 c 3.18198,2.828427 4.596194,13.081476 4.596194,13.081476 0,0 1.414213,-10.253048 3.889087,-13.258252 z"
       style="color:#000000;display:inline;overflow:visible;visibility:visible;fill:url(#linearGradient13783);fill-opacity:1;fill-rule:evenodd;stroke:none;stroke-width:1px;marker:none"
       inkscape:connector-curvature="0" /><path
       style="color:#000000;display:inline;overflow:visible;visibility:visible;fill:#fdd69c;fill-opacity:1;fill-rule:evenodd;stroke:none;stroke-width:1px;marker:none"
       d="m 28.972721,26.786797 c 0,0 -2.151323,1.660335 -1.965991,3.660533 -2.041226,-1.800794 -2.099873,-5.251524 -2.099873,-5.251524 z"
       id="path4312"
       sodipodi:nodetypes="cccc"
       inkscape:connector-curvature="0" /><path
       style="color:#000000;display:inline;overflow:visible;visibility:visible;opacity:0.5;fill:none;stroke:#ffffff;stroke-width:1px;stroke-linecap:round;stroke-linejoin:round;stroke-miterlimit:4;stroke-dasharray:none;stroke-dashoffset:0;stroke-opacity:1;marker:none"
       d="m 25.914862,40.593933 10.493447,-0.0221 c 2.639723,0 5.315661,-0.749169 6.273612,-3.507917 0.909689,-2.61976 0.03028,-7.827364 -5.870279,-11.864587 L 25.099417,24.956264 c -5.900557,3.726667 -7.04262,8.823219 -5.662029,12.044182 1.380592,3.220963 3.395211,3.57139 6.477474,3.593487 z"
       id="path4314"
       sodipodi:nodetypes="cczcczc"
       inkscape:connector-curvature="0" /><path
       sodipodi:nodetypes="cccc"
       id="path4316"
       d="m 33.410795,26.786797 c 0,0 2.151323,1.660335 1.965991,3.660533 2.041226,-1.800794 2.099873,-5.251524 2.099873,-5.251524 z"
       style="color:#000000;display:inline;overflow:visible;visibility:visible;fill:#fdd69c;fill-opacity:1;fill-rule:evenodd;stroke:none;stroke-width:1px;marker:none"
       inkscape:connector-curvature="0" /><circle
       transform="translate(-0.125,3)"
       style="color:#000000;display:inline;overflow:visible;visibility:visible;fill:url(#radialGradient13785);fill-opacity:1;fill-rule:evenodd;stroke:none;stroke-width:1px;marker:none"
       id="path4318"
       cx="31.112698"
       cy="19.008621"
       r="8.6620579" /><circle
       id="path4320"
       style="color:#000000;display:inline;overflow:visible;visibility:visible;fill:url(#radialGradient13787);fill-opacity:1;fill-rule:evenodd;stroke:#c17d11;stroke-width:1px;stroke-linecap:round;stroke-linejoin:round;stroke-miterlimit:4;stroke-dasharray:none;stroke-dashoffset:0;stroke-opacity:1;marker:none"
       cx="31.112698"
       cy="19.008621"
       r="8.6620579" /><circle
       transform="matrix(0.877095,0,0,0.877095,3.823927,2.336267)"
       style="color:#000000;display:inline;overflow:visible;visibility:visible;opacity:0.196203;fill:none;stroke:#ffffff;stroke-width:1.14013px;stroke-linecap:round;stroke-linejoin:round;stroke-miterlimit:4;stroke-dasharray:none;stroke-dashoffset:0;stroke-opacity:1;marker:none"
       id="path4322"
       cx="31.112698"
       cy="19.008621"
       r="8.6620579" /><path
       sodipodi:nodetypes="cccc"
       id="path4354"
       d="m 21.85179,40.775197 c -1.247607,-0.544969 -1.805994,-1.858277 -1.805994,-1.858277 0.841281,-4.069136 3.719925,-7.046216 3.719925,-7.046216 0,0 -2.279321,6.411514 -1.913931,8.904493 z"
       style="color:#000000;display:inline;overflow:visible;visibility:visible;opacity:0.227848;fill:url(#linearGradient13789);fill-opacity:1;fill-rule:evenodd;stroke:none;stroke-width:1px;marker:none"
       inkscape:connector-curvature="0" /><path
       style="color:#000000;display:inline;overflow:visible;visibility:visible;opacity:0.227848;fill:url(#linearGradient13791);fill-opacity:1;fill-rule:evenodd;stroke:none;stroke-width:1px;marker:none"
       d="m 41.194997,39.854346 c 1.340626,-0.862228 1.788755,-2.142946 1.788755,-2.142946 -0.95912,-4.042983 -3.960524,-6.702196 -3.960524,-6.702196 0,0 2.464593,6.342602 2.171769,8.845142 z"
       id="path4364"
       sodipodi:nodetypes="cccc"
       inkscape:connector-curvature="0" /></g></svg>
