<?xml version="1.0" encoding="UTF-8" standalone="no"?>
<svg
   width="256"
   height="256"
   version="1.1"
   id="svg22"
   sodipodi:docname="user0.svg"
   viewBox="0 0 256 256"
   inkscape:version="1.4.2 (ebf0e940d0, 2025-05-08)"
   xmlns:inkscape="http://www.inkscape.org/namespaces/inkscape"
   xmlns:sodipodi="http://sodipodi.sourceforge.net/DTD/sodipodi-0.dtd"
   xmlns:xlink="http://www.w3.org/1999/xlink"
   xmlns="http://www.w3.org/2000/svg"
   xmlns:svg="http://www.w3.org/2000/svg"
   xmlns:rdf="http://www.w3.org/1999/02/22-rdf-syntax-ns#"
   xmlns:cc="http://creativecommons.org/ns#"
   xmlns:dc="http://purl.org/dc/elements/1.1/">
  <sodipodi:namedview
     id="namedview22"
     pagecolor="#ffffff"
     bordercolor="#000000"
     borderopacity="0.25"
     inkscape:showpageshadow="2"
     inkscape:pageopacity="0.0"
     inkscape:pagecheckerboard="0"
     inkscape:deskcolor="#d1d1d1"
     inkscape:zoom="2.1672335"
     inkscape:cx="119.27649"
     inkscape:cy="154.80565"
     inkscape:current-layer="svg22" />
  <defs
     id="defs13">
    <linearGradient
       id="a">
      <stop
         offset="0"
         id="stop1" />
      <stop
         stop-opacity="0"
         offset="1"
         id="stop2" />
    </linearGradient>
    <linearGradient
       id="o"
       y2="26.52"
       xlink:href="#c"
       gradientUnits="userSpaceOnUse"
       x2="49.400002"
       gradientTransform="matrix(1.208,0,0,1.208,-15.4,-12.01)"
       y1="16.209999"
       x1="14.27" />
    <linearGradient
       id="c">
      <stop
         stop-color="#fce94f"
         offset="0"
         id="stop3" />
      <stop
         stop-color="#8f5902"
         offset=".5"
         id="stop4" />
      <stop
         stop-color="#c4a000"
         offset="1"
         id="stop5" />
    </linearGradient>
    <radialGradient
       id="i"
       xlink:href="#a"
       gradientUnits="userSpaceOnUse"
       cy="19"
       cx="31.1"
       gradientTransform="matrix(1.776,0,0,0.959,-37.8,12.93)"
       r="8.6599998" />
    <radialGradient
       id="h"
       gradientUnits="userSpaceOnUse"
       cy="27.200001"
       cx="28.1"
       gradientTransform="matrix(1.298,0,0,0.885,-21.91,-0.9014)"
       r="13.57">
      <stop
         stop-color="#be0000"
         offset="0"
         id="stop6" />
      <stop
         stop-color="#780000"
         offset="1"
         id="stop7" />
    </radialGradient>
    <linearGradient
       id="s"
       y2="39.759998"
       xlink:href="#a"
       gradientUnits="userSpaceOnUse"
       x2="23.540001"
       gradientTransform="translate(-15.18,-8.531)"
       y1="39"
       x1="21.68" />
    <linearGradient
       id="r"
       y2="38.200001"
       xlink:href="#a"
       gradientUnits="userSpaceOnUse"
       x2="43.299999"
       gradientTransform="translate(-15.18,-8.531)"
       y1="39.099998"
       x1="42.200001" />
    <radialGradient
       id="g"
       xlink:href="#a"
       gradientUnits="userSpaceOnUse"
       cy="23.790001"
       cx="32.75"
       gradientTransform="translate(-15.18,-8.531)"
       r="8.5100002" />
    <radialGradient
       id="f"
       gradientUnits="userSpaceOnUse"
       cy="20.23"
       cx="32.299999"
       gradientTransform="translate(-15.18,-8.531)"
       r="6.6399999">
      <stop
         stop-color="#f5e2c3"
         offset="0"
         id="stop8" />
      <stop
         stop-color="#df9929"
         offset="1"
         id="stop9" />
    </radialGradient>
    <linearGradient
       id="q"
       gradientUnits="userSpaceOnUse"
       y1="29.790001"
       gradientTransform="translate(-15.18,-8.531)"
       x2="0"
       y2="21.809999">
      <stop
         stop-color="#8f5902"
         stop-opacity="0"
         offset="0"
         id="stop10" />
      <stop
         stop-color="#653f01"
         offset="1"
         id="stop11" />
    </linearGradient>
    <linearGradient
       id="n"
       y2="15"
       xlink:href="#c"
       gradientUnits="userSpaceOnUse"
       x2="40.700001"
       gradientTransform="matrix(1.097,0,0,1.178,-11.84,-11.5)"
       y1="19.84"
       x1="35.299999" />
    <linearGradient
       id="m"
       x1="27.709999"
       xlink:href="#c"
       gradientUnits="userSpaceOnUse"
       x2="33.66"
       gradientTransform="matrix(1.097,0,0,1.178,-11.84,-11.5)"
       y1="13.53"
       y2="23.32" />
    <radialGradient
       id="b"
       gradientUnits="userSpaceOnUse"
       cy="17.860001"
       cx="29.200001"
       gradientTransform="matrix(0.6817,0.142,-0.08398,0.4298,10.58,19.72)"
       r="8.6599998">
      <stop
         stop-color="#f9adad"
         stop-opacity=".3"
         offset="0"
         id="stop12" />
      <stop
         stop-color="#868686"
         stop-opacity="0"
         offset="1"
         id="stop13" />
    </radialGradient>
    <radialGradient
       inkscape:collect="always"
       xlink:href="#b"
       id="radialGradient22"
       gradientUnits="userSpaceOnUse"
       gradientTransform="matrix(0.6817,0.142,-0.08398,0.4298,-3.92,19.72)"
       cx="29.200001"
       cy="17.860001"
       r="8.6599998" />
    <radialGradient
       inkscape:collect="always"
       xlink:href="#b"
       id="radialGradient23"
       gradientUnits="userSpaceOnUse"
       gradientTransform="matrix(0.44399121,0.0924846,-0.05469617,0.27992874,2.844504,15.505636)"
       cx="29.200001"
       cy="17.860001"
       r="8.6599998" />
    <radialGradient
       inkscape:collect="always"
       xlink:href="#b"
       id="radialGradient24"
       gradientUnits="userSpaceOnUse"
       gradientTransform="matrix(0.6817,0.142,-0.08398,0.4298,10.58,19.72)"
       cx="29.200001"
       cy="17.860001"
       r="8.6599998" />
  </defs>
  <g
     id="g23"
     transform="matrix(5.3809306,0,0,5.3809306,-2.0597491,5.8635811)">
    <path
       stroke-linejoin="round"
       d="m 17.87,28.64 -6.848,-1.691 c 0,0 0.3744,-13.71 3.225,-18.12 2.85,-4.421 6.208,-5.484 6.208,-5.484 0,0 5.496,-1.933 7.489,0.5677 0.8213,1.027 3.249,0.3865 4.831,2.5 1.582,2.1135 4.976,13.72 4.517,20.53 l -11.37,1.848 -8.056,0.2416 v -0.3986 z"
       stroke="#8f5902"
       stroke-width="1.235"
       fill="url(#o)"
       id="path13"
       style="fill:url(#o)" />
    <g
       fill-rule="evenodd"
       transform="matrix(1.235,0,0,1.235,2.455,-2.287)"
       id="g14">
      <ellipse
         rx="15.38"
         ry="8.3100004"
         cy="31.16"
         cx="17.440001"
         fill="url(#i)"
         id="ellipse13"
         style="fill:url(#i)" />
      <ellipse
         stroke-linejoin="round"
         stroke-linecap="round"
         rx="7.8800001"
         ry="7.8899999"
         stroke="#8f5902"
         cy="13.23"
         cx="17.57"
         stroke-width="0.8"
         fill="#8f5902"
         id="ellipse14" />
      <path
         stroke-linejoin="round"
         d="m 12.44,35.77 h 10.61 c 3,0 5.98,-1.1 7.1,-4.24 1.04,-2.98 0.18,-8.66 -6.54,-13.26 H 11.06 c -6.72,4.24 -7.56,10 -6,13.44 1.58,3.45 4.24,4.07 7.43,4.07 z"
         stroke="#cc0000"
         stroke-linecap="round"
         fill="url(#h)"
         id="path14"
         style="fill:url(#h)" />
    </g>
    <path
       opacity="0.3"
       stroke-linejoin="round"
       d="m 17.86,40.65 13.15,-0.0247 c 3.507,0 6.311,-1.025 7.583,-4.668 1.136,-3.285 -0.3211,-9.534 -7.719,-14.6 l -14.04,-0.31 c -7.398,4.668 -8.818,11.05 -7.089,15.09 1.729,4.038 4.261,4.471 8.114,4.508 z"
       stroke="#ffffff"
       stroke-linecap="round"
       stroke-width="1.235"
       fill="none"
       id="path15" />
    <g
       fill-rule="evenodd"
       transform="matrix(1.235,0,0,1.235,2.455,-2.287)"
       id="g18">
      <path
         opacity="0.23"
         fill="url(#s)"
         d="m 8.296,34.97 c -1.25,-0.55 -1.81,-1.86 -1.81,-1.86 0.84,-4.07 3.72,-7 3.72,-7 0,0 -2.28,6.41 -1.91,8.9"
         id="path16"
         style="fill:url(#s)" />
      <path
         opacity="0.23"
         fill="url(#r)"
         d="m 27.22,34.07 c 1.23,-0.58 1.8,-2 1.8,-2 -0.96,-4 -3.98,-6.84 -3.98,-6.84 0,0 2.47,6.34 2.17,8.84"
         id="path17"
         style="fill:url(#r)" />
      <circle
         cy="15.26"
         cx="17.57"
         r="8.5100002"
         fill="url(#g)"
         id="circle17"
         style="fill:url(#g)" />
      <circle
         stroke-linejoin="round"
         stroke-linecap="round"
         stroke="url(#q)"
         cy="13.23"
         cx="17.57"
         r="7.6199999"
         fill="url(#f)"
         id="circle18"
         style="fill:url(#f);stroke:url(#q)" />
    </g>
    <g
       stroke-linejoin="round"
       id="g20">
      <g
         transform="matrix(1.235,0,0,1.235,2.455,-2.287)"
         id="g19">
        <circle
           opacity="0.2"
           stroke-width="0.8"
           stroke-linecap="round"
           stroke="#ffffff"
           cy="13.23"
           cx="17.57"
           r="6.8099999"
           fill="none"
           id="circle19" />
      </g>
      <path
         d="m 27.03,6.442 c -0.8228,-0.1885 6.561,8.177 8.283,8.507 0.4279,0.08247 -2.073,-8.754 -4.345,-9.285 L 28.725,5.1453 Z"
         stroke="#8f5902"
         stroke-width="0.9543"
         fill="url(#n)"
         id="path19"
         style="fill:url(#n)" />
      <path
         d="m 28.72,5.111 c 0.9435,0 -10.76,9.755 -14.15,8.719 -3.291,-1.013 1.426,-8.035 4.137,-9.237 0,0 3.62,-1.626 5.299,-1.685 2.721,-0.08247 4.707,2.203 4.707,2.203 z"
         stroke="#8f5902"
         stroke-width="0.9661"
         fill="url(#m)"
         id="path20"
         style="fill:url(#m)" />
    </g>
    <path
       opacity="0.5"
       fill="#ffffff"
       d="m 28.85,7.467 c -0.02194,0.03535 3.675,4.913 5.101,5.655 1.394,0.7305 -0.2743,-2.356 -0.8448,-3.971 l 1.206,3.935 c -1.69,-1.09 -3.58,-3.432 -5.47,-5.612 m -14.62,4.736 c 0.2852,0.7069 0.746,0.9426 1.24,0.9426 0.8338,-0.0012 3.785,-1.383 5.584,-2.297 0,0 -0.9194,0.8568 -3.08,1.835 -1.042,0.4713 -3.041,1.736 -4.116,-0.03205 -1.081,-1.786 3.954,-9.268 9.285,-9.005 -4.849,0.4187 -9.65,6.586 -8.913,8.556 z"
       id="path21" />
    <ellipse
       id="l"
       fill-rule="evenodd"
       rx="4.9400001"
       ry="4.0630002"
       cy="32.009998"
       cx="34"
       fill="url(#b)"
       style="fill:url(#radialGradient24)" />
    <ellipse
       id="use21"
       fill-rule="evenodd"
       rx="4.9400001"
       ry="4.0630002"
       cy="32.009998"
       cx="19.5"
       fill="url(#b)"
       style="fill:url(#radialGradient22)" />
    <ellipse
       id="use22"
       fill-rule="evenodd"
       rx="3.217422"
       ry="2.6462321"
       cy="23.510113"
       cx="18.09795"
       fill="url(#b)"
       style="fill:url(#radialGradient23);stroke-width:0.6513" />
  </g>
  <metadata
     id="metadata24">
    <rdf:RDF>
      <cc:Work
         rdf:about="">
        <dc:source>https://commons.wikimedia.org/wiki/File:User_icon_3.svg</dc:source>
        <cc:license
           rdf:resource="http://creativecommons.org/publicdomain/zero/1.0/" />
      </cc:Work>
      <cc:License
         rdf:about="http://creativecommons.org/publicdomain/zero/1.0/">
        <cc:permits
           rdf:resource="http://creativecommons.org/ns#Reproduction" />
        <cc:permits
           rdf:resource="http://creativecommons.org/ns#Distribution" />
        <cc:permits
           rdf:resource="http://creativecommons.org/ns#DerivativeWorks" />
      </cc:License>
    </rdf:RDF>
  </metadata>
</svg>
