<?xml version="1.0" encoding="UTF-8" standalone="no"?>
<!-- Created with Inkscape (http://www.inkscape.org/) -->

<svg
   width="256mm"
   height="256mm"
   viewBox="0 0 256 256"
   version="1.1"
   id="svg1"
   inkscape:version="1.3.2 (091e20ef0f, 2023-11-25)"
   sodipodi:docname="utilities-energy-monitor.svg"
   xml:space="preserve"
   xmlns:inkscape="http://www.inkscape.org/namespaces/inkscape"
   xmlns:sodipodi="http://sodipodi.sourceforge.net/DTD/sodipodi-0.dtd"
   xmlns:xlink="http://www.w3.org/1999/xlink"
   xmlns="http://www.w3.org/2000/svg"
   xmlns:svg="http://www.w3.org/2000/svg"
   xmlns:rdf="http://www.w3.org/1999/02/22-rdf-syntax-ns#"
   xmlns:cc="http://creativecommons.org/ns#"
   xmlns:dc="http://purl.org/dc/elements/1.1/"
   xmlns:a="http://ns.adobe.com/AdobeSVGViewerExtensions/3.0/"><defs
     id="defs1"><radialGradient
       id="XMLID_5_"
       cx="64.176804"
       cy="109.55"
       r="54.283699"
       fx="64.176804"
       fy="109.55"
       gradientUnits="userSpaceOnUse"><stop
         offset="0"
         style="stop-color:rgb(0,0,0)"
         id="stop12" /><stop
         offset="1"
         style="stop-color:rgb(0,0,0)"
         id="stop13" /><a:midPointStop
         offset="0"
         style="stop-color:#000000" /><a:midPointStop
         offset="0.5"
         style="stop-color:#000000" /><a:midPointStop
         offset="1"
         style="stop-color:#000000" /></radialGradient><radialGradient
       id="XMLID_6_"
       cx="56.743698"
       cy="111.867"
       r="103.384"
       fx="56.743698"
       fy="111.867"
       gradientUnits="userSpaceOnUse"><stop
         offset="0"
         style="stop-color:#3ea42d;stop-opacity:1;"
         id="stop14" /><stop
         offset="1"
         style="stop-color:#13600d;stop-opacity:1;"
         id="stop15" /><a:midPointStop
         offset="0"
         style="stop-color:#2D58A4" /><a:midPointStop
         offset="0.5"
         style="stop-color:#2D58A4" /><a:midPointStop
         offset="1"
         style="stop-color:#0D2D60" /></radialGradient><radialGradient
       id="XMLID_7_"
       cx="54.6875"
       cy="130.196"
       r="89.127296"
       fx="54.6875"
       fy="130.196"
       gradientUnits="userSpaceOnUse"><stop
         offset="0"
         style="stop-color:#e3ffde;stop-opacity:1;"
         id="stop16" /><stop
         offset="0.62919998"
         style="stop-color:#2bc245;stop-opacity:1;"
         id="stop17" /><stop
         offset="1"
         style="stop-color:#26a423;stop-opacity:1;"
         id="stop18" /><a:midPointStop
         offset="0"
         style="stop-color:#DEE1FF" /><a:midPointStop
         offset="0.5"
         style="stop-color:#DEE1FF" /><a:midPointStop
         offset="0.6292"
         style="stop-color:#2B72C2" /><a:midPointStop
         offset="0.5"
         style="stop-color:#2B72C2" /><a:midPointStop
         offset="1"
         style="stop-color:#2353A4" /></radialGradient><radialGradient
       id="XMLID_8_"
       cx="56.745602"
       cy="111.866"
       r="103.377"
       fx="56.745602"
       fy="111.866"
       gradientUnits="userSpaceOnUse"><stop
         offset="0"
         style="stop-color:#2da42d;stop-opacity:1;"
         id="stop19" /><stop
         offset="1"
         style="stop-color:#15600d;stop-opacity:1;"
         id="stop20" /><a:midPointStop
         offset="0"
         style="stop-color:#2D58A4" /><a:midPointStop
         offset="0.5"
         style="stop-color:#2D58A4" /><a:midPointStop
         offset="1"
         style="stop-color:#0D2D60" /></radialGradient><radialGradient
       id="XMLID_9_"
       cx="54.6875"
       cy="130.194"
       r="89.125603"
       fx="54.6875"
       fy="130.194"
       gradientUnits="userSpaceOnUse"><stop
         offset="0.2247"
         style="stop-color:rgb(222,225,255)"
         id="stop21" /><stop
         offset="0.74720001"
         style="stop-color:#17c221;stop-opacity:1;"
         id="stop22" /><stop
         offset="1"
         style="stop-color:#3abd3b;stop-opacity:1;"
         id="stop23" /><a:midPointStop
         offset="0.2247"
         style="stop-color:#DEE1FF" /><a:midPointStop
         offset="0.5"
         style="stop-color:#DEE1FF" /><a:midPointStop
         offset="0.7472"
         style="stop-color:#177CC2" /><a:midPointStop
         offset="0.5"
         style="stop-color:#177CC2" /><a:midPointStop
         offset="1"
         style="stop-color:#3A6DBD" /></radialGradient><linearGradient
       id="XMLID_10_"
       gradientUnits="userSpaceOnUse"
       x1="53.243198"
       y1="29.5557"
       x2="53.243198"
       y2="71.083504"><stop
         offset="3.44828%"
         style="stop-color:rgb(255,255,255)"
         id="stop24" /><stop
         offset="100%"
         style="stop-opacity:0;stop-color:rgb(255,255,255)"
         id="stop25" /></linearGradient><linearGradient
       id="XMLID_11_"
       gradientUnits="userSpaceOnUse"
       x1="36.0093"
       y1="34.544899"
       x2="101.17"
       y2="164.541"><stop
         offset="0"
         style="stop-color:rgb(255,255,255)"
         id="stop26" /><stop
         offset="1"
         style="stop-color:rgb(0,0,0)"
         id="stop27" /><a:midPointStop
         offset="0"
         style="stop-color:#FFFFFF" /><a:midPointStop
         offset="0.5"
         style="stop-color:#FFFFFF" /><a:midPointStop
         offset="1"
         style="stop-color:#000000" /></linearGradient><linearGradient
       id="f"
       gradientUnits="userSpaceOnUse"
       x1="400.77441"
       x2="399.3522"
       y1="532.89044"
       y2="528.9989"
       gradientTransform="matrix(12.215339,0,0,12.215339,-4759.5338,-6373.6256)"><stop
         offset="0"
         stop-color="#ffd42a"
         id="stop5-4"
         style="stop-color:#ffd42d;stop-opacity:1;" /><stop
         offset="1"
         stop-color="#ffdf62"
         id="stop6-52"
         style="stop-color:#fffe8f;stop-opacity:1;" /></linearGradient><linearGradient
       inkscape:collect="always"
       xlink:href="#f"
       id="linearGradient3"
       gradientUnits="userSpaceOnUse"
       gradientTransform="matrix(12.215339,0,0,12.215339,-4759.5338,-6373.6256)"
       x1="400.77441"
       y1="532.89044"
       x2="399.3522"
       y2="528.9989" /><linearGradient
       inkscape:collect="always"
       xlink:href="#f"
       id="linearGradient1"
       gradientUnits="userSpaceOnUse"
       gradientTransform="matrix(12.215339,0,0,12.215339,-4759.5338,-6373.6256)"
       x1="400.77441"
       y1="532.89044"
       x2="399.3522"
       y2="528.9989" /></defs><sodipodi:namedview
     id="base"
     pagecolor="#ffffff"
     bordercolor="#000000"
     borderopacity="0.3"
     inkscape:pageopacity="0.0"
     inkscape:pageshadow="2"
     inkscape:zoom="0.7"
     inkscape:cx="568.57143"
     inkscape:cy="602.14286"
     inkscape:document-units="mm"
     inkscape:showpageshadow="2"
     inkscape:pagecheckerboard="0"
     inkscape:deskcolor="#d1d1d1"
     inkscape:current-layer="g29" /><metadata
     id="metadata1"><rdf:RDF><cc:Work
         rdf:about=""><dc:format>image/svg+xml</dc:format><dc:type
           rdf:resource="http://purl.org/dc/dcmitype/StillImage" /><cc:license
           rdf:resource="http://creativecommons.org/publicdomain/zero/1.0/" /></cc:Work><cc:License
         rdf:about="http://creativecommons.org/publicdomain/zero/1.0/"><cc:permits
           rdf:resource="http://creativecommons.org/ns#Reproduction" /><cc:permits
           rdf:resource="http://creativecommons.org/ns#Distribution" /><cc:permits
           rdf:resource="http://creativecommons.org/ns#DerivativeWorks" /></cc:License></rdf:RDF></metadata><g
     id="g39"
     transform="matrix(2.8785206,0,0,2.8785206,-31.464442,-69.463305)"><path
       d="m 87.164,106.396 c 0,3.313 -14.998,6 -33.5,6 -18.501,0 -33.5,-2.687 -33.5,-6 0,-3.313 14.999,-6 33.5,-6 18.502,0 33.5,2.687 33.5,6 z"
       style="opacity:0.1;fill:url(#XMLID_5_)"
       id="path13" /><g
       id="g29"><g
         id="g23"><radialGradient
           id="radialGradient2"
           cx="56.743698"
           cy="111.867"
           r="103.384"
           fx="56.743698"
           fy="111.867"
           gradientUnits="userSpaceOnUse"><stop
             offset="0"
             style="stop-color:rgb(45,88,164)"
             id="stop1" /><stop
             offset="1"
             style="stop-color:rgb(13,45,96)"
             id="stop2" /><a:midPointStop
             offset="0"
             style="stop-color:#2D58A4" /><a:midPointStop
             offset="0.5"
             style="stop-color:#2D58A4" /><a:midPointStop
             offset="1"
             style="stop-color:#0D2D60" /></radialGradient><path
           d="m 55.175,24.479 c -23.497,0 -42.61,19.115 -42.61,42.611 0,23.498 19.114,42.612 42.61,42.612 23.498,0 42.612,-19.114 42.612,-42.612 0,-23.496 -19.114,-42.611 -42.612,-42.611 z m 0,83.287 c -22.465,0 -40.674,-18.208 -40.674,-40.676 0,-22.463 18.209,-40.674 40.674,-40.674 22.464,0 40.676,18.211 40.676,40.674 0,22.468 -18.212,40.676 -40.676,40.676 z"
           style="fill:url(#XMLID_6_)"
           id="path15" /><radialGradient
           id="radialGradient5"
           cx="54.6875"
           cy="130.196"
           r="89.127296"
           fx="54.6875"
           fy="130.196"
           gradientUnits="userSpaceOnUse"><stop
             offset="0"
             style="stop-color:rgb(222,225,255)"
             id="stop3" /><stop
             offset="0.6292"
             style="stop-color:rgb(43,114,194)"
             id="stop4" /><stop
             offset="1"
             style="stop-color:rgb(35,83,164)"
             id="stop5" /><a:midPointStop
             offset="0"
             style="stop-color:#DEE1FF" /><a:midPointStop
             offset="0.5"
             style="stop-color:#DEE1FF" /><a:midPointStop
             offset="0.6292"
             style="stop-color:#2B72C2" /><a:midPointStop
             offset="0.5"
             style="stop-color:#2B72C2" /><a:midPointStop
             offset="1"
             style="stop-color:#2353A4" /></radialGradient><path
           d="m 55.175,28.352 c -21.36,0 -38.737,17.379 -38.737,38.738 0,21.36 17.376,38.739 38.737,38.739 21.361,0 38.739,-17.379 38.739,-38.739 0,-21.359 -17.379,-38.738 -38.739,-38.738 z"
           style="fill:url(#XMLID_7_)"
           id="path18" /><radialGradient
           id="radialGradient7"
           cx="56.745602"
           cy="111.866"
           r="103.377"
           fx="56.745602"
           fy="111.866"
           gradientUnits="userSpaceOnUse"><stop
             offset="0"
             style="stop-color:rgb(45,88,164)"
             id="stop6" /><stop
             offset="1"
             style="stop-color:rgb(13,45,96)"
             id="stop7" /><a:midPointStop
             offset="0"
             style="stop-color:#2D58A4" /><a:midPointStop
             offset="0.5"
             style="stop-color:#2D58A4" /><a:midPointStop
             offset="1"
             style="stop-color:#0D2D60" /></radialGradient><path
           d="m 55.175,26.416 c -22.465,0 -40.674,18.211 -40.674,40.674 0,22.468 18.209,40.676 40.674,40.676 22.464,0 40.676,-18.208 40.676,-40.676 0,-22.463 -18.212,-40.674 -40.676,-40.674 z m 0,79.413 c -21.36,0 -38.737,-17.379 -38.737,-38.739 0,-21.359 17.376,-38.738 38.737,-38.738 21.361,0 38.739,17.379 38.739,38.738 0,21.36 -17.379,38.739 -38.739,38.739 z"
           style="fill:url(#XMLID_8_)"
           id="path20" /><radialGradient
           id="radialGradient10"
           cx="54.6875"
           cy="130.194"
           r="89.125603"
           fx="54.6875"
           fy="130.194"
           gradientUnits="userSpaceOnUse"><stop
             offset="0.2247"
             style="stop-color:rgb(222,225,255)"
             id="stop8" /><stop
             offset="0.7472"
             style="stop-color:rgb(23,124,194)"
             id="stop9" /><stop
             offset="1"
             style="stop-color:rgb(58,109,189)"
             id="stop10" /><a:midPointStop
             offset="0.2247"
             style="stop-color:#DEE1FF" /><a:midPointStop
             offset="0.5"
             style="stop-color:#DEE1FF" /><a:midPointStop
             offset="0.7472"
             style="stop-color:#177CC2" /><a:midPointStop
             offset="0.5"
             style="stop-color:#177CC2" /><a:midPointStop
             offset="1"
             style="stop-color:#3A6DBD" /></radialGradient><path
           d="m 55.175,26.416 c -22.465,0 -40.674,18.211 -40.674,40.674 0,22.468 18.209,40.676 40.674,40.676 22.464,0 40.676,-18.208 40.676,-40.676 0,-22.463 -18.212,-40.674 -40.676,-40.674 z m 0,79.413 c -21.36,0 -38.737,-17.379 -38.737,-38.739 0,-21.359 17.376,-38.738 38.737,-38.738 21.361,0 38.739,17.379 38.739,38.738 0,21.36 -17.379,38.739 -38.739,38.739 z"
           style="fill:url(#XMLID_9_)"
           id="path23" /></g><linearGradient
         id="linearGradient28"
         gradientUnits="userSpaceOnUse"
         x1="53.243198"
         y1="29.5557"
         x2="53.243198"
         y2="71.083504"><stop
           offset="3.44828%"
           style="stop-color:rgb(255,255,255)"
           id="stop11" /><stop
           offset="100%"
           style="stop-opacity:0;stop-color:rgb(255,255,255)"
           id="stop28" /></linearGradient><path
         a:adobe-blending-mode="screen"
         d="M 54.651,68.404 C 70.036,56.834 84.502,52.912 90.842,51.668 84.735,37.658 70.957,27.882 54.928,27.882 c -21.696,0 -39.283,17.904 -39.283,39.986 0,3.469 0.436,6.835 1.251,10.045 6.366,1.195 21.927,2.394 37.755,-9.509 z"
         style="fill:url(#XMLID_10_)"
         id="path25" /><g
         id="g28"
         style="display:none"><linearGradient
           id="linearGradient30"
           gradientUnits="userSpaceOnUse"
           x1="36.0093"
           y1="34.544899"
           x2="101.17"
           y2="164.541"><stop
             offset="0"
             style="stop-color:rgb(255,255,255)"
             id="stop29" /><stop
             offset="1"
             style="stop-color:rgb(0,0,0)"
             id="stop30" /><a:midPointStop
             offset="0"
             style="stop-color:#FFFFFF" /><a:midPointStop
             offset="0.5"
             style="stop-color:#FFFFFF" /><a:midPointStop
             offset="1"
             style="stop-color:#000000" /></linearGradient><path
           a:adobe-blending-mode="multiply"
           d="M 68.837,96.854 H 45.231 v -2.695 c 0.643,-0.05 1.272,-0.112 1.89,-0.186 0.619,-0.075 1.15,-0.198 1.596,-0.375 0.791,-0.3 1.346,-0.729 1.668,-1.29 0.322,-0.561 0.482,-1.303 0.482,-2.228 V 68.31 c 0,-0.87 -0.2,-1.638 -0.598,-2.3 -0.398,-0.661 -0.898,-1.189 -1.495,-1.588 -0.448,-0.3 -1.128,-0.586 -2.037,-0.859 -0.909,-0.274 -1.738,-0.449 -2.486,-0.525 v -2.696 l 18.387,-0.981 0.563,0.562 V 89.6 c 0,0.871 0.186,1.615 0.557,2.226 0.369,0.609 0.903,1.064 1.595,1.364 0.493,0.223 1.037,0.422 1.63,0.597 0.595,0.175 1.212,0.299 1.854,0.373 v 2.694 M 63.446,45.905 c 0,1.895 -0.729,3.509 -2.188,4.843 -1.46,1.333 -3.187,1.999 -5.184,1.999 -2.023,0 -3.763,-0.666 -5.223,-1.999 -1.46,-1.334 -2.189,-2.949 -2.189,-4.843 0,-1.894 0.729,-3.514 2.189,-4.862 1.459,-1.344 3.2,-2.019 5.223,-2.019 2.021,0 3.754,0.674 5.203,2.019 1.445,1.348 2.169,2.968 2.169,4.862 z"
           style="clip-rule:evenodd;opacity:0.3;fill:url(#XMLID_11_);fill-rule:evenodd"
           id="path27" /><path
           d="M 66.1,95.157 H 42.493 v -2.695 c 0.642,-0.051 1.272,-0.113 1.89,-0.188 0.619,-0.074 1.149,-0.198 1.596,-0.375 0.792,-0.298 1.347,-0.728 1.668,-1.289 0.321,-0.561 0.482,-1.302 0.482,-2.226 v -21.77 c 0,-0.873 -0.2,-1.64 -0.599,-2.3 -0.397,-0.661 -0.897,-1.191 -1.494,-1.59 -0.45,-0.3 -1.128,-0.583 -2.037,-0.86 -0.91,-0.274 -1.739,-0.45 -2.486,-0.523 v -2.696 l 18.387,-0.98 0.563,0.56 V 87.9 c 0,0.874 0.184,1.616 0.557,2.225 0.37,0.611 0.902,1.067 1.593,1.365 0.496,0.225 1.039,0.423 1.632,0.598 0.593,0.175 1.211,0.301 1.854,0.374 v 2.695 m -5.391,-50.95 c 0,1.895 -0.73,3.509 -2.191,4.843 -1.458,1.333 -3.186,2 -5.182,2 -2.021,0 -3.762,-0.666 -5.223,-2 -1.46,-1.333 -2.188,-2.948 -2.188,-4.843 0,-1.893 0.729,-3.515 2.188,-4.861 1.461,-1.346 3.202,-2.02 5.223,-2.02 2.021,0 3.755,0.673 5.202,2.02 1.447,1.347 2.171,2.968 2.171,4.861 z"
           style="fill:#ffffff"
           id="path28" /></g><g
         id="g1"
         transform="matrix(0.30114673,0,0,0.30114673,19.998464,29.897136)"><g
           id="path6"
           transform="matrix(1.0597209,0,0,1.0597209,-84.959511,-29.319882)"
           style="display:none"><path
             id="rect12"
             style="fill:#000000;fill-opacity:0.450872;stroke-width:4.015;stroke-linecap:round;stroke-linejoin:round;stroke-miterlimit:2.1"
             d="m 87.841667,144.76493 54.428603,-109.991116 -0.37798,80.886956 39.30953,0.37797 -55.5625,108.10119 0.37798,-78.61905 z"
             sodipodi:nodetypes="ccccccc" /><path
             style="color:#000000;fill:url(#linearGradient1);-inkscape-stroke:none"
             d="M 133.57621,36.959713 84.715004,134.68257 h 36.646016 v 73.29204 l 48.8612,-97.72287 h -36.64601 z"
             id="path9" /><path
             style="color:#000000;fill:#ffb402;-inkscape-stroke:none"
             d="M 136.1912,28.846223 81.466797,136.68945 h 37.886723 c 0.94257,25.58624 0.2289,51.63319 0.46186,77.26172 L 173.4707,108.24414 h -37.88672 c 0.78067,-26.377138 0.37546,-53.491771 0.60722,-79.397917 z m -4.62284,16.616668 v 66.796879 h 35.4043 L 123.36914,199.4707 V 132.67578 H 87.960937 Z"
             id="path12"
             sodipodi:nodetypes="cccccccccccccc" /></g><rect
           style="display:none;fill:#269cff;fill-opacity:1;stroke-width:2.404;stroke-linecap:round;stroke-linejoin:round;stroke-miterlimit:2.1"
           id="rect1"
           width="69.757347"
           height="22.183371"
           x="20.847023"
           y="207.66841"
           ry="9.3544331" /><rect
           style="display:none;fill:#269cff;fill-opacity:1;stroke-width:2.59448;stroke-linecap:round;stroke-linejoin:round;stroke-miterlimit:2.1"
           id="rect2"
           width="81.249939"
           height="22.183371"
           x="52.652096"
           y="232.52448"
           ry="9.3544331" /><rect
           style="display:none;fill:#269cff;fill-opacity:1;stroke-width:2.67111;stroke-linecap:round;stroke-linejoin:round;stroke-miterlimit:2.1"
           id="rect3"
           width="117.59859"
           height="117.59859"
           x="137.10927"
           y="132.83296"
           ry="0" /><g
           id="g3"
           transform="matrix(1.2937432,0,0,1.2937432,-48.165229,-36.070542)"><path
             id="path1"
             style="fill:#000000;fill-opacity:0.450872;stroke-width:4.015;stroke-linecap:round;stroke-linejoin:round;stroke-miterlimit:2.1"
             d="m 87.841667,144.76493 54.428603,-109.991116 -0.37798,80.886956 39.30953,0.37797 -55.5625,108.10119 0.37798,-78.61905 z"
             sodipodi:nodetypes="ccccccc" /><path
             style="color:#000000;fill:url(#linearGradient3);-inkscape-stroke:none"
             d="M 133.57621,36.959713 84.715004,134.68257 h 36.646016 v 73.29204 l 48.8612,-97.72287 h -36.64601 z"
             id="path2" /><path
             style="color:#000000;fill:#ffb402;-inkscape-stroke:none"
             d="M 136.1912,28.846223 81.466797,136.68945 h 37.886723 c 0.94257,25.58624 0.2289,51.63319 0.46186,77.26172 L 173.4707,108.24414 h -37.88672 c 0.78067,-26.377138 0.37546,-53.491771 0.60722,-79.397917 z m -4.62284,16.616668 v 66.796879 h 35.4043 L 123.36914,199.4707 V 132.67578 H 87.960937 Z"
             id="path3"
             sodipodi:nodetypes="cccccccccccccc" /></g></g></g></g></svg>
