<?xml version="1.0" encoding="UTF-8" standalone="no"?>
<!-- Created with Inkscape (http://www.inkscape.org/) -->

<svg
   width="256mm"
   height="256mm"
   viewBox="0 0 256 256"
   version="1.1"
   id="svg1"
   inkscape:version="1.3.2 (091e20ef0f, 2023-11-25)"
   xml:space="preserve"
   sodipodi:docname="winefile.svg"
   xmlns:inkscape="http://www.inkscape.org/namespaces/inkscape"
   xmlns:sodipodi="http://sodipodi.sourceforge.net/DTD/sodipodi-0.dtd"
   xmlns:xlink="http://www.w3.org/1999/xlink"
   xmlns="http://www.w3.org/2000/svg"
   xmlns:svg="http://www.w3.org/2000/svg"
   xmlns:rdf="http://www.w3.org/1999/02/22-rdf-syntax-ns#"
   xmlns:cc="http://creativecommons.org/ns#"
   xmlns:dc="http://purl.org/dc/elements/1.1/"><defs
     id="defs1"><linearGradient
       id="linearGradient30"
       inkscape:collect="always"><stop
         style="stop-color:#000000;stop-opacity:0.03097343;"
         offset="0"
         id="stop30" /><stop
         style="stop-color:#000000;stop-opacity:0.18690476;"
         offset="1"
         id="stop31" /></linearGradient><linearGradient
       id="linearGradient21"
       inkscape:collect="always"><stop
         style="stop-color:#ffffff;stop-opacity:0;"
         offset="0"
         id="stop21" /><stop
         style="stop-color:#000000;stop-opacity:0.46666667;"
         offset="1"
         id="stop22" /></linearGradient><linearGradient
       id="linearGradient19"
       inkscape:collect="always"><stop
         style="stop-color:#000000;stop-opacity:1;"
         offset="0"
         id="stop19" /><stop
         style="stop-color:#ffffff;stop-opacity:0;"
         offset="1"
         id="stop20" /></linearGradient><linearGradient
       id="linearGradient9"
       inkscape:collect="always"><stop
         style="stop-color:#ffffff;stop-opacity:0.59404761;"
         offset="0"
         id="stop10" /><stop
         style="stop-color:#ffffff;stop-opacity:0.49803922;"
         offset="0.5"
         id="stop12" /><stop
         style="stop-color:#000000;stop-opacity:0.22499999;"
         offset="0.51770103"
         id="stop13" /><stop
         style="stop-color:#000000;stop-opacity:0.07857143;"
         offset="1"
         id="stop11" /></linearGradient><linearGradient
       id="linearGradient6"
       inkscape:collect="always"><stop
         style="stop-color:#575757;stop-opacity:0.23690479;"
         offset="0"
         id="stop6" /><stop
         style="stop-color:#585858;stop-opacity:0.34642857;"
         offset="0.59052402"
         id="stop8" /><stop
         style="stop-color:#000000;stop-opacity:0.30000001;"
         offset="0.61259782"
         id="stop9" /><stop
         style="stop-color:#030303;stop-opacity:0.46190476;"
         offset="1"
         id="stop7" /></linearGradient><linearGradient
       inkscape:collect="always"
       xlink:href="#linearGradient6"
       id="linearGradient7"
       x1="58.930496"
       y1="71.366188"
       x2="96.656715"
       y2="122.78939"
       gradientUnits="userSpaceOnUse" /><linearGradient
       inkscape:collect="always"
       xlink:href="#linearGradient9"
       id="linearGradient11"
       x1="54.492065"
       y1="57.930672"
       x2="112.81868"
       y2="138.64606"
       gradientUnits="userSpaceOnUse" /><linearGradient
       inkscape:collect="always"
       xlink:href="#linearGradient19"
       id="linearGradient20"
       x1="76.572716"
       y1="73.833206"
       x2="103.56695"
       y2="105.90555"
       gradientUnits="userSpaceOnUse" /><linearGradient
       inkscape:collect="always"
       xlink:href="#linearGradient21"
       id="linearGradient22"
       x1="58.563652"
       y1="79.539886"
       x2="160.84428"
       y2="154.94614"
       gradientUnits="userSpaceOnUse" /><linearGradient
       inkscape:collect="always"
       xlink:href="#linearGradient21"
       id="linearGradient26"
       gradientUnits="userSpaceOnUse"
       x1="67.383545"
       y1="76.599922"
       x2="160.84428"
       y2="154.94614" /><linearGradient
       inkscape:collect="always"
       xlink:href="#linearGradient6"
       id="linearGradient27"
       gradientUnits="userSpaceOnUse"
       x1="58.930496"
       y1="71.366188"
       x2="96.656715"
       y2="122.78939" /><linearGradient
       inkscape:collect="always"
       xlink:href="#linearGradient9"
       id="linearGradient28"
       gradientUnits="userSpaceOnUse"
       x1="54.492065"
       y1="57.930672"
       x2="112.81868"
       y2="138.64606" /><linearGradient
       inkscape:collect="always"
       xlink:href="#linearGradient19"
       id="linearGradient29"
       gradientUnits="userSpaceOnUse"
       x1="76.572716"
       y1="73.833206"
       x2="103.56695"
       y2="105.90555" /><linearGradient
       inkscape:collect="always"
       xlink:href="#linearGradient30"
       id="linearGradient31"
       x1="101.24159"
       y1="157.74052"
       x2="184.01877"
       y2="236.05814"
       gradientUnits="userSpaceOnUse" /></defs><sodipodi:namedview
     id="base"
     pagecolor="#ffffff"
     bordercolor="#000000"
     borderopacity="0.3"
     inkscape:pageopacity="0.0"
     inkscape:pageshadow="2"
     inkscape:zoom="0.98994949"
     inkscape:cx="505.07627"
     inkscape:cy="476.792"
     inkscape:document-units="mm"
     inkscape:showpageshadow="2"
     inkscape:pagecheckerboard="0"
     inkscape:deskcolor="#d1d1d1"
     inkscape:current-layer="svg1"
     showguides="true" /><metadata
     id="metadata1"><rdf:RDF><cc:Work
         rdf:about=""><dc:format>image/svg+xml</dc:format><dc:type
           rdf:resource="http://purl.org/dc/dcmitype/StillImage" /><cc:license
           rdf:resource="http://creativecommons.org/publicdomain/zero/1.0/" /></cc:Work><cc:License
         rdf:about="http://creativecommons.org/publicdomain/zero/1.0/"><cc:permits
           rdf:resource="http://creativecommons.org/ns#Reproduction" /><cc:permits
           rdf:resource="http://creativecommons.org/ns#Distribution" /><cc:permits
           rdf:resource="http://creativecommons.org/ns#DerivativeWorks" /></cc:License></rdf:RDF></metadata><g
     id="g4"
     style="display:inline"
     transform="matrix(1.1813419,0,0,1.1813419,-13.512405,-10.953314)"><path
       id="rect1"
       style="display:inline;fill:#000000;fill-opacity:0.24115;stroke-width:1.8;stroke-linecap:round;stroke-linejoin:round;stroke-miterlimit:2.1;stroke-opacity:0.85098"
       d="m 75.407997,12.747871 120.366933,1.417414 c 3.03406,-0.203785 5.21707,0.559802 5.47902,4.810852 V 186.01959 c 0.13856,3.1236 -1.19593,3.49964 -2.15437,4.30735 l -32.24484,32.76837 c -1.03468,1.79419 -2.32206,2.07216 -3.71159,1.73726 l -120.241106,0.26727 c -2.234348,-0.003 -3.027207,-1.03635 -4.073893,-1.88804 -1.182627,-4.21944 -1.135231,-8.03179 -1.135231,-8.03179 z"
       sodipodi:nodetypes="ccccccccccc"
       inkscape:label="shadow" /><path
       id="rect2"
       style="display:inline;fill:#e6e373;fill-opacity:1;stroke:#585858;stroke-width:0.8;stroke-linecap:round;stroke-linejoin:round;stroke-miterlimit:2.1;stroke-opacity:1"
       inkscape:label="colorhead"
       d="M 71.895508,10.690781 H 190.83044 V 181.47601 L 158.08993,214.8847 36.348661,215.68651 36.61593,46.638533 Z"
       sodipodi:nodetypes="ccccccc" /><path
       id="rect3"
       style="fill:#000000;fill-opacity:0.0873894;stroke-width:0.799999;stroke-linecap:round;stroke-linejoin:round;stroke-miterlimit:2.1"
       d="m 69.075148,15.308036 c 1.537112,-1.826782 3.126612,-3.1297 4.913688,-2.456845 L 188.61093,10.871565 c 1.7429,0.32483 1.03459,0.870585 0.16788,1.88249 l -31.32487,32.282431 c -1.14025,1.357001 -1.78125,2.424367 -6.03697,2.772753 L 45.262648,45.451632 c -1.786103,-0.253111 -5.356,0.316051 -4.063244,-1.795386 z"
       sodipodi:nodetypes="ccccccccc" /><path
       id="rect4"
       style="fill:#000000;fill-opacity:0.361726;stroke-width:0.799999;stroke-linecap:round;stroke-linejoin:round;stroke-miterlimit:2.1"
       d="m 158.23108,46.525044 31.14098,-33.649815 c 0.72757,-0.06163 1.54489,-0.540981 1.52462,2.075651 l -0.23624,164.53416 c -0.021,0.91969 0.14664,1.6991 -1.16931,3.0996 l -30.99055,31.55374 c -1.82963,1.54692 -3.00779,0.62164 -2.96872,-0.54615 l 0.14788,-162.616012 c 0.0114,-2.414655 0.83341,-2.789884 2.55134,-4.451174 z"
       sodipodi:nodetypes="ccccccccc" /><path
       id="rect5"
       style="fill:url(#linearGradient31);stroke-width:0.799999;stroke-linecap:round;stroke-linejoin:round;stroke-miterlimit:2.1"
       d="m 42.286086,47.813987 108.998874,0.94494 c 3.54573,-0.06159 3.43898,1.27183 3.68527,3.02381 l -0.75595,160.261903 c 0.0773,1.25594 -0.61425,2.05051 -1.79539,2.55135 l -112.447913,0.85045 c -2.437985,0.14492 -3.823998,-1.75633 -3.496274,-3.87426 l 0.47247,-159.789441 c -0.06588,-2.758963 0.491145,-4.04457 5.338913,-3.968752 z"
       sodipodi:nodetypes="ccccccccc" /><g
       id="g15"
       transform="translate(0,77.258376)"><rect
         style="fill:url(#linearGradient26);fill-opacity:1;stroke:url(#linearGradient27);stroke-width:2.2;stroke-linecap:round;stroke-linejoin:round;stroke-miterlimit:2.1;stroke-dasharray:none;stroke-opacity:1"
         id="rect6"
         width="93.277069"
         height="68.287361"
         x="50.781212"
         y="54.65662" /><path
         id="path32"
         style="display:inline;fill-opacity:0.24115;stroke-width:2.2;stroke-linecap:round;stroke-linejoin:round;stroke-miterlimit:2.1;stroke-opacity:0.53208"
         d="m 53.320271,122.01404 h 89.936199 l -0.13363,-66.282976 4.27631,2.939973 0.26726,67.084803 -89.535287,0.26727 z"
         sodipodi:nodetypes="ccccccc" /><rect
         style="fill:none;fill-opacity:0.0232301;stroke:url(#linearGradient28);stroke-width:2.2;stroke-linecap:round;stroke-linejoin:round;stroke-miterlimit:2.1;stroke-dasharray:none;stroke-opacity:1"
         id="rect9"
         width="89.268021"
         height="64.812859"
         x="53.053005"
         y="56.393867" /><g
         id="rect15"><path
           style="color:#000000;fill:url(#linearGradient29);fill-opacity:1;stroke-linecap:round;stroke-linejoin:round;stroke-miterlimit:2.1;-inkscape-stroke:none"
           d="M 78.042702,74.969101 H 117.73223 V 94.613413 H 78.042702 Z"
           id="path16"
           inkscape:label="backcolor" /><path
           id="rect18"
           style="color:#000000;fill:#494949;fill-opacity:0.53208;stroke-linecap:round;stroke-linejoin:round;stroke-miterlimit:2.1;-inkscape-stroke:none"
           d="m 80.447286,75.605721 c -0.60784,2.4e-4 -1.100291,0.493386 -1.099675,1.101225 V 93.94517 c 2.4e-4,0.607234 0.492441,0.626965 1.099675,0.627205 h 1.092735 c 0.02033,-5.746032 0.009,-9.885761 0.009,-15.631826 h 34.681599 v 0.236162 h 2.2009 v -2.469765 c 6.2e-4,-0.607838 -0.49183,-1.100982 -1.09967,-1.101225 z"
           sodipodi:nodetypes="cccccccccccc" /><path
           style="color:#000000;fill:#828282;fill-opacity:0.53208;stroke-linecap:round;stroke-linejoin:round;stroke-miterlimit:2.1;-inkscape-stroke:none"
           d="m 78.042969,73.869141 a 1.10011,1.10011 0 0 0 -1.09961,1.099609 v 19.644531 a 1.10011,1.10011 0 0 0 1.09961,1.09961 h 39.689451 a 1.10011,1.10011 0 0 0 1.09961,-1.09961 V 74.96875 a 1.10011,1.10011 0 0 0 -1.09961,-1.099609 z m 1.099609,2.199218 H 116.63281 V 93.513672 H 79.142578 Z"
           id="path17"
           inkscape:label="frame" /></g></g><g
       id="g26"><rect
         style="fill:url(#linearGradient22);fill-opacity:1;stroke:url(#linearGradient7);stroke-width:2.2;stroke-linecap:round;stroke-linejoin:round;stroke-miterlimit:2.1;stroke-dasharray:none;stroke-opacity:1"
         id="rect22"
         width="93.277069"
         height="68.287361"
         x="50.781212"
         y="54.65662" /><path
         id="rect31"
         style="display:inline;fill-opacity:0.24115;stroke-width:2.2;stroke-linecap:round;stroke-linejoin:round;stroke-miterlimit:2.1;stroke-opacity:0.53208"
         d="m 53.320271,122.54308 h 89.936199 l -0.13363,-66.282843 4.27631,2.939973 0.26726,67.08465 -88.065305,-0.13363 z"
         sodipodi:nodetypes="ccccccc" /><rect
         style="fill:none;fill-opacity:0.0232301;stroke:url(#linearGradient11);stroke-width:2.2;stroke-linecap:round;stroke-linejoin:round;stroke-miterlimit:2.1;stroke-dasharray:none;stroke-opacity:1"
         id="rect23"
         width="89.268021"
         height="64.812859"
         x="53.053005"
         y="56.393867" /><g
         id="g25"><path
           style="color:#000000;fill:url(#linearGradient20);fill-opacity:1;stroke-linecap:round;stroke-linejoin:round;stroke-miterlimit:2.1;-inkscape-stroke:none"
           d="M 78.042702,74.969101 H 117.73223 V 94.613413 H 78.042702 Z"
           id="path23"
           inkscape:label="backcolor" /><path
           id="path24"
           style="color:#000000;fill:#494949;fill-opacity:0.53208;stroke-linecap:round;stroke-linejoin:round;stroke-miterlimit:2.1;-inkscape-stroke:none"
           d="m 80.447286,75.605721 c -0.60784,2.4e-4 -1.100291,0.493386 -1.099675,1.101225 V 93.94517 c 2.4e-4,0.607234 0.492441,0.626965 1.099675,0.627205 h 1.092735 c 0.02033,-5.746032 0.009,-9.980255 0.009,-15.72632 h 34.681599 v 0.236162 h 2.2009 v -2.375271 c 6.2e-4,-0.607838 -0.49183,-1.100982 -1.09967,-1.101225 z"
           sodipodi:nodetypes="cccccccccccc" /><path
           style="color:#000000;fill:#828282;fill-opacity:0.53208;stroke-linecap:round;stroke-linejoin:round;stroke-miterlimit:2.1;-inkscape-stroke:none"
           d="m 78.042969,73.869141 a 1.10011,1.10011 0 0 0 -1.09961,1.099609 v 19.644531 a 1.10011,1.10011 0 0 0 1.09961,1.09961 h 39.689451 a 1.10011,1.10011 0 0 0 1.09961,-1.09961 V 74.96875 a 1.10011,1.10011 0 0 0 -1.09961,-1.099609 z m 1.099609,2.199218 H 116.63281 V 93.513672 H 79.142578 Z"
           id="path25"
           inkscape:label="frame" /></g></g></g></svg>
