<?xml version="1.0" encoding="UTF-8" standalone="no"?>
<svg
   width="256"
   height="256"
   viewBox="0 0 256 256"
   overflow="visible"
   enable-background="new 0.08 0 123 123"
   xml:space="preserve"
   version="1.1"
   id="svg58"
   sodipodi:docname="xclock.svg"
   inkscape:version="1.3 (0e150ed6c4, 2023-07-21)"
   xmlns:inkscape="http://www.inkscape.org/namespaces/inkscape"
   xmlns:sodipodi="http://sodipodi.sourceforge.net/DTD/sodipodi-0.dtd"
   xmlns="http://www.w3.org/2000/svg"
   xmlns:svg="http://www.w3.org/2000/svg"
   xmlns:rdf="http://www.w3.org/1999/02/22-rdf-syntax-ns#"
   xmlns:cc="http://creativecommons.org/ns#"
   xmlns:a="http://ns.adobe.com/AdobeSVGViewerExtensions/3.0/"><defs
   id="defs58" /><sodipodi:namedview
   id="namedview58"
   pagecolor="#ffffff"
   bordercolor="#000000"
   borderopacity="0.25"
   inkscape:showpageshadow="2"
   inkscape:pageopacity="0.0"
   inkscape:pagecheckerboard="0"
   inkscape:deskcolor="#d1d1d1"
   inkscape:zoom="4.1477849"
   inkscape:cx="123.55993"
   inkscape:cy="133.92691"
   inkscape:current-layer="Layer_1_2_" />&#10;	<g
   id="Layer_1_2_"
   transform="matrix(2.0562173,0,0,2.0562173,1.08,1)"
   inkscape:label="clock">&#10;		<g
   id="g58">&#10;			<g
   id="g16">&#10;				<radialGradient
   id="XMLID_1_"
   cx="97.859901"
   cy="121.477"
   r="104.732"
   fx="97.859901"
   fy="121.477"
   gradientUnits="userSpaceOnUse">&#10;					<stop
   offset="0"
   style="stop-color:rgb(61,111,199)"
   id="stop1" />&#10;					<stop
   offset="1"
   style="stop-color:rgb(13,50,126)"
   id="stop2" />&#10;				</radialGradient>&#10;				<path
   d="M 61.654,0 C 27.656,0 0,27.658 0,61.656 c 0,33.997 27.656,61.657 61.654,61.657 34,0 61.658,-27.66 61.658,-61.657 C 123.312,27.658 95.654,0 61.654,0 Z m 0,120.513 C 29.147,120.513 2.8,94.166 2.8,61.656 2.8,29.152 29.147,2.801 61.654,2.801 c 32.502,0 58.853,26.351 58.853,58.855 -0.001,32.51 -26.351,58.857 -58.853,58.857 z"
   style="fill:url(#XMLID_1_)"
   id="path2" />&#10;				<radialGradient
   id="XMLID_2_"
   cx="51.774899"
   cy="109.923"
   r="102.884"
   fx="51.774899"
   fy="109.923"
   gradientUnits="userSpaceOnUse">&#10;					<stop
   offset="0"
   style="stop-color:rgb(255,255,255)"
   id="stop3" />&#10;					<stop
   offset="0.1195"
   style="stop-color:rgb(230,249,255)"
   id="stop4" />&#10;					<stop
   offset="0.2646"
   style="stop-color:rgb(206,242,255)"
   id="stop5" />&#10;					<stop
   offset="0.3539"
   style="stop-color:rgb(197,240,255)"
   id="stop6" />&#10;					<stop
   offset="1"
   style="stop-color:rgb(29,116,217)"
   id="stop7" />&#10;				</radialGradient>&#10;				<path
   d="m 61.654,2.289 c -32.789,0 -59.365,26.58 -59.365,59.367 0,32.792 26.576,59.368 59.365,59.368 32.784,0 59.364,-26.576 59.364,-59.368 0,-32.787 -26.58,-59.367 -59.364,-59.367 z m 0,115.905 c -31.178,0 -56.538,-25.36 -56.538,-56.538 0,-31.175 25.36,-56.539 56.538,-56.539 31.177,0 56.54,25.364 56.54,56.539 0,31.178 -25.363,56.538 -56.54,56.538 z"
   style="clip-rule:evenodd;fill:url(#XMLID_2_);fill-rule:evenodd"
   id="path7" />&#10;				<radialGradient
   id="XMLID_3_"
   cx="60.637199"
   cy="123.78"
   r="118.409"
   fx="60.637199"
   fy="123.78"
   gradientUnits="userSpaceOnUse">&#10;					<stop
   offset="0"
   style="stop-color:rgb(255,255,255)"
   id="stop8" />&#10;					<stop
   offset="0.0626"
   style="stop-color:rgb(230,249,255)"
   id="stop9" />&#10;					<stop
   offset="0.1386"
   style="stop-color:rgb(206,242,255)"
   id="stop10" />&#10;					<stop
   offset="0.1854"
   style="stop-color:rgb(197,240,255)"
   id="stop11" />&#10;					<stop
   offset="1"
   style="stop-color:rgb(29,116,217)"
   id="stop12" />&#10;				</radialGradient>&#10;				<path
   d="m 61.654,118.194 c -31.178,0 -56.538,-25.36 -56.538,-56.538 0,-31.175 25.36,-56.539 56.538,-56.539 31.177,0 56.54,25.364 56.54,56.539 0,31.178 -25.363,56.538 -56.54,56.538 z"
   style="clip-rule:evenodd;fill:url(#XMLID_3_);fill-rule:evenodd"
   id="path12" />&#10;				<linearGradient
   id="XMLID_4_"
   gradientUnits="userSpaceOnUse"
   x1="58.834"
   y1="6.8710999"
   x2="58.834"
   y2="67.4841">&#10;					<stop
   offset="12.069%"
   style="stop-color:rgb(255,255,255)"
   id="stop13" />&#10;					<stop
   offset="100%"
   style="stop-opacity:0;stop-color:rgb(255,255,255)"
   id="stop14" />&#10;				</linearGradient>&#10;				<path
   a:adobe-blending-mode="screen"
   d="M 60.89,63.577 C 83.344,46.686 104.457,40.964 113.709,39.146 104.799,18.694 84.688,4.427 61.294,4.427 29.629,4.427 3.959,30.562 3.959,62.789 c 0,5.064 0.635,9.977 1.826,14.662 9.289,1.745 32.006,3.496 55.105,-13.874 z"
   style="fill:url(#XMLID_4_)"
   id="path14" />&#10;				<linearGradient
   id="XMLID_5_"
   gradientUnits="userSpaceOnUse"
   x1="61.397499"
   y1="131.631"
   x2="61.397499"
   y2="76.262497">&#10;					<stop
   offset="0%"
   style="stop-color:rgb(255,255,255)"
   id="stop15" />&#10;					<stop
   offset="100%"
   style="stop-opacity:0.005;stop-color:rgb(255,255,255)"
   id="stop16" />&#10;				</linearGradient>&#10;				<path
   a:adobe-blending-mode="screen"
   d="m 61.395,102.349 c -27.188,0 -49.797,-16.228 -51.868,-41.61 -0.104,1.249 -0.172,2.504 -0.172,3.775 0,27.15 23.507,49.28 52.041,49.28 28.732,0 52.045,-22.13 52.045,-49.28 0,-1.271 -0.068,-2.526 -0.172,-3.775 -2.056,25.382 -24.495,41.61 -51.874,41.61 z"
   style="opacity:0.8;fill:url(#XMLID_5_)"
   id="path16" />&#10;			</g>&#10;			<radialGradient
   id="XMLID_6_"
   cx="92.120598"
   cy="114.014"
   r="89.389397"
   fx="92.120598"
   fy="114.014"
   gradientUnits="userSpaceOnUse">&#10;				<stop
   offset="0"
   style="stop-color:rgb(61,111,199)"
   id="stop17" />&#10;				<stop
   offset="1"
   style="stop-color:rgb(13,50,126)"
   id="stop18" />&#10;				<a:midPointStop
   offset="0"
   style="stop-color:#3D6FC7" />&#10;				<a:midPointStop
   offset="0.5"
   style="stop-color:#3D6FC7" />&#10;				<a:midPointStop
   offset="1"
   style="stop-color:#0D327E" />&#10;			</radialGradient>&#10;			<path
   d="m 113.845,63.469 c 0,28.772 -23.563,52.098 -52.628,52.098 -29.066,0 -52.628,-23.325 -52.628,-52.098 0,-28.773 23.562,-52.098 52.628,-52.098 29.066,0 52.628,23.325 52.628,52.098 z"
   style="fill:url(#XMLID_6_)"
   id="path18" />&#10;			<path
   d="m 113.486,61.687 c 0,28.812 -23.356,52.172 -52.17,52.172 C 32.5,113.859 9.14,90.499 9.14,61.687 9.14,32.87 32.5,9.51 61.316,9.51 c 28.813,0 52.17,23.36 52.17,52.177 z"
   style="fill:#ffffff"
   id="path19" />&#10;			<linearGradient
   id="XMLID_7_"
   gradientUnits="userSpaceOnUse"
   x1="61.3125"
   y1="78.630898"
   x2="61.3125"
   y2="27.233101">&#10;				<stop
   offset="0"
   style="stop-color:rgb(255,255,255)"
   id="stop19" />&#10;				<stop
   offset="0.1814"
   style="stop-color:rgb(250,252,255)"
   id="stop20" />&#10;				<stop
   offset="0.4072"
   style="stop-color:rgb(234,245,255)"
   id="stop21" />&#10;				<stop
   offset="0.6566"
   style="stop-color:rgb(209,233,255)"
   id="stop22" />&#10;				<stop
   offset="0.9212"
   style="stop-color:rgb(174,216,255)"
   id="stop23" />&#10;				<stop
   offset="1"
   style="stop-color:rgb(162,210,255)"
   id="stop24" />&#10;			</linearGradient>&#10;			<path
   d="m 61.308,113.508 c -28.576,0 -51.819,-23.247 -51.819,-51.825 0,-28.572 23.244,-51.821 51.819,-51.821 28.575,0 51.827,23.249 51.827,51.821 0,28.578 -23.252,51.825 -51.827,51.825 z"
   style="clip-rule:evenodd;fill:url(#XMLID_7_);fill-rule:evenodd"
   id="path24" />&#10;			<linearGradient
   id="XMLID_8_"
   gradientUnits="userSpaceOnUse"
   x1="59.049801"
   y1="14.1064"
   x2="59.049801"
   y2="67.530998">&#10;				<stop
   offset="11.4943%"
   style="stop-color:rgb(255,255,255)"
   id="stop25" />&#10;				<stop
   offset="100%"
   style="stop-opacity:0;stop-color:rgb(255,255,255)"
   id="stop26" />&#10;			</linearGradient>&#10;			<path
   a:adobe-blending-mode="screen"
   d="M 60.859,64.086 C 80.565,49.199 99.095,44.154 107.216,42.555 99.395,24.533 81.749,11.953 61.21,11.953 c -27.794,0 -50.326,23.038 -50.326,51.441 0,4.467 0.557,8.792 1.605,12.925 8.154,1.535 28.094,3.078 48.37,-12.233 z"
   style="fill:url(#XMLID_8_)"
   id="path26" />&#10;			<g
   style="opacity:0.52"
   id="g29">&#10;				<g
   id="g28">&#10;					<radialGradient
   id="XMLID_9_"
   cx="45.454601"
   cy="86.845703"
   r="36.986698"
   fx="45.454601"
   fy="86.845703"
   gradientTransform="translate(13.4141,11.7676)"
   gradientUnits="userSpaceOnUse">&#10;						<stop
   offset="0"
   style="stop-color:rgb(139,187,255)"
   id="stop27" />&#10;						<stop
   offset="1"
   style="stop-color:rgb(13,86,172)"
   id="stop28" />&#10;						<a:midPointStop
   offset="0"
   style="stop-color:#8BBBFF" />&#10;						<a:midPointStop
   offset="0.5"
   style="stop-color:#8BBBFF" />&#10;						<a:midPointStop
   offset="1"
   style="stop-color:#0D56AC" />&#10;					</radialGradient>&#10;					<path
   d="m 26.694,92.016 c -0.464,0.42 -0.502,1.132 -0.083,1.598 0.418,0.465 1.133,0.503 1.597,0.085 0.464,-0.419 0.502,-1.133 0.084,-1.598 -0.42,-0.466 -1.134,-0.503 -1.598,-0.085 z M 26.609,31.322 c -0.417,0.463 -0.38,1.179 0.084,1.598 0.464,0.418 1.18,0.38 1.597,-0.084 0.418,-0.465 0.382,-1.18 -0.083,-1.598 -0.463,-0.418 -1.18,-0.381 -1.598,0.084 z m 29.962,75.188 c -0.621,-0.065 -1.178,0.386 -1.242,1.007 -0.066,0.622 0.384,1.178 1.005,1.243 0.623,0.065 1.178,-0.385 1.245,-1.007 0.067,-0.621 -0.387,-1.177 -1.008,-1.243 z M 30.055,27.877 c -0.464,0.417 -0.501,1.132 -0.084,1.597 0.418,0.464 1.135,0.501 1.599,0.083 0.464,-0.418 0.502,-1.133 0.084,-1.598 -0.419,-0.462 -1.134,-0.501 -1.599,-0.082 z m -6.261,60.37 c -0.506,0.368 -0.618,1.072 -0.25,1.58 0.368,0.506 1.074,0.618 1.58,0.251 0.506,-0.368 0.618,-1.074 0.25,-1.58 -0.368,-0.506 -1.075,-0.618 -1.58,-0.251 z M 17.888,72.124 c 0.028,-0.144 0.028,-0.296 -0.004,-0.448 -0.064,-0.306 -0.247,-0.557 -0.49,-0.714 -0.243,-0.158 -0.546,-0.223 -0.852,-0.158 -0.612,0.13 -1,0.729 -0.871,1.342 0.068,0.322 0.271,0.576 0.533,0.731 0.236,0.14 0.519,0.202 0.808,0.142 0.459,-0.098 0.793,-0.461 0.876,-0.895 z m 8.483,9.663 -8.119,4.687 0.646,1.12 8.12,-4.688 z m 7.221,16.758 c -0.368,0.507 -0.257,1.212 0.25,1.58 0.506,0.367 1.212,0.256 1.58,-0.25 0.366,-0.506 0.255,-1.212 -0.25,-1.58 -0.506,-0.368 -1.215,-0.256 -1.58,0.25 z m 9.596,4.379 c -0.57,-0.255 -1.239,0.002 -1.493,0.572 -0.255,0.572 0.002,1.241 0.572,1.493 0.572,0.255 1.239,0 1.494,-0.571 0.255,-0.571 -0.003,-1.24 -0.573,-1.494 z m 4.327,1.66 c -0.594,-0.192 -1.232,0.133 -1.424,0.727 -0.194,0.595 0.132,1.233 0.725,1.426 0.597,0.192 1.233,-0.131 1.427,-0.726 0.194,-0.595 -0.133,-1.233 -0.728,-1.427 z M 46.817,18.199 c -0.594,0.192 -0.919,0.831 -0.728,1.425 0.194,0.594 0.833,0.92 1.426,0.727 0.595,-0.193 0.919,-0.832 0.728,-1.426 -0.193,-0.593 -0.832,-0.919 -1.426,-0.726 z m 5.176,87.585 c -0.611,-0.13 -1.211,0.261 -1.34,0.871 -0.131,0.612 0.259,1.212 0.869,1.342 0.613,0.13 1.212,-0.259 1.343,-0.871 0.131,-0.61 -0.261,-1.211 -0.872,-1.342 z M 33.842,24.811 c -0.506,0.366 -0.618,1.074 -0.251,1.58 0.368,0.505 1.075,0.617 1.581,0.25 0.505,-0.368 0.617,-1.075 0.25,-1.581 -0.367,-0.504 -1.076,-0.617 -1.58,-0.249 z m 18.35,-7.789 c -0.206,-0.088 -0.432,-0.135 -0.668,-0.084 -0.042,0.009 -0.073,0.036 -0.113,0.049 -0.185,0.061 -0.338,0.165 -0.464,0.3 -0.244,0.261 -0.376,0.619 -0.296,0.994 0.13,0.611 0.732,1.001 1.342,0.872 0.153,-0.033 0.292,-0.095 0.412,-0.179 0.363,-0.252 0.558,-0.705 0.46,-1.164 -0.079,-0.375 -0.345,-0.648 -0.673,-0.788 z m -9.924,2.924 c -0.57,0.253 -0.827,0.922 -0.573,1.493 0.255,0.571 0.923,0.828 1.494,0.574 0.571,-0.254 0.828,-0.923 0.574,-1.494 -0.255,-0.571 -0.924,-0.828 -1.495,-0.573 z m -1.345,76.867 -4.688,8.117 1.12,0.647 4.688,-8.119 z M 17.159,67.097 C 17.111,66.63 16.784,66.261 16.363,66.133 16.279,66.108 16.185,66.112 16.094,66.108 16.034,66.104 15.979,66.085 15.917,66.09 h -0.002 c -0.621,0.065 -1.071,0.621 -1.006,1.243 0.064,0.622 0.621,1.072 1.243,1.008 0.621,-0.066 1.072,-0.623 1.007,-1.244 z m 12.812,28.364 c -0.417,0.466 -0.382,1.178 0.084,1.598 0.465,0.419 1.178,0.382 1.597,-0.083 0.417,-0.465 0.38,-1.18 -0.083,-1.598 -0.465,-0.419 -1.18,-0.382 -1.598,0.083 z M 102.23,81.974 c 0.572,0.254 1.238,-0.003 1.492,-0.573 0.256,-0.572 -0.002,-1.239 -0.572,-1.494 -0.569,-0.254 -1.238,0.002 -1.494,0.574 -0.254,0.57 0.004,1.238 0.574,1.493 z M 87.134,19.357 86.015,18.711 81.327,26.83 82.448,27.476 Z M 19.252,79.906 c -0.572,0.255 -0.828,0.922 -0.574,1.494 0.255,0.57 0.922,0.827 1.493,0.573 0.572,-0.255 0.828,-0.923 0.574,-1.493 -0.254,-0.572 -0.923,-0.828 -1.493,-0.574 z m 85.868,-42.092 -0.647,-1.12 -8.117,4.687 0.644,1.121 z m -6.511,-1.125 c 0.504,-0.368 0.617,-1.076 0.248,-1.581 -0.366,-0.505 -1.074,-0.617 -1.58,-0.251 -0.504,0.368 -0.617,1.076 -0.25,1.581 0.367,0.505 1.076,0.618 1.582,0.251 z m 6.635,21.15 c 0.004,0.041 0.026,0.072 0.034,0.11 0.117,0.56 0.627,0.958 1.208,0.897 10e-4,0 10e-4,0 0.002,0 0.466,-0.049 0.834,-0.373 0.963,-0.795 0.035,-0.115 0.038,-0.239 0.035,-0.365 -0.001,-0.028 0.011,-0.054 0.008,-0.083 v 0 0 c -0.017,-0.155 -0.063,-0.3 -0.135,-0.428 -0.096,-0.172 -0.242,-0.299 -0.407,-0.4 -0.206,-0.127 -0.444,-0.205 -0.703,-0.178 -0.622,0.064 -1.072,0.621 -1.005,1.242 z m -0.731,-5.027 c -0.028,0.145 -0.027,0.297 0.005,0.45 0.03,0.144 0.092,0.272 0.168,0.387 0.25,0.375 0.706,0.583 1.173,0.483 h 0.001 0.001 c 0.305,-0.065 0.555,-0.248 0.712,-0.49 0.157,-0.242 0.223,-0.546 0.157,-0.852 -0.129,-0.61 -0.731,-1.001 -1.341,-0.872 -0.459,0.098 -0.793,0.461 -0.876,0.894 z m -0.469,-5.455 c -0.595,0.194 -0.921,0.832 -0.728,1.426 0.195,0.594 0.832,0.919 1.427,0.727 0.594,-0.193 0.918,-0.832 0.725,-1.426 -0.191,-0.593 -0.831,-0.919 -1.424,-0.727 z M 103.15,45.03 c 0.57,-0.255 0.828,-0.924 0.572,-1.495 -0.252,-0.57 -0.922,-0.827 -1.492,-0.573 -0.57,0.255 -0.828,0.923 -0.574,1.494 0.256,0.57 0.925,0.828 1.494,0.574 z m -86.608,9.103 c 0.612,0.13 1.212,-0.261 1.343,-0.872 0.131,-0.611 -0.261,-1.212 -0.871,-1.342 -0.612,-0.129 -1.212,0.261 -1.342,0.872 -0.131,0.61 0.259,1.211 0.87,1.342 z m -0.627,4.713 c 0.621,0.065 1.178,-0.386 1.244,-1.007 0.066,-0.621 -0.386,-1.178 -1.006,-1.244 -0.623,-0.065 -1.179,0.386 -1.244,1.007 -0.066,0.622 0.385,1.179 1.006,1.244 z m 1.742,-9.336 c 0.595,0.193 1.233,-0.133 1.426,-0.727 0.194,-0.594 -0.132,-1.232 -0.725,-1.426 -0.595,-0.193 -1.233,0.133 -1.426,0.727 -0.193,0.594 0.132,1.232 0.725,1.426 z m 24.385,-22.68 -4.687,-8.119 -1.121,0.646 4.688,8.118 z M 21.281,61.498 h -9.375 v 1.293 h 9.375 z m 4.093,-25.06 c 0.368,-0.505 0.256,-1.213 -0.25,-1.581 -0.504,-0.366 -1.213,-0.254 -1.58,0.251 -0.368,0.504 -0.256,1.212 0.25,1.58 0.506,0.368 1.213,0.256 1.58,-0.25 z m 1.644,4.944 -8.12,-4.687 -0.646,1.12 8.118,4.687 z m -8.34,2.153 c -0.254,0.571 0.002,1.24 0.572,1.495 0.572,0.254 1.24,-0.003 1.494,-0.574 0.256,-0.571 -0.002,-1.239 -0.572,-1.494 -0.571,-0.254 -1.24,0.003 -1.494,0.573 z m 0.405,32.617 c -0.193,-0.595 -0.832,-0.92 -1.425,-0.726 -0.595,0.192 -0.919,0.829 -0.726,1.425 0.193,0.595 0.831,0.92 1.425,0.727 0.594,-0.193 0.92,-0.832 0.726,-1.426 z m 68.148,22.143 c -0.505,0.367 -0.619,1.075 -0.25,1.58 0.368,0.506 1.072,0.617 1.58,0.249 0.506,-0.365 0.617,-1.074 0.25,-1.579 -0.367,-0.505 -1.076,-0.619 -1.58,-0.25 z M 90.749,27.96 c -0.417,0.465 -0.381,1.181 0.085,1.599 0.464,0.417 1.18,0.38 1.599,-0.084 0.417,-0.465 0.379,-1.181 -0.087,-1.597 -0.463,-0.42 -1.179,-0.381 -1.597,0.082 z m -9.421,69.499 4.688,8.119 1.119,-0.647 -4.686,-8.118 z m -9.907,8.639 c -0.258,-0.251 -0.617,-0.388 -0.994,-0.313 -0.008,0.001 -0.014,-10e-4 -0.021,0 -0.457,0.099 -0.791,0.461 -0.874,0.894 -0.027,0.144 -0.027,0.296 0.005,0.448 0.129,0.612 0.729,1.001 1.341,0.871 0.612,-0.13 1.002,-0.729 0.871,-1.342 -0.047,-0.227 -0.174,-0.407 -0.328,-0.558 z M 86.979,25.061 c -0.365,0.505 -0.255,1.214 0.252,1.581 0.506,0.367 1.215,0.254 1.582,-0.25 0.365,-0.506 0.254,-1.214 -0.254,-1.58 -0.504,-0.369 -1.212,-0.256 -1.58,0.249 z m -12.093,79.523 c -0.595,0.194 -0.921,0.832 -0.728,1.427 0.193,0.595 0.832,0.918 1.427,0.726 0.595,-0.192 0.918,-0.831 0.726,-1.426 -0.193,-0.594 -0.832,-0.919 -1.425,-0.727 z M 74.884,20.351 c 0.595,0.193 1.233,-0.132 1.427,-0.727 0.192,-0.594 -0.133,-1.233 -0.726,-1.425 -0.595,-0.193 -1.235,0.132 -1.427,0.726 -0.193,0.595 0.134,1.233 0.726,1.426 z m 4.328,1.661 c 0.57,0.254 1.238,-0.002 1.494,-0.574 0.254,-0.57 -0.004,-1.24 -0.574,-1.493 -0.569,-0.254 -1.24,0.002 -1.494,0.572 -0.254,0.572 0.004,1.241 0.574,1.495 z m 0.002,80.912 c -0.572,0.254 -0.83,0.923 -0.574,1.494 0.254,0.571 0.923,0.826 1.494,0.571 0.57,-0.252 0.826,-0.921 0.572,-1.493 -0.253,-0.57 -0.922,-0.827 -1.492,-0.572 z m 11.619,-7.546 c -0.464,0.417 -0.504,1.135 -0.083,1.598 0.418,0.465 1.131,0.502 1.597,0.082 0.464,-0.416 0.502,-1.133 0.083,-1.597 -0.418,-0.464 -1.135,-0.503 -1.597,-0.083 z m 15.653,-29.287 c -0.621,-0.066 -1.179,0.385 -1.242,1.007 -0.064,0.62 0.384,1.177 1.007,1.242 0.621,0.065 1.175,-0.384 1.243,-1.006 0.064,-0.623 -0.387,-1.179 -1.008,-1.243 z m -0.627,4.713 c -0.61,-0.13 -1.21,0.26 -1.341,0.872 -0.129,0.61 0.259,1.211 0.871,1.342 0.611,0.13 1.21,-0.26 1.341,-0.871 0.131,-0.614 -0.26,-1.213 -0.871,-1.343 z m -1.115,4.623 c -0.595,-0.194 -1.231,0.131 -1.427,0.726 -0.191,0.594 0.133,1.232 0.728,1.426 0.595,0.194 1.23,-0.132 1.424,-0.727 0.193,-0.596 -0.132,-1.233 -0.725,-1.425 z M 94.11,92.101 c -0.416,0.464 -0.38,1.181 0.086,1.598 0.464,0.418 1.178,0.38 1.597,-0.086 0.418,-0.462 0.381,-1.179 -0.086,-1.597 -0.464,-0.417 -1.18,-0.382 -1.597,0.085 z m 7.981,-30.603 v 1.293 h 9.374 v -1.293 z m -7.897,-30.26 c -0.464,0.418 -0.502,1.134 -0.084,1.599 0.419,0.464 1.135,0.501 1.599,0.083 0.465,-0.418 0.502,-1.134 0.082,-1.598 -0.416,-0.465 -1.133,-0.502 -1.597,-0.084 z m 2.161,51.668 8.117,4.688 0.646,-1.12 L 97,81.786 Z m 0.672,5.592 c -0.365,0.505 -0.256,1.214 0.252,1.579 0.506,0.368 1.21,0.256 1.58,-0.251 0.367,-0.504 0.255,-1.213 -0.252,-1.579 -0.506,-0.367 -1.213,-0.256 -1.58,0.251 z M 56.31,59.862 c 0.017,-0.004 0.032,-0.011 0.047,-0.015 L 56.35,59.84 c -0.013,0.008 -0.027,0.014 -0.04,0.022 z m 4.73,52.062 h 1.294 V 102.55 H 61.04 Z M 57.793,58.098 c 0.017,0.003 0.033,0.003 0.049,0.005 l -0.004,-0.01 c -0.015,0.004 -0.03,0.002 -0.045,0.005 z m -0.9,-41.821 c -0.172,-0.075 -0.357,-0.122 -0.557,-0.101 v 0 h -10e-4 c -0.311,0.033 -0.578,0.188 -0.76,0.414 -0.183,0.225 -0.28,0.519 -0.247,0.83 0.066,0.622 0.623,1.072 1.244,1.007 0.184,-0.02 0.344,-0.091 0.489,-0.185 0.336,-0.218 0.545,-0.598 0.516,-1.021 -10e-4,-0.013 0.005,-0.024 0.003,-0.038 v 0 c -0.045,-0.421 -0.324,-0.749 -0.687,-0.906 z m 4.147,5.462 h 1.294 V 12.365 H 61.04 Z m -4.431,37.626 c 0.017,-0.003 0.032,-0.007 0.049,-0.01 L 56.65,59.347 c -0.012,0.007 -0.027,0.011 -0.041,0.018 z M 63.58,57.5 c 0.015,-0.005 0.031,-0.01 0.045,-0.016 -0.016,0.002 -0.029,0.005 -0.043,0.005 z m -6.621,1.402 c 0.016,-10e-4 0.032,-0.004 0.049,-0.005 l -0.007,-0.008 c -0.013,0.006 -0.028,0.007 -0.042,0.013 z m 0.396,-0.423 c 0.016,10e-4 0.032,0 0.049,0 L 57.398,58.47 c -0.013,0.004 -0.029,0.004 -0.043,0.009 z M 70.407,19.151 c 0.612,0.13 1.213,-0.26 1.343,-0.872 0.129,-0.611 -0.261,-1.212 -0.871,-1.341 -0.611,-0.13 -1.214,0.26 -1.343,0.87 -0.129,0.612 0.261,1.213 0.871,1.343 z m -4.364,40.696 c 0.017,0.004 0.032,0.011 0.047,0.015 -0.013,-0.008 -0.026,-0.014 -0.038,-0.022 z m -0.299,-0.492 c 0.016,0.003 0.032,0.007 0.048,0.01 -0.014,-0.006 -0.028,-0.011 -0.04,-0.019 z m 0.324,-43.178 c -0.623,-0.065 -1.182,0.385 -1.246,1.006 -0.064,0.622 0.387,1.178 1.008,1.244 0.621,0.066 1.178,-0.385 1.244,-1.007 0.064,-0.622 -0.387,-1.179 -1.006,-1.243 z m -0.674,42.72 c 0.015,0.001 0.031,0.004 0.049,0.005 -0.016,-0.005 -0.03,-0.008 -0.043,-0.014 z M 64.56,58.104 c 0.016,-0.002 0.032,-0.003 0.047,-0.005 -0.015,-10e-4 -0.029,-10e-4 -0.043,-0.004 z m 0.438,0.375 c 0.016,0 0.032,0 0.049,0 -0.017,-0.003 -0.029,-0.005 -0.043,-0.009 z m -0.913,-0.703 c 0.016,-0.004 0.033,-0.006 0.047,-0.01 -0.016,0 -0.03,0.001 -0.043,0 z m 1.745,48.734 c -0.621,0.065 -1.072,0.622 -1.006,1.243 0.064,0.622 0.621,1.072 1.242,1.007 0.621,-0.065 1.072,-0.621 1.008,-1.243 -0.033,-0.323 -0.204,-0.595 -0.444,-0.776 -0.222,-0.17 -0.502,-0.262 -0.8,-0.231 z"
   style="fill:url(#XMLID_9_)"
   id="path28" />&#10;				</g>&#10;			</g>&#10;			<radialGradient
   id="XMLID_10_"
   cx="92.233902"
   cy="112.773"
   r="89.4422"
   fx="92.233902"
   fy="112.773"
   gradientUnits="userSpaceOnUse">&#10;				<stop
   offset="0"
   style="stop-color:rgb(139,187,255)"
   id="stop29" />&#10;				<stop
   offset="1"
   style="stop-color:rgb(13,86,172)"
   id="stop30" />&#10;				<a:midPointStop
   offset="0"
   style="stop-color:#8BBBFF" />&#10;				<a:midPointStop
   offset="0.5"
   style="stop-color:#8BBBFF" />&#10;				<a:midPointStop
   offset="1"
   style="stop-color:#0D56AC" />&#10;			</radialGradient>&#10;			<path
   d="m 8.655,61.687 c 0,29.035 23.624,52.656 52.661,52.656 29.033,0 52.654,-23.621 52.654,-52.656 C 113.97,32.65 90.349,9.025 61.316,9.025 32.279,9.025 8.655,32.649 8.655,61.687 Z m 0.97,0 c 0,-28.503 23.188,-51.692 51.691,-51.692 28.499,0 51.686,23.189 51.686,51.692 0,28.501 -23.187,51.687 -51.686,51.687 C 32.813,113.373 9.625,90.188 9.625,61.687 Z"
   style="fill:url(#XMLID_10_)"
   id="path30" />&#10;			<g
   id="g31">&#10;				<g
   id="g30">&#10;				</g>&#10;			</g>&#10;			<g
   id="g42">&#10;				<text
   transform="translate(54.896,31.1138)"
   id="text31"> <tspan
   x="0"
   y="0"
   style="font-size:11.6367px;font-family:ArialMT"
   id="tspan31">12</tspan>									</text>&#10;				<text
   transform="translate(77.2007,36.2852)"
   id="text32"> <tspan
   x="0"
   y="0"
   style="font-size:11.6367px;font-family:ArialMT"
   id="tspan32">1</tspan>									</text>&#10;				<text
   transform="translate(89.4849,48.8916)"
   id="text33"> <tspan
   x="0"
   y="0"
   style="font-size:11.6367px;font-family:ArialMT"
   id="tspan33">2</tspan>									</text>&#10;				<text
   transform="translate(93.686,66.1045)"
   id="text34"> <tspan
   x="0"
   y="0"
   style="font-size:11.6367px;font-family:ArialMT"
   id="tspan34">3</tspan>									</text>&#10;				<text
   transform="translate(89.1616,84.7715)"
   id="text35"> <tspan
   x="0"
   y="0"
   style="font-size:11.6367px;font-family:ArialMT"
   id="tspan35">4</tspan>									</text>&#10;				<text
   transform="translate(76.8784,96.4082)"
   id="text36"> <tspan
   x="0"
   y="0"
   style="font-size:11.6367px;font-family:ArialMT"
   id="tspan36">5</tspan>									</text>&#10;				<text
   transform="translate(58.1318,100.772)"
   id="text37"> <tspan
   x="0"
   y="0"
   style="font-size:11.6367px;font-family:ArialMT"
   id="tspan37">6</tspan>									</text>&#10;				<text
   transform="translate(40.2715,95.4385)"
   id="text38"> <tspan
   x="0"
   y="0"
   style="font-size:11.6367px;font-family:ArialMT"
   id="tspan38">7</tspan>									</text>&#10;				<text
   transform="translate(27.665,82.5898)"
   id="text39"> <tspan
   x="0"
   y="0"
   style="font-size:11.6367px;font-family:ArialMT"
   id="tspan39">8</tspan>									</text>&#10;				<text
   transform="translate(23.5439,66.1045)"
   id="text40"> <tspan
   x="0"
   y="0"
   style="font-size:11.6367px;font-family:ArialMT"
   id="tspan40">9</tspan>									</text>&#10;				<text
   transform="translate(26.2104,47.1943)"
   id="text41"> <tspan
   x="0"
   y="0"
   style="font-size:11.6367px;font-family:ArialMT"
   id="tspan41">10</tspan>									</text>&#10;				<text
   transform="translate(39.0596,35.8003)"
   id="text42"> <tspan
   x="0"
   y="0"
   style="font-size:11.6367px;font-family:ArialMT"
   id="tspan42">11</tspan>									</text>&#10;			</g>&#10;			<g
   id="g57">&#10;				<g
   id="g43">&#10;					<path
   d="m 91.424,25.954 1.84,1.549 -33.763,40.093 -1.839,-1.549 z"
   style="fill:#1a0c80"
   id="path42" />&#10;					<path
   d="M 91.254,26.44 92.131,27.178 58.99,66.535 58.113,65.797 Z"
   style="fill:#6065ac"
   id="path43" />&#10;				</g>&#10;				<g
   id="g45">&#10;					<path
   d="m 68.509,58.528 0.676,3.236 -31.374,6.553 -0.676,-3.236 z"
   style="fill:#1a0c80"
   id="path44" />&#10;					<path
   d="m 68.272,58.835 0.322,1.544 -30.796,6.431 -0.323,-1.541 z"
   style="fill:#6065ac"
   id="path45" />&#10;				</g>&#10;				<g
   id="g47"
   transform="rotate(27,64.891462,60.483013)">&#10;					<path
   d="M 84.72,103.999 61.437,57.054 c 0.747,-0.634 0.909,-1.923 0.33,-3.092 L 57.231,44.814 C 56.653,43.651 55.535,43 54.582,43.2 c 0.77,0.128 1.544,0.712 1.991,1.613 l 4.538,9.148 c 0.58,1.169 0.416,2.458 -0.33,3.092 l 23.282,46.945 c 0.301,0.604 0.111,1.31 -0.423,1.574 -0.032,0.016 -0.066,0.021 -0.099,0.033 0.25,0.083 0.514,0.086 0.754,-0.033 0.535,-0.263 0.724,-0.968 0.425,-1.573 z"
   style="fill:#ffac66"
   id="path46" />&#10;					<path
   d="M 84.063,103.999 60.781,57.054 c 0.745,-0.634 0.909,-1.923 0.33,-3.092 l -4.538,-9.148 c -0.447,-0.901 -1.221,-1.485 -1.991,-1.613 -0.132,0.028 -0.261,0.071 -0.384,0.132 l -0.354,0.176 -0.883,0.438 c -1.017,0.505 -1.311,1.987 -0.655,3.311 l 4.538,9.148 c 0.441,0.891 1.199,1.477 1.958,1.614 0.016,-0.003 0.031,-0.002 0.046,-0.005 l 0.003,0.01 c 0.221,0.034 0.441,0.036 0.652,-0.01 l 23.283,46.945 c 0.135,0.271 0.351,0.465 0.592,0.584 0.053,0.026 0.109,0.045 0.164,0.063 0.032,-0.012 0.066,-0.018 0.099,-0.033 0.533,-0.265 0.723,-0.97 0.422,-1.575 z"
   style="fill:#ff8166"
   id="path47" />&#10;				</g>&#10;				<g
   id="g56">&#10;					<linearGradient
   id="XMLID_11_"
   gradientUnits="userSpaceOnUse"
   x1="62.320801"
   y1="70.019501"
   x2="62.320801"
   y2="61.907299">&#10;						<stop
   offset="0"
   style="stop-color:rgb(255,255,255)"
   id="stop47" />&#10;						<stop
   offset="0.8483"
   style="stop-color:rgb(0,126,255)"
   id="stop48" />&#10;						<stop
   offset="1"
   style="stop-color:rgb(0,134,255)"
   id="stop49" />&#10;						<a:midPointStop
   offset="0"
   style="stop-color:#FFFFFF" />&#10;						<a:midPointStop
   offset="0.5"
   style="stop-color:#FFFFFF" />&#10;						<a:midPointStop
   offset="0.8483"
   style="stop-color:#007EFF" />&#10;						<a:midPointStop
   offset="0.5"
   style="stop-color:#007EFF" />&#10;						<a:midPointStop
   offset="1"
   style="stop-color:#0086FF" />&#10;					</linearGradient>&#10;					<path
   d="m 66.668,61.604 c 0,2.4 -1.946,4.347 -4.348,4.347 -2.399,0 -4.347,-1.946 -4.347,-4.347 0,-2.401 1.947,-4.347 4.347,-4.347 2.402,0.001 4.348,1.947 4.348,4.347 z"
   style="fill:url(#XMLID_11_)"
   id="path49" />&#10;					<linearGradient
   id="XMLID_12_"
   gradientUnits="userSpaceOnUse"
   x1="64.6548"
   y1="63.625999"
   x2="55.907501"
   y2="56.046902">&#10;						<stop
   offset="0"
   style="stop-color:rgb(0,0,114)"
   id="stop50" />&#10;						<stop
   offset="1"
   style="stop-color:rgb(57,149,229)"
   id="stop51" />&#10;						<a:midPointStop
   offset="0"
   style="stop-color:#000072" />&#10;						<a:midPointStop
   offset="0.5"
   style="stop-color:#000072" />&#10;						<a:midPointStop
   offset="1"
   style="stop-color:#3995E5" />&#10;					</linearGradient>&#10;					<path
   d="m 57.768,61.604 c 0,2.511 2.043,4.553 4.553,4.553 2.512,0 4.554,-2.042 4.554,-4.553 0,-2.511 -2.042,-4.554 -4.554,-4.554 -2.509,0.001 -4.553,2.044 -4.553,4.554 z m 0.415,0 c 0,-2.283 1.856,-4.141 4.138,-4.141 2.282,0 4.141,1.857 4.141,4.141 0,2.282 -1.858,4.139 -4.141,4.139 -2.283,0 -4.138,-1.856 -4.138,-4.139 z"
   style="fill:url(#XMLID_12_)"
   id="path51" />&#10;					<linearGradient
   id="XMLID_13_"
   gradientUnits="userSpaceOnUse"
   x1="62.202599"
   y1="57.674801"
   x2="62.202599"
   y2="62.309101">&#10;						<stop
   offset="0"
   style="stop-color:rgb(255,255,255)"
   id="stop52" />&#10;						<stop
   offset="0.1147"
   style="stop-color:rgb(233,244,255)"
   id="stop53" />&#10;						<stop
   offset="0.3539"
   style="stop-color:rgb(176,217,255)"
   id="stop54" />&#10;						<stop
   offset="0.6936"
   style="stop-color:rgb(87,173,255)"
   id="stop55" />&#10;						<stop
   offset="1"
   style="stop-color:rgb(0,131,255)"
   id="stop56" />&#10;						<a:midPointStop
   offset="0"
   style="stop-color:#FFFFFF" />&#10;						<a:midPointStop
   offset="0.5424"
   style="stop-color:#FFFFFF" />&#10;						<a:midPointStop
   offset="1"
   style="stop-color:#0083FF" />&#10;					</linearGradient>&#10;					<path
   d="m 62.339,61.771 c 1.514,-1.117 2.938,-1.496 3.562,-1.617 -0.603,-1.353 -1.956,-2.298 -3.533,-2.298 -2.134,0 -3.863,1.729 -3.863,3.863 0,0.336 0.042,0.661 0.123,0.971 0.625,0.116 2.155,0.231 3.711,-0.919 z"
   style="fill:url(#XMLID_13_)"
   id="path56" />&#10;				</g>&#10;			</g>&#10;		</g>&#10;		&#10;	</g>&#10;<metadata
   id="metadata1"><rdf:RDF><cc:License
       rdf:about="http://creativecommons.org/publicdomain/zero/1.0/"><cc:permits
         rdf:resource="http://creativecommons.org/ns#Reproduction" /><cc:permits
         rdf:resource="http://creativecommons.org/ns#Distribution" /><cc:permits
         rdf:resource="http://creativecommons.org/ns#DerivativeWorks" /></cc:License><cc:Work
       rdf:about=""><cc:license
         rdf:resource="http://creativecommons.org/publicdomain/zero/1.0/" /></cc:Work></rdf:RDF></metadata></svg>
