<?xml version="1.0" encoding="UTF-8" standalone="no"?>
<svg
   width="256"
   height="256"
   version="1.1"
   id="svg26"
   sodipodi:docname="appointment-soon.svg"
   viewBox="0 0 256 256"
   inkscape:version="1.4.2 (ebf0e940d0, 2025-05-08)"
   xmlns:inkscape="http://www.inkscape.org/namespaces/inkscape"
   xmlns:sodipodi="http://sodipodi.sourceforge.net/DTD/sodipodi-0.dtd"
   xmlns:xlink="http://www.w3.org/1999/xlink"
   xmlns="http://www.w3.org/2000/svg"
   xmlns:svg="http://www.w3.org/2000/svg"
   xmlns:rdf="http://www.w3.org/1999/02/22-rdf-syntax-ns#"
   xmlns:cc="http://creativecommons.org/ns#"
   xmlns:dc="http://purl.org/dc/elements/1.1/">
  <sodipodi:namedview
     id="namedview26"
     pagecolor="#ffffff"
     bordercolor="#000000"
     borderopacity="0.25"
     inkscape:showpageshadow="2"
     inkscape:pageopacity="0.0"
     inkscape:pagecheckerboard="0"
     inkscape:deskcolor="#d1d1d1"
     inkscape:zoom="2.3131531"
     inkscape:cx="128.39617"
     inkscape:cy="195.62043"
     inkscape:current-layer="svg26" />
  <defs
     id="defs16">
    <radialGradient
       id="a"
       cx="31.113001"
       cy="19.009001"
       r="8.6620998"
       gradientUnits="userSpaceOnUse">
      <stop
         offset="0"
         id="stop1" />
      <stop
         offset="1"
         stop-opacity="0"
         id="stop2" />
    </radialGradient>
    <radialGradient
       id="h"
       cx="11.329"
       cy="10.584"
       r="15.532"
       gradientUnits="userSpaceOnUse">
      <stop
         offset="0"
         stop-color="#f3f4ff"
         id="stop3" />
      <stop
         offset="1"
         stop-color="#9193af"
         id="stop4" />
    </radialGradient>
    <radialGradient
       id="d"
       cx="11.902"
       cy="10.045"
       r="29.292999"
       gradientUnits="userSpaceOnUse">
      <stop
         offset="0"
         stop-color="#fffffd"
         id="stop5" />
      <stop
         offset="1"
         stop-color="#cbcbc9"
         id="stop6" />
    </radialGradient>
    <radialGradient
       id="f"
       cx="23.375"
       cy="10.973"
       r="3.3478"
       gradientTransform="matrix(3.6304,0,0,3.7421,-61.486,-29.186)"
       gradientUnits="userSpaceOnUse">
      <stop
         offset="0"
         stop-color="#c4a000"
         id="stop7" />
      <stop
         offset="1"
         stop-color="#c4a000"
         stop-opacity="0"
         id="stop8" />
    </radialGradient>
    <radialGradient
       id="c"
       cx="8.7468004"
       cy="6.8283"
       r="29.889999"
       gradientUnits="userSpaceOnUse">
      <stop
         offset="0"
         stop-color="#9497b3"
         id="stop9" />
      <stop
         offset="1"
         stop-color="#4c4059"
         id="stop10" />
    </radialGradient>
    <linearGradient
       id="b"
       x1="8.9155998"
       x2="9.8855"
       y1="37.196999"
       y2="52.091"
       gradientTransform="matrix(3.1238,0,0,0.96969,-31.888,-19.595)"
       gradientUnits="userSpaceOnUse">
      <stop
         offset="0"
         stop-color="#9aa29a"
         id="stop11" />
      <stop
         offset="1"
         stop-color="#b5beb5"
         id="stop12" />
    </linearGradient>
    <linearGradient
       id="e"
       x1="6.3421998"
       x2="22.218"
       y1="7.7893"
       y2="25.884001"
       gradientUnits="userSpaceOnUse">
      <stop
         offset="0"
         stop-color="#a0a0a0"
         id="stop13" />
      <stop
         offset="1"
         stop-color="#fff"
         id="stop14" />
    </linearGradient>
    <linearGradient
       id="g"
       x1="19.667"
       x2="20.33"
       y1="4.2571001"
       y2="5.2845998"
       gradientUnits="userSpaceOnUse">
      <stop
         offset="0"
         stop-color="#c4a000"
         id="stop15" />
      <stop
         offset="1"
         stop-color="#c4a000"
         stop-opacity="0"
         id="stop16" />
    </linearGradient>
    <linearGradient
       inkscape:collect="always"
       xlink:href="#linearGradient49"
       id="linearGradient56"
       x1="21.957405"
       y1="18.9436"
       x2="23.622187"
       y2="18.96855"
       gradientUnits="userSpaceOnUse" />
    <linearGradient
       id="linearGradient49"
       inkscape:collect="always">
      <stop
         style="stop-color:#ff5e5e;stop-opacity:1;"
         offset="0"
         id="stop49" />
      <stop
         style="stop-color:#ff1313;stop-opacity:1;"
         offset="1"
         id="stop52" />
    </linearGradient>
    <linearGradient
       inkscape:collect="always"
       xlink:href="#linearGradient41"
       id="linearGradient47"
       x1="21.882555"
       y1="14.527433"
       x2="25.643145"
       y2="15.849789"
       gradientUnits="userSpaceOnUse" />
    <linearGradient
       id="linearGradient41"
       inkscape:collect="always">
      <stop
         style="stop-color:#ff8181;stop-opacity:1;"
         offset="0"
         id="stop41" />
      <stop
         style="stop-color:#ff2e2e;stop-opacity:1;"
         offset="1"
         id="stop44" />
    </linearGradient>
    <radialGradient
       inkscape:collect="always"
       xlink:href="#linearGradient32"
       id="radialGradient33"
       cx="23.051699"
       cy="31.427279"
       fx="23.051699"
       fy="31.427279"
       r="2.5"
       gradientUnits="userSpaceOnUse"
       gradientTransform="matrix(0.8837538,0.46795215,-0.52372719,0.98908807,19.390103,-11.091892)" />
    <linearGradient
       id="linearGradient32"
       inkscape:collect="always">
      <stop
         style="stop-color:#fec5c5;stop-opacity:1;"
         offset="0"
         id="stop32" />
      <stop
         style="stop-color:#ff1313;stop-opacity:1;"
         offset="1"
         id="stop33" />
    </linearGradient>
    <radialGradient
       inkscape:collect="always"
       xlink:href="#linearGradient33"
       id="radialGradient35"
       cx="23.990639"
       cy="31.234468"
       fx="23.990639"
       fy="31.234468"
       r="2.5"
       gradientUnits="userSpaceOnUse" />
    <linearGradient
       id="linearGradient33"
       inkscape:collect="always">
      <stop
         style="stop-color:#ff1919;stop-opacity:1;"
         offset="0"
         id="stop34" />
      <stop
         style="stop-color:#ff1c1c;stop-opacity:0.49803922;"
         offset="0.82578176"
         id="stop36" />
      <stop
         style="stop-color:#ff7a7a;stop-opacity:0;"
         offset="0.87357241"
         id="stop37" />
      <stop
         style="stop-color:#ff1f1f;stop-opacity:0;"
         offset="1"
         id="stop35" />
    </linearGradient>
  </defs>
  <g
     id="g26"
     transform="matrix(5.3682652,0,0,5.3682652,0.39556715,-1.8646289)">
    <path
       fill="url(#a)"
       fill-rule="evenodd"
       d="m 39.775,19.009 a 8.6621,8.6621 0 1 1 -17.324,0 8.6621,8.6621 0 1 1 17.324,0 z"
       color="#000000"
       transform="matrix(2.5632,0,0,1.2196,-55.984,14.041)"
       id="path16"
       style="fill:url(#a)" />
    <path
       fill="url(#b)"
       fill-rule="evenodd"
       d="M 18.588,1.4037 4.227,18.0967 5.4857,19.3399 18.5877,1.4039 Z"
       color="#000000"
       id="path17"
       style="fill:url(#b)" />
    <path
       fill="#fefefe"
       fill-rule="evenodd"
       d="M 18.467,1.3138 5.66,19.0728 7.4895,20.6881 18.4665,1.3141 Z"
       id="path18" />
    <path
       fill="url(#c)"
       fill-rule="evenodd"
       stroke="#605773"
       stroke-linecap="round"
       stroke-linejoin="round"
       stroke-width="0.69855"
       d="m 31.161,16.911 a 14.911,14.911 0 1 1 -29.821,0 14.911,14.911 0 1 1 29.821,0 z"
       transform="matrix(1.4315,0,0,1.4315,0.56946,-1.6546)"
       id="path19"
       style="fill:url(#c)" />
    <path
       fill="url(#d)"
       fill-rule="evenodd"
       stroke="url(#e)"
       stroke-linecap="round"
       stroke-linejoin="round"
       stroke-width="0.7114"
       d="m 31.161,16.911 a 14.911,14.911 0 1 1 -29.821,0 14.911,14.911 0 1 1 29.821,0 z"
       transform="matrix(1.1638,0,0,1.1638,4.8248,2.7776)"
       id="path20"
       style="fill:url(#d);stroke:url(#e)" />
    <path
       fill="url(#f)"
       fill-rule="evenodd"
       stroke="url(#g)"
       stroke-width="0.56499"
       d="m 16.679,6.6387 a 8.5,8.5 0 0 1 6.6533,-3.2636 l 0.04231,8.4999 z"
       color="#000000"
       transform="matrix(1.77,0,0,1.77,-17.024,1.6107)"
       id="path21"
       style="fill:url(#f);stroke:url(#g)" />
    <path
       fill="#f3f3f3"
       fill-rule="evenodd"
       stroke="#000000"
       stroke-linecap="round"
       stroke-linejoin="round"
       stroke-width="0.999994"
       d="m 26.70436,22.691697 a 2.526938,2.526938 0 1 1 -5.053669,0 2.526938,2.526938 0 1 1 5.053669,0 z"
       id="path22" />
    <path
       fill="none"
       stroke="#000000"
       stroke-linecap="round"
       d="M 22.177,20.718 13.1561,13.1403"
       id="path23" />
    <path
       fill="none"
       stroke="#000000"
       stroke-linecap="round"
       stroke-width="2"
       d="m 19.409,29.777 2.96,-4.4933"
       id="path24" />
    <path
       fill="#b6b9b1"
       fill-rule="evenodd"
       d="m 25.331338,8.7434534 a 1.7011706,1.7011706 0 1 1 -3.402231,0 1.7011706,1.7011706 0 1 1 3.402231,0 z m 0,27.2179996 a 1.7011706,1.7011706 0 1 1 -3.402231,0 1.7011706,1.7011706 0 1 1 3.402231,0 z m -13.609,-13.6091 a 1.7011706,1.7011706 0 1 1 -3.4022313,0 1.7011706,1.7011706 0 1 1 3.4022313,0 z m 27.2186,0 a 1.7011706,1.7011706 0 1 1 -3.402231,0 1.7011706,1.7011706 0 1 1 3.402231,0 z"
       id="path25" />
    <path
       fill="none"
       stroke="url(#h)"
       stroke-linecap="round"
       stroke-linejoin="round"
       stroke-width="0.73657"
       d="m 31.161,16.911 a 14.911,14.911 0 1 1 -29.821,0 14.911,14.911 0 1 1 29.821,0 z"
       transform="matrix(1.3577,0,0,1.3577,1.7699,-0.49374)"
       id="path26"
       style="stroke:url(#h)" />
  </g>
  <metadata
     id="metadata26">
    <rdf:RDF>
      <cc:Work
         rdf:about="">
        <dc:source>/home/blackcrack/kde-Plasma5up-TangoSVG-scalable-icontheme/Master-SVG/</dc:source>
        <cc:license
           rdf:resource="http://creativecommons.org/publicdomain/zero/1.0/" />
      </cc:Work>
      <cc:License
         rdf:about="http://creativecommons.org/publicdomain/zero/1.0/">
        <cc:permits
           rdf:resource="http://creativecommons.org/ns#Reproduction" />
        <cc:permits
           rdf:resource="http://creativecommons.org/ns#Distribution" />
        <cc:permits
           rdf:resource="http://creativecommons.org/ns#DerivativeWorks" />
      </cc:License>
    </rdf:RDF>
  </metadata>
  <g
     id="use14"
     stroke-linejoin="round"
     fill="url(#i)"
     style="fill:none;stroke:none;stroke-width:0.4;stroke-opacity:0.9"
     transform="matrix(10.25766,0,0,10.25766,-39.154322,-98.949096)">
    <path
       d="m 25.72,26.57 c 0.128,0 0.235,-0.174 0.235,-0.384 l 1.06,-14.4 c 0,-0.209 -0.107,-0.369 -0.235,-0.369 h -5.685 c -0.128,0 -0.235,0.159 -0.235,0.369 l 1.06,14.4 c 0,0.209 0.107,0.384 0.235,0.384 z"
       id="path1"
       style="fill:url(#linearGradient56);stroke:url(#linearGradient47);stroke-opacity:1" />
    <circle
       cy="31.299999"
       cx="24"
       r="2.3"
       id="circle1"
       style="fill:url(#radialGradient33);stroke:url(#radialGradient35)" />
  </g>
</svg>
