<?xml version="1.0" encoding="UTF-8" standalone="no"?>
<!-- Created with Inkscape (http://www.inkscape.org/) -->

<svg
   width="256mm"
   height="256mm"
   viewBox="0 0 256 256"
   version="1.1"
   id="svg1"
   inkscape:version="1.4.2 (ebf0e940d0, 2025-05-08)"
   sodipodi:docname="audio-volume-high-symbolic.svg"
   xml:space="preserve"
   xmlns:inkscape="http://www.inkscape.org/namespaces/inkscape"
   xmlns:sodipodi="http://sodipodi.sourceforge.net/DTD/sodipodi-0.dtd"
   xmlns:xlink="http://www.w3.org/1999/xlink"
   xmlns="http://www.w3.org/2000/svg"
   xmlns:svg="http://www.w3.org/2000/svg"
   xmlns:rdf="http://www.w3.org/1999/02/22-rdf-syntax-ns#"
   xmlns:cc="http://creativecommons.org/ns#"
   xmlns:dc="http://purl.org/dc/elements/1.1/"><title
     id="title21">Audio Status symbolic</title><sodipodi:namedview
     id="namedview1"
     pagecolor="#ffffff"
     bordercolor="#000000"
     borderopacity="0.25"
     inkscape:showpageshadow="2"
     inkscape:pageopacity="0.0"
     inkscape:pagecheckerboard="0"
     inkscape:deskcolor="#d1d1d1"
     inkscape:document-units="mm"
     inkscape:zoom="0.62392472"
     inkscape:cx="791.76218"
     inkscape:cy="896.7428"
     inkscape:current-layer="path20" /><defs
     id="defs1"><linearGradient
       id="linearGradient20"
       inkscape:collect="always"><stop
         style="stop-color:#808080;stop-opacity:1;"
         offset="0"
         id="stop20" /><stop
         style="stop-color:#959595;stop-opacity:0;"
         offset="1"
         id="stop21" /></linearGradient><linearGradient
       id="linearGradient14"
       inkscape:collect="always"><stop
         style="stop-color:#f3f4f3;stop-opacity:1;"
         offset="0"
         id="stop15" /><stop
         style="stop-color:#dddddd;stop-opacity:1;"
         offset="0.5"
         id="stop17" /><stop
         style="stop-color:#9c9d95;stop-opacity:1;"
         offset="0.66995698"
         id="stop18" /><stop
         style="stop-color:#9b9e95;stop-opacity:1;"
         offset="1"
         id="stop16" /></linearGradient><linearGradient
       id="linearGradient9"
       inkscape:collect="always"><stop
         style="stop-color:#efefef;stop-opacity:1;"
         offset="0"
         id="stop10" /><stop
         style="stop-color:#bcbeb8;stop-opacity:1;"
         offset="0.2055134"
         id="stop12" /><stop
         style="stop-color:#fefefd;stop-opacity:1;"
         offset="0.48618925"
         id="stop13" /><stop
         style="stop-color:#dfe0dd;stop-opacity:1;"
         offset="0.74616462"
         id="stop14" /><stop
         style="stop-color:#959788;stop-opacity:1;"
         offset="1"
         id="stop11" /></linearGradient><linearGradient
       id="linearGradient5"
       inkscape:collect="always"><stop
         style="stop-color:#acaea7;stop-opacity:1;"
         offset="0"
         id="stop5" /><stop
         style="stop-color:#cccdc9;stop-opacity:1;"
         offset="0.25"
         id="stop9" /><stop
         style="stop-color:#f6f7f6;stop-opacity:1;"
         offset="0.5"
         id="stop7" /><stop
         style="stop-color:#a8aaa1;stop-opacity:1;"
         offset="0.75"
         id="stop8" /><stop
         style="stop-color:#a7a8a1;stop-opacity:1;"
         offset="1"
         id="stop6" /></linearGradient><linearGradient
       inkscape:collect="always"
       xlink:href="#linearGradient5"
       id="linearGradient6"
       x1="79.65834"
       y1="38.900215"
       x2="105.99238"
       y2="133.98961"
       gradientUnits="userSpaceOnUse" /><linearGradient
       inkscape:collect="always"
       xlink:href="#linearGradient9"
       id="linearGradient11"
       x1="71.837135"
       y1="55.365906"
       x2="71.826065"
       y2="122.46362"
       gradientUnits="userSpaceOnUse" /><linearGradient
       inkscape:collect="always"
       xlink:href="#linearGradient14"
       id="linearGradient16"
       x1="110.11988"
       y1="92.001726"
       x2="130.69094"
       y2="92.001726"
       gradientUnits="userSpaceOnUse" /><radialGradient
       inkscape:collect="always"
       xlink:href="#linearGradient20"
       id="radialGradient21"
       cx="102.9106"
       cy="228.87318"
       fx="102.9106"
       fy="228.87318"
       r="102.9106"
       gradientTransform="matrix(0.57123442,0,0,0.13709627,53.512395,122.65522)"
       gradientUnits="userSpaceOnUse" /></defs><metadata
     id="metadata1"><rdf:RDF><cc:Work
         rdf:about=""><cc:license
           rdf:resource="http://creativecommons.org/publicdomain/zero/1.0/" /><dc:title>Audio Status symbolic</dc:title><dc:publisher><cc:Agent><dc:title>Blackcrack</dc:title></cc:Agent></dc:publisher><dc:description>20250709 Recreate Audio Status symbolic (the Smaller Icon) for symbolic-&gt;The icon used to indicate high audio volume.</dc:description><dc:source>https://web.archive.org/web/20060428065221/http://tango-project.org/Tango_Icon_Gallery</dc:source></cc:Work><cc:License
         rdf:about="http://creativecommons.org/publicdomain/zero/1.0/"><cc:permits
           rdf:resource="http://creativecommons.org/ns#Reproduction" /><cc:permits
           rdf:resource="http://creativecommons.org/ns#Distribution" /><cc:permits
           rdf:resource="http://creativecommons.org/ns#DerivativeWorks" /></cc:License></rdf:RDF></metadata><g
     id="g9"
     style="display:inline"
     transform="matrix(1.7505948,0,0,1.7505948,-84.622387,-40.775987)"><rect
       style="fill:url(#radialGradient21);fill-opacity:1;stroke:none;stroke-width:3.83698;stroke-linecap:round;stroke-linejoin:round;stroke-dasharray:none;stroke-opacity:1;paint-order:fill markers stroke"
       id="rect20"
       width="117.57215"
       height="28.217319"
       x="53.512394"
       y="139.92422" /><g
       id="g20"><rect
         style="fill:#555753;fill-opacity:0.996078;stroke-width:10.917;stroke-linecap:round;stroke-linejoin:round;paint-order:fill markers stroke"
         id="rect1"
         width="19.347195"
         height="45.280666"
         x="50.220375"
         y="68.744286" /><path
         id="rect2"
         style="fill:url(#linearGradient6);stroke:#555753;stroke-width:4.517;stroke-linecap:round;stroke-linejoin:round;stroke-opacity:0.996078;paint-order:fill markers stroke"
         d="M 79.858627,69.15593 118.55301,36.224537 118.14137,149.4262 79.858627,117.31809 Z"
         sodipodi:nodetypes="ccccc" /><rect
         style="fill:url(#linearGradient11);stroke:#555753;stroke-width:4.51699;stroke-linecap:round;stroke-linejoin:round;stroke-dasharray:none;stroke-opacity:0.996078;paint-order:fill markers stroke"
         id="rect3"
         width="23.875261"
         height="69.567574"
         x="60.923077"
         y="56.806652" /><path
         id="rect4"
         style="fill:url(#linearGradient16);stroke:#555753;stroke-width:4.51699;stroke-linecap:round;stroke-linejoin:round;stroke-opacity:0.996078;paint-order:fill markers stroke"
         d="m 112.37838,34.166317 c 5.94628,-8.923937 11.20381,-7.516504 16.05406,0 V 150.24949 c -5.35135,8.32898 -10.70271,7.01543 -16.05406,0 z"
         sodipodi:nodetypes="ccccc" /></g><g
       id="g4"
       style="fill:#3364a4;fill-opacity:1;stroke:#bebebe;stroke-opacity:1;stroke-width:2.85617209;stroke-dasharray:none"><g
         id="path18"
         style="opacity:1"><path
           style="baseline-shift:baseline;display:inline;overflow:visible;vector-effect:none;fill:#bebebe;stroke:none;stroke-linecap:round;stroke-linejoin:round;paint-order:fill markers stroke;enable-background:accumulate;stop-color:#000000;stop-opacity:1"
           d="m 137.75977,68.476562 c -0.51689,-0.0026 -1.03405,0.09586 -1.52149,0.294922 -0.97461,0.398794 -1.75308,1.169438 -2.16016,2.140625 h 0.002 c -0.84219,2.007139 0.11793,4.35685 2.125,5.199219 4.53671,1.903791 6.56269,7.065644 6.28515,12.783203 -0.13758,2.834571 -0.93324,5.545652 -2.07226,7.617188 -1.13902,2.071535 -2.62219,3.440603 -3.89844,3.853511 a 1.4282289,1.4282289 0 0 0 -0.002,0 c -2.07036,0.67051 -3.2244,2.93134 -2.55469,5.00196 0.66922,2.07156 2.93047,3.22805 5.00195,2.55859 7.51231,-2.4305 11.07599,-10.717773 11.46094,-18.648436 0.38686,-7.969814 -2.75127,-16.967264 -11.14648,-20.490235 -0.48541,-0.203956 -1.00265,-0.307945 -1.51953,-0.310547 z m -0.44141,2.939454 c 6.3e-4,-2.56e-4 0.001,2.54e-4 0.002,0 0.27405,-0.111339 0.58075,-0.110702 0.85352,0.0039 7.02219,2.946797 9.74462,10.588953 9.39844,17.720703 -0.34808,7.1709 -3.5706,14.152455 -9.48633,16.066405 -0.60259,0.19474 -1.20963,-0.11614 -1.4043,-0.71875 a 1.4282289,1.4282289 0 0 0 -0.002,0 c -0.19481,-0.6023 0.11652,-1.20926 0.71875,-1.4043 2.30623,-0.74614 4.15268,-2.70426 5.52343,-5.197261 1.37076,-2.493 2.26308,-5.583803 2.42188,-8.855469 0.31527,-6.494917 -2.09102,-13.059149 -8.0332,-15.552734 -0.58384,-0.245036 -0.84264,-0.877083 -0.59766,-1.460938 0.11445,-0.273048 0.33164,-0.489108 0.60547,-0.601562 z"
           id="path10" /><path
           style="display:inline;fill:#3364a4;fill-opacity:1;stroke:none;stroke-opacity:1;stroke-width:2.85617209;stroke-dasharray:none;opacity:1;baseline-shift:baseline;overflow:visible;vector-effect:none;stroke-linecap:round;stroke-linejoin:round;paint-order:fill markers stroke;enable-background:accumulate;stop-color:#000000;stop-opacity:1"
           d="m 136.77878,70.09375 a 2.5439925,2.5439925 0 0 0 -1.38281,1.371094 2.5439925,2.5439925 0 0 0 1.36133,3.330078 c 5.23945,2.198688 7.45655,8.061731 7.16015,14.167969 -0.29639,6.106237 -3.3765,11.602659 -6.95898,12.761719 a 2.5439925,2.5439925 0 0 0 -1.63672,3.20312 2.5439925,2.5439925 0 0 0 3.20313,1.63868 c 6.71402,-2.17223 10.10809,-9.806644 10.4746,-17.357426 C 149.366,81.658202 146.43475,73.3384 138.72605,70.103516 a 2.5439925,2.5439925 0 0 0 -1.94727,-0.0098 z"
           id="path9" /></g><g
         id="path19"
         style="display:inline;opacity:1"><path
           style="baseline-shift:baseline;display:inline;overflow:visible;vector-effect:none;fill:#bebebe;stroke:none;stroke-linecap:round;stroke-linejoin:round;paint-order:fill markers stroke;enable-background:accumulate;stop-color:#000000;stop-opacity:1"
           d="M 152.80664,51.689453 C 152.11406,51.657704 151.41429,51.759888 150.75,52 c -1.32795,0.479323 -2.41286,1.468461 -3.01367,2.746094 -1.24381,2.648853 -0.0902,5.845968 2.55859,7.089843 3.23531,1.519606 6.04279,5.003219 7.98633,9.732422 1.94354,4.729204 3.01396,10.646547 2.94336,16.771485 -0.0705,6.119462 -1.31269,12.200616 -3.35156,17.162106 -2.03887,4.9615 -4.89651,8.7583 -7.92774,10.46485 -2.55025,1.43626 -3.46422,4.70986 -2.02734,7.25976 1.43529,2.54966 4.70779,3.46395 7.25781,2.0293 11.79772,-6.642 16.53761,-22.09789 16.70703,-36.794923 0.0848,-7.353308 -1.01534,-14.872063 -3.70703,-21.351562 -2.69169,-6.479499 -7.02309,-11.950339 -13.34961,-14.921875 a 1.4282289,1.4282289 0 0 0 -0.002,0 c -0.63954,-0.299881 -1.325,-0.466298 -2.01758,-0.498047 z M 151.7207,54.6875 a 1.4282289,1.4282289 0 0 0 0.002,0 c 0.61666,-0.222898 1.29481,-0.191935 1.88867,0.08594 5.56265,2.612751 9.43206,7.425944 11.92773,13.433594 2.49568,6.00765 3.56948,13.179161 3.48828,20.222656 -0.1625,14.09658 -4.84824,28.4796 -15.2539,34.33789 -1.20494,0.6779 -2.68898,0.26141 -3.36719,-0.94336 -0.67897,-1.20492 -0.26367,-2.69046 0.94141,-3.36914 3.90151,-2.19651 6.9734,-6.52682 9.16796,-11.86719 2.19457,-5.34037 3.48975,-11.735824 3.56446,-18.216793 0.0746,-6.475493 -1.03601,-12.729505 -3.15625,-17.888672 -2.12025,-5.159167 -5.25928,-9.28094 -9.41406,-11.232422 -1.25165,-0.587766 -1.77524,-2.037406 -1.1875,-3.289063 0.27927,-0.593869 0.78109,-1.050828 1.39843,-1.273437 z"
           id="path8" /><path
           style="baseline-shift:baseline;display:inline;overflow:visible;opacity:1;vector-effect:none;fill:#3364a4;fill-opacity:1;stroke:none;stroke-width:2.85617;stroke-linecap:round;stroke-linejoin:round;stroke-dasharray:none;stroke-opacity:1;paint-order:fill markers stroke;enable-background:accumulate;stop-color:#000000;stop-opacity:1"
           d="m 151.23633,53.34375 a 3.9012451,3.9012451 0 0 0 -2.20703,2.009766 3.9012451,3.9012451 0 0 0 1.87304,5.189453 c 7.39009,3.471088 11.89525,15.21207 11.75,27.8125 -0.14525,12.600431 -5.07312,24.952411 -12.00586,28.855471 a 3.9012451,3.9012451 0 0 0 -1.48437,5.31445 3.9012451,3.9012451 0 0 0 5.3125,1.48633 c 11.10169,-6.25014 15.81451,-21.1696 15.98047,-35.566408 0.16596,-14.396804 -4.34716,-29.380556 -16.23633,-34.964843 a 3.9012451,3.9012451 0 0 0 -2.98242,-0.136719 z"
           id="path7" /></g><g
         id="path20"
         style="display:inline;opacity:1"><path
           style="baseline-shift:baseline;display:inline;overflow:visible;vector-effect:none;fill:#bebebe;stroke:none;stroke-linecap:round;stroke-linejoin:round;paint-order:fill markers stroke;enable-background:accumulate;stop-color:#000000;stop-opacity:1"
           d="m 165.50586,33.816406 c -0.76858,-0.07738 -1.553,-0.0042 -2.30664,0.222656 -1.50714,0.453763 -2.77281,1.488389 -3.51758,2.875 -1.54447,2.872739 -0.45477,6.494597 2.41797,8.039063 11.38888,6.120884 18.384,23.758863 18.31641,42.628906 -0.0676,18.867929 -7.24032,37.817739 -18.81641,45.597659 -2.70733,1.81866 -3.43569,5.53085 -1.61719,8.23828 1.81959,2.70802 5.53299,3.43597 8.24024,1.61523 16.65819,-11.19545 23.98882,-33.74964 24.0664,-55.4082 0.0776,-21.660542 -7.15841,-43.773992 -24.56836,-53.130859 -0.69329,-0.372566 -1.44626,-0.600352 -2.21484,-0.677735 z m -1.48242,2.957031 c 0.78287,-0.235682 1.62552,-0.150685 2.3457,0.236329 16.03332,8.617006 23.1397,29.589797 23.06445,50.603515 -0.0753,21.015699 -7.31074,42.635839 -22.80468,53.048829 -1.42604,0.95906 -3.31694,0.58855 -4.27539,-0.83789 -0.95788,-1.4261 -0.58621,-3.31548 0.83984,-4.27344 12.87061,-8.64992 20.00807,-28.38708 20.07812,-47.95703 0.0701,-19.567844 -6.89145,-38.207718 -19.82031,-45.15625 -1.51318,-0.813528 -2.06743,-2.658696 -1.2539,-4.171875 0.38682,-0.720192 1.04337,-1.256508 1.82617,-1.492188 z"
           id="path6" /><path
           style="baseline-shift:baseline;display:inline;overflow:visible;opacity:1;vector-effect:none;fill:#3364a4;fill-opacity:1;stroke:none;stroke-width:2.85617;stroke-linecap:round;stroke-linejoin:round;stroke-dasharray:none;stroke-opacity:1;paint-order:fill markers stroke;enable-background:accumulate;stop-color:#000000;stop-opacity:1"
           d="m 163.61133,35.40625 a 4.5081801,4.5081801 0 0 0 -2.67188,2.183594 4.5081801,4.5081801 0 0 0 1.83594,6.105468 c 12.15887,6.534708 19.1372,24.673635 19.06836,43.892579 -0.0688,19.218939 -7.22392,38.562419 -19.44727,46.777339 a 4.5081801,4.5081801 0 0 0 -1.22851,6.25586 4.5081801,4.5081801 0 0 0 6.25781,1.22657 c 16.07607,-10.80422 23.35912,-32.89139 23.43555,-54.228519 0.0764,-21.33713 -7.09478,-42.880251 -23.81641,-51.867188 a 4.5081801,4.5081801 0 0 0 -3.43359,-0.345703 z"
           id="path5" /></g></g><g
       id="g3147"
       transform="matrix(3.3774158,0,0,3.3774158,27.658352,9.3830093)"
       inkscape:label="d"
       style="display:none"><rect
         ry="2.2097087"
         rx="2.2097087"
         inkscape:r_cy="true"
         inkscape:r_cx="true"
         y="27.5"
         x="28.5"
         height="19"
         width="20"
         id="rect1686"
         style="color:#000000;display:inline;overflow:visible;visibility:visible;opacity:1;fill:#cc0000;fill-opacity:1;fill-rule:evenodd;stroke:#a40000;stroke-width:1;stroke-linecap:square;stroke-linejoin:round;stroke-miterlimit:4;stroke-dasharray:none;stroke-dashoffset:0;stroke-opacity:1;marker:none;marker-start:none;marker-mid:none;marker-end:none" /><g
         inkscape:r_cy="true"
         inkscape:r_cx="true"
         transform="matrix(0.779029,0,0,0.779029,28.87262,8.175921)"
         id="g2254"><path
           style="color:#000000;display:inline;overflow:visible;visibility:visible;opacity:1;fill:none;fill-opacity:1;fill-rule:evenodd;stroke:#ffffff;stroke-width:2.5673;stroke-linecap:round;stroke-linejoin:round;stroke-miterlimit:4;stroke-dasharray:none;stroke-dashoffset:0;stroke-opacity:1;marker:none;marker-start:none;marker-mid:none;marker-end:none"
           d="M 8,32 18,42"
           id="path1377"
           inkscape:r_cx="true"
           inkscape:r_cy="true" /><path
           inkscape:r_cy="true"
           inkscape:r_cx="true"
           id="path2252"
           d="M 18,32 8,42"
           style="color:#000000;display:inline;overflow:visible;visibility:visible;opacity:1;fill:none;fill-opacity:1;fill-rule:evenodd;stroke:#ffffff;stroke-width:2.5673;stroke-linecap:round;stroke-linejoin:round;stroke-miterlimit:4;stroke-dasharray:none;stroke-dashoffset:0;stroke-opacity:1;marker:none;marker-start:none;marker-mid:none;marker-end:none" /></g><rect
         style="color:#000000;display:inline;overflow:visible;visibility:visible;opacity:0.4;fill:none;fill-opacity:1;fill-rule:evenodd;stroke:#ffffff;stroke-width:1;stroke-linecap:square;stroke-linejoin:round;stroke-miterlimit:4;stroke-dasharray:none;stroke-dashoffset:0;stroke-opacity:1;marker:none;marker-start:none;marker-mid:none;marker-end:none"
         id="rect2258"
         width="18.09524"
         height="17.190477"
         x="29.452381"
         y="28.404764"
         inkscape:r_cx="true"
         inkscape:r_cy="true"
         rx="1.5847089"
         ry="1.5847089" /></g></g></svg>
