<?xml version="1.0" encoding="UTF-8" standalone="no"?>
<!-- Created with Inkscape (http://www.inkscape.org/) -->

<svg
   width="256mm"
   height="256mm"
   viewBox="0 0 256 256"
   version="1.1"
   id="svg1"
   inkscape:version="1.4.2 (ebf0e940d0, 2025-05-08)"
   sodipodi:docname="charging.svg"
   xml:space="preserve"
   xmlns:inkscape="http://www.inkscape.org/namespaces/inkscape"
   xmlns:sodipodi="http://sodipodi.sourceforge.net/DTD/sodipodi-0.dtd"
   xmlns:xlink="http://www.w3.org/1999/xlink"
   xmlns="http://www.w3.org/2000/svg"
   xmlns:svg="http://www.w3.org/2000/svg"
   xmlns:rdf="http://www.w3.org/1999/02/22-rdf-syntax-ns#"
   xmlns:cc="http://creativecommons.org/ns#"><sodipodi:namedview
     id="namedview1"
     pagecolor="#ffffff"
     bordercolor="#000000"
     borderopacity="0.25"
     inkscape:showpageshadow="2"
     inkscape:pageopacity="0.0"
     inkscape:pagecheckerboard="0"
     inkscape:deskcolor="#d1d1d1"
     inkscape:document-units="mm"
     inkscape:zoom="0.46820664"
     inkscape:cx="525.40904"
     inkscape:cy="693.07006"
     inkscape:current-layer="svg1" /><defs
     id="defs1"><radialGradient
       id="radialGradient9007"
       cx="78.272499"
       cy="137.83299"
       r="30.908199"
       fx="78.272499"
       fy="137.83299"
       gradientUnits="userSpaceOnUse"><stop
         offset="0"
         style="stop-color:#FFBB9D"
         id="stop9009" /><stop
         offset="1"
         style="stop-color:#FF0000"
         id="stop9011" /></radialGradient><radialGradient
       id="radialGradient8984"
       cx="114.2119"
       cy="136.4951"
       r="58.688702"
       fx="114.2119"
       fy="136.4951"
       gradientTransform="translate(-2.9487,-0.3809)"
       gradientUnits="userSpaceOnUse"><stop
         offset="0"
         style="stop-color:#FFBB9D"
         id="stop8986" /><stop
         offset="1"
         style="stop-color:#FF0000"
         id="stop8988" /></radialGradient><radialGradient
       id="radialGradient9033"
       cx="116.8955"
       cy="123.7764"
       r="81.262604"
       fx="116.8955"
       fy="123.7764"
       gradientTransform="matrix(0.9747,0.0253,0.0253,0.9747,-2.5921,-0.7369)"
       gradientUnits="userSpaceOnUse"><stop
         offset="0"
         style="stop-color:#FFDE9A"
         id="stop9035" /><stop
         offset="0.7135"
         style="stop-color:#FF5B00"
         id="stop9037" /></radialGradient><radialGradient
       id="radialGradient9015"
       cx="116.5205"
       cy="127.415"
       r="81.282204"
       fx="116.5205"
       fy="127.415"
       gradientTransform="matrix(0.9747,0.0253,0.0253,0.9747,-2.5921,-0.7369)"
       gradientUnits="userSpaceOnUse"><stop
         offset="0"
         style="stop-color:#FFDE9A"
         id="stop9017" /><stop
         offset="0.132"
         style="stop-color:#FFD994"
         id="stop9019" /><stop
         offset="0.3006"
         style="stop-color:#FFCC85"
         id="stop9021" /><stop
         offset="0.4891"
         style="stop-color:#FFB56A"
         id="stop9023" /><stop
         offset="0.6921"
         style="stop-color:#FF9646"
         id="stop9025" /><stop
         offset="0.9045"
         style="stop-color:#FF6F17"
         id="stop9027" /><stop
         offset="1"
         style="stop-color:#FF5B00"
         id="stop9029" /></radialGradient><radialGradient
       id="XMLID_9_"
       cx="116.5205"
       cy="127.416"
       r="81.268402"
       fx="116.5205"
       fy="127.416"
       gradientTransform="matrix(0.9747,0.0253,0.0253,0.9747,-2.5921,-0.7369)"
       gradientUnits="userSpaceOnUse"><stop
         offset="0"
         style="stop-color:#FFDE9A"
         id="stop117" /><stop
         offset="1"
         style="stop-color:#FF5B00"
         id="stop119" /></radialGradient><radialGradient
       id="radialGradient9041"
       cx="138.7988"
       cy="-16.8379"
       r="17.2206"
       fx="138.7988"
       fy="-16.8379"
       gradientTransform="matrix(0.7071,0.7071,-0.7071,0.7071,-31.4708,24.6694)"
       gradientUnits="userSpaceOnUse"><stop
         offset="0"
         style="stop-color:#FFBB9D"
         id="stop9043" /><stop
         offset="1"
         style="stop-color:#FF0000"
         id="stop9045" /></radialGradient><linearGradient
       id="linearGradient10906"
       gradientUnits="userSpaceOnUse"
       x1="141.2715"
       y1="-34.367199"
       x2="141.2715"
       y2="-0.8883"
       gradientTransform="matrix(0.7071,0.7071,-0.7071,0.7071,-31.4708,24.6694)"><stop
         offset="0"
         style="stop-color:#FFFFFF"
         id="stop10908" /><stop
         offset="1"
         style="stop-color:#FFFFFF;stop-opacity:0"
         id="stop10910" /></linearGradient><linearGradient
       id="linearGradient7394"
       gradientUnits="userSpaceOnUse"
       x1="128.1768"
       y1="-54.0103"
       x2="139.72121"
       y2="-50.5998"
       gradientTransform="matrix(0.7071,0.7071,-0.7071,0.7071,-31.4708,24.6694)"><stop
         offset="0.0337"
         style="stop-color:#FFFFFF"
         id="stop7396" /><stop
         offset="1"
         style="stop-color:#B3B3B3"
         id="stop7398" /></linearGradient><linearGradient
       id="linearGradient7386"
       gradientUnits="userSpaceOnUse"
       x1="133.24899"
       y1="-69.060501"
       x2="133.77361"
       y2="-54.105202"
       gradientTransform="matrix(0.7071,0.7071,-0.7071,0.7071,-31.4708,24.6694)"><stop
         offset="0"
         style="stop-color:#9E9E9E"
         id="stop7388" /><stop
         offset="1"
         style="stop-color:#616161"
         id="stop7390" /></linearGradient><linearGradient
       id="linearGradient7355"
       gradientUnits="userSpaceOnUse"
       x1="147.2793"
       y1="-54.0103"
       x2="158.8237"
       y2="-50.5998"
       gradientTransform="matrix(0.7071,0.7071,-0.7071,0.7071,-31.4708,24.6694)"><stop
         offset="0.0337"
         style="stop-color:#FFFFFF"
         id="stop7357" /><stop
         offset="1"
         style="stop-color:#B3B3B3"
         id="stop7359" /></linearGradient><linearGradient
       id="linearGradient7347"
       gradientUnits="userSpaceOnUse"
       x1="152.3506"
       y1="-69.060997"
       x2="152.8752"
       y2="-54.1049"
       gradientTransform="matrix(0.7071,0.7071,-0.7071,0.7071,-31.4708,24.6694)"><stop
         offset="0"
         style="stop-color:#9E9E9E"
         id="stop7349" /><stop
         offset="1"
         style="stop-color:#616161"
         id="stop7351" /></linearGradient><linearGradient
       id="linearGradient10922"
       gradientUnits="userSpaceOnUse"
       x1="118.3027"
       y1="87.626999"
       x2="98.942398"
       y2="111.0634"><stop
         offset="0"
         style="stop-color:#FFFFFF"
         id="stop10924" /><stop
         offset="1"
         style="stop-color:#FFFFFF;stop-opacity:0"
         id="stop10926" /></linearGradient><linearGradient
       id="linearGradient10914"
       gradientUnits="userSpaceOnUse"
       x1="104.8867"
       y1="74.209999"
       x2="85.525803"
       y2="97.647003"><stop
         offset="0"
         style="stop-color:#FFFFFF"
         id="stop10916" /><stop
         offset="1"
         style="stop-color:#FFFFFF;stop-opacity:0"
         id="stop10918" /></linearGradient><linearGradient
       inkscape:collect="always"
       xlink:href="#linearGradient30"
       id="linearGradient31"
       x1="122.37382"
       y1="116.50126"
       x2="201.72672"
       y2="116.50126"
       gradientUnits="userSpaceOnUse" /><linearGradient
       id="linearGradient30"
       inkscape:collect="always"><stop
         style="stop-color:#888a85;stop-opacity:1;"
         offset="0"
         id="stop30" /><stop
         style="stop-color:#81837d;stop-opacity:1;"
         offset="0.6810028"
         id="stop32" /><stop
         style="stop-color:#484945;stop-opacity:1;"
         offset="0.82383007"
         id="stop33" /><stop
         style="stop-color:#4a4d48;stop-opacity:1;"
         offset="1"
         id="stop31" /></linearGradient><radialGradient
       inkscape:collect="always"
       xlink:href="#linearGradient8"
       id="radialGradient9"
       cx="149.24088"
       cy="125.7681"
       fx="149.24088"
       fy="125.7681"
       r="35.55526"
       gradientTransform="matrix(1.5421537,0.00583437,-0.00531558,1.4050598,-87.253662,-50.217864)"
       gradientUnits="userSpaceOnUse" /><linearGradient
       id="linearGradient8"
       inkscape:collect="always"><stop
         style="stop-color:#eeeeec;stop-opacity:1;"
         offset="0"
         id="stop8" /><stop
         style="stop-color:#eeeeec;stop-opacity:1;"
         offset="0.82714695"
         id="stop10" /><stop
         style="stop-color:#d1d1cc;stop-opacity:1;"
         offset="0.88075584"
         id="stop11" /><stop
         style="stop-color:#7f7f73;stop-opacity:1;"
         offset="1"
         id="stop9" /></linearGradient><linearGradient
       inkscape:collect="always"
       xlink:href="#linearGradient27"
       id="linearGradient29"
       x1="170.1266"
       y1="151.63805"
       x2="208.26967"
       y2="151.63805"
       gradientUnits="userSpaceOnUse" /><linearGradient
       id="linearGradient27"
       inkscape:collect="always"><stop
         style="stop-color:#888a85;stop-opacity:1;"
         offset="0"
         id="stop28" /><stop
         style="stop-color:#444442;stop-opacity:1;"
         offset="1"
         id="stop29" /></linearGradient><linearGradient
       inkscape:collect="always"
       xlink:href="#linearGradient19-5"
       id="linearGradient20"
       x1="172.77126"
       y1="151.63715"
       x2="205.61905"
       y2="151.63715"
       gradientUnits="userSpaceOnUse" /><linearGradient
       id="linearGradient19-5"
       inkscape:collect="always"><stop
         style="stop-color:#eeeeec;stop-opacity:1;"
         offset="0"
         id="stop19" /><stop
         style="stop-color:#eeeeec;stop-opacity:1;"
         offset="0.551781"
         id="stop21" /><stop
         style="stop-color:#aaaaa0;stop-opacity:1;"
         offset="0.7960276"
         id="stop22" /><stop
         style="stop-color:#949488;stop-opacity:1;"
         offset="1"
         id="stop20" /></linearGradient><linearGradient
       inkscape:collect="always"
       xlink:href="#linearGradient22"
       id="linearGradient24"
       x1="151.86218"
       y1="178.6039"
       x2="222.25417"
       y2="178.6039"
       gradientUnits="userSpaceOnUse" /><linearGradient
       id="linearGradient22"
       inkscape:collect="always"><stop
         style="stop-color:#eeeeec;stop-opacity:1;"
         offset="0"
         id="stop23" /><stop
         style="stop-color:#eeeeec;stop-opacity:1;"
         offset="0.5"
         id="stop25" /><stop
         style="stop-color:#cfcfc9;stop-opacity:1;"
         offset="0.62649941"
         id="stop26" /><stop
         style="stop-color:#98988b;stop-opacity:1;"
         offset="0.82398885"
         id="stop27" /><stop
         style="stop-color:#808072;stop-opacity:1;"
         offset="1"
         id="stop24" /></linearGradient><linearGradient
       inkscape:collect="always"
       xlink:href="#linearGradient33"
       id="linearGradient35"
       x1="151.81903"
       y1="188.62027"
       x2="224.18719"
       y2="188.62027"
       gradientUnits="userSpaceOnUse" /><linearGradient
       id="linearGradient33"
       inkscape:collect="always"><stop
         style="stop-color:#888a85;stop-opacity:1;"
         offset="0"
         id="stop34" /><stop
         style="stop-color:#888a85;stop-opacity:1;"
         offset="0.71123475"
         id="stop36" /><stop
         style="stop-color:#575955;stop-opacity:1;"
         offset="0.86946696"
         id="stop37" /><stop
         style="stop-color:#474845;stop-opacity:1;"
         offset="1"
         id="stop35" /></linearGradient><linearGradient
       inkscape:collect="always"
       xlink:href="#linearGradient43"
       id="linearGradient39"
       gradientUnits="userSpaceOnUse"
       x1="143.77747"
       y1="190.87752"
       x2="230.67047"
       y2="199.57097" /><linearGradient
       id="linearGradient43"
       inkscape:collect="always"><stop
         style="stop-color:#c6c7c3;stop-opacity:1;"
         offset="0"
         id="stop40" /><stop
         style="stop-color:#999e95;stop-opacity:1;"
         offset="0.61724156"
         id="stop41" /><stop
         style="stop-color:#8b9086;stop-opacity:1;"
         offset="0.75"
         id="stop42" /><stop
         style="stop-color:#535750;stop-opacity:1;"
         offset="1"
         id="stop43" /></linearGradient><linearGradient
       inkscape:collect="always"
       xlink:href="#linearGradient15"
       id="linearGradient40"
       gradientUnits="userSpaceOnUse"
       x1="215.01535"
       y1="182.56248"
       x2="217.98413"
       y2="210.15475" /><linearGradient
       id="linearGradient15"
       inkscape:collect="always"><stop
         style="stop-color:#babdb8;stop-opacity:1;"
         offset="0"
         id="stop16" /><stop
         style="stop-color:#acb0a9;stop-opacity:1;"
         offset="0.5"
         id="stop18" /><stop
         style="stop-color:#777d73;stop-opacity:1;"
         offset="0.75"
         id="stop38" /><stop
         style="stop-color:#535750;stop-opacity:1;"
         offset="1"
         id="stop17" /></linearGradient><linearGradient
       inkscape:collect="always"
       xlink:href="#linearGradient9"
       id="linearGradient13"
       x1="137.35187"
       y1="198.05905"
       x2="238.60797"
       y2="210.1543"
       gradientUnits="userSpaceOnUse" /><linearGradient
       id="linearGradient9"
       inkscape:collect="always"><stop
         style="stop-color:#ccd0cb;stop-opacity:1;"
         offset="0"
         id="stop12" /><stop
         style="stop-color:#999e95;stop-opacity:1;"
         offset="0.23278676"
         id="stop14" /><stop
         style="stop-color:#8b9086;stop-opacity:1;"
         offset="0.75"
         id="stop15" /><stop
         style="stop-color:#535750;stop-opacity:1;"
         offset="1"
         id="stop13" /></linearGradient><linearGradient
       inkscape:collect="always"
       xlink:href="#linearGradient15"
       id="linearGradient17"
       x1="212.36952"
       y1="176.89285"
       x2="217.60616"
       y2="219.60416"
       gradientUnits="userSpaceOnUse" /><linearGradient
       id="linearGradient4"
       inkscape:collect="always"
       gradientTransform="scale(0.70145972,1.4255986)"
       x1="228.12932"
       y1="148.1378"
       x2="257.36656"
       y2="148.1378"
       gradientUnits="userSpaceOnUse"><stop
         style="stop-color:#babdb8;stop-opacity:1;"
         offset="0"
         id="stop1" /><stop
         style="stop-color:#acb0a9;stop-opacity:1;"
         offset="0.5"
         id="stop2" /><stop
         style="stop-color:#777d73;stop-opacity:1;"
         offset="0.75"
         id="stop3" /><stop
         style="stop-color:#535750;stop-opacity:1;"
         offset="1"
         id="stop4" /></linearGradient><linearGradient
       inkscape:collect="always"
       xlink:href="#linearGradient2"
       id="linearGradient7"
       x1="171.49977"
       y1="198.97328"
       x2="251.43575"
       y2="202.35382"
       gradientUnits="userSpaceOnUse" /><linearGradient
       id="linearGradient2"
       inkscape:collect="always"><stop
         style="stop-color:#dddfdc;stop-opacity:1;"
         offset="0"
         id="stop5" /><stop
         style="stop-color:#535750;stop-opacity:1;"
         offset="1"
         id="stop6" /></linearGradient><linearGradient
       inkscape:collect="always"
       xlink:href="#linearGradient55"
       id="linearGradient1"
       gradientUnits="userSpaceOnUse"
       x1="162.35851"
       y1="223.27834"
       x2="177.53098"
       y2="223.01891" /><linearGradient
       id="linearGradient55"
       inkscape:collect="always"><stop
         style="stop-color:#f57900;stop-opacity:1;"
         offset="0"
         id="stop55" /><stop
         style="stop-color:#fce94f;stop-opacity:1;"
         offset="0.32435226"
         id="stop61" /><stop
         style="stop-color:#c17d11;stop-opacity:1;"
         offset="0.75"
         id="stop62" /><stop
         style="stop-color:#555753;stop-opacity:1;"
         offset="1"
         id="stop56" /></linearGradient><linearGradient
       inkscape:collect="always"
       xlink:href="#linearGradient57"
       id="linearGradient6"
       gradientUnits="userSpaceOnUse"
       x1="163.09869"
       y1="229.3139"
       x2="175.12407"
       y2="229.3139" /><linearGradient
       id="linearGradient57"
       inkscape:collect="always"><stop
         style="stop-color:#c4a000;stop-opacity:1;"
         offset="0"
         id="stop57" /><stop
         style="stop-color:#fce94f;stop-opacity:1;"
         offset="0.35546795"
         id="stop59" /><stop
         style="stop-color:#f57900;stop-opacity:1;"
         offset="0.61328089"
         id="stop60" /><stop
         style="stop-color:#555753;stop-opacity:1;"
         offset="1"
         id="stop58" /></linearGradient><linearGradient
       inkscape:collect="always"
       xlink:href="#linearGradient55"
       id="linearGradient3"
       gradientUnits="userSpaceOnUse"
       x1="162.35851"
       y1="223.27834"
       x2="177.53098"
       y2="223.01891" /></defs><metadata
     id="metadata1"><rdf:RDF><cc:License
         rdf:about="http://creativecommons.org/publicdomain/zero/1.0/"><cc:permits
           rdf:resource="http://creativecommons.org/ns#Reproduction" /><cc:permits
           rdf:resource="http://creativecommons.org/ns#Distribution" /><cc:permits
           rdf:resource="http://creativecommons.org/ns#DerivativeWorks" /></cc:License><cc:Work
         rdf:about=""><cc:license
           rdf:resource="http://creativecommons.org/publicdomain/zero/1.0/" /></cc:Work></rdf:RDF></metadata><g
     id="g15"
     style="display:inline"
     transform="matrix(1.3575595,0,0,1.5219895,-132.97875,-130.9235)"><g
       id="rect4"
       style="display:inline;opacity:1"><path
         id="path5"
         style="baseline-shift:baseline;display:inline;overflow:visible;opacity:1;vector-effect:none;fill:#888a85;fill-opacity:0.608934;stroke-linecap:round;stroke-linejoin:round;paint-order:stroke fill markers;enable-background:accumulate;stop-color:#000000;stop-opacity:1"
         d="m 175.31748,113.74553 c 1.12618,0.95483 2.45244,3.33308 3.32228,6.56239 0.86985,3.22931 1.35787,7.17627 1.57252,10.94714 0.42929,7.54173 -0.17777,14.26941 -0.17777,14.26941 -0.21568,2.37201 1.62816,4.42807 4.00957,4.47105 l 16.68374,0.29662 c 2.28763,0.041 4.16626,-1.79808 4.1739,-4.08606 0,0 0.0247,-6.96731 -0.55862,-15.04301 -0.58333,-8.0757 -1.3274,-16.91799 -4.62142,-22.81204 -5.15399,-9.222194 -9.58748,-22.26823 -19.88871,-16.846019 -7.4083,3.899469 -14.44168,14.693999 -4.51549,22.240519 z"
         sodipodi:nodetypes="sssccccssss" /><path
         style="baseline-shift:baseline;display:inline;overflow:visible;opacity:1;vector-effect:none;fill:url(#linearGradient31);stroke-linecap:round;stroke-linejoin:round;paint-order:stroke fill markers;enable-background:accumulate;stop-color:#000000;stop-opacity:1"
         d="m 172.14258,110.57031 c 3.70238,3.82836 2.45242,3.33319 3.32226,6.5625 0.86985,3.22931 1.35762,7.1764 1.57227,10.94727 0.42929,7.54173 -0.17774,14.26953 -0.17774,14.26953 -0.21547,2.37195 1.62844,4.42782 4.00977,4.4707 l 16.68359,0.29688 c 2.28755,0.041 4.16612,-1.79803 4.17383,-4.08594 0,0 0.0247,-6.96727 -0.55859,-15.04297 -0.58333,-8.0757 -1.32708,-16.91845 -4.6211,-22.8125 -5.15399,-9.222172 -12.06224,-19.889929 -19.88867,-16.845702 -12.05379,4.688529 -8.218,18.411872 -4.51562,22.240232 z m 9.53618,-14.292355 c 6.645,2.278985 3.36383,5.121275 7.70991,12.897825 1.45603,2.6053 3.04192,11.68171 3.59961,19.40234 0.39679,5.4931 0.35593,7.8482 0.38281,10.26368 l -8.08593,-0.14258 c 0.12006,-2.87151 0.18498,-6.73628 -0.0625,-11.08399 -0.23494,-4.12723 -0.74168,-8.53827 -1.83985,-12.61523 -1.09817,-4.07696 -2.71479,-7.95319 -5.9375,-10.68555 -5.41733,-4.593049 -0.80879,-9.765791 4.23345,-8.036495 z"
         id="path7"
         sodipodi:nodetypes="zssccccssszsssccssss" /><path
         style="baseline-shift:baseline;display:inline;overflow:visible;opacity:1;vector-effect:none;fill:url(#radialGradient9);stroke-linecap:round;stroke-linejoin:round;paint-order:stroke fill markers;enable-background:accumulate;stop-color:#000000;stop-opacity:1"
         d="m 175.3288,92.207983 c 7.70466,-0.319658 12.88975,6.467736 17.63979,14.967097 4.75004,8.49935 4.65706,35.84234 4.65706,35.84234 l -16.68419,-0.2955 c 0,0 5.20203,-34.17167 -6.1472,-35.27958 -2.79284,-0.27264 -3.31075,-15.074821 0.53454,-15.234357 z"
         id="path8"
         sodipodi:nodetypes="ssccss" /></g><path
       id="path13-2"
       style="baseline-shift:baseline;display:inline;overflow:visible;opacity:1;vector-effect:none;fill:#888a85;stroke-linecap:round;stroke-linejoin:round;paint-order:stroke fill markers;enable-background:accumulate;stop-color:#000000;stop-opacity:1"
       d="m 189.16985,138.47475 c -4.43723,-0.0383 -8.8792,0.80809 -12.47831,2.82205 -3.59635,2.01242 -6.41182,5.56421 -6.41615,10.07226 -0.33824,6.28915 0.006,10.98227 0.006,10.98227 a 2.6502651,2.6502651 0 0 0 2.64221,2.45153 h 32.69568 a 2.6502651,2.6502651 0 0 0 2.64997,-2.65048 v -10.77351 a 2.6502651,2.6502651 0 0 0 -0.002,-0.0661 c -0.11026,-4.41408 -2.9985,-7.84858 -6.60787,-9.86142 -3.60938,-2.01284 -8.05296,-2.93826 -12.49019,-2.97656 z" /><path
       style="baseline-shift:baseline;display:inline;overflow:visible;opacity:1;vector-effect:none;fill:url(#linearGradient29);stroke-linecap:round;stroke-linejoin:round;paint-order:stroke fill markers;enable-background:accumulate;stop-color:#000000;stop-opacity:1"
       d="m 189.16992,138.47461 c -4.43723,-0.0383 -8.8794,0.8083 -12.47851,2.82226 -3.59635,2.01242 -6.41169,5.56422 -6.41602,10.07227 -0.33824,6.28915 0.006,10.98242 0.006,10.98242 a 2.6502651,2.6502651 0 0 0 2.64258,2.45117 h 32.69531 a 2.6502651,2.6502651 0 0 0 2.65039,-2.65039 v -10.77343 a 2.6502651,2.6502651 0 0 0 -0.002,-0.0664 c -0.11026,-4.41408 -2.99805,-7.84849 -6.60742,-9.86133 -3.60938,-2.01284 -8.05301,-2.93826 -12.49024,-2.97656 z m -0.0469,5.29883 c 3.69468,0.0319 7.40278,0.8833 9.95507,2.30664 2.54763,1.42074 3.82924,3.07716 3.89063,5.35351 v 8.06836 h -27.40234 c -0.0769,-1.46359 -0.25199,-3.36154 0.004,-7.97656 a 2.6502651,2.6502651 0 0 0 0.004,-0.14648 c 0,-2.46467 1.22617,-4.06991 3.70508,-5.45704 2.47891,-1.38712 6.14906,-2.18032 9.84375,-2.14843 z"
       id="path18" /><path
       style="baseline-shift:baseline;display:inline;overflow:visible;opacity:1;vector-effect:none;fill:url(#linearGradient20);stroke-linecap:round;stroke-linejoin:round;paint-order:stroke fill markers;enable-background:accumulate;stop-color:#000000;stop-opacity:1"
       d="m 172.92411,151.37947 c 0,-13.95531 32.36038,-13.39378 32.69494,0 0,4.8895 0,10.77232 0,10.77232 h -32.69494 c 0,0 -0.34392,-4.56977 0,-10.77232 z"
       id="path19" /><path
       id="rect22"
       style="fill:url(#linearGradient24);stroke:url(#linearGradient35);stroke-width:10.3;stroke-linecap:round;stroke-linejoin:round;stroke-dasharray:none;paint-order:stroke fill markers"
       d="m 154.51219,177.29113 c 0,0 5.44436,-20.97768 32.64049,-20.97768 27.19614,0 31.88454,20.97768 31.88454,20.97768 l 0.56696,23.60321 h -64.52503 z"
       sodipodi:nodetypes="czcccc" /><g
       id="rect27"
       style="opacity:1"><g
         id="g39"
         transform="translate(4.2333335,-8.9958338)"><path
           style="baseline-shift:baseline;display:inline;overflow:visible;opacity:1;vector-effect:none;fill:url(#linearGradient39);stroke-linecap:round;stroke-linejoin:round;paint-order:stroke fill markers;enable-background:accumulate;stop-color:#000000;stop-opacity:1"
           d="m 142.30859,194.79883 c -1.34064,-4e-5 -2.62846,0.52266 -3.58984,1.45703 -3.96437,3.85328 -6.18407,9.48955 -4.66602,14.75781 1.51806,5.26826 5.61235,9.43893 11.54883,13.57227 0.86369,0.60144 1.8909,0.92384 2.94336,0.92383 l 82.76556,6.78081 c 2.09872,-7.6e-4 5.13855,-7.03216 5.9249,-8.978 1.26704,-4.84553 1.95376,-10.71193 0.53024,-15.27742 -1.42351,-4.5655 -4.4767,-8.48629 -8.57421,-11.9961 -0.93337,-0.80016 -2.12217,-1.24007 -3.35157,-1.24023 z m 2.4375,10.30078 h 78.92578 c 2.23243,2.17523 3.69799,4.20022 4.25977,6.00195 0.40069,1.28509 0.41502,2.63777 0.19727,4.10938 h -77.71094 c -3.98007,-3.02172 -6.07052,-5.6736 -6.4668,-7.04883 -0.31232,-1.08389 -0.0293,-1.94805 0.79492,-3.0625 z"
           id="path38"
           sodipodi:nodetypes="ccsccccscccccsccsc" /><path
           style="baseline-shift:baseline;display:inline;overflow:visible;opacity:1;vector-effect:none;fill:url(#linearGradient40);fill-opacity:1;stroke-linecap:round;stroke-linejoin:round;paint-order:stroke fill markers;enable-background:accumulate;stop-color:#000000;stop-opacity:1"
           d="m 142.30805,199.9494 h 83.53274 c 7.23467,6.19701 9.37377,12.64887 6.23661,20.41072 h -83.53274 c -10.88792,-7.58084 -12.48077,-14.34153 -6.23661,-20.41072 z"
           id="path39" /></g><path
         style="baseline-shift:baseline;display:inline;overflow:visible;vector-effect:none;fill:url(#linearGradient13);stroke-linecap:round;stroke-linejoin:round;paint-order:stroke fill markers;enable-background:accumulate;stop-color:#000000;stop-opacity:1"
         d="m 142.30859,194.79883 a 5.1505151,5.1505151 0 0 0 -3.58984,1.45703 c -3.96437,3.85328 -6.18407,9.48955 -4.66602,14.75781 1.51806,5.26826 5.61235,9.43893 11.54883,13.57227 a 5.1505151,5.1505151 0 0 0 2.94336,0.92383 h 83.5332 a 5.1505151,5.1505151 0 0 0 4.77344,-3.22071 c 1.90674,-4.71759 2.33758,-9.68841 0.91406,-14.2539 -1.42351,-4.5655 -4.4767,-8.48629 -8.57421,-11.9961 a 5.1505151,5.1505151 0 0 0 -3.35157,-1.24023 z m 2.4375,10.30078 h 78.92578 c 2.23243,2.17523 3.69799,4.20022 4.25977,6.00195 0.40069,1.28509 0.41502,2.63777 0.19727,4.10938 h -77.71094 c -3.98007,-3.02172 -6.07052,-5.6736 -6.4668,-7.04883 -0.31232,-1.08389 -0.0293,-1.94805 0.79492,-3.0625 z"
         id="path6" /><path
         style="baseline-shift:baseline;display:inline;overflow:visible;vector-effect:none;fill:url(#linearGradient17);stroke-linecap:round;stroke-linejoin:round;paint-order:stroke fill markers;enable-background:accumulate;stop-color:#000000;stop-opacity:1"
         d="m 142.30805,199.9494 h 83.53274 c 7.23467,6.19701 9.37377,12.64887 6.23661,20.41072 h -83.53274 c -10.88792,-7.58084 -12.48077,-14.34153 -6.23661,-20.41072 z"
         id="path9" /><path
         id="rect1"
         style="fill:url(#linearGradient7);fill-rule:evenodd;stroke-width:2.124;stroke-linecap:square;paint-order:stroke fill markers"
         d="m 166.95204,194.44055 77.82314,0.59159 c 8.43695,8.57425 6.18849,16.39044 4.92505,23.02462 -2.43009,-4.5881 -4.19787,-9.83853 -9.11135,-11.94325 l -72.91922,0.58241 c -3.42399,-1.19484 -4.43295,-0.0169 -10.06175,6.28501 -1.25687,-10.05644 6.73359,-18.80045 9.34413,-18.54038 z"
         sodipodi:nodetypes="ccccccc"
         transform="matrix(1.1027457,0,0,1.1027457,-38.753556,-28.233032)" /></g><g
       id="rect37"
       style="opacity:1"
       transform="translate(-1.5119048)"><path
         id="path54"
         style="baseline-shift:baseline;display:inline;overflow:visible;vector-effect:none;fill:url(#linearGradient4);stroke-linecap:round;stroke-linejoin:round;paint-order:stroke fill markers;enable-background:accumulate;stop-color:#000000;stop-opacity:1"
         d="m 160.02537,211.18504 v 30.44776 c -0.0514,3.20982 0.97208,6.28948 3.05098,8.39277 2.07891,2.10329 4.95831,2.99409 7.56801,2.81843 5.1905,-0.34939 9.99143,-5.07928 9.88622,-11.16211 l 5.2e-4,0.0331 v -30.52992 z m 9.92446,31.38155 h 5.2e-4 5.2e-4 5.1e-4 c 0.005,-3.7e-4 0.096,0.0543 0.14211,0.0682 -0.0718,0.0353 -0.1445,-0.0492 -0.14469,-0.0661 v -5.2e-4 -5.2e-4 h 5.2e-4 v -5.1e-4 h 5.1e-4 z" /><path
         style="baseline-shift:baseline;display:inline;overflow:visible;vector-effect:none;fill:url(#linearGradient3);stroke-linecap:round;stroke-linejoin:round;paint-order:stroke fill markers;enable-background:accumulate;stop-color:#000000;stop-opacity:1"
         d="m 165.17558,210.91074 c 3.14522,-4.53471 8.97418,-3.22628 10.20537,0 v 30.80506 c 0.19124,7.28843 -10.34443,8.68454 -10.20537,0 z"
         id="path55"
         sodipodi:nodetypes="ccccc" /></g><g
       id="g63"
       style="opacity:1"
       transform="translate(37.135842)"><path
         id="path62"
         style="baseline-shift:baseline;display:inline;overflow:visible;vector-effect:none;fill:url(#linearGradient1);stroke-linecap:round;stroke-linejoin:round;paint-order:stroke fill markers;enable-background:accumulate;stop-color:#000000;stop-opacity:1"
         d="m 160.02537,211.18504 v 30.44776 c -0.0514,3.20982 0.97208,6.28948 3.05098,8.39277 2.07891,2.10329 4.95831,2.99409 7.56801,2.81843 5.1905,-0.34939 9.99143,-5.07928 9.88622,-11.16211 l 5.2e-4,0.0331 v -30.52992 z m 9.92446,31.38155 h 5.2e-4 5.2e-4 5.1e-4 c 0.005,-3.7e-4 0.096,0.0543 0.14211,0.0682 -0.0718,0.0353 -0.1445,-0.0492 -0.14469,-0.0661 v -5.2e-4 -5.2e-4 h 5.2e-4 v -5.1e-4 h 5.1e-4 z" /><path
         style="baseline-shift:baseline;display:inline;overflow:visible;vector-effect:none;fill:url(#linearGradient6);stroke-linecap:round;stroke-linejoin:round;paint-order:stroke fill markers;enable-background:accumulate;stop-color:#000000;stop-opacity:1"
         d="m 165.17558,210.91074 c 3.14522,-4.53471 8.97418,-3.22628 10.20537,0 v 30.80506 c 0.19124,7.28843 -10.34443,8.68454 -10.20537,0 z"
         id="path63"
         sodipodi:nodetypes="ccccc" /></g><g
       id="g46"
       transform="translate(0,-0.96366855)"><rect
         style="fill:#d3d7cf;fill-opacity:1;stroke:none;stroke-width:2.45647;stroke-linecap:round;stroke-opacity:1;paint-order:stroke fill markers"
         id="rect43"
         width="35.495323"
         height="3.745322"
         x="168.47624"
         y="164.95908" /><rect
         style="fill:#535750;fill-opacity:1;stroke:none;stroke-width:2.45647;stroke-linecap:round;stroke-opacity:1;paint-order:stroke fill markers"
         id="rect44"
         width="35.495323"
         height="3.745322"
         x="168.47624"
         y="168.63377" /><rect
         style="fill:#d3d7cf;fill-opacity:1;stroke:none;stroke-width:2.45647;stroke-linecap:round;stroke-opacity:1;paint-order:stroke fill markers"
         id="rect45"
         width="35.495323"
         height="3.745322"
         x="168.47624"
         y="174.57875" /><rect
         style="fill:#535750;fill-opacity:1;stroke:none;stroke-width:2.45647;stroke-linecap:round;stroke-opacity:1;paint-order:stroke fill markers"
         id="rect46"
         width="35.495323"
         height="3.745322"
         x="168.47624"
         y="177.87547" /></g></g></svg>
