<?xml version="1.0" encoding="UTF-8" standalone="no"?>
<!-- Generator: Adobe Illustrator 27.5.0, SVG Export Plug-In . SVG Version: 6.00 Build 0)  -->

<svg
   version="1.1"
   x="0px"
   y="0px"
   viewBox="0 0 256 256"
   xml:space="preserve"
   id="svg12"
   sodipodi:docname="hands-free.svg"
   inkscape:version="1.4.2 (ebf0e940d0, 2025-05-08)"
   width="256"
   height="256"
   xmlns:inkscape="http://www.inkscape.org/namespaces/inkscape"
   xmlns:sodipodi="http://sodipodi.sourceforge.net/DTD/sodipodi-0.dtd"
   xmlns:xlink="http://www.w3.org/1999/xlink"
   xmlns="http://www.w3.org/2000/svg"
   xmlns:svg="http://www.w3.org/2000/svg"
   xmlns:rdf="http://www.w3.org/1999/02/22-rdf-syntax-ns#"
   xmlns:cc="http://creativecommons.org/ns#"><defs
   id="defs12">
	
<linearGradient
   inkscape:collect="always"
   xlink:href="#linearGradient4435"
   id="linearGradient4441"
   x1="34.103973"
   y1="967.77472"
   x2="79.650581"
   y2="1047.6388"
   gradientUnits="userSpaceOnUse" /><linearGradient
   inkscape:collect="always"
   id="linearGradient4435"><stop
     style="stop-color:#729fcf;stop-opacity:1"
     offset="0"
     id="stop4437" /><stop
     style="stop-color:#3465a4;stop-opacity:1"
     offset="1"
     id="stop4439" /></linearGradient><linearGradient
   inkscape:collect="always"
   xlink:href="#linearGradient4423"
   id="linearGradient4429"
   x1="21.970085"
   y1="961.58539"
   x2="85.784462"
   y2="1043.5854"
   gradientUnits="userSpaceOnUse"
   gradientTransform="matrix(0.99898387,0,0,0.99898387,0.00668766,0.93308116)" /><linearGradient
   inkscape:collect="always"
   id="linearGradient4423"><stop
     style="stop-color:#babdb6;stop-opacity:1"
     offset="0"
     id="stop4425" /><stop
     style="stop-color:#000000;stop-opacity:0;"
     offset="1"
     id="stop4427" /></linearGradient></defs><sodipodi:namedview
   id="namedview12"
   pagecolor="#ffffff"
   bordercolor="#000000"
   borderopacity="0.25"
   inkscape:showpageshadow="2"
   inkscape:pageopacity="0.0"
   inkscape:pagecheckerboard="0"
   inkscape:deskcolor="#d1d1d1"
   inkscape:current-layer="svg12"
   inkscape:zoom="2.2917327"
   inkscape:cx="85.96116"
   inkscape:cy="87.488389" />


<metadata
   id="metadata1"><rdf:RDF><cc:Work
       rdf:about=""><cc:license
         rdf:resource="http://creativecommons.org/publicdomain/zero/1.0/" /></cc:Work><cc:License
       rdf:about="http://creativecommons.org/publicdomain/zero/1.0/"><cc:permits
         rdf:resource="http://creativecommons.org/ns#Reproduction" /><cc:permits
         rdf:resource="http://creativecommons.org/ns#Distribution" /><cc:permits
         rdf:resource="http://creativecommons.org/ns#DerivativeWorks" /></cc:License></rdf:RDF></metadata><g
   id="g13"
   transform="translate(28.86133)"><path
     id="path5"
     style="fill:#0a6cff;stroke:#000000;stroke-linecap:round;stroke-linejoin:round;stroke-miterlimit:2.1"
     d="M 143.72943,73.59639 A 17.605412,17.605412 0 0 1 126.12402,91.201801 17.605412,17.605412 0 0 1 108.51861,73.59639 17.605412,17.605412 0 0 1 126.12402,55.990978 17.605412,17.605412 0 0 1 143.72943,73.59639 Z" /><path
     style="color:#000000;fill:#096bff;fill-opacity:1;stroke:#000000;stroke-linecap:round;stroke-linejoin:round;stroke-miterlimit:2.1;stroke-opacity:1;-inkscape-stroke:none"
     d="m 125.33203,30.537109 a 7.9155002,7.9155002 0 0 0 -7.76953,8.060547 7.9155002,7.9155002 0 0 0 8.06055,7.767578 c 9.83182,-0.180907 18.96645,4.927749 23.96093,13.398438 4.99449,8.470688 5.04253,18.937526 0.125,27.453125 -4.91752,8.515601 -14.00678,13.705093 -23.83984,13.613283 a 7.9155002,7.9155002 0 0 0 -7.98828,7.8418 7.9155002,7.9155002 0 0 0 7.8418,7.98828 c 15.51449,0.14485 29.9365,-8.09153 37.69531,-21.527348 7.75881,-13.435815 7.68493,-30.0452 -0.19531,-43.410156 C 155.34241,38.3577 140.84457,30.251676 125.33203,30.537109 Z"
     id="circle5" /><path
     style="color:#000000;fill:#096bff;fill-opacity:1;stroke:#000000;stroke-linecap:round;stroke-linejoin:round;stroke-miterlimit:2.1;stroke-opacity:1;-inkscape-stroke:none"
     d="m 129.28516,5.1484375 a 8.3660002,8.3660002 0 0 0 -8.21094,8.5195315 8.3660002,8.3660002 0 0 0 8.51953,8.210937 c 19.11706,-0.351758 36.84181,9.809207 46.19727,26.484375 9.35545,16.675167 8.79101,37.100376 -1.47266,53.232419 -10.26367,16.13205 -28.52543,25.29753 -47.59375,23.88868 a 8.3660002,8.3660002 0 0 0 -8.95898,7.72656 8.3660002,8.3660002 0 0 0 7.72656,8.96093 c 25.18246,1.8606 49.38871,-10.28906 62.94336,-31.59374 C 201.9902,89.273439 202.73999,62.19969 190.38477,40.177734 178.02954,18.155778 154.53199,4.6838903 129.28516,5.1484375 Z"
     id="path11" /></g><g
   id="g4464"
   transform="matrix(3.0720291,0,0,2.7511138,-90.879548,-2623.4596)"><rect
     style="fill:#000000;fill-opacity:1;fill-rule:nonzero;stroke:#000000;stroke-width:1;stroke-miterlimit:4;stroke-dasharray:none;stroke-opacity:1"
     id="rect4443"
     width="41.125034"
     height="77.870132"
     x="31.189756"
     y="966.37518"
     ry="6.2196593" /><rect
     ry="6.2196593"
     y="963.90033"
     x="31.189756"
     height="77.870132"
     width="41.125034"
     id="rect4187"
     style="fill:#2e3436;fill-opacity:1;fill-rule:nonzero;stroke:#000000;stroke-width:1;stroke-miterlimit:4;stroke-dasharray:none;stroke-opacity:1" /><path
     sodipodi:nodetypes="scccssssssss"
     inkscape:connector-curvature="0"
     id="rect4408"
     d="m 35.877611,966.03052 3.881341,1.5026 h 11.993323 11.993324 l 3.341364,-1.5026 c 3.015363,-1.356 4.456383,1.03121 4.456383,5.87937 v 61.85101 c 0,3.2572 -2.669896,5.8794 -5.986316,5.8794 H 37.947521 c -3.31642,0 -5.986316,-2.6222 -5.986316,-5.8794 v -61.85101 c 0,-3.25717 0.831031,-7.07382 3.916406,-5.87937 z"
     style="fill:#555753;fill-opacity:1;fill-rule:nonzero;stroke:none;stroke-width:15;stroke-miterlimit:4;stroke-dasharray:none;stroke-opacity:1" /><rect
     style="fill:#3465a4;fill-opacity:1;fill-rule:nonzero;stroke:none;stroke-width:15;stroke-miterlimit:4;stroke-dasharray:none;stroke-opacity:1"
     id="rect4189"
     width="31.97727"
     height="60.54887"
     x="35.763638"
     y="969.04254"
     ry="0" /><rect
     ry="0.79549515"
     y="965.47644"
     x="43.974098"
     height="1.5909903"
     width="15.556349"
     id="rect4403"
     style="fill:#ffffff;fill-opacity:1;fill-rule:nonzero;stroke:none;stroke-width:15;stroke-miterlimit:4;stroke-dasharray:none;stroke-opacity:1" /><rect
     ry="2.5093603"
     y="968.77759"
     x="34.689758"
     height="64.615654"
     width="34.125034"
     id="rect4431"
     style="fill:url(#linearGradient4441);fill-opacity:1;fill-rule:nonzero;stroke:none;stroke-width:15;stroke-miterlimit:4;stroke-dasharray:none;stroke-opacity:1" /><path
     sodipodi:nodetypes="sssccss"
     inkscape:connector-curvature="0"
     id="rect4411"
     d="m 37.199119,968.77759 h 29.106313 c 1.390186,0 2.509361,1.11917 2.509361,2.50936 v 44.09695 c -10.097722,-16.74758 -23.683413,-3.1445 -34.125035,-17.5 v -26.59695 c 0,-1.39019 1.119175,-2.50936 2.509361,-2.50936 z"
     style="fill:#c8d9ec;fill-opacity:0.317954;fill-rule:nonzero;stroke:none;stroke-width:15;stroke-miterlimit:4;stroke-dasharray:none;stroke-opacity:1" /><rect
     style="fill:none;fill-opacity:1;fill-rule:nonzero;stroke:url(#linearGradient4429);stroke-width:0.973831;stroke-miterlimit:4;stroke-dasharray:none;stroke-opacity:1"
     id="rect4421"
     width="40.048817"
     height="75.832314"
     x="31.681965"
     y="964.83331"
     ry="6.0568948" /><g
     transform="translate(-2.8885994,0.13258252)"
     id="g4459"><circle
       style="fill:#eeeeec;fill-opacity:1;fill-rule:nonzero;stroke:#d3d7cf;stroke-width:0.71875;stroke-miterlimit:4;stroke-dasharray:none;stroke-opacity:1"
       id="path4447"
       cx="54.640873"
       cy="1036.3744"
       r="2.515625" /><path
       style="fill:#73d216;fill-opacity:1;fill-rule:nonzero;stroke:#4e9a06;stroke-width:0.147874;stroke-miterlimit:4;stroke-dasharray:none;stroke-opacity:1"
       d="m 54.640651,1035.282 -1.367837,1.1702 h 0.473158 v 1.0379 h 1.718103 v -1.0379 h 0.544813 z"
       id="rect4452"
       inkscape:connector-curvature="0" /><path
       style="fill:#ffffff;fill-opacity:0.672619;fill-rule:nonzero;stroke:none;stroke-width:1;stroke-miterlimit:4;stroke-dasharray:none;stroke-opacity:1"
       d="m 56.80361,1036.2137 c -2.488212,2.1959 -4.020237,-1.3122 -4.325474,0 0,-1.1076 0.96829,-2.0055 2.162737,-2.0055 1.194446,0 2.162737,0.8979 2.162737,2.0055 z"
       id="circle4449"
       inkscape:connector-curvature="0"
       sodipodi:nodetypes="ccsc" /></g></g></svg>
