<?xml version="1.0" encoding="UTF-8" standalone="no"?>
<!-- Created with Inkscape (http://www.inkscape.org/) -->

<svg
   width="256mm"
   height="256mm"
   viewBox="0 0 256 256"
   version="1.1"
   id="svg1"
   inkscape:version="1.3.2 (091e20ef0f, 2023-11-25)"
   sodipodi:docname="input-keyboard-color.svg"
   xml:space="preserve"
   xmlns:inkscape="http://www.inkscape.org/namespaces/inkscape"
   xmlns:sodipodi="http://sodipodi.sourceforge.net/DTD/sodipodi-0.dtd"
   xmlns:xlink="http://www.w3.org/1999/xlink"
   xmlns="http://www.w3.org/2000/svg"
   xmlns:svg="http://www.w3.org/2000/svg"
   xmlns:rdf="http://www.w3.org/1999/02/22-rdf-syntax-ns#"
   xmlns:cc="http://creativecommons.org/ns#"
   xmlns:dc="http://purl.org/dc/elements/1.1/"><defs
     id="defs1"><linearGradient
       inkscape:collect="always"
       xlink:href="#f"
       id="linearGradient3"
       gradientUnits="userSpaceOnUse"
       gradientTransform="matrix(12.215339,0,0,12.215339,-4759.5338,-6373.6256)"
       x1="400.77441"
       y1="532.89044"
       x2="399.3522"
       y2="528.9989" /><linearGradient
       id="f"
       gradientUnits="userSpaceOnUse"
       x1="400.77441"
       x2="399.3522"
       y1="532.89044"
       y2="528.9989"
       gradientTransform="matrix(12.215339,0,0,12.215339,-4759.5338,-6373.6256)"><stop
         offset="0"
         stop-color="#ffd42a"
         id="stop5-4"
         style="stop-color:#ffd42d;stop-opacity:1;" /><stop
         offset="1"
         stop-color="#ffdf62"
         id="stop6-52"
         style="stop-color:#fffe8f;stop-opacity:1;" /></linearGradient><linearGradient
       id="linearGradient26"
       inkscape:collect="always"><stop
         style="stop-color:#ffffff;stop-opacity:0;"
         offset="0"
         id="stop27" /><stop
         style="stop-color:#ffffff;stop-opacity:0;"
         offset="0.5"
         id="stop29" /><stop
         style="stop-color:#ffffff;stop-opacity:0.82054454;"
         offset="0.75"
         id="stop30" /><stop
         style="stop-color:#ffffff;stop-opacity:0;"
         offset="0.875"
         id="stop31" /><stop
         style="stop-color:#ffffff;stop-opacity:0;"
         offset="1"
         id="stop28" /></linearGradient><linearGradient
       id="linearGradient21"
       inkscape:collect="always"><stop
         style="stop-color:#ffffff;stop-opacity:0.416284;"
         offset="0"
         id="stop22" /><stop
         style="stop-color:#ffffff;stop-opacity:0.42450494;"
         offset="0.49672431"
         id="stop24" /><stop
         style="stop-color:#ffffff;stop-opacity:0.87995052;"
         offset="0.63743716"
         id="stop25" /><stop
         style="stop-color:#ffffff;stop-opacity:0.05098039;"
         offset="0.81871855"
         id="stop26" /><stop
         style="stop-color:#ffffff;stop-opacity:0;"
         offset="1"
         id="stop23" /></linearGradient><linearGradient
       id="linearGradient20"
       inkscape:collect="always"><stop
         style="stop-color:#52ff44;stop-opacity:1;"
         offset="0"
         id="stop20" /><stop
         style="stop-color:#42ff39;stop-opacity:0;"
         offset="1"
         id="stop21" /></linearGradient><linearGradient
       id="linearGradient15"
       inkscape:collect="always"><stop
         style="stop-color:#ffffff;stop-opacity:0.8019802;"
         offset="0"
         id="stop16" /><stop
         style="stop-color:#ffffff;stop-opacity:0.47896039;"
         offset="0.52713639"
         id="stop18" /><stop
         style="stop-color:#ffffff;stop-opacity:0;"
         offset="0.86382139"
         id="stop19" /><stop
         style="stop-color:#ffffff;stop-opacity:0;"
         offset="1"
         id="stop17" /></linearGradient><linearGradient
       id="linearGradient11"
       inkscape:collect="always"><stop
         style="stop-color:#ffffff;stop-opacity:0.93440592;"
         offset="0"
         id="stop11" /><stop
         style="stop-color:#ffffff;stop-opacity:0.84282178;"
         offset="0.20069368"
         id="stop13" /><stop
         style="stop-color:#ffffff;stop-opacity:0.86138612;"
         offset="0.39977351"
         id="stop14" /><stop
         style="stop-color:#ffffff;stop-opacity:0.60767329;"
         offset="0.65699261"
         id="stop15" /><stop
         style="stop-color:#ffffff;stop-opacity:0;"
         offset="1"
         id="stop12" /></linearGradient><linearGradient
       id="linearGradient9"
       inkscape:collect="always"><stop
         style="stop-color:#ffffff;stop-opacity:0.41707921;"
         offset="0"
         id="stop9" /><stop
         style="stop-color:#ffffff;stop-opacity:0.41584158;"
         offset="1"
         id="stop10" /></linearGradient><linearGradient
       id="linearGradient7"
       inkscape:collect="always"><stop
         style="stop-color:#ffffff;stop-opacity:0.416284;"
         offset="0"
         id="stop7" /><stop
         style="stop-color:#ffffff;stop-opacity:0;"
         offset="1"
         id="stop8" /></linearGradient><linearGradient
       id="linearGradient1"
       inkscape:collect="always"><stop
         style="stop-color:#404040;stop-opacity:1;"
         offset="0"
         id="stop1" /><stop
         style="stop-color:#878787;stop-opacity:0;"
         offset="1"
         id="stop2" /></linearGradient><radialGradient
       inkscape:collect="always"
       xlink:href="#linearGradient1"
       id="radialGradient2"
       cx="130.82843"
       cy="235.46445"
       fx="130.82843"
       fy="235.46445"
       r="73.365479"
       gradientTransform="matrix(1,0,0,0.26958107,0,171.98769)"
       gradientUnits="userSpaceOnUse" /><linearGradient
       inkscape:collect="always"
       xlink:href="#linearGradient7"
       id="linearGradient8"
       x1="137.6749"
       y1="32.245708"
       x2="156.83865"
       y2="197.61029"
       gradientUnits="userSpaceOnUse" /><linearGradient
       inkscape:collect="always"
       xlink:href="#linearGradient9"
       id="linearGradient10"
       x1="93.189133"
       y1="32.529198"
       x2="105.5096"
       y2="177.29408"
       gradientUnits="userSpaceOnUse" /><radialGradient
       inkscape:collect="always"
       xlink:href="#linearGradient11"
       id="radialGradient12"
       cx="88.229378"
       cy="108.97234"
       fx="88.229378"
       fy="108.97234"
       r="6.6181162"
       gradientTransform="matrix(1.0125862,0.05501102,-2.9105548,10.271969,319.6641,-1005.793)"
       gradientUnits="userSpaceOnUse" /><radialGradient
       inkscape:collect="always"
       xlink:href="#linearGradient15"
       id="radialGradient17"
       cx="93.360123"
       cy="158.73201"
       fx="93.360123"
       fy="158.73201"
       r="6.614583"
       gradientTransform="matrix(1,0,0,1.9150241,20.773327,-142.73195)"
       gradientUnits="userSpaceOnUse" /><radialGradient
       inkscape:collect="always"
       xlink:href="#linearGradient20"
       id="radialGradient21"
       cx="122.6092"
       cy="157.41254"
       fx="122.6092"
       fy="157.41254"
       r="59.932909"
       gradientTransform="matrix(1.7913109,0.06491383,-0.08742666,2.4125576,-82.903399,-196.37261)"
       gradientUnits="userSpaceOnUse" /><radialGradient
       inkscape:collect="always"
       xlink:href="#linearGradient21"
       id="radialGradient23"
       cx="111.27798"
       cy="127.21574"
       fx="111.27798"
       fy="127.21574"
       r="45.10792"
       gradientTransform="matrix(2.1314713,-0.38153837,0.41137004,2.2981264,-182.86211,-118.43649)"
       gradientUnits="userSpaceOnUse" /><radialGradient
       inkscape:collect="always"
       xlink:href="#linearGradient26"
       id="radialGradient28"
       cx="150.09637"
       cy="174.37582"
       fx="150.09637"
       fy="174.37582"
       r="33.12059"
       gradientTransform="matrix(0.7695799,0.63201361,-1.0825103,1.3181333,225.30799,-154.31782)"
       gradientUnits="userSpaceOnUse" /></defs><sodipodi:namedview
     id="base"
     pagecolor="#ffffff"
     bordercolor="#000000"
     borderopacity="0.3"
     inkscape:pageopacity="0.0"
     inkscape:pageshadow="2"
     inkscape:zoom="0.98994949"
     inkscape:cx="505.07627"
     inkscape:cy="476.792"
     inkscape:document-units="mm"
     inkscape:showpageshadow="2"
     inkscape:pagecheckerboard="0"
     inkscape:deskcolor="#d1d1d1"
     inkscape:current-layer="svg1"
     showguides="true"><sodipodi:guide
       position="129.64583,247.30654"
       orientation="1,0"
       id="guide3"
       inkscape:locked="false" /></sodipodi:namedview><metadata
     id="metadata1"><rdf:RDF><cc:Work
         rdf:about=""><dc:format>image/svg+xml</dc:format><dc:type
           rdf:resource="http://purl.org/dc/dcmitype/StillImage" /><cc:license
           rdf:resource="http://creativecommons.org/publicdomain/zero/1.0/" /></cc:Work><cc:License
         rdf:about="http://creativecommons.org/publicdomain/zero/1.0/"><cc:permits
           rdf:resource="http://creativecommons.org/ns#Reproduction" /><cc:permits
           rdf:resource="http://creativecommons.org/ns#Distribution" /><cc:permits
           rdf:resource="http://creativecommons.org/ns#DerivativeWorks" /></cc:License></rdf:RDF></metadata><g
     id="rect1"
     transform="matrix(1,0,0,0.9490343,0,0.11546917)"><path
       style="color:#000000;fill:#dbac43;stroke-linecap:round;stroke-linejoin:round;stroke-miterlimit:2.1;-inkscape-stroke:none"
       d="M 22.893705,217.36248 H 235.76615 l -106.62731,32.07563 v 0 z"
       id="path4"
       transform="matrix(1,0,0,1.0537027,0,-0.12167018)" /><path
       style="color:#000000;fill:#dbac43;stroke-linecap:round;stroke-linejoin:round;stroke-miterlimit:2.1;-inkscape-stroke:none"
       d="M 24.190475,9.0714283 H 234.72322 V 210.53273 H 24.190475 Z"
       id="path1" /><path
       id="path2"
       style="color:#000000;fill:#000000;stroke-linecap:round;stroke-linejoin:round;stroke-miterlimit:2.1;-inkscape-stroke:none"
       d="m 24.191288,9.4344294 c -3.759315,-6.77e-5 -6.806752,3.0476786 -6.806303,6.8069936 l 0,194.291617 0.0021,0.008 v 19.12939 c -1.27e-4,0.0229 -1.27e-4,0.0457 0,0.0686 v 1.17289 h 0.501262 c 0.550875,1.68803 1.800964,3.02008 3.396692,3.6194 L 127.52917,268.3296 c 1.04761,0.33336 2.16522,0.33412 3.21324,0.002 l 106.62863,-33.79865 c 1.67516,-0.54247 3.01029,-1.88414 3.60392,-3.62158 h 0.34003 v -19.57916 c 0.0876,-0.26185 0.15925,-0.5288 0.21445,-0.79935 l 0,-194.291617 c 4.5e-4,-3.759517 -3.0473,-6.8073468 -6.80682,-6.8069936 z M 30.996041,23.045695 H 227.91787 l 0,162.394415 h -0.0212 v 10.71926 H 30.996041 Z M 30.804838,209.77064 H 227.89668 v 13.27483 l -197.091842,-5.4e-4 z m 29.802832,25.01133 h 137.3141 l -68.77927,21.80242 z"
       sodipodi:nodetypes="ccccccccccccccccccccccccccccccccccc" /><text
       xml:space="preserve"
       style="font-weight:bold;font-size:199.17px;line-height:1.1;font-family:'Liberation Sans';-inkscape-font-specification:'Liberation Sans Bold';letter-spacing:0px;word-spacing:0px;fill:#000000;fill-opacity:1;stroke:none;stroke-width:11.3788;stroke-linecap:round;stroke-linejoin:round;stroke-miterlimit:2.1;stroke-dasharray:none;stroke-opacity:1"
       x="60.906197"
       y="178.21042"
       id="text5"
       transform="scale(0.97418392,1.0265002)"><tspan
         sodipodi:role="line"
         id="tspan5"
         style="font-size:199.17px;stroke-width:11.3788"
         x="60.906197"
         y="178.21042">A</tspan></text><g
       id="g3"
       transform="matrix(0.75559103,0,0,0.7961683,119.6084,-23.863221)"
       style="display:none"><path
         id="path1-3"
         style="fill:#000000;fill-opacity:0.450872;stroke-width:4.015;stroke-linecap:round;stroke-linejoin:round;stroke-miterlimit:2.1"
         d="m 87.841667,144.76493 54.428603,-109.991116 -0.37798,80.886956 39.30953,0.37797 -55.5625,108.10119 0.37798,-78.61905 z"
         sodipodi:nodetypes="ccccccc" /><path
         style="color:#000000;fill:url(#linearGradient3);-inkscape-stroke:none"
         d="M 133.57621,36.959713 84.715004,134.68257 h 36.646016 v 73.29204 l 48.8612,-97.72287 h -36.64601 z"
         id="path2-5" /><path
         style="color:#000000;fill:#ffb402;-inkscape-stroke:none"
         d="M 136.1912,28.846223 81.466797,136.68945 h 37.886723 c 0.94257,25.58624 0.2289,51.63319 0.46186,77.26172 L 173.4707,108.24414 h -37.88672 c 0.78067,-26.377138 0.37546,-53.491771 0.60722,-79.397917 z m -4.62284,16.616668 v 66.796879 h 35.4043 L 123.36914,199.4707 V 132.67578 H 87.960937 Z"
         id="path3-6"
         sodipodi:nodetypes="cccccccccccccc" /></g></g><g
     id="g23"
     style="display:none;fill:#d7d861;fill-opacity:1"
     transform="matrix(0.45066752,0,0,0.45066752,143.36291,0.3883315)"><g
       id="g25"
       style="display:none"
       inkscape:label="singlparts"><path
         id="path24"
         style="fill:#fff826;stroke-width:10.54;stroke-linecap:round;stroke-linejoin:round;stroke-miterlimit:2.1"
         d="M 130.74284,70.025604 A 49.177593,48.242149 0 0 1 179.60465,118.0539 49.177593,48.242149 0 0 1 131.1768,166.50331" /><path
         style="color:#000000;fill:#fff826;stroke-linecap:round;stroke-linejoin:round;stroke-miterlimit:2.1;-inkscape-stroke:none"
         d="m 130.69531,68.228516 c -27.64638,2e-6 -50.17187,22.525496 -50.171873,50.171874 -2e-6,27.64638 22.525493,50.17187 50.171873,50.17188 27.64639,0 50.16993,-22.52549 50.16992,-50.17188 0,-27.646381 -22.52354,-50.171877 -50.16992,-50.171874 z m 0,10.541015 c 21.95015,-2e-6 39.63086,17.680711 39.63086,39.630859 0,21.95015 -17.68071,39.63086 -39.63086,39.63086 -21.95015,0 -39.630859,-17.68071 -39.630857,-39.63086 2e-6,-21.950145 17.680717,-39.630857 39.630857,-39.630859 z"
         id="path1-35" /></g><path
       id="path25"
       style="fill:#2182ff;fill-opacity:1;stroke:#26abff;stroke-width:3;stroke-linecap:round;stroke-linejoin:round;stroke-miterlimit:2.1;stroke-dasharray:none;stroke-opacity:1"
       d="m 130.69538,68.228394 c -27.64635,2e-6 -50.172127,22.525781 -50.17213,50.172126 -2e-6,27.64636 22.52578,50.17161 50.17213,50.17162 27.64636,0 50.17008,-22.52525 50.17007,-50.17162 0,-27.646348 -22.52372,-50.172129 -50.17007,-50.172126 z m 0,10.540958 c 0.0291,0 0.0577,0.002 0.0868,0.0021 l 0.35657,79.248908 c -0.14834,0.002 -0.29466,0.0109 -0.44339,0.0109 -21.95013,0 -39.631173,-17.68053 -39.631171,-39.63066 2e-6,-21.950115 17.681051,-39.631163 39.631171,-39.631165 z" /><g
       id="g33"><path
         id="rect26"
         style="fill:#2182ff;fill-opacity:1;stroke:#26abff;stroke-width:3;stroke-linecap:round;stroke-linejoin:round;stroke-miterlimit:2.1"
         inkscape:transform-center-y="-86.595327"
         d="m 130.82843,5.6126599 c 4.21992,0 7.61718,3.3972625 7.61718,7.6171801 v 38.219543 c 0,4.219918 -3.39726,7.61718 -7.61718,7.61718 -4.21992,0 -7.61718,-3.397262 -7.61718,-7.61718 V 13.22984 c 0,-4.2199176 3.39726,-7.6171801 7.61718,-7.6171801 z" /><path
         id="use26"
         style="fill:#2182ff;fill-opacity:1;stroke:#26abff;stroke-width:3;stroke-linecap:round;stroke-linejoin:round;stroke-miterlimit:2.1"
         inkscape:transform-center-y="-86.595327"
         d="m 130.82843,5.6126599 c 4.21992,0 7.61718,3.3972625 7.61718,7.6171801 v 38.219543 c 0,4.219918 -3.39726,7.61718 -7.61718,7.61718 -4.21992,0 -7.61718,-3.397262 -7.61718,-7.61718 V 13.22984 c 0,-4.2199176 3.39726,-7.6171801 7.61718,-7.6171801 z" /><path
         id="use27"
         style="fill:#2182ff;fill-opacity:1;stroke:#26abff;stroke-width:3;stroke-linecap:round;stroke-linejoin:round;stroke-miterlimit:2.1"
         inkscape:transform-center-y="-86.595327"
         d="m 210.95938,38.803987 c 2.98394,2.983934 2.98393,7.788387 0,10.77232 l -27.0253,27.025298 c -2.98393,2.983932 -7.78838,2.983934 -10.77231,0 -2.98394,-2.983934 -2.98394,-7.788387 0,-10.77232 l 27.02529,-27.025298 c 2.98394,-2.983932 7.78839,-2.983934 10.77232,0 z" /><path
         id="use28"
         style="fill:#2182ff;fill-opacity:1;stroke:#26abff;stroke-width:3;stroke-linecap:round;stroke-linejoin:round;stroke-miterlimit:2.1"
         inkscape:transform-center-y="-86.595327"
         d="m 244.15071,118.93494 c 0,4.21992 -3.39726,7.61718 -7.61718,7.61718 h -38.21954 c -4.21992,0 -7.61718,-3.39726 -7.61718,-7.61718 0,-4.21992 3.39726,-7.61718 7.61718,-7.61718 h 38.21954 c 4.21992,0 7.61718,3.39726 7.61718,7.61718 z" /><path
         id="use29"
         style="fill:#2182ff;fill-opacity:1;stroke:#26abff;stroke-width:3;stroke-linecap:round;stroke-linejoin:round;stroke-miterlimit:2.1"
         inkscape:transform-center-y="-86.595327"
         d="m 210.95938,199.06589 c -2.98393,2.98394 -7.78838,2.98393 -10.77232,0 l -27.02529,-27.0253 c -2.98394,-2.98393 -2.98394,-7.78838 0,-10.77231 2.98393,-2.98394 7.78838,-2.98394 10.77231,0 l 27.0253,27.02529 c 2.98393,2.98394 2.98394,7.78839 0,10.77232 z" /><path
         id="use30"
         style="fill:#2182ff;fill-opacity:1;stroke:#26abff;stroke-width:3;stroke-linecap:round;stroke-linejoin:round;stroke-miterlimit:2.1"
         inkscape:transform-center-y="-86.595327"
         d="m 130.82843,232.25722 c -4.21992,0 -7.61718,-3.39726 -7.61718,-7.61718 V 186.4205 c 0,-4.21992 3.39726,-7.61718 7.61718,-7.61718 4.21992,0 7.61718,3.39726 7.61718,7.61718 v 38.21954 c 0,4.21992 -3.39726,7.61718 -7.61718,7.61718 z" /><path
         id="use31"
         style="fill:#2182ff;fill-opacity:1;stroke:#26abff;stroke-width:3;stroke-linecap:round;stroke-linejoin:round;stroke-miterlimit:2.1"
         inkscape:transform-center-y="-86.595327"
         d="m 50.697477,199.06589 c -2.983934,-2.98393 -2.983932,-7.78838 0,-10.77232 l 27.025298,-27.02529 c 2.983933,-2.98394 7.788386,-2.98394 10.77232,0 2.983934,2.98393 2.983932,7.78838 0,10.77231 l -27.025298,27.0253 c -2.983933,2.98393 -7.788386,2.98394 -10.77232,0 z" /><path
         id="use32"
         style="fill:#2182ff;fill-opacity:1;stroke:#26abff;stroke-width:3;stroke-linecap:round;stroke-linejoin:round;stroke-miterlimit:2.1"
         inkscape:transform-center-y="-86.595327"
         d="m 17.50615,118.93494 c 0,-4.21992 3.397262,-7.61718 7.61718,-7.61718 h 38.219543 c 4.219918,0 7.61718,3.39726 7.61718,7.61718 0,4.21992 -3.397262,7.61718 -7.61718,7.61718 H 25.12333 c -4.219918,0 -7.61718,-3.39726 -7.61718,-7.61718 z" /><path
         id="use33"
         style="fill:#2182ff;fill-opacity:1;stroke:#26abff;stroke-width:3;stroke-linecap:round;stroke-linejoin:round;stroke-miterlimit:2.1"
         inkscape:transform-center-y="-86.595327"
         d="m 50.697477,38.803987 c 2.983934,-2.983934 7.788387,-2.983932 10.77232,0 l 27.025298,27.025298 c 2.983932,2.983933 2.983934,7.788386 0,10.77232 -2.983934,2.983934 -7.788387,2.983932 -10.77232,0 L 50.697477,49.576307 c -2.983932,-2.983933 -2.983934,-7.788386 0,-10.77232 z" /></g></g><g
     id="g2"
     style="display:inline"
     transform="matrix(0.58922915,0,0,0.58922915,134.79176,-0.99259016)"><ellipse
       style="fill:url(#radialGradient2);stroke-width:9.23499;stroke-linecap:round;stroke-linejoin:round;stroke-miterlimit:2.1"
       id="path1-356"
       cx="130.82843"
       cy="235.46445"
       rx="73.365479"
       ry="19.777945"
       inkscape:label="shadow" /><path
       id="path2-2"
       style="fill:#057300;fill-opacity:1;stroke-width:9.23499;stroke-linecap:round;stroke-linejoin:round;stroke-miterlimit:2.1"
       d="m 192.96859,150.74001 c 3.27113,34.68177 -28.95788,63.0756 -64.67922,63.0756 -35.721346,0 -63.406934,-28.26315 -64.679224,-63.0756 C 62.209427,112.41348 105.53702,73.995927 128.55664,2.1381489 151.54842,81.874609 187.33422,91.002296 192.96859,150.74001 Z"
       sodipodi:nodetypes="ssscs"
       inkscape:label="headcolor" /><path
       id="path20"
       style="display:inline;fill:url(#radialGradient21);stroke-width:9.23499;stroke-linecap:round;stroke-linejoin:round;stroke-miterlimit:2.1"
       d="m 184.83035,178.97173 c -8.00503,17.27729 -33.30543,35.2542 -63.5,31.18303 C 93.712077,206.43095 70.243335,177.3402 67.657735,157.99405 63.141326,124.20106 106.96256,71.073169 128.88987,14.55208 c 16.12437,47.033223 75.54124,122.11525 55.94048,164.41965 z"
       sodipodi:nodetypes="ssscs"
       inkscape:label="headbackcolor" /><g
       id="g21"
       style="display:inline"><path
         id="path7"
         style="fill:url(#linearGradient8);fill-opacity:0.416284;stroke-width:8.39302;stroke-linecap:round;stroke-linejoin:round;stroke-miterlimit:2.1"
         d="m 129.28585,36.874097 c 26.65536,53.01532 11.33534,101.176253 -6.54101,150.438173 81.42794,-6.27514 38.4209,-97.325785 6.54101,-150.438173 z"
         sodipodi:nodetypes="ccc" /><path
         id="rect4"
         style="fill:#ffffff;fill-opacity:0.416284;stroke-width:9.23499;stroke-linecap:round;stroke-linejoin:round;stroke-miterlimit:2.1"
         d="m 113.32228,105.03693 c -5.51807,17.60268 5.15683,31.29042 9.18165,46.34834 l -7.48354,22.16901 c -9.80231,-18.00119 -17.209716,-44.53862 -1.69811,-68.51735 z"
         sodipodi:nodetypes="cccc" /><path
         id="path4-9"
         style="fill:#ffffff;fill-opacity:0.416284;stroke-width:9.23499;stroke-linecap:round;stroke-linejoin:round;stroke-miterlimit:2.1"
         d="m 136.24806,88.733489 c 5.51807,17.602681 -17.15431,70.255261 -21.17913,85.313181 l 5.12118,11.06597 c 9.80231,-18.00119 28.16777,-78.25905 16.05795,-96.379151 z"
         sodipodi:nodetypes="cccc" /><path
         id="path5"
         style="fill:#ffffff;fill-opacity:0.416284;stroke-width:9.23499;stroke-linecap:round;stroke-linejoin:round;stroke-miterlimit:2.1"
         d="m 133.77339,62.198503 c 10.75272,14.989415 11.19247,60.396077 2.19639,84.242377 -1.83545,8.19526 -8.20535,27.85917 -10.57317,34.63478 57.97836,-11.88897 25.97628,-105.399686 8.37678,-118.877157 z"
         sodipodi:nodetypes="cccc" /><path
         id="path6"
         style="fill:url(#linearGradient10);stroke-width:9.23499;stroke-linecap:round;stroke-linejoin:round;stroke-miterlimit:2.1"
         d="M 123.46347,39.141955 C 112.71075,54.13137 97.529932,130.72107 106.52601,154.56737 c 1.83545,8.19526 11.22916,23.70144 13.59698,30.47705 -95.407366,3.64588 -25.294508,-97.125471 3.34048,-145.902465 z"
         sodipodi:nodetypes="cccc" /><path
         id="path10"
         style="fill:url(#radialGradient12);stroke-width:9.26286;stroke-linecap:round;stroke-linejoin:round;stroke-miterlimit:2.1"
         d="m 96.857389,144.44174 c -3.974256,13.11072 -9.3423,29.76872 -13.114532,30.08541 -10.64799,0.89393 -8.685748,-23.14593 -4.067854,-38.50702 2.892631,-9.62213 -1.172384,-21.71183 32.954947,-74.597731 -7.77927,34.091338 -11.7983,69.908621 -15.772561,83.019341 z"
         sodipodi:nodetypes="ssscs" /><ellipse
         style="fill:url(#radialGradient17);stroke-width:9.27144;stroke-linecap:round;stroke-linejoin:round;stroke-miterlimit:2.1"
         id="path15"
         cx="114.13344"
         cy="160.48172"
         rx="6.614583"
         ry="11.714689"
         transform="matrix(1,0,-0.12502745,0.99215328,0,0)" /><path
         id="path19"
         style="fill:url(#radialGradient23);stroke-width:8.803;stroke-linecap:round;stroke-linejoin:round;stroke-miterlimit:2.1"
         d="m 175.94792,141.83555 c 3.94632,32.79821 -21.49939,61.09109 -51.49926,58.49183 -34.89988,-3.02381 -38.311336,-20.69312 -38.311336,-20.69312 0,0 42.099176,17.82823 67.132026,-10.39543 25.26402,-28.48429 1.92122,-88.54092 -12.37873,-106.494791 -9.3802,-11.77704 -12.00125,-26.500744 -12.00125,-26.500744 0,0 41.95587,63.18351 47.05855,105.592255 z"
         sodipodi:nodetypes="sscsscs" /></g><path
       id="path26"
       style="fill:url(#radialGradient28);stroke-width:6.39647;stroke-linecap:round;stroke-linejoin:round;stroke-miterlimit:2.1"
       d="m 187.35593,152.09209 c 1.51267,6.39862 2.20714,26.38434 -15.90253,42.35809 -21.19763,18.69749 -49.57852,16.30302 -49.5785,9.72801 1e-5,-6.57501 18.22465,3.86816 39.15499,-14.29478 18.23822,-15.82677 20.98064,-60.40248 26.32604,-37.79132 z"
       sodipodi:nodetypes="sssss" /></g></svg>
