<?xml version="1.0" encoding="UTF-8" standalone="no"?>
<svg
   width="256"
   height="256"
   version="1.1"
   id="svg14"
   sodipodi:docname="security-high-symbolic.svg"
   inkscape:version="1.4.2 (ebf0e940d0, 2025-05-08)"
   viewBox="0 0 256 256"
   xml:space="preserve"
   xmlns:inkscape="http://www.inkscape.org/namespaces/inkscape"
   xmlns:sodipodi="http://sodipodi.sourceforge.net/DTD/sodipodi-0.dtd"
   xmlns:xlink="http://www.w3.org/1999/xlink"
   xmlns="http://www.w3.org/2000/svg"
   xmlns:svg="http://www.w3.org/2000/svg"
   xmlns:rdf="http://www.w3.org/1999/02/22-rdf-syntax-ns#"
   xmlns:cc="http://creativecommons.org/ns#"
   xmlns:dc="http://purl.org/dc/elements/1.1/"><sodipodi:namedview
     id="namedview14"
     pagecolor="#ffffff"
     bordercolor="#000000"
     borderopacity="0.25"
     inkscape:showpageshadow="2"
     inkscape:pageopacity="0.0"
     inkscape:pagecheckerboard="0"
     inkscape:deskcolor="#d1d1d1"
     inkscape:zoom="0.37189516"
     inkscape:cx="112.93505"
     inkscape:cy="447.70682"
     inkscape:current-layer="svg14" /><defs
     id="defs8"><linearGradient
       id="c"><stop
         offset="0"
         stop-color="#edeeec"
         id="stop1"
         style="stop-color:#edeeec;stop-opacity:0.64340383;" /><stop
         offset="1"
         stop-color="#babdb6"
         id="stop2"
         style="stop-color:#babdb6;stop-opacity:0.30109882;" /></linearGradient><linearGradient
       id="a"><stop
         offset="0"
         id="stop3" /><stop
         offset="1"
         stop-opacity="0"
         id="stop4" /></linearGradient><linearGradient
       id="b"><stop
         offset="0"
         stop-color="#f0f1ee"
         id="stop5"
         style="stop-color:#eef1ee;stop-opacity:1;" /><stop
         offset="1"
         stop-color="#d5d9d1"
         id="stop6"
         style="stop-color:#50fe35;stop-opacity:1;" /></linearGradient><linearGradient
       id="d"><stop
         offset="0"
         stop-color="#ef2929"
         id="stop7" /><stop
         offset="1"
         stop-color="#ef2929"
         stop-opacity="0"
         id="stop8" /></linearGradient><radialGradient
       id="e"
       cx="23.313"
       cy="40.938"
       r="17.188"
       fx="23.313"
       fy="40.938"
       gradientTransform="matrix(1,0,0,0.31636,0,27.986)"
       gradientUnits="userSpaceOnUse"
       xlink:href="#a" /><radialGradient
       id="f"
       cx="22.75"
       cy="10.25"
       r="19.875"
       fx="22.75"
       fy="10.25"
       gradientTransform="matrix(1.61655,0,0,1.70805,-14.026,-8.008)"
       gradientUnits="userSpaceOnUse"
       xlink:href="#b" /><radialGradient
       id="g"
       cx="17.620001"
       cy="21.611"
       r="8"
       fx="17.620001"
       fy="21.611"
       gradientTransform="matrix(4.073,0,0,2.8745,-48.885,-43.215)"
       gradientUnits="userSpaceOnUse"
       xlink:href="#c" /><radialGradient
       id="h"
       cx="27.577"
       cy="15.259"
       r="3.8340001"
       fx="27.577"
       fy="15.259"
       gradientTransform="matrix(1.47848,0,0,1.47848,-13.195,-7.33)"
       gradientUnits="userSpaceOnUse"
       xlink:href="#d" /><radialGradient
       id="i"
       cx="27.577"
       cy="15.048"
       r="3.8340001"
       fx="27.577"
       fy="15.048"
       gradientTransform="matrix(1.3418,0,0,1.3418,-9.426,-5.223)"
       gradientUnits="userSpaceOnUse"
       xlink:href="#d" /><linearGradient
       id="linearGradient2"><stop
         style="stop-color:#009b00;stop-opacity:0.92156899;"
         offset="0"
         id="stop37" /><stop
         style="stop-color:#006900;stop-opacity:1;"
         offset="1"
         id="stop38" /></linearGradient><linearGradient
       id="swatch32"><stop
         style="stop-color:#696969;stop-opacity:1;"
         offset="0"
         id="stop33" /><stop
         style="stop-color:#525252;stop-opacity:1;"
         offset="0.5"
         id="stop35" /><stop
         style="stop-color:#686868;stop-opacity:0.50251889;"
         offset="0.75"
         id="stop36" /><stop
         style="stop-color:#959595;stop-opacity:0.08942063;"
         offset="1"
         id="stop34" /></linearGradient><linearGradient
       id="linearGradient23"
       inkscape:swatch="gradient"><stop
         style="stop-color:#858585;stop-opacity:1;"
         offset="0"
         id="stop30" /><stop
         style="stop-color:#001500;stop-opacity:0.53904283;"
         offset="0.46318355"
         id="stop31" /><stop
         style="stop-color:#001500;stop-opacity:0.27959698;"
         offset="0.56815809"
         id="stop32" /></linearGradient><linearGradient
       id="linearGradient23-1"><stop
         style="stop-color:#858585;stop-opacity:1;"
         offset="0"
         id="stop23" /><stop
         style="stop-color:#001500;stop-opacity:0.53904283;"
         offset="0.46318355"
         id="stop26" /><stop
         style="stop-color:#001500;stop-opacity:0.27959698;"
         offset="0.56815809"
         id="stop25" /></linearGradient><linearGradient
       id="c-3"
       y2="24.530001"
       gradientUnits="userSpaceOnUse"
       y1="-5.4099998"
       x2="-91"
       x1="-83.800003"><stop
         stop-color="#a7cc5c"
         offset="0"
         id="stop14" /><stop
         stop-color="#789e2d"
         offset="1"
         id="stop15" /></linearGradient></defs><g
     color="#000000"
     id="g14"
     transform="matrix(5.7669028,0,0,5.7669028,-8.9678962,-16.309418)"><path
       fill="url(#e)"
       d="m 40.5,40.9375 a 17.1875,5.4375 0 1 1 -34.375,0 17.1875,5.4375 0 1 1 34.375,0 z"
       display="block"
       opacity="0.369"
       style="fill:url(#e);marker:none"
       transform="translate(-0.125,0.625)"
       id="path8" /><path
       fill="url(#f)"
       stroke="#888a85"
       stroke-linecap="round"
       stroke-linejoin="round"
       stroke-width="0.997"
       d="M 23,3 C 15.599034,8.5765861 4,12 4,12 7,37.75 23.375,44 23.375,44 23.375,44 39.5,37.5 42.75,11.625 42.75,11.625 28.75,6.5 23,3 Z"
       display="block"
       style="fill:url(#f);marker:none"
       transform="matrix(1.00629,0,0,1,0.478,0.5)"
       id="path9" /><path
       fill="none"
       stroke="#ffffff"
       stroke-linecap="round"
       stroke-linejoin="round"
       stroke-width="0.997"
       d="M 23.023587,4.289309 C 16.08809,9.5151669 5.218554,12.723272 5.218554,12.723272 c 2.811321,24.130505 18.11714,29.987424 18.11714,29.987424 0,0 15.150159,-6.091195 18.195756,-30.338839 0,0 -13.119498,-4.8026735 -18.507863,-8.082548 z"
       display="block"
       style="marker:none"
       transform="matrix(1.00629,0,0,1,0.478,0.5)"
       id="path10" /><path
       fill="url(#g)"
       d="m 22.88299,7 v 33 c 0,0 -12.318457,-5.259424 -15.9999995,-26 C 12.13299,13.125 22.88299,7 22.88299,7 Z"
       display="block"
       style="fill:url(#g);marker:none"
       transform="matrix(1.00629,0,0,1,0.478,0.5)"
       id="path11" /><g
       id="g1"
       style="display:none"><path
         fill="#ef2929"
         fill-rule="evenodd"
         d="m 30.910667,18.604561 a 3.3335035,3.3335035 0 1 1 -6.667007,0 3.3335035,3.3335035 0 1 1 6.667007,0 z"
         style="display:inline;marker:none"
         transform="matrix(0,-0.51316,-0.51316,0,33.547,36.4)"
         id="path12" /><path
         fill="none"
         stroke="url(#h)"
         stroke-miterlimit="10"
         stroke-width="1.587"
         d="m 30.910667,18.604561 a 3.3335035,3.3335035 0 1 1 -6.667007,0 3.3335035,3.3335035 0 1 1 6.667007,0 z"
         style="display:inline;stroke:url(#h);marker:none"
         transform="matrix(0,-1.77376,-1.77376,0,57,71.164)"
         id="path13" /><path
         fill="none"
         stroke="url(#i)"
         stroke-miterlimit="10"
         stroke-width="0.811"
         d="m 30.910667,18.604561 a 3.3335035,3.3335035 0 1 1 -6.667007,0 3.3335035,3.3335035 0 1 1 6.667007,0 z"
         style="display:inline;stroke:url(#i);marker:none"
         transform="matrix(0,-3.46785,-3.46785,0,88.518,117.883)"
         id="path14" /></g></g><metadata
     id="metadata1"><rdf:RDF><cc:Work
         rdf:about=""><dc:source>https://commons.wikimedia.org/wiki/File:Network-wireless-encrypted.svg</dc:source><dc:description>added green for trust</dc:description><cc:license
           rdf:resource="http://creativecommons.org/publicdomain/zero/1.0/" /></cc:Work><cc:License
         rdf:about="http://creativecommons.org/publicdomain/zero/1.0/"><cc:permits
           rdf:resource="http://creativecommons.org/ns#Reproduction" /><cc:permits
           rdf:resource="http://creativecommons.org/ns#Distribution" /><cc:permits
           rdf:resource="http://creativecommons.org/ns#DerivativeWorks" /></cc:License></rdf:RDF></metadata><g
     stroke-linejoin="round"
     transform="matrix(3.7176941,-0.88812338,0.88812338,3.7176941,458.12066,8.9684339)"
     stroke-linecap="round"
     stroke-width="1.174"
     id="g32"><path
       d="m -73.88,-4.63 c -0.51,-0.18 -1.09,-0.05 -1.47,0.38 l -16.38,18.1 -5.93,-7.58 c -0.57,-0.51 -1.44,-0.48 -1.95,0.09 l -4.3,3.43 c -0.51,0.57 -0.47,1.44 0.1,1.95 0,0 10.73,14.25 10.75,14.26 0.13,0.12 0.28,0.2 0.44,0.26 0.51,0.19 1.12,0.07 1.51,-0.36 l 22.1,-24.43 c 0.51,-0.57 0.47,-1.44 -0.1,-1.95 l -4.28,-3.89 c -0.14,-0.13 -0.31,-0.22 -0.48,-0.28 z"
       stroke="#42770c"
       fill="url(#c)"
       id="path31"
       style="fill:url(#c-3)" /><path
       opacity="0.48"
       d="m -74.98,-3.2 -8.31,9.22 -7.38,8.12 c -0.21,0.13 -0.28,0.67 -1.05,0.69 -0.53,10e-4 -0.58,-0.2 -1.02,-0.67 l -5.24,-6.65 c -0.58,-0.75 -0.57,-0.71 -1.2,-0.32 l -3.37,2.65 c -0.88,0.58 -0.88,1.06 -0.14,1.83 0,0 9.75,12.93 9.77,12.95 0.13,0.11 0.06,0.13 0.58,0.71 0.33,0.37 0.89,-0.42 1.26,-0.83 L -69.79,1.06 c 0.48,-0.53 0.45,-0.53 -0.08,-1.02 l -3.85,-3.39 c -0.55,-0.5 -0.56,-0.49 -1.2,0.16 z"
       stroke="#ffffff"
       fill="none"
       id="path32" /></g></svg>
