<?xml version="1.0" encoding="UTF-8" standalone="no"?>
<svg
   width="256"
   height="256"
   version="1.1"
   id="svg53"
   sodipodi:docname="weather-overcast.svg"
   viewBox="0 0 256 256"
   inkscape:version="1.4.2 (ebf0e940d0, 2025-05-08)"
   xmlns:inkscape="http://www.inkscape.org/namespaces/inkscape"
   xmlns:sodipodi="http://sodipodi.sourceforge.net/DTD/sodipodi-0.dtd"
   xmlns:xlink="http://www.w3.org/1999/xlink"
   xmlns="http://www.w3.org/2000/svg"
   xmlns:svg="http://www.w3.org/2000/svg"
   xmlns:rdf="http://www.w3.org/1999/02/22-rdf-syntax-ns#"
   xmlns:cc="http://creativecommons.org/ns#"
   xmlns:dc="http://purl.org/dc/elements/1.1/">
  <sodipodi:namedview
     id="namedview53"
     pagecolor="#ffffff"
     bordercolor="#000000"
     borderopacity="0.25"
     inkscape:showpageshadow="2"
     inkscape:pageopacity="0.0"
     inkscape:pagecheckerboard="0"
     inkscape:deskcolor="#d1d1d1"
     inkscape:zoom="2.9947917"
     inkscape:cx="153.76695"
     inkscape:cy="174.63652"
     inkscape:current-layer="svg53" />
  <defs
     id="defs1">
    <path
       id="s"
       fill="#c4c5c2"
       stroke="#888a85"
       stroke-miterlimit="2"
       d="m 280.5,-445.5 c -2.27083,0 -4.10991,1.55028 -4.71875,3.625 -0.69323,-0.36383 -1.44451,-0.625 -2.28125,-0.625 -2.76,0 -5.00001,2.23999 -5,5 0,0.57893 0.16252,1.1077 0.34375,1.625 -1.37347,0.77074 -2.34375,2.189 -2.34375,3.875 0,2.484 2.016,4.50001 4.5,4.5 h 19 c 2.48399,0 4.5,-2.016 4.5,-4.5 0,-1.686 -0.97028,-3.10426 -2.34375,-3.875 0.18124,-0.51729 0.34375,-1.04608 0.34375,-1.625 0,-2.76 -2.24,-4.99999 -5,-5 -0.83674,0 -1.58802,0.26117 -2.28125,0.625 -0.60884,-2.07472 -2.44792,-3.625 -4.71875,-3.625 z" />
    <path
       id="u"
       fill="#c4c5c2"
       d="m 284,-440.5 a 3.5000008,3.5000008 0 1 1 -7,0 3.5000008,3.5000008 0 1 1 7,0 z" />
    <path
       id="w"
       fill="#c4c5c2"
       d="m 271,-438 h 20 v 9 h -20 z" />
    <path
       id="x"
       fill="#c4c5c2"
       d="m 273.9999,-431.99985 a 3,3 0 1 1 -6,0 3,3 0 1 1 6,0 z m 17.00017,-5.50025 a 3.5000008,3.5000008 0 1 1 -7,0 3.5000008,3.5000008 0 1 1 7,0 z" />
    <path
       id="z"
       fill="#c4c5c2"
       d="m 277,-437.5 a 3.5000008,3.5000008 0 1 1 -7,0 3.5000008,3.5000008 0 1 1 7,0 z" />
    <path
       id="B"
       fill="#c4c5c2"
       d="m 280.46875,-440.96875 c -3.57938,0 -6.46875,2.92063 -6.46875,6.5 0,2.37068 1.34943,4.33779 3.25,5.46875 h 6.46875 c 1.90057,-1.13096 3.25,-3.12931 3.25,-5.5 0,-3.57938 -2.92063,-6.46875 -6.5,-6.46875 z" />
    <path
       id="E"
       fill="#888a85"
       fill-rule="evenodd"
       d="m 292.9564,-437.33396 c -0.002,2.68456 -3.26926,3.71395 -3.26926,3.71395 0,0 2.34874,-1.62595 2.33685,-3.70501 z" />
  </defs>
  <defs
     id="defs24">
    <linearGradient
       xlink:href="#a"
       id="M"
       x1="284.80219"
       x2="288.89954"
       y1="-441.23294"
       y2="-436.83109"
       gradientUnits="userSpaceOnUse" />
    <linearGradient
       xlink:href="#b"
       id="L"
       x1="286.66589"
       x2="289.76562"
       y1="-439.48358"
       y2="-436.70703"
       gradientUnits="userSpaceOnUse" />
    <linearGradient
       xlink:href="#c"
       id="K"
       x1="275.94193"
       x2="279.97546"
       y1="-437.10501"
       y2="-431.91833"
       gradientUnits="userSpaceOnUse" />
    <linearGradient
       xlink:href="#a"
       id="J"
       x1="285.94086"
       x2="289.39124"
       y1="-439.939"
       y2="-436.4429"
       gradientUnits="userSpaceOnUse" />
    <linearGradient
       xlink:href="#d"
       id="I"
       x1="286.51172"
       x2="289.85379"
       y1="-441.29074"
       y2="-436.14453"
       gradientUnits="userSpaceOnUse" />
    <linearGradient
       xlink:href="#e"
       id="H"
       x1="287.5173"
       x2="289.67633"
       y1="-439.75281"
       y2="-436.32199"
       gradientUnits="userSpaceOnUse" />
    <linearGradient
       xlink:href="#f"
       id="G"
       x1="271.0217"
       x2="285.02859"
       y1="-441.05182"
       y2="-431.96991"
       gradientUnits="userSpaceOnUse" />
    <linearGradient
       xlink:href="#a"
       id="F"
       x1="284.80219"
       x2="288.89954"
       y1="-441.23294"
       y2="-436.83109"
       gradientUnits="userSpaceOnUse" />
    <linearGradient
       id="b">
      <stop
         offset="0"
         stop-color="#fff"
         id="stop1" />
      <stop
         offset="1"
         stop-color="#fff"
         stop-opacity="0"
         id="stop2" />
    </linearGradient>
    <linearGradient
       xlink:href="#b"
       id="D"
       x1="286.66589"
       x2="289.76562"
       y1="-439.48358"
       y2="-436.70703"
       gradientUnits="userSpaceOnUse" />
    <linearGradient
       id="c">
      <stop
         offset="0"
         stop-color="#fff"
         id="stop3" />
      <stop
         offset="1"
         stop-color="#fff"
         stop-opacity="0"
         id="stop4" />
    </linearGradient>
    <linearGradient
       xlink:href="#c"
       id="C"
       x1="275.94193"
       x2="279.97546"
       y1="-437.10501"
       y2="-431.91833"
       gradientUnits="userSpaceOnUse" />
    <linearGradient
       id="a">
      <stop
         offset="0"
         stop-color="#fff"
         id="stop5" />
      <stop
         offset="1"
         stop-color="#fff"
         stop-opacity="0"
         id="stop6" />
    </linearGradient>
    <linearGradient
       xlink:href="#a"
       id="A"
       x1="285.94086"
       x2="289.39124"
       y1="-439.939"
       y2="-436.4429"
       gradientUnits="userSpaceOnUse" />
    <linearGradient
       id="d">
      <stop
         offset="0"
         stop-color="#fff"
         id="stop7" />
      <stop
         offset="1"
         stop-color="#fff"
         stop-opacity="0"
         id="stop8" />
    </linearGradient>
    <linearGradient
       xlink:href="#d"
       id="y"
       x1="286.51172"
       x2="289.85379"
       y1="-441.29074"
       y2="-436.14453"
       gradientUnits="userSpaceOnUse" />
    <linearGradient
       id="e">
      <stop
         offset="0"
         stop-color="#fff"
         id="stop9" />
      <stop
         offset="1"
         stop-color="#fff"
         stop-opacity="0"
         id="stop10" />
    </linearGradient>
    <linearGradient
       xlink:href="#e"
       id="v"
       x1="287.5173"
       x2="289.67633"
       y1="-439.75281"
       y2="-436.32199"
       gradientUnits="userSpaceOnUse" />
    <linearGradient
       id="f">
      <stop
         offset="0"
         stop-color="#fff"
         id="stop11" />
      <stop
         offset="1"
         stop-color="#fff"
         stop-opacity="0"
         id="stop12" />
    </linearGradient>
    <linearGradient
       xlink:href="#f"
       id="t"
       x1="271.0217"
       x2="285.02859"
       y1="-441.05182"
       y2="-431.96991"
       gradientUnits="userSpaceOnUse" />
    <linearGradient
       id="g">
      <stop
         offset="0"
         stop-color="#fff"
         id="stop13" />
      <stop
         offset="1"
         stop-color="#fff"
         stop-opacity="0"
         id="stop14" />
    </linearGradient>
    <linearGradient
       xlink:href="#g"
       id="r"
       x1="-156.29044"
       x2="-153.0981"
       y1="-100.53421"
       y2="-96.544556"
       gradientUnits="userSpaceOnUse" />
    <linearGradient
       id="h">
      <stop
         offset="0"
         stop-color="#fff"
         id="stop15" />
      <stop
         offset="1"
         stop-color="#fff"
         stop-opacity="0"
         id="stop16" />
    </linearGradient>
    <linearGradient
       xlink:href="#h"
       id="q"
       x1="238.00478"
       x2="245.65462"
       y1="-388.47476"
       y2="-382.64539"
       gradientUnits="userSpaceOnUse" />
    <linearGradient
       id="i">
      <stop
         offset="0"
         stop-color="#fff"
         id="stop17" />
      <stop
         offset="1"
         stop-color="#fff"
         stop-opacity="0"
         id="stop18" />
    </linearGradient>
    <linearGradient
       xlink:href="#i"
       id="p"
       x1="230.87598"
       x2="235.25652"
       y1="-390.43951"
       y2="-386.95901"
       gradientUnits="userSpaceOnUse" />
    <linearGradient
       id="j">
      <stop
         offset="0"
         stop-color="#fff"
         id="stop19" />
      <stop
         offset="1"
         stop-color="#fff"
         stop-opacity="0"
         id="stop20" />
    </linearGradient>
    <linearGradient
       xlink:href="#j"
       id="o"
       x1="246.74042"
       x2="252.69785"
       y1="-391.31381"
       y2="-385.35165"
       gradientUnits="userSpaceOnUse" />
    <linearGradient
       id="k">
      <stop
         offset="0"
         stop-color="#fff"
         id="stop21" />
      <stop
         offset="1"
         stop-color="#fff"
         stop-opacity="0"
         id="stop22" />
    </linearGradient>
    <linearGradient
       xlink:href="#k"
       id="n"
       x1="240.07379"
       x2="245.82706"
       y1="-393.4072"
       y2="-388.55029"
       gradientUnits="userSpaceOnUse" />
    <linearGradient
       id="l">
      <stop
         offset="0"
         stop-color="#fff"
         id="stop23" />
      <stop
         offset="1"
         stop-color="#fff"
         stop-opacity="0"
         id="stop24" />
    </linearGradient>
    <linearGradient
       xlink:href="#l"
       id="m"
       x1="228.50261"
       x2="278.9151"
       y1="-392.30591"
       y2="-375.37952"
       gradientTransform="translate(69.00259,102)"
       gradientUnits="userSpaceOnUse" />
  </defs>
  <g
     transform="matrix(5.4593549,0,0,5.4593549,-1570.0659,1648.0212)"
     id="g53">
    <path
       fill="#888a85"
       d="m 311.50259,-296 c -2.77242,0 -5.10823,1.57371 -6.40625,3.8125 -0.94436,-0.47504 -1.96519,-0.8125 -3.09375,-0.8125 -3.864,0 -7,3.136 -7,7 0,3.864 3.136,7 7,7 2.41967,0 4.43009,-1.31932 5.6875,-3.1875 1.1342,0.68962 2.38898,1.1875 3.8125,1.1875 0.91312,0 1.75295,-0.23202 2.5625,-0.53125 0.50994,0.86773 1.17912,1.57972 2,2.15625 -0.007,0.13038 -0.0625,0.24282 -0.0625,0.375 0,3.864 3.13599,7 7,7 3.864,0 7,-3.136 7,-7 0,-2.36969 -1.25898,-4.35834 -3.0625,-5.625 0.007,-0.13038 0.0625,-0.24282 0.0625,-0.375 0,-3.864 -3.13599,-7 -7,-7 -0.6227,0 -1.17519,0.22219 -1.75,0.375 -1.19453,-2.55884 -3.74134,-4.375 -6.75,-4.375 z"
       id="path24" />
    <path
       fill="url(#m)"
       d="m 311.50259,-295 c -2.78048,0 -5.13451,1.76185 -6.0625,4.21875 -0.98542,-0.70944 -2.13143,-1.21875 -3.4375,-1.21875 -3.312,0 -6,2.688 -6,6 0,3.312 2.688,6 6,6 2.42775,0 4.49324,-1.45558 5.4375,-3.53125 1.12076,0.91756 2.50214,1.53125 4.0625,1.53125 1.07454,0 2.04428,-0.31896 2.9375,-0.78125 0.3984,0.99976 1.10114,1.78632 1.9375,2.4375 -0.18001,0.59562 -0.375,1.18965 -0.375,1.84375 0,3.588 2.912,6.5 6.5,6.5 3.588,0 6.5,-2.912 6.5,-6.5 0,-2.36079 -1.33433,-4.33019 -3.21875,-5.46875 0.0626,-0.34723 0.21875,-0.66608 0.21875,-1.03125 0,-3.312 -2.688,-6 -6,-6 -0.85298,0 -1.6713,0.17868 -2.40625,0.5 -0.85377,-2.59388 -3.21524,-4.49999 -6.09375,-4.5 z"
       id="path25"
       style="fill:url(#m)" />
    <path
       fill="#c4c5c2"
       d="m 329.00252,-278.49989 a 6.5000015,6.5000015 0 1 1 -13,0 6.5000015,6.5000015 0 1 1 13,0 z"
       id="path26" />
    <g
       transform="translate(69.00259,102)"
       id="g28">
      <path
         fill="#c4c5c2"
         d="m 248,-390.5 a 5.500005,5.500005 0 1 1 -11.00001,0 5.500005,5.500005 0 1 1 11.00001,0 z"
         id="path27" />
      <path
         fill="url(#n)"
         d="m 250.18322,-389.30136 a 6.23138,6.23138 0 1 1 -12.46276,0 6.23138,6.23138 0 1 1 12.46276,0 z"
         transform="matrix(0.88263,0,0,0.88263,27.18078,-46.89094)"
         id="path28"
         style="fill:url(#n)" />
    </g>
    <g
       transform="translate(69.00259,102)"
       id="g30">
      <path
         fill="#c4c5c2"
         d="m 256.00001,-386.5 a 5.500005,5.500005 0 1 1 -11.00001,0 5.500005,5.500005 0 1 1 11.00001,0 z"
         id="path29" />
      <path
         fill="url(#o)"
         d="m 257.25429,-385.7879 a 6.032505,6.032505 0 1 1 -12.06501,0 6.032505,6.032505 0 1 1 12.06501,0 z"
         transform="matrix(0.91173,0,0,0.91173,21.45407,-34.76637)"
         id="path30"
         style="fill:url(#o)" />
    </g>
    <g
       transform="translate(69.00259,102)"
       id="g32">
      <path
         fill="#c4c5c2"
         d="m 238.00001,-388.00001 a 5.000005,5.000005 0 1 1 -10.00001,0 5.000005,5.000005 0 1 1 10.00001,0 z"
         id="path31" />
      <path
         fill="url(#p)"
         d="m 237.80885,-387.88715 a 4.375225,4.375225 0 1 1 -8.75045,0 4.375225,4.375225 0 1 1 8.75045,0 z"
         transform="matrix(1.1428,0,0,1.1428,-33.76771,55.27704)"
         id="path32"
         style="fill:url(#p)" />
    </g>
    <g
       transform="translate(69.00259,102)"
       id="g34">
      <path
         fill="#c4c5c2"
         d="m 249,-384 a 7.0000068,7.0000068 0 1 1 -14.00001,0 7.0000068,7.0000068 0 1 1 14.00001,0 z"
         id="path33" />
      <path
         fill="url(#q)"
         d="m 248.54804,-383.6666 a 6.739615,6.739615 0 1 1 -13.47923,0 6.739615,6.739615 0 1 1 13.47923,0 z"
         transform="matrix(1.03864,0,0,1.03864,-9.150933,14.48993)"
         id="path34"
         style="fill:url(#q)" />
    </g>
    <g
       transform="matrix(0.93503,0,0,0.93503,446.828,-187.6162)"
       id="g36">
      <path
         fill="#c4c5c2"
         d="m -153.19461,-98.375003 a 5.4304156,5.4304156 0 1 1 -10.86083,0 5.4304156,5.4304156 0 1 1 10.86083,0 z"
         id="path35" />
      <path
         fill="url(#r)"
         d="m -151.9375,-96.9375 a 3.125,3.125 0 1 1 -6.25,0 3.125,3.125 0 1 1 6.25,0 z"
         transform="matrix(1.73773,0,0,1.73773,110.8948,70.01402)"
         id="path36"
         style="fill:url(#r)" />
    </g>
    <g
       transform="translate(38.00259,162)"
       id="g44">
      <use
         xlink:href="#s"
         stroke-miterlimit="2"
         id="use36" />
      <path
         fill="url(#t)"
         d="m 280.5,-445 c -2.18972,0 -3.7236,1.33577 -4.39555,3.84352 -0.66846,-0.34362 -1.54759,-0.83335 -2.35445,-0.83335 -2.71651,0 -4.75514,1.93882 -4.75513,4.54554 0,0.54677 0.26721,1.33344 0.44196,1.82201 -1.32443,0.72795 -2.43683,1.8905 -2.43683,3.37255 0,2.34605 1.54617,4.25009 4.33928,4.25009 h 18.32144 c 2.77101,0 4.33928,-1.90404 4.33928,-4.25009 0,-1.59237 -1.1124,-2.66669 -2.43683,-3.39464 0.17476,-0.48856 0.46407,-1.25316 0.46407,-1.79992 0,-2.60671 -2.11581,-4.56763 -4.77723,-4.56764 -0.80687,0 -1.64181,0.48974 -2.31027,0.83336 C 284.29089,-443.60011 282.68973,-445 280.5,-445 Z"
         id="path37"
         style="fill:url(#t)" />
      <use
         xlink:href="#u"
         id="use37" />
      <path
         fill="url(#v)"
         d="m 291.6875,-437.59375 a 3.3125,3.3125 0 1 1 -6.625,0 3.3125,3.3125 0 1 1 6.625,0 z"
         transform="matrix(1.0566,0,0,1.0566,-24.19818,21.86331)"
         id="path38"
         style="fill:url(#v)" />
      <use
         xlink:href="#w"
         id="use38" />
      <use
         xlink:href="#x"
         id="use39" />
      <path
         fill="url(#y)"
         d="m 291.6875,-437.59375 a 3.3125,3.3125 0 1 1 -6.625,0 3.3125,3.3125 0 1 1 6.625,0 z"
         transform="matrix(1.0566,0,0,1.0566,-17.19818,24.86331)"
         id="path39"
         style="fill:url(#y)" />
      <use
         xlink:href="#z"
         id="use40" />
      <path
         fill="url(#A)"
         d="m 291.6875,-437.59375 a 3.3125,3.3125 0 1 1 -6.625,0 3.3125,3.3125 0 1 1 6.625,0 z"
         transform="matrix(1.0566,0,0,1.0566,-31.19818,24.86331)"
         id="path40"
         style="fill:url(#A)" />
      <g
         transform="translate(-1)"
         id="g41">
        <use
           xlink:href="#B"
           id="use41" />
        <path
           fill="url(#C)"
           d="m 280.5,-441 c -3.588,0 -6.5,2.91201 -6.5,6.5 0,2.3764 1.34485,4.36632 3.25,5.5 h 6.5 c 1.90515,-1.13368 3.25,-3.1236 3.25,-5.5 0,-3.588 -2.912,-6.49999 -6.5,-6.5 z"
           id="path41"
           style="fill:url(#C)" />
      </g>
      <path
         fill="url(#D)"
         d="m 291.6875,-437.59375 a 3.3125,3.3125 0 1 1 -6.625,0 3.3125,3.3125 0 1 1 6.625,0 z"
         transform="matrix(0.90566,0,0,0.90566,9.830296,-35.68884)"
         id="path42"
         style="fill:url(#D)" />
      <use
         xlink:href="#E"
         fill-rule="evenodd"
         id="use42" />
      <g
         transform="matrix(1.14286,0,0,1.14286,-28.57139,67.00008)"
         id="g43">
        <use
           xlink:href="#z"
           id="use43" />
        <path
           fill="url(#F)"
           d="m 291.6875,-437.59375 a 3.3125,3.3125 0 1 1 -6.625,0 3.3125,3.3125 0 1 1 6.625,0 z"
           transform="matrix(1.0566,0,0,1.0566,-31.19818,24.86331)"
           id="path43"
           style="fill:url(#F)" />
      </g>
    </g>
    <g
       transform="translate(23,158)"
       id="g52">
      <use
         xlink:href="#s"
         stroke-miterlimit="2"
         id="use44" />
      <path
         fill="url(#G)"
         d="m 280.5,-445 c -2.18972,0 -3.7236,1.33577 -4.39555,3.84352 -0.66846,-0.34362 -1.54759,-0.83335 -2.35445,-0.83335 -2.71651,0 -4.75514,1.93882 -4.75513,4.54554 0,0.54677 0.26721,1.33344 0.44196,1.82201 -1.32443,0.72795 -2.43683,1.8905 -2.43683,3.37255 0,2.34605 1.54617,4.25009 4.33928,4.25009 h 18.32144 c 2.77101,0 4.33928,-1.90404 4.33928,-4.25009 0,-1.59237 -1.1124,-2.66669 -2.43683,-3.39464 0.17476,-0.48856 0.46407,-1.25316 0.46407,-1.79992 0,-2.60671 -2.11581,-4.56763 -4.77723,-4.56764 -0.80687,0 -1.64181,0.48974 -2.31027,0.83336 C 284.29089,-443.60011 282.68973,-445 280.5,-445 Z"
         id="path44"
         style="fill:url(#G)" />
      <use
         xlink:href="#u"
         id="use45" />
      <path
         fill="url(#H)"
         d="m 291.6875,-437.59375 a 3.3125,3.3125 0 1 1 -6.625,0 3.3125,3.3125 0 1 1 6.625,0 z"
         transform="matrix(1.0566,0,0,1.0566,-24.19818,21.86331)"
         id="path45"
         style="fill:url(#H)" />
      <use
         xlink:href="#w"
         id="use46" />
      <use
         xlink:href="#x"
         id="use47" />
      <path
         fill="url(#I)"
         d="m 291.6875,-437.59375 a 3.3125,3.3125 0 1 1 -6.625,0 3.3125,3.3125 0 1 1 6.625,0 z"
         transform="matrix(1.0566,0,0,1.0566,-17.19818,24.86331)"
         id="path47"
         style="fill:url(#I)" />
      <use
         xlink:href="#z"
         id="use48" />
      <path
         fill="url(#J)"
         d="m 291.6875,-437.59375 a 3.3125,3.3125 0 1 1 -6.625,0 3.3125,3.3125 0 1 1 6.625,0 z"
         transform="matrix(1.0566,0,0,1.0566,-31.19818,24.86331)"
         id="path48"
         style="fill:url(#J)" />
      <g
         transform="translate(-1)"
         id="g49">
        <use
           xlink:href="#B"
           id="use49" />
        <path
           fill="url(#K)"
           d="m 280.5,-441 c -3.588,0 -6.5,2.91201 -6.5,6.5 0,2.3764 1.34485,4.36632 3.25,5.5 h 6.5 c 1.90515,-1.13368 3.25,-3.1236 3.25,-5.5 0,-3.588 -2.912,-6.49999 -6.5,-6.5 z"
           id="path49"
           style="fill:url(#K)" />
      </g>
      <path
         fill="url(#L)"
         d="m 291.6875,-437.59375 a 3.3125,3.3125 0 1 1 -6.625,0 3.3125,3.3125 0 1 1 6.625,0 z"
         transform="matrix(0.90566,0,0,0.90566,9.830296,-35.68884)"
         id="path50"
         style="fill:url(#L)" />
      <use
         xlink:href="#E"
         fill-rule="evenodd"
         id="use50" />
      <g
         transform="matrix(1.14286,0,0,1.14286,-28.57139,67.00008)"
         id="g51">
        <use
           xlink:href="#z"
           id="use51" />
        <path
           fill="url(#M)"
           d="m 291.6875,-437.59375 a 3.3125,3.3125 0 1 1 -6.625,0 3.3125,3.3125 0 1 1 6.625,0 z"
           transform="matrix(1.0566,0,0,1.0566,-31.19818,24.86331)"
           id="path51"
           style="fill:url(#M)" />
      </g>
    </g>
  </g>
  <metadata
     id="metadata53">
    <rdf:RDF>
      <cc:Work
         rdf:about="">
        <cc:license
           rdf:resource="http://creativecommons.org/publicdomain/zero/1.0/" />
        <dc:source>https://commons.wikimedia.org/wiki/File:Weather-overcast.svg</dc:source>
      </cc:Work>
      <cc:License
         rdf:about="http://creativecommons.org/publicdomain/zero/1.0/">
        <cc:permits
           rdf:resource="http://creativecommons.org/ns#Reproduction" />
        <cc:permits
           rdf:resource="http://creativecommons.org/ns#Distribution" />
        <cc:permits
           rdf:resource="http://creativecommons.org/ns#DerivativeWorks" />
      </cc:License>
    </rdf:RDF>
  </metadata>
</svg>
