<?xml version="1.0" encoding="UTF-8" standalone="no"?>
<!-- Created with Inkscape (http://www.inkscape.org/) -->

<svg
   width="256"
   height="256"
   id="svg1306"
   sodipodi:version="0.32"
   inkscape:version="1.4.2 (ebf0e940d0, 2025-05-08)"
   sodipodi:docname="weather-snow.svg"
   inkscape:output_extension="org.inkscape.output.svg.inkscape"
   version="1.1"
   viewBox="0 0 256 256"
   xmlns:inkscape="http://www.inkscape.org/namespaces/inkscape"
   xmlns:sodipodi="http://sodipodi.sourceforge.net/DTD/sodipodi-0.dtd"
   xmlns:xlink="http://www.w3.org/1999/xlink"
   xmlns="http://www.w3.org/2000/svg"
   xmlns:svg="http://www.w3.org/2000/svg"
   xmlns:rdf="http://www.w3.org/1999/02/22-rdf-syntax-ns#"
   xmlns:cc="http://creativecommons.org/ns#"
   xmlns:dc="http://purl.org/dc/elements/1.1/">
  <defs
     id="defs1308">
    <linearGradient
       inkscape:collect="always"
       xlink:href="#linearGradient6538"
       id="linearGradient10630"
       gradientUnits="userSpaceOnUse"
       x1="284.80219"
       y1="-441.23294"
       x2="288.89954"
       y2="-436.83109" />
    <linearGradient
       inkscape:collect="always"
       xlink:href="#linearGradient6549"
       id="linearGradient10628"
       gradientUnits="userSpaceOnUse"
       x1="286.66589"
       y1="-439.48358"
       x2="289.76562"
       y2="-436.70703" />
    <linearGradient
       inkscape:collect="always"
       xlink:href="#linearGradient6527"
       id="linearGradient10626"
       gradientUnits="userSpaceOnUse"
       x1="275.94193"
       y1="-437.10501"
       x2="279.97546"
       y2="-431.91833" />
    <linearGradient
       inkscape:collect="always"
       xlink:href="#linearGradient6538"
       id="linearGradient10624"
       gradientUnits="userSpaceOnUse"
       x1="285.94086"
       y1="-439.939"
       x2="289.39124"
       y2="-436.4429" />
    <linearGradient
       inkscape:collect="always"
       xlink:href="#linearGradient6513"
       id="linearGradient10622"
       gradientUnits="userSpaceOnUse"
       x1="286.51172"
       y1="-441.29074"
       x2="289.85379"
       y2="-436.14453" />
    <linearGradient
       inkscape:collect="always"
       xlink:href="#linearGradient6497"
       id="linearGradient10620"
       gradientUnits="userSpaceOnUse"
       x1="287.5173"
       y1="-439.75281"
       x2="289.67633"
       y2="-436.32199" />
    <linearGradient
       inkscape:collect="always"
       xlink:href="#linearGradient6470"
       id="linearGradient10618"
       gradientUnits="userSpaceOnUse"
       x1="271.0217"
       y1="-441.05182"
       x2="285.02859"
       y2="-431.96991" />
    <linearGradient
       inkscape:collect="always"
       xlink:href="#linearGradient6538"
       id="linearGradient10616"
       gradientUnits="userSpaceOnUse"
       x1="284.80219"
       y1="-441.23294"
       x2="288.89954"
       y2="-436.83109" />
    <linearGradient
       inkscape:collect="always"
       id="linearGradient6549">
      <stop
         style="stop-color:#ffffff;stop-opacity:1;"
         offset="0"
         id="stop6551" />
      <stop
         style="stop-color:#ffffff;stop-opacity:0;"
         offset="1"
         id="stop6553" />
    </linearGradient>
    <linearGradient
       inkscape:collect="always"
       xlink:href="#linearGradient6549"
       id="linearGradient10614"
       gradientUnits="userSpaceOnUse"
       x1="286.66589"
       y1="-439.48358"
       x2="289.76562"
       y2="-436.70703" />
    <linearGradient
       inkscape:collect="always"
       id="linearGradient6527">
      <stop
         style="stop-color:#ffffff;stop-opacity:1;"
         offset="0"
         id="stop6530" />
      <stop
         style="stop-color:#ffffff;stop-opacity:0;"
         offset="1"
         id="stop6532" />
    </linearGradient>
    <linearGradient
       inkscape:collect="always"
       xlink:href="#linearGradient6527"
       id="linearGradient10612"
       gradientUnits="userSpaceOnUse"
       x1="275.94193"
       y1="-437.10501"
       x2="279.97546"
       y2="-431.91833" />
    <linearGradient
       inkscape:collect="always"
       id="linearGradient6538">
      <stop
         style="stop-color:#ffffff;stop-opacity:1;"
         offset="0"
         id="stop6540" />
      <stop
         style="stop-color:#ffffff;stop-opacity:0;"
         offset="1"
         id="stop6542" />
    </linearGradient>
    <linearGradient
       inkscape:collect="always"
       xlink:href="#linearGradient6538"
       id="linearGradient10610"
       gradientUnits="userSpaceOnUse"
       x1="285.94086"
       y1="-439.939"
       x2="289.39124"
       y2="-436.4429" />
    <linearGradient
       inkscape:collect="always"
       id="linearGradient6513">
      <stop
         style="stop-color:#ffffff;stop-opacity:1;"
         offset="0"
         id="stop6515" />
      <stop
         style="stop-color:#ffffff;stop-opacity:0;"
         offset="1"
         id="stop6517" />
    </linearGradient>
    <linearGradient
       inkscape:collect="always"
       xlink:href="#linearGradient6513"
       id="linearGradient10608"
       gradientUnits="userSpaceOnUse"
       x1="286.51172"
       y1="-441.29074"
       x2="289.85379"
       y2="-436.14453" />
    <linearGradient
       inkscape:collect="always"
       id="linearGradient6497">
      <stop
         style="stop-color:#ffffff;stop-opacity:1;"
         offset="0"
         id="stop6499" />
      <stop
         style="stop-color:#ffffff;stop-opacity:0;"
         offset="1"
         id="stop6501" />
    </linearGradient>
    <linearGradient
       inkscape:collect="always"
       xlink:href="#linearGradient6497"
       id="linearGradient10606"
       gradientUnits="userSpaceOnUse"
       x1="287.5173"
       y1="-439.75281"
       x2="289.67633"
       y2="-436.32199" />
    <linearGradient
       inkscape:collect="always"
       id="linearGradient6470">
      <stop
         style="stop-color:#ffffff;stop-opacity:1;"
         offset="0"
         id="stop6472" />
      <stop
         style="stop-color:#ffffff;stop-opacity:0;"
         offset="1"
         id="stop6474" />
    </linearGradient>
    <linearGradient
       inkscape:collect="always"
       xlink:href="#linearGradient6470"
       id="linearGradient10604"
       gradientUnits="userSpaceOnUse"
       x1="271.0217"
       y1="-441.05182"
       x2="285.02859"
       y2="-431.96991" />
    <linearGradient
       inkscape:collect="always"
       id="linearGradient7834">
      <stop
         style="stop-color:#ffffff;stop-opacity:1;"
         offset="0"
         id="stop7836" />
      <stop
         style="stop-color:#ffffff;stop-opacity:0;"
         offset="1"
         id="stop7838" />
    </linearGradient>
    <linearGradient
       inkscape:collect="always"
       xlink:href="#linearGradient7834"
       id="linearGradient10602"
       gradientUnits="userSpaceOnUse"
       x1="-156.29044"
       y1="-100.53421"
       x2="-153.0981"
       y2="-96.544556" />
    <linearGradient
       inkscape:collect="always"
       id="linearGradient8397">
      <stop
         style="stop-color:#ffffff;stop-opacity:1;"
         offset="0"
         id="stop8400" />
      <stop
         style="stop-color:#ffffff;stop-opacity:0;"
         offset="1"
         id="stop8402" />
    </linearGradient>
    <linearGradient
       inkscape:collect="always"
       xlink:href="#linearGradient8397"
       id="linearGradient10600"
       gradientUnits="userSpaceOnUse"
       x1="238.00478"
       y1="-388.47476"
       x2="245.65462"
       y2="-382.64539" />
    <linearGradient
       inkscape:collect="always"
       id="linearGradient8315">
      <stop
         style="stop-color:#ffffff;stop-opacity:1;"
         offset="0"
         id="stop8317" />
      <stop
         style="stop-color:#ffffff;stop-opacity:0;"
         offset="1"
         id="stop8319" />
    </linearGradient>
    <linearGradient
       inkscape:collect="always"
       xlink:href="#linearGradient8315"
       id="linearGradient10598"
       gradientUnits="userSpaceOnUse"
       x1="230.87598"
       y1="-390.43951"
       x2="235.25652"
       y2="-386.95901" />
    <linearGradient
       inkscape:collect="always"
       id="linearGradient8381">
      <stop
         style="stop-color:#ffffff;stop-opacity:1;"
         offset="0"
         id="stop8383" />
      <stop
         style="stop-color:#ffffff;stop-opacity:0;"
         offset="1"
         id="stop8385" />
    </linearGradient>
    <linearGradient
       inkscape:collect="always"
       xlink:href="#linearGradient8381"
       id="linearGradient10596"
       gradientUnits="userSpaceOnUse"
       x1="246.74042"
       y1="-391.31381"
       x2="252.69785"
       y2="-385.35165" />
    <linearGradient
       inkscape:collect="always"
       id="linearGradient8331">
      <stop
         style="stop-color:#ffffff;stop-opacity:1;"
         offset="0"
         id="stop8333" />
      <stop
         style="stop-color:#ffffff;stop-opacity:0;"
         offset="1"
         id="stop8335" />
    </linearGradient>
    <linearGradient
       inkscape:collect="always"
       xlink:href="#linearGradient8331"
       id="linearGradient10594"
       gradientUnits="userSpaceOnUse"
       x1="240.07379"
       y1="-393.4072"
       x2="245.82706"
       y2="-388.55029" />
    <linearGradient
       inkscape:collect="always"
       id="linearGradient8302">
      <stop
         style="stop-color:#ffffff;stop-opacity:1;"
         offset="0"
         id="stop8304" />
      <stop
         style="stop-color:#ffffff;stop-opacity:0;"
         offset="1"
         id="stop8306" />
    </linearGradient>
    <linearGradient
       inkscape:collect="always"
       xlink:href="#linearGradient8302"
       id="linearGradient10592"
       gradientUnits="userSpaceOnUse"
       gradientTransform="translate(122.023,102)"
       x1="228.50261"
       y1="-392.30591"
       x2="278.9151"
       y2="-375.37952" />
  </defs>
  <sodipodi:namedview
     id="base"
     pagecolor="#ffffff"
     bordercolor="#666666"
     borderopacity="1.0"
     inkscape:pageopacity="0.0"
     inkscape:pageshadow="2"
     inkscape:zoom="1.4142136"
     inkscape:cx="162.98811"
     inkscape:cy="369.81685"
     inkscape:current-layer="svg1306"
     showgrid="true"
     inkscape:grid-bbox="true"
     inkscape:document-units="px"
     inkscape:window-width="859"
     inkscape:window-height="818"
     inkscape:window-x="0"
     inkscape:window-y="30"
     inkscape:showpageshadow="false"
     inkscape:pagecheckerboard="0"
     inkscape:deskcolor="#d1d1d1" />
  <metadata
     id="metadata1311">
    <rdf:RDF>
      <cc:Work
         rdf:about="">
        <dc:format>image/svg+xml</dc:format>
        <dc:type
           rdf:resource="http://purl.org/dc/dcmitype/StillImage" />
        <dc:title>weather-snow</dc:title>
        <dc:date>January 2006</dc:date>
        <dc:creator>
          <cc:Agent>
            <dc:title>Ryan Collier (pseudo)</dc:title>
          </cc:Agent>
        </dc:creator>
        <dc:publisher>
          <cc:Agent>
            <dc:title>http://www.tango-project.org</dc:title>
          </cc:Agent>
        </dc:publisher>
        <dc:source>http://www.pseudocode.org</dc:source>
        <dc:subject>
          <rdf:Bag>
            <rdf:li>weather</rdf:li>
            <rdf:li>applet</rdf:li>
            <rdf:li>notification</rdf:li>
          </rdf:Bag>
        </dc:subject>
        <cc:license
           rdf:resource="http://creativecommons.org/publicdomain/zero/1.0/" />
        <dc:description>https://commons.wikimedia.org/wiki/File:Weather-snow.svg</dc:description>
      </cc:Work>
      <cc:License
         rdf:about="http://creativecommons.org/publicdomain/zero/1.0/">
        <cc:permits
           rdf:resource="http://creativecommons.org/ns#Reproduction" />
        <cc:permits
           rdf:resource="http://creativecommons.org/ns#Distribution" />
        <cc:permits
           rdf:resource="http://creativecommons.org/ns#DerivativeWorks" />
      </cc:License>
    </rdf:RDF>
  </metadata>
  <g
     id="g1"
     transform="matrix(5.145973,0,0,5.145973,8.0755324,12.920843)">
    <g
       id="g9947"
       transform="translate(-340.0455,298.0001)">
      <path
         id="path8718"
         d="m 364.523,-296 c -2.77242,0 -5.10823,1.57371 -6.40625,3.8125 -0.94436,-0.47504 -1.96519,-0.8125 -3.09375,-0.8125 -3.864,0 -7,3.136 -7,7 0,3.864 3.136,7 7,7 2.41967,0 4.43009,-1.31932 5.6875,-3.1875 1.1342,0.68962 2.38898,1.1875 3.8125,1.1875 0.91312,0 1.75295,-0.23202 2.5625,-0.53125 0.50994,0.86773 1.17912,1.57972 2,2.15625 -0.007,0.13038 -0.0625,0.24282 -0.0625,0.375 0,3.864 3.13599,7 7,7 3.864,0 7,-3.136 7,-7 0,-2.36969 -1.25898,-4.35834 -3.0625,-5.625 0.007,-0.13038 0.0625,-0.24282 0.0625,-0.375 0,-3.864 -3.13599,-7 -7,-7 -0.6227,0 -1.17519,0.22219 -1.75,0.375 -1.19453,-2.55884 -3.74134,-4.375 -6.75,-4.375 z"
         style="opacity:1;fill:#888a85;fill-opacity:1;stroke:none;stroke-width:1;stroke-linecap:butt;stroke-linejoin:miter;stroke-miterlimit:2;stroke-dasharray:none;stroke-dashoffset:0;stroke-opacity:1" />
      <path
         id="path8720"
         d="m 364.523,-295 c -2.78048,0 -5.13451,1.76185 -6.0625,4.21875 -0.98542,-0.70944 -2.13143,-1.21875 -3.4375,-1.21875 -3.312,0 -6,2.688 -6,6 0,3.312 2.688,6 6,6 2.42775,0 4.49324,-1.45558 5.4375,-3.53125 1.12076,0.91756 2.50214,1.53125 4.0625,1.53125 1.07454,0 2.04428,-0.31896 2.9375,-0.78125 0.3984,0.99976 1.10114,1.78632 1.9375,2.4375 -0.18001,0.59562 -0.375,1.18965 -0.375,1.84375 0,3.588 2.912,6.5 6.5,6.5 3.588,0 6.5,-2.912 6.5,-6.5 0,-2.36079 -1.33433,-4.33019 -3.21875,-5.46875 0.0626,-0.34723 0.21875,-0.66608 0.21875,-1.03125 0,-3.312 -2.688,-6 -6,-6 -0.85298,0 -1.6713,0.17868 -2.40625,0.5 -0.85377,-2.59388 -3.21524,-4.49999 -6.09375,-4.5 z"
         style="opacity:1;fill:url(#linearGradient10592);fill-opacity:1;stroke:none;stroke-width:1;stroke-linecap:butt;stroke-linejoin:miter;stroke-miterlimit:2;stroke-dasharray:none;stroke-dashoffset:0;stroke-opacity:1" />
      <circle
         transform="matrix(0.964447,0,0,0.964447,142.3115,91.52621)"
         id="path8722"
         style="opacity:1;fill:#c4c5c2;fill-opacity:1;stroke:none;stroke-width:1;stroke-linecap:butt;stroke-linejoin:miter;stroke-miterlimit:2;stroke-dasharray:none;stroke-dashoffset:0;stroke-opacity:1"
         cx="241.80843"
         cy="-383.6666"
         r="6.7396116" />
      <g
         transform="translate(122.023,102)"
         id="g8724">
        <circle
           style="opacity:1;fill:#c4c5c2;fill-opacity:1;stroke:none;stroke-width:1;stroke-linecap:butt;stroke-linejoin:miter;stroke-miterlimit:2;stroke-dasharray:none;stroke-dashoffset:0;stroke-opacity:1"
           id="path8726"
           transform="matrix(0.88263,0,0,0.88263,27.18078,-46.89094)"
           cx="243.95184"
           cy="-389.30136"
           r="6.2313786" />
        <circle
           style="opacity:1;fill:url(#linearGradient10594);fill-opacity:1;stroke:none;stroke-width:1;stroke-linecap:butt;stroke-linejoin:miter;stroke-miterlimit:2;stroke-dasharray:none;stroke-dashoffset:0;stroke-opacity:1"
           id="path8728"
           transform="matrix(0.88263,0,0,0.88263,27.18078,-46.89094)"
           cx="243.95184"
           cy="-389.30136"
           r="6.2313786" />
      </g>
      <g
         transform="translate(122.023,102)"
         id="g8730">
        <circle
           style="opacity:1;fill:#c4c5c2;fill-opacity:1;stroke:none;stroke-width:1;stroke-linecap:butt;stroke-linejoin:miter;stroke-miterlimit:2;stroke-dasharray:none;stroke-dashoffset:0;stroke-opacity:1"
           id="path8732"
           transform="matrix(0.911728,0,0,0.911728,21.45407,-34.76637)"
           cx="251.22179"
           cy="-385.7879"
           r="6.0325046" />
        <circle
           style="opacity:1;fill:url(#linearGradient10596);fill-opacity:1;stroke:none;stroke-width:1;stroke-linecap:butt;stroke-linejoin:miter;stroke-miterlimit:2;stroke-dasharray:none;stroke-dashoffset:0;stroke-opacity:1"
           id="path8734"
           transform="matrix(0.911728,0,0,0.911728,21.45407,-34.76637)"
           cx="251.22179"
           cy="-385.7879"
           r="6.0325046" />
      </g>
      <g
         transform="translate(122.023,102)"
         id="g8736">
        <circle
           style="opacity:1;fill:#c4c5c2;fill-opacity:1;stroke:none;stroke-width:1;stroke-linecap:butt;stroke-linejoin:miter;stroke-miterlimit:2;stroke-dasharray:none;stroke-dashoffset:0;stroke-opacity:1"
           id="path8738"
           transform="matrix(1.142799,0,0,1.142799,-33.76771,55.27704)"
           cx="233.43362"
           cy="-387.88715"
           r="4.3752232" />
        <circle
           style="opacity:1;fill:url(#linearGradient10598);fill-opacity:1;stroke:none;stroke-width:1;stroke-linecap:butt;stroke-linejoin:miter;stroke-miterlimit:2;stroke-dasharray:none;stroke-dashoffset:0;stroke-opacity:1"
           id="path8740"
           transform="matrix(1.142799,0,0,1.142799,-33.76771,55.27704)"
           cx="233.43362"
           cy="-387.88715"
           r="4.3752232" />
      </g>
      <g
         transform="translate(122.023,102)"
         id="g8742">
        <circle
           style="opacity:1;fill:#c4c5c2;fill-opacity:1;stroke:none;stroke-width:1;stroke-linecap:butt;stroke-linejoin:miter;stroke-miterlimit:2;stroke-dasharray:none;stroke-dashoffset:0;stroke-opacity:1"
           id="path8744"
           transform="matrix(1.038636,0,0,1.038636,-9.15094,14.48994)"
           cx="241.80843"
           cy="-383.6666"
           r="6.7396116" />
        <circle
           style="opacity:1;fill:url(#linearGradient10600);fill-opacity:1;stroke:none;stroke-width:1;stroke-linecap:butt;stroke-linejoin:miter;stroke-miterlimit:2;stroke-dasharray:none;stroke-dashoffset:0;stroke-opacity:1"
           id="path8746"
           transform="matrix(1.038636,0,0,1.038636,-9.150933,14.48993)"
           cx="241.80843"
           cy="-383.6666"
           r="6.7396116" />
      </g>
      <g
         style="stroke:none"
         transform="matrix(0.935028,0,0,0.935028,499.8484,-187.6162)"
         id="g8748">
        <circle
           style="opacity:1;fill:#c4c5c2;fill-opacity:1;stroke:none;stroke-width:0.331157;stroke-linecap:butt;stroke-linejoin:miter;stroke-miterlimit:0;stroke-dasharray:none;stroke-dashoffset:0;stroke-opacity:1"
           id="path8750"
           transform="matrix(1.737733,0,0,1.737733,110.8322,70.07649)"
           cx="-155.0625"
           cy="-96.9375"
           r="3.125" />
        <circle
           style="opacity:1;fill:url(#linearGradient10602);fill-opacity:1;stroke:none;stroke-width:0.452245;stroke-linecap:butt;stroke-linejoin:miter;stroke-miterlimit:0;stroke-dasharray:none;stroke-dashoffset:0;stroke-opacity:1"
           id="path8752"
           transform="matrix(1.737733,0,0,1.737733,110.8948,70.01402)"
           cx="-155.0625"
           cy="-96.9375"
           r="3.125" />
      </g>
      <g
         transform="translate(91.023,162)"
         id="g8798">
        <path
           style="fill:#c4c5c2;fill-opacity:1;stroke:#888a85;stroke-width:1;stroke-linecap:butt;stroke-linejoin:miter;stroke-miterlimit:2;stroke-dasharray:none;stroke-dashoffset:0;stroke-opacity:1"
           d="m 280.5,-445.5 c -2.27083,0 -4.10991,1.55028 -4.71875,3.625 -0.69323,-0.36383 -1.44451,-0.625 -2.28125,-0.625 -2.76,0 -5.00001,2.23999 -5,5 0,0.57893 0.16252,1.1077 0.34375,1.625 -1.37347,0.77074 -2.34375,2.189 -2.34375,3.875 0,2.484 2.016,4.50001 4.5,4.5 0.17713,0 18.82287,0 19,0 2.48399,0 4.5,-2.016 4.5,-4.5 0,-1.686 -0.97028,-3.10426 -2.34375,-3.875 0.18124,-0.51729 0.34375,-1.04608 0.34375,-1.625 0,-2.76 -2.24,-4.99999 -5,-5 -0.83674,0 -1.58802,0.26117 -2.28125,0.625 -0.60884,-2.07472 -2.44792,-3.625 -4.71875,-3.625 z"
           id="path8800"
           sodipodi:nodetypes="ccsscsssscsscc" />
        <path
           style="opacity:1;fill:url(#linearGradient10604);fill-opacity:1;stroke:none;stroke-width:1;stroke-linecap:butt;stroke-linejoin:miter;stroke-miterlimit:2;stroke-dasharray:none;stroke-dashoffset:0;stroke-opacity:1"
           d="m 280.5,-445 c -2.18972,0 -3.7236,1.33577 -4.39555,3.84352 -0.66846,-0.34362 -1.54759,-0.83335 -2.35445,-0.83335 -2.71651,0 -4.75514,1.93882 -4.75513,4.54554 0,0.54677 0.26721,1.33344 0.44196,1.82201 -1.32443,0.72795 -2.43683,1.8905 -2.43683,3.37255 0,2.34605 1.54617,4.25009 4.33928,4.25009 0.17081,0 18.15064,0 18.32144,0 2.77101,0 4.33928,-1.90404 4.33928,-4.25009 0,-1.59237 -1.1124,-2.66669 -2.43683,-3.39464 0.17476,-0.48856 0.46407,-1.25316 0.46407,-1.79992 0,-2.60671 -2.11581,-4.56763 -4.77723,-4.56764 -0.80687,0 -1.64181,0.48974 -2.31027,0.83336 C 284.29089,-443.60011 282.68973,-445 280.5,-445 Z"
           id="path8802"
           sodipodi:nodetypes="ccsscsssscsscc" />
        <g
           id="g8804">
          <circle
             transform="matrix(1.056604,0,0,1.056604,-24.19818,21.86331)"
             id="path8806"
             style="opacity:1;fill:#c4c5c2;fill-opacity:1;stroke:none;stroke-width:1;stroke-linecap:butt;stroke-linejoin:miter;stroke-miterlimit:2;stroke-dasharray:none;stroke-dashoffset:0;stroke-opacity:1"
             cx="288.375"
             cy="-437.59375"
             r="3.3125" />
          <circle
             transform="matrix(1.056604,0,0,1.056604,-24.19818,21.86331)"
             id="path8808"
             style="opacity:1;fill:url(#linearGradient10606);fill-opacity:1;stroke:none;stroke-width:1;stroke-linecap:butt;stroke-linejoin:miter;stroke-miterlimit:2;stroke-dasharray:none;stroke-dashoffset:0;stroke-opacity:1"
             cx="288.375"
             cy="-437.59375"
             r="3.3125" />
        </g>
        <rect
           style="opacity:1;fill:#c4c5c2;fill-opacity:1;stroke:none;stroke-width:1;stroke-linecap:butt;stroke-linejoin:miter;stroke-miterlimit:2;stroke-dasharray:none;stroke-dashoffset:0;stroke-opacity:1"
           id="rect8810"
           width="20"
           height="9"
           x="271"
           y="-438" />
        <circle
           style="opacity:1;fill:#c4c5c2;fill-opacity:1;stroke:none;stroke-width:1;stroke-linecap:butt;stroke-linejoin:miter;stroke-miterlimit:2;stroke-dasharray:none;stroke-dashoffset:0;stroke-opacity:1"
           id="path8812"
           transform="matrix(0.90566,0,0,0.90566,9.830195,-35.68869)"
           cx="288.375"
           cy="-437.59375"
           r="3.3125" />
        <g
           id="g8814">
          <circle
             transform="matrix(1.056604,0,0,1.056604,-17.19811,24.86321)"
             id="path8816"
             style="opacity:1;fill:#c4c5c2;fill-opacity:1;stroke:none;stroke-width:1;stroke-linecap:butt;stroke-linejoin:miter;stroke-miterlimit:2;stroke-dasharray:none;stroke-dashoffset:0;stroke-opacity:1"
             cx="288.375"
             cy="-437.59375"
             r="3.3125" />
          <circle
             transform="matrix(1.056604,0,0,1.056604,-17.19818,24.86331)"
             id="path8818"
             style="opacity:1;fill:url(#linearGradient10608);fill-opacity:1;stroke:none;stroke-width:1;stroke-linecap:butt;stroke-linejoin:miter;stroke-miterlimit:2;stroke-dasharray:none;stroke-dashoffset:0;stroke-opacity:1"
             cx="288.375"
             cy="-437.59375"
             r="3.3125" />
        </g>
        <g
           id="g8820">
          <circle
             transform="matrix(1.056604,0,0,1.056604,-31.19818,24.86331)"
             id="path8822"
             style="opacity:1;fill:#c4c5c2;fill-opacity:1;stroke:none;stroke-width:1;stroke-linecap:butt;stroke-linejoin:miter;stroke-miterlimit:2;stroke-dasharray:none;stroke-dashoffset:0;stroke-opacity:1"
             cx="288.375"
             cy="-437.59375"
             r="3.3125" />
          <circle
             transform="matrix(1.056604,0,0,1.056604,-31.19818,24.86331)"
             id="path8824"
             style="opacity:1;fill:url(#linearGradient10610);fill-opacity:1;stroke:none;stroke-width:1;stroke-linecap:butt;stroke-linejoin:miter;stroke-miterlimit:2;stroke-dasharray:none;stroke-dashoffset:0;stroke-opacity:1"
             cx="288.375"
             cy="-437.59375"
             r="3.3125" />
        </g>
        <g
           id="g8826"
           transform="translate(-1)">
          <path
             id="path8828"
             d="m 280.46875,-440.96875 c -3.57938,0 -6.46875,2.92063 -6.46875,6.5 0,2.37068 1.34943,4.33779 3.25,5.46875 h 6.46875 c 1.90057,-1.13096 3.25,-3.12931 3.25,-5.5 0,-3.57938 -2.92063,-6.46875 -6.5,-6.46875 z"
             style="opacity:1;fill:#c4c5c2;fill-opacity:1;stroke:none;stroke-width:1;stroke-linecap:butt;stroke-linejoin:miter;stroke-miterlimit:2;stroke-dasharray:none;stroke-dashoffset:0;stroke-opacity:1" />
          <path
             id="path8830"
             d="m 280.5,-441 c -3.588,0 -6.5,2.91201 -6.5,6.5 0,2.3764 1.34485,4.36632 3.25,5.5 h 6.5 c 1.90515,-1.13368 3.25,-3.1236 3.25,-5.5 0,-3.588 -2.912,-6.49999 -6.5,-6.5 z"
             style="opacity:1;fill:url(#linearGradient10612);fill-opacity:1;stroke:none;stroke-width:1;stroke-linecap:butt;stroke-linejoin:miter;stroke-miterlimit:2;stroke-dasharray:none;stroke-dashoffset:0;stroke-opacity:1" />
        </g>
        <circle
           style="opacity:1;fill:url(#linearGradient10614);fill-opacity:1;stroke:none;stroke-width:1;stroke-linecap:butt;stroke-linejoin:miter;stroke-miterlimit:2;stroke-dasharray:none;stroke-dashoffset:0;stroke-opacity:1"
           id="path8832"
           transform="matrix(0.90566,0,0,0.90566,9.830296,-35.68884)"
           cx="288.375"
           cy="-437.59375"
           r="3.3125" />
        <path
           style="fill:#888a85;fill-opacity:1;fill-rule:evenodd;stroke:none;stroke-width:1px;stroke-linecap:butt;stroke-linejoin:miter;stroke-opacity:1"
           d="m 292.9564,-437.33396 c -0.002,2.68456 -3.26926,3.71395 -3.26926,3.71395 0,0 2.34874,-1.62595 2.33685,-3.70501 z"
           id="path8834"
           sodipodi:nodetypes="ccss" />
        <g
           id="g8836"
           transform="matrix(1.142857,0,0,1.142857,-28.57139,67.00008)">
          <circle
             transform="matrix(1.056604,0,0,1.056604,-31.19818,24.86331)"
             id="path8838"
             style="opacity:1;fill:#c4c5c2;fill-opacity:1;stroke:none;stroke-width:1;stroke-linecap:butt;stroke-linejoin:miter;stroke-miterlimit:2;stroke-dasharray:none;stroke-dashoffset:0;stroke-opacity:1"
             cx="288.375"
             cy="-437.59375"
             r="3.3125" />
          <circle
             transform="matrix(1.056604,0,0,1.056604,-31.19818,24.86331)"
             id="path8840"
             style="opacity:1;fill:url(#linearGradient10616);fill-opacity:1;stroke:none;stroke-width:1;stroke-linecap:butt;stroke-linejoin:miter;stroke-miterlimit:2;stroke-dasharray:none;stroke-dashoffset:0;stroke-opacity:1"
             cx="288.375"
             cy="-437.59375"
             r="3.3125" />
        </g>
      </g>
      <g
         transform="translate(76.02041,158)"
         id="g8754">
        <path
           style="fill:#c4c5c2;fill-opacity:1;stroke:#888a85;stroke-width:1;stroke-linecap:butt;stroke-linejoin:miter;stroke-miterlimit:2;stroke-dasharray:none;stroke-dashoffset:0;stroke-opacity:1"
           d="m 280.5,-445.5 c -2.27083,0 -4.10991,1.55028 -4.71875,3.625 -0.69323,-0.36383 -1.44451,-0.625 -2.28125,-0.625 -2.76,0 -5.00001,2.23999 -5,5 0,0.57893 0.16252,1.1077 0.34375,1.625 -1.37347,0.77074 -2.34375,2.189 -2.34375,3.875 0,2.484 2.016,4.50001 4.5,4.5 0.17713,0 18.82287,0 19,0 2.48399,0 4.5,-2.016 4.5,-4.5 0,-1.686 -0.97028,-3.10426 -2.34375,-3.875 0.18124,-0.51729 0.34375,-1.04608 0.34375,-1.625 0,-2.76 -2.24,-4.99999 -5,-5 -0.83674,0 -1.58802,0.26117 -2.28125,0.625 -0.60884,-2.07472 -2.44792,-3.625 -4.71875,-3.625 z"
           id="path8756"
           sodipodi:nodetypes="ccsscsssscsscc" />
        <path
           style="opacity:1;fill:url(#linearGradient10618);fill-opacity:1;stroke:none;stroke-width:1;stroke-linecap:butt;stroke-linejoin:miter;stroke-miterlimit:2;stroke-dasharray:none;stroke-dashoffset:0;stroke-opacity:1"
           d="m 280.5,-445 c -2.18972,0 -3.7236,1.33577 -4.39555,3.84352 -0.66846,-0.34362 -1.54759,-0.83335 -2.35445,-0.83335 -2.71651,0 -4.75514,1.93882 -4.75513,4.54554 0,0.54677 0.26721,1.33344 0.44196,1.82201 -1.32443,0.72795 -2.43683,1.8905 -2.43683,3.37255 0,2.34605 1.54617,4.25009 4.33928,4.25009 0.17081,0 18.15064,0 18.32144,0 2.77101,0 4.33928,-1.90404 4.33928,-4.25009 0,-1.59237 -1.1124,-2.66669 -2.43683,-3.39464 0.17476,-0.48856 0.46407,-1.25316 0.46407,-1.79992 0,-2.60671 -2.11581,-4.56763 -4.77723,-4.56764 -0.80687,0 -1.64181,0.48974 -2.31027,0.83336 C 284.29089,-443.60011 282.68973,-445 280.5,-445 Z"
           id="path8758"
           sodipodi:nodetypes="ccsscsssscsscc" />
        <g
           id="g8760">
          <circle
             transform="matrix(1.056604,0,0,1.056604,-24.19818,21.86331)"
             id="path8762"
             style="opacity:1;fill:#c4c5c2;fill-opacity:1;stroke:none;stroke-width:1;stroke-linecap:butt;stroke-linejoin:miter;stroke-miterlimit:2;stroke-dasharray:none;stroke-dashoffset:0;stroke-opacity:1"
             cx="288.375"
             cy="-437.59375"
             r="3.3125" />
          <circle
             transform="matrix(1.056604,0,0,1.056604,-24.19818,21.86331)"
             id="path8764"
             style="opacity:1;fill:url(#linearGradient10620);fill-opacity:1;stroke:none;stroke-width:1;stroke-linecap:butt;stroke-linejoin:miter;stroke-miterlimit:2;stroke-dasharray:none;stroke-dashoffset:0;stroke-opacity:1"
             cx="288.375"
             cy="-437.59375"
             r="3.3125" />
        </g>
        <rect
           style="opacity:1;fill:#c4c5c2;fill-opacity:1;stroke:none;stroke-width:1;stroke-linecap:butt;stroke-linejoin:miter;stroke-miterlimit:2;stroke-dasharray:none;stroke-dashoffset:0;stroke-opacity:1"
           id="rect8766"
           width="20"
           height="9"
           x="271"
           y="-438" />
        <circle
           style="opacity:1;fill:#c4c5c2;fill-opacity:1;stroke:none;stroke-width:1;stroke-linecap:butt;stroke-linejoin:miter;stroke-miterlimit:2;stroke-dasharray:none;stroke-dashoffset:0;stroke-opacity:1"
           id="path8768"
           transform="matrix(0.90566,0,0,0.90566,9.830195,-35.68869)"
           cx="288.375"
           cy="-437.59375"
           r="3.3125" />
        <g
           id="g8770">
          <circle
             transform="matrix(1.056604,0,0,1.056604,-17.19811,24.86321)"
             id="path8772"
             style="opacity:1;fill:#c4c5c2;fill-opacity:1;stroke:none;stroke-width:1;stroke-linecap:butt;stroke-linejoin:miter;stroke-miterlimit:2;stroke-dasharray:none;stroke-dashoffset:0;stroke-opacity:1"
             cx="288.375"
             cy="-437.59375"
             r="3.3125" />
          <circle
             transform="matrix(1.056604,0,0,1.056604,-17.19818,24.86331)"
             id="path8774"
             style="opacity:1;fill:url(#linearGradient10622);fill-opacity:1;stroke:none;stroke-width:1;stroke-linecap:butt;stroke-linejoin:miter;stroke-miterlimit:2;stroke-dasharray:none;stroke-dashoffset:0;stroke-opacity:1"
             cx="288.375"
             cy="-437.59375"
             r="3.3125" />
        </g>
        <g
           id="g8776">
          <circle
             transform="matrix(1.056604,0,0,1.056604,-31.19818,24.86331)"
             id="path8778"
             style="opacity:1;fill:#c4c5c2;fill-opacity:1;stroke:none;stroke-width:1;stroke-linecap:butt;stroke-linejoin:miter;stroke-miterlimit:2;stroke-dasharray:none;stroke-dashoffset:0;stroke-opacity:1"
             cx="288.375"
             cy="-437.59375"
             r="3.3125" />
          <circle
             transform="matrix(1.056604,0,0,1.056604,-31.19818,24.86331)"
             id="path8780"
             style="opacity:1;fill:url(#linearGradient10624);fill-opacity:1;stroke:none;stroke-width:1;stroke-linecap:butt;stroke-linejoin:miter;stroke-miterlimit:2;stroke-dasharray:none;stroke-dashoffset:0;stroke-opacity:1"
             cx="288.375"
             cy="-437.59375"
             r="3.3125" />
        </g>
        <g
           id="g8782"
           transform="translate(-1)">
          <path
             id="path8784"
             d="m 280.46875,-440.96875 c -3.57938,0 -6.46875,2.92063 -6.46875,6.5 0,2.37068 1.34943,4.33779 3.25,5.46875 h 6.46875 c 1.90057,-1.13096 3.25,-3.12931 3.25,-5.5 0,-3.57938 -2.92063,-6.46875 -6.5,-6.46875 z"
             style="opacity:1;fill:#c4c5c2;fill-opacity:1;stroke:none;stroke-width:1;stroke-linecap:butt;stroke-linejoin:miter;stroke-miterlimit:2;stroke-dasharray:none;stroke-dashoffset:0;stroke-opacity:1" />
          <path
             id="path8786"
             d="m 280.5,-441 c -3.588,0 -6.5,2.91201 -6.5,6.5 0,2.3764 1.34485,4.36632 3.25,5.5 h 6.5 c 1.90515,-1.13368 3.25,-3.1236 3.25,-5.5 0,-3.588 -2.912,-6.49999 -6.5,-6.5 z"
             style="opacity:1;fill:url(#linearGradient10626);fill-opacity:1;stroke:none;stroke-width:1;stroke-linecap:butt;stroke-linejoin:miter;stroke-miterlimit:2;stroke-dasharray:none;stroke-dashoffset:0;stroke-opacity:1" />
        </g>
        <circle
           style="opacity:1;fill:url(#linearGradient10628);fill-opacity:1;stroke:none;stroke-width:1;stroke-linecap:butt;stroke-linejoin:miter;stroke-miterlimit:2;stroke-dasharray:none;stroke-dashoffset:0;stroke-opacity:1"
           id="path8788"
           transform="matrix(0.90566,0,0,0.90566,9.830296,-35.68884)"
           cx="288.375"
           cy="-437.59375"
           r="3.3125" />
        <path
           style="fill:#888a85;fill-opacity:1;fill-rule:evenodd;stroke:none;stroke-width:1px;stroke-linecap:butt;stroke-linejoin:miter;stroke-opacity:1"
           d="m 292.9564,-437.33396 c -0.002,2.68456 -3.26926,3.71395 -3.26926,3.71395 0,0 2.34874,-1.62595 2.33685,-3.70501 z"
           id="path8790"
           sodipodi:nodetypes="ccss" />
        <g
           id="g8792"
           transform="matrix(1.142857,0,0,1.142857,-28.57139,67.00008)">
          <circle
             transform="matrix(1.056604,0,0,1.056604,-31.19818,24.86331)"
             id="path8794"
             style="opacity:1;fill:#c4c5c2;fill-opacity:1;stroke:none;stroke-width:1;stroke-linecap:butt;stroke-linejoin:miter;stroke-miterlimit:2;stroke-dasharray:none;stroke-dashoffset:0;stroke-opacity:1"
             cx="288.375"
             cy="-437.59375"
             r="3.3125" />
          <circle
             transform="matrix(1.056604,0,0,1.056604,-31.19818,24.86331)"
             id="path8796"
             style="opacity:1;fill:url(#linearGradient10630);fill-opacity:1;stroke:none;stroke-width:1;stroke-linecap:butt;stroke-linejoin:miter;stroke-miterlimit:2;stroke-dasharray:none;stroke-dashoffset:0;stroke-opacity:1"
             cx="288.375"
             cy="-437.59375"
             r="3.3125" />
        </g>
      </g>
    </g>
    <g
       id="g12157"
       transform="translate(-163.0077,222.0147)">
      <circle
         transform="matrix(0.68552,0,0,0.68552,151.7017,27.15827)"
         id="path12159"
         style="opacity:1;fill:#ffffff;fill-opacity:1;stroke:#729fcf;stroke-width:1.45875;stroke-linecap:butt;stroke-linejoin:miter;stroke-miterlimit:0;stroke-dasharray:none;stroke-dashoffset:0;stroke-opacity:1"
         cx="29.610096"
         cy="-316.77872"
         r="2.2097087" />
      <circle
         transform="matrix(0.915572,0,0,0.915587,152.4091,103.5577)"
         id="path12161"
         style="opacity:1;fill:#ffffff;fill-opacity:1;stroke:#729fcf;stroke-width:1.0922;stroke-linecap:butt;stroke-linejoin:miter;stroke-miterlimit:0;stroke-dasharray:none;stroke-dashoffset:0;stroke-opacity:1"
         cx="29.610096"
         cy="-316.77872"
         r="2.2097087" />
      <circle
         transform="matrix(0.672406,0,0,0.683742,153.0708,34.62149)"
         id="path12163"
         style="opacity:1;fill:#ffffff;fill-opacity:1;stroke:#729fcf;stroke-width:1.47482;stroke-linecap:butt;stroke-linejoin:miter;stroke-miterlimit:0;stroke-dasharray:none;stroke-dashoffset:0;stroke-opacity:1"
         cx="29.610096"
         cy="-316.77872"
         r="2.2097087" />
      <circle
         transform="matrix(0.6823,0,0,0.680269,181.797,30.49471)"
         id="path12165"
         style="opacity:1;fill:#ffffff;fill-opacity:1;stroke:#729fcf;stroke-width:1.46782;stroke-linecap:butt;stroke-linejoin:miter;stroke-miterlimit:0;stroke-dasharray:none;stroke-dashoffset:0;stroke-opacity:1"
         cx="29.610096"
         cy="-316.77872"
         r="2.2097087" />
      <circle
         transform="matrix(1.107132,0,0,1.117168,157.2177,164.9217)"
         id="path12167"
         style="opacity:1;fill:#ffffff;fill-opacity:1;stroke:#729fcf;stroke-width:0.899168;stroke-linecap:butt;stroke-linejoin:miter;stroke-miterlimit:0;stroke-dasharray:none;stroke-dashoffset:0;stroke-opacity:1"
         cx="29.610096"
         cy="-316.77872"
         r="2.2097087" />
      <circle
         transform="matrix(1.127592,0,0,1.05183,161.6119,151.3731)"
         id="path12169"
         style="opacity:1;fill:#ffffff;fill-opacity:1;stroke:#729fcf;stroke-width:0.918229;stroke-linecap:butt;stroke-linejoin:miter;stroke-miterlimit:0;stroke-dasharray:none;stroke-dashoffset:0;stroke-opacity:1"
         cx="29.610096"
         cy="-316.77872"
         r="2.2097087" />
      <circle
         transform="matrix(0.685519,0,0,0.680487,164.6869,34.56369)"
         id="path12171"
         style="opacity:1;fill:#ffffff;fill-opacity:1;stroke:#729fcf;stroke-width:1.46413;stroke-linecap:butt;stroke-linejoin:miter;stroke-miterlimit:0;stroke-dasharray:none;stroke-dashoffset:0;stroke-opacity:1"
         cx="29.610096"
         cy="-316.77872"
         r="2.2097087" />
    </g>
  </g>
</svg>
